<?xml version="1.0" encoding="UTF-8" standalone="no"?>
<!DOCTYPE svg PUBLIC "-//W3C//DTD SVG 1.1//EN"
 "http://www.w3.org/Graphics/SVG/1.1/DTD/svg11.dtd">
<!-- Generated by graphviz version 2.36.0 (20140111.2315)
 -->
<!-- Title: source/main/gameplay/AircraftSimulation.cpp Pages: 1 -->
<svg width="2125pt" height="432pt"
 viewBox="0.00 0.00 2125.23 432.00" xmlns="http://www.w3.org/2000/svg" xmlns:xlink="http://www.w3.org/1999/xlink">
<g id="graph0" class="graph" transform="scale(1 1) rotate(0) translate(4 428)">
<title>source/main/gameplay/AircraftSimulation.cpp</title>
<polygon fill="white" stroke="none" points="-4,4 -4,-428 2121.23,-428 2121.23,4 -4,4"/>
<!-- Node1 -->
<g id="node1" class="node"><title>Node1</title>
<polygon fill="#bfbfbf" stroke="black" points="1151,-393 1151,-423 1267,-423 1267,-393 1151,-393"/>
<text text-anchor="start" x="1159" y="-411" font-family="Helvetica,sans-Serif" font-size="10.00">source/main/gameplay</text>
<text text-anchor="middle" x="1209" y="-400" font-family="Helvetica,sans-Serif" font-size="10.00">/AircraftSimulation.cpp</text>
</g>
<!-- Node2 -->
<g id="node2" class="node"><title>Node2</title>
<g id="a_node2"><a xlink:href="_aircraft_simulation_8h.html" target="_top" xlink:title="AircraftSimulation.h">
<polygon fill="white" stroke="black" points="165,-280.5 165,-299.5 267,-299.5 267,-280.5 165,-280.5"/>
<text text-anchor="middle" x="216" y="-287.5" font-family="Helvetica,sans-Serif" font-size="10.00">AircraftSimulation.h</text>
</a>
</g>
</g>
<!-- Node1&#45;&gt;Node2 -->
<g id="edge1" class="edge"><title>Node1&#45;&gt;Node2</title>
<path fill="none" stroke="midnightblue" d="M1150.71,-401.234C1060.04,-392.173 879.747,-373.794 727,-356 564.372,-337.055 373.004,-311.963 277.178,-299.206"/>
<polygon fill="midnightblue" stroke="midnightblue" points="277.465,-295.713 267.09,-297.861 276.54,-302.652 277.465,-295.713"/>
</g>
<!-- Node4 -->
<g id="node4" class="node"><title>Node4</title>
<polygon fill="white" stroke="#bfbfbf" points="1313.5,-336.5 1313.5,-355.5 1430.5,-355.5 1430.5,-336.5 1313.5,-336.5"/>
<text text-anchor="middle" x="1372" y="-343.5" font-family="Helvetica,sans-Serif" font-size="10.00">OgreOverlayManager.h</text>
</g>
<!-- Node1&#45;&gt;Node4 -->
<g id="edge3" class="edge"><title>Node1&#45;&gt;Node4</title>
<path fill="none" stroke="midnightblue" d="M1247.22,-392.933C1275.08,-382.674 1312.46,-368.915 1339.03,-359.137"/>
<polygon fill="midnightblue" stroke="midnightblue" points="1340.46,-362.339 1348.64,-355.6 1338.04,-355.77 1340.46,-362.339"/>
</g>
<!-- Node5 -->
<g id="node5" class="node"><title>Node5</title>
<polygon fill="white" stroke="#bfbfbf" points="1449,-336.5 1449,-355.5 1565,-355.5 1565,-336.5 1449,-336.5"/>
<text text-anchor="middle" x="1507" y="-343.5" font-family="Helvetica,sans-Serif" font-size="10.00">OgreOverlayElement.h</text>
</g>
<!-- Node1&#45;&gt;Node5 -->
<g id="edge4" class="edge"><title>Node1&#45;&gt;Node5</title>
<path fill="none" stroke="midnightblue" d="M1267.16,-395.289C1321.47,-384.354 1401.82,-368.178 1454.29,-357.613"/>
<polygon fill="midnightblue" stroke="midnightblue" points="1455.28,-360.983 1464.4,-355.578 1453.9,-354.121 1455.28,-360.983"/>
</g>
<!-- Node6 -->
<g id="node6" class="node"><title>Node6</title>
<g id="a_node6"><a xlink:href="_aero_engine_8h.html" target="_top" xlink:title="AeroEngine.h">
<polygon fill="white" stroke="black" points="1237.5,-280.5 1237.5,-299.5 1312.5,-299.5 1312.5,-280.5 1237.5,-280.5"/>
<text text-anchor="middle" x="1275" y="-287.5" font-family="Helvetica,sans-Serif" font-size="10.00">AeroEngine.h</text>
</a>
</g>
</g>
<!-- Node1&#45;&gt;Node6 -->
<g id="edge5" class="edge"><title>Node1&#45;&gt;Node6</title>
<path fill="none" stroke="midnightblue" d="M1217.09,-392.776C1229.2,-371.496 1252,-331.418 1265.09,-308.415"/>
<polygon fill="midnightblue" stroke="midnightblue" points="1268.14,-310.129 1270.05,-299.707 1262.06,-306.668 1268.14,-310.129"/>
</g>
<!-- Node23 -->
<g id="node23" class="node"><title>Node23</title>
<g id="a_node23"><a xlink:href="_application_8h.html" target="_top" xlink:title="Central state/object manager and communications hub. ">
<polygon fill="white" stroke="black" points="981.5,-280.5 981.5,-299.5 1054.5,-299.5 1054.5,-280.5 981.5,-280.5"/>
<text text-anchor="middle" x="1018" y="-287.5" font-family="Helvetica,sans-Serif" font-size="10.00">Application.h</text>
</a>
</g>
</g>
<!-- Node1&#45;&gt;Node23 -->
<g id="edge24" class="edge"><title>Node1&#45;&gt;Node23</title>
<path fill="none" stroke="midnightblue" d="M1168.46,-392.906C1145.19,-383.957 1115.94,-371.207 1092,-356 1069.8,-341.898 1047.56,-321.277 1033.35,-307.061"/>
<polygon fill="midnightblue" stroke="midnightblue" points="1035.46,-304.222 1025.97,-299.529 1030.47,-309.121 1035.46,-304.222"/>
</g>
<!-- Node26 -->
<g id="node26" class="node"><title>Node26</title>
<g id="a_node26"><a xlink:href="_auto_pilot_8h.html" target="_top" xlink:title="AutoPilot.h">
<polygon fill="white" stroke="black" points="1143.5,-224.5 1143.5,-243.5 1208.5,-243.5 1208.5,-224.5 1143.5,-224.5"/>
<text text-anchor="middle" x="1176" y="-231.5" font-family="Helvetica,sans-Serif" font-size="10.00">AutoPilot.h</text>
</a>
</g>
</g>
<!-- Node1&#45;&gt;Node26 -->
<g id="edge30" class="edge"><title>Node1&#45;&gt;Node26</title>
<path fill="none" stroke="midnightblue" d="M1206.3,-392.925C1200.38,-362.073 1186.26,-288.484 1179.6,-253.755"/>
<polygon fill="midnightblue" stroke="midnightblue" points="1182.97,-252.746 1177.65,-243.585 1176.09,-254.065 1182.97,-252.746"/>
</g>
<!-- Node28 -->
<g id="node28" class="node"><title>Node28</title>
<g id="a_node28"><a xlink:href="_beam_8h.html" target="_top" xlink:title="Beam.h">
<polygon fill="white" stroke="black" points="1656,-280.5 1656,-299.5 1706,-299.5 1706,-280.5 1656,-280.5"/>
<text text-anchor="middle" x="1681" y="-287.5" font-family="Helvetica,sans-Serif" font-size="10.00">Beam.h</text>
</a>
</g>
</g>
<!-- Node1&#45;&gt;Node28 -->
<g id="edge34" class="edge"><title>Node1&#45;&gt;Node28</title>
<path fill="none" stroke="midnightblue" d="M1222.96,-392.745C1240.27,-376.04 1271.5,-348.994 1304,-336 1365.72,-311.324 1564.21,-297.598 1645.64,-292.885"/>
<polygon fill="midnightblue" stroke="midnightblue" points="1646.09,-296.365 1655.87,-292.304 1645.69,-289.376 1646.09,-296.365"/>
</g>
<!-- Node42 -->
<g id="node42" class="node"><title>Node42</title>
<g id="a_node42"><a xlink:href="_beam_engine_8h.html" target="_top" xlink:title="BeamEngine.h">
<polygon fill="white" stroke="black" points="1101,-336.5 1101,-355.5 1181,-355.5 1181,-336.5 1101,-336.5"/>
<text text-anchor="middle" x="1141" y="-343.5" font-family="Helvetica,sans-Serif" font-size="10.00">BeamEngine.h</text>
</a>
</g>
</g>
<!-- Node1&#45;&gt;Node42 -->
<g id="edge64" class="edge"><title>Node1&#45;&gt;Node42</title>
<path fill="none" stroke="midnightblue" d="M1192.88,-392.781C1182.6,-383.703 1169.25,-371.929 1158.67,-362.595"/>
<polygon fill="midnightblue" stroke="midnightblue" points="1160.71,-359.722 1150.89,-355.731 1156.08,-364.971 1160.71,-359.722"/>
</g>
<!-- Node43 -->
<g id="node43" class="node"><title>Node43</title>
<g id="a_node43"><a xlink:href="_input_engine_8h.html" target="_top" xlink:title="Input logic. ">
<polygon fill="white" stroke="black" points="457.5,-224.5 457.5,-243.5 534.5,-243.5 534.5,-224.5 457.5,-224.5"/>
<text text-anchor="middle" x="496" y="-231.5" font-family="Helvetica,sans-Serif" font-size="10.00">InputEngine.h</text>
</a>
</g>
</g>
<!-- Node1&#45;&gt;Node43 -->
<g id="edge67" class="edge"><title>Node1&#45;&gt;Node43</title>
<path fill="none" stroke="midnightblue" d="M1150.95,-392.997C1012.72,-359.651 666.287,-276.079 541.606,-246.002"/>
<polygon fill="midnightblue" stroke="midnightblue" points="542.168,-242.537 531.627,-243.594 540.527,-249.342 542.168,-242.537"/>
</g>
<!-- Node3 -->
<g id="node3" class="node"><title>Node3</title>
<g id="a_node3"><a xlink:href="_forward_declarations_8h.html" target="_top" xlink:title="Global forward declarations. ">
<polygon fill="white" stroke="black" points="844.5,-0.5 844.5,-19.5 959.5,-19.5 959.5,-0.5 844.5,-0.5"/>
<text text-anchor="middle" x="902" y="-7.5" font-family="Helvetica,sans-Serif" font-size="10.00">ForwardDeclarations.h</text>
</a>
</g>
</g>
<!-- Node2&#45;&gt;Node3 -->
<g id="edge2" class="edge"><title>Node2&#45;&gt;Node3</title>
<path fill="none" stroke="midnightblue" d="M164.811,-285.05C100.937,-277.006 0,-252.645 0,-179 0,-179 0,-179 0,-121 0,-62.6761 58.072,-72.5449 114,-56 248.014,-16.3553 668.751,-11.3183 834.21,-10.9082"/>
<polygon fill="midnightblue" stroke="midnightblue" points="834.269,-14.4082 844.262,-10.8883 834.255,-7.40822 834.269,-14.4082"/>
</g>
<!-- Node7 -->
<g id="node7" class="node"><title>Node7</title>
<g id="a_node7"><a xlink:href="_ro_r_prerequisites_8h.html" target="_top" xlink:title="RoRPrerequisites.h">
<polygon fill="white" stroke="black" points="1160,-112.5 1160,-131.5 1262,-131.5 1262,-112.5 1160,-112.5"/>
<text text-anchor="middle" x="1211" y="-119.5" font-family="Helvetica,sans-Serif" font-size="10.00">RoRPrerequisites.h</text>
</a>
</g>
</g>
<!-- Node6&#45;&gt;Node7 -->
<g id="edge6" class="edge"><title>Node6&#45;&gt;Node7</title>
<path fill="none" stroke="midnightblue" d="M1274.82,-280.291C1274.07,-259.681 1270.25,-206.74 1251,-168 1245.56,-157.048 1236.73,-146.707 1228.76,-138.707"/>
<polygon fill="midnightblue" stroke="midnightblue" points="1230.88,-135.898 1221.22,-131.55 1226.06,-140.974 1230.88,-135.898"/>
</g>
<!-- Node7&#45;&gt;Node3 -->
<g id="edge18" class="edge"><title>Node7&#45;&gt;Node3</title>
<path fill="none" stroke="midnightblue" d="M1262.04,-119.832C1333.42,-116.489 1449.71,-103.792 1406,-56 1377.14,-24.4439 1100.57,-14.8576 969.837,-12.0765"/>
<polygon fill="midnightblue" stroke="midnightblue" points="969.614,-8.57124 959.545,-11.8652 969.471,-15.5698 969.614,-8.57124"/>
</g>
<!-- Node8 -->
<g id="node8" class="node"><title>Node8</title>
<polygon fill="white" stroke="#bfbfbf" points="1898.5,-56.5 1898.5,-75.5 2001.5,-75.5 2001.5,-56.5 1898.5,-56.5"/>
<text text-anchor="middle" x="1950" y="-63.5" font-family="Helvetica,sans-Serif" font-size="10.00">OgrePrerequisites.h</text>
</g>
<!-- Node7&#45;&gt;Node8 -->
<g id="edge7" class="edge"><title>Node7&#45;&gt;Node8</title>
<path fill="none" stroke="midnightblue" d="M1262.38,-117.722C1370.94,-110.722 1631.61,-93.5154 1850,-76 1862.41,-75.0048 1875.67,-73.8646 1888.36,-72.7376"/>
<polygon fill="midnightblue" stroke="midnightblue" points="1888.72,-76.2186 1898.37,-71.8397 1888.1,-69.2466 1888.72,-76.2186"/>
</g>
<!-- Node9 -->
<g id="node9" class="node"><title>Node9</title>
<polygon fill="white" stroke="#bfbfbf" points="578.5,-56.5 578.5,-75.5 693.5,-75.5 693.5,-56.5 578.5,-56.5"/>
<text text-anchor="middle" x="636" y="-63.5" font-family="Helvetica,sans-Serif" font-size="10.00">OgreAxisAlignedBox.h</text>
</g>
<!-- Node7&#45;&gt;Node9 -->
<g id="edge8" class="edge"><title>Node7&#45;&gt;Node9</title>
<path fill="none" stroke="midnightblue" d="M1159.99,-117.294C1069.97,-110.578 876.818,-95.3825 703.635,-76.1394"/>
<polygon fill="midnightblue" stroke="midnightblue" points="703.9,-72.6473 693.573,-75.0142 703.122,-79.604 703.9,-72.6473"/>
</g>
<!-- Node10 -->
<g id="node10" class="node"><title>Node10</title>
<polygon fill="white" stroke="#bfbfbf" points="1742.5,-56.5 1742.5,-75.5 1841.5,-75.5 1841.5,-56.5 1742.5,-56.5"/>
<text text-anchor="middle" x="1792" y="-63.5" font-family="Helvetica,sans-Serif" font-size="10.00">OgreColourValue.h</text>
</g>
<!-- Node7&#45;&gt;Node10 -->
<g id="edge9" class="edge"><title>Node7&#45;&gt;Node10</title>
<path fill="none" stroke="midnightblue" d="M1262.24,-117.699C1354.16,-111.534 1553.37,-97.0675 1732.33,-75.9996"/>
<polygon fill="midnightblue" stroke="midnightblue" points="1732.94,-79.4519 1742.46,-74.7976 1732.11,-72.5007 1732.94,-79.4519"/>
</g>
<!-- Node11 -->
<g id="node11" class="node"><title>Node11</title>
<polygon fill="white" stroke="#bfbfbf" points="711.5,-56.5 711.5,-75.5 814.5,-75.5 814.5,-56.5 711.5,-56.5"/>
<text text-anchor="middle" x="763" y="-63.5" font-family="Helvetica,sans-Serif" font-size="10.00">OgreHeaderPrefix.h</text>
</g>
<!-- Node7&#45;&gt;Node11 -->
<g id="edge10" class="edge"><title>Node7&#45;&gt;Node11</title>
<path fill="none" stroke="midnightblue" d="M1159.78,-115.611C1087.43,-107.877 950.934,-92.8397 824.909,-76.22"/>
<polygon fill="midnightblue" stroke="midnightblue" points="825.068,-72.7105 814.695,-74.8663 824.149,-79.6498 825.068,-72.7105"/>
</g>
<!-- Node12 -->
<g id="node12" class="node"><title>Node12</title>
<polygon fill="white" stroke="#bfbfbf" points="832.5,-56.5 832.5,-75.5 931.5,-75.5 931.5,-56.5 832.5,-56.5"/>
<text text-anchor="middle" x="882" y="-63.5" font-family="Helvetica,sans-Serif" font-size="10.00">OgreLogManager.h</text>
</g>
<!-- Node7&#45;&gt;Node12 -->
<g id="edge11" class="edge"><title>Node7&#45;&gt;Node12</title>
<path fill="none" stroke="midnightblue" d="M1159.95,-112.622C1100.97,-102.94 1004.04,-87.0309 941.637,-76.7885"/>
<polygon fill="midnightblue" stroke="midnightblue" points="941.984,-73.2986 931.549,-75.1326 940.85,-80.2062 941.984,-73.2986"/>
</g>
<!-- Node13 -->
<g id="node13" class="node"><title>Node13</title>
<polygon fill="white" stroke="#bfbfbf" points="1631.5,-56.5 1631.5,-75.5 1724.5,-75.5 1724.5,-56.5 1631.5,-56.5"/>
<text text-anchor="middle" x="1678" y="-63.5" font-family="Helvetica,sans-Serif" font-size="10.00">OgreQuaternion.h</text>
</g>
<!-- Node7&#45;&gt;Node13 -->
<g id="edge12" class="edge"><title>Node7&#45;&gt;Node13</title>
<path fill="none" stroke="midnightblue" d="M1262.04,-116.245C1337.94,-108.989 1485.29,-94.2007 1621.1,-76.0578"/>
<polygon fill="midnightblue" stroke="midnightblue" points="1621.83,-79.4914 1631.28,-74.6895 1620.9,-72.5539 1621.83,-79.4914"/>
</g>
<!-- Node14 -->
<g id="node14" class="node"><title>Node14</title>
<polygon fill="white" stroke="#bfbfbf" points="949.5,-56.5 949.5,-75.5 1020.5,-75.5 1020.5,-56.5 949.5,-56.5"/>
<text text-anchor="middle" x="985" y="-63.5" font-family="Helvetica,sans-Serif" font-size="10.00">OgreString.h</text>
</g>
<!-- Node7&#45;&gt;Node14 -->
<g id="edge13" class="edge"><title>Node7&#45;&gt;Node14</title>
<path fill="none" stroke="midnightblue" d="M1175.19,-112.444C1136.01,-103.083 1073.12,-88.0561 1030.48,-77.868"/>
<polygon fill="midnightblue" stroke="midnightblue" points="1031.18,-74.4363 1020.64,-75.5164 1029.56,-81.2446 1031.18,-74.4363"/>
</g>
<!-- Node15 -->
<g id="node15" class="node"><title>Node15</title>
<polygon fill="white" stroke="#bfbfbf" points="1039,-56.5 1039,-75.5 1153,-75.5 1153,-56.5 1039,-56.5"/>
<text text-anchor="middle" x="1096" y="-63.5" font-family="Helvetica,sans-Serif" font-size="10.00">OgreStringConverter.h</text>
</g>
<!-- Node7&#45;&gt;Node15 -->
<g id="edge14" class="edge"><title>Node7&#45;&gt;Node15</title>
<path fill="none" stroke="midnightblue" d="M1192.78,-112.444C1174.1,-103.675 1144.84,-89.9355 1123.38,-79.8579"/>
<polygon fill="midnightblue" stroke="midnightblue" points="1124.68,-76.5988 1114.14,-75.5164 1121.7,-82.935 1124.68,-76.5988"/>
</g>
<!-- Node16 -->
<g id="node16" class="node"><title>Node16</title>
<polygon fill="white" stroke="#bfbfbf" points="123.5,-56.5 123.5,-75.5 214.5,-75.5 214.5,-56.5 123.5,-56.5"/>
<text text-anchor="middle" x="169" y="-63.5" font-family="Helvetica,sans-Serif" font-size="10.00">OgreUTFString.h</text>
</g>
<!-- Node7&#45;&gt;Node16 -->
<g id="edge15" class="edge"><title>Node7&#45;&gt;Node16</title>
<path fill="none" stroke="midnightblue" d="M1159.59,-118.6C1022.61,-112.166 637.417,-93.8061 317,-76 286.574,-74.3092 252.641,-72.2577 224.95,-70.5406"/>
<polygon fill="midnightblue" stroke="midnightblue" points="224.861,-67.0284 214.663,-69.9003 224.426,-74.0148 224.861,-67.0284"/>
</g>
<!-- Node17 -->
<g id="node17" class="node"><title>Node17</title>
<polygon fill="white" stroke="#bfbfbf" points="1171,-56.5 1171,-75.5 1251,-75.5 1251,-56.5 1171,-56.5"/>
<text text-anchor="middle" x="1211" y="-63.5" font-family="Helvetica,sans-Serif" font-size="10.00">OgreVector2.h</text>
</g>
<!-- Node7&#45;&gt;Node17 -->
<g id="edge16" class="edge"><title>Node7&#45;&gt;Node17</title>
<path fill="none" stroke="midnightblue" d="M1211,-112.083C1211,-105.006 1211,-94.8611 1211,-85.9865"/>
<polygon fill="midnightblue" stroke="midnightblue" points="1214.5,-85.751 1211,-75.7511 1207.5,-85.7511 1214.5,-85.751"/>
</g>
<!-- Node18 -->
<g id="node18" class="node"><title>Node18</title>
<polygon fill="white" stroke="#bfbfbf" points="1533,-56.5 1533,-75.5 1613,-75.5 1613,-56.5 1533,-56.5"/>
<text text-anchor="middle" x="1573" y="-63.5" font-family="Helvetica,sans-Serif" font-size="10.00">OgreVector3.h</text>
</g>
<!-- Node7&#45;&gt;Node18 -->
<g id="edge17" class="edge"><title>Node7&#45;&gt;Node18</title>
<path fill="none" stroke="midnightblue" d="M1262.15,-114.179C1324.03,-105.8 1431.3,-90.8618 1523,-76 1523.1,-75.9837 1523.2,-75.9673 1523.3,-75.9509"/>
<polygon fill="midnightblue" stroke="midnightblue" points="1523.62,-79.4467 1532.9,-74.3441 1522.46,-72.5427 1523.62,-79.4467"/>
</g>
<!-- Node19 -->
<g id="node19" class="node"><title>Node19</title>
<g id="a_node19"><a xlink:href="_global_environment_8h.html" target="_top" xlink:title="GlobalEnvironment.h">
<polygon fill="white" stroke="black" points="326.5,-56.5 326.5,-75.5 433.5,-75.5 433.5,-56.5 326.5,-56.5"/>
<text text-anchor="middle" x="380" y="-63.5" font-family="Helvetica,sans-Serif" font-size="10.00">GlobalEnvironment.h</text>
</a>
</g>
</g>
<!-- Node7&#45;&gt;Node19 -->
<g id="edge19" class="edge"><title>Node7&#45;&gt;Node19</title>
<path fill="none" stroke="midnightblue" d="M1159.58,-119.514C1037.29,-115.652 719.315,-103.684 443.923,-76.1168"/>
<polygon fill="midnightblue" stroke="midnightblue" points="444.035,-72.6103 433.734,-75.0876 443.331,-79.5748 444.035,-72.6103"/>
</g>
<!-- Node20 -->
<g id="node20" class="node"><title>Node20</title>
<g id="a_node20"><a xlink:href="_zeroed_memory_allocator_8h.html" target="_top" xlink:title="ZeroedMemoryAllocator.h">
<polygon fill="white" stroke="black" points="1269,-56.5 1269,-75.5 1397,-75.5 1397,-56.5 1269,-56.5"/>
<text text-anchor="middle" x="1333" y="-63.5" font-family="Helvetica,sans-Serif" font-size="10.00">ZeroedMemoryAllocator.h</text>
</a>
</g>
</g>
<!-- Node7&#45;&gt;Node20 -->
<g id="edge21" class="edge"><title>Node7&#45;&gt;Node20</title>
<path fill="none" stroke="midnightblue" d="M1230.33,-112.444C1250.32,-103.596 1281.74,-89.6875 1304.56,-79.5865"/>
<polygon fill="midnightblue" stroke="midnightblue" points="1306.03,-82.7645 1313.76,-75.5164 1303.2,-76.3635 1306.03,-82.7645"/>
</g>
<!-- Node21 -->
<g id="node21" class="node"><title>Node21</title>
<g id="a_node21"><a xlink:href="_bit_flags_8h.html" target="_top" xlink:title="BitFlags.h">
<polygon fill="white" stroke="red" points="1453.5,-56.5 1453.5,-75.5 1514.5,-75.5 1514.5,-56.5 1453.5,-56.5"/>
<text text-anchor="middle" x="1484" y="-63.5" font-family="Helvetica,sans-Serif" font-size="10.00">BitFlags.h</text>
</a>
</g>
</g>
<!-- Node7&#45;&gt;Node21 -->
<g id="edge22" class="edge"><title>Node7&#45;&gt;Node21</title>
<path fill="none" stroke="midnightblue" d="M1254.29,-112.489C1300.16,-103.465 1374.69,-88.7767 1439,-76 1440.27,-75.7467 1441.57,-75.4892 1442.88,-75.229"/>
<polygon fill="midnightblue" stroke="midnightblue" points="1443.89,-78.5952 1453.02,-73.2073 1442.53,-71.7303 1443.89,-78.5952"/>
</g>
<!-- Node22 -->
<g id="node22" class="node"><title>Node22</title>
<polygon fill="white" stroke="#bfbfbf" points="451.5,-56.5 451.5,-75.5 560.5,-75.5 560.5,-56.5 451.5,-56.5"/>
<text text-anchor="middle" x="506" y="-63.5" font-family="Helvetica,sans-Serif" font-size="10.00">MyGUI_Prerequest.h</text>
</g>
<!-- Node7&#45;&gt;Node22 -->
<g id="edge23" class="edge"><title>Node7&#45;&gt;Node22</title>
<path fill="none" stroke="midnightblue" d="M1159.71,-118.66C1052.33,-113.489 795.815,-99.7156 570.627,-76.1054"/>
<polygon fill="midnightblue" stroke="midnightblue" points="570.918,-72.6167 560.606,-75.0458 570.182,-79.5779 570.918,-72.6167"/>
</g>
<!-- Node19&#45;&gt;Node3 -->
<g id="edge20" class="edge"><title>Node19&#45;&gt;Node3</title>
<path fill="none" stroke="midnightblue" d="M433.748,-57.0414C436.537,-56.6774 439.301,-56.3278 442,-56 581.021,-39.1192 744.281,-24.3405 834.12,-16.6434"/>
<polygon fill="midnightblue" stroke="midnightblue" points="834.508,-20.1231 844.174,-15.7853 833.913,-13.1484 834.508,-20.1231"/>
</g>
<!-- Node23&#45;&gt;Node7 -->
<g id="edge25" class="edge"><title>Node23&#45;&gt;Node7</title>
<path fill="none" stroke="midnightblue" d="M1000.66,-280.42C987.1,-272.772 968.932,-260.274 959,-244 941.252,-214.919 927.043,-194.05 949,-168 974.145,-138.169 1080.35,-128.113 1149.58,-124.723"/>
<polygon fill="midnightblue" stroke="midnightblue" points="1150.11,-128.203 1159.94,-124.252 1149.79,-121.21 1150.11,-128.203"/>
</g>
<!-- Node24 -->
<g id="node24" class="node"><title>Node24</title>
<g id="a_node24"><a xlink:href="_settings_8h.html" target="_top" xlink:title="Settings.h">
<polygon fill="white" stroke="black" points="968.5,-224.5 968.5,-243.5 1029.5,-243.5 1029.5,-224.5 968.5,-224.5"/>
<text text-anchor="middle" x="999" y="-231.5" font-family="Helvetica,sans-Serif" font-size="10.00">Settings.h</text>
</a>
</g>
</g>
<!-- Node23&#45;&gt;Node24 -->
<g id="edge26" class="edge"><title>Node23&#45;&gt;Node24</title>
<path fill="none" stroke="midnightblue" d="M1014.86,-280.083C1012.32,-272.849 1008.64,-262.409 1005.47,-253.397"/>
<polygon fill="midnightblue" stroke="midnightblue" points="1008.7,-252.023 1002.08,-243.751 1002.1,-254.346 1008.7,-252.023"/>
</g>
<!-- Node24&#45;&gt;Node7 -->
<g id="edge27" class="edge"><title>Node24&#45;&gt;Node7</title>
<path fill="none" stroke="midnightblue" d="M986.275,-224.33C968.841,-211.412 941.376,-186.635 957,-168 981.118,-139.234 1082.57,-128.845 1149.73,-125.101"/>
<polygon fill="midnightblue" stroke="midnightblue" points="1149.99,-128.593 1159.79,-124.575 1149.62,-121.602 1149.99,-128.593"/>
</g>
<!-- Node25 -->
<g id="node25" class="node"><title>Node25</title>
<g id="a_node25"><a xlink:href="_singleton_8h.html" target="_top" xlink:title="Singleton.h">
<polygon fill="white" stroke="black" points="966.5,-168.5 966.5,-187.5 1031.5,-187.5 1031.5,-168.5 966.5,-168.5"/>
<text text-anchor="middle" x="999" y="-175.5" font-family="Helvetica,sans-Serif" font-size="10.00">Singleton.h</text>
</a>
</g>
</g>
<!-- Node24&#45;&gt;Node25 -->
<g id="edge28" class="edge"><title>Node24&#45;&gt;Node25</title>
<path fill="none" stroke="midnightblue" d="M999,-224.083C999,-217.006 999,-206.861 999,-197.986"/>
<polygon fill="midnightblue" stroke="midnightblue" points="1002.5,-197.751 999,-187.751 995.5,-197.751 1002.5,-197.751"/>
</g>
<!-- Node25&#45;&gt;Node7 -->
<g id="edge29" class="edge"><title>Node25&#45;&gt;Node7</title>
<path fill="none" stroke="midnightblue" d="M1031.66,-168.681C1068.17,-159.381 1127.46,-144.28 1167.78,-134.008"/>
<polygon fill="midnightblue" stroke="midnightblue" points="1168.78,-137.367 1177.6,-131.507 1167.05,-130.584 1168.78,-137.367"/>
</g>
<!-- Node26&#45;&gt;Node7 -->
<g id="edge31" class="edge"><title>Node26&#45;&gt;Node7</title>
<path fill="none" stroke="midnightblue" d="M1178.75,-224.368C1184.42,-206.537 1197.54,-165.295 1205.19,-141.272"/>
<polygon fill="midnightblue" stroke="midnightblue" points="1208.57,-142.182 1208.27,-131.591 1201.9,-140.059 1208.57,-142.182"/>
</g>
<!-- Node27 -->
<g id="node27" class="node"><title>Node27</title>
<g id="a_node27"><a xlink:href="_terrain_object_manager_8h.html" target="_top" xlink:title="TerrainObjectManager.h">
<polygon fill="white" stroke="black" points="1049.5,-168.5 1049.5,-187.5 1170.5,-187.5 1170.5,-168.5 1049.5,-168.5"/>
<text text-anchor="middle" x="1110" y="-175.5" font-family="Helvetica,sans-Serif" font-size="10.00">TerrainObjectManager.h</text>
</a>
</g>
</g>
<!-- Node26&#45;&gt;Node27 -->
<g id="edge32" class="edge"><title>Node26&#45;&gt;Node27</title>
<path fill="none" stroke="midnightblue" d="M1165.4,-224.324C1155.54,-216.263 1140.65,-204.077 1128.78,-194.369"/>
<polygon fill="midnightblue" stroke="midnightblue" points="1130.75,-191.457 1120.8,-187.834 1126.32,-196.875 1130.75,-191.457"/>
</g>
<!-- Node27&#45;&gt;Node7 -->
<g id="edge33" class="edge"><title>Node27&#45;&gt;Node7</title>
<path fill="none" stroke="midnightblue" d="M1126.23,-168.324C1142.35,-159.703 1167.3,-146.364 1185.96,-136.386"/>
<polygon fill="midnightblue" stroke="midnightblue" points="1187.64,-139.456 1194.81,-131.655 1184.34,-133.283 1187.64,-139.456"/>
</g>
<!-- Node28&#45;&gt;Node7 -->
<g id="edge60" class="edge"><title>Node28&#45;&gt;Node7</title>
<path fill="none" stroke="midnightblue" d="M1655.84,-287.89C1586.7,-284.494 1395.25,-272.683 1340,-244 1299.24,-222.841 1303.94,-198.932 1270,-168 1258.01,-157.075 1243.54,-146.011 1231.94,-137.588"/>
<polygon fill="midnightblue" stroke="midnightblue" points="1233.88,-134.673 1223.7,-131.707 1229.81,-140.368 1233.88,-134.673"/>
</g>
<!-- Node28&#45;&gt;Node8 -->
<g id="edge61" class="edge"><title>Node28&#45;&gt;Node8</title>
<path fill="none" stroke="midnightblue" d="M1706.34,-289.358C1764.29,-289.396 1910.16,-285.035 2023,-244 2066.57,-228.157 2088.69,-228.638 2111,-188 2141,-133.351 2051.12,-96.1317 1993.79,-78.5718"/>
<polygon fill="midnightblue" stroke="midnightblue" points="1994.43,-75.1113 1983.85,-75.622 1992.44,-81.8221 1994.43,-75.1113"/>
</g>
<!-- Node29 -->
<g id="node29" class="node"><title>Node29</title>
<g id="a_node29"><a xlink:href="_beam_data_8h.html" target="_top" xlink:title="Core data structures for simulation. ">
<polygon fill="white" stroke="red" points="1645.5,-224.5 1645.5,-243.5 1716.5,-243.5 1716.5,-224.5 1645.5,-224.5"/>
<text text-anchor="middle" x="1681" y="-231.5" font-family="Helvetica,sans-Serif" font-size="10.00">BeamData.h</text>
</a>
</g>
</g>
<!-- Node28&#45;&gt;Node29 -->
<g id="edge35" class="edge"><title>Node28&#45;&gt;Node29</title>
<path fill="none" stroke="midnightblue" d="M1681,-280.083C1681,-273.006 1681,-262.861 1681,-253.986"/>
<polygon fill="midnightblue" stroke="midnightblue" points="1684.5,-253.751 1681,-243.751 1677.5,-253.751 1684.5,-253.751"/>
</g>
<!-- Node37 -->
<g id="node37" class="node"><title>Node37</title>
<g id="a_node37"><a xlink:href="_gfx_actor_8h.html" target="_top" xlink:title="Manager for all visuals belonging to a single actor. ">
<polygon fill="white" stroke="red" points="1760,-112.5 1760,-131.5 1824,-131.5 1824,-112.5 1760,-112.5"/>
<text text-anchor="middle" x="1792" y="-119.5" font-family="Helvetica,sans-Serif" font-size="10.00">GfxActor.h</text>
</a>
</g>
</g>
<!-- Node28&#45;&gt;Node37 -->
<g id="edge53" class="edge"><title>Node28&#45;&gt;Node37</title>
<path fill="none" stroke="midnightblue" d="M1706.01,-286.885C1788.07,-279.374 2046.6,-250.994 2095,-188 2100.42,-180.951 2100.81,-174.731 2095,-168 2061.83,-129.537 1909.46,-123.419 1834.25,-122.792"/>
<polygon fill="midnightblue" stroke="midnightblue" points="1834.19,-119.291 1824.17,-122.737 1834.15,-126.291 1834.19,-119.291"/>
</g>
<!-- Node38 -->
<g id="node38" class="node"><title>Node38</title>
<g id="a_node38"><a xlink:href="_per_vehicle_camera_context_8h.html" target="_top" xlink:title="PerVehicleCameraContext.h">
<polygon fill="white" stroke="black" points="1349.5,-224.5 1349.5,-243.5 1490.5,-243.5 1490.5,-224.5 1349.5,-224.5"/>
<text text-anchor="middle" x="1420" y="-231.5" font-family="Helvetica,sans-Serif" font-size="10.00">PerVehicleCameraContext.h</text>
</a>
</g>
</g>
<!-- Node28&#45;&gt;Node38 -->
<g id="edge58" class="edge"><title>Node28&#45;&gt;Node38</title>
<path fill="none" stroke="midnightblue" d="M1655.97,-283.822C1613.57,-275.05 1526.8,-257.097 1471.12,-245.577"/>
<polygon fill="midnightblue" stroke="midnightblue" points="1471.61,-242.104 1461.11,-243.505 1470.19,-248.958 1471.61,-242.104"/>
</g>
<!-- Node39 -->
<g id="node39" class="node"><title>Node39</title>
<g id="a_node39"><a xlink:href="_rig_def___prerequisites_8h.html" target="_top" xlink:title="RigDef_Prerequisites.h">
<polygon fill="white" stroke="black" points="1509,-224.5 1509,-243.5 1627,-243.5 1627,-224.5 1509,-224.5"/>
<text text-anchor="middle" x="1568" y="-231.5" font-family="Helvetica,sans-Serif" font-size="10.00">RigDef_Prerequisites.h</text>
</a>
</g>
</g>
<!-- Node28&#45;&gt;Node39 -->
<g id="edge59" class="edge"><title>Node28&#45;&gt;Node39</title>
<path fill="none" stroke="midnightblue" d="M1663.09,-280.444C1644.75,-271.675 1615.99,-257.935 1594.91,-247.858"/>
<polygon fill="midnightblue" stroke="midnightblue" points="1596.35,-244.67 1585.82,-243.516 1593.33,-250.986 1596.35,-244.67"/>
</g>
<!-- Node40 -->
<g id="node40" class="node"><title>Node40</title>
<polygon fill="white" stroke="#bfbfbf" points="1734.5,-224.5 1734.5,-243.5 1805.5,-243.5 1805.5,-224.5 1734.5,-224.5"/>
<text text-anchor="middle" x="1770" y="-231.5" font-family="Helvetica,sans-Serif" font-size="10.00">OgreTimer.h</text>
</g>
<!-- Node28&#45;&gt;Node40 -->
<g id="edge62" class="edge"><title>Node28&#45;&gt;Node40</title>
<path fill="none" stroke="midnightblue" d="M1695.3,-280.324C1709.18,-271.9 1730.49,-258.971 1746.8,-249.074"/>
<polygon fill="midnightblue" stroke="midnightblue" points="1749,-251.834 1755.74,-243.655 1745.37,-245.85 1749,-251.834"/>
</g>
<!-- Node41 -->
<g id="node41" class="node"><title>Node41</title>
<polygon fill="white" stroke="#bfbfbf" points="1824,-224.5 1824,-243.5 1876,-243.5 1876,-224.5 1824,-224.5"/>
<text text-anchor="middle" x="1850" y="-231.5" font-family="Helvetica,sans-Serif" font-size="10.00">memory</text>
</g>
<!-- Node28&#45;&gt;Node41 -->
<g id="edge63" class="edge"><title>Node28&#45;&gt;Node41</title>
<path fill="none" stroke="midnightblue" d="M1706.3,-280.916C1735.01,-271.743 1782.03,-256.718 1814.42,-246.368"/>
<polygon fill="midnightblue" stroke="midnightblue" points="1815.51,-249.695 1823.97,-243.317 1813.38,-243.027 1815.51,-249.695"/>
</g>
<!-- Node29&#45;&gt;Node7 -->
<g id="edge36" class="edge"><title>Node29&#45;&gt;Node7</title>
<path fill="none" stroke="midnightblue" d="M1645.17,-225.677C1642.07,-225.091 1638.98,-224.524 1636,-224 1531.07,-205.548 1502.44,-213.513 1399,-188 1342.15,-173.978 1278.13,-150.016 1241.38,-135.432"/>
<polygon fill="midnightblue" stroke="midnightblue" points="1242.35,-132.051 1231.77,-131.583 1239.75,-138.549 1242.35,-132.051"/>
</g>
<!-- Node30 -->
<g id="node30" class="node"><title>Node30</title>
<g id="a_node30"><a xlink:href="_ro_rnet_8h.html" target="_top" xlink:title="RoRnet.h">
<polygon fill="white" stroke="red" points="1400.5,-112.5 1400.5,-131.5 1459.5,-131.5 1459.5,-112.5 1400.5,-112.5"/>
<text text-anchor="middle" x="1430" y="-119.5" font-family="Helvetica,sans-Serif" font-size="10.00">RoRnet.h</text>
</a>
</g>
</g>
<!-- Node29&#45;&gt;Node30 -->
<g id="edge37" class="edge"><title>Node29&#45;&gt;Node30</title>
<path fill="none" stroke="midnightblue" d="M1645.16,-225.696C1642.07,-225.106 1638.98,-224.533 1636,-224 1585.51,-214.968 1441.32,-226.997 1408,-188 1396.21,-174.199 1406.25,-153.799 1416.31,-139.545"/>
<polygon fill="midnightblue" stroke="midnightblue" points="1419.1,-141.653 1422.38,-131.578 1413.53,-137.41 1419.1,-141.653"/>
</g>
<!-- Node31 -->
<g id="node31" class="node"><title>Node31</title>
<g id="a_node31"><a xlink:href="_slide_node_8h.html" target="_top" xlink:title="SlideNode.h">
<polygon fill="white" stroke="red" points="1654,-168.5 1654,-187.5 1724,-187.5 1724,-168.5 1654,-168.5"/>
<text text-anchor="middle" x="1689" y="-175.5" font-family="Helvetica,sans-Serif" font-size="10.00">SlideNode.h</text>
</a>
</g>
</g>
<!-- Node29&#45;&gt;Node31 -->
<g id="edge39" class="edge"><title>Node29&#45;&gt;Node31</title>
<path fill="none" stroke="midnightblue" d="M1682.32,-224.083C1683.38,-216.927 1684.91,-206.635 1686.23,-197.691"/>
<polygon fill="midnightblue" stroke="midnightblue" points="1689.7,-198.156 1687.7,-187.751 1682.78,-197.13 1689.7,-198.156"/>
</g>
<!-- Node32 -->
<g id="node32" class="node"><title>Node32</title>
<g id="a_node32"><a xlink:href="_beam_constants_8h.html" target="_top" xlink:title="BeamConstants.h">
<polygon fill="white" stroke="black" points="1417.5,-168.5 1417.5,-187.5 1512.5,-187.5 1512.5,-168.5 1417.5,-168.5"/>
<text text-anchor="middle" x="1465" y="-175.5" font-family="Helvetica,sans-Serif" font-size="10.00">BeamConstants.h</text>
</a>
</g>
</g>
<!-- Node29&#45;&gt;Node32 -->
<g id="edge42" class="edge"><title>Node29&#45;&gt;Node32</title>
<path fill="none" stroke="midnightblue" d="M1646.77,-224.444C1609.49,-215.122 1549.73,-200.183 1508.99,-189.997"/>
<polygon fill="midnightblue" stroke="midnightblue" points="1509.62,-186.546 1499.07,-187.516 1507.92,-193.337 1509.62,-186.546"/>
</g>
<!-- Node33 -->
<g id="node33" class="node"><title>Node33</title>
<g id="a_node33"><a xlink:href="node__t_8h.html" target="_top" xlink:title="datatypes/node_t.h">
<polygon fill="white" stroke="black" points="1986,-168.5 1986,-187.5 2086,-187.5 2086,-168.5 1986,-168.5"/>
<text text-anchor="middle" x="2036" y="-175.5" font-family="Helvetica,sans-Serif" font-size="10.00">datatypes/node_t.h</text>
</a>
</g>
</g>
<!-- Node29&#45;&gt;Node33 -->
<g id="edge43" class="edge"><title>Node29&#45;&gt;Node33</title>
<path fill="none" stroke="midnightblue" d="M1716.51,-225.547C1719.38,-225.003 1722.23,-224.48 1725,-224 1833.31,-205.203 1863.39,-204.553 1975.75,-188.166"/>
<polygon fill="midnightblue" stroke="midnightblue" points="1976.41,-191.607 1985.79,-186.692 1975.39,-184.682 1976.41,-191.607"/>
</g>
<!-- Node34 -->
<g id="node34" class="node"><title>Node34</title>
<g id="a_node34"><a xlink:href="shock__t_8h.html" target="_top" xlink:title="datatypes/shock_t.h">
<polygon fill="white" stroke="black" points="1530.5,-168.5 1530.5,-187.5 1635.5,-187.5 1635.5,-168.5 1530.5,-168.5"/>
<text text-anchor="middle" x="1583" y="-175.5" font-family="Helvetica,sans-Serif" font-size="10.00">datatypes/shock_t.h</text>
</a>
</g>
</g>
<!-- Node29&#45;&gt;Node34 -->
<g id="edge46" class="edge"><title>Node29&#45;&gt;Node34</title>
<path fill="none" stroke="midnightblue" d="M1665.25,-224.324C1649.68,-215.743 1625.62,-202.486 1607.54,-192.522"/>
<polygon fill="midnightblue" stroke="midnightblue" points="1609.15,-189.415 1598.71,-187.655 1605.78,-195.546 1609.15,-189.415"/>
</g>
<!-- Node35 -->
<g id="node35" class="node"><title>Node35</title>
<g id="a_node35"><a xlink:href="beam__t_8h.html" target="_top" xlink:title="datatypes/beam_t.h">
<polygon fill="white" stroke="black" points="1742.5,-168.5 1742.5,-187.5 1845.5,-187.5 1845.5,-168.5 1742.5,-168.5"/>
<text text-anchor="middle" x="1794" y="-175.5" font-family="Helvetica,sans-Serif" font-size="10.00">datatypes/beam_t.h</text>
</a>
</g>
</g>
<!-- Node29&#45;&gt;Node35 -->
<g id="edge47" class="edge"><title>Node29&#45;&gt;Node35</title>
<path fill="none" stroke="midnightblue" d="M1698.91,-224.444C1717.25,-215.675 1746.01,-201.935 1767.09,-191.858"/>
<polygon fill="midnightblue" stroke="midnightblue" points="1768.67,-194.986 1776.18,-187.516 1765.65,-188.67 1768.67,-194.986"/>
</g>
<!-- Node36 -->
<g id="node36" class="node"><title>Node36</title>
<g id="a_node36"><a xlink:href="wheel__t_8h.html" target="_top" xlink:title="datatypes/wheel_t.h">
<polygon fill="white" stroke="black" points="1864,-168.5 1864,-187.5 1968,-187.5 1968,-168.5 1864,-168.5"/>
<text text-anchor="middle" x="1916" y="-175.5" font-family="Helvetica,sans-Serif" font-size="10.00">datatypes/wheel_t.h</text>
</a>
</g>
</g>
<!-- Node29&#45;&gt;Node36 -->
<g id="edge50" class="edge"><title>Node29&#45;&gt;Node36</title>
<path fill="none" stroke="midnightblue" d="M1716.69,-224.799C1757.4,-215.445 1824.11,-200.116 1869.01,-189.797"/>
<polygon fill="midnightblue" stroke="midnightblue" points="1869.84,-193.197 1878.81,-187.547 1868.28,-186.375 1869.84,-193.197"/>
</g>
<!-- Node30&#45;&gt;Node21 -->
<g id="edge38" class="edge"><title>Node30&#45;&gt;Node21</title>
<path fill="none" stroke="midnightblue" d="M1438.92,-112.083C1446.78,-104.22 1458.43,-92.5688 1467.92,-83.0813"/>
<polygon fill="midnightblue" stroke="midnightblue" points="1470.65,-85.2971 1475.25,-75.7511 1465.7,-80.3473 1470.65,-85.2971"/>
</g>
<!-- Node31&#45;&gt;Node7 -->
<g id="edge40" class="edge"><title>Node31&#45;&gt;Node7</title>
<path fill="none" stroke="midnightblue" d="M1653.68,-169.611C1650.42,-169.026 1647.15,-168.478 1644,-168 1512.19,-148.015 1356.45,-134.206 1272.33,-127.551"/>
<polygon fill="midnightblue" stroke="midnightblue" points="1272.43,-124.048 1262.19,-126.755 1271.89,-131.026 1272.43,-124.048"/>
</g>
<!-- Node31&#45;&gt;Node18 -->
<g id="edge41" class="edge"><title>Node31&#45;&gt;Node18</title>
<path fill="none" stroke="midnightblue" d="M1679.9,-168.368C1660.42,-149.894 1614.44,-106.293 1589.6,-82.7436"/>
<polygon fill="midnightblue" stroke="midnightblue" points="1591.72,-79.9327 1582.06,-75.5914 1586.91,-85.0121 1591.72,-79.9327"/>
</g>
<!-- Node33&#45;&gt;Node7 -->
<g id="edge45" class="edge"><title>Node33&#45;&gt;Node7</title>
<path fill="none" stroke="midnightblue" d="M1985.83,-169.023C1982.85,-168.649 1979.89,-168.304 1977,-168 1907.82,-160.707 1441.58,-135.357 1272.28,-126.272"/>
<polygon fill="midnightblue" stroke="midnightblue" points="1272.21,-122.763 1262.04,-125.723 1271.84,-129.753 1272.21,-122.763"/>
</g>
<!-- Node33&#45;&gt;Node8 -->
<g id="edge44" class="edge"><title>Node33&#45;&gt;Node8</title>
<path fill="none" stroke="midnightblue" d="M2029.25,-168.368C2015,-150.135 1981.61,-107.426 1963.04,-83.6752"/>
<polygon fill="midnightblue" stroke="midnightblue" points="1965.63,-81.3138 1956.72,-75.5914 1960.12,-85.6253 1965.63,-81.3138"/>
</g>
<!-- Node35&#45;&gt;Node7 -->
<g id="edge49" class="edge"><title>Node35&#45;&gt;Node7</title>
<path fill="none" stroke="midnightblue" d="M1742.44,-169.17C1739.25,-168.754 1736.08,-168.36 1733,-168 1566.77,-148.59 1369.85,-133.836 1272.22,-127.071"/>
<polygon fill="midnightblue" stroke="midnightblue" points="1272.45,-123.579 1262.23,-126.383 1271.96,-130.562 1272.45,-123.579"/>
</g>
<!-- Node35&#45;&gt;Node8 -->
<g id="edge48" class="edge"><title>Node35&#45;&gt;Node8</title>
<path fill="none" stroke="midnightblue" d="M1806.24,-168.368C1832.9,-149.573 1896.44,-104.768 1929.39,-81.5334"/>
<polygon fill="midnightblue" stroke="midnightblue" points="1931.66,-84.2146 1937.82,-75.5914 1927.63,-78.4938 1931.66,-84.2146"/>
</g>
<!-- Node36&#45;&gt;Node7 -->
<g id="edge51" class="edge"><title>Node36&#45;&gt;Node7</title>
<path fill="none" stroke="midnightblue" d="M1863.94,-169.157C1860.58,-168.739 1857.24,-168.349 1854,-168 1641.17,-145.138 1387.41,-131.317 1272.71,-125.791"/>
<polygon fill="midnightblue" stroke="midnightblue" points="1272.53,-122.278 1262.37,-125.297 1272.2,-129.27 1272.53,-122.278"/>
</g>
<!-- Node36&#45;&gt;Node8 -->
<g id="edge52" class="edge"><title>Node36&#45;&gt;Node8</title>
<path fill="none" stroke="midnightblue" d="M1918.67,-168.368C1924.18,-150.537 1936.93,-109.295 1944.35,-85.2717"/>
<polygon fill="midnightblue" stroke="midnightblue" points="1947.74,-86.179 1947.34,-75.5914 1941.05,-84.1119 1947.74,-86.179"/>
</g>
<!-- Node37&#45;&gt;Node3 -->
<g id="edge54" class="edge"><title>Node37&#45;&gt;Node3</title>
<path fill="none" stroke="midnightblue" d="M1809.27,-112.424C1832.48,-99.8324 1868.79,-75.7009 1850,-56 1819.67,-24.1959 1181.28,-14.1465 969.555,-11.6819"/>
<polygon fill="midnightblue" stroke="midnightblue" points="969.54,-8.18164 959.501,-11.5669 969.46,-15.1812 969.54,-8.18164"/>
</g>
<!-- Node37&#45;&gt;Node10 -->
<g id="edge55" class="edge"><title>Node37&#45;&gt;Node10</title>
<path fill="none" stroke="midnightblue" d="M1792,-112.083C1792,-105.006 1792,-94.8611 1792,-85.9865"/>
<polygon fill="midnightblue" stroke="midnightblue" points="1795.5,-85.751 1792,-75.7511 1788.5,-85.7511 1795.5,-85.751"/>
</g>
<!-- Node37&#45;&gt;Node13 -->
<g id="edge56" class="edge"><title>Node37&#45;&gt;Node13</title>
<path fill="none" stroke="midnightblue" d="M1773.94,-112.444C1755.43,-103.675 1726.42,-89.9355 1705.14,-79.8579"/>
<polygon fill="midnightblue" stroke="midnightblue" points="1706.51,-76.6343 1695.98,-75.5164 1703.52,-82.9604 1706.51,-76.6343"/>
</g>
<!-- Node37&#45;&gt;Node18 -->
<g id="edge57" class="edge"><title>Node37&#45;&gt;Node18</title>
<path fill="none" stroke="midnightblue" d="M1759.69,-113.032C1722.01,-103.743 1659.54,-88.3396 1617.35,-77.936"/>
<polygon fill="midnightblue" stroke="midnightblue" points="1618.17,-74.5319 1607.62,-75.536 1616.49,-81.3283 1618.17,-74.5319"/>
</g>
<!-- Node42&#45;&gt;Node7 -->
<g id="edge66" class="edge"><title>Node42&#45;&gt;Node7</title>
<path fill="none" stroke="midnightblue" d="M1150.64,-336.461C1167.95,-320.409 1203.71,-283.753 1217,-244 1228.63,-209.214 1221.63,-165.674 1215.99,-141.447"/>
<polygon fill="midnightblue" stroke="midnightblue" points="1219.32,-140.347 1213.49,-131.501 1212.53,-142.053 1219.32,-140.347"/>
</g>
<!-- Node42&#45;&gt;Node23 -->
<g id="edge65" class="edge"><title>Node42&#45;&gt;Node23</title>
<path fill="none" stroke="midnightblue" d="M1121.51,-336.444C1101.36,-327.596 1069.68,-313.687 1046.67,-303.586"/>
<polygon fill="midnightblue" stroke="midnightblue" points="1047.96,-300.332 1037.4,-299.516 1045.15,-306.741 1047.96,-300.332"/>
</g>
<!-- Node43&#45;&gt;Node7 -->
<g id="edge68" class="edge"><title>Node43&#45;&gt;Node7</title>
<path fill="none" stroke="midnightblue" d="M534.637,-231.706C599.38,-228.716 733.364,-219.001 842,-188 862.656,-182.105 865.368,-173.98 886,-168 975.583,-142.036 1083.53,-130.876 1149.7,-126.204"/>
<polygon fill="midnightblue" stroke="midnightblue" points="1150.21,-129.678 1159.95,-125.509 1149.73,-122.694 1150.21,-129.678"/>
</g>
<!-- Node43&#45;&gt;Node16 -->
<g id="edge71" class="edge"><title>Node43&#45;&gt;Node16</title>
<path fill="none" stroke="midnightblue" d="M457.198,-231.932C354.853,-228.715 83.5997,-217.466 57,-188 21.171,-148.311 97.2581,-102.119 141.015,-80.0458"/>
<polygon fill="midnightblue" stroke="midnightblue" points="142.642,-83.1459 150.068,-75.5885 139.55,-76.8658 142.642,-83.1459"/>
</g>
<!-- Node44 -->
<g id="node44" class="node"><title>Node44</title>
<g id="a_node44"><a xlink:href="_ro_r_window_event_utilities_8h.html" target="_top" xlink:title="RoRWindowEventUtilities.h">
<polygon fill="white" stroke="red" points="694.5,-168.5 694.5,-187.5 833.5,-187.5 833.5,-168.5 694.5,-168.5"/>
<text text-anchor="middle" x="764" y="-175.5" font-family="Helvetica,sans-Serif" font-size="10.00">RoRWindowEventUtilities.h</text>
</a>
</g>
</g>
<!-- Node43&#45;&gt;Node44 -->
<g id="edge69" class="edge"><title>Node43&#45;&gt;Node44</title>
<path fill="none" stroke="midnightblue" d="M534.683,-225.206C581.296,-215.814 659.812,-199.993 711.771,-189.524"/>
<polygon fill="midnightblue" stroke="midnightblue" points="712.68,-192.911 721.792,-187.505 711.297,-186.049 712.68,-192.911"/>
</g>
<!-- Node45 -->
<g id="node45" class="node"><title>Node45</title>
<polygon fill="white" stroke="#bfbfbf" points="66.5,-168.5 66.5,-187.5 139.5,-187.5 139.5,-168.5 66.5,-168.5"/>
<text text-anchor="middle" x="103" y="-175.5" font-family="Helvetica,sans-Serif" font-size="10.00">OISEvents.h</text>
</g>
<!-- Node43&#45;&gt;Node45 -->
<g id="edge72" class="edge"><title>Node43&#45;&gt;Node45</title>
<path fill="none" stroke="midnightblue" d="M457.371,-228.811C394.926,-221.861 267.73,-206.966 149.563,-187.995"/>
<polygon fill="midnightblue" stroke="midnightblue" points="150.051,-184.528 139.62,-186.385 148.932,-191.438 150.051,-184.528"/>
</g>
<!-- Node46 -->
<g id="node46" class="node"><title>Node46</title>
<polygon fill="white" stroke="#bfbfbf" points="158,-168.5 158,-187.5 268,-187.5 268,-168.5 158,-168.5"/>
<text text-anchor="middle" x="213" y="-175.5" font-family="Helvetica,sans-Serif" font-size="10.00">OISForceFeedback.h</text>
</g>
<!-- Node43&#45;&gt;Node46 -->
<g id="edge73" class="edge"><title>Node43&#45;&gt;Node46</title>
<path fill="none" stroke="midnightblue" d="M457.243,-225.605C408.22,-216.25 323.499,-200.085 267.85,-189.466"/>
<polygon fill="midnightblue" stroke="midnightblue" points="268.292,-185.987 257.813,-187.551 266.98,-192.863 268.292,-185.987"/>
</g>
<!-- Node47 -->
<g id="node47" class="node"><title>Node47</title>
<polygon fill="white" stroke="#bfbfbf" points="286.5,-168.5 286.5,-187.5 387.5,-187.5 387.5,-168.5 286.5,-168.5"/>
<text text-anchor="middle" x="337" y="-175.5" font-family="Helvetica,sans-Serif" font-size="10.00">OISInputManager.h</text>
</g>
<!-- Node43&#45;&gt;Node47 -->
<g id="edge74" class="edge"><title>Node43&#45;&gt;Node47</title>
<path fill="none" stroke="midnightblue" d="M470.806,-224.444C444.057,-215.359 401.597,-200.939 371.695,-190.783"/>
<polygon fill="midnightblue" stroke="midnightblue" points="372.671,-187.418 362.076,-187.516 370.419,-194.046 372.671,-187.418"/>
</g>
<!-- Node48 -->
<g id="node48" class="node"><title>Node48</title>
<polygon fill="white" stroke="#bfbfbf" points="406,-168.5 406,-187.5 486,-187.5 486,-168.5 406,-168.5"/>
<text text-anchor="middle" x="446" y="-175.5" font-family="Helvetica,sans-Serif" font-size="10.00">OISJoyStick.h</text>
</g>
<!-- Node43&#45;&gt;Node48 -->
<g id="edge75" class="edge"><title>Node43&#45;&gt;Node48</title>
<path fill="none" stroke="midnightblue" d="M487.744,-224.083C480.535,-216.298 469.89,-204.801 461.154,-195.367"/>
<polygon fill="midnightblue" stroke="midnightblue" points="463.465,-192.711 454.103,-187.751 458.329,-197.467 463.465,-192.711"/>
</g>
<!-- Node49 -->
<g id="node49" class="node"><title>Node49</title>
<polygon fill="white" stroke="#bfbfbf" points="504.5,-168.5 504.5,-187.5 587.5,-187.5 587.5,-168.5 504.5,-168.5"/>
<text text-anchor="middle" x="546" y="-175.5" font-family="Helvetica,sans-Serif" font-size="10.00">OISKeyboard.h</text>
</g>
<!-- Node43&#45;&gt;Node49 -->
<g id="edge76" class="edge"><title>Node43&#45;&gt;Node49</title>
<path fill="none" stroke="midnightblue" d="M504.256,-224.083C511.465,-216.298 522.11,-204.801 530.846,-195.367"/>
<polygon fill="midnightblue" stroke="midnightblue" points="533.671,-197.467 537.897,-187.751 528.535,-192.711 533.671,-197.467"/>
</g>
<!-- Node50 -->
<g id="node50" class="node"><title>Node50</title>
<polygon fill="white" stroke="#bfbfbf" points="605.5,-168.5 605.5,-187.5 676.5,-187.5 676.5,-168.5 605.5,-168.5"/>
<text text-anchor="middle" x="641" y="-175.5" font-family="Helvetica,sans-Serif" font-size="10.00">OISMouse.h</text>
</g>
<!-- Node43&#45;&gt;Node50 -->
<g id="edge77" class="edge"><title>Node43&#45;&gt;Node50</title>
<path fill="none" stroke="midnightblue" d="M518.976,-224.444C543.157,-215.438 581.418,-201.189 608.646,-191.049"/>
<polygon fill="midnightblue" stroke="midnightblue" points="609.982,-194.286 618.132,-187.516 607.539,-187.727 609.982,-194.286"/>
</g>
<!-- Node44&#45;&gt;Node7 -->
<g id="edge70" class="edge"><title>Node44&#45;&gt;Node7</title>
<path fill="none" stroke="midnightblue" d="M833.844,-168.562C920.586,-158.084 1067.18,-140.374 1149.74,-130.401"/>
<polygon fill="midnightblue" stroke="midnightblue" points="1150.22,-133.869 1159.72,-129.194 1149.38,-126.919 1150.22,-133.869"/>
</g>
</g>
</svg>
