<?xml version="1.0" encoding="UTF-8" standalone="no"?>
<!DOCTYPE svg PUBLIC "-//W3C//DTD SVG 1.1//EN"
 "http://www.w3.org/Graphics/SVG/1.1/DTD/svg11.dtd">
<!-- Generated by graphviz version 2.36.0 (20140111.2315)
 -->
<!-- Title: fast_length Pages: 1 -->
<svg width="272pt" height="28pt"
 viewBox="0.00 0.00 272.00 28.00" xmlns="http://www.w3.org/2000/svg" xmlns:xlink="http://www.w3.org/1999/xlink">
<g id="graph0" class="graph" transform="scale(1 1) rotate(0) translate(4 24)">
<title>fast_length</title>
<polygon fill="white" stroke="none" points="-4,4 -4,-24 268,-24 268,4 -4,4"/>
<!-- Node1 -->
<g id="node1" class="node"><title>Node1</title>
<polygon fill="#bfbfbf" stroke="black" points="0.5,-0.5 0.5,-19.5 65.5,-19.5 65.5,-0.5 0.5,-0.5"/>
<text text-anchor="middle" x="33" y="-7.5" font-family="Helvetica,sans-Serif" font-size="10.00">fast_length</text>
</g>
<!-- Node2 -->
<g id="node2" class="node"><title>Node2</title>
<g id="a_node2"><a xlink:href="_approx_math_8h.html#a4593bca5b40d11d9d1fa73ad23d30025" target="_top" xlink:title="fast_sqrt">
<polygon fill="white" stroke="black" points="102.5,-0.5 102.5,-19.5 157.5,-19.5 157.5,-0.5 102.5,-0.5"/>
<text text-anchor="middle" x="130" y="-7.5" font-family="Helvetica,sans-Serif" font-size="10.00">fast_sqrt</text>
</a>
</g>
</g>
<!-- Node1&#45;&gt;Node2 -->
<g id="edge1" class="edge"><title>Node1&#45;&gt;Node2</title>
<path fill="none" stroke="midnightblue" d="M65.6336,-10C74.1685,-10 83.4756,-10 92.2637,-10"/>
<polygon fill="midnightblue" stroke="midnightblue" points="92.2646,-13.5001 102.265,-10 92.2646,-6.5001 92.2646,-13.5001"/>
</g>
<!-- Node3 -->
<g id="node3" class="node"><title>Node3</title>
<g id="a_node3"><a xlink:href="_approx_math_8h.html#a08e9e14c091640464aae072f3823b855" target="_top" xlink:title="fast_invSqrt">
<polygon fill="white" stroke="black" points="194.5,-0.5 194.5,-19.5 263.5,-19.5 263.5,-0.5 194.5,-0.5"/>
<text text-anchor="middle" x="229" y="-7.5" font-family="Helvetica,sans-Serif" font-size="10.00">fast_invSqrt</text>
</a>
</g>
</g>
<!-- Node2&#45;&gt;Node3 -->
<g id="edge2" class="edge"><title>Node2&#45;&gt;Node3</title>
<path fill="none" stroke="midnightblue" d="M157.506,-10C165.738,-10 175.044,-10 184.13,-10"/>
<polygon fill="midnightblue" stroke="midnightblue" points="184.227,-13.5001 194.227,-10 184.227,-6.5001 184.227,-13.5001"/>
</g>
</g>
</svg>
