<?xml version="1.0" encoding="UTF-8" standalone="no"?>
<!DOCTYPE svg PUBLIC "-//W3C//DTD SVG 1.1//EN"
 "http://www.w3.org/Graphics/SVG/1.1/DTD/svg11.dtd">
<!-- Generated by graphviz version 2.36.0 (20140111.2315)
 -->
<!-- Title: sign Pages: 1 -->
<svg width="1934pt" height="783pt"
 viewBox="0.00 0.00 1934.00 783.00" xmlns="http://www.w3.org/2000/svg" xmlns:xlink="http://www.w3.org/1999/xlink">
<g id="graph0" class="graph" transform="scale(1 1) rotate(0) translate(4 779)">
<title>sign</title>
<polygon fill="white" stroke="none" points="-4,4 -4,-779 1930,-779 1930,4 -4,4"/>
<!-- Node1 -->
<g id="node1" class="node"><title>Node1</title>
<polygon fill="#bfbfbf" stroke="black" points="0.5,-154.5 0.5,-173.5 35.5,-173.5 35.5,-154.5 0.5,-154.5"/>
<text text-anchor="middle" x="18" y="-161.5" font-family="Helvetica,sans-Serif" font-size="10.00">sign</text>
</g>
<!-- Node2 -->
<g id="node2" class="node"><title>Node2</title>
<g id="a_node2"><a xlink:href="scriptstdstring_8cpp.html#ab33d705eee9afd65e8991f82d9c71fe3" target="_top" xlink:title="parseInt">
<polygon fill="white" stroke="black" points="104,-224.5 104,-243.5 156,-243.5 156,-224.5 104,-224.5"/>
<text text-anchor="middle" x="130" y="-231.5" font-family="Helvetica,sans-Serif" font-size="10.00">parseInt</text>
</a>
</g>
</g>
<!-- Node1&#45;&gt;Node2 -->
<g id="edge1" class="edge"><title>Node1&#45;&gt;Node2</title>
<path fill="none" stroke="midnightblue" d="M42.8874,-179.201C64.4452,-192.92 95.506,-212.686 113.835,-224.349"/>
<polygon fill="midnightblue" stroke="midnightblue" points="44.6107,-176.149 34.295,-173.733 40.8526,-182.055 44.6107,-176.149"/>
</g>
<!-- Node45 -->
<g id="node45" class="node"><title>Node45</title>
<g id="a_node45"><a xlink:href="class_airfoil.html#a1943bac16a0c7fb815357f27e02d4e41" target="_top" xlink:title="Airfoil::getparams">
<polygon fill="white" stroke="black" points="83.5,-154.5 83.5,-173.5 176.5,-173.5 176.5,-154.5 83.5,-154.5"/>
<text text-anchor="middle" x="130" y="-161.5" font-family="Helvetica,sans-Serif" font-size="10.00">Airfoil::getparams</text>
</a>
</g>
</g>
<!-- Node1&#45;&gt;Node45 -->
<g id="edge52" class="edge"><title>Node1&#45;&gt;Node45</title>
<path fill="none" stroke="midnightblue" d="M45.7243,-164C56.9604,-164 70.359,-164 83.0894,-164"/>
<polygon fill="midnightblue" stroke="midnightblue" points="45.7067,-160.5 35.7066,-164 45.7066,-167.5 45.7067,-160.5"/>
</g>
<!-- Node46 -->
<g id="node46" class="node"><title>Node46</title>
<g id="a_node46"><a xlink:href="_dynamic_collisions_8cpp.html#aaa23b567ab36b402e731e200b43f1fff" target="_top" xlink:title="Determine on which side of a triangle an occuring collision takes place. ">
<polygon fill="white" stroke="black" points="72.5,-48.5 72.5,-67.5 187.5,-67.5 187.5,-48.5 72.5,-48.5"/>
<text text-anchor="middle" x="130" y="-55.5" font-family="Helvetica,sans-Serif" font-size="10.00">BackfaceCollisionTest</text>
</a>
</g>
</g>
<!-- Node1&#45;&gt;Node46 -->
<g id="edge53" class="edge"><title>Node1&#45;&gt;Node46</title>
<path fill="none" stroke="midnightblue" d="M36.6156,-147.025C59.8972,-124.59 100.147,-85.8041 118.873,-67.7586"/>
<polygon fill="midnightblue" stroke="midnightblue" points="33.9235,-144.759 29.1514,-154.218 38.7808,-149.799 33.9235,-144.759"/>
</g>
<!-- Node3 -->
<g id="node3" class="node"><title>Node3</title>
<g id="a_node3"><a xlink:href="scriptstdstring_8cpp.html#a657654b75330de77f99c893c3961e7a4" target="_top" xlink:title="RegisterStdString_Native">
<polygon fill="white" stroke="black" points="235,-727.5 235,-746.5 363,-746.5 363,-727.5 235,-727.5"/>
<text text-anchor="middle" x="299" y="-734.5" font-family="Helvetica,sans-Serif" font-size="10.00">RegisterStdString_Native</text>
</a>
</g>
</g>
<!-- Node2&#45;&gt;Node3 -->
<g id="edge2" class="edge"><title>Node2&#45;&gt;Node3</title>
<path fill="none" stroke="midnightblue" d="M130.901,-253.778C131.423,-318.543 139.897,-528.34 224,-672 238.254,-696.349 264.875,-716.313 282,-727.429"/>
<polygon fill="midnightblue" stroke="midnightblue" points="134.4,-253.718 130.878,-243.726 127.401,-253.734 134.4,-253.718"/>
</g>
<!-- Node5 -->
<g id="node5" class="node"><title>Node5</title>
<g id="a_node5"><a xlink:href="scriptstdstring_8cpp.html#a1f97f501a63ff5add8dc37bf922e3733" target="_top" xlink:title="parseInt_Generic">
<polygon fill="white" stroke="black" points="253.5,-643.5 253.5,-662.5 344.5,-662.5 344.5,-643.5 253.5,-643.5"/>
<text text-anchor="middle" x="299" y="-650.5" font-family="Helvetica,sans-Serif" font-size="10.00">parseInt_Generic</text>
</a>
</g>
</g>
<!-- Node2&#45;&gt;Node5 -->
<g id="edge4" class="edge"><title>Node2&#45;&gt;Node5</title>
<path fill="none" stroke="midnightblue" d="M134.89,-253.71C145.159,-303.533 175.578,-437.879 224,-541 243.118,-581.714 275.469,-624.697 290.234,-643.387"/>
<polygon fill="midnightblue" stroke="midnightblue" points="138.271,-252.769 132.858,-243.661 131.409,-254.156 138.271,-252.769"/>
</g>
<!-- Node7 -->
<g id="node7" class="node"><title>Node7</title>
<g id="a_node7"><a xlink:href="class_hydrax_1_1_cfg_file_manager.html#af55d91d6fe191edaf32752db39bde7ee" target="_top" xlink:title="Hydrax::CfgFileManager\l::_getIntValue">
<polygon fill="white" stroke="black" points="237.5,-502 237.5,-532 360.5,-532 360.5,-502 237.5,-502"/>
<text text-anchor="start" x="245.5" y="-520" font-family="Helvetica,sans-Serif" font-size="10.00">Hydrax::CfgFileManager</text>
<text text-anchor="middle" x="299" y="-509" font-family="Helvetica,sans-Serif" font-size="10.00">::_getIntValue</text>
</a>
</g>
</g>
<!-- Node2&#45;&gt;Node7 -->
<g id="edge7" class="edge"><title>Node2&#45;&gt;Node7</title>
<path fill="none" stroke="midnightblue" d="M142.007,-252.652C173.013,-305.195 260.664,-453.73 289.026,-501.792"/>
<polygon fill="midnightblue" stroke="midnightblue" points="144.845,-250.575 136.749,-243.742 138.816,-254.133 144.845,-250.575"/>
</g>
<!-- Node16 -->
<g id="node16" class="node"><title>Node16</title>
<g id="a_node16"><a xlink:href="class_hydrax_1_1_cfg_file_manager.html#a1d688a86347f04a920dafead01343a5b" target="_top" xlink:title="Hydrax::CfgFileManager\l::_getSizeValue">
<polygon fill="white" stroke="black" points="237.5,-306 237.5,-336 360.5,-336 360.5,-306 237.5,-306"/>
<text text-anchor="start" x="245.5" y="-324" font-family="Helvetica,sans-Serif" font-size="10.00">Hydrax::CfgFileManager</text>
<text text-anchor="middle" x="299" y="-313" font-family="Helvetica,sans-Serif" font-size="10.00">::_getSizeValue</text>
</a>
</g>
</g>
<!-- Node2&#45;&gt;Node16 -->
<g id="edge17" class="edge"><title>Node2&#45;&gt;Node16</title>
<path fill="none" stroke="midnightblue" d="M153.654,-249.343C172.122,-261.49 199.126,-278.443 224,-291 234.643,-296.373 246.486,-301.521 257.522,-305.99"/>
<polygon fill="midnightblue" stroke="midnightblue" points="155.342,-246.262 145.076,-243.642 151.467,-252.092 155.342,-246.262"/>
</g>
<!-- Node18 -->
<g id="node18" class="node"><title>Node18</title>
<g id="a_node18"><a xlink:href="class_collisions.html#aaa893c509f9b9b77459d50e3bef2c6ff" target="_top" xlink:title="Collisions::parseGroundConfig">
<polygon fill="white" stroke="black" points="224.5,-262.5 224.5,-281.5 373.5,-281.5 373.5,-262.5 224.5,-262.5"/>
<text text-anchor="middle" x="299" y="-269.5" font-family="Helvetica,sans-Serif" font-size="10.00">Collisions::parseGroundConfig</text>
</a>
</g>
</g>
<!-- Node2&#45;&gt;Node18 -->
<g id="edge21" class="edge"><title>Node2&#45;&gt;Node18</title>
<path fill="none" stroke="midnightblue" d="M165.882,-241.937C192.1,-247.903 228.132,-256.102 255.945,-262.431"/>
<polygon fill="midnightblue" stroke="midnightblue" points="166.529,-238.495 156.002,-239.689 164.976,-245.321 166.529,-238.495"/>
</g>
<!-- Node33 -->
<g id="node33" class="node"><title>Node33</title>
<g id="a_node33"><a xlink:href="class_cache_system.html#a56c6220bad73c66209212753882d7f82" target="_top" xlink:title="CacheSystem::parseModAttribute">
<polygon fill="white" stroke="black" points="592,-201.5 592,-220.5 756,-220.5 756,-201.5 592,-201.5"/>
<text text-anchor="middle" x="674" y="-208.5" font-family="Helvetica,sans-Serif" font-size="10.00">CacheSystem::parseModAttribute</text>
</a>
</g>
</g>
<!-- Node2&#45;&gt;Node33 -->
<g id="edge36" class="edge"><title>Node2&#45;&gt;Node33</title>
<path fill="none" stroke="midnightblue" d="M166.263,-232.504C251.718,-228.877 471.66,-219.544 591.764,-214.447"/>
<polygon fill="midnightblue" stroke="midnightblue" points="165.897,-229.016 156.055,-232.937 166.194,-236.01 165.897,-229.016"/>
</g>
<!-- Node39 -->
<g id="node39" class="node"><title>Node39</title>
<g id="a_node39"><a xlink:href="class_ro_r_1_1_config_file.html#ad9121823c9e913f1906e6bc405c9a2fe" target="_top" xlink:title="RoR::ConfigFile::GetInt">
<polygon fill="white" stroke="black" points="239,-186.5 239,-205.5 359,-205.5 359,-186.5 239,-186.5"/>
<text text-anchor="middle" x="299" y="-193.5" font-family="Helvetica,sans-Serif" font-size="10.00">RoR::ConfigFile::GetInt</text>
</a>
</g>
</g>
<!-- Node2&#45;&gt;Node39 -->
<g id="edge45" class="edge"><title>Node2&#45;&gt;Node39</title>
<path fill="none" stroke="midnightblue" d="M165.882,-226.063C192.1,-220.097 228.132,-211.898 255.945,-205.569"/>
<polygon fill="midnightblue" stroke="midnightblue" points="164.976,-222.679 156.002,-228.311 166.529,-229.505 164.976,-222.679"/>
</g>
<!-- Node40 -->
<g id="node40" class="node"><title>Node40</title>
<g id="a_node40"><a xlink:href="class_improved_config_file.html#a86cb43a15c0cb79ac1bdc63c3a8a4042" target="_top" xlink:title="ImprovedConfigFile\l::getSettingInt">
<polygon fill="white" stroke="black" points="248.5,-137 248.5,-167 349.5,-167 349.5,-137 248.5,-137"/>
<text text-anchor="start" x="256.5" y="-155" font-family="Helvetica,sans-Serif" font-size="10.00">ImprovedConfigFile</text>
<text text-anchor="middle" x="299" y="-144" font-family="Helvetica,sans-Serif" font-size="10.00">::getSettingInt</text>
</a>
</g>
</g>
<!-- Node2&#45;&gt;Node40 -->
<g id="edge46" class="edge"><title>Node2&#45;&gt;Node40</title>
<path fill="none" stroke="midnightblue" d="M152.888,-218.638C171.253,-206.233 198.501,-188.937 224,-177 231.737,-173.378 240.148,-170.025 248.432,-167.027"/>
<polygon fill="midnightblue" stroke="midnightblue" points="150.906,-215.753 144.632,-224.29 154.861,-221.529 150.906,-215.753"/>
</g>
<!-- Node42 -->
<g id="node42" class="node"><title>Node42</title>
<g id="a_node42"><a xlink:href="class_settings.html#aedfe597cc18de9ea1a028b55091c337d" target="_top" xlink:title="Process command line arguments into settings. ">
<polygon fill="white" stroke="black" points="990,-97.5 990,-116.5 1148,-116.5 1148,-97.5 990,-97.5"/>
<text text-anchor="middle" x="1069" y="-104.5" font-family="Helvetica,sans-Serif" font-size="10.00">Settings::ProcessCommandLine</text>
</a>
</g>
</g>
<!-- Node2&#45;&gt;Node42 -->
<g id="edge48" class="edge"><title>Node2&#45;&gt;Node42</title>
<path fill="none" stroke="midnightblue" d="M151.46,-218.007C162.912,-208.511 177.045,-195.846 188,-183 207.199,-160.487 198.569,-142.123 224,-127 322.824,-68.2331 367.023,-108 482,-108 482,-108 482,-108 675,-108 784.167,-108 910.391,-107.609 989.707,-107.316"/>
<polygon fill="midnightblue" stroke="midnightblue" points="149.24,-215.301 143.679,-224.319 153.65,-220.738 149.24,-215.301"/>
</g>
<!-- Node43 -->
<g id="node43" class="node"><title>Node43</title>
<g id="a_node43"><a xlink:href="_settings_8cpp.html#a3c48c77ebdfecc21ae8ef384f005e1bf" target="_top" xlink:title="App__SetGfxEnvmapRate">
<polygon fill="white" stroke="black" points="233,-57.5 233,-76.5 365,-76.5 365,-57.5 233,-57.5"/>
<text text-anchor="middle" x="299" y="-64.5" font-family="Helvetica,sans-Serif" font-size="10.00">App__SetGfxEnvmapRate</text>
</a>
</g>
</g>
<!-- Node2&#45;&gt;Node43 -->
<g id="edge50" class="edge"><title>Node2&#45;&gt;Node43</title>
<path fill="none" stroke="midnightblue" d="M152.856,-218.389C164.524,-209.163 178.415,-196.637 188,-183 212.536,-148.091 193.312,-123.646 224,-94 232.164,-86.1135 242.812,-80.5027 253.477,-76.521"/>
<polygon fill="midnightblue" stroke="midnightblue" points="150.678,-215.647 144.845,-224.492 154.921,-221.216 150.678,-215.647"/>
</g>
<!-- Node4 -->
<g id="node4" class="node"><title>Node4</title>
<g id="a_node4"><a xlink:href="scriptstdstring_8h.html#a287e4fc1f4c8621cfd2f1793f9e70f39" target="_top" xlink:title="RegisterStdString">
<polygon fill="white" stroke="black" points="627,-755.5 627,-774.5 721,-774.5 721,-755.5 627,-755.5"/>
<text text-anchor="middle" x="674" y="-762.5" font-family="Helvetica,sans-Serif" font-size="10.00">RegisterStdString</text>
</a>
</g>
</g>
<!-- Node3&#45;&gt;Node4 -->
<g id="edge3" class="edge"><title>Node3&#45;&gt;Node4</title>
<path fill="none" stroke="midnightblue" d="M338.802,-749.396C359.663,-755.417 385.971,-761.99 410,-765 485.434,-774.45 573.996,-771.608 626.7,-768.465"/>
<polygon fill="midnightblue" stroke="midnightblue" points="339.615,-745.987 329.032,-746.503 337.627,-752.699 339.615,-745.987"/>
</g>
<!-- Node6 -->
<g id="node6" class="node"><title>Node6</title>
<g id="a_node6"><a xlink:href="scriptstdstring_8cpp.html#a62c6497c981bdc5911e1167e4252cfdb" target="_top" xlink:title="RegisterStdString_Generic">
<polygon fill="white" stroke="black" points="416.5,-736.5 416.5,-755.5 549.5,-755.5 549.5,-736.5 416.5,-736.5"/>
<text text-anchor="middle" x="483" y="-743.5" font-family="Helvetica,sans-Serif" font-size="10.00">RegisterStdString_Generic</text>
</a>
</g>
</g>
<!-- Node5&#45;&gt;Node6 -->
<g id="edge5" class="edge"><title>Node5&#45;&gt;Node6</title>
<path fill="none" stroke="midnightblue" d="M321.347,-668.551C342.894,-683.717 377.534,-706.676 410,-722 421.916,-727.624 435.508,-732.516 447.65,-736.391"/>
<polygon fill="midnightblue" stroke="midnightblue" points="323.134,-665.526 312.959,-662.573 319.072,-671.227 323.134,-665.526"/>
</g>
<!-- Node6&#45;&gt;Node4 -->
<g id="edge6" class="edge"><title>Node6&#45;&gt;Node4</title>
<path fill="none" stroke="midnightblue" d="M559.563,-753.596C582.335,-755.886 606.637,-758.329 626.882,-760.364"/>
<polygon fill="midnightblue" stroke="midnightblue" points="559.873,-750.11 549.573,-752.592 559.172,-757.075 559.873,-750.11"/>
</g>
<!-- Node8 -->
<g id="node8" class="node"><title>Node8</title>
<g id="a_node8"><a xlink:href="class_hydrax_1_1_cfg_file_manager.html#a7d283a6b6b61ad70292c7cb24cd3543c" target="_top" xlink:title="Hydrax::CfgFileManager\l::load">
<polygon fill="white" stroke="black" points="612.5,-649 612.5,-679 735.5,-679 735.5,-649 612.5,-649"/>
<text text-anchor="start" x="620.5" y="-667" font-family="Helvetica,sans-Serif" font-size="10.00">Hydrax::CfgFileManager</text>
<text text-anchor="middle" x="674" y="-656" font-family="Helvetica,sans-Serif" font-size="10.00">::load</text>
</a>
</g>
</g>
<!-- Node7&#45;&gt;Node8 -->
<g id="edge8" class="edge"><title>Node7&#45;&gt;Node8</title>
<path fill="none" stroke="midnightblue" d="M315.011,-540.651C344.671,-587.341 408.103,-686.965 410,-688 483.046,-727.866 584.714,-699.139 637.702,-679.043"/>
<polygon fill="midnightblue" stroke="midnightblue" points="317.873,-538.629 309.557,-532.063 311.964,-542.381 317.873,-538.629"/>
</g>
<!-- Node9 -->
<g id="node9" class="node"><title>Node9</title>
<g id="a_node9"><a xlink:href="class_hydrax_1_1_cfg_file_manager.html#a6717ef4e731b3c22d71260aaa6d0336a" target="_top" xlink:title="Hydrax::CfgFileManager\l::_loadComponentsSettings">
<polygon fill="white" stroke="black" points="414.5,-649 414.5,-679 551.5,-679 551.5,-649 414.5,-649"/>
<text text-anchor="start" x="422.5" y="-667" font-family="Helvetica,sans-Serif" font-size="10.00">Hydrax::CfgFileManager</text>
<text text-anchor="middle" x="483" y="-656" font-family="Helvetica,sans-Serif" font-size="10.00">::_loadComponentsSettings</text>
</a>
</g>
</g>
<!-- Node7&#45;&gt;Node9 -->
<g id="edge9" class="edge"><title>Node7&#45;&gt;Node9</title>
<path fill="none" stroke="midnightblue" d="M315.901,-540.946C335.174,-568.248 370.071,-612.517 410,-639 415.734,-642.803 422.109,-646.093 428.629,-648.921"/>
<polygon fill="midnightblue" stroke="midnightblue" points="318.548,-538.619 309.98,-532.387 312.791,-542.602 318.548,-538.619"/>
</g>
<!-- Node10 -->
<g id="node10" class="node"><title>Node10</title>
<g id="a_node10"><a xlink:href="class_hydrax_1_1_noise_1_1_f_f_t.html#a64245b9e56eeb8627ac3f5260dc203dd" target="_top" xlink:title="Hydrax::Noise::FFT\l::loadCfg">
<polygon fill="white" stroke="black" points="431,-600 431,-630 535,-630 535,-600 431,-600"/>
<text text-anchor="start" x="439" y="-618" font-family="Helvetica,sans-Serif" font-size="10.00">Hydrax::Noise::FFT</text>
<text text-anchor="middle" x="483" y="-607" font-family="Helvetica,sans-Serif" font-size="10.00">::loadCfg</text>
</a>
</g>
</g>
<!-- Node7&#45;&gt;Node10 -->
<g id="edge11" class="edge"><title>Node7&#45;&gt;Node10</title>
<path fill="none" stroke="midnightblue" d="M327.41,-538.021C348.981,-553.849 380.266,-575.267 410,-590 417.351,-593.642 425.364,-596.987 433.288,-599.964"/>
<polygon fill="midnightblue" stroke="midnightblue" points="329.474,-535.194 319.359,-532.041 325.3,-540.814 329.474,-535.194"/>
</g>
<!-- Node11 -->
<g id="node11" class="node"><title>Node11</title>
<g id="a_node11"><a xlink:href="class_hydrax_1_1_noise_1_1_perlin.html#a3a2dab14cfbda1ccf8fc5de4bb89f124" target="_top" xlink:title="Hydrax::Noise::Perlin\l::loadCfg">
<polygon fill="white" stroke="black" points="428,-551 428,-581 538,-581 538,-551 428,-551"/>
<text text-anchor="start" x="436" y="-569" font-family="Helvetica,sans-Serif" font-size="10.00">Hydrax::Noise::Perlin</text>
<text text-anchor="middle" x="483" y="-558" font-family="Helvetica,sans-Serif" font-size="10.00">::loadCfg</text>
</a>
</g>
</g>
<!-- Node7&#45;&gt;Node11 -->
<g id="edge12" class="edge"><title>Node7&#45;&gt;Node11</title>
<path fill="none" stroke="midnightblue" d="M365.927,-534.749C386.3,-540.235 408.493,-546.21 427.965,-551.452"/>
<polygon fill="midnightblue" stroke="midnightblue" points="366.657,-531.322 356.091,-532.101 364.837,-538.081 366.657,-531.322"/>
</g>
<!-- Node12 -->
<g id="node12" class="node"><title>Node12</title>
<g id="a_node12"><a xlink:href="class_hydrax_1_1_module_1_1_projected_grid.html#af951c58cc93cf75d57e69aa14a668d3e" target="_top" xlink:title="Hydrax::Module::Projected\lGrid::loadCfg">
<polygon fill="white" stroke="black" points="416.5,-502 416.5,-532 549.5,-532 549.5,-502 416.5,-502"/>
<text text-anchor="start" x="424.5" y="-520" font-family="Helvetica,sans-Serif" font-size="10.00">Hydrax::Module::Projected</text>
<text text-anchor="middle" x="483" y="-509" font-family="Helvetica,sans-Serif" font-size="10.00">Grid::loadCfg</text>
</a>
</g>
</g>
<!-- Node7&#45;&gt;Node12 -->
<g id="edge13" class="edge"><title>Node7&#45;&gt;Node12</title>
<path fill="none" stroke="midnightblue" d="M370.831,-517C385.813,-517 401.563,-517 416.344,-517"/>
<polygon fill="midnightblue" stroke="midnightblue" points="370.603,-513.5 360.603,-517 370.603,-520.5 370.603,-513.5"/>
</g>
<!-- Node13 -->
<g id="node13" class="node"><title>Node13</title>
<g id="a_node13"><a xlink:href="class_hydrax_1_1_module_1_1_radial_grid.html#a31b3bab8e74f2f1e316a1800470ac685" target="_top" xlink:title="Hydrax::Module::RadialGrid\l::loadCfg">
<polygon fill="white" stroke="black" points="414.5,-453 414.5,-483 551.5,-483 551.5,-453 414.5,-453"/>
<text text-anchor="start" x="422.5" y="-471" font-family="Helvetica,sans-Serif" font-size="10.00">Hydrax::Module::RadialGrid</text>
<text text-anchor="middle" x="483" y="-460" font-family="Helvetica,sans-Serif" font-size="10.00">::loadCfg</text>
</a>
</g>
</g>
<!-- Node7&#45;&gt;Node13 -->
<g id="edge14" class="edge"><title>Node7&#45;&gt;Node13</title>
<path fill="none" stroke="midnightblue" d="M365.923,-499.252C385.648,-493.941 407.078,-488.171 426.094,-483.052"/>
<polygon fill="midnightblue" stroke="midnightblue" points="364.837,-495.919 356.091,-501.899 366.657,-502.678 364.837,-495.919"/>
</g>
<!-- Node14 -->
<g id="node14" class="node"><title>Node14</title>
<g id="a_node14"><a xlink:href="class_hydrax_1_1_noise_1_1_real.html#af858ae00b9af27b190ca5653b42bfc7f" target="_top" xlink:title="Hydrax::Noise::Real\l::loadCfg">
<polygon fill="white" stroke="black" points="430,-404 430,-434 536,-434 536,-404 430,-404"/>
<text text-anchor="start" x="438" y="-422" font-family="Helvetica,sans-Serif" font-size="10.00">Hydrax::Noise::Real</text>
<text text-anchor="middle" x="483" y="-411" font-family="Helvetica,sans-Serif" font-size="10.00">::loadCfg</text>
</a>
</g>
</g>
<!-- Node7&#45;&gt;Node14 -->
<g id="edge15" class="edge"><title>Node7&#45;&gt;Node14</title>
<path fill="none" stroke="midnightblue" d="M327.41,-495.979C348.981,-480.151 380.266,-458.733 410,-444 417.351,-440.358 425.364,-437.013 433.288,-434.036"/>
<polygon fill="midnightblue" stroke="midnightblue" points="325.3,-493.186 319.359,-501.959 329.474,-498.806 325.3,-493.186"/>
</g>
<!-- Node15 -->
<g id="node15" class="node"><title>Node15</title>
<g id="a_node15"><a xlink:href="class_hydrax_1_1_module_1_1_simple_grid.html#a3741ec1a3df1863e730711fd9d3b14e1" target="_top" xlink:title="Hydrax::Module::SimpleGrid\l::loadCfg">
<polygon fill="white" stroke="black" points="413,-355 413,-385 553,-385 553,-355 413,-355"/>
<text text-anchor="start" x="421" y="-373" font-family="Helvetica,sans-Serif" font-size="10.00">Hydrax::Module::SimpleGrid</text>
<text text-anchor="middle" x="483" y="-362" font-family="Helvetica,sans-Serif" font-size="10.00">::loadCfg</text>
</a>
</g>
</g>
<!-- Node7&#45;&gt;Node15 -->
<g id="edge16" class="edge"><title>Node7&#45;&gt;Node15</title>
<path fill="none" stroke="midnightblue" d="M315.491,-493.206C334.601,-465.628 369.563,-420.576 410,-394 415.175,-390.599 420.877,-387.637 426.738,-385.069"/>
<polygon fill="midnightblue" stroke="midnightblue" points="312.354,-491.597 309.634,-501.836 318.146,-495.528 312.354,-491.597"/>
</g>
<!-- Node9&#45;&gt;Node8 -->
<g id="edge10" class="edge"><title>Node9&#45;&gt;Node8</title>
<path fill="none" stroke="midnightblue" d="M562.045,-664C578.84,-664 596.35,-664 612.365,-664"/>
<polygon fill="midnightblue" stroke="midnightblue" points="561.7,-660.5 551.7,-664 561.699,-667.5 561.7,-660.5"/>
</g>
<!-- Node16&#45;&gt;Node15 -->
<g id="edge20" class="edge"><title>Node16&#45;&gt;Node15</title>
<path fill="none" stroke="midnightblue" d="M365.923,-338.748C385.648,-344.059 407.078,-349.829 426.094,-354.948"/>
<polygon fill="midnightblue" stroke="midnightblue" points="366.657,-335.322 356.091,-336.101 364.837,-342.081 366.657,-335.322"/>
</g>
<!-- Node17 -->
<g id="node17" class="node"><title>Node17</title>
<g id="a_node17"><a xlink:href="class_hydrax_1_1_cfg_file_manager.html#ae2a1a0accf942e528f6ba8a041a674e6" target="_top" xlink:title="Hydrax::CfgFileManager\l::_loadRttSettings">
<polygon fill="white" stroke="black" points="421.5,-306 421.5,-336 544.5,-336 544.5,-306 421.5,-306"/>
<text text-anchor="start" x="429.5" y="-324" font-family="Helvetica,sans-Serif" font-size="10.00">Hydrax::CfgFileManager</text>
<text text-anchor="middle" x="483" y="-313" font-family="Helvetica,sans-Serif" font-size="10.00">::_loadRttSettings</text>
</a>
</g>
</g>
<!-- Node16&#45;&gt;Node17 -->
<g id="edge18" class="edge"><title>Node16&#45;&gt;Node17</title>
<path fill="none" stroke="midnightblue" d="M370.846,-321C387.529,-321 405.164,-321 421.351,-321"/>
<polygon fill="midnightblue" stroke="midnightblue" points="370.603,-317.5 360.603,-321 370.603,-324.5 370.603,-317.5"/>
</g>
<!-- Node17&#45;&gt;Node8 -->
<g id="edge19" class="edge"><title>Node17&#45;&gt;Node8</title>
<path fill="none" stroke="midnightblue" d="M552.583,-341.955C553.765,-342.925 554.907,-343.939 556,-345 647.006,-433.335 667.675,-598.297 671.961,-648.871"/>
<polygon fill="midnightblue" stroke="midnightblue" points="554.458,-338.997 544.242,-336.186 550.475,-344.753 554.458,-338.997"/>
</g>
<!-- Node19 -->
<g id="node19" class="node"><title>Node19</title>
<g id="a_node19"><a xlink:href="class_collisions.html#a3f2acd0249632458dd92a551210f83a1" target="_top" xlink:title="Collisions::loadGroundModels\lConfigFile">
<polygon fill="white" stroke="black" points="410,-257 410,-287 556,-287 556,-257 410,-257"/>
<text text-anchor="start" x="418" y="-275" font-family="Helvetica,sans-Serif" font-size="10.00">Collisions::loadGroundModels</text>
<text text-anchor="middle" x="483" y="-264" font-family="Helvetica,sans-Serif" font-size="10.00">ConfigFile</text>
</a>
</g>
</g>
<!-- Node18&#45;&gt;Node19 -->
<g id="edge22" class="edge"><title>Node18&#45;&gt;Node19</title>
<path fill="none" stroke="midnightblue" d="M383.738,-272C392.51,-272 401.373,-272 409.997,-272"/>
<polygon fill="midnightblue" stroke="midnightblue" points="383.502,-268.5 373.502,-272 383.502,-275.5 383.502,-268.5"/>
</g>
<!-- Node20 -->
<g id="node20" class="node"><title>Node20</title>
<g id="a_node20"><a xlink:href="class_landusemap.html#a15032fdc9b8480990b2d102d91c50122" target="_top" xlink:title="Landusemap::loadConfig">
<polygon fill="white" stroke="black" points="611.5,-345.5 611.5,-364.5 736.5,-364.5 736.5,-345.5 611.5,-345.5"/>
<text text-anchor="middle" x="674" y="-352.5" font-family="Helvetica,sans-Serif" font-size="10.00">Landusemap::loadConfig</text>
</a>
</g>
</g>
<!-- Node19&#45;&gt;Node20 -->
<g id="edge23" class="edge"><title>Node19&#45;&gt;Node20</title>
<path fill="none" stroke="midnightblue" d="M548.382,-291.55C551.01,-292.943 553.562,-294.425 556,-296 575.814,-308.8 571.692,-322.999 592,-335 599.357,-339.348 607.626,-342.754 615.995,-345.421"/>
<polygon fill="midnightblue" stroke="midnightblue" points="549.739,-288.32 539.209,-287.151 546.712,-294.631 549.739,-288.32"/>
</g>
<!-- Node22 -->
<g id="node22" class="node"><title>Node22</title>
<g id="a_node22"><a xlink:href="class_collisions.html#ab787df47353b8b839cf2187ab61ee514" target="_top" xlink:title="Collisions::loadDefaultModels">
<polygon fill="white" stroke="black" points="601,-306.5 601,-325.5 747,-325.5 747,-306.5 601,-306.5"/>
<text text-anchor="middle" x="674" y="-313.5" font-family="Helvetica,sans-Serif" font-size="10.00">Collisions::loadDefaultModels</text>
</a>
</g>
</g>
<!-- Node19&#45;&gt;Node22 -->
<g id="edge25" class="edge"><title>Node19&#45;&gt;Node22</title>
<path fill="none" stroke="midnightblue" d="M558.392,-289.319C583.503,-295.165 610.601,-301.473 632.14,-306.488"/>
<polygon fill="midnightblue" stroke="midnightblue" points="559.048,-285.878 548.514,-287.019 557.46,-292.696 559.048,-285.878"/>
</g>
<!-- Node24 -->
<g id="node24" class="node"><title>Node24</title>
<g id="a_node24"><a xlink:href="class_terrain_object_manager.html#a62a108ad201e16585ab3115befedae60" target="_top" xlink:title="TerrainObjectManager\l::loadObject">
<polygon fill="white" stroke="black" points="617.5,-257 617.5,-287 730.5,-287 730.5,-257 617.5,-257"/>
<text text-anchor="start" x="625.5" y="-275" font-family="Helvetica,sans-Serif" font-size="10.00">TerrainObjectManager</text>
<text text-anchor="middle" x="674" y="-264" font-family="Helvetica,sans-Serif" font-size="10.00">::loadObject</text>
</a>
</g>
</g>
<!-- Node19&#45;&gt;Node24 -->
<g id="edge27" class="edge"><title>Node19&#45;&gt;Node24</title>
<path fill="none" stroke="midnightblue" d="M566.311,-272C583.516,-272 601.269,-272 617.237,-272"/>
<polygon fill="midnightblue" stroke="midnightblue" points="566.262,-268.5 556.262,-272 566.262,-275.5 566.262,-268.5"/>
</g>
<!-- Node21 -->
<g id="node21" class="node"><title>Node21</title>
<g id="a_node21"><a xlink:href="class_landusemap.html#ac804af3e0f5a61516c7de9e4eb8165f5" target="_top" xlink:title="Landusemap::Landusemap">
<polygon fill="white" stroke="black" points="806,-348.5 806,-367.5 940,-367.5 940,-348.5 806,-348.5"/>
<text text-anchor="middle" x="873" y="-355.5" font-family="Helvetica,sans-Serif" font-size="10.00">Landusemap::Landusemap</text>
</a>
</g>
</g>
<!-- Node20&#45;&gt;Node21 -->
<g id="edge24" class="edge"><title>Node20&#45;&gt;Node21</title>
<path fill="none" stroke="midnightblue" d="M746.765,-356.093C766.064,-356.387 786.845,-356.703 805.824,-356.992"/>
<polygon fill="midnightblue" stroke="midnightblue" points="746.574,-352.59 736.522,-355.937 746.467,-359.589 746.574,-352.59"/>
</g>
<!-- Node23 -->
<g id="node23" class="node"><title>Node23</title>
<g id="a_node23"><a xlink:href="class_collisions.html#a25e934bf8896b7707b5b005403dd67a9" target="_top" xlink:title="Collisions::Collisions">
<polygon fill="white" stroke="black" points="819,-310.5 819,-329.5 927,-329.5 927,-310.5 819,-310.5"/>
<text text-anchor="middle" x="873" y="-317.5" font-family="Helvetica,sans-Serif" font-size="10.00">Collisions::Collisions</text>
</a>
</g>
</g>
<!-- Node22&#45;&gt;Node23 -->
<g id="edge26" class="edge"><title>Node22&#45;&gt;Node23</title>
<path fill="none" stroke="midnightblue" d="M757.357,-317.672C778.167,-318.095 799.966,-318.537 818.9,-318.922"/>
<polygon fill="midnightblue" stroke="midnightblue" points="757.306,-314.171 747.237,-317.467 757.164,-321.169 757.306,-314.171"/>
</g>
<!-- Node25 -->
<g id="node25" class="node"><title>Node25</title>
<g id="a_node25"><a xlink:href="class_game_script.html#adc155d46516906fb9bfddde649c02ee6" target="_top" xlink:title="GameScript::spawnObject">
<polygon fill="white" stroke="black" points="807.5,-272.5 807.5,-291.5 938.5,-291.5 938.5,-272.5 807.5,-272.5"/>
<text text-anchor="middle" x="873" y="-279.5" font-family="Helvetica,sans-Serif" font-size="10.00">GameScript::spawnObject</text>
</a>
</g>
</g>
<!-- Node24&#45;&gt;Node25 -->
<g id="edge28" class="edge"><title>Node24&#45;&gt;Node25</title>
<path fill="none" stroke="midnightblue" d="M740.678,-275.334C762.17,-276.425 786.017,-277.635 807.428,-278.722"/>
<polygon fill="midnightblue" stroke="midnightblue" points="740.827,-271.837 730.662,-274.826 740.472,-278.828 740.827,-271.837"/>
</g>
<!-- Node26 -->
<g id="node26" class="node"><title>Node26</title>
<g id="a_node26"><a xlink:href="class_terrain_object_manager.html#a45ccbf51f9c0ecac68927fed5e52eaa4" target="_top" xlink:title="TerrainObjectManager\l::loadObjectConfigFile">
<polygon fill="white" stroke="black" points="816.5,-223 816.5,-253 929.5,-253 929.5,-223 816.5,-223"/>
<text text-anchor="start" x="824.5" y="-241" font-family="Helvetica,sans-Serif" font-size="10.00">TerrainObjectManager</text>
<text text-anchor="middle" x="873" y="-230" font-family="Helvetica,sans-Serif" font-size="10.00">::loadObjectConfigFile</text>
</a>
</g>
</g>
<!-- Node24&#45;&gt;Node26 -->
<g id="edge29" class="edge"><title>Node24&#45;&gt;Node26</title>
<path fill="none" stroke="midnightblue" d="M740.63,-260.673C765.217,-256.429 792.891,-251.653 816.475,-247.583"/>
<polygon fill="midnightblue" stroke="midnightblue" points="739.921,-257.243 730.662,-262.393 741.112,-264.141 739.921,-257.243"/>
</g>
<!-- Node27 -->
<g id="node27" class="node"><title>Node27</title>
<g id="a_node27"><a xlink:href="class_terrain_manager.html#a4ad87b973cb6af52daaf530a5feff167" target="_top" xlink:title="TerrainManager::loadTerrain\lObjects">
<polygon fill="white" stroke="black" points="1000,-224 1000,-254 1138,-254 1138,-224 1000,-224"/>
<text text-anchor="start" x="1008" y="-242" font-family="Helvetica,sans-Serif" font-size="10.00">TerrainManager::loadTerrain</text>
<text text-anchor="middle" x="1069" y="-231" font-family="Helvetica,sans-Serif" font-size="10.00">Objects</text>
</a>
</g>
</g>
<!-- Node26&#45;&gt;Node27 -->
<g id="edge30" class="edge"><title>Node26&#45;&gt;Node27</title>
<path fill="none" stroke="midnightblue" d="M939.844,-238.339C959.229,-238.439 980.472,-238.549 999.991,-238.649"/>
<polygon fill="midnightblue" stroke="midnightblue" points="939.611,-234.838 929.593,-238.287 939.574,-241.838 939.611,-234.838"/>
</g>
<!-- Node28 -->
<g id="node28" class="node"><title>Node28</title>
<g id="a_node28"><a xlink:href="class_terrain_manager.html#a9a04c837bf2ea6528c465b27ca62f730" target="_top" xlink:title="TerrainManager::loadTerrain">
<polygon fill="white" stroke="black" points="1191,-226.5 1191,-245.5 1329,-245.5 1329,-226.5 1191,-226.5"/>
<text text-anchor="middle" x="1260" y="-233.5" font-family="Helvetica,sans-Serif" font-size="10.00">TerrainManager::loadTerrain</text>
</a>
</g>
</g>
<!-- Node27&#45;&gt;Node28 -->
<g id="edge31" class="edge"><title>Node27&#45;&gt;Node28</title>
<path fill="none" stroke="midnightblue" d="M1148.39,-237.756C1162.49,-237.532 1177.09,-237.3 1190.87,-237.081"/>
<polygon fill="midnightblue" stroke="midnightblue" points="1148.18,-234.259 1138.23,-237.917 1148.29,-241.258 1148.18,-234.259"/>
</g>
<!-- Node29 -->
<g id="node29" class="node"><title>Node29</title>
<g id="a_node29"><a xlink:href="class_ro_r_frame_listener.html#a9757c059e840019a3e2659d5ef63ea02" target="_top" xlink:title="Reads GVar &#39;sim_terrain_pending&#39;. ">
<polygon fill="white" stroke="black" points="1372,-225.5 1372,-244.5 1528,-244.5 1528,-225.5 1372,-225.5"/>
<text text-anchor="middle" x="1450" y="-232.5" font-family="Helvetica,sans-Serif" font-size="10.00">RoRFrameListener::LoadTerrain</text>
</a>
</g>
</g>
<!-- Node28&#45;&gt;Node29 -->
<g id="edge32" class="edge"><title>Node28&#45;&gt;Node29</title>
<path fill="none" stroke="midnightblue" d="M1339.34,-235.583C1350.09,-235.526 1361.12,-235.467 1371.85,-235.41"/>
<polygon fill="midnightblue" stroke="midnightblue" points="1339.12,-232.084 1329.14,-235.638 1339.16,-239.084 1339.12,-232.084"/>
</g>
<!-- Node30 -->
<g id="node30" class="node"><title>Node30</title>
<g id="a_node30"><a xlink:href="class_ro_r_frame_listener.html#aca3931d7a75f2ad4b9d36c4fcd03a3c9" target="_top" xlink:title="RoRFrameListener::SetupGameplayLoop">
<polygon fill="white" stroke="black" points="1564,-224.5 1564,-243.5 1760,-243.5 1760,-224.5 1564,-224.5"/>
<text text-anchor="middle" x="1662" y="-231.5" font-family="Helvetica,sans-Serif" font-size="10.00">RoRFrameListener::SetupGameplayLoop</text>
</a>
</g>
</g>
<!-- Node29&#45;&gt;Node30 -->
<g id="edge33" class="edge"><title>Node29&#45;&gt;Node30</title>
<path fill="none" stroke="midnightblue" d="M1538.26,-234.584C1546.75,-234.544 1555.4,-234.503 1563.98,-234.462"/>
<polygon fill="midnightblue" stroke="midnightblue" points="1537.99,-231.086 1528,-234.633 1538.02,-238.086 1537.99,-231.086"/>
</g>
<!-- Node31 -->
<g id="node31" class="node"><title>Node31</title>
<g id="a_node31"><a xlink:href="main_8cpp.html#a0ddf1224851353fc92bfbff6f499fa97" target="_top" xlink:title="main">
<polygon fill="white" stroke="black" points="1796,-164.5 1796,-183.5 1834,-183.5 1834,-164.5 1796,-164.5"/>
<text text-anchor="middle" x="1815" y="-171.5" font-family="Helvetica,sans-Serif" font-size="10.00">main</text>
</a>
</g>
</g>
<!-- Node30&#45;&gt;Node31 -->
<g id="edge34" class="edge"><title>Node30&#45;&gt;Node31</title>
<path fill="none" stroke="midnightblue" d="M1725.46,-221.931C1737.18,-218.725 1749.15,-214.784 1760,-210 1775.67,-203.09 1791.77,-191.695 1802.26,-183.576"/>
<polygon fill="midnightblue" stroke="midnightblue" points="1724.5,-218.562 1715.7,-224.454 1726.26,-225.339 1724.5,-218.562"/>
</g>
<!-- Node32 -->
<g id="node32" class="node"><title>Node32</title>
<g id="a_node32"><a xlink:href="main_8cpp.html#a2922bc5d5c2d77a3020cfbf9df12aab0" target="_top" xlink:title="WinMain">
<polygon fill="white" stroke="black" points="1870.5,-164.5 1870.5,-183.5 1925.5,-183.5 1925.5,-164.5 1870.5,-164.5"/>
<text text-anchor="middle" x="1898" y="-171.5" font-family="Helvetica,sans-Serif" font-size="10.00">WinMain</text>
</a>
</g>
</g>
<!-- Node31&#45;&gt;Node32 -->
<g id="edge35" class="edge"><title>Node31&#45;&gt;Node32</title>
<path fill="none" stroke="midnightblue" d="M1844.51,-174C1852.93,-174 1862.11,-174 1870.4,-174"/>
<polygon fill="midnightblue" stroke="midnightblue" points="1844.38,-170.5 1834.38,-174 1844.38,-177.5 1844.38,-170.5"/>
</g>
<!-- Node34 -->
<g id="node34" class="node"><title>Node34</title>
<g id="a_node34"><a xlink:href="class_cache_system.html#a737df1810a418779f48e0fd8fb669bc4" target="_top" xlink:title="CacheSystem::loadCache">
<polygon fill="white" stroke="black" points="807.5,-184.5 807.5,-203.5 938.5,-203.5 938.5,-184.5 807.5,-184.5"/>
<text text-anchor="middle" x="873" y="-191.5" font-family="Helvetica,sans-Serif" font-size="10.00">CacheSystem::loadCache</text>
</a>
</g>
</g>
<!-- Node33&#45;&gt;Node34 -->
<g id="edge37" class="edge"><title>Node33&#45;&gt;Node34</title>
<path fill="none" stroke="midnightblue" d="M766.329,-203.119C780.218,-201.92 794.299,-200.705 807.459,-199.57"/>
<polygon fill="midnightblue" stroke="midnightblue" points="765.927,-199.64 756.265,-203.987 766.529,-206.615 765.927,-199.64"/>
</g>
<!-- Node35 -->
<g id="node35" class="node"><title>Node35</title>
<g id="a_node35"><a xlink:href="class_cache_system.html#ae010322c2422bf8f8dbfce904257da31" target="_top" xlink:title="CacheSystem::Startup">
<polygon fill="white" stroke="black" points="1392,-167.5 1392,-186.5 1508,-186.5 1508,-167.5 1392,-167.5"/>
<text text-anchor="middle" x="1450" y="-174.5" font-family="Helvetica,sans-Serif" font-size="10.00">CacheSystem::Startup</text>
</a>
</g>
</g>
<!-- Node34&#45;&gt;Node35 -->
<g id="edge38" class="edge"><title>Node34&#45;&gt;Node35</title>
<path fill="none" stroke="midnightblue" d="M948.805,-191.788C1065.16,-188.348 1286.98,-181.79 1391.63,-178.696"/>
<polygon fill="midnightblue" stroke="midnightblue" points="948.456,-188.297 938.564,-192.091 948.663,-195.294 948.456,-188.297"/>
</g>
<!-- Node37 -->
<g id="node37" class="node"><title>Node37</title>
<g id="a_node37"><a xlink:href="class_cache_system.html#a4439130b97404a54bca3ca9768586c48" target="_top" xlink:title="CacheSystem::incremental\lCacheUpdate">
<polygon fill="white" stroke="black" points="1001.5,-136 1001.5,-166 1136.5,-166 1136.5,-136 1001.5,-136"/>
<text text-anchor="start" x="1009.5" y="-154" font-family="Helvetica,sans-Serif" font-size="10.00">CacheSystem::incremental</text>
<text text-anchor="middle" x="1069" y="-143" font-family="Helvetica,sans-Serif" font-size="10.00">CacheUpdate</text>
</a>
</g>
</g>
<!-- Node34&#45;&gt;Node37 -->
<g id="edge42" class="edge"><title>Node34&#45;&gt;Node37</title>
<path fill="none" stroke="midnightblue" d="M926.959,-182.262C949.939,-177.168 977.106,-171.147 1001.43,-165.755"/>
<polygon fill="midnightblue" stroke="midnightblue" points="926.061,-178.876 917.055,-184.457 927.575,-185.71 926.061,-178.876"/>
</g>
<!-- Node35&#45;&gt;Node31 -->
<g id="edge39" class="edge"><title>Node35&#45;&gt;Node31</title>
<path fill="none" stroke="midnightblue" d="M1518.38,-177.437C1580.98,-177.687 1676.8,-177.675 1760,-176 1771.82,-175.762 1785.08,-175.274 1795.51,-174.839"/>
<polygon fill="midnightblue" stroke="midnightblue" points="1518.26,-173.936 1508.24,-177.393 1518.23,-180.936 1518.26,-173.936"/>
</g>
<!-- Node36 -->
<g id="node36" class="node"><title>Node36</title>
<g id="a_node36"><a xlink:href="class_ro_r_1_1_content_manager.html#a861b35694f428e463a800052ac0e9f90" target="_top" xlink:title="RoR::ContentManager\l::RegenCache">
<polygon fill="white" stroke="black" points="1604.5,-137 1604.5,-167 1719.5,-167 1719.5,-137 1604.5,-137"/>
<text text-anchor="start" x="1612.5" y="-155" font-family="Helvetica,sans-Serif" font-size="10.00">RoR::ContentManager</text>
<text text-anchor="middle" x="1662" y="-144" font-family="Helvetica,sans-Serif" font-size="10.00">::RegenCache</text>
</a>
</g>
</g>
<!-- Node35&#45;&gt;Node36 -->
<g id="edge40" class="edge"><title>Node35&#45;&gt;Node36</title>
<path fill="none" stroke="midnightblue" d="M1518.13,-169.008C1545.88,-165.705 1577.71,-161.916 1604.27,-158.754"/>
<polygon fill="midnightblue" stroke="midnightblue" points="1517.62,-165.544 1508.11,-170.202 1518.45,-172.495 1517.62,-165.544"/>
</g>
<!-- Node36&#45;&gt;Node31 -->
<g id="edge41" class="edge"><title>Node36&#45;&gt;Node31</title>
<path fill="none" stroke="midnightblue" d="M1729.57,-161.699C1753.79,-165.227 1779.25,-168.937 1795.8,-171.348"/>
<polygon fill="midnightblue" stroke="midnightblue" points="1730.06,-158.233 1719.66,-160.255 1729.05,-165.16 1730.06,-158.233"/>
</g>
<!-- Node38 -->
<g id="node38" class="node"><title>Node38</title>
<g id="a_node38"><a xlink:href="class_cache_system.html#a37e784da57c57f56a428f61a53b4d618" target="_top" xlink:title="CacheSystem::generateCache">
<polygon fill="white" stroke="black" points="1184.5,-144.5 1184.5,-163.5 1335.5,-163.5 1335.5,-144.5 1184.5,-144.5"/>
<text text-anchor="middle" x="1260" y="-151.5" font-family="Helvetica,sans-Serif" font-size="10.00">CacheSystem::generateCache</text>
</a>
</g>
</g>
<!-- Node37&#45;&gt;Node38 -->
<g id="edge43" class="edge"><title>Node37&#45;&gt;Node38</title>
<path fill="none" stroke="midnightblue" d="M1146.88,-152.22C1159.23,-152.416 1171.98,-152.619 1184.27,-152.814"/>
<polygon fill="midnightblue" stroke="midnightblue" points="1146.69,-148.717 1136.63,-152.058 1146.58,-155.716 1146.69,-148.717"/>
</g>
<!-- Node38&#45;&gt;Node35 -->
<g id="edge44" class="edge"><title>Node38&#45;&gt;Node35</title>
<path fill="none" stroke="midnightblue" d="M1345.77,-164.371C1361.4,-166.282 1377.36,-168.236 1391.92,-170.017"/>
<polygon fill="midnightblue" stroke="midnightblue" points="1345.92,-160.864 1335.57,-163.123 1345.07,-167.812 1345.92,-160.864"/>
</g>
<!-- Node41 -->
<g id="node41" class="node"><title>Node41</title>
<g id="a_node41"><a xlink:href="class_local_storage.html#a31acdeb1338a77a4cbc9223d5d80598b" target="_top" xlink:title="LocalStorage::getInt">
<polygon fill="white" stroke="black" points="431,-142.5 431,-161.5 535,-161.5 535,-142.5 431,-142.5"/>
<text text-anchor="middle" x="483" y="-149.5" font-family="Helvetica,sans-Serif" font-size="10.00">LocalStorage::getInt</text>
</a>
</g>
</g>
<!-- Node40&#45;&gt;Node41 -->
<g id="edge47" class="edge"><title>Node40&#45;&gt;Node41</title>
<path fill="none" stroke="midnightblue" d="M360.013,-152C382.895,-152 408.747,-152 430.743,-152"/>
<polygon fill="midnightblue" stroke="midnightblue" points="359.732,-148.5 349.732,-152 359.732,-155.5 359.732,-148.5"/>
</g>
<!-- Node42&#45;&gt;Node31 -->
<g id="edge49" class="edge"><title>Node42&#45;&gt;Node31</title>
<path fill="none" stroke="midnightblue" d="M1129.45,-95.763C1252.3,-75.2755 1540.97,-41.3914 1760,-127 1779.68,-134.691 1797.03,-152.894 1806.47,-164.255"/>
<polygon fill="midnightblue" stroke="midnightblue" points="1128.76,-92.33 1119.49,-97.4561 1129.93,-99.2311 1128.76,-92.33"/>
</g>
<!-- Node44 -->
<g id="node44" class="node"><title>Node44</title>
<g id="a_node44"><a xlink:href="class_settings.html#aa27b8db941ea9fa77ffff67c80b1d5be" target="_top" xlink:title="Settings::ParseGlobalVar\lSetting">
<polygon fill="white" stroke="black" points="419.5,-49 419.5,-79 546.5,-79 546.5,-49 419.5,-49"/>
<text text-anchor="start" x="427.5" y="-67" font-family="Helvetica,sans-Serif" font-size="10.00">Settings::ParseGlobalVar</text>
<text text-anchor="middle" x="483" y="-56" font-family="Helvetica,sans-Serif" font-size="10.00">Setting</text>
</a>
</g>
</g>
<!-- Node43&#45;&gt;Node44 -->
<g id="edge51" class="edge"><title>Node43&#45;&gt;Node44</title>
<path fill="none" stroke="midnightblue" d="M375.247,-65.7597C389.929,-65.5176 405.176,-65.2663 419.395,-65.032"/>
<polygon fill="midnightblue" stroke="midnightblue" points="375.133,-62.261 365.192,-65.9254 375.248,-69.26 375.133,-62.261"/>
</g>
<!-- Node47 -->
<g id="node47" class="node"><title>Node47</title>
<g id="a_node47"><a xlink:href="_dynamic_collisions_8h.html#a2e06e402bcfbf043fcf34f1105bcd5a4" target="_top" xlink:title="interTruckCollisions">
<polygon fill="white" stroke="black" points="247.5,-14.5 247.5,-33.5 350.5,-33.5 350.5,-14.5 247.5,-14.5"/>
<text text-anchor="middle" x="299" y="-21.5" font-family="Helvetica,sans-Serif" font-size="10.00">interTruckCollisions</text>
</a>
</g>
</g>
<!-- Node46&#45;&gt;Node47 -->
<g id="edge54" class="edge"><title>Node46&#45;&gt;Node47</title>
<path fill="none" stroke="midnightblue" d="M187.854,-46.425C208.448,-42.2321 231.459,-37.5474 251.1,-33.5485"/>
<polygon fill="midnightblue" stroke="midnightblue" points="187.064,-43.0139 177.963,-48.4386 188.46,-49.8732 187.064,-43.0139"/>
</g>
<!-- Node48 -->
<g id="node48" class="node"><title>Node48</title>
<g id="a_node48"><a xlink:href="class_ro_r_1_1_beam_factory.html#ac25b17e65074996433c472da5028fed1" target="_top" xlink:title="RoR::BeamFactory::Update\lPhysicsSimulation">
<polygon fill="white" stroke="black" points="413.5,-0 413.5,-30 552.5,-30 552.5,-0 413.5,-0"/>
<text text-anchor="start" x="421.5" y="-18" font-family="Helvetica,sans-Serif" font-size="10.00">RoR::BeamFactory::Update</text>
<text text-anchor="middle" x="483" y="-7" font-family="Helvetica,sans-Serif" font-size="10.00">PhysicsSimulation</text>
</a>
</g>
</g>
<!-- Node47&#45;&gt;Node48 -->
<g id="edge55" class="edge"><title>Node47&#45;&gt;Node48</title>
<path fill="none" stroke="midnightblue" d="M360.922,-20.9874C377.702,-20.1576 396.019,-19.2518 413.21,-18.4017"/>
<polygon fill="midnightblue" stroke="midnightblue" points="360.512,-17.5033 350.697,-21.493 360.858,-24.4947 360.512,-17.5033"/>
</g>
<!-- Node49 -->
<g id="node49" class="node"><title>Node49</title>
<g id="a_node49"><a xlink:href="class_ro_r_1_1_beam_factory.html#a87e6c050f0af4ef2e39976749ac9762c" target="_top" xlink:title="RoR::BeamFactory::update">
<polygon fill="white" stroke="black" points="605.5,-5.5 605.5,-24.5 742.5,-24.5 742.5,-5.5 605.5,-5.5"/>
<text text-anchor="middle" x="674" y="-12.5" font-family="Helvetica,sans-Serif" font-size="10.00">RoR::BeamFactory::update</text>
</a>
</g>
</g>
<!-- Node48&#45;&gt;Node49 -->
<g id="edge56" class="edge"><title>Node48&#45;&gt;Node49</title>
<path fill="none" stroke="midnightblue" d="M562.714,-15C576.885,-15 591.544,-15 605.366,-15"/>
<polygon fill="midnightblue" stroke="midnightblue" points="562.501,-11.5001 552.501,-15 562.501,-18.5001 562.501,-11.5001"/>
</g>
<!-- Node50 -->
<g id="node50" class="node"><title>Node50</title>
<g id="a_node50"><a xlink:href="class_ro_r_frame_listener.html#acd8647e188fb8e838689492965b86faf" target="_top" xlink:title="RoRFrameListener::frameStarted">
<polygon fill="white" stroke="black" points="792.5,-5.5 792.5,-24.5 953.5,-24.5 953.5,-5.5 792.5,-5.5"/>
<text text-anchor="middle" x="873" y="-12.5" font-family="Helvetica,sans-Serif" font-size="10.00">RoRFrameListener::frameStarted</text>
</a>
</g>
</g>
<!-- Node49&#45;&gt;Node50 -->
<g id="edge57" class="edge"><title>Node49&#45;&gt;Node50</title>
<path fill="none" stroke="midnightblue" d="M752.815,-15C765.808,-15 779.304,-15 792.343,-15"/>
<polygon fill="midnightblue" stroke="midnightblue" points="752.521,-11.5001 742.521,-15 752.521,-18.5001 752.521,-11.5001"/>
</g>
</g>
</svg>
