<?xml version="1.0" encoding="UTF-8" standalone="no"?>
<!DOCTYPE svg PUBLIC "-//W3C//DTD SVG 1.1//EN"
 "http://www.w3.org/Graphics/SVG/1.1/DTD/svg11.dtd">
<!-- Generated by graphviz version 2.36.0 (20140111.2315)
 -->
<!-- Title: source/main/Application.cpp Pages: 1 -->
<svg width="2141pt" height="364pt"
 viewBox="0.00 0.00 2141.00 364.00" xmlns="http://www.w3.org/2000/svg" xmlns:xlink="http://www.w3.org/1999/xlink">
<g id="graph0" class="graph" transform="scale(1 1) rotate(0) translate(4 360)">
<title>source/main/Application.cpp</title>
<polygon fill="white" stroke="none" points="-4,4 -4,-360 2137,-360 2137,4 -4,4"/>
<!-- Node1 -->
<g id="node1" class="node"><title>Node1</title>
<polygon fill="#bfbfbf" stroke="black" points="626,-336.5 626,-355.5 766,-355.5 766,-336.5 626,-336.5"/>
<text text-anchor="middle" x="696" y="-343.5" font-family="Helvetica,sans-Serif" font-size="10.00">source/main/Application.cpp</text>
</g>
<!-- Node2 -->
<g id="node2" class="node"><title>Node2</title>
<g id="a_node2"><a xlink:href="_application_8h.html" target="_top" xlink:title="Central state/object manager and communications hub. ">
<polygon fill="white" stroke="black" points="561.5,-280.5 561.5,-299.5 634.5,-299.5 634.5,-280.5 561.5,-280.5"/>
<text text-anchor="middle" x="598" y="-287.5" font-family="Helvetica,sans-Serif" font-size="10.00">Application.h</text>
</a>
</g>
</g>
<!-- Node1&#45;&gt;Node2 -->
<g id="edge1" class="edge"><title>Node1&#45;&gt;Node2</title>
<path fill="none" stroke="midnightblue" d="M680.255,-336.324C664.681,-327.743 640.623,-314.486 622.541,-304.522"/>
<polygon fill="midnightblue" stroke="midnightblue" points="624.154,-301.415 613.706,-299.655 620.776,-307.546 624.154,-301.415"/>
</g>
<!-- Node23 -->
<g id="node23" class="node"><title>Node23</title>
<polygon fill="white" stroke="#bfbfbf" points="332.5,-280.5 332.5,-299.5 421.5,-299.5 421.5,-280.5 332.5,-280.5"/>
<text text-anchor="middle" x="377" y="-287.5" font-family="Helvetica,sans-Serif" font-size="10.00">OgreException.h</text>
</g>
<!-- Node1&#45;&gt;Node23 -->
<g id="edge25" class="edge"><title>Node1&#45;&gt;Node23</title>
<path fill="none" stroke="midnightblue" d="M645.499,-336.466C594.187,-327.793 512.116,-313.915 431.823,-300.308"/>
<polygon fill="midnightblue" stroke="midnightblue" points="431.977,-296.784 421.533,-298.564 430.807,-303.686 431.977,-296.784"/>
</g>
<!-- Node24 -->
<g id="node24" class="node"><title>Node24</title>
<g id="a_node24"><a xlink:href="_cache_system_8h.html" target="_top" xlink:title="Caches information about installed mods (vehicles, terrains...) ">
<polygon fill="white" stroke="black" points="652.5,-280.5 652.5,-299.5 739.5,-299.5 739.5,-280.5 652.5,-280.5"/>
<text text-anchor="middle" x="696" y="-287.5" font-family="Helvetica,sans-Serif" font-size="10.00">CacheSystem.h</text>
</a>
</g>
</g>
<!-- Node1&#45;&gt;Node24 -->
<g id="edge26" class="edge"><title>Node1&#45;&gt;Node24</title>
<path fill="none" stroke="midnightblue" d="M696,-336.083C696,-329.006 696,-318.861 696,-309.986"/>
<polygon fill="midnightblue" stroke="midnightblue" points="699.5,-309.751 696,-299.751 692.5,-309.751 699.5,-309.751"/>
</g>
<!-- Node26 -->
<g id="node26" class="node"><title>Node26</title>
<g id="a_node26"><a xlink:href="_content_manager_8h.html" target="_top" xlink:title="ContentManager.h">
<polygon fill="white" stroke="black" points="229.5,-224.5 229.5,-243.5 326.5,-243.5 326.5,-224.5 229.5,-224.5"/>
<text text-anchor="middle" x="278" y="-231.5" font-family="Helvetica,sans-Serif" font-size="10.00">ContentManager.h</text>
</a>
</g>
</g>
<!-- Node1&#45;&gt;Node26 -->
<g id="edge29" class="edge"><title>Node1&#45;&gt;Node26</title>
<path fill="none" stroke="midnightblue" d="M625.879,-343.32C532.27,-339.939 372.502,-329.852 323,-300 305.047,-289.173 292.497,-268.125 285.294,-252.908"/>
<polygon fill="midnightblue" stroke="midnightblue" points="288.388,-251.249 281.161,-243.502 281.98,-254.065 288.388,-251.249"/>
</g>
<!-- Node28 -->
<g id="node28" class="node"><title>Node28</title>
<g id="a_node28"><a xlink:href="_g_u_i_manager_8h.html" target="_top" xlink:title="GUIManager.h">
<polygon fill="white" stroke="black" points="870,-224.5 870,-243.5 950,-243.5 950,-224.5 870,-224.5"/>
<text text-anchor="middle" x="910" y="-231.5" font-family="Helvetica,sans-Serif" font-size="10.00">GUIManager.h</text>
</a>
</g>
</g>
<!-- Node1&#45;&gt;Node28 -->
<g id="edge34" class="edge"><title>Node1&#45;&gt;Node28</title>
<path fill="none" stroke="midnightblue" d="M712.792,-336.368C750.062,-317.211 839.895,-271.036 884.287,-248.217"/>
<polygon fill="midnightblue" stroke="midnightblue" points="885.992,-251.276 893.286,-243.591 882.792,-245.05 885.992,-251.276"/>
</g>
<!-- Node35 -->
<g id="node35" class="node"><title>Node35</title>
<g id="a_node35"><a xlink:href="_input_engine_8h.html" target="_top" xlink:title="Input logic. ">
<polygon fill="white" stroke="black" points="1648.5,-224.5 1648.5,-243.5 1725.5,-243.5 1725.5,-224.5 1648.5,-224.5"/>
<text text-anchor="middle" x="1687" y="-231.5" font-family="Helvetica,sans-Serif" font-size="10.00">InputEngine.h</text>
</a>
</g>
</g>
<!-- Node1&#45;&gt;Node35 -->
<g id="edge43" class="edge"><title>Node1&#45;&gt;Node35</title>
<path fill="none" stroke="midnightblue" d="M766.073,-337.608C849.291,-328.798 992.287,-313.562 1115,-300 1308.81,-278.581 1539.43,-252.058 1638.19,-240.65"/>
<polygon fill="midnightblue" stroke="midnightblue" points="1638.64,-244.121 1648.17,-239.496 1637.83,-237.167 1638.64,-244.121"/>
</g>
<!-- Node43 -->
<g id="node43" class="node"><title>Node43</title>
<g id="a_node43"><a xlink:href="_ogre_subsystem_8h.html" target="_top" xlink:title="OGRE engine wrapper. ">
<polygon fill="white" stroke="black" points="439.5,-280.5 439.5,-299.5 534.5,-299.5 534.5,-280.5 439.5,-280.5"/>
<text text-anchor="middle" x="487" y="-287.5" font-family="Helvetica,sans-Serif" font-size="10.00">OgreSubsystem.h</text>
</a>
</g>
</g>
<!-- Node1&#45;&gt;Node43 -->
<g id="edge55" class="edge"><title>Node1&#45;&gt;Node43</title>
<path fill="none" stroke="midnightblue" d="M662.883,-336.444C626.882,-327.142 569.23,-312.246 529.814,-302.062"/>
<polygon fill="midnightblue" stroke="midnightblue" points="530.519,-298.629 519.962,-299.516 528.768,-305.407 530.519,-298.629"/>
</g>
<!-- Node45 -->
<g id="node45" class="node"><title>Node45</title>
<g id="a_node45"><a xlink:href="_overlay_wrapper_8h.html" target="_top" xlink:title="OverlayWrapper.h">
<polygon fill="white" stroke="black" points="1176.5,-168.5 1176.5,-187.5 1271.5,-187.5 1271.5,-168.5 1176.5,-168.5"/>
<text text-anchor="middle" x="1224" y="-175.5" font-family="Helvetica,sans-Serif" font-size="10.00">OverlayWrapper.h</text>
</a>
</g>
</g>
<!-- Node1&#45;&gt;Node45 -->
<g id="edge58" class="edge"><title>Node1&#45;&gt;Node45</title>
<path fill="none" stroke="midnightblue" d="M723.276,-336.425C811.166,-308.792 1087.05,-222.057 1187.2,-190.568"/>
<polygon fill="midnightblue" stroke="midnightblue" points="1188.4,-193.862 1196.89,-187.524 1186.3,-187.184 1188.4,-193.862"/>
</g>
<!-- Node47 -->
<g id="node47" class="node"><title>Node47</title>
<g id="a_node47"><a xlink:href="_scene_mouse_8h.html" target="_top" xlink:title="Mouse interaction with 3D scene. ">
<polygon fill="white" stroke="black" points="728,-224.5 728,-243.5 810,-243.5 810,-224.5 728,-224.5"/>
<text text-anchor="middle" x="769" y="-231.5" font-family="Helvetica,sans-Serif" font-size="10.00">SceneMouse.h</text>
</a>
</g>
</g>
<!-- Node1&#45;&gt;Node47 -->
<g id="edge62" class="edge"><title>Node1&#45;&gt;Node47</title>
<path fill="none" stroke="midnightblue" d="M709.812,-336.245C721.527,-328.157 737.98,-315.13 748,-300 757.311,-285.942 762.757,-267.448 765.759,-253.783"/>
<polygon fill="midnightblue" stroke="midnightblue" points="769.258,-254.128 767.738,-243.643 762.387,-252.788 769.258,-254.128"/>
</g>
<!-- Node3 -->
<g id="node3" class="node"><title>Node3</title>
<g id="a_node3"><a xlink:href="_ro_r_prerequisites_8h.html" target="_top" xlink:title="RoRPrerequisites.h">
<polygon fill="white" stroke="black" points="667,-112.5 667,-131.5 769,-131.5 769,-112.5 667,-112.5"/>
<text text-anchor="middle" x="718" y="-119.5" font-family="Helvetica,sans-Serif" font-size="10.00">RoRPrerequisites.h</text>
</a>
</g>
</g>
<!-- Node2&#45;&gt;Node3 -->
<g id="edge2" class="edge"><title>Node2&#45;&gt;Node3</title>
<path fill="none" stroke="midnightblue" d="M599.111,-280.461C601.091,-267.496 606.093,-242.409 617,-224 638.297,-188.057 675.306,-155.679 698.123,-137.741"/>
<polygon fill="midnightblue" stroke="midnightblue" points="700.319,-140.467 706.111,-131.595 696.051,-134.919 700.319,-140.467"/>
</g>
<!-- Node21 -->
<g id="node21" class="node"><title>Node21</title>
<g id="a_node21"><a xlink:href="_settings_8h.html" target="_top" xlink:title="Settings.h">
<polygon fill="white" stroke="black" points="508.5,-224.5 508.5,-243.5 569.5,-243.5 569.5,-224.5 508.5,-224.5"/>
<text text-anchor="middle" x="539" y="-231.5" font-family="Helvetica,sans-Serif" font-size="10.00">Settings.h</text>
</a>
</g>
</g>
<!-- Node2&#45;&gt;Node21 -->
<g id="edge21" class="edge"><title>Node2&#45;&gt;Node21</title>
<path fill="none" stroke="midnightblue" d="M588.521,-280.324C579.799,-272.341 566.657,-260.313 556.102,-250.653"/>
<polygon fill="midnightblue" stroke="midnightblue" points="558.392,-248.004 548.652,-243.834 553.666,-253.167 558.392,-248.004"/>
</g>
<!-- Node4 -->
<g id="node4" class="node"><title>Node4</title>
<polygon fill="white" stroke="#bfbfbf" points="712.5,-56.5 712.5,-75.5 815.5,-75.5 815.5,-56.5 712.5,-56.5"/>
<text text-anchor="middle" x="764" y="-63.5" font-family="Helvetica,sans-Serif" font-size="10.00">OgrePrerequisites.h</text>
</g>
<!-- Node3&#45;&gt;Node4 -->
<g id="edge3" class="edge"><title>Node3&#45;&gt;Node4</title>
<path fill="none" stroke="midnightblue" d="M725.596,-112.083C732.227,-104.298 742.021,-92.8015 750.058,-83.3665"/>
<polygon fill="midnightblue" stroke="midnightblue" points="752.725,-85.6332 756.545,-75.7511 747.396,-81.0939 752.725,-85.6332"/>
</g>
<!-- Node5 -->
<g id="node5" class="node"><title>Node5</title>
<polygon fill="white" stroke="#bfbfbf" points="833.5,-56.5 833.5,-75.5 948.5,-75.5 948.5,-56.5 833.5,-56.5"/>
<text text-anchor="middle" x="891" y="-63.5" font-family="Helvetica,sans-Serif" font-size="10.00">OgreAxisAlignedBox.h</text>
</g>
<!-- Node3&#45;&gt;Node5 -->
<g id="edge4" class="edge"><title>Node3&#45;&gt;Node5</title>
<path fill="none" stroke="midnightblue" d="M745.412,-112.444C774.769,-103.28 821.519,-88.6876 854.096,-78.5192"/>
<polygon fill="midnightblue" stroke="midnightblue" points="855.213,-81.8371 863.716,-75.5164 853.127,-75.1551 855.213,-81.8371"/>
</g>
<!-- Node6 -->
<g id="node6" class="node"><title>Node6</title>
<polygon fill="white" stroke="#bfbfbf" points="966.5,-56.5 966.5,-75.5 1065.5,-75.5 1065.5,-56.5 966.5,-56.5"/>
<text text-anchor="middle" x="1016" y="-63.5" font-family="Helvetica,sans-Serif" font-size="10.00">OgreColourValue.h</text>
</g>
<!-- Node3&#45;&gt;Node6 -->
<g id="edge5" class="edge"><title>Node3&#45;&gt;Node6</title>
<path fill="none" stroke="midnightblue" d="M765.219,-112.444C817.749,-102.925 902.61,-87.5472 958.848,-77.3563"/>
<polygon fill="midnightblue" stroke="midnightblue" points="959.786,-80.7435 969.002,-75.5164 958.538,-73.8556 959.786,-80.7435"/>
</g>
<!-- Node7 -->
<g id="node7" class="node"><title>Node7</title>
<polygon fill="white" stroke="#bfbfbf" points="1083.5,-56.5 1083.5,-75.5 1186.5,-75.5 1186.5,-56.5 1083.5,-56.5"/>
<text text-anchor="middle" x="1135" y="-63.5" font-family="Helvetica,sans-Serif" font-size="10.00">OgreHeaderPrefix.h</text>
</g>
<!-- Node3&#45;&gt;Node7 -->
<g id="edge6" class="edge"><title>Node3&#45;&gt;Node7</title>
<path fill="none" stroke="midnightblue" d="M769.038,-114.886C836.245,-106.76 958.36,-91.738 1073.39,-76.0585"/>
<polygon fill="midnightblue" stroke="midnightblue" points="1073.99,-79.5085 1083.43,-74.6861 1073.04,-72.5731 1073.99,-79.5085"/>
</g>
<!-- Node8 -->
<g id="node8" class="node"><title>Node8</title>
<polygon fill="white" stroke="#bfbfbf" points="1204.5,-56.5 1204.5,-75.5 1303.5,-75.5 1303.5,-56.5 1204.5,-56.5"/>
<text text-anchor="middle" x="1254" y="-63.5" font-family="Helvetica,sans-Serif" font-size="10.00">OgreLogManager.h</text>
</g>
<!-- Node3&#45;&gt;Node8 -->
<g id="edge7" class="edge"><title>Node3&#45;&gt;Node8</title>
<path fill="none" stroke="midnightblue" d="M769.282,-117.132C854.977,-110.456 1032.92,-95.688 1194.34,-76.0109"/>
<polygon fill="midnightblue" stroke="midnightblue" points="1194.96,-79.4615 1204.45,-74.7685 1194.1,-72.5137 1194.96,-79.4615"/>
</g>
<!-- Node9 -->
<g id="node9" class="node"><title>Node9</title>
<polygon fill="white" stroke="#bfbfbf" points="1321.5,-56.5 1321.5,-75.5 1414.5,-75.5 1414.5,-56.5 1321.5,-56.5"/>
<text text-anchor="middle" x="1368" y="-63.5" font-family="Helvetica,sans-Serif" font-size="10.00">OgreQuaternion.h</text>
</g>
<!-- Node3&#45;&gt;Node9 -->
<g id="edge8" class="edge"><title>Node3&#45;&gt;Node9</title>
<path fill="none" stroke="midnightblue" d="M769.388,-118.559C870.859,-113.424 1104.3,-100.048 1311.15,-75.9971"/>
<polygon fill="midnightblue" stroke="midnightblue" points="1311.77,-79.4488 1321.29,-74.8069 1310.95,-72.4965 1311.77,-79.4488"/>
</g>
<!-- Node10 -->
<g id="node10" class="node"><title>Node10</title>
<polygon fill="white" stroke="#bfbfbf" points="1432.5,-56.5 1432.5,-75.5 1503.5,-75.5 1503.5,-56.5 1432.5,-56.5"/>
<text text-anchor="middle" x="1468" y="-63.5" font-family="Helvetica,sans-Serif" font-size="10.00">OgreString.h</text>
</g>
<!-- Node3&#45;&gt;Node10 -->
<g id="edge9" class="edge"><title>Node3&#45;&gt;Node10</title>
<path fill="none" stroke="midnightblue" d="M769.097,-120.077C884.032,-117.496 1171.77,-108.225 1422.19,-75.9138"/>
<polygon fill="midnightblue" stroke="midnightblue" points="1422.75,-79.3714 1432.21,-74.6064 1421.84,-72.4303 1422.75,-79.3714"/>
</g>
<!-- Node11 -->
<g id="node11" class="node"><title>Node11</title>
<polygon fill="white" stroke="#bfbfbf" points="1522,-56.5 1522,-75.5 1636,-75.5 1636,-56.5 1522,-56.5"/>
<text text-anchor="middle" x="1579" y="-63.5" font-family="Helvetica,sans-Serif" font-size="10.00">OgreStringConverter.h</text>
</g>
<!-- Node3&#45;&gt;Node11 -->
<g id="edge10" class="edge"><title>Node3&#45;&gt;Node11</title>
<path fill="none" stroke="midnightblue" d="M769.193,-119.464C894.069,-115.423 1224.44,-102.969 1511.46,-75.9654"/>
<polygon fill="midnightblue" stroke="midnightblue" points="1512.03,-79.4274 1521.65,-74.9987 1511.37,-72.4587 1512.03,-79.4274"/>
</g>
<!-- Node12 -->
<g id="node12" class="node"><title>Node12</title>
<polygon fill="white" stroke="#bfbfbf" points="1721.5,-56.5 1721.5,-75.5 1812.5,-75.5 1812.5,-56.5 1721.5,-56.5"/>
<text text-anchor="middle" x="1767" y="-63.5" font-family="Helvetica,sans-Serif" font-size="10.00">OgreUTFString.h</text>
</g>
<!-- Node3&#45;&gt;Node12 -->
<g id="edge11" class="edge"><title>Node3&#45;&gt;Node12</title>
<path fill="none" stroke="midnightblue" d="M769.023,-118.974C909.043,-113.317 1311.08,-96.4181 1645,-76 1666.58,-74.6804 1690.29,-72.9871 1711.02,-71.426"/>
<polygon fill="midnightblue" stroke="midnightblue" points="1711.54,-74.8965 1721.25,-70.6485 1711.01,-67.9166 1711.54,-74.8965"/>
</g>
<!-- Node13 -->
<g id="node13" class="node"><title>Node13</title>
<polygon fill="white" stroke="#bfbfbf" points="79,-56.5 79,-75.5 159,-75.5 159,-56.5 79,-56.5"/>
<text text-anchor="middle" x="119" y="-63.5" font-family="Helvetica,sans-Serif" font-size="10.00">OgreVector2.h</text>
</g>
<!-- Node3&#45;&gt;Node13 -->
<g id="edge12" class="edge"><title>Node3&#45;&gt;Node13</title>
<path fill="none" stroke="midnightblue" d="M666.635,-118.516C570.835,-113.509 358.237,-100.64 169.184,-76.0275"/>
<polygon fill="midnightblue" stroke="midnightblue" points="169.431,-72.5299 159.06,-74.6951 168.517,-79.47 169.431,-72.5299"/>
</g>
<!-- Node14 -->
<g id="node14" class="node"><title>Node14</title>
<polygon fill="white" stroke="#bfbfbf" points="177,-56.5 177,-75.5 257,-75.5 257,-56.5 177,-56.5"/>
<text text-anchor="middle" x="217" y="-63.5" font-family="Helvetica,sans-Serif" font-size="10.00">OgreVector3.h</text>
</g>
<!-- Node3&#45;&gt;Node14 -->
<g id="edge13" class="edge"><title>Node3&#45;&gt;Node14</title>
<path fill="none" stroke="midnightblue" d="M666.927,-116.943C583.771,-110.094 414.024,-95.0974 271,-76 269.728,-75.8302 268.44,-75.6532 267.142,-75.4704"/>
<polygon fill="midnightblue" stroke="midnightblue" points="267.467,-71.9804 257.061,-73.9736 266.439,-78.9045 267.467,-71.9804"/>
</g>
<!-- Node15 -->
<g id="node15" class="node"><title>Node15</title>
<g id="a_node15"><a xlink:href="_forward_declarations_8h.html" target="_top" xlink:title="Global forward declarations. ">
<polygon fill="white" stroke="black" points="268.5,-0.5 268.5,-19.5 383.5,-19.5 383.5,-0.5 268.5,-0.5"/>
<text text-anchor="middle" x="326" y="-7.5" font-family="Helvetica,sans-Serif" font-size="10.00">ForwardDeclarations.h</text>
</a>
</g>
</g>
<!-- Node3&#45;&gt;Node15 -->
<g id="edge14" class="edge"><title>Node3&#45;&gt;Node15</title>
<path fill="none" stroke="midnightblue" d="M666.759,-119.187C561.303,-114.927 327.839,-102.571 304,-76 291.877,-62.4879 301.98,-42.0328 312.145,-27.6869"/>
<polygon fill="midnightblue" stroke="midnightblue" points="314.989,-29.73 318.284,-19.6607 309.429,-25.4771 314.989,-29.73"/>
</g>
<!-- Node16 -->
<g id="node16" class="node"><title>Node16</title>
<g id="a_node16"><a xlink:href="_global_environment_8h.html" target="_top" xlink:title="GlobalEnvironment.h">
<polygon fill="white" stroke="black" points="313.5,-56.5 313.5,-75.5 420.5,-75.5 420.5,-56.5 313.5,-56.5"/>
<text text-anchor="middle" x="367" y="-63.5" font-family="Helvetica,sans-Serif" font-size="10.00">GlobalEnvironment.h</text>
</a>
</g>
</g>
<!-- Node3&#45;&gt;Node16 -->
<g id="edge15" class="edge"><title>Node3&#45;&gt;Node16</title>
<path fill="none" stroke="midnightblue" d="M666.962,-113.148C604.478,-103.535 498.627,-87.2504 430.823,-76.8189"/>
<polygon fill="midnightblue" stroke="midnightblue" points="431.108,-73.3217 420.692,-75.2603 430.044,-80.2403 431.108,-73.3217"/>
</g>
<!-- Node17 -->
<g id="node17" class="node"><title>Node17</title>
<g id="a_node17"><a xlink:href="_zeroed_memory_allocator_8h.html" target="_top" xlink:title="ZeroedMemoryAllocator.h">
<polygon fill="white" stroke="black" points="439,-56.5 439,-75.5 567,-75.5 567,-56.5 439,-56.5"/>
<text text-anchor="middle" x="503" y="-63.5" font-family="Helvetica,sans-Serif" font-size="10.00">ZeroedMemoryAllocator.h</text>
</a>
</g>
</g>
<!-- Node3&#45;&gt;Node17 -->
<g id="edge17" class="edge"><title>Node3&#45;&gt;Node17</title>
<path fill="none" stroke="midnightblue" d="M683.933,-112.444C646.82,-103.122 587.339,-88.1828 546.785,-77.9972"/>
<polygon fill="midnightblue" stroke="midnightblue" points="547.459,-74.5579 536.908,-75.5164 545.754,-81.347 547.459,-74.5579"/>
</g>
<!-- Node18 -->
<g id="node18" class="node"><title>Node18</title>
<g id="a_node18"><a xlink:href="_bit_flags_8h.html" target="_top" xlink:title="BitFlags.h">
<polygon fill="white" stroke="black" points="-0.5,-56.5 -0.5,-75.5 60.5,-75.5 60.5,-56.5 -0.5,-56.5"/>
<text text-anchor="middle" x="30" y="-63.5" font-family="Helvetica,sans-Serif" font-size="10.00">BitFlags.h</text>
</a>
</g>
</g>
<!-- Node3&#45;&gt;Node18 -->
<g id="edge18" class="edge"><title>Node3&#45;&gt;Node18</title>
<path fill="none" stroke="midnightblue" d="M666.891,-120.087C558.682,-117.585 298.426,-108.564 71.0407,-75.9169"/>
<polygon fill="midnightblue" stroke="midnightblue" points="71.3217,-72.421 60.9221,-74.4452 70.3142,-79.3481 71.3217,-72.421"/>
</g>
<!-- Node20 -->
<g id="node20" class="node"><title>Node20</title>
<polygon fill="white" stroke="#bfbfbf" points="585.5,-56.5 585.5,-75.5 694.5,-75.5 694.5,-56.5 585.5,-56.5"/>
<text text-anchor="middle" x="640" y="-63.5" font-family="Helvetica,sans-Serif" font-size="10.00">MyGUI_Prerequest.h</text>
</g>
<!-- Node3&#45;&gt;Node20 -->
<g id="edge20" class="edge"><title>Node3&#45;&gt;Node20</title>
<path fill="none" stroke="midnightblue" d="M705.468,-112.324C693.414,-103.979 674.973,-91.2122 660.731,-81.3524"/>
<polygon fill="midnightblue" stroke="midnightblue" points="662.715,-78.469 652.501,-75.6545 658.731,-84.2243 662.715,-78.469"/>
</g>
<!-- Node16&#45;&gt;Node15 -->
<g id="edge16" class="edge"><title>Node16&#45;&gt;Node15</title>
<path fill="none" stroke="midnightblue" d="M360.23,-56.083C354.438,-48.4554 345.942,-37.2645 338.862,-27.9408"/>
<polygon fill="midnightblue" stroke="midnightblue" points="341.479,-25.5991 332.644,-19.7511 335.904,-29.8321 341.479,-25.5991"/>
</g>
<!-- Node19 -->
<g id="node19" class="node"><title>Node19</title>
<polygon fill="white" stroke="#bfbfbf" points="7,-0.5 7,-19.5 53,-19.5 53,-0.5 7,-0.5"/>
<text text-anchor="middle" x="30" y="-7.5" font-family="Helvetica,sans-Serif" font-size="10.00">cstdint</text>
</g>
<!-- Node18&#45;&gt;Node19 -->
<g id="edge19" class="edge"><title>Node18&#45;&gt;Node19</title>
<path fill="none" stroke="midnightblue" d="M30,-56.083C30,-49.0059 30,-38.8611 30,-29.9865"/>
<polygon fill="midnightblue" stroke="midnightblue" points="33.5001,-29.751 30,-19.7511 26.5001,-29.7511 33.5001,-29.751"/>
</g>
<!-- Node21&#45;&gt;Node3 -->
<g id="edge22" class="edge"><title>Node21&#45;&gt;Node3</title>
<path fill="none" stroke="midnightblue" d="M542.886,-224.068C549.398,-210.115 563.814,-183.175 584,-168 605.906,-151.532 634.2,-140.868 659.14,-134.079"/>
<polygon fill="midnightblue" stroke="midnightblue" points="660.059,-137.456 668.872,-131.575 658.315,-130.677 660.059,-137.456"/>
</g>
<!-- Node22 -->
<g id="node22" class="node"><title>Node22</title>
<g id="a_node22"><a xlink:href="_singleton_8h.html" target="_top" xlink:title="Singleton.h">
<polygon fill="white" stroke="black" points="466.5,-168.5 466.5,-187.5 531.5,-187.5 531.5,-168.5 466.5,-168.5"/>
<text text-anchor="middle" x="499" y="-175.5" font-family="Helvetica,sans-Serif" font-size="10.00">Singleton.h</text>
</a>
</g>
</g>
<!-- Node21&#45;&gt;Node22 -->
<g id="edge23" class="edge"><title>Node21&#45;&gt;Node22</title>
<path fill="none" stroke="midnightblue" d="M532.395,-224.083C526.745,-216.455 518.455,-205.264 511.549,-195.941"/>
<polygon fill="midnightblue" stroke="midnightblue" points="514.247,-193.703 505.482,-187.751 508.622,-197.87 514.247,-193.703"/>
</g>
<!-- Node22&#45;&gt;Node3 -->
<g id="edge24" class="edge"><title>Node22&#45;&gt;Node3</title>
<path fill="none" stroke="midnightblue" d="M531.787,-168.916C569.376,-159.647 631.205,-144.401 673.214,-134.043"/>
<polygon fill="midnightblue" stroke="midnightblue" points="674.306,-137.379 683.177,-131.587 672.63,-130.582 674.306,-137.379"/>
</g>
<!-- Node24&#45;&gt;Node3 -->
<g id="edge27" class="edge"><title>Node24&#45;&gt;Node3</title>
<path fill="none" stroke="midnightblue" d="M693.845,-280.284C689.235,-260.093 679.719,-208.727 691,-168 693.792,-157.921 699.509,-147.832 704.967,-139.769"/>
<polygon fill="midnightblue" stroke="midnightblue" points="707.825,-141.79 710.849,-131.636 702.153,-137.688 707.825,-141.79"/>
</g>
<!-- Node25 -->
<g id="node25" class="node"><title>Node25</title>
<polygon fill="white" stroke="#bfbfbf" points="626,-224.5 626,-243.5 672,-243.5 672,-224.5 626,-224.5"/>
<text text-anchor="middle" x="649" y="-231.5" font-family="Helvetica,sans-Serif" font-size="10.00">Ogre.h</text>
</g>
<!-- Node24&#45;&gt;Node25 -->
<g id="edge28" class="edge"><title>Node24&#45;&gt;Node25</title>
<path fill="none" stroke="midnightblue" d="M688.239,-280.083C681.463,-272.298 671.457,-260.801 663.245,-251.367"/>
<polygon fill="midnightblue" stroke="midnightblue" points="665.822,-248.996 656.617,-243.751 660.542,-253.592 665.822,-248.996"/>
</g>
<!-- Node26&#45;&gt;Node3 -->
<g id="edge31" class="edge"><title>Node26&#45;&gt;Node3</title>
<path fill="none" stroke="midnightblue" d="M250.416,-224.497C217.994,-213.16 171.204,-191.744 193,-168 223.793,-134.454 524.269,-125.869 656.301,-123.709"/>
<polygon fill="midnightblue" stroke="midnightblue" points="656.704,-127.204 666.648,-123.548 656.594,-120.204 656.704,-127.204"/>
</g>
<!-- Node26&#45;&gt;Node18 -->
<g id="edge30" class="edge"><title>Node26&#45;&gt;Node18</title>
<path fill="none" stroke="midnightblue" d="M256.772,-224.428C237.253,-216.18 207.817,-202.807 184,-188 130.877,-154.973 74.5758,-106.927 47.0983,-82.5037"/>
<polygon fill="midnightblue" stroke="midnightblue" points="49.3154,-79.7909 39.5316,-75.7253 44.6447,-85.0048 49.3154,-79.7909"/>
</g>
<!-- Node26&#45;&gt;Node22 -->
<g id="edge32" class="edge"><title>Node26&#45;&gt;Node22</title>
<path fill="none" stroke="midnightblue" d="M313.018,-224.444C351.922,-214.938 414.738,-199.589 456.446,-189.398"/>
<polygon fill="midnightblue" stroke="midnightblue" points="457.424,-192.762 466.307,-186.988 455.762,-185.962 457.424,-192.762"/>
</g>
<!-- Node27 -->
<g id="node27" class="node"><title>Node27</title>
<polygon fill="white" stroke="#bfbfbf" points="202,-168.5 202,-187.5 354,-187.5 354,-168.5 202,-168.5"/>
<text text-anchor="middle" x="278" y="-175.5" font-family="Helvetica,sans-Serif" font-size="10.00">OgreResourceGroupManager.h</text>
</g>
<!-- Node26&#45;&gt;Node27 -->
<g id="edge33" class="edge"><title>Node26&#45;&gt;Node27</title>
<path fill="none" stroke="midnightblue" d="M278,-224.083C278,-217.006 278,-206.861 278,-197.986"/>
<polygon fill="midnightblue" stroke="midnightblue" points="281.5,-197.751 278,-187.751 274.5,-197.751 281.5,-197.751"/>
</g>
<!-- Node28&#45;&gt;Node3 -->
<g id="edge39" class="edge"><title>Node28&#45;&gt;Node3</title>
<path fill="none" stroke="midnightblue" d="M869.787,-226.756C839.919,-220.631 799.282,-209.039 769,-188 751.198,-175.631 736.641,-155.214 727.702,-140.561"/>
<polygon fill="midnightblue" stroke="midnightblue" points="730.491,-138.394 722.44,-131.507 724.439,-141.912 730.491,-138.394"/>
</g>
<!-- Node29 -->
<g id="node29" class="node"><title>Node29</title>
<g id="a_node29"><a xlink:href="_g_u_i_input_manager_8h.html" target="_top" xlink:title="GUIInputManager.h">
<polygon fill="white" stroke="black" points="1056,-168.5 1056,-187.5 1158,-187.5 1158,-168.5 1056,-168.5"/>
<text text-anchor="middle" x="1107" y="-175.5" font-family="Helvetica,sans-Serif" font-size="10.00">GUIInputManager.h</text>
</a>
</g>
</g>
<!-- Node28&#45;&gt;Node29 -->
<g id="edge35" class="edge"><title>Node28&#45;&gt;Node29</title>
<path fill="none" stroke="midnightblue" d="M941.215,-224.444C974.933,-215.201 1028.8,-200.436 1065.93,-190.257"/>
<polygon fill="midnightblue" stroke="midnightblue" points="1067.21,-193.536 1075.93,-187.516 1065.36,-186.785 1067.21,-193.536"/>
</g>
<!-- Node32 -->
<g id="node32" class="node"><title>Node32</title>
<polygon fill="white" stroke="#bfbfbf" points="1441,-112.5 1441,-131.5 1581,-131.5 1581,-112.5 1441,-112.5"/>
<text text-anchor="middle" x="1511" y="-119.5" font-family="Helvetica,sans-Serif" font-size="10.00">OgreWindowEventUtilities.h</text>
</g>
<!-- Node28&#45;&gt;Node32 -->
<g id="edge40" class="edge"><title>Node28&#45;&gt;Node32</title>
<path fill="none" stroke="midnightblue" d="M950.066,-232.576C1018.96,-230.873 1163.66,-223.013 1280,-188 1299.03,-182.272 1301.31,-174.769 1320,-168 1362.64,-152.557 1412.57,-141.008 1450.69,-133.478"/>
<polygon fill="midnightblue" stroke="midnightblue" points="1451.46,-136.894 1460.61,-131.556 1450.13,-130.021 1451.46,-136.894"/>
</g>
<!-- Node33 -->
<g id="node33" class="node"><title>Node33</title>
<polygon fill="white" stroke="#bfbfbf" points="778,-168.5 778,-187.5 886,-187.5 886,-168.5 778,-168.5"/>
<text text-anchor="middle" x="832" y="-175.5" font-family="Helvetica,sans-Serif" font-size="10.00">OgreFrameListener.h</text>
</g>
<!-- Node28&#45;&gt;Node33 -->
<g id="edge41" class="edge"><title>Node28&#45;&gt;Node33</title>
<path fill="none" stroke="midnightblue" d="M897.468,-224.324C885.414,-215.979 866.973,-203.212 852.731,-193.352"/>
<polygon fill="midnightblue" stroke="midnightblue" points="854.715,-190.469 844.501,-187.655 850.731,-196.224 854.715,-190.469"/>
</g>
<!-- Node34 -->
<g id="node34" class="node"><title>Node34</title>
<polygon fill="white" stroke="#bfbfbf" points="904.5,-168.5 904.5,-187.5 999.5,-187.5 999.5,-168.5 904.5,-168.5"/>
<text text-anchor="middle" x="952" y="-175.5" font-family="Helvetica,sans-Serif" font-size="10.00">MyGUI_UString.h</text>
</g>
<!-- Node28&#45;&gt;Node34 -->
<g id="edge42" class="edge"><title>Node28&#45;&gt;Node34</title>
<path fill="none" stroke="midnightblue" d="M916.935,-224.083C922.929,-216.377 931.752,-205.033 939.048,-195.653"/>
<polygon fill="midnightblue" stroke="midnightblue" points="941.817,-197.793 945.194,-187.751 936.291,-193.496 941.817,-197.793"/>
</g>
<!-- Node29&#45;&gt;Node3 -->
<g id="edge36" class="edge"><title>Node29&#45;&gt;Node3</title>
<path fill="none" stroke="midnightblue" d="M1055.75,-169.885C984.369,-159.977 855.241,-142.051 778.999,-131.468"/>
<polygon fill="midnightblue" stroke="midnightblue" points="779.445,-127.996 769.059,-130.088 778.483,-134.93 779.445,-127.996"/>
</g>
<!-- Node30 -->
<g id="node30" class="node"><title>Node30</title>
<polygon fill="white" stroke="#bfbfbf" points="1011,-112.5 1011,-131.5 1053,-131.5 1053,-112.5 1011,-112.5"/>
<text text-anchor="middle" x="1032" y="-119.5" font-family="Helvetica,sans-Serif" font-size="10.00">OIS.h</text>
</g>
<!-- Node29&#45;&gt;Node30 -->
<g id="edge37" class="edge"><title>Node29&#45;&gt;Node30</title>
<path fill="none" stroke="midnightblue" d="M1094.95,-168.324C1083.54,-160.107 1066.17,-147.602 1052.57,-137.807"/>
<polygon fill="midnightblue" stroke="midnightblue" points="1054.43,-134.837 1044.27,-131.834 1050.34,-140.517 1054.43,-134.837"/>
</g>
<!-- Node31 -->
<g id="node31" class="node"><title>Node31</title>
<polygon fill="white" stroke="#bfbfbf" points="1071.5,-112.5 1071.5,-131.5 1142.5,-131.5 1142.5,-112.5 1071.5,-112.5"/>
<text text-anchor="middle" x="1107" y="-119.5" font-family="Helvetica,sans-Serif" font-size="10.00">OgreTimer.h</text>
</g>
<!-- Node29&#45;&gt;Node31 -->
<g id="edge38" class="edge"><title>Node29&#45;&gt;Node31</title>
<path fill="none" stroke="midnightblue" d="M1107,-168.083C1107,-161.006 1107,-150.861 1107,-141.986"/>
<polygon fill="midnightblue" stroke="midnightblue" points="1110.5,-141.751 1107,-131.751 1103.5,-141.751 1110.5,-141.751"/>
</g>
<!-- Node35&#45;&gt;Node3 -->
<g id="edge44" class="edge"><title>Node35&#45;&gt;Node3</title>
<path fill="none" stroke="midnightblue" d="M1648.14,-232.307C1527.58,-229.836 1161.13,-219.835 1047,-188 1028.24,-182.766 1026.53,-174.015 1008,-168 931.383,-143.128 838.79,-131.813 779.178,-126.797"/>
<polygon fill="midnightblue" stroke="midnightblue" points="779.422,-123.306 769.173,-125.988 778.858,-130.283 779.422,-123.306"/>
</g>
<!-- Node35&#45;&gt;Node12 -->
<g id="edge48" class="edge"><title>Node35&#45;&gt;Node12</title>
<path fill="none" stroke="midnightblue" d="M1725.66,-230.88C1755.48,-226.971 1794.92,-216.351 1815,-188 1838.72,-154.513 1804.64,-107.651 1782.82,-83.2381"/>
<polygon fill="midnightblue" stroke="midnightblue" points="1785.1,-80.5466 1775.73,-75.5978 1779.97,-85.3085 1785.1,-80.5466"/>
</g>
<!-- Node36 -->
<g id="node36" class="node"><title>Node36</title>
<g id="a_node36"><a xlink:href="_ro_r_window_event_utilities_8h.html" target="_top" xlink:title="RoRWindowEventUtilities.h">
<polygon fill="white" stroke="black" points="1548.5,-168.5 1548.5,-187.5 1687.5,-187.5 1687.5,-168.5 1548.5,-168.5"/>
<text text-anchor="middle" x="1618" y="-175.5" font-family="Helvetica,sans-Serif" font-size="10.00">RoRWindowEventUtilities.h</text>
</a>
</g>
</g>
<!-- Node35&#45;&gt;Node36 -->
<g id="edge45" class="edge"><title>Node35&#45;&gt;Node36</title>
<path fill="none" stroke="midnightblue" d="M1675.91,-224.324C1665.51,-216.185 1649.74,-203.839 1637.28,-194.087"/>
<polygon fill="midnightblue" stroke="midnightblue" points="1639.32,-191.241 1629.29,-187.834 1635.01,-196.753 1639.32,-191.241"/>
</g>
<!-- Node37 -->
<g id="node37" class="node"><title>Node37</title>
<polygon fill="white" stroke="#bfbfbf" points="1328.5,-168.5 1328.5,-187.5 1401.5,-187.5 1401.5,-168.5 1328.5,-168.5"/>
<text text-anchor="middle" x="1365" y="-175.5" font-family="Helvetica,sans-Serif" font-size="10.00">OISEvents.h</text>
</g>
<!-- Node35&#45;&gt;Node37 -->
<g id="edge49" class="edge"><title>Node35&#45;&gt;Node37</title>
<path fill="none" stroke="midnightblue" d="M1648.08,-227.051C1596.46,-219.074 1502.27,-204.215 1411.54,-188.049"/>
<polygon fill="midnightblue" stroke="midnightblue" points="1412.1,-184.593 1401.64,-186.277 1410.87,-191.484 1412.1,-184.593"/>
</g>
<!-- Node38 -->
<g id="node38" class="node"><title>Node38</title>
<polygon fill="white" stroke="#bfbfbf" points="1420,-168.5 1420,-187.5 1530,-187.5 1530,-168.5 1420,-168.5"/>
<text text-anchor="middle" x="1475" y="-175.5" font-family="Helvetica,sans-Serif" font-size="10.00">OISForceFeedback.h</text>
</g>
<!-- Node35&#45;&gt;Node38 -->
<g id="edge50" class="edge"><title>Node35&#45;&gt;Node38</title>
<path fill="none" stroke="midnightblue" d="M1653.41,-224.444C1616.81,-215.122 1558.16,-200.183 1518.17,-189.997"/>
<polygon fill="midnightblue" stroke="midnightblue" points="1518.99,-186.593 1508.43,-187.516 1517.26,-193.377 1518.99,-186.593"/>
</g>
<!-- Node39 -->
<g id="node39" class="node"><title>Node39</title>
<polygon fill="white" stroke="#bfbfbf" points="1705.5,-168.5 1705.5,-187.5 1806.5,-187.5 1806.5,-168.5 1705.5,-168.5"/>
<text text-anchor="middle" x="1756" y="-175.5" font-family="Helvetica,sans-Serif" font-size="10.00">OISInputManager.h</text>
</g>
<!-- Node35&#45;&gt;Node39 -->
<g id="edge51" class="edge"><title>Node35&#45;&gt;Node39</title>
<path fill="none" stroke="midnightblue" d="M1698.09,-224.324C1708.49,-216.185 1724.26,-203.839 1736.72,-194.087"/>
<polygon fill="midnightblue" stroke="midnightblue" points="1738.99,-196.753 1744.71,-187.834 1734.68,-191.241 1738.99,-196.753"/>
</g>
<!-- Node40 -->
<g id="node40" class="node"><title>Node40</title>
<polygon fill="white" stroke="#bfbfbf" points="1863,-168.5 1863,-187.5 1943,-187.5 1943,-168.5 1863,-168.5"/>
<text text-anchor="middle" x="1903" y="-175.5" font-family="Helvetica,sans-Serif" font-size="10.00">OISJoyStick.h</text>
</g>
<!-- Node35&#45;&gt;Node40 -->
<g id="edge52" class="edge"><title>Node35&#45;&gt;Node40</title>
<path fill="none" stroke="midnightblue" d="M1721.23,-224.444C1758.51,-215.122 1818.27,-200.183 1859.01,-189.997"/>
<polygon fill="midnightblue" stroke="midnightblue" points="1860.08,-193.337 1868.93,-187.516 1858.38,-186.546 1860.08,-193.337"/>
</g>
<!-- Node41 -->
<g id="node41" class="node"><title>Node41</title>
<polygon fill="white" stroke="#bfbfbf" points="1961.5,-168.5 1961.5,-187.5 2044.5,-187.5 2044.5,-168.5 1961.5,-168.5"/>
<text text-anchor="middle" x="2003" y="-175.5" font-family="Helvetica,sans-Serif" font-size="10.00">OISKeyboard.h</text>
</g>
<!-- Node35&#45;&gt;Node41 -->
<g id="edge53" class="edge"><title>Node35&#45;&gt;Node41</title>
<path fill="none" stroke="midnightblue" d="M1725.63,-226.52C1775.33,-218.167 1864.59,-203.103 1951.25,-188.121"/>
<polygon fill="midnightblue" stroke="midnightblue" points="1952,-191.543 1961.26,-186.389 1950.8,-184.646 1952,-191.543"/>
</g>
<!-- Node42 -->
<g id="node42" class="node"><title>Node42</title>
<polygon fill="white" stroke="#bfbfbf" points="2062.5,-168.5 2062.5,-187.5 2133.5,-187.5 2133.5,-168.5 2062.5,-168.5"/>
<text text-anchor="middle" x="2098" y="-175.5" font-family="Helvetica,sans-Serif" font-size="10.00">OISMouse.h</text>
</g>
<!-- Node35&#45;&gt;Node42 -->
<g id="edge54" class="edge"><title>Node35&#45;&gt;Node42</title>
<path fill="none" stroke="midnightblue" d="M1725.6,-229.217C1790.73,-222.626 1926.76,-207.96 2052.03,-188.045"/>
<polygon fill="midnightblue" stroke="midnightblue" points="2052.86,-191.456 2062.18,-186.416 2051.75,-184.545 2052.86,-191.456"/>
</g>
<!-- Node36&#45;&gt;Node3 -->
<g id="edge46" class="edge"><title>Node36&#45;&gt;Node3</title>
<path fill="none" stroke="midnightblue" d="M1548.24,-168.827C1545.12,-168.533 1542.03,-168.255 1539,-168 1255.84,-144.131 916.629,-130.174 779.749,-125.146"/>
<polygon fill="midnightblue" stroke="midnightblue" points="779.588,-121.638 769.467,-124.771 779.333,-128.633 779.588,-121.638"/>
</g>
<!-- Node36&#45;&gt;Node32 -->
<g id="edge47" class="edge"><title>Node36&#45;&gt;Node32</title>
<path fill="none" stroke="midnightblue" d="M1600.81,-168.324C1583.65,-159.664 1557.05,-146.242 1537.25,-136.249"/>
<polygon fill="midnightblue" stroke="midnightblue" points="1538.65,-133.035 1528.15,-131.655 1535.5,-139.285 1538.65,-133.035"/>
</g>
<!-- Node43&#45;&gt;Node3 -->
<g id="edge56" class="edge"><title>Node43&#45;&gt;Node3</title>
<path fill="none" stroke="midnightblue" d="M452.816,-280.493C434.007,-273.877 412.257,-262.596 401,-244 377.031,-204.406 443.038,-175.234 457,-168 519.805,-135.457 601.377,-125.776 656.481,-123.232"/>
<polygon fill="midnightblue" stroke="midnightblue" points="656.94,-126.716 666.794,-122.824 656.663,-119.722 656.94,-126.716"/>
</g>
<!-- Node44 -->
<g id="node44" class="node"><title>Node44</title>
<polygon fill="white" stroke="#bfbfbf" points="410,-224.5 410,-243.5 490,-243.5 490,-224.5 410,-224.5"/>
<text text-anchor="middle" x="450" y="-231.5" font-family="Helvetica,sans-Serif" font-size="10.00">OgreMaterial.h</text>
</g>
<!-- Node43&#45;&gt;Node44 -->
<g id="edge57" class="edge"><title>Node43&#45;&gt;Node44</title>
<path fill="none" stroke="midnightblue" d="M480.89,-280.083C475.718,-272.534 468.154,-261.495 461.806,-252.23"/>
<polygon fill="midnightblue" stroke="midnightblue" points="464.536,-250.022 455.996,-243.751 458.761,-253.979 464.536,-250.022"/>
</g>
<!-- Node45&#45;&gt;Node3 -->
<g id="edge59" class="edge"><title>Node45&#45;&gt;Node3</title>
<path fill="none" stroke="midnightblue" d="M1176.24,-169.38C1172.77,-168.892 1169.34,-168.426 1166,-168 1028.16,-150.395 865.718,-135.541 779.317,-128.106"/>
<polygon fill="midnightblue" stroke="midnightblue" points="779.426,-124.603 769.164,-127.237 778.828,-131.577 779.426,-124.603"/>
</g>
<!-- Node45&#45;&gt;Node30 -->
<g id="edge61" class="edge"><title>Node45&#45;&gt;Node30</title>
<path fill="none" stroke="midnightblue" d="M1193.11,-168.465C1160.68,-159.481 1108.22,-144.883 1063,-132 1062.9,-131.971 1062.8,-131.942 1062.7,-131.913"/>
<polygon fill="midnightblue" stroke="midnightblue" points="1063.58,-128.526 1053,-129.128 1061.65,-135.254 1063.58,-128.526"/>
</g>
<!-- Node46 -->
<g id="node46" class="node"><title>Node46</title>
<polygon fill="white" stroke="#bfbfbf" points="1160.5,-112.5 1160.5,-131.5 1315.5,-131.5 1315.5,-112.5 1160.5,-112.5"/>
<text text-anchor="middle" x="1238" y="-119.5" font-family="Helvetica,sans-Serif" font-size="10.00">OgreTextAreaOverlayElement.h</text>
</g>
<!-- Node45&#45;&gt;Node46 -->
<g id="edge60" class="edge"><title>Node45&#45;&gt;Node46</title>
<path fill="none" stroke="midnightblue" d="M1226.31,-168.083C1228.17,-160.927 1230.84,-150.635 1233.15,-141.691"/>
<polygon fill="midnightblue" stroke="midnightblue" points="1236.61,-142.309 1235.73,-131.751 1229.83,-140.553 1236.61,-142.309"/>
</g>
<!-- Node47&#45;&gt;Node3 -->
<g id="edge63" class="edge"><title>Node47&#45;&gt;Node3</title>
<path fill="none" stroke="midnightblue" d="M743.839,-224.378C727.581,-217.343 707.707,-205.645 698,-188 689.677,-172.871 697.391,-153.814 705.535,-140.254"/>
<polygon fill="midnightblue" stroke="midnightblue" points="708.484,-142.141 711.05,-131.861 702.633,-138.297 708.484,-142.141"/>
</g>
<!-- Node47&#45;&gt;Node22 -->
<g id="edge64" class="edge"><title>Node47&#45;&gt;Node22</title>
<path fill="none" stroke="midnightblue" d="M727.993,-224.799C677.756,-214.751 593.044,-197.809 541.941,-187.588"/>
<polygon fill="midnightblue" stroke="midnightblue" points="542.372,-184.105 531.879,-185.576 540.999,-190.969 542.372,-184.105"/>
</g>
<!-- Node47&#45;&gt;Node30 -->
<g id="edge65" class="edge"><title>Node47&#45;&gt;Node30</title>
<path fill="none" stroke="midnightblue" d="M765.823,-224.234C761.47,-210.507 755.613,-183.872 769,-168 798.291,-133.271 937.101,-125.343 1000.4,-123.534"/>
<polygon fill="midnightblue" stroke="midnightblue" points="1000.69,-127.028 1010.59,-123.278 1000.51,-120.03 1000.69,-127.028"/>
</g>
</g>
</svg>
