<?xml version="1.0" encoding="UTF-8" standalone="no"?>
<!DOCTYPE svg PUBLIC "-//W3C//DTD SVG 1.1//EN"
 "http://www.w3.org/Graphics/SVG/1.1/DTD/svg11.dtd">
<!-- Generated by graphviz version 2.36.0 (20140111.2315)
 -->
<!-- Title: fast_sqrt Pages: 1 -->
<svg width="526pt" height="66pt"
 viewBox="0.00 0.00 526.00 66.00" xmlns="http://www.w3.org/2000/svg" xmlns:xlink="http://www.w3.org/1999/xlink">
<g id="graph0" class="graph" transform="scale(1 1) rotate(0) translate(4 62)">
<title>fast_sqrt</title>
<polygon fill="white" stroke="none" points="-4,4 -4,-62 522,-62 522,4 -4,4"/>
<!-- Node1 -->
<g id="node1" class="node"><title>Node1</title>
<polygon fill="#bfbfbf" stroke="black" points="0.5,-19.5 0.5,-38.5 55.5,-38.5 55.5,-19.5 0.5,-19.5"/>
<text text-anchor="middle" x="28" y="-26.5" font-family="Helvetica,sans-Serif" font-size="10.00">fast_sqrt</text>
</g>
<!-- Node2 -->
<g id="node2" class="node"><title>Node2</title>
<g id="a_node2"><a xlink:href="_approx_math_8h.html#acef50edb11d98b88532e602f908bc66a" target="_top" xlink:title="fast_length">
<polygon fill="white" stroke="black" points="131.5,-38.5 131.5,-57.5 196.5,-57.5 196.5,-38.5 131.5,-38.5"/>
<text text-anchor="middle" x="164" y="-45.5" font-family="Helvetica,sans-Serif" font-size="10.00">fast_length</text>
</a>
</g>
</g>
<!-- Node1&#45;&gt;Node2 -->
<g id="edge1" class="edge"><title>Node1&#45;&gt;Node2</title>
<path fill="none" stroke="midnightblue" d="M65.7089,-34.205C86.1747,-37.1069 111.417,-40.686 131.061,-43.4713"/>
<polygon fill="midnightblue" stroke="midnightblue" points="66.1872,-30.7379 55.7948,-32.7993 65.2044,-37.6686 66.1872,-30.7379"/>
</g>
<!-- Node5 -->
<g id="node5" class="node"><title>Node5</title>
<g id="a_node5"><a xlink:href="class_beam.html#abc7d00114b5bfae1ff850be8f97a31df" target="_top" xlink:title="Beam::specialGetRotationTo">
<polygon fill="white" stroke="black" points="92.5,-0.5 92.5,-19.5 235.5,-19.5 235.5,-0.5 92.5,-0.5"/>
<text text-anchor="middle" x="164" y="-7.5" font-family="Helvetica,sans-Serif" font-size="10.00">Beam::specialGetRotationTo</text>
</a>
</g>
</g>
<!-- Node1&#45;&gt;Node5 -->
<g id="edge5" class="edge"><title>Node1&#45;&gt;Node5</title>
<path fill="none" stroke="midnightblue" d="M65.8393,-23.7765C75.1515,-22.4561 85.446,-20.9965 95.7485,-19.5357"/>
<polygon fill="midnightblue" stroke="midnightblue" points="65.2044,-20.3314 55.7948,-25.2007 66.1872,-27.2621 65.2044,-20.3314"/>
</g>
<!-- Node3 -->
<g id="node3" class="node"><title>Node3</title>
<g id="a_node3"><a xlink:href="class_slide_node.html#a5ee30c976fd8659e8c953e0c63957ffe" target="_top" xlink:title="SlideNode::getLenTo">
<polygon fill="white" stroke="black" points="410,-38.5 410,-57.5 518,-57.5 518,-38.5 410,-38.5"/>
<text text-anchor="middle" x="464" y="-45.5" font-family="Helvetica,sans-Serif" font-size="10.00">SlideNode::getLenTo</text>
</a>
</g>
</g>
<!-- Node2&#45;&gt;Node3 -->
<g id="edge2" class="edge"><title>Node2&#45;&gt;Node3</title>
<path fill="none" stroke="midnightblue" d="M206.705,-48C259.881,-48 351.877,-48 409.978,-48"/>
<polygon fill="midnightblue" stroke="midnightblue" points="206.609,-44.5001 196.609,-48 206.609,-51.5001 206.609,-44.5001"/>
</g>
<!-- Node4 -->
<g id="node4" class="node"><title>Node4</title>
<g id="a_node4"><a xlink:href="_slide_node_8h.html#a1374c7f675026994ece6f0dfef2009eb" target="_top" xlink:title="nearestPointOnLine">
<polygon fill="white" stroke="black" points="272,-19.5 272,-38.5 374,-38.5 374,-19.5 272,-19.5"/>
<text text-anchor="middle" x="323" y="-26.5" font-family="Helvetica,sans-Serif" font-size="10.00">nearestPointOnLine</text>
</a>
</g>
</g>
<!-- Node2&#45;&gt;Node4 -->
<g id="edge3" class="edge"><title>Node2&#45;&gt;Node4</title>
<path fill="none" stroke="midnightblue" d="M206.796,-42.9419C226.749,-40.5271 250.786,-37.6182 271.73,-35.0836"/>
<polygon fill="midnightblue" stroke="midnightblue" points="206.278,-39.4789 196.771,-44.1551 207.119,-46.4282 206.278,-39.4789"/>
</g>
<!-- Node4&#45;&gt;Node3 -->
<g id="edge4" class="edge"><title>Node4&#45;&gt;Node3</title>
<path fill="none" stroke="midnightblue" d="M384.321,-37.2453C392.735,-38.3955 401.332,-39.5706 409.607,-40.7017"/>
<polygon fill="midnightblue" stroke="midnightblue" points="384.564,-33.7461 374.182,-35.8594 383.616,-40.6816 384.564,-33.7461"/>
</g>
</g>
</svg>
