<?xml version="1.0" encoding="UTF-8" standalone="no"?>
<!DOCTYPE svg PUBLIC "-//W3C//DTD SVG 1.1//EN"
 "http://www.w3.org/Graphics/SVG/1.1/DTD/svg11.dtd">
<!-- Generated by graphviz version 2.36.0 (20140111.2315)
 -->
<!-- Title: source/main/physics/Beam.h Pages: 1 -->
<!--zoomable 488 -->
<svg id="main" version="1.1" xmlns="http://www.w3.org/2000/svg" xmlns:xlink="http://www.w3.org/1999/xlink" xml:space="preserve" onload="init(evt)">
<style type="text/css"><![CDATA[
.edge:hover path { stroke: red; }
.edge:hover polygon { stroke: red; fill: red; }
]]></style>
<script type="text/javascript"><![CDATA[
var edges = document.getElementsByTagName('g');
if (edges && edges.length) {
  for (var i=0;i<edges.length;i++) {
    if (edges[i].id.substr(0,4)=='edge') {
      edges[i].setAttribute('class','edge');
    }
  }
}
]]></script>
        <defs>
                <circle id="rim" cx="0" cy="0" r="7"/>
                <circle id="rim2" cx="0" cy="0" r="3.5"/>
                <g id="zoomPlus">
                        <use xlink:href="#rim" fill="#404040">
                                <set attributeName="fill" to="#808080" begin="zoomplus.mouseover" end="zoomplus.mouseout"/>
                        </use>
                        <path d="M-4,0h8M0,-4v8" fill="none" stroke="white" stroke-width="1.5" pointer-events="none"/>
                </g>
                <g id="zoomMin">
                        <use xlink:href="#rim" fill="#404040">
                                <set attributeName="fill" to="#808080" begin="zoomminus.mouseover" end="zoomminus.mouseout"/>
                        </use>
                        <path d="M-4,0h8" fill="none" stroke="white" stroke-width="1.5" pointer-events="none"/>
                </g>
                <g id="dirArrow">
                        <path fill="none" stroke="white" stroke-width="1.5" d="M0,-3.0v7 M-2.5,-0.5L0,-3.0L2.5,-0.5"/>
                </g>
               <g id="resetDef">
                       <use xlink:href="#rim2" fill="#404040">
                               <set attributeName="fill" to="#808080" begin="reset.mouseover" end="reset.mouseout"/>
                       </use>
               </g>
        </defs>

<script type="text/javascript">
var viewWidth = 2108;
var viewHeight = 488;
var sectionId = 'dynsection-0';
</script>
<script xlink:href="svgpan.js"/>
<svg id="graph" class="graph">
<g id="viewport">
<title>source/main/physics/Beam.h</title>
<polygon fill="white" stroke="none" points="-4,4 -4,-484 2104,-484 2104,4 -4,4"/>
<!-- Node1 -->
<g id="node1" class="node"><title>Node1</title>
<polygon fill="#bfbfbf" stroke="black" points="1273.5,-449 1273.5,-479 1380.5,-479 1380.5,-449 1273.5,-449"/>
<text text-anchor="start" x="1281.5" y="-467" font-family="Helvetica,sans-Serif" font-size="10.00">source/main/physics</text>
<text text-anchor="middle" x="1327" y="-456" font-family="Helvetica,sans-Serif" font-size="10.00">/Beam.h</text>
</g>
<!-- Node2 -->
<g id="node2" class="node"><title>Node2</title>
<g id="a_node2"><a xlink:href="_beam_data_8h.html" target="_top" xlink:title="Core data structures for simulation. ">
<polygon fill="white" stroke="black" points="785.5,-392.5 785.5,-411.5 856.5,-411.5 856.5,-392.5 785.5,-392.5"/>
<text text-anchor="middle" x="821" y="-399.5" font-family="Helvetica,sans-Serif" font-size="10.00">BeamData.h</text>
</a>
</g>
</g>
<!-- Node1&#45;&gt;Node2 -->
<g id="edge1" class="edge"><title>Node1&#45;&gt;Node2</title>
<path fill="none" stroke="midnightblue" d="M1273.33,-456.636C1173.3,-444.775 960.083,-419.492 866.563,-408.403"/>
<polygon fill="midnightblue" stroke="midnightblue" points="866.905,-404.919 856.562,-407.217 866.08,-411.87 866.905,-404.919"/>
</g>
<!-- Node3 -->
<g id="node3" class="node"><title>Node3</title>
<g id="a_node3"><a xlink:href="_ro_r_prerequisites_8h.html" target="_top" xlink:title="RoRPrerequisites.h">
<polygon fill="white" stroke="black" points="812,-112.5 812,-131.5 914,-131.5 914,-112.5 812,-112.5"/>
<text text-anchor="middle" x="863" y="-119.5" font-family="Helvetica,sans-Serif" font-size="10.00">RoRPrerequisites.h</text>
</a>
</g>
</g>
<!-- Node1&#45;&gt;Node3 -->
<g id="edge62" class="edge"><title>Node1&#45;&gt;Node3</title>
<path fill="none" stroke="midnightblue" d="M1306.38,-448.741C1280.66,-429.085 1240,-391.054 1240,-347 1240,-347 1240,-347 1240,-289 1240,-152.691 1031.02,-127.336 924.24,-123.278"/>
<polygon fill="midnightblue" stroke="midnightblue" points="924.346,-119.78 914.236,-122.949 924.116,-126.776 924.346,-119.78"/>
</g>
<!-- Node4 -->
<g id="node4" class="node"><title>Node4</title>
<polygon fill="white" stroke="#bfbfbf" points="-0.5,-56.5 -0.5,-75.5 102.5,-75.5 102.5,-56.5 -0.5,-56.5"/>
<text text-anchor="middle" x="51" y="-63.5" font-family="Helvetica,sans-Serif" font-size="10.00">OgrePrerequisites.h</text>
</g>
<!-- Node1&#45;&gt;Node4 -->
<g id="edge63" class="edge"><title>Node1&#45;&gt;Node4</title>
<path fill="none" stroke="midnightblue" d="M1273.21,-463.241C1047.44,-463.557 188,-457.501 188,-347 188,-347 188,-347 188,-177 188,-125.995 129.551,-94.6906 89.0072,-79.1111"/>
<polygon fill="midnightblue" stroke="midnightblue" points="89.9801,-75.7399 79.3865,-75.5759 87.5657,-82.3103 89.9801,-75.7399"/>
</g>
<!-- Node35 -->
<g id="node35" class="node"><title>Node35</title>
<g id="a_node35"><a xlink:href="_gfx_actor_8h.html" target="_top" xlink:title="Manager for all visuals belonging to a single actor. ">
<polygon fill="white" stroke="black" points="1754,-112.5 1754,-131.5 1818,-131.5 1818,-112.5 1754,-112.5"/>
<text text-anchor="middle" x="1786" y="-119.5" font-family="Helvetica,sans-Serif" font-size="10.00">GfxActor.h</text>
</a>
</g>
</g>
<!-- Node1&#45;&gt;Node35 -->
<g id="edge51" class="edge"><title>Node1&#45;&gt;Node35</title>
<path fill="none" stroke="midnightblue" d="M1316.61,-448.804C1302.22,-427.714 1278,-386.351 1278,-347 1278,-347 1278,-347 1278,-233 1278,-137.974 1621.83,-124.852 1743.76,-123.186"/>
<polygon fill="midnightblue" stroke="midnightblue" points="1743.88,-126.685 1753.84,-123.068 1743.8,-119.685 1743.88,-126.685"/>
</g>
<!-- Node39 -->
<g id="node39" class="node"><title>Node39</title>
<g id="a_node39"><a xlink:href="_per_vehicle_camera_context_8h.html" target="_top" xlink:title="PerVehicleCameraContext.h">
<polygon fill="white" stroke="black" points="1306.5,-392.5 1306.5,-411.5 1447.5,-411.5 1447.5,-392.5 1306.5,-392.5"/>
<text text-anchor="middle" x="1377" y="-399.5" font-family="Helvetica,sans-Serif" font-size="10.00">PerVehicleCameraContext.h</text>
</a>
</g>
</g>
<!-- Node1&#45;&gt;Node39 -->
<g id="edge60" class="edge"><title>Node1&#45;&gt;Node39</title>
<path fill="none" stroke="midnightblue" d="M1338.85,-448.781C1346.19,-439.972 1355.64,-428.626 1363.31,-419.433"/>
<polygon fill="midnightblue" stroke="midnightblue" points="1366.01,-421.653 1369.72,-411.731 1360.63,-417.172 1366.01,-421.653"/>
</g>
<!-- Node40 -->
<g id="node40" class="node"><title>Node40</title>
<g id="a_node40"><a xlink:href="_rig_def___prerequisites_8h.html" target="_top" xlink:title="RigDef_Prerequisites.h">
<polygon fill="white" stroke="black" points="1466,-392.5 1466,-411.5 1584,-411.5 1584,-392.5 1466,-392.5"/>
<text text-anchor="middle" x="1525" y="-399.5" font-family="Helvetica,sans-Serif" font-size="10.00">RigDef_Prerequisites.h</text>
</a>
</g>
</g>
<!-- Node1&#45;&gt;Node40 -->
<g id="edge61" class="edge"><title>Node1&#45;&gt;Node40</title>
<path fill="none" stroke="midnightblue" d="M1373.42,-448.933C1407.97,-438.462 1454.56,-424.345 1486.93,-414.536"/>
<polygon fill="midnightblue" stroke="midnightblue" points="1488.35,-417.762 1496.91,-411.513 1486.32,-411.063 1488.35,-417.762"/>
</g>
<!-- Node41 -->
<g id="node41" class="node"><title>Node41</title>
<polygon fill="white" stroke="#bfbfbf" points="1602.5,-392.5 1602.5,-411.5 1673.5,-411.5 1673.5,-392.5 1602.5,-392.5"/>
<text text-anchor="middle" x="1638" y="-399.5" font-family="Helvetica,sans-Serif" font-size="10.00">OgreTimer.h</text>
</g>
<!-- Node1&#45;&gt;Node41 -->
<g id="edge64" class="edge"><title>Node1&#45;&gt;Node41</title>
<path fill="none" stroke="midnightblue" d="M1380.52,-452.868C1432.05,-443.084 1512.47,-427.738 1591.95,-412.193"/>
<polygon fill="midnightblue" stroke="midnightblue" points="1593,-415.554 1602.14,-410.198 1591.66,-408.685 1593,-415.554"/>
</g>
<!-- Node42 -->
<g id="node42" class="node"><title>Node42</title>
<polygon fill="white" stroke="#bfbfbf" points="1692,-392.5 1692,-411.5 1744,-411.5 1744,-392.5 1692,-392.5"/>
<text text-anchor="middle" x="1718" y="-399.5" font-family="Helvetica,sans-Serif" font-size="10.00">memory</text>
</g>
<!-- Node1&#45;&gt;Node42 -->
<g id="edge65" class="edge"><title>Node1&#45;&gt;Node42</title>
<path fill="none" stroke="midnightblue" d="M1380.51,-457.043C1448.28,-449.115 1568.77,-433.741 1681.86,-411.831"/>
<polygon fill="midnightblue" stroke="midnightblue" points="1682.58,-415.256 1691.72,-409.899 1681.24,-408.386 1682.58,-415.256"/>
</g>
<!-- Node2&#45;&gt;Node3 -->
<g id="edge2" class="edge"><title>Node2&#45;&gt;Node3</title>
<path fill="none" stroke="midnightblue" d="M823.483,-392.139C827.021,-379.6 833.774,-355.98 840,-336 860.612,-269.848 877.97,-256.406 889,-188 890.415,-179.224 891.302,-176.586 889,-168 886.346,-158.103 880.931,-148.131 875.726,-140.099"/>
<polygon fill="midnightblue" stroke="midnightblue" points="878.464,-137.906 869.89,-131.681 872.711,-141.894 878.464,-137.906"/>
</g>
<!-- Node21 -->
<g id="node21" class="node"><title>Node21</title>
<g id="a_node21"><a xlink:href="_ro_rnet_8h.html" target="_top" xlink:title="RoRnet.h">
<polygon fill="white" stroke="black" points="1124.5,-336.5 1124.5,-355.5 1183.5,-355.5 1183.5,-336.5 1124.5,-336.5"/>
<text text-anchor="middle" x="1154" y="-343.5" font-family="Helvetica,sans-Serif" font-size="10.00">RoRnet.h</text>
</a>
</g>
</g>
<!-- Node2&#45;&gt;Node21 -->
<g id="edge21" class="edge"><title>Node2&#45;&gt;Node21</title>
<path fill="none" stroke="midnightblue" d="M856.684,-395.998C911.347,-388.211 1019.05,-372.374 1110,-356 1111.44,-355.741 1112.9,-355.472 1114.38,-355.195"/>
<polygon fill="midnightblue" stroke="midnightblue" points="1115.06,-358.628 1124.21,-353.291 1113.73,-351.756 1115.06,-358.628"/>
</g>
<!-- Node23 -->
<g id="node23" class="node"><title>Node23</title>
<g id="a_node23"><a xlink:href="_slide_node_8h.html" target="_top" xlink:title="SlideNode.h">
<polygon fill="white" stroke="black" points="1045,-224.5 1045,-243.5 1115,-243.5 1115,-224.5 1045,-224.5"/>
<text text-anchor="middle" x="1080" y="-231.5" font-family="Helvetica,sans-Serif" font-size="10.00">SlideNode.h</text>
</a>
</g>
</g>
<!-- Node2&#45;&gt;Node23 -->
<g id="edge24" class="edge"><title>Node2&#45;&gt;Node23</title>
<path fill="none" stroke="midnightblue" d="M856.529,-400.042C919.766,-397.518 1047.87,-388.429 1076,-356 1100.71,-327.521 1092.75,-279.546 1085.78,-253.378"/>
<polygon fill="midnightblue" stroke="midnightblue" points="1089.1,-252.247 1082.95,-243.618 1082.37,-254.197 1089.1,-252.247"/>
</g>
<!-- Node25 -->
<g id="node25" class="node"><title>Node25</title>
<g id="a_node25"><a xlink:href="_beam_constants_8h.html" target="_top" xlink:title="BeamConstants.h">
<polygon fill="white" stroke="black" points="849.5,-336.5 849.5,-355.5 944.5,-355.5 944.5,-336.5 849.5,-336.5"/>
<text text-anchor="middle" x="897" y="-343.5" font-family="Helvetica,sans-Serif" font-size="10.00">BeamConstants.h</text>
</a>
</g>
</g>
<!-- Node2&#45;&gt;Node25 -->
<g id="edge29" class="edge"><title>Node2&#45;&gt;Node25</title>
<path fill="none" stroke="midnightblue" d="M833.211,-392.324C844.776,-384.107 862.375,-371.602 876.161,-361.807"/>
<polygon fill="midnightblue" stroke="midnightblue" points="878.443,-364.479 884.567,-355.834 874.388,-358.773 878.443,-364.479"/>
</g>
<!-- Node26 -->
<g id="node26" class="node"><title>Node26</title>
<g id="a_node26"><a xlink:href="node__t_8h.html" target="_top" xlink:title="datatypes/node_t.h">
<polygon fill="white" stroke="black" points="445,-168.5 445,-187.5 545,-187.5 545,-168.5 445,-168.5"/>
<text text-anchor="middle" x="495" y="-175.5" font-family="Helvetica,sans-Serif" font-size="10.00">datatypes/node_t.h</text>
</a>
</g>
</g>
<!-- Node2&#45;&gt;Node26 -->
<g id="edge30" class="edge"><title>Node2&#45;&gt;Node26</title>
<path fill="none" stroke="midnightblue" d="M785.224,-395.187C753.943,-388.963 708.151,-377.017 673,-356 599.521,-312.066 533.997,-231.333 507.488,-196.147"/>
<polygon fill="midnightblue" stroke="midnightblue" points="510.109,-193.807 501.338,-187.865 504.489,-197.98 510.109,-193.807"/>
</g>
<!-- Node27 -->
<g id="node27" class="node"><title>Node27</title>
<g id="a_node27"><a xlink:href="shock__t_8h.html" target="_top" xlink:title="datatypes/shock_t.h">
<polygon fill="white" stroke="black" points="962.5,-336.5 962.5,-355.5 1067.5,-355.5 1067.5,-336.5 962.5,-336.5"/>
<text text-anchor="middle" x="1015" y="-343.5" font-family="Helvetica,sans-Serif" font-size="10.00">datatypes/shock_t.h</text>
</a>
</g>
</g>
<!-- Node2&#45;&gt;Node27 -->
<g id="edge33" class="edge"><title>Node2&#45;&gt;Node27</title>
<path fill="none" stroke="midnightblue" d="M851.74,-392.444C884.944,-383.201 937.991,-368.436 974.557,-358.257"/>
<polygon fill="midnightblue" stroke="midnightblue" points="975.709,-361.57 984.404,-355.516 973.832,-354.826 975.709,-361.57"/>
</g>
<!-- Node28 -->
<g id="node28" class="node"><title>Node28</title>
<g id="a_node28"><a xlink:href="beam__t_8h.html" target="_top" xlink:title="datatypes/beam_t.h">
<polygon fill="white" stroke="black" points="563.5,-168.5 563.5,-187.5 666.5,-187.5 666.5,-168.5 563.5,-168.5"/>
<text text-anchor="middle" x="615" y="-175.5" font-family="Helvetica,sans-Serif" font-size="10.00">datatypes/beam_t.h</text>
</a>
</g>
</g>
<!-- Node2&#45;&gt;Node28 -->
<g id="edge34" class="edge"><title>Node2&#45;&gt;Node28</title>
<path fill="none" stroke="midnightblue" d="M785.272,-396.163C757.385,-390.706 719.259,-379.332 694,-356 646.267,-311.908 625.596,-233.625 618.319,-197.819"/>
<polygon fill="midnightblue" stroke="midnightblue" points="621.717,-196.953 616.41,-187.784 614.841,-198.262 621.717,-196.953"/>
</g>
<!-- Node29 -->
<g id="node29" class="node"><title>Node29</title>
<g id="a_node29"><a xlink:href="wheel__t_8h.html" target="_top" xlink:title="datatypes/wheel_t.h">
<polygon fill="white" stroke="black" points="323,-168.5 323,-187.5 427,-187.5 427,-168.5 323,-168.5"/>
<text text-anchor="middle" x="375" y="-175.5" font-family="Helvetica,sans-Serif" font-size="10.00">datatypes/wheel_t.h</text>
</a>
</g>
</g>
<!-- Node2&#45;&gt;Node29 -->
<g id="edge37" class="edge"><title>Node2&#45;&gt;Node29</title>
<path fill="none" stroke="midnightblue" d="M785.322,-395.785C748.134,-389.508 688.731,-377.09 641,-356 539.631,-311.21 434.473,-228.526 393.18,-194.375"/>
<polygon fill="midnightblue" stroke="midnightblue" points="395.284,-191.572 385.362,-187.855 390.801,-196.948 395.284,-191.572"/>
</g>
<!-- Node30 -->
<g id="node30" class="node"><title>Node30</title>
<g id="a_node30"><a xlink:href="rig__t_8h.html" target="_top" xlink:title="datatypes/rig_t.h">
<polygon fill="white" stroke="black" points="703.5,-336.5 703.5,-355.5 792.5,-355.5 792.5,-336.5 703.5,-336.5"/>
<text text-anchor="middle" x="748" y="-343.5" font-family="Helvetica,sans-Serif" font-size="10.00">datatypes/rig_t.h</text>
</a>
</g>
</g>
<!-- Node2&#45;&gt;Node30 -->
<g id="edge40" class="edge"><title>Node2&#45;&gt;Node30</title>
<path fill="none" stroke="midnightblue" d="M804.156,-392.324C791.514,-384.263 774.691,-372.077 762.618,-362.369"/>
<polygon fill="midnightblue" stroke="midnightblue" points="764.712,-359.558 754.793,-355.834 760.225,-364.931 764.712,-359.558"/>
</g>
<!-- Node3&#45;&gt;Node4 -->
<g id="edge3" class="edge"><title>Node3&#45;&gt;Node4</title>
<path fill="none" stroke="midnightblue" d="M811.787,-117.997C655.617,-108.831 191.675,-81.5457 113.055,-75.8823"/>
<polygon fill="midnightblue" stroke="midnightblue" points="112.921,-72.3605 102.673,-75.0497 112.361,-79.3381 112.921,-72.3605"/>
</g>
<!-- Node5 -->
<g id="node5" class="node"><title>Node5</title>
<polygon fill="white" stroke="#bfbfbf" points="120.5,-56.5 120.5,-75.5 235.5,-75.5 235.5,-56.5 120.5,-56.5"/>
<text text-anchor="middle" x="178" y="-63.5" font-family="Helvetica,sans-Serif" font-size="10.00">OgreAxisAlignedBox.h</text>
</g>
<!-- Node3&#45;&gt;Node5 -->
<g id="edge4" class="edge"><title>Node3&#45;&gt;Node5</title>
<path fill="none" stroke="midnightblue" d="M811.699,-117.689C687.389,-109.6 371.617,-88.6451 245.726,-76.1045"/>
<polygon fill="midnightblue" stroke="midnightblue" points="245.871,-72.6012 235.567,-75.0673 245.16,-79.565 245.871,-72.6012"/>
</g>
<!-- Node6 -->
<g id="node6" class="node"><title>Node6</title>
<polygon fill="white" stroke="#bfbfbf" points="1437.5,-56.5 1437.5,-75.5 1536.5,-75.5 1536.5,-56.5 1437.5,-56.5"/>
<text text-anchor="middle" x="1487" y="-63.5" font-family="Helvetica,sans-Serif" font-size="10.00">OgreColourValue.h</text>
</g>
<!-- Node3&#45;&gt;Node6 -->
<g id="edge5" class="edge"><title>Node3&#45;&gt;Node6</title>
<path fill="none" stroke="midnightblue" d="M914.15,-118.162C1011.74,-112.479 1231.43,-98.3932 1427.27,-75.9969"/>
<polygon fill="midnightblue" stroke="midnightblue" points="1427.93,-79.4441 1437.46,-74.8211 1427.13,-72.4902 1427.93,-79.4441"/>
</g>
<!-- Node7 -->
<g id="node7" class="node"><title>Node7</title>
<polygon fill="white" stroke="#bfbfbf" points="253.5,-56.5 253.5,-75.5 356.5,-75.5 356.5,-56.5 253.5,-56.5"/>
<text text-anchor="middle" x="305" y="-63.5" font-family="Helvetica,sans-Serif" font-size="10.00">OgreHeaderPrefix.h</text>
</g>
<!-- Node3&#45;&gt;Node7 -->
<g id="edge6" class="edge"><title>Node3&#45;&gt;Node7</title>
<path fill="none" stroke="midnightblue" d="M811.996,-117.386C723.472,-110.896 535.433,-96.1512 366.742,-76.1512"/>
<polygon fill="midnightblue" stroke="midnightblue" points="367.029,-72.6607 356.685,-74.9497 366.199,-79.6113 367.029,-72.6607"/>
</g>
<!-- Node8 -->
<g id="node8" class="node"><title>Node8</title>
<polygon fill="white" stroke="#bfbfbf" points="374.5,-56.5 374.5,-75.5 473.5,-75.5 473.5,-56.5 374.5,-56.5"/>
<text text-anchor="middle" x="424" y="-63.5" font-family="Helvetica,sans-Serif" font-size="10.00">OgreLogManager.h</text>
</g>
<!-- Node3&#45;&gt;Node8 -->
<g id="edge7" class="edge"><title>Node3&#45;&gt;Node8</title>
<path fill="none" stroke="midnightblue" d="M811.776,-115.549C740.487,-107.829 607.069,-92.9042 483.66,-76.1888"/>
<polygon fill="midnightblue" stroke="midnightblue" points="484.037,-72.708 473.657,-74.8269 483.093,-79.644 484.037,-72.708"/>
</g>
<!-- Node9 -->
<g id="node9" class="node"><title>Node9</title>
<polygon fill="white" stroke="#bfbfbf" points="1653.5,-56.5 1653.5,-75.5 1746.5,-75.5 1746.5,-56.5 1653.5,-56.5"/>
<text text-anchor="middle" x="1700" y="-63.5" font-family="Helvetica,sans-Serif" font-size="10.00">OgreQuaternion.h</text>
</g>
<!-- Node3&#45;&gt;Node9 -->
<g id="edge8" class="edge"><title>Node3&#45;&gt;Node9</title>
<path fill="none" stroke="midnightblue" d="M914.321,-119.85C1037.95,-116.69 1362.2,-106.095 1643.32,-75.9509"/>
<polygon fill="midnightblue" stroke="midnightblue" points="1643.73,-79.4264 1653.3,-74.8703 1642.98,-72.467 1643.73,-79.4264"/>
</g>
<!-- Node10 -->
<g id="node10" class="node"><title>Node10</title>
<polygon fill="white" stroke="#bfbfbf" points="491.5,-56.5 491.5,-75.5 562.5,-75.5 562.5,-56.5 491.5,-56.5"/>
<text text-anchor="middle" x="527" y="-63.5" font-family="Helvetica,sans-Serif" font-size="10.00">OgreString.h</text>
</g>
<!-- Node3&#45;&gt;Node10 -->
<g id="edge9" class="edge"><title>Node3&#45;&gt;Node10</title>
<path fill="none" stroke="midnightblue" d="M811.898,-113.792C755.8,-105.724 662.833,-91.8985 572.93,-76.0995"/>
<polygon fill="midnightblue" stroke="midnightblue" points="573.291,-72.6091 562.835,-74.3146 572.072,-79.5022 573.291,-72.6091"/>
</g>
<!-- Node11 -->
<g id="node11" class="node"><title>Node11</title>
<polygon fill="white" stroke="#bfbfbf" points="581,-56.5 581,-75.5 695,-75.5 695,-56.5 581,-56.5"/>
<text text-anchor="middle" x="638" y="-63.5" font-family="Helvetica,sans-Serif" font-size="10.00">OgreStringConverter.h</text>
</g>
<!-- Node3&#45;&gt;Node11 -->
<g id="edge10" class="edge"><title>Node3&#45;&gt;Node11</title>
<path fill="none" stroke="midnightblue" d="M827.348,-112.444C788.344,-103.083 725.734,-88.0561 683.283,-77.868"/>
<polygon fill="midnightblue" stroke="midnightblue" points="684.026,-74.4469 673.485,-75.5164 682.392,-81.2536 684.026,-74.4469"/>
</g>
<!-- Node12 -->
<g id="node12" class="node"><title>Node12</title>
<polygon fill="white" stroke="#bfbfbf" points="713.5,-56.5 713.5,-75.5 804.5,-75.5 804.5,-56.5 713.5,-56.5"/>
<text text-anchor="middle" x="759" y="-63.5" font-family="Helvetica,sans-Serif" font-size="10.00">OgreUTFString.h</text>
</g>
<!-- Node3&#45;&gt;Node12 -->
<g id="edge11" class="edge"><title>Node3&#45;&gt;Node12</title>
<path fill="none" stroke="midnightblue" d="M846.291,-112.324C829.688,-103.703 803.998,-90.3643 784.78,-80.3855"/>
<polygon fill="midnightblue" stroke="midnightblue" points="786.156,-77.1565 775.668,-75.6545 782.93,-83.3689 786.156,-77.1565"/>
</g>
<!-- Node13 -->
<g id="node13" class="node"><title>Node13</title>
<polygon fill="white" stroke="#bfbfbf" points="823,-56.5 823,-75.5 903,-75.5 903,-56.5 823,-56.5"/>
<text text-anchor="middle" x="863" y="-63.5" font-family="Helvetica,sans-Serif" font-size="10.00">OgreVector2.h</text>
</g>
<!-- Node3&#45;&gt;Node13 -->
<g id="edge12" class="edge"><title>Node3&#45;&gt;Node13</title>
<path fill="none" stroke="midnightblue" d="M863,-112.083C863,-105.006 863,-94.8611 863,-85.9865"/>
<polygon fill="midnightblue" stroke="midnightblue" points="866.5,-85.751 863,-75.7511 859.5,-85.7511 866.5,-85.751"/>
</g>
<!-- Node14 -->
<g id="node14" class="node"><title>Node14</title>
<polygon fill="white" stroke="#bfbfbf" points="1555,-56.5 1555,-75.5 1635,-75.5 1635,-56.5 1555,-56.5"/>
<text text-anchor="middle" x="1595" y="-63.5" font-family="Helvetica,sans-Serif" font-size="10.00">OgreVector3.h</text>
</g>
<!-- Node3&#45;&gt;Node14 -->
<g id="edge13" class="edge"><title>Node3&#45;&gt;Node14</title>
<path fill="none" stroke="midnightblue" d="M914.088,-119.588C1027.81,-116.016 1310.33,-104.771 1545,-76 1545.1,-75.9876 1545.2,-75.9751 1545.3,-75.9626"/>
<polygon fill="midnightblue" stroke="midnightblue" points="1545.52,-79.4661 1554.94,-74.6185 1544.56,-72.5332 1545.52,-79.4661"/>
</g>
<!-- Node15 -->
<g id="node15" class="node"><title>Node15</title>
<g id="a_node15"><a xlink:href="_forward_declarations_8h.html" target="_top" xlink:title="Global forward declarations. ">
<polygon fill="white" stroke="black" points="1252.5,-0.5 1252.5,-19.5 1367.5,-19.5 1367.5,-0.5 1252.5,-0.5"/>
<text text-anchor="middle" x="1310" y="-7.5" font-family="Helvetica,sans-Serif" font-size="10.00">ForwardDeclarations.h</text>
</a>
</g>
</g>
<!-- Node3&#45;&gt;Node15 -->
<g id="edge14" class="edge"><title>Node3&#45;&gt;Node15</title>
<path fill="none" stroke="midnightblue" d="M914.056,-119.634C1025.73,-116.12 1283.84,-104.924 1310,-76 1321.1,-63.7281 1319.48,-44.1907 1316.08,-29.7362"/>
<polygon fill="midnightblue" stroke="midnightblue" points="1319.38,-28.557 1313.31,-19.8781 1312.64,-30.4523 1319.38,-28.557"/>
</g>
<!-- Node16 -->
<g id="node16" class="node"><title>Node16</title>
<g id="a_node16"><a xlink:href="_global_environment_8h.html" target="_top" xlink:title="GlobalEnvironment.h">
<polygon fill="white" stroke="black" points="1194.5,-56.5 1194.5,-75.5 1301.5,-75.5 1301.5,-56.5 1194.5,-56.5"/>
<text text-anchor="middle" x="1248" y="-63.5" font-family="Helvetica,sans-Serif" font-size="10.00">GlobalEnvironment.h</text>
</a>
</g>
</g>
<!-- Node3&#45;&gt;Node16 -->
<g id="edge15" class="edge"><title>Node3&#45;&gt;Node16</title>
<path fill="none" stroke="midnightblue" d="M914.035,-113.917C975.49,-105.376 1082.13,-90.521 1184.21,-76.1086"/>
<polygon fill="midnightblue" stroke="midnightblue" points="1184.97,-79.535 1194.39,-74.6706 1183.99,-72.6038 1184.97,-79.535"/>
</g>
<!-- Node17 -->
<g id="node17" class="node"><title>Node17</title>
<g id="a_node17"><a xlink:href="_zeroed_memory_allocator_8h.html" target="_top" xlink:title="ZeroedMemoryAllocator.h">
<polygon fill="white" stroke="black" points="921,-56.5 921,-75.5 1049,-75.5 1049,-56.5 921,-56.5"/>
<text text-anchor="middle" x="985" y="-63.5" font-family="Helvetica,sans-Serif" font-size="10.00">ZeroedMemoryAllocator.h</text>
</a>
</g>
</g>
<!-- Node3&#45;&gt;Node17 -->
<g id="edge17" class="edge"><title>Node3&#45;&gt;Node17</title>
<path fill="none" stroke="midnightblue" d="M882.331,-112.444C902.32,-103.596 933.743,-89.6875 956.564,-79.5865"/>
<polygon fill="midnightblue" stroke="midnightblue" points="958.032,-82.7645 965.759,-75.5164 955.198,-76.3635 958.032,-82.7645"/>
</g>
<!-- Node18 -->
<g id="node18" class="node"><title>Node18</title>
<g id="a_node18"><a xlink:href="_bit_flags_8h.html" target="_top" xlink:title="BitFlags.h">
<polygon fill="white" stroke="black" points="1358.5,-56.5 1358.5,-75.5 1419.5,-75.5 1419.5,-56.5 1358.5,-56.5"/>
<text text-anchor="middle" x="1389" y="-63.5" font-family="Helvetica,sans-Serif" font-size="10.00">BitFlags.h</text>
</a>
</g>
</g>
<!-- Node3&#45;&gt;Node18 -->
<g id="edge18" class="edge"><title>Node3&#45;&gt;Node18</title>
<path fill="none" stroke="midnightblue" d="M914.111,-117.973C1002.21,-112.365 1188.19,-98.806 1344,-76 1345.29,-75.8118 1346.59,-75.611 1347.91,-75.4"/>
<polygon fill="midnightblue" stroke="midnightblue" points="1348.84,-78.7902 1358.09,-73.6224 1347.64,-71.8945 1348.84,-78.7902"/>
</g>
<!-- Node20 -->
<g id="node20" class="node"><title>Node20</title>
<polygon fill="white" stroke="#bfbfbf" points="1067.5,-56.5 1067.5,-75.5 1176.5,-75.5 1176.5,-56.5 1067.5,-56.5"/>
<text text-anchor="middle" x="1122" y="-63.5" font-family="Helvetica,sans-Serif" font-size="10.00">MyGUI_Prerequest.h</text>
</g>
<!-- Node3&#45;&gt;Node20 -->
<g id="edge20" class="edge"><title>Node3&#45;&gt;Node20</title>
<path fill="none" stroke="midnightblue" d="M904.039,-112.444C949.316,-103.004 1022.23,-87.802 1071.11,-77.6111"/>
<polygon fill="midnightblue" stroke="midnightblue" points="1072.08,-80.9839 1081.15,-75.5164 1070.65,-74.1312 1072.08,-80.9839"/>
</g>
<!-- Node16&#45;&gt;Node15 -->
<g id="edge16" class="edge"><title>Node16&#45;&gt;Node15</title>
<path fill="none" stroke="midnightblue" d="M1257.96,-56.324C1267.13,-48.3414 1280.94,-36.3128 1292.03,-26.6529"/>
<polygon fill="midnightblue" stroke="midnightblue" points="1294.62,-29.041 1299.86,-19.8339 1290.02,-23.7624 1294.62,-29.041"/>
</g>
<!-- Node19 -->
<g id="node19" class="node"><title>Node19</title>
<polygon fill="white" stroke="#bfbfbf" points="1386,-0.5 1386,-19.5 1432,-19.5 1432,-0.5 1386,-0.5"/>
<text text-anchor="middle" x="1409" y="-7.5" font-family="Helvetica,sans-Serif" font-size="10.00">cstdint</text>
</g>
<!-- Node18&#45;&gt;Node19 -->
<g id="edge19" class="edge"><title>Node18&#45;&gt;Node19</title>
<path fill="none" stroke="midnightblue" d="M1392.3,-56.083C1394.98,-48.8486 1398.85,-38.4087 1402.19,-29.3968"/>
<polygon fill="midnightblue" stroke="midnightblue" points="1405.57,-30.3442 1405.76,-19.7511 1399,-27.9129 1405.57,-30.3442"/>
</g>
<!-- Node21&#45;&gt;Node18 -->
<g id="edge22" class="edge"><title>Node21&#45;&gt;Node18</title>
<path fill="none" stroke="midnightblue" d="M1159.37,-336.374C1165.01,-327.317 1174.13,-312.659 1182,-300 1218.47,-241.347 1218.28,-219.762 1264,-168 1295.56,-132.274 1340.67,-99.2468 1367.19,-81.2297"/>
<polygon fill="midnightblue" stroke="midnightblue" points="1369.38,-83.9756 1375.74,-75.503 1365.48,-78.1593 1369.38,-83.9756"/>
</g>
<!-- Node22 -->
<g id="node22" class="node"><title>Node22</title>
<polygon fill="white" stroke="#bfbfbf" points="1124.5,-280.5 1124.5,-299.5 1173.5,-299.5 1173.5,-280.5 1124.5,-280.5"/>
<text text-anchor="middle" x="1149" y="-287.5" font-family="Helvetica,sans-Serif" font-size="10.00">stdint.h</text>
</g>
<!-- Node21&#45;&gt;Node22 -->
<g id="edge23" class="edge"><title>Node21&#45;&gt;Node22</title>
<path fill="none" stroke="midnightblue" d="M1153.17,-336.083C1152.52,-329.006 1151.58,-318.861 1150.76,-309.986"/>
<polygon fill="midnightblue" stroke="midnightblue" points="1154.22,-309.386 1149.81,-299.751 1147.25,-310.031 1154.22,-309.386"/>
</g>
<!-- Node23&#45;&gt;Node3 -->
<g id="edge27" class="edge"><title>Node23&#45;&gt;Node3</title>
<path fill="none" stroke="midnightblue" d="M1077.81,-224.355C1073.78,-210.302 1063.84,-182.609 1045,-168 1010.53,-141.267 962.267,-130.191 924.103,-125.706"/>
<polygon fill="midnightblue" stroke="midnightblue" points="924.443,-122.222 914.131,-124.655 923.709,-129.184 924.443,-122.222"/>
</g>
<!-- Node23&#45;&gt;Node14 -->
<g id="edge28" class="edge"><title>Node23&#45;&gt;Node14</title>
<path fill="none" stroke="midnightblue" d="M1103.13,-224.467C1137.89,-211.723 1205.75,-187.166 1264,-168 1368.61,-133.581 1493.11,-96.6717 1555.38,-78.4834"/>
<polygon fill="midnightblue" stroke="midnightblue" points="1556.57,-81.7829 1565.19,-75.6235 1554.61,-75.0627 1556.57,-81.7829"/>
</g>
<!-- Node24 -->
<g id="node24" class="node"><title>Node24</title>
<g id="a_node24"><a xlink:href="_approx_math_8h.html" target="_top" xlink:title="ApproxMath.h">
<polygon fill="white" stroke="black" points="959.5,-168.5 959.5,-187.5 1036.5,-187.5 1036.5,-168.5 959.5,-168.5"/>
<text text-anchor="middle" x="998" y="-175.5" font-family="Helvetica,sans-Serif" font-size="10.00">ApproxMath.h</text>
</a>
</g>
</g>
<!-- Node23&#45;&gt;Node24 -->
<g id="edge25" class="edge"><title>Node23&#45;&gt;Node24</title>
<path fill="none" stroke="midnightblue" d="M1066.83,-224.324C1054.15,-215.979 1034.77,-203.212 1019.79,-193.352"/>
<polygon fill="midnightblue" stroke="midnightblue" points="1021.42,-190.231 1011.14,-187.655 1017.57,-196.078 1021.42,-190.231"/>
</g>
<!-- Node24&#45;&gt;Node3 -->
<g id="edge26" class="edge"><title>Node24&#45;&gt;Node3</title>
<path fill="none" stroke="midnightblue" d="M976.609,-168.444C954.293,-159.517 919.097,-145.439 893.792,-135.317"/>
<polygon fill="midnightblue" stroke="midnightblue" points="894.876,-131.981 884.291,-131.516 892.276,-138.48 894.876,-131.981"/>
</g>
<!-- Node26&#45;&gt;Node3 -->
<g id="edge32" class="edge"><title>Node26&#45;&gt;Node3</title>
<path fill="none" stroke="midnightblue" d="M545.209,-169.317C548.183,-168.87 551.13,-168.428 554,-168 639.965,-155.184 739.449,-140.771 801.803,-131.788"/>
<polygon fill="midnightblue" stroke="midnightblue" points="802.463,-135.229 811.862,-130.339 801.466,-128.3 802.463,-135.229"/>
</g>
<!-- Node26&#45;&gt;Node4 -->
<g id="edge31" class="edge"><title>Node26&#45;&gt;Node4</title>
<path fill="none" stroke="midnightblue" d="M462.836,-168.46C414.988,-155.81 322.19,-131.491 243,-112 193.867,-99.9072 137.472,-86.7789 98.5758,-77.8412"/>
<polygon fill="midnightblue" stroke="midnightblue" points="99.1147,-74.374 88.5852,-75.5492 97.5494,-81.1967 99.1147,-74.374"/>
</g>
<!-- Node28&#45;&gt;Node3 -->
<g id="edge36" class="edge"><title>Node28&#45;&gt;Node3</title>
<path fill="none" stroke="midnightblue" d="M654.296,-168.444C697.559,-159.023 767.173,-143.866 813.973,-133.675"/>
<polygon fill="midnightblue" stroke="midnightblue" points="814.861,-137.064 823.888,-131.516 813.372,-130.224 814.861,-137.064"/>
</g>
<!-- Node28&#45;&gt;Node4 -->
<g id="edge35" class="edge"><title>Node28&#45;&gt;Node4</title>
<path fill="none" stroke="midnightblue" d="M574.513,-168.489C513.989,-155.824 396.296,-131.427 296,-112 232.05,-99.6129 158.538,-86.2241 108.855,-77.3005"/>
<polygon fill="midnightblue" stroke="midnightblue" points="109.397,-73.842 98.9365,-75.5216 108.162,-80.7321 109.397,-73.842"/>
</g>
<!-- Node29&#45;&gt;Node3 -->
<g id="edge38" class="edge"><title>Node29&#45;&gt;Node3</title>
<path fill="none" stroke="midnightblue" d="M427.224,-169.149C430.191,-168.749 433.132,-168.362 436,-168 566.095,-151.555 719.022,-136.462 801.974,-128.628"/>
<polygon fill="midnightblue" stroke="midnightblue" points="802.353,-132.108 811.981,-127.686 801.697,-125.139 802.353,-132.108"/>
</g>
<!-- Node29&#45;&gt;Node4 -->
<g id="edge39" class="edge"><title>Node29&#45;&gt;Node4</title>
<path fill="none" stroke="midnightblue" d="M353.597,-168.407C321.085,-155.48 257.194,-130.568 202,-112 164.963,-99.5404 122.242,-86.9739 91.7132,-78.2996"/>
<polygon fill="midnightblue" stroke="midnightblue" points="92.4281,-74.8646 81.8531,-75.5128 90.5242,-81.6007 92.4281,-74.8646"/>
</g>
<!-- Node30&#45;&gt;Node2 -->
<g id="edge48" class="edge"><title>Node30&#45;&gt;Node2</title>
<path fill="none" stroke="midnightblue" d="M764.81,-355.655C777.52,-363.756 794.468,-376.038 806.565,-385.778"/>
<polygon fill="midnightblue" stroke="midnightblue" points="804.471,-388.589 814.386,-392.324 808.964,-383.222 804.471,-388.589"/>
</g>
<!-- Node30&#45;&gt;Node3 -->
<g id="edge47" class="edge"><title>Node30&#45;&gt;Node3</title>
<path fill="none" stroke="midnightblue" d="M746.714,-336.244C743.069,-307.83 735.678,-217.201 781,-168 794.152,-153.723 812.901,-142.967 829.152,-135.557"/>
<polygon fill="midnightblue" stroke="midnightblue" points="830.575,-138.755 838.37,-131.58 827.802,-132.328 830.575,-138.755"/>
</g>
<!-- Node30&#45;&gt;Node4 -->
<g id="edge50" class="edge"><title>Node30&#45;&gt;Node4</title>
<path fill="none" stroke="midnightblue" d="M740.406,-336.281C725.751,-318.523 695,-276.337 695,-235 695,-235 695,-235 695,-177 695,-48.3825 262.311,-92.9878 112.962,-76.0977"/>
<polygon fill="midnightblue" stroke="midnightblue" points="113.075,-72.5832 102.708,-74.7721 112.177,-79.5255 113.075,-72.5832"/>
</g>
<!-- Node31 -->
<g id="node31" class="node"><title>Node31</title>
<g id="a_node31"><a xlink:href="_application_8h.html" target="_top" xlink:title="Central state/object manager and communications hub. ">
<polygon fill="white" stroke="black" points="761.5,-280.5 761.5,-299.5 834.5,-299.5 834.5,-280.5 761.5,-280.5"/>
<text text-anchor="middle" x="798" y="-287.5" font-family="Helvetica,sans-Serif" font-size="10.00">Application.h</text>
</a>
</g>
</g>
<!-- Node30&#45;&gt;Node31 -->
<g id="edge41" class="edge"><title>Node30&#45;&gt;Node31</title>
<path fill="none" stroke="midnightblue" d="M756.256,-336.083C763.465,-328.298 774.11,-316.801 782.846,-307.367"/>
<polygon fill="midnightblue" stroke="midnightblue" points="785.671,-309.467 789.897,-299.751 780.535,-304.711 785.671,-309.467"/>
</g>
<!-- Node34 -->
<g id="node34" class="node"><title>Node34</title>
<polygon fill="white" stroke="#bfbfbf" points="1764,-56.5 1764,-75.5 1808,-75.5 1808,-56.5 1764,-56.5"/>
<text text-anchor="middle" x="1786" y="-63.5" font-family="Helvetica,sans-Serif" font-size="10.00">vector</text>
</g>
<!-- Node30&#45;&gt;Node34 -->
<g id="edge49" class="edge"><title>Node30&#45;&gt;Node34</title>
<path fill="none" stroke="midnightblue" d="M765.819,-336.35C810.443,-314.945 930.955,-258.729 1036,-224 1342.59,-122.639 1435.72,-151.012 1753.76,-76.1116"/>
<polygon fill="midnightblue" stroke="midnightblue" points="1754.8,-79.4633 1763.72,-73.7502 1753.18,-72.6522 1754.8,-79.4633"/>
</g>
<!-- Node31&#45;&gt;Node3 -->
<g id="edge42" class="edge"><title>Node31&#45;&gt;Node3</title>
<path fill="none" stroke="midnightblue" d="M807.68,-280.485C825.029,-264.472 860.748,-227.876 873,-188 877.716,-172.652 874.233,-154.552 870.136,-141.355"/>
<polygon fill="midnightblue" stroke="midnightblue" points="873.325,-139.872 866.717,-131.591 866.719,-142.185 873.325,-139.872"/>
</g>
<!-- Node32 -->
<g id="node32" class="node"><title>Node32</title>
<g id="a_node32"><a xlink:href="_settings_8h.html" target="_top" xlink:title="Settings.h">
<polygon fill="white" stroke="black" points="765.5,-224.5 765.5,-243.5 826.5,-243.5 826.5,-224.5 765.5,-224.5"/>
<text text-anchor="middle" x="796" y="-231.5" font-family="Helvetica,sans-Serif" font-size="10.00">Settings.h</text>
</a>
</g>
</g>
<!-- Node31&#45;&gt;Node32 -->
<g id="edge43" class="edge"><title>Node31&#45;&gt;Node32</title>
<path fill="none" stroke="midnightblue" d="M797.67,-280.083C797.408,-273.006 797.032,-262.861 796.703,-253.986"/>
<polygon fill="midnightblue" stroke="midnightblue" points="800.192,-253.615 796.324,-243.751 793.197,-253.874 800.192,-253.615"/>
</g>
<!-- Node32&#45;&gt;Node3 -->
<g id="edge44" class="edge"><title>Node32&#45;&gt;Node3</title>
<path fill="none" stroke="midnightblue" d="M792.265,-224.361C787.22,-211.265 779.946,-186.009 790,-168 798.156,-153.391 813.22,-142.936 827.554,-135.804"/>
<polygon fill="midnightblue" stroke="midnightblue" points="829.146,-138.924 836.789,-131.586 826.238,-132.557 829.146,-138.924"/>
</g>
<!-- Node33 -->
<g id="node33" class="node"><title>Node33</title>
<g id="a_node33"><a xlink:href="_singleton_8h.html" target="_top" xlink:title="Singleton.h">
<polygon fill="white" stroke="black" points="799.5,-168.5 799.5,-187.5 864.5,-187.5 864.5,-168.5 799.5,-168.5"/>
<text text-anchor="middle" x="832" y="-175.5" font-family="Helvetica,sans-Serif" font-size="10.00">Singleton.h</text>
</a>
</g>
</g>
<!-- Node32&#45;&gt;Node33 -->
<g id="edge45" class="edge"><title>Node32&#45;&gt;Node33</title>
<path fill="none" stroke="midnightblue" d="M801.945,-224.083C806.977,-216.534 814.337,-205.495 820.513,-196.23"/>
<polygon fill="midnightblue" stroke="midnightblue" points="823.531,-198.013 826.166,-187.751 817.707,-194.13 823.531,-198.013"/>
</g>
<!-- Node33&#45;&gt;Node3 -->
<g id="edge46" class="edge"><title>Node33&#45;&gt;Node3</title>
<path fill="none" stroke="midnightblue" d="M837.119,-168.083C841.408,-160.613 847.658,-149.724 852.942,-140.52"/>
<polygon fill="midnightblue" stroke="midnightblue" points="856.033,-142.166 857.976,-131.751 849.962,-138.681 856.033,-142.166"/>
</g>
<!-- Node35&#45;&gt;Node6 -->
<g id="edge53" class="edge"><title>Node35&#45;&gt;Node6</title>
<path fill="none" stroke="midnightblue" d="M1753.72,-115.17C1703.58,-106.115 1606.31,-88.5477 1544.12,-77.3158"/>
<polygon fill="midnightblue" stroke="midnightblue" points="1544.54,-73.8344 1534.07,-75.5014 1543.29,-80.723 1544.54,-73.8344"/>
</g>
<!-- Node35&#45;&gt;Node9 -->
<g id="edge55" class="edge"><title>Node35&#45;&gt;Node9</title>
<path fill="none" stroke="midnightblue" d="M1772.18,-112.324C1758.77,-103.9 1738.18,-90.9709 1722.41,-81.0741"/>
<polygon fill="midnightblue" stroke="midnightblue" points="1724.11,-78.0081 1713.78,-75.6545 1720.39,-83.9364 1724.11,-78.0081"/>
</g>
<!-- Node35&#45;&gt;Node14 -->
<g id="edge57" class="edge"><title>Node35&#45;&gt;Node14</title>
<path fill="none" stroke="midnightblue" d="M1755.74,-112.444C1723.04,-103.201 1670.82,-88.4356 1634.82,-78.2572"/>
<polygon fill="midnightblue" stroke="midnightblue" points="1635.7,-74.8691 1625.12,-75.5164 1633.79,-81.6051 1635.7,-74.8691"/>
</g>
<!-- Node35&#45;&gt;Node15 -->
<g id="edge52" class="edge"><title>Node35&#45;&gt;Node15</title>
<path fill="none" stroke="midnightblue" d="M1795.46,-112.458C1809.22,-99.0395 1831.5,-72.8185 1816,-56 1784.39,-21.6939 1458.43,-24.8578 1377.78,-19.7633"/>
<polygon fill="midnightblue" stroke="midnightblue" points="1377.97,-16.2676 1367.72,-18.9462 1377.4,-23.2446 1377.97,-16.2676"/>
</g>
<!-- Node35&#45;&gt;Node34 -->
<g id="edge59" class="edge"><title>Node35&#45;&gt;Node34</title>
<path fill="none" stroke="midnightblue" d="M1786,-112.083C1786,-105.006 1786,-94.8611 1786,-85.9865"/>
<polygon fill="midnightblue" stroke="midnightblue" points="1789.5,-85.751 1786,-75.7511 1782.5,-85.7511 1789.5,-85.751"/>
</g>
<!-- Node36 -->
<g id="node36" class="node"><title>Node36</title>
<polygon fill="white" stroke="#bfbfbf" points="1864,-56.5 1864,-75.5 1944,-75.5 1944,-56.5 1864,-56.5"/>
<text text-anchor="middle" x="1904" y="-63.5" font-family="Helvetica,sans-Serif" font-size="10.00">OgreMaterial.h</text>
</g>
<!-- Node35&#45;&gt;Node36 -->
<g id="edge54" class="edge"><title>Node35&#45;&gt;Node36</title>
<path fill="none" stroke="midnightblue" d="M1804.7,-112.444C1823.94,-103.636 1854.15,-89.8116 1876.2,-79.722"/>
<polygon fill="midnightblue" stroke="midnightblue" points="1877.75,-82.8603 1885.39,-75.5164 1874.84,-76.4951 1877.75,-82.8603"/>
</g>
<!-- Node37 -->
<g id="node37" class="node"><title>Node37</title>
<polygon fill="white" stroke="#bfbfbf" points="1962.5,-56.5 1962.5,-75.5 2041.5,-75.5 2041.5,-56.5 1962.5,-56.5"/>
<text text-anchor="middle" x="2002" y="-63.5" font-family="Helvetica,sans-Serif" font-size="10.00">OgreTexture.h</text>
</g>
<!-- Node35&#45;&gt;Node37 -->
<g id="edge56" class="edge"><title>Node35&#45;&gt;Node37</title>
<path fill="none" stroke="midnightblue" d="M1818.34,-112.916C1855.41,-103.647 1916.39,-88.4015 1957.83,-78.043"/>
<polygon fill="midnightblue" stroke="midnightblue" points="1958.8,-81.4075 1967.65,-75.5865 1957.1,-74.6165 1958.8,-81.4075"/>
</g>
<!-- Node38 -->
<g id="node38" class="node"><title>Node38</title>
<polygon fill="white" stroke="#bfbfbf" points="2059.5,-56.5 2059.5,-75.5 2100.5,-75.5 2100.5,-56.5 2059.5,-56.5"/>
<text text-anchor="middle" x="2080" y="-63.5" font-family="Helvetica,sans-Serif" font-size="10.00">string</text>
</g>
<!-- Node35&#45;&gt;Node38 -->
<g id="edge58" class="edge"><title>Node35&#45;&gt;Node38</title>
<path fill="none" stroke="midnightblue" d="M1818.36,-116.788C1866.58,-110.23 1960.3,-96.4032 2049.43,-75.8698"/>
<polygon fill="midnightblue" stroke="midnightblue" points="2050.49,-79.2161 2059.43,-73.5323 2048.9,-72.3998 2050.49,-79.2161"/>
</g>
</g>
</svg>
        <g id="navigator" transform="translate(0 0)" fill="#404254">
                <rect fill="#f2f5e9" fill-opacity="0.5" stroke="#606060" stroke-width=".5" x="0" y="0" width="60" height="60"/>
                <use id="zoomplus" xlink:href="#zoomPlus" x="17" y="9" onmousedown="handleZoom(evt,'in')"/>
                <use id="zoomminus" xlink:href="#zoomMin" x="42" y="9" onmousedown="handleZoom(evt,'out')"/>
                <use id="reset" xlink:href="#resetDef" x="30" y="36" onmousedown="handleReset()"/>
                <g id="arrowUp" xlink:href="#dirArrow" transform="translate(30 24)" onmousedown="handlePan(0,-1)">
                  <use xlink:href="#rim" fill="#404040">
                        <set attributeName="fill" to="#808080" begin="arrowUp.mouseover" end="arrowUp.mouseout"/>
                  </use>
                  <path fill="none" stroke="white" stroke-width="1.5" d="M0,-3.0v7 M-2.5,-0.5L0,-3.0L2.5,-0.5"/>
                </g>
                <g id="arrowRight" xlink:href="#dirArrow" transform="rotate(90) translate(36 -43)" onmousedown="handlePan(1,0)">
                  <use xlink:href="#rim" fill="#404040">
                        <set attributeName="fill" to="#808080" begin="arrowRight.mouseover" end="arrowRight.mouseout"/>
                  </use>
                  <path fill="none" stroke="white" stroke-width="1.5" d="M0,-3.0v7 M-2.5,-0.5L0,-3.0L2.5,-0.5"/>
                </g>
                <g id="arrowDown" xlink:href="#dirArrow" transform="rotate(180) translate(-30 -48)" onmousedown="handlePan(0,1)">
                  <use xlink:href="#rim" fill="#404040">
                        <set attributeName="fill" to="#808080" begin="arrowDown.mouseover" end="arrowDown.mouseout"/>
                  </use>
                  <path fill="none" stroke="white" stroke-width="1.5" d="M0,-3.0v7 M-2.5,-0.5L0,-3.0L2.5,-0.5"/>
                </g>
                <g id="arrowLeft" xlink:href="#dirArrow" transform="rotate(270) translate(-36 17)" onmousedown="handlePan(-1,0)">
                  <use xlink:href="#rim" fill="#404040">
                        <set attributeName="fill" to="#808080" begin="arrowLeft.mouseover" end="arrowLeft.mouseout"/>
                  </use>
                  <path fill="none" stroke="white" stroke-width="1.5" d="M0,-3.0v7 M-2.5,-0.5L0,-3.0L2.5,-0.5"/>
                </g>
        </g>
        <svg viewBox="0 0 15 15" width="100%" height="30px" preserveAspectRatio="xMaxYMin meet">
         <g id="arrow_out" transform="scale(0.3 0.3)">
          <a xlink:href="_beam_8h__incl_org.svg" target="_base">
           <rect id="button" ry="5" rx="5" y="6" x="6" height="38" width="38"
                fill="#f2f5e9" fill-opacity="0.5" stroke="#606060" stroke-width="1.0"/>
           <path id="arrow"
             d="M 11.500037,31.436501 C 11.940474,20.09759 22.043105,11.32322 32.158766,21.979434 L 37.068811,17.246167 C 37.068811,17.246167 37.088388,32 37.088388,32 L 22.160133,31.978069 C 22.160133,31.978069 26.997745,27.140456 26.997745,27.140456 C 18.528582,18.264221 13.291696,25.230495 11.500037,31.436501 z"
             style="fill:#404040;"/>
          </a>
         </g>
        </svg>
</svg>
