<?xml version="1.0" encoding="UTF-8" standalone="no"?>
<!DOCTYPE svg PUBLIC "-//W3C//DTD SVG 1.1//EN"
 "http://www.w3.org/Graphics/SVG/1.1/DTD/svg11.dtd">
<!-- Generated by graphviz version 2.36.0 (20140111.2315)
 -->
<!-- Title: hardware_concurrency Pages: 1 -->
<svg width="486pt" height="47pt"
 viewBox="0.00 0.00 486.00 47.00" xmlns="http://www.w3.org/2000/svg" xmlns:xlink="http://www.w3.org/1999/xlink">
<g id="graph0" class="graph" transform="scale(1 1) rotate(0) translate(4 43)">
<title>hardware_concurrency</title>
<polygon fill="white" stroke="none" points="-4,4 -4,-43 482,-43 482,4 -4,4"/>
<!-- Node1 -->
<g id="node1" class="node"><title>Node1</title>
<polygon fill="#bfbfbf" stroke="black" points="0.5,-0.5 0.5,-19.5 115.5,-19.5 115.5,-0.5 0.5,-0.5"/>
<text text-anchor="middle" x="58" y="-7.5" font-family="Helvetica,sans-Serif" font-size="10.00">hardware_concurrency</text>
</g>
<!-- Node2 -->
<g id="node2" class="node"><title>Node2</title>
<g id="a_node2"><a xlink:href="_beam_factory_8cpp.html#a072263e1083c7f8018a06c63db890601" target="_top" xlink:title="getNumberOfCPUCores">
<polygon fill="white" stroke="black" points="152.5,-19.5 152.5,-38.5 275.5,-38.5 275.5,-19.5 152.5,-19.5"/>
<text text-anchor="middle" x="214" y="-26.5" font-family="Helvetica,sans-Serif" font-size="10.00">getNumberOfCPUCores</text>
</a>
</g>
</g>
<!-- Node1&#45;&gt;Node2 -->
<g id="edge1" class="edge"><title>Node1&#45;&gt;Node2</title>
<path fill="none" stroke="midnightblue" d="M126.091,-18.2775C134.859,-19.3592 143.801,-20.4624 152.452,-21.5298"/>
<polygon fill="midnightblue" stroke="midnightblue" points="126.26,-14.7718 115.906,-17.0209 125.403,-21.7191 126.26,-14.7718"/>
</g>
<!-- Node3 -->
<g id="node3" class="node"><title>Node3</title>
<g id="a_node3"><a xlink:href="class_ro_r_1_1_beam_factory.html#a196bf09947d50732843ab9973f745de4" target="_top" xlink:title="RoR::BeamFactory::BeamFactory">
<polygon fill="white" stroke="black" points="312,-0.5 312,-19.5 478,-19.5 478,-0.5 312,-0.5"/>
<text text-anchor="middle" x="395" y="-7.5" font-family="Helvetica,sans-Serif" font-size="10.00">RoR::BeamFactory::BeamFactory</text>
</a>
</g>
</g>
<!-- Node1&#45;&gt;Node3 -->
<g id="edge3" class="edge"><title>Node1&#45;&gt;Node3</title>
<path fill="none" stroke="midnightblue" d="M125.886,-10C179.36,-10 254.569,-10 311.728,-10"/>
<polygon fill="midnightblue" stroke="midnightblue" points="125.828,-6.5001 115.828,-10 125.828,-13.5001 125.828,-6.5001"/>
</g>
<!-- Node2&#45;&gt;Node3 -->
<g id="edge2" class="edge"><title>Node2&#45;&gt;Node3</title>
<path fill="none" stroke="midnightblue" d="M285.596,-21.5065C294.224,-20.5908 303.097,-19.6489 311.875,-18.7171"/>
<polygon fill="midnightblue" stroke="midnightblue" points="285.176,-18.0314 275.601,-22.5675 285.915,-24.9923 285.176,-18.0314"/>
</g>
</g>
</svg>
