<?xml version="1.0" encoding="UTF-8" standalone="no"?>
<!DOCTYPE svg PUBLIC "-//W3C//DTD SVG 1.1//EN"
 "http://www.w3.org/Graphics/SVG/1.1/DTD/svg11.dtd">
<!-- Generated by graphviz version 2.36.0 (20140111.2315)
 -->
<!-- Title: source/main/scripting/CBytecodeStream.h Pages: 1 -->
<svg width="255pt" height="108pt"
 viewBox="0.00 0.00 255.00 108.00" xmlns="http://www.w3.org/2000/svg" xmlns:xlink="http://www.w3.org/1999/xlink">
<g id="graph0" class="graph" transform="scale(1 1) rotate(0) translate(4 104)">
<title>source/main/scripting/CBytecodeStream.h</title>
<polygon fill="white" stroke="none" points="-4,4 -4,-104 251,-104 251,4 -4,4"/>
<!-- Node1 -->
<g id="node1" class="node"><title>Node1</title>
<polygon fill="#bfbfbf" stroke="black" points="70,-69 70,-99 180,-99 180,-69 70,-69"/>
<text text-anchor="start" x="78" y="-87" font-family="Helvetica,sans-Serif" font-size="10.00">source/main/scripting</text>
<text text-anchor="middle" x="125" y="-76" font-family="Helvetica,sans-Serif" font-size="10.00">/CBytecodeStream.h</text>
</g>
<!-- Node2 -->
<g id="node2" class="node"><title>Node2</title>
<g id="a_node2"><a xlink:href="_c_bytecode_stream_8cpp.html" target="_top" xlink:title="source/main/scripting\l/CBytecodeStream.cpp">
<polygon fill="white" stroke="black" points="-0.5,-1 -0.5,-31 118.5,-31 118.5,-1 -0.5,-1"/>
<text text-anchor="start" x="7.5" y="-19" font-family="Helvetica,sans-Serif" font-size="10.00">source/main/scripting</text>
<text text-anchor="middle" x="59" y="-8" font-family="Helvetica,sans-Serif" font-size="10.00">/CBytecodeStream.cpp</text>
</a>
</g>
</g>
<!-- Node1&#45;&gt;Node2 -->
<g id="edge1" class="edge"><title>Node1&#45;&gt;Node2</title>
<path fill="none" stroke="midnightblue" d="M103.485,-61.4855C93.5852,-51.5852 82.1092,-40.1092 73.2931,-31.2931"/>
<polygon fill="midnightblue" stroke="midnightblue" points="101.133,-64.0828 110.679,-68.679 106.083,-59.133 101.133,-64.0828"/>
</g>
<!-- Node3 -->
<g id="node3" class="node"><title>Node3</title>
<g id="a_node3"><a xlink:href="_script_engine_8cpp.html" target="_top" xlink:title="source/main/scripting\l/ScriptEngine.cpp">
<polygon fill="white" stroke="black" points="137,-1 137,-31 247,-31 247,-1 137,-1"/>
<text text-anchor="start" x="145" y="-19" font-family="Helvetica,sans-Serif" font-size="10.00">source/main/scripting</text>
<text text-anchor="middle" x="192" y="-8" font-family="Helvetica,sans-Serif" font-size="10.00">/ScriptEngine.cpp</text>
</a>
</g>
</g>
<!-- Node1&#45;&gt;Node3 -->
<g id="edge2" class="edge"><title>Node1&#45;&gt;Node3</title>
<path fill="none" stroke="midnightblue" d="M146.84,-61.4855C156.891,-51.5852 168.541,-40.1092 177.49,-31.2931"/>
<polygon fill="midnightblue" stroke="midnightblue" points="144.206,-59.1678 139.538,-68.679 149.118,-64.1547 144.206,-59.1678"/>
</g>
</g>
</svg>
