<?xml version="1.0" encoding="UTF-8" standalone="no"?>
<!DOCTYPE svg PUBLIC "-//W3C//DTD SVG 1.1//EN"
 "http://www.w3.org/Graphics/SVG/1.1/DTD/svg11.dtd">
<!-- Generated by graphviz version 2.36.0 (20140111.2315)
 -->
<!-- Title: source/main/gfx/camera/CameraBehaviorOrbit.h Pages: 1 -->
<svg width="784pt" height="244pt"
 viewBox="0.00 0.00 783.75 244.00" xmlns="http://www.w3.org/2000/svg" xmlns:xlink="http://www.w3.org/1999/xlink">
<g id="graph0" class="graph" transform="scale(1 1) rotate(0) translate(4 240)">
<title>source/main/gfx/camera/CameraBehaviorOrbit.h</title>
<polygon fill="white" stroke="none" points="-4,4 -4,-240 779.748,-240 779.748,4 -4,4"/>
<!-- Node1 -->
<g id="node1" class="node"><title>Node1</title>
<polygon fill="#bfbfbf" stroke="black" points="210.748,-205 210.748,-235 332.748,-235 332.748,-205 210.748,-205"/>
<text text-anchor="start" x="218.748" y="-223" font-family="Helvetica,sans-Serif" font-size="10.00">source/main/gfx/camera</text>
<text text-anchor="middle" x="271.748" y="-212" font-family="Helvetica,sans-Serif" font-size="10.00">/CameraBehaviorOrbit.h</text>
</g>
<!-- Node2 -->
<g id="node2" class="node"><title>Node2</title>
<g id="a_node2"><a xlink:href="_camera_behavior_character_8h.html" target="_top" xlink:title="source/main/gfx/camera\l/CameraBehaviorCharacter.h">
<polygon fill="white" stroke="black" points="122.248,-137 122.248,-167 265.248,-167 265.248,-137 122.248,-137"/>
<text text-anchor="start" x="130.248" y="-155" font-family="Helvetica,sans-Serif" font-size="10.00">source/main/gfx/camera</text>
<text text-anchor="middle" x="193.748" y="-144" font-family="Helvetica,sans-Serif" font-size="10.00">/CameraBehaviorCharacter.h</text>
</a>
</g>
</g>
<!-- Node1&#45;&gt;Node2 -->
<g id="edge1" class="edge"><title>Node1&#45;&gt;Node2</title>
<path fill="none" stroke="midnightblue" d="M246.951,-198.018C235.01,-187.915 221.012,-176.07 210.372,-167.066"/>
<polygon fill="midnightblue" stroke="midnightblue" points="244.928,-200.891 254.823,-204.679 249.45,-195.548 244.928,-200.891"/>
</g>
<!-- Node4 -->
<g id="node4" class="node"><title>Node4</title>
<g id="a_node4"><a xlink:href="_camera_manager_8cpp.html" target="_top" xlink:title="source/main/gfx/camera\l/CameraManager.cpp">
<polygon fill="white" stroke="black" points="135.748,-1 135.748,-31 257.748,-31 257.748,-1 135.748,-1"/>
<text text-anchor="start" x="143.748" y="-19" font-family="Helvetica,sans-Serif" font-size="10.00">source/main/gfx/camera</text>
<text text-anchor="middle" x="196.748" y="-8" font-family="Helvetica,sans-Serif" font-size="10.00">/CameraManager.cpp</text>
</a>
</g>
</g>
<!-- Node1&#45;&gt;Node4 -->
<g id="edge14" class="edge"><title>Node1&#45;&gt;Node4</title>
<path fill="none" stroke="midnightblue" d="M200.45,-210.63C135.484,-198.636 44.0136,-169.658 5.74766,-100 -23.7151,-46.3669 69.2652,-27.372 135.664,-20.6572"/>
<polygon fill="midnightblue" stroke="midnightblue" points="200.183,-214.136 210.637,-212.413 201.39,-207.241 200.183,-214.136"/>
</g>
<!-- Node5 -->
<g id="node5" class="node"><title>Node5</title>
<g id="a_node5"><a xlink:href="_camera_behavior_orbit_8cpp.html" target="_top" xlink:title="source/main/gfx/camera\l/CameraBehaviorOrbit.cpp">
<polygon fill="white" stroke="black" points="434.748,-137 434.748,-167 566.748,-167 566.748,-137 434.748,-137"/>
<text text-anchor="start" x="442.748" y="-155" font-family="Helvetica,sans-Serif" font-size="10.00">source/main/gfx/camera</text>
<text text-anchor="middle" x="500.748" y="-144" font-family="Helvetica,sans-Serif" font-size="10.00">/CameraBehaviorOrbit.cpp</text>
</a>
</g>
</g>
<!-- Node1&#45;&gt;Node5 -->
<g id="edge4" class="edge"><title>Node1&#45;&gt;Node5</title>
<path fill="none" stroke="midnightblue" d="M330.418,-202.091C368.085,-191.235 416.424,-177.303 451.977,-167.056"/>
<polygon fill="midnightblue" stroke="midnightblue" points="329.233,-198.79 320.593,-204.922 331.171,-205.516 329.233,-198.79"/>
</g>
<!-- Node6 -->
<g id="node6" class="node"><title>Node6</title>
<g id="a_node6"><a xlink:href="_camera_behavior_vehicle_8h.html" target="_top" xlink:title="source/main/gfx/camera\l/CameraBehaviorVehicle.h">
<polygon fill="white" stroke="black" points="283.248,-137 283.248,-167 416.248,-167 416.248,-137 283.248,-137"/>
<text text-anchor="start" x="291.248" y="-155" font-family="Helvetica,sans-Serif" font-size="10.00">source/main/gfx/camera</text>
<text text-anchor="middle" x="349.748" y="-144" font-family="Helvetica,sans-Serif" font-size="10.00">/CameraBehaviorVehicle.h</text>
</a>
</g>
</g>
<!-- Node1&#45;&gt;Node6 -->
<g id="edge5" class="edge"><title>Node1&#45;&gt;Node6</title>
<path fill="none" stroke="midnightblue" d="M296.544,-198.018C308.485,-187.915 322.484,-176.07 333.124,-167.066"/>
<polygon fill="midnightblue" stroke="midnightblue" points="294.046,-195.548 288.672,-204.679 298.567,-200.891 294.046,-195.548"/>
</g>
<!-- Node3 -->
<g id="node3" class="node"><title>Node3</title>
<g id="a_node3"><a xlink:href="_camera_behavior_character_8cpp.html" target="_top" xlink:title="source/main/gfx/camera\l/CameraBehaviorCharacter.cpp">
<polygon fill="white" stroke="black" points="14.7477,-69 14.7477,-99 168.748,-99 168.748,-69 14.7477,-69"/>
<text text-anchor="start" x="22.7477" y="-87" font-family="Helvetica,sans-Serif" font-size="10.00">source/main/gfx/camera</text>
<text text-anchor="middle" x="91.7477" y="-76" font-family="Helvetica,sans-Serif" font-size="10.00">/CameraBehaviorCharacter.cpp</text>
</a>
</g>
</g>
<!-- Node2&#45;&gt;Node3 -->
<g id="edge2" class="edge"><title>Node2&#45;&gt;Node3</title>
<path fill="none" stroke="midnightblue" d="M163.362,-131.339C147.362,-120.986 128.106,-108.526 113.593,-99.1352"/>
<polygon fill="midnightblue" stroke="midnightblue" points="161.569,-134.347 171.866,-136.841 165.372,-128.47 161.569,-134.347"/>
</g>
<!-- Node2&#45;&gt;Node4 -->
<g id="edge3" class="edge"><title>Node2&#45;&gt;Node4</title>
<path fill="none" stroke="midnightblue" d="M194.296,-126.524C194.92,-98.6193 195.921,-53.9397 196.429,-31.2372"/>
<polygon fill="midnightblue" stroke="midnightblue" points="190.794,-126.584 194.069,-136.66 197.792,-126.741 190.794,-126.584"/>
</g>
<!-- Node6&#45;&gt;Node4 -->
<g id="edge13" class="edge"><title>Node6&#45;&gt;Node4</title>
<path fill="none" stroke="midnightblue" d="M304.608,-132.585C287.506,-124.244 268.598,-113.254 253.748,-100 231.186,-79.8629 213.087,-49.0379 203.723,-31.1665"/>
<polygon fill="midnightblue" stroke="midnightblue" points="303.347,-135.859 313.886,-136.944 306.324,-129.524 303.347,-135.859"/>
</g>
<!-- Node7 -->
<g id="node7" class="node"><title>Node7</title>
<g id="a_node7"><a xlink:href="_camera_behavior_vehicle_8cpp.html" target="_top" xlink:title="source/main/gfx/camera\l/CameraBehaviorVehicle.cpp">
<polygon fill="white" stroke="black" points="633.248,-69 633.248,-99 776.248,-99 776.248,-69 633.248,-69"/>
<text text-anchor="start" x="641.248" y="-87" font-family="Helvetica,sans-Serif" font-size="10.00">source/main/gfx/camera</text>
<text text-anchor="middle" x="704.748" y="-76" font-family="Helvetica,sans-Serif" font-size="10.00">/CameraBehaviorVehicle.cpp</text>
</a>
</g>
</g>
<!-- Node6&#45;&gt;Node7 -->
<g id="edge6" class="edge"><title>Node6&#45;&gt;Node7</title>
<path fill="none" stroke="midnightblue" d="M426.44,-135.884C515.264,-119.099 538.867,-115.576 623.748,-100 626.842,-99.4321 630.003,-98.8511 633.196,-98.2633"/>
<polygon fill="midnightblue" stroke="midnightblue" points="425.639,-132.474 416.465,-137.773 426.941,-139.352 425.639,-132.474"/>
</g>
<!-- Node8 -->
<g id="node8" class="node"><title>Node8</title>
<g id="a_node8"><a xlink:href="_camera_behavior_vehicle_cine_cam_8h.html" target="_top" xlink:title="source/main/gfx/camera\l/CameraBehaviorVehicleCineCam.h">
<polygon fill="white" stroke="black" points="262.748,-69 262.748,-99 436.748,-99 436.748,-69 262.748,-69"/>
<text text-anchor="start" x="270.748" y="-87" font-family="Helvetica,sans-Serif" font-size="10.00">source/main/gfx/camera</text>
<text text-anchor="middle" x="349.748" y="-76" font-family="Helvetica,sans-Serif" font-size="10.00">/CameraBehaviorVehicleCineCam.h</text>
</a>
</g>
</g>
<!-- Node6&#45;&gt;Node8 -->
<g id="edge7" class="edge"><title>Node6&#45;&gt;Node8</title>
<path fill="none" stroke="midnightblue" d="M349.748,-126.532C349.748,-117.361 349.748,-107.245 349.748,-99.2931"/>
<polygon fill="midnightblue" stroke="midnightblue" points="346.248,-126.679 349.748,-136.679 353.248,-126.679 346.248,-126.679"/>
</g>
<!-- Node10 -->
<g id="node10" class="node"><title>Node10</title>
<g id="a_node10"><a xlink:href="_camera_behavior_vehicle_spline_8h.html" target="_top" xlink:title="source/main/gfx/camera\l/CameraBehaviorVehicleSpline.h">
<polygon fill="white" stroke="black" points="454.748,-69 454.748,-99 614.748,-99 614.748,-69 454.748,-69"/>
<text text-anchor="start" x="462.748" y="-87" font-family="Helvetica,sans-Serif" font-size="10.00">source/main/gfx/camera</text>
<text text-anchor="middle" x="534.748" y="-76" font-family="Helvetica,sans-Serif" font-size="10.00">/CameraBehaviorVehicleSpline.h</text>
</a>
</g>
</g>
<!-- Node6&#45;&gt;Node10 -->
<g id="edge10" class="edge"><title>Node6&#45;&gt;Node10</title>
<path fill="none" stroke="midnightblue" d="M398.935,-133.452C429.128,-122.68 467.273,-109.072 495.444,-99.0218"/>
<polygon fill="midnightblue" stroke="midnightblue" points="397.677,-130.185 389.435,-136.841 400.029,-136.778 397.677,-130.185"/>
</g>
<!-- Node8&#45;&gt;Node4 -->
<g id="edge9" class="edge"><title>Node8&#45;&gt;Node4</title>
<path fill="none" stroke="midnightblue" d="M307.437,-64.7485C282.736,-54.093 252.047,-40.8547 229.253,-31.0218"/>
<polygon fill="midnightblue" stroke="midnightblue" points="306.357,-68.0941 316.925,-68.8413 309.13,-61.6666 306.357,-68.0941"/>
</g>
<!-- Node9 -->
<g id="node9" class="node"><title>Node9</title>
<g id="a_node9"><a xlink:href="_camera_behavior_vehicle_cine_cam_8cpp.html" target="_top" xlink:title="source/main/gfx/camera\l/CameraBehaviorVehicleCineCam.cpp">
<polygon fill="white" stroke="black" points="276.248,-1 276.248,-31 461.248,-31 461.248,-1 276.248,-1"/>
<text text-anchor="start" x="284.248" y="-19" font-family="Helvetica,sans-Serif" font-size="10.00">source/main/gfx/camera</text>
<text text-anchor="middle" x="368.748" y="-8" font-family="Helvetica,sans-Serif" font-size="10.00">/CameraBehaviorVehicleCineCam.cpp</text>
</a>
</g>
</g>
<!-- Node8&#45;&gt;Node9 -->
<g id="edge8" class="edge"><title>Node8&#45;&gt;Node9</title>
<path fill="none" stroke="midnightblue" d="M356.705,-58.8309C359.368,-49.5807 362.319,-39.3313 364.633,-31.2931"/>
<polygon fill="midnightblue" stroke="midnightblue" points="353.273,-58.101 353.87,-68.679 360,-60.0375 353.273,-58.101"/>
</g>
<!-- Node10&#45;&gt;Node4 -->
<g id="edge12" class="edge"><title>Node10&#45;&gt;Node4</title>
<path fill="none" stroke="midnightblue" d="M448.453,-67.1006C395.877,-57.2838 327.368,-44.2614 266.748,-32 263.824,-31.4086 260.833,-30.7963 257.814,-30.1722"/>
<polygon fill="midnightblue" stroke="midnightblue" points="447.942,-70.5654 458.414,-68.9576 449.225,-63.684 447.942,-70.5654"/>
</g>
<!-- Node11 -->
<g id="node11" class="node"><title>Node11</title>
<g id="a_node11"><a xlink:href="_camera_behavior_vehicle_spline_8cpp.html" target="_top" xlink:title="source/main/gfx/camera\l/CameraBehaviorVehicleSpline.cpp">
<polygon fill="white" stroke="black" points="479.748,-1 479.748,-31 649.748,-31 649.748,-1 479.748,-1"/>
<text text-anchor="start" x="487.748" y="-19" font-family="Helvetica,sans-Serif" font-size="10.00">source/main/gfx/camera</text>
<text text-anchor="middle" x="564.748" y="-8" font-family="Helvetica,sans-Serif" font-size="10.00">/CameraBehaviorVehicleSpline.cpp</text>
</a>
</g>
</g>
<!-- Node10&#45;&gt;Node11 -->
<g id="edge11" class="edge"><title>Node10&#45;&gt;Node11</title>
<path fill="none" stroke="midnightblue" d="M545.463,-59.4263C549.737,-50.0226 554.518,-39.5042 558.251,-31.2931"/>
<polygon fill="midnightblue" stroke="midnightblue" points="542.209,-58.127 541.257,-68.679 548.582,-61.0236 542.209,-58.127"/>
</g>
</g>
</svg>
