<?xml version="1.0" encoding="UTF-8" standalone="no"?>
<!DOCTYPE svg PUBLIC "-//W3C//DTD SVG 1.1//EN"
 "http://www.w3.org/Graphics/SVG/1.1/DTD/svg11.dtd">
<!-- Generated by graphviz version 2.36.0 (20140111.2315)
 -->
<!-- Title: source/main/gfx/camera/CameraBehaviorVehicleCineCam.h Pages: 1 -->
<svg width="1754pt" height="432pt"
 viewBox="0.00 0.00 1754.00 432.00" xmlns="http://www.w3.org/2000/svg" xmlns:xlink="http://www.w3.org/1999/xlink">
<g id="graph0" class="graph" transform="scale(1 1) rotate(0) translate(4 428)">
<title>source/main/gfx/camera/CameraBehaviorVehicleCineCam.h</title>
<polygon fill="white" stroke="none" points="-4,4 -4,-428 1750,-428 1750,4 -4,4"/>
<!-- Node1 -->
<g id="node1" class="node"><title>Node1</title>
<polygon fill="#bfbfbf" stroke="black" points="870,-393 870,-423 1044,-423 1044,-393 870,-393"/>
<text text-anchor="start" x="878" y="-411" font-family="Helvetica,sans-Serif" font-size="10.00">source/main/gfx/camera</text>
<text text-anchor="middle" x="957" y="-400" font-family="Helvetica,sans-Serif" font-size="10.00">/CameraBehaviorVehicleCineCam.h</text>
</g>
<!-- Node2 -->
<g id="node2" class="node"><title>Node2</title>
<g id="a_node2"><a xlink:href="_ro_r_prerequisites_8h.html" target="_top" xlink:title="RoRPrerequisites.h">
<polygon fill="white" stroke="black" points="875,-112.5 875,-131.5 977,-131.5 977,-112.5 875,-112.5"/>
<text text-anchor="middle" x="926" y="-119.5" font-family="Helvetica,sans-Serif" font-size="10.00">RoRPrerequisites.h</text>
</a>
</g>
</g>
<!-- Node1&#45;&gt;Node2 -->
<g id="edge1" class="edge"><title>Node1&#45;&gt;Node2</title>
<path fill="none" stroke="midnightblue" d="M929.999,-392.95C898.302,-374.29 850,-338.125 850,-291 850,-291 850,-291 850,-233 850,-193.276 883.964,-157.504 906.482,-138.154"/>
<polygon fill="midnightblue" stroke="midnightblue" points="908.976,-140.634 914.457,-131.567 904.518,-135.236 908.976,-140.634"/>
</g>
<!-- Node20 -->
<g id="node20" class="node"><title>Node20</title>
<g id="a_node20"><a xlink:href="_camera_behavior_vehicle_8h.html" target="_top" xlink:title="CameraBehaviorVehicle.h">
<polygon fill="white" stroke="black" points="892,-336.5 892,-355.5 1022,-355.5 1022,-336.5 892,-336.5"/>
<text text-anchor="middle" x="957" y="-343.5" font-family="Helvetica,sans-Serif" font-size="10.00">CameraBehaviorVehicle.h</text>
</a>
</g>
</g>
<!-- Node1&#45;&gt;Node20 -->
<g id="edge20" class="edge"><title>Node1&#45;&gt;Node20</title>
<path fill="none" stroke="midnightblue" d="M957,-392.781C957,-384.781 957,-374.689 957,-366.017"/>
<polygon fill="midnightblue" stroke="midnightblue" points="960.5,-365.73 957,-355.731 953.5,-365.731 960.5,-365.73"/>
</g>
<!-- Node22 -->
<g id="node22" class="node"><title>Node22</title>
<g id="a_node22"><a xlink:href="_camera_manager_8h.html" target="_top" xlink:title="CameraManager.h">
<polygon fill="white" stroke="black" points="1004.5,-224.5 1004.5,-243.5 1101.5,-243.5 1101.5,-224.5 1004.5,-224.5"/>
<text text-anchor="middle" x="1053" y="-231.5" font-family="Helvetica,sans-Serif" font-size="10.00">CameraManager.h</text>
</a>
</g>
</g>
<!-- Node1&#45;&gt;Node22 -->
<g id="edge31" class="edge"><title>Node1&#45;&gt;Node22</title>
<path fill="none" stroke="midnightblue" d="M987.421,-392.852C1002.69,-384.257 1020.2,-371.864 1031,-356 1052.15,-324.93 1054.62,-279.374 1054.09,-253.947"/>
<polygon fill="midnightblue" stroke="midnightblue" points="1057.58,-253.661 1053.7,-243.804 1050.59,-253.933 1057.58,-253.661"/>
</g>
<!-- Node3 -->
<g id="node3" class="node"><title>Node3</title>
<polygon fill="white" stroke="#bfbfbf" points="-0.5,-56.5 -0.5,-75.5 102.5,-75.5 102.5,-56.5 -0.5,-56.5"/>
<text text-anchor="middle" x="51" y="-63.5" font-family="Helvetica,sans-Serif" font-size="10.00">OgrePrerequisites.h</text>
</g>
<!-- Node2&#45;&gt;Node3 -->
<g id="edge2" class="edge"><title>Node2&#45;&gt;Node3</title>
<path fill="none" stroke="midnightblue" d="M874.851,-119.841C747.658,-116.6 406.707,-105.727 112.672,-76.0823"/>
<polygon fill="midnightblue" stroke="midnightblue" points="112.975,-72.5951 102.672,-75.0649 112.266,-79.5592 112.975,-72.5951"/>
</g>
<!-- Node4 -->
<g id="node4" class="node"><title>Node4</title>
<polygon fill="white" stroke="#bfbfbf" points="120.5,-56.5 120.5,-75.5 235.5,-75.5 235.5,-56.5 120.5,-56.5"/>
<text text-anchor="middle" x="178" y="-63.5" font-family="Helvetica,sans-Serif" font-size="10.00">OgreAxisAlignedBox.h</text>
</g>
<!-- Node2&#45;&gt;Node4 -->
<g id="edge3" class="edge"><title>Node2&#45;&gt;Node4</title>
<path fill="none" stroke="midnightblue" d="M874.994,-118.851C762.989,-113.868 486.918,-100.152 245.58,-76.0963"/>
<polygon fill="midnightblue" stroke="midnightblue" points="245.865,-72.6074 235.565,-75.09 245.165,-79.5723 245.865,-72.6074"/>
</g>
<!-- Node5 -->
<g id="node5" class="node"><title>Node5</title>
<polygon fill="white" stroke="#bfbfbf" points="253.5,-56.5 253.5,-75.5 352.5,-75.5 352.5,-56.5 253.5,-56.5"/>
<text text-anchor="middle" x="303" y="-63.5" font-family="Helvetica,sans-Serif" font-size="10.00">OgreColourValue.h</text>
</g>
<!-- Node2&#45;&gt;Node5 -->
<g id="edge4" class="edge"><title>Node2&#45;&gt;Node5</title>
<path fill="none" stroke="midnightblue" d="M874.845,-118.206C777.25,-112.596 557.543,-98.6316 362.777,-76.133"/>
<polygon fill="midnightblue" stroke="midnightblue" points="362.979,-72.6329 352.641,-74.9517 362.168,-79.5859 362.979,-72.6329"/>
</g>
<!-- Node6 -->
<g id="node6" class="node"><title>Node6</title>
<polygon fill="white" stroke="#bfbfbf" points="370.5,-56.5 370.5,-75.5 473.5,-75.5 473.5,-56.5 370.5,-56.5"/>
<text text-anchor="middle" x="422" y="-63.5" font-family="Helvetica,sans-Serif" font-size="10.00">OgreHeaderPrefix.h</text>
</g>
<!-- Node2&#45;&gt;Node6 -->
<g id="edge5" class="edge"><title>Node2&#45;&gt;Node6</title>
<path fill="none" stroke="midnightblue" d="M874.97,-116.628C794.159,-109.53 631.541,-94.5321 483.845,-76.1839"/>
<polygon fill="midnightblue" stroke="midnightblue" points="484.046,-72.6818 473.689,-74.9139 483.177,-79.6277 484.046,-72.6818"/>
</g>
<!-- Node7 -->
<g id="node7" class="node"><title>Node7</title>
<polygon fill="white" stroke="#bfbfbf" points="491.5,-56.5 491.5,-75.5 590.5,-75.5 590.5,-56.5 491.5,-56.5"/>
<text text-anchor="middle" x="541" y="-63.5" font-family="Helvetica,sans-Serif" font-size="10.00">OgreLogManager.h</text>
</g>
<!-- Node2&#45;&gt;Node7 -->
<g id="edge6" class="edge"><title>Node2&#45;&gt;Node7</title>
<path fill="none" stroke="midnightblue" d="M874.985,-114.256C812.627,-105.95 703.609,-91.2324 600.612,-76.2179"/>
<polygon fill="midnightblue" stroke="midnightblue" points="601.067,-72.7472 590.666,-74.7642 600.054,-79.6736 601.067,-72.7472"/>
</g>
<!-- Node8 -->
<g id="node8" class="node"><title>Node8</title>
<polygon fill="white" stroke="#bfbfbf" points="608.5,-56.5 608.5,-75.5 701.5,-75.5 701.5,-56.5 608.5,-56.5"/>
<text text-anchor="middle" x="655" y="-63.5" font-family="Helvetica,sans-Serif" font-size="10.00">OgreQuaternion.h</text>
</g>
<!-- Node2&#45;&gt;Node8 -->
<g id="edge7" class="edge"><title>Node2&#45;&gt;Node8</title>
<path fill="none" stroke="midnightblue" d="M883.059,-112.444C835.487,-102.964 758.756,-87.6747 707.611,-77.4835"/>
<polygon fill="midnightblue" stroke="midnightblue" points="708.231,-74.0382 697.74,-75.5164 706.863,-80.9032 708.231,-74.0382"/>
</g>
<!-- Node9 -->
<g id="node9" class="node"><title>Node9</title>
<polygon fill="white" stroke="#bfbfbf" points="719.5,-56.5 719.5,-75.5 790.5,-75.5 790.5,-56.5 719.5,-56.5"/>
<text text-anchor="middle" x="755" y="-63.5" font-family="Helvetica,sans-Serif" font-size="10.00">OgreString.h</text>
</g>
<!-- Node2&#45;&gt;Node9 -->
<g id="edge8" class="edge"><title>Node2&#45;&gt;Node9</title>
<path fill="none" stroke="midnightblue" d="M898.905,-112.444C870.012,-103.32 824.075,-88.8133 791.895,-78.6509"/>
<polygon fill="midnightblue" stroke="midnightblue" points="792.559,-75.1903 781.969,-75.5164 790.451,-81.8654 792.559,-75.1903"/>
</g>
<!-- Node10 -->
<g id="node10" class="node"><title>Node10</title>
<polygon fill="white" stroke="#bfbfbf" points="809,-56.5 809,-75.5 923,-75.5 923,-56.5 809,-56.5"/>
<text text-anchor="middle" x="866" y="-63.5" font-family="Helvetica,sans-Serif" font-size="10.00">OgreStringConverter.h</text>
</g>
<!-- Node2&#45;&gt;Node10 -->
<g id="edge9" class="edge"><title>Node2&#45;&gt;Node10</title>
<path fill="none" stroke="midnightblue" d="M916.36,-112.324C907.49,-104.341 894.125,-92.3128 883.392,-82.6529"/>
<polygon fill="midnightblue" stroke="midnightblue" points="885.59,-79.922 875.815,-75.8339 880.907,-85.1251 885.59,-79.922"/>
</g>
<!-- Node11 -->
<g id="node11" class="node"><title>Node11</title>
<polygon fill="white" stroke="#bfbfbf" points="941.5,-56.5 941.5,-75.5 1032.5,-75.5 1032.5,-56.5 941.5,-56.5"/>
<text text-anchor="middle" x="987" y="-63.5" font-family="Helvetica,sans-Serif" font-size="10.00">OgreUTFString.h</text>
</g>
<!-- Node2&#45;&gt;Node11 -->
<g id="edge10" class="edge"><title>Node2&#45;&gt;Node11</title>
<path fill="none" stroke="midnightblue" d="M935.801,-112.324C944.818,-104.341 958.406,-92.3128 969.318,-82.6529"/>
<polygon fill="midnightblue" stroke="midnightblue" points="971.853,-85.083 977.021,-75.8339 967.213,-79.8416 971.853,-85.083"/>
</g>
<!-- Node12 -->
<g id="node12" class="node"><title>Node12</title>
<polygon fill="white" stroke="#bfbfbf" points="1051,-56.5 1051,-75.5 1131,-75.5 1131,-56.5 1051,-56.5"/>
<text text-anchor="middle" x="1091" y="-63.5" font-family="Helvetica,sans-Serif" font-size="10.00">OgreVector2.h</text>
</g>
<!-- Node2&#45;&gt;Node12 -->
<g id="edge11" class="edge"><title>Node2&#45;&gt;Node12</title>
<path fill="none" stroke="midnightblue" d="M952.145,-112.444C980.023,-103.32 1024.35,-88.8133 1055.4,-78.6509"/>
<polygon fill="midnightblue" stroke="midnightblue" points="1056.56,-81.9533 1064.98,-75.5164 1054.38,-75.3005 1056.56,-81.9533"/>
</g>
<!-- Node13 -->
<g id="node13" class="node"><title>Node13</title>
<polygon fill="white" stroke="#bfbfbf" points="1149,-56.5 1149,-75.5 1229,-75.5 1229,-56.5 1149,-56.5"/>
<text text-anchor="middle" x="1189" y="-63.5" font-family="Helvetica,sans-Serif" font-size="10.00">OgreVector3.h</text>
</g>
<!-- Node2&#45;&gt;Node13 -->
<g id="edge12" class="edge"><title>Node2&#45;&gt;Node13</title>
<path fill="none" stroke="midnightblue" d="M967.673,-112.444C1014.15,-102.9 1089.31,-87.4689 1138.94,-77.2787"/>
<polygon fill="midnightblue" stroke="midnightblue" points="1139.72,-80.6906 1148.82,-75.2508 1138.32,-73.8337 1139.72,-80.6906"/>
</g>
<!-- Node14 -->
<g id="node14" class="node"><title>Node14</title>
<g id="a_node14"><a xlink:href="_forward_declarations_8h.html" target="_top" xlink:title="Global forward declarations. ">
<polygon fill="white" stroke="black" points="1240.5,-0.5 1240.5,-19.5 1355.5,-19.5 1355.5,-0.5 1240.5,-0.5"/>
<text text-anchor="middle" x="1298" y="-7.5" font-family="Helvetica,sans-Serif" font-size="10.00">ForwardDeclarations.h</text>
</a>
</g>
</g>
<!-- Node2&#45;&gt;Node14 -->
<g id="edge13" class="edge"><title>Node2&#45;&gt;Node14</title>
<path fill="none" stroke="midnightblue" d="M977.176,-115.514C1059.73,-106.383 1215.39,-87.8964 1238,-76 1258.93,-64.9861 1276.4,-43.6944 1286.99,-28.4802"/>
<polygon fill="midnightblue" stroke="midnightblue" points="1290.05,-30.2047 1292.67,-19.9388 1284.22,-26.3306 1290.05,-30.2047"/>
</g>
<!-- Node15 -->
<g id="node15" class="node"><title>Node15</title>
<g id="a_node15"><a xlink:href="_global_environment_8h.html" target="_top" xlink:title="GlobalEnvironment.h">
<polygon fill="white" stroke="black" points="1285.5,-56.5 1285.5,-75.5 1392.5,-75.5 1392.5,-56.5 1285.5,-56.5"/>
<text text-anchor="middle" x="1339" y="-63.5" font-family="Helvetica,sans-Serif" font-size="10.00">GlobalEnvironment.h</text>
</a>
</g>
</g>
<!-- Node2&#45;&gt;Node15 -->
<g id="edge14" class="edge"><title>Node2&#45;&gt;Node15</title>
<path fill="none" stroke="midnightblue" d="M977.15,-114.359C1044.51,-105.606 1166.64,-89.7117 1271,-76 1272.3,-75.8298 1273.6,-75.6577 1274.92,-75.4842"/>
<polygon fill="midnightblue" stroke="midnightblue" points="1275.72,-78.9092 1285.18,-74.1328 1274.81,-71.9692 1275.72,-78.9092"/>
</g>
<!-- Node16 -->
<g id="node16" class="node"><title>Node16</title>
<g id="a_node16"><a xlink:href="_zeroed_memory_allocator_8h.html" target="_top" xlink:title="ZeroedMemoryAllocator.h">
<polygon fill="white" stroke="black" points="1411,-56.5 1411,-75.5 1539,-75.5 1539,-56.5 1411,-56.5"/>
<text text-anchor="middle" x="1475" y="-63.5" font-family="Helvetica,sans-Serif" font-size="10.00">ZeroedMemoryAllocator.h</text>
</a>
</g>
</g>
<!-- Node2&#45;&gt;Node16 -->
<g id="edge16" class="edge"><title>Node2&#45;&gt;Node16</title>
<path fill="none" stroke="midnightblue" d="M977.203,-116.15C1088.34,-105.623 1345.56,-81.2597 1400.62,-75.9196"/>
<polygon fill="midnightblue" stroke="midnightblue" points="1401.23,-79.3769 1410.84,-74.9094 1400.54,-72.4109 1401.23,-79.3769"/>
</g>
<!-- Node17 -->
<g id="node17" class="node"><title>Node17</title>
<g id="a_node17"><a xlink:href="_bit_flags_8h.html" target="_top" xlink:title="BitFlags.h">
<polygon fill="white" stroke="black" points="1557.5,-56.5 1557.5,-75.5 1618.5,-75.5 1618.5,-56.5 1557.5,-56.5"/>
<text text-anchor="middle" x="1588" y="-63.5" font-family="Helvetica,sans-Serif" font-size="10.00">BitFlags.h</text>
</a>
</g>
</g>
<!-- Node2&#45;&gt;Node17 -->
<g id="edge17" class="edge"><title>Node2&#45;&gt;Node17</title>
<path fill="none" stroke="midnightblue" d="M977.254,-115.896C991.419,-114.553 1006.8,-113.157 1021,-112 1251.68,-93.1974 1313.93,-109.394 1546.93,-75.922"/>
<polygon fill="midnightblue" stroke="midnightblue" points="1547.69,-79.3494 1557.08,-74.4487 1546.68,-72.422 1547.69,-79.3494"/>
</g>
<!-- Node19 -->
<g id="node19" class="node"><title>Node19</title>
<polygon fill="white" stroke="#bfbfbf" points="1636.5,-56.5 1636.5,-75.5 1745.5,-75.5 1745.5,-56.5 1636.5,-56.5"/>
<text text-anchor="middle" x="1691" y="-63.5" font-family="Helvetica,sans-Serif" font-size="10.00">MyGUI_Prerequest.h</text>
</g>
<!-- Node2&#45;&gt;Node19 -->
<g id="edge19" class="edge"><title>Node2&#45;&gt;Node19</title>
<path fill="none" stroke="midnightblue" d="M977.247,-115.813C991.412,-114.469 1006.79,-113.094 1021,-112 1286.73,-91.5264 1356.82,-102.531 1626.15,-75.9991"/>
<polygon fill="midnightblue" stroke="midnightblue" points="1626.62,-79.4696 1636.22,-74.9982 1625.93,-72.5039 1626.62,-79.4696"/>
</g>
<!-- Node15&#45;&gt;Node14 -->
<g id="edge15" class="edge"><title>Node15&#45;&gt;Node14</title>
<path fill="none" stroke="midnightblue" d="M1332.23,-56.083C1326.44,-48.4554 1317.94,-37.2645 1310.86,-27.9408"/>
<polygon fill="midnightblue" stroke="midnightblue" points="1313.48,-25.5991 1304.64,-19.7511 1307.9,-29.8321 1313.48,-25.5991"/>
</g>
<!-- Node18 -->
<g id="node18" class="node"><title>Node18</title>
<polygon fill="white" stroke="#bfbfbf" points="1565,-0.5 1565,-19.5 1611,-19.5 1611,-0.5 1565,-0.5"/>
<text text-anchor="middle" x="1588" y="-7.5" font-family="Helvetica,sans-Serif" font-size="10.00">cstdint</text>
</g>
<!-- Node17&#45;&gt;Node18 -->
<g id="edge18" class="edge"><title>Node17&#45;&gt;Node18</title>
<path fill="none" stroke="midnightblue" d="M1588,-56.083C1588,-49.0059 1588,-38.8611 1588,-29.9865"/>
<polygon fill="midnightblue" stroke="midnightblue" points="1591.5,-29.751 1588,-19.7511 1584.5,-29.7511 1591.5,-29.751"/>
</g>
<!-- Node20&#45;&gt;Node2 -->
<g id="edge21" class="edge"><title>Node20&#45;&gt;Node2</title>
<path fill="none" stroke="midnightblue" d="M942.048,-336.474C930.068,-328.702 914.127,-316.002 907,-300 882.947,-245.992 905.451,-173.865 918.363,-140.855"/>
<polygon fill="midnightblue" stroke="midnightblue" points="921.608,-142.166 922.147,-131.585 915.127,-139.52 921.608,-142.166"/>
</g>
<!-- Node21 -->
<g id="node21" class="node"><title>Node21</title>
<g id="a_node21"><a xlink:href="_camera_behavior_orbit_8h.html" target="_top" xlink:title="CameraBehaviorOrbit.h">
<polygon fill="white" stroke="black" points="916.5,-280.5 916.5,-299.5 1035.5,-299.5 1035.5,-280.5 916.5,-280.5"/>
<text text-anchor="middle" x="976" y="-287.5" font-family="Helvetica,sans-Serif" font-size="10.00">CameraBehaviorOrbit.h</text>
</a>
</g>
</g>
<!-- Node20&#45;&gt;Node21 -->
<g id="edge22" class="edge"><title>Node20&#45;&gt;Node21</title>
<path fill="none" stroke="midnightblue" d="M960.137,-336.083C962.683,-328.849 966.356,-318.409 969.527,-309.397"/>
<polygon fill="midnightblue" stroke="midnightblue" points="972.903,-310.346 972.921,-299.751 966.3,-308.023 972.903,-310.346"/>
</g>
<!-- Node21&#45;&gt;Node2 -->
<g id="edge23" class="edge"><title>Node21&#45;&gt;Node2</title>
<path fill="none" stroke="midnightblue" d="M973.307,-280.365C967.879,-262.93 955.265,-222.262 945,-188 940.308,-172.338 935.107,-154.512 931.334,-141.494"/>
<polygon fill="midnightblue" stroke="midnightblue" points="934.684,-140.477 928.544,-131.842 927.959,-142.421 934.684,-140.477"/>
</g>
<!-- Node21&#45;&gt;Node22 -->
<g id="edge24" class="edge"><title>Node21&#45;&gt;Node22</title>
<path fill="none" stroke="midnightblue" d="M988.371,-280.324C1000.16,-272.058 1018.13,-259.453 1032.14,-249.632"/>
<polygon fill="midnightblue" stroke="midnightblue" points="1034.48,-252.262 1040.66,-243.655 1030.46,-246.531 1034.48,-252.262"/>
</g>
<!-- Node23 -->
<g id="node23" class="node"><title>Node23</title>
<g id="a_node23"><a xlink:href="_i_behavior_8h.html" target="_top" xlink:title="IBehavior.h">
<polygon fill="white" stroke="black" points="954,-168.5 954,-187.5 1020,-187.5 1020,-168.5 954,-168.5"/>
<text text-anchor="middle" x="987" y="-175.5" font-family="Helvetica,sans-Serif" font-size="10.00">IBehavior.h</text>
</a>
</g>
</g>
<!-- Node21&#45;&gt;Node23 -->
<g id="edge30" class="edge"><title>Node21&#45;&gt;Node23</title>
<path fill="none" stroke="midnightblue" d="M976.863,-280.368C978.638,-262.617 982.733,-221.666 985.14,-197.597"/>
<polygon fill="midnightblue" stroke="midnightblue" points="988.628,-197.89 986.141,-187.591 981.663,-197.193 988.628,-197.89"/>
</g>
<!-- Node22&#45;&gt;Node2 -->
<g id="edge25" class="edge"><title>Node22&#45;&gt;Node2</title>
<path fill="none" stroke="midnightblue" d="M1051.98,-224.288C1049.94,-210.635 1044.19,-184.1 1029,-168 1014.11,-152.215 992.716,-141.652 973.283,-134.753"/>
<polygon fill="midnightblue" stroke="midnightblue" points="974.235,-131.381 963.641,-131.562 972.036,-138.027 974.235,-131.381"/>
</g>
<!-- Node22&#45;&gt;Node23 -->
<g id="edge26" class="edge"><title>Node22&#45;&gt;Node23</title>
<path fill="none" stroke="midnightblue" d="M1042.4,-224.324C1032.54,-216.263 1017.65,-204.077 1005.78,-194.369"/>
<polygon fill="midnightblue" stroke="midnightblue" points="1007.75,-191.457 997.797,-187.834 1003.32,-196.875 1007.75,-191.457"/>
</g>
<!-- Node24 -->
<g id="node24" class="node"><title>Node24</title>
<polygon fill="white" stroke="#bfbfbf" points="1030,-112.5 1030,-131.5 1072,-131.5 1072,-112.5 1030,-112.5"/>
<text text-anchor="middle" x="1051" y="-119.5" font-family="Helvetica,sans-Serif" font-size="10.00">OIS.h</text>
</g>
<!-- Node22&#45;&gt;Node24 -->
<g id="edge29" class="edge"><title>Node22&#45;&gt;Node24</title>
<path fill="none" stroke="midnightblue" d="M1055.67,-224.181C1059.13,-211.693 1064.42,-188.133 1062,-168 1060.93,-159.107 1058.71,-149.434 1056.54,-141.344"/>
<polygon fill="midnightblue" stroke="midnightblue" points="1059.84,-140.167 1053.73,-131.514 1053.11,-142.091 1059.84,-140.167"/>
</g>
<!-- Node23&#45;&gt;Node2 -->
<g id="edge27" class="edge"><title>Node23&#45;&gt;Node2</title>
<path fill="none" stroke="midnightblue" d="M977.199,-168.324C968.182,-160.341 954.594,-148.313 943.682,-138.653"/>
<polygon fill="midnightblue" stroke="midnightblue" points="945.787,-135.842 935.979,-131.834 941.147,-141.083 945.787,-135.842"/>
</g>
<!-- Node23&#45;&gt;Node24 -->
<g id="edge28" class="edge"><title>Node23&#45;&gt;Node24</title>
<path fill="none" stroke="midnightblue" d="M997.283,-168.324C1006.84,-160.263 1021.28,-148.077 1032.78,-138.369"/>
<polygon fill="midnightblue" stroke="midnightblue" points="1035.14,-140.958 1040.53,-131.834 1030.63,-135.608 1035.14,-140.958"/>
</g>
</g>
</svg>
