<?xml version="1.0" encoding="UTF-8" standalone="no"?>
<!DOCTYPE svg PUBLIC "-//W3C//DTD SVG 1.1//EN"
 "http://www.w3.org/Graphics/SVG/1.1/DTD/svg11.dtd">
<!-- Generated by graphviz version 2.36.0 (20140111.2315)
 -->
<!-- Title: source/main/utils/CollisionTools.cpp Pages: 1 -->
<!--zoomable 264 -->
<svg id="main" version="1.1" xmlns="http://www.w3.org/2000/svg" xmlns:xlink="http://www.w3.org/1999/xlink" xml:space="preserve" onload="init(evt)">
<style type="text/css"><![CDATA[
.edge:hover path { stroke: red; }
.edge:hover polygon { stroke: red; fill: red; }
]]></style>
<script type="text/javascript"><![CDATA[
var edges = document.getElementsByTagName('g');
if (edges && edges.length) {
  for (var i=0;i<edges.length;i++) {
    if (edges[i].id.substr(0,4)=='edge') {
      edges[i].setAttribute('class','edge');
    }
  }
}
]]></script>
        <defs>
                <circle id="rim" cx="0" cy="0" r="7"/>
                <circle id="rim2" cx="0" cy="0" r="3.5"/>
                <g id="zoomPlus">
                        <use xlink:href="#rim" fill="#404040">
                                <set attributeName="fill" to="#808080" begin="zoomplus.mouseover" end="zoomplus.mouseout"/>
                        </use>
                        <path d="M-4,0h8M0,-4v8" fill="none" stroke="white" stroke-width="1.5" pointer-events="none"/>
                </g>
                <g id="zoomMin">
                        <use xlink:href="#rim" fill="#404040">
                                <set attributeName="fill" to="#808080" begin="zoomminus.mouseover" end="zoomminus.mouseout"/>
                        </use>
                        <path d="M-4,0h8" fill="none" stroke="white" stroke-width="1.5" pointer-events="none"/>
                </g>
                <g id="dirArrow">
                        <path fill="none" stroke="white" stroke-width="1.5" d="M0,-3.0v7 M-2.5,-0.5L0,-3.0L2.5,-0.5"/>
                </g>
               <g id="resetDef">
                       <use xlink:href="#rim2" fill="#404040">
                               <set attributeName="fill" to="#808080" begin="reset.mouseover" end="reset.mouseout"/>
                       </use>
               </g>
        </defs>

<script type="text/javascript">
var viewWidth = 1753;
var viewHeight = 264;
var sectionId = 'dynsection-0';
</script>
<script xlink:href="svgpan.js"/>
<svg id="graph" class="graph">
<g id="viewport">
<title>source/main/utils/CollisionTools.cpp</title>
<polygon fill="white" stroke="none" points="-4,4 -4,-260 1749,-260 1749,4 -4,4"/>
<!-- Node1 -->
<g id="node1" class="node"><title>Node1</title>
<polygon fill="#bfbfbf" stroke="black" points="886.5,-225 886.5,-255 1017.5,-255 1017.5,-225 886.5,-225"/>
<text text-anchor="start" x="894.5" y="-243" font-family="Helvetica,sans-Serif" font-size="10.00">source/main/utils/Collision</text>
<text text-anchor="middle" x="952" y="-232" font-family="Helvetica,sans-Serif" font-size="10.00">Tools.cpp</text>
</g>
<!-- Node2 -->
<g id="node2" class="node"><title>Node2</title>
<g id="a_node2"><a xlink:href="_collision_tools_8h.html" target="_top" xlink:title="CollisionTools.h">
<polygon fill="white" stroke="black" points="909,-168.5 909,-187.5 995,-187.5 995,-168.5 909,-168.5"/>
<text text-anchor="middle" x="952" y="-175.5" font-family="Helvetica,sans-Serif" font-size="10.00">CollisionTools.h</text>
</a>
</g>
</g>
<!-- Node1&#45;&gt;Node2 -->
<g id="edge1" class="edge"><title>Node1&#45;&gt;Node2</title>
<path fill="none" stroke="midnightblue" d="M952,-224.781C952,-216.781 952,-206.689 952,-198.017"/>
<polygon fill="midnightblue" stroke="midnightblue" points="955.5,-197.73 952,-187.731 948.5,-197.731 955.5,-197.73"/>
</g>
<!-- Node8 -->
<g id="node8" class="node"><title>Node8</title>
<polygon fill="white" stroke="#bfbfbf" points="-0.5,-56.5 -0.5,-75.5 98.5,-75.5 98.5,-56.5 -0.5,-56.5"/>
<text text-anchor="middle" x="49" y="-63.5" font-family="Helvetica,sans-Serif" font-size="10.00">OgreLogManager.h</text>
</g>
<!-- Node1&#45;&gt;Node8 -->
<g id="edge22" class="edge"><title>Node1&#45;&gt;Node8</title>
<path fill="none" stroke="midnightblue" d="M886.331,-226.492C715.763,-194.002 261.033,-107.387 103.573,-77.3948"/>
<polygon fill="midnightblue" stroke="midnightblue" points="104.116,-73.9353 93.6372,-75.5023 102.806,-80.8117 104.116,-73.9353"/>
</g>
<!-- Node11 -->
<g id="node11" class="node"><title>Node11</title>
<polygon fill="white" stroke="#bfbfbf" points="1631,-56.5 1631,-75.5 1745,-75.5 1745,-56.5 1631,-56.5"/>
<text text-anchor="middle" x="1688" y="-63.5" font-family="Helvetica,sans-Serif" font-size="10.00">OgreStringConverter.h</text>
</g>
<!-- Node1&#45;&gt;Node11 -->
<g id="edge23" class="edge"><title>Node1&#45;&gt;Node11</title>
<path fill="none" stroke="midnightblue" d="M1011.92,-224.997C1154.75,-191.617 1512.94,-107.911 1641.31,-77.9114"/>
<polygon fill="midnightblue" stroke="midnightblue" points="1642.28,-81.2782 1651.22,-75.5943 1640.69,-74.4619 1642.28,-81.2782"/>
</g>
<!-- Node3 -->
<g id="node3" class="node"><title>Node3</title>
<g id="a_node3"><a xlink:href="_ro_r_prerequisites_8h.html" target="_top" xlink:title="RoRPrerequisites.h">
<polygon fill="white" stroke="black" points="855,-112.5 855,-131.5 957,-131.5 957,-112.5 855,-112.5"/>
<text text-anchor="middle" x="906" y="-119.5" font-family="Helvetica,sans-Serif" font-size="10.00">RoRPrerequisites.h</text>
</a>
</g>
</g>
<!-- Node2&#45;&gt;Node3 -->
<g id="edge2" class="edge"><title>Node2&#45;&gt;Node3</title>
<path fill="none" stroke="midnightblue" d="M944.404,-168.083C937.773,-160.298 927.979,-148.801 919.942,-139.367"/>
<polygon fill="midnightblue" stroke="midnightblue" points="922.604,-137.094 913.455,-131.751 917.275,-141.633 922.604,-137.094"/>
</g>
<!-- Node21 -->
<g id="node21" class="node"><title>Node21</title>
<polygon fill="white" stroke="#bfbfbf" points="975,-112.5 975,-131.5 1021,-131.5 1021,-112.5 975,-112.5"/>
<text text-anchor="middle" x="998" y="-119.5" font-family="Helvetica,sans-Serif" font-size="10.00">Ogre.h</text>
</g>
<!-- Node2&#45;&gt;Node21 -->
<g id="edge21" class="edge"><title>Node2&#45;&gt;Node21</title>
<path fill="none" stroke="midnightblue" d="M959.596,-168.083C966.227,-160.298 976.021,-148.801 984.058,-139.367"/>
<polygon fill="midnightblue" stroke="midnightblue" points="986.725,-141.633 990.545,-131.751 981.396,-137.094 986.725,-141.633"/>
</g>
<!-- Node4 -->
<g id="node4" class="node"><title>Node4</title>
<polygon fill="white" stroke="#bfbfbf" points="116.5,-56.5 116.5,-75.5 219.5,-75.5 219.5,-56.5 116.5,-56.5"/>
<text text-anchor="middle" x="168" y="-63.5" font-family="Helvetica,sans-Serif" font-size="10.00">OgrePrerequisites.h</text>
</g>
<!-- Node3&#45;&gt;Node4 -->
<g id="edge3" class="edge"><title>Node3&#45;&gt;Node4</title>
<path fill="none" stroke="midnightblue" d="M854.843,-119.05C743.229,-114.482 469.3,-101.579 229.967,-76.1326"/>
<polygon fill="midnightblue" stroke="midnightblue" points="229.992,-72.6153 219.676,-75.0283 229.245,-79.5753 229.992,-72.6153"/>
</g>
<!-- Node5 -->
<g id="node5" class="node"><title>Node5</title>
<polygon fill="white" stroke="#bfbfbf" points="237.5,-56.5 237.5,-75.5 352.5,-75.5 352.5,-56.5 237.5,-56.5"/>
<text text-anchor="middle" x="295" y="-63.5" font-family="Helvetica,sans-Serif" font-size="10.00">OgreAxisAlignedBox.h</text>
</g>
<!-- Node3&#45;&gt;Node5 -->
<g id="edge4" class="edge"><title>Node3&#45;&gt;Node5</title>
<path fill="none" stroke="midnightblue" d="M854.819,-117.685C759.864,-111.337 549.759,-96.3602 362.595,-76.1251"/>
<polygon fill="midnightblue" stroke="midnightblue" points="362.891,-72.6368 352.571,-75.0339 362.133,-79.5957 362.891,-72.6368"/>
</g>
<!-- Node6 -->
<g id="node6" class="node"><title>Node6</title>
<polygon fill="white" stroke="#bfbfbf" points="370.5,-56.5 370.5,-75.5 469.5,-75.5 469.5,-56.5 370.5,-56.5"/>
<text text-anchor="middle" x="420" y="-63.5" font-family="Helvetica,sans-Serif" font-size="10.00">OgreColourValue.h</text>
</g>
<!-- Node3&#45;&gt;Node6 -->
<g id="edge5" class="edge"><title>Node3&#45;&gt;Node6</title>
<path fill="none" stroke="midnightblue" d="M854.846,-116.442C776.357,-109.268 621.26,-94.3797 479.811,-76.1846"/>
<polygon fill="midnightblue" stroke="midnightblue" points="480.018,-72.6822 469.651,-74.8689 479.119,-79.6243 480.018,-72.6822"/>
</g>
<!-- Node7 -->
<g id="node7" class="node"><title>Node7</title>
<polygon fill="white" stroke="#bfbfbf" points="487.5,-56.5 487.5,-75.5 590.5,-75.5 590.5,-56.5 487.5,-56.5"/>
<text text-anchor="middle" x="539" y="-63.5" font-family="Helvetica,sans-Serif" font-size="10.00">OgreHeaderPrefix.h</text>
</g>
<!-- Node3&#45;&gt;Node7 -->
<g id="edge6" class="edge"><title>Node3&#45;&gt;Node7</title>
<path fill="none" stroke="midnightblue" d="M854.834,-113.483C796.145,-104.859 696.733,-90.2465 600.759,-76.1112"/>
<polygon fill="midnightblue" stroke="midnightblue" points="600.988,-72.6072 590.584,-74.6126 599.968,-79.5325 600.988,-72.6072"/>
</g>
<!-- Node3&#45;&gt;Node8 -->
<g id="edge7" class="edge"><title>Node3&#45;&gt;Node8</title>
<path fill="none" stroke="midnightblue" d="M854.916,-119.853C729.533,-116.666 396.447,-105.953 108.844,-76.098"/>
<polygon fill="midnightblue" stroke="midnightblue" points="108.943,-72.5893 98.6324,-75.0279 108.213,-79.5512 108.943,-72.5893"/>
</g>
<!-- Node9 -->
<g id="node9" class="node"><title>Node9</title>
<polygon fill="white" stroke="#bfbfbf" points="608.5,-56.5 608.5,-75.5 701.5,-75.5 701.5,-56.5 608.5,-56.5"/>
<text text-anchor="middle" x="655" y="-63.5" font-family="Helvetica,sans-Serif" font-size="10.00">OgreQuaternion.h</text>
</g>
<!-- Node3&#45;&gt;Node9 -->
<g id="edge8" class="edge"><title>Node3&#45;&gt;Node9</title>
<path fill="none" stroke="midnightblue" d="M866.228,-112.444C822.442,-103.023 751.986,-87.8656 704.62,-77.6752"/>
<polygon fill="midnightblue" stroke="midnightblue" points="705.098,-74.1981 694.586,-75.5164 703.626,-81.0415 705.098,-74.1981"/>
</g>
<!-- Node10 -->
<g id="node10" class="node"><title>Node10</title>
<polygon fill="white" stroke="#bfbfbf" points="719.5,-56.5 719.5,-75.5 790.5,-75.5 790.5,-56.5 719.5,-56.5"/>
<text text-anchor="middle" x="755" y="-63.5" font-family="Helvetica,sans-Serif" font-size="10.00">OgreString.h</text>
</g>
<!-- Node3&#45;&gt;Node10 -->
<g id="edge9" class="edge"><title>Node3&#45;&gt;Node10</title>
<path fill="none" stroke="midnightblue" d="M882.074,-112.444C856.781,-103.399 816.698,-89.064 788.32,-78.9158"/>
<polygon fill="midnightblue" stroke="midnightblue" points="789.409,-75.5882 778.814,-75.5164 787.052,-82.1794 789.409,-75.5882"/>
</g>
<!-- Node3&#45;&gt;Node11 -->
<g id="edge10" class="edge"><title>Node3&#45;&gt;Node11</title>
<path fill="none" stroke="midnightblue" d="M957.022,-113.013C960.056,-112.642 963.066,-112.3 966,-112 1252.78,-82.676 1329.04,-102.961 1620.63,-75.9442"/>
<polygon fill="midnightblue" stroke="midnightblue" points="1621.02,-79.423 1630.65,-75.0051 1620.37,-72.4536 1621.02,-79.423"/>
</g>
<!-- Node12 -->
<g id="node12" class="node"><title>Node12</title>
<polygon fill="white" stroke="#bfbfbf" points="808.5,-56.5 808.5,-75.5 899.5,-75.5 899.5,-56.5 808.5,-56.5"/>
<text text-anchor="middle" x="854" y="-63.5" font-family="Helvetica,sans-Serif" font-size="10.00">OgreUTFString.h</text>
</g>
<!-- Node3&#45;&gt;Node12 -->
<g id="edge11" class="edge"><title>Node3&#45;&gt;Node12</title>
<path fill="none" stroke="midnightblue" d="M897.413,-112.083C889.841,-104.22 878.622,-92.5688 869.486,-83.0813"/>
<polygon fill="midnightblue" stroke="midnightblue" points="871.885,-80.5266 862.427,-75.7511 866.842,-85.3821 871.885,-80.5266"/>
</g>
<!-- Node13 -->
<g id="node13" class="node"><title>Node13</title>
<polygon fill="white" stroke="#bfbfbf" points="918,-56.5 918,-75.5 998,-75.5 998,-56.5 918,-56.5"/>
<text text-anchor="middle" x="958" y="-63.5" font-family="Helvetica,sans-Serif" font-size="10.00">OgreVector2.h</text>
</g>
<!-- Node3&#45;&gt;Node13 -->
<g id="edge12" class="edge"><title>Node3&#45;&gt;Node13</title>
<path fill="none" stroke="midnightblue" d="M914.587,-112.083C922.159,-104.22 933.378,-92.5688 942.514,-83.0813"/>
<polygon fill="midnightblue" stroke="midnightblue" points="945.158,-85.3821 949.573,-75.7511 940.115,-80.5266 945.158,-85.3821"/>
</g>
<!-- Node14 -->
<g id="node14" class="node"><title>Node14</title>
<polygon fill="white" stroke="#bfbfbf" points="1016,-56.5 1016,-75.5 1096,-75.5 1096,-56.5 1016,-56.5"/>
<text text-anchor="middle" x="1056" y="-63.5" font-family="Helvetica,sans-Serif" font-size="10.00">OgreVector3.h</text>
</g>
<!-- Node3&#45;&gt;Node14 -->
<g id="edge13" class="edge"><title>Node3&#45;&gt;Node14</title>
<path fill="none" stroke="midnightblue" d="M929.768,-112.444C954.893,-103.399 994.711,-89.064 1022.9,-78.9158"/>
<polygon fill="midnightblue" stroke="midnightblue" points="1024.12,-82.1968 1032.34,-75.5164 1021.75,-75.6106 1024.12,-82.1968"/>
</g>
<!-- Node15 -->
<g id="node15" class="node"><title>Node15</title>
<g id="a_node15"><a xlink:href="_forward_declarations_8h.html" target="_top" xlink:title="Global forward declarations. ">
<polygon fill="white" stroke="black" points="1107.5,-0.5 1107.5,-19.5 1222.5,-19.5 1222.5,-0.5 1107.5,-0.5"/>
<text text-anchor="middle" x="1165" y="-7.5" font-family="Helvetica,sans-Serif" font-size="10.00">ForwardDeclarations.h</text>
</a>
</g>
</g>
<!-- Node3&#45;&gt;Node15 -->
<g id="edge14" class="edge"><title>Node3&#45;&gt;Node15</title>
<path fill="none" stroke="midnightblue" d="M957.206,-112.98C1007.52,-104.473 1080.23,-90.3083 1105,-76 1125.48,-64.1665 1143.04,-43.0415 1153.77,-28.0901"/>
<polygon fill="midnightblue" stroke="midnightblue" points="1156.75,-29.9374 1159.54,-19.7168 1150.99,-25.9662 1156.75,-29.9374"/>
</g>
<!-- Node16 -->
<g id="node16" class="node"><title>Node16</title>
<g id="a_node16"><a xlink:href="_global_environment_8h.html" target="_top" xlink:title="GlobalEnvironment.h">
<polygon fill="white" stroke="black" points="1152.5,-56.5 1152.5,-75.5 1259.5,-75.5 1259.5,-56.5 1152.5,-56.5"/>
<text text-anchor="middle" x="1206" y="-63.5" font-family="Helvetica,sans-Serif" font-size="10.00">GlobalEnvironment.h</text>
</a>
</g>
</g>
<!-- Node3&#45;&gt;Node16 -->
<g id="edge15" class="edge"><title>Node3&#45;&gt;Node16</title>
<path fill="none" stroke="midnightblue" d="M953.536,-112.444C1006.53,-102.905 1092.2,-87.4834 1148.82,-77.293"/>
<polygon fill="midnightblue" stroke="midnightblue" points="1149.46,-80.7327 1158.69,-75.5164 1148.22,-73.8434 1149.46,-80.7327"/>
</g>
<!-- Node17 -->
<g id="node17" class="node"><title>Node17</title>
<g id="a_node17"><a xlink:href="_zeroed_memory_allocator_8h.html" target="_top" xlink:title="ZeroedMemoryAllocator.h">
<polygon fill="white" stroke="black" points="1278,-56.5 1278,-75.5 1406,-75.5 1406,-56.5 1278,-56.5"/>
<text text-anchor="middle" x="1342" y="-63.5" font-family="Helvetica,sans-Serif" font-size="10.00">ZeroedMemoryAllocator.h</text>
</a>
</g>
</g>
<!-- Node3&#45;&gt;Node17 -->
<g id="edge17" class="edge"><title>Node3&#45;&gt;Node17</title>
<path fill="none" stroke="midnightblue" d="M957.048,-113.235C960.076,-112.808 963.077,-112.393 966,-112 1096.83,-94.3947 1132.16,-92.2537 1267.88,-76.0089"/>
<polygon fill="midnightblue" stroke="midnightblue" points="1268.31,-79.4817 1277.83,-74.8144 1267.48,-72.5316 1268.31,-79.4817"/>
</g>
<!-- Node18 -->
<g id="node18" class="node"><title>Node18</title>
<g id="a_node18"><a xlink:href="_bit_flags_8h.html" target="_top" xlink:title="BitFlags.h">
<polygon fill="white" stroke="black" points="1424.5,-56.5 1424.5,-75.5 1485.5,-75.5 1485.5,-56.5 1424.5,-56.5"/>
<text text-anchor="middle" x="1455" y="-63.5" font-family="Helvetica,sans-Serif" font-size="10.00">BitFlags.h</text>
</a>
</g>
</g>
<!-- Node3&#45;&gt;Node18 -->
<g id="edge18" class="edge"><title>Node3&#45;&gt;Node18</title>
<path fill="none" stroke="midnightblue" d="M957.031,-113.101C960.063,-112.708 963.07,-112.337 966,-112 1161.58,-89.5174 1215.3,-105.497 1413.89,-75.9479"/>
<polygon fill="midnightblue" stroke="midnightblue" points="1414.71,-79.3644 1424.07,-74.4121 1413.66,-72.4427 1414.71,-79.3644"/>
</g>
<!-- Node20 -->
<g id="node20" class="node"><title>Node20</title>
<polygon fill="white" stroke="#bfbfbf" points="1503.5,-56.5 1503.5,-75.5 1612.5,-75.5 1612.5,-56.5 1503.5,-56.5"/>
<text text-anchor="middle" x="1558" y="-63.5" font-family="Helvetica,sans-Serif" font-size="10.00">MyGUI_Prerequest.h</text>
</g>
<!-- Node3&#45;&gt;Node20 -->
<g id="edge20" class="edge"><title>Node3&#45;&gt;Node20</title>
<path fill="none" stroke="midnightblue" d="M957.027,-113.059C960.06,-112.676 963.068,-112.319 966,-112 1196.52,-86.8941 1258.32,-100.008 1493,-76.0233"/>
<polygon fill="midnightblue" stroke="midnightblue" points="1493.63,-79.4765 1503.22,-74.9666 1492.91,-72.5136 1493.63,-79.4765"/>
</g>
<!-- Node16&#45;&gt;Node15 -->
<g id="edge16" class="edge"><title>Node16&#45;&gt;Node15</title>
<path fill="none" stroke="midnightblue" d="M1199.23,-56.083C1193.44,-48.4554 1184.94,-37.2645 1177.86,-27.9408"/>
<polygon fill="midnightblue" stroke="midnightblue" points="1180.48,-25.5991 1171.64,-19.7511 1174.9,-29.8321 1180.48,-25.5991"/>
</g>
<!-- Node19 -->
<g id="node19" class="node"><title>Node19</title>
<polygon fill="white" stroke="#bfbfbf" points="1432,-0.5 1432,-19.5 1478,-19.5 1478,-0.5 1432,-0.5"/>
<text text-anchor="middle" x="1455" y="-7.5" font-family="Helvetica,sans-Serif" font-size="10.00">cstdint</text>
</g>
<!-- Node18&#45;&gt;Node19 -->
<g id="edge19" class="edge"><title>Node18&#45;&gt;Node19</title>
<path fill="none" stroke="midnightblue" d="M1455,-56.083C1455,-49.0059 1455,-38.8611 1455,-29.9865"/>
<polygon fill="midnightblue" stroke="midnightblue" points="1458.5,-29.751 1455,-19.7511 1451.5,-29.7511 1458.5,-29.751"/>
</g>
</g>
</svg>
        <g id="navigator" transform="translate(0 0)" fill="#404254">
                <rect fill="#f2f5e9" fill-opacity="0.5" stroke="#606060" stroke-width=".5" x="0" y="0" width="60" height="60"/>
                <use id="zoomplus" xlink:href="#zoomPlus" x="17" y="9" onmousedown="handleZoom(evt,'in')"/>
                <use id="zoomminus" xlink:href="#zoomMin" x="42" y="9" onmousedown="handleZoom(evt,'out')"/>
                <use id="reset" xlink:href="#resetDef" x="30" y="36" onmousedown="handleReset()"/>
                <g id="arrowUp" xlink:href="#dirArrow" transform="translate(30 24)" onmousedown="handlePan(0,-1)">
                  <use xlink:href="#rim" fill="#404040">
                        <set attributeName="fill" to="#808080" begin="arrowUp.mouseover" end="arrowUp.mouseout"/>
                  </use>
                  <path fill="none" stroke="white" stroke-width="1.5" d="M0,-3.0v7 M-2.5,-0.5L0,-3.0L2.5,-0.5"/>
                </g>
                <g id="arrowRight" xlink:href="#dirArrow" transform="rotate(90) translate(36 -43)" onmousedown="handlePan(1,0)">
                  <use xlink:href="#rim" fill="#404040">
                        <set attributeName="fill" to="#808080" begin="arrowRight.mouseover" end="arrowRight.mouseout"/>
                  </use>
                  <path fill="none" stroke="white" stroke-width="1.5" d="M0,-3.0v7 M-2.5,-0.5L0,-3.0L2.5,-0.5"/>
                </g>
                <g id="arrowDown" xlink:href="#dirArrow" transform="rotate(180) translate(-30 -48)" onmousedown="handlePan(0,1)">
                  <use xlink:href="#rim" fill="#404040">
                        <set attributeName="fill" to="#808080" begin="arrowDown.mouseover" end="arrowDown.mouseout"/>
                  </use>
                  <path fill="none" stroke="white" stroke-width="1.5" d="M0,-3.0v7 M-2.5,-0.5L0,-3.0L2.5,-0.5"/>
                </g>
                <g id="arrowLeft" xlink:href="#dirArrow" transform="rotate(270) translate(-36 17)" onmousedown="handlePan(-1,0)">
                  <use xlink:href="#rim" fill="#404040">
                        <set attributeName="fill" to="#808080" begin="arrowLeft.mouseover" end="arrowLeft.mouseout"/>
                  </use>
                  <path fill="none" stroke="white" stroke-width="1.5" d="M0,-3.0v7 M-2.5,-0.5L0,-3.0L2.5,-0.5"/>
                </g>
        </g>
        <svg viewBox="0 0 15 15" width="100%" height="30px" preserveAspectRatio="xMaxYMin meet">
         <g id="arrow_out" transform="scale(0.3 0.3)">
          <a xlink:href="_collision_tools_8cpp__incl_org.svg" target="_base">
           <rect id="button" ry="5" rx="5" y="6" x="6" height="38" width="38"
                fill="#f2f5e9" fill-opacity="0.5" stroke="#606060" stroke-width="1.0"/>
           <path id="arrow"
             d="M 11.500037,31.436501 C 11.940474,20.09759 22.043105,11.32322 32.158766,21.979434 L 37.068811,17.246167 C 37.068811,17.246167 37.088388,32 37.088388,32 L 22.160133,31.978069 C 22.160133,31.978069 26.997745,27.140456 26.997745,27.140456 C 18.528582,18.264221 13.291696,25.230495 11.500037,31.436501 z"
             style="fill:#404040;"/>
          </a>
         </g>
        </svg>
</svg>
