<?xml version="1.0" encoding="UTF-8" standalone="no"?>
<!DOCTYPE svg PUBLIC "-//W3C//DTD SVG 1.1//EN"
 "http://www.w3.org/Graphics/SVG/1.1/DTD/svg11.dtd">
<!-- Generated by graphviz version 2.36.0 (20140111.2315)
 -->
<!-- Title: source/main/utils/ConfigFile.h Pages: 1 -->
<!--zoomable 244 -->
<svg id="main" version="1.1" xmlns="http://www.w3.org/2000/svg" xmlns:xlink="http://www.w3.org/1999/xlink" xml:space="preserve" onload="init(evt)">
<style type="text/css"><![CDATA[
.edge:hover path { stroke: red; }
.edge:hover polygon { stroke: red; fill: red; }
]]></style>
<script type="text/javascript"><![CDATA[
var edges = document.getElementsByTagName('g');
if (edges && edges.length) {
  for (var i=0;i<edges.length;i++) {
    if (edges[i].id.substr(0,4)=='edge') {
      edges[i].setAttribute('class','edge');
    }
  }
}
]]></script>
        <defs>
                <circle id="rim" cx="0" cy="0" r="7"/>
                <circle id="rim2" cx="0" cy="0" r="3.5"/>
                <g id="zoomPlus">
                        <use xlink:href="#rim" fill="#404040">
                                <set attributeName="fill" to="#808080" begin="zoomplus.mouseover" end="zoomplus.mouseout"/>
                        </use>
                        <path d="M-4,0h8M0,-4v8" fill="none" stroke="white" stroke-width="1.5" pointer-events="none"/>
                </g>
                <g id="zoomMin">
                        <use xlink:href="#rim" fill="#404040">
                                <set attributeName="fill" to="#808080" begin="zoomminus.mouseover" end="zoomminus.mouseout"/>
                        </use>
                        <path d="M-4,0h8" fill="none" stroke="white" stroke-width="1.5" pointer-events="none"/>
                </g>
                <g id="dirArrow">
                        <path fill="none" stroke="white" stroke-width="1.5" d="M0,-3.0v7 M-2.5,-0.5L0,-3.0L2.5,-0.5"/>
                </g>
               <g id="resetDef">
                       <use xlink:href="#rim2" fill="#404040">
                               <set attributeName="fill" to="#808080" begin="reset.mouseover" end="reset.mouseout"/>
                       </use>
               </g>
        </defs>

<script type="text/javascript">
var viewWidth = 1244;
var viewHeight = 244;
var sectionId = 'dynsection-1';
</script>
<script xlink:href="svgpan.js"/>
<svg id="graph" class="graph">
<g id="viewport">
<title>source/main/utils/ConfigFile.h</title>
<polygon fill="white" stroke="none" points="-4,4 -4,-240 1240,-240 1240,4 -4,4"/>
<!-- Node1 -->
<g id="node1" class="node"><title>Node1</title>
<polygon fill="#bfbfbf" stroke="black" points="721,-205 721,-235 843,-235 843,-205 721,-205"/>
<text text-anchor="start" x="729" y="-223" font-family="Helvetica,sans-Serif" font-size="10.00">source/main/utils/Config</text>
<text text-anchor="middle" x="782" y="-212" font-family="Helvetica,sans-Serif" font-size="10.00">File.h</text>
</g>
<!-- Node2 -->
<g id="node2" class="node"><title>Node2</title>
<g id="a_node2"><a xlink:href="_g_u_i___game_settings_8h.html" target="_top" xlink:title="source/main/gui/panels\l/GUI_GameSettings.h">
<polygon fill="white" stroke="black" points="266.5,-137 266.5,-167 383.5,-167 383.5,-137 266.5,-137"/>
<text text-anchor="start" x="274.5" y="-155" font-family="Helvetica,sans-Serif" font-size="10.00">source/main/gui/panels</text>
<text text-anchor="middle" x="325" y="-144" font-family="Helvetica,sans-Serif" font-size="10.00">/GUI_GameSettings.h</text>
</a>
</g>
</g>
<!-- Node1&#45;&gt;Node2 -->
<g id="edge1" class="edge"><title>Node1&#45;&gt;Node2</title>
<path fill="none" stroke="midnightblue" d="M710.715,-208.705C620.627,-195.695 467.258,-173.545 383.628,-161.467"/>
<polygon fill="midnightblue" stroke="midnightblue" points="710.444,-212.202 720.841,-210.167 711.444,-205.274 710.444,-212.202"/>
</g>
<!-- Node9 -->
<g id="node9" class="node"><title>Node9</title>
<g id="a_node9"><a xlink:href="_terrn2_fileformat_8cpp.html" target="_top" xlink:title="source/main/resources\l/terrn2_fileformat/Terrn2Fileformat.cpp">
<polygon fill="white" stroke="black" points="690.5,-137 690.5,-167 873.5,-167 873.5,-137 690.5,-137"/>
<text text-anchor="start" x="698.5" y="-155" font-family="Helvetica,sans-Serif" font-size="10.00">source/main/resources</text>
<text text-anchor="middle" x="782" y="-144" font-family="Helvetica,sans-Serif" font-size="10.00">/terrn2_fileformat/Terrn2Fileformat.cpp</text>
</a>
</g>
</g>
<!-- Node1&#45;&gt;Node9 -->
<g id="edge11" class="edge"><title>Node1&#45;&gt;Node9</title>
<path fill="none" stroke="midnightblue" d="M782,-194.532C782,-185.361 782,-175.245 782,-167.293"/>
<polygon fill="midnightblue" stroke="midnightblue" points="778.5,-194.679 782,-204.679 785.5,-194.679 778.5,-194.679"/>
</g>
<!-- Node10 -->
<g id="node10" class="node"><title>Node10</title>
<g id="a_node10"><a xlink:href="_terrain_geometry_manager_8h.html" target="_top" xlink:title="source/main/terrain\l/TerrainGeometryManager.h">
<polygon fill="white" stroke="black" points="892,-137 892,-167 1030,-167 1030,-137 892,-137"/>
<text text-anchor="start" x="900" y="-155" font-family="Helvetica,sans-Serif" font-size="10.00">source/main/terrain</text>
<text text-anchor="middle" x="961" y="-144" font-family="Helvetica,sans-Serif" font-size="10.00">/TerrainGeometryManager.h</text>
</a>
</g>
</g>
<!-- Node1&#45;&gt;Node10 -->
<g id="edge12" class="edge"><title>Node1&#45;&gt;Node10</title>
<path fill="none" stroke="midnightblue" d="M829.972,-201.312C859.125,-190.563 895.831,-177.029 922.971,-167.022"/>
<polygon fill="midnightblue" stroke="midnightblue" points="828.572,-198.098 820.4,-204.841 830.993,-204.666 828.572,-198.098"/>
</g>
<!-- Node14 -->
<g id="node14" class="node"><title>Node14</title>
<g id="a_node14"><a xlink:href="_config_file_8cpp.html" target="_top" xlink:title="source/main/utils/Config\lFile.cpp">
<polygon fill="white" stroke="black" points="1048,-137 1048,-167 1170,-167 1170,-137 1048,-137"/>
<text text-anchor="start" x="1056" y="-155" font-family="Helvetica,sans-Serif" font-size="10.00">source/main/utils/Config</text>
<text text-anchor="middle" x="1109" y="-144" font-family="Helvetica,sans-Serif" font-size="10.00">File.cpp</text>
</a>
</g>
</g>
<!-- Node1&#45;&gt;Node14 -->
<g id="edge16" class="edge"><title>Node1&#45;&gt;Node14</title>
<path fill="none" stroke="midnightblue" d="M853.118,-205.188C904.744,-195.089 976.248,-180.949 1039,-168 1041.92,-167.397 1044.91,-166.776 1047.93,-166.144"/>
<polygon fill="midnightblue" stroke="midnightblue" points="852.209,-201.8 843.066,-207.153 853.552,-208.67 852.209,-201.8"/>
</g>
<!-- Node15 -->
<g id="node15" class="node"><title>Node15</title>
<g id="a_node15"><a xlink:href="_improved_config_file_8h.html" target="_top" xlink:title="source/main/utils/Improved\lConfigFile.h">
<polygon fill="white" stroke="black" points="538,-137 538,-167 672,-167 672,-137 538,-137"/>
<text text-anchor="start" x="546" y="-155" font-family="Helvetica,sans-Serif" font-size="10.00">source/main/utils/Improved</text>
<text text-anchor="middle" x="605" y="-144" font-family="Helvetica,sans-Serif" font-size="10.00">ConfigFile.h</text>
</a>
</g>
</g>
<!-- Node1&#45;&gt;Node15 -->
<g id="edge17" class="edge"><title>Node1&#45;&gt;Node15</title>
<path fill="none" stroke="midnightblue" d="M734.564,-201.312C705.736,-190.563 669.441,-177.029 642.604,-167.022"/>
<polygon fill="midnightblue" stroke="midnightblue" points="733.436,-204.627 744.029,-204.841 735.882,-198.068 733.436,-204.627"/>
</g>
<!-- Node2&#45;&gt;Node2 -->
<g id="edge6" class="edge"><title>Node2&#45;&gt;Node2</title>
<path fill="none" stroke="midnightblue" d="M393.281,-161.309C398.076,-159.187 401,-156.084 401,-152 401,-145.625 393.875,-141.641 383.633,-140.047"/>
<polygon fill="midnightblue" stroke="midnightblue" points="392.352,-157.934 383.633,-163.953 394.202,-164.685 392.352,-157.934"/>
</g>
<!-- Node3 -->
<g id="node3" class="node"><title>Node3</title>
<g id="a_node3"><a xlink:href="_g_u_i_manager_8cpp.html" target="_top" xlink:title="source/main/gui/GUIManager.cpp">
<polygon fill="white" stroke="black" points="150.5,-6.5 150.5,-25.5 313.5,-25.5 313.5,-6.5 150.5,-6.5"/>
<text text-anchor="middle" x="232" y="-13.5" font-family="Helvetica,sans-Serif" font-size="10.00">source/main/gui/GUIManager.cpp</text>
</a>
</g>
</g>
<!-- Node2&#45;&gt;Node3 -->
<g id="edge2" class="edge"><title>Node2&#45;&gt;Node3</title>
<path fill="none" stroke="midnightblue" d="M285.789,-131.634C272.952,-123.504 259.756,-112.903 251,-100 235.063,-76.5143 232.344,-41.5697 231.981,-25.5652"/>
<polygon fill="midnightblue" stroke="midnightblue" points="284.178,-134.748 294.559,-136.866 287.764,-128.737 284.178,-134.748"/>
</g>
<!-- Node4 -->
<g id="node4" class="node"><title>Node4</title>
<g id="a_node4"><a xlink:href="_g_u_i___game_main_menu_8h.html" target="_top" xlink:title="source/main/gui/panels\l/GUI_GameMainMenu.h">
<polygon fill="white" stroke="black" points="82,-69 82,-99 204,-99 204,-69 82,-69"/>
<text text-anchor="start" x="90" y="-87" font-family="Helvetica,sans-Serif" font-size="10.00">source/main/gui/panels</text>
<text text-anchor="middle" x="143" y="-76" font-family="Helvetica,sans-Serif" font-size="10.00">/GUI_GameMainMenu.h</text>
</a>
</g>
</g>
<!-- Node2&#45;&gt;Node4 -->
<g id="edge3" class="edge"><title>Node2&#45;&gt;Node4</title>
<path fill="none" stroke="midnightblue" d="M276.224,-133.312C246.582,-122.563 209.261,-109.029 181.666,-99.0218"/>
<polygon fill="midnightblue" stroke="midnightblue" points="275.362,-136.722 285.956,-136.841 277.749,-130.142 275.362,-136.722"/>
</g>
<!-- Node6 -->
<g id="node6" class="node"><title>Node6</title>
<g id="a_node6"><a xlink:href="_g_u_i___game_pause_menu_8h.html" target="_top" xlink:title="source/main/gui/panels\l/GUI_GamePauseMenu.h">
<polygon fill="white" stroke="black" points="260.5,-69 260.5,-99 389.5,-99 389.5,-69 260.5,-69"/>
<text text-anchor="start" x="268.5" y="-87" font-family="Helvetica,sans-Serif" font-size="10.00">source/main/gui/panels</text>
<text text-anchor="middle" x="325" y="-76" font-family="Helvetica,sans-Serif" font-size="10.00">/GUI_GamePauseMenu.h</text>
</a>
</g>
</g>
<!-- Node2&#45;&gt;Node6 -->
<g id="edge7" class="edge"><title>Node2&#45;&gt;Node6</title>
<path fill="none" stroke="midnightblue" d="M325,-126.532C325,-117.361 325,-107.245 325,-99.2931"/>
<polygon fill="midnightblue" stroke="midnightblue" points="321.5,-126.679 325,-136.679 328.5,-126.679 321.5,-126.679"/>
</g>
<!-- Node8 -->
<g id="node8" class="node"><title>Node8</title>
<g id="a_node8"><a xlink:href="_g_u_i___game_settings_8cpp.html" target="_top" xlink:title="source/main/gui/panels\l/GUI_GameSettings.cpp">
<polygon fill="white" stroke="black" points="408,-69 408,-99 532,-99 532,-69 408,-69"/>
<text text-anchor="start" x="416" y="-87" font-family="Helvetica,sans-Serif" font-size="10.00">source/main/gui/panels</text>
<text text-anchor="middle" x="470" y="-76" font-family="Helvetica,sans-Serif" font-size="10.00">/GUI_GameSettings.cpp</text>
</a>
</g>
</g>
<!-- Node2&#45;&gt;Node8 -->
<g id="edge10" class="edge"><title>Node2&#45;&gt;Node8</title>
<path fill="none" stroke="midnightblue" d="M365.409,-132.607C388.765,-121.976 417.688,-108.811 439.194,-99.0218"/>
<polygon fill="midnightblue" stroke="midnightblue" points="363.758,-129.513 356.106,-136.841 366.658,-135.884 363.758,-129.513"/>
</g>
<!-- Node4&#45;&gt;Node3 -->
<g id="edge4" class="edge"><title>Node4&#45;&gt;Node3</title>
<path fill="none" stroke="midnightblue" d="M170.651,-62.495C187.363,-50.1014 207.796,-34.9491 220.352,-25.6379"/>
<polygon fill="midnightblue" stroke="midnightblue" points="168.259,-59.911 162.312,-68.679 172.429,-65.5337 168.259,-59.911"/>
</g>
<!-- Node5 -->
<g id="node5" class="node"><title>Node5</title>
<g id="a_node5"><a xlink:href="_g_u_i___game_main_menu_8cpp.html" target="_top" xlink:title="source/main/gui/panels\l/GUI_GameMainMenu.cpp">
<polygon fill="white" stroke="black" points="-0.5,-1 -0.5,-31 132.5,-31 132.5,-1 -0.5,-1"/>
<text text-anchor="start" x="7.5" y="-19" font-family="Helvetica,sans-Serif" font-size="10.00">source/main/gui/panels</text>
<text text-anchor="middle" x="66" y="-8" font-family="Helvetica,sans-Serif" font-size="10.00">/GUI_GameMainMenu.cpp</text>
</a>
</g>
</g>
<!-- Node4&#45;&gt;Node5 -->
<g id="edge5" class="edge"><title>Node4&#45;&gt;Node5</title>
<path fill="none" stroke="midnightblue" d="M118.522,-62.0184C106.734,-51.9145 92.9146,-40.0696 82.4107,-31.0663"/>
<polygon fill="midnightblue" stroke="midnightblue" points="116.422,-64.8284 126.292,-68.679 120.977,-59.5136 116.422,-64.8284"/>
</g>
<!-- Node6&#45;&gt;Node3 -->
<g id="edge8" class="edge"><title>Node6&#45;&gt;Node3</title>
<path fill="none" stroke="midnightblue" d="M296.586,-62.8354C279.035,-50.3799 257.412,-35.0346 244.172,-25.6379"/>
<polygon fill="midnightblue" stroke="midnightblue" points="294.64,-65.7458 304.82,-68.679 298.691,-60.0372 294.64,-65.7458"/>
</g>
<!-- Node7 -->
<g id="node7" class="node"><title>Node7</title>
<g id="a_node7"><a xlink:href="_g_u_i___game_pause_menu_8cpp.html" target="_top" xlink:title="source/main/gui/panels\l/GUI_GamePauseMenu.cpp">
<polygon fill="white" stroke="black" points="332,-1 332,-31 472,-31 472,-1 332,-1"/>
<text text-anchor="start" x="340" y="-19" font-family="Helvetica,sans-Serif" font-size="10.00">source/main/gui/panels</text>
<text text-anchor="middle" x="402" y="-8" font-family="Helvetica,sans-Serif" font-size="10.00">/GUI_GamePauseMenu.cpp</text>
</a>
</g>
</g>
<!-- Node6&#45;&gt;Node7 -->
<g id="edge9" class="edge"><title>Node6&#45;&gt;Node7</title>
<path fill="none" stroke="midnightblue" d="M349.478,-62.0184C361.266,-51.9145 375.085,-40.0696 385.589,-31.0663"/>
<polygon fill="midnightblue" stroke="midnightblue" points="347.023,-59.5136 341.708,-68.679 351.578,-64.8284 347.023,-59.5136"/>
</g>
<!-- Node11 -->
<g id="node11" class="node"><title>Node11</title>
<g id="a_node11"><a xlink:href="_terrain_geometry_manager_8cpp.html" target="_top" xlink:title="source/main/terrain\l/TerrainGeometryManager.cpp">
<polygon fill="white" stroke="black" points="811.5,-69 811.5,-99 960.5,-99 960.5,-69 811.5,-69"/>
<text text-anchor="start" x="819.5" y="-87" font-family="Helvetica,sans-Serif" font-size="10.00">source/main/terrain</text>
<text text-anchor="middle" x="886" y="-76" font-family="Helvetica,sans-Serif" font-size="10.00">/TerrainGeometryManager.cpp</text>
</a>
</g>
</g>
<!-- Node10&#45;&gt;Node11 -->
<g id="edge13" class="edge"><title>Node10&#45;&gt;Node11</title>
<path fill="none" stroke="midnightblue" d="M937.157,-130.018C925.676,-119.915 912.215,-108.07 901.984,-99.0663"/>
<polygon fill="midnightblue" stroke="midnightblue" points="934.907,-132.7 944.726,-136.679 939.531,-127.445 934.907,-132.7"/>
</g>
<!-- Node12 -->
<g id="node12" class="node"><title>Node12</title>
<g id="a_node12"><a xlink:href="_terrain_manager_8cpp.html" target="_top" xlink:title="source/main/terrain\l/TerrainManager.cpp">
<polygon fill="white" stroke="black" points="978,-69 978,-99 1084,-99 1084,-69 978,-69"/>
<text text-anchor="start" x="986" y="-87" font-family="Helvetica,sans-Serif" font-size="10.00">source/main/terrain</text>
<text text-anchor="middle" x="1031" y="-76" font-family="Helvetica,sans-Serif" font-size="10.00">/TerrainManager.cpp</text>
</a>
</g>
</g>
<!-- Node10&#45;&gt;Node12 -->
<g id="edge14" class="edge"><title>Node10&#45;&gt;Node12</title>
<path fill="none" stroke="midnightblue" d="M983.51,-129.776C994.08,-119.81 1006.4,-108.196 1015.84,-99.2931"/>
<polygon fill="midnightblue" stroke="midnightblue" points="981.064,-127.272 976.189,-136.679 985.866,-132.365 981.064,-127.272"/>
</g>
<!-- Node13 -->
<g id="node13" class="node"><title>Node13</title>
<g id="a_node13"><a xlink:href="_terrain_object_manager_8cpp.html" target="_top" xlink:title="source/main/terrain\l/TerrainObjectManager.cpp">
<polygon fill="white" stroke="black" points="1102,-69 1102,-99 1236,-99 1236,-69 1102,-69"/>
<text text-anchor="start" x="1110" y="-87" font-family="Helvetica,sans-Serif" font-size="10.00">source/main/terrain</text>
<text text-anchor="middle" x="1169" y="-76" font-family="Helvetica,sans-Serif" font-size="10.00">/TerrainObjectManager.cpp</text>
</a>
</g>
</g>
<!-- Node10&#45;&gt;Node13 -->
<g id="edge15" class="edge"><title>Node10&#45;&gt;Node13</title>
<path fill="none" stroke="midnightblue" d="M1015.17,-133.813C1049.25,-122.998 1092.68,-109.216 1124.7,-99.0561"/>
<polygon fill="midnightblue" stroke="midnightblue" points="1013.84,-130.562 1005.37,-136.922 1015.96,-137.234 1013.84,-130.562"/>
</g>
<!-- Node15&#45;&gt;Node8 -->
<g id="edge18" class="edge"><title>Node15&#45;&gt;Node8</title>
<path fill="none" stroke="midnightblue" d="M566.829,-132.339C545.265,-121.796 518.744,-108.83 498.913,-99.1352"/>
<polygon fill="midnightblue" stroke="midnightblue" points="565.518,-135.594 576.039,-136.841 568.593,-129.305 565.518,-135.594"/>
</g>
<!-- Node16 -->
<g id="node16" class="node"><title>Node16</title>
<g id="a_node16"><a xlink:href="_cache_system_8cpp.html" target="_top" xlink:title="source/main/resources\l/CacheSystem.cpp">
<polygon fill="white" stroke="black" points="678,-69 678,-99 794,-99 794,-69 678,-69"/>
<text text-anchor="start" x="686" y="-87" font-family="Helvetica,sans-Serif" font-size="10.00">source/main/resources</text>
<text text-anchor="middle" x="736" y="-76" font-family="Helvetica,sans-Serif" font-size="10.00">/CacheSystem.cpp</text>
</a>
</g>
</g>
<!-- Node15&#45;&gt;Node16 -->
<g id="edge19" class="edge"><title>Node15&#45;&gt;Node16</title>
<path fill="none" stroke="midnightblue" d="M642.04,-132.339C662.965,-121.796 688.7,-108.83 707.944,-99.1352"/>
<polygon fill="midnightblue" stroke="midnightblue" points="640.459,-129.216 633.103,-136.841 643.608,-135.468 640.459,-129.216"/>
</g>
<!-- Node17 -->
<g id="node17" class="node"><title>Node17</title>
<g id="a_node17"><a xlink:href="_local_storage_8h.html" target="_top" xlink:title="source/main/scripting\l/LocalStorage.h">
<polygon fill="white" stroke="black" points="550,-69 550,-99 660,-99 660,-69 550,-69"/>
<text text-anchor="start" x="558" y="-87" font-family="Helvetica,sans-Serif" font-size="10.00">source/main/scripting</text>
<text text-anchor="middle" x="605" y="-76" font-family="Helvetica,sans-Serif" font-size="10.00">/LocalStorage.h</text>
</a>
</g>
</g>
<!-- Node15&#45;&gt;Node17 -->
<g id="edge20" class="edge"><title>Node15&#45;&gt;Node17</title>
<path fill="none" stroke="midnightblue" d="M605,-126.532C605,-117.361 605,-107.245 605,-99.2931"/>
<polygon fill="midnightblue" stroke="midnightblue" points="601.5,-126.679 605,-136.679 608.5,-126.679 601.5,-126.679"/>
</g>
<!-- Node18 -->
<g id="node18" class="node"><title>Node18</title>
<g id="a_node18"><a xlink:href="_local_storage_8cpp.html" target="_top" xlink:title="source/main/scripting\l/LocalStorage.cpp">
<polygon fill="white" stroke="black" points="648,-1 648,-31 758,-31 758,-1 648,-1"/>
<text text-anchor="start" x="656" y="-19" font-family="Helvetica,sans-Serif" font-size="10.00">source/main/scripting</text>
<text text-anchor="middle" x="703" y="-8" font-family="Helvetica,sans-Serif" font-size="10.00">/LocalStorage.cpp</text>
</a>
</g>
</g>
<!-- Node17&#45;&gt;Node18 -->
<g id="edge21" class="edge"><title>Node17&#45;&gt;Node18</title>
<path fill="none" stroke="midnightblue" d="M634.863,-62.8884C650.139,-52.6003 668.359,-40.3293 682.114,-31.0663"/>
<polygon fill="midnightblue" stroke="midnightblue" points="632.604,-60.1899 626.265,-68.679 636.514,-65.996 632.604,-60.1899"/>
</g>
<!-- Node19 -->
<g id="node19" class="node"><title>Node19</title>
<g id="a_node19"><a xlink:href="_script_engine_8cpp.html" target="_top" xlink:title="source/main/scripting\l/ScriptEngine.cpp">
<polygon fill="white" stroke="black" points="520,-1 520,-31 630,-31 630,-1 520,-1"/>
<text text-anchor="start" x="528" y="-19" font-family="Helvetica,sans-Serif" font-size="10.00">source/main/scripting</text>
<text text-anchor="middle" x="575" y="-8" font-family="Helvetica,sans-Serif" font-size="10.00">/ScriptEngine.cpp</text>
</a>
</g>
</g>
<!-- Node17&#45;&gt;Node19 -->
<g id="edge22" class="edge"><title>Node17&#45;&gt;Node19</title>
<path fill="none" stroke="midnightblue" d="M594.285,-59.4263C590.01,-50.0226 585.229,-39.5042 581.497,-31.2931"/>
<polygon fill="midnightblue" stroke="midnightblue" points="591.166,-61.0236 598.49,-68.679 597.539,-58.127 591.166,-61.0236"/>
</g>
</g>
</svg>
        <g id="navigator" transform="translate(0 0)" fill="#404254">
                <rect fill="#f2f5e9" fill-opacity="0.5" stroke="#606060" stroke-width=".5" x="0" y="0" width="60" height="60"/>
                <use id="zoomplus" xlink:href="#zoomPlus" x="17" y="9" onmousedown="handleZoom(evt,'in')"/>
                <use id="zoomminus" xlink:href="#zoomMin" x="42" y="9" onmousedown="handleZoom(evt,'out')"/>
                <use id="reset" xlink:href="#resetDef" x="30" y="36" onmousedown="handleReset()"/>
                <g id="arrowUp" xlink:href="#dirArrow" transform="translate(30 24)" onmousedown="handlePan(0,-1)">
                  <use xlink:href="#rim" fill="#404040">
                        <set attributeName="fill" to="#808080" begin="arrowUp.mouseover" end="arrowUp.mouseout"/>
                  </use>
                  <path fill="none" stroke="white" stroke-width="1.5" d="M0,-3.0v7 M-2.5,-0.5L0,-3.0L2.5,-0.5"/>
                </g>
                <g id="arrowRight" xlink:href="#dirArrow" transform="rotate(90) translate(36 -43)" onmousedown="handlePan(1,0)">
                  <use xlink:href="#rim" fill="#404040">
                        <set attributeName="fill" to="#808080" begin="arrowRight.mouseover" end="arrowRight.mouseout"/>
                  </use>
                  <path fill="none" stroke="white" stroke-width="1.5" d="M0,-3.0v7 M-2.5,-0.5L0,-3.0L2.5,-0.5"/>
                </g>
                <g id="arrowDown" xlink:href="#dirArrow" transform="rotate(180) translate(-30 -48)" onmousedown="handlePan(0,1)">
                  <use xlink:href="#rim" fill="#404040">
                        <set attributeName="fill" to="#808080" begin="arrowDown.mouseover" end="arrowDown.mouseout"/>
                  </use>
                  <path fill="none" stroke="white" stroke-width="1.5" d="M0,-3.0v7 M-2.5,-0.5L0,-3.0L2.5,-0.5"/>
                </g>
                <g id="arrowLeft" xlink:href="#dirArrow" transform="rotate(270) translate(-36 17)" onmousedown="handlePan(-1,0)">
                  <use xlink:href="#rim" fill="#404040">
                        <set attributeName="fill" to="#808080" begin="arrowLeft.mouseover" end="arrowLeft.mouseout"/>
                  </use>
                  <path fill="none" stroke="white" stroke-width="1.5" d="M0,-3.0v7 M-2.5,-0.5L0,-3.0L2.5,-0.5"/>
                </g>
        </g>
        <svg viewBox="0 0 15 15" width="100%" height="30px" preserveAspectRatio="xMaxYMin meet">
         <g id="arrow_out" transform="scale(0.3 0.3)">
          <a xlink:href="_config_file_8h__dep__incl_org.svg" target="_base">
           <rect id="button" ry="5" rx="5" y="6" x="6" height="38" width="38"
                fill="#f2f5e9" fill-opacity="0.5" stroke="#606060" stroke-width="1.0"/>
           <path id="arrow"
             d="M 11.500037,31.436501 C 11.940474,20.09759 22.043105,11.32322 32.158766,21.979434 L 37.068811,17.246167 C 37.068811,17.246167 37.088388,32 37.088388,32 L 22.160133,31.978069 C 22.160133,31.978069 26.997745,27.140456 26.997745,27.140456 C 18.528582,18.264221 13.291696,25.230495 11.500037,31.436501 z"
             style="fill:#404040;"/>
          </a>
         </g>
        </svg>
</svg>
