<?xml version="1.0" encoding="UTF-8" standalone="no"?>
<!DOCTYPE svg PUBLIC "-//W3C//DTD SVG 1.1//EN"
 "http://www.w3.org/Graphics/SVG/1.1/DTD/svg11.dtd">
<!-- Generated by graphviz version 2.36.0 (20140111.2315)
 -->
<!-- Title: source/main/resources/ContentManager.h Pages: 1 -->
<!--zoomable 264 -->
<svg id="main" version="1.1" xmlns="http://www.w3.org/2000/svg" xmlns:xlink="http://www.w3.org/1999/xlink" xml:space="preserve" onload="init(evt)">
<style type="text/css"><![CDATA[
.edge:hover path { stroke: red; }
.edge:hover polygon { stroke: red; fill: red; }
]]></style>
<script type="text/javascript"><![CDATA[
var edges = document.getElementsByTagName('g');
if (edges && edges.length) {
  for (var i=0;i<edges.length;i++) {
    if (edges[i].id.substr(0,4)=='edge') {
      edges[i].setAttribute('class','edge');
    }
  }
}
]]></script>
        <defs>
                <circle id="rim" cx="0" cy="0" r="7"/>
                <circle id="rim2" cx="0" cy="0" r="3.5"/>
                <g id="zoomPlus">
                        <use xlink:href="#rim" fill="#404040">
                                <set attributeName="fill" to="#808080" begin="zoomplus.mouseover" end="zoomplus.mouseout"/>
                        </use>
                        <path d="M-4,0h8M0,-4v8" fill="none" stroke="white" stroke-width="1.5" pointer-events="none"/>
                </g>
                <g id="zoomMin">
                        <use xlink:href="#rim" fill="#404040">
                                <set attributeName="fill" to="#808080" begin="zoomminus.mouseover" end="zoomminus.mouseout"/>
                        </use>
                        <path d="M-4,0h8" fill="none" stroke="white" stroke-width="1.5" pointer-events="none"/>
                </g>
                <g id="dirArrow">
                        <path fill="none" stroke="white" stroke-width="1.5" d="M0,-3.0v7 M-2.5,-0.5L0,-3.0L2.5,-0.5"/>
                </g>
               <g id="resetDef">
                       <use xlink:href="#rim2" fill="#404040">
                               <set attributeName="fill" to="#808080" begin="reset.mouseover" end="reset.mouseout"/>
                       </use>
               </g>
        </defs>

<script type="text/javascript">
var viewWidth = 1753;
var viewHeight = 264;
var sectionId = 'dynsection-0';
</script>
<script xlink:href="svgpan.js"/>
<svg id="graph" class="graph">
<g id="viewport">
<title>source/main/resources/ContentManager.h</title>
<polygon fill="white" stroke="none" points="-4,4 -4,-260 1749,-260 1749,4 -4,4"/>
<!-- Node1 -->
<g id="node1" class="node"><title>Node1</title>
<polygon fill="#bfbfbf" stroke="black" points="745,-225 745,-255 861,-255 861,-225 745,-225"/>
<text text-anchor="start" x="753" y="-243" font-family="Helvetica,sans-Serif" font-size="10.00">source/main/resources</text>
<text text-anchor="middle" x="803" y="-232" font-family="Helvetica,sans-Serif" font-size="10.00">/ContentManager.h</text>
</g>
<!-- Node2 -->
<g id="node2" class="node"><title>Node2</title>
<g id="a_node2"><a xlink:href="_bit_flags_8h.html" target="_top" xlink:title="BitFlags.h">
<polygon fill="white" stroke="black" points="-0.5,-56.5 -0.5,-75.5 60.5,-75.5 60.5,-56.5 -0.5,-56.5"/>
<text text-anchor="middle" x="30" y="-63.5" font-family="Helvetica,sans-Serif" font-size="10.00">BitFlags.h</text>
</a>
</g>
</g>
<!-- Node1&#45;&gt;Node2 -->
<g id="edge1" class="edge"><title>Node1&#45;&gt;Node2</title>
<path fill="none" stroke="midnightblue" d="M744.921,-226.273C622.361,-199.38 328.039,-134.603 70.5649,-76.3427"/>
<polygon fill="midnightblue" stroke="midnightblue" points="71.1773,-72.8928 60.6513,-74.0986 69.6318,-79.7201 71.1773,-72.8928"/>
</g>
<!-- Node4 -->
<g id="node4" class="node"><title>Node4</title>
<g id="a_node4"><a xlink:href="_ro_r_prerequisites_8h.html" target="_top" xlink:title="RoRPrerequisites.h">
<polygon fill="white" stroke="black" points="783,-112.5 783,-131.5 885,-131.5 885,-112.5 783,-112.5"/>
<text text-anchor="middle" x="834" y="-119.5" font-family="Helvetica,sans-Serif" font-size="10.00">RoRPrerequisites.h</text>
</a>
</g>
</g>
<!-- Node1&#45;&gt;Node4 -->
<g id="edge3" class="edge"><title>Node1&#45;&gt;Node4</title>
<path fill="none" stroke="midnightblue" d="M796.643,-224.916C790.963,-210.238 784.59,-186.799 792,-168 796.514,-156.548 805.469,-146.291 813.955,-138.472"/>
<polygon fill="midnightblue" stroke="midnightblue" points="816.469,-140.927 821.786,-131.764 811.915,-135.611 816.469,-140.927"/>
</g>
<!-- Node20 -->
<g id="node20" class="node"><title>Node20</title>
<g id="a_node20"><a xlink:href="_singleton_8h.html" target="_top" xlink:title="Singleton.h">
<polygon fill="white" stroke="black" points="801.5,-168.5 801.5,-187.5 866.5,-187.5 866.5,-168.5 801.5,-168.5"/>
<text text-anchor="middle" x="834" y="-175.5" font-family="Helvetica,sans-Serif" font-size="10.00">Singleton.h</text>
</a>
</g>
</g>
<!-- Node1&#45;&gt;Node20 -->
<g id="edge21" class="edge"><title>Node1&#45;&gt;Node20</title>
<path fill="none" stroke="midnightblue" d="M810.347,-224.781C814.665,-216.422 820.165,-205.777 824.774,-196.856"/>
<polygon fill="midnightblue" stroke="midnightblue" points="828.008,-198.221 829.489,-187.731 821.789,-195.008 828.008,-198.221"/>
</g>
<!-- Node21 -->
<g id="node21" class="node"><title>Node21</title>
<polygon fill="white" stroke="#bfbfbf" points="885,-168.5 885,-187.5 1037,-187.5 1037,-168.5 885,-168.5"/>
<text text-anchor="middle" x="961" y="-175.5" font-family="Helvetica,sans-Serif" font-size="10.00">OgreResourceGroupManager.h</text>
</g>
<!-- Node1&#45;&gt;Node21 -->
<g id="edge23" class="edge"><title>Node1&#45;&gt;Node21</title>
<path fill="none" stroke="midnightblue" d="M840.044,-224.933C866.938,-214.72 902.972,-201.036 928.699,-191.266"/>
<polygon fill="midnightblue" stroke="midnightblue" points="930.247,-194.422 938.353,-187.6 927.762,-187.878 930.247,-194.422"/>
</g>
<!-- Node3 -->
<g id="node3" class="node"><title>Node3</title>
<polygon fill="white" stroke="#bfbfbf" points="7,-0.5 7,-19.5 53,-19.5 53,-0.5 7,-0.5"/>
<text text-anchor="middle" x="30" y="-7.5" font-family="Helvetica,sans-Serif" font-size="10.00">cstdint</text>
</g>
<!-- Node2&#45;&gt;Node3 -->
<g id="edge2" class="edge"><title>Node2&#45;&gt;Node3</title>
<path fill="none" stroke="midnightblue" d="M30,-56.083C30,-49.0059 30,-38.8611 30,-29.9865"/>
<polygon fill="midnightblue" stroke="midnightblue" points="33.5001,-29.751 30,-19.7511 26.5001,-29.7511 33.5001,-29.751"/>
</g>
<!-- Node4&#45;&gt;Node2 -->
<g id="edge19" class="edge"><title>Node4&#45;&gt;Node2</title>
<path fill="none" stroke="midnightblue" d="M782.672,-120.948C660.632,-120.189 343.536,-114.477 70.6609,-76.0061"/>
<polygon fill="midnightblue" stroke="midnightblue" points="70.9595,-72.5133 60.5652,-74.5648 69.9701,-79.4431 70.9595,-72.5133"/>
</g>
<!-- Node5 -->
<g id="node5" class="node"><title>Node5</title>
<polygon fill="white" stroke="#bfbfbf" points="78.5,-56.5 78.5,-75.5 181.5,-75.5 181.5,-56.5 78.5,-56.5"/>
<text text-anchor="middle" x="130" y="-63.5" font-family="Helvetica,sans-Serif" font-size="10.00">OgrePrerequisites.h</text>
</g>
<!-- Node4&#45;&gt;Node5 -->
<g id="edge4" class="edge"><title>Node4&#45;&gt;Node5</title>
<path fill="none" stroke="midnightblue" d="M782.952,-118.808C675.461,-113.895 417.729,-100.55 191.734,-76.114"/>
<polygon fill="midnightblue" stroke="midnightblue" points="191.997,-72.622 181.677,-75.0168 191.238,-79.5807 191.997,-72.622"/>
</g>
<!-- Node6 -->
<g id="node6" class="node"><title>Node6</title>
<polygon fill="white" stroke="#bfbfbf" points="199.5,-56.5 199.5,-75.5 314.5,-75.5 314.5,-56.5 199.5,-56.5"/>
<text text-anchor="middle" x="257" y="-63.5" font-family="Helvetica,sans-Serif" font-size="10.00">OgreAxisAlignedBox.h</text>
</g>
<!-- Node4&#45;&gt;Node6 -->
<g id="edge5" class="edge"><title>Node4&#45;&gt;Node6</title>
<path fill="none" stroke="midnightblue" d="M782.786,-117.303C692.414,-110.601 498.504,-95.4261 324.673,-76.143"/>
<polygon fill="midnightblue" stroke="midnightblue" points="324.899,-72.6467 314.573,-75.0154 324.123,-79.6034 324.899,-72.6467"/>
</g>
<!-- Node7 -->
<g id="node7" class="node"><title>Node7</title>
<polygon fill="white" stroke="#bfbfbf" points="332.5,-56.5 332.5,-75.5 431.5,-75.5 431.5,-56.5 332.5,-56.5"/>
<text text-anchor="middle" x="382" y="-63.5" font-family="Helvetica,sans-Serif" font-size="10.00">OgreColourValue.h</text>
</g>
<!-- Node4&#45;&gt;Node7 -->
<g id="edge6" class="edge"><title>Node4&#45;&gt;Node7</title>
<path fill="none" stroke="midnightblue" d="M782.916,-115.829C709.62,-108.263 570.13,-93.3194 441.671,-76.1832"/>
<polygon fill="midnightblue" stroke="midnightblue" points="442.032,-72.7003 431.655,-74.8395 441.101,-79.6381 442.032,-72.7003"/>
</g>
<!-- Node8 -->
<g id="node8" class="node"><title>Node8</title>
<polygon fill="white" stroke="#bfbfbf" points="449.5,-56.5 449.5,-75.5 552.5,-75.5 552.5,-56.5 449.5,-56.5"/>
<text text-anchor="middle" x="501" y="-63.5" font-family="Helvetica,sans-Serif" font-size="10.00">OgreHeaderPrefix.h</text>
</g>
<!-- Node4&#45;&gt;Node8 -->
<g id="edge7" class="edge"><title>Node4&#45;&gt;Node8</title>
<path fill="none" stroke="midnightblue" d="M782.699,-112.681C723.508,-103.082 626.22,-87.3059 562.884,-77.0352"/>
<polygon fill="midnightblue" stroke="midnightblue" points="563.065,-73.519 552.634,-75.3731 561.945,-80.4287 563.065,-73.519"/>
</g>
<!-- Node9 -->
<g id="node9" class="node"><title>Node9</title>
<polygon fill="white" stroke="#bfbfbf" points="570.5,-56.5 570.5,-75.5 669.5,-75.5 669.5,-56.5 570.5,-56.5"/>
<text text-anchor="middle" x="620" y="-63.5" font-family="Helvetica,sans-Serif" font-size="10.00">OgreLogManager.h</text>
</g>
<!-- Node4&#45;&gt;Node9 -->
<g id="edge8" class="edge"><title>Node4&#45;&gt;Node9</title>
<path fill="none" stroke="midnightblue" d="M800.091,-112.444C763.151,-103.122 703.946,-88.1828 663.582,-77.9972"/>
<polygon fill="midnightblue" stroke="midnightblue" points="664.303,-74.5695 653.75,-75.5164 662.59,-81.3568 664.303,-74.5695"/>
</g>
<!-- Node10 -->
<g id="node10" class="node"><title>Node10</title>
<polygon fill="white" stroke="#bfbfbf" points="687.5,-56.5 687.5,-75.5 780.5,-75.5 780.5,-56.5 687.5,-56.5"/>
<text text-anchor="middle" x="734" y="-63.5" font-family="Helvetica,sans-Serif" font-size="10.00">OgreQuaternion.h</text>
</g>
<!-- Node4&#45;&gt;Node10 -->
<g id="edge9" class="edge"><title>Node4&#45;&gt;Node10</title>
<path fill="none" stroke="midnightblue" d="M817.933,-112.324C802.042,-103.743 777.493,-90.486 759.042,-80.5224"/>
<polygon fill="midnightblue" stroke="midnightblue" points="760.489,-77.3264 750.027,-75.6545 757.163,-83.4857 760.489,-77.3264"/>
</g>
<!-- Node11 -->
<g id="node11" class="node"><title>Node11</title>
<polygon fill="white" stroke="#bfbfbf" points="798.5,-56.5 798.5,-75.5 869.5,-75.5 869.5,-56.5 798.5,-56.5"/>
<text text-anchor="middle" x="834" y="-63.5" font-family="Helvetica,sans-Serif" font-size="10.00">OgreString.h</text>
</g>
<!-- Node4&#45;&gt;Node11 -->
<g id="edge10" class="edge"><title>Node4&#45;&gt;Node11</title>
<path fill="none" stroke="midnightblue" d="M834,-112.083C834,-105.006 834,-94.8611 834,-85.9865"/>
<polygon fill="midnightblue" stroke="midnightblue" points="837.5,-85.751 834,-75.7511 830.5,-85.7511 837.5,-85.751"/>
</g>
<!-- Node12 -->
<g id="node12" class="node"><title>Node12</title>
<polygon fill="white" stroke="#bfbfbf" points="888,-56.5 888,-75.5 1002,-75.5 1002,-56.5 888,-56.5"/>
<text text-anchor="middle" x="945" y="-63.5" font-family="Helvetica,sans-Serif" font-size="10.00">OgreStringConverter.h</text>
</g>
<!-- Node4&#45;&gt;Node12 -->
<g id="edge11" class="edge"><title>Node4&#45;&gt;Node12</title>
<path fill="none" stroke="midnightblue" d="M851.834,-112.324C869.716,-103.625 897.475,-90.1202 918.046,-80.113"/>
<polygon fill="midnightblue" stroke="midnightblue" points="919.749,-83.1765 927.21,-75.6545 916.687,-76.8819 919.749,-83.1765"/>
</g>
<!-- Node13 -->
<g id="node13" class="node"><title>Node13</title>
<polygon fill="white" stroke="#bfbfbf" points="1020.5,-56.5 1020.5,-75.5 1111.5,-75.5 1111.5,-56.5 1020.5,-56.5"/>
<text text-anchor="middle" x="1066" y="-63.5" font-family="Helvetica,sans-Serif" font-size="10.00">OgreUTFString.h</text>
</g>
<!-- Node4&#45;&gt;Node13 -->
<g id="edge12" class="edge"><title>Node4&#45;&gt;Node13</title>
<path fill="none" stroke="midnightblue" d="M870.761,-112.444C911.063,-103.063 975.809,-87.9926 1019.58,-77.8036"/>
<polygon fill="midnightblue" stroke="midnightblue" points="1020.46,-81.1924 1029.41,-75.5164 1018.88,-74.3746 1020.46,-81.1924"/>
</g>
<!-- Node14 -->
<g id="node14" class="node"><title>Node14</title>
<polygon fill="white" stroke="#bfbfbf" points="1130,-56.5 1130,-75.5 1210,-75.5 1210,-56.5 1130,-56.5"/>
<text text-anchor="middle" x="1170" y="-63.5" font-family="Helvetica,sans-Serif" font-size="10.00">OgreVector2.h</text>
</g>
<!-- Node4&#45;&gt;Node14 -->
<g id="edge13" class="edge"><title>Node4&#45;&gt;Node14</title>
<path fill="none" stroke="midnightblue" d="M885.202,-113.291C942.472,-104.588 1037.97,-89.834 1120,-76 1120.1,-75.983 1120.2,-75.9661 1120.3,-75.949"/>
<polygon fill="midnightblue" stroke="midnightblue" points="1120.63,-79.4433 1129.9,-74.2988 1119.45,-72.5446 1120.63,-79.4433"/>
</g>
<!-- Node15 -->
<g id="node15" class="node"><title>Node15</title>
<polygon fill="white" stroke="#bfbfbf" points="1228,-56.5 1228,-75.5 1308,-75.5 1308,-56.5 1228,-56.5"/>
<text text-anchor="middle" x="1268" y="-63.5" font-family="Helvetica,sans-Serif" font-size="10.00">OgreVector3.h</text>
</g>
<!-- Node4&#45;&gt;Node15 -->
<g id="edge14" class="edge"><title>Node4&#45;&gt;Node15</title>
<path fill="none" stroke="midnightblue" d="M885.208,-116.089C957.162,-108.951 1092.5,-94.6615 1217.77,-76.0985"/>
<polygon fill="midnightblue" stroke="midnightblue" points="1218.55,-79.5207 1227.92,-74.581 1217.52,-72.5976 1218.55,-79.5207"/>
</g>
<!-- Node16 -->
<g id="node16" class="node"><title>Node16</title>
<g id="a_node16"><a xlink:href="_forward_declarations_8h.html" target="_top" xlink:title="Global forward declarations. ">
<polygon fill="white" stroke="black" points="1319.5,-0.5 1319.5,-19.5 1434.5,-19.5 1434.5,-0.5 1319.5,-0.5"/>
<text text-anchor="middle" x="1377" y="-7.5" font-family="Helvetica,sans-Serif" font-size="10.00">ForwardDeclarations.h</text>
</a>
</g>
</g>
<!-- Node4&#45;&gt;Node16 -->
<g id="edge15" class="edge"><title>Node4&#45;&gt;Node16</title>
<path fill="none" stroke="midnightblue" d="M885.224,-120.811C993.573,-119.679 1242.17,-112.996 1317,-76 1338.43,-65.4038 1355.99,-43.6555 1366.45,-28.2385"/>
<polygon fill="midnightblue" stroke="midnightblue" points="1369.54,-29.9126 1372.03,-19.6137 1363.66,-26.1139 1369.54,-29.9126"/>
</g>
<!-- Node17 -->
<g id="node17" class="node"><title>Node17</title>
<g id="a_node17"><a xlink:href="_global_environment_8h.html" target="_top" xlink:title="GlobalEnvironment.h">
<polygon fill="white" stroke="black" points="1364.5,-56.5 1364.5,-75.5 1471.5,-75.5 1471.5,-56.5 1364.5,-56.5"/>
<text text-anchor="middle" x="1418" y="-63.5" font-family="Helvetica,sans-Serif" font-size="10.00">GlobalEnvironment.h</text>
</a>
</g>
</g>
<!-- Node4&#45;&gt;Node17 -->
<g id="edge16" class="edge"><title>Node4&#45;&gt;Node17</title>
<path fill="none" stroke="midnightblue" d="M885.341,-117.285C978.194,-110.397 1180.16,-94.6353 1350,-76 1351.3,-75.8575 1352.61,-75.7107 1353.93,-75.5603"/>
<polygon fill="midnightblue" stroke="midnightblue" points="1354.69,-78.9957 1364.21,-74.3451 1353.86,-72.0442 1354.69,-78.9957"/>
</g>
<!-- Node18 -->
<g id="node18" class="node"><title>Node18</title>
<g id="a_node18"><a xlink:href="_zeroed_memory_allocator_8h.html" target="_top" xlink:title="ZeroedMemoryAllocator.h">
<polygon fill="white" stroke="black" points="1490,-56.5 1490,-75.5 1618,-75.5 1618,-56.5 1490,-56.5"/>
<text text-anchor="middle" x="1554" y="-63.5" font-family="Helvetica,sans-Serif" font-size="10.00">ZeroedMemoryAllocator.h</text>
</a>
</g>
</g>
<!-- Node4&#45;&gt;Node18 -->
<g id="edge18" class="edge"><title>Node4&#45;&gt;Node18</title>
<path fill="none" stroke="midnightblue" d="M885.157,-118.334C992.889,-112.525 1251.25,-97.572 1479.68,-75.9749"/>
<polygon fill="midnightblue" stroke="midnightblue" points="1480.22,-79.4391 1489.85,-75.0073 1479.56,-72.4706 1480.22,-79.4391"/>
</g>
<!-- Node19 -->
<g id="node19" class="node"><title>Node19</title>
<polygon fill="white" stroke="#bfbfbf" points="1636.5,-56.5 1636.5,-75.5 1745.5,-75.5 1745.5,-56.5 1636.5,-56.5"/>
<text text-anchor="middle" x="1691" y="-63.5" font-family="Helvetica,sans-Serif" font-size="10.00">MyGUI_Prerequest.h</text>
</g>
<!-- Node4&#45;&gt;Node19 -->
<g id="edge20" class="edge"><title>Node4&#45;&gt;Node19</title>
<path fill="none" stroke="midnightblue" d="M885.139,-119.57C1009.88,-115.765 1339.88,-103.797 1626.06,-76.0032"/>
<polygon fill="midnightblue" stroke="midnightblue" points="1626.61,-79.4661 1636.22,-75.0078 1625.93,-72.4994 1626.61,-79.4661"/>
</g>
<!-- Node17&#45;&gt;Node16 -->
<g id="edge17" class="edge"><title>Node17&#45;&gt;Node16</title>
<path fill="none" stroke="midnightblue" d="M1411.23,-56.083C1405.44,-48.4554 1396.94,-37.2645 1389.86,-27.9408"/>
<polygon fill="midnightblue" stroke="midnightblue" points="1392.48,-25.5991 1383.64,-19.7511 1386.9,-29.8321 1392.48,-25.5991"/>
</g>
<!-- Node20&#45;&gt;Node4 -->
<g id="edge22" class="edge"><title>Node20&#45;&gt;Node4</title>
<path fill="none" stroke="midnightblue" d="M834,-168.083C834,-161.006 834,-150.861 834,-141.986"/>
<polygon fill="midnightblue" stroke="midnightblue" points="837.5,-141.751 834,-131.751 830.5,-141.751 837.5,-141.751"/>
</g>
</g>
</svg>
        <g id="navigator" transform="translate(0 0)" fill="#404254">
                <rect fill="#f2f5e9" fill-opacity="0.5" stroke="#606060" stroke-width=".5" x="0" y="0" width="60" height="60"/>
                <use id="zoomplus" xlink:href="#zoomPlus" x="17" y="9" onmousedown="handleZoom(evt,'in')"/>
                <use id="zoomminus" xlink:href="#zoomMin" x="42" y="9" onmousedown="handleZoom(evt,'out')"/>
                <use id="reset" xlink:href="#resetDef" x="30" y="36" onmousedown="handleReset()"/>
                <g id="arrowUp" xlink:href="#dirArrow" transform="translate(30 24)" onmousedown="handlePan(0,-1)">
                  <use xlink:href="#rim" fill="#404040">
                        <set attributeName="fill" to="#808080" begin="arrowUp.mouseover" end="arrowUp.mouseout"/>
                  </use>
                  <path fill="none" stroke="white" stroke-width="1.5" d="M0,-3.0v7 M-2.5,-0.5L0,-3.0L2.5,-0.5"/>
                </g>
                <g id="arrowRight" xlink:href="#dirArrow" transform="rotate(90) translate(36 -43)" onmousedown="handlePan(1,0)">
                  <use xlink:href="#rim" fill="#404040">
                        <set attributeName="fill" to="#808080" begin="arrowRight.mouseover" end="arrowRight.mouseout"/>
                  </use>
                  <path fill="none" stroke="white" stroke-width="1.5" d="M0,-3.0v7 M-2.5,-0.5L0,-3.0L2.5,-0.5"/>
                </g>
                <g id="arrowDown" xlink:href="#dirArrow" transform="rotate(180) translate(-30 -48)" onmousedown="handlePan(0,1)">
                  <use xlink:href="#rim" fill="#404040">
                        <set attributeName="fill" to="#808080" begin="arrowDown.mouseover" end="arrowDown.mouseout"/>
                  </use>
                  <path fill="none" stroke="white" stroke-width="1.5" d="M0,-3.0v7 M-2.5,-0.5L0,-3.0L2.5,-0.5"/>
                </g>
                <g id="arrowLeft" xlink:href="#dirArrow" transform="rotate(270) translate(-36 17)" onmousedown="handlePan(-1,0)">
                  <use xlink:href="#rim" fill="#404040">
                        <set attributeName="fill" to="#808080" begin="arrowLeft.mouseover" end="arrowLeft.mouseout"/>
                  </use>
                  <path fill="none" stroke="white" stroke-width="1.5" d="M0,-3.0v7 M-2.5,-0.5L0,-3.0L2.5,-0.5"/>
                </g>
        </g>
        <svg viewBox="0 0 15 15" width="100%" height="30px" preserveAspectRatio="xMaxYMin meet">
         <g id="arrow_out" transform="scale(0.3 0.3)">
          <a xlink:href="_content_manager_8h__incl_org.svg" target="_base">
           <rect id="button" ry="5" rx="5" y="6" x="6" height="38" width="38"
                fill="#f2f5e9" fill-opacity="0.5" stroke="#606060" stroke-width="1.0"/>
           <path id="arrow"
             d="M 11.500037,31.436501 C 11.940474,20.09759 22.043105,11.32322 32.158766,21.979434 L 37.068811,17.246167 C 37.068811,17.246167 37.088388,32 37.088388,32 L 22.160133,31.978069 C 22.160133,31.978069 26.997745,27.140456 26.997745,27.140456 C 18.528582,18.264221 13.291696,25.230495 11.500037,31.436501 z"
             style="fill:#404040;"/>
          </a>
         </g>
        </svg>
</svg>
