<?xml version="1.0" encoding="UTF-8" standalone="no"?>
<!DOCTYPE svg PUBLIC "-//W3C//DTD SVG 1.1//EN"
 "http://www.w3.org/Graphics/SVG/1.1/DTD/svg11.dtd">
<!-- Generated by graphviz version 2.36.0 (20140111.2315)
 -->
<!-- Title: getAvLang Pages: 1 -->
<svg width="332pt" height="28pt"
 viewBox="0.00 0.00 332.00 28.00" xmlns="http://www.w3.org/2000/svg" xmlns:xlink="http://www.w3.org/1999/xlink">
<g id="graph0" class="graph" transform="scale(1 1) rotate(0) translate(4 24)">
<title>getAvLang</title>
<polygon fill="white" stroke="none" points="-4,4 -4,-24 328,-24 328,4 -4,4"/>
<!-- Node1 -->
<g id="node1" class="node"><title>Node1</title>
<polygon fill="#bfbfbf" stroke="black" points="0.5,-0.5 0.5,-19.5 63.5,-19.5 63.5,-0.5 0.5,-0.5"/>
<text text-anchor="middle" x="32" y="-7.5" font-family="Helvetica,sans-Serif" font-size="10.00">getAvLang</text>
</g>
<!-- Node2 -->
<g id="node2" class="node"><title>Node2</title>
<g id="a_node2"><a xlink:href="_configurator_8cpp.html#a7f043c024c49dd695741e4dc6aacc575" target="_top" xlink:title="initLanguage">
<polygon fill="white" stroke="black" points="100.5,-0.5 100.5,-19.5 171.5,-19.5 171.5,-0.5 100.5,-0.5"/>
<text text-anchor="middle" x="136" y="-7.5" font-family="Helvetica,sans-Serif" font-size="10.00">initLanguage</text>
</a>
</g>
</g>
<!-- Node1&#45;&gt;Node2 -->
<g id="edge1" class="edge"><title>Node1&#45;&gt;Node2</title>
<path fill="none" stroke="midnightblue" d="M73.7403,-10C82.6019,-10 91.8945,-10 100.487,-10"/>
<polygon fill="midnightblue" stroke="midnightblue" points="73.6034,-6.5001 63.6034,-10 73.6033,-13.5001 73.6034,-6.5001"/>
</g>
<!-- Node3 -->
<g id="node3" class="node"><title>Node3</title>
<g id="a_node3"><a xlink:href="class_ro_r_config_app.html#a2a0306257bf33d25102a9ace3b2ff59a" target="_top" xlink:title="RoRConfigApp::OnInit">
<polygon fill="white" stroke="black" points="208.5,-0.5 208.5,-19.5 323.5,-19.5 323.5,-0.5 208.5,-0.5"/>
<text text-anchor="middle" x="266" y="-7.5" font-family="Helvetica,sans-Serif" font-size="10.00">RoRConfigApp::OnInit</text>
</a>
</g>
</g>
<!-- Node2&#45;&gt;Node3 -->
<g id="edge2" class="edge"><title>Node2&#45;&gt;Node3</title>
<path fill="none" stroke="midnightblue" d="M181.739,-10C190.262,-10 199.288,-10 208.129,-10"/>
<polygon fill="midnightblue" stroke="midnightblue" points="181.639,-6.5001 171.639,-10 181.639,-13.5001 181.639,-6.5001"/>
</g>
</g>
</svg>
