<?xml version="1.0" encoding="UTF-8" standalone="no"?>
<!DOCTYPE svg PUBLIC "-//W3C//DTD SVG 1.1//EN"
 "http://www.w3.org/Graphics/SVG/1.1/DTD/svg11.dtd">
<!-- Generated by graphviz version 2.36.0 (20140111.2315)
 -->
<!-- Title: source/main/physics/Differentials.cpp Pages: 1 -->
<svg width="1753pt" height="320pt"
 viewBox="0.00 0.00 1753.00 320.00" xmlns="http://www.w3.org/2000/svg" xmlns:xlink="http://www.w3.org/1999/xlink">
<g id="graph0" class="graph" transform="scale(1 1) rotate(0) translate(4 316)">
<title>source/main/physics/Differentials.cpp</title>
<polygon fill="white" stroke="none" points="-4,4 -4,-316 1749,-316 1749,4 -4,4"/>
<!-- Node1 -->
<g id="node1" class="node"><title>Node1</title>
<polygon fill="#bfbfbf" stroke="black" points="809.5,-281 809.5,-311 916.5,-311 916.5,-281 809.5,-281"/>
<text text-anchor="start" x="817.5" y="-299" font-family="Helvetica,sans-Serif" font-size="10.00">source/main/physics</text>
<text text-anchor="middle" x="863" y="-288" font-family="Helvetica,sans-Serif" font-size="10.00">/Differentials.cpp</text>
</g>
<!-- Node2 -->
<g id="node2" class="node"><title>Node2</title>
<g id="a_node2"><a xlink:href="_differentials_8h.html" target="_top" xlink:title="Differentials.h">
<polygon fill="white" stroke="black" points="651.5,-168.5 651.5,-187.5 728.5,-187.5 728.5,-168.5 651.5,-168.5"/>
<text text-anchor="middle" x="690" y="-175.5" font-family="Helvetica,sans-Serif" font-size="10.00">Differentials.h</text>
</a>
</g>
</g>
<!-- Node1&#45;&gt;Node2 -->
<g id="edge1" class="edge"><title>Node1&#45;&gt;Node2</title>
<path fill="none" stroke="midnightblue" d="M841.787,-280.776C808.633,-258.546 744.886,-215.802 711.535,-193.44"/>
<polygon fill="midnightblue" stroke="midnightblue" points="713.24,-190.369 702.985,-187.707 709.342,-196.183 713.24,-190.369"/>
</g>
<!-- Node8 -->
<g id="node8" class="node"><title>Node8</title>
<polygon fill="white" stroke="#bfbfbf" points="1646.5,-56.5 1646.5,-75.5 1745.5,-75.5 1745.5,-56.5 1646.5,-56.5"/>
<text text-anchor="middle" x="1696" y="-63.5" font-family="Helvetica,sans-Serif" font-size="10.00">OgreLogManager.h</text>
</g>
<!-- Node1&#45;&gt;Node8 -->
<g id="edge22" class="edge"><title>Node1&#45;&gt;Node8</title>
<path fill="none" stroke="midnightblue" d="M914.166,-280.995C1066.8,-239.217 1516.9,-116.022 1655.14,-78.1827"/>
<polygon fill="midnightblue" stroke="midnightblue" points="1656.21,-81.5208 1664.93,-75.5049 1654.36,-74.7691 1656.21,-81.5208"/>
</g>
<!-- Node21 -->
<g id="node21" class="node"><title>Node21</title>
<g id="a_node21"><a xlink:href="_language_8h.html" target="_top" xlink:title="Language.h">
<polygon fill="white" stroke="black" points="829.5,-224.5 829.5,-243.5 896.5,-243.5 896.5,-224.5 829.5,-224.5"/>
<text text-anchor="middle" x="863" y="-231.5" font-family="Helvetica,sans-Serif" font-size="10.00">Language.h</text>
</a>
</g>
</g>
<!-- Node1&#45;&gt;Node21 -->
<g id="edge23" class="edge"><title>Node1&#45;&gt;Node21</title>
<path fill="none" stroke="midnightblue" d="M863,-280.781C863,-272.781 863,-262.689 863,-254.017"/>
<polygon fill="midnightblue" stroke="midnightblue" points="866.5,-253.73 863,-243.731 859.5,-253.731 866.5,-253.73"/>
</g>
<!-- Node3 -->
<g id="node3" class="node"><title>Node3</title>
<polygon fill="white" stroke="#bfbfbf" points="-0.5,-56.5 -0.5,-75.5 102.5,-75.5 102.5,-56.5 -0.5,-56.5"/>
<text text-anchor="middle" x="51" y="-63.5" font-family="Helvetica,sans-Serif" font-size="10.00">OgrePrerequisites.h</text>
</g>
<!-- Node2&#45;&gt;Node3 -->
<g id="edge2" class="edge"><title>Node2&#45;&gt;Node3</title>
<path fill="none" stroke="midnightblue" d="M651.467,-170.367C544.017,-151.87 240.475,-99.6169 110.867,-77.3057"/>
<polygon fill="midnightblue" stroke="midnightblue" points="111.176,-73.8075 100.727,-75.5601 109.988,-80.706 111.176,-73.8075"/>
</g>
<!-- Node4 -->
<g id="node4" class="node"><title>Node4</title>
<g id="a_node4"><a xlink:href="_ro_r_prerequisites_8h.html" target="_top" xlink:title="RoRPrerequisites.h">
<polygon fill="white" stroke="black" points="839,-112.5 839,-131.5 941,-131.5 941,-112.5 839,-112.5"/>
<text text-anchor="middle" x="890" y="-119.5" font-family="Helvetica,sans-Serif" font-size="10.00">RoRPrerequisites.h</text>
</a>
</g>
</g>
<!-- Node2&#45;&gt;Node4 -->
<g id="edge3" class="edge"><title>Node2&#45;&gt;Node4</title>
<path fill="none" stroke="midnightblue" d="M721.691,-168.444C756.068,-159.162 811.077,-144.309 848.789,-134.127"/>
<polygon fill="midnightblue" stroke="midnightblue" points="849.716,-137.502 858.458,-131.516 847.891,-130.744 849.716,-137.502"/>
</g>
<!-- Node4&#45;&gt;Node3 -->
<g id="edge4" class="edge"><title>Node4&#45;&gt;Node3</title>
<path fill="none" stroke="midnightblue" d="M838.83,-119.658C715.618,-116.081 392.551,-104.64 113.016,-76.1217"/>
<polygon fill="midnightblue" stroke="midnightblue" points="112.979,-72.5994 102.673,-75.0565 112.261,-79.5626 112.979,-72.5994"/>
</g>
<!-- Node5 -->
<g id="node5" class="node"><title>Node5</title>
<polygon fill="white" stroke="#bfbfbf" points="1513.5,-56.5 1513.5,-75.5 1628.5,-75.5 1628.5,-56.5 1513.5,-56.5"/>
<text text-anchor="middle" x="1571" y="-63.5" font-family="Helvetica,sans-Serif" font-size="10.00">OgreAxisAlignedBox.h</text>
</g>
<!-- Node4&#45;&gt;Node5 -->
<g id="edge5" class="edge"><title>Node4&#45;&gt;Node5</title>
<path fill="none" stroke="midnightblue" d="M941.035,-118.304C1044.76,-112.599 1287.87,-98.0744 1503.06,-76.0333"/>
<polygon fill="midnightblue" stroke="midnightblue" points="1503.7,-79.4862 1513.28,-74.9781 1502.98,-72.5232 1503.7,-79.4862"/>
</g>
<!-- Node6 -->
<g id="node6" class="node"><title>Node6</title>
<polygon fill="white" stroke="#bfbfbf" points="120.5,-56.5 120.5,-75.5 219.5,-75.5 219.5,-56.5 120.5,-56.5"/>
<text text-anchor="middle" x="170" y="-63.5" font-family="Helvetica,sans-Serif" font-size="10.00">OgreColourValue.h</text>
</g>
<!-- Node4&#45;&gt;Node6 -->
<g id="edge6" class="edge"><title>Node4&#45;&gt;Node6</title>
<path fill="none" stroke="midnightblue" d="M838.785,-119.022C728.993,-114.457 462.656,-101.647 229.655,-76.0985"/>
<polygon fill="midnightblue" stroke="midnightblue" points="229.961,-72.6111 219.637,-74.9898 229.191,-79.5686 229.961,-72.6111"/>
</g>
<!-- Node7 -->
<g id="node7" class="node"><title>Node7</title>
<polygon fill="white" stroke="#bfbfbf" points="237.5,-56.5 237.5,-75.5 340.5,-75.5 340.5,-56.5 237.5,-56.5"/>
<text text-anchor="middle" x="289" y="-63.5" font-family="Helvetica,sans-Serif" font-size="10.00">OgreHeaderPrefix.h</text>
</g>
<!-- Node4&#45;&gt;Node7 -->
<g id="edge7" class="edge"><title>Node4&#45;&gt;Node7</title>
<path fill="none" stroke="midnightblue" d="M838.795,-117.87C744.362,-111.851 536.205,-97.4388 350.887,-76.155"/>
<polygon fill="midnightblue" stroke="midnightblue" points="351.018,-72.6469 340.682,-74.9732 350.213,-79.6004 351.018,-72.6469"/>
</g>
<!-- Node4&#45;&gt;Node8 -->
<g id="edge8" class="edge"><title>Node4&#45;&gt;Node8</title>
<path fill="none" stroke="midnightblue" d="M941.304,-119.522C1061.04,-115.726 1368.41,-103.977 1636.16,-75.979"/>
<polygon fill="midnightblue" stroke="midnightblue" points="1636.89,-79.4213 1646.47,-74.8909 1636.16,-72.46 1636.89,-79.4213"/>
</g>
<!-- Node9 -->
<g id="node9" class="node"><title>Node9</title>
<polygon fill="white" stroke="#bfbfbf" points="358.5,-56.5 358.5,-75.5 451.5,-75.5 451.5,-56.5 358.5,-56.5"/>
<text text-anchor="middle" x="405" y="-63.5" font-family="Helvetica,sans-Serif" font-size="10.00">OgreQuaternion.h</text>
</g>
<!-- Node4&#45;&gt;Node9 -->
<g id="edge9" class="edge"><title>Node4&#45;&gt;Node9</title>
<path fill="none" stroke="midnightblue" d="M838.918,-116.619C760.147,-109.652 604.052,-95.0045 461.984,-76.2048"/>
<polygon fill="midnightblue" stroke="midnightblue" points="462.155,-72.6968 451.78,-74.8441 461.23,-79.6354 462.155,-72.6968"/>
</g>
<!-- Node10 -->
<g id="node10" class="node"><title>Node10</title>
<polygon fill="white" stroke="#bfbfbf" points="469.5,-56.5 469.5,-75.5 540.5,-75.5 540.5,-56.5 469.5,-56.5"/>
<text text-anchor="middle" x="505" y="-63.5" font-family="Helvetica,sans-Serif" font-size="10.00">OgreString.h</text>
</g>
<!-- Node4&#45;&gt;Node10 -->
<g id="edge10" class="edge"><title>Node4&#45;&gt;Node10</title>
<path fill="none" stroke="midnightblue" d="M838.867,-115.296C774.219,-107.848 659.284,-93.823 550.948,-76.0599"/>
<polygon fill="midnightblue" stroke="midnightblue" points="551.259,-72.564 540.822,-74.3854 550.117,-79.4702 551.259,-72.564"/>
</g>
<!-- Node11 -->
<g id="node11" class="node"><title>Node11</title>
<polygon fill="white" stroke="#bfbfbf" points="559,-56.5 559,-75.5 673,-75.5 673,-56.5 559,-56.5"/>
<text text-anchor="middle" x="616" y="-63.5" font-family="Helvetica,sans-Serif" font-size="10.00">OgreStringConverter.h</text>
</g>
<!-- Node4&#45;&gt;Node11 -->
<g id="edge11" class="edge"><title>Node4&#45;&gt;Node11</title>
<path fill="none" stroke="midnightblue" d="M846.584,-112.444C798.485,-102.964 720.905,-87.6747 669.194,-77.4835"/>
<polygon fill="midnightblue" stroke="midnightblue" points="669.701,-74.0162 659.213,-75.5164 668.347,-80.8841 669.701,-74.0162"/>
</g>
<!-- Node12 -->
<g id="node12" class="node"><title>Node12</title>
<polygon fill="white" stroke="#bfbfbf" points="691.5,-56.5 691.5,-75.5 782.5,-75.5 782.5,-56.5 691.5,-56.5"/>
<text text-anchor="middle" x="737" y="-63.5" font-family="Helvetica,sans-Serif" font-size="10.00">OgreUTFString.h</text>
</g>
<!-- Node4&#45;&gt;Node12 -->
<g id="edge12" class="edge"><title>Node4&#45;&gt;Node12</title>
<path fill="none" stroke="midnightblue" d="M865.757,-112.444C840.129,-103.399 799.515,-89.064 770.762,-78.9158"/>
<polygon fill="midnightblue" stroke="midnightblue" points="771.725,-75.5442 761.13,-75.5164 769.395,-82.1452 771.725,-75.5442"/>
</g>
<!-- Node13 -->
<g id="node13" class="node"><title>Node13</title>
<polygon fill="white" stroke="#bfbfbf" points="801,-56.5 801,-75.5 881,-75.5 881,-56.5 801,-56.5"/>
<text text-anchor="middle" x="841" y="-63.5" font-family="Helvetica,sans-Serif" font-size="10.00">OgreVector2.h</text>
</g>
<!-- Node4&#45;&gt;Node13 -->
<g id="edge13" class="edge"><title>Node4&#45;&gt;Node13</title>
<path fill="none" stroke="midnightblue" d="M881.909,-112.083C874.845,-104.298 864.412,-92.8015 855.851,-83.3665"/>
<polygon fill="midnightblue" stroke="midnightblue" points="858.253,-80.8047 848.941,-75.7511 853.069,-85.5087 858.253,-80.8047"/>
</g>
<!-- Node14 -->
<g id="node14" class="node"><title>Node14</title>
<polygon fill="white" stroke="#bfbfbf" points="899,-56.5 899,-75.5 979,-75.5 979,-56.5 899,-56.5"/>
<text text-anchor="middle" x="939" y="-63.5" font-family="Helvetica,sans-Serif" font-size="10.00">OgreVector3.h</text>
</g>
<!-- Node4&#45;&gt;Node14 -->
<g id="edge14" class="edge"><title>Node4&#45;&gt;Node14</title>
<path fill="none" stroke="midnightblue" d="M898.091,-112.083C905.155,-104.298 915.588,-92.8015 924.149,-83.3665"/>
<polygon fill="midnightblue" stroke="midnightblue" points="926.931,-85.5087 931.059,-75.7511 921.747,-80.8047 926.931,-85.5087"/>
</g>
<!-- Node15 -->
<g id="node15" class="node"><title>Node15</title>
<g id="a_node15"><a xlink:href="_forward_declarations_8h.html" target="_top" xlink:title="Global forward declarations. ">
<polygon fill="white" stroke="black" points="990.5,-0.5 990.5,-19.5 1105.5,-19.5 1105.5,-0.5 990.5,-0.5"/>
<text text-anchor="middle" x="1048" y="-7.5" font-family="Helvetica,sans-Serif" font-size="10.00">ForwardDeclarations.h</text>
</a>
</g>
</g>
<!-- Node4&#45;&gt;Node15 -->
<g id="edge15" class="edge"><title>Node4&#45;&gt;Node15</title>
<path fill="none" stroke="midnightblue" d="M915.637,-112.422C936.326,-104.775 965.577,-92.2776 988,-76 1006.94,-62.2528 1024.59,-41.8424 1035.77,-27.5713"/>
<polygon fill="midnightblue" stroke="midnightblue" points="1038.58,-29.6675 1041.86,-19.5933 1033.01,-25.4229 1038.58,-29.6675"/>
</g>
<!-- Node16 -->
<g id="node16" class="node"><title>Node16</title>
<g id="a_node16"><a xlink:href="_global_environment_8h.html" target="_top" xlink:title="GlobalEnvironment.h">
<polygon fill="white" stroke="black" points="1035.5,-56.5 1035.5,-75.5 1142.5,-75.5 1142.5,-56.5 1035.5,-56.5"/>
<text text-anchor="middle" x="1089" y="-63.5" font-family="Helvetica,sans-Serif" font-size="10.00">GlobalEnvironment.h</text>
</a>
</g>
</g>
<!-- Node4&#45;&gt;Node16 -->
<g id="edge16" class="edge"><title>Node4&#45;&gt;Node16</title>
<path fill="none" stroke="midnightblue" d="M921.532,-112.444C955.592,-103.201 1010.01,-88.4356 1047.52,-78.2572"/>
<polygon fill="midnightblue" stroke="midnightblue" points="1048.88,-81.5132 1057.62,-75.5164 1047.05,-74.7575 1048.88,-81.5132"/>
</g>
<!-- Node17 -->
<g id="node17" class="node"><title>Node17</title>
<g id="a_node17"><a xlink:href="_zeroed_memory_allocator_8h.html" target="_top" xlink:title="ZeroedMemoryAllocator.h">
<polygon fill="white" stroke="black" points="1161,-56.5 1161,-75.5 1289,-75.5 1289,-56.5 1161,-56.5"/>
<text text-anchor="middle" x="1225" y="-63.5" font-family="Helvetica,sans-Serif" font-size="10.00">ZeroedMemoryAllocator.h</text>
</a>
</g>
</g>
<!-- Node4&#45;&gt;Node17 -->
<g id="edge18" class="edge"><title>Node4&#45;&gt;Node17</title>
<path fill="none" stroke="midnightblue" d="M941.244,-112.74C1000.57,-103.177 1098.29,-87.4242 1162.15,-77.1302"/>
<polygon fill="midnightblue" stroke="midnightblue" points="1162.79,-80.5737 1172.1,-75.5268 1161.67,-73.6629 1162.79,-80.5737"/>
</g>
<!-- Node18 -->
<g id="node18" class="node"><title>Node18</title>
<g id="a_node18"><a xlink:href="_bit_flags_8h.html" target="_top" xlink:title="BitFlags.h">
<polygon fill="white" stroke="black" points="1307.5,-56.5 1307.5,-75.5 1368.5,-75.5 1368.5,-56.5 1307.5,-56.5"/>
<text text-anchor="middle" x="1338" y="-63.5" font-family="Helvetica,sans-Serif" font-size="10.00">BitFlags.h</text>
</a>
</g>
</g>
<!-- Node4&#45;&gt;Node18 -->
<g id="edge19" class="edge"><title>Node4&#45;&gt;Node18</title>
<path fill="none" stroke="midnightblue" d="M941.137,-117.202C1016.77,-111.179 1163.06,-97.9839 1297.43,-75.9059"/>
<polygon fill="midnightblue" stroke="midnightblue" points="1298.2,-79.3254 1307.49,-74.2317 1297.06,-72.4202 1298.2,-79.3254"/>
</g>
<!-- Node20 -->
<g id="node20" class="node"><title>Node20</title>
<polygon fill="white" stroke="#bfbfbf" points="1386.5,-56.5 1386.5,-75.5 1495.5,-75.5 1495.5,-56.5 1386.5,-56.5"/>
<text text-anchor="middle" x="1441" y="-63.5" font-family="Helvetica,sans-Serif" font-size="10.00">MyGUI_Prerequest.h</text>
</g>
<!-- Node4&#45;&gt;Node20 -->
<g id="edge21" class="edge"><title>Node4&#45;&gt;Node20</title>
<path fill="none" stroke="midnightblue" d="M941.267,-117.07C1028.3,-110.221 1210.76,-95.1003 1375.86,-76.0794"/>
<polygon fill="midnightblue" stroke="midnightblue" points="1376.68,-79.5083 1386.21,-74.8796 1375.87,-72.5549 1376.68,-79.5083"/>
</g>
<!-- Node16&#45;&gt;Node15 -->
<g id="edge17" class="edge"><title>Node16&#45;&gt;Node15</title>
<path fill="none" stroke="midnightblue" d="M1082.23,-56.083C1076.44,-48.4554 1067.94,-37.2645 1060.86,-27.9408"/>
<polygon fill="midnightblue" stroke="midnightblue" points="1063.48,-25.5991 1054.64,-19.7511 1057.9,-29.8321 1063.48,-25.5991"/>
</g>
<!-- Node19 -->
<g id="node19" class="node"><title>Node19</title>
<polygon fill="white" stroke="#bfbfbf" points="1315,-0.5 1315,-19.5 1361,-19.5 1361,-0.5 1315,-0.5"/>
<text text-anchor="middle" x="1338" y="-7.5" font-family="Helvetica,sans-Serif" font-size="10.00">cstdint</text>
</g>
<!-- Node18&#45;&gt;Node19 -->
<g id="edge20" class="edge"><title>Node18&#45;&gt;Node19</title>
<path fill="none" stroke="midnightblue" d="M1338,-56.083C1338,-49.0059 1338,-38.8611 1338,-29.9865"/>
<polygon fill="midnightblue" stroke="midnightblue" points="1341.5,-29.751 1338,-19.7511 1334.5,-29.7511 1341.5,-29.751"/>
</g>
<!-- Node21&#45;&gt;Node4 -->
<g id="edge24" class="edge"><title>Node21&#45;&gt;Node4</title>
<path fill="none" stroke="midnightblue" d="M865.119,-224.368C869.476,-206.617 879.527,-165.666 885.435,-141.597"/>
<polygon fill="midnightblue" stroke="midnightblue" points="888.906,-142.137 887.891,-131.591 882.108,-140.469 888.906,-142.137"/>
</g>
<!-- Node22 -->
<g id="node22" class="node"><title>Node22</title>
<g id="a_node22"><a xlink:href="_singleton_8h.html" target="_top" xlink:title="Singleton.h">
<polygon fill="white" stroke="black" points="918.5,-168.5 918.5,-187.5 983.5,-187.5 983.5,-168.5 918.5,-168.5"/>
<text text-anchor="middle" x="951" y="-175.5" font-family="Helvetica,sans-Serif" font-size="10.00">Singleton.h</text>
</a>
</g>
</g>
<!-- Node21&#45;&gt;Node22 -->
<g id="edge25" class="edge"><title>Node21&#45;&gt;Node22</title>
<path fill="none" stroke="midnightblue" d="M877.139,-224.324C890.866,-215.9 911.936,-202.971 928.064,-193.074"/>
<polygon fill="midnightblue" stroke="midnightblue" points="930.204,-195.868 936.896,-187.655 926.543,-189.902 930.204,-195.868"/>
</g>
<!-- Node23 -->
<g id="node23" class="node"><title>Node23</title>
<polygon fill="white" stroke="#bfbfbf" points="746.5,-168.5 746.5,-187.5 793.5,-187.5 793.5,-168.5 746.5,-168.5"/>
<text text-anchor="middle" x="770" y="-175.5" font-family="Helvetica,sans-Serif" font-size="10.00">libintl.h</text>
</g>
<!-- Node21&#45;&gt;Node23 -->
<g id="edge27" class="edge"><title>Node21&#45;&gt;Node23</title>
<path fill="none" stroke="midnightblue" d="M848.058,-224.324C833.415,-215.822 810.866,-202.729 793.762,-192.797"/>
<polygon fill="midnightblue" stroke="midnightblue" points="795.31,-189.649 784.905,-187.655 791.795,-195.703 795.31,-189.649"/>
</g>
<!-- Node24 -->
<g id="node24" class="node"><title>Node24</title>
<polygon fill="white" stroke="#bfbfbf" points="812,-168.5 812,-187.5 862,-187.5 862,-168.5 812,-168.5"/>
<text text-anchor="middle" x="837" y="-175.5" font-family="Helvetica,sans-Serif" font-size="10.00">locale.h</text>
</g>
<!-- Node21&#45;&gt;Node24 -->
<g id="edge28" class="edge"><title>Node21&#45;&gt;Node24</title>
<path fill="none" stroke="midnightblue" d="M858.707,-224.083C855.148,-216.691 849.978,-205.953 845.576,-196.811"/>
<polygon fill="midnightblue" stroke="midnightblue" points="848.705,-195.243 841.213,-187.751 842.398,-198.279 848.705,-195.243"/>
</g>
<!-- Node22&#45;&gt;Node4 -->
<g id="edge26" class="edge"><title>Node22&#45;&gt;Node4</title>
<path fill="none" stroke="midnightblue" d="M941.199,-168.324C932.182,-160.341 918.594,-148.313 907.682,-138.653"/>
<polygon fill="midnightblue" stroke="midnightblue" points="909.787,-135.842 899.979,-131.834 905.147,-141.083 909.787,-135.842"/>
</g>
</g>
</svg>
