<?xml version="1.0" encoding="UTF-8" standalone="no"?>
<!DOCTYPE svg PUBLIC "-//W3C//DTD SVG 1.1//EN"
 "http://www.w3.org/Graphics/SVG/1.1/DTD/svg11.dtd">
<!-- Generated by graphviz version 2.36.0 (20140111.2315)
 -->
<!-- Title: source/main/gfx/DustPool.cpp Pages: 1 -->
<!--zoomable 308 -->
<svg id="main" version="1.1" xmlns="http://www.w3.org/2000/svg" xmlns:xlink="http://www.w3.org/1999/xlink" xml:space="preserve" onload="init(evt)">
<style type="text/css"><![CDATA[
.edge:hover path { stroke: red; }
.edge:hover polygon { stroke: red; fill: red; }
]]></style>
<script type="text/javascript"><![CDATA[
var edges = document.getElementsByTagName('g');
if (edges && edges.length) {
  for (var i=0;i<edges.length;i++) {
    if (edges[i].id.substr(0,4)=='edge') {
      edges[i].setAttribute('class','edge');
    }
  }
}
]]></script>
        <defs>
                <circle id="rim" cx="0" cy="0" r="7"/>
                <circle id="rim2" cx="0" cy="0" r="3.5"/>
                <g id="zoomPlus">
                        <use xlink:href="#rim" fill="#404040">
                                <set attributeName="fill" to="#808080" begin="zoomplus.mouseover" end="zoomplus.mouseout"/>
                        </use>
                        <path d="M-4,0h8M0,-4v8" fill="none" stroke="white" stroke-width="1.5" pointer-events="none"/>
                </g>
                <g id="zoomMin">
                        <use xlink:href="#rim" fill="#404040">
                                <set attributeName="fill" to="#808080" begin="zoomminus.mouseover" end="zoomminus.mouseout"/>
                        </use>
                        <path d="M-4,0h8" fill="none" stroke="white" stroke-width="1.5" pointer-events="none"/>
                </g>
                <g id="dirArrow">
                        <path fill="none" stroke="white" stroke-width="1.5" d="M0,-3.0v7 M-2.5,-0.5L0,-3.0L2.5,-0.5"/>
                </g>
               <g id="resetDef">
                       <use xlink:href="#rim2" fill="#404040">
                               <set attributeName="fill" to="#808080" begin="reset.mouseover" end="reset.mouseout"/>
                       </use>
               </g>
        </defs>

<script type="text/javascript">
var viewWidth = 1976;
var viewHeight = 308;
var sectionId = 'dynsection-0';
</script>
<script xlink:href="svgpan.js"/>
<svg id="graph" class="graph">
<g id="viewport">
<title>source/main/gfx/DustPool.cpp</title>
<polygon fill="white" stroke="none" points="-4,4 -4,-304 1972,-304 1972,4 -4,4"/>
<!-- Node1 -->
<g id="node1" class="node"><title>Node1</title>
<polygon fill="#bfbfbf" stroke="black" points="972.5,-280.5 972.5,-299.5 1121.5,-299.5 1121.5,-280.5 972.5,-280.5"/>
<text text-anchor="middle" x="1047" y="-287.5" font-family="Helvetica,sans-Serif" font-size="10.00">source/main/gfx/DustPool.cpp</text>
</g>
<!-- Node2 -->
<g id="node2" class="node"><title>Node2</title>
<g id="a_node2"><a xlink:href="_dust_pool_8h.html" target="_top" xlink:title="DustPool.h">
<polygon fill="white" stroke="black" points="953.5,-224.5 953.5,-243.5 1018.5,-243.5 1018.5,-224.5 953.5,-224.5"/>
<text text-anchor="middle" x="986" y="-231.5" font-family="Helvetica,sans-Serif" font-size="10.00">DustPool.h</text>
</a>
</g>
</g>
<!-- Node1&#45;&gt;Node2 -->
<g id="edge1" class="edge"><title>Node1&#45;&gt;Node2</title>
<path fill="none" stroke="midnightblue" d="M1037.2,-280.324C1028.18,-272.341 1014.59,-260.313 1003.68,-250.653"/>
<polygon fill="midnightblue" stroke="midnightblue" points="1005.79,-247.842 995.979,-243.834 1001.15,-253.083 1005.79,-247.842"/>
</g>
<!-- Node3 -->
<g id="node3" class="node"><title>Node3</title>
<g id="a_node3"><a xlink:href="_ro_r_prerequisites_8h.html" target="_top" xlink:title="RoRPrerequisites.h">
<polygon fill="white" stroke="black" points="1015,-112.5 1015,-131.5 1117,-131.5 1117,-112.5 1015,-112.5"/>
<text text-anchor="middle" x="1066" y="-119.5" font-family="Helvetica,sans-Serif" font-size="10.00">RoRPrerequisites.h</text>
</a>
</g>
</g>
<!-- Node1&#45;&gt;Node3 -->
<g id="edge23" class="edge"><title>Node1&#45;&gt;Node3</title>
<path fill="none" stroke="midnightblue" d="M1048.02,-280.075C1051.01,-253.945 1059.8,-177.211 1063.87,-141.577"/>
<polygon fill="midnightblue" stroke="midnightblue" points="1067.36,-141.901 1065.02,-131.568 1060.4,-141.105 1067.36,-141.901"/>
</g>
<!-- Node22 -->
<g id="node22" class="node"><title>Node22</title>
<polygon fill="white" stroke="#bfbfbf" points="1185,-168.5 1185,-187.5 1231,-187.5 1231,-168.5 1185,-168.5"/>
<text text-anchor="middle" x="1208" y="-175.5" font-family="Helvetica,sans-Serif" font-size="10.00">Ogre.h</text>
</g>
<!-- Node1&#45;&gt;Node22 -->
<g id="edge22" class="edge"><title>Node1&#45;&gt;Node22</title>
<path fill="none" stroke="midnightblue" d="M1077.61,-280.467C1100.17,-273.19 1130.85,-261.16 1154,-244 1171.79,-230.814 1187.37,-210.581 1197.17,-196.195"/>
<polygon fill="midnightblue" stroke="midnightblue" points="1200.17,-197.998 1202.73,-187.718 1194.32,-194.156 1200.17,-197.998"/>
</g>
<!-- Node23 -->
<g id="node23" class="node"><title>Node23</title>
<g id="a_node23"><a xlink:href="_terrain_manager_8h.html" target="_top" xlink:title="TerrainManager.h">
<polygon fill="white" stroke="black" points="827,-168.5 827,-187.5 919,-187.5 919,-168.5 827,-168.5"/>
<text text-anchor="middle" x="873" y="-175.5" font-family="Helvetica,sans-Serif" font-size="10.00">TerrainManager.h</text>
</a>
</g>
</g>
<!-- Node1&#45;&gt;Node23 -->
<g id="edge24" class="edge"><title>Node1&#45;&gt;Node23</title>
<path fill="none" stroke="midnightblue" d="M1021.27,-280.452C999.683,-272.665 968.539,-259.958 944,-244 922.451,-229.986 901.166,-209.347 887.607,-195.104"/>
<polygon fill="midnightblue" stroke="midnightblue" points="889.95,-192.485 880.572,-187.554 884.829,-197.257 889.95,-192.485"/>
</g>
<!-- Node28 -->
<g id="node28" class="node"><title>Node28</title>
<g id="a_node28"><a xlink:href="_water_8h.html" target="_top" xlink:title="Water.h">
<polygon fill="white" stroke="black" points="1094.5,-224.5 1094.5,-243.5 1145.5,-243.5 1145.5,-224.5 1094.5,-224.5"/>
<text text-anchor="middle" x="1120" y="-231.5" font-family="Helvetica,sans-Serif" font-size="10.00">Water.h</text>
</a>
</g>
</g>
<!-- Node1&#45;&gt;Node28 -->
<g id="edge32" class="edge"><title>Node1&#45;&gt;Node28</title>
<path fill="none" stroke="midnightblue" d="M1058.73,-280.324C1069.84,-272.107 1086.74,-259.602 1099.98,-249.807"/>
<polygon fill="midnightblue" stroke="midnightblue" points="1102.1,-252.595 1108.06,-243.834 1097.94,-246.967 1102.1,-252.595"/>
</g>
<!-- Node2&#45;&gt;Node3 -->
<g id="edge2" class="edge"><title>Node2&#45;&gt;Node3</title>
<path fill="none" stroke="midnightblue" d="M992.367,-224.155C1001.39,-211.636 1018.41,-188.038 1033,-168 1039.78,-158.683 1047.39,-148.307 1053.59,-139.869"/>
<polygon fill="midnightblue" stroke="midnightblue" points="1056.55,-141.744 1059.66,-131.614 1050.91,-137.598 1056.55,-141.744"/>
</g>
<!-- Node21 -->
<g id="node21" class="node"><title>Node21</title>
<polygon fill="white" stroke="#bfbfbf" points="937,-168.5 937,-187.5 981,-187.5 981,-168.5 937,-168.5"/>
<text text-anchor="middle" x="959" y="-175.5" font-family="Helvetica,sans-Serif" font-size="10.00">mutex</text>
</g>
<!-- Node2&#45;&gt;Node21 -->
<g id="edge21" class="edge"><title>Node2&#45;&gt;Node21</title>
<path fill="none" stroke="midnightblue" d="M981.541,-224.083C977.846,-216.691 972.477,-205.953 967.906,-196.811"/>
<polygon fill="midnightblue" stroke="midnightblue" points="970.978,-195.13 963.376,-187.751 964.717,-198.261 970.978,-195.13"/>
</g>
<!-- Node4 -->
<g id="node4" class="node"><title>Node4</title>
<polygon fill="white" stroke="#bfbfbf" points="1865.5,-56.5 1865.5,-75.5 1968.5,-75.5 1968.5,-56.5 1865.5,-56.5"/>
<text text-anchor="middle" x="1917" y="-63.5" font-family="Helvetica,sans-Serif" font-size="10.00">OgrePrerequisites.h</text>
</g>
<!-- Node3&#45;&gt;Node4 -->
<g id="edge3" class="edge"><title>Node3&#45;&gt;Node4</title>
<path fill="none" stroke="midnightblue" d="M1117.42,-119.666C1242.07,-116.089 1570.41,-104.618 1855.34,-75.9629"/>
<polygon fill="midnightblue" stroke="midnightblue" points="1855.86,-79.4281 1865.46,-74.9363 1855.15,-72.4638 1855.86,-79.4281"/>
</g>
<!-- Node5 -->
<g id="node5" class="node"><title>Node5</title>
<polygon fill="white" stroke="#bfbfbf" points="437.5,-56.5 437.5,-75.5 552.5,-75.5 552.5,-56.5 437.5,-56.5"/>
<text text-anchor="middle" x="495" y="-63.5" font-family="Helvetica,sans-Serif" font-size="10.00">OgreAxisAlignedBox.h</text>
</g>
<!-- Node3&#45;&gt;Node5 -->
<g id="edge4" class="edge"><title>Node3&#45;&gt;Node5</title>
<path fill="none" stroke="midnightblue" d="M1014.67,-117.221C925.046,-110.45 733.988,-95.2448 562.535,-76.1295"/>
<polygon fill="midnightblue" stroke="midnightblue" points="562.901,-72.6487 552.573,-75.0119 562.121,-79.605 562.901,-72.6487"/>
</g>
<!-- Node6 -->
<g id="node6" class="node"><title>Node6</title>
<polygon fill="white" stroke="#bfbfbf" points="320.5,-56.5 320.5,-75.5 419.5,-75.5 419.5,-56.5 320.5,-56.5"/>
<text text-anchor="middle" x="370" y="-63.5" font-family="Helvetica,sans-Serif" font-size="10.00">OgreColourValue.h</text>
</g>
<!-- Node3&#45;&gt;Node6 -->
<g id="edge5" class="edge"><title>Node3&#45;&gt;Node6</title>
<path fill="none" stroke="midnightblue" d="M1014.59,-118.833C907.595,-114.007 652.975,-100.88 429.579,-76.0946"/>
<polygon fill="midnightblue" stroke="midnightblue" points="429.965,-72.6159 419.637,-74.9814 429.186,-79.5725 429.965,-72.6159"/>
</g>
<!-- Node7 -->
<g id="node7" class="node"><title>Node7</title>
<polygon fill="white" stroke="#bfbfbf" points="570.5,-56.5 570.5,-75.5 673.5,-75.5 673.5,-56.5 570.5,-56.5"/>
<text text-anchor="middle" x="622" y="-63.5" font-family="Helvetica,sans-Serif" font-size="10.00">OgreHeaderPrefix.h</text>
</g>
<!-- Node3&#45;&gt;Node7 -->
<g id="edge6" class="edge"><title>Node3&#45;&gt;Node7</title>
<path fill="none" stroke="midnightblue" d="M1014.69,-115.519C942.933,-107.736 808.266,-92.7031 683.785,-76.2058"/>
<polygon fill="midnightblue" stroke="midnightblue" points="684.07,-72.713 673.696,-74.8624 683.146,-79.6517 684.07,-72.713"/>
</g>
<!-- Node8 -->
<g id="node8" class="node"><title>Node8</title>
<polygon fill="white" stroke="#bfbfbf" points="691.5,-56.5 691.5,-75.5 790.5,-75.5 790.5,-56.5 691.5,-56.5"/>
<text text-anchor="middle" x="741" y="-63.5" font-family="Helvetica,sans-Serif" font-size="10.00">OgreLogManager.h</text>
</g>
<!-- Node3&#45;&gt;Node8 -->
<g id="edge7" class="edge"><title>Node3&#45;&gt;Node8</title>
<path fill="none" stroke="midnightblue" d="M1014.86,-112.503C956.696,-102.839 861.852,-87.0801 800.442,-76.8766"/>
<polygon fill="midnightblue" stroke="midnightblue" points="800.948,-73.4126 790.509,-75.2262 799.8,-80.318 800.948,-73.4126"/>
</g>
<!-- Node9 -->
<g id="node9" class="node"><title>Node9</title>
<polygon fill="white" stroke="#bfbfbf" points="808.5,-56.5 808.5,-75.5 901.5,-75.5 901.5,-56.5 808.5,-56.5"/>
<text text-anchor="middle" x="855" y="-63.5" font-family="Helvetica,sans-Serif" font-size="10.00">OgreQuaternion.h</text>
</g>
<!-- Node3&#45;&gt;Node9 -->
<g id="edge8" class="edge"><title>Node3&#45;&gt;Node9</title>
<path fill="none" stroke="midnightblue" d="M1032.57,-112.444C996.144,-103.122 937.77,-88.1828 897.971,-77.9972"/>
<polygon fill="midnightblue" stroke="midnightblue" points="898.833,-74.6051 888.277,-75.5164 897.097,-81.3866 898.833,-74.6051"/>
</g>
<!-- Node10 -->
<g id="node10" class="node"><title>Node10</title>
<polygon fill="white" stroke="#bfbfbf" points="919.5,-56.5 919.5,-75.5 990.5,-75.5 990.5,-56.5 919.5,-56.5"/>
<text text-anchor="middle" x="955" y="-63.5" font-family="Helvetica,sans-Serif" font-size="10.00">OgreString.h</text>
</g>
<!-- Node3&#45;&gt;Node10 -->
<g id="edge9" class="edge"><title>Node3&#45;&gt;Node10</title>
<path fill="none" stroke="midnightblue" d="M1048.17,-112.324C1030.28,-103.625 1002.52,-90.1202 981.954,-80.113"/>
<polygon fill="midnightblue" stroke="midnightblue" points="983.313,-76.8819 972.79,-75.6545 980.251,-83.1765 983.313,-76.8819"/>
</g>
<!-- Node11 -->
<g id="node11" class="node"><title>Node11</title>
<polygon fill="white" stroke="#bfbfbf" points="1009,-56.5 1009,-75.5 1123,-75.5 1123,-56.5 1009,-56.5"/>
<text text-anchor="middle" x="1066" y="-63.5" font-family="Helvetica,sans-Serif" font-size="10.00">OgreStringConverter.h</text>
</g>
<!-- Node3&#45;&gt;Node11 -->
<g id="edge10" class="edge"><title>Node3&#45;&gt;Node11</title>
<path fill="none" stroke="midnightblue" d="M1066,-112.083C1066,-105.006 1066,-94.8611 1066,-85.9865"/>
<polygon fill="midnightblue" stroke="midnightblue" points="1069.5,-85.751 1066,-75.7511 1062.5,-85.7511 1069.5,-85.751"/>
</g>
<!-- Node12 -->
<g id="node12" class="node"><title>Node12</title>
<polygon fill="white" stroke="#bfbfbf" points="1141.5,-56.5 1141.5,-75.5 1232.5,-75.5 1232.5,-56.5 1141.5,-56.5"/>
<text text-anchor="middle" x="1187" y="-63.5" font-family="Helvetica,sans-Serif" font-size="10.00">OgreUTFString.h</text>
</g>
<!-- Node3&#45;&gt;Node12 -->
<g id="edge11" class="edge"><title>Node3&#45;&gt;Node12</title>
<path fill="none" stroke="midnightblue" d="M1085.17,-112.444C1104.91,-103.636 1135.89,-89.8116 1158.49,-79.722"/>
<polygon fill="midnightblue" stroke="midnightblue" points="1160.21,-82.788 1167.92,-75.5164 1157.36,-76.3957 1160.21,-82.788"/>
</g>
<!-- Node13 -->
<g id="node13" class="node"><title>Node13</title>
<polygon fill="white" stroke="#bfbfbf" points="1251,-56.5 1251,-75.5 1331,-75.5 1331,-56.5 1251,-56.5"/>
<text text-anchor="middle" x="1291" y="-63.5" font-family="Helvetica,sans-Serif" font-size="10.00">OgreVector2.h</text>
</g>
<!-- Node3&#45;&gt;Node13 -->
<g id="edge12" class="edge"><title>Node3&#45;&gt;Node13</title>
<path fill="none" stroke="midnightblue" d="M1101.65,-112.444C1140.66,-103.083 1203.27,-88.0561 1245.72,-77.868"/>
<polygon fill="midnightblue" stroke="midnightblue" points="1246.61,-81.2536 1255.51,-75.5164 1244.97,-74.4469 1246.61,-81.2536"/>
</g>
<!-- Node14 -->
<g id="node14" class="node"><title>Node14</title>
<polygon fill="white" stroke="#bfbfbf" points="222,-56.5 222,-75.5 302,-75.5 302,-56.5 222,-56.5"/>
<text text-anchor="middle" x="262" y="-63.5" font-family="Helvetica,sans-Serif" font-size="10.00">OgreVector3.h</text>
</g>
<!-- Node3&#45;&gt;Node14 -->
<g id="edge13" class="edge"><title>Node3&#45;&gt;Node14</title>
<path fill="none" stroke="midnightblue" d="M1014.99,-120.107C894.442,-117.535 582.386,-108.18 312.053,-75.9724"/>
<polygon fill="midnightblue" stroke="midnightblue" points="312.397,-72.4886 302.05,-74.7678 311.56,-79.4384 312.397,-72.4886"/>
</g>
<!-- Node15 -->
<g id="node15" class="node"><title>Node15</title>
<g id="a_node15"><a xlink:href="_forward_declarations_8h.html" target="_top" xlink:title="Global forward declarations. ">
<polygon fill="white" stroke="black" points="1538.5,-0.5 1538.5,-19.5 1653.5,-19.5 1653.5,-0.5 1538.5,-0.5"/>
<text text-anchor="middle" x="1596" y="-7.5" font-family="Helvetica,sans-Serif" font-size="10.00">ForwardDeclarations.h</text>
</a>
</g>
</g>
<!-- Node3&#45;&gt;Node15 -->
<g id="edge14" class="edge"><title>Node3&#45;&gt;Node15</title>
<path fill="none" stroke="midnightblue" d="M1117.04,-121.214C1259.27,-121.281 1652.23,-117.661 1691,-76 1712.13,-53.2977 1672.73,-34.2343 1638.43,-22.7401"/>
<polygon fill="midnightblue" stroke="midnightblue" points="1639.07,-19.2715 1628.48,-19.5613 1636.94,-25.9393 1639.07,-19.2715"/>
</g>
<!-- Node16 -->
<g id="node16" class="node"><title>Node16</title>
<g id="a_node16"><a xlink:href="_global_environment_8h.html" target="_top" xlink:title="GlobalEnvironment.h">
<polygon fill="white" stroke="black" points="1428.5,-56.5 1428.5,-75.5 1535.5,-75.5 1535.5,-56.5 1428.5,-56.5"/>
<text text-anchor="middle" x="1482" y="-63.5" font-family="Helvetica,sans-Serif" font-size="10.00">GlobalEnvironment.h</text>
</a>
</g>
</g>
<!-- Node3&#45;&gt;Node16 -->
<g id="edge15" class="edge"><title>Node3&#45;&gt;Node16</title>
<path fill="none" stroke="midnightblue" d="M1117.18,-114.721C1183.94,-106.478 1304.62,-91.3875 1418.46,-76.0556"/>
<polygon fill="midnightblue" stroke="midnightblue" points="1418.95,-79.5209 1428.39,-74.7145 1418.01,-72.5838 1418.95,-79.5209"/>
</g>
<!-- Node17 -->
<g id="node17" class="node"><title>Node17</title>
<g id="a_node17"><a xlink:href="_zeroed_memory_allocator_8h.html" target="_top" xlink:title="ZeroedMemoryAllocator.h">
<polygon fill="white" stroke="black" points="1554,-56.5 1554,-75.5 1682,-75.5 1682,-56.5 1554,-56.5"/>
<text text-anchor="middle" x="1618" y="-63.5" font-family="Helvetica,sans-Serif" font-size="10.00">ZeroedMemoryAllocator.h</text>
</a>
</g>
</g>
<!-- Node3&#45;&gt;Node17 -->
<g id="edge17" class="edge"><title>Node3&#45;&gt;Node17</title>
<path fill="none" stroke="midnightblue" d="M1117.33,-116.628C1203.12,-109.221 1381.32,-93.4038 1543.66,-76.0065"/>
<polygon fill="midnightblue" stroke="midnightblue" points="1544.27,-79.4615 1553.84,-74.9117 1543.52,-72.5017 1544.27,-79.4615"/>
</g>
<!-- Node18 -->
<g id="node18" class="node"><title>Node18</title>
<g id="a_node18"><a xlink:href="_bit_flags_8h.html" target="_top" xlink:title="BitFlags.h">
<polygon fill="white" stroke="black" points="1349.5,-56.5 1349.5,-75.5 1410.5,-75.5 1410.5,-56.5 1349.5,-56.5"/>
<text text-anchor="middle" x="1380" y="-63.5" font-family="Helvetica,sans-Serif" font-size="10.00">BitFlags.h</text>
</a>
</g>
</g>
<!-- Node3&#45;&gt;Node18 -->
<g id="edge18" class="edge"><title>Node3&#45;&gt;Node18</title>
<path fill="none" stroke="midnightblue" d="M1117.16,-113.513C1170.22,-105.543 1255.8,-92.1157 1339.53,-75.9917"/>
<polygon fill="midnightblue" stroke="midnightblue" points="1340.31,-79.4049 1349.46,-74.0639 1338.98,-72.533 1340.31,-79.4049"/>
</g>
<!-- Node20 -->
<g id="node20" class="node"><title>Node20</title>
<polygon fill="white" stroke="#bfbfbf" points="1738.5,-56.5 1738.5,-75.5 1847.5,-75.5 1847.5,-56.5 1738.5,-56.5"/>
<text text-anchor="middle" x="1793" y="-63.5" font-family="Helvetica,sans-Serif" font-size="10.00">MyGUI_Prerequest.h</text>
</g>
<!-- Node3&#45;&gt;Node20 -->
<g id="edge20" class="edge"><title>Node3&#45;&gt;Node20</title>
<path fill="none" stroke="midnightblue" d="M1117.28,-118.567C1228.15,-113.072 1498.39,-98.4066 1724,-76 1725.47,-75.8545 1726.95,-75.7024 1728.44,-75.5448"/>
<polygon fill="midnightblue" stroke="midnightblue" points="1728.87,-79.0186 1738.42,-74.4333 1728.1,-72.0616 1728.87,-79.0186"/>
</g>
<!-- Node16&#45;&gt;Node15 -->
<g id="edge16" class="edge"><title>Node16&#45;&gt;Node15</title>
<path fill="none" stroke="midnightblue" d="M1500.06,-56.4435C1518.57,-47.6751 1547.58,-33.9355 1568.86,-23.8579"/>
<polygon fill="midnightblue" stroke="midnightblue" points="1570.48,-26.9604 1578.02,-19.5164 1567.49,-20.6343 1570.48,-26.9604"/>
</g>
<!-- Node19 -->
<g id="node19" class="node"><title>Node19</title>
<polygon fill="white" stroke="#bfbfbf" points="1357,-0.5 1357,-19.5 1403,-19.5 1403,-0.5 1357,-0.5"/>
<text text-anchor="middle" x="1380" y="-7.5" font-family="Helvetica,sans-Serif" font-size="10.00">cstdint</text>
</g>
<!-- Node18&#45;&gt;Node19 -->
<g id="edge19" class="edge"><title>Node18&#45;&gt;Node19</title>
<path fill="none" stroke="midnightblue" d="M1380,-56.083C1380,-49.0059 1380,-38.8611 1380,-29.9865"/>
<polygon fill="midnightblue" stroke="midnightblue" points="1383.5,-29.751 1380,-19.7511 1376.5,-29.7511 1383.5,-29.751"/>
</g>
<!-- Node23&#45;&gt;Node3 -->
<g id="edge25" class="edge"><title>Node23&#45;&gt;Node3</title>
<path fill="none" stroke="midnightblue" d="M903.581,-168.444C936.615,-159.201 989.388,-144.436 1025.77,-134.257"/>
<polygon fill="midnightblue" stroke="midnightblue" points="1026.87,-137.582 1035.56,-131.516 1024.99,-130.84 1026.87,-137.582"/>
</g>
<!-- Node24 -->
<g id="node24" class="node"><title>Node24</title>
<g id="a_node24"><a xlink:href="_terrn2_fileformat_8h.html" target="_top" xlink:title="Terrn2Fileformat.h">
<polygon fill="white" stroke="black" points="161,-112.5 161,-131.5 257,-131.5 257,-112.5 161,-112.5"/>
<text text-anchor="middle" x="209" y="-119.5" font-family="Helvetica,sans-Serif" font-size="10.00">Terrn2Fileformat.h</text>
</a>
</g>
</g>
<!-- Node23&#45;&gt;Node24 -->
<g id="edge26" class="edge"><title>Node23&#45;&gt;Node24</title>
<path fill="none" stroke="midnightblue" d="M826.836,-173.246C709.004,-163.663 397.26,-138.31 267.237,-127.736"/>
<polygon fill="midnightblue" stroke="midnightblue" points="267.331,-124.232 257.08,-126.91 266.764,-131.209 267.331,-124.232"/>
</g>
<!-- Node24&#45;&gt;Node6 -->
<g id="edge29" class="edge"><title>Node24&#45;&gt;Node6</title>
<path fill="none" stroke="midnightblue" d="M234.511,-112.444C261.596,-103.359 304.59,-88.9388 334.869,-78.7831"/>
<polygon fill="midnightblue" stroke="midnightblue" points="336.24,-82.0148 344.608,-75.5164 334.014,-75.3781 336.24,-82.0148"/>
</g>
<!-- Node24&#45;&gt;Node14 -->
<g id="edge31" class="edge"><title>Node24&#45;&gt;Node14</title>
<path fill="none" stroke="midnightblue" d="M217.752,-112.083C225.47,-104.22 236.905,-92.5688 246.217,-83.0813"/>
<polygon fill="midnightblue" stroke="midnightblue" points="248.904,-85.3396 253.411,-75.7511 243.908,-80.4363 248.904,-85.3396"/>
</g>
<!-- Node25 -->
<g id="node25" class="node"><title>Node25</title>
<polygon fill="white" stroke="#bfbfbf" points="-0.5,-56.5 -0.5,-75.5 40.5,-75.5 40.5,-56.5 -0.5,-56.5"/>
<text text-anchor="middle" x="20" y="-63.5" font-family="Helvetica,sans-Serif" font-size="10.00">string</text>
</g>
<!-- Node24&#45;&gt;Node25 -->
<g id="edge27" class="edge"><title>Node24&#45;&gt;Node25</title>
<path fill="none" stroke="midnightblue" d="M177.657,-112.451C147.304,-104.114 99.751,-90.8989 50.18,-76.2988"/>
<polygon fill="midnightblue" stroke="midnightblue" points="51.1564,-72.9378 40.5745,-73.4596 49.1722,-79.6507 51.1564,-72.9378"/>
</g>
<!-- Node26 -->
<g id="node26" class="node"><title>Node26</title>
<polygon fill="white" stroke="#bfbfbf" points="58.5,-56.5 58.5,-75.5 87.5,-75.5 87.5,-56.5 58.5,-56.5"/>
<text text-anchor="middle" x="73" y="-63.5" font-family="Helvetica,sans-Serif" font-size="10.00">list</text>
</g>
<!-- Node24&#45;&gt;Node26 -->
<g id="edge28" class="edge"><title>Node24&#45;&gt;Node26</title>
<path fill="none" stroke="midnightblue" d="M187.45,-112.444C162.853,-102.677 122.723,-86.743 97.1063,-76.5716"/>
<polygon fill="midnightblue" stroke="midnightblue" points="98.3281,-73.291 87.7423,-72.8536 95.7448,-79.7969 98.3281,-73.291"/>
</g>
<!-- Node27 -->
<g id="node27" class="node"><title>Node27</title>
<polygon fill="white" stroke="#bfbfbf" points="106,-56.5 106,-75.5 204,-75.5 204,-56.5 106,-56.5"/>
<text text-anchor="middle" x="155" y="-63.5" font-family="Helvetica,sans-Serif" font-size="10.00">OgreDataStream.h</text>
</g>
<!-- Node24&#45;&gt;Node27 -->
<g id="edge30" class="edge"><title>Node24&#45;&gt;Node27</title>
<path fill="none" stroke="midnightblue" d="M200.083,-112.083C192.22,-104.22 180.569,-92.5688 171.081,-83.0813"/>
<polygon fill="midnightblue" stroke="midnightblue" points="173.297,-80.3473 163.751,-75.7511 168.347,-85.2971 173.297,-80.3473"/>
</g>
<!-- Node28&#45;&gt;Node3 -->
<g id="edge34" class="edge"><title>Node28&#45;&gt;Node3</title>
<path fill="none" stroke="midnightblue" d="M1115.76,-224.368C1106.93,-206.376 1086.4,-164.55 1074.65,-140.627"/>
<polygon fill="midnightblue" stroke="midnightblue" points="1077.77,-139.026 1070.22,-131.591 1071.48,-142.11 1077.77,-139.026"/>
</g>
<!-- Node28&#45;&gt;Node22 -->
<g id="edge33" class="edge"><title>Node28&#45;&gt;Node22</title>
<path fill="none" stroke="midnightblue" d="M1134.14,-224.324C1147.87,-215.9 1168.94,-202.971 1185.06,-193.074"/>
<polygon fill="midnightblue" stroke="midnightblue" points="1187.2,-195.868 1193.9,-187.655 1183.54,-189.902 1187.2,-195.868"/>
</g>
<!-- Node29 -->
<g id="node29" class="node"><title>Node29</title>
<g id="a_node29"><a xlink:href="_i_water_8h.html" target="_top" xlink:title="IWater.h">
<polygon fill="white" stroke="black" points="1113,-168.5 1113,-187.5 1167,-187.5 1167,-168.5 1113,-168.5"/>
<text text-anchor="middle" x="1140" y="-175.5" font-family="Helvetica,sans-Serif" font-size="10.00">IWater.h</text>
</a>
</g>
</g>
<!-- Node28&#45;&gt;Node29 -->
<g id="edge35" class="edge"><title>Node28&#45;&gt;Node29</title>
<path fill="none" stroke="midnightblue" d="M1123.3,-224.083C1125.98,-216.849 1129.85,-206.409 1133.19,-197.397"/>
<polygon fill="midnightblue" stroke="midnightblue" points="1136.57,-198.344 1136.76,-187.751 1130,-195.913 1136.57,-198.344"/>
</g>
<!-- Node29&#45;&gt;Node3 -->
<g id="edge36" class="edge"><title>Node29&#45;&gt;Node3</title>
<path fill="none" stroke="midnightblue" d="M1128.11,-168.324C1116.85,-160.107 1099.71,-147.602 1086.29,-137.807"/>
<polygon fill="midnightblue" stroke="midnightblue" points="1088.25,-134.901 1078.11,-131.834 1084.12,-140.556 1088.25,-134.901"/>
</g>
</g>
</svg>
        <g id="navigator" transform="translate(0 0)" fill="#404254">
                <rect fill="#f2f5e9" fill-opacity="0.5" stroke="#606060" stroke-width=".5" x="0" y="0" width="60" height="60"/>
                <use id="zoomplus" xlink:href="#zoomPlus" x="17" y="9" onmousedown="handleZoom(evt,'in')"/>
                <use id="zoomminus" xlink:href="#zoomMin" x="42" y="9" onmousedown="handleZoom(evt,'out')"/>
                <use id="reset" xlink:href="#resetDef" x="30" y="36" onmousedown="handleReset()"/>
                <g id="arrowUp" xlink:href="#dirArrow" transform="translate(30 24)" onmousedown="handlePan(0,-1)">
                  <use xlink:href="#rim" fill="#404040">
                        <set attributeName="fill" to="#808080" begin="arrowUp.mouseover" end="arrowUp.mouseout"/>
                  </use>
                  <path fill="none" stroke="white" stroke-width="1.5" d="M0,-3.0v7 M-2.5,-0.5L0,-3.0L2.5,-0.5"/>
                </g>
                <g id="arrowRight" xlink:href="#dirArrow" transform="rotate(90) translate(36 -43)" onmousedown="handlePan(1,0)">
                  <use xlink:href="#rim" fill="#404040">
                        <set attributeName="fill" to="#808080" begin="arrowRight.mouseover" end="arrowRight.mouseout"/>
                  </use>
                  <path fill="none" stroke="white" stroke-width="1.5" d="M0,-3.0v7 M-2.5,-0.5L0,-3.0L2.5,-0.5"/>
                </g>
                <g id="arrowDown" xlink:href="#dirArrow" transform="rotate(180) translate(-30 -48)" onmousedown="handlePan(0,1)">
                  <use xlink:href="#rim" fill="#404040">
                        <set attributeName="fill" to="#808080" begin="arrowDown.mouseover" end="arrowDown.mouseout"/>
                  </use>
                  <path fill="none" stroke="white" stroke-width="1.5" d="M0,-3.0v7 M-2.5,-0.5L0,-3.0L2.5,-0.5"/>
                </g>
                <g id="arrowLeft" xlink:href="#dirArrow" transform="rotate(270) translate(-36 17)" onmousedown="handlePan(-1,0)">
                  <use xlink:href="#rim" fill="#404040">
                        <set attributeName="fill" to="#808080" begin="arrowLeft.mouseover" end="arrowLeft.mouseout"/>
                  </use>
                  <path fill="none" stroke="white" stroke-width="1.5" d="M0,-3.0v7 M-2.5,-0.5L0,-3.0L2.5,-0.5"/>
                </g>
        </g>
        <svg viewBox="0 0 15 15" width="100%" height="30px" preserveAspectRatio="xMaxYMin meet">
         <g id="arrow_out" transform="scale(0.3 0.3)">
          <a xlink:href="_dust_pool_8cpp__incl_org.svg" target="_base">
           <rect id="button" ry="5" rx="5" y="6" x="6" height="38" width="38"
                fill="#f2f5e9" fill-opacity="0.5" stroke="#606060" stroke-width="1.0"/>
           <path id="arrow"
             d="M 11.500037,31.436501 C 11.940474,20.09759 22.043105,11.32322 32.158766,21.979434 L 37.068811,17.246167 C 37.068811,17.246167 37.088388,32 37.088388,32 L 22.160133,31.978069 C 22.160133,31.978069 26.997745,27.140456 26.997745,27.140456 C 18.528582,18.264221 13.291696,25.230495 11.500037,31.436501 z"
             style="fill:#404040;"/>
          </a>
         </g>
        </svg>
</svg>
