<?xml version="1.0" encoding="UTF-8" standalone="no"?>
<!DOCTYPE svg PUBLIC "-//W3C//DTD SVG 1.1//EN"
 "http://www.w3.org/Graphics/SVG/1.1/DTD/svg11.dtd">
<!-- Generated by graphviz version 2.36.0 (20140111.2315)
 -->
<!-- Title: ResolveCollisionForces Pages: 1 -->
<svg width="816pt" height="66pt"
 viewBox="0.00 0.00 816.00 66.00" xmlns="http://www.w3.org/2000/svg" xmlns:xlink="http://www.w3.org/1999/xlink">
<g id="graph0" class="graph" transform="scale(1 1) rotate(0) translate(4 62)">
<title>ResolveCollisionForces</title>
<polygon fill="white" stroke="none" points="-4,4 -4,-62 812,-62 812,4 -4,4"/>
<!-- Node1 -->
<g id="node1" class="node"><title>Node1</title>
<polygon fill="#bfbfbf" stroke="black" points="0,-19.5 0,-38.5 120,-38.5 120,-19.5 0,-19.5"/>
<text text-anchor="middle" x="60" y="-26.5" font-family="Helvetica,sans-Serif" font-size="10.00">ResolveCollisionForces</text>
</g>
<!-- Node2 -->
<g id="node2" class="node"><title>Node2</title>
<g id="a_node2"><a xlink:href="_dynamic_collisions_8h.html#a2e06e402bcfbf043fcf34f1105bcd5a4" target="_top" xlink:title="interTruckCollisions">
<polygon fill="white" stroke="black" points="156.5,-38.5 156.5,-57.5 259.5,-57.5 259.5,-38.5 156.5,-38.5"/>
<text text-anchor="middle" x="208" y="-45.5" font-family="Helvetica,sans-Serif" font-size="10.00">interTruckCollisions</text>
</a>
</g>
</g>
<!-- Node1&#45;&gt;Node2 -->
<g id="edge1" class="edge"><title>Node1&#45;&gt;Node2</title>
<path fill="none" stroke="midnightblue" d="M130.464,-38.0398C139.102,-39.1639 147.805,-40.2966 156.09,-41.3747"/>
<polygon fill="midnightblue" stroke="midnightblue" points="130.752,-34.5479 120.384,-36.728 129.848,-41.4893 130.752,-34.5479"/>
</g>
<!-- Node6 -->
<g id="node6" class="node"><title>Node6</title>
<g id="a_node6"><a xlink:href="_dynamic_collisions_8h.html#a99a047f3ac95e36f940d6665816e6087" target="_top" xlink:title="intraTruckCollisions">
<polygon fill="white" stroke="black" points="156.5,-0.5 156.5,-19.5 259.5,-19.5 259.5,-0.5 156.5,-0.5"/>
<text text-anchor="middle" x="208" y="-7.5" font-family="Helvetica,sans-Serif" font-size="10.00">intraTruckCollisions</text>
</a>
</g>
</g>
<!-- Node1&#45;&gt;Node6 -->
<g id="edge5" class="edge"><title>Node1&#45;&gt;Node6</title>
<path fill="none" stroke="midnightblue" d="M130.464,-19.9602C139.102,-18.8361 147.805,-17.7034 156.09,-16.6253"/>
<polygon fill="midnightblue" stroke="midnightblue" points="129.848,-16.5107 120.384,-21.272 130.752,-23.4521 129.848,-16.5107"/>
</g>
<!-- Node3 -->
<g id="node3" class="node"><title>Node3</title>
<g id="a_node3"><a xlink:href="class_ro_r_1_1_beam_factory.html#ac25b17e65074996433c472da5028fed1" target="_top" xlink:title="RoR::BeamFactory::Update\lPhysicsSimulation">
<polygon fill="white" stroke="black" points="296.5,-14 296.5,-44 435.5,-44 435.5,-14 296.5,-14"/>
<text text-anchor="start" x="304.5" y="-32" font-family="Helvetica,sans-Serif" font-size="10.00">RoR::BeamFactory::Update</text>
<text text-anchor="middle" x="366" y="-21" font-family="Helvetica,sans-Serif" font-size="10.00">PhysicsSimulation</text>
</a>
</g>
</g>
<!-- Node2&#45;&gt;Node3 -->
<g id="edge2" class="edge"><title>Node2&#45;&gt;Node3</title>
<path fill="none" stroke="midnightblue" d="M269.754,-40.6005C278.505,-39.5346 287.562,-38.4316 296.452,-37.3488"/>
<polygon fill="midnightblue" stroke="midnightblue" points="269.152,-37.1478 259.649,-41.8312 269.999,-44.0965 269.152,-37.1478"/>
</g>
<!-- Node4 -->
<g id="node4" class="node"><title>Node4</title>
<g id="a_node4"><a xlink:href="class_ro_r_1_1_beam_factory.html#a87e6c050f0af4ef2e39976749ac9762c" target="_top" xlink:title="RoR::BeamFactory::update">
<polygon fill="white" stroke="black" points="472.5,-19.5 472.5,-38.5 609.5,-38.5 609.5,-19.5 472.5,-19.5"/>
<text text-anchor="middle" x="541" y="-26.5" font-family="Helvetica,sans-Serif" font-size="10.00">RoR::BeamFactory::update</text>
</a>
</g>
</g>
<!-- Node3&#45;&gt;Node4 -->
<g id="edge3" class="edge"><title>Node3&#45;&gt;Node4</title>
<path fill="none" stroke="midnightblue" d="M446.139,-29C454.945,-29 463.852,-29 472.494,-29"/>
<polygon fill="midnightblue" stroke="midnightblue" points="445.871,-25.5001 435.871,-29 445.871,-32.5001 445.871,-25.5001"/>
</g>
<!-- Node5 -->
<g id="node5" class="node"><title>Node5</title>
<g id="a_node5"><a xlink:href="class_ro_r_frame_listener.html#acd8647e188fb8e838689492965b86faf" target="_top" xlink:title="RoRFrameListener::frameStarted">
<polygon fill="white" stroke="black" points="646.5,-19.5 646.5,-38.5 807.5,-38.5 807.5,-19.5 646.5,-19.5"/>
<text text-anchor="middle" x="727" y="-26.5" font-family="Helvetica,sans-Serif" font-size="10.00">RoRFrameListener::frameStarted</text>
</a>
</g>
</g>
<!-- Node4&#45;&gt;Node5 -->
<g id="edge4" class="edge"><title>Node4&#45;&gt;Node5</title>
<path fill="none" stroke="midnightblue" d="M619.879,-29C628.608,-29 637.511,-29 646.263,-29"/>
<polygon fill="midnightblue" stroke="midnightblue" points="619.731,-25.5001 609.731,-29 619.731,-32.5001 619.731,-25.5001"/>
</g>
<!-- Node6&#45;&gt;Node3 -->
<g id="edge6" class="edge"><title>Node6&#45;&gt;Node3</title>
<path fill="none" stroke="midnightblue" d="M269.754,-17.3995C278.505,-18.4654 287.562,-19.5684 296.452,-20.6512"/>
<polygon fill="midnightblue" stroke="midnightblue" points="269.999,-13.9035 259.649,-16.1688 269.152,-20.8522 269.999,-13.9035"/>
</g>
</g>
</svg>
