<?xml version="1.0" encoding="UTF-8" standalone="no"?>
<!DOCTYPE svg PUBLIC "-//W3C//DTD SVG 1.1//EN"
 "http://www.w3.org/Graphics/SVG/1.1/DTD/svg11.dtd">
<!-- Generated by graphviz version 2.36.0 (20140111.2315)
 -->
<!-- Title: source/main/gfx/DynamicRenderable.h Pages: 1 -->
<svg width="388pt" height="140pt"
 viewBox="0.00 0.00 388.00 140.00" xmlns="http://www.w3.org/2000/svg" xmlns:xlink="http://www.w3.org/1999/xlink">
<g id="graph0" class="graph" transform="scale(1 1) rotate(0) translate(4 136)">
<title>source/main/gfx/DynamicRenderable.h</title>
<polygon fill="white" stroke="none" points="-4,4 -4,-136 384,-136 384,4 -4,4"/>
<!-- Node1 -->
<g id="node1" class="node"><title>Node1</title>
<polygon fill="#bfbfbf" stroke="black" points="90,-112.5 90,-131.5 276,-131.5 276,-112.5 90,-112.5"/>
<text text-anchor="middle" x="183" y="-119.5" font-family="Helvetica,sans-Serif" font-size="10.00">source/main/gfx/DynamicRenderable.h</text>
</g>
<!-- Node2 -->
<g id="node2" class="node"><title>Node2</title>
<g id="a_node2"><a xlink:href="_dynamic_lines_8h.html" target="_top" xlink:title="source/main/gfx/DynamicLines.h">
<polygon fill="white" stroke="black" points="5,-56.5 5,-75.5 165,-75.5 165,-56.5 5,-56.5"/>
<text text-anchor="middle" x="85" y="-63.5" font-family="Helvetica,sans-Serif" font-size="10.00">source/main/gfx/DynamicLines.h</text>
</a>
</g>
</g>
<!-- Node1&#45;&gt;Node2 -->
<g id="edge1" class="edge"><title>Node1&#45;&gt;Node2</title>
<path fill="none" stroke="midnightblue" d="M158.414,-107.453C140.322,-97.4835 116.265,-84.2279 100.706,-75.6545"/>
<polygon fill="midnightblue" stroke="midnightblue" points="156.807,-110.563 167.255,-112.324 160.185,-104.432 156.807,-110.563"/>
</g>
<!-- Node4 -->
<g id="node4" class="node"><title>Node4</title>
<g id="a_node4"><a xlink:href="_dynamic_renderable_8cpp.html" target="_top" xlink:title="source/main/gfx/DynamicRenderable.cpp">
<polygon fill="white" stroke="black" points="183.5,-56.5 183.5,-75.5 380.5,-75.5 380.5,-56.5 183.5,-56.5"/>
<text text-anchor="middle" x="282" y="-63.5" font-family="Helvetica,sans-Serif" font-size="10.00">source/main/gfx/DynamicRenderable.cpp</text>
</a>
</g>
</g>
<!-- Node1&#45;&gt;Node4 -->
<g id="edge3" class="edge"><title>Node1&#45;&gt;Node4</title>
<path fill="none" stroke="midnightblue" d="M207.837,-107.453C226.114,-97.4835 250.416,-84.2279 266.133,-75.6545"/>
<polygon fill="midnightblue" stroke="midnightblue" points="206.009,-104.463 198.906,-112.324 209.361,-110.608 206.009,-104.463"/>
</g>
<!-- Node3 -->
<g id="node3" class="node"><title>Node3</title>
<g id="a_node3"><a xlink:href="_dynamic_lines_8cpp.html" target="_top" xlink:title="source/main/gfx/DynamicLines.cpp">
<polygon fill="white" stroke="black" points="0,-0.5 0,-19.5 170,-19.5 170,-0.5 0,-0.5"/>
<text text-anchor="middle" x="85" y="-7.5" font-family="Helvetica,sans-Serif" font-size="10.00">source/main/gfx/DynamicLines.cpp</text>
</a>
</g>
</g>
<!-- Node2&#45;&gt;Node3 -->
<g id="edge2" class="edge"><title>Node2&#45;&gt;Node3</title>
<path fill="none" stroke="midnightblue" d="M85,-45.8045C85,-36.9102 85,-26.7798 85,-19.7511"/>
<polygon fill="midnightblue" stroke="midnightblue" points="81.5001,-46.083 85,-56.083 88.5001,-46.083 81.5001,-46.083"/>
</g>
</g>
</svg>
