<?xml version="1.0" encoding="UTF-8" standalone="no"?>
<!DOCTYPE svg PUBLIC "-//W3C//DTD SVG 1.1//EN"
 "http://www.w3.org/Graphics/SVG/1.1/DTD/svg11.dtd">
<!-- Generated by graphviz version 2.36.0 (20140111.2315)
 -->
<!-- Title: source/main/gfx/hydrax/FFT.cpp Pages: 1 -->
<!--zoomable 544 -->
<svg id="main" version="1.1" xmlns="http://www.w3.org/2000/svg" xmlns:xlink="http://www.w3.org/1999/xlink" xml:space="preserve" onload="init(evt)">
<style type="text/css"><![CDATA[
.edge:hover path { stroke: red; }
.edge:hover polygon { stroke: red; fill: red; }
]]></style>
<script type="text/javascript"><![CDATA[
var edges = document.getElementsByTagName('g');
if (edges && edges.length) {
  for (var i=0;i<edges.length;i++) {
    if (edges[i].id.substr(0,4)=='edge') {
      edges[i].setAttribute('class','edge');
    }
  }
}
]]></script>
        <defs>
                <circle id="rim" cx="0" cy="0" r="7"/>
                <circle id="rim2" cx="0" cy="0" r="3.5"/>
                <g id="zoomPlus">
                        <use xlink:href="#rim" fill="#404040">
                                <set attributeName="fill" to="#808080" begin="zoomplus.mouseover" end="zoomplus.mouseout"/>
                        </use>
                        <path d="M-4,0h8M0,-4v8" fill="none" stroke="white" stroke-width="1.5" pointer-events="none"/>
                </g>
                <g id="zoomMin">
                        <use xlink:href="#rim" fill="#404040">
                                <set attributeName="fill" to="#808080" begin="zoomminus.mouseover" end="zoomminus.mouseout"/>
                        </use>
                        <path d="M-4,0h8" fill="none" stroke="white" stroke-width="1.5" pointer-events="none"/>
                </g>
                <g id="dirArrow">
                        <path fill="none" stroke="white" stroke-width="1.5" d="M0,-3.0v7 M-2.5,-0.5L0,-3.0L2.5,-0.5"/>
                </g>
               <g id="resetDef">
                       <use xlink:href="#rim2" fill="#404040">
                               <set attributeName="fill" to="#808080" begin="reset.mouseover" end="reset.mouseout"/>
                       </use>
               </g>
        </defs>

<script type="text/javascript">
var viewWidth = 2687;
var viewHeight = 544;
var sectionId = 'dynsection-0';
</script>
<script xlink:href="svgpan.js"/>
<svg id="graph" class="graph">
<g id="viewport">
<title>source/main/gfx/hydrax/FFT.cpp</title>
<polygon fill="white" stroke="none" points="-4,4 -4,-540 2683,-540 2683,4 -4,4"/>
<!-- Node1 -->
<g id="node1" class="node"><title>Node1</title>
<polygon fill="#bfbfbf" stroke="black" points="656.5,-505 656.5,-535 775.5,-535 775.5,-505 656.5,-505"/>
<text text-anchor="start" x="664.5" y="-523" font-family="Helvetica,sans-Serif" font-size="10.00">source/main/gfx/hydrax</text>
<text text-anchor="middle" x="716" y="-512" font-family="Helvetica,sans-Serif" font-size="10.00">/FFT.cpp</text>
</g>
<!-- Node2 -->
<g id="node2" class="node"><title>Node2</title>
<g id="a_node2"><a xlink:href="_f_f_t_8h.html" target="_top" xlink:title="FFT.h">
<polygon fill="white" stroke="black" points="98.5,-448.5 98.5,-467.5 141.5,-467.5 141.5,-448.5 98.5,-448.5"/>
<text text-anchor="middle" x="120" y="-455.5" font-family="Helvetica,sans-Serif" font-size="10.00">FFT.h</text>
</a>
</g>
</g>
<!-- Node1&#45;&gt;Node2 -->
<g id="edge1" class="edge"><title>Node1&#45;&gt;Node2</title>
<path fill="none" stroke="midnightblue" d="M656.4,-513C531.779,-500.454 247.312,-471.817 151.881,-462.21"/>
<polygon fill="midnightblue" stroke="midnightblue" points="152.011,-458.705 141.71,-461.186 151.309,-465.67 152.011,-458.705"/>
</g>
<!-- Node11 -->
<g id="node11" class="node"><title>Node11</title>
<g id="a_node11"><a xlink:href="_hydrax_8h.html" target="_top" xlink:title="Hydrax.h">
<polygon fill="white" stroke="black" points="1284,-448.5 1284,-467.5 1340,-467.5 1340,-448.5 1284,-448.5"/>
<text text-anchor="middle" x="1312" y="-455.5" font-family="Helvetica,sans-Serif" font-size="10.00">Hydrax.h</text>
</a>
</g>
</g>
<!-- Node1&#45;&gt;Node11 -->
<g id="edge15" class="edge"><title>Node1&#45;&gt;Node11</title>
<path fill="none" stroke="midnightblue" d="M775.6,-513C897.61,-500.717 1172.84,-473.009 1273.88,-462.838"/>
<polygon fill="midnightblue" stroke="midnightblue" points="1274.33,-466.31 1283.93,-461.826 1273.63,-459.345 1274.33,-466.31"/>
</g>
<!-- Node3 -->
<g id="node3" class="node"><title>Node3</title>
<g id="a_node3"><a xlink:href="_noise_8h.html" target="_top" xlink:title="Noise.h">
<polygon fill="white" stroke="black" points="115,-280.5 115,-299.5 165,-299.5 165,-280.5 115,-280.5"/>
<text text-anchor="middle" x="140" y="-287.5" font-family="Helvetica,sans-Serif" font-size="10.00">Noise.h</text>
</a>
</g>
</g>
<!-- Node2&#45;&gt;Node3 -->
<g id="edge2" class="edge"><title>Node2&#45;&gt;Node3</title>
<path fill="none" stroke="midnightblue" d="M121.075,-448.075C124.223,-421.945 133.469,-345.211 137.762,-309.577"/>
<polygon fill="midnightblue" stroke="midnightblue" points="141.246,-309.915 138.968,-299.568 134.297,-309.078 141.246,-309.915"/>
</g>
<!-- Node10 -->
<g id="node10" class="node"><title>Node10</title>
<polygon fill="white" stroke="#bfbfbf" points="0.5,-392.5 0.5,-411.5 53.5,-411.5 53.5,-392.5 0.5,-392.5"/>
<text text-anchor="middle" x="27" y="-399.5" font-family="Helvetica,sans-Serif" font-size="10.00">complex</text>
</g>
<!-- Node2&#45;&gt;Node10 -->
<g id="edge14" class="edge"><title>Node2&#45;&gt;Node10</title>
<path fill="none" stroke="midnightblue" d="M105.058,-448.324C90.4148,-439.822 67.8663,-426.729 50.7623,-416.797"/>
<polygon fill="midnightblue" stroke="midnightblue" points="52.3104,-413.649 41.905,-411.655 48.7954,-419.703 52.3104,-413.649"/>
</g>
<!-- Node4 -->
<g id="node4" class="node"><title>Node4</title>
<g id="a_node4"><a xlink:href="_prerequisites_8h.html" target="_top" xlink:title="Prerequisites.h">
<polygon fill="white" stroke="black" points="1739,-56.5 1739,-75.5 1821,-75.5 1821,-56.5 1739,-56.5"/>
<text text-anchor="middle" x="1780" y="-63.5" font-family="Helvetica,sans-Serif" font-size="10.00">Prerequisites.h</text>
</a>
</g>
</g>
<!-- Node3&#45;&gt;Node4 -->
<g id="edge3" class="edge"><title>Node3&#45;&gt;Node4</title>
<path fill="none" stroke="midnightblue" d="M136.04,-280.48C123.465,-252.021 87.8994,-159.378 134,-112 162.494,-82.7163 1453.56,-69.8416 1728.75,-67.4275"/>
<polygon fill="midnightblue" stroke="midnightblue" points="1728.89,-70.9265 1738.86,-67.3395 1728.83,-63.9268 1728.89,-70.9265"/>
</g>
<!-- Node6 -->
<g id="node6" class="node"><title>Node6</title>
<g id="a_node6"><a xlink:href="_g_p_u_normal_map_manager_8h.html" target="_top" xlink:title="GPUNormalMapManager.h">
<polygon fill="white" stroke="black" points="176,-224.5 176,-243.5 310,-243.5 310,-224.5 176,-224.5"/>
<text text-anchor="middle" x="243" y="-231.5" font-family="Helvetica,sans-Serif" font-size="10.00">GPUNormalMapManager.h</text>
</a>
</g>
</g>
<!-- Node3&#45;&gt;Node6 -->
<g id="edge5" class="edge"><title>Node3&#45;&gt;Node6</title>
<path fill="none" stroke="midnightblue" d="M156.549,-280.324C172.992,-271.703 198.435,-258.364 217.468,-248.386"/>
<polygon fill="midnightblue" stroke="midnightblue" points="219.261,-251.398 226.492,-243.655 216.011,-245.198 219.261,-251.398"/>
</g>
<!-- Node5 -->
<g id="node5" class="node"><title>Node5</title>
<polygon fill="white" stroke="#bfbfbf" points="1757,-0.5 1757,-19.5 1803,-19.5 1803,-0.5 1757,-0.5"/>
<text text-anchor="middle" x="1780" y="-7.5" font-family="Helvetica,sans-Serif" font-size="10.00">Ogre.h</text>
</g>
<!-- Node4&#45;&gt;Node5 -->
<g id="edge4" class="edge"><title>Node4&#45;&gt;Node5</title>
<path fill="none" stroke="midnightblue" d="M1780,-56.083C1780,-49.0059 1780,-38.8611 1780,-29.9865"/>
<polygon fill="midnightblue" stroke="midnightblue" points="1783.5,-29.751 1780,-19.7511 1776.5,-29.7511 1783.5,-29.751"/>
</g>
<!-- Node6&#45;&gt;Node4 -->
<g id="edge6" class="edge"><title>Node6&#45;&gt;Node4</title>
<path fill="none" stroke="midnightblue" d="M245.529,-224.196C252.761,-200.859 275.962,-137.46 321,-112 383.425,-76.7107 1476.29,-68.6449 1728.41,-67.2507"/>
<polygon fill="midnightblue" stroke="midnightblue" points="1728.77,-70.7489 1738.75,-67.1947 1728.73,-63.749 1728.77,-70.7489"/>
</g>
<!-- Node7 -->
<g id="node7" class="node"><title>Node7</title>
<g id="a_node7"><a xlink:href="_enums_8h.html" target="_top" xlink:title="Enums.h">
<polygon fill="white" stroke="black" points="330,-112.5 330,-131.5 386,-131.5 386,-112.5 330,-112.5"/>
<text text-anchor="middle" x="358" y="-119.5" font-family="Helvetica,sans-Serif" font-size="10.00">Enums.h</text>
</a>
</g>
</g>
<!-- Node6&#45;&gt;Node7 -->
<g id="edge7" class="edge"><title>Node6&#45;&gt;Node7</title>
<path fill="none" stroke="midnightblue" d="M252.024,-224.368C271.338,-205.894 316.921,-162.293 341.541,-138.744"/>
<polygon fill="midnightblue" stroke="midnightblue" points="344.211,-141.033 349.018,-131.591 339.372,-135.974 344.211,-141.033"/>
</g>
<!-- Node8 -->
<g id="node8" class="node"><title>Node8</title>
<g id="a_node8"><a xlink:href="_rtt_manager_8h.html" target="_top" xlink:title="RttManager.h">
<polygon fill="white" stroke="black" points="442,-168.5 442,-187.5 518,-187.5 518,-168.5 442,-168.5"/>
<text text-anchor="middle" x="480" y="-175.5" font-family="Helvetica,sans-Serif" font-size="10.00">RttManager.h</text>
</a>
</g>
</g>
<!-- Node6&#45;&gt;Node8 -->
<g id="edge9" class="edge"><title>Node6&#45;&gt;Node8</title>
<path fill="none" stroke="midnightblue" d="M280.553,-224.444C321.811,-215.043 388.144,-199.929 432.866,-189.739"/>
<polygon fill="midnightblue" stroke="midnightblue" points="433.65,-193.151 442.622,-187.516 432.095,-186.326 433.65,-193.151"/>
</g>
<!-- Node7&#45;&gt;Node4 -->
<g id="edge8" class="edge"><title>Node7&#45;&gt;Node4</title>
<path fill="none" stroke="midnightblue" d="M386.35,-114.208C390.892,-113.327 395.559,-112.544 400,-112 664.679,-79.5896 1511.59,-69.5253 1728.83,-67.4455"/>
<polygon fill="midnightblue" stroke="midnightblue" points="1729.03,-70.9439 1739,-67.3496 1728.96,-63.9442 1729.03,-70.9439"/>
</g>
<!-- Node8&#45;&gt;Node4 -->
<g id="edge10" class="edge"><title>Node8&#45;&gt;Node4</title>
<path fill="none" stroke="midnightblue" d="M518.202,-173.767C704.313,-158.02 1515.67,-89.3663 1728.65,-71.3452"/>
<polygon fill="midnightblue" stroke="midnightblue" points="1729.25,-74.8071 1738.92,-70.4763 1728.66,-67.832 1729.25,-74.8071"/>
</g>
<!-- Node8&#45;&gt;Node7 -->
<g id="edge11" class="edge"><title>Node8&#45;&gt;Node7</title>
<path fill="none" stroke="midnightblue" d="M460.669,-168.444C440.68,-159.596 409.257,-145.687 386.436,-135.586"/>
<polygon fill="midnightblue" stroke="midnightblue" points="387.802,-132.363 377.241,-131.516 384.968,-138.764 387.802,-132.363"/>
</g>
<!-- Node9 -->
<g id="node9" class="node"><title>Node9</title>
<g id="a_node9"><a xlink:href="_help_8h.html" target="_top" xlink:title="Help.h">
<polygon fill="white" stroke="black" points="2342.5,-112.5 2342.5,-131.5 2387.5,-131.5 2387.5,-112.5 2342.5,-112.5"/>
<text text-anchor="middle" x="2365" y="-119.5" font-family="Helvetica,sans-Serif" font-size="10.00">Help.h</text>
</a>
</g>
</g>
<!-- Node8&#45;&gt;Node9 -->
<g id="edge12" class="edge"><title>Node8&#45;&gt;Node9</title>
<path fill="none" stroke="midnightblue" d="M518.08,-175.909C762.116,-168.918 2103.62,-130.488 2331.95,-123.947"/>
<polygon fill="midnightblue" stroke="midnightblue" points="2332.37,-127.436 2342.27,-123.651 2332.17,-120.439 2332.37,-127.436"/>
</g>
<!-- Node9&#45;&gt;Node4 -->
<g id="edge13" class="edge"><title>Node9&#45;&gt;Node4</title>
<path fill="none" stroke="midnightblue" d="M2342.33,-115.709C2335.8,-114.333 2328.64,-112.967 2322,-112 2142.82,-85.9129 1927.96,-73.6581 1831.41,-69.1506"/>
<polygon fill="midnightblue" stroke="midnightblue" points="1831.48,-65.6504 1821.33,-68.6884 1831.16,-72.643 1831.48,-65.6504"/>
</g>
<!-- Node11&#45;&gt;Node4 -->
<g id="edge16" class="edge"><title>Node11&#45;&gt;Node4</title>
<path fill="none" stroke="midnightblue" d="M1340.18,-456.624C1515.89,-454.192 2455.54,-439.914 2509,-412 2541.07,-395.255 2558,-383.178 2558,-347 2558,-347 2558,-347 2558,-177 2558,-112.402 2490.32,-129.012 2428,-112 2315.86,-81.3864 1964.07,-70.8958 1831.36,-67.9716"/>
<polygon fill="midnightblue" stroke="midnightblue" points="1831.14,-64.4662 1821.07,-67.7504 1830.99,-71.4646 1831.14,-64.4662"/>
</g>
<!-- Node11&#45;&gt;Node6 -->
<g id="edge60" class="edge"><title>Node11&#45;&gt;Node6</title>
<path fill="none" stroke="midnightblue" d="M1283.74,-456.539C1126.49,-453.87 364.833,-439.551 324,-412 309.766,-402.396 267.079,-296.478 250.089,-253.23"/>
<polygon fill="midnightblue" stroke="midnightblue" points="253.342,-251.938 246.441,-243.9 246.823,-254.487 253.342,-251.938"/>
</g>
<!-- Node11&#45;&gt;Node7 -->
<g id="edge36" class="edge"><title>Node11&#45;&gt;Node7</title>
<path fill="none" stroke="midnightblue" d="M1283.62,-456.584C1129.05,-454.206 394.337,-441.383 357,-412 333.348,-393.387 338,-377.098 338,-347 338,-347 338,-347 338,-233 338,-200.438 346.588,-163.315 352.509,-141.592"/>
<polygon fill="midnightblue" stroke="midnightblue" points="355.942,-142.317 355.303,-131.742 349.207,-140.408 355.942,-142.317"/>
</g>
<!-- Node11&#45;&gt;Node8 -->
<g id="edge48" class="edge"><title>Node11&#45;&gt;Node8</title>
<path fill="none" stroke="midnightblue" d="M1283.92,-454.4C1149.67,-441.343 575.419,-378.163 471,-244 460.64,-230.689 465.274,-211.032 471.024,-196.822"/>
<polygon fill="midnightblue" stroke="midnightblue" points="474.261,-198.159 475.209,-187.607 467.887,-195.265 474.261,-198.159"/>
</g>
<!-- Node11&#45;&gt;Node9 -->
<g id="edge37" class="edge"><title>Node11&#45;&gt;Node9</title>
<path fill="none" stroke="midnightblue" d="M1340.08,-456.461C1494.88,-453.394 2240.81,-437.396 2340,-412 2403.35,-395.78 2472,-412.394 2472,-347 2472,-347 2472,-347 2472,-289 2472,-255.02 2407.86,-174.151 2378.9,-139.367"/>
<polygon fill="midnightblue" stroke="midnightblue" points="2381.47,-136.981 2372.35,-131.574 2376.1,-141.482 2381.47,-136.981"/>
</g>
<!-- Node12 -->
<g id="node12" class="node"><title>Node12</title>
<g id="a_node12"><a xlink:href="_ro_r_prerequisites_8h.html" target="_top" xlink:title="RoRPrerequisites.h">
<polygon fill="white" stroke="black" points="1261,-280.5 1261,-299.5 1363,-299.5 1363,-280.5 1261,-280.5"/>
<text text-anchor="middle" x="1312" y="-287.5" font-family="Helvetica,sans-Serif" font-size="10.00">RoRPrerequisites.h</text>
</a>
</g>
</g>
<!-- Node11&#45;&gt;Node12 -->
<g id="edge17" class="edge"><title>Node11&#45;&gt;Node12</title>
<path fill="none" stroke="midnightblue" d="M1312,-448.075C1312,-421.945 1312,-345.211 1312,-309.577"/>
<polygon fill="midnightblue" stroke="midnightblue" points="1315.5,-309.568 1312,-299.568 1308.5,-309.568 1315.5,-309.568"/>
</g>
<!-- Node30 -->
<g id="node30" class="node"><title>Node30</title>
<g id="a_node30"><a xlink:href="_mesh_8h.html" target="_top" xlink:title="Mesh.h">
<polygon fill="white" stroke="black" points="2356.5,-224.5 2356.5,-243.5 2405.5,-243.5 2405.5,-224.5 2356.5,-224.5"/>
<text text-anchor="middle" x="2381" y="-231.5" font-family="Helvetica,sans-Serif" font-size="10.00">Mesh.h</text>
</a>
</g>
</g>
<!-- Node11&#45;&gt;Node30 -->
<g id="edge38" class="edge"><title>Node11&#45;&gt;Node30</title>
<path fill="none" stroke="midnightblue" d="M1340.38,-452.545C1388.53,-444.891 1489.28,-428.473 1574,-412 1915.83,-345.533 2003.54,-326.695 2346.2,-244.115"/>
<polygon fill="midnightblue" stroke="midnightblue" points="2347.25,-247.461 2356.15,-241.715 2345.61,-240.656 2347.25,-247.461"/>
</g>
<!-- Node31 -->
<g id="node31" class="node"><title>Node31</title>
<g id="a_node31"><a xlink:href="_image_8h.html" target="_top" xlink:title="Image.h">
<polygon fill="white" stroke="black" points="2290,-168.5 2290,-187.5 2342,-187.5 2342,-168.5 2290,-168.5"/>
<text text-anchor="middle" x="2316" y="-175.5" font-family="Helvetica,sans-Serif" font-size="10.00">Image.h</text>
</a>
</g>
</g>
<!-- Node11&#45;&gt;Node31 -->
<g id="edge44" class="edge"><title>Node11&#45;&gt;Node31</title>
<path fill="none" stroke="midnightblue" d="M1340.01,-457.276C1513.51,-458.629 2434,-460.46 2434,-347 2434,-347 2434,-347 2434,-289 2434,-258.775 2433.92,-246.735 2414,-224 2397.89,-205.605 2372.7,-194.266 2351.9,-187.572"/>
<polygon fill="midnightblue" stroke="midnightblue" points="2352.68,-184.153 2342.1,-184.648 2350.68,-190.86 2352.68,-184.153"/>
</g>
<!-- Node32 -->
<g id="node32" class="node"><title>Node32</title>
<g id="a_node32"><a xlink:href="_material_manager_8h.html" target="_top" xlink:title="MaterialManager.h">
<polygon fill="white" stroke="black" points="-0.5,-280.5 -0.5,-299.5 96.5,-299.5 96.5,-280.5 -0.5,-280.5"/>
<text text-anchor="middle" x="48" y="-287.5" font-family="Helvetica,sans-Serif" font-size="10.00">MaterialManager.h</text>
</a>
</g>
</g>
<!-- Node11&#45;&gt;Node32 -->
<g id="edge45" class="edge"><title>Node11&#45;&gt;Node32</title>
<path fill="none" stroke="midnightblue" d="M1283.82,-457.258C1137.46,-458.373 463.181,-460.74 261,-412 181.34,-392.796 100.936,-333.959 66.0302,-306.025"/>
<polygon fill="midnightblue" stroke="midnightblue" points="68.1321,-303.223 58.1644,-299.631 63.7169,-308.655 68.1321,-303.223"/>
</g>
<!-- Node33 -->
<g id="node33" class="node"><title>Node33</title>
<g id="a_node33"><a xlink:href="_texture_manager_8h.html" target="_top" xlink:title="TextureManager.h">
<polygon fill="white" stroke="black" points="2243.5,-224.5 2243.5,-243.5 2338.5,-243.5 2338.5,-224.5 2243.5,-224.5"/>
<text text-anchor="middle" x="2291" y="-231.5" font-family="Helvetica,sans-Serif" font-size="10.00">TextureManager.h</text>
</a>
</g>
</g>
<!-- Node11&#45;&gt;Node33 -->
<g id="edge49" class="edge"><title>Node11&#45;&gt;Node33</title>
<path fill="none" stroke="midnightblue" d="M1340.24,-450.595C1476.95,-419.595 2070.45,-285.013 2243.48,-245.775"/>
<polygon fill="midnightblue" stroke="midnightblue" points="2244.34,-249.17 2253.32,-243.545 2242.79,-242.343 2244.34,-249.17"/>
</g>
<!-- Node34 -->
<g id="node34" class="node"><title>Node34</title>
<g id="a_node34"><a xlink:href="_god_rays_manager_8h.html" target="_top" xlink:title="GodRaysManager.h">
<polygon fill="white" stroke="black" points="366,-392.5 366,-411.5 470,-411.5 470,-392.5 366,-392.5"/>
<text text-anchor="middle" x="418" y="-399.5" font-family="Helvetica,sans-Serif" font-size="10.00">GodRaysManager.h</text>
</a>
</g>
</g>
<!-- Node11&#45;&gt;Node34 -->
<g id="edge53" class="edge"><title>Node11&#45;&gt;Node34</title>
<path fill="none" stroke="midnightblue" d="M1283.7,-456.295C1178.06,-453.489 796.783,-441.776 484,-412 482.737,-411.88 481.462,-411.753 480.176,-411.621"/>
<polygon fill="midnightblue" stroke="midnightblue" points="480.518,-408.138 470.193,-410.516 479.747,-415.095 480.518,-408.138"/>
</g>
<!-- Node36 -->
<g id="node36" class="node"><title>Node36</title>
<g id="a_node36"><a xlink:href="_decals_manager_8h.html" target="_top" xlink:title="DecalsManager.h">
<polygon fill="white" stroke="black" points="2586.5,-336.5 2586.5,-355.5 2679.5,-355.5 2679.5,-336.5 2586.5,-336.5"/>
<text text-anchor="middle" x="2633" y="-343.5" font-family="Helvetica,sans-Serif" font-size="10.00">DecalsManager.h</text>
</a>
</g>
</g>
<!-- Node11&#45;&gt;Node36 -->
<g id="edge58" class="edge"><title>Node11&#45;&gt;Node36</title>
<path fill="none" stroke="midnightblue" d="M1340.15,-456.601C1521.01,-453.965 2514.05,-438.326 2572,-412 2593.94,-402.035 2611.75,-380.15 2622.35,-364.529"/>
<polygon fill="midnightblue" stroke="midnightblue" points="2625.51,-366.078 2627.98,-355.775 2619.63,-362.289 2625.51,-366.078"/>
</g>
<!-- Node37 -->
<g id="node37" class="node"><title>Node37</title>
<g id="a_node37"><a xlink:href="_cfg_file_manager_8h.html" target="_top" xlink:title="CfgFileManager.h">
<polygon fill="white" stroke="black" points="2436,-168.5 2436,-187.5 2530,-187.5 2530,-168.5 2436,-168.5"/>
<text text-anchor="middle" x="2483" y="-175.5" font-family="Helvetica,sans-Serif" font-size="10.00">CfgFileManager.h</text>
</a>
</g>
</g>
<!-- Node11&#45;&gt;Node37 -->
<g id="edge61" class="edge"><title>Node11&#45;&gt;Node37</title>
<path fill="none" stroke="midnightblue" d="M1340.04,-456.801C1513.83,-455.462 2438.15,-446.72 2486,-412 2510.93,-393.914 2510,-377.795 2510,-347 2510,-347 2510,-347 2510,-289 2510,-255.861 2498.3,-218.682 2490.3,-197.144"/>
<polygon fill="midnightblue" stroke="midnightblue" points="2493.51,-195.73 2486.64,-187.662 2486.98,-198.252 2493.51,-195.73"/>
</g>
<!-- Node38 -->
<g id="node38" class="node"><title>Node38</title>
<g id="a_node38"><a xlink:href="_module_8h.html" target="_top" xlink:title="Module.h">
<polygon fill="white" stroke="black" points="216,-336.5 216,-355.5 272,-355.5 272,-336.5 216,-336.5"/>
<text text-anchor="middle" x="244" y="-343.5" font-family="Helvetica,sans-Serif" font-size="10.00">Module.h</text>
</a>
</g>
</g>
<!-- Node11&#45;&gt;Node38 -->
<g id="edge64" class="edge"><title>Node11&#45;&gt;Node38</title>
<path fill="none" stroke="midnightblue" d="M1283.78,-456.491C1123.21,-453.502 330.472,-437.492 286,-412 268.195,-401.794 256.685,-380.626 250.296,-365.211"/>
<polygon fill="midnightblue" stroke="midnightblue" points="253.494,-363.774 246.677,-355.663 246.949,-366.255 253.494,-363.774"/>
</g>
<!-- Node13 -->
<g id="node13" class="node"><title>Node13</title>
<polygon fill="white" stroke="#bfbfbf" points="889.5,-224.5 889.5,-243.5 992.5,-243.5 992.5,-224.5 889.5,-224.5"/>
<text text-anchor="middle" x="941" y="-231.5" font-family="Helvetica,sans-Serif" font-size="10.00">OgrePrerequisites.h</text>
</g>
<!-- Node12&#45;&gt;Node13 -->
<g id="edge18" class="edge"><title>Node12&#45;&gt;Node13</title>
<path fill="none" stroke="midnightblue" d="M1260.81,-281.676C1201.21,-273.13 1099.52,-258.492 1002.67,-244.24"/>
<polygon fill="midnightblue" stroke="midnightblue" points="1003.11,-240.768 992.708,-242.774 1002.09,-247.693 1003.11,-240.768"/>
</g>
<!-- Node14 -->
<g id="node14" class="node"><title>Node14</title>
<polygon fill="white" stroke="#bfbfbf" points="1010.5,-224.5 1010.5,-243.5 1125.5,-243.5 1125.5,-224.5 1010.5,-224.5"/>
<text text-anchor="middle" x="1068" y="-231.5" font-family="Helvetica,sans-Serif" font-size="10.00">OgreAxisAlignedBox.h</text>
</g>
<!-- Node12&#45;&gt;Node14 -->
<g id="edge19" class="edge"><title>Node12&#45;&gt;Node14</title>
<path fill="none" stroke="midnightblue" d="M1273.34,-280.444C1230.86,-271.043 1162.57,-255.929 1116.53,-245.739"/>
<polygon fill="midnightblue" stroke="midnightblue" points="1117,-242.26 1106.48,-243.516 1115.49,-249.095 1117,-242.26"/>
</g>
<!-- Node15 -->
<g id="node15" class="node"><title>Node15</title>
<polygon fill="white" stroke="#bfbfbf" points="1143.5,-224.5 1143.5,-243.5 1242.5,-243.5 1242.5,-224.5 1143.5,-224.5"/>
<text text-anchor="middle" x="1193" y="-231.5" font-family="Helvetica,sans-Serif" font-size="10.00">OgreColourValue.h</text>
</g>
<!-- Node12&#45;&gt;Node15 -->
<g id="edge20" class="edge"><title>Node12&#45;&gt;Node15</title>
<path fill="none" stroke="midnightblue" d="M1293.14,-280.444C1273.73,-271.636 1243.27,-257.812 1221.04,-247.722"/>
<polygon fill="midnightblue" stroke="midnightblue" points="1222.32,-244.462 1211.77,-243.516 1219.43,-250.836 1222.32,-244.462"/>
</g>
<!-- Node16 -->
<g id="node16" class="node"><title>Node16</title>
<polygon fill="white" stroke="#bfbfbf" points="1260.5,-224.5 1260.5,-243.5 1363.5,-243.5 1363.5,-224.5 1260.5,-224.5"/>
<text text-anchor="middle" x="1312" y="-231.5" font-family="Helvetica,sans-Serif" font-size="10.00">OgreHeaderPrefix.h</text>
</g>
<!-- Node12&#45;&gt;Node16 -->
<g id="edge21" class="edge"><title>Node12&#45;&gt;Node16</title>
<path fill="none" stroke="midnightblue" d="M1312,-280.083C1312,-273.006 1312,-262.861 1312,-253.986"/>
<polygon fill="midnightblue" stroke="midnightblue" points="1315.5,-253.751 1312,-243.751 1308.5,-253.751 1315.5,-253.751"/>
</g>
<!-- Node17 -->
<g id="node17" class="node"><title>Node17</title>
<polygon fill="white" stroke="#bfbfbf" points="1381.5,-224.5 1381.5,-243.5 1480.5,-243.5 1480.5,-224.5 1381.5,-224.5"/>
<text text-anchor="middle" x="1431" y="-231.5" font-family="Helvetica,sans-Serif" font-size="10.00">OgreLogManager.h</text>
</g>
<!-- Node12&#45;&gt;Node17 -->
<g id="edge22" class="edge"><title>Node12&#45;&gt;Node17</title>
<path fill="none" stroke="midnightblue" d="M1330.86,-280.444C1350.27,-271.636 1380.73,-257.812 1402.96,-247.722"/>
<polygon fill="midnightblue" stroke="midnightblue" points="1404.57,-250.836 1412.23,-243.516 1401.68,-244.462 1404.57,-250.836"/>
</g>
<!-- Node18 -->
<g id="node18" class="node"><title>Node18</title>
<polygon fill="white" stroke="#bfbfbf" points="1498.5,-224.5 1498.5,-243.5 1591.5,-243.5 1591.5,-224.5 1498.5,-224.5"/>
<text text-anchor="middle" x="1545" y="-231.5" font-family="Helvetica,sans-Serif" font-size="10.00">OgreQuaternion.h</text>
</g>
<!-- Node12&#45;&gt;Node18 -->
<g id="edge23" class="edge"><title>Node12&#45;&gt;Node18</title>
<path fill="none" stroke="midnightblue" d="M1348.92,-280.444C1389.4,-271.063 1454.42,-255.993 1498.38,-245.804"/>
<polygon fill="midnightblue" stroke="midnightblue" points="1499.3,-249.184 1508.25,-243.516 1497.72,-242.365 1499.3,-249.184"/>
</g>
<!-- Node19 -->
<g id="node19" class="node"><title>Node19</title>
<polygon fill="white" stroke="#bfbfbf" points="1609.5,-224.5 1609.5,-243.5 1680.5,-243.5 1680.5,-224.5 1609.5,-224.5"/>
<text text-anchor="middle" x="1645" y="-231.5" font-family="Helvetica,sans-Serif" font-size="10.00">OgreString.h</text>
</g>
<!-- Node12&#45;&gt;Node19 -->
<g id="edge24" class="edge"><title>Node12&#45;&gt;Node19</title>
<path fill="none" stroke="midnightblue" d="M1363.09,-281.685C1418.67,-273.579 1510.37,-259.769 1599.19,-244.081"/>
<polygon fill="midnightblue" stroke="midnightblue" points="1599.93,-247.505 1609.16,-242.309 1598.71,-240.613 1599.93,-247.505"/>
</g>
<!-- Node20 -->
<g id="node20" class="node"><title>Node20</title>
<polygon fill="white" stroke="#bfbfbf" points="1699,-224.5 1699,-243.5 1813,-243.5 1813,-224.5 1699,-224.5"/>
<text text-anchor="middle" x="1756" y="-231.5" font-family="Helvetica,sans-Serif" font-size="10.00">OgreStringConverter.h</text>
</g>
<!-- Node12&#45;&gt;Node20 -->
<g id="edge25" class="edge"><title>Node12&#45;&gt;Node20</title>
<path fill="none" stroke="midnightblue" d="M1363.25,-283.125C1435.81,-274.752 1572.6,-258.764 1689,-244 1689.1,-243.987 1689.2,-243.974 1689.31,-243.961"/>
<polygon fill="midnightblue" stroke="midnightblue" points="1689.51,-247.463 1698.99,-242.717 1688.62,-240.52 1689.51,-247.463"/>
</g>
<!-- Node21 -->
<g id="node21" class="node"><title>Node21</title>
<polygon fill="white" stroke="#bfbfbf" points="1831.5,-224.5 1831.5,-243.5 1922.5,-243.5 1922.5,-224.5 1831.5,-224.5"/>
<text text-anchor="middle" x="1877" y="-231.5" font-family="Helvetica,sans-Serif" font-size="10.00">OgreUTFString.h</text>
</g>
<!-- Node12&#45;&gt;Node21 -->
<g id="edge26" class="edge"><title>Node12&#45;&gt;Node21</title>
<path fill="none" stroke="midnightblue" d="M1363.17,-285.747C1453.44,-279.732 1647.1,-265.597 1821.3,-243.993"/>
<polygon fill="midnightblue" stroke="midnightblue" points="1821.93,-247.441 1831.42,-242.726 1821.06,-240.495 1821.93,-247.441"/>
</g>
<!-- Node22 -->
<g id="node22" class="node"><title>Node22</title>
<polygon fill="white" stroke="#bfbfbf" points="1941,-224.5 1941,-243.5 2021,-243.5 2021,-224.5 1941,-224.5"/>
<text text-anchor="middle" x="1981" y="-231.5" font-family="Helvetica,sans-Serif" font-size="10.00">OgreVector2.h</text>
</g>
<!-- Node12&#45;&gt;Node22 -->
<g id="edge27" class="edge"><title>Node12&#45;&gt;Node22</title>
<path fill="none" stroke="midnightblue" d="M1363.13,-287.11C1469.29,-282.784 1721.2,-270.433 1931,-244 1931.1,-243.987 1931.2,-243.974 1931.3,-243.962"/>
<polygon fill="midnightblue" stroke="midnightblue" points="1931.53,-247.464 1940.94,-242.595 1930.55,-240.534 1931.53,-247.464"/>
</g>
<!-- Node23 -->
<g id="node23" class="node"><title>Node23</title>
<polygon fill="white" stroke="#bfbfbf" points="480,-224.5 480,-243.5 560,-243.5 560,-224.5 480,-224.5"/>
<text text-anchor="middle" x="520" y="-231.5" font-family="Helvetica,sans-Serif" font-size="10.00">OgreVector3.h</text>
</g>
<!-- Node12&#45;&gt;Node23 -->
<g id="edge28" class="edge"><title>Node12&#45;&gt;Node23</title>
<path fill="none" stroke="midnightblue" d="M1260.91,-288.036C1141.69,-285.329 835.712,-275.736 570.27,-244"/>
<polygon fill="midnightblue" stroke="midnightblue" points="570.399,-240.49 560.051,-242.765 569.558,-247.439 570.399,-240.49"/>
</g>
<!-- Node24 -->
<g id="node24" class="node"><title>Node24</title>
<g id="a_node24"><a xlink:href="_forward_declarations_8h.html" target="_top" xlink:title="Global forward declarations. ">
<polygon fill="white" stroke="black" points="1332.5,-168.5 1332.5,-187.5 1447.5,-187.5 1447.5,-168.5 1332.5,-168.5"/>
<text text-anchor="middle" x="1390" y="-175.5" font-family="Helvetica,sans-Serif" font-size="10.00">ForwardDeclarations.h</text>
</a>
</g>
</g>
<!-- Node12&#45;&gt;Node24 -->
<g id="edge29" class="edge"><title>Node12&#45;&gt;Node24</title>
<path fill="none" stroke="midnightblue" d="M1260.73,-288.742C1129.08,-287.549 787.045,-280.895 753,-244 746.972,-237.467 746.94,-230.503 753,-224 791.166,-183.043 1165.65,-178.703 1321.99,-178.695"/>
<polygon fill="midnightblue" stroke="midnightblue" points="1322.41,-182.195 1332.41,-178.7 1322.41,-175.195 1322.41,-182.195"/>
</g>
<!-- Node25 -->
<g id="node25" class="node"><title>Node25</title>
<g id="a_node25"><a xlink:href="_global_environment_8h.html" target="_top" xlink:title="GlobalEnvironment.h">
<polygon fill="white" stroke="black" points="2039.5,-224.5 2039.5,-243.5 2146.5,-243.5 2146.5,-224.5 2039.5,-224.5"/>
<text text-anchor="middle" x="2093" y="-231.5" font-family="Helvetica,sans-Serif" font-size="10.00">GlobalEnvironment.h</text>
</a>
</g>
</g>
<!-- Node12&#45;&gt;Node25 -->
<g id="edge30" class="edge"><title>Node12&#45;&gt;Node25</title>
<path fill="none" stroke="midnightblue" d="M1363.04,-287.193C1479.26,-282.777 1772.71,-269.936 2029.16,-243.996"/>
<polygon fill="midnightblue" stroke="midnightblue" points="2029.83,-247.446 2039.42,-242.949 2029.12,-240.482 2029.83,-247.446"/>
</g>
<!-- Node26 -->
<g id="node26" class="node"><title>Node26</title>
<g id="a_node26"><a xlink:href="_zeroed_memory_allocator_8h.html" target="_top" xlink:title="ZeroedMemoryAllocator.h">
<polygon fill="white" stroke="black" points="578,-224.5 578,-243.5 706,-243.5 706,-224.5 578,-224.5"/>
<text text-anchor="middle" x="642" y="-231.5" font-family="Helvetica,sans-Serif" font-size="10.00">ZeroedMemoryAllocator.h</text>
</a>
</g>
</g>
<!-- Node12&#45;&gt;Node26 -->
<g id="edge32" class="edge"><title>Node12&#45;&gt;Node26</title>
<path fill="none" stroke="midnightblue" d="M1260.87,-285.787C1158.23,-279.19 919.825,-263.116 720,-244 718.881,-243.893 717.752,-243.783 716.617,-243.672"/>
<polygon fill="midnightblue" stroke="midnightblue" points="716.556,-240.147 706.252,-242.615 715.845,-247.111 716.556,-240.147"/>
</g>
<!-- Node27 -->
<g id="node27" class="node"><title>Node27</title>
<g id="a_node27"><a xlink:href="_bit_flags_8h.html" target="_top" xlink:title="BitFlags.h">
<polygon fill="white" stroke="black" points="2164.5,-224.5 2164.5,-243.5 2225.5,-243.5 2225.5,-224.5 2164.5,-224.5"/>
<text text-anchor="middle" x="2195" y="-231.5" font-family="Helvetica,sans-Serif" font-size="10.00">BitFlags.h</text>
</a>
</g>
</g>
<!-- Node12&#45;&gt;Node27 -->
<g id="edge33" class="edge"><title>Node12&#45;&gt;Node27</title>
<path fill="none" stroke="midnightblue" d="M1363.12,-289.251C1493.54,-289.254 1849.26,-285.267 2154.17,-243.857"/>
<polygon fill="midnightblue" stroke="midnightblue" points="2154.65,-247.324 2164.08,-242.495 2153.7,-240.389 2154.65,-247.324"/>
</g>
<!-- Node29 -->
<g id="node29" class="node"><title>Node29</title>
<polygon fill="white" stroke="#bfbfbf" points="762.5,-224.5 762.5,-243.5 871.5,-243.5 871.5,-224.5 762.5,-224.5"/>
<text text-anchor="middle" x="817" y="-231.5" font-family="Helvetica,sans-Serif" font-size="10.00">MyGUI_Prerequest.h</text>
</g>
<!-- Node12&#45;&gt;Node29 -->
<g id="edge35" class="edge"><title>Node12&#45;&gt;Node29</title>
<path fill="none" stroke="midnightblue" d="M1260.72,-284.296C1181.64,-276.902 1024.9,-261.69 881.89,-244.196"/>
<polygon fill="midnightblue" stroke="midnightblue" points="881.971,-240.68 871.619,-242.933 881.117,-247.627 881.971,-240.68"/>
</g>
<!-- Node25&#45;&gt;Node24 -->
<g id="edge31" class="edge"><title>Node25&#45;&gt;Node24</title>
<path fill="none" stroke="midnightblue" d="M2039.42,-225.079C2036.23,-224.691 2033.08,-224.327 2030,-224 1822.23,-201.883 1575.31,-188.017 1458.17,-182.185"/>
<polygon fill="midnightblue" stroke="midnightblue" points="1458.09,-178.677 1447.93,-181.679 1457.74,-185.668 1458.09,-178.677"/>
</g>
<!-- Node28 -->
<g id="node28" class="node"><title>Node28</title>
<polygon fill="white" stroke="#bfbfbf" points="2112,-168.5 2112,-187.5 2158,-187.5 2158,-168.5 2112,-168.5"/>
<text text-anchor="middle" x="2135" y="-175.5" font-family="Helvetica,sans-Serif" font-size="10.00">cstdint</text>
</g>
<!-- Node27&#45;&gt;Node28 -->
<g id="edge34" class="edge"><title>Node27&#45;&gt;Node28</title>
<path fill="none" stroke="midnightblue" d="M2185.36,-224.324C2176.49,-216.341 2163.13,-204.313 2152.39,-194.653"/>
<polygon fill="midnightblue" stroke="midnightblue" points="2154.59,-191.922 2144.82,-187.834 2149.91,-197.125 2154.59,-191.922"/>
</g>
<!-- Node30&#45;&gt;Node4 -->
<g id="edge39" class="edge"><title>Node30&#45;&gt;Node4</title>
<path fill="none" stroke="midnightblue" d="M2361.69,-224.335C2333.23,-211.632 2278.28,-187.363 2231,-168 2167.07,-141.816 2152.81,-129.579 2086,-112 1998.13,-88.88 1892.73,-76.6635 1831.37,-71.0375"/>
<polygon fill="midnightblue" stroke="midnightblue" points="1831.44,-67.5303 1821.17,-70.1264 1830.82,-74.5026 1831.44,-67.5303"/>
</g>
<!-- Node30&#45;&gt;Node9 -->
<g id="edge40" class="edge"><title>Node30&#45;&gt;Node9</title>
<path fill="none" stroke="midnightblue" d="M2379.74,-224.368C2377.16,-206.617 2371.21,-165.666 2367.71,-141.597"/>
<polygon fill="midnightblue" stroke="midnightblue" points="2371.15,-140.983 2366.25,-131.591 2364.23,-141.991 2371.15,-140.983"/>
</g>
<!-- Node30&#45;&gt;Node31 -->
<g id="edge41" class="edge"><title>Node30&#45;&gt;Node31</title>
<path fill="none" stroke="midnightblue" d="M2370.56,-224.324C2360.85,-216.263 2346.18,-204.077 2334.5,-194.369"/>
<polygon fill="midnightblue" stroke="midnightblue" points="2336.56,-191.532 2326.63,-187.834 2332.09,-196.916 2336.56,-191.532"/>
</g>
<!-- Node31&#45;&gt;Node4 -->
<g id="edge42" class="edge"><title>Node31&#45;&gt;Node4</title>
<path fill="none" stroke="midnightblue" d="M2313.51,-168.455C2308.82,-154.026 2297.17,-125.122 2276,-112 2238.86,-88.9813 1951.1,-74.2565 1831.68,-69.0803"/>
<polygon fill="midnightblue" stroke="midnightblue" points="1831.48,-65.5686 1821.34,-68.6377 1831.18,-72.5622 1831.48,-65.5686"/>
</g>
<!-- Node31&#45;&gt;Node9 -->
<g id="edge43" class="edge"><title>Node31&#45;&gt;Node9</title>
<path fill="none" stroke="midnightblue" d="M2324.09,-168.083C2331.16,-160.298 2341.59,-148.801 2350.15,-139.367"/>
<polygon fill="midnightblue" stroke="midnightblue" points="2352.93,-141.509 2357.06,-131.751 2347.75,-136.805 2352.93,-141.509"/>
</g>
<!-- Node32&#45;&gt;Node4 -->
<g id="edge46" class="edge"><title>Node32&#45;&gt;Node4</title>
<path fill="none" stroke="midnightblue" d="M48.2597,-280.389C49.6697,-250.818 58.7337,-152.99 117,-112 184.453,-64.5472 1455.71,-65.9502 1728.66,-66.8024"/>
<polygon fill="midnightblue" stroke="midnightblue" points="1728.68,-70.3024 1738.69,-66.8349 1728.71,-63.3024 1728.68,-70.3024"/>
</g>
<!-- Node32&#45;&gt;Node7 -->
<g id="edge47" class="edge"><title>Node32&#45;&gt;Node7</title>
<path fill="none" stroke="midnightblue" d="M63.7475,-280.31C86.4921,-267.78 129.883,-243.949 167,-224 226.144,-192.212 295.962,-155.497 332.61,-136.287"/>
<polygon fill="midnightblue" stroke="midnightblue" points="334.375,-139.313 341.609,-131.572 331.127,-133.113 334.375,-139.313"/>
</g>
<!-- Node33&#45;&gt;Node4 -->
<g id="edge50" class="edge"><title>Node33&#45;&gt;Node4</title>
<path fill="none" stroke="midnightblue" d="M2281.68,-224.441C2266,-210.512 2232.85,-182.992 2200,-168 2074.38,-110.672 1912.19,-83.5613 1831.02,-72.857"/>
<polygon fill="midnightblue" stroke="midnightblue" points="1831.43,-69.3803 1821.06,-71.5725 1830.53,-76.3228 1831.43,-69.3803"/>
</g>
<!-- Node33&#45;&gt;Node7 -->
<g id="edge51" class="edge"><title>Node33&#45;&gt;Node7</title>
<path fill="none" stroke="midnightblue" d="M2275.66,-224.455C2245.09,-207.504 2178.53,-170.991 2167,-168 1990.21,-122.135 641.928,-122.464 396.328,-122.909"/>
<polygon fill="midnightblue" stroke="midnightblue" points="396.107,-119.409 386.113,-122.929 396.12,-126.409 396.107,-119.409"/>
</g>
<!-- Node33&#45;&gt;Node31 -->
<g id="edge52" class="edge"><title>Node33&#45;&gt;Node31</title>
<path fill="none" stroke="midnightblue" d="M2295.13,-224.083C2298.51,-216.77 2303.42,-206.181 2307.62,-197.103"/>
<polygon fill="midnightblue" stroke="midnightblue" points="2310.92,-198.296 2311.95,-187.751 2304.57,-195.355 2310.92,-198.296"/>
</g>
<!-- Node34&#45;&gt;Node4 -->
<g id="edge54" class="edge"><title>Node34&#45;&gt;Node4</title>
<path fill="none" stroke="midnightblue" d="M417.477,-392.446C416.393,-373.948 414,-328.837 414,-291 414,-291 414,-291 414,-177 414,-109.75 1479.8,-75.4792 1728.54,-68.3968"/>
<polygon fill="midnightblue" stroke="midnightblue" points="1728.85,-71.8895 1738.75,-68.1084 1728.65,-64.8923 1728.85,-71.8895"/>
</g>
<!-- Node34&#45;&gt;Node7 -->
<g id="edge57" class="edge"><title>Node34&#45;&gt;Node7</title>
<path fill="none" stroke="midnightblue" d="M412.16,-392.308C400.62,-374.261 376,-331.066 376,-291 376,-291 376,-291 376,-233 376,-200.537 368.27,-163.384 362.942,-141.628"/>
<polygon fill="midnightblue" stroke="midnightblue" points="366.288,-140.587 360.428,-131.76 359.505,-142.315 366.288,-140.587"/>
</g>
<!-- Node35 -->
<g id="node35" class="node"><title>Node35</title>
<g id="a_node35"><a xlink:href="_perlin_8h.html" target="_top" xlink:title="Perlin.h">
<polygon fill="white" stroke="black" points="148,-336.5 148,-355.5 198,-355.5 198,-336.5 148,-336.5"/>
<text text-anchor="middle" x="173" y="-343.5" font-family="Helvetica,sans-Serif" font-size="10.00">Perlin.h</text>
</a>
</g>
</g>
<!-- Node34&#45;&gt;Node35 -->
<g id="edge55" class="edge"><title>Node34&#45;&gt;Node35</title>
<path fill="none" stroke="midnightblue" d="M375.026,-392.473C334.378,-384.265 271.445,-371.19 207.99,-356.152"/>
<polygon fill="midnightblue" stroke="midnightblue" points="208.756,-352.737 198.217,-353.821 207.132,-359.546 208.756,-352.737"/>
</g>
<!-- Node35&#45;&gt;Node3 -->
<g id="edge56" class="edge"><title>Node35&#45;&gt;Node3</title>
<path fill="none" stroke="midnightblue" d="M167.551,-336.083C162.986,-328.613 156.332,-317.724 150.707,-308.52"/>
<polygon fill="midnightblue" stroke="midnightblue" points="153.549,-306.459 145.348,-299.751 147.576,-310.109 153.549,-306.459"/>
</g>
<!-- Node36&#45;&gt;Node4 -->
<g id="edge59" class="edge"><title>Node36&#45;&gt;Node4</title>
<path fill="none" stroke="midnightblue" d="M2630.44,-336.249C2625.25,-317.738 2614,-273.179 2614,-235 2614,-235 2614,-235 2614,-177 2614,-142.605 2601.73,-129.297 2572,-112 2508.26,-74.9163 1996.84,-68.3856 1831.42,-67.2414"/>
<polygon fill="midnightblue" stroke="midnightblue" points="1831.05,-63.7391 1821.03,-67.1736 1831.01,-70.7389 1831.05,-63.7391"/>
</g>
<!-- Node37&#45;&gt;Node4 -->
<g id="edge62" class="edge"><title>Node37&#45;&gt;Node4</title>
<path fill="none" stroke="midnightblue" d="M2474.87,-168.302C2460.56,-153.641 2429.21,-124.397 2396,-112 2293.04,-73.5627 1960,-67.8286 1831.37,-67.0696"/>
<polygon fill="midnightblue" stroke="midnightblue" points="1831.03,-63.568 1821.01,-67.0168 1830.99,-70.5679 1831.03,-63.568"/>
</g>
<!-- Node37&#45;&gt;Node9 -->
<g id="edge63" class="edge"><title>Node37&#45;&gt;Node9</title>
<path fill="none" stroke="midnightblue" d="M2464.3,-168.444C2445.06,-159.636 2414.85,-145.812 2392.8,-135.722"/>
<polygon fill="midnightblue" stroke="midnightblue" points="2394.16,-132.495 2383.61,-131.516 2391.25,-138.86 2394.16,-132.495"/>
</g>
<!-- Node38&#45;&gt;Node3 -->
<g id="edge67" class="edge"><title>Node38&#45;&gt;Node3</title>
<path fill="none" stroke="midnightblue" d="M227.291,-336.324C210.688,-327.703 184.998,-314.364 165.78,-304.386"/>
<polygon fill="midnightblue" stroke="midnightblue" points="167.156,-301.156 156.668,-299.655 163.93,-307.369 167.156,-301.156"/>
</g>
<!-- Node38&#45;&gt;Node4 -->
<g id="edge65" class="edge"><title>Node38&#45;&gt;Node4</title>
<path fill="none" stroke="midnightblue" d="M231.216,-336.392C204.45,-317.227 146.613,-269.162 167,-224 197.965,-155.407 224.013,-139.67 294,-112 362.027,-85.1051 1475.2,-70.5516 1728.84,-67.5755"/>
<polygon fill="midnightblue" stroke="midnightblue" points="1728.93,-71.0748 1738.89,-67.4584 1728.85,-64.0752 1728.93,-71.0748"/>
</g>
<!-- Node38&#45;&gt;Node6 -->
<g id="edge70" class="edge"><title>Node38&#45;&gt;Node6</title>
<path fill="none" stroke="midnightblue" d="M243.922,-336.368C243.76,-318.617 243.388,-277.666 243.169,-253.597"/>
<polygon fill="midnightblue" stroke="midnightblue" points="246.669,-253.559 243.078,-243.591 239.669,-253.623 246.669,-253.559"/>
</g>
<!-- Node38&#45;&gt;Node12 -->
<g id="edge66" class="edge"><title>Node38&#45;&gt;Node12</title>
<path fill="none" stroke="midnightblue" d="M272.017,-343.583C413.384,-336.436 1049.5,-304.273 1250.75,-294.097"/>
<polygon fill="midnightblue" stroke="midnightblue" points="1251.04,-297.587 1260.85,-293.586 1250.69,-290.596 1251.04,-297.587"/>
</g>
<!-- Node38&#45;&gt;Node30 -->
<g id="edge68" class="edge"><title>Node38&#45;&gt;Node30</title>
<path fill="none" stroke="midnightblue" d="M272.006,-344.503C488.527,-340.533 1899.02,-312.386 2346.18,-243.748"/>
<polygon fill="midnightblue" stroke="midnightblue" points="2346.9,-247.177 2356.24,-242.171 2345.82,-240.262 2346.9,-247.177"/>
</g>
<!-- Node38&#45;&gt;Node32 -->
<g id="edge69" class="edge"><title>Node38&#45;&gt;Node32</title>
<path fill="none" stroke="midnightblue" d="M215.918,-337.263C182.589,-328.081 126.749,-312.696 88.6888,-302.21"/>
<polygon fill="midnightblue" stroke="midnightblue" points="89.5107,-298.806 78.9402,-299.524 87.6513,-305.555 89.5107,-298.806"/>
</g>
</g>
</svg>
        <g id="navigator" transform="translate(0 0)" fill="#404254">
                <rect fill="#f2f5e9" fill-opacity="0.5" stroke="#606060" stroke-width=".5" x="0" y="0" width="60" height="60"/>
                <use id="zoomplus" xlink:href="#zoomPlus" x="17" y="9" onmousedown="handleZoom(evt,'in')"/>
                <use id="zoomminus" xlink:href="#zoomMin" x="42" y="9" onmousedown="handleZoom(evt,'out')"/>
                <use id="reset" xlink:href="#resetDef" x="30" y="36" onmousedown="handleReset()"/>
                <g id="arrowUp" xlink:href="#dirArrow" transform="translate(30 24)" onmousedown="handlePan(0,-1)">
                  <use xlink:href="#rim" fill="#404040">
                        <set attributeName="fill" to="#808080" begin="arrowUp.mouseover" end="arrowUp.mouseout"/>
                  </use>
                  <path fill="none" stroke="white" stroke-width="1.5" d="M0,-3.0v7 M-2.5,-0.5L0,-3.0L2.5,-0.5"/>
                </g>
                <g id="arrowRight" xlink:href="#dirArrow" transform="rotate(90) translate(36 -43)" onmousedown="handlePan(1,0)">
                  <use xlink:href="#rim" fill="#404040">
                        <set attributeName="fill" to="#808080" begin="arrowRight.mouseover" end="arrowRight.mouseout"/>
                  </use>
                  <path fill="none" stroke="white" stroke-width="1.5" d="M0,-3.0v7 M-2.5,-0.5L0,-3.0L2.5,-0.5"/>
                </g>
                <g id="arrowDown" xlink:href="#dirArrow" transform="rotate(180) translate(-30 -48)" onmousedown="handlePan(0,1)">
                  <use xlink:href="#rim" fill="#404040">
                        <set attributeName="fill" to="#808080" begin="arrowDown.mouseover" end="arrowDown.mouseout"/>
                  </use>
                  <path fill="none" stroke="white" stroke-width="1.5" d="M0,-3.0v7 M-2.5,-0.5L0,-3.0L2.5,-0.5"/>
                </g>
                <g id="arrowLeft" xlink:href="#dirArrow" transform="rotate(270) translate(-36 17)" onmousedown="handlePan(-1,0)">
                  <use xlink:href="#rim" fill="#404040">
                        <set attributeName="fill" to="#808080" begin="arrowLeft.mouseover" end="arrowLeft.mouseout"/>
                  </use>
                  <path fill="none" stroke="white" stroke-width="1.5" d="M0,-3.0v7 M-2.5,-0.5L0,-3.0L2.5,-0.5"/>
                </g>
        </g>
        <svg viewBox="0 0 15 15" width="100%" height="30px" preserveAspectRatio="xMaxYMin meet">
         <g id="arrow_out" transform="scale(0.3 0.3)">
          <a xlink:href="_f_f_t_8cpp__incl_org.svg" target="_base">
           <rect id="button" ry="5" rx="5" y="6" x="6" height="38" width="38"
                fill="#f2f5e9" fill-opacity="0.5" stroke="#606060" stroke-width="1.0"/>
           <path id="arrow"
             d="M 11.500037,31.436501 C 11.940474,20.09759 22.043105,11.32322 32.158766,21.979434 L 37.068811,17.246167 C 37.068811,17.246167 37.088388,32 37.088388,32 L 22.160133,31.978069 C 22.160133,31.978069 26.997745,27.140456 26.997745,27.140456 C 18.528582,18.264221 13.291696,25.230495 11.500037,31.436501 z"
             style="fill:#404040;"/>
          </a>
         </g>
        </svg>
</svg>
