<?xml version="1.0" encoding="UTF-8" standalone="no"?>
<!DOCTYPE svg PUBLIC "-//W3C//DTD SVG 1.1//EN"
 "http://www.w3.org/Graphics/SVG/1.1/DTD/svg11.dtd">
<!-- Generated by graphviz version 2.36.0 (20140111.2315)
 -->
<!-- Title: source/main/gfx/particle/FireExtinguisherAffector.h Pages: 1 -->
<svg width="174pt" height="108pt"
 viewBox="0.00 0.00 174.00 108.00" xmlns="http://www.w3.org/2000/svg" xmlns:xlink="http://www.w3.org/1999/xlink">
<g id="graph0" class="graph" transform="scale(1 1) rotate(0) translate(4 104)">
<title>source/main/gfx/particle/FireExtinguisherAffector.h</title>
<polygon fill="white" stroke="none" points="-4,4 -4,-104 170,-104 170,4 -4,4"/>
<!-- Node1 -->
<g id="node1" class="node"><title>Node1</title>
<polygon fill="#bfbfbf" stroke="black" points="16.5,-69 16.5,-99 149.5,-99 149.5,-69 16.5,-69"/>
<text text-anchor="start" x="24.5" y="-87" font-family="Helvetica,sans-Serif" font-size="10.00">source/main/gfx/particle</text>
<text text-anchor="middle" x="83" y="-76" font-family="Helvetica,sans-Serif" font-size="10.00">/FireExtinguisherAffector.h</text>
</g>
<!-- Node2 -->
<g id="node2" class="node"><title>Node2</title>
<g id="a_node2"><a xlink:href="_fire_extinguisher_affector_factory_8h.html" target="_top" xlink:title="source/main/gfx/particle\l/FireExtinguisherAffectorFactory.h">
<polygon fill="white" stroke="black" points="0,-1 0,-31 166,-31 166,-1 0,-1"/>
<text text-anchor="start" x="8" y="-19" font-family="Helvetica,sans-Serif" font-size="10.00">source/main/gfx/particle</text>
<text text-anchor="middle" x="83" y="-8" font-family="Helvetica,sans-Serif" font-size="10.00">/FireExtinguisherAffectorFactory.h</text>
</a>
</g>
</g>
<!-- Node1&#45;&gt;Node2 -->
<g id="edge1" class="edge"><title>Node1&#45;&gt;Node2</title>
<path fill="none" stroke="midnightblue" d="M83,-58.5322C83,-49.3606 83,-39.2449 83,-31.2931"/>
<polygon fill="midnightblue" stroke="midnightblue" points="79.5001,-58.6789 83,-68.679 86.5001,-58.679 79.5001,-58.6789"/>
</g>
</g>
</svg>
