<?xml version="1.0" encoding="UTF-8" standalone="no"?>
<!DOCTYPE svg PUBLIC "-//W3C//DTD SVG 1.1//EN"
 "http://www.w3.org/Graphics/SVG/1.1/DTD/svg11.dtd">
<!-- Generated by graphviz version 2.36.0 (20140111.2315)
 -->
<!-- Title: source/main/physics/flex/FlexAirfoil.cpp Pages: 1 -->
<svg width="1754pt" height="544pt"
 viewBox="0.00 0.00 1754.00 544.00" xmlns="http://www.w3.org/2000/svg" xmlns:xlink="http://www.w3.org/1999/xlink">
<g id="graph0" class="graph" transform="scale(1 1) rotate(0) translate(4 540)">
<title>source/main/physics/flex/FlexAirfoil.cpp</title>
<polygon fill="white" stroke="none" points="-4,4 -4,-540 1750,-540 1750,4 -4,4"/>
<!-- Node1 -->
<g id="node1" class="node"><title>Node1</title>
<polygon fill="#bfbfbf" stroke="black" points="864.5,-505 864.5,-535 971.5,-535 971.5,-505 864.5,-505"/>
<text text-anchor="start" x="872.5" y="-523" font-family="Helvetica,sans-Serif" font-size="10.00">source/main/physics</text>
<text text-anchor="middle" x="918" y="-512" font-family="Helvetica,sans-Serif" font-size="10.00">/flex/FlexAirfoil.cpp</text>
</g>
<!-- Node2 -->
<g id="node2" class="node"><title>Node2</title>
<g id="a_node2"><a xlink:href="_flex_airfoil_8h.html" target="_top" xlink:title="FlexAirfoil.h">
<polygon fill="white" stroke="black" points="809,-448.5 809,-467.5 877,-467.5 877,-448.5 809,-448.5"/>
<text text-anchor="middle" x="843" y="-455.5" font-family="Helvetica,sans-Serif" font-size="10.00">FlexAirfoil.h</text>
</a>
</g>
</g>
<!-- Node1&#45;&gt;Node2 -->
<g id="edge1" class="edge"><title>Node1&#45;&gt;Node2</title>
<path fill="none" stroke="midnightblue" d="M900.226,-504.781C888.654,-495.523 873.577,-483.462 861.804,-474.044"/>
<polygon fill="midnightblue" stroke="midnightblue" points="863.908,-471.244 853.913,-467.731 859.535,-476.711 863.908,-471.244"/>
</g>
<!-- Node22 -->
<g id="node22" class="node"><title>Node22</title>
<g id="a_node22"><a xlink:href="_beam_data_8h.html" target="_top" xlink:title="Core data structures for simulation. ">
<polygon fill="white" stroke="black" points="507.5,-392.5 507.5,-411.5 578.5,-411.5 578.5,-392.5 507.5,-392.5"/>
<text text-anchor="middle" x="543" y="-399.5" font-family="Helvetica,sans-Serif" font-size="10.00">BeamData.h</text>
</a>
</g>
</g>
<!-- Node1&#45;&gt;Node22 -->
<g id="edge59" class="edge"><title>Node1&#45;&gt;Node22</title>
<path fill="none" stroke="midnightblue" d="M872.393,-504.892C797.418,-481.7 649.548,-435.959 580.355,-414.555"/>
<polygon fill="midnightblue" stroke="midnightblue" points="581.322,-411.191 570.735,-411.579 579.254,-417.878 581.322,-411.191"/>
</g>
<!-- Node26 -->
<g id="node26" class="node"><title>Node26</title>
<g id="a_node26"><a xlink:href="_approx_math_8h.html" target="_top" xlink:title="ApproxMath.h">
<polygon fill="white" stroke="black" points="858.5,-168.5 858.5,-187.5 935.5,-187.5 935.5,-168.5 858.5,-168.5"/>
<text text-anchor="middle" x="897" y="-175.5" font-family="Helvetica,sans-Serif" font-size="10.00">ApproxMath.h</text>
</a>
</g>
</g>
<!-- Node1&#45;&gt;Node26 -->
<g id="edge58" class="edge"><title>Node1&#45;&gt;Node26</title>
<path fill="none" stroke="midnightblue" d="M918,-504.713C918,-482.82 918,-439.653 918,-403 918,-403 918,-403 918,-289 918,-256.384 908.982,-219.278 902.765,-197.573"/>
<polygon fill="midnightblue" stroke="midnightblue" points="906.043,-196.316 899.832,-187.732 899.334,-198.315 906.043,-196.316"/>
</g>
<!-- Node37 -->
<g id="node37" class="node"><title>Node37</title>
<g id="a_node37"><a xlink:href="_aero_engine_8h.html" target="_top" xlink:title="AeroEngine.h">
<polygon fill="white" stroke="black" points="946.5,-392.5 946.5,-411.5 1021.5,-411.5 1021.5,-392.5 946.5,-392.5"/>
<text text-anchor="middle" x="984" y="-399.5" font-family="Helvetica,sans-Serif" font-size="10.00">AeroEngine.h</text>
</a>
</g>
</g>
<!-- Node1&#45;&gt;Node37 -->
<g id="edge54" class="edge"><title>Node1&#45;&gt;Node37</title>
<path fill="none" stroke="midnightblue" d="M926.093,-504.776C938.201,-483.496 961.003,-443.418 974.091,-420.415"/>
<polygon fill="midnightblue" stroke="midnightblue" points="977.143,-422.129 979.046,-411.707 971.059,-418.668 977.143,-422.129"/>
</g>
<!-- Node38 -->
<g id="node38" class="node"><title>Node38</title>
<g id="a_node38"><a xlink:href="_airfoil_8h.html" target="_top" xlink:title="Airfoil.h">
<polygon fill="white" stroke="black" points="1014,-448.5 1014,-467.5 1064,-467.5 1064,-448.5 1014,-448.5"/>
<text text-anchor="middle" x="1039" y="-455.5" font-family="Helvetica,sans-Serif" font-size="10.00">Airfoil.h</text>
</a>
</g>
</g>
<!-- Node1&#45;&gt;Node38 -->
<g id="edge56" class="edge"><title>Node1&#45;&gt;Node38</title>
<path fill="none" stroke="midnightblue" d="M946.369,-504.933C966.419,-494.991 993.101,-481.76 1012.68,-472.053"/>
<polygon fill="midnightblue" stroke="midnightblue" points="1014.25,-475.178 1021.66,-467.6 1011.14,-468.907 1014.25,-475.178"/>
</g>
<!-- Node3 -->
<g id="node3" class="node"><title>Node3</title>
<polygon fill="white" stroke="#bfbfbf" points="806,-392.5 806,-411.5 852,-411.5 852,-392.5 806,-392.5"/>
<text text-anchor="middle" x="829" y="-399.5" font-family="Helvetica,sans-Serif" font-size="10.00">Ogre.h</text>
</g>
<!-- Node2&#45;&gt;Node3 -->
<g id="edge2" class="edge"><title>Node2&#45;&gt;Node3</title>
<path fill="none" stroke="midnightblue" d="M840.688,-448.083C838.833,-440.927 836.165,-430.635 833.846,-421.691"/>
<polygon fill="midnightblue" stroke="midnightblue" points="837.166,-420.553 831.269,-411.751 830.391,-422.309 837.166,-420.553"/>
</g>
<!-- Node4 -->
<g id="node4" class="node"><title>Node4</title>
<g id="a_node4"><a xlink:href="_ro_r_prerequisites_8h.html" target="_top" xlink:title="RoRPrerequisites.h">
<polygon fill="white" stroke="black" points="703,-112.5 703,-131.5 805,-131.5 805,-112.5 703,-112.5"/>
<text text-anchor="middle" x="754" y="-119.5" font-family="Helvetica,sans-Serif" font-size="10.00">RoRPrerequisites.h</text>
</a>
</g>
</g>
<!-- Node2&#45;&gt;Node4 -->
<g id="edge3" class="edge"><title>Node2&#45;&gt;Node4</title>
<path fill="none" stroke="midnightblue" d="M847.621,-448.339C852.059,-439.493 858.454,-425.22 861,-412 862.681,-403.271 862.482,-400.764 861,-392 852.198,-339.958 785.817,-192.244 762.26,-140.872"/>
<polygon fill="midnightblue" stroke="midnightblue" points="765.394,-139.31 758.034,-131.689 759.035,-142.237 765.394,-139.31"/>
</g>
<!-- Node2&#45;&gt;Node22 -->
<g id="edge22" class="edge"><title>Node2&#45;&gt;Node22</title>
<path fill="none" stroke="midnightblue" d="M808.878,-450.858C754.873,-441.137 649.629,-422.193 589.006,-411.281"/>
<polygon fill="midnightblue" stroke="midnightblue" points="589.414,-407.798 578.952,-409.471 588.174,-414.688 589.414,-407.798"/>
</g>
<!-- Node5 -->
<g id="node5" class="node"><title>Node5</title>
<polygon fill="white" stroke="#bfbfbf" points="-0.5,-56.5 -0.5,-75.5 102.5,-75.5 102.5,-56.5 -0.5,-56.5"/>
<text text-anchor="middle" x="51" y="-63.5" font-family="Helvetica,sans-Serif" font-size="10.00">OgrePrerequisites.h</text>
</g>
<!-- Node4&#45;&gt;Node5 -->
<g id="edge4" class="edge"><title>Node4&#45;&gt;Node5</title>
<path fill="none" stroke="midnightblue" d="M702.617,-118.785C595.044,-113.849 338.086,-100.495 112.707,-76.1112"/>
<polygon fill="midnightblue" stroke="midnightblue" points="112.998,-72.6222 102.677,-75.0164 112.238,-79.5809 112.998,-72.6222"/>
</g>
<!-- Node6 -->
<g id="node6" class="node"><title>Node6</title>
<polygon fill="white" stroke="#bfbfbf" points="1215.5,-56.5 1215.5,-75.5 1330.5,-75.5 1330.5,-56.5 1215.5,-56.5"/>
<text text-anchor="middle" x="1273" y="-63.5" font-family="Helvetica,sans-Serif" font-size="10.00">OgreAxisAlignedBox.h</text>
</g>
<!-- Node4&#45;&gt;Node6 -->
<g id="edge5" class="edge"><title>Node4&#45;&gt;Node6</title>
<path fill="none" stroke="midnightblue" d="M805.24,-116.476C887.309,-109.102 1053.56,-93.646 1205.3,-76.0447"/>
<polygon fill="midnightblue" stroke="midnightblue" points="1205.74,-79.5166 1215.27,-74.8823 1204.93,-72.5637 1205.74,-79.5166"/>
</g>
<!-- Node7 -->
<g id="node7" class="node"><title>Node7</title>
<polygon fill="white" stroke="#bfbfbf" points="1348.5,-56.5 1348.5,-75.5 1447.5,-75.5 1447.5,-56.5 1348.5,-56.5"/>
<text text-anchor="middle" x="1398" y="-63.5" font-family="Helvetica,sans-Serif" font-size="10.00">OgreColourValue.h</text>
</g>
<!-- Node4&#45;&gt;Node7 -->
<g id="edge6" class="edge"><title>Node4&#45;&gt;Node7</title>
<path fill="none" stroke="midnightblue" d="M805.378,-118.34C905.701,-112.864 1134.88,-98.9796 1338.48,-75.9688"/>
<polygon fill="midnightblue" stroke="midnightblue" points="1338.92,-79.4411 1348.46,-74.8309 1338.13,-72.4861 1338.92,-79.4411"/>
</g>
<!-- Node8 -->
<g id="node8" class="node"><title>Node8</title>
<polygon fill="white" stroke="#bfbfbf" points="1465.5,-56.5 1465.5,-75.5 1568.5,-75.5 1568.5,-56.5 1465.5,-56.5"/>
<text text-anchor="middle" x="1517" y="-63.5" font-family="Helvetica,sans-Serif" font-size="10.00">OgreHeaderPrefix.h</text>
</g>
<!-- Node4&#45;&gt;Node8 -->
<g id="edge7" class="edge"><title>Node4&#45;&gt;Node8</title>
<path fill="none" stroke="midnightblue" d="M805.21,-119.166C919.735,-114.751 1205.44,-102.002 1455.45,-75.9612"/>
<polygon fill="midnightblue" stroke="midnightblue" points="1455.87,-79.4363 1465.45,-74.9104 1455.14,-72.4746 1455.87,-79.4363"/>
</g>
<!-- Node9 -->
<g id="node9" class="node"><title>Node9</title>
<polygon fill="white" stroke="#bfbfbf" points="120.5,-56.5 120.5,-75.5 219.5,-75.5 219.5,-56.5 120.5,-56.5"/>
<text text-anchor="middle" x="170" y="-63.5" font-family="Helvetica,sans-Serif" font-size="10.00">OgreLogManager.h</text>
</g>
<!-- Node4&#45;&gt;Node9 -->
<g id="edge8" class="edge"><title>Node4&#45;&gt;Node9</title>
<path fill="none" stroke="midnightblue" d="M702.734,-117.787C610.267,-111.736 409.219,-97.4118 229.795,-76.146"/>
<polygon fill="midnightblue" stroke="midnightblue" points="229.988,-72.6442 219.643,-74.9325 229.157,-79.5947 229.988,-72.6442"/>
</g>
<!-- Node10 -->
<g id="node10" class="node"><title>Node10</title>
<polygon fill="white" stroke="#bfbfbf" points="237.5,-56.5 237.5,-75.5 330.5,-75.5 330.5,-56.5 237.5,-56.5"/>
<text text-anchor="middle" x="284" y="-63.5" font-family="Helvetica,sans-Serif" font-size="10.00">OgreQuaternion.h</text>
</g>
<!-- Node4&#45;&gt;Node10 -->
<g id="edge9" class="edge"><title>Node4&#45;&gt;Node10</title>
<path fill="none" stroke="midnightblue" d="M702.78,-116.347C626.228,-109.194 477.199,-94.5057 340.983,-76.2123"/>
<polygon fill="midnightblue" stroke="midnightblue" points="341.161,-72.7046 330.782,-74.8322 340.222,-79.6414 341.161,-72.7046"/>
</g>
<!-- Node11 -->
<g id="node11" class="node"><title>Node11</title>
<polygon fill="white" stroke="#bfbfbf" points="348.5,-56.5 348.5,-75.5 419.5,-75.5 419.5,-56.5 348.5,-56.5"/>
<text text-anchor="middle" x="384" y="-63.5" font-family="Helvetica,sans-Serif" font-size="10.00">OgreString.h</text>
</g>
<!-- Node4&#45;&gt;Node11 -->
<g id="edge10" class="edge"><title>Node4&#45;&gt;Node11</title>
<path fill="none" stroke="midnightblue" d="M702.912,-114.886C640.781,-107.236 532.497,-93.2204 429.75,-76.0385"/>
<polygon fill="midnightblue" stroke="midnightblue" points="430.268,-72.5766 419.826,-74.366 429.105,-79.4792 430.268,-72.5766"/>
</g>
<!-- Node12 -->
<g id="node12" class="node"><title>Node12</title>
<polygon fill="white" stroke="#bfbfbf" points="438,-56.5 438,-75.5 552,-75.5 552,-56.5 438,-56.5"/>
<text text-anchor="middle" x="495" y="-63.5" font-family="Helvetica,sans-Serif" font-size="10.00">OgreStringConverter.h</text>
</g>
<!-- Node4&#45;&gt;Node12 -->
<g id="edge11" class="edge"><title>Node4&#45;&gt;Node12</title>
<path fill="none" stroke="midnightblue" d="M712.961,-112.444C667.684,-103.004 594.773,-87.802 545.894,-77.6111"/>
<polygon fill="midnightblue" stroke="midnightblue" points="546.351,-74.1312 535.847,-75.5164 544.922,-80.9839 546.351,-74.1312"/>
</g>
<!-- Node13 -->
<g id="node13" class="node"><title>Node13</title>
<polygon fill="white" stroke="#bfbfbf" points="570.5,-56.5 570.5,-75.5 661.5,-75.5 661.5,-56.5 570.5,-56.5"/>
<text text-anchor="middle" x="616" y="-63.5" font-family="Helvetica,sans-Serif" font-size="10.00">OgreUTFString.h</text>
</g>
<!-- Node4&#45;&gt;Node13 -->
<g id="edge12" class="edge"><title>Node4&#45;&gt;Node13</title>
<path fill="none" stroke="midnightblue" d="M732.133,-112.444C709.221,-103.478 673.025,-89.314 647.134,-79.1827"/>
<polygon fill="midnightblue" stroke="midnightblue" points="648.352,-75.9011 637.764,-75.5164 645.801,-82.4198 648.352,-75.9011"/>
</g>
<!-- Node14 -->
<g id="node14" class="node"><title>Node14</title>
<polygon fill="white" stroke="#bfbfbf" points="680,-56.5 680,-75.5 760,-75.5 760,-56.5 680,-56.5"/>
<text text-anchor="middle" x="720" y="-63.5" font-family="Helvetica,sans-Serif" font-size="10.00">OgreVector2.h</text>
</g>
<!-- Node4&#45;&gt;Node14 -->
<g id="edge13" class="edge"><title>Node4&#45;&gt;Node14</title>
<path fill="none" stroke="midnightblue" d="M748.386,-112.083C743.633,-104.534 736.682,-93.4948 730.848,-84.2298"/>
<polygon fill="midnightblue" stroke="midnightblue" points="733.8,-82.3486 725.51,-75.7511 727.876,-86.0783 733.8,-82.3486"/>
</g>
<!-- Node15 -->
<g id="node15" class="node"><title>Node15</title>
<polygon fill="white" stroke="#bfbfbf" points="1587,-56.5 1587,-75.5 1667,-75.5 1667,-56.5 1587,-56.5"/>
<text text-anchor="middle" x="1627" y="-63.5" font-family="Helvetica,sans-Serif" font-size="10.00">OgreVector3.h</text>
</g>
<!-- Node4&#45;&gt;Node15 -->
<g id="edge14" class="edge"><title>Node4&#45;&gt;Node15</title>
<path fill="none" stroke="midnightblue" d="M805.228,-119.03C960.806,-112.914 1426.34,-93.6096 1577,-76 1577.1,-75.9882 1577.2,-75.9762 1577.3,-75.9643"/>
<polygon fill="midnightblue" stroke="midnightblue" points="1577.51,-79.4687 1586.95,-74.6585 1576.57,-72.532 1577.51,-79.4687"/>
</g>
<!-- Node16 -->
<g id="node16" class="node"><title>Node16</title>
<g id="a_node16"><a xlink:href="_forward_declarations_8h.html" target="_top" xlink:title="Global forward declarations. ">
<polygon fill="white" stroke="black" points="771.5,-0.5 771.5,-19.5 886.5,-19.5 886.5,-0.5 771.5,-0.5"/>
<text text-anchor="middle" x="829" y="-7.5" font-family="Helvetica,sans-Serif" font-size="10.00">ForwardDeclarations.h</text>
</a>
</g>
</g>
<!-- Node4&#45;&gt;Node16 -->
<g id="edge15" class="edge"><title>Node4&#45;&gt;Node16</title>
<path fill="none" stroke="midnightblue" d="M759.885,-112.368C772.262,-94.2153 801.181,-51.8015 817.416,-27.9902"/>
<polygon fill="midnightblue" stroke="midnightblue" points="820.401,-29.8254 823.142,-19.5914 814.617,-25.882 820.401,-29.8254"/>
</g>
<!-- Node17 -->
<g id="node17" class="node"><title>Node17</title>
<g id="a_node17"><a xlink:href="_global_environment_8h.html" target="_top" xlink:title="GlobalEnvironment.h">
<polygon fill="white" stroke="black" points="816.5,-56.5 816.5,-75.5 923.5,-75.5 923.5,-56.5 816.5,-56.5"/>
<text text-anchor="middle" x="870" y="-63.5" font-family="Helvetica,sans-Serif" font-size="10.00">GlobalEnvironment.h</text>
</a>
</g>
</g>
<!-- Node4&#45;&gt;Node17 -->
<g id="edge16" class="edge"><title>Node4&#45;&gt;Node17</title>
<path fill="none" stroke="midnightblue" d="M772.381,-112.444C791.216,-103.675 820.731,-89.9355 842.379,-79.8579"/>
<polygon fill="midnightblue" stroke="midnightblue" points="844.117,-82.9098 851.705,-75.5164 841.162,-76.5637 844.117,-82.9098"/>
</g>
<!-- Node18 -->
<g id="node18" class="node"><title>Node18</title>
<g id="a_node18"><a xlink:href="_zeroed_memory_allocator_8h.html" target="_top" xlink:title="ZeroedMemoryAllocator.h">
<polygon fill="white" stroke="black" points="942,-56.5 942,-75.5 1070,-75.5 1070,-56.5 942,-56.5"/>
<text text-anchor="middle" x="1006" y="-63.5" font-family="Helvetica,sans-Serif" font-size="10.00">ZeroedMemoryAllocator.h</text>
</a>
</g>
</g>
<!-- Node4&#45;&gt;Node18 -->
<g id="edge18" class="edge"><title>Node4&#45;&gt;Node18</title>
<path fill="none" stroke="midnightblue" d="M793.93,-112.444C837.891,-103.023 908.627,-87.8656 956.183,-77.6752"/>
<polygon fill="midnightblue" stroke="midnightblue" points="957.212,-81.0341 966.257,-75.5164 955.745,-74.1895 957.212,-81.0341"/>
</g>
<!-- Node19 -->
<g id="node19" class="node"><title>Node19</title>
<g id="a_node19"><a xlink:href="_bit_flags_8h.html" target="_top" xlink:title="BitFlags.h">
<polygon fill="white" stroke="black" points="1685.5,-56.5 1685.5,-75.5 1746.5,-75.5 1746.5,-56.5 1685.5,-56.5"/>
<text text-anchor="middle" x="1716" y="-63.5" font-family="Helvetica,sans-Serif" font-size="10.00">BitFlags.h</text>
</a>
</g>
</g>
<!-- Node4&#45;&gt;Node19 -->
<g id="edge19" class="edge"><title>Node4&#45;&gt;Node19</title>
<path fill="none" stroke="midnightblue" d="M805.113,-119.668C969.83,-115.196 1486.46,-99.7267 1675.02,-75.8362"/>
<polygon fill="midnightblue" stroke="midnightblue" points="1675.63,-79.2857 1685.09,-74.509 1674.72,-72.3457 1675.63,-79.2857"/>
</g>
<!-- Node21 -->
<g id="node21" class="node"><title>Node21</title>
<polygon fill="white" stroke="#bfbfbf" points="1088.5,-56.5 1088.5,-75.5 1197.5,-75.5 1197.5,-56.5 1088.5,-56.5"/>
<text text-anchor="middle" x="1143" y="-63.5" font-family="Helvetica,sans-Serif" font-size="10.00">MyGUI_Prerequest.h</text>
</g>
<!-- Node4&#45;&gt;Node21 -->
<g id="edge21" class="edge"><title>Node4&#45;&gt;Node21</title>
<path fill="none" stroke="midnightblue" d="M805.228,-113.941C867.269,-105.385 975.234,-90.47 1078.24,-76.104"/>
<polygon fill="midnightblue" stroke="midnightblue" points="1078.77,-79.564 1088.19,-74.7157 1077.8,-72.6311 1078.77,-79.564"/>
</g>
<!-- Node17&#45;&gt;Node16 -->
<g id="edge17" class="edge"><title>Node17&#45;&gt;Node16</title>
<path fill="none" stroke="midnightblue" d="M863.23,-56.083C857.438,-48.4554 848.942,-37.2645 841.862,-27.9408"/>
<polygon fill="midnightblue" stroke="midnightblue" points="844.479,-25.5991 835.644,-19.7511 838.904,-29.8321 844.479,-25.5991"/>
</g>
<!-- Node20 -->
<g id="node20" class="node"><title>Node20</title>
<polygon fill="white" stroke="#bfbfbf" points="1693,-0.5 1693,-19.5 1739,-19.5 1739,-0.5 1693,-0.5"/>
<text text-anchor="middle" x="1716" y="-7.5" font-family="Helvetica,sans-Serif" font-size="10.00">cstdint</text>
</g>
<!-- Node19&#45;&gt;Node20 -->
<g id="edge20" class="edge"><title>Node19&#45;&gt;Node20</title>
<path fill="none" stroke="midnightblue" d="M1716,-56.083C1716,-49.0059 1716,-38.8611 1716,-29.9865"/>
<polygon fill="midnightblue" stroke="midnightblue" points="1719.5,-29.751 1716,-19.7511 1712.5,-29.7511 1719.5,-29.751"/>
</g>
<!-- Node22&#45;&gt;Node4 -->
<g id="edge23" class="edge"><title>Node22&#45;&gt;Node4</title>
<path fill="none" stroke="midnightblue" d="M578.56,-395.987C622.378,-389.071 693.226,-375.241 711,-356 767.369,-294.979 761.561,-185.231 756.597,-141.611"/>
<polygon fill="midnightblue" stroke="midnightblue" points="760.056,-141.066 755.331,-131.583 753.111,-141.943 760.056,-141.066"/>
</g>
<!-- Node23 -->
<g id="node23" class="node"><title>Node23</title>
<g id="a_node23"><a xlink:href="_ro_rnet_8h.html" target="_top" xlink:title="RoRnet.h">
<polygon fill="white" stroke="black" points="759.5,-336.5 759.5,-355.5 818.5,-355.5 818.5,-336.5 759.5,-336.5"/>
<text text-anchor="middle" x="789" y="-343.5" font-family="Helvetica,sans-Serif" font-size="10.00">RoRnet.h</text>
</a>
</g>
</g>
<!-- Node22&#45;&gt;Node23 -->
<g id="edge24" class="edge"><title>Node22&#45;&gt;Node23</title>
<path fill="none" stroke="midnightblue" d="M578.508,-393.206C623.877,-383.246 702.176,-366.059 749.42,-355.688"/>
<polygon fill="midnightblue" stroke="midnightblue" points="750.276,-359.084 759.293,-353.521 748.775,-352.247 750.276,-359.084"/>
</g>
<!-- Node25 -->
<g id="node25" class="node"><title>Node25</title>
<g id="a_node25"><a xlink:href="_slide_node_8h.html" target="_top" xlink:title="SlideNode.h">
<polygon fill="white" stroke="black" points="820,-224.5 820,-243.5 890,-243.5 890,-224.5 820,-224.5"/>
<text text-anchor="middle" x="855" y="-231.5" font-family="Helvetica,sans-Serif" font-size="10.00">SlideNode.h</text>
</a>
</g>
</g>
<!-- Node22&#45;&gt;Node25 -->
<g id="edge27" class="edge"><title>Node22&#45;&gt;Node25</title>
<path fill="none" stroke="midnightblue" d="M548.357,-392.226C557.148,-378.487 575.886,-351.837 598,-336 634.828,-309.625 757.333,-267.151 818.952,-246.72"/>
<polygon fill="midnightblue" stroke="midnightblue" points="820.252,-249.976 828.652,-243.519 818.059,-243.329 820.252,-249.976"/>
</g>
<!-- Node27 -->
<g id="node27" class="node"><title>Node27</title>
<g id="a_node27"><a xlink:href="_beam_constants_8h.html" target="_top" xlink:title="BeamConstants.h">
<polygon fill="white" stroke="black" points="607.5,-336.5 607.5,-355.5 702.5,-355.5 702.5,-336.5 607.5,-336.5"/>
<text text-anchor="middle" x="655" y="-343.5" font-family="Helvetica,sans-Serif" font-size="10.00">BeamConstants.h</text>
</a>
</g>
</g>
<!-- Node22&#45;&gt;Node27 -->
<g id="edge32" class="edge"><title>Node22&#45;&gt;Node27</title>
<path fill="none" stroke="midnightblue" d="M560.995,-392.324C579.038,-383.625 607.047,-370.12 627.803,-360.113"/>
<polygon fill="midnightblue" stroke="midnightblue" points="629.562,-363.15 637.05,-355.655 626.522,-356.845 629.562,-363.15"/>
</g>
<!-- Node28 -->
<g id="node28" class="node"><title>Node28</title>
<g id="a_node28"><a xlink:href="node__t_8h.html" target="_top" xlink:title="datatypes/node_t.h">
<polygon fill="white" stroke="black" points="84,-168.5 84,-187.5 184,-187.5 184,-168.5 84,-168.5"/>
<text text-anchor="middle" x="134" y="-175.5" font-family="Helvetica,sans-Serif" font-size="10.00">datatypes/node_t.h</text>
</a>
</g>
</g>
<!-- Node22&#45;&gt;Node28 -->
<g id="edge33" class="edge"><title>Node22&#45;&gt;Node28</title>
<path fill="none" stroke="midnightblue" d="M507.424,-398.835C440.534,-394.21 299.056,-381.634 258,-356 195.722,-317.116 156.201,-234.257 141.035,-197.371"/>
<polygon fill="midnightblue" stroke="midnightblue" points="144.207,-195.876 137.258,-187.878 137.703,-198.464 144.207,-195.876"/>
</g>
<!-- Node29 -->
<g id="node29" class="node"><title>Node29</title>
<g id="a_node29"><a xlink:href="shock__t_8h.html" target="_top" xlink:title="datatypes/shock_t.h">
<polygon fill="white" stroke="black" points="284.5,-336.5 284.5,-355.5 389.5,-355.5 389.5,-336.5 284.5,-336.5"/>
<text text-anchor="middle" x="337" y="-343.5" font-family="Helvetica,sans-Serif" font-size="10.00">datatypes/shock_t.h</text>
</a>
</g>
</g>
<!-- Node22&#45;&gt;Node29 -->
<g id="edge36" class="edge"><title>Node22&#45;&gt;Node29</title>
<path fill="none" stroke="midnightblue" d="M510.359,-392.444C474.95,-383.162 418.291,-368.309 379.447,-358.127"/>
<polygon fill="midnightblue" stroke="midnightblue" points="380.049,-354.667 369.489,-355.516 378.274,-361.438 380.049,-354.667"/>
</g>
<!-- Node30 -->
<g id="node30" class="node"><title>Node30</title>
<g id="a_node30"><a xlink:href="beam__t_8h.html" target="_top" xlink:title="datatypes/beam_t.h">
<polygon fill="white" stroke="black" points="202.5,-168.5 202.5,-187.5 305.5,-187.5 305.5,-168.5 202.5,-168.5"/>
<text text-anchor="middle" x="254" y="-175.5" font-family="Helvetica,sans-Serif" font-size="10.00">datatypes/beam_t.h</text>
</a>
</g>
</g>
<!-- Node22&#45;&gt;Node30 -->
<g id="edge37" class="edge"><title>Node22&#45;&gt;Node30</title>
<path fill="none" stroke="midnightblue" d="M507.494,-400.136C442.077,-397.754 306.325,-388.875 275,-356 233.779,-312.74 242.796,-234.034 249.715,-197.97"/>
<polygon fill="midnightblue" stroke="midnightblue" points="253.208,-198.362 251.821,-187.858 246.356,-196.934 253.208,-198.362"/>
</g>
<!-- Node31 -->
<g id="node31" class="node"><title>Node31</title>
<g id="a_node31"><a xlink:href="wheel__t_8h.html" target="_top" xlink:title="datatypes/wheel_t.h">
<polygon fill="white" stroke="black" points="324,-168.5 324,-187.5 428,-187.5 428,-168.5 324,-168.5"/>
<text text-anchor="middle" x="376" y="-175.5" font-family="Helvetica,sans-Serif" font-size="10.00">datatypes/wheel_t.h</text>
</a>
</g>
</g>
<!-- Node22&#45;&gt;Node31 -->
<g id="edge40" class="edge"><title>Node22&#45;&gt;Node31</title>
<path fill="none" stroke="midnightblue" d="M513.485,-392.384C493.867,-385.351 468.731,-373.654 452,-356 407.771,-309.331 387.109,-232.924 379.562,-197.772"/>
<polygon fill="midnightblue" stroke="midnightblue" points="382.905,-196.642 377.491,-187.535 376.044,-198.03 382.905,-196.642"/>
</g>
<!-- Node32 -->
<g id="node32" class="node"><title>Node32</title>
<g id="a_node32"><a xlink:href="rig__t_8h.html" target="_top" xlink:title="datatypes/rig_t.h">
<polygon fill="white" stroke="black" points="461.5,-336.5 461.5,-355.5 550.5,-355.5 550.5,-336.5 461.5,-336.5"/>
<text text-anchor="middle" x="506" y="-343.5" font-family="Helvetica,sans-Serif" font-size="10.00">datatypes/rig_t.h</text>
</a>
</g>
</g>
<!-- Node22&#45;&gt;Node32 -->
<g id="edge43" class="edge"><title>Node22&#45;&gt;Node32</title>
<path fill="none" stroke="midnightblue" d="M531.724,-392.083C525.1,-384.691 517.335,-373.953 511.814,-364.811"/>
<polygon fill="midnightblue" stroke="midnightblue" points="514.731,-362.849 506.865,-355.751 508.587,-366.205 514.731,-362.849"/>
</g>
<!-- Node23&#45;&gt;Node19 -->
<g id="edge25" class="edge"><title>Node23&#45;&gt;Node19</title>
<path fill="none" stroke="midnightblue" d="M817.504,-336.452C952.055,-296.101 1523.52,-124.723 1677.6,-78.5169"/>
<polygon fill="midnightblue" stroke="midnightblue" points="1678.97,-81.7583 1687.55,-75.5332 1676.96,-75.0533 1678.97,-81.7583"/>
</g>
<!-- Node24 -->
<g id="node24" class="node"><title>Node24</title>
<polygon fill="white" stroke="#bfbfbf" points="764.5,-280.5 764.5,-299.5 813.5,-299.5 813.5,-280.5 764.5,-280.5"/>
<text text-anchor="middle" x="789" y="-287.5" font-family="Helvetica,sans-Serif" font-size="10.00">stdint.h</text>
</g>
<!-- Node23&#45;&gt;Node24 -->
<g id="edge26" class="edge"><title>Node23&#45;&gt;Node24</title>
<path fill="none" stroke="midnightblue" d="M789,-336.083C789,-329.006 789,-318.861 789,-309.986"/>
<polygon fill="midnightblue" stroke="midnightblue" points="792.5,-309.751 789,-299.751 785.5,-309.751 792.5,-309.751"/>
</g>
<!-- Node25&#45;&gt;Node4 -->
<g id="edge30" class="edge"><title>Node25&#45;&gt;Node4</title>
<path fill="none" stroke="midnightblue" d="M849.201,-224.129C840.539,-211.169 823.371,-186.583 806,-168 795.936,-157.234 783.488,-146.388 773.294,-138.042"/>
<polygon fill="midnightblue" stroke="midnightblue" points="775.353,-135.207 765.364,-131.676 770.971,-140.666 775.353,-135.207"/>
</g>
<!-- Node25&#45;&gt;Node15 -->
<g id="edge31" class="edge"><title>Node25&#45;&gt;Node15</title>
<path fill="none" stroke="midnightblue" d="M872.934,-224.421C891.055,-215.638 919.761,-201.413 944,-188 1001.22,-156.335 1007.66,-131.752 1070,-112 1285.35,-43.7718 1352.85,-104.05 1577,-76 1577.1,-75.9873 1577.2,-75.9746 1577.3,-75.9618"/>
<polygon fill="midnightblue" stroke="midnightblue" points="1577.53,-79.4649 1586.94,-74.6007 1576.55,-72.5337 1577.53,-79.4649"/>
</g>
<!-- Node25&#45;&gt;Node26 -->
<g id="edge28" class="edge"><title>Node25&#45;&gt;Node26</title>
<path fill="none" stroke="midnightblue" d="M861.935,-224.083C867.929,-216.377 876.752,-205.033 884.048,-195.653"/>
<polygon fill="midnightblue" stroke="midnightblue" points="886.817,-197.793 890.194,-187.751 881.291,-193.496 886.817,-197.793"/>
</g>
<!-- Node26&#45;&gt;Node4 -->
<g id="edge29" class="edge"><title>Node26&#45;&gt;Node4</title>
<path fill="none" stroke="midnightblue" d="M874.341,-168.444C850.598,-159.478 813.091,-145.314 786.262,-135.183"/>
<polygon fill="midnightblue" stroke="midnightblue" points="787.144,-131.775 776.553,-131.516 784.671,-138.324 787.144,-131.775"/>
</g>
<!-- Node28&#45;&gt;Node4 -->
<g id="edge35" class="edge"><title>Node28&#45;&gt;Node4</title>
<path fill="none" stroke="midnightblue" d="M184.179,-169.097C187.161,-168.704 190.118,-168.335 193,-168 374.097,-146.951 589.236,-132.68 692.583,-126.488"/>
<polygon fill="midnightblue" stroke="midnightblue" points="693.054,-129.966 702.829,-125.879 692.639,-122.979 693.054,-129.966"/>
</g>
<!-- Node28&#45;&gt;Node5 -->
<g id="edge34" class="edge"><title>Node28&#45;&gt;Node5</title>
<path fill="none" stroke="midnightblue" d="M127.487,-168.368C113.729,-150.135 81.503,-107.426 63.5822,-83.6752"/>
<polygon fill="midnightblue" stroke="midnightblue" points="66.2998,-81.4659 57.4826,-75.5914 60.712,-85.6821 66.2998,-81.4659"/>
</g>
<!-- Node30&#45;&gt;Node4 -->
<g id="edge39" class="edge"><title>Node30&#45;&gt;Node4</title>
<path fill="none" stroke="midnightblue" d="M305.563,-169.228C308.754,-168.798 311.92,-168.385 315,-168 449.601,-151.18 608.005,-136.101 692.903,-128.4"/>
<polygon fill="midnightblue" stroke="midnightblue" points="693.241,-131.884 702.885,-127.498 692.611,-124.913 693.241,-131.884"/>
</g>
<!-- Node30&#45;&gt;Node5 -->
<g id="edge38" class="edge"><title>Node30&#45;&gt;Node5</title>
<path fill="none" stroke="midnightblue" d="M238.071,-168.368C202.791,-149.251 117.859,-103.229 75.6571,-80.361"/>
<polygon fill="midnightblue" stroke="midnightblue" points="77.3147,-77.2784 66.8551,-75.5914 73.9798,-83.433 77.3147,-77.2784"/>
</g>
<!-- Node31&#45;&gt;Node4 -->
<g id="edge41" class="edge"><title>Node31&#45;&gt;Node4</title>
<path fill="none" stroke="midnightblue" d="M428.162,-169.548C497.411,-159.656 619.483,-142.217 692.944,-131.722"/>
<polygon fill="midnightblue" stroke="midnightblue" points="693.572,-135.168 702.977,-130.289 692.582,-128.239 693.572,-135.168"/>
</g>
<!-- Node31&#45;&gt;Node5 -->
<g id="edge42" class="edge"><title>Node31&#45;&gt;Node5</title>
<path fill="none" stroke="midnightblue" d="M350.768,-168.46C293.174,-148.966 151.925,-101.159 85.9788,-78.839"/>
<polygon fill="midnightblue" stroke="midnightblue" points="87.034,-75.5012 76.4398,-75.6104 84.7898,-82.1317 87.034,-75.5012"/>
</g>
<!-- Node32&#45;&gt;Node4 -->
<g id="edge50" class="edge"><title>Node32&#45;&gt;Node4</title>
<path fill="none" stroke="midnightblue" d="M512.328,-336.253C518.656,-327.341 528.499,-313.017 536,-300 568.651,-243.341 550.969,-210.11 601,-168 626.693,-146.375 662.384,-135.14 692.832,-129.304"/>
<polygon fill="midnightblue" stroke="midnightblue" points="693.694,-132.706 702.935,-127.525 692.48,-125.812 693.694,-132.706"/>
</g>
<!-- Node32&#45;&gt;Node5 -->
<g id="edge53" class="edge"><title>Node32&#45;&gt;Node5</title>
<path fill="none" stroke="midnightblue" d="M498.679,-336.217C491.736,-327.506 481.436,-313.537 475,-300 462.077,-272.818 456,-265.098 456,-235 456,-235 456,-235 456,-177 456,-141.814 225.403,-97.0973 112.212,-77.2671"/>
<polygon fill="midnightblue" stroke="midnightblue" points="112.746,-73.8075 102.294,-75.5405 111.545,-80.7037 112.746,-73.8075"/>
</g>
<!-- Node32&#45;&gt;Node22 -->
<g id="edge51" class="edge"><title>Node32&#45;&gt;Node22</title>
<path fill="none" stroke="midnightblue" d="M517.127,-355.751C523.804,-363.17 531.673,-374.045 537.238,-383.275"/>
<polygon fill="midnightblue" stroke="midnightblue" points="534.186,-384.99 542.057,-392.083 540.328,-381.63 534.186,-384.99"/>
</g>
<!-- Node33 -->
<g id="node33" class="node"><title>Node33</title>
<g id="a_node33"><a xlink:href="_application_8h.html" target="_top" xlink:title="Central state/object manager and communications hub. ">
<polygon fill="white" stroke="black" points="584.5,-280.5 584.5,-299.5 657.5,-299.5 657.5,-280.5 584.5,-280.5"/>
<text text-anchor="middle" x="621" y="-287.5" font-family="Helvetica,sans-Serif" font-size="10.00">Application.h</text>
</a>
</g>
</g>
<!-- Node32&#45;&gt;Node33 -->
<g id="edge44" class="edge"><title>Node32&#45;&gt;Node33</title>
<path fill="none" stroke="midnightblue" d="M524.222,-336.444C542.896,-327.675 572.156,-313.935 593.617,-303.858"/>
<polygon fill="midnightblue" stroke="midnightblue" points="595.299,-306.935 602.863,-299.516 592.324,-300.599 595.299,-306.935"/>
</g>
<!-- Node36 -->
<g id="node36" class="node"><title>Node36</title>
<polygon fill="white" stroke="#bfbfbf" points="484,-280.5 484,-299.5 528,-299.5 528,-280.5 484,-280.5"/>
<text text-anchor="middle" x="506" y="-287.5" font-family="Helvetica,sans-Serif" font-size="10.00">vector</text>
</g>
<!-- Node32&#45;&gt;Node36 -->
<g id="edge52" class="edge"><title>Node32&#45;&gt;Node36</title>
<path fill="none" stroke="midnightblue" d="M506,-336.083C506,-329.006 506,-318.861 506,-309.986"/>
<polygon fill="midnightblue" stroke="midnightblue" points="509.5,-309.751 506,-299.751 502.5,-309.751 509.5,-309.751"/>
</g>
<!-- Node33&#45;&gt;Node4 -->
<g id="edge45" class="edge"><title>Node33&#45;&gt;Node4</title>
<path fill="none" stroke="midnightblue" d="M617.008,-280.343C607.788,-258.925 587.665,-202.679 613,-168 631.305,-142.944 663.716,-131.513 692.852,-126.429"/>
<polygon fill="midnightblue" stroke="midnightblue" points="693.634,-129.85 702.992,-124.883 692.579,-122.93 693.634,-129.85"/>
</g>
<!-- Node34 -->
<g id="node34" class="node"><title>Node34</title>
<g id="a_node34"><a xlink:href="_settings_8h.html" target="_top" xlink:title="Settings.h">
<polygon fill="white" stroke="black" points="624.5,-224.5 624.5,-243.5 685.5,-243.5 685.5,-224.5 624.5,-224.5"/>
<text text-anchor="middle" x="655" y="-231.5" font-family="Helvetica,sans-Serif" font-size="10.00">Settings.h</text>
</a>
</g>
</g>
<!-- Node33&#45;&gt;Node34 -->
<g id="edge46" class="edge"><title>Node33&#45;&gt;Node34</title>
<path fill="none" stroke="midnightblue" d="M626.614,-280.083C631.367,-272.534 638.318,-261.495 644.152,-252.23"/>
<polygon fill="midnightblue" stroke="midnightblue" points="647.124,-254.078 649.49,-243.751 641.2,-250.349 647.124,-254.078"/>
</g>
<!-- Node34&#45;&gt;Node4 -->
<g id="edge47" class="edge"><title>Node34&#45;&gt;Node4</title>
<path fill="none" stroke="midnightblue" d="M662.887,-224.397C671.162,-215.359 684.535,-200.716 696,-188 710.788,-171.599 727.576,-152.761 739.271,-139.602"/>
<polygon fill="midnightblue" stroke="midnightblue" points="742.125,-141.659 746.149,-131.857 736.891,-137.01 742.125,-141.659"/>
</g>
<!-- Node35 -->
<g id="node35" class="node"><title>Node35</title>
<g id="a_node35"><a xlink:href="_singleton_8h.html" target="_top" xlink:title="Singleton.h">
<polygon fill="white" stroke="black" points="622.5,-168.5 622.5,-187.5 687.5,-187.5 687.5,-168.5 622.5,-168.5"/>
<text text-anchor="middle" x="655" y="-175.5" font-family="Helvetica,sans-Serif" font-size="10.00">Singleton.h</text>
</a>
</g>
</g>
<!-- Node34&#45;&gt;Node35 -->
<g id="edge48" class="edge"><title>Node34&#45;&gt;Node35</title>
<path fill="none" stroke="midnightblue" d="M655,-224.083C655,-217.006 655,-206.861 655,-197.986"/>
<polygon fill="midnightblue" stroke="midnightblue" points="658.5,-197.751 655,-187.751 651.5,-197.751 658.5,-197.751"/>
</g>
<!-- Node35&#45;&gt;Node4 -->
<g id="edge49" class="edge"><title>Node35&#45;&gt;Node4</title>
<path fill="none" stroke="midnightblue" d="M670.906,-168.324C686.638,-159.743 710.942,-146.486 729.209,-136.522"/>
<polygon fill="midnightblue" stroke="midnightblue" points="731.03,-139.516 738.133,-131.655 727.678,-133.37 731.03,-139.516"/>
</g>
<!-- Node37&#45;&gt;Node4 -->
<g id="edge55" class="edge"><title>Node37&#45;&gt;Node4</title>
<path fill="none" stroke="midnightblue" d="M981.707,-392.231C977.067,-373.687 967,-329.068 967,-291 967,-291 967,-291 967,-233 967,-202.356 966.802,-188.473 944,-168 925.102,-151.033 863.233,-138.511 815.171,-131.044"/>
<polygon fill="midnightblue" stroke="midnightblue" points="815.556,-127.562 805.145,-129.527 814.509,-134.483 815.556,-127.562"/>
</g>
<!-- Node38&#45;&gt;Node4 -->
<g id="edge57" class="edge"><title>Node38&#45;&gt;Node4</title>
<path fill="none" stroke="midnightblue" d="M1039.87,-448.292C1043.26,-409.054 1051.56,-247.155 967,-168 945.375,-147.757 870.38,-135.433 815.477,-128.919"/>
<polygon fill="midnightblue" stroke="midnightblue" points="815.811,-125.435 805.476,-127.77 815.011,-132.389 815.811,-125.435"/>
</g>
</g>
</svg>
