<?xml version="1.0" encoding="UTF-8" standalone="no"?>
<!DOCTYPE svg PUBLIC "-//W3C//DTD SVG 1.1//EN"
 "http://www.w3.org/Graphics/SVG/1.1/DTD/svg11.dtd">
<!-- Generated by graphviz version 2.36.0 (20140111.2315)
 -->
<!-- Title: source/main/physics/flex/FlexMesh.cpp Pages: 1 -->
<!--zoomable 488 -->
<svg id="main" version="1.1" xmlns="http://www.w3.org/2000/svg" xmlns:xlink="http://www.w3.org/1999/xlink" xml:space="preserve" onload="init(evt)">
<style type="text/css"><![CDATA[
.edge:hover path { stroke: red; }
.edge:hover polygon { stroke: red; fill: red; }
]]></style>
<script type="text/javascript"><![CDATA[
var edges = document.getElementsByTagName('g');
if (edges && edges.length) {
  for (var i=0;i<edges.length;i++) {
    if (edges[i].id.substr(0,4)=='edge') {
      edges[i].setAttribute('class','edge');
    }
  }
}
]]></script>
        <defs>
                <circle id="rim" cx="0" cy="0" r="7"/>
                <circle id="rim2" cx="0" cy="0" r="3.5"/>
                <g id="zoomPlus">
                        <use xlink:href="#rim" fill="#404040">
                                <set attributeName="fill" to="#808080" begin="zoomplus.mouseover" end="zoomplus.mouseout"/>
                        </use>
                        <path d="M-4,0h8M0,-4v8" fill="none" stroke="white" stroke-width="1.5" pointer-events="none"/>
                </g>
                <g id="zoomMin">
                        <use xlink:href="#rim" fill="#404040">
                                <set attributeName="fill" to="#808080" begin="zoomminus.mouseover" end="zoomminus.mouseout"/>
                        </use>
                        <path d="M-4,0h8" fill="none" stroke="white" stroke-width="1.5" pointer-events="none"/>
                </g>
                <g id="dirArrow">
                        <path fill="none" stroke="white" stroke-width="1.5" d="M0,-3.0v7 M-2.5,-0.5L0,-3.0L2.5,-0.5"/>
                </g>
               <g id="resetDef">
                       <use xlink:href="#rim2" fill="#404040">
                               <set attributeName="fill" to="#808080" begin="reset.mouseover" end="reset.mouseout"/>
                       </use>
               </g>
        </defs>

<script type="text/javascript">
var viewWidth = 1754;
var viewHeight = 488;
var sectionId = 'dynsection-0';
</script>
<script xlink:href="svgpan.js"/>
<svg id="graph" class="graph">
<g id="viewport">
<title>source/main/physics/flex/FlexMesh.cpp</title>
<polygon fill="white" stroke="none" points="-4,4 -4,-484 1750,-484 1750,4 -4,4"/>
<!-- Node1 -->
<g id="node1" class="node"><title>Node1</title>
<polygon fill="#bfbfbf" stroke="black" points="882.5,-449 882.5,-479 989.5,-479 989.5,-449 882.5,-449"/>
<text text-anchor="start" x="890.5" y="-467" font-family="Helvetica,sans-Serif" font-size="10.00">source/main/physics</text>
<text text-anchor="middle" x="936" y="-456" font-family="Helvetica,sans-Serif" font-size="10.00">/flex/FlexMesh.cpp</text>
</g>
<!-- Node2 -->
<g id="node2" class="node"><title>Node2</title>
<g id="a_node2"><a xlink:href="_flex_mesh_8h.html" target="_top" xlink:title="FlexMesh.h">
<polygon fill="white" stroke="black" points="345,-168.5 345,-187.5 413,-187.5 413,-168.5 345,-168.5"/>
<text text-anchor="middle" x="379" y="-175.5" font-family="Helvetica,sans-Serif" font-size="10.00">FlexMesh.h</text>
</a>
</g>
</g>
<!-- Node1&#45;&gt;Node2 -->
<g id="edge1" class="edge"><title>Node1&#45;&gt;Node2</title>
<path fill="none" stroke="midnightblue" d="M882.45,-457.542C779.708,-445.577 565,-412.713 565,-347 565,-347 565,-347 565,-289 565,-223.309 477.981,-196.019 422.984,-185.332"/>
<polygon fill="midnightblue" stroke="midnightblue" points="423.582,-181.883 413.115,-183.524 422.321,-188.769 423.582,-181.883"/>
</g>
<!-- Node26 -->
<g id="node26" class="node"><title>Node26</title>
<polygon fill="white" stroke="#bfbfbf" points="1139,-392.5 1139,-411.5 1185,-411.5 1185,-392.5 1139,-392.5"/>
<text text-anchor="middle" x="1162" y="-399.5" font-family="Helvetica,sans-Serif" font-size="10.00">Ogre.h</text>
</g>
<!-- Node1&#45;&gt;Node26 -->
<g id="edge29" class="edge"><title>Node1&#45;&gt;Node26</title>
<path fill="none" stroke="midnightblue" d="M989.691,-448.934C1028.43,-438.755 1081.97,-424.626 1129,-412 1129.1,-411.973 1129.2,-411.946 1129.3,-411.919"/>
<polygon fill="midnightblue" stroke="midnightblue" points="1130.19,-415.305 1138.93,-409.317 1128.36,-408.548 1130.19,-415.305"/>
</g>
<!-- Node27 -->
<g id="node27" class="node"><title>Node27</title>
<g id="a_node27"><a xlink:href="_approx_math_8h.html" target="_top" xlink:title="ApproxMath.h">
<polygon fill="white" stroke="black" points="770.5,-168.5 770.5,-187.5 847.5,-187.5 847.5,-168.5 770.5,-168.5"/>
<text text-anchor="middle" x="809" y="-175.5" font-family="Helvetica,sans-Serif" font-size="10.00">ApproxMath.h</text>
</a>
</g>
</g>
<!-- Node1&#45;&gt;Node27 -->
<g id="edge30" class="edge"><title>Node1&#45;&gt;Node27</title>
<path fill="none" stroke="midnightblue" d="M890.791,-448.958C847.267,-432.291 788,-399.887 788,-347 788,-347 788,-347 788,-289 788,-256.384 797.018,-219.278 803.235,-197.573"/>
<polygon fill="midnightblue" stroke="midnightblue" points="806.666,-198.315 806.168,-187.732 799.957,-196.316 806.666,-198.315"/>
</g>
<!-- Node28 -->
<g id="node28" class="node"><title>Node28</title>
<g id="a_node28"><a xlink:href="_beam_data_8h.html" target="_top" xlink:title="Core data structures for simulation. ">
<polygon fill="white" stroke="black" points="1049.5,-392.5 1049.5,-411.5 1120.5,-411.5 1120.5,-392.5 1049.5,-392.5"/>
<text text-anchor="middle" x="1085" y="-399.5" font-family="Helvetica,sans-Serif" font-size="10.00">BeamData.h</text>
</a>
</g>
</g>
<!-- Node1&#45;&gt;Node28 -->
<g id="edge32" class="edge"><title>Node1&#45;&gt;Node28</title>
<path fill="none" stroke="midnightblue" d="M970.934,-448.933C996.184,-438.765 1029.98,-425.157 1054.22,-415.396"/>
<polygon fill="midnightblue" stroke="midnightblue" points="1055.67,-418.582 1063.64,-411.6 1053.06,-412.089 1055.67,-418.582"/>
</g>
<!-- Node3 -->
<g id="node3" class="node"><title>Node3</title>
<g id="a_node3"><a xlink:href="_ro_r_prerequisites_8h.html" target="_top" xlink:title="RoRPrerequisites.h">
<polygon fill="white" stroke="black" points="901,-112.5 901,-131.5 1003,-131.5 1003,-112.5 901,-112.5"/>
<text text-anchor="middle" x="952" y="-119.5" font-family="Helvetica,sans-Serif" font-size="10.00">RoRPrerequisites.h</text>
</a>
</g>
</g>
<!-- Node2&#45;&gt;Node3 -->
<g id="edge2" class="edge"><title>Node2&#45;&gt;Node3</title>
<path fill="none" stroke="midnightblue" d="M413.128,-173.784C507.005,-164.937 770.087,-140.144 890.468,-128.799"/>
<polygon fill="midnightblue" stroke="midnightblue" points="890.995,-132.265 900.622,-127.842 890.338,-125.296 890.995,-132.265"/>
</g>
<!-- Node10 -->
<g id="node10" class="node"><title>Node10</title>
<polygon fill="white" stroke="#bfbfbf" points="-0.5,-56.5 -0.5,-75.5 70.5,-75.5 70.5,-56.5 -0.5,-56.5"/>
<text text-anchor="middle" x="35" y="-63.5" font-family="Helvetica,sans-Serif" font-size="10.00">OgreString.h</text>
</g>
<!-- Node2&#45;&gt;Node10 -->
<g id="edge23" class="edge"><title>Node2&#45;&gt;Node10</title>
<path fill="none" stroke="midnightblue" d="M344.618,-175.164C295.741,-171.583 204.1,-161.241 132,-132 101.674,-119.701 71.0224,-97.0657 52.5153,-82.0212"/>
<polygon fill="midnightblue" stroke="midnightblue" points="54.6139,-79.2144 44.6856,-75.5157 50.1404,-84.5984 54.6139,-79.2144"/>
</g>
<!-- Node14 -->
<g id="node14" class="node"><title>Node14</title>
<polygon fill="white" stroke="#bfbfbf" points="89,-56.5 89,-75.5 169,-75.5 169,-56.5 89,-56.5"/>
<text text-anchor="middle" x="129" y="-63.5" font-family="Helvetica,sans-Serif" font-size="10.00">OgreVector3.h</text>
</g>
<!-- Node2&#45;&gt;Node14 -->
<g id="edge25" class="edge"><title>Node2&#45;&gt;Node14</title>
<path fill="none" stroke="midnightblue" d="M344.77,-174.64C287.655,-170.018 176.377,-157.88 148,-132 135.124,-120.258 130.789,-100.323 129.421,-85.6192"/>
<polygon fill="midnightblue" stroke="midnightblue" points="132.915,-85.4053 128.861,-75.6167 125.925,-85.7968 132.915,-85.4053"/>
</g>
<!-- Node21 -->
<g id="node21" class="node"><title>Node21</title>
<g id="a_node21"><a xlink:href="_flexable_8h.html" target="_top" xlink:title="Flexable.h">
<polygon fill="white" stroke="black" points="573,-112.5 573,-131.5 635,-131.5 635,-112.5 573,-112.5"/>
<text text-anchor="middle" x="604" y="-119.5" font-family="Helvetica,sans-Serif" font-size="10.00">Flexable.h</text>
</a>
</g>
</g>
<!-- Node2&#45;&gt;Node21 -->
<g id="edge21" class="edge"><title>Node2&#45;&gt;Node21</title>
<path fill="none" stroke="midnightblue" d="M413.173,-168.799C453.348,-159.156 519.981,-143.165 562.929,-132.857"/>
<polygon fill="midnightblue" stroke="midnightblue" points="563.869,-136.231 572.776,-130.494 562.235,-129.424 563.869,-136.231"/>
</g>
<!-- Node22 -->
<g id="node22" class="node"><title>Node22</title>
<polygon fill="white" stroke="#bfbfbf" points="157.5,-112.5 157.5,-131.5 228.5,-131.5 228.5,-112.5 157.5,-112.5"/>
<text text-anchor="middle" x="193" y="-119.5" font-family="Helvetica,sans-Serif" font-size="10.00">OgreEntity.h</text>
</g>
<!-- Node2&#45;&gt;Node22 -->
<g id="edge24" class="edge"><title>Node2&#45;&gt;Node22</title>
<path fill="none" stroke="midnightblue" d="M349.528,-168.444C317.829,-159.241 267.268,-144.562 232.225,-134.388"/>
<polygon fill="midnightblue" stroke="midnightblue" points="232.914,-130.943 222.334,-131.516 230.962,-137.666 232.914,-130.943"/>
</g>
<!-- Node23 -->
<g id="node23" class="node"><title>Node23</title>
<polygon fill="white" stroke="#bfbfbf" points="247,-112.5 247,-131.5 317,-131.5 317,-112.5 247,-112.5"/>
<text text-anchor="middle" x="282" y="-119.5" font-family="Helvetica,sans-Serif" font-size="10.00">OgreMesh.h</text>
</g>
<!-- Node2&#45;&gt;Node23 -->
<g id="edge26" class="edge"><title>Node2&#45;&gt;Node23</title>
<path fill="none" stroke="midnightblue" d="M363.415,-168.324C348.001,-159.743 324.188,-146.486 306.29,-136.522"/>
<polygon fill="midnightblue" stroke="midnightblue" points="307.986,-133.461 297.546,-131.655 304.581,-139.577 307.986,-133.461"/>
</g>
<!-- Node24 -->
<g id="node24" class="node"><title>Node24</title>
<polygon fill="white" stroke="#bfbfbf" points="335.5,-112.5 335.5,-131.5 422.5,-131.5 422.5,-112.5 335.5,-112.5"/>
<text text-anchor="middle" x="379" y="-119.5" font-family="Helvetica,sans-Serif" font-size="10.00">OgreSubMesh.h</text>
</g>
<!-- Node2&#45;&gt;Node24 -->
<g id="edge27" class="edge"><title>Node2&#45;&gt;Node24</title>
<path fill="none" stroke="midnightblue" d="M379,-168.083C379,-161.006 379,-150.861 379,-141.986"/>
<polygon fill="midnightblue" stroke="midnightblue" points="382.5,-141.751 379,-131.751 375.5,-141.751 382.5,-141.751"/>
</g>
<!-- Node25 -->
<g id="node25" class="node"><title>Node25</title>
<polygon fill="white" stroke="#bfbfbf" points="441,-112.5 441,-131.5 555,-131.5 555,-112.5 441,-112.5"/>
<text text-anchor="middle" x="498" y="-119.5" font-family="Helvetica,sans-Serif" font-size="10.00">OgreHardwareBuffer.h</text>
</g>
<!-- Node2&#45;&gt;Node25 -->
<g id="edge28" class="edge"><title>Node2&#45;&gt;Node25</title>
<path fill="none" stroke="midnightblue" d="M397.856,-168.444C417.266,-159.636 447.73,-145.812 469.965,-135.722"/>
<polygon fill="midnightblue" stroke="midnightblue" points="471.572,-138.836 479.232,-131.516 468.68,-132.462 471.572,-138.836"/>
</g>
<!-- Node4 -->
<g id="node4" class="node"><title>Node4</title>
<polygon fill="white" stroke="#bfbfbf" points="1643.5,-56.5 1643.5,-75.5 1746.5,-75.5 1746.5,-56.5 1643.5,-56.5"/>
<text text-anchor="middle" x="1695" y="-63.5" font-family="Helvetica,sans-Serif" font-size="10.00">OgrePrerequisites.h</text>
</g>
<!-- Node3&#45;&gt;Node4 -->
<g id="edge3" class="edge"><title>Node3&#45;&gt;Node4</title>
<path fill="none" stroke="midnightblue" d="M1003.03,-119.041C1115.07,-114.434 1391.21,-101.421 1633.4,-75.9691"/>
<polygon fill="midnightblue" stroke="midnightblue" points="1633.88,-79.4384 1643.45,-74.9036 1633.14,-72.4774 1633.88,-79.4384"/>
</g>
<!-- Node5 -->
<g id="node5" class="node"><title>Node5</title>
<polygon fill="white" stroke="#bfbfbf" points="832.5,-56.5 832.5,-75.5 947.5,-75.5 947.5,-56.5 832.5,-56.5"/>
<text text-anchor="middle" x="890" y="-63.5" font-family="Helvetica,sans-Serif" font-size="10.00">OgreAxisAlignedBox.h</text>
</g>
<!-- Node3&#45;&gt;Node5 -->
<g id="edge4" class="edge"><title>Node3&#45;&gt;Node5</title>
<path fill="none" stroke="midnightblue" d="M942.039,-112.324C932.873,-104.341 919.063,-92.3128 907.972,-82.6529"/>
<polygon fill="midnightblue" stroke="midnightblue" points="909.982,-79.7624 900.143,-75.8339 905.385,-85.041 909.982,-79.7624"/>
</g>
<!-- Node6 -->
<g id="node6" class="node"><title>Node6</title>
<polygon fill="white" stroke="#bfbfbf" points="965.5,-56.5 965.5,-75.5 1064.5,-75.5 1064.5,-56.5 965.5,-56.5"/>
<text text-anchor="middle" x="1015" y="-63.5" font-family="Helvetica,sans-Serif" font-size="10.00">OgreColourValue.h</text>
</g>
<!-- Node3&#45;&gt;Node6 -->
<g id="edge5" class="edge"><title>Node3&#45;&gt;Node6</title>
<path fill="none" stroke="midnightblue" d="M962.122,-112.324C971.526,-104.263 985.744,-92.0765 997.069,-82.3695"/>
<polygon fill="midnightblue" stroke="midnightblue" points="999.379,-84.9993 1004.69,-75.8339 994.823,-79.6844 999.379,-84.9993"/>
</g>
<!-- Node7 -->
<g id="node7" class="node"><title>Node7</title>
<polygon fill="white" stroke="#bfbfbf" points="1082.5,-56.5 1082.5,-75.5 1185.5,-75.5 1185.5,-56.5 1082.5,-56.5"/>
<text text-anchor="middle" x="1134" y="-63.5" font-family="Helvetica,sans-Serif" font-size="10.00">OgreHeaderPrefix.h</text>
</g>
<!-- Node3&#45;&gt;Node7 -->
<g id="edge6" class="edge"><title>Node3&#45;&gt;Node7</title>
<path fill="none" stroke="midnightblue" d="M980.838,-112.444C1011.86,-103.241 1061.33,-88.5617 1095.62,-78.3879"/>
<polygon fill="midnightblue" stroke="midnightblue" points="1096.71,-81.7164 1105.3,-75.5164 1094.71,-75.0055 1096.71,-81.7164"/>
</g>
<!-- Node8 -->
<g id="node8" class="node"><title>Node8</title>
<polygon fill="white" stroke="#bfbfbf" points="1203.5,-56.5 1203.5,-75.5 1302.5,-75.5 1302.5,-56.5 1203.5,-56.5"/>
<text text-anchor="middle" x="1253" y="-63.5" font-family="Helvetica,sans-Serif" font-size="10.00">OgreLogManager.h</text>
</g>
<!-- Node3&#45;&gt;Node8 -->
<g id="edge7" class="edge"><title>Node3&#45;&gt;Node8</title>
<path fill="none" stroke="midnightblue" d="M999.694,-112.444C1052.86,-102.905 1138.82,-87.4834 1195.63,-77.293"/>
<polygon fill="midnightblue" stroke="midnightblue" points="1196.3,-80.7273 1205.53,-75.5164 1195.07,-73.8373 1196.3,-80.7273"/>
</g>
<!-- Node9 -->
<g id="node9" class="node"><title>Node9</title>
<polygon fill="white" stroke="#bfbfbf" points="1320.5,-56.5 1320.5,-75.5 1413.5,-75.5 1413.5,-56.5 1320.5,-56.5"/>
<text text-anchor="middle" x="1367" y="-63.5" font-family="Helvetica,sans-Serif" font-size="10.00">OgreQuaternion.h</text>
</g>
<!-- Node3&#45;&gt;Node9 -->
<g id="edge8" class="edge"><title>Node3&#45;&gt;Node9</title>
<path fill="none" stroke="midnightblue" d="M1003.2,-115.148C1070.94,-107.279 1194.32,-92.515 1310.16,-76.0762"/>
<polygon fill="midnightblue" stroke="midnightblue" points="1310.86,-79.5116 1320.27,-74.6347 1309.87,-72.5817 1310.86,-79.5116"/>
</g>
<!-- Node3&#45;&gt;Node10 -->
<g id="edge9" class="edge"><title>Node3&#45;&gt;Node10</title>
<path fill="none" stroke="midnightblue" d="M900.873,-119.343C742.31,-114.052 259.35,-96.7556 80.8321,-75.8667"/>
<polygon fill="midnightblue" stroke="midnightblue" points="81.1335,-72.3777 70.7844,-74.6462 80.2894,-79.3266 81.1335,-72.3777"/>
</g>
<!-- Node11 -->
<g id="node11" class="node"><title>Node11</title>
<polygon fill="white" stroke="#bfbfbf" points="1432,-56.5 1432,-75.5 1546,-75.5 1546,-56.5 1432,-56.5"/>
<text text-anchor="middle" x="1489" y="-63.5" font-family="Helvetica,sans-Serif" font-size="10.00">OgreStringConverter.h</text>
</g>
<!-- Node3&#45;&gt;Node11 -->
<g id="edge10" class="edge"><title>Node3&#45;&gt;Node11</title>
<path fill="none" stroke="midnightblue" d="M1003.18,-116.742C1089.61,-109.408 1269.92,-93.488 1422,-76 1422.1,-75.9883 1422.2,-75.9765 1422.31,-75.9647"/>
<polygon fill="midnightblue" stroke="midnightblue" points="1422.48,-79.4685 1432,-74.8072 1421.65,-72.5179 1422.48,-79.4685"/>
</g>
<!-- Node12 -->
<g id="node12" class="node"><title>Node12</title>
<polygon fill="white" stroke="#bfbfbf" points="187.5,-56.5 187.5,-75.5 278.5,-75.5 278.5,-56.5 187.5,-56.5"/>
<text text-anchor="middle" x="233" y="-63.5" font-family="Helvetica,sans-Serif" font-size="10.00">OgreUTFString.h</text>
</g>
<!-- Node3&#45;&gt;Node12 -->
<g id="edge11" class="edge"><title>Node3&#45;&gt;Node12</title>
<path fill="none" stroke="midnightblue" d="M900.614,-119.174C790.459,-114.9 523.259,-102.623 288.66,-75.9558"/>
<polygon fill="midnightblue" stroke="midnightblue" points="288.906,-72.4611 278.572,-74.7977 288.108,-79.4154 288.906,-72.4611"/>
</g>
<!-- Node13 -->
<g id="node13" class="node"><title>Node13</title>
<polygon fill="white" stroke="#bfbfbf" points="297,-56.5 297,-75.5 377,-75.5 377,-56.5 297,-56.5"/>
<text text-anchor="middle" x="337" y="-63.5" font-family="Helvetica,sans-Serif" font-size="10.00">OgreVector2.h</text>
</g>
<!-- Node3&#45;&gt;Node13 -->
<g id="edge12" class="edge"><title>Node3&#45;&gt;Node13</title>
<path fill="none" stroke="midnightblue" d="M900.801,-118.355C801.977,-112.927 578.162,-99.0609 391,-76 389.727,-75.8431 388.437,-75.6777 387.137,-75.5052"/>
<polygon fill="midnightblue" stroke="midnightblue" points="387.444,-72.0135 377.049,-74.0645 386.454,-78.9432 387.444,-72.0135"/>
</g>
<!-- Node3&#45;&gt;Node14 -->
<g id="edge13" class="edge"><title>Node3&#45;&gt;Node14</title>
<path fill="none" stroke="midnightblue" d="M900.936,-118.857C755.032,-112.607 337.214,-93.7827 179.084,-75.9459"/>
<polygon fill="midnightblue" stroke="midnightblue" points="179.389,-72.4577 169.05,-74.7726 178.576,-79.4104 179.389,-72.4577"/>
</g>
<!-- Node15 -->
<g id="node15" class="node"><title>Node15</title>
<g id="a_node15"><a xlink:href="_forward_declarations_8h.html" target="_top" xlink:title="Global forward declarations. ">
<polygon fill="white" stroke="black" points="388.5,-0.5 388.5,-19.5 503.5,-19.5 503.5,-0.5 388.5,-0.5"/>
<text text-anchor="middle" x="446" y="-7.5" font-family="Helvetica,sans-Serif" font-size="10.00">ForwardDeclarations.h</text>
</a>
</g>
</g>
<!-- Node3&#45;&gt;Node15 -->
<g id="edge14" class="edge"><title>Node3&#45;&gt;Node15</title>
<path fill="none" stroke="midnightblue" d="M900.806,-118.494C771.345,-111.909 440.005,-93.4268 424,-76 411.721,-62.6298 421.853,-42.1476 432.068,-27.7566"/>
<polygon fill="midnightblue" stroke="midnightblue" points="434.936,-29.7681 438.239,-19.7013 429.38,-25.511 434.936,-29.7681"/>
</g>
<!-- Node16 -->
<g id="node16" class="node"><title>Node16</title>
<g id="a_node16"><a xlink:href="_global_environment_8h.html" target="_top" xlink:title="GlobalEnvironment.h">
<polygon fill="white" stroke="black" points="433.5,-56.5 433.5,-75.5 540.5,-75.5 540.5,-56.5 433.5,-56.5"/>
<text text-anchor="middle" x="487" y="-63.5" font-family="Helvetica,sans-Serif" font-size="10.00">GlobalEnvironment.h</text>
</a>
</g>
</g>
<!-- Node3&#45;&gt;Node16 -->
<g id="edge15" class="edge"><title>Node3&#45;&gt;Node16</title>
<path fill="none" stroke="midnightblue" d="M900.857,-115.779C826.295,-108.055 683.128,-92.8061 550.535,-76.0325"/>
<polygon fill="midnightblue" stroke="midnightblue" points="550.963,-72.5588 540.601,-74.7704 550.08,-79.503 550.963,-72.5588"/>
</g>
<!-- Node17 -->
<g id="node17" class="node"><title>Node17</title>
<g id="a_node17"><a xlink:href="_zeroed_memory_allocator_8h.html" target="_top" xlink:title="ZeroedMemoryAllocator.h">
<polygon fill="white" stroke="black" points="559,-56.5 559,-75.5 687,-75.5 687,-56.5 559,-56.5"/>
<text text-anchor="middle" x="623" y="-63.5" font-family="Helvetica,sans-Serif" font-size="10.00">ZeroedMemoryAllocator.h</text>
</a>
</g>
</g>
<!-- Node3&#45;&gt;Node17 -->
<g id="edge17" class="edge"><title>Node3&#45;&gt;Node17</title>
<path fill="none" stroke="midnightblue" d="M900.955,-112.622C842.739,-103.067 747.562,-87.4449 685.097,-77.1921"/>
<polygon fill="midnightblue" stroke="midnightblue" points="685.415,-73.6977 674.98,-75.5317 684.281,-80.6053 685.415,-73.6977"/>
</g>
<!-- Node18 -->
<g id="node18" class="node"><title>Node18</title>
<g id="a_node18"><a xlink:href="_bit_flags_8h.html" target="_top" xlink:title="BitFlags.h">
<polygon fill="white" stroke="black" points="1564.5,-56.5 1564.5,-75.5 1625.5,-75.5 1625.5,-56.5 1564.5,-56.5"/>
<text text-anchor="middle" x="1595" y="-63.5" font-family="Helvetica,sans-Serif" font-size="10.00">BitFlags.h</text>
</a>
</g>
</g>
<!-- Node3&#45;&gt;Node18 -->
<g id="edge18" class="edge"><title>Node3&#45;&gt;Node18</title>
<path fill="none" stroke="midnightblue" d="M1003.1,-119.715C1105.76,-116.588 1344.4,-106.564 1554.11,-75.9048"/>
<polygon fill="midnightblue" stroke="midnightblue" points="1554.7,-79.3565 1564.08,-74.4292 1553.67,-72.432 1554.7,-79.3565"/>
</g>
<!-- Node20 -->
<g id="node20" class="node"><title>Node20</title>
<polygon fill="white" stroke="#bfbfbf" points="705.5,-56.5 705.5,-75.5 814.5,-75.5 814.5,-56.5 705.5,-56.5"/>
<text text-anchor="middle" x="760" y="-63.5" font-family="Helvetica,sans-Serif" font-size="10.00">MyGUI_Prerequest.h</text>
</g>
<!-- Node3&#45;&gt;Node20 -->
<g id="edge20" class="edge"><title>Node3&#45;&gt;Node20</title>
<path fill="none" stroke="midnightblue" d="M921.577,-112.444C888.715,-103.201 836.215,-88.4356 800.026,-78.2572"/>
<polygon fill="midnightblue" stroke="midnightblue" points="800.855,-74.8547 790.281,-75.5164 798.96,-81.5932 800.855,-74.8547"/>
</g>
<!-- Node16&#45;&gt;Node15 -->
<g id="edge16" class="edge"><title>Node16&#45;&gt;Node15</title>
<path fill="none" stroke="midnightblue" d="M480.23,-56.083C474.438,-48.4554 465.942,-37.2645 458.862,-27.9408"/>
<polygon fill="midnightblue" stroke="midnightblue" points="461.479,-25.5991 452.644,-19.7511 455.904,-29.8321 461.479,-25.5991"/>
</g>
<!-- Node19 -->
<g id="node19" class="node"><title>Node19</title>
<polygon fill="white" stroke="#bfbfbf" points="1572,-0.5 1572,-19.5 1618,-19.5 1618,-0.5 1572,-0.5"/>
<text text-anchor="middle" x="1595" y="-7.5" font-family="Helvetica,sans-Serif" font-size="10.00">cstdint</text>
</g>
<!-- Node18&#45;&gt;Node19 -->
<g id="edge19" class="edge"><title>Node18&#45;&gt;Node19</title>
<path fill="none" stroke="midnightblue" d="M1595,-56.083C1595,-49.0059 1595,-38.8611 1595,-29.9865"/>
<polygon fill="midnightblue" stroke="midnightblue" points="1598.5,-29.751 1595,-19.7511 1591.5,-29.7511 1598.5,-29.751"/>
</g>
<!-- Node21&#45;&gt;Node14 -->
<g id="edge22" class="edge"><title>Node21&#45;&gt;Node14</title>
<path fill="none" stroke="midnightblue" d="M572.631,-113.542C569.722,-112.972 566.812,-112.446 564,-112 397.064,-85.5471 350.443,-99.0471 179.181,-76.0395"/>
<polygon fill="midnightblue" stroke="midnightblue" points="179.446,-72.5433 169.065,-74.6577 178.499,-79.4789 179.446,-72.5433"/>
</g>
<!-- Node27&#45;&gt;Node3 -->
<g id="edge31" class="edge"><title>Node27&#45;&gt;Node3</title>
<path fill="none" stroke="midnightblue" d="M831.659,-168.444C855.402,-159.478 892.909,-145.314 919.738,-135.183"/>
<polygon fill="midnightblue" stroke="midnightblue" points="921.329,-138.324 929.447,-131.516 918.856,-131.775 921.329,-138.324"/>
</g>
<!-- Node28&#45;&gt;Node3 -->
<g id="edge33" class="edge"><title>Node28&#45;&gt;Node3</title>
<path fill="none" stroke="midnightblue" d="M1049.15,-394.566C999.01,-383.267 914,-354.716 914,-291 914,-291 914,-291 914,-233 914,-198.813 930.6,-161.764 941.857,-140.571"/>
<polygon fill="midnightblue" stroke="midnightblue" points="944.947,-142.215 946.716,-131.769 938.819,-138.832 944.947,-142.215"/>
</g>
<!-- Node29 -->
<g id="node29" class="node"><title>Node29</title>
<g id="a_node29"><a xlink:href="_ro_rnet_8h.html" target="_top" xlink:title="RoRnet.h">
<polygon fill="white" stroke="black" points="1385.5,-336.5 1385.5,-355.5 1444.5,-355.5 1444.5,-336.5 1385.5,-336.5"/>
<text text-anchor="middle" x="1415" y="-343.5" font-family="Helvetica,sans-Serif" font-size="10.00">RoRnet.h</text>
</a>
</g>
</g>
<!-- Node28&#45;&gt;Node29 -->
<g id="edge34" class="edge"><title>Node28&#45;&gt;Node29</title>
<path fill="none" stroke="midnightblue" d="M1120.84,-393.696C1123.93,-393.106 1127.02,-392.533 1130,-392 1217.32,-376.381 1320.21,-360.838 1375.34,-352.739"/>
<polygon fill="midnightblue" stroke="midnightblue" points="1376.01,-356.18 1385.39,-351.268 1374.99,-349.254 1376.01,-356.18"/>
</g>
<!-- Node31 -->
<g id="node31" class="node"><title>Node31</title>
<g id="a_node31"><a xlink:href="_slide_node_8h.html" target="_top" xlink:title="SlideNode.h">
<polygon fill="white" stroke="black" points="816,-224.5 816,-243.5 886,-243.5 886,-224.5 816,-224.5"/>
<text text-anchor="middle" x="851" y="-231.5" font-family="Helvetica,sans-Serif" font-size="10.00">SlideNode.h</text>
</a>
</g>
</g>
<!-- Node28&#45;&gt;Node31 -->
<g id="edge37" class="edge"><title>Node28&#45;&gt;Node31</title>
<path fill="none" stroke="midnightblue" d="M1049.35,-401.57C1008.57,-400.333 942.029,-392.295 900,-356 869.081,-329.3 857.41,-280.212 853.21,-253.5"/>
<polygon fill="midnightblue" stroke="midnightblue" points="856.672,-252.978 851.834,-243.552 849.738,-253.938 856.672,-252.978"/>
</g>
<!-- Node32 -->
<g id="node32" class="node"><title>Node32</title>
<g id="a_node32"><a xlink:href="_beam_constants_8h.html" target="_top" xlink:title="BeamConstants.h">
<polygon fill="white" stroke="black" points="1092.5,-336.5 1092.5,-355.5 1187.5,-355.5 1187.5,-336.5 1092.5,-336.5"/>
<text text-anchor="middle" x="1140" y="-343.5" font-family="Helvetica,sans-Serif" font-size="10.00">BeamConstants.h</text>
</a>
</g>
</g>
<!-- Node28&#45;&gt;Node32 -->
<g id="edge41" class="edge"><title>Node28&#45;&gt;Node32</title>
<path fill="none" stroke="midnightblue" d="M1094.08,-392.083C1102.17,-384.141 1114.2,-372.335 1123.91,-362.797"/>
<polygon fill="midnightblue" stroke="midnightblue" points="1126.4,-365.254 1131.09,-355.751 1121.5,-360.26 1126.4,-365.254"/>
</g>
<!-- Node33 -->
<g id="node33" class="node"><title>Node33</title>
<g id="a_node33"><a xlink:href="node__t_8h.html" target="_top" xlink:title="datatypes/node_t.h">
<polygon fill="white" stroke="black" points="1457,-168.5 1457,-187.5 1557,-187.5 1557,-168.5 1457,-168.5"/>
<text text-anchor="middle" x="1507" y="-175.5" font-family="Helvetica,sans-Serif" font-size="10.00">datatypes/node_t.h</text>
</a>
</g>
</g>
<!-- Node28&#45;&gt;Node33 -->
<g id="edge42" class="edge"><title>Node28&#45;&gt;Node33</title>
<path fill="none" stroke="midnightblue" d="M1120.81,-393.548C1123.91,-392.99 1127.01,-392.465 1130,-392 1272.73,-369.815 1325.32,-423.543 1453,-356 1481.98,-340.672 1488.87,-330.453 1501,-300 1514.57,-265.926 1512.44,-222.128 1509.7,-197.665"/>
<polygon fill="midnightblue" stroke="midnightblue" points="1513.15,-197.086 1508.41,-187.612 1506.21,-197.975 1513.15,-197.086"/>
</g>
<!-- Node34 -->
<g id="node34" class="node"><title>Node34</title>
<g id="a_node34"><a xlink:href="shock__t_8h.html" target="_top" xlink:title="datatypes/shock_t.h">
<polygon fill="white" stroke="black" points="1205.5,-336.5 1205.5,-355.5 1310.5,-355.5 1310.5,-336.5 1205.5,-336.5"/>
<text text-anchor="middle" x="1258" y="-343.5" font-family="Helvetica,sans-Serif" font-size="10.00">datatypes/shock_t.h</text>
</a>
</g>
</g>
<!-- Node28&#45;&gt;Node34 -->
<g id="edge45" class="edge"><title>Node28&#45;&gt;Node34</title>
<path fill="none" stroke="midnightblue" d="M1112.41,-392.444C1141.77,-383.28 1188.52,-368.688 1221.1,-358.519"/>
<polygon fill="midnightblue" stroke="midnightblue" points="1222.21,-361.837 1230.72,-355.516 1220.13,-355.155 1222.21,-361.837"/>
</g>
<!-- Node35 -->
<g id="node35" class="node"><title>Node35</title>
<g id="a_node35"><a xlink:href="beam__t_8h.html" target="_top" xlink:title="datatypes/beam_t.h">
<polygon fill="white" stroke="black" points="1575.5,-168.5 1575.5,-187.5 1678.5,-187.5 1678.5,-168.5 1575.5,-168.5"/>
<text text-anchor="middle" x="1627" y="-175.5" font-family="Helvetica,sans-Serif" font-size="10.00">datatypes/beam_t.h</text>
</a>
</g>
</g>
<!-- Node28&#45;&gt;Node35 -->
<g id="edge46" class="edge"><title>Node28&#45;&gt;Node35</title>
<path fill="none" stroke="midnightblue" d="M1120.81,-393.52C1123.91,-392.969 1127.01,-392.452 1130,-392 1207.31,-380.32 1411.02,-392.805 1480,-356 1549.58,-318.876 1599.27,-233.733 1618.37,-196.722"/>
<polygon fill="midnightblue" stroke="midnightblue" points="1621.57,-198.146 1622.93,-187.639 1615.31,-195.002 1621.57,-198.146"/>
</g>
<!-- Node36 -->
<g id="node36" class="node"><title>Node36</title>
<g id="a_node36"><a xlink:href="wheel__t_8h.html" target="_top" xlink:title="datatypes/wheel_t.h">
<polygon fill="white" stroke="black" points="1245,-168.5 1245,-187.5 1349,-187.5 1349,-168.5 1245,-168.5"/>
<text text-anchor="middle" x="1297" y="-175.5" font-family="Helvetica,sans-Serif" font-size="10.00">datatypes/wheel_t.h</text>
</a>
</g>
</g>
<!-- Node28&#45;&gt;Node36 -->
<g id="edge49" class="edge"><title>Node28&#45;&gt;Node36</title>
<path fill="none" stroke="midnightblue" d="M1120.86,-393.798C1123.95,-393.186 1127.03,-392.58 1130,-392 1171.96,-383.807 1291.74,-388.94 1319,-356 1357.45,-309.533 1324.66,-231.314 1306.77,-196.557"/>
<polygon fill="midnightblue" stroke="midnightblue" points="1309.79,-194.78 1301.99,-187.607 1303.62,-198.077 1309.79,-194.78"/>
</g>
<!-- Node37 -->
<g id="node37" class="node"><title>Node37</title>
<g id="a_node37"><a xlink:href="rig__t_8h.html" target="_top" xlink:title="datatypes/rig_t.h">
<polygon fill="white" stroke="black" points="985.5,-336.5 985.5,-355.5 1074.5,-355.5 1074.5,-336.5 985.5,-336.5"/>
<text text-anchor="middle" x="1030" y="-343.5" font-family="Helvetica,sans-Serif" font-size="10.00">datatypes/rig_t.h</text>
</a>
</g>
</g>
<!-- Node28&#45;&gt;Node37 -->
<g id="edge52" class="edge"><title>Node28&#45;&gt;Node37</title>
<path fill="none" stroke="midnightblue" d="M1071.05,-392.324C1061.48,-384.576 1049.32,-373.017 1040.54,-363.511"/>
<polygon fill="midnightblue" stroke="midnightblue" points="1043.06,-361.072 1033.85,-355.834 1037.78,-365.672 1043.06,-361.072"/>
</g>
<!-- Node29&#45;&gt;Node18 -->
<g id="edge35" class="edge"><title>Node29&#45;&gt;Node18</title>
<path fill="none" stroke="midnightblue" d="M1415,-336.442C1415,-317.936 1415,-272.812 1415,-235 1415,-235 1415,-235 1415,-177 1415,-142.766 1511,-99.8691 1562.78,-79.2191"/>
<polygon fill="midnightblue" stroke="midnightblue" points="1564.18,-82.4298 1572.2,-75.5119 1561.62,-75.9157 1564.18,-82.4298"/>
</g>
<!-- Node30 -->
<g id="node30" class="node"><title>Node30</title>
<polygon fill="white" stroke="#bfbfbf" points="1443.5,-280.5 1443.5,-299.5 1492.5,-299.5 1492.5,-280.5 1443.5,-280.5"/>
<text text-anchor="middle" x="1468" y="-287.5" font-family="Helvetica,sans-Serif" font-size="10.00">stdint.h</text>
</g>
<!-- Node29&#45;&gt;Node30 -->
<g id="edge36" class="edge"><title>Node29&#45;&gt;Node30</title>
<path fill="none" stroke="midnightblue" d="M1423.75,-336.083C1431.47,-328.22 1442.9,-316.569 1452.22,-307.081"/>
<polygon fill="midnightblue" stroke="midnightblue" points="1454.9,-309.34 1459.41,-299.751 1449.91,-304.436 1454.9,-309.34"/>
</g>
<!-- Node31&#45;&gt;Node3 -->
<g id="edge39" class="edge"><title>Node31&#45;&gt;Node3</title>
<path fill="none" stroke="midnightblue" d="M856.799,-224.129C865.461,-211.169 882.629,-186.583 900,-168 910.064,-157.234 922.512,-146.388 932.706,-138.042"/>
<polygon fill="midnightblue" stroke="midnightblue" points="935.029,-140.666 940.636,-131.676 930.647,-135.207 935.029,-140.666"/>
</g>
<!-- Node31&#45;&gt;Node14 -->
<g id="edge40" class="edge"><title>Node31&#45;&gt;Node14</title>
<path fill="none" stroke="midnightblue" d="M832.422,-224.437C814.007,-215.78 785.133,-201.751 761,-188 706.8,-157.117 702.121,-131.903 643,-112 449.618,-46.8986 385.552,-101.012 179.002,-75.9629"/>
<polygon fill="midnightblue" stroke="midnightblue" points="179.417,-72.4875 169.058,-74.7094 178.541,-79.4326 179.417,-72.4875"/>
</g>
<!-- Node31&#45;&gt;Node27 -->
<g id="edge38" class="edge"><title>Node31&#45;&gt;Node27</title>
<path fill="none" stroke="midnightblue" d="M844.065,-224.083C838.071,-216.377 829.248,-205.033 821.952,-195.653"/>
<polygon fill="midnightblue" stroke="midnightblue" points="824.709,-193.496 815.806,-187.751 819.183,-197.793 824.709,-193.496"/>
</g>
<!-- Node33&#45;&gt;Node3 -->
<g id="edge44" class="edge"><title>Node33&#45;&gt;Node3</title>
<path fill="none" stroke="midnightblue" d="M1456.77,-172.113C1354.82,-162.193 1123.94,-139.729 1013.32,-128.967"/>
<polygon fill="midnightblue" stroke="midnightblue" points="1013.61,-125.479 1003.32,-127.994 1012.94,-132.446 1013.61,-125.479"/>
</g>
<!-- Node33&#45;&gt;Node4 -->
<g id="edge43" class="edge"><title>Node33&#45;&gt;Node4</title>
<path fill="none" stroke="midnightblue" d="M1521.75,-168.368C1554.29,-149.332 1632.42,-103.615 1671.67,-80.6505"/>
<polygon fill="midnightblue" stroke="midnightblue" points="1673.45,-83.6625 1680.32,-75.5914 1669.92,-77.6207 1673.45,-83.6625"/>
</g>
<!-- Node35&#45;&gt;Node3 -->
<g id="edge48" class="edge"><title>Node35&#45;&gt;Node3</title>
<path fill="none" stroke="midnightblue" d="M1575.45,-169.123C1572.26,-168.719 1569.09,-168.34 1566,-168 1364.28,-145.757 1124.02,-131.754 1013.36,-126.004"/>
<polygon fill="midnightblue" stroke="midnightblue" points="1013.23,-122.493 1003.06,-125.473 1012.87,-129.483 1013.23,-122.493"/>
</g>
<!-- Node35&#45;&gt;Node4 -->
<g id="edge47" class="edge"><title>Node35&#45;&gt;Node4</title>
<path fill="none" stroke="midnightblue" d="M1632.34,-168.368C1643.51,-150.296 1669.55,-108.176 1684.3,-84.3074"/>
<polygon fill="midnightblue" stroke="midnightblue" points="1687.41,-85.9378 1689.69,-75.5914 1681.45,-82.257 1687.41,-85.9378"/>
</g>
<!-- Node36&#45;&gt;Node3 -->
<g id="edge50" class="edge"><title>Node36&#45;&gt;Node3</title>
<path fill="none" stroke="midnightblue" d="M1244.98,-168.857C1182.88,-159.138 1079.2,-142.909 1013.28,-132.592"/>
<polygon fill="midnightblue" stroke="midnightblue" points="1013.46,-129.077 1003.04,-130.989 1012.38,-135.993 1013.46,-129.077"/>
</g>
<!-- Node36&#45;&gt;Node4 -->
<g id="edge51" class="edge"><title>Node36&#45;&gt;Node4</title>
<path fill="none" stroke="midnightblue" d="M1302.75,-168.49C1312.98,-154.112 1335.84,-125.285 1363,-112 1469.27,-60.021 1511.44,-91.1223 1633.34,-75.9963"/>
<polygon fill="midnightblue" stroke="midnightblue" points="1633.97,-79.4439 1643.42,-74.6631 1633.05,-72.5043 1633.97,-79.4439"/>
</g>
<!-- Node37&#45;&gt;Node3 -->
<g id="edge59" class="edge"><title>Node37&#45;&gt;Node3</title>
<path fill="none" stroke="midnightblue" d="M1043.06,-336.436C1053.91,-328.471 1068.57,-315.515 1075,-300 1088.04,-268.522 1138.41,-261.933 1071,-168 1057.43,-149.093 1034.87,-138.126 1013.02,-131.767"/>
<polygon fill="midnightblue" stroke="midnightblue" points="1013.63,-128.308 1003.07,-129.157 1011.86,-135.079 1013.63,-128.308"/>
</g>
<!-- Node37&#45;&gt;Node4 -->
<g id="edge62" class="edge"><title>Node37&#45;&gt;Node4</title>
<path fill="none" stroke="midnightblue" d="M1070.48,-336.495C1162.02,-316.705 1377,-266.836 1377,-235 1377,-235 1377,-235 1377,-177 1377,-148.523 1561.48,-99.6117 1649.42,-77.9143"/>
<polygon fill="midnightblue" stroke="midnightblue" points="1650.26,-81.3114 1659.14,-75.5297 1648.59,-74.513 1650.26,-81.3114"/>
</g>
<!-- Node37&#45;&gt;Node28 -->
<g id="edge60" class="edge"><title>Node37&#45;&gt;Node28</title>
<path fill="none" stroke="midnightblue" d="M1044.04,-355.751C1053.58,-363.483 1065.66,-374.967 1074.41,-384.431"/>
<polygon fill="midnightblue" stroke="midnightblue" points="1071.87,-386.851 1081.08,-392.083 1077.14,-382.248 1071.87,-386.851"/>
</g>
<!-- Node38 -->
<g id="node38" class="node"><title>Node38</title>
<g id="a_node38"><a xlink:href="_application_8h.html" target="_top" xlink:title="Central state/object manager and communications hub. ">
<polygon fill="white" stroke="black" points="993.5,-280.5 993.5,-299.5 1066.5,-299.5 1066.5,-280.5 993.5,-280.5"/>
<text text-anchor="middle" x="1030" y="-287.5" font-family="Helvetica,sans-Serif" font-size="10.00">Application.h</text>
</a>
</g>
</g>
<!-- Node37&#45;&gt;Node38 -->
<g id="edge53" class="edge"><title>Node37&#45;&gt;Node38</title>
<path fill="none" stroke="midnightblue" d="M1030,-336.083C1030,-329.006 1030,-318.861 1030,-309.986"/>
<polygon fill="midnightblue" stroke="midnightblue" points="1033.5,-309.751 1030,-299.751 1026.5,-309.751 1033.5,-309.751"/>
</g>
<!-- Node41 -->
<g id="node41" class="node"><title>Node41</title>
<polygon fill="white" stroke="#bfbfbf" points="1140,-280.5 1140,-299.5 1184,-299.5 1184,-280.5 1140,-280.5"/>
<text text-anchor="middle" x="1162" y="-287.5" font-family="Helvetica,sans-Serif" font-size="10.00">vector</text>
</g>
<!-- Node37&#45;&gt;Node41 -->
<g id="edge61" class="edge"><title>Node37&#45;&gt;Node41</title>
<path fill="none" stroke="midnightblue" d="M1050.92,-336.444C1072.74,-327.517 1107.15,-313.439 1131.89,-303.317"/>
<polygon fill="midnightblue" stroke="midnightblue" points="1133.25,-306.542 1141.18,-299.516 1130.6,-300.063 1133.25,-306.542"/>
</g>
<!-- Node38&#45;&gt;Node3 -->
<g id="edge54" class="edge"><title>Node38&#45;&gt;Node3</title>
<path fill="none" stroke="midnightblue" d="M1035.71,-280.272C1048.74,-259.165 1077.74,-204.421 1054,-168 1043.52,-151.925 1025.86,-141.551 1008.15,-134.874"/>
<polygon fill="midnightblue" stroke="midnightblue" points="1008.95,-131.448 998.357,-131.533 1006.69,-138.074 1008.95,-131.448"/>
</g>
<!-- Node39 -->
<g id="node39" class="node"><title>Node39</title>
<g id="a_node39"><a xlink:href="_settings_8h.html" target="_top" xlink:title="Settings.h">
<polygon fill="white" stroke="black" points="982.5,-224.5 982.5,-243.5 1043.5,-243.5 1043.5,-224.5 982.5,-224.5"/>
<text text-anchor="middle" x="1013" y="-231.5" font-family="Helvetica,sans-Serif" font-size="10.00">Settings.h</text>
</a>
</g>
</g>
<!-- Node38&#45;&gt;Node39 -->
<g id="edge55" class="edge"><title>Node38&#45;&gt;Node39</title>
<path fill="none" stroke="midnightblue" d="M1027.19,-280.083C1024.92,-272.849 1021.63,-262.409 1018.79,-253.397"/>
<polygon fill="midnightblue" stroke="midnightblue" points="1022.1,-252.239 1015.75,-243.751 1015.42,-254.341 1022.1,-252.239"/>
</g>
<!-- Node39&#45;&gt;Node3 -->
<g id="edge56" class="edge"><title>Node39&#45;&gt;Node3</title>
<path fill="none" stroke="midnightblue" d="M1002.86,-224.32C993.611,-215.897 980.174,-202.319 972,-188 963.769,-173.581 958.546,-155.389 955.51,-141.921"/>
<polygon fill="midnightblue" stroke="midnightblue" points="958.893,-140.998 953.456,-131.905 952.036,-142.404 958.893,-140.998"/>
</g>
<!-- Node40 -->
<g id="node40" class="node"><title>Node40</title>
<g id="a_node40"><a xlink:href="_singleton_8h.html" target="_top" xlink:title="Singleton.h">
<polygon fill="white" stroke="black" points="980.5,-168.5 980.5,-187.5 1045.5,-187.5 1045.5,-168.5 980.5,-168.5"/>
<text text-anchor="middle" x="1013" y="-175.5" font-family="Helvetica,sans-Serif" font-size="10.00">Singleton.h</text>
</a>
</g>
</g>
<!-- Node39&#45;&gt;Node40 -->
<g id="edge57" class="edge"><title>Node39&#45;&gt;Node40</title>
<path fill="none" stroke="midnightblue" d="M1013,-224.083C1013,-217.006 1013,-206.861 1013,-197.986"/>
<polygon fill="midnightblue" stroke="midnightblue" points="1016.5,-197.751 1013,-187.751 1009.5,-197.751 1016.5,-197.751"/>
</g>
<!-- Node40&#45;&gt;Node3 -->
<g id="edge58" class="edge"><title>Node40&#45;&gt;Node3</title>
<path fill="none" stroke="midnightblue" d="M1003.2,-168.324C994.182,-160.341 980.594,-148.313 969.682,-138.653"/>
<polygon fill="midnightblue" stroke="midnightblue" points="971.787,-135.842 961.979,-131.834 967.147,-141.083 971.787,-135.842"/>
</g>
</g>
</svg>
        <g id="navigator" transform="translate(0 0)" fill="#404254">
                <rect fill="#f2f5e9" fill-opacity="0.5" stroke="#606060" stroke-width=".5" x="0" y="0" width="60" height="60"/>
                <use id="zoomplus" xlink:href="#zoomPlus" x="17" y="9" onmousedown="handleZoom(evt,'in')"/>
                <use id="zoomminus" xlink:href="#zoomMin" x="42" y="9" onmousedown="handleZoom(evt,'out')"/>
                <use id="reset" xlink:href="#resetDef" x="30" y="36" onmousedown="handleReset()"/>
                <g id="arrowUp" xlink:href="#dirArrow" transform="translate(30 24)" onmousedown="handlePan(0,-1)">
                  <use xlink:href="#rim" fill="#404040">
                        <set attributeName="fill" to="#808080" begin="arrowUp.mouseover" end="arrowUp.mouseout"/>
                  </use>
                  <path fill="none" stroke="white" stroke-width="1.5" d="M0,-3.0v7 M-2.5,-0.5L0,-3.0L2.5,-0.5"/>
                </g>
                <g id="arrowRight" xlink:href="#dirArrow" transform="rotate(90) translate(36 -43)" onmousedown="handlePan(1,0)">
                  <use xlink:href="#rim" fill="#404040">
                        <set attributeName="fill" to="#808080" begin="arrowRight.mouseover" end="arrowRight.mouseout"/>
                  </use>
                  <path fill="none" stroke="white" stroke-width="1.5" d="M0,-3.0v7 M-2.5,-0.5L0,-3.0L2.5,-0.5"/>
                </g>
                <g id="arrowDown" xlink:href="#dirArrow" transform="rotate(180) translate(-30 -48)" onmousedown="handlePan(0,1)">
                  <use xlink:href="#rim" fill="#404040">
                        <set attributeName="fill" to="#808080" begin="arrowDown.mouseover" end="arrowDown.mouseout"/>
                  </use>
                  <path fill="none" stroke="white" stroke-width="1.5" d="M0,-3.0v7 M-2.5,-0.5L0,-3.0L2.5,-0.5"/>
                </g>
                <g id="arrowLeft" xlink:href="#dirArrow" transform="rotate(270) translate(-36 17)" onmousedown="handlePan(-1,0)">
                  <use xlink:href="#rim" fill="#404040">
                        <set attributeName="fill" to="#808080" begin="arrowLeft.mouseover" end="arrowLeft.mouseout"/>
                  </use>
                  <path fill="none" stroke="white" stroke-width="1.5" d="M0,-3.0v7 M-2.5,-0.5L0,-3.0L2.5,-0.5"/>
                </g>
        </g>
        <svg viewBox="0 0 15 15" width="100%" height="30px" preserveAspectRatio="xMaxYMin meet">
         <g id="arrow_out" transform="scale(0.3 0.3)">
          <a xlink:href="_flex_mesh_8cpp__incl_org.svg" target="_base">
           <rect id="button" ry="5" rx="5" y="6" x="6" height="38" width="38"
                fill="#f2f5e9" fill-opacity="0.5" stroke="#606060" stroke-width="1.0"/>
           <path id="arrow"
             d="M 11.500037,31.436501 C 11.940474,20.09759 22.043105,11.32322 32.158766,21.979434 L 37.068811,17.246167 C 37.068811,17.246167 37.088388,32 37.088388,32 L 22.160133,31.978069 C 22.160133,31.978069 26.997745,27.140456 26.997745,27.140456 C 18.528582,18.264221 13.291696,25.230495 11.500037,31.436501 z"
             style="fill:#404040;"/>
          </a>
         </g>
        </svg>
</svg>
