<?xml version="1.0" encoding="UTF-8" standalone="no"?>
<!DOCTYPE svg PUBLIC "-//W3C//DTD SVG 1.1//EN"
 "http://www.w3.org/Graphics/SVG/1.1/DTD/svg11.dtd">
<!-- Generated by graphviz version 2.36.0 (20140111.2315)
 -->
<!-- Title: source/main/gui/panels/GUI_RigSpawnerReportWindow.cpp Pages: 1 -->
<!--zoomable 500 -->
<svg id="main" version="1.1" xmlns="http://www.w3.org/2000/svg" xmlns:xlink="http://www.w3.org/1999/xlink" xml:space="preserve" onload="init(evt)">
<style type="text/css"><![CDATA[
.edge:hover path { stroke: red; }
.edge:hover polygon { stroke: red; fill: red; }
]]></style>
<script type="text/javascript"><![CDATA[
var edges = document.getElementsByTagName('g');
if (edges && edges.length) {
  for (var i=0;i<edges.length;i++) {
    if (edges[i].id.substr(0,4)=='edge') {
      edges[i].setAttribute('class','edge');
    }
  }
}
]]></script>
        <defs>
                <circle id="rim" cx="0" cy="0" r="7"/>
                <circle id="rim2" cx="0" cy="0" r="3.5"/>
                <g id="zoomPlus">
                        <use xlink:href="#rim" fill="#404040">
                                <set attributeName="fill" to="#808080" begin="zoomplus.mouseover" end="zoomplus.mouseout"/>
                        </use>
                        <path d="M-4,0h8M0,-4v8" fill="none" stroke="white" stroke-width="1.5" pointer-events="none"/>
                </g>
                <g id="zoomMin">
                        <use xlink:href="#rim" fill="#404040">
                                <set attributeName="fill" to="#808080" begin="zoomminus.mouseover" end="zoomminus.mouseout"/>
                        </use>
                        <path d="M-4,0h8" fill="none" stroke="white" stroke-width="1.5" pointer-events="none"/>
                </g>
                <g id="dirArrow">
                        <path fill="none" stroke="white" stroke-width="1.5" d="M0,-3.0v7 M-2.5,-0.5L0,-3.0L2.5,-0.5"/>
                </g>
               <g id="resetDef">
                       <use xlink:href="#rim2" fill="#404040">
                               <set attributeName="fill" to="#808080" begin="reset.mouseover" end="reset.mouseout"/>
                       </use>
               </g>
        </defs>

<script type="text/javascript">
var viewWidth = 1820;
var viewHeight = 500;
var sectionId = 'dynsection-0';
</script>
<script xlink:href="svgpan.js"/>
<svg id="graph" class="graph">
<g id="viewport">
<title>source/main/gui/panels/GUI_RigSpawnerReportWindow.cpp</title>
<polygon fill="white" stroke="none" points="-4,4 -4,-496 1816,-496 1816,4 -4,4"/>
<!-- Node1 -->
<g id="node1" class="node"><title>Node1</title>
<polygon fill="#bfbfbf" stroke="black" points="328.5,-461 328.5,-491 507.5,-491 507.5,-461 328.5,-461"/>
<text text-anchor="start" x="336.5" y="-479" font-family="Helvetica,sans-Serif" font-size="10.00">source/main/gui/panels</text>
<text text-anchor="middle" x="418" y="-468" font-family="Helvetica,sans-Serif" font-size="10.00">/GUI_RigSpawnerReportWindow.cpp</text>
</g>
<!-- Node2 -->
<g id="node2" class="node"><title>Node2</title>
<g id="a_node2"><a xlink:href="_g_u_i___rig_spawner_report_window_8h.html" target="_top" xlink:title="GUI_RigSpawnerReportWindow.h">
<polygon fill="white" stroke="black" points="335,-404.5 335,-423.5 501,-423.5 501,-404.5 335,-404.5"/>
<text text-anchor="middle" x="418" y="-411.5" font-family="Helvetica,sans-Serif" font-size="10.00">GUI_RigSpawnerReportWindow.h</text>
</a>
</g>
</g>
<!-- Node1&#45;&gt;Node2 -->
<g id="edge1" class="edge"><title>Node1&#45;&gt;Node2</title>
<path fill="none" stroke="midnightblue" d="M418,-460.781C418,-452.781 418,-442.689 418,-434.017"/>
<polygon fill="midnightblue" stroke="midnightblue" points="421.5,-433.73 418,-423.731 414.5,-433.731 421.5,-433.73"/>
</g>
<!-- Node3 -->
<g id="node3" class="node"><title>Node3</title>
<g id="a_node3"><a xlink:href="_forward_declarations_8h.html" target="_top" xlink:title="Global forward declarations. ">
<polygon fill="white" stroke="black" points="-0.5,-0.5 -0.5,-19.5 114.5,-19.5 114.5,-0.5 -0.5,-0.5"/>
<text text-anchor="middle" x="57" y="-7.5" font-family="Helvetica,sans-Serif" font-size="10.00">ForwardDeclarations.h</text>
</a>
</g>
</g>
<!-- Node2&#45;&gt;Node3 -->
<g id="edge2" class="edge"><title>Node2&#45;&gt;Node3</title>
<path fill="none" stroke="midnightblue" d="M334.917,-405.717C213.015,-392.702 0,-360.077 0,-291 0,-291 0,-291 0,-121 0,-84.3005 25.321,-47.6567 42.2099,-27.2973"/>
<polygon fill="midnightblue" stroke="midnightblue" points="44.9535,-29.475 48.8333,-19.6161 39.6522,-24.9037 44.9535,-29.475"/>
</g>
<!-- Node4 -->
<g id="node4" class="node"><title>Node4</title>
<g id="a_node4"><a xlink:href="_g_u_i___rig_spawner_report_window_layout_8h.html" target="_top" xlink:title="GUI_RigSpawnerReportWindow\lLayout.h">
<polygon fill="white" stroke="black" points="339,-337 339,-367 497,-367 497,-337 339,-337"/>
<text text-anchor="start" x="347" y="-355" font-family="Helvetica,sans-Serif" font-size="10.00">GUI_RigSpawnerReportWindow</text>
<text text-anchor="middle" x="418" y="-344" font-family="Helvetica,sans-Serif" font-size="10.00">Layout.h</text>
</a>
</g>
</g>
<!-- Node2&#45;&gt;Node4 -->
<g id="edge3" class="edge"><title>Node2&#45;&gt;Node4</title>
<path fill="none" stroke="midnightblue" d="M418,-404.403C418,-397.341 418,-386.975 418,-377.399"/>
<polygon fill="midnightblue" stroke="midnightblue" points="421.5,-377.141 418,-367.141 414.5,-377.141 421.5,-377.141"/>
</g>
<!-- Node26 -->
<g id="node26" class="node"><title>Node26</title>
<g id="a_node26"><a xlink:href="_gui_panel_base_8h.html" target="_top" xlink:title="GuiPanelBase.h">
<polygon fill="white" stroke="black" points="953.5,-342.5 953.5,-361.5 1040.5,-361.5 1040.5,-342.5 953.5,-342.5"/>
<text text-anchor="middle" x="997" y="-349.5" font-family="Helvetica,sans-Serif" font-size="10.00">GuiPanelBase.h</text>
</a>
</g>
</g>
<!-- Node2&#45;&gt;Node26 -->
<g id="edge31" class="edge"><title>Node2&#45;&gt;Node26</title>
<path fill="none" stroke="midnightblue" d="M500.035,-404.499C620.377,-392.028 841.482,-369.116 943.204,-358.575"/>
<polygon fill="midnightblue" stroke="midnightblue" points="943.667,-362.046 953.253,-357.533 942.946,-355.083 943.667,-362.046"/>
</g>
<!-- Node4&#45;&gt;Node3 -->
<g id="edge4" class="edge"><title>Node4&#45;&gt;Node3</title>
<path fill="none" stroke="midnightblue" d="M338.802,-342.983C227.435,-329.476 38,-297.339 38,-235 38,-235 38,-235 38,-121 38,-88.4885 46.159,-51.3503 51.7838,-29.6103"/>
<polygon fill="midnightblue" stroke="midnightblue" points="55.218,-30.3175 54.4376,-19.7514 48.4586,-28.498 55.218,-30.3175"/>
</g>
<!-- Node5 -->
<g id="node5" class="node"><title>Node5</title>
<g id="a_node5"><a xlink:href="_base_layout_8h.html" target="_top" xlink:title="BaseLayout.h">
<polygon fill="white" stroke="black" points="690.5,-280.5 690.5,-299.5 767.5,-299.5 767.5,-280.5 690.5,-280.5"/>
<text text-anchor="middle" x="729" y="-287.5" font-family="Helvetica,sans-Serif" font-size="10.00">BaseLayout.h</text>
</a>
</g>
</g>
<!-- Node4&#45;&gt;Node5 -->
<g id="edge5" class="edge"><title>Node4&#45;&gt;Node5</title>
<path fill="none" stroke="midnightblue" d="M490.916,-336.933C549.199,-325.688 629.288,-310.237 680.1,-300.434"/>
<polygon fill="midnightblue" stroke="midnightblue" points="681.012,-303.823 690.168,-298.492 679.686,-296.949 681.012,-303.823"/>
</g>
<!-- Node6 -->
<g id="node6" class="node"><title>Node6</title>
<g id="a_node6"><a xlink:href="_ro_r_prerequisites_8h.html" target="_top" xlink:title="RoRPrerequisites.h">
<polygon fill="white" stroke="black" points="809,-112.5 809,-131.5 911,-131.5 911,-112.5 809,-112.5"/>
<text text-anchor="middle" x="860" y="-119.5" font-family="Helvetica,sans-Serif" font-size="10.00">RoRPrerequisites.h</text>
</a>
</g>
</g>
<!-- Node5&#45;&gt;Node6 -->
<g id="edge6" class="edge"><title>Node5&#45;&gt;Node6</title>
<path fill="none" stroke="midnightblue" d="M725.806,-280.365C718.503,-258.995 703.06,-202.851 728,-168 744.242,-145.303 772.621,-133.922 798.913,-128.269"/>
<polygon fill="midnightblue" stroke="midnightblue" points="799.692,-131.683 808.859,-126.371 798.38,-124.807 799.692,-131.683"/>
</g>
<!-- Node23 -->
<g id="node23" class="node"><title>Node23</title>
<polygon fill="white" stroke="#bfbfbf" points="737,-168.5 737,-187.5 793,-187.5 793,-168.5 737,-168.5"/>
<text text-anchor="middle" x="765" y="-175.5" font-family="Helvetica,sans-Serif" font-size="10.00">MyGUI.h</text>
</g>
<!-- Node5&#45;&gt;Node23 -->
<g id="edge25" class="edge"><title>Node5&#45;&gt;Node23</title>
<path fill="none" stroke="midnightblue" d="M731.825,-280.368C737.661,-262.537 751.158,-221.295 759.02,-197.272"/>
<polygon fill="midnightblue" stroke="midnightblue" points="762.404,-198.184 762.188,-187.591 755.751,-196.007 762.404,-198.184"/>
</g>
<!-- Node24 -->
<g id="node24" class="node"><title>Node24</title>
<g id="a_node24"><a xlink:href="_wraps_attribute_8h.html" target="_top" xlink:title="WrapsAttribute.h">
<polygon fill="white" stroke="black" points="776,-224.5 776,-243.5 866,-243.5 866,-224.5 776,-224.5"/>
<text text-anchor="middle" x="821" y="-231.5" font-family="Helvetica,sans-Serif" font-size="10.00">WrapsAttribute.h</text>
</a>
</g>
</g>
<!-- Node5&#45;&gt;Node24 -->
<g id="edge26" class="edge"><title>Node5&#45;&gt;Node24</title>
<path fill="none" stroke="midnightblue" d="M743.781,-280.324C758.267,-271.822 780.573,-258.729 797.493,-248.797"/>
<polygon fill="midnightblue" stroke="midnightblue" points="799.403,-251.735 806.255,-243.655 795.859,-245.698 799.403,-251.735"/>
</g>
<!-- Node6&#45;&gt;Node3 -->
<g id="edge18" class="edge"><title>Node6&#45;&gt;Node3</title>
<path fill="none" stroke="midnightblue" d="M808.752,-120.761C647.178,-119.628 155.529,-113.132 95,-76 78.144,-65.6595 67.9398,-44.8414 62.412,-29.5401"/>
<polygon fill="midnightblue" stroke="midnightblue" points="65.6024,-28.0324 59.1852,-19.6021 58.9446,-30.1942 65.6024,-28.0324"/>
</g>
<!-- Node7 -->
<g id="node7" class="node"><title>Node7</title>
<polygon fill="white" stroke="#bfbfbf" points="104.5,-56.5 104.5,-75.5 207.5,-75.5 207.5,-56.5 104.5,-56.5"/>
<text text-anchor="middle" x="156" y="-63.5" font-family="Helvetica,sans-Serif" font-size="10.00">OgrePrerequisites.h</text>
</g>
<!-- Node6&#45;&gt;Node7 -->
<g id="edge7" class="edge"><title>Node6&#45;&gt;Node7</title>
<path fill="none" stroke="midnightblue" d="M808.952,-118.808C701.461,-113.895 443.729,-100.55 217.734,-76.114"/>
<polygon fill="midnightblue" stroke="midnightblue" points="217.997,-72.622 207.677,-75.0168 217.238,-79.5807 217.997,-72.622"/>
</g>
<!-- Node8 -->
<g id="node8" class="node"><title>Node8</title>
<polygon fill="white" stroke="#bfbfbf" points="225.5,-56.5 225.5,-75.5 340.5,-75.5 340.5,-56.5 225.5,-56.5"/>
<text text-anchor="middle" x="283" y="-63.5" font-family="Helvetica,sans-Serif" font-size="10.00">OgreAxisAlignedBox.h</text>
</g>
<!-- Node6&#45;&gt;Node8 -->
<g id="edge8" class="edge"><title>Node6&#45;&gt;Node8</title>
<path fill="none" stroke="midnightblue" d="M808.786,-117.303C718.414,-110.601 524.504,-95.4261 350.673,-76.143"/>
<polygon fill="midnightblue" stroke="midnightblue" points="350.899,-72.6467 340.573,-75.0154 350.123,-79.6034 350.899,-72.6467"/>
</g>
<!-- Node9 -->
<g id="node9" class="node"><title>Node9</title>
<polygon fill="white" stroke="#bfbfbf" points="358.5,-56.5 358.5,-75.5 457.5,-75.5 457.5,-56.5 358.5,-56.5"/>
<text text-anchor="middle" x="408" y="-63.5" font-family="Helvetica,sans-Serif" font-size="10.00">OgreColourValue.h</text>
</g>
<!-- Node6&#45;&gt;Node9 -->
<g id="edge9" class="edge"><title>Node6&#45;&gt;Node9</title>
<path fill="none" stroke="midnightblue" d="M808.916,-115.829C735.62,-108.263 596.13,-93.3194 467.671,-76.1832"/>
<polygon fill="midnightblue" stroke="midnightblue" points="468.032,-72.7003 457.655,-74.8395 467.101,-79.6381 468.032,-72.7003"/>
</g>
<!-- Node10 -->
<g id="node10" class="node"><title>Node10</title>
<polygon fill="white" stroke="#bfbfbf" points="475.5,-56.5 475.5,-75.5 578.5,-75.5 578.5,-56.5 475.5,-56.5"/>
<text text-anchor="middle" x="527" y="-63.5" font-family="Helvetica,sans-Serif" font-size="10.00">OgreHeaderPrefix.h</text>
</g>
<!-- Node6&#45;&gt;Node10 -->
<g id="edge10" class="edge"><title>Node6&#45;&gt;Node10</title>
<path fill="none" stroke="midnightblue" d="M808.699,-112.681C749.508,-103.082 652.22,-87.3059 588.884,-77.0352"/>
<polygon fill="midnightblue" stroke="midnightblue" points="589.065,-73.519 578.634,-75.3731 587.945,-80.4287 589.065,-73.519"/>
</g>
<!-- Node11 -->
<g id="node11" class="node"><title>Node11</title>
<polygon fill="white" stroke="#bfbfbf" points="596.5,-56.5 596.5,-75.5 695.5,-75.5 695.5,-56.5 596.5,-56.5"/>
<text text-anchor="middle" x="646" y="-63.5" font-family="Helvetica,sans-Serif" font-size="10.00">OgreLogManager.h</text>
</g>
<!-- Node6&#45;&gt;Node11 -->
<g id="edge11" class="edge"><title>Node6&#45;&gt;Node11</title>
<path fill="none" stroke="midnightblue" d="M826.091,-112.444C789.151,-103.122 729.946,-88.1828 689.582,-77.9972"/>
<polygon fill="midnightblue" stroke="midnightblue" points="690.303,-74.5695 679.75,-75.5164 688.59,-81.3568 690.303,-74.5695"/>
</g>
<!-- Node12 -->
<g id="node12" class="node"><title>Node12</title>
<polygon fill="white" stroke="#bfbfbf" points="713.5,-56.5 713.5,-75.5 806.5,-75.5 806.5,-56.5 713.5,-56.5"/>
<text text-anchor="middle" x="760" y="-63.5" font-family="Helvetica,sans-Serif" font-size="10.00">OgreQuaternion.h</text>
</g>
<!-- Node6&#45;&gt;Node12 -->
<g id="edge12" class="edge"><title>Node6&#45;&gt;Node12</title>
<path fill="none" stroke="midnightblue" d="M843.933,-112.324C828.042,-103.743 803.493,-90.486 785.042,-80.5224"/>
<polygon fill="midnightblue" stroke="midnightblue" points="786.489,-77.3264 776.027,-75.6545 783.163,-83.4857 786.489,-77.3264"/>
</g>
<!-- Node13 -->
<g id="node13" class="node"><title>Node13</title>
<polygon fill="white" stroke="#bfbfbf" points="824.5,-56.5 824.5,-75.5 895.5,-75.5 895.5,-56.5 824.5,-56.5"/>
<text text-anchor="middle" x="860" y="-63.5" font-family="Helvetica,sans-Serif" font-size="10.00">OgreString.h</text>
</g>
<!-- Node6&#45;&gt;Node13 -->
<g id="edge13" class="edge"><title>Node6&#45;&gt;Node13</title>
<path fill="none" stroke="midnightblue" d="M860,-112.083C860,-105.006 860,-94.8611 860,-85.9865"/>
<polygon fill="midnightblue" stroke="midnightblue" points="863.5,-85.751 860,-75.7511 856.5,-85.7511 863.5,-85.751"/>
</g>
<!-- Node14 -->
<g id="node14" class="node"><title>Node14</title>
<polygon fill="white" stroke="#bfbfbf" points="914,-56.5 914,-75.5 1028,-75.5 1028,-56.5 914,-56.5"/>
<text text-anchor="middle" x="971" y="-63.5" font-family="Helvetica,sans-Serif" font-size="10.00">OgreStringConverter.h</text>
</g>
<!-- Node6&#45;&gt;Node14 -->
<g id="edge14" class="edge"><title>Node6&#45;&gt;Node14</title>
<path fill="none" stroke="midnightblue" d="M877.834,-112.324C895.716,-103.625 923.475,-90.1202 944.046,-80.113"/>
<polygon fill="midnightblue" stroke="midnightblue" points="945.749,-83.1765 953.21,-75.6545 942.687,-76.8819 945.749,-83.1765"/>
</g>
<!-- Node15 -->
<g id="node15" class="node"><title>Node15</title>
<polygon fill="white" stroke="#bfbfbf" points="1046.5,-56.5 1046.5,-75.5 1137.5,-75.5 1137.5,-56.5 1046.5,-56.5"/>
<text text-anchor="middle" x="1092" y="-63.5" font-family="Helvetica,sans-Serif" font-size="10.00">OgreUTFString.h</text>
</g>
<!-- Node6&#45;&gt;Node15 -->
<g id="edge15" class="edge"><title>Node6&#45;&gt;Node15</title>
<path fill="none" stroke="midnightblue" d="M896.761,-112.444C937.063,-103.063 1001.81,-87.9926 1045.58,-77.8036"/>
<polygon fill="midnightblue" stroke="midnightblue" points="1046.46,-81.1924 1055.41,-75.5164 1044.88,-74.3746 1046.46,-81.1924"/>
</g>
<!-- Node16 -->
<g id="node16" class="node"><title>Node16</title>
<polygon fill="white" stroke="#bfbfbf" points="1156,-56.5 1156,-75.5 1236,-75.5 1236,-56.5 1156,-56.5"/>
<text text-anchor="middle" x="1196" y="-63.5" font-family="Helvetica,sans-Serif" font-size="10.00">OgreVector2.h</text>
</g>
<!-- Node6&#45;&gt;Node16 -->
<g id="edge16" class="edge"><title>Node6&#45;&gt;Node16</title>
<path fill="none" stroke="midnightblue" d="M911.202,-113.291C968.472,-104.588 1063.97,-89.834 1146,-76 1146.1,-75.983 1146.2,-75.9661 1146.3,-75.949"/>
<polygon fill="midnightblue" stroke="midnightblue" points="1146.63,-79.4433 1155.9,-74.2988 1145.45,-72.5446 1146.63,-79.4433"/>
</g>
<!-- Node17 -->
<g id="node17" class="node"><title>Node17</title>
<polygon fill="white" stroke="#bfbfbf" points="1254,-56.5 1254,-75.5 1334,-75.5 1334,-56.5 1254,-56.5"/>
<text text-anchor="middle" x="1294" y="-63.5" font-family="Helvetica,sans-Serif" font-size="10.00">OgreVector3.h</text>
</g>
<!-- Node6&#45;&gt;Node17 -->
<g id="edge17" class="edge"><title>Node6&#45;&gt;Node17</title>
<path fill="none" stroke="midnightblue" d="M911.322,-115.423C996.784,-106.068 1165.78,-87.2676 1243.57,-76.1038"/>
<polygon fill="midnightblue" stroke="midnightblue" points="1244.54,-79.499 1253.92,-74.581 1243.52,-72.5735 1244.54,-79.499"/>
</g>
<!-- Node18 -->
<g id="node18" class="node"><title>Node18</title>
<g id="a_node18"><a xlink:href="_global_environment_8h.html" target="_top" xlink:title="GlobalEnvironment.h">
<polygon fill="white" stroke="black" points="1352.5,-56.5 1352.5,-75.5 1459.5,-75.5 1459.5,-56.5 1352.5,-56.5"/>
<text text-anchor="middle" x="1406" y="-63.5" font-family="Helvetica,sans-Serif" font-size="10.00">GlobalEnvironment.h</text>
</a>
</g>
</g>
<!-- Node6&#45;&gt;Node18 -->
<g id="edge19" class="edge"><title>Node6&#45;&gt;Node18</title>
<path fill="none" stroke="midnightblue" d="M911.07,-115.39C921.936,-114.235 933.345,-113.051 944,-112 1117.99,-94.831 1164.47,-96.5284 1342.45,-76.0046"/>
<polygon fill="midnightblue" stroke="midnightblue" points="1342.88,-79.4784 1352.41,-74.849 1342.07,-72.5251 1342.88,-79.4784"/>
</g>
<!-- Node19 -->
<g id="node19" class="node"><title>Node19</title>
<g id="a_node19"><a xlink:href="_zeroed_memory_allocator_8h.html" target="_top" xlink:title="ZeroedMemoryAllocator.h">
<polygon fill="white" stroke="black" points="1478,-56.5 1478,-75.5 1606,-75.5 1606,-56.5 1478,-56.5"/>
<text text-anchor="middle" x="1542" y="-63.5" font-family="Helvetica,sans-Serif" font-size="10.00">ZeroedMemoryAllocator.h</text>
</a>
</g>
</g>
<!-- Node6&#45;&gt;Node19 -->
<g id="edge21" class="edge"><title>Node6&#45;&gt;Node19</title>
<path fill="none" stroke="midnightblue" d="M911.054,-115.215C921.921,-114.072 933.334,-112.937 944,-112 1173.25,-91.8513 1233.9,-97.9196 1467.67,-75.9742"/>
<polygon fill="midnightblue" stroke="midnightblue" points="1468.22,-79.4374 1477.85,-75.0111 1467.56,-72.4685 1468.22,-79.4374"/>
</g>
<!-- Node20 -->
<g id="node20" class="node"><title>Node20</title>
<g id="a_node20"><a xlink:href="_bit_flags_8h.html" target="_top" xlink:title="BitFlags.h">
<polygon fill="white" stroke="black" points="1624.5,-56.5 1624.5,-75.5 1685.5,-75.5 1685.5,-56.5 1624.5,-56.5"/>
<text text-anchor="middle" x="1655" y="-63.5" font-family="Helvetica,sans-Serif" font-size="10.00">BitFlags.h</text>
</a>
</g>
</g>
<!-- Node6&#45;&gt;Node20 -->
<g id="edge22" class="edge"><title>Node6&#45;&gt;Node20</title>
<path fill="none" stroke="midnightblue" d="M911.043,-115.093C921.911,-113.958 933.328,-112.857 944,-112 1238.35,-88.352 1317.4,-116.281 1613.9,-75.8967"/>
<polygon fill="midnightblue" stroke="midnightblue" points="1614.66,-79.3253 1624.08,-74.494 1613.7,-72.3907 1614.66,-79.3253"/>
</g>
<!-- Node22 -->
<g id="node22" class="node"><title>Node22</title>
<polygon fill="white" stroke="#bfbfbf" points="1703.5,-56.5 1703.5,-75.5 1812.5,-75.5 1812.5,-56.5 1703.5,-56.5"/>
<text text-anchor="middle" x="1758" y="-63.5" font-family="Helvetica,sans-Serif" font-size="10.00">MyGUI_Prerequest.h</text>
</g>
<!-- Node6&#45;&gt;Node22 -->
<g id="edge24" class="edge"><title>Node6&#45;&gt;Node22</title>
<path fill="none" stroke="midnightblue" d="M911.04,-115.046C921.908,-113.915 933.325,-112.827 944,-112 1273.31,-86.4773 1359.98,-106.842 1692.8,-76.0141"/>
<polygon fill="midnightblue" stroke="midnightblue" points="1693.6,-79.4553 1703.23,-75.0394 1692.94,-72.4857 1693.6,-79.4553"/>
</g>
<!-- Node18&#45;&gt;Node3 -->
<g id="edge20" class="edge"><title>Node18&#45;&gt;Node3</title>
<path fill="none" stroke="midnightblue" d="M1352.43,-56.9496C1349.24,-56.5944 1346.08,-56.2732 1343,-56 878.672,-14.8286 316.91,-10.8772 125.027,-10.8237"/>
<polygon fill="midnightblue" stroke="midnightblue" points="124.814,-7.32358 114.815,-10.8245 124.815,-14.3236 124.814,-7.32358"/>
</g>
<!-- Node21 -->
<g id="node21" class="node"><title>Node21</title>
<polygon fill="white" stroke="#bfbfbf" points="1632,-0.5 1632,-19.5 1678,-19.5 1678,-0.5 1632,-0.5"/>
<text text-anchor="middle" x="1655" y="-7.5" font-family="Helvetica,sans-Serif" font-size="10.00">cstdint</text>
</g>
<!-- Node20&#45;&gt;Node21 -->
<g id="edge23" class="edge"><title>Node20&#45;&gt;Node21</title>
<path fill="none" stroke="midnightblue" d="M1655,-56.083C1655,-49.0059 1655,-38.8611 1655,-29.9865"/>
<polygon fill="midnightblue" stroke="midnightblue" points="1658.5,-29.751 1655,-19.7511 1651.5,-29.7511 1658.5,-29.751"/>
</g>
<!-- Node24&#45;&gt;Node6 -->
<g id="edge27" class="edge"><title>Node24&#45;&gt;Node6</title>
<path fill="none" stroke="midnightblue" d="M823.104,-224.469C826.283,-211.933 832.717,-187.87 840,-168 843.31,-158.969 847.573,-149.185 851.312,-141.054"/>
<polygon fill="midnightblue" stroke="midnightblue" points="854.567,-142.358 855.658,-131.82 848.233,-139.378 854.567,-142.358"/>
</g>
<!-- Node24&#45;&gt;Node23 -->
<g id="edge28" class="edge"><title>Node24&#45;&gt;Node23</title>
<path fill="none" stroke="midnightblue" d="M812.003,-224.324C803.806,-216.42 791.494,-204.548 781.528,-194.938"/>
<polygon fill="midnightblue" stroke="midnightblue" points="783.789,-192.256 774.161,-187.834 778.93,-197.295 783.789,-192.256"/>
</g>
<!-- Node25 -->
<g id="node25" class="node"><title>Node25</title>
<g id="a_node25"><a xlink:href="_attribute_8h.html" target="_top" xlink:title="Attribute.h">
<polygon fill="white" stroke="black" points="849,-168.5 849,-187.5 911,-187.5 911,-168.5 849,-168.5"/>
<text text-anchor="middle" x="880" y="-175.5" font-family="Helvetica,sans-Serif" font-size="10.00">Attribute.h</text>
</a>
</g>
</g>
<!-- Node24&#45;&gt;Node25 -->
<g id="edge29" class="edge"><title>Node24&#45;&gt;Node25</title>
<path fill="none" stroke="midnightblue" d="M830.479,-224.324C839.201,-216.341 852.343,-204.313 862.898,-194.653"/>
<polygon fill="midnightblue" stroke="midnightblue" points="865.334,-197.167 870.348,-187.834 860.608,-192.004 865.334,-197.167"/>
</g>
<!-- Node25&#45;&gt;Node6 -->
<g id="edge30" class="edge"><title>Node25&#45;&gt;Node6</title>
<path fill="none" stroke="midnightblue" d="M876.697,-168.083C874.018,-160.849 870.151,-150.409 866.814,-141.397"/>
<polygon fill="midnightblue" stroke="midnightblue" points="869.996,-139.913 863.241,-131.751 863.432,-142.344 869.996,-139.913"/>
</g>
<!-- Node26&#45;&gt;Node22 -->
<g id="edge33" class="edge"><title>Node26&#45;&gt;Node22</title>
<path fill="none" stroke="midnightblue" d="M991.901,-342.313C981.33,-323.454 958,-277.068 958,-235 958,-235 958,-235 958,-177 958,-97.0353 1571.99,-87.8757 1693.05,-75.8911"/>
<polygon fill="midnightblue" stroke="midnightblue" points="1693.66,-79.3444 1703.19,-74.72 1692.85,-72.3906 1693.66,-79.3444"/>
</g>
<!-- Node27 -->
<g id="node27" class="node"><title>Node27</title>
<polygon fill="white" stroke="#bfbfbf" points="986.5,-280.5 986.5,-299.5 1087.5,-299.5 1087.5,-280.5 986.5,-280.5"/>
<text text-anchor="middle" x="1037" y="-287.5" font-family="Helvetica,sans-Serif" font-size="10.00">MyGUI_Common.h</text>
</g>
<!-- Node26&#45;&gt;Node27 -->
<g id="edge32" class="edge"><title>Node26&#45;&gt;Node27</title>
<path fill="none" stroke="midnightblue" d="M1002.73,-342.403C1008.67,-333.493 1018.12,-319.325 1025.59,-308.118"/>
<polygon fill="midnightblue" stroke="midnightblue" points="1028.64,-309.843 1031.28,-299.581 1022.82,-305.96 1028.64,-309.843"/>
</g>
<!-- Node28 -->
<g id="node28" class="node"><title>Node28</title>
<polygon fill="white" stroke="#bfbfbf" points="1105.5,-280.5 1105.5,-299.5 1202.5,-299.5 1202.5,-280.5 1105.5,-280.5"/>
<text text-anchor="middle" x="1154" y="-287.5" font-family="Helvetica,sans-Serif" font-size="10.00">MyGUI_Window.h</text>
</g>
<!-- Node26&#45;&gt;Node28 -->
<g id="edge34" class="edge"><title>Node26&#45;&gt;Node28</title>
<path fill="none" stroke="midnightblue" d="M1019.49,-342.403C1046.31,-332.156 1091.32,-314.956 1121.81,-303.302"/>
<polygon fill="midnightblue" stroke="midnightblue" points="1123.46,-306.42 1131.55,-299.581 1120.96,-299.881 1123.46,-306.42"/>
</g>
</g>
</svg>
        <g id="navigator" transform="translate(0 0)" fill="#404254">
                <rect fill="#f2f5e9" fill-opacity="0.5" stroke="#606060" stroke-width=".5" x="0" y="0" width="60" height="60"/>
                <use id="zoomplus" xlink:href="#zoomPlus" x="17" y="9" onmousedown="handleZoom(evt,'in')"/>
                <use id="zoomminus" xlink:href="#zoomMin" x="42" y="9" onmousedown="handleZoom(evt,'out')"/>
                <use id="reset" xlink:href="#resetDef" x="30" y="36" onmousedown="handleReset()"/>
                <g id="arrowUp" xlink:href="#dirArrow" transform="translate(30 24)" onmousedown="handlePan(0,-1)">
                  <use xlink:href="#rim" fill="#404040">
                        <set attributeName="fill" to="#808080" begin="arrowUp.mouseover" end="arrowUp.mouseout"/>
                  </use>
                  <path fill="none" stroke="white" stroke-width="1.5" d="M0,-3.0v7 M-2.5,-0.5L0,-3.0L2.5,-0.5"/>
                </g>
                <g id="arrowRight" xlink:href="#dirArrow" transform="rotate(90) translate(36 -43)" onmousedown="handlePan(1,0)">
                  <use xlink:href="#rim" fill="#404040">
                        <set attributeName="fill" to="#808080" begin="arrowRight.mouseover" end="arrowRight.mouseout"/>
                  </use>
                  <path fill="none" stroke="white" stroke-width="1.5" d="M0,-3.0v7 M-2.5,-0.5L0,-3.0L2.5,-0.5"/>
                </g>
                <g id="arrowDown" xlink:href="#dirArrow" transform="rotate(180) translate(-30 -48)" onmousedown="handlePan(0,1)">
                  <use xlink:href="#rim" fill="#404040">
                        <set attributeName="fill" to="#808080" begin="arrowDown.mouseover" end="arrowDown.mouseout"/>
                  </use>
                  <path fill="none" stroke="white" stroke-width="1.5" d="M0,-3.0v7 M-2.5,-0.5L0,-3.0L2.5,-0.5"/>
                </g>
                <g id="arrowLeft" xlink:href="#dirArrow" transform="rotate(270) translate(-36 17)" onmousedown="handlePan(-1,0)">
                  <use xlink:href="#rim" fill="#404040">
                        <set attributeName="fill" to="#808080" begin="arrowLeft.mouseover" end="arrowLeft.mouseout"/>
                  </use>
                  <path fill="none" stroke="white" stroke-width="1.5" d="M0,-3.0v7 M-2.5,-0.5L0,-3.0L2.5,-0.5"/>
                </g>
        </g>
        <svg viewBox="0 0 15 15" width="100%" height="30px" preserveAspectRatio="xMaxYMin meet">
         <g id="arrow_out" transform="scale(0.3 0.3)">
          <a xlink:href="_g_u_i___rig_spawner_report_window_8cpp__incl_org.svg" target="_base">
           <rect id="button" ry="5" rx="5" y="6" x="6" height="38" width="38"
                fill="#f2f5e9" fill-opacity="0.5" stroke="#606060" stroke-width="1.0"/>
           <path id="arrow"
             d="M 11.500037,31.436501 C 11.940474,20.09759 22.043105,11.32322 32.158766,21.979434 L 37.068811,17.246167 C 37.068811,17.246167 37.088388,32 37.088388,32 L 22.160133,31.978069 C 22.160133,31.978069 26.997745,27.140456 26.997745,27.140456 C 18.528582,18.264221 13.291696,25.230495 11.500037,31.436501 z"
             style="fill:#404040;"/>
          </a>
         </g>
        </svg>
</svg>
