<?xml version="1.0" encoding="UTF-8" standalone="no"?>
<!DOCTYPE svg PUBLIC "-//W3C//DTD SVG 1.1//EN"
 "http://www.w3.org/Graphics/SVG/1.1/DTD/svg11.dtd">
<!-- Generated by graphviz version 2.36.0 (20140111.2315)
 -->
<!-- Title: source/main/gui/panels/GUI_DebugOptions.cpp Pages: 1 -->
<!--zoomable 488 -->
<svg id="main" version="1.1" xmlns="http://www.w3.org/2000/svg" xmlns:xlink="http://www.w3.org/1999/xlink" xml:space="preserve" onload="init(evt)">
<style type="text/css"><![CDATA[
.edge:hover path { stroke: red; }
.edge:hover polygon { stroke: red; fill: red; }
]]></style>
<script type="text/javascript"><![CDATA[
var edges = document.getElementsByTagName('g');
if (edges && edges.length) {
  for (var i=0;i<edges.length;i++) {
    if (edges[i].id.substr(0,4)=='edge') {
      edges[i].setAttribute('class','edge');
    }
  }
}
]]></script>
        <defs>
                <circle id="rim" cx="0" cy="0" r="7"/>
                <circle id="rim2" cx="0" cy="0" r="3.5"/>
                <g id="zoomPlus">
                        <use xlink:href="#rim" fill="#404040">
                                <set attributeName="fill" to="#808080" begin="zoomplus.mouseover" end="zoomplus.mouseout"/>
                        </use>
                        <path d="M-4,0h8M0,-4v8" fill="none" stroke="white" stroke-width="1.5" pointer-events="none"/>
                </g>
                <g id="zoomMin">
                        <use xlink:href="#rim" fill="#404040">
                                <set attributeName="fill" to="#808080" begin="zoomminus.mouseover" end="zoomminus.mouseout"/>
                        </use>
                        <path d="M-4,0h8" fill="none" stroke="white" stroke-width="1.5" pointer-events="none"/>
                </g>
                <g id="dirArrow">
                        <path fill="none" stroke="white" stroke-width="1.5" d="M0,-3.0v7 M-2.5,-0.5L0,-3.0L2.5,-0.5"/>
                </g>
               <g id="resetDef">
                       <use xlink:href="#rim2" fill="#404040">
                               <set attributeName="fill" to="#808080" begin="reset.mouseover" end="reset.mouseout"/>
                       </use>
               </g>
        </defs>

<script type="text/javascript">
var viewWidth = 1885;
var viewHeight = 488;
var sectionId = 'dynsection-0';
</script>
<script xlink:href="svgpan.js"/>
<svg id="graph" class="graph">
<g id="viewport">
<title>source/main/gui/panels/GUI_DebugOptions.cpp</title>
<polygon fill="white" stroke="none" points="-4,4 -4,-484 1881,-484 1881,4 -4,4"/>
<!-- Node1 -->
<g id="node1" class="node"><title>Node1</title>
<polygon fill="#bfbfbf" stroke="black" points="1078,-449 1078,-479 1202,-479 1202,-449 1078,-449"/>
<text text-anchor="start" x="1086" y="-467" font-family="Helvetica,sans-Serif" font-size="10.00">source/main/gui/panels</text>
<text text-anchor="middle" x="1140" y="-456" font-family="Helvetica,sans-Serif" font-size="10.00">/GUI_DebugOptions.cpp</text>
</g>
<!-- Node2 -->
<g id="node2" class="node"><title>Node2</title>
<g id="a_node2"><a xlink:href="_g_u_i___debug_options_8h.html" target="_top" xlink:title="GUI_DebugOptions.h">
<polygon fill="white" stroke="black" points="325,-392.5 325,-411.5 435,-411.5 435,-392.5 325,-392.5"/>
<text text-anchor="middle" x="380" y="-399.5" font-family="Helvetica,sans-Serif" font-size="10.00">GUI_DebugOptions.h</text>
</a>
</g>
</g>
<!-- Node1&#45;&gt;Node2 -->
<g id="edge1" class="edge"><title>Node1&#45;&gt;Node2</title>
<path fill="none" stroke="midnightblue" d="M1077.81,-458.09C936.036,-446.898 590.028,-419.581 445.314,-408.156"/>
<polygon fill="midnightblue" stroke="midnightblue" points="445.492,-404.66 435.248,-407.362 444.941,-411.638 445.492,-404.66"/>
</g>
<!-- Node6 -->
<g id="node6" class="node"><title>Node6</title>
<g id="a_node6"><a xlink:href="_ro_r_prerequisites_8h.html" target="_top" xlink:title="RoRPrerequisites.h">
<polygon fill="white" stroke="black" points="960,-112.5 960,-131.5 1062,-131.5 1062,-112.5 960,-112.5"/>
<text text-anchor="middle" x="1011" y="-119.5" font-family="Helvetica,sans-Serif" font-size="10.00">RoRPrerequisites.h</text>
</a>
</g>
</g>
<!-- Node1&#45;&gt;Node6 -->
<g id="edge37" class="edge"><title>Node1&#45;&gt;Node6</title>
<path fill="none" stroke="midnightblue" d="M1077.94,-454.276C981.85,-439.002 808,-403.553 808,-347 808,-347 808,-347 808,-233 808,-202.902 805.249,-188.803 827,-168 844.602,-151.165 903.441,-138.745 949.9,-131.269"/>
<polygon fill="midnightblue" stroke="midnightblue" points="950.568,-134.707 959.906,-129.703 949.485,-127.791 950.568,-134.707"/>
</g>
<!-- Node23 -->
<g id="node23" class="node"><title>Node23</title>
<polygon fill="white" stroke="#bfbfbf" points="724,-168.5 724,-187.5 780,-187.5 780,-168.5 724,-168.5"/>
<text text-anchor="middle" x="752" y="-175.5" font-family="Helvetica,sans-Serif" font-size="10.00">MyGUI.h</text>
</g>
<!-- Node1&#45;&gt;Node23 -->
<g id="edge62" class="edge"><title>Node1&#45;&gt;Node23</title>
<path fill="none" stroke="midnightblue" d="M1077.72,-460.971C990.359,-456.951 837.271,-445.251 794,-412 769.058,-392.834 766,-378.455 766,-347 766,-347 766,-347 766,-289 766,-256.541 759.927,-219.121 755.781,-197.356"/>
<polygon fill="midnightblue" stroke="midnightblue" points="759.207,-196.64 753.83,-187.511 752.34,-198 759.207,-196.64"/>
</g>
<!-- Node26 -->
<g id="node26" class="node"><title>Node26</title>
<g id="a_node26"><a xlink:href="_application_8h.html" target="_top" xlink:title="Central state/object manager and communications hub. ">
<polygon fill="white" stroke="black" points="1103.5,-280.5 1103.5,-299.5 1176.5,-299.5 1176.5,-280.5 1103.5,-280.5"/>
<text text-anchor="middle" x="1140" y="-287.5" font-family="Helvetica,sans-Serif" font-size="10.00">Application.h</text>
</a>
</g>
</g>
<!-- Node1&#45;&gt;Node26 -->
<g id="edge31" class="edge"><title>Node1&#45;&gt;Node26</title>
<path fill="none" stroke="midnightblue" d="M1140,-448.925C1140,-418.073 1140,-344.484 1140,-309.755"/>
<polygon fill="midnightblue" stroke="midnightblue" points="1143.5,-309.585 1140,-299.585 1136.5,-309.585 1143.5,-309.585"/>
</g>
<!-- Node29 -->
<g id="node29" class="node"><title>Node29</title>
<g id="a_node29"><a xlink:href="_utils_8h.html" target="_top" xlink:title="Utils.h">
<polygon fill="white" stroke="black" points="1226.5,-224.5 1226.5,-243.5 1271.5,-243.5 1271.5,-224.5 1226.5,-224.5"/>
<text text-anchor="middle" x="1249" y="-231.5" font-family="Helvetica,sans-Serif" font-size="10.00">Utils.h</text>
</a>
</g>
</g>
<!-- Node1&#45;&gt;Node29 -->
<g id="edge38" class="edge"><title>Node1&#45;&gt;Node29</title>
<path fill="none" stroke="midnightblue" d="M1146.82,-448.738C1165.8,-409.026 1219.26,-297.214 1240.32,-253.163"/>
<polygon fill="midnightblue" stroke="midnightblue" points="1243.57,-254.478 1244.72,-243.947 1237.25,-251.459 1243.57,-254.478"/>
</g>
<!-- Node36 -->
<g id="node36" class="node"><title>Node36</title>
<g id="a_node36"><a xlink:href="_ro_r_version_8h.html" target="_top" xlink:title="RoRVersion.h">
<polygon fill="white" stroke="black" points="1436,-392.5 1436,-411.5 1514,-411.5 1514,-392.5 1436,-392.5"/>
<text text-anchor="middle" x="1475" y="-399.5" font-family="Helvetica,sans-Serif" font-size="10.00">RoRVersion.h</text>
</a>
</g>
</g>
<!-- Node1&#45;&gt;Node36 -->
<g id="edge48" class="edge"><title>Node1&#45;&gt;Node36</title>
<path fill="none" stroke="midnightblue" d="M1202.22,-452C1260.17,-441.733 1348.95,-425.946 1426,-412 1426.1,-411.982 1426.2,-411.963 1426.3,-411.945"/>
<polygon fill="midnightblue" stroke="midnightblue" points="1426.74,-415.423 1435.95,-410.19 1425.49,-408.536 1426.74,-415.423"/>
</g>
<!-- Node37 -->
<g id="node37" class="node"><title>Node37</title>
<g id="a_node37"><a xlink:href="_ro_rnet_8h.html" target="_top" xlink:title="RoRnet.h">
<polygon fill="white" stroke="black" points="1358.5,-392.5 1358.5,-411.5 1417.5,-411.5 1417.5,-392.5 1358.5,-392.5"/>
<text text-anchor="middle" x="1388" y="-399.5" font-family="Helvetica,sans-Serif" font-size="10.00">RoRnet.h</text>
</a>
</g>
</g>
<!-- Node1&#45;&gt;Node37 -->
<g id="edge49" class="edge"><title>Node1&#45;&gt;Node37</title>
<path fill="none" stroke="midnightblue" d="M1198.14,-448.933C1244.47,-437.725 1308.07,-422.338 1348.61,-412.53"/>
<polygon fill="midnightblue" stroke="midnightblue" points="1349.5,-415.916 1358.39,-410.163 1347.85,-409.112 1349.5,-415.916"/>
</g>
<!-- Node39 -->
<g id="node39" class="node"><title>Node39</title>
<g id="a_node39"><a xlink:href="_language_8h.html" target="_top" xlink:title="Language.h">
<polygon fill="white" stroke="black" points="946.5,-224.5 946.5,-243.5 1013.5,-243.5 1013.5,-224.5 946.5,-224.5"/>
<text text-anchor="middle" x="980" y="-231.5" font-family="Helvetica,sans-Serif" font-size="10.00">Language.h</text>
</a>
</g>
</g>
<!-- Node1&#45;&gt;Node39 -->
<g id="edge52" class="edge"><title>Node1&#45;&gt;Node39</title>
<path fill="none" stroke="midnightblue" d="M1129.99,-448.738C1101.95,-408.774 1022.66,-295.795 992.164,-252.334"/>
<polygon fill="midnightblue" stroke="midnightblue" points="994.888,-250.122 986.278,-243.947 989.158,-254.143 994.888,-250.122"/>
</g>
<!-- Node42 -->
<g id="node42" class="node"><title>Node42</title>
<g id="a_node42"><a xlink:href="_main_menu_8h.html" target="_top" xlink:title="MainMenu.h">
<polygon fill="white" stroke="black" points="1283,-336.5 1283,-355.5 1353,-355.5 1353,-336.5 1283,-336.5"/>
<text text-anchor="middle" x="1318" y="-343.5" font-family="Helvetica,sans-Serif" font-size="10.00">MainMenu.h</text>
</a>
</g>
</g>
<!-- Node1&#45;&gt;Node42 -->
<g id="edge57" class="edge"><title>Node1&#45;&gt;Node42</title>
<path fill="none" stroke="midnightblue" d="M1164.46,-448.934C1181.59,-438.931 1204.93,-425.013 1225,-412 1250.57,-395.423 1279.19,-375.147 1297.85,-361.694"/>
<polygon fill="midnightblue" stroke="midnightblue" points="1300.1,-364.385 1306.14,-355.685 1295.99,-358.715 1300.1,-364.385"/>
</g>
<!-- Node3 -->
<g id="node3" class="node"><title>Node3</title>
<g id="a_node3"><a xlink:href="_forward_declarations_8h.html" target="_top" xlink:title="Global forward declarations. ">
<polygon fill="white" stroke="black" points="21.5,-0.5 21.5,-19.5 136.5,-19.5 136.5,-0.5 21.5,-0.5"/>
<text text-anchor="middle" x="79" y="-7.5" font-family="Helvetica,sans-Serif" font-size="10.00">ForwardDeclarations.h</text>
</a>
</g>
</g>
<!-- Node2&#45;&gt;Node3 -->
<g id="edge2" class="edge"><title>Node2&#45;&gt;Node3</title>
<path fill="none" stroke="midnightblue" d="M324.745,-396.569C219.353,-386.588 0,-357.792 0,-291 0,-291 0,-291 0,-121 0,-80.7945 35.2484,-45.221 58.6555,-26.0304"/>
<polygon fill="midnightblue" stroke="midnightblue" points="60.9699,-28.6628 66.6562,-19.7232 56.6362,-23.1655 60.9699,-28.6628"/>
</g>
<!-- Node4 -->
<g id="node4" class="node"><title>Node4</title>
<g id="a_node4"><a xlink:href="_g_u_i___debug_options_layout_8h.html" target="_top" xlink:title="GUI_DebugOptionsLayout.h">
<polygon fill="white" stroke="black" points="310,-336.5 310,-355.5 450,-355.5 450,-336.5 310,-336.5"/>
<text text-anchor="middle" x="380" y="-343.5" font-family="Helvetica,sans-Serif" font-size="10.00">GUI_DebugOptionsLayout.h</text>
</a>
</g>
</g>
<!-- Node2&#45;&gt;Node4 -->
<g id="edge3" class="edge"><title>Node2&#45;&gt;Node4</title>
<path fill="none" stroke="midnightblue" d="M380,-392.083C380,-385.006 380,-374.861 380,-365.986"/>
<polygon fill="midnightblue" stroke="midnightblue" points="383.5,-365.751 380,-355.751 376.5,-365.751 383.5,-365.751"/>
</g>
<!-- Node4&#45;&gt;Node3 -->
<g id="edge4" class="edge"><title>Node4&#45;&gt;Node3</title>
<path fill="none" stroke="midnightblue" d="M309.966,-336.855C209.909,-323.236 38,-291.601 38,-235 38,-235 38,-235 38,-121 38,-86.5153 55.911,-49.5619 68.0565,-28.468"/>
<polygon fill="midnightblue" stroke="midnightblue" points="71.1649,-30.0898 73.2991,-19.7121 65.1591,-26.4938 71.1649,-30.0898"/>
</g>
<!-- Node5 -->
<g id="node5" class="node"><title>Node5</title>
<g id="a_node5"><a xlink:href="_base_layout_8h.html" target="_top" xlink:title="BaseLayout.h">
<polygon fill="white" stroke="black" points="575.5,-280.5 575.5,-299.5 652.5,-299.5 652.5,-280.5 575.5,-280.5"/>
<text text-anchor="middle" x="614" y="-287.5" font-family="Helvetica,sans-Serif" font-size="10.00">BaseLayout.h</text>
</a>
</g>
</g>
<!-- Node4&#45;&gt;Node5 -->
<g id="edge5" class="edge"><title>Node4&#45;&gt;Node5</title>
<path fill="none" stroke="midnightblue" d="M417.078,-336.444C457.728,-327.063 523.032,-311.993 567.184,-301.804"/>
<polygon fill="midnightblue" stroke="midnightblue" points="568.139,-305.175 577.095,-299.516 566.565,-298.355 568.139,-305.175"/>
</g>
<!-- Node5&#45;&gt;Node6 -->
<g id="edge6" class="edge"><title>Node5&#45;&gt;Node6</title>
<path fill="none" stroke="midnightblue" d="M609.889,-280.277C605.941,-271.383 600.255,-257.074 598,-244 591.881,-208.527 596.531,-188.673 626,-168 676.829,-132.342 854.413,-124.709 949.612,-123.226"/>
<polygon fill="midnightblue" stroke="midnightblue" points="949.73,-126.725 959.68,-123.087 949.633,-119.725 949.73,-126.725"/>
</g>
<!-- Node5&#45;&gt;Node23 -->
<g id="edge25" class="edge"><title>Node5&#45;&gt;Node23</title>
<path fill="none" stroke="midnightblue" d="M639.814,-280.378C659.456,-272.924 686.363,-260.706 706,-244 721.742,-230.608 734.786,-210.69 742.914,-196.435"/>
<polygon fill="midnightblue" stroke="midnightblue" points="746.006,-198.075 747.728,-187.621 739.863,-194.719 746.006,-198.075"/>
</g>
<!-- Node24 -->
<g id="node24" class="node"><title>Node24</title>
<g id="a_node24"><a xlink:href="_wraps_attribute_8h.html" target="_top" xlink:title="WrapsAttribute.h">
<polygon fill="white" stroke="black" points="607,-224.5 607,-243.5 697,-243.5 697,-224.5 607,-224.5"/>
<text text-anchor="middle" x="652" y="-231.5" font-family="Helvetica,sans-Serif" font-size="10.00">WrapsAttribute.h</text>
</a>
</g>
</g>
<!-- Node5&#45;&gt;Node24 -->
<g id="edge26" class="edge"><title>Node5&#45;&gt;Node24</title>
<path fill="none" stroke="midnightblue" d="M620.275,-280.083C625.642,-272.455 633.518,-261.264 640.079,-251.941"/>
<polygon fill="midnightblue" stroke="midnightblue" points="642.949,-253.943 645.842,-243.751 637.225,-249.915 642.949,-253.943"/>
</g>
<!-- Node6&#45;&gt;Node3 -->
<g id="edge18" class="edge"><title>Node6&#45;&gt;Node3</title>
<path fill="none" stroke="midnightblue" d="M1062.16,-119.54C1171.35,-115.536 1413.89,-101.447 1370,-56 1327.22,-11.6995 407.112,-10.2932 146.965,-10.7854"/>
<polygon fill="midnightblue" stroke="midnightblue" points="146.889,-7.28546 136.896,-10.8061 146.903,-14.2855 146.889,-7.28546"/>
</g>
<!-- Node7 -->
<g id="node7" class="node"><title>Node7</title>
<polygon fill="white" stroke="#bfbfbf" points="770.5,-56.5 770.5,-75.5 873.5,-75.5 873.5,-56.5 770.5,-56.5"/>
<text text-anchor="middle" x="822" y="-63.5" font-family="Helvetica,sans-Serif" font-size="10.00">OgrePrerequisites.h</text>
</g>
<!-- Node6&#45;&gt;Node7 -->
<g id="edge7" class="edge"><title>Node6&#45;&gt;Node7</title>
<path fill="none" stroke="midnightblue" d="M981.052,-112.444C948.842,-103.241 897.466,-88.5617 861.858,-78.3879"/>
<polygon fill="midnightblue" stroke="midnightblue" points="862.384,-74.8984 851.808,-75.5164 860.461,-81.629 862.384,-74.8984"/>
</g>
<!-- Node8 -->
<g id="node8" class="node"><title>Node8</title>
<polygon fill="white" stroke="#bfbfbf" points="891.5,-56.5 891.5,-75.5 1006.5,-75.5 1006.5,-56.5 891.5,-56.5"/>
<text text-anchor="middle" x="949" y="-63.5" font-family="Helvetica,sans-Serif" font-size="10.00">OgreAxisAlignedBox.h</text>
</g>
<!-- Node6&#45;&gt;Node8 -->
<g id="edge8" class="edge"><title>Node6&#45;&gt;Node8</title>
<path fill="none" stroke="midnightblue" d="M1001.04,-112.324C991.873,-104.341 978.063,-92.3128 966.972,-82.6529"/>
<polygon fill="midnightblue" stroke="midnightblue" points="968.982,-79.7624 959.143,-75.8339 964.385,-85.041 968.982,-79.7624"/>
</g>
<!-- Node9 -->
<g id="node9" class="node"><title>Node9</title>
<polygon fill="white" stroke="#bfbfbf" points="1024.5,-56.5 1024.5,-75.5 1123.5,-75.5 1123.5,-56.5 1024.5,-56.5"/>
<text text-anchor="middle" x="1074" y="-63.5" font-family="Helvetica,sans-Serif" font-size="10.00">OgreColourValue.h</text>
</g>
<!-- Node6&#45;&gt;Node9 -->
<g id="edge9" class="edge"><title>Node6&#45;&gt;Node9</title>
<path fill="none" stroke="midnightblue" d="M1021.12,-112.324C1030.53,-104.263 1044.74,-92.0765 1056.07,-82.3695"/>
<polygon fill="midnightblue" stroke="midnightblue" points="1058.38,-84.9993 1063.69,-75.8339 1053.82,-79.6844 1058.38,-84.9993"/>
</g>
<!-- Node10 -->
<g id="node10" class="node"><title>Node10</title>
<polygon fill="white" stroke="#bfbfbf" points="1141.5,-56.5 1141.5,-75.5 1244.5,-75.5 1244.5,-56.5 1141.5,-56.5"/>
<text text-anchor="middle" x="1193" y="-63.5" font-family="Helvetica,sans-Serif" font-size="10.00">OgreHeaderPrefix.h</text>
</g>
<!-- Node6&#45;&gt;Node10 -->
<g id="edge10" class="edge"><title>Node6&#45;&gt;Node10</title>
<path fill="none" stroke="midnightblue" d="M1039.84,-112.444C1070.86,-103.241 1120.33,-88.5617 1154.62,-78.3879"/>
<polygon fill="midnightblue" stroke="midnightblue" points="1155.71,-81.7164 1164.3,-75.5164 1153.71,-75.0055 1155.71,-81.7164"/>
</g>
<!-- Node11 -->
<g id="node11" class="node"><title>Node11</title>
<polygon fill="white" stroke="#bfbfbf" points="1262.5,-56.5 1262.5,-75.5 1361.5,-75.5 1361.5,-56.5 1262.5,-56.5"/>
<text text-anchor="middle" x="1312" y="-63.5" font-family="Helvetica,sans-Serif" font-size="10.00">OgreLogManager.h</text>
</g>
<!-- Node6&#45;&gt;Node11 -->
<g id="edge11" class="edge"><title>Node6&#45;&gt;Node11</title>
<path fill="none" stroke="midnightblue" d="M1058.69,-112.444C1111.86,-102.905 1197.82,-87.4834 1254.63,-77.293"/>
<polygon fill="midnightblue" stroke="midnightblue" points="1255.3,-80.7273 1264.53,-75.5164 1254.07,-73.8373 1255.3,-80.7273"/>
</g>
<!-- Node12 -->
<g id="node12" class="node"><title>Node12</title>
<polygon fill="white" stroke="#bfbfbf" points="1418.5,-56.5 1418.5,-75.5 1511.5,-75.5 1511.5,-56.5 1418.5,-56.5"/>
<text text-anchor="middle" x="1465" y="-63.5" font-family="Helvetica,sans-Serif" font-size="10.00">OgreQuaternion.h</text>
</g>
<!-- Node6&#45;&gt;Node12 -->
<g id="edge12" class="edge"><title>Node6&#45;&gt;Node12</title>
<path fill="none" stroke="midnightblue" d="M1062.25,-115.669C1137.33,-107.736 1281.6,-92.0325 1404,-76 1405.46,-75.8088 1406.94,-75.6122 1408.43,-75.4113"/>
<polygon fill="midnightblue" stroke="midnightblue" points="1408.97,-78.8703 1418.4,-74.0352 1408.01,-71.9361 1408.97,-78.8703"/>
</g>
<!-- Node13 -->
<g id="node13" class="node"><title>Node13</title>
<polygon fill="white" stroke="#bfbfbf" points="1529.5,-56.5 1529.5,-75.5 1600.5,-75.5 1600.5,-56.5 1529.5,-56.5"/>
<text text-anchor="middle" x="1565" y="-63.5" font-family="Helvetica,sans-Serif" font-size="10.00">OgreString.h</text>
</g>
<!-- Node6&#45;&gt;Node13 -->
<g id="edge13" class="edge"><title>Node6&#45;&gt;Node13</title>
<path fill="none" stroke="midnightblue" d="M1062.15,-118.331C1152.37,-113.22 1345.83,-100.453 1519.13,-75.966"/>
<polygon fill="midnightblue" stroke="midnightblue" points="1519.8,-79.4067 1529.2,-74.5267 1518.8,-72.4771 1519.8,-79.4067"/>
</g>
<!-- Node14 -->
<g id="node14" class="node"><title>Node14</title>
<polygon fill="white" stroke="#bfbfbf" points="1619,-56.5 1619,-75.5 1733,-75.5 1733,-56.5 1619,-56.5"/>
<text text-anchor="middle" x="1676" y="-63.5" font-family="Helvetica,sans-Serif" font-size="10.00">OgreStringConverter.h</text>
</g>
<!-- Node6&#45;&gt;Node14 -->
<g id="edge14" class="edge"><title>Node6&#45;&gt;Node14</title>
<path fill="none" stroke="midnightblue" d="M1062.29,-118.154C1164.14,-112.281 1399.34,-97.623 1608.39,-75.9968"/>
<polygon fill="midnightblue" stroke="midnightblue" points="1609.06,-79.4464 1618.64,-74.9287 1608.34,-72.4841 1609.06,-79.4464"/>
</g>
<!-- Node15 -->
<g id="node15" class="node"><title>Node15</title>
<polygon fill="white" stroke="#bfbfbf" points="191.5,-56.5 191.5,-75.5 282.5,-75.5 282.5,-56.5 191.5,-56.5"/>
<text text-anchor="middle" x="237" y="-63.5" font-family="Helvetica,sans-Serif" font-size="10.00">OgreUTFString.h</text>
</g>
<!-- Node6&#45;&gt;Node15 -->
<g id="edge15" class="edge"><title>Node6&#45;&gt;Node15</title>
<path fill="none" stroke="midnightblue" d="M959.849,-119.55C843.389,-115.872 549.384,-104.456 292.832,-75.967"/>
<polygon fill="midnightblue" stroke="midnightblue" points="292.898,-72.4525 282.57,-74.816 292.118,-79.4089 292.898,-72.4525"/>
</g>
<!-- Node16 -->
<g id="node16" class="node"><title>Node16</title>
<polygon fill="white" stroke="#bfbfbf" points="301,-56.5 301,-75.5 381,-75.5 381,-56.5 301,-56.5"/>
<text text-anchor="middle" x="341" y="-63.5" font-family="Helvetica,sans-Serif" font-size="10.00">OgreVector2.h</text>
</g>
<!-- Node6&#45;&gt;Node16 -->
<g id="edge16" class="edge"><title>Node6&#45;&gt;Node16</title>
<path fill="none" stroke="midnightblue" d="M959.694,-119.181C854.788,-115.051 608.047,-103.233 391.04,-75.9926"/>
<polygon fill="midnightblue" stroke="midnightblue" points="391.417,-72.5124 381.056,-74.7256 390.535,-79.4568 391.417,-72.5124"/>
</g>
<!-- Node17 -->
<g id="node17" class="node"><title>Node17</title>
<polygon fill="white" stroke="#bfbfbf" points="399,-56.5 399,-75.5 479,-75.5 479,-56.5 399,-56.5"/>
<text text-anchor="middle" x="439" y="-63.5" font-family="Helvetica,sans-Serif" font-size="10.00">OgreVector3.h</text>
</g>
<!-- Node6&#45;&gt;Node17 -->
<g id="edge17" class="edge"><title>Node6&#45;&gt;Node17</title>
<path fill="none" stroke="midnightblue" d="M959.968,-118.238C867.935,-112.901 667.888,-99.6825 489.174,-76.0337"/>
<polygon fill="midnightblue" stroke="midnightblue" points="489.437,-72.5379 479.061,-74.6813 488.509,-79.4761 489.437,-72.5379"/>
</g>
<!-- Node18 -->
<g id="node18" class="node"><title>Node18</title>
<g id="a_node18"><a xlink:href="_global_environment_8h.html" target="_top" xlink:title="GlobalEnvironment.h">
<polygon fill="white" stroke="black" points="66.5,-56.5 66.5,-75.5 173.5,-75.5 173.5,-56.5 66.5,-56.5"/>
<text text-anchor="middle" x="120" y="-63.5" font-family="Helvetica,sans-Serif" font-size="10.00">GlobalEnvironment.h</text>
</a>
</g>
</g>
<!-- Node6&#45;&gt;Node18 -->
<g id="edge19" class="edge"><title>Node6&#45;&gt;Node18</title>
<path fill="none" stroke="midnightblue" d="M959.937,-119.825C831.343,-116.525 483.595,-105.477 183.924,-76.1093"/>
<polygon fill="midnightblue" stroke="midnightblue" points="184.028,-72.6026 173.732,-75.1015 183.339,-79.5686 184.028,-72.6026"/>
</g>
<!-- Node19 -->
<g id="node19" class="node"><title>Node19</title>
<g id="a_node19"><a xlink:href="_zeroed_memory_allocator_8h.html" target="_top" xlink:title="ZeroedMemoryAllocator.h">
<polygon fill="white" stroke="black" points="497,-56.5 497,-75.5 625,-75.5 625,-56.5 497,-56.5"/>
<text text-anchor="middle" x="561" y="-63.5" font-family="Helvetica,sans-Serif" font-size="10.00">ZeroedMemoryAllocator.h</text>
</a>
</g>
</g>
<!-- Node6&#45;&gt;Node19 -->
<g id="edge21" class="edge"><title>Node6&#45;&gt;Node19</title>
<path fill="none" stroke="midnightblue" d="M959.771,-114.949C889.154,-106.593 757.644,-90.9824 635.033,-76.1216"/>
<polygon fill="midnightblue" stroke="midnightblue" points="635.441,-72.6455 625.092,-74.916 634.598,-79.5946 635.441,-72.6455"/>
</g>
<!-- Node20 -->
<g id="node20" class="node"><title>Node20</title>
<g id="a_node20"><a xlink:href="_bit_flags_8h.html" target="_top" xlink:title="BitFlags.h">
<polygon fill="white" stroke="black" points="1751.5,-56.5 1751.5,-75.5 1812.5,-75.5 1812.5,-56.5 1751.5,-56.5"/>
<text text-anchor="middle" x="1782" y="-63.5" font-family="Helvetica,sans-Serif" font-size="10.00">BitFlags.h</text>
</a>
</g>
</g>
<!-- Node6&#45;&gt;Node20 -->
<g id="edge22" class="edge"><title>Node6&#45;&gt;Node20</title>
<path fill="none" stroke="midnightblue" d="M1062.24,-120.654C1180.36,-119.253 1480.91,-112.243 1741.07,-75.8866"/>
<polygon fill="midnightblue" stroke="midnightblue" points="1741.67,-79.336 1751.08,-74.4695 1740.69,-72.4051 1741.67,-79.336"/>
</g>
<!-- Node22 -->
<g id="node22" class="node"><title>Node22</title>
<polygon fill="white" stroke="#bfbfbf" points="643.5,-56.5 643.5,-75.5 752.5,-75.5 752.5,-56.5 643.5,-56.5"/>
<text text-anchor="middle" x="698" y="-63.5" font-family="Helvetica,sans-Serif" font-size="10.00">MyGUI_Prerequest.h</text>
</g>
<!-- Node6&#45;&gt;Node22 -->
<g id="edge24" class="edge"><title>Node6&#45;&gt;Node22</title>
<path fill="none" stroke="midnightblue" d="M961.404,-112.444C906.001,-102.885 816.357,-87.4195 757.295,-77.2298"/>
<polygon fill="midnightblue" stroke="midnightblue" points="757.813,-73.7676 747.364,-75.5164 756.623,-80.6657 757.813,-73.7676"/>
</g>
<!-- Node18&#45;&gt;Node3 -->
<g id="edge20" class="edge"><title>Node18&#45;&gt;Node3</title>
<path fill="none" stroke="midnightblue" d="M113.23,-56.083C107.438,-48.4554 98.9415,-37.2645 91.8625,-27.9408"/>
<polygon fill="midnightblue" stroke="midnightblue" points="94.479,-25.5991 85.6443,-19.7511 88.9039,-29.8321 94.479,-25.5991"/>
</g>
<!-- Node21 -->
<g id="node21" class="node"><title>Node21</title>
<polygon fill="white" stroke="#bfbfbf" points="1759,-0.5 1759,-19.5 1805,-19.5 1805,-0.5 1759,-0.5"/>
<text text-anchor="middle" x="1782" y="-7.5" font-family="Helvetica,sans-Serif" font-size="10.00">cstdint</text>
</g>
<!-- Node20&#45;&gt;Node21 -->
<g id="edge23" class="edge"><title>Node20&#45;&gt;Node21</title>
<path fill="none" stroke="midnightblue" d="M1782,-56.083C1782,-49.0059 1782,-38.8611 1782,-29.9865"/>
<polygon fill="midnightblue" stroke="midnightblue" points="1785.5,-29.751 1782,-19.7511 1778.5,-29.7511 1785.5,-29.751"/>
</g>
<!-- Node24&#45;&gt;Node6 -->
<g id="edge27" class="edge"><title>Node24&#45;&gt;Node6</title>
<path fill="none" stroke="midnightblue" d="M645.342,-224.277C635.769,-210.609 620.754,-184.053 635,-168 655.488,-144.914 848.265,-131.482 949.524,-125.964"/>
<polygon fill="midnightblue" stroke="midnightblue" points="949.824,-129.453 959.623,-125.423 949.45,-122.463 949.824,-129.453"/>
</g>
<!-- Node24&#45;&gt;Node23 -->
<g id="edge28" class="edge"><title>Node24&#45;&gt;Node23</title>
<path fill="none" stroke="midnightblue" d="M668.067,-224.324C683.958,-215.743 708.507,-202.486 726.958,-192.522"/>
<polygon fill="midnightblue" stroke="midnightblue" points="728.837,-195.486 735.973,-187.655 725.511,-189.326 728.837,-195.486"/>
</g>
<!-- Node25 -->
<g id="node25" class="node"><title>Node25</title>
<g id="a_node25"><a xlink:href="_attribute_8h.html" target="_top" xlink:title="Attribute.h">
<polygon fill="white" stroke="black" points="644,-168.5 644,-187.5 706,-187.5 706,-168.5 644,-168.5"/>
<text text-anchor="middle" x="675" y="-175.5" font-family="Helvetica,sans-Serif" font-size="10.00">Attribute.h</text>
</a>
</g>
</g>
<!-- Node24&#45;&gt;Node25 -->
<g id="edge29" class="edge"><title>Node24&#45;&gt;Node25</title>
<path fill="none" stroke="midnightblue" d="M655.798,-224.083C658.913,-216.77 663.423,-206.181 667.289,-197.103"/>
<polygon fill="midnightblue" stroke="midnightblue" points="670.574,-198.323 671.273,-187.751 664.134,-195.58 670.574,-198.323"/>
</g>
<!-- Node25&#45;&gt;Node6 -->
<g id="edge30" class="edge"><title>Node25&#45;&gt;Node6</title>
<path fill="none" stroke="midnightblue" d="M706.4,-169.716C709.302,-169.109 712.202,-168.527 715,-168 795.762,-152.795 889.669,-139.207 949.679,-131.038"/>
<polygon fill="midnightblue" stroke="midnightblue" points="950.305,-134.486 959.745,-129.676 949.366,-127.549 950.305,-134.486"/>
</g>
<!-- Node26&#45;&gt;Node6 -->
<g id="edge32" class="edge"><title>Node26&#45;&gt;Node6</title>
<path fill="none" stroke="midnightblue" d="M1139.34,-280.23C1137.27,-258.553 1129.12,-201.764 1099,-168 1085.82,-153.229 1066.65,-142.632 1049.57,-135.447"/>
<polygon fill="midnightblue" stroke="midnightblue" points="1050.39,-132.012 1039.81,-131.606 1047.83,-138.526 1050.39,-132.012"/>
</g>
<!-- Node27 -->
<g id="node27" class="node"><title>Node27</title>
<g id="a_node27"><a xlink:href="_settings_8h.html" target="_top" xlink:title="Settings.h">
<polygon fill="white" stroke="black" points="1050.5,-224.5 1050.5,-243.5 1111.5,-243.5 1111.5,-224.5 1050.5,-224.5"/>
<text text-anchor="middle" x="1081" y="-231.5" font-family="Helvetica,sans-Serif" font-size="10.00">Settings.h</text>
</a>
</g>
</g>
<!-- Node26&#45;&gt;Node27 -->
<g id="edge33" class="edge"><title>Node26&#45;&gt;Node27</title>
<path fill="none" stroke="midnightblue" d="M1130.52,-280.324C1121.8,-272.341 1108.66,-260.313 1098.1,-250.653"/>
<polygon fill="midnightblue" stroke="midnightblue" points="1100.39,-248.004 1090.65,-243.834 1095.67,-253.167 1100.39,-248.004"/>
</g>
<!-- Node27&#45;&gt;Node6 -->
<g id="edge34" class="edge"><title>Node27&#45;&gt;Node6</title>
<path fill="none" stroke="midnightblue" d="M1083.68,-224.358C1087.22,-211.258 1091.9,-185.997 1082,-168 1074.11,-153.663 1059.51,-143.253 1045.6,-136.079"/>
<polygon fill="midnightblue" stroke="midnightblue" points="1046.7,-132.728 1036.16,-131.622 1043.71,-139.058 1046.7,-132.728"/>
</g>
<!-- Node28 -->
<g id="node28" class="node"><title>Node28</title>
<g id="a_node28"><a xlink:href="_singleton_8h.html" target="_top" xlink:title="Singleton.h">
<polygon fill="white" stroke="black" points="1008.5,-168.5 1008.5,-187.5 1073.5,-187.5 1073.5,-168.5 1008.5,-168.5"/>
<text text-anchor="middle" x="1041" y="-175.5" font-family="Helvetica,sans-Serif" font-size="10.00">Singleton.h</text>
</a>
</g>
</g>
<!-- Node27&#45;&gt;Node28 -->
<g id="edge35" class="edge"><title>Node27&#45;&gt;Node28</title>
<path fill="none" stroke="midnightblue" d="M1074.39,-224.083C1068.74,-216.455 1060.46,-205.264 1053.55,-195.941"/>
<polygon fill="midnightblue" stroke="midnightblue" points="1056.25,-193.703 1047.48,-187.751 1050.62,-197.87 1056.25,-193.703"/>
</g>
<!-- Node28&#45;&gt;Node6 -->
<g id="edge36" class="edge"><title>Node28&#45;&gt;Node6</title>
<path fill="none" stroke="midnightblue" d="M1036.05,-168.083C1031.9,-160.613 1025.85,-149.724 1020.73,-140.52"/>
<polygon fill="midnightblue" stroke="midnightblue" points="1023.78,-138.793 1015.86,-131.751 1017.66,-142.192 1023.78,-138.793"/>
</g>
<!-- Node29&#45;&gt;Node6 -->
<g id="edge39" class="edge"><title>Node29&#45;&gt;Node6</title>
<path fill="none" stroke="midnightblue" d="M1257.62,-224.063C1269.57,-210.578 1288.19,-184.821 1274,-168 1248.75,-138.066 1142.14,-128.043 1072.65,-124.688"/>
<polygon fill="midnightblue" stroke="midnightblue" points="1072.4,-121.173 1062.26,-124.222 1072.09,-128.166 1072.4,-121.173"/>
</g>
<!-- Node29&#45;&gt;Node23 -->
<g id="edge47" class="edge"><title>Node29&#45;&gt;Node23</title>
<path fill="none" stroke="midnightblue" d="M1226.12,-230.667C1162.69,-224.178 979.278,-205.255 827,-188 815.007,-186.641 801.943,-185.096 790.128,-183.674"/>
<polygon fill="midnightblue" stroke="midnightblue" points="790.474,-180.19 780.126,-182.464 789.633,-187.14 790.474,-180.19"/>
</g>
<!-- Node30 -->
<g id="node30" class="node"><title>Node30</title>
<polygon fill="white" stroke="#bfbfbf" points="1168,-168.5 1168,-187.5 1266,-187.5 1266,-168.5 1168,-168.5"/>
<text text-anchor="middle" x="1217" y="-175.5" font-family="Helvetica,sans-Serif" font-size="10.00">OgreDataStream.h</text>
</g>
<!-- Node29&#45;&gt;Node30 -->
<g id="edge40" class="edge"><title>Node29&#45;&gt;Node30</title>
<path fill="none" stroke="midnightblue" d="M1243.72,-224.083C1239.29,-216.613 1232.84,-205.724 1227.38,-196.52"/>
<polygon fill="midnightblue" stroke="midnightblue" points="1230.29,-194.57 1222.19,-187.751 1224.27,-198.138 1230.29,-194.57"/>
</g>
<!-- Node31 -->
<g id="node31" class="node"><title>Node31</title>
<g id="a_node31"><a xlink:href="checked_8h.html" target="_top" xlink:title="utf8/checked.h">
<polygon fill="white" stroke="black" points="1360.5,-168.5 1360.5,-187.5 1441.5,-187.5 1441.5,-168.5 1360.5,-168.5"/>
<text text-anchor="middle" x="1401" y="-175.5" font-family="Helvetica,sans-Serif" font-size="10.00">utf8/checked.h</text>
</a>
</g>
</g>
<!-- Node29&#45;&gt;Node31 -->
<g id="edge41" class="edge"><title>Node29&#45;&gt;Node31</title>
<path fill="none" stroke="midnightblue" d="M1271.76,-224.916C1297.02,-215.941 1338.05,-201.362 1367.1,-191.043"/>
<polygon fill="midnightblue" stroke="midnightblue" points="1368.58,-194.232 1376.83,-187.587 1366.24,-187.636 1368.58,-194.232"/>
</g>
<!-- Node35 -->
<g id="node35" class="node"><title>Node35</title>
<g id="a_node35"><a xlink:href="unchecked_8h.html" target="_top" xlink:title="utf8/unchecked.h">
<polygon fill="white" stroke="black" points="1460,-168.5 1460,-187.5 1552,-187.5 1552,-168.5 1460,-168.5"/>
<text text-anchor="middle" x="1506" y="-175.5" font-family="Helvetica,sans-Serif" font-size="10.00">utf8/unchecked.h</text>
</a>
</g>
</g>
<!-- Node29&#45;&gt;Node35 -->
<g id="edge45" class="edge"><title>Node29&#45;&gt;Node35</title>
<path fill="none" stroke="midnightblue" d="M1271.81,-228.208C1312.75,-219.606 1399.61,-201.354 1455.27,-189.659"/>
<polygon fill="midnightblue" stroke="midnightblue" points="1456.22,-193.037 1465.28,-187.556 1454.78,-186.187 1456.22,-193.037"/>
</g>
<!-- Node32 -->
<g id="node32" class="node"><title>Node32</title>
<g id="a_node32"><a xlink:href="core_8h.html" target="_top" xlink:title="core.h">
<polygon fill="white" stroke="black" points="1484,-112.5 1484,-131.5 1528,-131.5 1528,-112.5 1484,-112.5"/>
<text text-anchor="middle" x="1506" y="-119.5" font-family="Helvetica,sans-Serif" font-size="10.00">core.h</text>
</a>
</g>
</g>
<!-- Node31&#45;&gt;Node32 -->
<g id="edge42" class="edge"><title>Node31&#45;&gt;Node32</title>
<path fill="none" stroke="midnightblue" d="M1417.87,-168.324C1434.71,-159.664 1460.81,-146.242 1480.24,-136.249"/>
<polygon fill="midnightblue" stroke="midnightblue" points="1481.88,-139.341 1489.17,-131.655 1478.68,-133.116 1481.88,-139.341"/>
</g>
<!-- Node34 -->
<g id="node34" class="node"><title>Node34</title>
<polygon fill="white" stroke="#bfbfbf" points="1371.5,-112.5 1371.5,-131.5 1430.5,-131.5 1430.5,-112.5 1371.5,-112.5"/>
<text text-anchor="middle" x="1401" y="-119.5" font-family="Helvetica,sans-Serif" font-size="10.00">stdexcept</text>
</g>
<!-- Node31&#45;&gt;Node34 -->
<g id="edge44" class="edge"><title>Node31&#45;&gt;Node34</title>
<path fill="none" stroke="midnightblue" d="M1401,-168.083C1401,-161.006 1401,-150.861 1401,-141.986"/>
<polygon fill="midnightblue" stroke="midnightblue" points="1404.5,-141.751 1401,-131.751 1397.5,-141.751 1404.5,-141.751"/>
</g>
<!-- Node33 -->
<g id="node33" class="node"><title>Node33</title>
<polygon fill="white" stroke="#bfbfbf" points="1830.5,-56.5 1830.5,-75.5 1877.5,-75.5 1877.5,-56.5 1830.5,-56.5"/>
<text text-anchor="middle" x="1854" y="-63.5" font-family="Helvetica,sans-Serif" font-size="10.00">iterator</text>
</g>
<!-- Node32&#45;&gt;Node33 -->
<g id="edge43" class="edge"><title>Node32&#45;&gt;Node33</title>
<path fill="none" stroke="midnightblue" d="M1528.31,-118.777C1578.62,-113.562 1704.84,-99.3398 1820.23,-75.9162"/>
<polygon fill="midnightblue" stroke="midnightblue" points="1821.2,-79.2898 1830.29,-73.8447 1819.79,-72.4336 1821.2,-79.2898"/>
</g>
<!-- Node35&#45;&gt;Node32 -->
<g id="edge46" class="edge"><title>Node35&#45;&gt;Node32</title>
<path fill="none" stroke="midnightblue" d="M1506,-168.083C1506,-161.006 1506,-150.861 1506,-141.986"/>
<polygon fill="midnightblue" stroke="midnightblue" points="1509.5,-141.751 1506,-131.751 1502.5,-141.751 1509.5,-141.751"/>
</g>
<!-- Node37&#45;&gt;Node20 -->
<g id="edge50" class="edge"><title>Node37&#45;&gt;Node20</title>
<path fill="none" stroke="midnightblue" d="M1417.58,-393.039C1500.3,-370.57 1728,-307.247 1728,-291 1728,-291 1728,-291 1728,-177 1728,-140.863 1751.77,-104.252 1767.77,-83.7063"/>
<polygon fill="midnightblue" stroke="midnightblue" points="1770.69,-85.6678 1774.26,-75.694 1765.25,-81.2619 1770.69,-85.6678"/>
</g>
<!-- Node38 -->
<g id="node38" class="node"><title>Node38</title>
<polygon fill="white" stroke="#bfbfbf" points="1371.5,-336.5 1371.5,-355.5 1420.5,-355.5 1420.5,-336.5 1371.5,-336.5"/>
<text text-anchor="middle" x="1396" y="-343.5" font-family="Helvetica,sans-Serif" font-size="10.00">stdint.h</text>
</g>
<!-- Node37&#45;&gt;Node38 -->
<g id="edge51" class="edge"><title>Node37&#45;&gt;Node38</title>
<path fill="none" stroke="midnightblue" d="M1389.32,-392.083C1390.38,-384.927 1391.91,-374.635 1393.23,-365.691"/>
<polygon fill="midnightblue" stroke="midnightblue" points="1396.7,-366.156 1394.7,-355.751 1389.78,-365.13 1396.7,-366.156"/>
</g>
<!-- Node39&#45;&gt;Node6 -->
<g id="edge53" class="edge"><title>Node39&#45;&gt;Node6</title>
<path fill="none" stroke="midnightblue" d="M982.433,-224.368C987.458,-206.537 999.08,-165.295 1005.85,-141.272"/>
<polygon fill="midnightblue" stroke="midnightblue" points="1009.23,-142.166 1008.58,-131.591 1002.5,-140.267 1009.23,-142.166"/>
</g>
<!-- Node39&#45;&gt;Node28 -->
<g id="edge54" class="edge"><title>Node39&#45;&gt;Node28</title>
<path fill="none" stroke="midnightblue" d="M989.801,-224.324C998.818,-216.341 1012.41,-204.313 1023.32,-194.653"/>
<polygon fill="midnightblue" stroke="midnightblue" points="1025.85,-197.083 1031.02,-187.834 1021.21,-191.842 1025.85,-197.083"/>
</g>
<!-- Node40 -->
<g id="node40" class="node"><title>Node40</title>
<polygon fill="white" stroke="#bfbfbf" points="836.5,-168.5 836.5,-187.5 883.5,-187.5 883.5,-168.5 836.5,-168.5"/>
<text text-anchor="middle" x="860" y="-175.5" font-family="Helvetica,sans-Serif" font-size="10.00">libintl.h</text>
</g>
<!-- Node39&#45;&gt;Node40 -->
<g id="edge55" class="edge"><title>Node39&#45;&gt;Node40</title>
<path fill="none" stroke="midnightblue" d="M960.986,-224.444C941.412,-215.636 910.692,-201.812 888.271,-191.722"/>
<polygon fill="midnightblue" stroke="midnightblue" points="889.481,-188.428 878.925,-187.516 886.608,-194.812 889.481,-188.428"/>
</g>
<!-- Node41 -->
<g id="node41" class="node"><title>Node41</title>
<polygon fill="white" stroke="#bfbfbf" points="902,-168.5 902,-187.5 952,-187.5 952,-168.5 902,-168.5"/>
<text text-anchor="middle" x="927" y="-175.5" font-family="Helvetica,sans-Serif" font-size="10.00">locale.h</text>
</g>
<!-- Node39&#45;&gt;Node41 -->
<g id="edge56" class="edge"><title>Node39&#45;&gt;Node41</title>
<path fill="none" stroke="midnightblue" d="M971.248,-224.083C963.53,-216.22 952.095,-204.569 942.783,-195.081"/>
<polygon fill="midnightblue" stroke="midnightblue" points="945.092,-192.436 935.589,-187.751 940.096,-197.34 945.092,-192.436"/>
</g>
<!-- Node42&#45;&gt;Node6 -->
<g id="edge59" class="edge"><title>Node42&#45;&gt;Node6</title>
<path fill="none" stroke="midnightblue" d="M1319.77,-336.485C1325.12,-308.042 1338.07,-215.445 1291,-168 1261.19,-137.956 1145.15,-127.97 1072.13,-124.651"/>
<polygon fill="midnightblue" stroke="midnightblue" points="1072.27,-121.154 1062.13,-124.226 1071.97,-128.148 1072.27,-121.154"/>
</g>
<!-- Node42&#45;&gt;Node26 -->
<g id="edge58" class="edge"><title>Node42&#45;&gt;Node26</title>
<path fill="none" stroke="midnightblue" d="M1289.8,-336.444C1259.59,-327.28 1211.49,-312.688 1177.97,-302.519"/>
<polygon fill="midnightblue" stroke="midnightblue" points="1178.66,-299.07 1168.07,-299.516 1176.63,-305.769 1178.66,-299.07"/>
</g>
<!-- Node43 -->
<g id="node43" class="node"><title>Node43</title>
<polygon fill="white" stroke="#bfbfbf" points="1360.5,-280.5 1360.5,-299.5 1395.5,-299.5 1395.5,-280.5 1360.5,-280.5"/>
<text text-anchor="middle" x="1378" y="-287.5" font-family="Helvetica,sans-Serif" font-size="10.00">map</text>
</g>
<!-- Node42&#45;&gt;Node43 -->
<g id="edge60" class="edge"><title>Node42&#45;&gt;Node43</title>
<path fill="none" stroke="midnightblue" d="M1327.64,-336.324C1336.51,-328.341 1349.87,-316.313 1360.61,-306.653"/>
<polygon fill="midnightblue" stroke="midnightblue" points="1363.09,-309.125 1368.18,-299.834 1358.41,-303.922 1363.09,-309.125"/>
</g>
<!-- Node44 -->
<g id="node44" class="node"><title>Node44</title>
<polygon fill="white" stroke="#bfbfbf" points="1414,-280.5 1414,-299.5 1554,-299.5 1554,-280.5 1414,-280.5"/>
<text text-anchor="middle" x="1484" y="-287.5" font-family="Helvetica,sans-Serif" font-size="10.00">OgreWindowEventUtilities.h</text>
</g>
<!-- Node42&#45;&gt;Node44 -->
<g id="edge61" class="edge"><title>Node42&#45;&gt;Node44</title>
<path fill="none" stroke="midnightblue" d="M1344.3,-336.444C1372.35,-327.32 1416.94,-312.813 1448.18,-302.651"/>
<polygon fill="midnightblue" stroke="midnightblue" points="1449.39,-305.938 1457.82,-299.516 1447.23,-299.282 1449.39,-305.938"/>
</g>
</g>
</svg>
        <g id="navigator" transform="translate(0 0)" fill="#404254">
                <rect fill="#f2f5e9" fill-opacity="0.5" stroke="#606060" stroke-width=".5" x="0" y="0" width="60" height="60"/>
                <use id="zoomplus" xlink:href="#zoomPlus" x="17" y="9" onmousedown="handleZoom(evt,'in')"/>
                <use id="zoomminus" xlink:href="#zoomMin" x="42" y="9" onmousedown="handleZoom(evt,'out')"/>
                <use id="reset" xlink:href="#resetDef" x="30" y="36" onmousedown="handleReset()"/>
                <g id="arrowUp" xlink:href="#dirArrow" transform="translate(30 24)" onmousedown="handlePan(0,-1)">
                  <use xlink:href="#rim" fill="#404040">
                        <set attributeName="fill" to="#808080" begin="arrowUp.mouseover" end="arrowUp.mouseout"/>
                  </use>
                  <path fill="none" stroke="white" stroke-width="1.5" d="M0,-3.0v7 M-2.5,-0.5L0,-3.0L2.5,-0.5"/>
                </g>
                <g id="arrowRight" xlink:href="#dirArrow" transform="rotate(90) translate(36 -43)" onmousedown="handlePan(1,0)">
                  <use xlink:href="#rim" fill="#404040">
                        <set attributeName="fill" to="#808080" begin="arrowRight.mouseover" end="arrowRight.mouseout"/>
                  </use>
                  <path fill="none" stroke="white" stroke-width="1.5" d="M0,-3.0v7 M-2.5,-0.5L0,-3.0L2.5,-0.5"/>
                </g>
                <g id="arrowDown" xlink:href="#dirArrow" transform="rotate(180) translate(-30 -48)" onmousedown="handlePan(0,1)">
                  <use xlink:href="#rim" fill="#404040">
                        <set attributeName="fill" to="#808080" begin="arrowDown.mouseover" end="arrowDown.mouseout"/>
                  </use>
                  <path fill="none" stroke="white" stroke-width="1.5" d="M0,-3.0v7 M-2.5,-0.5L0,-3.0L2.5,-0.5"/>
                </g>
                <g id="arrowLeft" xlink:href="#dirArrow" transform="rotate(270) translate(-36 17)" onmousedown="handlePan(-1,0)">
                  <use xlink:href="#rim" fill="#404040">
                        <set attributeName="fill" to="#808080" begin="arrowLeft.mouseover" end="arrowLeft.mouseout"/>
                  </use>
                  <path fill="none" stroke="white" stroke-width="1.5" d="M0,-3.0v7 M-2.5,-0.5L0,-3.0L2.5,-0.5"/>
                </g>
        </g>
        <svg viewBox="0 0 15 15" width="100%" height="30px" preserveAspectRatio="xMaxYMin meet">
         <g id="arrow_out" transform="scale(0.3 0.3)">
          <a xlink:href="_g_u_i___debug_options_8cpp__incl_org.svg" target="_base">
           <rect id="button" ry="5" rx="5" y="6" x="6" height="38" width="38"
                fill="#f2f5e9" fill-opacity="0.5" stroke="#606060" stroke-width="1.0"/>
           <path id="arrow"
             d="M 11.500037,31.436501 C 11.940474,20.09759 22.043105,11.32322 32.158766,21.979434 L 37.068811,17.246167 C 37.068811,17.246167 37.088388,32 37.088388,32 L 22.160133,31.978069 C 22.160133,31.978069 26.997745,27.140456 26.997745,27.140456 C 18.528582,18.264221 13.291696,25.230495 11.500037,31.436501 z"
             style="fill:#404040;"/>
          </a>
         </g>
        </svg>
</svg>
