<?xml version="1.0" encoding="UTF-8" standalone="no"?>
<!DOCTYPE svg PUBLIC "-//W3C//DTD SVG 1.1//EN"
 "http://www.w3.org/Graphics/SVG/1.1/DTD/svg11.dtd">
<!-- Generated by graphviz version 2.36.0 (20140111.2315)
 -->
<!-- Title: source/main/gui/panels/GUI_MainSelectorLayout.h Pages: 1 -->
<svg width="1018pt" height="176pt"
 viewBox="0.00 0.00 1018.00 176.00" xmlns="http://www.w3.org/2000/svg" xmlns:xlink="http://www.w3.org/1999/xlink">
<g id="graph0" class="graph" transform="scale(1 1) rotate(0) translate(4 172)">
<title>source/main/gui/panels/GUI_MainSelectorLayout.h</title>
<polygon fill="white" stroke="none" points="-4,4 -4,-172 1014,-172 1014,4 -4,4"/>
<!-- Node1 -->
<g id="node1" class="node"><title>Node1</title>
<polygon fill="#bfbfbf" stroke="black" points="536.5,-137 536.5,-167 673.5,-167 673.5,-137 536.5,-137"/>
<text text-anchor="start" x="544.5" y="-155" font-family="Helvetica,sans-Serif" font-size="10.00">source/main/gui/panels</text>
<text text-anchor="middle" x="605" y="-144" font-family="Helvetica,sans-Serif" font-size="10.00">/GUI_MainSelectorLayout.h</text>
</g>
<!-- Node2 -->
<g id="node2" class="node"><title>Node2</title>
<g id="a_node2"><a xlink:href="_g_u_i___main_selector_8h.html" target="_top" xlink:title="source/main/gui/panels\l/GUI_MainSelector.h">
<polygon fill="white" stroke="black" points="471.5,-69 471.5,-99 588.5,-99 588.5,-69 471.5,-69"/>
<text text-anchor="start" x="479.5" y="-87" font-family="Helvetica,sans-Serif" font-size="10.00">source/main/gui/panels</text>
<text text-anchor="middle" x="530" y="-76" font-family="Helvetica,sans-Serif" font-size="10.00">/GUI_MainSelector.h</text>
</a>
</g>
</g>
<!-- Node1&#45;&gt;Node2 -->
<g id="edge1" class="edge"><title>Node1&#45;&gt;Node2</title>
<path fill="none" stroke="midnightblue" d="M581.157,-130.018C569.676,-119.915 556.215,-108.07 545.984,-99.0663"/>
<polygon fill="midnightblue" stroke="midnightblue" points="578.907,-132.7 588.726,-136.679 583.531,-127.445 578.907,-132.7"/>
</g>
<!-- Node10 -->
<g id="node10" class="node"><title>Node10</title>
<g id="a_node10"><a xlink:href="_g_u_i___main_selector_layout_8cpp.html" target="_top" xlink:title="source/main/gui/panels\l/GUI_MainSelectorLayout.cpp">
<polygon fill="white" stroke="black" points="607,-69 607,-99 755,-99 755,-69 607,-69"/>
<text text-anchor="start" x="615" y="-87" font-family="Helvetica,sans-Serif" font-size="10.00">source/main/gui/panels</text>
<text text-anchor="middle" x="681" y="-76" font-family="Helvetica,sans-Serif" font-size="10.00">/GUI_MainSelectorLayout.cpp</text>
</a>
</g>
</g>
<!-- Node1&#45;&gt;Node10 -->
<g id="edge9" class="edge"><title>Node1&#45;&gt;Node10</title>
<path fill="none" stroke="midnightblue" d="M629.161,-130.018C640.795,-119.915 654.435,-108.07 664.802,-99.0663"/>
<polygon fill="midnightblue" stroke="midnightblue" points="626.746,-127.479 621.491,-136.679 631.336,-132.765 626.746,-127.479"/>
</g>
<!-- Node3 -->
<g id="node3" class="node"><title>Node3</title>
<g id="a_node3"><a xlink:href="_ro_r_frame_listener_8cpp.html" target="_top" xlink:title="source/main/gameplay\l/RoRFrameListener.cpp">
<polygon fill="white" stroke="black" points="-0.5,-1 -0.5,-31 120.5,-31 120.5,-1 -0.5,-1"/>
<text text-anchor="start" x="7.5" y="-19" font-family="Helvetica,sans-Serif" font-size="10.00">source/main/gameplay</text>
<text text-anchor="middle" x="60" y="-8" font-family="Helvetica,sans-Serif" font-size="10.00">/RoRFrameListener.cpp</text>
</a>
</g>
</g>
<!-- Node2&#45;&gt;Node3 -->
<g id="edge2" class="edge"><title>Node2&#45;&gt;Node3</title>
<path fill="none" stroke="midnightblue" d="M461.361,-76.1197C381.292,-67.6665 245.072,-51.9583 129,-32 126.221,-31.5222 123.385,-31.0092 120.523,-30.4711"/>
<polygon fill="midnightblue" stroke="midnightblue" points="461.01,-79.602 471.321,-77.1643 461.74,-72.6402 461.01,-79.602"/>
</g>
<!-- Node4 -->
<g id="node4" class="node"><title>Node4</title>
<g id="a_node4"><a xlink:href="_g_u_i_manager_8cpp.html" target="_top" xlink:title="source/main/gui/GUIManager.cpp">
<polygon fill="white" stroke="black" points="138.5,-6.5 138.5,-25.5 301.5,-25.5 301.5,-6.5 138.5,-6.5"/>
<text text-anchor="middle" x="220" y="-13.5" font-family="Helvetica,sans-Serif" font-size="10.00">source/main/gui/GUIManager.cpp</text>
</a>
</g>
</g>
<!-- Node2&#45;&gt;Node4 -->
<g id="edge3" class="edge"><title>Node2&#45;&gt;Node4</title>
<path fill="none" stroke="midnightblue" d="M461.281,-68.3695C399.571,-55.2313 311.085,-36.3924 260.189,-25.5565"/>
<polygon fill="midnightblue" stroke="midnightblue" points="460.817,-71.8492 471.327,-70.5083 462.275,-65.0026 460.817,-71.8492"/>
</g>
<!-- Node5 -->
<g id="node5" class="node"><title>Node5</title>
<g id="a_node5"><a xlink:href="_g_u_i___game_main_menu_8cpp.html" target="_top" xlink:title="source/main/gui/panels\l/GUI_GameMainMenu.cpp">
<polygon fill="white" stroke="black" points="319.5,-1 319.5,-31 452.5,-31 452.5,-1 319.5,-1"/>
<text text-anchor="start" x="327.5" y="-19" font-family="Helvetica,sans-Serif" font-size="10.00">source/main/gui/panels</text>
<text text-anchor="middle" x="386" y="-8" font-family="Helvetica,sans-Serif" font-size="10.00">/GUI_GameMainMenu.cpp</text>
</a>
</g>
</g>
<!-- Node2&#45;&gt;Node5 -->
<g id="edge4" class="edge"><title>Node2&#45;&gt;Node5</title>
<path fill="none" stroke="midnightblue" d="M489.902,-64.6218C466.791,-54.0292 438.183,-40.9173 416.841,-31.1352"/>
<polygon fill="midnightblue" stroke="midnightblue" points="488.559,-67.8565 499.108,-68.8413 491.476,-61.493 488.559,-67.8565"/>
</g>
<!-- Node6 -->
<g id="node6" class="node"><title>Node6</title>
<g id="a_node6"><a xlink:href="_g_u_i___main_selector_8cpp.html" target="_top" xlink:title="source/main/gui/panels\l/GUI_MainSelector.cpp">
<polygon fill="white" stroke="black" points="470.5,-1 470.5,-31 589.5,-31 589.5,-1 470.5,-1"/>
<text text-anchor="start" x="478.5" y="-19" font-family="Helvetica,sans-Serif" font-size="10.00">source/main/gui/panels</text>
<text text-anchor="middle" x="530" y="-8" font-family="Helvetica,sans-Serif" font-size="10.00">/GUI_MainSelector.cpp</text>
</a>
</g>
</g>
<!-- Node2&#45;&gt;Node6 -->
<g id="edge5" class="edge"><title>Node2&#45;&gt;Node6</title>
<path fill="none" stroke="midnightblue" d="M530,-58.5322C530,-49.3606 530,-39.2449 530,-31.2931"/>
<polygon fill="midnightblue" stroke="midnightblue" points="526.5,-58.6789 530,-68.679 533.5,-58.679 526.5,-58.6789"/>
</g>
<!-- Node7 -->
<g id="node7" class="node"><title>Node7</title>
<g id="a_node7"><a xlink:href="_g_u_i___top_menubar_8cpp.html" target="_top" xlink:title="source/main/gui/panels\l/GUI_TopMenubar.cpp">
<polygon fill="white" stroke="black" points="607.5,-1 607.5,-31 724.5,-31 724.5,-1 607.5,-1"/>
<text text-anchor="start" x="615.5" y="-19" font-family="Helvetica,sans-Serif" font-size="10.00">source/main/gui/panels</text>
<text text-anchor="middle" x="666" y="-8" font-family="Helvetica,sans-Serif" font-size="10.00">/GUI_TopMenubar.cpp</text>
</a>
</g>
</g>
<!-- Node2&#45;&gt;Node7 -->
<g id="edge6" class="edge"><title>Node2&#45;&gt;Node7</title>
<path fill="none" stroke="midnightblue" d="M568.453,-64.3388C590.177,-53.7964 616.895,-40.8303 636.873,-31.1352"/>
<polygon fill="midnightblue" stroke="midnightblue" points="566.644,-61.3265 559.175,-68.8413 569.7,-67.6241 566.644,-61.3265"/>
</g>
<!-- Node8 -->
<g id="node8" class="node"><title>Node8</title>
<g id="a_node8"><a xlink:href="main_8cpp.html" target="_top" xlink:title="source/main/main.cpp">
<polygon fill="white" stroke="black" points="742.5,-6.5 742.5,-25.5 855.5,-25.5 855.5,-6.5 742.5,-6.5"/>
<text text-anchor="middle" x="799" y="-13.5" font-family="Helvetica,sans-Serif" font-size="10.00">source/main/main.cpp</text>
</a>
</g>
</g>
<!-- Node2&#45;&gt;Node8 -->
<g id="edge7" class="edge"><title>Node2&#45;&gt;Node8</title>
<path fill="none" stroke="midnightblue" d="M597.39,-66.4656C650.453,-53.4466 722.251,-35.8305 764.3,-25.5138"/>
<polygon fill="midnightblue" stroke="midnightblue" points="596.255,-63.1402 587.377,-68.9223 597.923,-69.9385 596.255,-63.1402"/>
</g>
<!-- Node9 -->
<g id="node9" class="node"><title>Node9</title>
<g id="a_node9"><a xlink:href="_main_menu_8cpp.html" target="_top" xlink:title="source/main/MainMenu.cpp">
<polygon fill="white" stroke="black" points="873.5,-6.5 873.5,-25.5 1010.5,-25.5 1010.5,-6.5 873.5,-6.5"/>
<text text-anchor="middle" x="942" y="-13.5" font-family="Helvetica,sans-Serif" font-size="10.00">source/main/MainMenu.cpp</text>
</a>
</g>
</g>
<!-- Node2&#45;&gt;Node9 -->
<g id="edge8" class="edge"><title>Node2&#45;&gt;Node9</title>
<path fill="none" stroke="midnightblue" d="M598.743,-67.9667C717.211,-47.3419 749.486,-50.7452 864,-32 875.703,-30.0842 888.346,-27.7628 899.977,-25.5245"/>
<polygon fill="midnightblue" stroke="midnightblue" points="597.785,-64.5816 588.544,-69.7641 599,-71.4753 597.785,-64.5816"/>
</g>
</g>
</svg>
