<?xml version="1.0" encoding="UTF-8" standalone="no"?>
<!DOCTYPE svg PUBLIC "-//W3C//DTD SVG 1.1//EN"
 "http://www.w3.org/Graphics/SVG/1.1/DTD/svg11.dtd">
<!-- Generated by graphviz version 2.36.0 (20140111.2315)
 -->
<!-- Title: source/main/gui/GUIManager.h Pages: 1 -->
<svg width="5870pt" height="96pt"
 viewBox="0.00 0.00 5870.00 96.00" xmlns="http://www.w3.org/2000/svg" xmlns:xlink="http://www.w3.org/1999/xlink">
<g id="graph0" class="graph" transform="scale(1 1) rotate(0) translate(4 92)">
<title>source/main/gui/GUIManager.h</title>
<polygon fill="white" stroke="none" points="-4,4 -4,-92 5866,-92 5866,4 -4,4"/>
<!-- Node1 -->
<g id="node1" class="node"><title>Node1</title>
<polygon fill="#bfbfbf" stroke="black" points="2911,-68.5 2911,-87.5 3063,-87.5 3063,-68.5 2911,-68.5"/>
<text text-anchor="middle" x="2987" y="-75.5" font-family="Helvetica,sans-Serif" font-size="10.00">source/main/gui/GUIManager.h</text>
</g>
<!-- Node2 -->
<g id="node2" class="node"><title>Node2</title>
<g id="a_node2"><a xlink:href="_application_8cpp.html" target="_top" xlink:title="source/main/Application.cpp">
<polygon fill="white" stroke="black" points="0,-6.5 0,-25.5 140,-25.5 140,-6.5 0,-6.5"/>
<text text-anchor="middle" x="70" y="-13.5" font-family="Helvetica,sans-Serif" font-size="10.00">source/main/Application.cpp</text>
</a>
</g>
</g>
<!-- Node1&#45;&gt;Node2 -->
<g id="edge1" class="edge"><title>Node1&#45;&gt;Node2</title>
<path fill="none" stroke="midnightblue" d="M2900.53,-76.5145C2454.94,-73.8936 427.991,-60.485 149,-32 135.39,-30.6104 120.623,-28.0865 107.579,-25.5004"/>
<polygon fill="midnightblue" stroke="midnightblue" points="2900.74,-80.0157 2910.76,-76.5744 2900.78,-73.0158 2900.74,-80.0157"/>
</g>
<!-- Node3 -->
<g id="node3" class="node"><title>Node3</title>
<g id="a_node3"><a xlink:href="_chat_system_8cpp.html" target="_top" xlink:title="source/main/gameplay\l/ChatSystem.cpp">
<polygon fill="white" stroke="black" points="158.5,-1 158.5,-31 273.5,-31 273.5,-1 158.5,-1"/>
<text text-anchor="start" x="166.5" y="-19" font-family="Helvetica,sans-Serif" font-size="10.00">source/main/gameplay</text>
<text text-anchor="middle" x="216" y="-8" font-family="Helvetica,sans-Serif" font-size="10.00">/ChatSystem.cpp</text>
</a>
</g>
</g>
<!-- Node1&#45;&gt;Node3 -->
<g id="edge2" class="edge"><title>Node1&#45;&gt;Node3</title>
<path fill="none" stroke="midnightblue" d="M2900.74,-76.6266C2468.29,-74.6119 546.59,-63.919 282,-32 279.317,-31.6763 276.583,-31.2897 273.829,-30.8541"/>
<polygon fill="midnightblue" stroke="midnightblue" points="2900.96,-80.1276 2910.98,-76.674 2901,-73.1276 2900.96,-80.1276"/>
</g>
<!-- Node4 -->
<g id="node4" class="node"><title>Node4</title>
<g id="a_node4"><a xlink:href="_land_vehicle_simulation_8cpp.html" target="_top" xlink:title="source/main/gameplay\l/LandVehicleSimulation.cpp">
<polygon fill="white" stroke="black" points="291.5,-1 291.5,-31 428.5,-31 428.5,-1 291.5,-1"/>
<text text-anchor="start" x="299.5" y="-19" font-family="Helvetica,sans-Serif" font-size="10.00">source/main/gameplay</text>
<text text-anchor="middle" x="360" y="-8" font-family="Helvetica,sans-Serif" font-size="10.00">/LandVehicleSimulation.cpp</text>
</a>
</g>
</g>
<!-- Node1&#45;&gt;Node4 -->
<g id="edge3" class="edge"><title>Node1&#45;&gt;Node4</title>
<path fill="none" stroke="midnightblue" d="M2900.65,-76.3732C2483.4,-73.2235 685.841,-58.2299 437,-32 434.291,-31.7145 431.536,-31.382 428.757,-31.0117"/>
<polygon fill="midnightblue" stroke="midnightblue" points="2900.81,-79.8744 2910.84,-76.4498 2900.86,-72.8746 2900.81,-79.8744"/>
</g>
<!-- Node5 -->
<g id="node5" class="node"><title>Node5</title>
<g id="a_node5"><a xlink:href="_replay_8cpp.html" target="_top" xlink:title="source/main/gameplay\l/Replay.cpp">
<polygon fill="white" stroke="black" points="446.5,-1 446.5,-31 561.5,-31 561.5,-1 446.5,-1"/>
<text text-anchor="start" x="454.5" y="-19" font-family="Helvetica,sans-Serif" font-size="10.00">source/main/gameplay</text>
<text text-anchor="middle" x="504" y="-8" font-family="Helvetica,sans-Serif" font-size="10.00">/Replay.cpp</text>
</a>
</g>
</g>
<!-- Node1&#45;&gt;Node5 -->
<g id="edge4" class="edge"><title>Node1&#45;&gt;Node5</title>
<path fill="none" stroke="midnightblue" d="M2900.56,-76.441C2496.6,-73.6869 804.541,-60.5297 570,-32 567.317,-31.6737 564.584,-31.2849 561.83,-30.8475"/>
<polygon fill="midnightblue" stroke="midnightblue" points="2900.69,-79.9419 2910.72,-76.5099 2900.74,-72.9421 2900.69,-79.9419"/>
</g>
<!-- Node6 -->
<g id="node6" class="node"><title>Node6</title>
<g id="a_node6"><a xlink:href="_ro_r_frame_listener_8cpp.html" target="_top" xlink:title="source/main/gameplay\l/RoRFrameListener.cpp">
<polygon fill="white" stroke="black" points="579.5,-1 579.5,-31 700.5,-31 700.5,-1 579.5,-1"/>
<text text-anchor="start" x="587.5" y="-19" font-family="Helvetica,sans-Serif" font-size="10.00">source/main/gameplay</text>
<text text-anchor="middle" x="640" y="-8" font-family="Helvetica,sans-Serif" font-size="10.00">/RoRFrameListener.cpp</text>
</a>
</g>
</g>
<!-- Node1&#45;&gt;Node6 -->
<g id="edge5" class="edge"><title>Node1&#45;&gt;Node6</title>
<path fill="none" stroke="midnightblue" d="M2900.8,-76.2893C2511.78,-72.9477 929.26,-57.8677 709,-32 706.321,-31.6854 703.594,-31.3141 700.845,-30.8982"/>
<polygon fill="midnightblue" stroke="midnightblue" points="2900.83,-79.7896 2910.86,-76.3754 2900.89,-72.7899 2900.83,-79.7896"/>
</g>
<!-- Node7 -->
<g id="node7" class="node"><title>Node7</title>
<g id="a_node7"><a xlink:href="_scene_mouse_8cpp.html" target="_top" xlink:title="source/main/gameplay\l/SceneMouse.cpp">
<polygon fill="white" stroke="black" points="718.5,-1 718.5,-31 833.5,-31 833.5,-1 718.5,-1"/>
<text text-anchor="start" x="726.5" y="-19" font-family="Helvetica,sans-Serif" font-size="10.00">source/main/gameplay</text>
<text text-anchor="middle" x="776" y="-8" font-family="Helvetica,sans-Serif" font-size="10.00">/SceneMouse.cpp</text>
</a>
</g>
</g>
<!-- Node1&#45;&gt;Node7 -->
<g id="edge6" class="edge"><title>Node1&#45;&gt;Node7</title>
<path fill="none" stroke="midnightblue" d="M2900.66,-76.2222C2525.71,-72.7041 1048.31,-57.3431 842,-32 839.318,-31.6705 836.584,-31.2791 833.831,-30.8396"/>
<polygon fill="midnightblue" stroke="midnightblue" points="2900.87,-79.7242 2910.9,-76.3179 2900.93,-72.7245 2900.87,-79.7242"/>
</g>
<!-- Node8 -->
<g id="node8" class="node"><title>Node8</title>
<g id="a_node8"><a xlink:href="_camera_behavior_fixed_8cpp.html" target="_top" xlink:title="source/main/gfx/camera\l/CameraBehaviorFixed.cpp">
<polygon fill="white" stroke="black" points="851.5,-1 851.5,-31 986.5,-31 986.5,-1 851.5,-1"/>
<text text-anchor="start" x="859.5" y="-19" font-family="Helvetica,sans-Serif" font-size="10.00">source/main/gfx/camera</text>
<text text-anchor="middle" x="919" y="-8" font-family="Helvetica,sans-Serif" font-size="10.00">/CameraBehaviorFixed.cpp</text>
</a>
</g>
</g>
<!-- Node1&#45;&gt;Node8 -->
<g id="edge7" class="edge"><title>Node1&#45;&gt;Node8</title>
<path fill="none" stroke="midnightblue" d="M2900.82,-77.0293C2568.84,-76.8354 1372.69,-73.2265 995,-32 992.326,-31.7081 989.606,-31.3703 986.864,-30.9955"/>
<polygon fill="midnightblue" stroke="midnightblue" points="2900.85,-80.5292 2910.85,-77.0343 2900.85,-73.5292 2900.85,-80.5292"/>
</g>
<!-- Node9 -->
<g id="node9" class="node"><title>Node9</title>
<g id="a_node9"><a xlink:href="_camera_behavior_free_8cpp.html" target="_top" xlink:title="source/main/gfx/camera\l/CameraBehaviorFree.cpp">
<polygon fill="white" stroke="black" points="1004.5,-1 1004.5,-31 1135.5,-31 1135.5,-1 1004.5,-1"/>
<text text-anchor="start" x="1012.5" y="-19" font-family="Helvetica,sans-Serif" font-size="10.00">source/main/gfx/camera</text>
<text text-anchor="middle" x="1070" y="-8" font-family="Helvetica,sans-Serif" font-size="10.00">/CameraBehaviorFree.cpp</text>
</a>
</g>
</g>
<!-- Node1&#45;&gt;Node9 -->
<g id="edge8" class="edge"><title>Node1&#45;&gt;Node9</title>
<path fill="none" stroke="midnightblue" d="M2900.77,-76.8722C2584.94,-76.0959 1491.74,-70.6159 1145,-32 1141.96,-31.662 1138.87,-31.2636 1135.75,-30.8184"/>
<polygon fill="midnightblue" stroke="midnightblue" points="2900.77,-80.3721 2910.78,-76.8959 2900.79,-73.3722 2900.77,-80.3721"/>
</g>
<!-- Node10 -->
<g id="node10" class="node"><title>Node10</title>
<g id="a_node10"><a xlink:href="_camera_behavior_isometric_8cpp.html" target="_top" xlink:title="source/main/gfx/camera\l/CameraBehaviorIsometric.cpp">
<polygon fill="white" stroke="black" points="1154,-1 1154,-31 1306,-31 1306,-1 1154,-1"/>
<text text-anchor="start" x="1162" y="-19" font-family="Helvetica,sans-Serif" font-size="10.00">source/main/gfx/camera</text>
<text text-anchor="middle" x="1230" y="-8" font-family="Helvetica,sans-Serif" font-size="10.00">/CameraBehaviorIsometric.cpp</text>
</a>
</g>
</g>
<!-- Node1&#45;&gt;Node10 -->
<g id="edge9" class="edge"><title>Node1&#45;&gt;Node10</title>
<path fill="none" stroke="midnightblue" d="M2900.41,-76.3608C2603.4,-73.9033 1627.11,-63.5648 1315,-32 1312.17,-31.7135 1309.29,-31.3869 1306.38,-31.0278"/>
<polygon fill="midnightblue" stroke="midnightblue" points="2900.66,-79.8628 2910.69,-76.4449 2900.71,-72.8631 2900.66,-79.8628"/>
</g>
<!-- Node11 -->
<g id="node11" class="node"><title>Node11</title>
<g id="a_node11"><a xlink:href="_camera_behavior_orbit_8cpp.html" target="_top" xlink:title="source/main/gfx/camera\l/CameraBehaviorOrbit.cpp">
<polygon fill="white" stroke="black" points="1324,-1 1324,-31 1456,-31 1456,-1 1324,-1"/>
<text text-anchor="start" x="1332" y="-19" font-family="Helvetica,sans-Serif" font-size="10.00">source/main/gfx/camera</text>
<text text-anchor="middle" x="1390" y="-8" font-family="Helvetica,sans-Serif" font-size="10.00">/CameraBehaviorOrbit.cpp</text>
</a>
</g>
</g>
<!-- Node1&#45;&gt;Node11 -->
<g id="edge10" class="edge"><title>Node1&#45;&gt;Node11</title>
<path fill="none" stroke="midnightblue" d="M2900.64,-76.3535C2621.63,-73.9647 1746.17,-64.0443 1465,-32 1462.1,-31.6692 1459.14,-31.2845 1456.16,-30.8576"/>
<polygon fill="midnightblue" stroke="midnightblue" points="2900.68,-79.8539 2910.71,-76.4386 2900.74,-72.8541 2900.68,-79.8539"/>
</g>
<!-- Node12 -->
<g id="node12" class="node"><title>Node12</title>
<g id="a_node12"><a xlink:href="_camera_behavior_vehicle_spline_8cpp.html" target="_top" xlink:title="source/main/gfx/camera\l/CameraBehaviorVehicleSpline.cpp">
<polygon fill="white" stroke="black" points="1474,-1 1474,-31 1644,-31 1644,-1 1474,-1"/>
<text text-anchor="start" x="1482" y="-19" font-family="Helvetica,sans-Serif" font-size="10.00">source/main/gfx/camera</text>
<text text-anchor="middle" x="1559" y="-8" font-family="Helvetica,sans-Serif" font-size="10.00">/CameraBehaviorVehicleSpline.cpp</text>
</a>
</g>
</g>
<!-- Node1&#45;&gt;Node12 -->
<g id="edge11" class="edge"><title>Node1&#45;&gt;Node12</title>
<path fill="none" stroke="midnightblue" d="M2900.66,-75.4942C2645.31,-70.8176 1896.43,-55.4369 1653,-32 1649.96,-31.707 1646.86,-31.378 1643.74,-31.0198"/>
<polygon fill="midnightblue" stroke="midnightblue" points="2900.93,-78.9996 2910.99,-75.6825 2901.06,-72.0007 2900.93,-78.9996"/>
</g>
<!-- Node13 -->
<g id="node13" class="node"><title>Node13</title>
<g id="a_node13"><a xlink:href="_camera_manager_8cpp.html" target="_top" xlink:title="source/main/gfx/camera\l/CameraManager.cpp">
<polygon fill="white" stroke="black" points="1662,-1 1662,-31 1784,-31 1784,-1 1662,-1"/>
<text text-anchor="start" x="1670" y="-19" font-family="Helvetica,sans-Serif" font-size="10.00">source/main/gfx/camera</text>
<text text-anchor="middle" x="1723" y="-8" font-family="Helvetica,sans-Serif" font-size="10.00">/CameraManager.cpp</text>
</a>
</g>
</g>
<!-- Node1&#45;&gt;Node13 -->
<g id="edge12" class="edge"><title>Node1&#45;&gt;Node13</title>
<path fill="none" stroke="midnightblue" d="M2900.34,-75.6857C2663.26,-71.7785 2007.36,-58.8004 1793,-32 1790.16,-31.6454 1787.27,-31.2334 1784.36,-30.7772"/>
<polygon fill="midnightblue" stroke="midnightblue" points="2900.58,-79.19 2910.64,-75.854 2900.69,-72.1909 2900.58,-79.19"/>
</g>
<!-- Node14 -->
<g id="node14" class="node"><title>Node14</title>
<g id="a_node14"><a xlink:href="_g_u_i_input_manager_8cpp.html" target="_top" xlink:title="source/main/gui/GUIInput\lManager.cpp">
<polygon fill="white" stroke="black" points="1802,-1 1802,-31 1930,-31 1930,-1 1802,-1"/>
<text text-anchor="start" x="1810" y="-19" font-family="Helvetica,sans-Serif" font-size="10.00">source/main/gui/GUIInput</text>
<text text-anchor="middle" x="1866" y="-8" font-family="Helvetica,sans-Serif" font-size="10.00">Manager.cpp</text>
</a>
</g>
</g>
<!-- Node1&#45;&gt;Node14 -->
<g id="edge13" class="edge"><title>Node1&#45;&gt;Node14</title>
<path fill="none" stroke="midnightblue" d="M2900.84,-75.0755C2684.82,-69.9649 2124.26,-54.8618 1939,-32 1936.17,-31.6514 1933.3,-31.2519 1930.39,-30.8129"/>
<polygon fill="midnightblue" stroke="midnightblue" points="2900.78,-78.575 2910.86,-75.3113 2900.95,-71.577 2900.78,-78.575"/>
</g>
<!-- Node15 -->
<g id="node15" class="node"><title>Node15</title>
<g id="a_node15"><a xlink:href="_g_u_i_manager_8cpp.html" target="_top" xlink:title="source/main/gui/GUIManager.cpp">
<polygon fill="white" stroke="black" points="1948.5,-6.5 1948.5,-25.5 2111.5,-25.5 2111.5,-6.5 1948.5,-6.5"/>
<text text-anchor="middle" x="2030" y="-13.5" font-family="Helvetica,sans-Serif" font-size="10.00">source/main/gui/GUIManager.cpp</text>
</a>
</g>
</g>
<!-- Node1&#45;&gt;Node15 -->
<g id="edge14" class="edge"><title>Node1&#45;&gt;Node15</title>
<path fill="none" stroke="midnightblue" d="M2900.89,-75.7007C2744.94,-72.6415 2405.5,-62.7432 2121,-32 2106.2,-30.4002 2090.14,-27.9832 2075.69,-25.5538"/>
<polygon fill="midnightblue" stroke="midnightblue" points="2900.83,-79.2 2910.9,-75.8924 2900.97,-72.2013 2900.83,-79.2"/>
</g>
<!-- Node16 -->
<g id="node16" class="node"><title>Node16</title>
<g id="a_node16"><a xlink:href="_g_u_i___friction_settings_8cpp.html" target="_top" xlink:title="source/main/gui/panels\l/GUI_FrictionSettings.cpp">
<polygon fill="white" stroke="black" points="2130,-1 2130,-31 2260,-31 2260,-1 2130,-1"/>
<text text-anchor="start" x="2138" y="-19" font-family="Helvetica,sans-Serif" font-size="10.00">source/main/gui/panels</text>
<text text-anchor="middle" x="2195" y="-8" font-family="Helvetica,sans-Serif" font-size="10.00">/GUI_FrictionSettings.cpp</text>
</a>
</g>
</g>
<!-- Node1&#45;&gt;Node16 -->
<g id="edge15" class="edge"><title>Node1&#45;&gt;Node16</title>
<path fill="none" stroke="midnightblue" d="M2900.65,-75.4145C2765.44,-72.0718 2495.72,-61.9395 2269,-32 2266.14,-31.6225 2263.23,-31.199 2260.29,-30.7404"/>
<polygon fill="midnightblue" stroke="midnightblue" points="2900.86,-78.9205 2910.95,-75.6622 2901.03,-71.9225 2900.86,-78.9205"/>
</g>
<!-- Node17 -->
<g id="node17" class="node"><title>Node17</title>
<g id="a_node17"><a xlink:href="_g_u_i___game_about_8cpp.html" target="_top" xlink:title="source/main/gui/panels\l/GUI_GameAbout.cpp">
<polygon fill="white" stroke="black" points="2278.5,-1 2278.5,-31 2395.5,-31 2395.5,-1 2278.5,-1"/>
<text text-anchor="start" x="2286.5" y="-19" font-family="Helvetica,sans-Serif" font-size="10.00">source/main/gui/panels</text>
<text text-anchor="middle" x="2337" y="-8" font-family="Helvetica,sans-Serif" font-size="10.00">/GUI_GameAbout.cpp</text>
</a>
</g>
</g>
<!-- Node1&#45;&gt;Node17 -->
<g id="edge16" class="edge"><title>Node1&#45;&gt;Node17</title>
<path fill="none" stroke="midnightblue" d="M2900.75,-74.1033C2786.76,-69.4145 2579.92,-57.9244 2405,-32 2401.89,-31.5392 2398.71,-31.0172 2395.51,-30.4513"/>
<polygon fill="midnightblue" stroke="midnightblue" points="2900.69,-77.6033 2910.82,-74.5095 2900.97,-70.609 2900.69,-77.6033"/>
</g>
<!-- Node18 -->
<g id="node18" class="node"><title>Node18</title>
<g id="a_node18"><a xlink:href="_g_u_i___game_chat_box_8cpp.html" target="_top" xlink:title="source/main/gui/panels\l/GUI_GameChatBox.cpp">
<polygon fill="white" stroke="black" points="2414,-1 2414,-31 2540,-31 2540,-1 2414,-1"/>
<text text-anchor="start" x="2422" y="-19" font-family="Helvetica,sans-Serif" font-size="10.00">source/main/gui/panels</text>
<text text-anchor="middle" x="2477" y="-8" font-family="Helvetica,sans-Serif" font-size="10.00">/GUI_GameChatBox.cpp</text>
</a>
</g>
</g>
<!-- Node1&#45;&gt;Node18 -->
<g id="edge17" class="edge"><title>Node1&#45;&gt;Node18</title>
<path fill="none" stroke="midnightblue" d="M2900.73,-70.7762C2812.15,-63.7679 2670.47,-50.8414 2549,-32 2546.1,-31.5499 2543.14,-31.0595 2540.15,-30.5398"/>
<polygon fill="midnightblue" stroke="midnightblue" points="2900.49,-74.2678 2910.73,-71.5601 2901.04,-67.2892 2900.49,-74.2678"/>
</g>
<!-- Node19 -->
<g id="node19" class="node"><title>Node19</title>
<g id="a_node19"><a xlink:href="_g_u_i___game_console_8cpp.html" target="_top" xlink:title="source/main/gui/panels\l/GUI_GameConsole.cpp">
<polygon fill="white" stroke="black" points="2558,-1 2558,-31 2682,-31 2682,-1 2558,-1"/>
<text text-anchor="start" x="2566" y="-19" font-family="Helvetica,sans-Serif" font-size="10.00">source/main/gui/panels</text>
<text text-anchor="middle" x="2620" y="-8" font-family="Helvetica,sans-Serif" font-size="10.00">/GUI_GameConsole.cpp</text>
</a>
</g>
</g>
<!-- Node1&#45;&gt;Node19 -->
<g id="edge18" class="edge"><title>Node1&#45;&gt;Node19</title>
<path fill="none" stroke="midnightblue" d="M2913.75,-67.0556C2853.73,-58.6213 2766.66,-45.7323 2691,-32 2688.15,-31.4825 2685.24,-30.937 2682.3,-30.3726"/>
<polygon fill="midnightblue" stroke="midnightblue" points="2913.5,-70.5545 2923.89,-68.4739 2914.47,-63.622 2913.5,-70.5545"/>
</g>
<!-- Node20 -->
<g id="node20" class="node"><title>Node20</title>
<g id="a_node20"><a xlink:href="_g_u_i___game_main_menu_8cpp.html" target="_top" xlink:title="source/main/gui/panels\l/GUI_GameMainMenu.cpp">
<polygon fill="white" stroke="black" points="2700.5,-1 2700.5,-31 2833.5,-31 2833.5,-1 2700.5,-1"/>
<text text-anchor="start" x="2708.5" y="-19" font-family="Helvetica,sans-Serif" font-size="10.00">source/main/gui/panels</text>
<text text-anchor="middle" x="2767" y="-8" font-family="Helvetica,sans-Serif" font-size="10.00">/GUI_GameMainMenu.cpp</text>
</a>
</g>
</g>
<!-- Node1&#45;&gt;Node20 -->
<g id="edge19" class="edge"><title>Node1&#45;&gt;Node20</title>
<path fill="none" stroke="midnightblue" d="M2945.77,-65.7562C2909.72,-55.9243 2857.22,-41.6041 2818.43,-31.0253"/>
<polygon fill="midnightblue" stroke="midnightblue" points="2944.91,-69.1489 2955.48,-68.4035 2946.75,-62.3955 2944.91,-69.1489"/>
</g>
<!-- Node21 -->
<g id="node21" class="node"><title>Node21</title>
<g id="a_node21"><a xlink:href="_g_u_i___game_settings_8cpp.html" target="_top" xlink:title="source/main/gui/panels\l/GUI_GameSettings.cpp">
<polygon fill="white" stroke="black" points="2852,-1 2852,-31 2976,-31 2976,-1 2852,-1"/>
<text text-anchor="start" x="2860" y="-19" font-family="Helvetica,sans-Serif" font-size="10.00">source/main/gui/panels</text>
<text text-anchor="middle" x="2914" y="-8" font-family="Helvetica,sans-Serif" font-size="10.00">/GUI_GameSettings.cpp</text>
</a>
</g>
</g>
<!-- Node1&#45;&gt;Node21 -->
<g id="edge20" class="edge"><title>Node1&#45;&gt;Node21</title>
<path fill="none" stroke="midnightblue" d="M2968.5,-61.7947C2957.04,-52.3738 2942.42,-40.3562 2931.2,-31.1408"/>
<polygon fill="midnightblue" stroke="midnightblue" points="2966.59,-64.7577 2976.54,-68.4035 2971.04,-59.3499 2966.59,-64.7577"/>
</g>
<!-- Node22 -->
<g id="node22" class="node"><title>Node22</title>
<g id="a_node22"><a xlink:href="_g_u_i___loading_window_8cpp.html" target="_top" xlink:title="source/main/gui/panels\l/GUI_LoadingWindow.cpp">
<polygon fill="white" stroke="black" points="2994.5,-1 2994.5,-31 3125.5,-31 3125.5,-1 2994.5,-1"/>
<text text-anchor="start" x="3002.5" y="-19" font-family="Helvetica,sans-Serif" font-size="10.00">source/main/gui/panels</text>
<text text-anchor="middle" x="3060" y="-8" font-family="Helvetica,sans-Serif" font-size="10.00">/GUI_LoadingWindow.cpp</text>
</a>
</g>
</g>
<!-- Node1&#45;&gt;Node22 -->
<g id="edge21" class="edge"><title>Node1&#45;&gt;Node22</title>
<path fill="none" stroke="midnightblue" d="M3005.5,-61.7947C3016.96,-52.3738 3031.58,-40.3562 3042.8,-31.1408"/>
<polygon fill="midnightblue" stroke="midnightblue" points="3002.96,-59.3499 2997.46,-68.4035 3007.41,-64.7577 3002.96,-59.3499"/>
</g>
<!-- Node23 -->
<g id="node23" class="node"><title>Node23</title>
<g id="a_node23"><a xlink:href="_g_u_i___main_selector_8cpp.html" target="_top" xlink:title="source/main/gui/panels\l/GUI_MainSelector.cpp">
<polygon fill="white" stroke="black" points="3143.5,-1 3143.5,-31 3262.5,-31 3262.5,-1 3143.5,-1"/>
<text text-anchor="start" x="3151.5" y="-19" font-family="Helvetica,sans-Serif" font-size="10.00">source/main/gui/panels</text>
<text text-anchor="middle" x="3203" y="-8" font-family="Helvetica,sans-Serif" font-size="10.00">/GUI_MainSelector.cpp</text>
</a>
</g>
</g>
<!-- Node1&#45;&gt;Node23 -->
<g id="edge22" class="edge"><title>Node1&#45;&gt;Node23</title>
<path fill="none" stroke="midnightblue" d="M3027.93,-65.6299C3063.31,-55.802 3114.59,-41.5589 3152.51,-31.0253"/>
<polygon fill="midnightblue" stroke="midnightblue" points="3026.65,-62.3546 3017.95,-68.4035 3028.52,-69.0993 3026.65,-62.3546"/>
</g>
<!-- Node24 -->
<g id="node24" class="node"><title>Node24</title>
<g id="a_node24"><a xlink:href="_g_u_i___message_box_8cpp.html" target="_top" xlink:title="source/main/gui/panels\l/GUI_MessageBox.cpp">
<polygon fill="white" stroke="black" points="3280.5,-1 3280.5,-31 3399.5,-31 3399.5,-1 3280.5,-1"/>
<text text-anchor="start" x="3288.5" y="-19" font-family="Helvetica,sans-Serif" font-size="10.00">source/main/gui/panels</text>
<text text-anchor="middle" x="3340" y="-8" font-family="Helvetica,sans-Serif" font-size="10.00">/GUI_MessageBox.cpp</text>
</a>
</g>
</g>
<!-- Node1&#45;&gt;Node24 -->
<g id="edge23" class="edge"><title>Node1&#45;&gt;Node24</title>
<path fill="none" stroke="midnightblue" d="M3057.37,-66.9883C3114.96,-58.5217 3198.45,-45.6224 3271,-32 3274.01,-31.4344 3277.09,-30.8363 3280.2,-30.2173"/>
<polygon fill="midnightblue" stroke="midnightblue" points="3056.67,-63.5529 3047.28,-68.4645 3057.69,-70.4791 3056.67,-63.5529"/>
</g>
<!-- Node25 -->
<g id="node25" class="node"><title>Node25</title>
<g id="a_node25"><a xlink:href="_g_u_i___multiplayer_client_list_8cpp.html" target="_top" xlink:title="source/main/gui/panels\l/GUI_MultiplayerClientList.cpp">
<polygon fill="white" stroke="black" points="3418,-1 3418,-31 3568,-31 3568,-1 3418,-1"/>
<text text-anchor="start" x="3426" y="-19" font-family="Helvetica,sans-Serif" font-size="10.00">source/main/gui/panels</text>
<text text-anchor="middle" x="3493" y="-8" font-family="Helvetica,sans-Serif" font-size="10.00">/GUI_MultiplayerClientList.cpp</text>
</a>
</g>
</g>
<!-- Node1&#45;&gt;Node25 -->
<g id="edge24" class="edge"><title>Node1&#45;&gt;Node25</title>
<path fill="none" stroke="midnightblue" d="M3073.4,-69.5017C3158.65,-61.694 3292.6,-48.3302 3408,-32 3411.26,-31.5381 3414.6,-31.0448 3417.96,-30.5289"/>
<polygon fill="midnightblue" stroke="midnightblue" points="3072.89,-66.0335 3063.25,-70.4261 3073.52,-73.0047 3072.89,-66.0335"/>
</g>
<!-- Node26 -->
<g id="node26" class="node"><title>Node26</title>
<g id="a_node26"><a xlink:href="_g_u_i___multiplayer_selector_8cpp.html" target="_top" xlink:title="source/main/gui/panels\l/GUI_MultiplayerSelector.cpp">
<polygon fill="white" stroke="black" points="3586.5,-1 3586.5,-31 3731.5,-31 3731.5,-1 3586.5,-1"/>
<text text-anchor="start" x="3594.5" y="-19" font-family="Helvetica,sans-Serif" font-size="10.00">source/main/gui/panels</text>
<text text-anchor="middle" x="3659" y="-8" font-family="Helvetica,sans-Serif" font-size="10.00">/GUI_MultiplayerSelector.cpp</text>
</a>
</g>
</g>
<!-- Node1&#45;&gt;Node26 -->
<g id="edge25" class="edge"><title>Node1&#45;&gt;Node26</title>
<path fill="none" stroke="midnightblue" d="M3073.18,-73.1877C3188.18,-67.4678 3398.02,-54.8207 3576,-32 3579.34,-31.5717 3582.75,-31.0992 3586.19,-30.5941"/>
<polygon fill="midnightblue" stroke="midnightblue" points="3072.85,-69.6999 3063.03,-73.6868 3073.19,-76.6914 3072.85,-69.6999"/>
</g>
<!-- Node27 -->
<g id="node27" class="node"><title>Node27</title>
<g id="a_node27"><a xlink:href="_g_u_i___sim_utils_8cpp.html" target="_top" xlink:title="source/main/gui/panels\l/GUI_SimUtils.cpp">
<polygon fill="white" stroke="black" points="3749.5,-1 3749.5,-31 3866.5,-31 3866.5,-1 3749.5,-1"/>
<text text-anchor="start" x="3757.5" y="-19" font-family="Helvetica,sans-Serif" font-size="10.00">source/main/gui/panels</text>
<text text-anchor="middle" x="3808" y="-8" font-family="Helvetica,sans-Serif" font-size="10.00">/GUI_SimUtils.cpp</text>
</a>
</g>
</g>
<!-- Node1&#45;&gt;Node27 -->
<g id="edge26" class="edge"><title>Node1&#45;&gt;Node27</title>
<path fill="none" stroke="midnightblue" d="M3073.27,-76.2487C3213.67,-74.0404 3500.04,-65.424 3740,-32 3742.99,-31.583 3746.05,-31.1045 3749.13,-30.5803"/>
<polygon fill="midnightblue" stroke="midnightblue" points="3072.95,-72.753 3063.01,-76.4028 3073.06,-79.7522 3072.95,-72.753"/>
</g>
<!-- Node28 -->
<g id="node28" class="node"><title>Node28</title>
<g id="a_node28"><a xlink:href="_g_u_i___teleport_window_8cpp.html" target="_top" xlink:title="source/main/gui/panels\l/GUI_TeleportWindow.cpp">
<polygon fill="white" stroke="black" points="3885,-1 3885,-31 4017,-31 4017,-1 3885,-1"/>
<text text-anchor="start" x="3893" y="-19" font-family="Helvetica,sans-Serif" font-size="10.00">source/main/gui/panels</text>
<text text-anchor="middle" x="3951" y="-8" font-family="Helvetica,sans-Serif" font-size="10.00">/GUI_TeleportWindow.cpp</text>
</a>
</g>
</g>
<!-- Node1&#45;&gt;Node28 -->
<g id="edge27" class="edge"><title>Node1&#45;&gt;Node28</title>
<path fill="none" stroke="midnightblue" d="M3073.25,-76.7504C3232.34,-75.3763 3582.49,-68.0871 3875,-32 3878.2,-31.6048 3881.47,-31.1519 3884.77,-30.6555"/>
<polygon fill="midnightblue" stroke="midnightblue" points="3073.02,-73.252 3063.05,-76.8326 3073.07,-80.2518 3073.02,-73.252"/>
</g>
<!-- Node29 -->
<g id="node29" class="node"><title>Node29</title>
<g id="a_node29"><a xlink:href="_g_u_i___top_menubar_8cpp.html" target="_top" xlink:title="source/main/gui/panels\l/GUI_TopMenubar.cpp">
<polygon fill="white" stroke="black" points="4035.5,-1 4035.5,-31 4152.5,-31 4152.5,-1 4035.5,-1"/>
<text text-anchor="start" x="4043.5" y="-19" font-family="Helvetica,sans-Serif" font-size="10.00">source/main/gui/panels</text>
<text text-anchor="middle" x="4094" y="-8" font-family="Helvetica,sans-Serif" font-size="10.00">/GUI_TopMenubar.cpp</text>
</a>
</g>
</g>
<!-- Node1&#45;&gt;Node29 -->
<g id="edge28" class="edge"><title>Node1&#45;&gt;Node29</title>
<path fill="none" stroke="midnightblue" d="M3073.53,-75.1898C3288.53,-70.3801 3842.82,-55.9858 4026,-32 4029,-31.6076 4032.06,-31.1488 4035.14,-30.6403"/>
<polygon fill="midnightblue" stroke="midnightblue" points="3073.17,-71.697 3063.25,-75.4183 3073.32,-78.6952 3073.17,-71.697"/>
</g>
<!-- Node30 -->
<g id="node30" class="node"><title>Node30</title>
<g id="a_node30"><a xlink:href="_g_u_i___vehicle_description_8cpp.html" target="_top" xlink:title="source/main/gui/panels\l/GUI_VehicleDescription.cpp">
<polygon fill="white" stroke="black" points="4170.5,-1 4170.5,-31 4313.5,-31 4313.5,-1 4170.5,-1"/>
<text text-anchor="start" x="4178.5" y="-19" font-family="Helvetica,sans-Serif" font-size="10.00">source/main/gui/panels</text>
<text text-anchor="middle" x="4242" y="-8" font-family="Helvetica,sans-Serif" font-size="10.00">/GUI_VehicleDescription.cpp</text>
</a>
</g>
</g>
<!-- Node1&#45;&gt;Node30 -->
<g id="edge29" class="edge"><title>Node1&#45;&gt;Node30</title>
<path fill="none" stroke="midnightblue" d="M3073.41,-75.3127C3307.48,-70.4828 3950.26,-55.4268 4161,-32 4163.98,-31.6682 4167.03,-31.2899 4170.09,-30.8749"/>
<polygon fill="midnightblue" stroke="midnightblue" points="3073.17,-71.8168 3063.25,-75.5213 3073.32,-78.8153 3073.17,-71.8168"/>
</g>
<!-- Node31 -->
<g id="node31" class="node"><title>Node31</title>
<g id="a_node31"><a xlink:href="main_8cpp.html" target="_top" xlink:title="source/main/main.cpp">
<polygon fill="white" stroke="black" points="4331.5,-6.5 4331.5,-25.5 4444.5,-25.5 4444.5,-6.5 4331.5,-6.5"/>
<text text-anchor="middle" x="4388" y="-13.5" font-family="Helvetica,sans-Serif" font-size="10.00">source/main/main.cpp</text>
</a>
</g>
</g>
<!-- Node1&#45;&gt;Node31 -->
<g id="edge30" class="edge"><title>Node1&#45;&gt;Node31</title>
<path fill="none" stroke="midnightblue" d="M3073.49,-76.2284C3329.26,-73.6068 4079.28,-63.3839 4322,-32 4333.19,-30.5535 4345.27,-28.0825 4355.99,-25.5588"/>
<polygon fill="midnightblue" stroke="midnightblue" points="3073.1,-72.732 3063.14,-76.3331 3073.17,-79.7317 3073.1,-72.732"/>
</g>
<!-- Node32 -->
<g id="node32" class="node"><title>Node32</title>
<g id="a_node32"><a xlink:href="_main_menu_8cpp.html" target="_top" xlink:title="source/main/MainMenu.cpp">
<polygon fill="white" stroke="black" points="4462.5,-6.5 4462.5,-25.5 4599.5,-25.5 4599.5,-6.5 4462.5,-6.5"/>
<text text-anchor="middle" x="4531" y="-13.5" font-family="Helvetica,sans-Serif" font-size="10.00">source/main/MainMenu.cpp</text>
</a>
</g>
</g>
<!-- Node1&#45;&gt;Node32 -->
<g id="edge31" class="edge"><title>Node1&#45;&gt;Node32</title>
<path fill="none" stroke="midnightblue" d="M3073.39,-76.1559C3345.55,-73.2113 4183.14,-61.8973 4453,-32 4466.16,-30.5423 4480.42,-28.0685 4493.1,-25.5457"/>
<polygon fill="midnightblue" stroke="midnightblue" points="3073.13,-72.6583 3063.17,-76.2653 3073.21,-79.6579 3073.13,-72.6583"/>
</g>
<!-- Node33 -->
<g id="node33" class="node"><title>Node33</title>
<g id="a_node33"><a xlink:href="_beam_8cpp.html" target="_top" xlink:title="source/main/physics\l/Beam.cpp">
<polygon fill="white" stroke="black" points="4617.5,-1 4617.5,-31 4724.5,-31 4724.5,-1 4617.5,-1"/>
<text text-anchor="start" x="4625.5" y="-19" font-family="Helvetica,sans-Serif" font-size="10.00">source/main/physics</text>
<text text-anchor="middle" x="4671" y="-8" font-family="Helvetica,sans-Serif" font-size="10.00">/Beam.cpp</text>
</a>
</g>
</g>
<!-- Node1&#45;&gt;Node33 -->
<g id="edge32" class="edge"><title>Node1&#45;&gt;Node33</title>
<path fill="none" stroke="midnightblue" d="M3073.51,-76.9467C3364.64,-76.3993 4307.31,-71.5397 4608,-32 4611.01,-31.6042 4614.09,-31.1251 4617.18,-30.5845"/>
<polygon fill="midnightblue" stroke="midnightblue" points="3073.43,-73.4468 3063.44,-76.9644 3073.44,-80.4467 3073.43,-73.4468"/>
</g>
<!-- Node34 -->
<g id="node34" class="node"><title>Node34</title>
<g id="a_node34"><a xlink:href="_beam_factory_8cpp.html" target="_top" xlink:title="source/main/physics\l/BeamFactory.cpp">
<polygon fill="white" stroke="black" points="4742.5,-1 4742.5,-31 4849.5,-31 4849.5,-1 4742.5,-1"/>
<text text-anchor="start" x="4750.5" y="-19" font-family="Helvetica,sans-Serif" font-size="10.00">source/main/physics</text>
<text text-anchor="middle" x="4796" y="-8" font-family="Helvetica,sans-Serif" font-size="10.00">/BeamFactory.cpp</text>
</a>
</g>
</g>
<!-- Node1&#45;&gt;Node34 -->
<g id="edge33" class="edge"><title>Node1&#45;&gt;Node34</title>
<path fill="none" stroke="midnightblue" d="M3073.36,-77.1489C3378.73,-77.3048 4406.71,-74.5766 4733,-32 4736.01,-31.6072 4739.09,-31.1304 4742.18,-30.5917"/>
<polygon fill="midnightblue" stroke="midnightblue" points="3073.24,-73.649 3063.23,-77.1426 3073.23,-80.649 3073.24,-73.649"/>
</g>
<!-- Node35 -->
<g id="node35" class="node"><title>Node35</title>
<g id="a_node35"><a xlink:href="_rig_spawner_8cpp.html" target="_top" xlink:title="Vehicle spawning logic. ">
<polygon fill="white" stroke="black" points="4867.5,-1 4867.5,-31 4974.5,-31 4974.5,-1 4867.5,-1"/>
<text text-anchor="start" x="4875.5" y="-19" font-family="Helvetica,sans-Serif" font-size="10.00">source/main/physics</text>
<text text-anchor="middle" x="4921" y="-8" font-family="Helvetica,sans-Serif" font-size="10.00">/RigSpawner.cpp</text>
</a>
</g>
</g>
<!-- Node1&#45;&gt;Node35 -->
<g id="edge34" class="edge"><title>Node1&#45;&gt;Node35</title>
<path fill="none" stroke="midnightblue" d="M3073.28,-77.324C3392.47,-78.1493 4506.07,-77.6155 4858,-32 4861.01,-31.6098 4864.09,-31.1351 4867.18,-30.5979"/>
<polygon fill="midnightblue" stroke="midnightblue" points="3073.17,-73.8238 3063.16,-77.2967 3073.15,-80.8238 3073.17,-73.8238"/>
</g>
<!-- Node36 -->
<g id="node36" class="node"><title>Node36</title>
<g id="a_node36"><a xlink:href="_cache_system_8cpp.html" target="_top" xlink:title="source/main/resources\l/CacheSystem.cpp">
<polygon fill="white" stroke="black" points="4993,-1 4993,-31 5109,-31 5109,-1 4993,-1"/>
<text text-anchor="start" x="5001" y="-19" font-family="Helvetica,sans-Serif" font-size="10.00">source/main/resources</text>
<text text-anchor="middle" x="5051" y="-8" font-family="Helvetica,sans-Serif" font-size="10.00">/CacheSystem.cpp</text>
</a>
</g>
</g>
<!-- Node1&#45;&gt;Node36 -->
<g id="edge35" class="edge"><title>Node1&#45;&gt;Node36</title>
<path fill="none" stroke="midnightblue" d="M3073.11,-77.2874C3405.46,-78.0511 4604.93,-77.5206 4983,-32 4986.24,-31.6098 4989.55,-31.1351 4992.89,-30.5979"/>
<polygon fill="midnightblue" stroke="midnightblue" points="3073.07,-73.7874 3063.06,-77.2633 3073.05,-80.7874 3073.07,-73.7874"/>
</g>
<!-- Node37 -->
<g id="node37" class="node"><title>Node37</title>
<g id="a_node37"><a xlink:href="_game_script_8cpp.html" target="_top" xlink:title="source/main/scripting\l/GameScript.cpp">
<polygon fill="white" stroke="black" points="5127,-1 5127,-31 5237,-31 5237,-1 5127,-1"/>
<text text-anchor="start" x="5135" y="-19" font-family="Helvetica,sans-Serif" font-size="10.00">source/main/scripting</text>
<text text-anchor="middle" x="5182" y="-8" font-family="Helvetica,sans-Serif" font-size="10.00">/GameScript.cpp</text>
</a>
</g>
</g>
<!-- Node1&#45;&gt;Node37 -->
<g id="edge36" class="edge"><title>Node1&#45;&gt;Node37</title>
<path fill="none" stroke="midnightblue" d="M3073.36,-76.2251C3446.7,-72.7328 4912.29,-57.5072 5117,-32 5120.22,-31.5991 5123.51,-31.1064 5126.82,-30.5468"/>
<polygon fill="midnightblue" stroke="midnightblue" points="3073.13,-72.727 3063.16,-76.3201 3073.19,-79.7267 3073.13,-72.727"/>
</g>
<!-- Node38 -->
<g id="node38" class="node"><title>Node38</title>
<g id="a_node38"><a xlink:href="_terrain_geometry_manager_8cpp.html" target="_top" xlink:title="source/main/terrain\l/TerrainGeometryManager.cpp">
<polygon fill="white" stroke="black" points="5255.5,-1 5255.5,-31 5404.5,-31 5404.5,-1 5255.5,-1"/>
<text text-anchor="start" x="5263.5" y="-19" font-family="Helvetica,sans-Serif" font-size="10.00">source/main/terrain</text>
<text text-anchor="middle" x="5330" y="-8" font-family="Helvetica,sans-Serif" font-size="10.00">/TerrainGeometryManager.cpp</text>
</a>
</g>
</g>
<!-- Node1&#45;&gt;Node38 -->
<g id="edge37" class="edge"><title>Node1&#45;&gt;Node38</title>
<path fill="none" stroke="midnightblue" d="M3073.37,-77.0912C3432.98,-77.1914 4812.83,-74.7244 5246,-32 5249.1,-31.6946 5252.25,-31.3385 5255.43,-30.9418"/>
<polygon fill="midnightblue" stroke="midnightblue" points="3073.29,-73.5913 3063.28,-77.0877 3073.28,-80.5913 3073.29,-73.5913"/>
</g>
<!-- Node39 -->
<g id="node39" class="node"><title>Node39</title>
<g id="a_node39"><a xlink:href="_terrain_manager_8cpp.html" target="_top" xlink:title="source/main/terrain\l/TerrainManager.cpp">
<polygon fill="white" stroke="black" points="5422,-1 5422,-31 5528,-31 5528,-1 5422,-1"/>
<text text-anchor="start" x="5430" y="-19" font-family="Helvetica,sans-Serif" font-size="10.00">source/main/terrain</text>
<text text-anchor="middle" x="5475" y="-8" font-family="Helvetica,sans-Serif" font-size="10.00">/TerrainManager.cpp</text>
</a>
</g>
</g>
<!-- Node1&#45;&gt;Node39 -->
<g id="edge38" class="edge"><title>Node1&#45;&gt;Node39</title>
<path fill="none" stroke="midnightblue" d="M3073.44,-76.5184C3478.34,-74.1106 5177.73,-62.2713 5413,-32 5415.86,-31.6326 5418.77,-31.185 5421.7,-30.6775"/>
<polygon fill="midnightblue" stroke="midnightblue" points="3073.24,-73.0194 3063.26,-76.5785 3073.28,-80.0193 3073.24,-73.0194"/>
</g>
<!-- Node40 -->
<g id="node40" class="node"><title>Node40</title>
<g id="a_node40"><a xlink:href="_terrain_object_manager_8cpp.html" target="_top" xlink:title="source/main/terrain\l/TerrainObjectManager.cpp">
<polygon fill="white" stroke="black" points="5546,-1 5546,-31 5680,-31 5680,-1 5546,-1"/>
<text text-anchor="start" x="5554" y="-19" font-family="Helvetica,sans-Serif" font-size="10.00">source/main/terrain</text>
<text text-anchor="middle" x="5613" y="-8" font-family="Helvetica,sans-Serif" font-size="10.00">/TerrainObjectManager.cpp</text>
</a>
</g>
</g>
<!-- Node1&#45;&gt;Node40 -->
<g id="edge39" class="edge"><title>Node1&#45;&gt;Node40</title>
<path fill="none" stroke="midnightblue" d="M3073.31,-76.3728C3490.41,-73.2213 5287.26,-58.2205 5536,-32 5539.25,-31.6573 5542.57,-31.2471 5545.91,-30.785"/>
<polygon fill="midnightblue" stroke="midnightblue" points="3073.11,-72.8742 3063.13,-76.4495 3073.16,-79.874 3073.11,-72.8742"/>
</g>
<!-- Node41 -->
<g id="node41" class="node"><title>Node41</title>
<g id="a_node41"><a xlink:href="_input_engine_8cpp.html" target="_top" xlink:title="source/main/utils/InputEngine.cpp">
<polygon fill="white" stroke="black" points="5698,-6.5 5698,-25.5 5862,-25.5 5862,-6.5 5698,-6.5"/>
<text text-anchor="middle" x="5780" y="-13.5" font-family="Helvetica,sans-Serif" font-size="10.00">source/main/utils/InputEngine.cpp</text>
</a>
</g>
</g>
<!-- Node1&#45;&gt;Node41 -->
<g id="edge40" class="edge"><title>Node1&#45;&gt;Node41</title>
<path fill="none" stroke="midnightblue" d="M3073.15,-77.2673C3474.48,-78.2517 5163.33,-79.4432 5689,-32 5704.47,-30.6039 5721.28,-28.1122 5736.2,-25.5557"/>
<polygon fill="midnightblue" stroke="midnightblue" points="3073.07,-73.7672 3063.06,-77.242 3073.06,-80.7672 3073.07,-73.7672"/>
</g>
</g>
</svg>
