<?xml version="1.0" encoding="UTF-8" standalone="no"?>
<!DOCTYPE svg PUBLIC "-//W3C//DTD SVG 1.1//EN"
 "http://www.w3.org/Graphics/SVG/1.1/DTD/svg11.dtd">
<!-- Generated by graphviz version 2.36.0 (20140111.2315)
 -->
<!-- Title: source/main/gui/panels/GUI_MultiplayerSelector.h Pages: 1 -->
<svg width="619pt" height="108pt"
 viewBox="0.00 0.00 619.00 108.00" xmlns="http://www.w3.org/2000/svg" xmlns:xlink="http://www.w3.org/1999/xlink">
<g id="graph0" class="graph" transform="scale(1 1) rotate(0) translate(4 104)">
<title>source/main/gui/panels/GUI_MultiplayerSelector.h</title>
<polygon fill="white" stroke="none" points="-4,4 -4,-104 615,-104 615,4 -4,4"/>
<!-- Node1 -->
<g id="node1" class="node"><title>Node1</title>
<polygon fill="#bfbfbf" stroke="black" points="259,-69 259,-99 393,-99 393,-69 259,-69"/>
<text text-anchor="start" x="267" y="-87" font-family="Helvetica,sans-Serif" font-size="10.00">source/main/gui/panels</text>
<text text-anchor="middle" x="326" y="-76" font-family="Helvetica,sans-Serif" font-size="10.00">/GUI_MultiplayerSelector.h</text>
</g>
<!-- Node2 -->
<g id="node2" class="node"><title>Node2</title>
<g id="a_node2"><a xlink:href="_g_u_i_manager_8cpp.html" target="_top" xlink:title="source/main/gui/GUIManager.cpp">
<polygon fill="white" stroke="black" points="-0.5,-6.5 -0.5,-25.5 162.5,-25.5 162.5,-6.5 -0.5,-6.5"/>
<text text-anchor="middle" x="81" y="-13.5" font-family="Helvetica,sans-Serif" font-size="10.00">source/main/gui/GUIManager.cpp</text>
</a>
</g>
</g>
<!-- Node1&#45;&gt;Node2 -->
<g id="edge1" class="edge"><title>Node1&#45;&gt;Node2</title>
<path fill="none" stroke="midnightblue" d="M264.019,-66.3029C215.751,-53.3002 150.742,-35.7876 112.604,-25.5138"/>
<polygon fill="midnightblue" stroke="midnightblue" points="263.176,-69.7006 273.742,-68.9223 264.997,-62.9416 263.176,-69.7006"/>
</g>
<!-- Node3 -->
<g id="node3" class="node"><title>Node3</title>
<g id="a_node3"><a xlink:href="_g_u_i___multiplayer_selector_8cpp.html" target="_top" xlink:title="source/main/gui/panels\l/GUI_MultiplayerSelector.cpp">
<polygon fill="white" stroke="black" points="180.5,-1 180.5,-31 325.5,-31 325.5,-1 180.5,-1"/>
<text text-anchor="start" x="188.5" y="-19" font-family="Helvetica,sans-Serif" font-size="10.00">source/main/gui/panels</text>
<text text-anchor="middle" x="253" y="-8" font-family="Helvetica,sans-Serif" font-size="10.00">/GUI_MultiplayerSelector.cpp</text>
</a>
</g>
</g>
<!-- Node1&#45;&gt;Node3 -->
<g id="edge2" class="edge"><title>Node1&#45;&gt;Node3</title>
<path fill="none" stroke="midnightblue" d="M302.47,-61.7265C291.366,-51.687 278.421,-39.9831 268.558,-31.0663"/>
<polygon fill="midnightblue" stroke="midnightblue" points="300.395,-64.5687 310.16,-68.679 305.09,-59.3763 300.395,-64.5687"/>
</g>
<!-- Node4 -->
<g id="node4" class="node"><title>Node4</title>
<g id="a_node4"><a xlink:href="main_8cpp.html" target="_top" xlink:title="source/main/main.cpp">
<polygon fill="white" stroke="black" points="343.5,-6.5 343.5,-25.5 456.5,-25.5 456.5,-6.5 343.5,-6.5"/>
<text text-anchor="middle" x="400" y="-13.5" font-family="Helvetica,sans-Serif" font-size="10.00">source/main/main.cpp</text>
</a>
</g>
</g>
<!-- Node1&#45;&gt;Node4 -->
<g id="edge3" class="edge"><title>Node1&#45;&gt;Node4</title>
<path fill="none" stroke="midnightblue" d="M349.712,-61.8517C363.375,-49.6656 379.826,-34.9929 390.102,-25.8283"/>
<polygon fill="midnightblue" stroke="midnightblue" points="347.19,-59.4108 342.057,-68.679 351.85,-64.6348 347.19,-59.4108"/>
</g>
<!-- Node5 -->
<g id="node5" class="node"><title>Node5</title>
<g id="a_node5"><a xlink:href="_main_menu_8cpp.html" target="_top" xlink:title="source/main/MainMenu.cpp">
<polygon fill="white" stroke="black" points="474.5,-6.5 474.5,-25.5 611.5,-25.5 611.5,-6.5 474.5,-6.5"/>
<text text-anchor="middle" x="543" y="-13.5" font-family="Helvetica,sans-Serif" font-size="10.00">source/main/MainMenu.cpp</text>
</a>
</g>
</g>
<!-- Node1&#45;&gt;Node5 -->
<g id="edge4" class="edge"><title>Node1&#45;&gt;Node5</title>
<path fill="none" stroke="midnightblue" d="M381.972,-65.9763C424.609,-53.0082 481.511,-35.7018 515.008,-25.5138"/>
<polygon fill="midnightblue" stroke="midnightblue" points="380.835,-62.6638 372.286,-68.9223 382.872,-69.3609 380.835,-62.6638"/>
</g>
</g>
</svg>
