<?xml version="1.0" encoding="UTF-8" standalone="no"?>
<!DOCTYPE svg PUBLIC "-//W3C//DTD SVG 1.1//EN"
 "http://www.w3.org/Graphics/SVG/1.1/DTD/svg11.dtd">
<!-- Generated by graphviz version 2.36.0 (20140111.2315)
 -->
<!-- Title: source/main/gui/panels/GUI_OpenSaveFileDialog.h Pages: 1 -->
<svg width="1754pt" height="432pt"
 viewBox="0.00 0.00 1754.00 432.00" xmlns="http://www.w3.org/2000/svg" xmlns:xlink="http://www.w3.org/1999/xlink">
<g id="graph0" class="graph" transform="scale(1 1) rotate(0) translate(4 428)">
<title>source/main/gui/panels/GUI_OpenSaveFileDialog.h</title>
<polygon fill="white" stroke="none" points="-4,4 -4,-428 1750,-428 1750,4 -4,4"/>
<!-- Node1 -->
<g id="node1" class="node"><title>Node1</title>
<polygon fill="#bfbfbf" stroke="black" points="758,-393 758,-423 898,-423 898,-393 758,-393"/>
<text text-anchor="start" x="766" y="-411" font-family="Helvetica,sans-Serif" font-size="10.00">source/main/gui/panels</text>
<text text-anchor="middle" x="828" y="-400" font-family="Helvetica,sans-Serif" font-size="10.00">/GUI_OpenSaveFileDialog.h</text>
</g>
<!-- Node2 -->
<g id="node2" class="node"><title>Node2</title>
<polygon fill="white" stroke="#bfbfbf" points="778,-168.5 778,-187.5 834,-187.5 834,-168.5 778,-168.5"/>
<text text-anchor="middle" x="806" y="-175.5" font-family="Helvetica,sans-Serif" font-size="10.00">MyGUI.h</text>
</g>
<!-- Node1&#45;&gt;Node2 -->
<g id="edge1" class="edge"><title>Node1&#45;&gt;Node2</title>
<path fill="none" stroke="midnightblue" d="M825.465,-392.751C823.723,-382.546 821.468,-368.461 820,-356 813.255,-298.743 808.893,-230.673 807.032,-198.151"/>
<polygon fill="midnightblue" stroke="midnightblue" points="810.51,-197.654 806.46,-187.864 803.521,-198.043 810.51,-197.654"/>
</g>
<!-- Node3 -->
<g id="node3" class="node"><title>Node3</title>
<g id="a_node3"><a xlink:href="_dialog_8h.html" target="_top" xlink:title="Dialog.h">
<polygon fill="white" stroke="black" points="829.5,-336.5 829.5,-355.5 882.5,-355.5 882.5,-336.5 829.5,-336.5"/>
<text text-anchor="middle" x="856" y="-343.5" font-family="Helvetica,sans-Serif" font-size="10.00">Dialog.h</text>
</a>
</g>
</g>
<!-- Node1&#45;&gt;Node3 -->
<g id="edge2" class="edge"><title>Node1&#45;&gt;Node3</title>
<path fill="none" stroke="midnightblue" d="M834.636,-392.781C838.537,-384.422 843.504,-373.777 847.667,-364.856"/>
<polygon fill="midnightblue" stroke="midnightblue" points="850.868,-366.272 851.926,-355.731 844.525,-363.312 850.868,-366.272"/>
</g>
<!-- Node3&#45;&gt;Node2 -->
<g id="edge3" class="edge"><title>Node3&#45;&gt;Node2</title>
<path fill="none" stroke="midnightblue" d="M853.284,-336.383C850.44,-327.333 845.859,-312.68 842,-300 830.929,-263.617 818.326,-220.965 811.355,-197.258"/>
<polygon fill="midnightblue" stroke="midnightblue" points="814.671,-196.128 808.495,-187.519 807.955,-198.101 814.671,-196.128"/>
</g>
<!-- Node4 -->
<g id="node4" class="node"><title>Node4</title>
<g id="a_node4"><a xlink:href="_base_layout_8h.html" target="_top" xlink:title="BaseLayout.h">
<polygon fill="white" stroke="black" points="851.5,-280.5 851.5,-299.5 928.5,-299.5 928.5,-280.5 851.5,-280.5"/>
<text text-anchor="middle" x="890" y="-287.5" font-family="Helvetica,sans-Serif" font-size="10.00">BaseLayout.h</text>
</a>
</g>
</g>
<!-- Node3&#45;&gt;Node4 -->
<g id="edge4" class="edge"><title>Node3&#45;&gt;Node4</title>
<path fill="none" stroke="midnightblue" d="M861.614,-336.083C866.367,-328.534 873.318,-317.495 879.152,-308.23"/>
<polygon fill="midnightblue" stroke="midnightblue" points="882.124,-310.078 884.49,-299.751 876.2,-306.349 882.124,-310.078"/>
</g>
<!-- Node4&#45;&gt;Node2 -->
<g id="edge24" class="edge"><title>Node4&#45;&gt;Node2</title>
<path fill="none" stroke="midnightblue" d="M883.409,-280.368C869.485,-262.135 836.871,-219.426 818.734,-195.675"/>
<polygon fill="midnightblue" stroke="midnightblue" points="821.412,-193.415 812.561,-187.591 815.848,-197.663 821.412,-193.415"/>
</g>
<!-- Node5 -->
<g id="node5" class="node"><title>Node5</title>
<g id="a_node5"><a xlink:href="_ro_r_prerequisites_8h.html" target="_top" xlink:title="RoRPrerequisites.h">
<polygon fill="white" stroke="black" points="875,-112.5 875,-131.5 977,-131.5 977,-112.5 875,-112.5"/>
<text text-anchor="middle" x="926" y="-119.5" font-family="Helvetica,sans-Serif" font-size="10.00">RoRPrerequisites.h</text>
</a>
</g>
</g>
<!-- Node4&#45;&gt;Node5 -->
<g id="edge5" class="edge"><title>Node4&#45;&gt;Node5</title>
<path fill="none" stroke="midnightblue" d="M918.015,-280.397C935.174,-273.515 955.748,-261.984 966,-244 971.297,-234.708 978.342,-202.813 965,-168 960.727,-156.85 952.371,-146.601 944.486,-138.71"/>
<polygon fill="midnightblue" stroke="midnightblue" points="946.627,-135.92 936.927,-131.659 941.852,-141.039 946.627,-135.92"/>
</g>
<!-- Node23 -->
<g id="node23" class="node"><title>Node23</title>
<g id="a_node23"><a xlink:href="_wraps_attribute_8h.html" target="_top" xlink:title="WrapsAttribute.h">
<polygon fill="white" stroke="black" points="867,-224.5 867,-243.5 957,-243.5 957,-224.5 867,-224.5"/>
<text text-anchor="middle" x="912" y="-231.5" font-family="Helvetica,sans-Serif" font-size="10.00">WrapsAttribute.h</text>
</a>
</g>
</g>
<!-- Node4&#45;&gt;Node23 -->
<g id="edge25" class="edge"><title>Node4&#45;&gt;Node23</title>
<path fill="none" stroke="midnightblue" d="M893.633,-280.083C896.612,-272.77 900.926,-262.181 904.625,-253.103"/>
<polygon fill="midnightblue" stroke="midnightblue" points="907.903,-254.333 908.435,-243.751 901.42,-251.691 907.903,-254.333"/>
</g>
<!-- Node6 -->
<g id="node6" class="node"><title>Node6</title>
<polygon fill="white" stroke="#bfbfbf" points="-0.5,-56.5 -0.5,-75.5 102.5,-75.5 102.5,-56.5 -0.5,-56.5"/>
<text text-anchor="middle" x="51" y="-63.5" font-family="Helvetica,sans-Serif" font-size="10.00">OgrePrerequisites.h</text>
</g>
<!-- Node5&#45;&gt;Node6 -->
<g id="edge6" class="edge"><title>Node5&#45;&gt;Node6</title>
<path fill="none" stroke="midnightblue" d="M874.851,-119.841C747.658,-116.6 406.707,-105.727 112.672,-76.0823"/>
<polygon fill="midnightblue" stroke="midnightblue" points="112.975,-72.5951 102.672,-75.0649 112.266,-79.5592 112.975,-72.5951"/>
</g>
<!-- Node7 -->
<g id="node7" class="node"><title>Node7</title>
<polygon fill="white" stroke="#bfbfbf" points="120.5,-56.5 120.5,-75.5 235.5,-75.5 235.5,-56.5 120.5,-56.5"/>
<text text-anchor="middle" x="178" y="-63.5" font-family="Helvetica,sans-Serif" font-size="10.00">OgreAxisAlignedBox.h</text>
</g>
<!-- Node5&#45;&gt;Node7 -->
<g id="edge7" class="edge"><title>Node5&#45;&gt;Node7</title>
<path fill="none" stroke="midnightblue" d="M874.994,-118.851C762.989,-113.868 486.918,-100.152 245.58,-76.0963"/>
<polygon fill="midnightblue" stroke="midnightblue" points="245.865,-72.6074 235.565,-75.09 245.165,-79.5723 245.865,-72.6074"/>
</g>
<!-- Node8 -->
<g id="node8" class="node"><title>Node8</title>
<polygon fill="white" stroke="#bfbfbf" points="253.5,-56.5 253.5,-75.5 352.5,-75.5 352.5,-56.5 253.5,-56.5"/>
<text text-anchor="middle" x="303" y="-63.5" font-family="Helvetica,sans-Serif" font-size="10.00">OgreColourValue.h</text>
</g>
<!-- Node5&#45;&gt;Node8 -->
<g id="edge8" class="edge"><title>Node5&#45;&gt;Node8</title>
<path fill="none" stroke="midnightblue" d="M874.845,-118.206C777.25,-112.596 557.543,-98.6316 362.777,-76.133"/>
<polygon fill="midnightblue" stroke="midnightblue" points="362.979,-72.6329 352.641,-74.9517 362.168,-79.5859 362.979,-72.6329"/>
</g>
<!-- Node9 -->
<g id="node9" class="node"><title>Node9</title>
<polygon fill="white" stroke="#bfbfbf" points="370.5,-56.5 370.5,-75.5 473.5,-75.5 473.5,-56.5 370.5,-56.5"/>
<text text-anchor="middle" x="422" y="-63.5" font-family="Helvetica,sans-Serif" font-size="10.00">OgreHeaderPrefix.h</text>
</g>
<!-- Node5&#45;&gt;Node9 -->
<g id="edge9" class="edge"><title>Node5&#45;&gt;Node9</title>
<path fill="none" stroke="midnightblue" d="M874.97,-116.628C794.159,-109.53 631.541,-94.5321 483.845,-76.1839"/>
<polygon fill="midnightblue" stroke="midnightblue" points="484.046,-72.6818 473.689,-74.9139 483.177,-79.6277 484.046,-72.6818"/>
</g>
<!-- Node10 -->
<g id="node10" class="node"><title>Node10</title>
<polygon fill="white" stroke="#bfbfbf" points="491.5,-56.5 491.5,-75.5 590.5,-75.5 590.5,-56.5 491.5,-56.5"/>
<text text-anchor="middle" x="541" y="-63.5" font-family="Helvetica,sans-Serif" font-size="10.00">OgreLogManager.h</text>
</g>
<!-- Node5&#45;&gt;Node10 -->
<g id="edge10" class="edge"><title>Node5&#45;&gt;Node10</title>
<path fill="none" stroke="midnightblue" d="M874.985,-114.256C812.627,-105.95 703.609,-91.2324 600.612,-76.2179"/>
<polygon fill="midnightblue" stroke="midnightblue" points="601.067,-72.7472 590.666,-74.7642 600.054,-79.6736 601.067,-72.7472"/>
</g>
<!-- Node11 -->
<g id="node11" class="node"><title>Node11</title>
<polygon fill="white" stroke="#bfbfbf" points="608.5,-56.5 608.5,-75.5 701.5,-75.5 701.5,-56.5 608.5,-56.5"/>
<text text-anchor="middle" x="655" y="-63.5" font-family="Helvetica,sans-Serif" font-size="10.00">OgreQuaternion.h</text>
</g>
<!-- Node5&#45;&gt;Node11 -->
<g id="edge11" class="edge"><title>Node5&#45;&gt;Node11</title>
<path fill="none" stroke="midnightblue" d="M883.059,-112.444C835.487,-102.964 758.756,-87.6747 707.611,-77.4835"/>
<polygon fill="midnightblue" stroke="midnightblue" points="708.231,-74.0382 697.74,-75.5164 706.863,-80.9032 708.231,-74.0382"/>
</g>
<!-- Node12 -->
<g id="node12" class="node"><title>Node12</title>
<polygon fill="white" stroke="#bfbfbf" points="719.5,-56.5 719.5,-75.5 790.5,-75.5 790.5,-56.5 719.5,-56.5"/>
<text text-anchor="middle" x="755" y="-63.5" font-family="Helvetica,sans-Serif" font-size="10.00">OgreString.h</text>
</g>
<!-- Node5&#45;&gt;Node12 -->
<g id="edge12" class="edge"><title>Node5&#45;&gt;Node12</title>
<path fill="none" stroke="midnightblue" d="M898.905,-112.444C870.012,-103.32 824.075,-88.8133 791.895,-78.6509"/>
<polygon fill="midnightblue" stroke="midnightblue" points="792.559,-75.1903 781.969,-75.5164 790.451,-81.8654 792.559,-75.1903"/>
</g>
<!-- Node13 -->
<g id="node13" class="node"><title>Node13</title>
<polygon fill="white" stroke="#bfbfbf" points="809,-56.5 809,-75.5 923,-75.5 923,-56.5 809,-56.5"/>
<text text-anchor="middle" x="866" y="-63.5" font-family="Helvetica,sans-Serif" font-size="10.00">OgreStringConverter.h</text>
</g>
<!-- Node5&#45;&gt;Node13 -->
<g id="edge13" class="edge"><title>Node5&#45;&gt;Node13</title>
<path fill="none" stroke="midnightblue" d="M916.36,-112.324C907.49,-104.341 894.125,-92.3128 883.392,-82.6529"/>
<polygon fill="midnightblue" stroke="midnightblue" points="885.59,-79.922 875.815,-75.8339 880.907,-85.1251 885.59,-79.922"/>
</g>
<!-- Node14 -->
<g id="node14" class="node"><title>Node14</title>
<polygon fill="white" stroke="#bfbfbf" points="941.5,-56.5 941.5,-75.5 1032.5,-75.5 1032.5,-56.5 941.5,-56.5"/>
<text text-anchor="middle" x="987" y="-63.5" font-family="Helvetica,sans-Serif" font-size="10.00">OgreUTFString.h</text>
</g>
<!-- Node5&#45;&gt;Node14 -->
<g id="edge14" class="edge"><title>Node5&#45;&gt;Node14</title>
<path fill="none" stroke="midnightblue" d="M935.801,-112.324C944.818,-104.341 958.406,-92.3128 969.318,-82.6529"/>
<polygon fill="midnightblue" stroke="midnightblue" points="971.853,-85.083 977.021,-75.8339 967.213,-79.8416 971.853,-85.083"/>
</g>
<!-- Node15 -->
<g id="node15" class="node"><title>Node15</title>
<polygon fill="white" stroke="#bfbfbf" points="1051,-56.5 1051,-75.5 1131,-75.5 1131,-56.5 1051,-56.5"/>
<text text-anchor="middle" x="1091" y="-63.5" font-family="Helvetica,sans-Serif" font-size="10.00">OgreVector2.h</text>
</g>
<!-- Node5&#45;&gt;Node15 -->
<g id="edge15" class="edge"><title>Node5&#45;&gt;Node15</title>
<path fill="none" stroke="midnightblue" d="M952.145,-112.444C980.023,-103.32 1024.35,-88.8133 1055.4,-78.6509"/>
<polygon fill="midnightblue" stroke="midnightblue" points="1056.56,-81.9533 1064.98,-75.5164 1054.38,-75.3005 1056.56,-81.9533"/>
</g>
<!-- Node16 -->
<g id="node16" class="node"><title>Node16</title>
<polygon fill="white" stroke="#bfbfbf" points="1149,-56.5 1149,-75.5 1229,-75.5 1229,-56.5 1149,-56.5"/>
<text text-anchor="middle" x="1189" y="-63.5" font-family="Helvetica,sans-Serif" font-size="10.00">OgreVector3.h</text>
</g>
<!-- Node5&#45;&gt;Node16 -->
<g id="edge16" class="edge"><title>Node5&#45;&gt;Node16</title>
<path fill="none" stroke="midnightblue" d="M967.673,-112.444C1014.15,-102.9 1089.31,-87.4689 1138.94,-77.2787"/>
<polygon fill="midnightblue" stroke="midnightblue" points="1139.72,-80.6906 1148.82,-75.2508 1138.32,-73.8337 1139.72,-80.6906"/>
</g>
<!-- Node17 -->
<g id="node17" class="node"><title>Node17</title>
<g id="a_node17"><a xlink:href="_forward_declarations_8h.html" target="_top" xlink:title="Global forward declarations. ">
<polygon fill="white" stroke="black" points="1240.5,-0.5 1240.5,-19.5 1355.5,-19.5 1355.5,-0.5 1240.5,-0.5"/>
<text text-anchor="middle" x="1298" y="-7.5" font-family="Helvetica,sans-Serif" font-size="10.00">ForwardDeclarations.h</text>
</a>
</g>
</g>
<!-- Node5&#45;&gt;Node17 -->
<g id="edge17" class="edge"><title>Node5&#45;&gt;Node17</title>
<path fill="none" stroke="midnightblue" d="M977.144,-117.774C1053.68,-112.256 1193.74,-99.2831 1238,-76 1258.93,-64.9861 1276.4,-43.6944 1286.99,-28.4802"/>
<polygon fill="midnightblue" stroke="midnightblue" points="1290.05,-30.2047 1292.67,-19.9388 1284.22,-26.3306 1290.05,-30.2047"/>
</g>
<!-- Node18 -->
<g id="node18" class="node"><title>Node18</title>
<g id="a_node18"><a xlink:href="_global_environment_8h.html" target="_top" xlink:title="GlobalEnvironment.h">
<polygon fill="white" stroke="black" points="1285.5,-56.5 1285.5,-75.5 1392.5,-75.5 1392.5,-56.5 1285.5,-56.5"/>
<text text-anchor="middle" x="1339" y="-63.5" font-family="Helvetica,sans-Serif" font-size="10.00">GlobalEnvironment.h</text>
</a>
</g>
</g>
<!-- Node5&#45;&gt;Node18 -->
<g id="edge18" class="edge"><title>Node5&#45;&gt;Node18</title>
<path fill="none" stroke="midnightblue" d="M977.15,-114.359C1044.51,-105.606 1166.64,-89.7117 1271,-76 1272.3,-75.8298 1273.6,-75.6577 1274.92,-75.4842"/>
<polygon fill="midnightblue" stroke="midnightblue" points="1275.72,-78.9092 1285.18,-74.1328 1274.81,-71.9692 1275.72,-78.9092"/>
</g>
<!-- Node19 -->
<g id="node19" class="node"><title>Node19</title>
<g id="a_node19"><a xlink:href="_zeroed_memory_allocator_8h.html" target="_top" xlink:title="ZeroedMemoryAllocator.h">
<polygon fill="white" stroke="black" points="1411,-56.5 1411,-75.5 1539,-75.5 1539,-56.5 1411,-56.5"/>
<text text-anchor="middle" x="1475" y="-63.5" font-family="Helvetica,sans-Serif" font-size="10.00">ZeroedMemoryAllocator.h</text>
</a>
</g>
</g>
<!-- Node5&#45;&gt;Node19 -->
<g id="edge20" class="edge"><title>Node5&#45;&gt;Node19</title>
<path fill="none" stroke="midnightblue" d="M977.008,-116.616C1062.26,-109.19 1239.34,-93.3463 1400.72,-76.0008"/>
<polygon fill="midnightblue" stroke="midnightblue" points="1401.27,-79.4621 1410.84,-74.9094 1400.52,-72.5025 1401.27,-79.4621"/>
</g>
<!-- Node20 -->
<g id="node20" class="node"><title>Node20</title>
<g id="a_node20"><a xlink:href="_bit_flags_8h.html" target="_top" xlink:title="BitFlags.h">
<polygon fill="white" stroke="black" points="1557.5,-56.5 1557.5,-75.5 1618.5,-75.5 1618.5,-56.5 1557.5,-56.5"/>
<text text-anchor="middle" x="1588" y="-63.5" font-family="Helvetica,sans-Serif" font-size="10.00">BitFlags.h</text>
</a>
</g>
</g>
<!-- Node5&#45;&gt;Node20 -->
<g id="edge21" class="edge"><title>Node5&#45;&gt;Node20</title>
<path fill="none" stroke="midnightblue" d="M977.075,-119.879C1082.09,-117.019 1329.89,-107.409 1547.08,-75.9044"/>
<polygon fill="midnightblue" stroke="midnightblue" points="1547.69,-79.3529 1557.08,-74.4362 1546.67,-72.4272 1547.69,-79.3529"/>
</g>
<!-- Node22 -->
<g id="node22" class="node"><title>Node22</title>
<polygon fill="white" stroke="#bfbfbf" points="1636.5,-56.5 1636.5,-75.5 1745.5,-75.5 1745.5,-56.5 1636.5,-56.5"/>
<text text-anchor="middle" x="1691" y="-63.5" font-family="Helvetica,sans-Serif" font-size="10.00">MyGUI_Prerequest.h</text>
</g>
<!-- Node5&#45;&gt;Node22 -->
<g id="edge23" class="edge"><title>Node5&#45;&gt;Node22</title>
<path fill="none" stroke="midnightblue" d="M977.124,-119.044C1091.46,-114.384 1376.71,-101.167 1626.24,-75.9962"/>
<polygon fill="midnightblue" stroke="midnightblue" points="1626.63,-79.475 1636.22,-74.9809 1625.92,-72.5109 1626.63,-79.475"/>
</g>
<!-- Node18&#45;&gt;Node17 -->
<g id="edge19" class="edge"><title>Node18&#45;&gt;Node17</title>
<path fill="none" stroke="midnightblue" d="M1332.23,-56.083C1326.44,-48.4554 1317.94,-37.2645 1310.86,-27.9408"/>
<polygon fill="midnightblue" stroke="midnightblue" points="1313.48,-25.5991 1304.64,-19.7511 1307.9,-29.8321 1313.48,-25.5991"/>
</g>
<!-- Node21 -->
<g id="node21" class="node"><title>Node21</title>
<polygon fill="white" stroke="#bfbfbf" points="1565,-0.5 1565,-19.5 1611,-19.5 1611,-0.5 1565,-0.5"/>
<text text-anchor="middle" x="1588" y="-7.5" font-family="Helvetica,sans-Serif" font-size="10.00">cstdint</text>
</g>
<!-- Node20&#45;&gt;Node21 -->
<g id="edge22" class="edge"><title>Node20&#45;&gt;Node21</title>
<path fill="none" stroke="midnightblue" d="M1588,-56.083C1588,-49.0059 1588,-38.8611 1588,-29.9865"/>
<polygon fill="midnightblue" stroke="midnightblue" points="1591.5,-29.751 1588,-19.7511 1584.5,-29.7511 1591.5,-29.751"/>
</g>
<!-- Node23&#45;&gt;Node2 -->
<g id="edge27" class="edge"><title>Node23&#45;&gt;Node2</title>
<path fill="none" stroke="midnightblue" d="M894.969,-224.324C877.97,-215.664 851.624,-202.242 832.007,-192.249"/>
<polygon fill="midnightblue" stroke="midnightblue" points="833.488,-189.075 822.988,-187.655 830.31,-195.312 833.488,-189.075"/>
</g>
<!-- Node23&#45;&gt;Node5 -->
<g id="edge26" class="edge"><title>Node23&#45;&gt;Node5</title>
<path fill="none" stroke="midnightblue" d="M904.089,-224.206C893.885,-211.748 878.312,-188.222 886,-168 890.335,-156.598 899.031,-146.239 907.21,-138.343"/>
<polygon fill="midnightblue" stroke="midnightblue" points="909.642,-140.863 914.734,-131.573 904.959,-135.66 909.642,-140.863"/>
</g>
<!-- Node24 -->
<g id="node24" class="node"><title>Node24</title>
<g id="a_node24"><a xlink:href="_attribute_8h.html" target="_top" xlink:title="Attribute.h">
<polygon fill="white" stroke="black" points="895,-168.5 895,-187.5 957,-187.5 957,-168.5 895,-168.5"/>
<text text-anchor="middle" x="926" y="-175.5" font-family="Helvetica,sans-Serif" font-size="10.00">Attribute.h</text>
</a>
</g>
</g>
<!-- Node23&#45;&gt;Node24 -->
<g id="edge28" class="edge"><title>Node23&#45;&gt;Node24</title>
<path fill="none" stroke="midnightblue" d="M914.312,-224.083C916.167,-216.927 918.835,-206.635 921.154,-197.691"/>
<polygon fill="midnightblue" stroke="midnightblue" points="924.609,-198.309 923.731,-187.751 917.834,-196.553 924.609,-198.309"/>
</g>
<!-- Node24&#45;&gt;Node5 -->
<g id="edge29" class="edge"><title>Node24&#45;&gt;Node5</title>
<path fill="none" stroke="midnightblue" d="M926,-168.083C926,-161.006 926,-150.861 926,-141.986"/>
<polygon fill="midnightblue" stroke="midnightblue" points="929.5,-141.751 926,-131.751 922.5,-141.751 929.5,-141.751"/>
</g>
</g>
</svg>
