<?xml version="1.0" encoding="UTF-8" standalone="no"?>
<!DOCTYPE svg PUBLIC "-//W3C//DTD SVG 1.1//EN"
 "http://www.w3.org/Graphics/SVG/1.1/DTD/svg11.dtd">
<!-- Generated by graphviz version 2.36.0 (20140111.2315)
 -->
<!-- Title: source/main/utils/Language.h Pages: 1 -->
<!--zoomable 96 -->
<svg id="main" version="1.1" xmlns="http://www.w3.org/2000/svg" xmlns:xlink="http://www.w3.org/1999/xlink" xml:space="preserve" onload="init(evt)">
<style type="text/css"><![CDATA[
.edge:hover path { stroke: red; }
.edge:hover polygon { stroke: red; fill: red; }
]]></style>
<script type="text/javascript"><![CDATA[
var edges = document.getElementsByTagName('g');
if (edges && edges.length) {
  for (var i=0;i<edges.length;i++) {
    if (edges[i].id.substr(0,4)=='edge') {
      edges[i].setAttribute('class','edge');
    }
  }
}
]]></script>
        <defs>
                <circle id="rim" cx="0" cy="0" r="7"/>
                <circle id="rim2" cx="0" cy="0" r="3.5"/>
                <g id="zoomPlus">
                        <use xlink:href="#rim" fill="#404040">
                                <set attributeName="fill" to="#808080" begin="zoomplus.mouseover" end="zoomplus.mouseout"/>
                        </use>
                        <path d="M-4,0h8M0,-4v8" fill="none" stroke="white" stroke-width="1.5" pointer-events="none"/>
                </g>
                <g id="zoomMin">
                        <use xlink:href="#rim" fill="#404040">
                                <set attributeName="fill" to="#808080" begin="zoomminus.mouseover" end="zoomminus.mouseout"/>
                        </use>
                        <path d="M-4,0h8" fill="none" stroke="white" stroke-width="1.5" pointer-events="none"/>
                </g>
                <g id="dirArrow">
                        <path fill="none" stroke="white" stroke-width="1.5" d="M0,-3.0v7 M-2.5,-0.5L0,-3.0L2.5,-0.5"/>
                </g>
               <g id="resetDef">
                       <use xlink:href="#rim2" fill="#404040">
                               <set attributeName="fill" to="#808080" begin="reset.mouseover" end="reset.mouseout"/>
                       </use>
               </g>
        </defs>

<script type="text/javascript">
var viewWidth = 6900;
var viewHeight = 96;
var sectionId = 'dynsection-1';
</script>
<script xlink:href="svgpan.js"/>
<svg id="graph" class="graph">
<g id="viewport">
<title>source/main/utils/Language.h</title>
<polygon fill="white" stroke="none" points="-4,4 -4,-92 6896,-92 6896,4 -4,4"/>
<!-- Node1 -->
<g id="node1" class="node"><title>Node1</title>
<polygon fill="#bfbfbf" stroke="black" points="3462,-68.5 3462,-87.5 3606,-87.5 3606,-68.5 3462,-68.5"/>
<text text-anchor="middle" x="3534" y="-75.5" font-family="Helvetica,sans-Serif" font-size="10.00">source/main/utils/Language.h</text>
</g>
<!-- Node2 -->
<g id="node2" class="node"><title>Node2</title>
<g id="a_node2"><a xlink:href="_chat_system_8cpp.html" target="_top" xlink:title="source/main/gameplay\l/ChatSystem.cpp">
<polygon fill="white" stroke="black" points="-0.5,-1 -0.5,-31 114.5,-31 114.5,-1 -0.5,-1"/>
<text text-anchor="start" x="7.5" y="-19" font-family="Helvetica,sans-Serif" font-size="10.00">source/main/gameplay</text>
<text text-anchor="middle" x="57" y="-8" font-family="Helvetica,sans-Serif" font-size="10.00">/ChatSystem.cpp</text>
</a>
</g>
</g>
<!-- Node1&#45;&gt;Node2 -->
<g id="edge1" class="edge"><title>Node1&#45;&gt;Node2</title>
<path fill="none" stroke="midnightblue" d="M3451.56,-76.9508C2963.49,-76.5212 462.411,-72.3525 123,-32 120.316,-31.6809 117.582,-31.2981 114.828,-30.8656"/>
<polygon fill="midnightblue" stroke="midnightblue" points="3451.69,-80.4508 3461.69,-76.9594 3451.69,-73.4508 3451.69,-80.4508"/>
</g>
<!-- Node3 -->
<g id="node3" class="node"><title>Node3</title>
<g id="a_node3"><a xlink:href="_landusemap_8cpp.html" target="_top" xlink:title="source/main/gameplay\l/Landusemap.cpp">
<polygon fill="white" stroke="black" points="132.5,-1 132.5,-31 247.5,-31 247.5,-1 132.5,-1"/>
<text text-anchor="start" x="140.5" y="-19" font-family="Helvetica,sans-Serif" font-size="10.00">source/main/gameplay</text>
<text text-anchor="middle" x="190" y="-8" font-family="Helvetica,sans-Serif" font-size="10.00">/Landusemap.cpp</text>
</a>
</g>
</g>
<!-- Node1&#45;&gt;Node3 -->
<g id="edge2" class="edge"><title>Node1&#45;&gt;Node3</title>
<path fill="none" stroke="midnightblue" d="M3451.75,-76.9034C2975.51,-76.2063 581.475,-70.784 256,-32 253.316,-31.6802 250.582,-31.2968 247.828,-30.8638"/>
<polygon fill="midnightblue" stroke="midnightblue" points="3451.97,-80.4036 3461.98,-76.918 3451.98,-73.4036 3451.97,-80.4036"/>
</g>
<!-- Node4 -->
<g id="node4" class="node"><title>Node4</title>
<g id="a_node4"><a xlink:href="_land_vehicle_simulation_8cpp.html" target="_top" xlink:title="source/main/gameplay\l/LandVehicleSimulation.cpp">
<polygon fill="white" stroke="black" points="265.5,-1 265.5,-31 402.5,-31 402.5,-1 265.5,-1"/>
<text text-anchor="start" x="273.5" y="-19" font-family="Helvetica,sans-Serif" font-size="10.00">source/main/gameplay</text>
<text text-anchor="middle" x="334" y="-8" font-family="Helvetica,sans-Serif" font-size="10.00">/LandVehicleSimulation.cpp</text>
</a>
</g>
</g>
<!-- Node1&#45;&gt;Node4 -->
<g id="edge3" class="edge"><title>Node1&#45;&gt;Node4</title>
<path fill="none" stroke="midnightblue" d="M3451.61,-76.6901C2988.64,-74.8314 720.701,-64.1383 411,-32 408.291,-31.7188 405.535,-31.3901 402.756,-31.0228"/>
<polygon fill="midnightblue" stroke="midnightblue" points="3451.87,-80.191 3461.89,-76.7311 3451.9,-73.1911 3451.87,-80.191"/>
</g>
<!-- Node5 -->
<g id="node5" class="node"><title>Node5</title>
<g id="a_node5"><a xlink:href="_replay_8cpp.html" target="_top" xlink:title="source/main/gameplay\l/Replay.cpp">
<polygon fill="white" stroke="black" points="420.5,-1 420.5,-31 535.5,-31 535.5,-1 420.5,-1"/>
<text text-anchor="start" x="428.5" y="-19" font-family="Helvetica,sans-Serif" font-size="10.00">source/main/gameplay</text>
<text text-anchor="middle" x="478" y="-8" font-family="Helvetica,sans-Serif" font-size="10.00">/Replay.cpp</text>
</a>
</g>
</g>
<!-- Node1&#45;&gt;Node5 -->
<g id="edge4" class="edge"><title>Node1&#45;&gt;Node5</title>
<path fill="none" stroke="midnightblue" d="M3451.84,-76.7862C3001.21,-75.4768 839.27,-67.3827 544,-32 541.317,-31.6784 538.583,-31.2936 535.829,-30.8594"/>
<polygon fill="midnightblue" stroke="midnightblue" points="3451.84,-80.2861 3461.85,-76.815 3451.86,-73.2861 3451.84,-80.2861"/>
</g>
<!-- Node6 -->
<g id="node6" class="node"><title>Node6</title>
<g id="a_node6"><a xlink:href="_ro_r_frame_listener_8cpp.html" target="_top" xlink:title="source/main/gameplay\l/RoRFrameListener.cpp">
<polygon fill="white" stroke="black" points="553.5,-1 553.5,-31 674.5,-31 674.5,-1 553.5,-1"/>
<text text-anchor="start" x="561.5" y="-19" font-family="Helvetica,sans-Serif" font-size="10.00">source/main/gameplay</text>
<text text-anchor="middle" x="614" y="-8" font-family="Helvetica,sans-Serif" font-size="10.00">/RoRFrameListener.cpp</text>
</a>
</g>
</g>
<!-- Node1&#45;&gt;Node6 -->
<g id="edge5" class="edge"><title>Node1&#45;&gt;Node6</title>
<path fill="none" stroke="midnightblue" d="M3451.82,-76.6751C3013.86,-74.8135 963.859,-64.4196 683,-32 680.321,-31.6907 677.593,-31.3239 674.843,-30.9115"/>
<polygon fill="midnightblue" stroke="midnightblue" points="3451.84,-80.1752 3461.86,-76.7175 3451.87,-73.1752 3451.84,-80.1752"/>
</g>
<!-- Node7 -->
<g id="node7" class="node"><title>Node7</title>
<g id="a_node7"><a xlink:href="_camera_behavior_fixed_8cpp.html" target="_top" xlink:title="source/main/gfx/camera\l/CameraBehaviorFixed.cpp">
<polygon fill="white" stroke="black" points="692.5,-1 692.5,-31 827.5,-31 827.5,-1 692.5,-1"/>
<text text-anchor="start" x="700.5" y="-19" font-family="Helvetica,sans-Serif" font-size="10.00">source/main/gfx/camera</text>
<text text-anchor="middle" x="760" y="-8" font-family="Helvetica,sans-Serif" font-size="10.00">/CameraBehaviorFixed.cpp</text>
</a>
</g>
</g>
<!-- Node1&#45;&gt;Node7 -->
<g id="edge6" class="edge"><title>Node1&#45;&gt;Node7</title>
<path fill="none" stroke="midnightblue" d="M3451.82,-76.5022C3028.26,-73.8195 1101.13,-60.1478 836,-32 833.325,-31.716 830.605,-31.3849 827.861,-31.0156"/>
<polygon fill="midnightblue" stroke="midnightblue" points="3451.82,-80.0022 3461.85,-76.5654 3451.87,-73.0024 3451.82,-80.0022"/>
</g>
<!-- Node8 -->
<g id="node8" class="node"><title>Node8</title>
<g id="a_node8"><a xlink:href="_camera_behavior_free_8cpp.html" target="_top" xlink:title="source/main/gfx/camera\l/CameraBehaviorFree.cpp">
<polygon fill="white" stroke="black" points="845.5,-1 845.5,-31 976.5,-31 976.5,-1 845.5,-1"/>
<text text-anchor="start" x="853.5" y="-19" font-family="Helvetica,sans-Serif" font-size="10.00">source/main/gfx/camera</text>
<text text-anchor="middle" x="911" y="-8" font-family="Helvetica,sans-Serif" font-size="10.00">/CameraBehaviorFree.cpp</text>
</a>
</g>
</g>
<!-- Node1&#45;&gt;Node8 -->
<g id="edge7" class="edge"><title>Node1&#45;&gt;Node8</title>
<path fill="none" stroke="midnightblue" d="M3451.49,-76.4253C3041.72,-73.4529 1235.34,-58.9142 986,-32 982.964,-31.6722 979.867,-31.2823 976.747,-30.844"/>
<polygon fill="midnightblue" stroke="midnightblue" points="3451.74,-79.9272 3461.77,-76.4996 3451.79,-72.9274 3451.74,-79.9272"/>
</g>
<!-- Node9 -->
<g id="node9" class="node"><title>Node9</title>
<g id="a_node9"><a xlink:href="_camera_behavior_isometric_8cpp.html" target="_top" xlink:title="source/main/gfx/camera\l/CameraBehaviorIsometric.cpp">
<polygon fill="white" stroke="black" points="995,-1 995,-31 1147,-31 1147,-1 995,-1"/>
<text text-anchor="start" x="1003" y="-19" font-family="Helvetica,sans-Serif" font-size="10.00">source/main/gfx/camera</text>
<text text-anchor="middle" x="1071" y="-8" font-family="Helvetica,sans-Serif" font-size="10.00">/CameraBehaviorIsometric.cpp</text>
</a>
</g>
</g>
<!-- Node1&#45;&gt;Node9 -->
<g id="edge8" class="edge"><title>Node1&#45;&gt;Node9</title>
<path fill="none" stroke="midnightblue" d="M3451.75,-77.1636C3087.29,-77.6242 1615.61,-76.6285 1156,-32 1153.02,-31.7104 1149.98,-31.3744 1146.92,-31.0012"/>
<polygon fill="midnightblue" stroke="midnightblue" points="3451.96,-80.6634 3461.96,-77.15 3451.95,-73.6635 3451.96,-80.6634"/>
</g>
<!-- Node10 -->
<g id="node10" class="node"><title>Node10</title>
<g id="a_node10"><a xlink:href="_camera_behavior_orbit_8cpp.html" target="_top" xlink:title="source/main/gfx/camera\l/CameraBehaviorOrbit.cpp">
<polygon fill="white" stroke="black" points="1165,-1 1165,-31 1297,-31 1297,-1 1165,-1"/>
<text text-anchor="start" x="1173" y="-19" font-family="Helvetica,sans-Serif" font-size="10.00">source/main/gfx/camera</text>
<text text-anchor="middle" x="1231" y="-8" font-family="Helvetica,sans-Serif" font-size="10.00">/CameraBehaviorOrbit.cpp</text>
</a>
</g>
</g>
<!-- Node1&#45;&gt;Node10 -->
<g id="edge9" class="edge"><title>Node1&#45;&gt;Node10</title>
<path fill="none" stroke="midnightblue" d="M3451.77,-77.2901C3101.7,-78.2242 1733.97,-78.7457 1306,-32 1303.1,-31.6828 1300.14,-31.3093 1297.15,-30.8916"/>
<polygon fill="midnightblue" stroke="midnightblue" points="3451.84,-80.79 3461.83,-77.2624 3451.82,-73.79 3451.84,-80.79"/>
</g>
<!-- Node11 -->
<g id="node11" class="node"><title>Node11</title>
<g id="a_node11"><a xlink:href="_camera_behavior_vehicle_spline_8cpp.html" target="_top" xlink:title="source/main/gfx/camera\l/CameraBehaviorVehicleSpline.cpp">
<polygon fill="white" stroke="black" points="1315,-1 1315,-31 1485,-31 1485,-1 1315,-1"/>
<text text-anchor="start" x="1323" y="-19" font-family="Helvetica,sans-Serif" font-size="10.00">source/main/gfx/camera</text>
<text text-anchor="middle" x="1400" y="-8" font-family="Helvetica,sans-Serif" font-size="10.00">/CameraBehaviorVehicleSpline.cpp</text>
</a>
</g>
</g>
<!-- Node1&#45;&gt;Node11 -->
<g id="edge10" class="edge"><title>Node1&#45;&gt;Node11</title>
<path fill="none" stroke="midnightblue" d="M3451.5,-76.681C3119.95,-75.1663 1883.71,-67.2267 1494,-32 1490.79,-31.7099 1487.52,-31.3769 1484.23,-31.0094"/>
<polygon fill="midnightblue" stroke="midnightblue" points="3451.97,-80.183 3461.98,-76.728 3452,-73.183 3451.97,-80.183"/>
</g>
<!-- Node12 -->
<g id="node12" class="node"><title>Node12</title>
<g id="a_node12"><a xlink:href="_ogre_subsystem_8cpp.html" target="_top" xlink:title="source/main/gfx/OgreSubsystem.cpp">
<polygon fill="white" stroke="black" points="1503.5,-6.5 1503.5,-25.5 1682.5,-25.5 1682.5,-6.5 1503.5,-6.5"/>
<text text-anchor="middle" x="1593" y="-13.5" font-family="Helvetica,sans-Serif" font-size="10.00">source/main/gfx/OgreSubsystem.cpp</text>
</a>
</g>
</g>
<!-- Node1&#45;&gt;Node12 -->
<g id="edge11" class="edge"><title>Node1&#45;&gt;Node12</title>
<path fill="none" stroke="midnightblue" d="M3451.56,-76.3856C3140.8,-73.8518 2040.13,-62.8544 1691,-32 1674.54,-30.5454 1656.64,-28.0724 1640.7,-25.5493"/>
<polygon fill="midnightblue" stroke="midnightblue" points="3451.82,-79.8876 3461.84,-76.4686 3451.87,-72.8879 3451.82,-79.8876"/>
</g>
<!-- Node13 -->
<g id="node13" class="node"><title>Node13</title>
<g id="a_node13"><a xlink:href="_dash_board_manager_8cpp.html" target="_top" xlink:title="source/main/gui/DashBoard\lManager.cpp">
<polygon fill="white" stroke="black" points="1700.5,-1 1700.5,-31 1837.5,-31 1837.5,-1 1700.5,-1"/>
<text text-anchor="start" x="1708.5" y="-19" font-family="Helvetica,sans-Serif" font-size="10.00">source/main/gui/DashBoard</text>
<text text-anchor="middle" x="1769" y="-8" font-family="Helvetica,sans-Serif" font-size="10.00">Manager.cpp</text>
</a>
</g>
</g>
<!-- Node1&#45;&gt;Node13 -->
<g id="edge12" class="edge"><title>Node1&#45;&gt;Node13</title>
<path fill="none" stroke="midnightblue" d="M3451.64,-76.6127C3157.93,-74.9491 2162.61,-66.8154 1846,-32 1843.29,-31.7023 1840.54,-31.3595 1837.76,-30.9806"/>
<polygon fill="midnightblue" stroke="midnightblue" points="3451.77,-80.1133 3461.79,-76.6691 3451.8,-73.1135 3451.77,-80.1133"/>
</g>
<!-- Node14 -->
<g id="node14" class="node"><title>Node14</title>
<g id="a_node14"><a xlink:href="_g_u_i_manager_8cpp.html" target="_top" xlink:title="source/main/gui/GUIManager.cpp">
<polygon fill="white" stroke="black" points="1855.5,-6.5 1855.5,-25.5 2018.5,-25.5 2018.5,-6.5 1855.5,-6.5"/>
<text text-anchor="middle" x="1937" y="-13.5" font-family="Helvetica,sans-Serif" font-size="10.00">source/main/gui/GUIManager.cpp</text>
</a>
</g>
</g>
<!-- Node1&#45;&gt;Node14 -->
<g id="edge13" class="edge"><title>Node1&#45;&gt;Node14</title>
<path fill="none" stroke="midnightblue" d="M3451.5,-75.9875C3178.77,-72.412 2307.7,-59.1089 2028,-32 2012.7,-30.5171 1996.08,-28.0371 1981.28,-25.5162"/>
<polygon fill="midnightblue" stroke="midnightblue" points="3451.68,-79.49 3461.72,-76.1206 3451.77,-72.4906 3451.68,-79.49"/>
</g>
<!-- Node15 -->
<g id="node15" class="node"><title>Node15</title>
<g id="a_node15"><a xlink:href="_overlay_wrapper_8cpp.html" target="_top" xlink:title="source/main/gui/OverlayWrapper.cpp">
<polygon fill="white" stroke="black" points="2037,-6.5 2037,-25.5 2215,-25.5 2215,-6.5 2037,-6.5"/>
<text text-anchor="middle" x="2126" y="-13.5" font-family="Helvetica,sans-Serif" font-size="10.00">source/main/gui/OverlayWrapper.cpp</text>
</a>
</g>
</g>
<!-- Node1&#45;&gt;Node15 -->
<g id="edge14" class="edge"><title>Node1&#45;&gt;Node15</title>
<path fill="none" stroke="midnightblue" d="M3451.56,-77.5253C3244.61,-78.1152 2686.62,-75.1999 2224,-32 2207.72,-30.4797 2190.03,-28.0221 2174.21,-25.5322"/>
<polygon fill="midnightblue" stroke="midnightblue" points="3451.75,-81.0248 3461.74,-77.4926 3451.73,-74.0248 3451.75,-81.0248"/>
</g>
<!-- Node16 -->
<g id="node16" class="node"><title>Node16</title>
<g id="a_node16"><a xlink:href="_g_u_i___debug_options_8cpp.html" target="_top" xlink:title="source/main/gui/panels\l/GUI_DebugOptions.cpp">
<polygon fill="white" stroke="black" points="2233,-1 2233,-31 2357,-31 2357,-1 2233,-1"/>
<text text-anchor="start" x="2241" y="-19" font-family="Helvetica,sans-Serif" font-size="10.00">source/main/gui/panels</text>
<text text-anchor="middle" x="2295" y="-8" font-family="Helvetica,sans-Serif" font-size="10.00">/GUI_DebugOptions.cpp</text>
</a>
</g>
</g>
<!-- Node1&#45;&gt;Node16 -->
<g id="edge15" class="edge"><title>Node1&#45;&gt;Node16</title>
<path fill="none" stroke="midnightblue" d="M3451.34,-75.64C3221.24,-71.5632 2576.36,-58.0821 2366,-32 2363.12,-31.6435 2360.19,-31.2299 2357.24,-30.7725"/>
<polygon fill="midnightblue" stroke="midnightblue" points="3451.6,-79.1449 3461.66,-75.8214 3451.72,-72.146 3451.6,-79.1449"/>
</g>
<!-- Node17 -->
<g id="node17" class="node"><title>Node17</title>
<g id="a_node17"><a xlink:href="_g_u_i___friction_settings_8cpp.html" target="_top" xlink:title="source/main/gui/panels\l/GUI_FrictionSettings.cpp">
<polygon fill="white" stroke="black" points="2375,-1 2375,-31 2505,-31 2505,-1 2375,-1"/>
<text text-anchor="start" x="2383" y="-19" font-family="Helvetica,sans-Serif" font-size="10.00">source/main/gui/panels</text>
<text text-anchor="middle" x="2440" y="-8" font-family="Helvetica,sans-Serif" font-size="10.00">/GUI_FrictionSettings.cpp</text>
</a>
</g>
</g>
<!-- Node1&#45;&gt;Node17 -->
<g id="edge16" class="edge"><title>Node1&#45;&gt;Node17</title>
<path fill="none" stroke="midnightblue" d="M3451.86,-77.7044C3278.1,-78.2454 2860.73,-74.5262 2514,-32 2511.14,-31.6489 2508.22,-31.2474 2505.28,-30.8067"/>
<polygon fill="midnightblue" stroke="midnightblue" points="3451.97,-81.2041 3461.96,-77.6673 3451.94,-74.2042 3451.97,-81.2041"/>
</g>
<!-- Node18 -->
<g id="node18" class="node"><title>Node18</title>
<g id="a_node18"><a xlink:href="_g_u_i___game_about_8cpp.html" target="_top" xlink:title="source/main/gui/panels\l/GUI_GameAbout.cpp">
<polygon fill="white" stroke="black" points="2523.5,-1 2523.5,-31 2640.5,-31 2640.5,-1 2523.5,-1"/>
<text text-anchor="start" x="2531.5" y="-19" font-family="Helvetica,sans-Serif" font-size="10.00">source/main/gui/panels</text>
<text text-anchor="middle" x="2582" y="-8" font-family="Helvetica,sans-Serif" font-size="10.00">/GUI_GameAbout.cpp</text>
</a>
</g>
</g>
<!-- Node1&#45;&gt;Node18 -->
<g id="edge17" class="edge"><title>Node1&#45;&gt;Node18</title>
<path fill="none" stroke="midnightblue" d="M3451.68,-77.361C3294.92,-77.0429 2943.01,-71.4965 2650,-32 2647,-31.5963 2643.95,-31.1283 2640.86,-30.6126"/>
<polygon fill="midnightblue" stroke="midnightblue" points="3451.72,-80.8609 3461.72,-77.3747 3451.73,-73.8609 3451.72,-80.8609"/>
</g>
<!-- Node19 -->
<g id="node19" class="node"><title>Node19</title>
<g id="a_node19"><a xlink:href="_g_u_i___game_chat_box_8cpp.html" target="_top" xlink:title="source/main/gui/panels\l/GUI_GameChatBox.cpp">
<polygon fill="white" stroke="black" points="2659,-1 2659,-31 2785,-31 2785,-1 2659,-1"/>
<text text-anchor="start" x="2667" y="-19" font-family="Helvetica,sans-Serif" font-size="10.00">source/main/gui/panels</text>
<text text-anchor="middle" x="2722" y="-8" font-family="Helvetica,sans-Serif" font-size="10.00">/GUI_GameChatBox.cpp</text>
</a>
</g>
</g>
<!-- Node1&#45;&gt;Node19 -->
<g id="edge18" class="edge"><title>Node1&#45;&gt;Node19</title>
<path fill="none" stroke="midnightblue" d="M3451.97,-75.8801C3315.06,-73.1466 3031.56,-63.7987 2794,-32 2791.09,-31.6104 2788.12,-31.1697 2785.13,-30.6902"/>
<polygon fill="midnightblue" stroke="midnightblue" points="3451.91,-79.3794 3461.97,-76.0732 3452.04,-72.3807 3451.91,-79.3794"/>
</g>
<!-- Node20 -->
<g id="node20" class="node"><title>Node20</title>
<g id="a_node20"><a xlink:href="_g_u_i___game_console_8cpp.html" target="_top" xlink:title="source/main/gui/panels\l/GUI_GameConsole.cpp">
<polygon fill="white" stroke="black" points="2803,-1 2803,-31 2927,-31 2927,-1 2803,-1"/>
<text text-anchor="start" x="2811" y="-19" font-family="Helvetica,sans-Serif" font-size="10.00">source/main/gui/panels</text>
<text text-anchor="middle" x="2865" y="-8" font-family="Helvetica,sans-Serif" font-size="10.00">/GUI_GameConsole.cpp</text>
</a>
</g>
</g>
<!-- Node1&#45;&gt;Node20 -->
<g id="edge19" class="edge"><title>Node1&#45;&gt;Node20</title>
<path fill="none" stroke="midnightblue" d="M3451.68,-74.2718C3336.02,-69.6527 3119.09,-58.1113 2936,-32 2933.13,-31.5909 2930.21,-31.1342 2927.25,-30.6418"/>
<polygon fill="midnightblue" stroke="midnightblue" points="3451.74,-77.7768 3461.87,-74.6713 3452.01,-70.7822 3451.74,-77.7768"/>
</g>
<!-- Node21 -->
<g id="node21" class="node"><title>Node21</title>
<g id="a_node21"><a xlink:href="_g_u_i___game_main_menu_8cpp.html" target="_top" xlink:title="source/main/gui/panels\l/GUI_GameMainMenu.cpp">
<polygon fill="white" stroke="black" points="2945.5,-1 2945.5,-31 3078.5,-31 3078.5,-1 2945.5,-1"/>
<text text-anchor="start" x="2953.5" y="-19" font-family="Helvetica,sans-Serif" font-size="10.00">source/main/gui/panels</text>
<text text-anchor="middle" x="3012" y="-8" font-family="Helvetica,sans-Serif" font-size="10.00">/GUI_GameMainMenu.cpp</text>
</a>
</g>
</g>
<!-- Node1&#45;&gt;Node21 -->
<g id="edge20" class="edge"><title>Node1&#45;&gt;Node21</title>
<path fill="none" stroke="midnightblue" d="M3451.79,-71.042C3362.09,-63.9967 3214.37,-50.8037 3088,-32 3084.94,-31.5448 3081.82,-31.0502 3078.67,-30.5272"/>
<polygon fill="midnightblue" stroke="midnightblue" points="3451.66,-74.5422 3461.9,-71.8292 3452.2,-67.5633 3451.66,-74.5422"/>
</g>
<!-- Node22 -->
<g id="node22" class="node"><title>Node22</title>
<g id="a_node22"><a xlink:href="_g_u_i___game_pause_menu_8cpp.html" target="_top" xlink:title="source/main/gui/panels\l/GUI_GamePauseMenu.cpp">
<polygon fill="white" stroke="black" points="3097,-1 3097,-31 3237,-31 3237,-1 3097,-1"/>
<text text-anchor="start" x="3105" y="-19" font-family="Helvetica,sans-Serif" font-size="10.00">source/main/gui/panels</text>
<text text-anchor="middle" x="3167" y="-8" font-family="Helvetica,sans-Serif" font-size="10.00">/GUI_GamePauseMenu.cpp</text>
</a>
</g>
</g>
<!-- Node1&#45;&gt;Node22 -->
<g id="edge21" class="edge"><title>Node1&#45;&gt;Node22</title>
<path fill="none" stroke="midnightblue" d="M3465.5,-66.94C3407.08,-58.207 3320.91,-44.9611 3246,-32 3243.11,-31.5002 3240.16,-30.9815 3237.19,-30.4503"/>
<polygon fill="midnightblue" stroke="midnightblue" points="3465.31,-70.4499 3475.71,-68.4632 3466.34,-63.5264 3465.31,-70.4499"/>
</g>
<!-- Node23 -->
<g id="node23" class="node"><title>Node23</title>
<g id="a_node23"><a xlink:href="_g_u_i___game_settings_8cpp.html" target="_top" xlink:title="source/main/gui/panels\l/GUI_GameSettings.cpp">
<polygon fill="white" stroke="black" points="3255,-1 3255,-31 3379,-31 3379,-1 3255,-1"/>
<text text-anchor="start" x="3263" y="-19" font-family="Helvetica,sans-Serif" font-size="10.00">source/main/gui/panels</text>
<text text-anchor="middle" x="3317" y="-8" font-family="Helvetica,sans-Serif" font-size="10.00">/GUI_GameSettings.cpp</text>
</a>
</g>
</g>
<!-- Node1&#45;&gt;Node23 -->
<g id="edge22" class="edge"><title>Node1&#45;&gt;Node23</title>
<path fill="none" stroke="midnightblue" d="M3492.88,-65.6299C3457.33,-55.802 3405.82,-41.5589 3367.72,-31.0253"/>
<polygon fill="midnightblue" stroke="midnightblue" points="3492.34,-69.1118 3502.91,-68.4035 3494.2,-62.365 3492.34,-69.1118"/>
</g>
<!-- Node24 -->
<g id="node24" class="node"><title>Node24</title>
<g id="a_node24"><a xlink:href="_g_u_i___loading_window_8cpp.html" target="_top" xlink:title="source/main/gui/panels\l/GUI_LoadingWindow.cpp">
<polygon fill="white" stroke="black" points="3397.5,-1 3397.5,-31 3528.5,-31 3528.5,-1 3397.5,-1"/>
<text text-anchor="start" x="3405.5" y="-19" font-family="Helvetica,sans-Serif" font-size="10.00">source/main/gui/panels</text>
<text text-anchor="middle" x="3463" y="-8" font-family="Helvetica,sans-Serif" font-size="10.00">/GUI_LoadingWindow.cpp</text>
</a>
</g>
</g>
<!-- Node1&#45;&gt;Node24 -->
<g id="edge23" class="edge"><title>Node1&#45;&gt;Node24</title>
<path fill="none" stroke="midnightblue" d="M3516.01,-61.7947C3504.86,-52.3738 3490.64,-40.3562 3479.73,-31.1408"/>
<polygon fill="midnightblue" stroke="midnightblue" points="3513.93,-64.6221 3523.83,-68.4035 3518.45,-59.2755 3513.93,-64.6221"/>
</g>
<!-- Node25 -->
<g id="node25" class="node"><title>Node25</title>
<g id="a_node25"><a xlink:href="_g_u_i___main_selector_8cpp.html" target="_top" xlink:title="source/main/gui/panels\l/GUI_MainSelector.cpp">
<polygon fill="white" stroke="black" points="3546.5,-1 3546.5,-31 3665.5,-31 3665.5,-1 3546.5,-1"/>
<text text-anchor="start" x="3554.5" y="-19" font-family="Helvetica,sans-Serif" font-size="10.00">source/main/gui/panels</text>
<text text-anchor="middle" x="3606" y="-8" font-family="Helvetica,sans-Serif" font-size="10.00">/GUI_MainSelector.cpp</text>
</a>
</g>
</g>
<!-- Node1&#45;&gt;Node25 -->
<g id="edge24" class="edge"><title>Node1&#45;&gt;Node25</title>
<path fill="none" stroke="midnightblue" d="M3552.25,-61.7947C3563.55,-52.3738 3577.97,-40.3562 3589.03,-31.1408"/>
<polygon fill="midnightblue" stroke="midnightblue" points="3549.76,-59.3128 3544.32,-68.4035 3554.24,-64.6904 3549.76,-59.3128"/>
</g>
<!-- Node26 -->
<g id="node26" class="node"><title>Node26</title>
<g id="a_node26"><a xlink:href="_g_u_i___message_box_8cpp.html" target="_top" xlink:title="source/main/gui/panels\l/GUI_MessageBox.cpp">
<polygon fill="white" stroke="black" points="3683.5,-1 3683.5,-31 3802.5,-31 3802.5,-1 3683.5,-1"/>
<text text-anchor="start" x="3691.5" y="-19" font-family="Helvetica,sans-Serif" font-size="10.00">source/main/gui/panels</text>
<text text-anchor="middle" x="3743" y="-8" font-family="Helvetica,sans-Serif" font-size="10.00">/GUI_MessageBox.cpp</text>
</a>
</g>
</g>
<!-- Node1&#45;&gt;Node26 -->
<g id="edge25" class="edge"><title>Node1&#45;&gt;Node26</title>
<path fill="none" stroke="midnightblue" d="M3573.61,-65.6299C3607.84,-55.802 3657.45,-41.5589 3694.15,-31.0253"/>
<polygon fill="midnightblue" stroke="midnightblue" points="3572.59,-62.2799 3563.94,-68.4035 3574.52,-69.0082 3572.59,-62.2799"/>
</g>
<!-- Node27 -->
<g id="node27" class="node"><title>Node27</title>
<g id="a_node27"><a xlink:href="_g_u_i___multiplayer_client_list_8cpp.html" target="_top" xlink:title="source/main/gui/panels\l/GUI_MultiplayerClientList.cpp">
<polygon fill="white" stroke="black" points="3821,-1 3821,-31 3971,-31 3971,-1 3821,-1"/>
<text text-anchor="start" x="3829" y="-19" font-family="Helvetica,sans-Serif" font-size="10.00">source/main/gui/panels</text>
<text text-anchor="middle" x="3896" y="-8" font-family="Helvetica,sans-Serif" font-size="10.00">/GUI_MultiplayerClientList.cpp</text>
</a>
</g>
</g>
<!-- Node1&#45;&gt;Node27 -->
<g id="edge26" class="edge"><title>Node1&#45;&gt;Node27</title>
<path fill="none" stroke="midnightblue" d="M3598.07,-66.8448C3654.24,-57.8817 3738.08,-44.3565 3811,-32 3814.25,-31.4492 3817.57,-30.8823 3820.92,-30.3061"/>
<polygon fill="midnightblue" stroke="midnightblue" points="3597.24,-63.4333 3587.92,-68.464 3598.34,-70.346 3597.24,-63.4333"/>
</g>
<!-- Node28 -->
<g id="node28" class="node"><title>Node28</title>
<g id="a_node28"><a xlink:href="_g_u_i___multiplayer_selector_8cpp.html" target="_top" xlink:title="source/main/gui/panels\l/GUI_MultiplayerSelector.cpp">
<polygon fill="white" stroke="black" points="3989.5,-1 3989.5,-31 4134.5,-31 4134.5,-1 3989.5,-1"/>
<text text-anchor="start" x="3997.5" y="-19" font-family="Helvetica,sans-Serif" font-size="10.00">source/main/gui/panels</text>
<text text-anchor="middle" x="4062" y="-8" font-family="Helvetica,sans-Serif" font-size="10.00">/GUI_MultiplayerSelector.cpp</text>
</a>
</g>
</g>
<!-- Node1&#45;&gt;Node28 -->
<g id="edge27" class="edge"><title>Node1&#45;&gt;Node28</title>
<path fill="none" stroke="midnightblue" d="M3616.36,-70.6075C3705.86,-63.2101 3852.95,-49.7363 3979,-32 3982.34,-31.5307 3985.74,-31.0247 3989.18,-30.4923"/>
<polygon fill="midnightblue" stroke="midnightblue" points="3615.95,-67.129 3606.27,-71.4356 3616.53,-74.1055 3615.95,-67.129"/>
</g>
<!-- Node29 -->
<g id="node29" class="node"><title>Node29</title>
<g id="a_node29"><a xlink:href="_g_u_i___sim_utils_8cpp.html" target="_top" xlink:title="source/main/gui/panels\l/GUI_SimUtils.cpp">
<polygon fill="white" stroke="black" points="4152.5,-1 4152.5,-31 4269.5,-31 4269.5,-1 4152.5,-1"/>
<text text-anchor="start" x="4160.5" y="-19" font-family="Helvetica,sans-Serif" font-size="10.00">source/main/gui/panels</text>
<text text-anchor="middle" x="4211" y="-8" font-family="Helvetica,sans-Serif" font-size="10.00">/GUI_SimUtils.cpp</text>
</a>
</g>
</g>
<!-- Node1&#45;&gt;Node29 -->
<g id="edge28" class="edge"><title>Node1&#45;&gt;Node29</title>
<path fill="none" stroke="midnightblue" d="M3616.43,-74.6556C3733.88,-70.4667 3955.9,-59.4048 4143,-32 4146.11,-31.5445 4149.29,-31.0268 4152.49,-30.4642"/>
<polygon fill="midnightblue" stroke="midnightblue" points="3615.96,-71.1699 3606.08,-75.0164 3616.2,-78.1656 3615.96,-71.1699"/>
</g>
<!-- Node30 -->
<g id="node30" class="node"><title>Node30</title>
<g id="a_node30"><a xlink:href="_g_u_i___texture_tool_window_8cpp.html" target="_top" xlink:title="source/main/gui/panels\l/GUI_TextureToolWindow.cpp">
<polygon fill="white" stroke="black" points="4287.5,-1 4287.5,-31 4436.5,-31 4436.5,-1 4287.5,-1"/>
<text text-anchor="start" x="4295.5" y="-19" font-family="Helvetica,sans-Serif" font-size="10.00">source/main/gui/panels</text>
<text text-anchor="middle" x="4362" y="-8" font-family="Helvetica,sans-Serif" font-size="10.00">/GUI_TextureToolWindow.cpp</text>
</a>
</g>
</g>
<!-- Node1&#45;&gt;Node30 -->
<g id="edge29" class="edge"><title>Node1&#45;&gt;Node30</title>
<path fill="none" stroke="midnightblue" d="M3616.11,-75.1527C3753.51,-71.3635 4038.57,-60.5208 4278,-32 4281.09,-31.632 4284.24,-31.2235 4287.41,-30.7835"/>
<polygon fill="midnightblue" stroke="midnightblue" points="3615.97,-71.6549 3606.07,-75.4241 3616.16,-78.6524 3615.97,-71.6549"/>
</g>
<!-- Node31 -->
<g id="node31" class="node"><title>Node31</title>
<g id="a_node31"><a xlink:href="_g_u_i___top_menubar_8cpp.html" target="_top" xlink:title="source/main/gui/panels\l/GUI_TopMenubar.cpp">
<polygon fill="white" stroke="black" points="4454.5,-1 4454.5,-31 4571.5,-31 4571.5,-1 4454.5,-1"/>
<text text-anchor="start" x="4462.5" y="-19" font-family="Helvetica,sans-Serif" font-size="10.00">source/main/gui/panels</text>
<text text-anchor="middle" x="4513" y="-8" font-family="Helvetica,sans-Serif" font-size="10.00">/GUI_TopMenubar.cpp</text>
</a>
</g>
</g>
<!-- Node1&#45;&gt;Node31 -->
<g id="edge30" class="edge"><title>Node1&#45;&gt;Node31</title>
<path fill="none" stroke="midnightblue" d="M3616.38,-77.5415C3776.69,-77.5783 4141.49,-72.6783 4445,-32 4448,-31.5985 4451.05,-31.1324 4454.14,-30.6181"/>
<polygon fill="midnightblue" stroke="midnightblue" points="3616.12,-74.0414 3606.12,-77.5323 3616.12,-81.0414 3616.12,-74.0414"/>
</g>
<!-- Node32 -->
<g id="node32" class="node"><title>Node32</title>
<g id="a_node32"><a xlink:href="_g_u_i___vehicle_description_8cpp.html" target="_top" xlink:title="source/main/gui/panels\l/GUI_VehicleDescription.cpp">
<polygon fill="white" stroke="black" points="4589.5,-1 4589.5,-31 4732.5,-31 4732.5,-1 4589.5,-1"/>
<text text-anchor="start" x="4597.5" y="-19" font-family="Helvetica,sans-Serif" font-size="10.00">source/main/gui/panels</text>
<text text-anchor="middle" x="4661" y="-8" font-family="Helvetica,sans-Serif" font-size="10.00">/GUI_VehicleDescription.cpp</text>
</a>
</g>
</g>
<!-- Node1&#45;&gt;Node32 -->
<g id="edge31" class="edge"><title>Node1&#45;&gt;Node32</title>
<path fill="none" stroke="midnightblue" d="M3616.25,-77.369C3793.17,-77.3061 4222.79,-72.5565 4580,-32 4582.98,-31.6612 4586.02,-31.277 4589.09,-30.8572"/>
<polygon fill="midnightblue" stroke="midnightblue" points="3616.24,-73.8691 3606.24,-77.3676 3616.24,-80.8691 3616.24,-73.8691"/>
</g>
<!-- Node33 -->
<g id="node33" class="node"><title>Node33</title>
<g id="a_node33"><a xlink:href="main_8cpp.html" target="_top" xlink:title="source/main/main.cpp">
<polygon fill="white" stroke="black" points="4750.5,-6.5 4750.5,-25.5 4863.5,-25.5 4863.5,-6.5 4750.5,-6.5"/>
<text text-anchor="middle" x="4807" y="-13.5" font-family="Helvetica,sans-Serif" font-size="10.00">source/main/main.cpp</text>
</a>
</g>
</g>
<!-- Node1&#45;&gt;Node33 -->
<g id="edge32" class="edge"><title>Node1&#45;&gt;Node33</title>
<path fill="none" stroke="midnightblue" d="M3616.58,-75.9242C3851.9,-72.54 4522.94,-60.5905 4741,-32 4752.18,-30.5335 4764.26,-28.0575 4774.99,-25.5354"/>
<polygon fill="midnightblue" stroke="midnightblue" points="3616.33,-72.4273 3606.38,-76.0694 3616.42,-79.4266 3616.33,-72.4273"/>
</g>
<!-- Node34 -->
<g id="node34" class="node"><title>Node34</title>
<g id="a_node34"><a xlink:href="_main_menu_8cpp.html" target="_top" xlink:title="source/main/MainMenu.cpp">
<polygon fill="white" stroke="black" points="4881.5,-6.5 4881.5,-25.5 5018.5,-25.5 5018.5,-6.5 4881.5,-6.5"/>
<text text-anchor="middle" x="4950" y="-13.5" font-family="Helvetica,sans-Serif" font-size="10.00">source/main/MainMenu.cpp</text>
</a>
</g>
</g>
<!-- Node1&#45;&gt;Node34 -->
<g id="edge33" class="edge"><title>Node1&#45;&gt;Node34</title>
<path fill="none" stroke="midnightblue" d="M3616.2,-75.9205C3868.06,-72.3466 4626.82,-59.5274 4872,-32 4885.16,-30.523 4899.41,-28.0444 4912.1,-25.523"/>
<polygon fill="midnightblue" stroke="midnightblue" points="3615.97,-72.4233 3606.02,-76.0638 3616.07,-79.4226 3615.97,-72.4233"/>
</g>
<!-- Node35 -->
<g id="node35" class="node"><title>Node35</title>
<g id="a_node35"><a xlink:href="_beam_8cpp.html" target="_top" xlink:title="source/main/physics\l/Beam.cpp">
<polygon fill="white" stroke="black" points="5036.5,-1 5036.5,-31 5143.5,-31 5143.5,-1 5036.5,-1"/>
<text text-anchor="start" x="5044.5" y="-19" font-family="Helvetica,sans-Serif" font-size="10.00">source/main/physics</text>
<text text-anchor="middle" x="5090" y="-8" font-family="Helvetica,sans-Serif" font-size="10.00">/Beam.cpp</text>
</a>
</g>
</g>
<!-- Node1&#45;&gt;Node35 -->
<g id="edge34" class="edge"><title>Node1&#45;&gt;Node35</title>
<path fill="none" stroke="midnightblue" d="M3616.34,-76.7244C3887.52,-75.4705 4750.99,-68.6287 5027,-32 5030.01,-31.6006 5033.08,-31.1187 5036.18,-30.5759"/>
<polygon fill="midnightblue" stroke="midnightblue" points="3616.16,-73.2251 3606.18,-76.7701 3616.19,-80.225 3616.16,-73.2251"/>
</g>
<!-- Node36 -->
<g id="node36" class="node"><title>Node36</title>
<g id="a_node36"><a xlink:href="_beam_factory_8cpp.html" target="_top" xlink:title="source/main/physics\l/BeamFactory.cpp">
<polygon fill="white" stroke="black" points="5161.5,-1 5161.5,-31 5268.5,-31 5268.5,-1 5161.5,-1"/>
<text text-anchor="start" x="5169.5" y="-19" font-family="Helvetica,sans-Serif" font-size="10.00">source/main/physics</text>
<text text-anchor="middle" x="5215" y="-8" font-family="Helvetica,sans-Serif" font-size="10.00">/BeamFactory.cpp</text>
</a>
</g>
</g>
<!-- Node1&#45;&gt;Node36 -->
<g id="edge35" class="edge"><title>Node1&#45;&gt;Node36</title>
<path fill="none" stroke="midnightblue" d="M3616.33,-76.9494C3902.15,-76.4236 4850.47,-71.6584 5152,-32 5155.01,-31.6041 5158.09,-31.1249 5161.18,-30.5844"/>
<polygon fill="midnightblue" stroke="midnightblue" points="3616.03,-73.4498 3606.04,-76.967 3616.05,-80.4498 3616.03,-73.4498"/>
</g>
<!-- Node37 -->
<g id="node37" class="node"><title>Node37</title>
<g id="a_node37"><a xlink:href="_collisions_8cpp.html" target="_top" xlink:title="source/main/physics\l/collision/Collisions.cpp">
<polygon fill="white" stroke="black" points="5286.5,-1 5286.5,-31 5405.5,-31 5405.5,-1 5286.5,-1"/>
<text text-anchor="start" x="5294.5" y="-19" font-family="Helvetica,sans-Serif" font-size="10.00">source/main/physics</text>
<text text-anchor="middle" x="5346" y="-8" font-family="Helvetica,sans-Serif" font-size="10.00">/collision/Collisions.cpp</text>
</a>
</g>
</g>
<!-- Node1&#45;&gt;Node37 -->
<g id="edge36" class="edge"><title>Node1&#45;&gt;Node37</title>
<path fill="none" stroke="midnightblue" d="M3616.51,-76.9287C3916.59,-76.3484 4949.55,-71.4628 5277,-32 5280.04,-31.6333 5283.15,-31.1952 5286.28,-30.7031"/>
<polygon fill="midnightblue" stroke="midnightblue" points="3616.14,-73.4292 3606.14,-76.9476 3616.15,-80.4292 3616.14,-73.4292"/>
</g>
<!-- Node38 -->
<g id="node38" class="node"><title>Node38</title>
<g id="a_node38"><a xlink:href="_differentials_8cpp.html" target="_top" xlink:title="source/main/physics\l/Differentials.cpp">
<polygon fill="white" stroke="black" points="5423.5,-1 5423.5,-31 5530.5,-31 5530.5,-1 5423.5,-1"/>
<text text-anchor="start" x="5431.5" y="-19" font-family="Helvetica,sans-Serif" font-size="10.00">source/main/physics</text>
<text text-anchor="middle" x="5477" y="-8" font-family="Helvetica,sans-Serif" font-size="10.00">/Differentials.cpp</text>
</a>
</g>
</g>
<!-- Node1&#45;&gt;Node38 -->
<g id="edge37" class="edge"><title>Node1&#45;&gt;Node38</title>
<path fill="none" stroke="midnightblue" d="M3616.59,-77.3255C3931.75,-78.2102 5058.84,-78.0122 5414,-32 5417.01,-31.61 5420.09,-31.1354 5423.18,-30.5983"/>
<polygon fill="midnightblue" stroke="midnightblue" points="3616.17,-73.8244 3606.16,-77.295 3616.15,-80.8243 3616.17,-73.8244"/>
</g>
<!-- Node39 -->
<g id="node39" class="node"><title>Node39</title>
<g id="a_node39"><a xlink:href="_cache_system_8cpp.html" target="_top" xlink:title="source/main/resources\l/CacheSystem.cpp">
<polygon fill="white" stroke="black" points="5549,-1 5549,-31 5665,-31 5665,-1 5549,-1"/>
<text text-anchor="start" x="5557" y="-19" font-family="Helvetica,sans-Serif" font-size="10.00">source/main/resources</text>
<text text-anchor="middle" x="5607" y="-8" font-family="Helvetica,sans-Serif" font-size="10.00">/CacheSystem.cpp</text>
</a>
</g>
</g>
<!-- Node1&#45;&gt;Node39 -->
<g id="edge38" class="edge"><title>Node1&#45;&gt;Node39</title>
<path fill="none" stroke="midnightblue" d="M3616.52,-77.2889C3944.67,-78.1063 5157.7,-77.8897 5539,-32 5542.24,-31.61 5545.55,-31.1354 5548.89,-30.5983"/>
<polygon fill="midnightblue" stroke="midnightblue" points="3616.16,-73.788 3606.15,-77.262 3616.14,-80.788 3616.16,-73.788"/>
</g>
<!-- Node40 -->
<g id="node40" class="node"><title>Node40</title>
<g id="a_node40"><a xlink:href="_content_manager_8cpp.html" target="_top" xlink:title="source/main/resources\l/ContentManager.cpp">
<polygon fill="white" stroke="black" points="5683,-1 5683,-31 5799,-31 5799,-1 5683,-1"/>
<text text-anchor="start" x="5691" y="-19" font-family="Helvetica,sans-Serif" font-size="10.00">source/main/resources</text>
<text text-anchor="middle" x="5741" y="-8" font-family="Helvetica,sans-Serif" font-size="10.00">/ContentManager.cpp</text>
</a>
</g>
</g>
<!-- Node1&#45;&gt;Node40 -->
<g id="edge39" class="edge"><title>Node1&#45;&gt;Node40</title>
<path fill="none" stroke="midnightblue" d="M3616.05,-77.4236C3957.1,-78.8525 5263.84,-80.9511 5673,-32 5676.24,-31.6122 5679.55,-31.1394 5682.89,-30.6038"/>
<polygon fill="midnightblue" stroke="midnightblue" points="3616.02,-73.9235 3606,-77.3805 3615.99,-80.9235 3616.02,-73.9235"/>
</g>
<!-- Node41 -->
<g id="node41" class="node"><title>Node41</title>
<g id="a_node41"><a xlink:href="_game_script_8cpp.html" target="_top" xlink:title="source/main/scripting\l/GameScript.cpp">
<polygon fill="white" stroke="black" points="5817,-1 5817,-31 5927,-31 5927,-1 5817,-1"/>
<text text-anchor="start" x="5825" y="-19" font-family="Helvetica,sans-Serif" font-size="10.00">source/main/scripting</text>
<text text-anchor="middle" x="5872" y="-8" font-family="Helvetica,sans-Serif" font-size="10.00">/GameScript.cpp</text>
</a>
</g>
</g>
<!-- Node1&#45;&gt;Node41 -->
<g id="edge40" class="edge"><title>Node1&#45;&gt;Node41</title>
<path fill="none" stroke="midnightblue" d="M3616.17,-76.3818C3997.64,-73.3757 5586.66,-59.306 5807,-32 5810.22,-31.6012 5813.51,-31.1102 5816.82,-30.5519"/>
<polygon fill="midnightblue" stroke="midnightblue" points="3616.01,-72.8829 3606.04,-76.4613 3616.07,-79.8826 3616.01,-72.8829"/>
</g>
<!-- Node42 -->
<g id="node42" class="node"><title>Node42</title>
<g id="a_node42"><a xlink:href="_terrain_geometry_manager_8cpp.html" target="_top" xlink:title="source/main/terrain\l/TerrainGeometryManager.cpp">
<polygon fill="white" stroke="black" points="5945.5,-1 5945.5,-31 6094.5,-31 6094.5,-1 5945.5,-1"/>
<text text-anchor="start" x="5953.5" y="-19" font-family="Helvetica,sans-Serif" font-size="10.00">source/main/terrain</text>
<text text-anchor="middle" x="6020" y="-8" font-family="Helvetica,sans-Serif" font-size="10.00">/TerrainGeometryManager.cpp</text>
</a>
</g>
</g>
<!-- Node1&#45;&gt;Node42 -->
<g id="edge41" class="edge"><title>Node1&#45;&gt;Node42</title>
<path fill="none" stroke="midnightblue" d="M3616.2,-77.2042C3982.85,-77.8468 5471.42,-77.544 5936,-32 5939.1,-31.6965 5942.25,-31.3418 5945.43,-30.9465"/>
<polygon fill="midnightblue" stroke="midnightblue" points="3616.2,-73.7043 3606.19,-77.1859 3616.19,-80.7043 3616.2,-73.7043"/>
</g>
<!-- Node43 -->
<g id="node43" class="node"><title>Node43</title>
<g id="a_node43"><a xlink:href="_terrain_manager_8cpp.html" target="_top" xlink:title="source/main/terrain\l/TerrainManager.cpp">
<polygon fill="white" stroke="black" points="6112,-1 6112,-31 6218,-31 6218,-1 6112,-1"/>
<text text-anchor="start" x="6120" y="-19" font-family="Helvetica,sans-Serif" font-size="10.00">source/main/terrain</text>
<text text-anchor="middle" x="6165" y="-8" font-family="Helvetica,sans-Serif" font-size="10.00">/TerrainManager.cpp</text>
</a>
</g>
</g>
<!-- Node1&#45;&gt;Node43 -->
<g id="edge42" class="edge"><title>Node1&#45;&gt;Node43</title>
<path fill="none" stroke="midnightblue" d="M3616.24,-76.6348C4027.58,-74.6638 5852,-64.1627 6103,-32 6105.86,-31.634 6108.77,-31.1877 6111.7,-30.681"/>
<polygon fill="midnightblue" stroke="midnightblue" points="3616.19,-73.1349 3606.21,-76.6825 3616.22,-80.1348 3616.19,-73.1349"/>
</g>
<!-- Node44 -->
<g id="node44" class="node"><title>Node44</title>
<g id="a_node44"><a xlink:href="_terrain_object_manager_8cpp.html" target="_top" xlink:title="source/main/terrain\l/TerrainObjectManager.cpp">
<polygon fill="white" stroke="black" points="6236,-1 6236,-31 6370,-31 6370,-1 6236,-1"/>
<text text-anchor="start" x="6244" y="-19" font-family="Helvetica,sans-Serif" font-size="10.00">source/main/terrain</text>
<text text-anchor="middle" x="6303" y="-8" font-family="Helvetica,sans-Serif" font-size="10.00">/TerrainObjectManager.cpp</text>
</a>
</g>
</g>
<!-- Node1&#45;&gt;Node44 -->
<g id="edge43" class="edge"><title>Node1&#45;&gt;Node44</title>
<path fill="none" stroke="midnightblue" d="M3616.34,-76.4859C4039.65,-73.7268 5961.5,-59.7561 6226,-32 6229.25,-31.6589 6232.57,-31.2499 6235.91,-30.7887"/>
<polygon fill="midnightblue" stroke="midnightblue" points="3616.3,-72.9859 3606.32,-76.5509 3616.34,-79.9858 3616.3,-72.9859"/>
</g>
<!-- Node45 -->
<g id="node45" class="node"><title>Node45</title>
<g id="a_node45"><a xlink:href="_input_engine_8cpp.html" target="_top" xlink:title="source/main/utils/InputEngine.cpp">
<polygon fill="white" stroke="black" points="6388,-6.5 6388,-25.5 6552,-25.5 6552,-6.5 6388,-6.5"/>
<text text-anchor="middle" x="6470" y="-13.5" font-family="Helvetica,sans-Serif" font-size="10.00">source/main/utils/InputEngine.cpp</text>
</a>
</g>
</g>
<!-- Node1&#45;&gt;Node45 -->
<g id="edge44" class="edge"><title>Node1&#45;&gt;Node45</title>
<path fill="none" stroke="midnightblue" d="M3616.51,-77.3393C4023.72,-78.7627 5821.84,-82.0504 6379,-32 6394.47,-30.6104 6411.28,-28.1203 6426.2,-25.5632"/>
<polygon fill="midnightblue" stroke="midnightblue" points="3616.31,-73.8387 3606.29,-77.303 3616.28,-80.8386 3616.31,-73.8387"/>
</g>
<!-- Node46 -->
<g id="node46" class="node"><title>Node46</title>
<g id="a_node46"><a xlink:href="_language_8cpp.html" target="_top" xlink:title="source/main/utils/Language.cpp">
<polygon fill="white" stroke="black" points="6570.5,-6.5 6570.5,-25.5 6725.5,-25.5 6725.5,-6.5 6570.5,-6.5"/>
<text text-anchor="middle" x="6648" y="-13.5" font-family="Helvetica,sans-Serif" font-size="10.00">source/main/utils/Language.cpp</text>
</a>
</g>
</g>
<!-- Node1&#45;&gt;Node46 -->
<g id="edge45" class="edge"><title>Node1&#45;&gt;Node46</title>
<path fill="none" stroke="midnightblue" d="M3616.41,-76.5431C4070.83,-73.9207 6261.07,-59.9136 6561,-32 6575.8,-30.6223 6591.88,-28.1351 6606.14,-25.577"/>
<polygon fill="midnightblue" stroke="midnightblue" points="3616.3,-73.0435 3606.32,-76.6011 3616.34,-80.0434 3616.3,-73.0435"/>
</g>
<!-- Node47 -->
<g id="node47" class="node"><title>Node47</title>
<g id="a_node47"><a xlink:href="_settings_8cpp.html" target="_top" xlink:title="source/main/utils/Settings.cpp">
<polygon fill="white" stroke="black" points="6743.5,-6.5 6743.5,-25.5 6892.5,-25.5 6892.5,-6.5 6743.5,-6.5"/>
<text text-anchor="middle" x="6818" y="-13.5" font-family="Helvetica,sans-Serif" font-size="10.00">source/main/utils/Settings.cpp</text>
</a>
</g>
</g>
<!-- Node1&#45;&gt;Node47 -->
<g id="edge46" class="edge"><title>Node1&#45;&gt;Node47</title>
<path fill="none" stroke="midnightblue" d="M3616.16,-76.6448C4085.33,-74.5096 6415.9,-62.4341 6734,-32 6748.45,-30.6173 6764.15,-28.0951 6778.02,-25.5084"/>
<polygon fill="midnightblue" stroke="midnightblue" points="3616.06,-73.1451 3606.08,-76.6904 3616.09,-80.145 3616.06,-73.1451"/>
</g>
</g>
</svg>
        <g id="navigator" transform="translate(0 0)" fill="#404254">
                <rect fill="#f2f5e9" fill-opacity="0.5" stroke="#606060" stroke-width=".5" x="0" y="0" width="60" height="60"/>
                <use id="zoomplus" xlink:href="#zoomPlus" x="17" y="9" onmousedown="handleZoom(evt,'in')"/>
                <use id="zoomminus" xlink:href="#zoomMin" x="42" y="9" onmousedown="handleZoom(evt,'out')"/>
                <use id="reset" xlink:href="#resetDef" x="30" y="36" onmousedown="handleReset()"/>
                <g id="arrowUp" xlink:href="#dirArrow" transform="translate(30 24)" onmousedown="handlePan(0,-1)">
                  <use xlink:href="#rim" fill="#404040">
                        <set attributeName="fill" to="#808080" begin="arrowUp.mouseover" end="arrowUp.mouseout"/>
                  </use>
                  <path fill="none" stroke="white" stroke-width="1.5" d="M0,-3.0v7 M-2.5,-0.5L0,-3.0L2.5,-0.5"/>
                </g>
                <g id="arrowRight" xlink:href="#dirArrow" transform="rotate(90) translate(36 -43)" onmousedown="handlePan(1,0)">
                  <use xlink:href="#rim" fill="#404040">
                        <set attributeName="fill" to="#808080" begin="arrowRight.mouseover" end="arrowRight.mouseout"/>
                  </use>
                  <path fill="none" stroke="white" stroke-width="1.5" d="M0,-3.0v7 M-2.5,-0.5L0,-3.0L2.5,-0.5"/>
                </g>
                <g id="arrowDown" xlink:href="#dirArrow" transform="rotate(180) translate(-30 -48)" onmousedown="handlePan(0,1)">
                  <use xlink:href="#rim" fill="#404040">
                        <set attributeName="fill" to="#808080" begin="arrowDown.mouseover" end="arrowDown.mouseout"/>
                  </use>
                  <path fill="none" stroke="white" stroke-width="1.5" d="M0,-3.0v7 M-2.5,-0.5L0,-3.0L2.5,-0.5"/>
                </g>
                <g id="arrowLeft" xlink:href="#dirArrow" transform="rotate(270) translate(-36 17)" onmousedown="handlePan(-1,0)">
                  <use xlink:href="#rim" fill="#404040">
                        <set attributeName="fill" to="#808080" begin="arrowLeft.mouseover" end="arrowLeft.mouseout"/>
                  </use>
                  <path fill="none" stroke="white" stroke-width="1.5" d="M0,-3.0v7 M-2.5,-0.5L0,-3.0L2.5,-0.5"/>
                </g>
        </g>
        <svg viewBox="0 0 15 15" width="100%" height="30px" preserveAspectRatio="xMaxYMin meet">
         <g id="arrow_out" transform="scale(0.3 0.3)">
          <a xlink:href="_language_8h__dep__incl_org.svg" target="_base">
           <rect id="button" ry="5" rx="5" y="6" x="6" height="38" width="38"
                fill="#f2f5e9" fill-opacity="0.5" stroke="#606060" stroke-width="1.0"/>
           <path id="arrow"
             d="M 11.500037,31.436501 C 11.940474,20.09759 22.043105,11.32322 32.158766,21.979434 L 37.068811,17.246167 C 37.068811,17.246167 37.088388,32 37.088388,32 L 22.160133,31.978069 C 22.160133,31.978069 26.997745,27.140456 26.997745,27.140456 C 18.528582,18.264221 13.291696,25.230495 11.500037,31.436501 z"
             style="fill:#404040;"/>
          </a>
         </g>
        </svg>
</svg>
