<?xml version="1.0" encoding="UTF-8" standalone="no"?>
<!DOCTYPE svg PUBLIC "-//W3C//DTD SVG 1.1//EN"
 "http://www.w3.org/Graphics/SVG/1.1/DTD/svg11.dtd">
<!-- Generated by graphviz version 2.36.0 (20140111.2315)
 -->
<!-- Title: source/main/gfx/dof/Lens.h Pages: 1 -->
<svg width="251pt" height="108pt"
 viewBox="0.00 0.00 251.00 108.00" xmlns="http://www.w3.org/2000/svg" xmlns:xlink="http://www.w3.org/1999/xlink">
<g id="graph0" class="graph" transform="scale(1 1) rotate(0) translate(4 104)">
<title>source/main/gfx/dof/Lens.h</title>
<polygon fill="white" stroke="none" points="-4,4 -4,-104 247,-104 247,4 -4,4"/>
<!-- Node1 -->
<g id="node1" class="node"><title>Node1</title>
<polygon fill="#bfbfbf" stroke="black" points="74.5,-69 74.5,-99 177.5,-99 177.5,-69 74.5,-69"/>
<text text-anchor="start" x="82.5" y="-87" font-family="Helvetica,sans-Serif" font-size="10.00">source/main/gfx/dof</text>
<text text-anchor="middle" x="126" y="-76" font-family="Helvetica,sans-Serif" font-size="10.00">/Lens.h</text>
</g>
<!-- Node2 -->
<g id="node2" class="node"><title>Node2</title>
<g id="a_node2"><a xlink:href="_depth_of_field_effect_8cpp.html" target="_top" xlink:title="source/main/gfx/dof\l/DepthOfFieldEffect.cpp">
<polygon fill="white" stroke="black" points="0,-1 0,-31 122,-31 122,-1 0,-1"/>
<text text-anchor="start" x="8" y="-19" font-family="Helvetica,sans-Serif" font-size="10.00">source/main/gfx/dof</text>
<text text-anchor="middle" x="61" y="-8" font-family="Helvetica,sans-Serif" font-size="10.00">/DepthOfFieldEffect.cpp</text>
</a>
</g>
</g>
<!-- Node1&#45;&gt;Node2 -->
<g id="edge1" class="edge"><title>Node1&#45;&gt;Node2</title>
<path fill="none" stroke="midnightblue" d="M104.811,-61.4855C95.0612,-51.5852 83.759,-40.1092 75.0765,-31.2931"/>
<polygon fill="midnightblue" stroke="midnightblue" points="102.385,-64.01 111.896,-68.679 107.373,-59.0982 102.385,-64.01"/>
</g>
<!-- Node3 -->
<g id="node3" class="node"><title>Node3</title>
<g id="a_node3"><a xlink:href="_lens_8cpp.html" target="_top" xlink:title="source/main/gfx/dof\l/Lens.cpp">
<polygon fill="white" stroke="black" points="140.5,-1 140.5,-31 243.5,-31 243.5,-1 140.5,-1"/>
<text text-anchor="start" x="148.5" y="-19" font-family="Helvetica,sans-Serif" font-size="10.00">source/main/gfx/dof</text>
<text text-anchor="middle" x="192" y="-8" font-family="Helvetica,sans-Serif" font-size="10.00">/Lens.cpp</text>
</a>
</g>
</g>
<!-- Node1&#45;&gt;Node3 -->
<g id="edge2" class="edge"><title>Node1&#45;&gt;Node3</title>
<path fill="none" stroke="midnightblue" d="M147.515,-61.4855C157.415,-51.5852 168.891,-40.1092 177.707,-31.2931"/>
<polygon fill="midnightblue" stroke="midnightblue" points="144.917,-59.133 140.321,-68.679 149.867,-64.0828 144.917,-59.133"/>
</g>
</g>
</svg>
