<?xml version="1.0" encoding="UTF-8" standalone="no"?>
<!DOCTYPE svg PUBLIC "-//W3C//DTD SVG 1.1//EN"
 "http://www.w3.org/Graphics/SVG/1.1/DTD/svg11.dtd">
<!-- Generated by graphviz version 2.36.0 (20140111.2315)
 -->
<!-- Title: source/main/scripting/LocalStorage.h Pages: 1 -->
<svg width="246pt" height="108pt"
 viewBox="0.00 0.00 246.00 108.00" xmlns="http://www.w3.org/2000/svg" xmlns:xlink="http://www.w3.org/1999/xlink">
<g id="graph0" class="graph" transform="scale(1 1) rotate(0) translate(4 104)">
<title>source/main/scripting/LocalStorage.h</title>
<polygon fill="white" stroke="none" points="-4,4 -4,-104 242,-104 242,4 -4,4"/>
<!-- Node1 -->
<g id="node1" class="node"><title>Node1</title>
<polygon fill="#bfbfbf" stroke="black" points="64,-69 64,-99 174,-99 174,-69 64,-69"/>
<text text-anchor="start" x="72" y="-87" font-family="Helvetica,sans-Serif" font-size="10.00">source/main/scripting</text>
<text text-anchor="middle" x="119" y="-76" font-family="Helvetica,sans-Serif" font-size="10.00">/LocalStorage.h</text>
</g>
<!-- Node2 -->
<g id="node2" class="node"><title>Node2</title>
<g id="a_node2"><a xlink:href="_local_storage_8cpp.html" target="_top" xlink:title="source/main/scripting\l/LocalStorage.cpp">
<polygon fill="white" stroke="black" points="0,-1 0,-31 110,-31 110,-1 0,-1"/>
<text text-anchor="start" x="8" y="-19" font-family="Helvetica,sans-Serif" font-size="10.00">source/main/scripting</text>
<text text-anchor="middle" x="55" y="-8" font-family="Helvetica,sans-Serif" font-size="10.00">/LocalStorage.cpp</text>
</a>
</g>
</g>
<!-- Node1&#45;&gt;Node2 -->
<g id="edge1" class="edge"><title>Node1&#45;&gt;Node2</title>
<path fill="none" stroke="midnightblue" d="M98.1374,-61.4855C88.5372,-51.5852 77.4089,-40.1092 68.8599,-31.2931"/>
<polygon fill="midnightblue" stroke="midnightblue" points="95.6388,-63.9365 105.113,-68.679 100.664,-59.0634 95.6388,-63.9365"/>
</g>
<!-- Node3 -->
<g id="node3" class="node"><title>Node3</title>
<g id="a_node3"><a xlink:href="_script_engine_8cpp.html" target="_top" xlink:title="source/main/scripting\l/ScriptEngine.cpp">
<polygon fill="white" stroke="black" points="128,-1 128,-31 238,-31 238,-1 128,-1"/>
<text text-anchor="start" x="136" y="-19" font-family="Helvetica,sans-Serif" font-size="10.00">source/main/scripting</text>
<text text-anchor="middle" x="183" y="-8" font-family="Helvetica,sans-Serif" font-size="10.00">/ScriptEngine.cpp</text>
</a>
</g>
</g>
<!-- Node1&#45;&gt;Node3 -->
<g id="edge2" class="edge"><title>Node1&#45;&gt;Node3</title>
<path fill="none" stroke="midnightblue" d="M139.863,-61.4855C149.463,-51.5852 160.591,-40.1092 169.14,-31.2931"/>
<polygon fill="midnightblue" stroke="midnightblue" points="137.336,-59.0634 132.887,-68.679 142.361,-63.9365 137.336,-59.0634"/>
</g>
</g>
</svg>
