<?xml version="1.0" encoding="UTF-8" standalone="no"?>
<!DOCTYPE svg PUBLIC "-//W3C//DTD SVG 1.1//EN"
 "http://www.w3.org/Graphics/SVG/1.1/DTD/svg11.dtd">
<!-- Generated by graphviz version 2.36.0 (20140111.2315)
 -->
<!-- Title: source/main/gfx/particle/OgreShaderParticleRenderer.h Pages: 1 -->
<svg width="258pt" height="96pt"
 viewBox="0.00 0.00 258.00 96.00" xmlns="http://www.w3.org/2000/svg" xmlns:xlink="http://www.w3.org/1999/xlink">
<g id="graph0" class="graph" transform="scale(1 1) rotate(0) translate(4 92)">
<title>source/main/gfx/particle/OgreShaderParticleRenderer.h</title>
<polygon fill="white" stroke="none" points="-4,4 -4,-92 254,-92 254,4 -4,4"/>
<!-- Node1 -->
<g id="node1" class="node"><title>Node1</title>
<polygon fill="#bfbfbf" stroke="black" points="67,-57 67,-87 219,-87 219,-57 67,-57"/>
<text text-anchor="start" x="75" y="-75" font-family="Helvetica,sans-Serif" font-size="10.00">source/main/gfx/particle</text>
<text text-anchor="middle" x="143" y="-64" font-family="Helvetica,sans-Serif" font-size="10.00">/OgreShaderParticleRenderer.h</text>
</g>
<!-- Node2 -->
<g id="node2" class="node"><title>Node2</title>
<polygon fill="white" stroke="#bfbfbf" points="0,-0.5 0,-19.5 152,-19.5 152,-0.5 0,-0.5"/>
<text text-anchor="middle" x="76" y="-7.5" font-family="Helvetica,sans-Serif" font-size="10.00">OgreParticleSystemRenderer.h</text>
</g>
<!-- Node1&#45;&gt;Node2 -->
<g id="edge1" class="edge"><title>Node1&#45;&gt;Node2</title>
<path fill="none" stroke="midnightblue" d="M127.122,-56.7808C116.985,-47.7026 103.838,-35.9291 93.4146,-26.5951"/>
<polygon fill="midnightblue" stroke="midnightblue" points="95.5336,-23.7944 85.7491,-19.7305 90.8637,-29.0091 95.5336,-23.7944"/>
</g>
<!-- Node3 -->
<g id="node3" class="node"><title>Node3</title>
<polygon fill="white" stroke="#bfbfbf" points="170,-0.5 170,-19.5 250,-19.5 250,-0.5 170,-0.5"/>
<text text-anchor="middle" x="210" y="-7.5" font-family="Helvetica,sans-Serif" font-size="10.00">OgreVector2.h</text>
</g>
<!-- Node1&#45;&gt;Node3 -->
<g id="edge2" class="edge"><title>Node1&#45;&gt;Node3</title>
<path fill="none" stroke="midnightblue" d="M158.878,-56.7808C169.015,-47.7026 182.162,-35.9291 192.585,-26.5951"/>
<polygon fill="midnightblue" stroke="midnightblue" points="195.136,-29.0091 200.251,-19.7305 190.466,-23.7944 195.136,-29.0091"/>
</g>
</g>
</svg>
