<?xml version="1.0" encoding="UTF-8" standalone="no"?>
<!DOCTYPE svg PUBLIC "-//W3C//DTD SVG 1.1//EN"
 "http://www.w3.org/Graphics/SVG/1.1/DTD/svg11.dtd">
<!-- Generated by graphviz version 2.36.0 (20140111.2315)
 -->
<!-- Title: source/main/scripting/OgreScriptBuilder.cpp Pages: 1 -->
<svg width="2133pt" height="264pt"
 viewBox="0.00 0.00 2133.00 264.00" xmlns="http://www.w3.org/2000/svg" xmlns:xlink="http://www.w3.org/1999/xlink">
<g id="graph0" class="graph" transform="scale(1 1) rotate(0) translate(4 260)">
<title>source/main/scripting/OgreScriptBuilder.cpp</title>
<polygon fill="white" stroke="none" points="-4,4 -4,-260 2129,-260 2129,4 -4,4"/>
<!-- Node1 -->
<g id="node1" class="node"><title>Node1</title>
<polygon fill="#bfbfbf" stroke="black" points="776.5,-225 776.5,-255 891.5,-255 891.5,-225 776.5,-225"/>
<text text-anchor="start" x="784.5" y="-243" font-family="Helvetica,sans-Serif" font-size="10.00">source/main/scripting</text>
<text text-anchor="middle" x="834" y="-232" font-family="Helvetica,sans-Serif" font-size="10.00">/OgreScriptBuilder.cpp</text>
</g>
<!-- Node2 -->
<g id="node2" class="node"><title>Node2</title>
<g id="a_node2"><a xlink:href="_ogre_script_builder_8h.html" target="_top" xlink:title="OgreScriptBuilder.h">
<polygon fill="white" stroke="black" points="349.5,-168.5 349.5,-187.5 450.5,-187.5 450.5,-168.5 349.5,-168.5"/>
<text text-anchor="middle" x="400" y="-175.5" font-family="Helvetica,sans-Serif" font-size="10.00">OgreScriptBuilder.h</text>
</a>
</g>
</g>
<!-- Node1&#45;&gt;Node2 -->
<g id="edge1" class="edge"><title>Node1&#45;&gt;Node2</title>
<path fill="none" stroke="midnightblue" d="M776.368,-231.032C694.359,-219.695 544.67,-199 460.903,-187.42"/>
<polygon fill="midnightblue" stroke="midnightblue" points="461.161,-183.922 450.775,-186.02 460.202,-190.856 461.161,-183.922"/>
</g>
<!-- Node23 -->
<g id="node23" class="node"><title>Node23</title>
<polygon fill="white" stroke="#bfbfbf" points="253.5,-56.5 253.5,-75.5 294.5,-75.5 294.5,-56.5 253.5,-56.5"/>
<text text-anchor="middle" x="274" y="-63.5" font-family="Helvetica,sans-Serif" font-size="10.00">string</text>
</g>
<!-- Node1&#45;&gt;Node23 -->
<g id="edge29" class="edge"><title>Node1&#45;&gt;Node23</title>
<path fill="none" stroke="midnightblue" d="M788.173,-224.984C697.747,-197.318 489.719,-133.614 304.246,-76.3788"/>
<polygon fill="midnightblue" stroke="midnightblue" points="305.18,-73.0043 294.593,-73.3994 303.116,-79.6929 305.18,-73.0043"/>
</g>
<!-- Node28 -->
<g id="node28" class="node"><title>Node28</title>
<polygon fill="white" stroke="#bfbfbf" points="1111,-168.5 1111,-187.5 1157,-187.5 1157,-168.5 1111,-168.5"/>
<text text-anchor="middle" x="1134" y="-175.5" font-family="Helvetica,sans-Serif" font-size="10.00">Ogre.h</text>
</g>
<!-- Node1&#45;&gt;Node28 -->
<g id="edge30" class="edge"><title>Node1&#45;&gt;Node28</title>
<path fill="none" stroke="midnightblue" d="M891.562,-229.334C945.819,-219.91 1029.28,-204.604 1101,-188 1101.1,-187.977 1101.2,-187.953 1101.3,-187.929"/>
<polygon fill="midnightblue" stroke="midnightblue" points="1102.12,-191.333 1110.98,-185.523 1100.43,-184.54 1102.12,-191.333"/>
</g>
<!-- Node29 -->
<g id="node29" class="node"><title>Node29</title>
<g id="a_node29"><a xlink:href="_s_h_a1_8h.html" target="_top" xlink:title="SHA1.h">
<polygon fill="white" stroke="black" points="1041.5,-168.5 1041.5,-187.5 1092.5,-187.5 1092.5,-168.5 1041.5,-168.5"/>
<text text-anchor="middle" x="1067" y="-175.5" font-family="Helvetica,sans-Serif" font-size="10.00">SHA1.h</text>
</a>
</g>
</g>
<!-- Node1&#45;&gt;Node29 -->
<g id="edge31" class="edge"><title>Node1&#45;&gt;Node29</title>
<path fill="none" stroke="midnightblue" d="M888.628,-224.933C932.644,-213.598 993.258,-197.989 1031.27,-188.2"/>
<polygon fill="midnightblue" stroke="midnightblue" points="1032.55,-191.484 1041.37,-185.601 1030.81,-184.706 1032.55,-191.484"/>
</g>
<!-- Node3 -->
<g id="node3" class="node"><title>Node3</title>
<g id="a_node3"><a xlink:href="_ro_r_prerequisites_8h.html" target="_top" xlink:title="RoRPrerequisites.h">
<polygon fill="white" stroke="black" points="1016,-112.5 1016,-131.5 1118,-131.5 1118,-112.5 1016,-112.5"/>
<text text-anchor="middle" x="1067" y="-119.5" font-family="Helvetica,sans-Serif" font-size="10.00">RoRPrerequisites.h</text>
</a>
</g>
</g>
<!-- Node2&#45;&gt;Node3 -->
<g id="edge2" class="edge"><title>Node2&#45;&gt;Node3</title>
<path fill="none" stroke="midnightblue" d="M450.681,-172.897C571.299,-163.132 875.074,-138.538 1005.71,-127.962"/>
<polygon fill="midnightblue" stroke="midnightblue" points="1006.25,-131.429 1015.94,-127.134 1005.69,-124.452 1006.25,-131.429"/>
</g>
<!-- Node21 -->
<g id="node21" class="node"><title>Node21</title>
<g id="a_node21"><a xlink:href="scriptbuilder_8h.html" target="_top" xlink:title="scriptbuilder/scriptbuilder.h">
<polygon fill="white" stroke="black" points="151.5,-112.5 151.5,-131.5 284.5,-131.5 284.5,-112.5 151.5,-112.5"/>
<text text-anchor="middle" x="218" y="-119.5" font-family="Helvetica,sans-Serif" font-size="10.00">scriptbuilder/scriptbuilder.h</text>
</a>
</g>
</g>
<!-- Node2&#45;&gt;Node21 -->
<g id="edge21" class="edge"><title>Node2&#45;&gt;Node21</title>
<path fill="none" stroke="midnightblue" d="M371.162,-168.444C340.144,-159.241 290.671,-144.562 256.382,-134.388"/>
<polygon fill="midnightblue" stroke="midnightblue" points="257.286,-131.006 246.704,-131.516 255.295,-137.716 257.286,-131.006"/>
</g>
<!-- Node22 -->
<g id="node22" class="node"><title>Node22</title>
<polygon fill="white" stroke="#bfbfbf" points="0,-56.5 0,-75.5 72,-75.5 72,-56.5 0,-56.5"/>
<text text-anchor="middle" x="36" y="-63.5" font-family="Helvetica,sans-Serif" font-size="10.00">angelscript.h</text>
</g>
<!-- Node2&#45;&gt;Node22 -->
<g id="edge28" class="edge"><title>Node2&#45;&gt;Node22</title>
<path fill="none" stroke="midnightblue" d="M349.058,-173.788C295.915,-169.145 210.9,-158.043 142,-132 109.107,-119.567 75.156,-96.6389 54.8115,-81.6057"/>
<polygon fill="midnightblue" stroke="midnightblue" points="56.814,-78.7323 46.7211,-75.5101 52.6017,-84.3231 56.814,-78.7323"/>
</g>
<!-- Node4 -->
<g id="node4" class="node"><title>Node4</title>
<polygon fill="white" stroke="#bfbfbf" points="585.5,-56.5 585.5,-75.5 688.5,-75.5 688.5,-56.5 585.5,-56.5"/>
<text text-anchor="middle" x="637" y="-63.5" font-family="Helvetica,sans-Serif" font-size="10.00">OgrePrerequisites.h</text>
</g>
<!-- Node3&#45;&gt;Node4 -->
<g id="edge3" class="edge"><title>Node3&#45;&gt;Node4</title>
<path fill="none" stroke="midnightblue" d="M1015.77,-115.226C946.254,-107.29 817.917,-92.2819 698.727,-76.2062"/>
<polygon fill="midnightblue" stroke="midnightblue" points="699.077,-72.7218 688.698,-74.8481 698.137,-79.6585 699.077,-72.7218"/>
</g>
<!-- Node5 -->
<g id="node5" class="node"><title>Node5</title>
<polygon fill="white" stroke="#bfbfbf" points="706.5,-56.5 706.5,-75.5 821.5,-75.5 821.5,-56.5 706.5,-56.5"/>
<text text-anchor="middle" x="764" y="-63.5" font-family="Helvetica,sans-Serif" font-size="10.00">OgreAxisAlignedBox.h</text>
</g>
<!-- Node3&#45;&gt;Node5 -->
<g id="edge4" class="edge"><title>Node3&#45;&gt;Node5</title>
<path fill="none" stroke="midnightblue" d="M1018.99,-112.444C965.466,-102.905 878.935,-87.4834 821.755,-77.293"/>
<polygon fill="midnightblue" stroke="midnightblue" points="822.246,-73.8253 811.787,-75.5164 821.017,-80.7168 822.246,-73.8253"/>
</g>
<!-- Node6 -->
<g id="node6" class="node"><title>Node6</title>
<polygon fill="white" stroke="#bfbfbf" points="839.5,-56.5 839.5,-75.5 938.5,-75.5 938.5,-56.5 839.5,-56.5"/>
<text text-anchor="middle" x="889" y="-63.5" font-family="Helvetica,sans-Serif" font-size="10.00">OgreColourValue.h</text>
</g>
<!-- Node3&#45;&gt;Node6 -->
<g id="edge5" class="edge"><title>Node3&#45;&gt;Node6</title>
<path fill="none" stroke="midnightblue" d="M1038.8,-112.444C1008.59,-103.28 960.489,-88.6876 926.971,-78.5192"/>
<polygon fill="midnightblue" stroke="midnightblue" points="927.658,-75.0703 917.073,-75.5164 925.626,-81.7688 927.658,-75.0703"/>
</g>
<!-- Node7 -->
<g id="node7" class="node"><title>Node7</title>
<polygon fill="white" stroke="#bfbfbf" points="956.5,-56.5 956.5,-75.5 1059.5,-75.5 1059.5,-56.5 956.5,-56.5"/>
<text text-anchor="middle" x="1008" y="-63.5" font-family="Helvetica,sans-Serif" font-size="10.00">OgreHeaderPrefix.h</text>
</g>
<!-- Node3&#45;&gt;Node7 -->
<g id="edge6" class="edge"><title>Node3&#45;&gt;Node7</title>
<path fill="none" stroke="midnightblue" d="M1057.52,-112.324C1048.8,-104.341 1035.66,-92.3128 1025.1,-82.6529"/>
<polygon fill="midnightblue" stroke="midnightblue" points="1027.39,-80.0036 1017.65,-75.8339 1022.67,-85.1674 1027.39,-80.0036"/>
</g>
<!-- Node8 -->
<g id="node8" class="node"><title>Node8</title>
<polygon fill="white" stroke="#bfbfbf" points="1077.5,-56.5 1077.5,-75.5 1176.5,-75.5 1176.5,-56.5 1077.5,-56.5"/>
<text text-anchor="middle" x="1127" y="-63.5" font-family="Helvetica,sans-Serif" font-size="10.00">OgreLogManager.h</text>
</g>
<!-- Node3&#45;&gt;Node8 -->
<g id="edge7" class="edge"><title>Node3&#45;&gt;Node8</title>
<path fill="none" stroke="midnightblue" d="M1076.64,-112.324C1085.51,-104.341 1098.87,-92.3128 1109.61,-82.6529"/>
<polygon fill="midnightblue" stroke="midnightblue" points="1112.09,-85.1251 1117.18,-75.8339 1107.41,-79.922 1112.09,-85.1251"/>
</g>
<!-- Node9 -->
<g id="node9" class="node"><title>Node9</title>
<polygon fill="white" stroke="#bfbfbf" points="1194.5,-56.5 1194.5,-75.5 1287.5,-75.5 1287.5,-56.5 1194.5,-56.5"/>
<text text-anchor="middle" x="1241" y="-63.5" font-family="Helvetica,sans-Serif" font-size="10.00">OgreQuaternion.h</text>
</g>
<!-- Node3&#45;&gt;Node9 -->
<g id="edge8" class="edge"><title>Node3&#45;&gt;Node9</title>
<path fill="none" stroke="midnightblue" d="M1094.57,-112.444C1124.1,-103.28 1171.12,-88.6876 1203.88,-78.5192"/>
<polygon fill="midnightblue" stroke="midnightblue" points="1205.04,-81.8232 1213.56,-75.5164 1202.97,-75.1378 1205.04,-81.8232"/>
</g>
<!-- Node10 -->
<g id="node10" class="node"><title>Node10</title>
<polygon fill="white" stroke="#bfbfbf" points="1305.5,-56.5 1305.5,-75.5 1376.5,-75.5 1376.5,-56.5 1305.5,-56.5"/>
<text text-anchor="middle" x="1341" y="-63.5" font-family="Helvetica,sans-Serif" font-size="10.00">OgreString.h</text>
</g>
<!-- Node3&#45;&gt;Node10 -->
<g id="edge9" class="edge"><title>Node3&#45;&gt;Node10</title>
<path fill="none" stroke="midnightblue" d="M1110.91,-112.417C1154.94,-103.8 1224.97,-90.0676 1295.23,-76.148"/>
<polygon fill="midnightblue" stroke="midnightblue" points="1296.01,-79.5608 1305.14,-74.1831 1294.65,-72.6944 1296.01,-79.5608"/>
</g>
<!-- Node11 -->
<g id="node11" class="node"><title>Node11</title>
<polygon fill="white" stroke="#bfbfbf" points="1493,-56.5 1493,-75.5 1607,-75.5 1607,-56.5 1493,-56.5"/>
<text text-anchor="middle" x="1550" y="-63.5" font-family="Helvetica,sans-Serif" font-size="10.00">OgreStringConverter.h</text>
</g>
<!-- Node3&#45;&gt;Node11 -->
<g id="edge10" class="edge"><title>Node3&#45;&gt;Node11</title>
<path fill="none" stroke="midnightblue" d="M1118.04,-113.172C1121.07,-112.761 1124.07,-112.367 1127,-112 1281.99,-92.5729 1323.93,-94.6786 1482.65,-76.121"/>
<polygon fill="midnightblue" stroke="midnightblue" points="1483.26,-79.5742 1492.78,-74.9278 1482.44,-72.6223 1483.26,-79.5742"/>
</g>
<!-- Node12 -->
<g id="node12" class="node"><title>Node12</title>
<polygon fill="white" stroke="#bfbfbf" points="1625.5,-56.5 1625.5,-75.5 1716.5,-75.5 1716.5,-56.5 1625.5,-56.5"/>
<text text-anchor="middle" x="1671" y="-63.5" font-family="Helvetica,sans-Serif" font-size="10.00">OgreUTFString.h</text>
</g>
<!-- Node3&#45;&gt;Node12 -->
<g id="edge11" class="edge"><title>Node3&#45;&gt;Node12</title>
<path fill="none" stroke="midnightblue" d="M1118.03,-113.078C1121.06,-112.691 1124.07,-112.327 1127,-112 1340.3,-88.1855 1397.86,-101.212 1615.29,-75.9685"/>
<polygon fill="midnightblue" stroke="midnightblue" points="1615.9,-79.4202 1625.43,-74.7772 1615.09,-72.4681 1615.9,-79.4202"/>
</g>
<!-- Node13 -->
<g id="node13" class="node"><title>Node13</title>
<polygon fill="white" stroke="#bfbfbf" points="1395,-56.5 1395,-75.5 1475,-75.5 1475,-56.5 1395,-56.5"/>
<text text-anchor="middle" x="1435" y="-63.5" font-family="Helvetica,sans-Serif" font-size="10.00">OgreVector2.h</text>
</g>
<!-- Node3&#45;&gt;Node13 -->
<g id="edge12" class="edge"><title>Node3&#45;&gt;Node13</title>
<path fill="none" stroke="midnightblue" d="M1118.06,-113.305C1121.08,-112.86 1124.08,-112.423 1127,-112 1241.58,-95.4125 1270.67,-94.2587 1385,-76 1385.1,-75.9839 1385.2,-75.9678 1385.3,-75.9516"/>
<polygon fill="midnightblue" stroke="midnightblue" points="1385.61,-79.448 1394.91,-74.3604 1384.47,-72.5421 1385.61,-79.448"/>
</g>
<!-- Node14 -->
<g id="node14" class="node"><title>Node14</title>
<polygon fill="white" stroke="#bfbfbf" points="1735,-56.5 1735,-75.5 1815,-75.5 1815,-56.5 1735,-56.5"/>
<text text-anchor="middle" x="1775" y="-63.5" font-family="Helvetica,sans-Serif" font-size="10.00">OgreVector3.h</text>
</g>
<!-- Node3&#45;&gt;Node14 -->
<g id="edge13" class="edge"><title>Node3&#45;&gt;Node14</title>
<path fill="none" stroke="midnightblue" d="M1118.02,-113.032C1121.06,-112.656 1124.07,-112.308 1127,-112 1391.81,-84.2242 1460.63,-107.639 1725,-76 1725.1,-75.9879 1725.2,-75.9757 1725.3,-75.9634"/>
<polygon fill="midnightblue" stroke="midnightblue" points="1725.51,-79.4674 1734.95,-74.639 1724.56,-72.5326 1725.51,-79.4674"/>
</g>
<!-- Node15 -->
<g id="node15" class="node"><title>Node15</title>
<g id="a_node15"><a xlink:href="_forward_declarations_8h.html" target="_top" xlink:title="Global forward declarations. ">
<polygon fill="white" stroke="black" points="1826.5,-0.5 1826.5,-19.5 1941.5,-19.5 1941.5,-0.5 1826.5,-0.5"/>
<text text-anchor="middle" x="1884" y="-7.5" font-family="Helvetica,sans-Serif" font-size="10.00">ForwardDeclarations.h</text>
</a>
</g>
</g>
<!-- Node3&#45;&gt;Node15 -->
<g id="edge14" class="edge"><title>Node3&#45;&gt;Node15</title>
<path fill="none" stroke="midnightblue" d="M1118.02,-113.002C1121.06,-112.633 1124.07,-112.295 1127,-112 1204.16,-104.239 1753.79,-108.925 1824,-76 1845.65,-65.8486 1863.16,-44.0041 1873.55,-28.4434"/>
<polygon fill="midnightblue" stroke="midnightblue" points="1876.68,-30.0467 1879.08,-19.7274 1870.77,-26.2973 1876.68,-30.0467"/>
</g>
<!-- Node16 -->
<g id="node16" class="node"><title>Node16</title>
<g id="a_node16"><a xlink:href="_global_environment_8h.html" target="_top" xlink:title="GlobalEnvironment.h">
<polygon fill="white" stroke="black" points="1871.5,-56.5 1871.5,-75.5 1978.5,-75.5 1978.5,-56.5 1871.5,-56.5"/>
<text text-anchor="middle" x="1925" y="-63.5" font-family="Helvetica,sans-Serif" font-size="10.00">GlobalEnvironment.h</text>
</a>
</g>
</g>
<!-- Node3&#45;&gt;Node16 -->
<g id="edge15" class="edge"><title>Node3&#45;&gt;Node16</title>
<path fill="none" stroke="midnightblue" d="M1118.02,-112.994C1121.05,-112.627 1124.07,-112.292 1127,-112 1450.25,-79.8668 1533.49,-105.336 1857,-76 1858.3,-75.882 1859.62,-75.7577 1860.94,-75.6276"/>
<polygon fill="midnightblue" stroke="midnightblue" points="1861.65,-79.0718 1871.22,-74.5329 1860.91,-72.1111 1861.65,-79.0718"/>
</g>
<!-- Node17 -->
<g id="node17" class="node"><title>Node17</title>
<g id="a_node17"><a xlink:href="_zeroed_memory_allocator_8h.html" target="_top" xlink:title="ZeroedMemoryAllocator.h">
<polygon fill="white" stroke="black" points="1997,-56.5 1997,-75.5 2125,-75.5 2125,-56.5 1997,-56.5"/>
<text text-anchor="middle" x="2061" y="-63.5" font-family="Helvetica,sans-Serif" font-size="10.00">ZeroedMemoryAllocator.h</text>
</a>
</g>
</g>
<!-- Node3&#45;&gt;Node17 -->
<g id="edge17" class="edge"><title>Node3&#45;&gt;Node17</title>
<path fill="none" stroke="midnightblue" d="M1118.02,-112.968C1121.05,-112.608 1124.06,-112.281 1127,-112 1504.47,-75.8936 1603.97,-106.569 1986.61,-75.9456"/>
<polygon fill="midnightblue" stroke="midnightblue" points="1987.17,-79.4117 1996.86,-75.1164 1986.61,-72.4345 1987.17,-79.4117"/>
</g>
<!-- Node18 -->
<g id="node18" class="node"><title>Node18</title>
<g id="a_node18"><a xlink:href="_bit_flags_8h.html" target="_top" xlink:title="BitFlags.h">
<polygon fill="white" stroke="black" points="379.5,-56.5 379.5,-75.5 440.5,-75.5 440.5,-56.5 379.5,-56.5"/>
<text text-anchor="middle" x="410" y="-63.5" font-family="Helvetica,sans-Serif" font-size="10.00">BitFlags.h</text>
</a>
</g>
</g>
<!-- Node3&#45;&gt;Node18 -->
<g id="edge18" class="edge"><title>Node3&#45;&gt;Node18</title>
<path fill="none" stroke="midnightblue" d="M1015.83,-119.937C911.291,-117.191 665.59,-107.795 450.776,-76.0524"/>
<polygon fill="midnightblue" stroke="midnightblue" points="450.979,-72.5438 440.571,-74.5239 449.942,-79.4666 450.979,-72.5438"/>
</g>
<!-- Node20 -->
<g id="node20" class="node"><title>Node20</title>
<polygon fill="white" stroke="#bfbfbf" points="458.5,-56.5 458.5,-75.5 567.5,-75.5 567.5,-56.5 458.5,-56.5"/>
<text text-anchor="middle" x="513" y="-63.5" font-family="Helvetica,sans-Serif" font-size="10.00">MyGUI_Prerequest.h</text>
</g>
<!-- Node3&#45;&gt;Node20 -->
<g id="edge20" class="edge"><title>Node3&#45;&gt;Node20</title>
<path fill="none" stroke="midnightblue" d="M1015.66,-117.153C928.051,-110.401 743.805,-95.3864 578.003,-76.1855"/>
<polygon fill="midnightblue" stroke="midnightblue" points="577.952,-72.656 567.614,-74.974 577.141,-79.6089 577.952,-72.656"/>
</g>
<!-- Node16&#45;&gt;Node15 -->
<g id="edge16" class="edge"><title>Node16&#45;&gt;Node15</title>
<path fill="none" stroke="midnightblue" d="M1918.23,-56.083C1912.44,-48.4554 1903.94,-37.2645 1896.86,-27.9408"/>
<polygon fill="midnightblue" stroke="midnightblue" points="1899.48,-25.5991 1890.64,-19.7511 1893.9,-29.8321 1899.48,-25.5991"/>
</g>
<!-- Node19 -->
<g id="node19" class="node"><title>Node19</title>
<polygon fill="white" stroke="#bfbfbf" points="387,-0.5 387,-19.5 433,-19.5 433,-0.5 387,-0.5"/>
<text text-anchor="middle" x="410" y="-7.5" font-family="Helvetica,sans-Serif" font-size="10.00">cstdint</text>
</g>
<!-- Node18&#45;&gt;Node19 -->
<g id="edge19" class="edge"><title>Node18&#45;&gt;Node19</title>
<path fill="none" stroke="midnightblue" d="M410,-56.083C410,-49.0059 410,-38.8611 410,-29.9865"/>
<polygon fill="midnightblue" stroke="midnightblue" points="413.5,-29.751 410,-19.7511 406.5,-29.7511 413.5,-29.751"/>
</g>
<!-- Node21&#45;&gt;Node22 -->
<g id="edge22" class="edge"><title>Node21&#45;&gt;Node22</title>
<path fill="none" stroke="midnightblue" d="M189.162,-112.444C158.144,-103.241 108.671,-88.5617 74.3816,-78.3879"/>
<polygon fill="midnightblue" stroke="midnightblue" points="75.286,-75.0055 64.7035,-75.5164 73.2949,-81.7164 75.286,-75.0055"/>
</g>
<!-- Node21&#45;&gt;Node23 -->
<g id="edge23" class="edge"><title>Node21&#45;&gt;Node23</title>
<path fill="none" stroke="midnightblue" d="M226.997,-112.324C235.194,-104.42 247.506,-92.5482 257.472,-82.9377"/>
<polygon fill="midnightblue" stroke="midnightblue" points="260.07,-85.2947 264.839,-75.8339 255.211,-80.2558 260.07,-85.2947"/>
</g>
<!-- Node24 -->
<g id="node24" class="node"><title>Node24</title>
<polygon fill="white" stroke="#bfbfbf" points="200.5,-56.5 200.5,-75.5 235.5,-75.5 235.5,-56.5 200.5,-56.5"/>
<text text-anchor="middle" x="218" y="-63.5" font-family="Helvetica,sans-Serif" font-size="10.00">map</text>
</g>
<!-- Node21&#45;&gt;Node24 -->
<g id="edge24" class="edge"><title>Node21&#45;&gt;Node24</title>
<path fill="none" stroke="midnightblue" d="M218,-112.083C218,-105.006 218,-94.8611 218,-85.9865"/>
<polygon fill="midnightblue" stroke="midnightblue" points="221.5,-85.751 218,-75.7511 214.5,-85.7511 221.5,-85.751"/>
</g>
<!-- Node25 -->
<g id="node25" class="node"><title>Node25</title>
<polygon fill="white" stroke="#bfbfbf" points="90,-56.5 90,-75.5 120,-75.5 120,-56.5 90,-56.5"/>
<text text-anchor="middle" x="105" y="-63.5" font-family="Helvetica,sans-Serif" font-size="10.00">set</text>
</g>
<!-- Node21&#45;&gt;Node25 -->
<g id="edge25" class="edge"><title>Node21&#45;&gt;Node25</title>
<path fill="none" stroke="midnightblue" d="M200.095,-112.444C180.99,-103.314 150.609,-88.7955 129.342,-78.6323"/>
<polygon fill="midnightblue" stroke="midnightblue" points="130.816,-75.458 120.285,-74.3042 127.798,-81.7739 130.816,-75.458"/>
</g>
<!-- Node26 -->
<g id="node26" class="node"><title>Node26</title>
<polygon fill="white" stroke="#bfbfbf" points="138,-56.5 138,-75.5 182,-75.5 182,-56.5 138,-56.5"/>
<text text-anchor="middle" x="160" y="-63.5" font-family="Helvetica,sans-Serif" font-size="10.00">vector</text>
</g>
<!-- Node21&#45;&gt;Node26 -->
<g id="edge26" class="edge"><title>Node21&#45;&gt;Node26</title>
<path fill="none" stroke="midnightblue" d="M208.681,-112.324C200.107,-104.341 187.188,-92.3128 176.812,-82.6529"/>
<polygon fill="midnightblue" stroke="midnightblue" points="179.192,-80.0865 169.488,-75.8339 174.422,-85.2098 179.192,-80.0865"/>
</g>
<!-- Node27 -->
<g id="node27" class="node"><title>Node27</title>
<polygon fill="white" stroke="#bfbfbf" points="312.5,-56.5 312.5,-75.5 361.5,-75.5 361.5,-56.5 312.5,-56.5"/>
<text text-anchor="middle" x="337" y="-63.5" font-family="Helvetica,sans-Serif" font-size="10.00">string.h</text>
</g>
<!-- Node21&#45;&gt;Node27 -->
<g id="edge27" class="edge"><title>Node21&#45;&gt;Node27</title>
<path fill="none" stroke="midnightblue" d="M236.856,-112.444C256.266,-103.636 286.73,-89.8116 308.965,-79.722"/>
<polygon fill="midnightblue" stroke="midnightblue" points="310.572,-82.836 318.232,-75.5164 307.68,-76.4615 310.572,-82.836"/>
</g>
<!-- Node29&#45;&gt;Node3 -->
<g id="edge32" class="edge"><title>Node29&#45;&gt;Node3</title>
<path fill="none" stroke="midnightblue" d="M1067,-168.083C1067,-161.006 1067,-150.861 1067,-141.986"/>
<polygon fill="midnightblue" stroke="midnightblue" points="1070.5,-141.751 1067,-131.751 1063.5,-141.751 1070.5,-141.751"/>
</g>
<!-- Node29&#45;&gt;Node27 -->
<g id="edge36" class="edge"><title>Node29&#45;&gt;Node27</title>
<path fill="none" stroke="midnightblue" d="M1041.49,-174.444C951.074,-165.149 637.551,-130.883 371.624,-76.1483"/>
<polygon fill="midnightblue" stroke="midnightblue" points="372.29,-72.7119 361.787,-74.1097 370.869,-79.5663 372.29,-72.7119"/>
</g>
<!-- Node30 -->
<g id="node30" class="node"><title>Node30</title>
<polygon fill="white" stroke="#bfbfbf" points="1135.5,-112.5 1135.5,-131.5 1184.5,-131.5 1184.5,-112.5 1135.5,-112.5"/>
<text text-anchor="middle" x="1160" y="-119.5" font-family="Helvetica,sans-Serif" font-size="10.00">stdint.h</text>
</g>
<!-- Node29&#45;&gt;Node30 -->
<g id="edge33" class="edge"><title>Node29&#45;&gt;Node30</title>
<path fill="none" stroke="midnightblue" d="M1081.94,-168.324C1096.59,-159.822 1119.13,-146.729 1136.24,-136.797"/>
<polygon fill="midnightblue" stroke="midnightblue" points="1138.2,-139.703 1145.1,-131.655 1134.69,-133.649 1138.2,-139.703"/>
</g>
<!-- Node31 -->
<g id="node31" class="node"><title>Node31</title>
<polygon fill="white" stroke="#bfbfbf" points="1203,-112.5 1203,-131.5 1263,-131.5 1263,-112.5 1203,-112.5"/>
<text text-anchor="middle" x="1233" y="-119.5" font-family="Helvetica,sans-Serif" font-size="10.00">memory.h</text>
</g>
<!-- Node29&#45;&gt;Node31 -->
<g id="edge34" class="edge"><title>Node29&#45;&gt;Node31</title>
<path fill="none" stroke="midnightblue" d="M1092.57,-168.681C1120.56,-159.578 1165.62,-144.917 1197.13,-134.667"/>
<polygon fill="midnightblue" stroke="midnightblue" points="1198.42,-137.929 1206.85,-131.507 1196.26,-131.272 1198.42,-137.929"/>
</g>
<!-- Node32 -->
<g id="node32" class="node"><title>Node32</title>
<polygon fill="white" stroke="#bfbfbf" points="1281,-112.5 1281,-131.5 1327,-131.5 1327,-112.5 1281,-112.5"/>
<text text-anchor="middle" x="1304" y="-119.5" font-family="Helvetica,sans-Serif" font-size="10.00">stdio.h</text>
</g>
<!-- Node29&#45;&gt;Node32 -->
<g id="edge35" class="edge"><title>Node29&#45;&gt;Node32</title>
<path fill="none" stroke="midnightblue" d="M1092.58,-170.29C1095.75,-169.498 1098.95,-168.718 1102,-168 1176.76,-150.433 1196.37,-150.11 1271,-132 1271.1,-131.975 1271.2,-131.951 1271.3,-131.926"/>
<polygon fill="midnightblue" stroke="midnightblue" points="1272.14,-135.325 1280.96,-129.46 1270.41,-128.542 1272.14,-135.325"/>
</g>
</g>
</svg>
