<?xml version="1.0" encoding="UTF-8" standalone="no"?>
<!DOCTYPE svg PUBLIC "-//W3C//DTD SVG 1.1//EN"
 "http://www.w3.org/Graphics/SVG/1.1/DTD/svg11.dtd">
<!-- Generated by graphviz version 2.36.0 (20140111.2315)
 -->
<!-- Title: source/main/gameplay/OutProtocol.h Pages: 1 -->
<svg width="547pt" height="108pt"
 viewBox="0.00 0.00 547.00 108.00" xmlns="http://www.w3.org/2000/svg" xmlns:xlink="http://www.w3.org/1999/xlink">
<g id="graph0" class="graph" transform="scale(1 1) rotate(0) translate(4 104)">
<title>source/main/gameplay/OutProtocol.h</title>
<polygon fill="white" stroke="none" points="-4,4 -4,-104 543,-104 543,4 -4,4"/>
<!-- Node1 -->
<g id="node1" class="node"><title>Node1</title>
<polygon fill="#bfbfbf" stroke="black" points="202.5,-69 202.5,-99 317.5,-99 317.5,-69 202.5,-69"/>
<text text-anchor="start" x="210.5" y="-87" font-family="Helvetica,sans-Serif" font-size="10.00">source/main/gameplay</text>
<text text-anchor="middle" x="260" y="-76" font-family="Helvetica,sans-Serif" font-size="10.00">/OutProtocol.h</text>
</g>
<!-- Node2 -->
<g id="node2" class="node"><title>Node2</title>
<g id="a_node2"><a xlink:href="_out_protocol_8cpp.html" target="_top" xlink:title="source/main/gameplay\l/OutProtocol.cpp">
<polygon fill="white" stroke="black" points="-0.5,-1 -0.5,-31 114.5,-31 114.5,-1 -0.5,-1"/>
<text text-anchor="start" x="7.5" y="-19" font-family="Helvetica,sans-Serif" font-size="10.00">source/main/gameplay</text>
<text text-anchor="middle" x="57" y="-8" font-family="Helvetica,sans-Serif" font-size="10.00">/OutProtocol.cpp</text>
</a>
</g>
</g>
<!-- Node1&#45;&gt;Node2 -->
<g id="edge1" class="edge"><title>Node1&#45;&gt;Node2</title>
<path fill="none" stroke="midnightblue" d="M206.885,-65.731C173.622,-54.9164 131.308,-41.1592 100.128,-31.0218"/>
<polygon fill="midnightblue" stroke="midnightblue" points="205.859,-69.0779 216.451,-68.8413 208.024,-62.4209 205.859,-69.0779"/>
</g>
<!-- Node3 -->
<g id="node3" class="node"><title>Node3</title>
<g id="a_node3"><a xlink:href="_ro_r_frame_listener_8cpp.html" target="_top" xlink:title="source/main/gameplay\l/RoRFrameListener.cpp">
<polygon fill="white" stroke="black" points="132.5,-1 132.5,-31 253.5,-31 253.5,-1 132.5,-1"/>
<text text-anchor="start" x="140.5" y="-19" font-family="Helvetica,sans-Serif" font-size="10.00">source/main/gameplay</text>
<text text-anchor="middle" x="193" y="-8" font-family="Helvetica,sans-Serif" font-size="10.00">/RoRFrameListener.cpp</text>
</a>
</g>
</g>
<!-- Node1&#45;&gt;Node3 -->
<g id="edge2" class="edge"><title>Node1&#45;&gt;Node3</title>
<path fill="none" stroke="midnightblue" d="M238.16,-61.4855C228.109,-51.5852 216.459,-40.1092 207.51,-31.2931"/>
<polygon fill="midnightblue" stroke="midnightblue" points="235.882,-64.1547 245.462,-68.679 240.794,-59.1678 235.882,-64.1547"/>
</g>
<!-- Node4 -->
<g id="node4" class="node"><title>Node4</title>
<g id="a_node4"><a xlink:href="main_8cpp.html" target="_top" xlink:title="source/main/main.cpp">
<polygon fill="white" stroke="black" points="271.5,-6.5 271.5,-25.5 384.5,-25.5 384.5,-6.5 271.5,-6.5"/>
<text text-anchor="middle" x="328" y="-13.5" font-family="Helvetica,sans-Serif" font-size="10.00">source/main/main.cpp</text>
</a>
</g>
</g>
<!-- Node1&#45;&gt;Node4 -->
<g id="edge3" class="edge"><title>Node1&#45;&gt;Node4</title>
<path fill="none" stroke="midnightblue" d="M282.142,-61.5094C294.627,-49.3918 309.55,-34.9072 318.904,-25.8283"/>
<polygon fill="midnightblue" stroke="midnightblue" points="279.493,-59.2027 274.755,-68.679 284.368,-64.2257 279.493,-59.2027"/>
</g>
<!-- Node5 -->
<g id="node5" class="node"><title>Node5</title>
<g id="a_node5"><a xlink:href="_main_menu_8cpp.html" target="_top" xlink:title="source/main/MainMenu.cpp">
<polygon fill="white" stroke="black" points="402.5,-6.5 402.5,-25.5 539.5,-25.5 539.5,-6.5 402.5,-6.5"/>
<text text-anchor="middle" x="471" y="-13.5" font-family="Helvetica,sans-Serif" font-size="10.00">source/main/MainMenu.cpp</text>
</a>
</g>
</g>
<!-- Node1&#45;&gt;Node5 -->
<g id="edge4" class="edge"><title>Node1&#45;&gt;Node5</title>
<path fill="none" stroke="midnightblue" d="M314.686,-65.8943C356.116,-52.9354 411.279,-35.6804 443.782,-25.5138"/>
<polygon fill="midnightblue" stroke="midnightblue" points="313.505,-62.5965 305.006,-68.9223 315.595,-69.2773 313.505,-62.5965"/>
</g>
</g>
</svg>
