<?xml version="1.0" encoding="UTF-8" standalone="no"?>
<!DOCTYPE svg PUBLIC "-//W3C//DTD SVG 1.1//EN"
 "http://www.w3.org/Graphics/SVG/1.1/DTD/svg11.dtd">
<!-- Generated by graphviz version 2.36.0 (20140111.2315)
 -->
<!-- Title: source/main/physics/collision/PointColDetector.h Pages: 1 -->
<svg width="710pt" height="108pt"
 viewBox="0.00 0.00 710.00 108.00" xmlns="http://www.w3.org/2000/svg" xmlns:xlink="http://www.w3.org/1999/xlink">
<g id="graph0" class="graph" transform="scale(1 1) rotate(0) translate(4 104)">
<title>source/main/physics/collision/PointColDetector.h</title>
<polygon fill="white" stroke="none" points="-4,4 -4,-104 706,-104 706,4 -4,4"/>
<!-- Node1 -->
<g id="node1" class="node"><title>Node1</title>
<polygon fill="#bfbfbf" stroke="black" points="257.5,-69 257.5,-99 398.5,-99 398.5,-69 257.5,-69"/>
<text text-anchor="start" x="265.5" y="-87" font-family="Helvetica,sans-Serif" font-size="10.00">source/main/physics</text>
<text text-anchor="middle" x="328" y="-76" font-family="Helvetica,sans-Serif" font-size="10.00">/collision/PointColDetector.h</text>
</g>
<!-- Node2 -->
<g id="node2" class="node"><title>Node2</title>
<g id="a_node2"><a xlink:href="_beam_8cpp.html" target="_top" xlink:title="source/main/physics\l/Beam.cpp">
<polygon fill="white" stroke="black" points="-0.5,-1 -0.5,-31 106.5,-31 106.5,-1 -0.5,-1"/>
<text text-anchor="start" x="7.5" y="-19" font-family="Helvetica,sans-Serif" font-size="10.00">source/main/physics</text>
<text text-anchor="middle" x="53" y="-8" font-family="Helvetica,sans-Serif" font-size="10.00">/Beam.cpp</text>
</a>
</g>
</g>
<!-- Node1&#45;&gt;Node2 -->
<g id="edge1" class="edge"><title>Node1&#45;&gt;Node2</title>
<path fill="none" stroke="midnightblue" d="M259.437,-66.6269C217.682,-56.6448 163.257,-43.6148 115,-32 112.308,-31.3521 109.551,-30.6878 106.767,-30.0163"/>
<polygon fill="midnightblue" stroke="midnightblue" points="258.686,-70.0459 269.225,-68.9666 260.313,-63.2377 258.686,-70.0459"/>
</g>
<!-- Node3 -->
<g id="node3" class="node"><title>Node3</title>
<g id="a_node3"><a xlink:href="_beam_factory_8cpp.html" target="_top" xlink:title="source/main/physics\l/BeamFactory.cpp">
<polygon fill="white" stroke="black" points="124.5,-1 124.5,-31 231.5,-31 231.5,-1 124.5,-1"/>
<text text-anchor="start" x="132.5" y="-19" font-family="Helvetica,sans-Serif" font-size="10.00">source/main/physics</text>
<text text-anchor="middle" x="178" y="-8" font-family="Helvetica,sans-Serif" font-size="10.00">/BeamFactory.cpp</text>
</a>
</g>
</g>
<!-- Node1&#45;&gt;Node3 -->
<g id="edge2" class="edge"><title>Node1&#45;&gt;Node3</title>
<path fill="none" stroke="midnightblue" d="M286.519,-64.7485C262.302,-54.093 232.215,-40.8547 209.868,-31.0218"/>
<polygon fill="midnightblue" stroke="midnightblue" points="285.258,-68.0175 295.821,-68.8413 288.078,-61.6103 285.258,-68.0175"/>
</g>
<!-- Node4 -->
<g id="node4" class="node"><title>Node4</title>
<g id="a_node4"><a xlink:href="_dynamic_collisions_8cpp.html" target="_top" xlink:title="source/main/physics\l/collision/DynamicCollisions.cpp">
<polygon fill="white" stroke="black" points="249,-1 249,-31 407,-31 407,-1 249,-1"/>
<text text-anchor="start" x="257" y="-19" font-family="Helvetica,sans-Serif" font-size="10.00">source/main/physics</text>
<text text-anchor="middle" x="328" y="-8" font-family="Helvetica,sans-Serif" font-size="10.00">/collision/DynamicCollisions.cpp</text>
</a>
</g>
</g>
<!-- Node1&#45;&gt;Node4 -->
<g id="edge3" class="edge"><title>Node1&#45;&gt;Node4</title>
<path fill="none" stroke="midnightblue" d="M328,-58.5322C328,-49.3606 328,-39.2449 328,-31.2931"/>
<polygon fill="midnightblue" stroke="midnightblue" points="324.5,-58.6789 328,-68.679 331.5,-58.679 324.5,-58.6789"/>
</g>
<!-- Node5 -->
<g id="node5" class="node"><title>Node5</title>
<g id="a_node5"><a xlink:href="_point_col_detector_8cpp.html" target="_top" xlink:title="source/main/physics\l/collision/PointColDetector.cpp">
<polygon fill="white" stroke="black" points="425,-1 425,-31 577,-31 577,-1 425,-1"/>
<text text-anchor="start" x="433" y="-19" font-family="Helvetica,sans-Serif" font-size="10.00">source/main/physics</text>
<text text-anchor="middle" x="501" y="-8" font-family="Helvetica,sans-Serif" font-size="10.00">/collision/PointColDetector.cpp</text>
</a>
</g>
</g>
<!-- Node1&#45;&gt;Node5 -->
<g id="edge4" class="edge"><title>Node1&#45;&gt;Node5</title>
<path fill="none" stroke="midnightblue" d="M374.732,-65.1715C402.848,-54.4451 438.13,-40.9852 464.246,-31.0218"/>
<polygon fill="midnightblue" stroke="midnightblue" points="373.208,-62.0067 365.113,-68.8413 375.704,-68.5469 373.208,-62.0067"/>
</g>
<!-- Node6 -->
<g id="node6" class="node"><title>Node6</title>
<g id="a_node6"><a xlink:href="_rig_spawner_8cpp.html" target="_top" xlink:title="Vehicle spawning logic. ">
<polygon fill="white" stroke="black" points="595.5,-1 595.5,-31 702.5,-31 702.5,-1 595.5,-1"/>
<text text-anchor="start" x="603.5" y="-19" font-family="Helvetica,sans-Serif" font-size="10.00">source/main/physics</text>
<text text-anchor="middle" x="649" y="-8" font-family="Helvetica,sans-Serif" font-size="10.00">/RigSpawner.cpp</text>
</a>
</g>
</g>
<!-- Node1&#45;&gt;Node6 -->
<g id="edge5" class="edge"><title>Node1&#45;&gt;Node6</title>
<path fill="none" stroke="midnightblue" d="M408.479,-67.9192C459.456,-58.162 526.714,-44.9125 586,-32 589.076,-31.33 592.233,-30.6272 595.416,-29.9067"/>
<polygon fill="midnightblue" stroke="midnightblue" points="407.674,-64.5096 398.508,-69.8229 408.987,-71.3854 407.674,-64.5096"/>
</g>
</g>
</svg>
