<?xml version="1.0" encoding="UTF-8" standalone="no"?>
<!DOCTYPE svg PUBLIC "-//W3C//DTD SVG 1.1//EN"
 "http://www.w3.org/Graphics/SVG/1.1/DTD/svg11.dtd">
<!-- Generated by graphviz version 2.36.0 (20140111.2315)
 -->
<!-- Title: source/main/resources/rig_def_fileformat/RigDef_Serializer.h Pages: 1 -->
<svg width="791pt" height="274pt"
 viewBox="0.00 0.00 791.00 274.00" xmlns="http://www.w3.org/2000/svg" xmlns:xlink="http://www.w3.org/1999/xlink">
<g id="graph0" class="graph" transform="scale(1 1) rotate(0) translate(4 270)">
<title>source/main/resources/rig_def_fileformat/RigDef_Serializer.h</title>
<polygon fill="white" stroke="none" points="-4,4 -4,-270 787,-270 787,4 -4,4"/>
<!-- Node1 -->
<g id="node1" class="node"><title>Node1</title>
<polygon fill="#bfbfbf" stroke="black" points="341,-224.5 341,-265.5 469,-265.5 469,-224.5 341,-224.5"/>
<text text-anchor="start" x="349" y="-253.5" font-family="Helvetica,sans-Serif" font-size="10.00">source/main/resources</text>
<text text-anchor="start" x="349" y="-242.5" font-family="Helvetica,sans-Serif" font-size="10.00">/rig_def_fileformat/RigDef</text>
<text text-anchor="middle" x="405" y="-231.5" font-family="Helvetica,sans-Serif" font-size="10.00">_Serializer.h</text>
</g>
<!-- Node2 -->
<g id="node2" class="node"><title>Node2</title>
<g id="a_node2"><a xlink:href="_rig_def___file_8h.html" target="_top" xlink:title="Structures which represent a rig&#45;definition file (1:1 match) ">
<polygon fill="white" stroke="black" points="366.5,-168.5 366.5,-187.5 443.5,-187.5 443.5,-168.5 366.5,-168.5"/>
<text text-anchor="middle" x="405" y="-175.5" font-family="Helvetica,sans-Serif" font-size="10.00">RigDef_File.h</text>
</a>
</g>
</g>
<!-- Node1&#45;&gt;Node2 -->
<g id="edge1" class="edge"><title>Node1&#45;&gt;Node2</title>
<path fill="none" stroke="midnightblue" d="M405,-224.498C405,-216.065 405,-206.235 405,-197.874"/>
<polygon fill="midnightblue" stroke="midnightblue" points="408.5,-197.652 405,-187.652 401.5,-197.653 408.5,-197.652"/>
</g>
<!-- Node3 -->
<g id="node3" class="node"><title>Node3</title>
<g id="a_node3"><a xlink:href="_bit_flags_8h.html" target="_top" xlink:title="BitFlags.h">
<polygon fill="white" stroke="black" points="-0.5,-56.5 -0.5,-75.5 60.5,-75.5 60.5,-56.5 -0.5,-56.5"/>
<text text-anchor="middle" x="30" y="-63.5" font-family="Helvetica,sans-Serif" font-size="10.00">BitFlags.h</text>
</a>
</g>
</g>
<!-- Node2&#45;&gt;Node3 -->
<g id="edge2" class="edge"><title>Node2&#45;&gt;Node3</title>
<path fill="none" stroke="midnightblue" d="M366.238,-173.749C316.124,-168.717 226.663,-156.898 154,-132 116.243,-119.063 75.9066,-95.9799 51.8333,-81.089"/>
<polygon fill="midnightblue" stroke="midnightblue" points="53.4801,-77.9903 43.1504,-75.635 49.7567,-83.9179 53.4801,-77.9903"/>
</g>
<!-- Node5 -->
<g id="node5" class="node"><title>Node5</title>
<g id="a_node5"><a xlink:href="_rig_def___node_8h.html" target="_top" xlink:title="RigDef_Node.h">
<polygon fill="white" stroke="black" points="163,-112.5 163,-131.5 247,-131.5 247,-112.5 163,-112.5"/>
<text text-anchor="middle" x="205" y="-119.5" font-family="Helvetica,sans-Serif" font-size="10.00">RigDef_Node.h</text>
</a>
</g>
</g>
<!-- Node2&#45;&gt;Node5 -->
<g id="edge4" class="edge"><title>Node2&#45;&gt;Node5</title>
<path fill="none" stroke="midnightblue" d="M373.309,-168.444C338.932,-159.162 283.923,-144.309 246.211,-134.127"/>
<polygon fill="midnightblue" stroke="midnightblue" points="247.109,-130.744 236.542,-131.516 245.284,-137.502 247.109,-130.744"/>
</g>
<!-- Node7 -->
<g id="node7" class="node"><title>Node7</title>
<polygon fill="white" stroke="#bfbfbf" points="274,-56.5 274,-75.5 326,-75.5 326,-56.5 274,-56.5"/>
<text text-anchor="middle" x="300" y="-63.5" font-family="Helvetica,sans-Serif" font-size="10.00">memory</text>
</g>
<!-- Node2&#45;&gt;Node7 -->
<g id="edge12" class="edge"><title>Node2&#45;&gt;Node7</title>
<path fill="none" stroke="midnightblue" d="M389.772,-168.392C376.187,-160.217 356.292,-146.974 342,-132 328.414,-117.766 316.627,-98.5451 309.027,-84.7014"/>
<polygon fill="midnightblue" stroke="midnightblue" points="312.042,-82.9167 304.267,-75.7197 305.857,-86.1945 312.042,-82.9167"/>
</g>
<!-- Node8 -->
<g id="node8" class="node"><title>Node8</title>
<polygon fill="white" stroke="#bfbfbf" points="344,-56.5 344,-75.5 424,-75.5 424,-56.5 344,-56.5"/>
<text text-anchor="middle" x="384" y="-63.5" font-family="Helvetica,sans-Serif" font-size="10.00">OgreVector3.h</text>
</g>
<!-- Node2&#45;&gt;Node8 -->
<g id="edge15" class="edge"><title>Node2&#45;&gt;Node8</title>
<path fill="none" stroke="midnightblue" d="M387.498,-168.465C374.213,-160.917 356.924,-148.533 349,-132 340.834,-114.963 353.677,-95.9952 366.041,-82.9687"/>
<polygon fill="midnightblue" stroke="midnightblue" points="368.779,-85.1876 373.486,-75.696 363.887,-80.1802 368.779,-85.1876"/>
</g>
<!-- Node10 -->
<g id="node10" class="node"><title>Node10</title>
<g id="a_node10"><a xlink:href="_beam_constants_8h.html" target="_top" xlink:title="BeamConstants.h">
<polygon fill="white" stroke="black" points="357.5,-112.5 357.5,-131.5 452.5,-131.5 452.5,-112.5 357.5,-112.5"/>
<text text-anchor="middle" x="405" y="-119.5" font-family="Helvetica,sans-Serif" font-size="10.00">BeamConstants.h</text>
</a>
</g>
</g>
<!-- Node2&#45;&gt;Node10 -->
<g id="edge10" class="edge"><title>Node2&#45;&gt;Node10</title>
<path fill="none" stroke="midnightblue" d="M405,-168.083C405,-161.006 405,-150.861 405,-141.986"/>
<polygon fill="midnightblue" stroke="midnightblue" points="408.5,-141.751 405,-131.751 401.5,-141.751 408.5,-141.751"/>
</g>
<!-- Node11 -->
<g id="node11" class="node"><title>Node11</title>
<polygon fill="white" stroke="#bfbfbf" points="470.5,-112.5 470.5,-131.5 499.5,-131.5 499.5,-112.5 470.5,-112.5"/>
<text text-anchor="middle" x="485" y="-119.5" font-family="Helvetica,sans-Serif" font-size="10.00">list</text>
</g>
<!-- Node2&#45;&gt;Node11 -->
<g id="edge11" class="edge"><title>Node2&#45;&gt;Node11</title>
<path fill="none" stroke="midnightblue" d="M417.853,-168.324C430.216,-159.979 449.13,-147.212 463.737,-137.352"/>
<polygon fill="midnightblue" stroke="midnightblue" points="465.848,-140.15 472.179,-131.655 461.932,-134.348 465.848,-140.15"/>
</g>
<!-- Node12 -->
<g id="node12" class="node"><title>Node12</title>
<polygon fill="white" stroke="#bfbfbf" points="517,-112.5 517,-131.5 561,-131.5 561,-112.5 517,-112.5"/>
<text text-anchor="middle" x="539" y="-119.5" font-family="Helvetica,sans-Serif" font-size="10.00">vector</text>
</g>
<!-- Node2&#45;&gt;Node12 -->
<g id="edge13" class="edge"><title>Node2&#45;&gt;Node12</title>
<path fill="none" stroke="midnightblue" d="M426.233,-168.444C448.384,-159.517 483.319,-145.439 508.436,-135.317"/>
<polygon fill="midnightblue" stroke="midnightblue" points="509.9,-138.501 517.867,-131.516 507.283,-132.008 509.9,-138.501"/>
</g>
<!-- Node13 -->
<g id="node13" class="node"><title>Node13</title>
<polygon fill="white" stroke="#bfbfbf" points="579.5,-112.5 579.5,-131.5 650.5,-131.5 650.5,-112.5 579.5,-112.5"/>
<text text-anchor="middle" x="615" y="-119.5" font-family="Helvetica,sans-Serif" font-size="10.00">OgreString.h</text>
</g>
<!-- Node2&#45;&gt;Node13 -->
<g id="edge14" class="edge"><title>Node2&#45;&gt;Node13</title>
<path fill="none" stroke="midnightblue" d="M438.275,-168.444C474.448,-159.142 532.377,-144.246 571.981,-134.062"/>
<polygon fill="midnightblue" stroke="midnightblue" points="573.067,-137.397 581.881,-131.516 571.324,-130.617 573.067,-137.397"/>
</g>
<!-- Node14 -->
<g id="node14" class="node"><title>Node14</title>
<polygon fill="white" stroke="#bfbfbf" points="669,-112.5 669,-131.5 783,-131.5 783,-112.5 669,-112.5"/>
<text text-anchor="middle" x="726" y="-119.5" font-family="Helvetica,sans-Serif" font-size="10.00">OgreStringConverter.h</text>
</g>
<!-- Node2&#45;&gt;Node14 -->
<g id="edge16" class="edge"><title>Node2&#45;&gt;Node14</title>
<path fill="none" stroke="midnightblue" d="M443.72,-170.486C498.723,-161.233 600.016,-144.194 665.126,-133.241"/>
<polygon fill="midnightblue" stroke="midnightblue" points="665.971,-136.648 675.252,-131.537 664.81,-129.745 665.971,-136.648"/>
</g>
<!-- Node4 -->
<g id="node4" class="node"><title>Node4</title>
<polygon fill="white" stroke="#bfbfbf" points="7,-0.5 7,-19.5 53,-19.5 53,-0.5 7,-0.5"/>
<text text-anchor="middle" x="30" y="-7.5" font-family="Helvetica,sans-Serif" font-size="10.00">cstdint</text>
</g>
<!-- Node3&#45;&gt;Node4 -->
<g id="edge3" class="edge"><title>Node3&#45;&gt;Node4</title>
<path fill="none" stroke="midnightblue" d="M30,-56.083C30,-49.0059 30,-38.8611 30,-29.9865"/>
<polygon fill="midnightblue" stroke="midnightblue" points="33.5001,-29.751 30,-19.7511 26.5001,-29.7511 33.5001,-29.751"/>
</g>
<!-- Node5&#45;&gt;Node3 -->
<g id="edge5" class="edge"><title>Node5&#45;&gt;Node3</title>
<path fill="none" stroke="midnightblue" d="M177.271,-112.444C147.574,-103.28 100.284,-88.6876 67.3307,-78.5192"/>
<polygon fill="midnightblue" stroke="midnightblue" points="68.187,-75.1206 57.5995,-75.5164 66.123,-81.8094 68.187,-75.1206"/>
</g>
<!-- Node6 -->
<g id="node6" class="node"><title>Node6</title>
<g id="a_node6"><a xlink:href="_rig_def___prerequisites_8h.html" target="_top" xlink:title="RigDef_Prerequisites.h">
<polygon fill="white" stroke="black" points="138,-56.5 138,-75.5 256,-75.5 256,-56.5 138,-56.5"/>
<text text-anchor="middle" x="197" y="-63.5" font-family="Helvetica,sans-Serif" font-size="10.00">RigDef_Prerequisites.h</text>
</a>
</g>
</g>
<!-- Node5&#45;&gt;Node6 -->
<g id="edge6" class="edge"><title>Node5&#45;&gt;Node6</title>
<path fill="none" stroke="midnightblue" d="M203.679,-112.083C202.619,-104.927 201.094,-94.6353 199.769,-85.6911"/>
<polygon fill="midnightblue" stroke="midnightblue" points="203.224,-85.1302 198.296,-75.7511 196.3,-86.1561 203.224,-85.1302"/>
</g>
<!-- Node5&#45;&gt;Node7 -->
<g id="edge7" class="edge"><title>Node5&#45;&gt;Node7</title>
<path fill="none" stroke="midnightblue" d="M220.263,-112.324C235.221,-103.822 258.255,-90.7288 275.727,-80.7975"/>
<polygon fill="midnightblue" stroke="midnightblue" points="277.81,-83.639 284.774,-75.6545 274.351,-77.5534 277.81,-83.639"/>
</g>
<!-- Node5&#45;&gt;Node8 -->
<g id="edge8" class="edge"><title>Node5&#45;&gt;Node8</title>
<path fill="none" stroke="midnightblue" d="M233.363,-112.444C263.738,-103.28 312.11,-88.6876 345.816,-78.5192"/>
<polygon fill="midnightblue" stroke="midnightblue" points="347.207,-81.7555 355.77,-75.5164 345.185,-75.0538 347.207,-81.7555"/>
</g>
<!-- Node9 -->
<g id="node9" class="node"><title>Node9</title>
<polygon fill="white" stroke="#bfbfbf" points="78.5,-56.5 78.5,-75.5 119.5,-75.5 119.5,-56.5 78.5,-56.5"/>
<text text-anchor="middle" x="99" y="-63.5" font-family="Helvetica,sans-Serif" font-size="10.00">string</text>
</g>
<!-- Node5&#45;&gt;Node9 -->
<g id="edge9" class="edge"><title>Node5&#45;&gt;Node9</title>
<path fill="none" stroke="midnightblue" d="M187.969,-112.324C170.97,-103.664 144.624,-90.2424 125.007,-80.249"/>
<polygon fill="midnightblue" stroke="midnightblue" points="126.488,-77.0752 115.988,-75.6545 123.31,-83.3125 126.488,-77.0752"/>
</g>
</g>
</svg>
