<?xml version="1.0" encoding="UTF-8" standalone="no"?>
<!DOCTYPE svg PUBLIC "-//W3C//DTD SVG 1.1//EN"
 "http://www.w3.org/Graphics/SVG/1.1/DTD/svg11.dtd">
<!-- Generated by graphviz version 2.36.0 (20140111.2315)
 -->
<!-- Title: source/main/resources/rig_def_fileformat/RigDef_Node.h Pages: 1 -->
<svg width="432pt" height="162pt"
 viewBox="0.00 0.00 432.00 162.00" xmlns="http://www.w3.org/2000/svg" xmlns:xlink="http://www.w3.org/1999/xlink">
<g id="graph0" class="graph" transform="scale(1 1) rotate(0) translate(4 158)">
<title>source/main/resources/rig_def_fileformat/RigDef_Node.h</title>
<polygon fill="white" stroke="none" points="-4,4 -4,-158 428,-158 428,4 -4,4"/>
<!-- Node1 -->
<g id="node1" class="node"><title>Node1</title>
<polygon fill="#bfbfbf" stroke="black" points="177,-112.5 177,-153.5 305,-153.5 305,-112.5 177,-112.5"/>
<text text-anchor="start" x="185" y="-141.5" font-family="Helvetica,sans-Serif" font-size="10.00">source/main/resources</text>
<text text-anchor="start" x="185" y="-130.5" font-family="Helvetica,sans-Serif" font-size="10.00">/rig_def_fileformat/RigDef</text>
<text text-anchor="middle" x="241" y="-119.5" font-family="Helvetica,sans-Serif" font-size="10.00">_Node.h</text>
</g>
<!-- Node2 -->
<g id="node2" class="node"><title>Node2</title>
<g id="a_node2"><a xlink:href="_bit_flags_8h.html" target="_top" xlink:title="BitFlags.h">
<polygon fill="white" stroke="black" points="-0.5,-56.5 -0.5,-75.5 60.5,-75.5 60.5,-56.5 -0.5,-56.5"/>
<text text-anchor="middle" x="30" y="-63.5" font-family="Helvetica,sans-Serif" font-size="10.00">BitFlags.h</text>
</a>
</g>
</g>
<!-- Node1&#45;&gt;Node2 -->
<g id="edge1" class="edge"><title>Node1&#45;&gt;Node2</title>
<path fill="none" stroke="midnightblue" d="M177.693,-112.498C141.812,-101.444 98.1352,-87.9895 67.6228,-78.59"/>
<polygon fill="midnightblue" stroke="midnightblue" points="68.3973,-75.1663 57.81,-75.5671 66.3364,-81.8561 68.3973,-75.1663"/>
</g>
<!-- Node4 -->
<g id="node4" class="node"><title>Node4</title>
<g id="a_node4"><a xlink:href="_rig_def___prerequisites_8h.html" target="_top" xlink:title="RigDef_Prerequisites.h">
<polygon fill="white" stroke="black" points="79,-56.5 79,-75.5 197,-75.5 197,-56.5 79,-56.5"/>
<text text-anchor="middle" x="138" y="-63.5" font-family="Helvetica,sans-Serif" font-size="10.00">RigDef_Prerequisites.h</text>
</a>
</g>
</g>
<!-- Node1&#45;&gt;Node4 -->
<g id="edge3" class="edge"><title>Node1&#45;&gt;Node4</title>
<path fill="none" stroke="midnightblue" d="M210.097,-112.498C194.153,-102.436 175.056,-90.3849 160.523,-81.2136"/>
<polygon fill="midnightblue" stroke="midnightblue" points="162.036,-78.0295 151.711,-75.6525 158.3,-83.9493 162.036,-78.0295"/>
</g>
<!-- Node5 -->
<g id="node5" class="node"><title>Node5</title>
<polygon fill="white" stroke="#bfbfbf" points="215,-56.5 215,-75.5 267,-75.5 267,-56.5 215,-56.5"/>
<text text-anchor="middle" x="241" y="-63.5" font-family="Helvetica,sans-Serif" font-size="10.00">memory</text>
</g>
<!-- Node1&#45;&gt;Node5 -->
<g id="edge4" class="edge"><title>Node1&#45;&gt;Node5</title>
<path fill="none" stroke="midnightblue" d="M241,-112.498C241,-104.065 241,-94.2351 241,-85.874"/>
<polygon fill="midnightblue" stroke="midnightblue" points="244.5,-85.6525 241,-75.6525 237.5,-85.6525 244.5,-85.6525"/>
</g>
<!-- Node6 -->
<g id="node6" class="node"><title>Node6</title>
<polygon fill="white" stroke="#bfbfbf" points="285,-56.5 285,-75.5 365,-75.5 365,-56.5 285,-56.5"/>
<text text-anchor="middle" x="325" y="-63.5" font-family="Helvetica,sans-Serif" font-size="10.00">OgreVector3.h</text>
</g>
<!-- Node1&#45;&gt;Node6 -->
<g id="edge5" class="edge"><title>Node1&#45;&gt;Node6</title>
<path fill="none" stroke="midnightblue" d="M266.203,-112.498C278.834,-102.724 293.892,-91.0719 305.607,-82.0066"/>
<polygon fill="midnightblue" stroke="midnightblue" points="308.052,-84.5404 313.818,-75.6525 303.768,-79.0043 308.052,-84.5404"/>
</g>
<!-- Node7 -->
<g id="node7" class="node"><title>Node7</title>
<polygon fill="white" stroke="#bfbfbf" points="383.5,-56.5 383.5,-75.5 424.5,-75.5 424.5,-56.5 383.5,-56.5"/>
<text text-anchor="middle" x="404" y="-63.5" font-family="Helvetica,sans-Serif" font-size="10.00">string</text>
</g>
<!-- Node1&#45;&gt;Node7 -->
<g id="edge6" class="edge"><title>Node1&#45;&gt;Node7</title>
<path fill="none" stroke="midnightblue" d="M289.905,-112.498C317.147,-101.635 350.205,-88.4518 373.71,-79.0787"/>
<polygon fill="midnightblue" stroke="midnightblue" points="375.162,-82.268 383.154,-75.3128 372.569,-75.7659 375.162,-82.268"/>
</g>
<!-- Node3 -->
<g id="node3" class="node"><title>Node3</title>
<polygon fill="white" stroke="#bfbfbf" points="7,-0.5 7,-19.5 53,-19.5 53,-0.5 7,-0.5"/>
<text text-anchor="middle" x="30" y="-7.5" font-family="Helvetica,sans-Serif" font-size="10.00">cstdint</text>
</g>
<!-- Node2&#45;&gt;Node3 -->
<g id="edge2" class="edge"><title>Node2&#45;&gt;Node3</title>
<path fill="none" stroke="midnightblue" d="M30,-56.083C30,-49.0059 30,-38.8611 30,-29.9865"/>
<polygon fill="midnightblue" stroke="midnightblue" points="33.5001,-29.751 30,-19.7511 26.5001,-29.7511 33.5001,-29.751"/>
</g>
</g>
</svg>
