<?xml version="1.0" encoding="UTF-8" standalone="no"?>
<!DOCTYPE svg PUBLIC "-//W3C//DTD SVG 1.1//EN"
 "http://www.w3.org/Graphics/SVG/1.1/DTD/svg11.dtd">
<!-- Generated by graphviz version 2.36.0 (20140111.2315)
 -->
<!-- Title: source/main/resources/rig_def_fileformat/RigDef_Parser.h Pages: 1 -->
<!--zoomable 196 -->
<svg id="main" version="1.1" xmlns="http://www.w3.org/2000/svg" xmlns:xlink="http://www.w3.org/1999/xlink" xml:space="preserve" onload="init(evt)">
<style type="text/css"><![CDATA[
.edge:hover path { stroke: red; }
.edge:hover polygon { stroke: red; fill: red; }
]]></style>
<script type="text/javascript"><![CDATA[
var edges = document.getElementsByTagName('g');
if (edges && edges.length) {
  for (var i=0;i<edges.length;i++) {
    if (edges[i].id.substr(0,4)=='edge') {
      edges[i].setAttribute('class','edge');
    }
  }
}
]]></script>
        <defs>
                <circle id="rim" cx="0" cy="0" r="7"/>
                <circle id="rim2" cx="0" cy="0" r="3.5"/>
                <g id="zoomPlus">
                        <use xlink:href="#rim" fill="#404040">
                                <set attributeName="fill" to="#808080" begin="zoomplus.mouseover" end="zoomplus.mouseout"/>
                        </use>
                        <path d="M-4,0h8M0,-4v8" fill="none" stroke="white" stroke-width="1.5" pointer-events="none"/>
                </g>
                <g id="zoomMin">
                        <use xlink:href="#rim" fill="#404040">
                                <set attributeName="fill" to="#808080" begin="zoomminus.mouseover" end="zoomminus.mouseout"/>
                        </use>
                        <path d="M-4,0h8" fill="none" stroke="white" stroke-width="1.5" pointer-events="none"/>
                </g>
                <g id="dirArrow">
                        <path fill="none" stroke="white" stroke-width="1.5" d="M0,-3.0v7 M-2.5,-0.5L0,-3.0L2.5,-0.5"/>
                </g>
               <g id="resetDef">
                       <use xlink:href="#rim2" fill="#404040">
                               <set attributeName="fill" to="#808080" begin="reset.mouseover" end="reset.mouseout"/>
                       </use>
               </g>
        </defs>

<script type="text/javascript">
var viewWidth = 667;
var viewHeight = 196;
var sectionId = 'dynsection-1';
</script>
<script xlink:href="svgpan.js"/>
<svg id="graph" class="graph">
<g id="viewport">
<title>source/main/resources/rig_def_fileformat/RigDef_Parser.h</title>
<polygon fill="white" stroke="none" points="-4,4 -4,-192 663,-192 663,4 -4,4"/>
<!-- Node1 -->
<g id="node1" class="node"><title>Node1</title>
<polygon fill="#bfbfbf" stroke="black" points="245,-146.5 245,-187.5 373,-187.5 373,-146.5 245,-146.5"/>
<text text-anchor="start" x="253" y="-175.5" font-family="Helvetica,sans-Serif" font-size="10.00">source/main/resources</text>
<text text-anchor="start" x="253" y="-164.5" font-family="Helvetica,sans-Serif" font-size="10.00">/rig_def_fileformat/RigDef</text>
<text text-anchor="middle" x="309" y="-153.5" font-family="Helvetica,sans-Serif" font-size="10.00">_Parser.h</text>
</g>
<!-- Node2 -->
<g id="node2" class="node"><title>Node2</title>
<g id="a_node2"><a xlink:href="_rig_spawner_8h.html" target="_top" xlink:title="Vehicle spawning logic. ">
<polygon fill="white" stroke="black" points="125.5,-74 125.5,-104 232.5,-104 232.5,-74 125.5,-74"/>
<text text-anchor="start" x="133.5" y="-92" font-family="Helvetica,sans-Serif" font-size="10.00">source/main/physics</text>
<text text-anchor="middle" x="179" y="-81" font-family="Helvetica,sans-Serif" font-size="10.00">/RigSpawner.h</text>
</a>
</g>
</g>
<!-- Node1&#45;&gt;Node2 -->
<g id="edge1" class="edge"><title>Node1&#45;&gt;Node2</title>
<path fill="none" stroke="midnightblue" d="M266.775,-141.315C245.777,-129.039 221.148,-114.641 203.333,-104.225"/>
<polygon fill="midnightblue" stroke="midnightblue" points="265.122,-144.403 275.522,-146.428 268.655,-138.36 265.122,-144.403"/>
</g>
<!-- Node3 -->
<g id="node3" class="node"><title>Node3</title>
<g id="a_node3"><a xlink:href="_beam_8cpp.html" target="_top" xlink:title="source/main/physics\l/Beam.cpp">
<polygon fill="white" stroke="black" points="-0.5,-1 -0.5,-31 106.5,-31 106.5,-1 -0.5,-1"/>
<text text-anchor="start" x="7.5" y="-19" font-family="Helvetica,sans-Serif" font-size="10.00">source/main/physics</text>
<text text-anchor="middle" x="53" y="-8" font-family="Helvetica,sans-Serif" font-size="10.00">/Beam.cpp</text>
</a>
</g>
</g>
<!-- Node1&#45;&gt;Node3 -->
<g id="edge6" class="edge"><title>Node1&#45;&gt;Node3</title>
<path fill="none" stroke="midnightblue" d="M234.985,-156.535C196.952,-148.823 151.485,-134.929 117,-110 88.4089,-89.3318 68.3834,-51.7505 59.0131,-31.2581"/>
<polygon fill="midnightblue" stroke="midnightblue" points="234.508,-160.008 244.989,-158.458 235.83,-153.134 234.508,-160.008"/>
</g>
<!-- Node7 -->
<g id="node7" class="node"><title>Node7</title>
<g id="a_node7"><a xlink:href="_cache_system_8cpp.html" target="_top" xlink:title="source/main/resources\l/CacheSystem.cpp">
<polygon fill="white" stroke="black" points="251,-74 251,-104 367,-104 367,-74 251,-74"/>
<text text-anchor="start" x="259" y="-92" font-family="Helvetica,sans-Serif" font-size="10.00">source/main/resources</text>
<text text-anchor="middle" x="309" y="-81" font-family="Helvetica,sans-Serif" font-size="10.00">/CacheSystem.cpp</text>
</a>
</g>
</g>
<!-- Node1&#45;&gt;Node7 -->
<g id="edge7" class="edge"><title>Node1&#45;&gt;Node7</title>
<path fill="none" stroke="midnightblue" d="M309,-136.283C309,-125.254 309,-113.246 309,-104.225"/>
<polygon fill="midnightblue" stroke="midnightblue" points="305.5,-136.428 309,-146.428 312.5,-136.428 305.5,-136.428"/>
</g>
<!-- Node8 -->
<g id="node8" class="node"><title>Node8</title>
<g id="a_node8"><a xlink:href="_rig_def___parser_8cpp.html" target="_top" xlink:title="source/main/resources\l/rig_def_fileformat/RigDef\l_Parser.cpp">
<polygon fill="white" stroke="black" points="385,-68.5 385,-109.5 513,-109.5 513,-68.5 385,-68.5"/>
<text text-anchor="start" x="393" y="-97.5" font-family="Helvetica,sans-Serif" font-size="10.00">source/main/resources</text>
<text text-anchor="start" x="393" y="-86.5" font-family="Helvetica,sans-Serif" font-size="10.00">/rig_def_fileformat/RigDef</text>
<text text-anchor="middle" x="449" y="-75.5" font-family="Helvetica,sans-Serif" font-size="10.00">_Parser.cpp</text>
</a>
</g>
</g>
<!-- Node1&#45;&gt;Node8 -->
<g id="edge8" class="edge"><title>Node1&#45;&gt;Node8</title>
<path fill="none" stroke="midnightblue" d="M353.898,-141.627C373.029,-131.242 395.042,-119.292 413.069,-109.506"/>
<polygon fill="midnightblue" stroke="midnightblue" points="352.172,-138.581 345.053,-146.428 355.512,-144.733 352.172,-138.581"/>
</g>
<!-- Node9 -->
<g id="node9" class="node"><title>Node9</title>
<g id="a_node9"><a xlink:href="_rig_def___sequential_importer_8cpp.html" target="_top" xlink:title="source/main/resources\l/rig_def_fileformat/RigDef\l_SequentialImporter.cpp">
<polygon fill="white" stroke="black" points="531,-68.5 531,-109.5 659,-109.5 659,-68.5 531,-68.5"/>
<text text-anchor="start" x="539" y="-97.5" font-family="Helvetica,sans-Serif" font-size="10.00">source/main/resources</text>
<text text-anchor="start" x="539" y="-86.5" font-family="Helvetica,sans-Serif" font-size="10.00">/rig_def_fileformat/RigDef</text>
<text text-anchor="middle" x="595" y="-75.5" font-family="Helvetica,sans-Serif" font-size="10.00">_SequentialImporter.cpp</text>
</a>
</g>
</g>
<!-- Node1&#45;&gt;Node9 -->
<g id="edge9" class="edge"><title>Node1&#45;&gt;Node9</title>
<path fill="none" stroke="midnightblue" d="M383.26,-146.677C424.209,-135.971 475.944,-122.363 522,-110 524.919,-109.216 527.903,-108.412 530.916,-107.597"/>
<polygon fill="midnightblue" stroke="midnightblue" points="382.15,-143.349 373.36,-149.264 383.92,-150.122 382.15,-143.349"/>
</g>
<!-- Node2&#45;&gt;Node3 -->
<g id="edge2" class="edge"><title>Node2&#45;&gt;Node3</title>
<path fill="none" stroke="midnightblue" d="M145.169,-68.9365C124.117,-57.0739 97.4886,-42.069 78.2731,-31.2412"/>
<polygon fill="midnightblue" stroke="midnightblue" points="143.676,-72.1127 154.106,-73.9727 147.113,-66.0142 143.676,-72.1127"/>
</g>
<!-- Node4 -->
<g id="node4" class="node"><title>Node4</title>
<g id="a_node4"><a xlink:href="_flex_factory_8cpp.html" target="_top" xlink:title="source/main/physics\l/flex/FlexFactory.cpp">
<polygon fill="white" stroke="black" points="124.5,-1 124.5,-31 233.5,-31 233.5,-1 124.5,-1"/>
<text text-anchor="start" x="132.5" y="-19" font-family="Helvetica,sans-Serif" font-size="10.00">source/main/physics</text>
<text text-anchor="middle" x="179" y="-8" font-family="Helvetica,sans-Serif" font-size="10.00">/flex/FlexFactory.cpp</text>
</a>
</g>
</g>
<!-- Node2&#45;&gt;Node4 -->
<g id="edge3" class="edge"><title>Node2&#45;&gt;Node4</title>
<path fill="none" stroke="midnightblue" d="M179,-63.8976C179,-53.1314 179,-40.8005 179,-31.4856"/>
<polygon fill="midnightblue" stroke="midnightblue" points="175.5,-63.9727 179,-73.9727 182.5,-63.9727 175.5,-63.9727"/>
</g>
<!-- Node5 -->
<g id="node5" class="node"><title>Node5</title>
<g id="a_node5"><a xlink:href="_rig_spawner_8cpp.html" target="_top" xlink:title="Vehicle spawning logic. ">
<polygon fill="white" stroke="black" points="251.5,-1 251.5,-31 358.5,-31 358.5,-1 251.5,-1"/>
<text text-anchor="start" x="259.5" y="-19" font-family="Helvetica,sans-Serif" font-size="10.00">source/main/physics</text>
<text text-anchor="middle" x="305" y="-8" font-family="Helvetica,sans-Serif" font-size="10.00">/RigSpawner.cpp</text>
</a>
</g>
</g>
<!-- Node2&#45;&gt;Node5 -->
<g id="edge4" class="edge"><title>Node2&#45;&gt;Node5</title>
<path fill="none" stroke="midnightblue" d="M212.831,-68.9365C233.883,-57.0739 260.511,-42.069 279.727,-31.2412"/>
<polygon fill="midnightblue" stroke="midnightblue" points="210.887,-66.0142 203.894,-73.9727 214.324,-72.1127 210.887,-66.0142"/>
</g>
<!-- Node6 -->
<g id="node6" class="node"><title>Node6</title>
<g id="a_node6"><a xlink:href="_rig_spawner___process_control_8cpp.html" target="_top" xlink:title="source/main/physics\l/RigSpawner_ProcessControl.cpp">
<polygon fill="white" stroke="black" points="377,-1 377,-31 541,-31 541,-1 377,-1"/>
<text text-anchor="start" x="385" y="-19" font-family="Helvetica,sans-Serif" font-size="10.00">source/main/physics</text>
<text text-anchor="middle" x="459" y="-8" font-family="Helvetica,sans-Serif" font-size="10.00">/RigSpawner_ProcessControl.cpp</text>
</a>
</g>
</g>
<!-- Node2&#45;&gt;Node6 -->
<g id="edge5" class="edge"><title>Node2&#45;&gt;Node6</title>
<path fill="none" stroke="midnightblue" d="M231.703,-70.9423C235.179,-69.9182 238.635,-68.9282 242,-68 292.365,-54.1091 349.956,-40.6861 393.146,-31.1005"/>
<polygon fill="midnightblue" stroke="midnightblue" points="230.472,-67.6577 221.908,-73.8953 232.493,-74.3597 230.472,-67.6577"/>
</g>
</g>
</svg>
        <g id="navigator" transform="translate(0 0)" fill="#404254">
                <rect fill="#f2f5e9" fill-opacity="0.5" stroke="#606060" stroke-width=".5" x="0" y="0" width="60" height="60"/>
                <use id="zoomplus" xlink:href="#zoomPlus" x="17" y="9" onmousedown="handleZoom(evt,'in')"/>
                <use id="zoomminus" xlink:href="#zoomMin" x="42" y="9" onmousedown="handleZoom(evt,'out')"/>
                <use id="reset" xlink:href="#resetDef" x="30" y="36" onmousedown="handleReset()"/>
                <g id="arrowUp" xlink:href="#dirArrow" transform="translate(30 24)" onmousedown="handlePan(0,-1)">
                  <use xlink:href="#rim" fill="#404040">
                        <set attributeName="fill" to="#808080" begin="arrowUp.mouseover" end="arrowUp.mouseout"/>
                  </use>
                  <path fill="none" stroke="white" stroke-width="1.5" d="M0,-3.0v7 M-2.5,-0.5L0,-3.0L2.5,-0.5"/>
                </g>
                <g id="arrowRight" xlink:href="#dirArrow" transform="rotate(90) translate(36 -43)" onmousedown="handlePan(1,0)">
                  <use xlink:href="#rim" fill="#404040">
                        <set attributeName="fill" to="#808080" begin="arrowRight.mouseover" end="arrowRight.mouseout"/>
                  </use>
                  <path fill="none" stroke="white" stroke-width="1.5" d="M0,-3.0v7 M-2.5,-0.5L0,-3.0L2.5,-0.5"/>
                </g>
                <g id="arrowDown" xlink:href="#dirArrow" transform="rotate(180) translate(-30 -48)" onmousedown="handlePan(0,1)">
                  <use xlink:href="#rim" fill="#404040">
                        <set attributeName="fill" to="#808080" begin="arrowDown.mouseover" end="arrowDown.mouseout"/>
                  </use>
                  <path fill="none" stroke="white" stroke-width="1.5" d="M0,-3.0v7 M-2.5,-0.5L0,-3.0L2.5,-0.5"/>
                </g>
                <g id="arrowLeft" xlink:href="#dirArrow" transform="rotate(270) translate(-36 17)" onmousedown="handlePan(-1,0)">
                  <use xlink:href="#rim" fill="#404040">
                        <set attributeName="fill" to="#808080" begin="arrowLeft.mouseover" end="arrowLeft.mouseout"/>
                  </use>
                  <path fill="none" stroke="white" stroke-width="1.5" d="M0,-3.0v7 M-2.5,-0.5L0,-3.0L2.5,-0.5"/>
                </g>
        </g>
        <svg viewBox="0 0 15 15" width="100%" height="30px" preserveAspectRatio="xMaxYMin meet">
         <g id="arrow_out" transform="scale(0.3 0.3)">
          <a xlink:href="_rig_def___parser_8h__dep__incl_org.svg" target="_base">
           <rect id="button" ry="5" rx="5" y="6" x="6" height="38" width="38"
                fill="#f2f5e9" fill-opacity="0.5" stroke="#606060" stroke-width="1.0"/>
           <path id="arrow"
             d="M 11.500037,31.436501 C 11.940474,20.09759 22.043105,11.32322 32.158766,21.979434 L 37.068811,17.246167 C 37.068811,17.246167 37.088388,32 37.088388,32 L 22.160133,31.978069 C 22.160133,31.978069 26.997745,27.140456 26.997745,27.140456 C 18.528582,18.264221 13.291696,25.230495 11.500037,31.436501 z"
             style="fill:#404040;"/>
          </a>
         </g>
        </svg>
</svg>
