<?xml version="1.0" encoding="UTF-8" standalone="no"?>
<!DOCTYPE svg PUBLIC "-//W3C//DTD SVG 1.1//EN"
 "http://www.w3.org/Graphics/SVG/1.1/DTD/svg11.dtd">
<!-- Generated by graphviz version 2.36.0 (20140111.2315)
 -->
<!-- Title: source/main/gameplay/Road2.cpp Pages: 1 -->
<!--zoomable 544 -->
<svg id="main" version="1.1" xmlns="http://www.w3.org/2000/svg" xmlns:xlink="http://www.w3.org/1999/xlink" xml:space="preserve" onload="init(evt)">
<style type="text/css"><![CDATA[
.edge:hover path { stroke: red; }
.edge:hover polygon { stroke: red; fill: red; }
]]></style>
<script type="text/javascript"><![CDATA[
var edges = document.getElementsByTagName('g');
if (edges && edges.length) {
  for (var i=0;i<edges.length;i++) {
    if (edges[i].id.substr(0,4)=='edge') {
      edges[i].setAttribute('class','edge');
    }
  }
}
]]></script>
        <defs>
                <circle id="rim" cx="0" cy="0" r="7"/>
                <circle id="rim2" cx="0" cy="0" r="3.5"/>
                <g id="zoomPlus">
                        <use xlink:href="#rim" fill="#404040">
                                <set attributeName="fill" to="#808080" begin="zoomplus.mouseover" end="zoomplus.mouseout"/>
                        </use>
                        <path d="M-4,0h8M0,-4v8" fill="none" stroke="white" stroke-width="1.5" pointer-events="none"/>
                </g>
                <g id="zoomMin">
                        <use xlink:href="#rim" fill="#404040">
                                <set attributeName="fill" to="#808080" begin="zoomminus.mouseover" end="zoomminus.mouseout"/>
                        </use>
                        <path d="M-4,0h8" fill="none" stroke="white" stroke-width="1.5" pointer-events="none"/>
                </g>
                <g id="dirArrow">
                        <path fill="none" stroke="white" stroke-width="1.5" d="M0,-3.0v7 M-2.5,-0.5L0,-3.0L2.5,-0.5"/>
                </g>
               <g id="resetDef">
                       <use xlink:href="#rim2" fill="#404040">
                               <set attributeName="fill" to="#808080" begin="reset.mouseover" end="reset.mouseout"/>
                       </use>
               </g>
        </defs>

<script type="text/javascript">
var viewWidth = 1977;
var viewHeight = 544;
var sectionId = 'dynsection-0';
</script>
<script xlink:href="svgpan.js"/>
<svg id="graph" class="graph">
<g id="viewport">
<title>source/main/gameplay/Road2.cpp</title>
<polygon fill="white" stroke="none" points="-4,4 -4,-540 1973,-540 1973,4 -4,4"/>
<!-- Node1 -->
<g id="node1" class="node"><title>Node1</title>
<polygon fill="#bfbfbf" stroke="black" points="1419.5,-505 1419.5,-535 1534.5,-535 1534.5,-505 1419.5,-505"/>
<text text-anchor="start" x="1427.5" y="-523" font-family="Helvetica,sans-Serif" font-size="10.00">source/main/gameplay</text>
<text text-anchor="middle" x="1477" y="-512" font-family="Helvetica,sans-Serif" font-size="10.00">/Road2.cpp</text>
</g>
<!-- Node2 -->
<g id="node2" class="node"><title>Node2</title>
<g id="a_node2"><a xlink:href="_road2_8h.html" target="_top" xlink:title="Road2.h">
<polygon fill="white" stroke="black" points="415.5,-448.5 415.5,-467.5 468.5,-467.5 468.5,-448.5 415.5,-448.5"/>
<text text-anchor="middle" x="442" y="-455.5" font-family="Helvetica,sans-Serif" font-size="10.00">Road2.h</text>
</a>
</g>
</g>
<!-- Node1&#45;&gt;Node2 -->
<g id="edge1" class="edge"><title>Node1&#45;&gt;Node2</title>
<path fill="none" stroke="midnightblue" d="M1419.14,-515.646C1230.18,-504.692 634.517,-470.16 479.287,-461.162"/>
<polygon fill="midnightblue" stroke="midnightblue" points="479.069,-457.643 468.883,-460.558 478.664,-464.631 479.069,-457.643"/>
</g>
<!-- Node22 -->
<g id="node22" class="node"><title>Node22</title>
<g id="a_node22"><a xlink:href="_collisions_8h.html" target="_top" xlink:title="Collisions.h">
<polygon fill="white" stroke="black" points="1267,-448.5 1267,-467.5 1335,-467.5 1335,-448.5 1267,-448.5"/>
<text text-anchor="middle" x="1301" y="-455.5" font-family="Helvetica,sans-Serif" font-size="10.00">Collisions.h</text>
</a>
</g>
</g>
<!-- Node1&#45;&gt;Node22 -->
<g id="edge22" class="edge"><title>Node1&#45;&gt;Node22</title>
<path fill="none" stroke="midnightblue" d="M1435.74,-504.933C1405.29,-494.553 1364.33,-480.589 1335.59,-470.792"/>
<polygon fill="midnightblue" stroke="midnightblue" points="1336.57,-467.427 1325.97,-467.513 1334.31,-474.052 1336.57,-467.427"/>
</g>
<!-- Node41 -->
<g id="node41" class="node"><title>Node41</title>
<g id="a_node41"><a xlink:href="_i_height_finder_8h.html" target="_top" xlink:title="IHeightFinder.h">
<polygon fill="white" stroke="black" points="1461.5,-224.5 1461.5,-243.5 1544.5,-243.5 1544.5,-224.5 1461.5,-224.5"/>
<text text-anchor="middle" x="1503" y="-231.5" font-family="Helvetica,sans-Serif" font-size="10.00">IHeightFinder.h</text>
</a>
</g>
</g>
<!-- Node1&#45;&gt;Node41 -->
<g id="edge63" class="edge"><title>Node1&#45;&gt;Node41</title>
<path fill="none" stroke="midnightblue" d="M1514.76,-504.928C1554.08,-487.536 1610,-453.86 1610,-403 1610,-403 1610,-403 1610,-345 1610,-299.413 1562.2,-265.624 1530.49,-248.227"/>
<polygon fill="midnightblue" stroke="midnightblue" points="1532.12,-245.125 1521.64,-243.559 1528.85,-251.318 1532.12,-245.125"/>
</g>
<!-- Node42 -->
<g id="node42" class="node"><title>Node42</title>
<g id="a_node42"><a xlink:href="_terrain_manager_8h.html" target="_top" xlink:title="TerrainManager.h">
<polygon fill="white" stroke="black" points="1602,-168.5 1602,-187.5 1694,-187.5 1694,-168.5 1602,-168.5"/>
<text text-anchor="middle" x="1648" y="-175.5" font-family="Helvetica,sans-Serif" font-size="10.00">TerrainManager.h</text>
</a>
</g>
</g>
<!-- Node1&#45;&gt;Node42 -->
<g id="edge65" class="edge"><title>Node1&#45;&gt;Node42</title>
<path fill="none" stroke="midnightblue" d="M1534.89,-505.346C1584.5,-489.796 1648,-458.963 1648,-403 1648,-403 1648,-403 1648,-289 1648,-256.948 1648,-219.643 1648,-197.749"/>
<polygon fill="midnightblue" stroke="midnightblue" points="1651.5,-197.558 1648,-187.558 1644.5,-197.558 1651.5,-197.558"/>
</g>
<!-- Node3 -->
<g id="node3" class="node"><title>Node3</title>
<polygon fill="white" stroke="#bfbfbf" points="368,-392.5 368,-411.5 414,-411.5 414,-392.5 368,-392.5"/>
<text text-anchor="middle" x="391" y="-399.5" font-family="Helvetica,sans-Serif" font-size="10.00">Ogre.h</text>
</g>
<!-- Node2&#45;&gt;Node3 -->
<g id="edge2" class="edge"><title>Node2&#45;&gt;Node3</title>
<path fill="none" stroke="midnightblue" d="M433.578,-448.083C426.152,-440.22 415.148,-428.569 406.188,-419.081"/>
<polygon fill="midnightblue" stroke="midnightblue" points="408.676,-416.618 399.265,-411.751 403.587,-421.424 408.676,-416.618"/>
</g>
<!-- Node4 -->
<g id="node4" class="node"><title>Node4</title>
<g id="a_node4"><a xlink:href="_ro_r_prerequisites_8h.html" target="_top" xlink:title="RoRPrerequisites.h">
<polygon fill="white" stroke="black" points="918,-112.5 918,-131.5 1020,-131.5 1020,-112.5 918,-112.5"/>
<text text-anchor="middle" x="969" y="-119.5" font-family="Helvetica,sans-Serif" font-size="10.00">RoRPrerequisites.h</text>
</a>
</g>
</g>
<!-- Node2&#45;&gt;Node4 -->
<g id="edge3" class="edge"><title>Node2&#45;&gt;Node4</title>
<path fill="none" stroke="midnightblue" d="M442.381,-448.286C444.639,-408.331 459.737,-241.453 556,-168 609.773,-126.969 806.441,-121.906 907.756,-122.131"/>
<polygon fill="midnightblue" stroke="midnightblue" points="907.833,-125.631 917.847,-122.172 907.862,-118.632 907.833,-125.631"/>
</g>
<!-- Node5 -->
<g id="node5" class="node"><title>Node5</title>
<polygon fill="white" stroke="#bfbfbf" points="-0.5,-56.5 -0.5,-75.5 102.5,-75.5 102.5,-56.5 -0.5,-56.5"/>
<text text-anchor="middle" x="51" y="-63.5" font-family="Helvetica,sans-Serif" font-size="10.00">OgrePrerequisites.h</text>
</g>
<!-- Node4&#45;&gt;Node5 -->
<g id="edge4" class="edge"><title>Node4&#45;&gt;Node5</title>
<path fill="none" stroke="midnightblue" d="M917.797,-116.906C896.255,-115.258 870.917,-113.416 848,-112 523.337,-91.9345 440.896,-106.003 117,-76 115.705,-75.88 114.396,-75.7532 113.077,-75.6203"/>
<polygon fill="midnightblue" stroke="midnightblue" points="113.154,-72.108 102.832,-74.4982 112.392,-79.0663 113.154,-72.108"/>
</g>
<!-- Node6 -->
<g id="node6" class="node"><title>Node6</title>
<polygon fill="white" stroke="#bfbfbf" points="432.5,-56.5 432.5,-75.5 547.5,-75.5 547.5,-56.5 432.5,-56.5"/>
<text text-anchor="middle" x="490" y="-63.5" font-family="Helvetica,sans-Serif" font-size="10.00">OgreAxisAlignedBox.h</text>
</g>
<!-- Node4&#45;&gt;Node6 -->
<g id="edge5" class="edge"><title>Node4&#45;&gt;Node6</title>
<path fill="none" stroke="midnightblue" d="M917.762,-115.866C841.554,-108.132 693.566,-92.7325 557.753,-76.1892"/>
<polygon fill="midnightblue" stroke="midnightblue" points="557.932,-72.6851 547.581,-74.9451 557.082,-79.6333 557.932,-72.6851"/>
</g>
<!-- Node7 -->
<g id="node7" class="node"><title>Node7</title>
<polygon fill="white" stroke="#bfbfbf" points="1548.5,-56.5 1548.5,-75.5 1647.5,-75.5 1647.5,-56.5 1548.5,-56.5"/>
<text text-anchor="middle" x="1598" y="-63.5" font-family="Helvetica,sans-Serif" font-size="10.00">OgreColourValue.h</text>
</g>
<!-- Node4&#45;&gt;Node7 -->
<g id="edge6" class="edge"><title>Node4&#45;&gt;Node7</title>
<path fill="none" stroke="midnightblue" d="M1020.22,-118.207C1118.52,-112.574 1340.65,-98.5323 1538.46,-75.9734"/>
<polygon fill="midnightblue" stroke="midnightblue" points="1538.93,-79.4435 1548.46,-74.8236 1538.13,-72.4893 1538.93,-79.4435"/>
</g>
<!-- Node8 -->
<g id="node8" class="node"><title>Node8</title>
<polygon fill="white" stroke="#bfbfbf" points="565.5,-56.5 565.5,-75.5 668.5,-75.5 668.5,-56.5 565.5,-56.5"/>
<text text-anchor="middle" x="617" y="-63.5" font-family="Helvetica,sans-Serif" font-size="10.00">OgreHeaderPrefix.h</text>
</g>
<!-- Node4&#45;&gt;Node8 -->
<g id="edge7" class="edge"><title>Node4&#45;&gt;Node8</title>
<path fill="none" stroke="midnightblue" d="M917.816,-113.148C854.429,-103.424 746.539,-86.8724 678.658,-76.4589"/>
<polygon fill="midnightblue" stroke="midnightblue" points="678.947,-72.9624 668.532,-74.9055 677.886,-79.8814 678.947,-72.9624"/>
</g>
<!-- Node9 -->
<g id="node9" class="node"><title>Node9</title>
<polygon fill="white" stroke="#bfbfbf" points="686.5,-56.5 686.5,-75.5 785.5,-75.5 785.5,-56.5 686.5,-56.5"/>
<text text-anchor="middle" x="736" y="-63.5" font-family="Helvetica,sans-Serif" font-size="10.00">OgreLogManager.h</text>
</g>
<!-- Node4&#45;&gt;Node9 -->
<g id="edge8" class="edge"><title>Node4&#45;&gt;Node9</title>
<path fill="none" stroke="midnightblue" d="M932.08,-112.444C891.605,-103.063 826.579,-87.9926 782.616,-77.8036"/>
<polygon fill="midnightblue" stroke="midnightblue" points="783.279,-74.3646 772.747,-75.5164 781.698,-81.1839 783.279,-74.3646"/>
</g>
<!-- Node10 -->
<g id="node10" class="node"><title>Node10</title>
<polygon fill="white" stroke="#bfbfbf" points="1348.5,-56.5 1348.5,-75.5 1441.5,-75.5 1441.5,-56.5 1348.5,-56.5"/>
<text text-anchor="middle" x="1395" y="-63.5" font-family="Helvetica,sans-Serif" font-size="10.00">OgreQuaternion.h</text>
</g>
<!-- Node4&#45;&gt;Node10 -->
<g id="edge9" class="edge"><title>Node4&#45;&gt;Node10</title>
<path fill="none" stroke="midnightblue" d="M1020.26,-115.395C1089.8,-107.651 1218.16,-92.8637 1338.17,-76.0687"/>
<polygon fill="midnightblue" stroke="midnightblue" points="1338.85,-79.5069 1348.27,-74.6476 1337.88,-72.5751 1338.85,-79.5069"/>
</g>
<!-- Node11 -->
<g id="node11" class="node"><title>Node11</title>
<polygon fill="white" stroke="#bfbfbf" points="1459.5,-56.5 1459.5,-75.5 1530.5,-75.5 1530.5,-56.5 1459.5,-56.5"/>
<text text-anchor="middle" x="1495" y="-63.5" font-family="Helvetica,sans-Serif" font-size="10.00">OgreString.h</text>
</g>
<!-- Node4&#45;&gt;Node11 -->
<g id="edge10" class="edge"><title>Node4&#45;&gt;Node11</title>
<path fill="none" stroke="midnightblue" d="M1020.11,-117.973C1106.4,-112.48 1286.6,-99.3587 1449.02,-75.9913"/>
<polygon fill="midnightblue" stroke="midnightblue" points="1449.81,-79.4139 1459.2,-74.5101 1448.8,-72.4869 1449.81,-79.4139"/>
</g>
<!-- Node12 -->
<g id="node12" class="node"><title>Node12</title>
<polygon fill="white" stroke="#bfbfbf" points="804,-56.5 804,-75.5 918,-75.5 918,-56.5 804,-56.5"/>
<text text-anchor="middle" x="861" y="-63.5" font-family="Helvetica,sans-Serif" font-size="10.00">OgreStringConverter.h</text>
</g>
<!-- Node4&#45;&gt;Node12 -->
<g id="edge11" class="edge"><title>Node4&#45;&gt;Node12</title>
<path fill="none" stroke="midnightblue" d="M951.648,-112.324C934.328,-103.664 907.485,-90.2424 887.498,-80.249"/>
<polygon fill="midnightblue" stroke="midnightblue" points="888.819,-76.9962 878.309,-75.6545 885.688,-83.2572 888.819,-76.9962"/>
</g>
<!-- Node13 -->
<g id="node13" class="node"><title>Node13</title>
<polygon fill="white" stroke="#bfbfbf" points="936.5,-56.5 936.5,-75.5 1027.5,-75.5 1027.5,-56.5 936.5,-56.5"/>
<text text-anchor="middle" x="982" y="-63.5" font-family="Helvetica,sans-Serif" font-size="10.00">OgreUTFString.h</text>
</g>
<!-- Node4&#45;&gt;Node13 -->
<g id="edge12" class="edge"><title>Node4&#45;&gt;Node13</title>
<path fill="none" stroke="midnightblue" d="M971.147,-112.083C972.869,-104.927 975.347,-94.6353 977.5,-85.6911"/>
<polygon fill="midnightblue" stroke="midnightblue" points="980.955,-86.2925 979.893,-75.7511 974.15,-84.6541 980.955,-86.2925"/>
</g>
<!-- Node14 -->
<g id="node14" class="node"><title>Node14</title>
<polygon fill="white" stroke="#bfbfbf" points="1046,-56.5 1046,-75.5 1126,-75.5 1126,-56.5 1046,-56.5"/>
<text text-anchor="middle" x="1086" y="-63.5" font-family="Helvetica,sans-Serif" font-size="10.00">OgreVector2.h</text>
</g>
<!-- Node4&#45;&gt;Node14 -->
<g id="edge13" class="edge"><title>Node4&#45;&gt;Node14</title>
<path fill="none" stroke="midnightblue" d="M987.539,-112.444C1006.62,-103.636 1036.57,-89.8116 1058.44,-79.722"/>
<polygon fill="midnightblue" stroke="midnightblue" points="1059.93,-82.8849 1067.55,-75.5164 1057,-76.5292 1059.93,-82.8849"/>
</g>
<!-- Node15 -->
<g id="node15" class="node"><title>Node15</title>
<polygon fill="white" stroke="#bfbfbf" points="1666,-56.5 1666,-75.5 1746,-75.5 1746,-56.5 1666,-56.5"/>
<text text-anchor="middle" x="1706" y="-63.5" font-family="Helvetica,sans-Serif" font-size="10.00">OgreVector3.h</text>
</g>
<!-- Node4&#45;&gt;Node15 -->
<g id="edge14" class="edge"><title>Node4&#45;&gt;Node15</title>
<path fill="none" stroke="midnightblue" d="M1020.03,-119.624C1134.31,-116.112 1419.31,-104.96 1656,-76 1656.1,-75.9876 1656.2,-75.9752 1656.3,-75.9626"/>
<polygon fill="midnightblue" stroke="midnightblue" points="1656.52,-79.4662 1665.94,-74.6202 1655.56,-72.5331 1656.52,-79.4662"/>
</g>
<!-- Node16 -->
<g id="node16" class="node"><title>Node16</title>
<g id="a_node16"><a xlink:href="_forward_declarations_8h.html" target="_top" xlink:title="Global forward declarations. ">
<polygon fill="white" stroke="black" points="607.5,-0.5 607.5,-19.5 722.5,-19.5 722.5,-0.5 607.5,-0.5"/>
<text text-anchor="middle" x="665" y="-7.5" font-family="Helvetica,sans-Serif" font-size="10.00">ForwardDeclarations.h</text>
</a>
</g>
</g>
<!-- Node4&#45;&gt;Node16 -->
<g id="edge15" class="edge"><title>Node4&#45;&gt;Node16</title>
<path fill="none" stroke="midnightblue" d="M917.796,-116.933C896.253,-115.289 870.915,-113.443 848,-112 809.247,-109.56 176.74,-104.155 150,-76 143.879,-69.5548 143.994,-62.5532 150,-56 179.623,-23.6756 464.089,-14.4793 597.086,-11.9369"/>
<polygon fill="midnightblue" stroke="midnightblue" points="597.231,-15.435 607.165,-11.7515 597.102,-8.43614 597.231,-15.435"/>
</g>
<!-- Node17 -->
<g id="node17" class="node"><title>Node17</title>
<g id="a_node17"><a xlink:href="_global_environment_8h.html" target="_top" xlink:title="GlobalEnvironment.h">
<polygon fill="white" stroke="black" points="1144.5,-56.5 1144.5,-75.5 1251.5,-75.5 1251.5,-56.5 1144.5,-56.5"/>
<text text-anchor="middle" x="1198" y="-63.5" font-family="Helvetica,sans-Serif" font-size="10.00">GlobalEnvironment.h</text>
</a>
</g>
</g>
<!-- Node4&#45;&gt;Node17 -->
<g id="edge16" class="edge"><title>Node4&#45;&gt;Node17</title>
<path fill="none" stroke="midnightblue" d="M1005.29,-112.444C1044.98,-103.083 1108.71,-88.0561 1151.91,-77.868"/>
<polygon fill="midnightblue" stroke="midnightblue" points="1152.95,-81.2182 1161.88,-75.5164 1151.35,-74.4051 1152.95,-81.2182"/>
</g>
<!-- Node18 -->
<g id="node18" class="node"><title>Node18</title>
<g id="a_node18"><a xlink:href="_zeroed_memory_allocator_8h.html" target="_top" xlink:title="ZeroedMemoryAllocator.h">
<polygon fill="white" stroke="black" points="159,-56.5 159,-75.5 287,-75.5 287,-56.5 159,-56.5"/>
<text text-anchor="middle" x="223" y="-63.5" font-family="Helvetica,sans-Serif" font-size="10.00">ZeroedMemoryAllocator.h</text>
</a>
</g>
</g>
<!-- Node4&#45;&gt;Node18 -->
<g id="edge18" class="edge"><title>Node4&#45;&gt;Node18</title>
<path fill="none" stroke="midnightblue" d="M917.786,-117.087C896.241,-115.468 870.905,-113.599 848,-112 606.095,-95.1157 542.5,-98.941 297.371,-76.0771"/>
<polygon fill="midnightblue" stroke="midnightblue" points="297.355,-72.5603 287.071,-75.1108 296.701,-79.5297 297.355,-72.5603"/>
</g>
<!-- Node19 -->
<g id="node19" class="node"><title>Node19</title>
<g id="a_node19"><a xlink:href="_bit_flags_8h.html" target="_top" xlink:title="BitFlags.h">
<polygon fill="white" stroke="black" points="1269.5,-56.5 1269.5,-75.5 1330.5,-75.5 1330.5,-56.5 1269.5,-56.5"/>
<text text-anchor="middle" x="1300" y="-63.5" font-family="Helvetica,sans-Serif" font-size="10.00">BitFlags.h</text>
</a>
</g>
</g>
<!-- Node4&#45;&gt;Node19 -->
<g id="edge19" class="edge"><title>Node4&#45;&gt;Node19</title>
<path fill="none" stroke="midnightblue" d="M1020.17,-114.159C1076.38,-106.404 1169.54,-92.8506 1259.63,-75.9537"/>
<polygon fill="midnightblue" stroke="midnightblue" points="1260.29,-79.3911 1269.47,-74.0935 1258.99,-72.5131 1260.29,-79.3911"/>
</g>
<!-- Node21 -->
<g id="node21" class="node"><title>Node21</title>
<polygon fill="white" stroke="#bfbfbf" points="305.5,-56.5 305.5,-75.5 414.5,-75.5 414.5,-56.5 305.5,-56.5"/>
<text text-anchor="middle" x="360" y="-63.5" font-family="Helvetica,sans-Serif" font-size="10.00">MyGUI_Prerequest.h</text>
</g>
<!-- Node4&#45;&gt;Node21 -->
<g id="edge21" class="edge"><title>Node4&#45;&gt;Node21</title>
<path fill="none" stroke="midnightblue" d="M917.812,-117.174C804.758,-108.663 535.633,-88.0457 424.828,-76.13"/>
<polygon fill="midnightblue" stroke="midnightblue" points="424.933,-72.6205 414.61,-75.0048 424.167,-79.5784 424.933,-72.6205"/>
</g>
<!-- Node17&#45;&gt;Node16 -->
<g id="edge17" class="edge"><title>Node17&#45;&gt;Node16</title>
<path fill="none" stroke="midnightblue" d="M1144.41,-57.171C1141.23,-56.7601 1138.07,-56.3663 1135,-56 992.165,-38.9689 824.3,-24.1416 732.841,-16.4997"/>
<polygon fill="midnightblue" stroke="midnightblue" points="732.868,-12.99 722.612,-15.6485 732.288,-19.9659 732.868,-12.99"/>
</g>
<!-- Node20 -->
<g id="node20" class="node"><title>Node20</title>
<polygon fill="white" stroke="#bfbfbf" points="1277,-0.5 1277,-19.5 1323,-19.5 1323,-0.5 1277,-0.5"/>
<text text-anchor="middle" x="1300" y="-7.5" font-family="Helvetica,sans-Serif" font-size="10.00">cstdint</text>
</g>
<!-- Node19&#45;&gt;Node20 -->
<g id="edge20" class="edge"><title>Node19&#45;&gt;Node20</title>
<path fill="none" stroke="midnightblue" d="M1300,-56.083C1300,-49.0059 1300,-38.8611 1300,-29.9865"/>
<polygon fill="midnightblue" stroke="midnightblue" points="1303.5,-29.751 1300,-19.7511 1296.5,-29.7511 1303.5,-29.751"/>
</g>
<!-- Node22&#45;&gt;Node4 -->
<g id="edge23" class="edge"><title>Node22&#45;&gt;Node4</title>
<path fill="none" stroke="midnightblue" d="M1266.56,-455.6C1120.04,-449.194 556,-419.807 556,-347 556,-347 556,-347 556,-233 556,-202.902 551.981,-187.391 575,-168 599.906,-147.02 803.205,-132.471 907.607,-126.307"/>
<polygon fill="midnightblue" stroke="midnightblue" points="907.918,-129.795 917.697,-125.72 907.51,-122.807 907.918,-129.795"/>
</g>
<!-- Node22&#45;&gt;Node5 -->
<g id="edge56" class="edge"><title>Node22&#45;&gt;Node5</title>
<path fill="none" stroke="midnightblue" d="M1267,-456.698C1149.75,-455.341 763.015,-448.163 645,-412 395.688,-335.605 138.938,-138.037 69.3233,-82.0111"/>
<polygon fill="midnightblue" stroke="midnightblue" points="71.4068,-79.1946 61.4333,-75.6198 67.0007,-84.634 71.4068,-79.1946"/>
</g>
<!-- Node22&#45;&gt;Node10 -->
<g id="edge61" class="edge"><title>Node22&#45;&gt;Node10</title>
<path fill="none" stroke="midnightblue" d="M1323.81,-448.354C1340.25,-441.02 1361.79,-428.967 1375,-412 1393.57,-388.149 1395,-377.225 1395,-347 1395,-347 1395,-347 1395,-177 1395,-144.948 1395,-107.643 1395,-85.7489"/>
<polygon fill="midnightblue" stroke="midnightblue" points="1398.5,-85.5577 1395,-75.5578 1391.5,-85.5578 1398.5,-85.5577"/>
</g>
<!-- Node22&#45;&gt;Node11 -->
<g id="edge57" class="edge"><title>Node22&#45;&gt;Node11</title>
<path fill="none" stroke="midnightblue" d="M1330.3,-448.357C1350.61,-441.205 1377.27,-429.375 1396,-412 1420.37,-389.394 1433,-380.241 1433,-347 1433,-347 1433,-347 1433,-177 1433,-139.622 1460.5,-103.237 1478.87,-83.1037"/>
<polygon fill="midnightblue" stroke="midnightblue" points="1481.51,-85.4116 1485.85,-75.7474 1476.43,-80.5945 1481.51,-85.4116"/>
</g>
<!-- Node22&#45;&gt;Node15 -->
<g id="edge59" class="edge"><title>Node22&#45;&gt;Node15</title>
<path fill="none" stroke="midnightblue" d="M1335.23,-449.492C1360.65,-442.713 1395.23,-430.857 1421,-412 1497.63,-355.918 1501.34,-323.676 1553,-244 1573.77,-211.972 1569.51,-198.085 1593,-168 1620.55,-132.721 1661.38,-99.731 1685.68,-81.5651"/>
<polygon fill="midnightblue" stroke="midnightblue" points="1687.85,-84.3135 1693.83,-75.5664 1683.7,-78.6762 1687.85,-84.3135"/>
</g>
<!-- Node23 -->
<g id="node23" class="node"><title>Node23</title>
<g id="a_node23"><a xlink:href="_beam_data_8h.html" target="_top" xlink:title="Core data structures for simulation. ">
<polygon fill="white" stroke="black" points="914.5,-392.5 914.5,-411.5 985.5,-411.5 985.5,-392.5 914.5,-392.5"/>
<text text-anchor="middle" x="950" y="-399.5" font-family="Helvetica,sans-Serif" font-size="10.00">BeamData.h</text>
</a>
</g>
</g>
<!-- Node22&#45;&gt;Node23 -->
<g id="edge24" class="edge"><title>Node22&#45;&gt;Node23</title>
<path fill="none" stroke="midnightblue" d="M1266.71,-451.724C1203.16,-441.948 1067.1,-421.016 995.777,-410.043"/>
<polygon fill="midnightblue" stroke="midnightblue" points="996.155,-406.56 985.74,-408.498 995.091,-413.478 996.155,-406.56"/>
</g>
<!-- Node38 -->
<g id="node38" class="node"><title>Node38</title>
<polygon fill="white" stroke="#bfbfbf" points="1119.5,-392.5 1119.5,-411.5 1190.5,-411.5 1190.5,-392.5 1119.5,-392.5"/>
<text text-anchor="middle" x="1155" y="-399.5" font-family="Helvetica,sans-Serif" font-size="10.00">OgreEntity.h</text>
</g>
<!-- Node22&#45;&gt;Node38 -->
<g id="edge58" class="edge"><title>Node22&#45;&gt;Node38</title>
<path fill="none" stroke="midnightblue" d="M1277.87,-448.444C1253.52,-439.438 1214.99,-425.189 1187.58,-415.049"/>
<polygon fill="midnightblue" stroke="midnightblue" points="1188.62,-411.703 1178.03,-411.516 1186.19,-418.268 1188.62,-411.703"/>
</g>
<!-- Node39 -->
<g id="node39" class="node"><title>Node39</title>
<polygon fill="white" stroke="#bfbfbf" points="1208.5,-392.5 1208.5,-411.5 1305.5,-411.5 1305.5,-392.5 1208.5,-392.5"/>
<text text-anchor="middle" x="1257" y="-399.5" font-family="Helvetica,sans-Serif" font-size="10.00">OgreSceneNode.h</text>
</g>
<!-- Node22&#45;&gt;Node39 -->
<g id="edge60" class="edge"><title>Node22&#45;&gt;Node39</title>
<path fill="none" stroke="midnightblue" d="M1293.73,-448.083C1287.46,-440.377 1278.21,-429.033 1270.57,-419.653"/>
<polygon fill="midnightblue" stroke="midnightblue" points="1273.16,-417.293 1264.13,-411.751 1267.73,-421.714 1273.16,-417.293"/>
</g>
<!-- Node40 -->
<g id="node40" class="node"><title>Node40</title>
<polygon fill="white" stroke="#bfbfbf" points="1323,-392.5 1323,-411.5 1367,-411.5 1367,-392.5 1323,-392.5"/>
<text text-anchor="middle" x="1345" y="-399.5" font-family="Helvetica,sans-Serif" font-size="10.00">mutex</text>
</g>
<!-- Node22&#45;&gt;Node40 -->
<g id="edge62" class="edge"><title>Node22&#45;&gt;Node40</title>
<path fill="none" stroke="midnightblue" d="M1308.27,-448.083C1314.54,-440.377 1323.79,-429.033 1331.43,-419.653"/>
<polygon fill="midnightblue" stroke="midnightblue" points="1334.27,-421.714 1337.87,-411.751 1328.84,-417.293 1334.27,-421.714"/>
</g>
<!-- Node23&#45;&gt;Node4 -->
<g id="edge25" class="edge"><title>Node23&#45;&gt;Node4</title>
<path fill="none" stroke="midnightblue" d="M963.279,-392.384C975.023,-384.202 991.961,-370.956 1003,-356 1019.08,-334.214 1020.61,-326.314 1027,-300 1040.9,-242.713 1044.31,-218.56 1014,-168 1007.3,-156.827 997.228,-146.4 988.309,-138.403"/>
<polygon fill="midnightblue" stroke="midnightblue" points="990.447,-135.626 980.572,-131.789 985.899,-140.947 990.447,-135.626"/>
</g>
<!-- Node24 -->
<g id="node24" class="node"><title>Node24</title>
<g id="a_node24"><a xlink:href="_ro_rnet_8h.html" target="_top" xlink:title="RoRnet.h">
<polygon fill="white" stroke="black" points="1203.5,-336.5 1203.5,-355.5 1262.5,-355.5 1262.5,-336.5 1203.5,-336.5"/>
<text text-anchor="middle" x="1233" y="-343.5" font-family="Helvetica,sans-Serif" font-size="10.00">RoRnet.h</text>
</a>
</g>
</g>
<!-- Node23&#45;&gt;Node24 -->
<g id="edge26" class="edge"><title>Node23&#45;&gt;Node24</title>
<path fill="none" stroke="midnightblue" d="M985.666,-394.465C1032.41,-385.859 1116.91,-370.159 1189,-356 1190.43,-355.718 1191.89,-355.429 1193.37,-355.136"/>
<polygon fill="midnightblue" stroke="midnightblue" points="1194.08,-358.564 1203.19,-353.163 1192.7,-351.702 1194.08,-358.564"/>
</g>
<!-- Node26 -->
<g id="node26" class="node"><title>Node26</title>
<g id="a_node26"><a xlink:href="_slide_node_8h.html" target="_top" xlink:title="SlideNode.h">
<polygon fill="white" stroke="black" points="1140,-224.5 1140,-243.5 1210,-243.5 1210,-224.5 1140,-224.5"/>
<text text-anchor="middle" x="1175" y="-231.5" font-family="Helvetica,sans-Serif" font-size="10.00">SlideNode.h</text>
</a>
</g>
</g>
<!-- Node23&#45;&gt;Node26 -->
<g id="edge29" class="edge"><title>Node23&#45;&gt;Node26</title>
<path fill="none" stroke="midnightblue" d="M985.763,-397.923C1038.19,-392.649 1132.17,-380.051 1155,-356 1181.17,-328.421 1180.56,-280.441 1177.8,-253.941"/>
<polygon fill="midnightblue" stroke="midnightblue" points="1181.24,-253.207 1176.51,-243.724 1174.29,-254.083 1181.24,-253.207"/>
</g>
<!-- Node28 -->
<g id="node28" class="node"><title>Node28</title>
<g id="a_node28"><a xlink:href="_beam_constants_8h.html" target="_top" xlink:title="BeamConstants.h">
<polygon fill="white" stroke="black" points="1051.5,-336.5 1051.5,-355.5 1146.5,-355.5 1146.5,-336.5 1051.5,-336.5"/>
<text text-anchor="middle" x="1099" y="-343.5" font-family="Helvetica,sans-Serif" font-size="10.00">BeamConstants.h</text>
</a>
</g>
</g>
<!-- Node23&#45;&gt;Node28 -->
<g id="edge34" class="edge"><title>Node23&#45;&gt;Node28</title>
<path fill="none" stroke="midnightblue" d="M973.609,-392.444C998.458,-383.438 1037.77,-369.189 1065.75,-359.049"/>
<polygon fill="midnightblue" stroke="midnightblue" points="1067.29,-362.214 1075.5,-355.516 1064.91,-355.633 1067.29,-362.214"/>
</g>
<!-- Node29 -->
<g id="node29" class="node"><title>Node29</title>
<g id="a_node29"><a xlink:href="node__t_8h.html" target="_top" xlink:title="datatypes/node_t.h">
<polygon fill="white" stroke="black" points="584,-168.5 584,-187.5 684,-187.5 684,-168.5 584,-168.5"/>
<text text-anchor="middle" x="634" y="-175.5" font-family="Helvetica,sans-Serif" font-size="10.00">datatypes/node_t.h</text>
</a>
</g>
</g>
<!-- Node23&#45;&gt;Node29 -->
<g id="edge35" class="edge"><title>Node23&#45;&gt;Node29</title>
<path fill="none" stroke="midnightblue" d="M914.38,-400.311C872.969,-397.904 804.161,-388.781 756,-356 695.626,-314.907 656.267,-233.216 641.072,-197.003"/>
<polygon fill="midnightblue" stroke="midnightblue" points="644.293,-195.634 637.281,-187.692 637.81,-198.273 644.293,-195.634"/>
</g>
<!-- Node30 -->
<g id="node30" class="node"><title>Node30</title>
<g id="a_node30"><a xlink:href="shock__t_8h.html" target="_top" xlink:title="datatypes/shock_t.h">
<polygon fill="white" stroke="black" points="782.5,-336.5 782.5,-355.5 887.5,-355.5 887.5,-336.5 782.5,-336.5"/>
<text text-anchor="middle" x="835" y="-343.5" font-family="Helvetica,sans-Serif" font-size="10.00">datatypes/shock_t.h</text>
</a>
</g>
</g>
<!-- Node23&#45;&gt;Node30 -->
<g id="edge38" class="edge"><title>Node23&#45;&gt;Node30</title>
<path fill="none" stroke="midnightblue" d="M931.778,-392.444C913.104,-383.675 883.844,-369.935 862.383,-359.858"/>
<polygon fill="midnightblue" stroke="midnightblue" points="863.676,-356.599 853.137,-355.516 860.701,-362.935 863.676,-356.599"/>
</g>
<!-- Node31 -->
<g id="node31" class="node"><title>Node31</title>
<g id="a_node31"><a xlink:href="beam__t_8h.html" target="_top" xlink:title="datatypes/beam_t.h">
<polygon fill="white" stroke="black" points="702.5,-168.5 702.5,-187.5 805.5,-187.5 805.5,-168.5 702.5,-168.5"/>
<text text-anchor="middle" x="754" y="-175.5" font-family="Helvetica,sans-Serif" font-size="10.00">datatypes/beam_t.h</text>
</a>
</g>
</g>
<!-- Node23&#45;&gt;Node31 -->
<g id="edge39" class="edge"><title>Node23&#45;&gt;Node31</title>
<path fill="none" stroke="midnightblue" d="M914.303,-396.739C868.085,-390.444 791.28,-377.08 773,-356 733.901,-310.912 742.976,-233.136 749.796,-197.639"/>
<polygon fill="midnightblue" stroke="midnightblue" points="753.255,-198.198 751.868,-187.695 746.402,-196.771 753.255,-198.198"/>
</g>
<!-- Node32 -->
<g id="node32" class="node"><title>Node32</title>
<g id="a_node32"><a xlink:href="wheel__t_8h.html" target="_top" xlink:title="datatypes/wheel_t.h">
<polygon fill="white" stroke="black" points="386,-168.5 386,-187.5 490,-187.5 490,-168.5 386,-168.5"/>
<text text-anchor="middle" x="438" y="-175.5" font-family="Helvetica,sans-Serif" font-size="10.00">datatypes/wheel_t.h</text>
</a>
</g>
</g>
<!-- Node23&#45;&gt;Node32 -->
<g id="edge42" class="edge"><title>Node23&#45;&gt;Node32</title>
<path fill="none" stroke="midnightblue" d="M914.294,-397.421C869.894,-392.137 792.347,-380.148 730,-356 639.306,-320.873 625.02,-294.665 542,-244 513.502,-226.609 480.899,-206.137 459.91,-192.883"/>
<polygon fill="midnightblue" stroke="midnightblue" points="461.729,-189.892 451.406,-187.506 457.988,-195.808 461.729,-189.892"/>
</g>
<!-- Node33 -->
<g id="node33" class="node"><title>Node33</title>
<g id="a_node33"><a xlink:href="rig__t_8h.html" target="_top" xlink:title="datatypes/rig_t.h">
<polygon fill="white" stroke="black" points="905.5,-336.5 905.5,-355.5 994.5,-355.5 994.5,-336.5 905.5,-336.5"/>
<text text-anchor="middle" x="950" y="-343.5" font-family="Helvetica,sans-Serif" font-size="10.00">datatypes/rig_t.h</text>
</a>
</g>
</g>
<!-- Node23&#45;&gt;Node33 -->
<g id="edge45" class="edge"><title>Node23&#45;&gt;Node33</title>
<path fill="none" stroke="midnightblue" d="M944.834,-392.083C943.324,-384.927 942.894,-374.635 943.542,-365.691"/>
<polygon fill="midnightblue" stroke="midnightblue" points="947.015,-366.126 944.869,-355.751 940.077,-365.2 947.015,-366.126"/>
</g>
<!-- Node24&#45;&gt;Node19 -->
<g id="edge27" class="edge"><title>Node24&#45;&gt;Node19</title>
<path fill="none" stroke="midnightblue" d="M1239.67,-336.435C1252.86,-318.623 1281,-275.839 1281,-235 1281,-235 1281,-235 1281,-177 1281,-144.489 1289.16,-107.35 1294.78,-85.6103"/>
<polygon fill="midnightblue" stroke="midnightblue" points="1298.22,-86.3175 1297.44,-75.7514 1291.46,-84.498 1298.22,-86.3175"/>
</g>
<!-- Node25 -->
<g id="node25" class="node"><title>Node25</title>
<polygon fill="white" stroke="#bfbfbf" points="1203.5,-280.5 1203.5,-299.5 1252.5,-299.5 1252.5,-280.5 1203.5,-280.5"/>
<text text-anchor="middle" x="1228" y="-287.5" font-family="Helvetica,sans-Serif" font-size="10.00">stdint.h</text>
</g>
<!-- Node24&#45;&gt;Node25 -->
<g id="edge28" class="edge"><title>Node24&#45;&gt;Node25</title>
<path fill="none" stroke="midnightblue" d="M1232.17,-336.083C1231.52,-329.006 1230.58,-318.861 1229.76,-309.986"/>
<polygon fill="midnightblue" stroke="midnightblue" points="1233.22,-309.386 1228.81,-299.751 1226.25,-310.031 1233.22,-309.386"/>
</g>
<!-- Node26&#45;&gt;Node4 -->
<g id="edge32" class="edge"><title>Node26&#45;&gt;Node4</title>
<path fill="none" stroke="midnightblue" d="M1164.64,-224.288C1148.32,-210.869 1115.24,-184.928 1084,-168 1059.04,-154.475 1029.14,-142.903 1006.08,-134.881"/>
<polygon fill="midnightblue" stroke="midnightblue" points="1006.93,-131.472 996.332,-131.559 1004.67,-138.098 1006.93,-131.472"/>
</g>
<!-- Node26&#45;&gt;Node15 -->
<g id="edge33" class="edge"><title>Node26&#45;&gt;Node15</title>
<path fill="none" stroke="midnightblue" d="M1201.98,-224.415C1264.62,-204.5 1424.83,-153.675 1559,-112 1595.94,-100.527 1638.16,-87.6236 1667.85,-78.5854"/>
<polygon fill="midnightblue" stroke="midnightblue" points="1669.25,-81.8176 1677.8,-75.5584 1667.21,-75.1207 1669.25,-81.8176"/>
</g>
<!-- Node27 -->
<g id="node27" class="node"><title>Node27</title>
<g id="a_node27"><a xlink:href="_approx_math_8h.html" target="_top" xlink:title="ApproxMath.h">
<polygon fill="white" stroke="black" points="1136.5,-168.5 1136.5,-187.5 1213.5,-187.5 1213.5,-168.5 1136.5,-168.5"/>
<text text-anchor="middle" x="1175" y="-175.5" font-family="Helvetica,sans-Serif" font-size="10.00">ApproxMath.h</text>
</a>
</g>
</g>
<!-- Node26&#45;&gt;Node27 -->
<g id="edge30" class="edge"><title>Node26&#45;&gt;Node27</title>
<path fill="none" stroke="midnightblue" d="M1175,-224.083C1175,-217.006 1175,-206.861 1175,-197.986"/>
<polygon fill="midnightblue" stroke="midnightblue" points="1178.5,-197.751 1175,-187.751 1171.5,-197.751 1178.5,-197.751"/>
</g>
<!-- Node27&#45;&gt;Node4 -->
<g id="edge31" class="edge"><title>Node27&#45;&gt;Node4</title>
<path fill="none" stroke="midnightblue" d="M1142.36,-168.444C1106.95,-159.162 1050.29,-144.309 1011.45,-134.127"/>
<polygon fill="midnightblue" stroke="midnightblue" points="1012.05,-130.667 1001.49,-131.516 1010.27,-137.438 1012.05,-130.667"/>
</g>
<!-- Node29&#45;&gt;Node4 -->
<g id="edge37" class="edge"><title>Node29&#45;&gt;Node4</title>
<path fill="none" stroke="midnightblue" d="M684.153,-168.916C743.927,-159.28 843.768,-143.187 907.968,-132.838"/>
<polygon fill="midnightblue" stroke="midnightblue" points="908.639,-136.275 917.954,-131.228 907.525,-129.364 908.639,-136.275"/>
</g>
<!-- Node29&#45;&gt;Node5 -->
<g id="edge36" class="edge"><title>Node29&#45;&gt;Node5</title>
<path fill="none" stroke="midnightblue" d="M607.976,-168.454C565.087,-154.67 476.66,-127.507 400,-112 346.488,-101.175 197.576,-83.5303 112.561,-73.8651"/>
<polygon fill="midnightblue" stroke="midnightblue" points="112.852,-70.3757 102.521,-72.727 112.063,-77.3312 112.852,-70.3757"/>
</g>
<!-- Node31&#45;&gt;Node4 -->
<g id="edge41" class="edge"><title>Node31&#45;&gt;Node4</title>
<path fill="none" stroke="midnightblue" d="M788.067,-168.444C825.18,-159.122 884.661,-144.183 925.215,-133.997"/>
<polygon fill="midnightblue" stroke="midnightblue" points="926.246,-137.347 935.092,-131.516 924.541,-130.558 926.246,-137.347"/>
</g>
<!-- Node31&#45;&gt;Node5 -->
<g id="edge40" class="edge"><title>Node31&#45;&gt;Node5</title>
<path fill="none" stroke="midnightblue" d="M719.908,-168.457C664.334,-154.798 550.608,-127.96 453,-112 389.139,-101.558 208.902,-82.8304 112.932,-73.1573"/>
<polygon fill="midnightblue" stroke="midnightblue" points="113.087,-69.6553 102.787,-72.1369 112.387,-76.6202 113.087,-69.6553"/>
</g>
<!-- Node32&#45;&gt;Node4 -->
<g id="edge43" class="edge"><title>Node32&#45;&gt;Node4</title>
<path fill="none" stroke="midnightblue" d="M490.215,-169.688C494.874,-169.094 499.52,-168.522 504,-168 648.331,-151.182 818.387,-135.864 907.474,-128.184"/>
<polygon fill="midnightblue" stroke="midnightblue" points="908.005,-131.651 917.668,-127.308 907.405,-124.677 908.005,-131.651"/>
</g>
<!-- Node32&#45;&gt;Node5 -->
<g id="edge44" class="edge"><title>Node32&#45;&gt;Node5</title>
<path fill="none" stroke="midnightblue" d="M431.911,-168.048C421.51,-153.554 398.823,-125.24 372,-112 349.247,-100.769 199.223,-83.0269 112.554,-73.5229"/>
<polygon fill="midnightblue" stroke="midnightblue" points="112.889,-70.0388 102.569,-72.4336 112.13,-76.9975 112.889,-70.0388"/>
</g>
<!-- Node33&#45;&gt;Node4 -->
<g id="edge52" class="edge"><title>Node33&#45;&gt;Node4</title>
<path fill="none" stroke="midnightblue" d="M968.984,-336.398C982.886,-328.954 1000.71,-316.741 1009,-300 1035.85,-245.754 999.869,-173.238 980.243,-140.428"/>
<polygon fill="midnightblue" stroke="midnightblue" points="983.006,-138.242 974.764,-131.584 977.055,-141.928 983.006,-138.242"/>
</g>
<!-- Node33&#45;&gt;Node5 -->
<g id="edge55" class="edge"><title>Node33&#45;&gt;Node5</title>
<path fill="none" stroke="midnightblue" d="M917.261,-336.441C897.084,-329.621 872.084,-318.142 856,-300 835.768,-277.179 834,-265.499 834,-235 834,-235 834,-235 834,-177 834,-109.997 180.292,-79.7316 142,-76 132.618,-75.0857 122.693,-74.1114 112.982,-73.1541"/>
<polygon fill="midnightblue" stroke="midnightblue" points="113.265,-69.6652 102.97,-72.1659 112.578,-76.6314 113.265,-69.6652"/>
</g>
<!-- Node33&#45;&gt;Node23 -->
<g id="edge53" class="edge"><title>Node33&#45;&gt;Node23</title>
<path fill="none" stroke="midnightblue" d="M955.131,-355.751C956.657,-362.858 957.104,-373.136 956.472,-382.101"/>
<polygon fill="midnightblue" stroke="midnightblue" points="952.993,-381.713 955.166,-392.083 959.934,-382.622 952.993,-381.713"/>
</g>
<!-- Node34 -->
<g id="node34" class="node"><title>Node34</title>
<g id="a_node34"><a xlink:href="_application_8h.html" target="_top" xlink:title="Central state/object manager and communications hub. ">
<polygon fill="white" stroke="black" points="927.5,-280.5 927.5,-299.5 1000.5,-299.5 1000.5,-280.5 927.5,-280.5"/>
<text text-anchor="middle" x="964" y="-287.5" font-family="Helvetica,sans-Serif" font-size="10.00">Application.h</text>
</a>
</g>
</g>
<!-- Node33&#45;&gt;Node34 -->
<g id="edge46" class="edge"><title>Node33&#45;&gt;Node34</title>
<path fill="none" stroke="midnightblue" d="M952.312,-336.083C954.167,-328.927 956.835,-318.635 959.154,-309.691"/>
<polygon fill="midnightblue" stroke="midnightblue" points="962.609,-310.309 961.731,-299.751 955.834,-308.553 962.609,-310.309"/>
</g>
<!-- Node37 -->
<g id="node37" class="node"><title>Node37</title>
<polygon fill="white" stroke="#bfbfbf" points="865,-280.5 865,-299.5 909,-299.5 909,-280.5 865,-280.5"/>
<text text-anchor="middle" x="887" y="-287.5" font-family="Helvetica,sans-Serif" font-size="10.00">vector</text>
</g>
<!-- Node33&#45;&gt;Node37 -->
<g id="edge54" class="edge"><title>Node33&#45;&gt;Node37</title>
<path fill="none" stroke="midnightblue" d="M939.878,-336.324C930.474,-328.263 916.256,-316.077 904.931,-306.369"/>
<polygon fill="midnightblue" stroke="midnightblue" points="907.177,-303.684 897.306,-299.834 902.621,-308.999 907.177,-303.684"/>
</g>
<!-- Node34&#45;&gt;Node4 -->
<g id="edge47" class="edge"><title>Node34&#45;&gt;Node4</title>
<path fill="none" stroke="midnightblue" d="M966.482,-280.467C968.957,-271.485 972.585,-256.888 974,-244 977.963,-207.9 974.301,-165.428 971.5,-141.618"/>
<polygon fill="midnightblue" stroke="midnightblue" points="974.953,-141.023 970.232,-131.539 968.008,-141.897 974.953,-141.023"/>
</g>
<!-- Node35 -->
<g id="node35" class="node"><title>Node35</title>
<g id="a_node35"><a xlink:href="_settings_8h.html" target="_top" xlink:title="Settings.h">
<polygon fill="white" stroke="black" points="904.5,-224.5 904.5,-243.5 965.5,-243.5 965.5,-224.5 904.5,-224.5"/>
<text text-anchor="middle" x="935" y="-231.5" font-family="Helvetica,sans-Serif" font-size="10.00">Settings.h</text>
</a>
</g>
</g>
<!-- Node34&#45;&gt;Node35 -->
<g id="edge48" class="edge"><title>Node34&#45;&gt;Node35</title>
<path fill="none" stroke="midnightblue" d="M959.211,-280.083C955.242,-272.691 949.475,-261.953 944.565,-252.811"/>
<polygon fill="midnightblue" stroke="midnightblue" points="947.514,-250.905 939.7,-243.751 941.347,-254.217 947.514,-250.905"/>
</g>
<!-- Node35&#45;&gt;Node4 -->
<g id="edge49" class="edge"><title>Node35&#45;&gt;Node4</title>
<path fill="none" stroke="midnightblue" d="M937.668,-224.368C943.18,-206.537 955.927,-165.295 963.352,-141.272"/>
<polygon fill="midnightblue" stroke="midnightblue" points="966.735,-142.179 966.344,-131.591 960.047,-140.112 966.735,-142.179"/>
</g>
<!-- Node36 -->
<g id="node36" class="node"><title>Node36</title>
<g id="a_node36"><a xlink:href="_singleton_8h.html" target="_top" xlink:title="Singleton.h">
<polygon fill="white" stroke="black" points="862.5,-168.5 862.5,-187.5 927.5,-187.5 927.5,-168.5 862.5,-168.5"/>
<text text-anchor="middle" x="895" y="-175.5" font-family="Helvetica,sans-Serif" font-size="10.00">Singleton.h</text>
</a>
</g>
</g>
<!-- Node35&#45;&gt;Node36 -->
<g id="edge50" class="edge"><title>Node35&#45;&gt;Node36</title>
<path fill="none" stroke="midnightblue" d="M928.395,-224.083C922.745,-216.455 914.455,-205.264 907.549,-195.941"/>
<polygon fill="midnightblue" stroke="midnightblue" points="910.247,-193.703 901.482,-187.751 904.622,-197.87 910.247,-193.703"/>
</g>
<!-- Node36&#45;&gt;Node4 -->
<g id="edge51" class="edge"><title>Node36&#45;&gt;Node4</title>
<path fill="none" stroke="midnightblue" d="M906.889,-168.324C918.15,-160.107 935.287,-147.602 948.709,-137.807"/>
<polygon fill="midnightblue" stroke="midnightblue" points="950.88,-140.556 956.894,-131.834 946.753,-134.901 950.88,-140.556"/>
</g>
<!-- Node41&#45;&gt;Node4 -->
<g id="edge64" class="edge"><title>Node41&#45;&gt;Node4</title>
<path fill="none" stroke="midnightblue" d="M1468.52,-224.422C1415.64,-211.406 1311.29,-186.255 1222,-168 1156.64,-154.637 1081.32,-141.532 1029.97,-132.942"/>
<polygon fill="midnightblue" stroke="midnightblue" points="1030.47,-129.477 1020.03,-131.286 1029.32,-136.382 1030.47,-129.477"/>
</g>
<!-- Node42&#45;&gt;Node4 -->
<g id="edge66" class="edge"><title>Node42&#45;&gt;Node4</title>
<path fill="none" stroke="midnightblue" d="M1601.86,-173.331C1482.74,-163.857 1164.79,-138.571 1030.37,-127.88"/>
<polygon fill="midnightblue" stroke="midnightblue" points="1030.49,-124.379 1020.24,-127.075 1029.93,-131.357 1030.49,-124.379"/>
</g>
<!-- Node43 -->
<g id="node43" class="node"><title>Node43</title>
<g id="a_node43"><a xlink:href="_terrn2_fileformat_8h.html" target="_top" xlink:title="Terrn2Fileformat.h">
<polygon fill="white" stroke="black" points="1694,-112.5 1694,-131.5 1790,-131.5 1790,-112.5 1694,-112.5"/>
<text text-anchor="middle" x="1742" y="-119.5" font-family="Helvetica,sans-Serif" font-size="10.00">Terrn2Fileformat.h</text>
</a>
</g>
</g>
<!-- Node42&#45;&gt;Node43 -->
<g id="edge67" class="edge"><title>Node42&#45;&gt;Node43</title>
<path fill="none" stroke="midnightblue" d="M1663.1,-168.324C1677.9,-159.822 1700.69,-146.729 1717.98,-136.797"/>
<polygon fill="midnightblue" stroke="midnightblue" points="1720.01,-139.671 1726.93,-131.655 1716.52,-133.601 1720.01,-139.671"/>
</g>
<!-- Node43&#45;&gt;Node7 -->
<g id="edge70" class="edge"><title>Node43&#45;&gt;Node7</title>
<path fill="none" stroke="midnightblue" d="M1719.18,-112.444C1695.17,-103.438 1657.17,-89.1891 1630.13,-79.049"/>
<polygon fill="midnightblue" stroke="midnightblue" points="1631.3,-75.7506 1620.71,-75.5164 1628.84,-82.3049 1631.3,-75.7506"/>
</g>
<!-- Node43&#45;&gt;Node15 -->
<g id="edge72" class="edge"><title>Node43&#45;&gt;Node15</title>
<path fill="none" stroke="midnightblue" d="M1736.06,-112.083C1731.02,-104.534 1723.66,-93.4948 1717.49,-84.2298"/>
<polygon fill="midnightblue" stroke="midnightblue" points="1720.29,-82.1301 1711.83,-75.7511 1714.47,-86.0131 1720.29,-82.1301"/>
</g>
<!-- Node44 -->
<g id="node44" class="node"><title>Node44</title>
<polygon fill="white" stroke="#bfbfbf" points="1928.5,-56.5 1928.5,-75.5 1969.5,-75.5 1969.5,-56.5 1928.5,-56.5"/>
<text text-anchor="middle" x="1949" y="-63.5" font-family="Helvetica,sans-Serif" font-size="10.00">string</text>
</g>
<!-- Node43&#45;&gt;Node44 -->
<g id="edge68" class="edge"><title>Node43&#45;&gt;Node44</title>
<path fill="none" stroke="midnightblue" d="M1776.82,-112.449C1812.39,-103.632 1869.17,-89.3279 1918,-76 1918.21,-75.9428 1918.42,-75.8853 1918.63,-75.8275"/>
<polygon fill="midnightblue" stroke="midnightblue" points="1919.67,-79.1713 1928.35,-73.0959 1917.78,-72.4324 1919.67,-79.1713"/>
</g>
<!-- Node45 -->
<g id="node45" class="node"><title>Node45</title>
<polygon fill="white" stroke="#bfbfbf" points="1764.5,-56.5 1764.5,-75.5 1793.5,-75.5 1793.5,-56.5 1764.5,-56.5"/>
<text text-anchor="middle" x="1779" y="-63.5" font-family="Helvetica,sans-Serif" font-size="10.00">list</text>
</g>
<!-- Node43&#45;&gt;Node45 -->
<g id="edge69" class="edge"><title>Node43&#45;&gt;Node45</title>
<path fill="none" stroke="midnightblue" d="M1748.11,-112.083C1753.28,-104.534 1760.85,-93.4948 1767.19,-84.2298"/>
<polygon fill="midnightblue" stroke="midnightblue" points="1770.24,-85.9787 1773,-75.7511 1764.46,-82.0221 1770.24,-85.9787"/>
</g>
<!-- Node46 -->
<g id="node46" class="node"><title>Node46</title>
<polygon fill="white" stroke="#bfbfbf" points="1812,-56.5 1812,-75.5 1910,-75.5 1910,-56.5 1812,-56.5"/>
<text text-anchor="middle" x="1861" y="-63.5" font-family="Helvetica,sans-Serif" font-size="10.00">OgreDataStream.h</text>
</g>
<!-- Node43&#45;&gt;Node46 -->
<g id="edge71" class="edge"><title>Node43&#45;&gt;Node46</title>
<path fill="none" stroke="midnightblue" d="M1760.86,-112.444C1780.27,-103.636 1810.73,-89.8116 1832.96,-79.722"/>
<polygon fill="midnightblue" stroke="midnightblue" points="1834.57,-82.836 1842.23,-75.5164 1831.68,-76.4615 1834.57,-82.836"/>
</g>
</g>
</svg>
        <g id="navigator" transform="translate(0 0)" fill="#404254">
                <rect fill="#f2f5e9" fill-opacity="0.5" stroke="#606060" stroke-width=".5" x="0" y="0" width="60" height="60"/>
                <use id="zoomplus" xlink:href="#zoomPlus" x="17" y="9" onmousedown="handleZoom(evt,'in')"/>
                <use id="zoomminus" xlink:href="#zoomMin" x="42" y="9" onmousedown="handleZoom(evt,'out')"/>
                <use id="reset" xlink:href="#resetDef" x="30" y="36" onmousedown="handleReset()"/>
                <g id="arrowUp" xlink:href="#dirArrow" transform="translate(30 24)" onmousedown="handlePan(0,-1)">
                  <use xlink:href="#rim" fill="#404040">
                        <set attributeName="fill" to="#808080" begin="arrowUp.mouseover" end="arrowUp.mouseout"/>
                  </use>
                  <path fill="none" stroke="white" stroke-width="1.5" d="M0,-3.0v7 M-2.5,-0.5L0,-3.0L2.5,-0.5"/>
                </g>
                <g id="arrowRight" xlink:href="#dirArrow" transform="rotate(90) translate(36 -43)" onmousedown="handlePan(1,0)">
                  <use xlink:href="#rim" fill="#404040">
                        <set attributeName="fill" to="#808080" begin="arrowRight.mouseover" end="arrowRight.mouseout"/>
                  </use>
                  <path fill="none" stroke="white" stroke-width="1.5" d="M0,-3.0v7 M-2.5,-0.5L0,-3.0L2.5,-0.5"/>
                </g>
                <g id="arrowDown" xlink:href="#dirArrow" transform="rotate(180) translate(-30 -48)" onmousedown="handlePan(0,1)">
                  <use xlink:href="#rim" fill="#404040">
                        <set attributeName="fill" to="#808080" begin="arrowDown.mouseover" end="arrowDown.mouseout"/>
                  </use>
                  <path fill="none" stroke="white" stroke-width="1.5" d="M0,-3.0v7 M-2.5,-0.5L0,-3.0L2.5,-0.5"/>
                </g>
                <g id="arrowLeft" xlink:href="#dirArrow" transform="rotate(270) translate(-36 17)" onmousedown="handlePan(-1,0)">
                  <use xlink:href="#rim" fill="#404040">
                        <set attributeName="fill" to="#808080" begin="arrowLeft.mouseover" end="arrowLeft.mouseout"/>
                  </use>
                  <path fill="none" stroke="white" stroke-width="1.5" d="M0,-3.0v7 M-2.5,-0.5L0,-3.0L2.5,-0.5"/>
                </g>
        </g>
        <svg viewBox="0 0 15 15" width="100%" height="30px" preserveAspectRatio="xMaxYMin meet">
         <g id="arrow_out" transform="scale(0.3 0.3)">
          <a xlink:href="_road2_8cpp__incl_org.svg" target="_base">
           <rect id="button" ry="5" rx="5" y="6" x="6" height="38" width="38"
                fill="#f2f5e9" fill-opacity="0.5" stroke="#606060" stroke-width="1.0"/>
           <path id="arrow"
             d="M 11.500037,31.436501 C 11.940474,20.09759 22.043105,11.32322 32.158766,21.979434 L 37.068811,17.246167 C 37.068811,17.246167 37.088388,32 37.088388,32 L 22.160133,31.978069 C 22.160133,31.978069 26.997745,27.140456 26.997745,27.140456 C 18.528582,18.264221 13.291696,25.230495 11.500037,31.436501 z"
             style="fill:#404040;"/>
          </a>
         </g>
        </svg>
</svg>
