<?xml version="1.0" encoding="UTF-8" standalone="no"?>
<!DOCTYPE svg PUBLIC "-//W3C//DTD SVG 1.1//EN"
 "http://www.w3.org/Graphics/SVG/1.1/DTD/svg11.dtd">
<!-- Generated by graphviz version 2.36.0 (20140111.2315)
 -->
<!-- Title: source/main/physics/water/ScrewProp.h Pages: 1 -->
<svg width="975pt" height="108pt"
 viewBox="0.00 0.00 975.00 108.00" xmlns="http://www.w3.org/2000/svg" xmlns:xlink="http://www.w3.org/1999/xlink">
<g id="graph0" class="graph" transform="scale(1 1) rotate(0) translate(4 104)">
<title>source/main/physics/water/ScrewProp.h</title>
<polygon fill="white" stroke="none" points="-4,4 -4,-104 971,-104 971,4 -4,4"/>
<!-- Node1 -->
<g id="node1" class="node"><title>Node1</title>
<polygon fill="#bfbfbf" stroke="black" points="469.5,-69 469.5,-99 576.5,-99 576.5,-69 469.5,-69"/>
<text text-anchor="start" x="477.5" y="-87" font-family="Helvetica,sans-Serif" font-size="10.00">source/main/physics</text>
<text text-anchor="middle" x="523" y="-76" font-family="Helvetica,sans-Serif" font-size="10.00">/water/ScrewProp.h</text>
</g>
<!-- Node2 -->
<g id="node2" class="node"><title>Node2</title>
<g id="a_node2"><a xlink:href="_ro_r_frame_listener_8cpp.html" target="_top" xlink:title="source/main/gameplay\l/RoRFrameListener.cpp">
<polygon fill="white" stroke="black" points="-0.5,-1 -0.5,-31 120.5,-31 120.5,-1 -0.5,-1"/>
<text text-anchor="start" x="7.5" y="-19" font-family="Helvetica,sans-Serif" font-size="10.00">source/main/gameplay</text>
<text text-anchor="middle" x="60" y="-8" font-family="Helvetica,sans-Serif" font-size="10.00">/RoRFrameListener.cpp</text>
</a>
</g>
</g>
<!-- Node1&#45;&gt;Node2 -->
<g id="edge1" class="edge"><title>Node1&#45;&gt;Node2</title>
<path fill="none" stroke="midnightblue" d="M459.082,-76.4234C380.934,-67.9922 244.776,-52.0398 129,-32 126.222,-31.5191 123.386,-31.0035 120.525,-30.4634"/>
<polygon fill="midnightblue" stroke="midnightblue" points="458.934,-79.9275 469.25,-77.5132 459.68,-72.9673 458.934,-79.9275"/>
</g>
<!-- Node3 -->
<g id="node3" class="node"><title>Node3</title>
<g id="a_node3"><a xlink:href="_overlay_wrapper_8cpp.html" target="_top" xlink:title="source/main/gui/OverlayWrapper.cpp">
<polygon fill="white" stroke="black" points="138,-6.5 138,-25.5 316,-25.5 316,-6.5 138,-6.5"/>
<text text-anchor="middle" x="227" y="-13.5" font-family="Helvetica,sans-Serif" font-size="10.00">source/main/gui/OverlayWrapper.cpp</text>
</a>
</g>
</g>
<!-- Node1&#45;&gt;Node3 -->
<g id="edge2" class="edge"><title>Node1&#45;&gt;Node3</title>
<path fill="none" stroke="midnightblue" d="M459.425,-68.8246C400.339,-55.65 314.279,-36.4609 265.155,-25.5074"/>
<polygon fill="midnightblue" stroke="midnightblue" points="458.875,-72.2876 469.397,-71.0479 460.398,-65.4554 458.875,-72.2876"/>
</g>
<!-- Node4 -->
<g id="node4" class="node"><title>Node4</title>
<g id="a_node4"><a xlink:href="_g_u_i___sim_utils_8cpp.html" target="_top" xlink:title="source/main/gui/panels\l/GUI_SimUtils.cpp">
<polygon fill="white" stroke="black" points="334.5,-1 334.5,-31 451.5,-31 451.5,-1 334.5,-1"/>
<text text-anchor="start" x="342.5" y="-19" font-family="Helvetica,sans-Serif" font-size="10.00">source/main/gui/panels</text>
<text text-anchor="middle" x="393" y="-8" font-family="Helvetica,sans-Serif" font-size="10.00">/GUI_SimUtils.cpp</text>
</a>
</g>
</g>
<!-- Node1&#45;&gt;Node4 -->
<g id="edge3" class="edge"><title>Node1&#45;&gt;Node4</title>
<path fill="none" stroke="midnightblue" d="M485.963,-64.1968C465.249,-53.6802 439.853,-40.7868 420.842,-31.1352"/>
<polygon fill="midnightblue" stroke="midnightblue" points="484.611,-67.4352 495.112,-68.8413 487.78,-61.1935 484.611,-67.4352"/>
</g>
<!-- Node5 -->
<g id="node5" class="node"><title>Node5</title>
<g id="a_node5"><a xlink:href="_beam_8cpp.html" target="_top" xlink:title="source/main/physics\l/Beam.cpp">
<polygon fill="white" stroke="black" points="469.5,-1 469.5,-31 576.5,-31 576.5,-1 469.5,-1"/>
<text text-anchor="start" x="477.5" y="-19" font-family="Helvetica,sans-Serif" font-size="10.00">source/main/physics</text>
<text text-anchor="middle" x="523" y="-8" font-family="Helvetica,sans-Serif" font-size="10.00">/Beam.cpp</text>
</a>
</g>
</g>
<!-- Node1&#45;&gt;Node5 -->
<g id="edge4" class="edge"><title>Node1&#45;&gt;Node5</title>
<path fill="none" stroke="midnightblue" d="M523,-58.5322C523,-49.3606 523,-39.2449 523,-31.2931"/>
<polygon fill="midnightblue" stroke="midnightblue" points="519.5,-58.6789 523,-68.679 526.5,-58.679 519.5,-58.6789"/>
</g>
<!-- Node6 -->
<g id="node6" class="node"><title>Node6</title>
<g id="a_node6"><a xlink:href="_beam_forces_euler_8cpp.html" target="_top" xlink:title="source/main/physics\l/BeamForcesEuler.cpp">
<polygon fill="white" stroke="black" points="595,-1 595,-31 711,-31 711,-1 595,-1"/>
<text text-anchor="start" x="603" y="-19" font-family="Helvetica,sans-Serif" font-size="10.00">source/main/physics</text>
<text text-anchor="middle" x="653" y="-8" font-family="Helvetica,sans-Serif" font-size="10.00">/BeamForcesEuler.cpp</text>
</a>
</g>
</g>
<!-- Node1&#45;&gt;Node6 -->
<g id="edge5" class="edge"><title>Node1&#45;&gt;Node6</title>
<path fill="none" stroke="midnightblue" d="M560.037,-64.1968C580.751,-53.6802 606.147,-40.7868 625.158,-31.1352"/>
<polygon fill="midnightblue" stroke="midnightblue" points="558.22,-61.1935 550.888,-68.8413 561.389,-67.4352 558.22,-61.1935"/>
</g>
<!-- Node7 -->
<g id="node7" class="node"><title>Node7</title>
<g id="a_node7"><a xlink:href="_rig_spawner_8cpp.html" target="_top" xlink:title="Vehicle spawning logic. ">
<polygon fill="white" stroke="black" points="729.5,-1 729.5,-31 836.5,-31 836.5,-1 729.5,-1"/>
<text text-anchor="start" x="737.5" y="-19" font-family="Helvetica,sans-Serif" font-size="10.00">source/main/physics</text>
<text text-anchor="middle" x="783" y="-8" font-family="Helvetica,sans-Serif" font-size="10.00">/RigSpawner.cpp</text>
</a>
</g>
</g>
<!-- Node1&#45;&gt;Node7 -->
<g id="edge6" class="edge"><title>Node1&#45;&gt;Node7</title>
<path fill="none" stroke="midnightblue" d="M586.503,-66.88C630.193,-55.7895 687.595,-41.2181 729.066,-30.6909"/>
<polygon fill="midnightblue" stroke="midnightblue" points="585.388,-63.5519 576.557,-69.4048 587.111,-70.3367 585.388,-63.5519"/>
</g>
<!-- Node8 -->
<g id="node8" class="node"><title>Node8</title>
<g id="a_node8"><a xlink:href="_screw_prop_8cpp.html" target="_top" xlink:title="source/main/physics\l/water/ScrewProp.cpp">
<polygon fill="white" stroke="black" points="854.5,-1 854.5,-31 967.5,-31 967.5,-1 854.5,-1"/>
<text text-anchor="start" x="862.5" y="-19" font-family="Helvetica,sans-Serif" font-size="10.00">source/main/physics</text>
<text text-anchor="middle" x="911" y="-8" font-family="Helvetica,sans-Serif" font-size="10.00">/water/ScrewProp.cpp</text>
</a>
</g>
</g>
<!-- Node1&#45;&gt;Node8 -->
<g id="edge7" class="edge"><title>Node1&#45;&gt;Node8</title>
<path fill="none" stroke="midnightblue" d="M586.858,-74.162C651.984,-64.8494 755.843,-49.1724 845,-32 848,-31.4222 851.071,-30.807 854.169,-30.168"/>
<polygon fill="midnightblue" stroke="midnightblue" points="586.153,-70.7269 576.746,-75.6012 587.14,-77.657 586.153,-70.7269"/>
</g>
</g>
</svg>
