<?xml version="1.0" encoding="UTF-8" standalone="no"?>
<!DOCTYPE svg PUBLIC "-//W3C//DTD SVG 1.1//EN"
 "http://www.w3.org/Graphics/SVG/1.1/DTD/svg11.dtd">
<!-- Generated by graphviz version 2.36.0 (20140111.2315)
 -->
<!-- Title: source/main/gameplay/ScriptEvents.h Pages: 1 -->
<!--zoomable 176 -->
<svg id="main" version="1.1" xmlns="http://www.w3.org/2000/svg" xmlns:xlink="http://www.w3.org/1999/xlink" xml:space="preserve" onload="init(evt)">
<style type="text/css"><![CDATA[
.edge:hover path { stroke: red; }
.edge:hover polygon { stroke: red; fill: red; }
]]></style>
<script type="text/javascript"><![CDATA[
var edges = document.getElementsByTagName('g');
if (edges && edges.length) {
  for (var i=0;i<edges.length;i++) {
    if (edges[i].id.substr(0,4)=='edge') {
      edges[i].setAttribute('class','edge');
    }
  }
}
]]></script>
        <defs>
                <circle id="rim" cx="0" cy="0" r="7"/>
                <circle id="rim2" cx="0" cy="0" r="3.5"/>
                <g id="zoomPlus">
                        <use xlink:href="#rim" fill="#404040">
                                <set attributeName="fill" to="#808080" begin="zoomplus.mouseover" end="zoomplus.mouseout"/>
                        </use>
                        <path d="M-4,0h8M0,-4v8" fill="none" stroke="white" stroke-width="1.5" pointer-events="none"/>
                </g>
                <g id="zoomMin">
                        <use xlink:href="#rim" fill="#404040">
                                <set attributeName="fill" to="#808080" begin="zoomminus.mouseover" end="zoomminus.mouseout"/>
                        </use>
                        <path d="M-4,0h8" fill="none" stroke="white" stroke-width="1.5" pointer-events="none"/>
                </g>
                <g id="dirArrow">
                        <path fill="none" stroke="white" stroke-width="1.5" d="M0,-3.0v7 M-2.5,-0.5L0,-3.0L2.5,-0.5"/>
                </g>
               <g id="resetDef">
                       <use xlink:href="#rim2" fill="#404040">
                               <set attributeName="fill" to="#808080" begin="reset.mouseover" end="reset.mouseout"/>
                       </use>
               </g>
        </defs>

<script type="text/javascript">
var viewWidth = 1339;
var viewHeight = 176;
var sectionId = 'dynsection-0';
</script>
<script xlink:href="svgpan.js"/>
<svg id="graph" class="graph">
<g id="viewport">
<title>source/main/gameplay/ScriptEvents.h</title>
<polygon fill="white" stroke="none" points="-4,4 -4,-172 1335,-172 1335,4 -4,4"/>
<!-- Node1 -->
<g id="node1" class="node"><title>Node1</title>
<polygon fill="#bfbfbf" stroke="black" points="550.5,-137 550.5,-167 665.5,-167 665.5,-137 550.5,-137"/>
<text text-anchor="start" x="558.5" y="-155" font-family="Helvetica,sans-Serif" font-size="10.00">source/main/gameplay</text>
<text text-anchor="middle" x="608" y="-144" font-family="Helvetica,sans-Serif" font-size="10.00">/ScriptEvents.h</text>
</g>
<!-- Node2 -->
<g id="node2" class="node"><title>Node2</title>
<g id="a_node2"><a xlink:href="_scripting_8h.html" target="_top" xlink:title="source/main/gameplay\l/Scripting.h">
<polygon fill="white" stroke="black" points="550.5,-69 550.5,-99 665.5,-99 665.5,-69 550.5,-69"/>
<text text-anchor="start" x="558.5" y="-87" font-family="Helvetica,sans-Serif" font-size="10.00">source/main/gameplay</text>
<text text-anchor="middle" x="608" y="-76" font-family="Helvetica,sans-Serif" font-size="10.00">/Scripting.h</text>
</a>
</g>
</g>
<!-- Node1&#45;&gt;Node2 -->
<g id="edge1" class="edge"><title>Node1&#45;&gt;Node2</title>
<path fill="none" stroke="midnightblue" d="M608,-126.532C608,-117.361 608,-107.245 608,-99.2931"/>
<polygon fill="midnightblue" stroke="midnightblue" points="604.5,-126.679 608,-136.679 611.5,-126.679 604.5,-126.679"/>
</g>
<!-- Node6 -->
<g id="node6" class="node"><title>Node6</title>
<g id="a_node6"><a xlink:href="_g_u_i___message_box_8cpp.html" target="_top" xlink:title="source/main/gui/panels\l/GUI_MessageBox.cpp">
<polygon fill="white" stroke="black" points="-0.5,-1 -0.5,-31 118.5,-31 118.5,-1 -0.5,-1"/>
<text text-anchor="start" x="7.5" y="-19" font-family="Helvetica,sans-Serif" font-size="10.00">source/main/gui/panels</text>
<text text-anchor="middle" x="59" y="-8" font-family="Helvetica,sans-Serif" font-size="10.00">/GUI_MessageBox.cpp</text>
</a>
</g>
</g>
<!-- Node1&#45;&gt;Node6 -->
<g id="edge12" class="edge"><title>Node1&#45;&gt;Node6</title>
<path fill="none" stroke="midnightblue" d="M540.649,-134.561C431.684,-107.965 218.647,-55.9667 116.418,-31.0145"/>
<polygon fill="midnightblue" stroke="midnightblue" points="539.999,-138.005 550.543,-136.976 541.658,-131.205 539.999,-138.005"/>
</g>
<!-- Node13 -->
<g id="node13" class="node"><title>Node13</title>
<g id="a_node13"><a xlink:href="_script_engine_8cpp.html" target="_top" xlink:title="source/main/scripting\l/ScriptEngine.cpp">
<polygon fill="white" stroke="black" points="684,-69 684,-99 794,-99 794,-69 684,-69"/>
<text text-anchor="start" x="692" y="-87" font-family="Helvetica,sans-Serif" font-size="10.00">source/main/scripting</text>
<text text-anchor="middle" x="739" y="-76" font-family="Helvetica,sans-Serif" font-size="10.00">/ScriptEngine.cpp</text>
</a>
</g>
</g>
<!-- Node1&#45;&gt;Node13 -->
<g id="edge13" class="edge"><title>Node1&#45;&gt;Node13</title>
<path fill="none" stroke="midnightblue" d="M645.04,-132.339C665.965,-121.796 691.7,-108.83 710.944,-99.1352"/>
<polygon fill="midnightblue" stroke="midnightblue" points="643.459,-129.216 636.103,-136.841 646.608,-135.468 643.459,-129.216"/>
</g>
<!-- Node3 -->
<g id="node3" class="node"><title>Node3</title>
<g id="a_node3"><a xlink:href="_beam_engine_8cpp.html" target="_top" xlink:title="source/main/gameplay\l/BeamEngine.cpp">
<polygon fill="white" stroke="black" points="136.5,-1 136.5,-31 251.5,-31 251.5,-1 136.5,-1"/>
<text text-anchor="start" x="144.5" y="-19" font-family="Helvetica,sans-Serif" font-size="10.00">source/main/gameplay</text>
<text text-anchor="middle" x="194" y="-8" font-family="Helvetica,sans-Serif" font-size="10.00">/BeamEngine.cpp</text>
</a>
</g>
</g>
<!-- Node2&#45;&gt;Node3 -->
<g id="edge2" class="edge"><title>Node2&#45;&gt;Node3</title>
<path fill="none" stroke="midnightblue" d="M540.346,-74.5703C470.231,-65.48 357.584,-49.8838 261,-32 257.953,-31.4357 254.833,-30.8314 251.688,-30.2009"/>
<polygon fill="midnightblue" stroke="midnightblue" points="540.01,-78.0558 550.375,-75.8638 540.905,-71.1133 540.01,-78.0558"/>
</g>
<!-- Node4 -->
<g id="node4" class="node"><title>Node4</title>
<g id="a_node4"><a xlink:href="_ro_r_frame_listener_8cpp.html" target="_top" xlink:title="source/main/gameplay\l/RoRFrameListener.cpp">
<polygon fill="white" stroke="black" points="269.5,-1 269.5,-31 390.5,-31 390.5,-1 269.5,-1"/>
<text text-anchor="start" x="277.5" y="-19" font-family="Helvetica,sans-Serif" font-size="10.00">source/main/gameplay</text>
<text text-anchor="middle" x="330" y="-8" font-family="Helvetica,sans-Serif" font-size="10.00">/RoRFrameListener.cpp</text>
</a>
</g>
</g>
<!-- Node2&#45;&gt;Node4 -->
<g id="edge3" class="edge"><title>Node2&#45;&gt;Node4</title>
<path fill="none" stroke="midnightblue" d="M540.487,-66.9716C494.345,-56.0171 433.763,-41.6344 389.446,-31.1131"/>
<polygon fill="midnightblue" stroke="midnightblue" points="539.86,-70.4201 550.398,-69.3248 541.477,-63.6094 539.86,-70.4201"/>
</g>
<!-- Node5 -->
<g id="node5" class="node"><title>Node5</title>
<g id="a_node5"><a xlink:href="_g_u_i___game_console_8cpp.html" target="_top" xlink:title="source/main/gui/panels\l/GUI_GameConsole.cpp">
<polygon fill="white" stroke="black" points="409,-1 409,-31 533,-31 533,-1 409,-1"/>
<text text-anchor="start" x="417" y="-19" font-family="Helvetica,sans-Serif" font-size="10.00">source/main/gui/panels</text>
<text text-anchor="middle" x="471" y="-8" font-family="Helvetica,sans-Serif" font-size="10.00">/GUI_GameConsole.cpp</text>
</a>
</g>
</g>
<!-- Node2&#45;&gt;Node5 -->
<g id="edge4" class="edge"><title>Node2&#45;&gt;Node5</title>
<path fill="none" stroke="midnightblue" d="M569.558,-64.4805C547.622,-53.9128 520.556,-40.8738 500.341,-31.1352"/>
<polygon fill="midnightblue" stroke="midnightblue" points="568.082,-67.6543 578.61,-68.8413 571.12,-61.348 568.082,-67.6543"/>
</g>
<!-- Node2&#45;&gt;Node6 -->
<g id="edge5" class="edge"><title>Node2&#45;&gt;Node6</title>
<path fill="none" stroke="midnightblue" d="M540.329,-78.1313C447.112,-70.8971 274.129,-55.5758 128,-32 124.974,-31.5119 121.882,-30.976 118.764,-30.4064"/>
<polygon fill="midnightblue" stroke="midnightblue" points="540.232,-81.6341 550.471,-78.9108 540.768,-74.6547 540.232,-81.6341"/>
</g>
<!-- Node7 -->
<g id="node7" class="node"><title>Node7</title>
<g id="a_node7"><a xlink:href="main_8cpp.html" target="_top" xlink:title="source/main/main.cpp">
<polygon fill="white" stroke="black" points="551.5,-6.5 551.5,-25.5 664.5,-25.5 664.5,-6.5 551.5,-6.5"/>
<text text-anchor="middle" x="608" y="-13.5" font-family="Helvetica,sans-Serif" font-size="10.00">source/main/main.cpp</text>
</a>
</g>
</g>
<!-- Node2&#45;&gt;Node7 -->
<g id="edge6" class="edge"><title>Node2&#45;&gt;Node7</title>
<path fill="none" stroke="midnightblue" d="M608,-58.3764C608,-46.9711 608,-34.1364 608,-25.8283"/>
<polygon fill="midnightblue" stroke="midnightblue" points="604.5,-58.6789 608,-68.679 611.5,-58.679 604.5,-58.6789"/>
</g>
<!-- Node8 -->
<g id="node8" class="node"><title>Node8</title>
<g id="a_node8"><a xlink:href="_main_menu_8cpp.html" target="_top" xlink:title="source/main/MainMenu.cpp">
<polygon fill="white" stroke="black" points="682.5,-6.5 682.5,-25.5 819.5,-25.5 819.5,-6.5 682.5,-6.5"/>
<text text-anchor="middle" x="751" y="-13.5" font-family="Helvetica,sans-Serif" font-size="10.00">source/main/MainMenu.cpp</text>
</a>
</g>
</g>
<!-- Node2&#45;&gt;Node8 -->
<g id="edge7" class="edge"><title>Node2&#45;&gt;Node8</title>
<path fill="none" stroke="midnightblue" d="M648.057,-64.5122C675.592,-51.8038 710.896,-35.5097 732.189,-25.6819"/>
<polygon fill="midnightblue" stroke="midnightblue" points="646.29,-61.4728 638.677,-68.8413 649.223,-67.8286 646.29,-61.4728"/>
</g>
<!-- Node9 -->
<g id="node9" class="node"><title>Node9</title>
<g id="a_node9"><a xlink:href="_turbo_prop_8cpp.html" target="_top" xlink:title="source/main/physics\l/air/TurboProp.cpp">
<polygon fill="white" stroke="black" points="837.5,-1 837.5,-31 944.5,-31 944.5,-1 837.5,-1"/>
<text text-anchor="start" x="845.5" y="-19" font-family="Helvetica,sans-Serif" font-size="10.00">source/main/physics</text>
<text text-anchor="middle" x="891" y="-8" font-family="Helvetica,sans-Serif" font-size="10.00">/air/TurboProp.cpp</text>
</a>
</g>
</g>
<!-- Node2&#45;&gt;Node9 -->
<g id="edge8" class="edge"><title>Node2&#45;&gt;Node9</title>
<path fill="none" stroke="midnightblue" d="M675.821,-67.3876C719.326,-57.3455 777.01,-43.9803 828,-32 831.065,-31.2799 834.213,-30.538 837.389,-29.7875"/>
<polygon fill="midnightblue" stroke="midnightblue" points="674.879,-64.0128 665.922,-69.6715 676.453,-70.8336 674.879,-64.0128"/>
</g>
<!-- Node10 -->
<g id="node10" class="node"><title>Node10</title>
<g id="a_node10"><a xlink:href="_beam_8cpp.html" target="_top" xlink:title="source/main/physics\l/Beam.cpp">
<polygon fill="white" stroke="black" points="962.5,-1 962.5,-31 1069.5,-31 1069.5,-1 962.5,-1"/>
<text text-anchor="start" x="970.5" y="-19" font-family="Helvetica,sans-Serif" font-size="10.00">source/main/physics</text>
<text text-anchor="middle" x="1016" y="-8" font-family="Helvetica,sans-Serif" font-size="10.00">/Beam.cpp</text>
</a>
</g>
</g>
<!-- Node2&#45;&gt;Node10 -->
<g id="edge9" class="edge"><title>Node2&#45;&gt;Node10</title>
<path fill="none" stroke="midnightblue" d="M675.543,-68.0157C799.416,-46.7591 833.565,-53.8891 953,-32 956.097,-31.4325 959.269,-30.8097 962.465,-30.1505"/>
<polygon fill="midnightblue" stroke="midnightblue" points="674.927,-64.5703 665.676,-69.7358 676.129,-71.4663 674.927,-64.5703"/>
</g>
<!-- Node11 -->
<g id="node11" class="node"><title>Node11</title>
<g id="a_node11"><a xlink:href="_collisions_8cpp.html" target="_top" xlink:title="source/main/physics\l/collision/Collisions.cpp">
<polygon fill="white" stroke="black" points="1087.5,-1 1087.5,-31 1206.5,-31 1206.5,-1 1087.5,-1"/>
<text text-anchor="start" x="1095.5" y="-19" font-family="Helvetica,sans-Serif" font-size="10.00">source/main/physics</text>
<text text-anchor="middle" x="1147" y="-8" font-family="Helvetica,sans-Serif" font-size="10.00">/collision/Collisions.cpp</text>
</a>
</g>
</g>
<!-- Node2&#45;&gt;Node11 -->
<g id="edge10" class="edge"><title>Node2&#45;&gt;Node11</title>
<path fill="none" stroke="midnightblue" d="M675.653,-68.0479C854.439,-40.9634 903.449,-58.6624 1078,-32 1081.03,-31.5372 1084.13,-31.0218 1087.25,-30.4684"/>
<polygon fill="midnightblue" stroke="midnightblue" points="675.002,-64.6069 665.652,-69.5889 676.068,-71.5252 675.002,-64.6069"/>
</g>
<!-- Node12 -->
<g id="node12" class="node"><title>Node12</title>
<g id="a_node12"><a xlink:href="_terrain_manager_8cpp.html" target="_top" xlink:title="source/main/terrain\l/TerrainManager.cpp">
<polygon fill="white" stroke="black" points="1225,-1 1225,-31 1331,-31 1331,-1 1225,-1"/>
<text text-anchor="start" x="1233" y="-19" font-family="Helvetica,sans-Serif" font-size="10.00">source/main/terrain</text>
<text text-anchor="middle" x="1278" y="-8" font-family="Helvetica,sans-Serif" font-size="10.00">/TerrainManager.cpp</text>
</a>
</g>
</g>
<!-- Node2&#45;&gt;Node12 -->
<g id="edge11" class="edge"><title>Node2&#45;&gt;Node12</title>
<path fill="none" stroke="midnightblue" d="M675.686,-68.0726C914.849,-34.55 980.425,-67.4898 1215,-32 1218.22,-31.5122 1221.53,-30.9425 1224.85,-30.3156"/>
<polygon fill="midnightblue" stroke="midnightblue" points="675.045,-64.6285 665.639,-69.5053 676.033,-71.5584 675.045,-64.6285"/>
</g>
</g>
</svg>
        <g id="navigator" transform="translate(0 0)" fill="#404254">
                <rect fill="#f2f5e9" fill-opacity="0.5" stroke="#606060" stroke-width=".5" x="0" y="0" width="60" height="60"/>
                <use id="zoomplus" xlink:href="#zoomPlus" x="17" y="9" onmousedown="handleZoom(evt,'in')"/>
                <use id="zoomminus" xlink:href="#zoomMin" x="42" y="9" onmousedown="handleZoom(evt,'out')"/>
                <use id="reset" xlink:href="#resetDef" x="30" y="36" onmousedown="handleReset()"/>
                <g id="arrowUp" xlink:href="#dirArrow" transform="translate(30 24)" onmousedown="handlePan(0,-1)">
                  <use xlink:href="#rim" fill="#404040">
                        <set attributeName="fill" to="#808080" begin="arrowUp.mouseover" end="arrowUp.mouseout"/>
                  </use>
                  <path fill="none" stroke="white" stroke-width="1.5" d="M0,-3.0v7 M-2.5,-0.5L0,-3.0L2.5,-0.5"/>
                </g>
                <g id="arrowRight" xlink:href="#dirArrow" transform="rotate(90) translate(36 -43)" onmousedown="handlePan(1,0)">
                  <use xlink:href="#rim" fill="#404040">
                        <set attributeName="fill" to="#808080" begin="arrowRight.mouseover" end="arrowRight.mouseout"/>
                  </use>
                  <path fill="none" stroke="white" stroke-width="1.5" d="M0,-3.0v7 M-2.5,-0.5L0,-3.0L2.5,-0.5"/>
                </g>
                <g id="arrowDown" xlink:href="#dirArrow" transform="rotate(180) translate(-30 -48)" onmousedown="handlePan(0,1)">
                  <use xlink:href="#rim" fill="#404040">
                        <set attributeName="fill" to="#808080" begin="arrowDown.mouseover" end="arrowDown.mouseout"/>
                  </use>
                  <path fill="none" stroke="white" stroke-width="1.5" d="M0,-3.0v7 M-2.5,-0.5L0,-3.0L2.5,-0.5"/>
                </g>
                <g id="arrowLeft" xlink:href="#dirArrow" transform="rotate(270) translate(-36 17)" onmousedown="handlePan(-1,0)">
                  <use xlink:href="#rim" fill="#404040">
                        <set attributeName="fill" to="#808080" begin="arrowLeft.mouseover" end="arrowLeft.mouseout"/>
                  </use>
                  <path fill="none" stroke="white" stroke-width="1.5" d="M0,-3.0v7 M-2.5,-0.5L0,-3.0L2.5,-0.5"/>
                </g>
        </g>
        <svg viewBox="0 0 15 15" width="100%" height="30px" preserveAspectRatio="xMaxYMin meet">
         <g id="arrow_out" transform="scale(0.3 0.3)">
          <a xlink:href="_script_events_8h__dep__incl_org.svg" target="_base">
           <rect id="button" ry="5" rx="5" y="6" x="6" height="38" width="38"
                fill="#f2f5e9" fill-opacity="0.5" stroke="#606060" stroke-width="1.0"/>
           <path id="arrow"
             d="M 11.500037,31.436501 C 11.940474,20.09759 22.043105,11.32322 32.158766,21.979434 L 37.068811,17.246167 C 37.068811,17.246167 37.088388,32 37.088388,32 L 22.160133,31.978069 C 22.160133,31.978069 26.997745,27.140456 26.997745,27.140456 C 18.528582,18.264221 13.291696,25.230495 11.500037,31.436501 z"
             style="fill:#404040;"/>
          </a>
         </g>
        </svg>
</svg>
