<?xml version="1.0" encoding="UTF-8" standalone="no"?>
<!DOCTYPE svg PUBLIC "-//W3C//DTD SVG 1.1//EN"
 "http://www.w3.org/Graphics/SVG/1.1/DTD/svg11.dtd">
<!-- Generated by graphviz version 2.36.0 (20140111.2315)
 -->
<!-- Title: App__IoInputGrabToStr Pages: 1 -->
<svg width="322pt" height="66pt"
 viewBox="0.00 0.00 322.00 66.00" xmlns="http://www.w3.org/2000/svg" xmlns:xlink="http://www.w3.org/1999/xlink">
<g id="graph0" class="graph" transform="scale(1 1) rotate(0) translate(4 62)">
<title>App__IoInputGrabToStr</title>
<polygon fill="white" stroke="none" points="-4,4 -4,-62 318,-62 318,4 -4,4"/>
<!-- Node1 -->
<g id="node1" class="node"><title>Node1</title>
<polygon fill="#bfbfbf" stroke="black" points="0.5,-19.5 0.5,-38.5 119.5,-38.5 119.5,-19.5 0.5,-19.5"/>
<text text-anchor="middle" x="60" y="-26.5" font-family="Helvetica,sans-Serif" font-size="10.00">App__IoInputGrabToStr</text>
</g>
<!-- Node2 -->
<g id="node2" class="node"><title>Node2</title>
<g id="a_node2"><a xlink:href="_settings_8cpp.html#a0be6a9ed9fe62359e84e2881a8ba8cf0" target="_top" xlink:title="IoInputGrabToStr">
<polygon fill="white" stroke="black" points="189,-38.5 189,-57.5 281,-57.5 281,-38.5 189,-38.5"/>
<text text-anchor="middle" x="235" y="-45.5" font-family="Helvetica,sans-Serif" font-size="10.00">IoInputGrabToStr</text>
</a>
</g>
</g>
<!-- Node1&#45;&gt;Node2 -->
<g id="edge1" class="edge"><title>Node1&#45;&gt;Node2</title>
<path fill="none" stroke="midnightblue" d="M119.57,-35.4325C138.764,-37.5406 160.013,-39.8743 178.939,-41.9528"/>
<polygon fill="midnightblue" stroke="midnightblue" points="178.57,-45.4333 188.892,-43.046 179.334,-38.4751 178.57,-45.4333"/>
</g>
<!-- Node3 -->
<g id="node3" class="node"><title>Node3</title>
<g id="a_node3"><a xlink:href="namespace_ro_r_1_1_app.html#ae855f215c10238b157516439ab9bcc5c" target="_top" xlink:title="RoR::App::GetIoInputGrabMode">
<polygon fill="white" stroke="black" points="156.5,-0.5 156.5,-19.5 313.5,-19.5 313.5,-0.5 156.5,-0.5"/>
<text text-anchor="middle" x="235" y="-7.5" font-family="Helvetica,sans-Serif" font-size="10.00">RoR::App::GetIoInputGrabMode</text>
</a>
</g>
</g>
<!-- Node1&#45;&gt;Node3 -->
<g id="edge2" class="edge"><title>Node1&#45;&gt;Node3</title>
<path fill="none" stroke="midnightblue" d="M119.57,-22.5675C128.188,-21.621 137.22,-20.629 146.27,-19.6351"/>
<polygon fill="midnightblue" stroke="midnightblue" points="146.916,-23.0853 156.474,-18.5144 146.152,-16.1271 146.916,-23.0853"/>
</g>
</g>
</svg>
