<?xml version="1.0" encoding="UTF-8" standalone="no"?>
<!DOCTYPE svg PUBLIC "-//W3C//DTD SVG 1.1//EN"
 "http://www.w3.org/Graphics/SVG/1.1/DTD/svg11.dtd">
<!-- Generated by graphviz version 2.36.0 (20140111.2315)
 -->
<!-- Title: App__SetScreenshotFormat Pages: 1 -->
<svg width="478pt" height="38pt"
 viewBox="0.00 0.00 478.00 38.00" xmlns="http://www.w3.org/2000/svg" xmlns:xlink="http://www.w3.org/1999/xlink">
<g id="graph0" class="graph" transform="scale(1 1) rotate(0) translate(4 34)">
<title>App__SetScreenshotFormat</title>
<polygon fill="white" stroke="none" points="-4,4 -4,-34 474,-34 474,4 -4,4"/>
<!-- Node1 -->
<g id="node1" class="node"><title>Node1</title>
<polygon fill="#bfbfbf" stroke="black" points="0,-5.5 0,-24.5 140,-24.5 140,-5.5 0,-5.5"/>
<text text-anchor="middle" x="70" y="-12.5" font-family="Helvetica,sans-Serif" font-size="10.00">App__SetScreenshotFormat</text>
</g>
<!-- Node2 -->
<g id="node2" class="node"><title>Node2</title>
<g id="a_node2"><a xlink:href="namespace_ro_r_1_1_app.html#adc33d5ad630bc9e67cfda69058c8e2dd" target="_top" xlink:title="RoR::App::SetAppScreenshot\lFormat">
<polygon fill="white" stroke="black" points="176,-0 176,-30 324,-30 324,-0 176,-0"/>
<text text-anchor="start" x="184" y="-18" font-family="Helvetica,sans-Serif" font-size="10.00">RoR::App::SetAppScreenshot</text>
<text text-anchor="middle" x="250" y="-7" font-family="Helvetica,sans-Serif" font-size="10.00">Format</text>
</a>
</g>
</g>
<!-- Node1&#45;&gt;Node2 -->
<g id="edge1" class="edge"><title>Node1&#45;&gt;Node2</title>
<path fill="none" stroke="midnightblue" d="M140.074,-15C148.503,-15 157.183,-15 165.79,-15"/>
<polygon fill="midnightblue" stroke="midnightblue" points="165.842,-18.5001 175.842,-15 165.842,-11.5001 165.842,-18.5001"/>
</g>
<!-- Node3 -->
<g id="node3" class="node"><title>Node3</title>
<g id="a_node3"><a xlink:href="namespace_ro_r_1_1_app.html#a14508a8885a04713a5a39d5628be83c9" target="_top" xlink:title="RoR::App::SetVarStr">
<polygon fill="white" stroke="black" points="360.5,-5.5 360.5,-24.5 469.5,-24.5 469.5,-5.5 360.5,-5.5"/>
<text text-anchor="middle" x="415" y="-12.5" font-family="Helvetica,sans-Serif" font-size="10.00">RoR::App::SetVarStr</text>
</a>
</g>
</g>
<!-- Node2&#45;&gt;Node3 -->
<g id="edge2" class="edge"><title>Node2&#45;&gt;Node3</title>
<path fill="none" stroke="midnightblue" d="M324.394,-15C332.924,-15 341.575,-15 349.966,-15"/>
<polygon fill="midnightblue" stroke="midnightblue" points="350.047,-18.5001 360.047,-15 350.047,-11.5001 350.047,-18.5001"/>
</g>
</g>
</svg>
