<?xml version="1.0" encoding="UTF-8" standalone="no"?>
<!DOCTYPE svg PUBLIC "-//W3C//DTD SVG 1.1//EN"
 "http://www.w3.org/Graphics/SVG/1.1/DTD/svg11.dtd">
<!-- Generated by graphviz version 2.36.0 (20140111.2315)
 -->
<!-- Title: App__SetTexFiltering Pages: 1 -->
<svg width="646pt" height="66pt"
 viewBox="0.00 0.00 646.00 66.00" xmlns="http://www.w3.org/2000/svg" xmlns:xlink="http://www.w3.org/1999/xlink">
<g id="graph0" class="graph" transform="scale(1 1) rotate(0) translate(4 62)">
<title>App__SetTexFiltering</title>
<polygon fill="white" stroke="none" points="-4,4 -4,-62 642,-62 642,4 -4,4"/>
<!-- Node1 -->
<g id="node1" class="node"><title>Node1</title>
<polygon fill="#bfbfbf" stroke="black" points="0,-19.5 0,-38.5 110,-38.5 110,-19.5 0,-19.5"/>
<text text-anchor="middle" x="55" y="-26.5" font-family="Helvetica,sans-Serif" font-size="10.00">App__SetTexFiltering</text>
</g>
<!-- Node2 -->
<g id="node2" class="node"><title>Node2</title>
<g id="a_node2"><a xlink:href="namespace_ro_r_1_1_app.html#a83a15f0b84f01d59aa95af6ca71903b8" target="_top" xlink:title="RoR::App::SetGfxTexFiltering">
<polygon fill="white" stroke="black" points="146,-19.5 146,-38.5 294,-38.5 294,-19.5 146,-19.5"/>
<text text-anchor="middle" x="220" y="-26.5" font-family="Helvetica,sans-Serif" font-size="10.00">RoR::App::SetGfxTexFiltering</text>
</a>
</g>
</g>
<!-- Node1&#45;&gt;Node2 -->
<g id="edge1" class="edge"><title>Node1&#45;&gt;Node2</title>
<path fill="none" stroke="midnightblue" d="M110.277,-29C118.464,-29 127.066,-29 135.694,-29"/>
<polygon fill="midnightblue" stroke="midnightblue" points="135.812,-32.5001 145.812,-29 135.812,-25.5001 135.812,-32.5001"/>
</g>
<!-- Node3 -->
<g id="node3" class="node"><title>Node3</title>
<g id="a_node3"><a xlink:href="namespace_ro_r_1_1_app.html#ae7ca05a9e2c04da99c1305919b3002b3" target="_top" xlink:title="RoR::App::SetVarEnum">
<polygon fill="white" stroke="black" points="341,-38.5 341,-57.5 463,-57.5 463,-38.5 341,-38.5"/>
<text text-anchor="middle" x="402" y="-45.5" font-family="Helvetica,sans-Serif" font-size="10.00">RoR::App::SetVarEnum</text>
</a>
</g>
</g>
<!-- Node2&#45;&gt;Node3 -->
<g id="edge2" class="edge"><title>Node2&#45;&gt;Node3</title>
<path fill="none" stroke="midnightblue" d="M294.213,-36.728C306.303,-38.0042 318.813,-39.3247 330.826,-40.5928"/>
<polygon fill="midnightblue" stroke="midnightblue" points="330.469,-44.0744 340.781,-41.6436 331.204,-37.1131 330.469,-44.0744"/>
</g>
<!-- Node5 -->
<g id="node5" class="node"><title>Node5</title>
<g id="a_node5"><a xlink:href="namespace_ro_r_1_1_app.html#ae7c05772766417425323292ef107a70e" target="_top" xlink:title="RoR::App::GfxTexFilterToStr">
<polygon fill="white" stroke="black" points="330,-0.5 330,-19.5 474,-19.5 474,-0.5 330,-0.5"/>
<text text-anchor="middle" x="402" y="-7.5" font-family="Helvetica,sans-Serif" font-size="10.00">RoR::App::GfxTexFilterToStr</text>
</a>
</g>
</g>
<!-- Node2&#45;&gt;Node5 -->
<g id="edge4" class="edge"><title>Node2&#45;&gt;Node5</title>
<path fill="none" stroke="midnightblue" d="M294.213,-21.272C302.678,-20.3785 311.348,-19.4633 319.91,-18.5595"/>
<polygon fill="midnightblue" stroke="midnightblue" points="320.314,-22.0364 329.892,-17.5059 319.579,-15.075 320.314,-22.0364"/>
</g>
<!-- Node4 -->
<g id="node4" class="node"><title>Node4</title>
<g id="a_node4"><a xlink:href="namespace_ro_r_1_1_app.html#a3492dc6307a9d930ac73578e0d1f005e" target="_top" xlink:title="RoR::App::LogVarUpdate">
<polygon fill="white" stroke="black" points="510,-38.5 510,-57.5 638,-57.5 638,-38.5 510,-38.5"/>
<text text-anchor="middle" x="574" y="-45.5" font-family="Helvetica,sans-Serif" font-size="10.00">RoR::App::LogVarUpdate</text>
</a>
</g>
</g>
<!-- Node3&#45;&gt;Node4 -->
<g id="edge3" class="edge"><title>Node3&#45;&gt;Node4</title>
<path fill="none" stroke="midnightblue" d="M463.414,-48C475.195,-48 487.664,-48 499.806,-48"/>
<polygon fill="midnightblue" stroke="midnightblue" points="499.906,-51.5001 509.906,-48 499.906,-44.5001 499.906,-51.5001"/>
</g>
</g>
</svg>
