<?xml version="1.0" encoding="UTF-8" standalone="no"?>
<!DOCTYPE svg PUBLIC "-//W3C//DTD SVG 1.1//EN"
 "http://www.w3.org/Graphics/SVG/1.1/DTD/svg11.dtd">
<!-- Generated by graphviz version 2.36.0 (20140111.2315)
 -->
<!-- Title: source/main/utils/SimpleGlob.h Pages: 1 -->
<svg width="484pt" height="96pt"
 viewBox="0.00 0.00 484.00 96.00" xmlns="http://www.w3.org/2000/svg" xmlns:xlink="http://www.w3.org/1999/xlink">
<g id="graph0" class="graph" transform="scale(1 1) rotate(0) translate(4 92)">
<title>source/main/utils/SimpleGlob.h</title>
<polygon fill="white" stroke="none" points="-4,4 -4,-92 480,-92 480,4 -4,4"/>
<!-- Node1 -->
<g id="node1" class="node"><title>Node1</title>
<polygon fill="#bfbfbf" stroke="black" points="188,-57 188,-87 312,-87 312,-57 188,-57"/>
<text text-anchor="start" x="196" y="-75" font-family="Helvetica,sans-Serif" font-size="10.00">source/main/utils/Simple</text>
<text text-anchor="middle" x="250" y="-64" font-family="Helvetica,sans-Serif" font-size="10.00">Glob.h</text>
</g>
<!-- Node2 -->
<g id="node2" class="node"><title>Node2</title>
<polygon fill="white" stroke="#bfbfbf" points="0,-0.5 0,-19.5 68,-19.5 68,-0.5 0,-0.5"/>
<text text-anchor="middle" x="34" y="-7.5" font-family="Helvetica,sans-Serif" font-size="10.00">sys/types.h</text>
</g>
<!-- Node1&#45;&gt;Node2 -->
<g id="edge1" class="edge"><title>Node1&#45;&gt;Node2</title>
<path fill="none" stroke="midnightblue" d="M199.358,-56.9327C161.338,-46.3717 109.959,-32.0998 74.6153,-22.282"/>
<polygon fill="midnightblue" stroke="midnightblue" points="75.2177,-18.8169 64.6457,-19.5127 73.3441,-25.5615 75.2177,-18.8169"/>
</g>
<!-- Node3 -->
<g id="node3" class="node"><title>Node3</title>
<polygon fill="white" stroke="#bfbfbf" points="86,-0.5 86,-19.5 146,-19.5 146,-0.5 86,-0.5"/>
<text text-anchor="middle" x="116" y="-7.5" font-family="Helvetica,sans-Serif" font-size="10.00">sys/stat.h</text>
</g>
<!-- Node1&#45;&gt;Node3 -->
<g id="edge2" class="edge"><title>Node1&#45;&gt;Node3</title>
<path fill="none" stroke="midnightblue" d="M218.583,-56.9327C196.177,-46.9004 166.293,-33.5193 144.562,-23.7888"/>
<polygon fill="midnightblue" stroke="midnightblue" points="145.764,-20.4923 135.207,-19.6 142.903,-26.8811 145.764,-20.4923"/>
</g>
<!-- Node4 -->
<g id="node4" class="node"><title>Node4</title>
<polygon fill="white" stroke="#bfbfbf" points="164.5,-0.5 164.5,-19.5 207.5,-19.5 207.5,-0.5 164.5,-0.5"/>
<text text-anchor="middle" x="186" y="-7.5" font-family="Helvetica,sans-Serif" font-size="10.00">glob.h</text>
</g>
<!-- Node1&#45;&gt;Node4 -->
<g id="edge3" class="edge"><title>Node1&#45;&gt;Node4</title>
<path fill="none" stroke="midnightblue" d="M234.833,-56.7808C225.149,-47.7026 212.591,-35.9291 202.635,-26.5951"/>
<polygon fill="midnightblue" stroke="midnightblue" points="205.002,-24.0166 195.313,-19.7305 200.214,-29.1234 205.002,-24.0166"/>
</g>
<!-- Node5 -->
<g id="node5" class="node"><title>Node5</title>
<polygon fill="white" stroke="#bfbfbf" points="226,-0.5 226,-19.5 274,-19.5 274,-0.5 226,-0.5"/>
<text text-anchor="middle" x="250" y="-7.5" font-family="Helvetica,sans-Serif" font-size="10.00">limits.h</text>
</g>
<!-- Node1&#45;&gt;Node5 -->
<g id="edge4" class="edge"><title>Node1&#45;&gt;Node5</title>
<path fill="none" stroke="midnightblue" d="M250,-56.7808C250,-48.7812 250,-38.6887 250,-30.0168"/>
<polygon fill="midnightblue" stroke="midnightblue" points="253.5,-29.7305 250,-19.7305 246.5,-29.7306 253.5,-29.7305"/>
</g>
<!-- Node6 -->
<g id="node6" class="node"><title>Node6</title>
<polygon fill="white" stroke="#bfbfbf" points="292,-0.5 292,-19.5 340,-19.5 340,-0.5 292,-0.5"/>
<text text-anchor="middle" x="316" y="-7.5" font-family="Helvetica,sans-Serif" font-size="10.00">stdlib.h</text>
</g>
<!-- Node1&#45;&gt;Node6 -->
<g id="edge5" class="edge"><title>Node1&#45;&gt;Node6</title>
<path fill="none" stroke="midnightblue" d="M265.641,-56.7808C275.627,-47.7026 288.578,-35.9291 298.845,-26.5951"/>
<polygon fill="midnightblue" stroke="midnightblue" points="301.351,-29.0471 306.396,-19.7305 296.643,-23.8675 301.351,-29.0471"/>
</g>
<!-- Node7 -->
<g id="node7" class="node"><title>Node7</title>
<polygon fill="white" stroke="#bfbfbf" points="358.5,-0.5 358.5,-19.5 407.5,-19.5 407.5,-0.5 358.5,-0.5"/>
<text text-anchor="middle" x="383" y="-7.5" font-family="Helvetica,sans-Serif" font-size="10.00">string.h</text>
</g>
<!-- Node1&#45;&gt;Node7 -->
<g id="edge6" class="edge"><title>Node1&#45;&gt;Node7</title>
<path fill="none" stroke="midnightblue" d="M281.183,-56.9327C303.421,-46.9004 333.082,-33.5193 354.652,-23.7888"/>
<polygon fill="midnightblue" stroke="midnightblue" points="356.261,-26.9027 363.937,-19.6 353.382,-20.5219 356.261,-26.9027"/>
</g>
<!-- Node8 -->
<g id="node8" class="node"><title>Node8</title>
<polygon fill="white" stroke="#bfbfbf" points="425.5,-0.5 425.5,-19.5 476.5,-19.5 476.5,-0.5 425.5,-0.5"/>
<text text-anchor="middle" x="451" y="-7.5" font-family="Helvetica,sans-Serif" font-size="10.00">wchar.h</text>
</g>
<!-- Node1&#45;&gt;Node8 -->
<g id="edge7" class="edge"><title>Node1&#45;&gt;Node8</title>
<path fill="none" stroke="midnightblue" d="M297.126,-56.9327C333.404,-46.1032 382.755,-31.3715 415.685,-21.5418"/>
<polygon fill="midnightblue" stroke="midnightblue" points="416.764,-24.8725 425.345,-18.6583 414.761,-18.165 416.764,-24.8725"/>
</g>
</g>
</svg>
