<?xml version="1.0" encoding="UTF-8" standalone="no"?>
<!DOCTYPE svg PUBLIC "-//W3C//DTD SVG 1.1//EN"
 "http://www.w3.org/Graphics/SVG/1.1/DTD/svg11.dtd">
<!-- Generated by graphviz version 2.36.0 (20140111.2315)
 -->
<!-- Title: source/main/terrain/map/SurveyMapTextureCreator.h Pages: 1 -->
<svg width="347pt" height="108pt"
 viewBox="0.00 0.00 347.00 108.00" xmlns="http://www.w3.org/2000/svg" xmlns:xlink="http://www.w3.org/1999/xlink">
<g id="graph0" class="graph" transform="scale(1 1) rotate(0) translate(4 104)">
<title>source/main/terrain/map/SurveyMapTextureCreator.h</title>
<polygon fill="white" stroke="none" points="-4,4 -4,-104 343,-104 343,4 -4,4"/>
<!-- Node1 -->
<g id="node1" class="node"><title>Node1</title>
<polygon fill="#bfbfbf" stroke="black" points="80,-69 80,-99 244,-99 244,-69 80,-69"/>
<text text-anchor="start" x="88" y="-87" font-family="Helvetica,sans-Serif" font-size="10.00">source/main/terrain</text>
<text text-anchor="middle" x="162" y="-76" font-family="Helvetica,sans-Serif" font-size="10.00">/map/SurveyMapTextureCreator.h</text>
</g>
<!-- Node2 -->
<g id="node2" class="node"><title>Node2</title>
<g id="a_node2"><a xlink:href="_survey_map_manager_8cpp.html" target="_top" xlink:title="source/main/terrain\l/map/SurveyMapManager.cpp">
<polygon fill="white" stroke="black" points="-0.5,-1 -0.5,-31 146.5,-31 146.5,-1 -0.5,-1"/>
<text text-anchor="start" x="7.5" y="-19" font-family="Helvetica,sans-Serif" font-size="10.00">source/main/terrain</text>
<text text-anchor="middle" x="73" y="-8" font-family="Helvetica,sans-Serif" font-size="10.00">/map/SurveyMapManager.cpp</text>
</a>
</g>
</g>
<!-- Node1&#45;&gt;Node2 -->
<g id="edge1" class="edge"><title>Node1&#45;&gt;Node2</title>
<path fill="none" stroke="midnightblue" d="M134.49,-62.5994C120.697,-52.3712 104.343,-40.2428 91.9682,-31.0663"/>
<polygon fill="midnightblue" stroke="midnightblue" points="132.571,-65.5337 142.688,-68.679 136.741,-59.911 132.571,-65.5337"/>
</g>
<!-- Node3 -->
<g id="node3" class="node"><title>Node3</title>
<g id="a_node3"><a xlink:href="_survey_map_texture_creator_8cpp.html" target="_top" xlink:title="source/main/terrain\l/map/SurveyMapTextureCreator.cpp">
<polygon fill="white" stroke="black" points="164.5,-1 164.5,-31 339.5,-31 339.5,-1 164.5,-1"/>
<text text-anchor="start" x="172.5" y="-19" font-family="Helvetica,sans-Serif" font-size="10.00">source/main/terrain</text>
<text text-anchor="middle" x="252" y="-8" font-family="Helvetica,sans-Serif" font-size="10.00">/map/SurveyMapTextureCreator.cpp</text>
</a>
</g>
</g>
<!-- Node1&#45;&gt;Node3 -->
<g id="edge2" class="edge"><title>Node1&#45;&gt;Node3</title>
<path fill="none" stroke="midnightblue" d="M189.819,-62.5994C203.767,-52.3712 220.305,-40.2428 232.819,-31.0663"/>
<polygon fill="midnightblue" stroke="midnightblue" points="187.523,-59.9429 181.529,-68.679 191.663,-65.5877 187.523,-59.9429"/>
</g>
</g>
</svg>
