<?xml version="1.0" encoding="UTF-8" standalone="no"?>
<!DOCTYPE svg PUBLIC "-//W3C//DTD SVG 1.1//EN"
 "http://www.w3.org/Graphics/SVG/1.1/DTD/svg11.dtd">
<!-- Generated by graphviz version 2.36.0 (20140111.2315)
 -->
<!-- Title: source/main/resources/terrn2_fileformat/Terrn2Fileformat.cpp Pages: 1 -->
<!--zoomable 264 -->
<svg id="main" version="1.1" xmlns="http://www.w3.org/2000/svg" xmlns:xlink="http://www.w3.org/1999/xlink" xml:space="preserve" onload="init(evt)">
<style type="text/css"><![CDATA[
.edge:hover path { stroke: red; }
.edge:hover polygon { stroke: red; fill: red; }
]]></style>
<script type="text/javascript"><![CDATA[
var edges = document.getElementsByTagName('g');
if (edges && edges.length) {
  for (var i=0;i<edges.length;i++) {
    if (edges[i].id.substr(0,4)=='edge') {
      edges[i].setAttribute('class','edge');
    }
  }
}
]]></script>
        <defs>
                <circle id="rim" cx="0" cy="0" r="7"/>
                <circle id="rim2" cx="0" cy="0" r="3.5"/>
                <g id="zoomPlus">
                        <use xlink:href="#rim" fill="#404040">
                                <set attributeName="fill" to="#808080" begin="zoomplus.mouseover" end="zoomplus.mouseout"/>
                        </use>
                        <path d="M-4,0h8M0,-4v8" fill="none" stroke="white" stroke-width="1.5" pointer-events="none"/>
                </g>
                <g id="zoomMin">
                        <use xlink:href="#rim" fill="#404040">
                                <set attributeName="fill" to="#808080" begin="zoomminus.mouseover" end="zoomminus.mouseout"/>
                        </use>
                        <path d="M-4,0h8" fill="none" stroke="white" stroke-width="1.5" pointer-events="none"/>
                </g>
                <g id="dirArrow">
                        <path fill="none" stroke="white" stroke-width="1.5" d="M0,-3.0v7 M-2.5,-0.5L0,-3.0L2.5,-0.5"/>
                </g>
               <g id="resetDef">
                       <use xlink:href="#rim2" fill="#404040">
                               <set attributeName="fill" to="#808080" begin="reset.mouseover" end="reset.mouseout"/>
                       </use>
               </g>
        </defs>

<script type="text/javascript">
var viewWidth = 2001;
var viewHeight = 264;
var sectionId = 'dynsection-0';
</script>
<script xlink:href="svgpan.js"/>
<svg id="graph" class="graph">
<g id="viewport">
<title>source/main/resources/terrn2_fileformat/Terrn2Fileformat.cpp</title>
<polygon fill="white" stroke="none" points="-4,4 -4,-260 1997,-260 1997,4 -4,4"/>
<!-- Node1 -->
<g id="node1" class="node"><title>Node1</title>
<polygon fill="#bfbfbf" stroke="black" points="797.5,-225 797.5,-255 980.5,-255 980.5,-225 797.5,-225"/>
<text text-anchor="start" x="805.5" y="-243" font-family="Helvetica,sans-Serif" font-size="10.00">source/main/resources</text>
<text text-anchor="middle" x="889" y="-232" font-family="Helvetica,sans-Serif" font-size="10.00">/terrn2_fileformat/Terrn2Fileformat.cpp</text>
</g>
<!-- Node2 -->
<g id="node2" class="node"><title>Node2</title>
<g id="a_node2"><a xlink:href="_terrn2_fileformat_8h.html" target="_top" xlink:title="Terrn2Fileformat.h">
<polygon fill="white" stroke="black" points="518,-168.5 518,-187.5 614,-187.5 614,-168.5 518,-168.5"/>
<text text-anchor="middle" x="566" y="-175.5" font-family="Helvetica,sans-Serif" font-size="10.00">Terrn2Fileformat.h</text>
</a>
</g>
</g>
<!-- Node1&#45;&gt;Node2 -->
<g id="edge1" class="edge"><title>Node1&#45;&gt;Node2</title>
<path fill="none" stroke="midnightblue" d="M813.271,-224.933C754.588,-214.032 674.62,-199.177 621.707,-189.348"/>
<polygon fill="midnightblue" stroke="midnightblue" points="622.298,-185.898 611.827,-187.513 621.019,-192.78 622.298,-185.898"/>
</g>
<!-- Node8 -->
<g id="node8" class="node"><title>Node8</title>
<g id="a_node8"><a xlink:href="_config_file_8h.html" target="_top" xlink:title="ConfigFile.h">
<polygon fill="white" stroke="black" points="161.5,-112.5 161.5,-131.5 230.5,-131.5 230.5,-112.5 161.5,-112.5"/>
<text text-anchor="middle" x="196" y="-119.5" font-family="Helvetica,sans-Serif" font-size="10.00">ConfigFile.h</text>
</a>
</g>
</g>
<!-- Node1&#45;&gt;Node8 -->
<g id="edge7" class="edge"><title>Node1&#45;&gt;Node8</title>
<path fill="none" stroke="midnightblue" d="M797.352,-228.559C720.211,-219.326 607.094,-204.746 509,-188 412.808,-171.578 301.098,-147.052 240.564,-133.3"/>
<polygon fill="midnightblue" stroke="midnightblue" points="241.112,-129.836 230.584,-131.025 239.556,-136.661 241.112,-129.836"/>
</g>
<!-- Node11 -->
<g id="node11" class="node"><title>Node11</title>
<g id="a_node11"><a xlink:href="_utils_8h.html" target="_top" xlink:title="Utils.h">
<polygon fill="white" stroke="black" points="866.5,-168.5 866.5,-187.5 911.5,-187.5 911.5,-168.5 866.5,-168.5"/>
<text text-anchor="middle" x="889" y="-175.5" font-family="Helvetica,sans-Serif" font-size="10.00">Utils.h</text>
</a>
</g>
</g>
<!-- Node1&#45;&gt;Node11 -->
<g id="edge11" class="edge"><title>Node1&#45;&gt;Node11</title>
<path fill="none" stroke="midnightblue" d="M889,-224.781C889,-216.781 889,-206.689 889,-198.017"/>
<polygon fill="midnightblue" stroke="midnightblue" points="892.5,-197.73 889,-187.731 885.5,-197.731 892.5,-197.73"/>
</g>
<!-- Node33 -->
<g id="node33" class="node"><title>Node33</title>
<g id="a_node33"><a xlink:href="_beam_constants_8h.html" target="_top" xlink:title="BeamConstants.h">
<polygon fill="white" stroke="black" points="929.5,-168.5 929.5,-187.5 1024.5,-187.5 1024.5,-168.5 929.5,-168.5"/>
<text text-anchor="middle" x="977" y="-175.5" font-family="Helvetica,sans-Serif" font-size="10.00">BeamConstants.h</text>
</a>
</g>
</g>
<!-- Node1&#45;&gt;Node33 -->
<g id="edge39" class="edge"><title>Node1&#45;&gt;Node33</title>
<path fill="none" stroke="midnightblue" d="M909.855,-224.781C923.78,-215.286 942.03,-202.843 955.988,-193.327"/>
<polygon fill="midnightblue" stroke="midnightblue" points="958.161,-196.081 964.452,-187.556 954.218,-190.297 958.161,-196.081"/>
</g>
<!-- Node34 -->
<g id="node34" class="node"><title>Node34</title>
<polygon fill="white" stroke="#bfbfbf" points="1042.5,-168.5 1042.5,-187.5 1131.5,-187.5 1131.5,-168.5 1042.5,-168.5"/>
<text text-anchor="middle" x="1087" y="-175.5" font-family="Helvetica,sans-Serif" font-size="10.00">OgreException.h</text>
</g>
<!-- Node1&#45;&gt;Node34 -->
<g id="edge40" class="edge"><title>Node1&#45;&gt;Node34</title>
<path fill="none" stroke="midnightblue" d="M935.422,-224.933C969.974,-214.462 1016.56,-200.345 1048.93,-190.536"/>
<polygon fill="midnightblue" stroke="midnightblue" points="1050.35,-193.762 1058.91,-187.513 1048.32,-187.063 1050.35,-193.762"/>
</g>
<!-- Node3 -->
<g id="node3" class="node"><title>Node3</title>
<polygon fill="white" stroke="#bfbfbf" points="520.5,-112.5 520.5,-131.5 561.5,-131.5 561.5,-112.5 520.5,-112.5"/>
<text text-anchor="middle" x="541" y="-119.5" font-family="Helvetica,sans-Serif" font-size="10.00">string</text>
</g>
<!-- Node2&#45;&gt;Node3 -->
<g id="edge2" class="edge"><title>Node2&#45;&gt;Node3</title>
<path fill="none" stroke="midnightblue" d="M561.872,-168.083C558.486,-160.77 553.584,-150.181 549.381,-141.103"/>
<polygon fill="midnightblue" stroke="midnightblue" points="552.429,-139.355 545.051,-131.751 546.077,-142.296 552.429,-139.355"/>
</g>
<!-- Node4 -->
<g id="node4" class="node"><title>Node4</title>
<polygon fill="white" stroke="#bfbfbf" points="434.5,-112.5 434.5,-131.5 463.5,-131.5 463.5,-112.5 434.5,-112.5"/>
<text text-anchor="middle" x="449" y="-119.5" font-family="Helvetica,sans-Serif" font-size="10.00">list</text>
</g>
<!-- Node2&#45;&gt;Node4 -->
<g id="edge3" class="edge"><title>Node2&#45;&gt;Node4</title>
<path fill="none" stroke="midnightblue" d="M547.461,-168.444C527.345,-159.159 495.154,-144.302 473.092,-134.119"/>
<polygon fill="midnightblue" stroke="midnightblue" points="474.294,-130.819 463.748,-129.807 471.361,-137.175 474.294,-130.819"/>
</g>
<!-- Node5 -->
<g id="node5" class="node"><title>Node5</title>
<polygon fill="white" stroke="#bfbfbf" points="197.5,-56.5 197.5,-75.5 296.5,-75.5 296.5,-56.5 197.5,-56.5"/>
<text text-anchor="middle" x="247" y="-63.5" font-family="Helvetica,sans-Serif" font-size="10.00">OgreColourValue.h</text>
</g>
<!-- Node2&#45;&gt;Node5 -->
<g id="edge4" class="edge"><title>Node2&#45;&gt;Node5</title>
<path fill="none" stroke="midnightblue" d="M556.379,-168.311C540.202,-154.195 505.974,-126.412 472,-112 442.827,-99.6248 363.013,-85.251 306.769,-76.1424"/>
<polygon fill="midnightblue" stroke="midnightblue" points="306.987,-72.6327 296.559,-74.5045 305.878,-79.5443 306.987,-72.6327"/>
</g>
<!-- Node6 -->
<g id="node6" class="node"><title>Node6</title>
<polygon fill="white" stroke="#bfbfbf" points="687,-112.5 687,-131.5 785,-131.5 785,-112.5 687,-112.5"/>
<text text-anchor="middle" x="736" y="-119.5" font-family="Helvetica,sans-Serif" font-size="10.00">OgreDataStream.h</text>
</g>
<!-- Node2&#45;&gt;Node6 -->
<g id="edge5" class="edge"><title>Node2&#45;&gt;Node6</title>
<path fill="none" stroke="midnightblue" d="M592.937,-168.444C621.66,-159.32 667.329,-144.813 699.321,-134.651"/>
<polygon fill="midnightblue" stroke="midnightblue" points="700.718,-137.88 709.189,-131.516 698.599,-131.208 700.718,-137.88"/>
</g>
<!-- Node7 -->
<g id="node7" class="node"><title>Node7</title>
<polygon fill="white" stroke="#bfbfbf" points="315,-56.5 315,-75.5 395,-75.5 395,-56.5 315,-56.5"/>
<text text-anchor="middle" x="355" y="-63.5" font-family="Helvetica,sans-Serif" font-size="10.00">OgreVector3.h</text>
</g>
<!-- Node2&#45;&gt;Node7 -->
<g id="edge6" class="edge"><title>Node2&#45;&gt;Node7</title>
<path fill="none" stroke="midnightblue" d="M569.884,-168.299C575.312,-154.662 583.117,-128.147 570,-112 567.373,-108.767 468.127,-88.9748 405.409,-76.7402"/>
<polygon fill="midnightblue" stroke="midnightblue" points="405.782,-73.2471 395.297,-74.7713 404.444,-80.1181 405.782,-73.2471"/>
</g>
<!-- Node8&#45;&gt;Node5 -->
<g id="edge9" class="edge"><title>Node8&#45;&gt;Node5</title>
<path fill="none" stroke="midnightblue" d="M204.422,-112.083C211.848,-104.22 222.852,-92.5688 231.812,-83.0813"/>
<polygon fill="midnightblue" stroke="midnightblue" points="234.413,-85.4244 238.735,-75.7511 229.324,-80.618 234.413,-85.4244"/>
</g>
<!-- Node9 -->
<g id="node9" class="node"><title>Node9</title>
<polygon fill="white" stroke="#bfbfbf" points="0,-56.5 0,-75.5 90,-75.5 90,-56.5 0,-56.5"/>
<text text-anchor="middle" x="45" y="-63.5" font-family="Helvetica,sans-Serif" font-size="10.00">OgreConfigFile.h</text>
</g>
<!-- Node8&#45;&gt;Node9 -->
<g id="edge8" class="edge"><title>Node8&#45;&gt;Node9</title>
<path fill="none" stroke="midnightblue" d="M172.074,-112.444C146.781,-103.399 106.698,-89.064 78.3202,-78.9158"/>
<polygon fill="midnightblue" stroke="midnightblue" points="79.4091,-75.5882 68.8145,-75.5164 77.0519,-82.1794 79.4091,-75.5882"/>
</g>
<!-- Node10 -->
<g id="node10" class="node"><title>Node10</title>
<polygon fill="white" stroke="#bfbfbf" points="108.5,-56.5 108.5,-75.5 179.5,-75.5 179.5,-56.5 108.5,-56.5"/>
<text text-anchor="middle" x="144" y="-63.5" font-family="Helvetica,sans-Serif" font-size="10.00">OgreString.h</text>
</g>
<!-- Node8&#45;&gt;Node10 -->
<g id="edge10" class="edge"><title>Node8&#45;&gt;Node10</title>
<path fill="none" stroke="midnightblue" d="M187.413,-112.083C179.841,-104.22 168.622,-92.5688 159.486,-83.0813"/>
<polygon fill="midnightblue" stroke="midnightblue" points="161.885,-80.5266 152.427,-75.7511 156.842,-85.3821 161.885,-80.5266"/>
</g>
<!-- Node11&#45;&gt;Node6 -->
<g id="edge31" class="edge"><title>Node11&#45;&gt;Node6</title>
<path fill="none" stroke="midnightblue" d="M866.424,-169.032C840.883,-160.018 799.025,-145.244 769.633,-134.871"/>
<polygon fill="midnightblue" stroke="midnightblue" points="770.78,-131.564 760.185,-131.536 768.45,-138.165 770.78,-131.564"/>
</g>
<!-- Node12 -->
<g id="node12" class="node"><title>Node12</title>
<g id="a_node12"><a xlink:href="_ro_r_prerequisites_8h.html" target="_top" xlink:title="RoRPrerequisites.h">
<polygon fill="white" stroke="black" points="838,-112.5 838,-131.5 940,-131.5 940,-112.5 838,-112.5"/>
<text text-anchor="middle" x="889" y="-119.5" font-family="Helvetica,sans-Serif" font-size="10.00">RoRPrerequisites.h</text>
</a>
</g>
</g>
<!-- Node11&#45;&gt;Node12 -->
<g id="edge12" class="edge"><title>Node11&#45;&gt;Node12</title>
<path fill="none" stroke="midnightblue" d="M889,-168.083C889,-161.006 889,-150.861 889,-141.986"/>
<polygon fill="midnightblue" stroke="midnightblue" points="892.5,-141.751 889,-131.751 885.5,-141.751 892.5,-141.751"/>
</g>
<!-- Node27 -->
<g id="node27" class="node"><title>Node27</title>
<g id="a_node27"><a xlink:href="checked_8h.html" target="_top" xlink:title="utf8/checked.h">
<polygon fill="white" stroke="black" points="1691.5,-112.5 1691.5,-131.5 1772.5,-131.5 1772.5,-112.5 1691.5,-112.5"/>
<text text-anchor="middle" x="1732" y="-119.5" font-family="Helvetica,sans-Serif" font-size="10.00">utf8/checked.h</text>
</a>
</g>
</g>
<!-- Node11&#45;&gt;Node27 -->
<g id="edge32" class="edge"><title>Node11&#45;&gt;Node27</title>
<path fill="none" stroke="midnightblue" d="M911.549,-169.811C914.372,-169.102 917.238,-168.471 920,-168 994.648,-155.266 1514.46,-132.271 1680.88,-125.157"/>
<polygon fill="midnightblue" stroke="midnightblue" points="1681.48,-128.634 1691.32,-124.711 1681.18,-121.641 1681.48,-128.634"/>
</g>
<!-- Node31 -->
<g id="node31" class="node"><title>Node31</title>
<g id="a_node31"><a xlink:href="unchecked_8h.html" target="_top" xlink:title="utf8/unchecked.h">
<polygon fill="white" stroke="black" points="1373,-112.5 1373,-131.5 1465,-131.5 1465,-112.5 1373,-112.5"/>
<text text-anchor="middle" x="1419" y="-119.5" font-family="Helvetica,sans-Serif" font-size="10.00">utf8/unchecked.h</text>
</a>
</g>
</g>
<!-- Node11&#45;&gt;Node31 -->
<g id="edge36" class="edge"><title>Node11&#45;&gt;Node31</title>
<path fill="none" stroke="midnightblue" d="M911.565,-169.904C914.386,-169.178 917.246,-168.519 920,-168 1078.81,-138.076 1269.93,-127.885 1362.82,-124.545"/>
<polygon fill="midnightblue" stroke="midnightblue" points="1362.97,-128.042 1372.84,-124.198 1362.73,-121.046 1362.97,-128.042"/>
</g>
<!-- Node32 -->
<g id="node32" class="node"><title>Node32</title>
<polygon fill="white" stroke="#bfbfbf" points="1791,-112.5 1791,-131.5 1847,-131.5 1847,-112.5 1791,-112.5"/>
<text text-anchor="middle" x="1819" y="-119.5" font-family="Helvetica,sans-Serif" font-size="10.00">MyGUI.h</text>
</g>
<!-- Node11&#45;&gt;Node32 -->
<g id="edge38" class="edge"><title>Node11&#45;&gt;Node32</title>
<path fill="none" stroke="midnightblue" d="M911.542,-169.775C914.367,-169.071 917.235,-168.452 920,-168 1297.98,-106.16 1401.6,-184.372 1781,-132 1781.1,-131.986 1781.2,-131.972 1781.3,-131.958"/>
<polygon fill="midnightblue" stroke="midnightblue" points="1781.64,-135.452 1790.89,-130.288 1780.44,-128.556 1781.64,-135.452"/>
</g>
<!-- Node12&#45;&gt;Node5 -->
<g id="edge15" class="edge"><title>Node12&#45;&gt;Node5</title>
<path fill="none" stroke="midnightblue" d="M837.7,-116.002C823.249,-114.646 807.513,-113.217 793,-112 579.997,-94.1444 523.365,-100.191 306.645,-75.9797"/>
<polygon fill="midnightblue" stroke="midnightblue" points="306.866,-72.4826 296.537,-74.8417 306.083,-79.4386 306.866,-72.4826"/>
</g>
<!-- Node12&#45;&gt;Node7 -->
<g id="edge23" class="edge"><title>Node12&#45;&gt;Node7</title>
<path fill="none" stroke="midnightblue" d="M837.685,-116.178C823.233,-114.823 807.501,-113.351 793,-112 623.328,-96.1955 577.683,-99.5722 404.996,-76.0248"/>
<polygon fill="midnightblue" stroke="midnightblue" points="405.448,-72.554 395.064,-74.6601 404.495,-79.4888 405.448,-72.554"/>
</g>
<!-- Node12&#45;&gt;Node10 -->
<g id="edge19" class="edge"><title>Node12&#45;&gt;Node10</title>
<path fill="none" stroke="midnightblue" d="M837.711,-115.866C823.26,-114.508 807.521,-113.112 793,-112 527.701,-91.6768 456.793,-110.605 189.932,-76.0913"/>
<polygon fill="midnightblue" stroke="midnightblue" points="190.317,-72.6119 179.948,-74.7871 189.41,-79.5529 190.317,-72.6119"/>
</g>
<!-- Node13 -->
<g id="node13" class="node"><title>Node13</title>
<polygon fill="white" stroke="#bfbfbf" points="1269.5,-56.5 1269.5,-75.5 1372.5,-75.5 1372.5,-56.5 1269.5,-56.5"/>
<text text-anchor="middle" x="1321" y="-63.5" font-family="Helvetica,sans-Serif" font-size="10.00">OgrePrerequisites.h</text>
</g>
<!-- Node12&#45;&gt;Node13 -->
<g id="edge13" class="edge"><title>Node12&#45;&gt;Node13</title>
<path fill="none" stroke="midnightblue" d="M940.063,-115.228C1009.69,-107.265 1138.57,-92.1927 1259.27,-76.0667"/>
<polygon fill="midnightblue" stroke="midnightblue" points="1259.98,-79.5025 1269.43,-74.7043 1259.05,-72.5647 1259.98,-79.5025"/>
</g>
<!-- Node14 -->
<g id="node14" class="node"><title>Node14</title>
<polygon fill="white" stroke="#bfbfbf" points="1390.5,-56.5 1390.5,-75.5 1505.5,-75.5 1505.5,-56.5 1390.5,-56.5"/>
<text text-anchor="middle" x="1448" y="-63.5" font-family="Helvetica,sans-Serif" font-size="10.00">OgreAxisAlignedBox.h</text>
</g>
<!-- Node12&#45;&gt;Node14 -->
<g id="edge14" class="edge"><title>Node12&#45;&gt;Node14</title>
<path fill="none" stroke="midnightblue" d="M940.069,-117.046C1027.78,-110.097 1212.92,-94.7449 1380.3,-76.0339"/>
<polygon fill="midnightblue" stroke="midnightblue" points="1380.73,-79.5073 1390.28,-74.9118 1379.95,-72.5511 1380.73,-79.5073"/>
</g>
<!-- Node15 -->
<g id="node15" class="node"><title>Node15</title>
<polygon fill="white" stroke="#bfbfbf" points="1523.5,-56.5 1523.5,-75.5 1626.5,-75.5 1626.5,-56.5 1523.5,-56.5"/>
<text text-anchor="middle" x="1575" y="-63.5" font-family="Helvetica,sans-Serif" font-size="10.00">OgreHeaderPrefix.h</text>
</g>
<!-- Node12&#45;&gt;Node15 -->
<g id="edge16" class="edge"><title>Node12&#45;&gt;Node15</title>
<path fill="none" stroke="midnightblue" d="M940.156,-118.612C1045.37,-113.42 1293.83,-99.7161 1513.35,-75.9832"/>
<polygon fill="midnightblue" stroke="midnightblue" points="1513.89,-79.4453 1523.45,-74.8818 1513.13,-72.4865 1513.89,-79.4453"/>
</g>
<!-- Node16 -->
<g id="node16" class="node"><title>Node16</title>
<polygon fill="white" stroke="#bfbfbf" points="1644.5,-56.5 1644.5,-75.5 1743.5,-75.5 1743.5,-56.5 1644.5,-56.5"/>
<text text-anchor="middle" x="1694" y="-63.5" font-family="Helvetica,sans-Serif" font-size="10.00">OgreLogManager.h</text>
</g>
<!-- Node12&#45;&gt;Node16 -->
<g id="edge17" class="edge"><title>Node12&#45;&gt;Node16</title>
<path fill="none" stroke="midnightblue" d="M940.235,-119.519C1059.81,-115.715 1366.77,-103.951 1634.17,-75.9777"/>
<polygon fill="midnightblue" stroke="midnightblue" points="1634.89,-79.4214 1644.47,-74.8906 1634.16,-72.4602 1634.89,-79.4214"/>
</g>
<!-- Node17 -->
<g id="node17" class="node"><title>Node17</title>
<polygon fill="white" stroke="#bfbfbf" points="1761.5,-56.5 1761.5,-75.5 1854.5,-75.5 1854.5,-56.5 1761.5,-56.5"/>
<text text-anchor="middle" x="1808" y="-63.5" font-family="Helvetica,sans-Serif" font-size="10.00">OgreQuaternion.h</text>
</g>
<!-- Node12&#45;&gt;Node17 -->
<g id="edge18" class="edge"><title>Node12&#45;&gt;Node17</title>
<path fill="none" stroke="midnightblue" d="M940.218,-120.244C1072.6,-117.882 1437.09,-108.773 1751.09,-75.9667"/>
<polygon fill="midnightblue" stroke="midnightblue" points="1751.72,-79.4194 1761.3,-74.8895 1750.99,-72.458 1751.72,-79.4194"/>
</g>
<!-- Node18 -->
<g id="node18" class="node"><title>Node18</title>
<polygon fill="white" stroke="#bfbfbf" points="413,-56.5 413,-75.5 527,-75.5 527,-56.5 413,-56.5"/>
<text text-anchor="middle" x="470" y="-63.5" font-family="Helvetica,sans-Serif" font-size="10.00">OgreStringConverter.h</text>
</g>
<!-- Node12&#45;&gt;Node18 -->
<g id="edge20" class="edge"><title>Node12&#45;&gt;Node18</title>
<path fill="none" stroke="midnightblue" d="M837.831,-114.619C771.158,-106.274 650.663,-91.0834 537.461,-76.1837"/>
<polygon fill="midnightblue" stroke="midnightblue" points="537.605,-72.6725 527.233,-74.8357 536.69,-79.6125 537.605,-72.6725"/>
</g>
<!-- Node19 -->
<g id="node19" class="node"><title>Node19</title>
<polygon fill="white" stroke="#bfbfbf" points="545.5,-56.5 545.5,-75.5 636.5,-75.5 636.5,-56.5 545.5,-56.5"/>
<text text-anchor="middle" x="591" y="-63.5" font-family="Helvetica,sans-Serif" font-size="10.00">OgreUTFString.h</text>
</g>
<!-- Node12&#45;&gt;Node19 -->
<g id="edge21" class="edge"><title>Node12&#45;&gt;Node19</title>
<path fill="none" stroke="midnightblue" d="M841.781,-112.444C788.787,-102.841 702.89,-87.2754 646.67,-77.0878"/>
<polygon fill="midnightblue" stroke="midnightblue" points="646.996,-73.59 636.532,-75.2508 645.748,-80.4778 646.996,-73.59"/>
</g>
<!-- Node20 -->
<g id="node20" class="node"><title>Node20</title>
<polygon fill="white" stroke="#bfbfbf" points="655,-56.5 655,-75.5 735,-75.5 735,-56.5 655,-56.5"/>
<text text-anchor="middle" x="695" y="-63.5" font-family="Helvetica,sans-Serif" font-size="10.00">OgreVector2.h</text>
</g>
<!-- Node12&#45;&gt;Node20 -->
<g id="edge22" class="edge"><title>Node12&#45;&gt;Node20</title>
<path fill="none" stroke="midnightblue" d="M858.26,-112.444C825.056,-103.201 772.009,-88.4356 735.443,-78.2572"/>
<polygon fill="midnightblue" stroke="midnightblue" points="736.168,-74.8262 725.596,-75.5164 734.291,-81.5699 736.168,-74.8262"/>
</g>
<!-- Node21 -->
<g id="node21" class="node"><title>Node21</title>
<g id="a_node21"><a xlink:href="_forward_declarations_8h.html" target="_top" xlink:title="Global forward declarations. ">
<polygon fill="white" stroke="black" points="919.5,-0.5 919.5,-19.5 1034.5,-19.5 1034.5,-0.5 919.5,-0.5"/>
<text text-anchor="middle" x="977" y="-7.5" font-family="Helvetica,sans-Serif" font-size="10.00">ForwardDeclarations.h</text>
</a>
</g>
</g>
<!-- Node12&#45;&gt;Node21 -->
<g id="edge24" class="edge"><title>Node12&#45;&gt;Node21</title>
<path fill="none" stroke="midnightblue" d="M880.393,-112.451C868.399,-99.4726 849.463,-74.3689 862,-56 873.116,-39.7142 891.087,-29.3221 909.553,-22.6908"/>
<polygon fill="midnightblue" stroke="midnightblue" points="910.789,-25.9694 919.221,-19.5546 908.629,-19.311 910.789,-25.9694"/>
</g>
<!-- Node22 -->
<g id="node22" class="node"><title>Node22</title>
<g id="a_node22"><a xlink:href="_global_environment_8h.html" target="_top" xlink:title="GlobalEnvironment.h">
<polygon fill="white" stroke="black" points="1017.5,-56.5 1017.5,-75.5 1124.5,-75.5 1124.5,-56.5 1017.5,-56.5"/>
<text text-anchor="middle" x="1071" y="-63.5" font-family="Helvetica,sans-Serif" font-size="10.00">GlobalEnvironment.h</text>
</a>
</g>
</g>
<!-- Node12&#45;&gt;Node22 -->
<g id="edge25" class="edge"><title>Node12&#45;&gt;Node22</title>
<path fill="none" stroke="midnightblue" d="M917.838,-112.444C948.856,-103.241 998.329,-88.5617 1032.62,-78.3879"/>
<polygon fill="midnightblue" stroke="midnightblue" points="1033.71,-81.7164 1042.3,-75.5164 1031.71,-75.0055 1033.71,-81.7164"/>
</g>
<!-- Node23 -->
<g id="node23" class="node"><title>Node23</title>
<g id="a_node23"><a xlink:href="_zeroed_memory_allocator_8h.html" target="_top" xlink:title="ZeroedMemoryAllocator.h">
<polygon fill="white" stroke="black" points="871,-56.5 871,-75.5 999,-75.5 999,-56.5 871,-56.5"/>
<text text-anchor="middle" x="935" y="-63.5" font-family="Helvetica,sans-Serif" font-size="10.00">ZeroedMemoryAllocator.h</text>
</a>
</g>
</g>
<!-- Node12&#45;&gt;Node23 -->
<g id="edge27" class="edge"><title>Node12&#45;&gt;Node23</title>
<path fill="none" stroke="midnightblue" d="M896.596,-112.083C903.227,-104.298 913.021,-92.8015 921.058,-83.3665"/>
<polygon fill="midnightblue" stroke="midnightblue" points="923.725,-85.6332 927.545,-75.7511 918.396,-81.0939 923.725,-85.6332"/>
</g>
<!-- Node24 -->
<g id="node24" class="node"><title>Node24</title>
<g id="a_node24"><a xlink:href="_bit_flags_8h.html" target="_top" xlink:title="BitFlags.h">
<polygon fill="white" stroke="black" points="753.5,-56.5 753.5,-75.5 814.5,-75.5 814.5,-56.5 753.5,-56.5"/>
<text text-anchor="middle" x="784" y="-63.5" font-family="Helvetica,sans-Serif" font-size="10.00">BitFlags.h</text>
</a>
</g>
</g>
<!-- Node12&#45;&gt;Node24 -->
<g id="edge28" class="edge"><title>Node12&#45;&gt;Node24</title>
<path fill="none" stroke="midnightblue" d="M872.13,-112.324C855.291,-103.664 829.193,-90.2424 809.762,-80.249"/>
<polygon fill="midnightblue" stroke="midnightblue" points="811.322,-77.1155 800.828,-75.6545 808.12,-83.3405 811.322,-77.1155"/>
</g>
<!-- Node26 -->
<g id="node26" class="node"><title>Node26</title>
<polygon fill="white" stroke="#bfbfbf" points="1142.5,-56.5 1142.5,-75.5 1251.5,-75.5 1251.5,-56.5 1142.5,-56.5"/>
<text text-anchor="middle" x="1197" y="-63.5" font-family="Helvetica,sans-Serif" font-size="10.00">MyGUI_Prerequest.h</text>
</g>
<!-- Node12&#45;&gt;Node26 -->
<g id="edge30" class="edge"><title>Node12&#45;&gt;Node26</title>
<path fill="none" stroke="midnightblue" d="M937.804,-112.444C992.209,-102.905 1080.17,-87.4834 1138.29,-77.293"/>
<polygon fill="midnightblue" stroke="midnightblue" points="1139.18,-80.6908 1148.42,-75.5164 1137.97,-73.796 1139.18,-80.6908"/>
</g>
<!-- Node22&#45;&gt;Node21 -->
<g id="edge26" class="edge"><title>Node22&#45;&gt;Node21</title>
<path fill="none" stroke="midnightblue" d="M1055.9,-56.324C1041.1,-47.8215 1018.31,-34.7288 1001.02,-24.7975"/>
<polygon fill="midnightblue" stroke="midnightblue" points="1002.48,-21.6009 992.065,-19.6545 998.993,-27.6707 1002.48,-21.6009"/>
</g>
<!-- Node25 -->
<g id="node25" class="node"><title>Node25</title>
<polygon fill="white" stroke="#bfbfbf" points="761,-0.5 761,-19.5 807,-19.5 807,-0.5 761,-0.5"/>
<text text-anchor="middle" x="784" y="-7.5" font-family="Helvetica,sans-Serif" font-size="10.00">cstdint</text>
</g>
<!-- Node24&#45;&gt;Node25 -->
<g id="edge29" class="edge"><title>Node24&#45;&gt;Node25</title>
<path fill="none" stroke="midnightblue" d="M784,-56.083C784,-49.0059 784,-38.8611 784,-29.9865"/>
<polygon fill="midnightblue" stroke="midnightblue" points="787.5,-29.751 784,-19.7511 780.5,-29.7511 787.5,-29.751"/>
</g>
<!-- Node28 -->
<g id="node28" class="node"><title>Node28</title>
<g id="a_node28"><a xlink:href="core_8h.html" target="_top" xlink:title="core.h">
<polygon fill="white" stroke="black" points="1872,-56.5 1872,-75.5 1916,-75.5 1916,-56.5 1872,-56.5"/>
<text text-anchor="middle" x="1894" y="-63.5" font-family="Helvetica,sans-Serif" font-size="10.00">core.h</text>
</a>
</g>
</g>
<!-- Node27&#45;&gt;Node28 -->
<g id="edge33" class="edge"><title>Node27&#45;&gt;Node28</title>
<path fill="none" stroke="midnightblue" d="M1757.67,-112.444C1785.96,-103.012 1831.52,-87.8282 1862.09,-77.6375"/>
<polygon fill="midnightblue" stroke="midnightblue" points="1863.45,-80.8711 1871.83,-74.3884 1861.24,-74.2304 1863.45,-80.8711"/>
</g>
<!-- Node30 -->
<g id="node30" class="node"><title>Node30</title>
<polygon fill="white" stroke="#bfbfbf" points="1934.5,-56.5 1934.5,-75.5 1993.5,-75.5 1993.5,-56.5 1934.5,-56.5"/>
<text text-anchor="middle" x="1964" y="-63.5" font-family="Helvetica,sans-Serif" font-size="10.00">stdexcept</text>
</g>
<!-- Node27&#45;&gt;Node30 -->
<g id="edge35" class="edge"><title>Node27&#45;&gt;Node30</title>
<path fill="none" stroke="midnightblue" d="M1768.76,-112.444C1811.23,-102.56 1880.83,-86.3589 1924.44,-76.2072"/>
<polygon fill="midnightblue" stroke="midnightblue" points="1925.46,-79.5646 1934.4,-73.8886 1923.87,-72.7468 1925.46,-79.5646"/>
</g>
<!-- Node29 -->
<g id="node29" class="node"><title>Node29</title>
<polygon fill="white" stroke="#bfbfbf" points="1870.5,-0.5 1870.5,-19.5 1917.5,-19.5 1917.5,-0.5 1870.5,-0.5"/>
<text text-anchor="middle" x="1894" y="-7.5" font-family="Helvetica,sans-Serif" font-size="10.00">iterator</text>
</g>
<!-- Node28&#45;&gt;Node29 -->
<g id="edge34" class="edge"><title>Node28&#45;&gt;Node29</title>
<path fill="none" stroke="midnightblue" d="M1894,-56.083C1894,-49.0059 1894,-38.8611 1894,-29.9865"/>
<polygon fill="midnightblue" stroke="midnightblue" points="1897.5,-29.751 1894,-19.7511 1890.5,-29.7511 1897.5,-29.751"/>
</g>
<!-- Node31&#45;&gt;Node28 -->
<g id="edge37" class="edge"><title>Node31&#45;&gt;Node28</title>
<path fill="none" stroke="midnightblue" d="M1465.1,-119.086C1544.47,-115.193 1712.04,-104.354 1861.92,-75.8798"/>
<polygon fill="midnightblue" stroke="midnightblue" points="1862.61,-79.3112 1871.77,-73.9787 1861.29,-72.4381 1862.61,-79.3112"/>
</g>
</g>
</svg>
        <g id="navigator" transform="translate(0 0)" fill="#404254">
                <rect fill="#f2f5e9" fill-opacity="0.5" stroke="#606060" stroke-width=".5" x="0" y="0" width="60" height="60"/>
                <use id="zoomplus" xlink:href="#zoomPlus" x="17" y="9" onmousedown="handleZoom(evt,'in')"/>
                <use id="zoomminus" xlink:href="#zoomMin" x="42" y="9" onmousedown="handleZoom(evt,'out')"/>
                <use id="reset" xlink:href="#resetDef" x="30" y="36" onmousedown="handleReset()"/>
                <g id="arrowUp" xlink:href="#dirArrow" transform="translate(30 24)" onmousedown="handlePan(0,-1)">
                  <use xlink:href="#rim" fill="#404040">
                        <set attributeName="fill" to="#808080" begin="arrowUp.mouseover" end="arrowUp.mouseout"/>
                  </use>
                  <path fill="none" stroke="white" stroke-width="1.5" d="M0,-3.0v7 M-2.5,-0.5L0,-3.0L2.5,-0.5"/>
                </g>
                <g id="arrowRight" xlink:href="#dirArrow" transform="rotate(90) translate(36 -43)" onmousedown="handlePan(1,0)">
                  <use xlink:href="#rim" fill="#404040">
                        <set attributeName="fill" to="#808080" begin="arrowRight.mouseover" end="arrowRight.mouseout"/>
                  </use>
                  <path fill="none" stroke="white" stroke-width="1.5" d="M0,-3.0v7 M-2.5,-0.5L0,-3.0L2.5,-0.5"/>
                </g>
                <g id="arrowDown" xlink:href="#dirArrow" transform="rotate(180) translate(-30 -48)" onmousedown="handlePan(0,1)">
                  <use xlink:href="#rim" fill="#404040">
                        <set attributeName="fill" to="#808080" begin="arrowDown.mouseover" end="arrowDown.mouseout"/>
                  </use>
                  <path fill="none" stroke="white" stroke-width="1.5" d="M0,-3.0v7 M-2.5,-0.5L0,-3.0L2.5,-0.5"/>
                </g>
                <g id="arrowLeft" xlink:href="#dirArrow" transform="rotate(270) translate(-36 17)" onmousedown="handlePan(-1,0)">
                  <use xlink:href="#rim" fill="#404040">
                        <set attributeName="fill" to="#808080" begin="arrowLeft.mouseover" end="arrowLeft.mouseout"/>
                  </use>
                  <path fill="none" stroke="white" stroke-width="1.5" d="M0,-3.0v7 M-2.5,-0.5L0,-3.0L2.5,-0.5"/>
                </g>
        </g>
        <svg viewBox="0 0 15 15" width="100%" height="30px" preserveAspectRatio="xMaxYMin meet">
         <g id="arrow_out" transform="scale(0.3 0.3)">
          <a xlink:href="_terrn2_fileformat_8cpp__incl_org.svg" target="_base">
           <rect id="button" ry="5" rx="5" y="6" x="6" height="38" width="38"
                fill="#f2f5e9" fill-opacity="0.5" stroke="#606060" stroke-width="1.0"/>
           <path id="arrow"
             d="M 11.500037,31.436501 C 11.940474,20.09759 22.043105,11.32322 32.158766,21.979434 L 37.068811,17.246167 C 37.068811,17.246167 37.088388,32 37.088388,32 L 22.160133,31.978069 C 22.160133,31.978069 26.997745,27.140456 26.997745,27.140456 C 18.528582,18.264221 13.291696,25.230495 11.500037,31.436501 z"
             style="fill:#404040;"/>
          </a>
         </g>
        </svg>
</svg>
