<?xml version="1.0" encoding="UTF-8" standalone="no"?>
<!DOCTYPE svg PUBLIC "-//W3C//DTD SVG 1.1//EN"
 "http://www.w3.org/Graphics/SVG/1.1/DTD/svg11.dtd">
<!-- Generated by graphviz version 2.36.0 (20140111.2315)
 -->
<!-- Title: removeCollisionBox Pages: 1 -->
<svg width="434pt" height="38pt"
 viewBox="0.00 0.00 434.00 38.00" xmlns="http://www.w3.org/2000/svg" xmlns:xlink="http://www.w3.org/1999/xlink">
<g id="graph0" class="graph" transform="scale(1 1) rotate(0) translate(4 34)">
<title>removeCollisionBox</title>
<polygon fill="white" stroke="none" points="-4,4 -4,-34 430,-34 430,4 -4,4"/>
<!-- Node1 -->
<g id="node1" class="node"><title>Node1</title>
<polygon fill="#bfbfbf" stroke="black" points="0,-5.5 0,-24.5 104,-24.5 104,-5.5 0,-5.5"/>
<text text-anchor="middle" x="52" y="-12.5" font-family="Helvetica,sans-Serif" font-size="10.00">removeCollisionBox</text>
</g>
<!-- Node2 -->
<g id="node2" class="node"><title>Node2</title>
<g id="a_node2"><a xlink:href="class_terrain_object_manager.html#a810b822abfbab9dd498a884f1787512c" target="_top" xlink:title="TerrainObjectManager\l::unloadObject">
<polygon fill="white" stroke="black" points="140.5,-0 140.5,-30 253.5,-30 253.5,-0 140.5,-0"/>
<text text-anchor="start" x="148.5" y="-18" font-family="Helvetica,sans-Serif" font-size="10.00">TerrainObjectManager</text>
<text text-anchor="middle" x="197" y="-7" font-family="Helvetica,sans-Serif" font-size="10.00">::unloadObject</text>
</a>
</g>
</g>
<!-- Node1&#45;&gt;Node2 -->
<g id="edge1" class="edge"><title>Node1&#45;&gt;Node2</title>
<path fill="none" stroke="midnightblue" d="M114.251,-15C122.9,-15 131.754,-15 140.292,-15"/>
<polygon fill="midnightblue" stroke="midnightblue" points="114.222,-11.5001 104.222,-15 114.222,-18.5001 114.222,-11.5001"/>
</g>
<!-- Node3 -->
<g id="node3" class="node"><title>Node3</title>
<g id="a_node3"><a xlink:href="class_game_script.html#ac9ef8b95e5fd759b73ef414e9ae9a6a8" target="_top" xlink:title="GameScript::destroyObject">
<polygon fill="white" stroke="black" points="290.5,-5.5 290.5,-24.5 425.5,-24.5 425.5,-5.5 290.5,-5.5"/>
<text text-anchor="middle" x="358" y="-12.5" font-family="Helvetica,sans-Serif" font-size="10.00">GameScript::destroyObject</text>
</a>
</g>
</g>
<!-- Node2&#45;&gt;Node3 -->
<g id="edge2" class="edge"><title>Node2&#45;&gt;Node3</title>
<path fill="none" stroke="midnightblue" d="M263.82,-15C272.631,-15 281.672,-15 290.495,-15"/>
<polygon fill="midnightblue" stroke="midnightblue" points="263.611,-11.5001 253.61,-15 263.61,-18.5001 263.611,-11.5001"/>
</g>
</g>
</svg>
