<?xml version="1.0" encoding="UTF-8" standalone="no"?>
<!DOCTYPE svg PUBLIC "-//W3C//DTD SVG 1.1//EN"
 "http://www.w3.org/Graphics/SVG/1.1/DTD/svg11.dtd">
<!-- Generated by graphviz version 2.36.0 (20140111.2315)
 -->
<!-- Title: convertToMyGUIString Pages: 1 -->
<svg width="1760pt" height="700pt"
 viewBox="0.00 0.00 1760.00 700.00" xmlns="http://www.w3.org/2000/svg" xmlns:xlink="http://www.w3.org/1999/xlink">
<g id="graph0" class="graph" transform="scale(1 1) rotate(0) translate(4 696)">
<title>convertToMyGUIString</title>
<polygon fill="white" stroke="none" points="-4,4 -4,-696 1756,-696 1756,4 -4,4"/>
<!-- Node1 -->
<g id="node1" class="node"><title>Node1</title>
<polygon fill="#bfbfbf" stroke="black" points="0.5,-535.5 0.5,-554.5 117.5,-554.5 117.5,-535.5 0.5,-535.5"/>
<text text-anchor="middle" x="59" y="-542.5" font-family="Helvetica,sans-Serif" font-size="10.00">convertToMyGUIString</text>
</g>
<!-- Node2 -->
<g id="node2" class="node"><title>Node2</title>
<g id="a_node2"><a xlink:href="class_replay.html#abdd355de2fdec7c897870b358e32c946" target="_top" xlink:title="Replay::updateGUI">
<polygon fill="white" stroke="black" points="180.5,-672.5 180.5,-691.5 281.5,-691.5 281.5,-672.5 180.5,-672.5"/>
<text text-anchor="middle" x="231" y="-679.5" font-family="Helvetica,sans-Serif" font-size="10.00">Replay::updateGUI</text>
</a>
</g>
</g>
<!-- Node1&#45;&gt;Node2 -->
<g id="edge1" class="edge"><title>Node1&#45;&gt;Node2</title>
<path fill="none" stroke="midnightblue" d="M69.7492,-563.445C84.4676,-589.462 114.851,-636.593 154,-662 161.897,-667.125 171.058,-670.94 180.228,-673.779"/>
<polygon fill="midnightblue" stroke="midnightblue" points="72.7713,-561.677 64.8896,-554.597 66.6357,-565.047 72.7713,-561.677"/>
</g>
<!-- Node3 -->
<g id="node3" class="node"><title>Node3</title>
<g id="a_node3"><a xlink:href="class_ro_r_1_1_g_u_i_1_1_friction_settings.html#ad1fa0de31aedf7811ebf298ff92e07de" target="_top" xlink:title="RoR::GUI::FrictionSettings\l::setActiveCol">
<polygon fill="white" stroke="black" points="163.5,-623 163.5,-653 298.5,-653 298.5,-623 163.5,-623"/>
<text text-anchor="start" x="171.5" y="-641" font-family="Helvetica,sans-Serif" font-size="10.00">RoR::GUI::FrictionSettings</text>
<text text-anchor="middle" x="231" y="-630" font-family="Helvetica,sans-Serif" font-size="10.00">::setActiveCol</text>
</a>
</g>
</g>
<!-- Node1&#45;&gt;Node3 -->
<g id="edge2" class="edge"><title>Node1&#45;&gt;Node3</title>
<path fill="none" stroke="midnightblue" d="M78.8713,-561.364C97.0808,-576.472 125.942,-598.676 154,-613 161.299,-616.726 169.27,-620.063 177.217,-622.991"/>
<polygon fill="midnightblue" stroke="midnightblue" points="80.7372,-558.358 70.838,-554.583 76.2219,-563.708 80.7372,-558.358"/>
</g>
<!-- Node4 -->
<g id="node4" class="node"><title>Node4</title>
<g id="a_node4"><a xlink:href="class_ro_r_1_1_g_u_i_1_1_friction_settings.html#a68f89f8c947082c37538b73bb2f1fa60" target="_top" xlink:title="RoR::GUI::FrictionSettings\l::showHelp">
<polygon fill="white" stroke="black" points="163.5,-574 163.5,-604 298.5,-604 298.5,-574 163.5,-574"/>
<text text-anchor="start" x="171.5" y="-592" font-family="Helvetica,sans-Serif" font-size="10.00">RoR::GUI::FrictionSettings</text>
<text text-anchor="middle" x="231" y="-581" font-family="Helvetica,sans-Serif" font-size="10.00">::showHelp</text>
</a>
</g>
</g>
<!-- Node1&#45;&gt;Node4 -->
<g id="edge3" class="edge"><title>Node1&#45;&gt;Node4</title>
<path fill="none" stroke="midnightblue" d="M106.74,-557.097C126.846,-562.301 150.562,-568.439 171.793,-573.935"/>
<polygon fill="midnightblue" stroke="midnightblue" points="107.445,-553.665 96.8875,-554.547 105.691,-560.441 107.445,-553.665"/>
</g>
<!-- Node7 -->
<g id="node7" class="node"><title>Node7</title>
<g id="a_node7"><a xlink:href="class_ro_r_1_1_g_u_i_1_1_loading_window.html#acc087e971e8347f14011eaa787c8fc5e" target="_top" xlink:title="RoR::GUI::LoadingWindow\l::setProgress">
<polygon fill="white" stroke="black" points="163,-349 163,-379 299,-379 299,-349 163,-349"/>
<text text-anchor="start" x="171" y="-367" font-family="Helvetica,sans-Serif" font-size="10.00">RoR::GUI::LoadingWindow</text>
<text text-anchor="middle" x="231" y="-356" font-family="Helvetica,sans-Serif" font-size="10.00">::setProgress</text>
</a>
</g>
</g>
<!-- Node1&#45;&gt;Node7 -->
<g id="edge6" class="edge"><title>Node1&#45;&gt;Node7</title>
<path fill="none" stroke="midnightblue" d="M76.2681,-527.679C109.439,-492.362 184.398,-412.553 215.771,-379.15"/>
<polygon fill="midnightblue" stroke="midnightblue" points="73.4349,-525.583 69.1399,-535.269 78.5373,-530.376 73.4349,-525.583"/>
</g>
<!-- Node29 -->
<g id="node29" class="node"><title>Node29</title>
<g id="a_node29"><a xlink:href="class_ro_r_1_1_g_u_i_1_1_loading_window.html#afbe80d0309f58dcbcabd4c99de3cb6ff" target="_top" xlink:title="RoR::GUI::LoadingWindow\l::setAutotrack">
<polygon fill="white" stroke="black" points="769,-505 769,-535 905,-535 905,-505 769,-505"/>
<text text-anchor="start" x="777" y="-523" font-family="Helvetica,sans-Serif" font-size="10.00">RoR::GUI::LoadingWindow</text>
<text text-anchor="middle" x="837" y="-512" font-family="Helvetica,sans-Serif" font-size="10.00">::setAutotrack</text>
</a>
</g>
</g>
<!-- Node1&#45;&gt;Node29 -->
<g id="edge37" class="edge"><title>Node1&#45;&gt;Node29</title>
<path fill="none" stroke="midnightblue" d="M127.739,-543.208C247.04,-539.993 502.424,-532.843 718,-525 734.495,-524.4 752.284,-523.683 768.923,-522.982"/>
<polygon fill="midnightblue" stroke="midnightblue" points="127.561,-539.712 117.658,-543.479 127.749,-546.709 127.561,-539.712"/>
</g>
<!-- Node31 -->
<g id="node31" class="node"><title>Node31</title>
<g id="a_node31"><a xlink:href="class_ro_r_1_1_g_u_i_1_1_texture_tool_window.html#ae99f96751422895d21953af7e652040f" target="_top" xlink:title="RoR::GUI::TextureToolWindow\l::updateControls">
<polygon fill="white" stroke="black" points="154,-300 154,-330 308,-330 308,-300 154,-300"/>
<text text-anchor="start" x="162" y="-318" font-family="Helvetica,sans-Serif" font-size="10.00">RoR::GUI::TextureToolWindow</text>
<text text-anchor="middle" x="231" y="-307" font-family="Helvetica,sans-Serif" font-size="10.00">::updateControls</text>
</a>
</g>
</g>
<!-- Node1&#45;&gt;Node31 -->
<g id="edge40" class="edge"><title>Node1&#45;&gt;Node31</title>
<path fill="none" stroke="midnightblue" d="M63.4942,-525.098C71.7179,-484.185 96.1377,-390.19 154,-339 157.834,-335.608 162.148,-332.695 166.722,-330.193"/>
<polygon fill="midnightblue" stroke="midnightblue" points="60.0125,-524.673 61.5899,-535.15 66.8902,-525.976 60.0125,-524.673"/>
</g>
<!-- Node32 -->
<g id="node32" class="node"><title>Node32</title>
<g id="a_node32"><a xlink:href="class_ro_r_1_1_g_u_i_1_1_top_menubar.html#addbf2f7c7b987d76109c9ed95f966437" target="_top" xlink:title="RoR::GUI::TopMenubar\l::addUserToMenu">
<polygon fill="white" stroke="black" points="170.5,-148 170.5,-178 291.5,-178 291.5,-148 170.5,-148"/>
<text text-anchor="start" x="178.5" y="-166" font-family="Helvetica,sans-Serif" font-size="10.00">RoR::GUI::TopMenubar</text>
<text text-anchor="middle" x="231" y="-155" font-family="Helvetica,sans-Serif" font-size="10.00">::addUserToMenu</text>
</a>
</g>
</g>
<!-- Node1&#45;&gt;Node32 -->
<g id="edge41" class="edge"><title>Node1&#45;&gt;Node32</title>
<path fill="none" stroke="midnightblue" d="M65.7546,-525.708C78.9401,-482.476 113.353,-374.966 154,-290 174.182,-247.814 204.08,-201.421 219.679,-178.126"/>
<polygon fill="midnightblue" stroke="midnightblue" points="62.3442,-524.895 62.8037,-535.479 69.0453,-526.918 62.3442,-524.895"/>
</g>
<!-- Node5 -->
<g id="node5" class="node"><title>Node5</title>
<g id="a_node5"><a xlink:href="class_ro_r_1_1_g_u_i_1_1_friction_settings.html#ad1fbdeef906f93ca1147193f857311a1" target="_top" xlink:title="RoR::GUI::FrictionSettings\l::event_btn_MouseButtonClick">
<polygon fill="white" stroke="black" points="349.5,-574 349.5,-604 500.5,-604 500.5,-574 349.5,-574"/>
<text text-anchor="start" x="357.5" y="-592" font-family="Helvetica,sans-Serif" font-size="10.00">RoR::GUI::FrictionSettings</text>
<text text-anchor="middle" x="425" y="-581" font-family="Helvetica,sans-Serif" font-size="10.00">::event_btn_MouseButtonClick</text>
</a>
</g>
</g>
<!-- Node4&#45;&gt;Node5 -->
<g id="edge4" class="edge"><title>Node4&#45;&gt;Node5</title>
<path fill="none" stroke="midnightblue" d="M308.717,-589C322.086,-589 335.976,-589 349.29,-589"/>
<polygon fill="midnightblue" stroke="midnightblue" points="308.613,-585.5 298.613,-589 308.613,-592.5 308.613,-585.5"/>
</g>
<!-- Node6 -->
<g id="node6" class="node"><title>Node6</title>
<g id="a_node6"><a xlink:href="class_ro_r_1_1_g_u_i_1_1_friction_settings.html#a30be992e44b908881ce9e5ccbe691bf9" target="_top" xlink:title="RoR::GUI::FrictionSettings\l::FrictionSettings">
<polygon fill="white" stroke="black" points="562.5,-574 562.5,-604 697.5,-604 697.5,-574 562.5,-574"/>
<text text-anchor="start" x="570.5" y="-592" font-family="Helvetica,sans-Serif" font-size="10.00">RoR::GUI::FrictionSettings</text>
<text text-anchor="middle" x="630" y="-581" font-family="Helvetica,sans-Serif" font-size="10.00">::FrictionSettings</text>
</a>
</g>
</g>
<!-- Node5&#45;&gt;Node6 -->
<g id="edge5" class="edge"><title>Node5&#45;&gt;Node6</title>
<path fill="none" stroke="midnightblue" d="M510.793,-589C528.048,-589 545.967,-589 562.478,-589"/>
<polygon fill="midnightblue" stroke="midnightblue" points="510.725,-585.5 500.725,-589 510.725,-592.5 510.725,-585.5"/>
</g>
<!-- Node8 -->
<g id="node8" class="node"><title>Node8</title>
<g id="a_node8"><a xlink:href="class_ro_r_frame_listener.html#a9757c059e840019a3e2659d5ef63ea02" target="_top" xlink:title="Reads GVar &#39;sim_terrain_pending&#39;. ">
<polygon fill="white" stroke="black" points="962,-415.5 962,-434.5 1118,-434.5 1118,-415.5 962,-415.5"/>
<text text-anchor="middle" x="1040" y="-422.5" font-family="Helvetica,sans-Serif" font-size="10.00">RoRFrameListener::LoadTerrain</text>
</a>
</g>
</g>
<!-- Node7&#45;&gt;Node8 -->
<g id="edge7" class="edge"><title>Node7&#45;&gt;Node8</title>
<path fill="none" stroke="midnightblue" d="M303.681,-381.114C317.019,-383.798 330.883,-386.257 344,-388 566.935,-417.631 833.079,-423.734 961.757,-424.858"/>
<polygon fill="midnightblue" stroke="midnightblue" points="304.108,-377.628 293.606,-379.026 302.687,-384.483 304.108,-377.628"/>
</g>
<!-- Node12 -->
<g id="node12" class="node"><title>Node12</title>
<g id="a_node12"><a xlink:href="class_ro_r_frame_listener.html#a1610b21686ae680582623cde69b85f2b" target="_top" xlink:title="RoRFrameListener::Cleanup\lAfterSimulation">
<polygon fill="white" stroke="black" points="969.5,-127 969.5,-157 1110.5,-157 1110.5,-127 969.5,-127"/>
<text text-anchor="start" x="977.5" y="-145" font-family="Helvetica,sans-Serif" font-size="10.00">RoRFrameListener::Cleanup</text>
<text text-anchor="middle" x="1040" y="-134" font-family="Helvetica,sans-Serif" font-size="10.00">AfterSimulation</text>
</a>
</g>
</g>
<!-- Node7&#45;&gt;Node12 -->
<g id="edge11" class="edge"><title>Node7&#45;&gt;Node12</title>
<path fill="none" stroke="midnightblue" d="M304.265,-342.747C305.574,-341.565 306.822,-340.317 308,-339 360.063,-280.784 284.276,-217.327 344,-167 436.79,-88.8098 812.318,-117.991 969.394,-134.139"/>
<polygon fill="midnightblue" stroke="midnightblue" points="302.067,-340.021 296.175,-348.826 306.272,-345.617 302.067,-340.021"/>
</g>
<!-- Node14 -->
<g id="node14" class="node"><title>Node14</title>
<g id="a_node14"><a xlink:href="class_cache_system.html#a4439130b97404a54bca3ca9768586c48" target="_top" xlink:title="CacheSystem::incremental\lCacheUpdate">
<polygon fill="white" stroke="black" points="769.5,-226 769.5,-256 904.5,-256 904.5,-226 769.5,-226"/>
<text text-anchor="start" x="777.5" y="-244" font-family="Helvetica,sans-Serif" font-size="10.00">CacheSystem::incremental</text>
<text text-anchor="middle" x="837" y="-233" font-family="Helvetica,sans-Serif" font-size="10.00">CacheUpdate</text>
</a>
</g>
</g>
<!-- Node7&#45;&gt;Node14 -->
<g id="edge14" class="edge"><title>Node7&#45;&gt;Node14</title>
<path fill="none" stroke="midnightblue" d="M304.098,-342.787C305.463,-341.593 306.768,-340.332 308,-339 353.681,-289.627 291.082,-233.522 344,-192 410.434,-139.872 665.365,-196.814 779.811,-225.964"/>
<polygon fill="midnightblue" stroke="midnightblue" points="301.7,-340.202 295.675,-348.917 305.82,-345.862 301.7,-340.202"/>
</g>
<!-- Node18 -->
<g id="node18" class="node"><title>Node18</title>
<g id="a_node18"><a xlink:href="class_cache_system.html#ac6465dadeeecad40df66f76583fae492" target="_top" xlink:title="CacheSystem::loadAllZips\lInResourceGroup">
<polygon fill="white" stroke="black" points="358.5,-349 358.5,-379 491.5,-379 491.5,-349 358.5,-349"/>
<text text-anchor="start" x="366.5" y="-367" font-family="Helvetica,sans-Serif" font-size="10.00">CacheSystem::loadAllZips</text>
<text text-anchor="middle" x="425" y="-356" font-family="Helvetica,sans-Serif" font-size="10.00">InResourceGroup</text>
</a>
</g>
</g>
<!-- Node7&#45;&gt;Node18 -->
<g id="edge20" class="edge"><title>Node7&#45;&gt;Node18</title>
<path fill="none" stroke="midnightblue" d="M309.154,-364C325.4,-364 342.396,-364 358.181,-364"/>
<polygon fill="midnightblue" stroke="midnightblue" points="309.152,-360.5 299.152,-364 309.152,-367.5 309.152,-360.5"/>
</g>
<!-- Node20 -->
<g id="node20" class="node"><title>Node20</title>
<g id="a_node20"><a xlink:href="class_cache_system.html#afa2911e77ee5652f6b1739a8b1f334c4" target="_top" xlink:title="CacheSystem::loadAllDirectories\lInResourceGroup">
<polygon fill="white" stroke="black" points="344.5,-300 344.5,-330 505.5,-330 505.5,-300 344.5,-300"/>
<text text-anchor="start" x="352.5" y="-318" font-family="Helvetica,sans-Serif" font-size="10.00">CacheSystem::loadAllDirectories</text>
<text text-anchor="middle" x="425" y="-307" font-family="Helvetica,sans-Serif" font-size="10.00">InResourceGroup</text>
</a>
</g>
</g>
<!-- Node7&#45;&gt;Node20 -->
<g id="edge23" class="edge"><title>Node7&#45;&gt;Node20</title>
<path fill="none" stroke="midnightblue" d="M300.767,-346.45C321.851,-341.069 344.845,-335.201 365.2,-330.006"/>
<polygon fill="midnightblue" stroke="midnightblue" points="299.735,-343.101 290.911,-348.965 301.466,-349.884 299.735,-343.101"/>
</g>
<!-- Node21 -->
<g id="node21" class="node"><title>Node21</title>
<g id="a_node21"><a xlink:href="class_cache_system.html#a89beaf10bee2aa07b474fcc4b9c7782a" target="_top" xlink:title="CacheSystem::checkForNew\lZipsInResourceGroup">
<polygon fill="white" stroke="black" points="352,-202 352,-232 498,-232 498,-202 352,-202"/>
<text text-anchor="start" x="360" y="-220" font-family="Helvetica,sans-Serif" font-size="10.00">CacheSystem::checkForNew</text>
<text text-anchor="middle" x="425" y="-209" font-family="Helvetica,sans-Serif" font-size="10.00">ZipsInResourceGroup</text>
</a>
</g>
</g>
<!-- Node7&#45;&gt;Node21 -->
<g id="edge25" class="edge"><title>Node7&#45;&gt;Node21</title>
<path fill="none" stroke="midnightblue" d="M303.264,-343.097C304.918,-341.812 306.502,-340.448 308,-339 341.368,-306.756 310.211,-272.802 344,-241 347.696,-237.522 351.876,-234.546 356.34,-232"/>
<polygon fill="midnightblue" stroke="midnightblue" points="300.904,-340.461 294.48,-348.886 304.756,-346.305 300.904,-340.461"/>
</g>
<!-- Node23 -->
<g id="node23" class="node"><title>Node23</title>
<g id="a_node23"><a xlink:href="class_cache_system.html#ab2251b8c119efb98588c8c85f882aa3f" target="_top" xlink:title="CacheSystem::checkForNew\lDirectoriesInResourceGroup">
<polygon fill="white" stroke="black" points="352,-251 352,-281 498,-281 498,-251 352,-251"/>
<text text-anchor="start" x="360" y="-269" font-family="Helvetica,sans-Serif" font-size="10.00">CacheSystem::checkForNew</text>
<text text-anchor="middle" x="425" y="-258" font-family="Helvetica,sans-Serif" font-size="10.00">DirectoriesInResourceGroup</text>
</a>
</g>
</g>
<!-- Node7&#45;&gt;Node23 -->
<g id="edge28" class="edge"><title>Node7&#45;&gt;Node23</title>
<path fill="none" stroke="midnightblue" d="M299.658,-344.335C302.56,-342.692 305.358,-340.916 308,-339 329.876,-323.134 321.917,-305.576 344,-290 348.858,-286.573 354.212,-283.628 359.779,-281.099"/>
<polygon fill="midnightblue" stroke="midnightblue" points="298.025,-341.239 290.688,-348.882 301.19,-347.483 298.025,-341.239"/>
</g>
<!-- Node24 -->
<g id="node24" class="node"><title>Node24</title>
<g id="a_node24"><a xlink:href="class_terrain_geometry_manager.html#a3433648af8303236ea2d3435ab2b279b" target="_top" xlink:title="TerrainGeometryManager\l::initTerrain">
<polygon fill="white" stroke="black" points="361.5,-486 361.5,-516 488.5,-516 488.5,-486 361.5,-486"/>
<text text-anchor="start" x="369.5" y="-504" font-family="Helvetica,sans-Serif" font-size="10.00">TerrainGeometryManager</text>
<text text-anchor="middle" x="425" y="-493" font-family="Helvetica,sans-Serif" font-size="10.00">::initTerrain</text>
</a>
</g>
</g>
<!-- Node7&#45;&gt;Node24 -->
<g id="edge30" class="edge"><title>Node7&#45;&gt;Node24</title>
<path fill="none" stroke="midnightblue" d="M249.565,-387.348C269.741,-412.623 305.107,-452.467 344,-476 350.349,-479.842 357.344,-483.145 364.475,-485.972"/>
<polygon fill="midnightblue" stroke="midnightblue" points="252.244,-385.092 243.322,-379.379 246.734,-389.409 252.244,-385.092"/>
</g>
<!-- Node27 -->
<g id="node27" class="node"><title>Node27</title>
<g id="a_node27"><a xlink:href="class_terrain_object_manager.html#a45ccbf51f9c0ecac68927fed5e52eaa4" target="_top" xlink:title="TerrainObjectManager\l::loadObjectConfigFile">
<polygon fill="white" stroke="black" points="368.5,-437 368.5,-467 481.5,-467 481.5,-437 368.5,-437"/>
<text text-anchor="start" x="376.5" y="-455" font-family="Helvetica,sans-Serif" font-size="10.00">TerrainObjectManager</text>
<text text-anchor="middle" x="425" y="-444" font-family="Helvetica,sans-Serif" font-size="10.00">::loadObjectConfigFile</text>
</a>
</g>
</g>
<!-- Node7&#45;&gt;Node27 -->
<g id="edge34" class="edge"><title>Node7&#45;&gt;Node27</title>
<path fill="none" stroke="midnightblue" d="M268.035,-384.053C289.732,-395.774 318.088,-410.481 344,-422 355.792,-427.242 368.809,-432.386 380.856,-436.893"/>
<polygon fill="midnightblue" stroke="midnightblue" points="269.627,-380.934 259.17,-379.23 266.281,-387.083 269.627,-380.934"/>
</g>
<!-- Node9 -->
<g id="node9" class="node"><title>Node9</title>
<g id="a_node9"><a xlink:href="class_ro_r_frame_listener.html#aca3931d7a75f2ad4b9d36c4fcd03a3c9" target="_top" xlink:title="RoRFrameListener::SetupGameplayLoop">
<polygon fill="white" stroke="black" points="1160,-415.5 1160,-434.5 1356,-434.5 1356,-415.5 1160,-415.5"/>
<text text-anchor="middle" x="1258" y="-422.5" font-family="Helvetica,sans-Serif" font-size="10.00">RoRFrameListener::SetupGameplayLoop</text>
</a>
</g>
</g>
<!-- Node8&#45;&gt;Node9 -->
<g id="edge8" class="edge"><title>Node8&#45;&gt;Node9</title>
<path fill="none" stroke="midnightblue" d="M1128.36,-425C1138.76,-425 1149.42,-425 1159.95,-425"/>
<polygon fill="midnightblue" stroke="midnightblue" points="1128.07,-421.5 1118.07,-425 1128.07,-428.5 1128.07,-421.5"/>
</g>
<!-- Node10 -->
<g id="node10" class="node"><title>Node10</title>
<g id="a_node10"><a xlink:href="main_8cpp.html#a0ddf1224851353fc92bfbff6f499fa97" target="_top" xlink:title="main">
<polygon fill="white" stroke="black" points="1622,-268.5 1622,-287.5 1660,-287.5 1660,-268.5 1622,-268.5"/>
<text text-anchor="middle" x="1641" y="-275.5" font-family="Helvetica,sans-Serif" font-size="10.00">main</text>
</a>
</g>
</g>
<!-- Node9&#45;&gt;Node10 -->
<g id="edge9" class="edge"><title>Node9&#45;&gt;Node10</title>
<path fill="none" stroke="midnightblue" d="M1293.12,-411.834C1371.49,-381.598 1562.17,-308.029 1621.84,-285.007"/>
<polygon fill="midnightblue" stroke="midnightblue" points="1291.77,-408.603 1283.7,-415.468 1294.29,-415.134 1291.77,-408.603"/>
</g>
<!-- Node11 -->
<g id="node11" class="node"><title>Node11</title>
<g id="a_node11"><a xlink:href="main_8cpp.html#a2922bc5d5c2d77a3020cfbf9df12aab0" target="_top" xlink:title="WinMain">
<polygon fill="white" stroke="black" points="1696.5,-268.5 1696.5,-287.5 1751.5,-287.5 1751.5,-268.5 1696.5,-268.5"/>
<text text-anchor="middle" x="1724" y="-275.5" font-family="Helvetica,sans-Serif" font-size="10.00">WinMain</text>
</a>
</g>
</g>
<!-- Node10&#45;&gt;Node11 -->
<g id="edge10" class="edge"><title>Node10&#45;&gt;Node11</title>
<path fill="none" stroke="midnightblue" d="M1670.51,-278C1678.93,-278 1688.11,-278 1696.4,-278"/>
<polygon fill="midnightblue" stroke="midnightblue" points="1670.38,-274.5 1660.38,-278 1670.38,-281.5 1670.38,-274.5"/>
</g>
<!-- Node13 -->
<g id="node13" class="node"><title>Node13</title>
<g id="a_node13"><a xlink:href="class_ro_r_frame_listener.html#a9e239911ad148aa76c58202920090f76" target="_top" xlink:title="RoRFrameListener::EnterGameplayLoop">
<polygon fill="white" stroke="black" points="1392,-195.5 1392,-214.5 1586,-214.5 1586,-195.5 1392,-195.5"/>
<text text-anchor="middle" x="1489" y="-202.5" font-family="Helvetica,sans-Serif" font-size="10.00">RoRFrameListener::EnterGameplayLoop</text>
</a>
</g>
</g>
<!-- Node12&#45;&gt;Node13 -->
<g id="edge12" class="edge"><title>Node12&#45;&gt;Node13</title>
<path fill="none" stroke="midnightblue" d="M1120.75,-153.24C1206.13,-165.273 1340.12,-184.158 1420.47,-195.483"/>
<polygon fill="midnightblue" stroke="midnightblue" points="1121.23,-149.774 1110.84,-151.844 1120.26,-156.705 1121.23,-149.774"/>
</g>
<!-- Node13&#45;&gt;Node10 -->
<g id="edge13" class="edge"><title>Node13&#45;&gt;Node10</title>
<path fill="none" stroke="midnightblue" d="M1551.74,-217.289C1563.49,-220.845 1575.41,-225.346 1586,-231 1604.2,-240.716 1621.5,-257.594 1631.42,-268.26"/>
<polygon fill="midnightblue" stroke="midnightblue" points="1552.53,-213.873 1541.95,-214.518 1550.62,-220.608 1552.53,-213.873"/>
</g>
<!-- Node15 -->
<g id="node15" class="node"><title>Node15</title>
<g id="a_node15"><a xlink:href="class_cache_system.html#a37e784da57c57f56a428f61a53b4d618" target="_top" xlink:title="CacheSystem::generateCache">
<polygon fill="white" stroke="black" points="964.5,-268.5 964.5,-287.5 1115.5,-287.5 1115.5,-268.5 964.5,-268.5"/>
<text text-anchor="middle" x="1040" y="-275.5" font-family="Helvetica,sans-Serif" font-size="10.00">CacheSystem::generateCache</text>
</a>
</g>
</g>
<!-- Node14&#45;&gt;Node15 -->
<g id="edge15" class="edge"><title>Node14&#45;&gt;Node15</title>
<path fill="none" stroke="midnightblue" d="M914.551,-255.092C938.815,-259.558 965.057,-264.389 987.159,-268.457"/>
<polygon fill="midnightblue" stroke="midnightblue" points="915.119,-251.637 904.651,-253.269 913.852,-258.522 915.119,-251.637"/>
</g>
<!-- Node16 -->
<g id="node16" class="node"><title>Node16</title>
<g id="a_node16"><a xlink:href="class_cache_system.html#ae010322c2422bf8f8dbfce904257da31" target="_top" xlink:title="CacheSystem::Startup">
<polygon fill="white" stroke="black" points="1200,-268.5 1200,-287.5 1316,-287.5 1316,-268.5 1200,-268.5"/>
<text text-anchor="middle" x="1258" y="-275.5" font-family="Helvetica,sans-Serif" font-size="10.00">CacheSystem::Startup</text>
</a>
</g>
</g>
<!-- Node15&#45;&gt;Node16 -->
<g id="edge16" class="edge"><title>Node15&#45;&gt;Node16</title>
<path fill="none" stroke="midnightblue" d="M1125.78,-278C1150.58,-278 1177.09,-278 1199.75,-278"/>
<polygon fill="midnightblue" stroke="midnightblue" points="1125.64,-274.5 1115.64,-278 1125.64,-281.5 1125.64,-274.5"/>
</g>
<!-- Node16&#45;&gt;Node10 -->
<g id="edge17" class="edge"><title>Node16&#45;&gt;Node10</title>
<path fill="none" stroke="midnightblue" d="M1326.29,-279.379C1392.4,-280.505 1496.16,-281.663 1586,-280 1597.82,-279.781 1611.08,-279.293 1621.51,-278.854"/>
<polygon fill="midnightblue" stroke="midnightblue" points="1326.07,-275.874 1316.01,-279.199 1325.95,-282.873 1326.07,-275.874"/>
</g>
<!-- Node17 -->
<g id="node17" class="node"><title>Node17</title>
<g id="a_node17"><a xlink:href="class_ro_r_1_1_content_manager.html#a861b35694f428e463a800052ac0e9f90" target="_top" xlink:title="RoR::ContentManager\l::RegenCache">
<polygon fill="white" stroke="black" points="1431.5,-241 1431.5,-271 1546.5,-271 1546.5,-241 1431.5,-241"/>
<text text-anchor="start" x="1439.5" y="-259" font-family="Helvetica,sans-Serif" font-size="10.00">RoR::ContentManager</text>
<text text-anchor="middle" x="1489" y="-248" font-family="Helvetica,sans-Serif" font-size="10.00">::RegenCache</text>
</a>
</g>
</g>
<!-- Node16&#45;&gt;Node17 -->
<g id="edge18" class="edge"><title>Node16&#45;&gt;Node17</title>
<path fill="none" stroke="midnightblue" d="M1326.31,-271.534C1359.61,-268.334 1399.38,-264.514 1431.14,-261.463"/>
<polygon fill="midnightblue" stroke="midnightblue" points="1325.82,-268.065 1316.2,-272.505 1326.48,-275.033 1325.82,-268.065"/>
</g>
<!-- Node17&#45;&gt;Node10 -->
<g id="edge19" class="edge"><title>Node17&#45;&gt;Node10</title>
<path fill="none" stroke="midnightblue" d="M1556.79,-265.796C1580.53,-269.278 1605.39,-272.924 1621.68,-275.313"/>
<polygon fill="midnightblue" stroke="midnightblue" points="1557.11,-262.306 1546.71,-264.317 1556.09,-269.231 1557.11,-262.306"/>
</g>
<!-- Node19 -->
<g id="node19" class="node"><title>Node19</title>
<g id="a_node19"><a xlink:href="class_cache_system.html#a2f2307345ec188913271a4cc5220c1bb" target="_top" xlink:title="CacheSystem::loadAllZips">
<polygon fill="white" stroke="black" points="563.5,-305.5 563.5,-324.5 696.5,-324.5 696.5,-305.5 563.5,-305.5"/>
<text text-anchor="middle" x="630" y="-312.5" font-family="Helvetica,sans-Serif" font-size="10.00">CacheSystem::loadAllZips</text>
</a>
</g>
</g>
<!-- Node18&#45;&gt;Node19 -->
<g id="edge21" class="edge"><title>Node18&#45;&gt;Node19</title>
<path fill="none" stroke="midnightblue" d="M498.12,-346.592C528.884,-339.166 563.588,-330.789 589.527,-324.528"/>
<polygon fill="midnightblue" stroke="midnightblue" points="497.186,-343.217 488.286,-348.965 498.828,-350.021 497.186,-343.217"/>
</g>
<!-- Node19&#45;&gt;Node15 -->
<g id="edge22" class="edge"><title>Node19&#45;&gt;Node15</title>
<path fill="none" stroke="midnightblue" d="M706.667,-308.138C780.166,-301.473 891.089,-291.414 964.269,-284.777"/>
<polygon fill="midnightblue" stroke="midnightblue" points="706.195,-304.666 696.552,-309.055 706.828,-311.638 706.195,-304.666"/>
</g>
<!-- Node20&#45;&gt;Node19 -->
<g id="edge24" class="edge"><title>Node20&#45;&gt;Node19</title>
<path fill="none" stroke="midnightblue" d="M516.036,-315C531.951,-315 548.248,-315 563.333,-315"/>
<polygon fill="midnightblue" stroke="midnightblue" points="515.648,-311.5 505.648,-315 515.648,-318.5 515.648,-311.5"/>
</g>
<!-- Node22 -->
<g id="node22" class="node"><title>Node22</title>
<g id="a_node22"><a xlink:href="class_cache_system.html#ac30fff8eecfc197fc4ccca8c6cf06109" target="_top" xlink:title="CacheSystem::checkForNew\lContent">
<polygon fill="white" stroke="black" points="557,-226 557,-256 703,-256 703,-226 557,-226"/>
<text text-anchor="start" x="565" y="-244" font-family="Helvetica,sans-Serif" font-size="10.00">CacheSystem::checkForNew</text>
<text text-anchor="middle" x="630" y="-233" font-family="Helvetica,sans-Serif" font-size="10.00">Content</text>
</a>
</g>
</g>
<!-- Node21&#45;&gt;Node22 -->
<g id="edge26" class="edge"><title>Node21&#45;&gt;Node22</title>
<path fill="none" stroke="midnightblue" d="M508.073,-226.703C524.189,-228.609 540.983,-230.594 556.749,-232.458"/>
<polygon fill="midnightblue" stroke="midnightblue" points="508.484,-223.227 498.142,-225.529 507.662,-230.179 508.484,-223.227"/>
</g>
<!-- Node22&#45;&gt;Node14 -->
<g id="edge27" class="edge"><title>Node22&#45;&gt;Node14</title>
<path fill="none" stroke="midnightblue" d="M713.452,-241C731.966,-241 751.389,-241 769.174,-241"/>
<polygon fill="midnightblue" stroke="midnightblue" points="713.275,-237.5 703.275,-241 713.275,-244.5 713.275,-237.5"/>
</g>
<!-- Node23&#45;&gt;Node22 -->
<g id="edge29" class="edge"><title>Node23&#45;&gt;Node22</title>
<path fill="none" stroke="midnightblue" d="M508.073,-255.892C524.189,-253.908 540.983,-251.839 556.749,-249.898"/>
<polygon fill="midnightblue" stroke="midnightblue" points="507.639,-252.419 498.142,-257.116 508.495,-259.367 507.639,-252.419"/>
</g>
<!-- Node25 -->
<g id="node25" class="node"><title>Node25</title>
<g id="a_node25"><a xlink:href="class_terrain_geometry_manager.html#ac4467adecede14a9bf83a4bf871201d8" target="_top" xlink:title="TerrainGeometryManager\l::loadOgreTerrainConfig">
<polygon fill="white" stroke="black" points="566.5,-486 566.5,-516 693.5,-516 693.5,-486 566.5,-486"/>
<text text-anchor="start" x="574.5" y="-504" font-family="Helvetica,sans-Serif" font-size="10.00">TerrainGeometryManager</text>
<text text-anchor="middle" x="630" y="-493" font-family="Helvetica,sans-Serif" font-size="10.00">::loadOgreTerrainConfig</text>
</a>
</g>
</g>
<!-- Node24&#45;&gt;Node25 -->
<g id="edge31" class="edge"><title>Node24&#45;&gt;Node25</title>
<path fill="none" stroke="midnightblue" d="M498.578,-501C520.72,-501 544.865,-501 566.294,-501"/>
<polygon fill="midnightblue" stroke="midnightblue" points="498.563,-497.5 488.563,-501 498.563,-504.5 498.563,-497.5"/>
</g>
<!-- Node26 -->
<g id="node26" class="node"><title>Node26</title>
<g id="a_node26"><a xlink:href="class_terrain_manager.html#a9a04c837bf2ea6528c465b27ca62f730" target="_top" xlink:title="TerrainManager::loadTerrain">
<polygon fill="white" stroke="black" points="768,-442.5 768,-461.5 906,-461.5 906,-442.5 768,-442.5"/>
<text text-anchor="middle" x="837" y="-449.5" font-family="Helvetica,sans-Serif" font-size="10.00">TerrainManager::loadTerrain</text>
</a>
</g>
</g>
<!-- Node25&#45;&gt;Node26 -->
<g id="edge32" class="edge"><title>Node25&#45;&gt;Node26</title>
<path fill="none" stroke="midnightblue" d="M703.557,-483.657C734.649,-476.225 769.77,-467.831 796.029,-461.554"/>
<polygon fill="midnightblue" stroke="midnightblue" points="702.533,-480.303 693.621,-486.032 704.16,-487.111 702.533,-480.303"/>
</g>
<!-- Node26&#45;&gt;Node8 -->
<g id="edge33" class="edge"><title>Node26&#45;&gt;Node8</title>
<path fill="none" stroke="midnightblue" d="M916.055,-441.515C933.257,-439.204 951.383,-436.769 968.276,-434.5"/>
<polygon fill="midnightblue" stroke="midnightblue" points="915.494,-438.059 906.049,-442.859 916.426,-444.996 915.494,-438.059"/>
</g>
<!-- Node28 -->
<g id="node28" class="node"><title>Node28</title>
<g id="a_node28"><a xlink:href="class_terrain_manager.html#a4ad87b973cb6af52daaf530a5feff167" target="_top" xlink:title="TerrainManager::loadTerrain\lObjects">
<polygon fill="white" stroke="black" points="561,-437 561,-467 699,-467 699,-437 561,-437"/>
<text text-anchor="start" x="569" y="-455" font-family="Helvetica,sans-Serif" font-size="10.00">TerrainManager::loadTerrain</text>
<text text-anchor="middle" x="630" y="-444" font-family="Helvetica,sans-Serif" font-size="10.00">Objects</text>
</a>
</g>
</g>
<!-- Node27&#45;&gt;Node28 -->
<g id="edge35" class="edge"><title>Node27&#45;&gt;Node28</title>
<path fill="none" stroke="midnightblue" d="M491.984,-452C513.991,-452 538.547,-452 560.724,-452"/>
<polygon fill="midnightblue" stroke="midnightblue" points="491.739,-448.5 481.739,-452 491.739,-455.5 491.739,-448.5"/>
</g>
<!-- Node28&#45;&gt;Node26 -->
<g id="edge36" class="edge"><title>Node28&#45;&gt;Node26</title>
<path fill="none" stroke="midnightblue" d="M709.472,-452C728.653,-452 749.024,-452 767.687,-452"/>
<polygon fill="midnightblue" stroke="midnightblue" points="709.262,-448.5 699.262,-452 709.262,-455.5 709.262,-448.5"/>
</g>
<!-- Node30 -->
<g id="node30" class="node"><title>Node30</title>
<g id="a_node30"><a xlink:href="class_ro_r_1_1_main_menu.html#ab571dc971207c47c7bf6a0782c5d5eea" target="_top" xlink:title="RoR::MainMenu::LeaveMultiplayer\lServer">
<polygon fill="white" stroke="black" points="956.5,-488 956.5,-518 1123.5,-518 1123.5,-488 956.5,-488"/>
<text text-anchor="start" x="964.5" y="-506" font-family="Helvetica,sans-Serif" font-size="10.00">RoR::MainMenu::LeaveMultiplayer</text>
<text text-anchor="middle" x="1040" y="-495" font-family="Helvetica,sans-Serif" font-size="10.00">Server</text>
</a>
</g>
</g>
<!-- Node29&#45;&gt;Node30 -->
<g id="edge38" class="edge"><title>Node29&#45;&gt;Node30</title>
<path fill="none" stroke="midnightblue" d="M915.373,-513.456C928.834,-512.317 942.882,-511.129 956.475,-509.98"/>
<polygon fill="midnightblue" stroke="midnightblue" points="914.879,-509.985 905.21,-514.316 915.469,-516.96 914.879,-509.985"/>
</g>
<!-- Node30&#45;&gt;Node9 -->
<g id="edge39" class="edge"><title>Node30&#45;&gt;Node9</title>
<path fill="none" stroke="midnightblue" d="M1092.18,-484.517C1135.6,-468.84 1196.13,-446.981 1230.46,-434.584"/>
<polygon fill="midnightblue" stroke="midnightblue" points="1090.86,-481.272 1082.65,-487.961 1093.24,-487.856 1090.86,-481.272"/>
</g>
<!-- Node33 -->
<g id="node33" class="node"><title>Node33</title>
<g id="a_node33"><a xlink:href="class_ro_r_1_1_g_u_i_1_1_top_menubar.html#a70583f192ad3c430862d4e17afac2a2f" target="_top" xlink:title="RoR::GUI::TopMenubar\l::vehiclesListUpdate">
<polygon fill="white" stroke="black" points="364.5,-68 364.5,-98 485.5,-98 485.5,-68 364.5,-68"/>
<text text-anchor="start" x="372.5" y="-86" font-family="Helvetica,sans-Serif" font-size="10.00">RoR::GUI::TopMenubar</text>
<text text-anchor="middle" x="425" y="-75" font-family="Helvetica,sans-Serif" font-size="10.00">::vehiclesListUpdate</text>
</a>
</g>
</g>
<!-- Node32&#45;&gt;Node33 -->
<g id="edge42" class="edge"><title>Node32&#45;&gt;Node33</title>
<path fill="none" stroke="midnightblue" d="M277.721,-143.949C311.381,-129.925 356.53,-111.113 387.722,-98.1157"/>
<polygon fill="midnightblue" stroke="midnightblue" points="275.998,-140.876 268.114,-147.953 278.691,-147.337 275.998,-140.876"/>
</g>
<!-- Node34 -->
<g id="node34" class="node"><title>Node34</title>
<g id="a_node34"><a xlink:href="class_ro_r_1_1_g_u_i_1_1_top_menubar.html#a85cdceff2c0f1196726097bc04953567" target="_top" xlink:title="RoR::GUI::TopMenubar\l::updatePositionUponMousePosition">
<polygon fill="white" stroke="black" points="542.5,-52 542.5,-82 717.5,-82 717.5,-52 542.5,-52"/>
<text text-anchor="start" x="550.5" y="-70" font-family="Helvetica,sans-Serif" font-size="10.00">RoR::GUI::TopMenubar</text>
<text text-anchor="middle" x="630" y="-59" font-family="Helvetica,sans-Serif" font-size="10.00">::updatePositionUponMousePosition</text>
</a>
</g>
</g>
<!-- Node33&#45;&gt;Node34 -->
<g id="edge43" class="edge"><title>Node33&#45;&gt;Node34</title>
<path fill="none" stroke="midnightblue" d="M495.739,-77.5033C510.743,-76.3207 526.777,-75.057 542.335,-73.8308"/>
<polygon fill="midnightblue" stroke="midnightblue" points="495.229,-74.0326 485.535,-78.3076 495.779,-81.0109 495.229,-74.0326"/>
</g>
<!-- Node35 -->
<g id="node35" class="node"><title>Node35</title>
<g id="a_node35"><a xlink:href="class_g_u_i_input_manager.html#a2f52a8c0b01fca8c55a954bdb7d2ab79" target="_top" xlink:title="GUIInputManager::mouseMoved">
<polygon fill="white" stroke="black" points="758,-87.5 758,-106.5 916,-106.5 916,-87.5 758,-87.5"/>
<text text-anchor="middle" x="837" y="-94.5" font-family="Helvetica,sans-Serif" font-size="10.00">GUIInputManager::mouseMoved</text>
</a>
</g>
</g>
<!-- Node34&#45;&gt;Node35 -->
<g id="edge44" class="edge"><title>Node34&#45;&gt;Node35</title>
<path fill="none" stroke="midnightblue" d="M727.715,-81.1534C742.323,-83.2912 757.089,-85.452 770.819,-87.4614"/>
<polygon fill="midnightblue" stroke="midnightblue" points="728.043,-77.6642 717.641,-79.6792 727.029,-84.5904 728.043,-77.6642"/>
</g>
<!-- Node36 -->
<g id="node36" class="node"><title>Node36</title>
<g id="a_node36"><a xlink:href="class_g_u_i_input_manager.html#a2e10c3db1bd7068fc87476ce1cceb7c6" target="_top" xlink:title="GUIInputManager::mousePressed">
<polygon fill="white" stroke="black" points="754.5,-49.5 754.5,-68.5 919.5,-68.5 919.5,-49.5 754.5,-49.5"/>
<text text-anchor="middle" x="837" y="-56.5" font-family="Helvetica,sans-Serif" font-size="10.00">GUIInputManager::mousePressed</text>
</a>
</g>
</g>
<!-- Node34&#45;&gt;Node36 -->
<g id="edge45" class="edge"><title>Node34&#45;&gt;Node36</title>
<path fill="none" stroke="midnightblue" d="M727.645,-63.2285C736.541,-62.8813 745.495,-62.5319 754.239,-62.1907"/>
<polygon fill="midnightblue" stroke="midnightblue" points="727.497,-59.7315 717.641,-63.6189 727.77,-66.7262 727.497,-59.7315"/>
</g>
<!-- Node37 -->
<g id="node37" class="node"><title>Node37</title>
<g id="a_node37"><a xlink:href="class_ro_r_1_1_g_u_i_1_1_top_menubar.html#aba4f8b1030da3a9d3b4394562d60a05a" target="_top" xlink:title="RoR::GUI::TopMenubar\l::TopMenubar">
<polygon fill="white" stroke="black" points="776.5,-0 776.5,-30 897.5,-30 897.5,-0 776.5,-0"/>
<text text-anchor="start" x="784.5" y="-18" font-family="Helvetica,sans-Serif" font-size="10.00">RoR::GUI::TopMenubar</text>
<text text-anchor="middle" x="837" y="-7" font-family="Helvetica,sans-Serif" font-size="10.00">::TopMenubar</text>
</a>
</g>
</g>
<!-- Node34&#45;&gt;Node37 -->
<g id="edge46" class="edge"><title>Node34&#45;&gt;Node37</title>
<path fill="none" stroke="midnightblue" d="M700.045,-49.4862C724.962,-43.1656 752.843,-36.0936 776.839,-30.0068"/>
<polygon fill="midnightblue" stroke="midnightblue" points="699.127,-46.1081 690.294,-51.9594 700.848,-52.8932 699.127,-46.1081"/>
</g>
</g>
</svg>
