<?xml version="1.0" encoding="UTF-8" standalone="no"?>
<!DOCTYPE svg PUBLIC "-//W3C//DTD SVG 1.1//EN"
 "http://www.w3.org/Graphics/SVG/1.1/DTD/svg11.dtd">
<!-- Generated by graphviz version 2.36.0 (20140111.2315)
 -->
<!-- Title: ANSI_TO_UTF Pages: 1 -->
<svg width="860pt" height="355pt"
 viewBox="0.00 0.00 860.00 354.72" xmlns="http://www.w3.org/2000/svg" xmlns:xlink="http://www.w3.org/1999/xlink">
<g id="graph0" class="graph" transform="scale(1 1) rotate(0) translate(4 350.722)">
<title>ANSI_TO_UTF</title>
<polygon fill="white" stroke="none" points="-4,4 -4,-350.722 856,-350.722 856,4 -4,4"/>
<!-- Node1 -->
<g id="node1" class="node"><title>Node1</title>
<polygon fill="#bfbfbf" stroke="black" points="0,-152.5 0,-171.5 84,-171.5 84,-152.5 0,-152.5"/>
<text text-anchor="middle" x="42" y="-159.5" font-family="Helvetica,sans-Serif" font-size="10.00">ANSI_TO_UTF</text>
</g>
<!-- Node2 -->
<g id="node2" class="node"><title>Node2</title>
<g id="a_node2"><a xlink:href="namespace_ro_r_1_1_utils.html#ac62ee4a4a513a67cba1bdc7d9eb9c7a4" target="_top" xlink:title="RoR::Utils::SanitizeUtf8\lString">
<polygon fill="white" stroke="black" points="120.5,-147 120.5,-177 243.5,-177 243.5,-147 120.5,-147"/>
<text text-anchor="start" x="128.5" y="-165" font-family="Helvetica,sans-Serif" font-size="10.00">RoR::Utils::SanitizeUtf8</text>
<text text-anchor="middle" x="182" y="-154" font-family="Helvetica,sans-Serif" font-size="10.00">String</text>
</a>
</g>
</g>
<!-- Node1&#45;&gt;Node2 -->
<g id="edge1" class="edge"><title>Node1&#45;&gt;Node2</title>
<path fill="none" stroke="midnightblue" d="M84.0309,-162C92.3434,-162 101.308,-162 110.311,-162"/>
<polygon fill="midnightblue" stroke="midnightblue" points="110.459,-165.5 120.459,-162 110.459,-158.5 110.459,-165.5"/>
</g>
<!-- Node3 -->
<g id="node3" class="node"><title>Node3</title>
<g id="a_node3"><a xlink:href="namespaceutf8.html#a07dcd36a2185e5c9f0b19dd88859cd6c" target="_top" xlink:title="utf8::replace_invalid">
<polygon fill="white" stroke="black" points="280,-152.5 280,-171.5 384,-171.5 384,-152.5 280,-152.5"/>
<text text-anchor="middle" x="332" y="-159.5" font-family="Helvetica,sans-Serif" font-size="10.00">utf8::replace_invalid</text>
</a>
</g>
</g>
<!-- Node2&#45;&gt;Node3 -->
<g id="edge2" class="edge"><title>Node2&#45;&gt;Node3</title>
<path fill="none" stroke="midnightblue" d="M243.624,-162C252.137,-162 260.895,-162 269.425,-162"/>
<polygon fill="midnightblue" stroke="midnightblue" points="269.686,-165.5 279.686,-162 269.686,-158.5 269.686,-165.5"/>
</g>
<!-- Node4 -->
<g id="node4" class="node"><title>Node4</title>
<g id="a_node4"><a xlink:href="namespaceutf8_1_1internal.html#abe95547575fcc81911e381df03f8ebfe" target="_top" xlink:title="utf8::internal::validate_next">
<polygon fill="white" stroke="black" points="420,-152.5 420,-171.5 554,-171.5 554,-152.5 420,-152.5"/>
<text text-anchor="middle" x="487" y="-159.5" font-family="Helvetica,sans-Serif" font-size="10.00">utf8::internal::validate_next</text>
</a>
</g>
</g>
<!-- Node3&#45;&gt;Node4 -->
<g id="edge3" class="edge"><title>Node3&#45;&gt;Node4</title>
<path fill="none" stroke="midnightblue" d="M384.372,-162C392.546,-162 401.151,-162 409.751,-162"/>
<polygon fill="midnightblue" stroke="midnightblue" points="409.819,-165.5 419.819,-162 409.819,-158.5 409.819,-165.5"/>
</g>
<!-- Node14 -->
<g id="node14" class="node"><title>Node14</title>
<g id="a_node14"><a xlink:href="namespaceutf8.html#a3827e78596fc38cfdebd721e9c45c901" target="_top" xlink:title="The library API &#45; functions intended to be called by the users. ">
<polygon fill="white" stroke="black" points="451.5,-60.5 451.5,-79.5 522.5,-79.5 522.5,-60.5 451.5,-60.5"/>
<text text-anchor="middle" x="487" y="-67.5" font-family="Helvetica,sans-Serif" font-size="10.00">utf8::append</text>
</a>
</g>
</g>
<!-- Node3&#45;&gt;Node14 -->
<g id="edge17" class="edge"><title>Node3&#45;&gt;Node14</title>
<path fill="none" stroke="midnightblue" d="M349.085,-152.328C375.899,-136.204 429.904,-103.731 461.483,-84.7425"/>
<polygon fill="midnightblue" stroke="midnightblue" points="463.365,-87.6949 470.131,-79.5421 459.757,-81.6959 463.365,-87.6949"/>
</g>
<!-- Node15 -->
<g id="node15" class="node"><title>Node15</title>
<g id="a_node15"><a xlink:href="namespaceutf8_1_1internal.html#ab4820484159ba613b4901476ceb24516" target="_top" xlink:title="utf8::internal::is\l_trail">
<polygon fill="white" stroke="black" points="445,-264 445,-294 529,-294 529,-264 445,-264"/>
<text text-anchor="start" x="453" y="-282" font-family="Helvetica,sans-Serif" font-size="10.00">utf8::internal::is</text>
<text text-anchor="middle" x="487" y="-271" font-family="Helvetica,sans-Serif" font-size="10.00">_trail</text>
</a>
</g>
</g>
<!-- Node3&#45;&gt;Node15 -->
<g id="edge19" class="edge"><title>Node3&#45;&gt;Node15</title>
<path fill="none" stroke="midnightblue" d="M345.521,-171.575C369.996,-190.291 424.707,-232.129 458.171,-257.719"/>
<polygon fill="midnightblue" stroke="midnightblue" points="456.119,-260.556 466.189,-263.85 460.372,-254.996 456.119,-260.556"/>
</g>
<!-- Node5 -->
<g id="node5" class="node"><title>Node5</title>
<g id="a_node5"><a xlink:href="namespaceutf8_1_1internal.html#aadbe437cba7bfcc4df2638f633e9787c" target="_top" xlink:title="utf8::internal::sequence\l_length">
<polygon fill="white" stroke="black" points="590.5,-147 590.5,-177 709.5,-177 709.5,-147 590.5,-147"/>
<text text-anchor="start" x="598.5" y="-165" font-family="Helvetica,sans-Serif" font-size="10.00">utf8::internal::sequence</text>
<text text-anchor="middle" x="650" y="-154" font-family="Helvetica,sans-Serif" font-size="10.00">_length</text>
</a>
</g>
</g>
<!-- Node4&#45;&gt;Node5 -->
<g id="edge4" class="edge"><title>Node4&#45;&gt;Node5</title>
<path fill="none" stroke="midnightblue" d="M554.414,-162C563.006,-162 571.819,-162 580.444,-162"/>
<polygon fill="midnightblue" stroke="midnightblue" points="580.459,-165.5 590.459,-162 580.459,-158.5 580.459,-165.5"/>
</g>
<!-- Node7 -->
<g id="node7" class="node"><title>Node7</title>
<g id="a_node7"><a xlink:href="namespaceutf8_1_1internal.html#a6e5df73716136aec55e8fcf3309038b6" target="_top" xlink:title="get_sequence_x functions decode utf&#45;8 sequences of the length x ">
<polygon fill="white" stroke="black" points="605,-98 605,-128 695,-128 695,-98 605,-98"/>
<text text-anchor="start" x="613" y="-116" font-family="Helvetica,sans-Serif" font-size="10.00">utf8::internal::get</text>
<text text-anchor="middle" x="650" y="-105" font-family="Helvetica,sans-Serif" font-size="10.00">_sequence_1</text>
</a>
</g>
</g>
<!-- Node4&#45;&gt;Node7 -->
<g id="edge6" class="edge"><title>Node4&#45;&gt;Node7</title>
<path fill="none" stroke="midnightblue" d="M519.425,-152.436C540.914,-145.896 569.949,-137.059 595.087,-129.408"/>
<polygon fill="midnightblue" stroke="midnightblue" points="596.317,-132.693 604.865,-126.432 594.279,-125.996 596.317,-132.693"/>
</g>
<!-- Node8 -->
<g id="node8" class="node"><title>Node8</title>
<g id="a_node8"><a xlink:href="namespaceutf8_1_1internal.html#a9d641b9546be985f9f0fd4955ac42a24" target="_top" xlink:title="utf8::internal::get\l_sequence_2">
<polygon fill="white" stroke="black" points="605,-49 605,-79 695,-79 695,-49 605,-49"/>
<text text-anchor="start" x="613" y="-67" font-family="Helvetica,sans-Serif" font-size="10.00">utf8::internal::get</text>
<text text-anchor="middle" x="650" y="-56" font-family="Helvetica,sans-Serif" font-size="10.00">_sequence_2</text>
</a>
</g>
</g>
<!-- Node4&#45;&gt;Node8 -->
<g id="edge8" class="edge"><title>Node4&#45;&gt;Node8</title>
<path fill="none" stroke="midnightblue" d="M499.672,-152.332C518.054,-137.418 555.24,-108.488 590,-89 593.449,-87.0661 597.078,-85.1873 600.771,-83.3855"/>
<polygon fill="midnightblue" stroke="midnightblue" points="602.427,-86.4749 610.012,-79.0779 599.47,-80.1302 602.427,-86.4749"/>
</g>
<!-- Node9 -->
<g id="node9" class="node"><title>Node9</title>
<g id="a_node9"><a xlink:href="namespaceutf8_1_1internal.html#ac1809a1fb3fa6983d64a0d3a39646008" target="_top" xlink:title="utf8::internal::get\l_sequence_3">
<polygon fill="white" stroke="black" points="605,-294 605,-324 695,-324 695,-294 605,-294"/>
<text text-anchor="start" x="613" y="-312" font-family="Helvetica,sans-Serif" font-size="10.00">utf8::internal::get</text>
<text text-anchor="middle" x="650" y="-301" font-family="Helvetica,sans-Serif" font-size="10.00">_sequence_3</text>
</a>
</g>
</g>
<!-- Node4&#45;&gt;Node9 -->
<g id="edge10" class="edge"><title>Node4&#45;&gt;Node9</title>
<path fill="none" stroke="midnightblue" d="M493.719,-171.564C507.588,-194.035 545.189,-250.802 590,-284 592.346,-285.738 594.832,-287.383 597.404,-288.935"/>
<polygon fill="midnightblue" stroke="midnightblue" points="595.947,-292.128 606.4,-293.856 599.306,-285.987 595.947,-292.128"/>
</g>
<!-- Node10 -->
<g id="node10" class="node"><title>Node10</title>
<g id="a_node10"><a xlink:href="namespaceutf8_1_1internal.html#ad1958e7c6746ba6b1fbb0d81b88b346c" target="_top" xlink:title="utf8::internal::get\l_sequence_4">
<polygon fill="white" stroke="black" points="605,-196 605,-226 695,-226 695,-196 605,-196"/>
<text text-anchor="start" x="613" y="-214" font-family="Helvetica,sans-Serif" font-size="10.00">utf8::internal::get</text>
<text text-anchor="middle" x="650" y="-203" font-family="Helvetica,sans-Serif" font-size="10.00">_sequence_4</text>
</a>
</g>
</g>
<!-- Node4&#45;&gt;Node10 -->
<g id="edge12" class="edge"><title>Node4&#45;&gt;Node10</title>
<path fill="none" stroke="midnightblue" d="M519.425,-171.564C540.914,-178.104 569.949,-186.941 595.087,-194.592"/>
<polygon fill="midnightblue" stroke="midnightblue" points="594.279,-198.004 604.865,-197.568 596.317,-191.307 594.279,-198.004"/>
</g>
<!-- Node11 -->
<g id="node11" class="node"><title>Node11</title>
<g id="a_node11"><a xlink:href="namespaceutf8_1_1internal.html#a97b553137aaeda6e8ca6f8d46f78fd79" target="_top" xlink:title="utf8::internal::is\l_code_point_valid">
<polygon fill="white" stroke="black" points="602.5,-0 602.5,-30 697.5,-30 697.5,-0 602.5,-0"/>
<text text-anchor="start" x="610.5" y="-18" font-family="Helvetica,sans-Serif" font-size="10.00">utf8::internal::is</text>
<text text-anchor="middle" x="650" y="-7" font-family="Helvetica,sans-Serif" font-size="10.00">_code_point_valid</text>
</a>
</g>
</g>
<!-- Node4&#45;&gt;Node11 -->
<g id="edge14" class="edge"><title>Node4&#45;&gt;Node11</title>
<path fill="none" stroke="midnightblue" d="M497.325,-152.387C510.445,-138.708 534.888,-112.656 554,-89 571.209,-67.7 568.478,-55.9304 590,-39 591.597,-37.7437 593.269,-36.5441 594.996,-35.3995"/>
<polygon fill="midnightblue" stroke="midnightblue" points="597.145,-38.1973 604.01,-30.1276 593.611,-32.1548 597.145,-38.1973"/>
</g>
<!-- Node13 -->
<g id="node13" class="node"><title>Node13</title>
<g id="a_node13"><a xlink:href="namespaceutf8_1_1internal.html#a3160f6f24dff465f64f83cb0e66995c6" target="_top" xlink:title="utf8::internal::is\l_overlong_sequence">
<polygon fill="white" stroke="black" points="597,-245 597,-275 703,-275 703,-245 597,-245"/>
<text text-anchor="start" x="605" y="-263" font-family="Helvetica,sans-Serif" font-size="10.00">utf8::internal::is</text>
<text text-anchor="middle" x="650" y="-252" font-family="Helvetica,sans-Serif" font-size="10.00">_overlong_sequence</text>
</a>
</g>
</g>
<!-- Node4&#45;&gt;Node13 -->
<g id="edge16" class="edge"><title>Node4&#45;&gt;Node13</title>
<path fill="none" stroke="midnightblue" d="M499.672,-171.668C518.054,-186.582 555.24,-215.512 590,-235 593.449,-236.934 597.078,-238.813 600.771,-240.615"/>
<polygon fill="midnightblue" stroke="midnightblue" points="599.47,-243.87 610.012,-244.922 602.427,-237.525 599.47,-243.87"/>
</g>
<!-- Node6 -->
<g id="node6" class="node"><title>Node6</title>
<g id="a_node6"><a xlink:href="namespaceutf8_1_1internal.html#adf6e0469e279b9562aa461b4c3c1e7e4" target="_top" xlink:title="utf8::internal::mask8">
<polygon fill="white" stroke="black" points="746,-176.5 746,-195.5 852,-195.5 852,-176.5 746,-176.5"/>
<text text-anchor="middle" x="799" y="-183.5" font-family="Helvetica,sans-Serif" font-size="10.00">utf8::internal::mask8</text>
</a>
</g>
</g>
<!-- Node5&#45;&gt;Node6 -->
<g id="edge5" class="edge"><title>Node5&#45;&gt;Node6</title>
<path fill="none" stroke="midnightblue" d="M709.521,-171.554C718.153,-172.964 727.073,-174.42 735.776,-175.841"/>
<polygon fill="midnightblue" stroke="midnightblue" points="735.431,-179.331 745.865,-177.488 736.559,-172.422 735.431,-179.331"/>
</g>
<!-- Node7&#45;&gt;Node6 -->
<g id="edge7" class="edge"><title>Node7&#45;&gt;Node6</title>
<path fill="none" stroke="midnightblue" d="M688.074,-128.05C695.4,-131.208 702.988,-134.612 710,-138 731.551,-148.412 755.344,-161.49 772.751,-171.365"/>
<polygon fill="midnightblue" stroke="midnightblue" points="771.291,-174.562 781.71,-176.484 774.764,-168.484 771.291,-174.562"/>
</g>
<!-- Node8&#45;&gt;Node6 -->
<g id="edge9" class="edge"><title>Node8&#45;&gt;Node6</title>
<path fill="none" stroke="midnightblue" d="M692.845,-79.0282C698.833,-81.9386 704.739,-85.2646 710,-89 741.634,-111.46 770.192,-147.071 785.721,-168.325"/>
<polygon fill="midnightblue" stroke="midnightblue" points="782.886,-170.377 791.55,-176.474 788.579,-166.305 782.886,-170.377"/>
</g>
<!-- Node9&#45;&gt;Node6 -->
<g id="edge11" class="edge"><title>Node9&#45;&gt;Node6</title>
<path fill="none" stroke="midnightblue" d="M692.862,-293.996C698.848,-291.082 704.748,-287.749 710,-284 741.756,-261.332 770.273,-225.346 785.762,-203.865"/>
<polygon fill="midnightblue" stroke="midnightblue" points="788.668,-205.817 791.574,-195.628 782.948,-201.781 788.668,-205.817"/>
</g>
<!-- Node10&#45;&gt;Node6 -->
<g id="edge13" class="edge"><title>Node10&#45;&gt;Node6</title>
<path fill="none" stroke="midnightblue" d="M695.105,-203.499C707.967,-201.312 722.266,-198.88 736.015,-196.542"/>
<polygon fill="midnightblue" stroke="midnightblue" points="736.629,-199.988 745.9,-194.861 735.455,-193.087 736.629,-199.988"/>
</g>
<!-- Node12 -->
<g id="node12" class="node"><title>Node12</title>
<g id="a_node12"><a xlink:href="namespaceutf8_1_1internal.html#a31a185a6bc8b9bf454191a8a95a93595" target="_top" xlink:title="utf8::internal::is\l_surrogate">
<polygon fill="white" stroke="black" points="757,-0 757,-30 841,-30 841,-0 757,-0"/>
<text text-anchor="start" x="765" y="-18" font-family="Helvetica,sans-Serif" font-size="10.00">utf8::internal::is</text>
<text text-anchor="middle" x="799" y="-7" font-family="Helvetica,sans-Serif" font-size="10.00">_surrogate</text>
</a>
</g>
</g>
<!-- Node11&#45;&gt;Node12 -->
<g id="edge15" class="edge"><title>Node11&#45;&gt;Node12</title>
<path fill="none" stroke="midnightblue" d="M697.512,-15C713.106,-15 730.582,-15 746.532,-15"/>
<polygon fill="midnightblue" stroke="midnightblue" points="746.759,-18.5001 756.759,-15 746.759,-11.5001 746.759,-18.5001"/>
</g>
<!-- Node14&#45;&gt;Node11 -->
<g id="edge18" class="edge"><title>Node14&#45;&gt;Node11</title>
<path fill="none" stroke="midnightblue" d="M516.044,-60.4197C537.869,-52.964 568.806,-42.3956 595.346,-33.3291"/>
<polygon fill="midnightblue" stroke="midnightblue" points="596.568,-36.6102 604.9,-30.0654 594.305,-29.9861 596.568,-36.6102"/>
</g>
<!-- Node15&#45;&gt;Node6 -->
<g id="edge20" class="edge"><title>Node15&#45;&gt;Node6</title>
<path fill="none" stroke="midnightblue" d="M509.617,-294.06C551.042,-320.889 643.401,-370.752 710,-333 758.821,-305.326 783.479,-238.598 793.072,-205.413"/>
<polygon fill="midnightblue" stroke="midnightblue" points="796.507,-206.118 795.761,-195.55 789.754,-204.277 796.507,-206.118"/>
</g>
</g>
</svg>
