<?xml version="1.0" encoding="UTF-8" standalone="no"?>
<!DOCTYPE svg PUBLIC "-//W3C//DTD SVG 1.1//EN"
 "http://www.w3.org/Graphics/SVG/1.1/DTD/svg11.dtd">
<!-- Generated by graphviz version 2.36.0 (20140111.2315)
 -->
<!-- Title: convertFromMyGUIString Pages: 1 -->
<svg width="484pt" height="38pt"
 viewBox="0.00 0.00 484.00 38.00" xmlns="http://www.w3.org/2000/svg" xmlns:xlink="http://www.w3.org/1999/xlink">
<g id="graph0" class="graph" transform="scale(1 1) rotate(0) translate(4 34)">
<title>convertFromMyGUIString</title>
<polygon fill="white" stroke="none" points="-4,4 -4,-34 480,-34 480,4 -4,4"/>
<!-- Node1 -->
<g id="node1" class="node"><title>Node1</title>
<polygon fill="#bfbfbf" stroke="black" points="0,-5.5 0,-24.5 128,-24.5 128,-5.5 0,-5.5"/>
<text text-anchor="middle" x="64" y="-12.5" font-family="Helvetica,sans-Serif" font-size="10.00">convertFromMyGUIString</text>
</g>
<!-- Node2 -->
<g id="node2" class="node"><title>Node2</title>
<g id="a_node2"><a xlink:href="class_ro_r_1_1_console.html#a39381023fb19b10edfad9592ce2e1554" target="_top" xlink:title="RoR::Console::eventCommand\lAccept">
<polygon fill="white" stroke="black" points="164,-0 164,-30 318,-30 318,-0 164,-0"/>
<text text-anchor="start" x="172" y="-18" font-family="Helvetica,sans-Serif" font-size="10.00">RoR::Console::eventCommand</text>
<text text-anchor="middle" x="241" y="-7" font-family="Helvetica,sans-Serif" font-size="10.00">Accept</text>
</a>
</g>
</g>
<!-- Node1&#45;&gt;Node2 -->
<g id="edge1" class="edge"><title>Node1&#45;&gt;Node2</title>
<path fill="none" stroke="midnightblue" d="M138.33,-15C146.742,-15 155.334,-15 163.783,-15"/>
<polygon fill="midnightblue" stroke="midnightblue" points="138.179,-11.5001 128.179,-15 138.179,-18.5001 138.179,-11.5001"/>
</g>
<!-- Node3 -->
<g id="node3" class="node"><title>Node3</title>
<g id="a_node3"><a xlink:href="class_ro_r_1_1_console.html#aba16cfd9f0894eb1312b1bc1155b6646" target="_top" xlink:title="RoR::Console::Console">
<polygon fill="white" stroke="black" points="354.5,-5.5 354.5,-24.5 475.5,-24.5 475.5,-5.5 354.5,-5.5"/>
<text text-anchor="middle" x="415" y="-12.5" font-family="Helvetica,sans-Serif" font-size="10.00">RoR::Console::Console</text>
</a>
</g>
</g>
<!-- Node2&#45;&gt;Node3 -->
<g id="edge2" class="edge"><title>Node2&#45;&gt;Node3</title>
<path fill="none" stroke="midnightblue" d="M328.469,-15C337.239,-15 346.002,-15 354.394,-15"/>
<polygon fill="midnightblue" stroke="midnightblue" points="328.193,-11.5001 318.193,-15 328.193,-18.5001 328.193,-11.5001"/>
</g>
</g>
</svg>
