<?xml version="1.0" encoding="UTF-8" standalone="no"?>
<!DOCTYPE svg PUBLIC "-//W3C//DTD SVG 1.1//EN"
 "http://www.w3.org/Graphics/SVG/1.1/DTD/svg11.dtd">
<!-- Generated by graphviz version 2.36.0 (20140111.2315)
 -->
<!-- Title: Hydrax::Module::ProjectedGrid::update Pages: 1 -->
<svg width="710pt" height="683pt"
 viewBox="0.00 0.00 710.00 683.00" xmlns="http://www.w3.org/2000/svg" xmlns:xlink="http://www.w3.org/1999/xlink">
<g id="graph0" class="graph" transform="scale(1 1) rotate(0) translate(4 679)">
<title>Hydrax::Module::ProjectedGrid::update</title>
<polygon fill="white" stroke="none" points="-4,4 -4,-679 706,-679 706,4 -4,4"/>
<!-- Node1 -->
<g id="node1" class="node"><title>Node1</title>
<polygon fill="#bfbfbf" stroke="black" points="0.5,-322 0.5,-352 133.5,-352 133.5,-322 0.5,-322"/>
<text text-anchor="start" x="8.5" y="-340" font-family="Helvetica,sans-Serif" font-size="10.00">Hydrax::Module::Projected</text>
<text text-anchor="middle" x="67" y="-329" font-family="Helvetica,sans-Serif" font-size="10.00">Grid::update</text>
</g>
<!-- Node2 -->
<g id="node2" class="node"><title>Node2</title>
<g id="a_node2"><a xlink:href="class_hydrax_1_1_module_1_1_module.html#a66097127eb529786f7384b4d39d9e43e" target="_top" xlink:title="Hydrax::Module::Module\l::isCreated">
<polygon fill="white" stroke="black" points="187.5,-645 187.5,-675 310.5,-675 310.5,-645 187.5,-645"/>
<text text-anchor="start" x="195.5" y="-663" font-family="Helvetica,sans-Serif" font-size="10.00">Hydrax::Module::Module</text>
<text text-anchor="middle" x="249" y="-652" font-family="Helvetica,sans-Serif" font-size="10.00">::isCreated</text>
</a>
</g>
</g>
<!-- Node1&#45;&gt;Node2 -->
<g id="edge1" class="edge"><title>Node1&#45;&gt;Node2</title>
<path fill="none" stroke="midnightblue" d="M68.6079,-352.154C71.3782,-400.592 86.6412,-553.26 170,-635 172.565,-637.515 175.384,-639.778 178.381,-641.813"/>
<polygon fill="midnightblue" stroke="midnightblue" points="176.834,-644.962 187.238,-646.966 180.355,-638.912 176.834,-644.962"/>
</g>
<!-- Node3 -->
<g id="node3" class="node"><title>Node3</title>
<g id="a_node3"><a xlink:href="class_hydrax_1_1_module_1_1_module.html#a2042d450f99d9348fa4b7bd29ba89df3" target="_top" xlink:title="Hydrax::Module::Module\l::update">
<polygon fill="white" stroke="black" points="187.5,-596 187.5,-626 310.5,-626 310.5,-596 187.5,-596"/>
<text text-anchor="start" x="195.5" y="-614" font-family="Helvetica,sans-Serif" font-size="10.00">Hydrax::Module::Module</text>
<text text-anchor="middle" x="249" y="-603" font-family="Helvetica,sans-Serif" font-size="10.00">::update</text>
</a>
</g>
</g>
<!-- Node1&#45;&gt;Node3 -->
<g id="edge2" class="edge"><title>Node1&#45;&gt;Node3</title>
<path fill="none" stroke="midnightblue" d="M70.1405,-352.194C76.8613,-394.391 101.342,-514.29 170,-581 173.805,-584.697 178.114,-587.949 182.705,-590.809"/>
<polygon fill="midnightblue" stroke="midnightblue" points="181.378,-594.075 191.825,-595.839 184.759,-587.945 181.378,-594.075"/>
</g>
<!-- Node5 -->
<g id="node5" class="node"><title>Node5</title>
<g id="a_node5"><a xlink:href="class_hydrax_1_1_hydrax.html#a011da649ae072cce9c6db28620b67a42" target="_top" xlink:title="Hydrax::Hydrax::getPosition">
<polygon fill="white" stroke="black" points="376,-557.5 376,-576.5 516,-576.5 516,-557.5 376,-557.5"/>
<text text-anchor="middle" x="446" y="-564.5" font-family="Helvetica,sans-Serif" font-size="10.00">Hydrax::Hydrax::getPosition</text>
</a>
</g>
</g>
<!-- Node1&#45;&gt;Node5 -->
<g id="edge4" class="edge"><title>Node1&#45;&gt;Node5</title>
<path fill="none" stroke="midnightblue" d="M70.1947,-352.251C76.8381,-392.201 100.715,-500.044 170,-547 235.272,-591.237 330.401,-586.826 389.941,-578.057"/>
<polygon fill="midnightblue" stroke="midnightblue" points="390.565,-581.502 399.904,-576.5 389.484,-574.586 390.565,-581.502"/>
</g>
<!-- Node6 -->
<g id="node6" class="node"><title>Node6</title>
<g id="a_node6"><a xlink:href="class_hydrax_1_1_hydrax.html#a1940a144c486915885ed19026839d381" target="_top" xlink:title="Hydrax::Hydrax::getMesh">
<polygon fill="white" stroke="black" points="184.5,-469.5 184.5,-488.5 313.5,-488.5 313.5,-469.5 184.5,-469.5"/>
<text text-anchor="middle" x="249" y="-476.5" font-family="Helvetica,sans-Serif" font-size="10.00">Hydrax::Hydrax::getMesh</text>
</a>
</g>
</g>
<!-- Node1&#45;&gt;Node6 -->
<g id="edge5" class="edge"><title>Node1&#45;&gt;Node6</title>
<path fill="none" stroke="midnightblue" d="M76.1671,-352.154C91.1325,-378.41 125.541,-432.207 170,-460 173.425,-462.141 177.075,-464.041 180.854,-465.727"/>
<polygon fill="midnightblue" stroke="midnightblue" points="179.874,-469.102 190.461,-469.492 182.428,-462.585 179.874,-469.102"/>
</g>
<!-- Node7 -->
<g id="node7" class="node"><title>Node7</title>
<g id="a_node7"><a xlink:href="class_hydrax_1_1_mesh.html#a92e7428d77bbc71b852a62a92ca882f5" target="_top" xlink:title="Hydrax::Mesh::getSceneNode">
<polygon fill="white" stroke="black" points="174.5,-431.5 174.5,-450.5 323.5,-450.5 323.5,-431.5 174.5,-431.5"/>
<text text-anchor="middle" x="249" y="-438.5" font-family="Helvetica,sans-Serif" font-size="10.00">Hydrax::Mesh::getSceneNode</text>
</a>
</g>
</g>
<!-- Node1&#45;&gt;Node7 -->
<g id="edge6" class="edge"><title>Node1&#45;&gt;Node7</title>
<path fill="none" stroke="midnightblue" d="M81.6668,-352.02C99.9332,-371.168 134.183,-403.948 170,-422 174.627,-424.332 179.554,-426.387 184.597,-428.197"/>
<polygon fill="midnightblue" stroke="midnightblue" points="183.799,-431.617 194.391,-431.383 185.964,-424.961 183.799,-431.617"/>
</g>
<!-- Node8 -->
<g id="node8" class="node"><title>Node8</title>
<g id="a_node8"><a xlink:href="class_hydrax_1_1_hydrax.html#a86b446e4a8fdb64e71b3f3f71ea2f68a" target="_top" xlink:title="Hydrax::Hydrax::getRttManager">
<polygon fill="white" stroke="black" points="171,-393.5 171,-412.5 327,-412.5 327,-393.5 171,-393.5"/>
<text text-anchor="middle" x="249" y="-400.5" font-family="Helvetica,sans-Serif" font-size="10.00">Hydrax::Hydrax::getRttManager</text>
</a>
</g>
</g>
<!-- Node1&#45;&gt;Node8 -->
<g id="edge7" class="edge"><title>Node1&#45;&gt;Node8</title>
<path fill="none" stroke="midnightblue" d="M97.7915,-352.083C117.841,-361.82 145.07,-374.256 170,-383 178.059,-385.827 186.714,-388.443 195.222,-390.789"/>
<polygon fill="midnightblue" stroke="midnightblue" points="194.533,-394.227 205.096,-393.415 196.331,-387.463 194.533,-394.227"/>
</g>
<!-- Node9 -->
<g id="node9" class="node"><title>Node9</title>
<g id="a_node9"><a xlink:href="class_hydrax_1_1_rtt_manager.html#a2c97d4371d854526fb5ffdc37a40a595" target="_top" xlink:title="Hydrax::RttManager\l::getPlanesSceneNode">
<polygon fill="white" stroke="black" points="190.5,-344 190.5,-374 307.5,-374 307.5,-344 190.5,-344"/>
<text text-anchor="start" x="198.5" y="-362" font-family="Helvetica,sans-Serif" font-size="10.00">Hydrax::RttManager</text>
<text text-anchor="middle" x="249" y="-351" font-family="Helvetica,sans-Serif" font-size="10.00">::getPlanesSceneNode</text>
</a>
</g>
</g>
<!-- Node1&#45;&gt;Node9 -->
<g id="edge8" class="edge"><title>Node1&#45;&gt;Node9</title>
<path fill="none" stroke="midnightblue" d="M133.748,-345.036C148.844,-346.881 164.923,-348.846 180.108,-350.702"/>
<polygon fill="midnightblue" stroke="midnightblue" points="180.103,-354.227 190.454,-351.967 180.952,-347.279 180.103,-354.227"/>
</g>
<!-- Node10 -->
<g id="node10" class="node"><title>Node10</title>
<g id="a_node10"><a xlink:href="class_hydrax_1_1_hydrax.html#a86467f51a5b69343a97ff6536c922929" target="_top" xlink:title="Hydrax::Hydrax::setSunPosition">
<polygon fill="white" stroke="black" points="170,-305.5 170,-324.5 328,-324.5 328,-305.5 170,-305.5"/>
<text text-anchor="middle" x="249" y="-312.5" font-family="Helvetica,sans-Serif" font-size="10.00">Hydrax::Hydrax::setSunPosition</text>
</a>
</g>
</g>
<!-- Node1&#45;&gt;Node10 -->
<g id="edge9" class="edge"><title>Node1&#45;&gt;Node10</title>
<path fill="none" stroke="midnightblue" d="M133.748,-328.964C142.358,-327.912 151.289,-326.82 160.19,-325.732"/>
<polygon fill="midnightblue" stroke="midnightblue" points="160.708,-329.195 170.21,-324.508 159.859,-322.247 160.708,-329.195"/>
</g>
<!-- Node11 -->
<g id="node11" class="node"><title>Node11</title>
<g id="a_node11"><a xlink:href="class_hydrax_1_1_hydrax.html#a6391180e70faf46ee681466620a85f4d" target="_top" xlink:title="Hydrax::Hydrax::getSunPosition">
<polygon fill="white" stroke="black" points="170,-267.5 170,-286.5 328,-286.5 328,-267.5 170,-267.5"/>
<text text-anchor="middle" x="249" y="-274.5" font-family="Helvetica,sans-Serif" font-size="10.00">Hydrax::Hydrax::getSunPosition</text>
</a>
</g>
</g>
<!-- Node1&#45;&gt;Node11 -->
<g id="edge10" class="edge"><title>Node1&#45;&gt;Node11</title>
<path fill="none" stroke="midnightblue" d="M102.017,-321.902C121.638,-313.556 146.921,-303.407 170,-296 177.736,-293.517 185.994,-291.18 194.135,-289.05"/>
<polygon fill="midnightblue" stroke="midnightblue" points="195.129,-292.409 203.963,-286.56 193.41,-285.623 195.129,-292.409"/>
</g>
<!-- Node12 -->
<g id="node12" class="node"><title>Node12</title>
<g id="a_node12"><a xlink:href="class_hydrax_1_1_module_1_1_projected_grid.html#a985d7ed255ac6d289f12b07a50f12eac" target="_top" xlink:title="Hydrax::Module::Projected\lGrid::_getMinMax">
<polygon fill="white" stroke="black" points="182.5,-508 182.5,-538 315.5,-538 315.5,-508 182.5,-508"/>
<text text-anchor="start" x="190.5" y="-526" font-family="Helvetica,sans-Serif" font-size="10.00">Hydrax::Module::Projected</text>
<text text-anchor="middle" x="249" y="-515" font-family="Helvetica,sans-Serif" font-size="10.00">Grid::_getMinMax</text>
</a>
</g>
</g>
<!-- Node1&#45;&gt;Node12 -->
<g id="edge11" class="edge"><title>Node1&#45;&gt;Node12</title>
<path fill="none" stroke="midnightblue" d="M73.5386,-352.36C85.8271,-384.282 118.43,-458.131 170,-498 172.32,-499.794 174.773,-501.461 177.322,-503.01"/>
<polygon fill="midnightblue" stroke="midnightblue" points="175.839,-506.186 186.305,-507.835 179.151,-500.02 175.839,-506.186"/>
</g>
<!-- Node14 -->
<g id="node14" class="node"><title>Node14</title>
<g id="a_node14"><a xlink:href="class_hydrax_1_1_module_1_1_projected_grid.html#af39d939aed099aa3b91010a4ed824dbf" target="_top" xlink:title="Hydrax::Module::Projected\lGrid::_renderGeometry">
<polygon fill="white" stroke="black" points="182.5,-142 182.5,-172 315.5,-172 315.5,-142 182.5,-142"/>
<text text-anchor="start" x="190.5" y="-160" font-family="Helvetica,sans-Serif" font-size="10.00">Hydrax::Module::Projected</text>
<text text-anchor="middle" x="249" y="-149" font-family="Helvetica,sans-Serif" font-size="10.00">Grid::_renderGeometry</text>
</a>
</g>
</g>
<!-- Node1&#45;&gt;Node14 -->
<g id="edge14" class="edge"><title>Node1&#45;&gt;Node14</title>
<path fill="none" stroke="midnightblue" d="M74.6266,-321.546C88.2353,-291.528 122.128,-224.958 170,-187 174.999,-183.037 180.581,-179.55 186.4,-176.492"/>
<polygon fill="midnightblue" stroke="midnightblue" points="188.186,-179.517 195.687,-172.035 185.157,-173.207 188.186,-179.517"/>
</g>
<!-- Node16 -->
<g id="node16" class="node"><title>Node16</title>
<g id="a_node16"><a xlink:href="class_hydrax_1_1_module_1_1_module.html#af5cfbabb783d9ded22f30f779c83c1c4" target="_top" xlink:title="Hydrax::Module::Module\l::getNormalMode">
<polygon fill="white" stroke="black" points="571.5,-164 571.5,-194 694.5,-194 694.5,-164 571.5,-164"/>
<text text-anchor="start" x="579.5" y="-182" font-family="Helvetica,sans-Serif" font-size="10.00">Hydrax::Module::Module</text>
<text text-anchor="middle" x="633" y="-171" font-family="Helvetica,sans-Serif" font-size="10.00">::getNormalMode</text>
</a>
</g>
</g>
<!-- Node1&#45;&gt;Node16 -->
<g id="edge24" class="edge"><title>Node1&#45;&gt;Node16</title>
<path fill="none" stroke="midnightblue" d="M81.845,-321.953C100.042,-303.292 133.95,-272.209 170,-258 318.655,-199.406 373.348,-265.178 528,-225 551.318,-218.942 576.037,-208.207 595.523,-198.63"/>
<polygon fill="midnightblue" stroke="midnightblue" points="597.277,-201.666 604.64,-194.048 594.133,-195.412 597.277,-201.666"/>
</g>
<!-- Node17 -->
<g id="node17" class="node"><title>Node17</title>
<g id="a_node17"><a xlink:href="class_hydrax_1_1_noise_1_1_noise.html#a5b18138d5c2c5ea3c3659cef80dd3a3e" target="_top" xlink:title="Hydrax::Noise::Noise\l::getValue">
<polygon fill="white" stroke="black" points="390.5,-0 390.5,-30 501.5,-30 501.5,-0 390.5,-0"/>
<text text-anchor="start" x="398.5" y="-18" font-family="Helvetica,sans-Serif" font-size="10.00">Hydrax::Noise::Noise</text>
<text text-anchor="middle" x="446" y="-7" font-family="Helvetica,sans-Serif" font-size="10.00">::getValue</text>
</a>
</g>
</g>
<!-- Node1&#45;&gt;Node17 -->
<g id="edge25" class="edge"><title>Node1&#45;&gt;Node17</title>
<path fill="none" stroke="midnightblue" d="M69.4125,-321.907C74.3384,-278.335 94.8013,-151.476 170,-89 225.179,-43.1569 259.985,-78.8072 328,-56 344.776,-50.3746 347.469,-45.3096 364,-39 369.355,-36.9562 374.962,-34.9771 380.62,-33.0906"/>
<polygon fill="midnightblue" stroke="midnightblue" points="381.716,-36.4147 390.155,-30.0081 379.563,-29.7541 381.716,-36.4147"/>
</g>
<!-- Node18 -->
<g id="node18" class="node"><title>Node18</title>
<g id="a_node18"><a xlink:href="class_hydrax_1_1_module_1_1_projected_grid.html#a669e8104c6ca9f93bf8bfb1a10165e29" target="_top" xlink:title="Hydrax::Module::Projected\lGrid::_calculeNormals">
<polygon fill="white" stroke="black" points="379.5,-186 379.5,-216 512.5,-216 512.5,-186 379.5,-186"/>
<text text-anchor="start" x="387.5" y="-204" font-family="Helvetica,sans-Serif" font-size="10.00">Hydrax::Module::Projected</text>
<text text-anchor="middle" x="446" y="-193" font-family="Helvetica,sans-Serif" font-size="10.00">Grid::_calculeNormals</text>
</a>
</g>
</g>
<!-- Node1&#45;&gt;Node18 -->
<g id="edge26" class="edge"><title>Node1&#45;&gt;Node18</title>
<path fill="none" stroke="midnightblue" d="M76.6293,-321.731C91.8138,-296.521 125.923,-246.815 170,-225 232.096,-194.268 311.759,-190.592 369.345,-193.215"/>
<polygon fill="midnightblue" stroke="midnightblue" points="369.299,-196.717 379.47,-193.751 369.669,-189.727 369.299,-196.717"/>
</g>
<!-- Node19 -->
<g id="node19" class="node"><title>Node19</title>
<g id="a_node19"><a xlink:href="class_hydrax_1_1_module_1_1_projected_grid.html#a38bbbb56e20cbbc4346b42b2e6a62126" target="_top" xlink:title="Hydrax::Module::Projected\lGrid::_performChoppyWaves">
<polygon fill="white" stroke="black" points="374.5,-49 374.5,-79 517.5,-79 517.5,-49 374.5,-49"/>
<text text-anchor="start" x="382.5" y="-67" font-family="Helvetica,sans-Serif" font-size="10.00">Hydrax::Module::Projected</text>
<text text-anchor="middle" x="446" y="-56" font-family="Helvetica,sans-Serif" font-size="10.00">Grid::_performChoppyWaves</text>
</a>
</g>
</g>
<!-- Node1&#45;&gt;Node19 -->
<g id="edge27" class="edge"><title>Node1&#45;&gt;Node19</title>
<path fill="none" stroke="midnightblue" d="M70.9611,-321.903C79.2585,-283.766 106.417,-182.972 170,-132 177.912,-125.657 289.793,-99.2582 368.381,-81.2812"/>
<polygon fill="midnightblue" stroke="midnightblue" points="369.301,-84.6613 378.271,-79.023 367.742,-77.8369 369.301,-84.6613"/>
</g>
<!-- Node21 -->
<g id="node21" class="node"><title>Node21</title>
<g id="a_node21"><a xlink:href="class_hydrax_1_1_mesh.html#a7eecc57d699ca2c4eadbcfd9db584f7a" target="_top" xlink:title="Hydrax::Mesh::updateGeometry">
<polygon fill="white" stroke="black" points="171,-27.5 171,-46.5 327,-46.5 327,-27.5 171,-27.5"/>
<text text-anchor="middle" x="249" y="-34.5" font-family="Helvetica,sans-Serif" font-size="10.00">Hydrax::Mesh::updateGeometry</text>
</a>
</g>
</g>
<!-- Node1&#45;&gt;Node21 -->
<g id="edge23" class="edge"><title>Node1&#45;&gt;Node21</title>
<path fill="none" stroke="midnightblue" d="M69.0315,-321.938C73.0052,-275.862 91.3262,-135.424 170,-61 174.286,-56.9456 179.241,-53.5752 184.535,-50.7735"/>
<polygon fill="midnightblue" stroke="midnightblue" points="186.069,-53.9205 193.704,-46.5751 183.155,-47.5559 186.069,-53.9205"/>
</g>
<!-- Node4 -->
<g id="node4" class="node"><title>Node4</title>
<g id="a_node4"><a xlink:href="class_hydrax_1_1_noise_1_1_noise.html#a9c32c4c630f193e034c074f69ea10f57" target="_top" xlink:title="Hydrax::Noise::Noise\l::update">
<polygon fill="white" stroke="black" points="390.5,-596 390.5,-626 501.5,-626 501.5,-596 390.5,-596"/>
<text text-anchor="start" x="398.5" y="-614" font-family="Helvetica,sans-Serif" font-size="10.00">Hydrax::Noise::Noise</text>
<text text-anchor="middle" x="446" y="-603" font-family="Helvetica,sans-Serif" font-size="10.00">::update</text>
</a>
</g>
</g>
<!-- Node3&#45;&gt;Node4 -->
<g id="edge3" class="edge"><title>Node3&#45;&gt;Node4</title>
<path fill="none" stroke="midnightblue" d="M310.63,-611C332.736,-611 357.806,-611 380.256,-611"/>
<polygon fill="midnightblue" stroke="midnightblue" points="380.366,-614.5 390.366,-611 380.366,-607.5 380.366,-614.5"/>
</g>
<!-- Node12&#45;&gt;Node5 -->
<g id="edge13" class="edge"><title>Node12&#45;&gt;Node5</title>
<path fill="none" stroke="midnightblue" d="M315.746,-537.835C340.9,-543.511 369.22,-549.901 392.925,-555.25"/>
<polygon fill="midnightblue" stroke="midnightblue" points="392.255,-558.686 402.78,-557.473 393.796,-551.858 392.255,-558.686"/>
</g>
<!-- Node13 -->
<g id="node13" class="node"><title>Node13</title>
<g id="a_node13"><a xlink:href="class_hydrax_1_1_module_1_1_projected_grid.html#a98bb5ea45049daaae40ce013255b8b41" target="_top" xlink:title="Hydrax::Module::Projected\lGrid::_setDisplacementAmplitude">
<polygon fill="white" stroke="black" points="364.5,-508 364.5,-538 527.5,-538 527.5,-508 364.5,-508"/>
<text text-anchor="start" x="372.5" y="-526" font-family="Helvetica,sans-Serif" font-size="10.00">Hydrax::Module::Projected</text>
<text text-anchor="middle" x="446" y="-515" font-family="Helvetica,sans-Serif" font-size="10.00">Grid::_setDisplacementAmplitude</text>
</a>
</g>
</g>
<!-- Node12&#45;&gt;Node13 -->
<g id="edge12" class="edge"><title>Node12&#45;&gt;Node13</title>
<path fill="none" stroke="midnightblue" d="M315.746,-523C328.048,-523 341.106,-523 354.012,-523"/>
<polygon fill="midnightblue" stroke="midnightblue" points="354.312,-526.5 364.312,-523 354.312,-519.5 354.312,-526.5"/>
</g>
<!-- Node15 -->
<g id="node15" class="node"><title>Node15</title>
<g id="a_node15"><a xlink:href="class_hydrax_1_1_module_1_1_projected_grid.html#aef24e4054bbfa3f70b474c4c35708412" target="_top" xlink:title="Hydrax::Module::Projected\lGrid::_calculeWorldPosition">
<polygon fill="white" stroke="black" points="377.5,-98 377.5,-128 514.5,-128 514.5,-98 377.5,-98"/>
<text text-anchor="start" x="385.5" y="-116" font-family="Helvetica,sans-Serif" font-size="10.00">Hydrax::Module::Projected</text>
<text text-anchor="middle" x="446" y="-105" font-family="Helvetica,sans-Serif" font-size="10.00">Grid::_calculeWorldPosition</text>
</a>
</g>
</g>
<!-- Node14&#45;&gt;Node15 -->
<g id="edge15" class="edge"><title>Node14&#45;&gt;Node15</title>
<path fill="none" stroke="midnightblue" d="M315.746,-142.165C332.568,-138.369 350.806,-134.254 368.132,-130.345"/>
<polygon fill="midnightblue" stroke="midnightblue" points="369.226,-133.686 378.211,-128.07 367.686,-126.857 369.226,-133.686"/>
</g>
<!-- Node14&#45;&gt;Node16 -->
<g id="edge16" class="edge"><title>Node14&#45;&gt;Node16</title>
<path fill="none" stroke="midnightblue" d="M315.668,-160.782C384.085,-164.722 490.916,-170.875 561.187,-174.922"/>
<polygon fill="midnightblue" stroke="midnightblue" points="561.096,-178.422 571.281,-175.503 561.498,-171.434 561.096,-178.422"/>
</g>
<!-- Node14&#45;&gt;Node17 -->
<g id="edge17" class="edge"><title>Node14&#45;&gt;Node17</title>
<path fill="none" stroke="midnightblue" d="M269.71,-141.925C286.191,-128.842 309.851,-108.92 328,-89 346.442,-68.7583 341.673,-54.8528 364,-39 369.18,-35.3223 374.925,-32.2021 380.897,-29.556"/>
<polygon fill="midnightblue" stroke="midnightblue" points="382.416,-32.7189 390.419,-25.776 379.833,-26.2128 382.416,-32.7189"/>
</g>
<!-- Node14&#45;&gt;Node18 -->
<g id="edge18" class="edge"><title>Node14&#45;&gt;Node18</title>
<path fill="none" stroke="midnightblue" d="M315.746,-171.835C332.845,-175.693 351.407,-179.882 368.988,-183.849"/>
<polygon fill="midnightblue" stroke="midnightblue" points="368.682,-187.368 379.208,-186.155 370.223,-180.539 368.682,-187.368"/>
</g>
<!-- Node14&#45;&gt;Node19 -->
<g id="edge20" class="edge"><title>Node14&#45;&gt;Node19</title>
<path fill="none" stroke="midnightblue" d="M299.565,-141.876C309.405,-137.806 319.356,-132.866 328,-127 347.518,-113.753 343.973,-100.464 364,-88 366.654,-86.3483 369.427,-84.8053 372.282,-83.3643"/>
<polygon fill="midnightblue" stroke="midnightblue" points="373.982,-86.4356 381.628,-79.1012 371.077,-80.0668 373.982,-86.4356"/>
</g>
<!-- Node18&#45;&gt;Node16 -->
<g id="edge19" class="edge"><title>Node18&#45;&gt;Node16</title>
<path fill="none" stroke="midnightblue" d="M512.745,-193.182C528.421,-191.318 545.218,-189.32 561.114,-187.43"/>
<polygon fill="midnightblue" stroke="midnightblue" points="561.891,-190.862 571.408,-186.206 561.065,-183.911 561.891,-190.862"/>
</g>
<!-- Node19&#45;&gt;Node16 -->
<g id="edge21" class="edge"><title>Node19&#45;&gt;Node16</title>
<path fill="none" stroke="midnightblue" d="M508.312,-79.0586C515.132,-81.637 521.833,-84.6036 528,-88 560.796,-106.064 592.256,-135.922 611.821,-156.482"/>
<polygon fill="midnightblue" stroke="midnightblue" points="609.331,-158.944 618.715,-163.862 614.446,-154.165 609.331,-158.944"/>
</g>
<!-- Node20 -->
<g id="node20" class="node"><title>Node20</title>
<g id="a_node20"><a xlink:href="class_hydrax_1_1_hydrax.html#a1532419b2859aed22a63d913c527ce21" target="_top" xlink:title="Hydrax::Hydrax::_isCurrent\lFrameUnderwater">
<polygon fill="white" stroke="black" points="564.5,-49 564.5,-79 701.5,-79 701.5,-49 564.5,-49"/>
<text text-anchor="start" x="572.5" y="-67" font-family="Helvetica,sans-Serif" font-size="10.00">Hydrax::Hydrax::_isCurrent</text>
<text text-anchor="middle" x="633" y="-56" font-family="Helvetica,sans-Serif" font-size="10.00">FrameUnderwater</text>
</a>
</g>
</g>
<!-- Node19&#45;&gt;Node20 -->
<g id="edge22" class="edge"><title>Node19&#45;&gt;Node20</title>
<path fill="none" stroke="midnightblue" d="M517.732,-64C529.686,-64 542.154,-64 554.274,-64"/>
<polygon fill="midnightblue" stroke="midnightblue" points="554.355,-67.5001 564.355,-64 554.355,-60.5001 554.355,-67.5001"/>
</g>
</g>
</svg>
