<?xml version="1.0" encoding="UTF-8" standalone="no"?>
<!DOCTYPE svg PUBLIC "-//W3C//DTD SVG 1.1//EN"
 "http://www.w3.org/Graphics/SVG/1.1/DTD/svg11.dtd">
<!-- Generated by graphviz version 2.36.0 (20140111.2315)
 -->
<!-- Title: MeshObject Pages: 1 -->
<svg width="252pt" height="115pt"
 viewBox="0.00 0.00 252.00 115.00" xmlns="http://www.w3.org/2000/svg" xmlns:xlink="http://www.w3.org/1999/xlink">
<g id="graph0" class="graph" transform="scale(1 1) rotate(0) translate(4 111)">
<title>MeshObject</title>
<polygon fill="white" stroke="none" points="-4,4 -4,-111 248,-111 248,4 -4,4"/>
<!-- Node1 -->
<g id="node1" class="node"><title>Node1</title>
<polygon fill="#bfbfbf" stroke="black" points="174.5,-38.5 174.5,-57.5 243.5,-57.5 243.5,-38.5 174.5,-38.5"/>
<text text-anchor="middle" x="209" y="-45.5" font-family="Helvetica,sans-Serif" font-size="10.00">MeshObject</text>
</g>
<!-- Node2 -->
<g id="node2" class="node"><title>Node2</title>
<polygon fill="white" stroke="#bfbfbf" points="0.5,-77 0.5,-107 137.5,-107 137.5,-77 0.5,-77"/>
<text text-anchor="start" x="8.5" y="-95" font-family="Helvetica,sans-Serif" font-size="10.00">Ogre::ResourceBackground</text>
<text text-anchor="middle" x="69" y="-84" font-family="Helvetica,sans-Serif" font-size="10.00">Queue::Listener</text>
</g>
<!-- Node2&#45;&gt;Node1 -->
<g id="edge1" class="edge"><title>Node2&#45;&gt;Node1</title>
<path fill="none" stroke="midnightblue" d="M126.722,-73.9147C144.289,-68.3138 162.952,-62.363 177.959,-57.5783"/>
<polygon fill="midnightblue" stroke="midnightblue" points="125.57,-70.6083 117.106,-76.9808 127.696,-77.2776 125.57,-70.6083"/>
</g>
<!-- Node3 -->
<g id="node3" class="node"><title>Node3</title>
<polygon fill="white" stroke="#bfbfbf" points="6,-38.5 6,-57.5 132,-57.5 132,-38.5 6,-38.5"/>
<text text-anchor="middle" x="69" y="-45.5" font-family="Helvetica,sans-Serif" font-size="10.00">Ogre::Resource::Listener</text>
</g>
<!-- Node3&#45;&gt;Node1 -->
<g id="edge2" class="edge"><title>Node3&#45;&gt;Node1</title>
<path fill="none" stroke="midnightblue" d="M142.332,-48C153.433,-48 164.42,-48 174.138,-48"/>
<polygon fill="midnightblue" stroke="midnightblue" points="142.137,-44.5001 132.137,-48 142.137,-51.5001 142.137,-44.5001"/>
</g>
<!-- Node4 -->
<g id="node4" class="node"><title>Node4</title>
<g id="a_node4"><a xlink:href="class_zeroed_memory_allocator.html" target="_top" xlink:title="ZeroedMemoryAllocator">
<polygon fill="white" stroke="black" points="9,-0.5 9,-19.5 129,-19.5 129,-0.5 9,-0.5"/>
<text text-anchor="middle" x="69" y="-7.5" font-family="Helvetica,sans-Serif" font-size="10.00">ZeroedMemoryAllocator</text>
</a>
</g>
</g>
<!-- Node4&#45;&gt;Node1 -->
<g id="edge3" class="edge"><title>Node4&#45;&gt;Node1</title>
<path fill="none" stroke="midnightblue" d="M114.625,-22.288C133.952,-27.6101 156.208,-33.7383 174.142,-38.6768"/>
<polygon fill="midnightblue" stroke="midnightblue" points="115.394,-18.8695 104.823,-19.589 113.535,-25.6183 115.394,-18.8695"/>
</g>
</g>
</svg>
