<?xml version="1.0" encoding="UTF-8" standalone="no"?>
<!DOCTYPE svg PUBLIC "-//W3C//DTD SVG 1.1//EN"
 "http://www.w3.org/Graphics/SVG/1.1/DTD/svg11.dtd">
<!-- Generated by graphviz version 2.36.0 (20140111.2315)
 -->
<!-- Title: SurveyMapEntity::setPosition Pages: 1 -->
<svg width="696pt" height="153pt"
 viewBox="0.00 0.00 696.00 153.00" xmlns="http://www.w3.org/2000/svg" xmlns:xlink="http://www.w3.org/1999/xlink">
<g id="graph0" class="graph" transform="scale(1 1) rotate(0) translate(4 149)">
<title>SurveyMapEntity::setPosition</title>
<polygon fill="white" stroke="none" points="-4,4 -4,-149 692,-149 692,4 -4,4"/>
<!-- Node1 -->
<g id="node1" class="node"><title>Node1</title>
<polygon fill="#bfbfbf" stroke="black" points="0,-57.5 0,-76.5 146,-76.5 146,-57.5 0,-57.5"/>
<text text-anchor="middle" x="73" y="-64.5" font-family="Helvetica,sans-Serif" font-size="10.00">SurveyMapEntity::setPosition</text>
</g>
<!-- Node2 -->
<g id="node2" class="node"><title>Node2</title>
<g id="a_node2"><a xlink:href="class_survey_map_entity.html#af393a262b4094ca586036e08943b6d72" target="_top" xlink:title="SurveyMapEntity::update">
<polygon fill="white" stroke="black" points="182.5,-57.5 182.5,-76.5 309.5,-76.5 309.5,-57.5 182.5,-57.5"/>
<text text-anchor="middle" x="246" y="-64.5" font-family="Helvetica,sans-Serif" font-size="10.00">SurveyMapEntity::update</text>
</a>
</g>
</g>
<!-- Node1&#45;&gt;Node2 -->
<g id="edge1" class="edge"><title>Node1&#45;&gt;Node2</title>
<path fill="none" stroke="midnightblue" d="M146.024,-67C154.684,-67 163.533,-67 172.203,-67"/>
<polygon fill="midnightblue" stroke="midnightblue" points="172.278,-70.5001 182.278,-67 172.278,-63.5001 172.278,-70.5001"/>
</g>
<!-- Node3 -->
<g id="node3" class="node"><title>Node3</title>
<g id="a_node3"><a xlink:href="class_survey_map_manager.html#a959f28a84f3b54803983c734bcc849e1" target="_top" xlink:title="SurveyMapManager::getMap\lEntitiesVisible">
<polygon fill="white" stroke="black" points="364,-115 364,-145 506,-145 506,-115 364,-115"/>
<text text-anchor="start" x="372" y="-133" font-family="Helvetica,sans-Serif" font-size="10.00">SurveyMapManager::getMap</text>
<text text-anchor="middle" x="435" y="-122" font-family="Helvetica,sans-Serif" font-size="10.00">EntitiesVisible</text>
</a>
</g>
</g>
<!-- Node2&#45;&gt;Node3 -->
<g id="edge2" class="edge"><title>Node2&#45;&gt;Node3</title>
<path fill="none" stroke="midnightblue" d="M270.389,-76.6596C290.315,-84.7242 319.801,-96.27 346,-105 353.124,-107.374 360.619,-109.724 368.104,-111.977"/>
<polygon fill="midnightblue" stroke="midnightblue" points="367.324,-115.397 377.906,-114.879 369.31,-108.684 367.324,-115.397"/>
</g>
<!-- Node4 -->
<g id="node4" class="node"><title>Node4</title>
<g id="a_node4"><a xlink:href="class_terrain_manager.html#a41fdd66a57990a5fb33d253213fd04e3" target="_top" xlink:title="TerrainManager::getMaxTerrainSize">
<polygon fill="white" stroke="black" points="349,-76.5 349,-95.5 521,-95.5 521,-76.5 349,-76.5"/>
<text text-anchor="middle" x="435" y="-83.5" font-family="Helvetica,sans-Serif" font-size="10.00">TerrainManager::getMaxTerrainSize</text>
</a>
</g>
</g>
<!-- Node2&#45;&gt;Node4 -->
<g id="edge3" class="edge"><title>Node2&#45;&gt;Node4</title>
<path fill="none" stroke="midnightblue" d="M309.528,-73.3531C319.005,-74.316 328.959,-75.3274 338.938,-76.3413"/>
<polygon fill="midnightblue" stroke="midnightblue" points="338.605,-79.8254 348.907,-77.3542 339.312,-72.8612 338.605,-79.8254"/>
</g>
<!-- Node6 -->
<g id="node6" class="node"><title>Node6</title>
<g id="a_node6"><a xlink:href="class_survey_map_manager.html#afdabdbdf87d39f253ecd17af1770a516" target="_top" xlink:title="SurveyMapManager::getWindowSize">
<polygon fill="white" stroke="black" points="346,-38.5 346,-57.5 524,-57.5 524,-38.5 346,-38.5"/>
<text text-anchor="middle" x="435" y="-45.5" font-family="Helvetica,sans-Serif" font-size="10.00">SurveyMapManager::getWindowSize</text>
</a>
</g>
</g>
<!-- Node2&#45;&gt;Node6 -->
<g id="edge5" class="edge"><title>Node2&#45;&gt;Node6</title>
<path fill="none" stroke="midnightblue" d="M309.528,-60.6469C318.014,-59.7847 326.884,-58.8835 335.81,-57.9765"/>
<polygon fill="midnightblue" stroke="midnightblue" points="336.301,-61.4448 345.896,-56.9518 335.593,-54.4806 336.301,-61.4448"/>
</g>
<!-- Node7 -->
<g id="node7" class="node"><title>Node7</title>
<g id="a_node7"><a xlink:href="class_survey_map_manager.html#aec8d2ee435b736ae628d3924a6d2b29d" target="_top" xlink:title="SurveyMapManager::getMapSize">
<polygon fill="white" stroke="black" points="354.5,-0.5 354.5,-19.5 515.5,-19.5 515.5,-0.5 354.5,-0.5"/>
<text text-anchor="middle" x="435" y="-7.5" font-family="Helvetica,sans-Serif" font-size="10.00">SurveyMapManager::getMapSize</text>
</a>
</g>
</g>
<!-- Node2&#45;&gt;Node7 -->
<g id="edge6" class="edge"><title>Node2&#45;&gt;Node7</title>
<path fill="none" stroke="midnightblue" d="M269.073,-57.4016C288.916,-49.0454 319.005,-37.043 346,-29 354.8,-26.378 364.196,-23.9588 373.45,-21.7874"/>
<polygon fill="midnightblue" stroke="midnightblue" points="374.424,-25.1556 383.402,-19.5306 372.876,-18.329 374.424,-25.1556"/>
</g>
<!-- Node5 -->
<g id="node5" class="node"><title>Node5</title>
<g id="a_node5"><a xlink:href="class_terrain_geometry_manager.html#afead68b5ff7a0b77395065ab8ea855e3" target="_top" xlink:title="TerrainGeometryManager\l::getMaxTerrainSize">
<polygon fill="white" stroke="black" points="560.5,-71 560.5,-101 687.5,-101 687.5,-71 560.5,-71"/>
<text text-anchor="start" x="568.5" y="-89" font-family="Helvetica,sans-Serif" font-size="10.00">TerrainGeometryManager</text>
<text text-anchor="middle" x="624" y="-78" font-family="Helvetica,sans-Serif" font-size="10.00">::getMaxTerrainSize</text>
</a>
</g>
</g>
<!-- Node4&#45;&gt;Node5 -->
<g id="edge4" class="edge"><title>Node4&#45;&gt;Node5</title>
<path fill="none" stroke="midnightblue" d="M521.019,-86C530.726,-86 540.556,-86 550.085,-86"/>
<polygon fill="midnightblue" stroke="midnightblue" points="550.288,-89.5001 560.288,-86 550.288,-82.5001 550.288,-89.5001"/>
</g>
</g>
</svg>
