<?xml version="1.0" encoding="UTF-8" standalone="no"?>
<!DOCTYPE svg PUBLIC "-//W3C//DTD SVG 1.1//EN"
 "http://www.w3.org/Graphics/SVG/1.1/DTD/svg11.dtd">
<!-- Generated by graphviz version 2.36.0 (20140111.2315)
 -->
<!-- Title: Hydrax::Noise::Perlin::_initNoise Pages: 1 -->
<svg width="960pt" height="136pt"
 viewBox="0.00 0.00 960.00 136.00" xmlns="http://www.w3.org/2000/svg" xmlns:xlink="http://www.w3.org/1999/xlink">
<g id="graph0" class="graph" transform="scale(1 1) rotate(0) translate(4 132)">
<title>Hydrax::Noise::Perlin::_initNoise</title>
<polygon fill="white" stroke="none" points="-4,4 -4,-132 956,-132 956,4 -4,4"/>
<!-- Node1 -->
<g id="node1" class="node"><title>Node1</title>
<polygon fill="#bfbfbf" stroke="black" points="0,-24 0,-54 110,-54 110,-24 0,-24"/>
<text text-anchor="start" x="8" y="-42" font-family="Helvetica,sans-Serif" font-size="10.00">Hydrax::Noise::Perlin</text>
<text text-anchor="middle" x="55" y="-31" font-family="Helvetica,sans-Serif" font-size="10.00">::_initNoise</text>
</g>
<!-- Node2 -->
<g id="node2" class="node"><title>Node2</title>
<g id="a_node2"><a xlink:href="class_hydrax_1_1_noise_1_1_perlin.html#a3e260e7c239d90da210aa3e27289c6f0" target="_top" xlink:title="Hydrax::Noise::Perlin\l::create">
<polygon fill="white" stroke="black" points="146,-24 146,-54 256,-54 256,-24 146,-24"/>
<text text-anchor="start" x="154" y="-42" font-family="Helvetica,sans-Serif" font-size="10.00">Hydrax::Noise::Perlin</text>
<text text-anchor="middle" x="201" y="-31" font-family="Helvetica,sans-Serif" font-size="10.00">::create</text>
</a>
</g>
</g>
<!-- Node1&#45;&gt;Node2 -->
<g id="edge1" class="edge"><title>Node1&#45;&gt;Node2</title>
<path fill="none" stroke="midnightblue" d="M120.27,-39C128.75,-39 137.375,-39 145.667,-39"/>
<polygon fill="midnightblue" stroke="midnightblue" points="120.03,-35.5001 110.03,-39 120.03,-42.5001 120.03,-35.5001"/>
</g>
<!-- Node3 -->
<g id="node3" class="node"><title>Node3</title>
<g id="a_node3"><a xlink:href="class_hydrax_1_1_god_rays_manager.html#ad6e8cfa4b9bde36b668d04ae3cfe8d00" target="_top" xlink:title="Hydrax::GodRaysManager\l::create">
<polygon fill="white" stroke="black" points="292.5,-49 292.5,-79 425.5,-79 425.5,-49 292.5,-49"/>
<text text-anchor="start" x="300.5" y="-67" font-family="Helvetica,sans-Serif" font-size="10.00">Hydrax::GodRaysManager</text>
<text text-anchor="middle" x="359" y="-56" font-family="Helvetica,sans-Serif" font-size="10.00">::create</text>
</a>
</g>
</g>
<!-- Node2&#45;&gt;Node3 -->
<g id="edge2" class="edge"><title>Node2&#45;&gt;Node3</title>
<path fill="none" stroke="midnightblue" d="M266.16,-49.2821C274.825,-50.6707 283.726,-52.0971 292.415,-53.4896"/>
<polygon fill="midnightblue" stroke="midnightblue" points="266.551,-45.8002 256.123,-47.6736 265.444,-52.712 266.551,-45.8002"/>
</g>
<!-- Node8 -->
<g id="node8" class="node"><title>Node8</title>
<g id="a_node8"><a xlink:href="class_hydrax_1_1_noise_1_1_real.html#acfa6971e82ea4fcaffde695eeeb3870f" target="_top" xlink:title="Hydrax::Noise::Real\l::create">
<polygon fill="white" stroke="black" points="306,-0 306,-30 412,-30 412,-0 306,-0"/>
<text text-anchor="start" x="314" y="-18" font-family="Helvetica,sans-Serif" font-size="10.00">Hydrax::Noise::Real</text>
<text text-anchor="middle" x="359" y="-7" font-family="Helvetica,sans-Serif" font-size="10.00">::create</text>
</a>
</g>
</g>
<!-- Node2&#45;&gt;Node8 -->
<g id="edge8" class="edge"><title>Node2&#45;&gt;Node8</title>
<path fill="none" stroke="midnightblue" d="M266.097,-29.139C279.313,-27.1057 293.08,-24.9877 305.813,-23.0288"/>
<polygon fill="midnightblue" stroke="midnightblue" points="265.475,-25.6934 256.123,-30.6733 266.539,-32.612 265.475,-25.6934"/>
</g>
<!-- Node4 -->
<g id="node4" class="node"><title>Node4</title>
<g id="a_node4"><a xlink:href="class_hydrax_1_1_god_rays_manager.html#a4a85152f7e71a50c473ae65b299f3465" target="_top" xlink:title="Hydrax::GodRaysManager\l::setObjectIntersectionsEnabled">
<polygon fill="white" stroke="black" points="462,-98 462,-128 618,-128 618,-98 462,-98"/>
<text text-anchor="start" x="470" y="-116" font-family="Helvetica,sans-Serif" font-size="10.00">Hydrax::GodRaysManager</text>
<text text-anchor="middle" x="540" y="-105" font-family="Helvetica,sans-Serif" font-size="10.00">::setObjectIntersectionsEnabled</text>
</a>
</g>
</g>
<!-- Node3&#45;&gt;Node4 -->
<g id="edge3" class="edge"><title>Node3&#45;&gt;Node4</title>
<path fill="none" stroke="midnightblue" d="M424.836,-81.7485C444.236,-87.0591 465.313,-92.8288 484.016,-97.9484"/>
<polygon fill="midnightblue" stroke="midnightblue" points="425.736,-78.366 415.166,-79.1014 423.888,-85.1176 425.736,-78.366"/>
</g>
<!-- Node7 -->
<g id="node7" class="node"><title>Node7</title>
<g id="a_node7"><a xlink:href="class_hydrax_1_1_god_rays_manager.html#ad8e21289bddd02ed9a62b3a2db1ff54f" target="_top" xlink:title="Hydrax::GodRaysManager\l::_createMaterials">
<polygon fill="white" stroke="black" points="473.5,-49 473.5,-79 606.5,-79 606.5,-49 473.5,-49"/>
<text text-anchor="start" x="481.5" y="-67" font-family="Helvetica,sans-Serif" font-size="10.00">Hydrax::GodRaysManager</text>
<text text-anchor="middle" x="540" y="-56" font-family="Helvetica,sans-Serif" font-size="10.00">::_createMaterials</text>
</a>
</g>
</g>
<!-- Node3&#45;&gt;Node7 -->
<g id="edge6" class="edge"><title>Node3&#45;&gt;Node7</title>
<path fill="none" stroke="midnightblue" d="M435.979,-57.3189C448.417,-57.1912 461.211,-57.241 473.371,-57.4681"/>
<polygon fill="midnightblue" stroke="midnightblue" points="435.585,-53.8242 425.637,-57.4679 435.686,-60.8234 435.585,-53.8242"/>
</g>
<!-- Node5 -->
<g id="node5" class="node"><title>Node5</title>
<g id="a_node5"><a xlink:href="class_hydrax_1_1_cfg_file_manager.html#a6717ef4e731b3c22d71260aaa6d0336a" target="_top" xlink:title="Hydrax::CfgFileManager\l::_loadComponentsSettings">
<polygon fill="white" stroke="black" points="654.5,-98 654.5,-128 791.5,-128 791.5,-98 654.5,-98"/>
<text text-anchor="start" x="662.5" y="-116" font-family="Helvetica,sans-Serif" font-size="10.00">Hydrax::CfgFileManager</text>
<text text-anchor="middle" x="723" y="-105" font-family="Helvetica,sans-Serif" font-size="10.00">::_loadComponentsSettings</text>
</a>
</g>
</g>
<!-- Node4&#45;&gt;Node5 -->
<g id="edge4" class="edge"><title>Node4&#45;&gt;Node5</title>
<path fill="none" stroke="midnightblue" d="M628.023,-113C636.914,-113 645.85,-113 654.487,-113"/>
<polygon fill="midnightblue" stroke="midnightblue" points="628.023,-109.5 618.023,-113 628.023,-116.5 628.023,-109.5"/>
</g>
<!-- Node6 -->
<g id="node6" class="node"><title>Node6</title>
<g id="a_node6"><a xlink:href="class_hydrax_1_1_cfg_file_manager.html#a7d283a6b6b61ad70292c7cb24cd3543c" target="_top" xlink:title="Hydrax::CfgFileManager\l::load">
<polygon fill="white" stroke="black" points="828.5,-98 828.5,-128 951.5,-128 951.5,-98 828.5,-98"/>
<text text-anchor="start" x="836.5" y="-116" font-family="Helvetica,sans-Serif" font-size="10.00">Hydrax::CfgFileManager</text>
<text text-anchor="middle" x="890" y="-105" font-family="Helvetica,sans-Serif" font-size="10.00">::load</text>
</a>
</g>
</g>
<!-- Node5&#45;&gt;Node6 -->
<g id="edge5" class="edge"><title>Node5&#45;&gt;Node6</title>
<path fill="none" stroke="midnightblue" d="M801.668,-113C810.645,-113 819.698,-113 828.401,-113"/>
<polygon fill="midnightblue" stroke="midnightblue" points="801.588,-109.5 791.588,-113 801.588,-116.5 801.588,-109.5"/>
</g>
<!-- Node7&#45;&gt;Node3 -->
<g id="edge7" class="edge"><title>Node7&#45;&gt;Node3</title>
<path fill="none" stroke="midnightblue" d="M463.029,-70.681C450.592,-70.8088 437.797,-70.7591 425.637,-70.5321"/>
<polygon fill="midnightblue" stroke="midnightblue" points="463.423,-74.1758 473.371,-70.5319 463.322,-67.1765 463.423,-74.1758"/>
</g>
</g>
</svg>
