<?xml version="1.0" encoding="UTF-8" standalone="no"?>
<!DOCTYPE svg PUBLIC "-//W3C//DTD SVG 1.1//EN"
 "http://www.w3.org/Graphics/SVG/1.1/DTD/svg11.dtd">
<!-- Generated by graphviz version 2.36.0 (20140111.2315)
 -->
<!-- Title: RoR::BeamFactory::enterNextTruck Pages: 1 -->
<!--zoomable 744 -->
<svg id="main" version="1.1" xmlns="http://www.w3.org/2000/svg" xmlns:xlink="http://www.w3.org/1999/xlink" xml:space="preserve" onload="init(evt)">
<style type="text/css"><![CDATA[
.edge:hover path { stroke: red; }
.edge:hover polygon { stroke: red; fill: red; }
]]></style>
<script type="text/javascript"><![CDATA[
var edges = document.getElementsByTagName('g');
if (edges && edges.length) {
  for (var i=0;i<edges.length;i++) {
    if (edges[i].id.substr(0,4)=='edge') {
      edges[i].setAttribute('class','edge');
    }
  }
}
]]></script>
        <defs>
                <circle id="rim" cx="0" cy="0" r="7"/>
                <circle id="rim2" cx="0" cy="0" r="3.5"/>
                <g id="zoomPlus">
                        <use xlink:href="#rim" fill="#404040">
                                <set attributeName="fill" to="#808080" begin="zoomplus.mouseover" end="zoomplus.mouseout"/>
                        </use>
                        <path d="M-4,0h8M0,-4v8" fill="none" stroke="white" stroke-width="1.5" pointer-events="none"/>
                </g>
                <g id="zoomMin">
                        <use xlink:href="#rim" fill="#404040">
                                <set attributeName="fill" to="#808080" begin="zoomminus.mouseover" end="zoomminus.mouseout"/>
                        </use>
                        <path d="M-4,0h8" fill="none" stroke="white" stroke-width="1.5" pointer-events="none"/>
                </g>
                <g id="dirArrow">
                        <path fill="none" stroke="white" stroke-width="1.5" d="M0,-3.0v7 M-2.5,-0.5L0,-3.0L2.5,-0.5"/>
                </g>
               <g id="resetDef">
                       <use xlink:href="#rim2" fill="#404040">
                               <set attributeName="fill" to="#808080" begin="reset.mouseover" end="reset.mouseout"/>
                       </use>
               </g>
        </defs>

<script type="text/javascript">
var viewWidth = 1410;
var viewHeight = 744;
var sectionId = 'dynsection-13';
</script>
<script xlink:href="svgpan.js"/>
<svg id="graph" class="graph">
<g id="viewport">
<title>RoR::BeamFactory::enterNextTruck</title>
<polygon fill="white" stroke="none" points="-4,4 -4,-740 1406,-740 1406,4 -4,4"/>
<!-- Node1 -->
<g id="node1" class="node"><title>Node1</title>
<polygon fill="#bfbfbf" stroke="black" points="0,-670 0,-700 150,-700 150,-670 0,-670"/>
<text text-anchor="start" x="8" y="-688" font-family="Helvetica,sans-Serif" font-size="10.00">RoR::BeamFactory::enterNext</text>
<text text-anchor="middle" x="75" y="-677" font-family="Helvetica,sans-Serif" font-size="10.00">Truck</text>
</g>
<!-- Node2 -->
<g id="node2" class="node"><title>Node2</title>
<g id="a_node2"><a xlink:href="class_ro_r_1_1_beam_factory.html#a8f642b6afe7dcf377d7644e55c20aff2" target="_top" xlink:title="RoR::BeamFactory::GetMost\lRecentTruckSlot">
<polygon fill="white" stroke="black" points="190.5,-700 190.5,-730 335.5,-730 335.5,-700 190.5,-700"/>
<text text-anchor="start" x="198.5" y="-718" font-family="Helvetica,sans-Serif" font-size="10.00">RoR::BeamFactory::GetMost</text>
<text text-anchor="middle" x="263" y="-707" font-family="Helvetica,sans-Serif" font-size="10.00">RecentTruckSlot</text>
</a>
</g>
</g>
<!-- Node1&#45;&gt;Node2 -->
<g id="edge1" class="edge"><title>Node1&#45;&gt;Node2</title>
<path fill="none" stroke="midnightblue" d="M150.047,-696.943C160,-698.548 170.256,-700.203 180.332,-701.828"/>
<polygon fill="midnightblue" stroke="midnightblue" points="179.9,-705.303 190.33,-703.44 181.015,-698.393 179.9,-705.303"/>
</g>
<!-- Node4 -->
<g id="node4" class="node"><title>Node4</title>
<g id="a_node4"><a xlink:href="class_ro_r_1_1_beam_factory.html#ac70a8aa131a6709ebf05dc3c0f6dab10" target="_top" xlink:title="RoR::BeamFactory::setCurrent\lTruck">
<polygon fill="white" stroke="black" points="186.5,-640 186.5,-670 339.5,-670 339.5,-640 186.5,-640"/>
<text text-anchor="start" x="194.5" y="-658" font-family="Helvetica,sans-Serif" font-size="10.00">RoR::BeamFactory::setCurrent</text>
<text text-anchor="middle" x="263" y="-647" font-family="Helvetica,sans-Serif" font-size="10.00">Truck</text>
</a>
</g>
</g>
<!-- Node1&#45;&gt;Node4 -->
<g id="edge3" class="edge"><title>Node1&#45;&gt;Node4</title>
<path fill="none" stroke="midnightblue" d="M150.047,-673.057C158.732,-671.656 167.648,-670.218 176.473,-668.795"/>
<polygon fill="midnightblue" stroke="midnightblue" points="177.067,-672.244 186.382,-667.196 175.953,-665.333 177.067,-672.244"/>
</g>
<!-- Node3 -->
<g id="node3" class="node"><title>Node3</title>
<g id="a_node3"><a xlink:href="class_ro_r_1_1_beam_factory.html#aadb09a68dc35fad593189242429df218" target="_top" xlink:title="RoR::BeamFactory::getTruck">
<polygon fill="white" stroke="black" points="773,-716.5 773,-735.5 919,-735.5 919,-716.5 773,-716.5"/>
<text text-anchor="middle" x="846" y="-723.5" font-family="Helvetica,sans-Serif" font-size="10.00">RoR::BeamFactory::getTruck</text>
</a>
</g>
</g>
<!-- Node2&#45;&gt;Node3 -->
<g id="edge2" class="edge"><title>Node2&#45;&gt;Node3</title>
<path fill="none" stroke="midnightblue" d="M335.533,-716.354C443.735,-718.403 648.481,-722.279 762.711,-724.442"/>
<polygon fill="midnightblue" stroke="midnightblue" points="762.737,-727.943 772.801,-724.633 762.869,-720.944 762.737,-727.943"/>
</g>
<!-- Node5 -->
<g id="node5" class="node"><title>Node5</title>
<g id="a_node5"><a xlink:href="class_ro_r_frame_listener.html#ad309b37d305d55def42d92f17abed557" target="_top" xlink:title="RoRFrameListener::Changed\lCurrentVehicle">
<polygon fill="white" stroke="black" points="376,-292 376,-322 520,-322 520,-292 376,-292"/>
<text text-anchor="start" x="384" y="-310" font-family="Helvetica,sans-Serif" font-size="10.00">RoRFrameListener::Changed</text>
<text text-anchor="middle" x="448" y="-299" font-family="Helvetica,sans-Serif" font-size="10.00">CurrentVehicle</text>
</a>
</g>
</g>
<!-- Node4&#45;&gt;Node5 -->
<g id="edge4" class="edge"><title>Node4&#45;&gt;Node5</title>
<path fill="none" stroke="midnightblue" d="M272.099,-639.598C300.977,-584.684 399.041,-398.201 434.268,-331.211"/>
<polygon fill="midnightblue" stroke="midnightblue" points="437.438,-332.704 438.994,-322.224 431.242,-329.446 437.438,-332.704"/>
</g>
<!-- Node33 -->
<g id="node33" class="node"><title>Node33</title>
<g id="a_node33"><a xlink:href="class_ro_r_1_1_beam_factory.html#a1a0708c3248c3759a0352257a4af458b" target="_top" xlink:title="RoR::BeamFactory::Update\lSleepingState">
<polygon fill="white" stroke="black" points="378.5,-640 378.5,-670 517.5,-670 517.5,-640 378.5,-640"/>
<text text-anchor="start" x="386.5" y="-658" font-family="Helvetica,sans-Serif" font-size="10.00">RoR::BeamFactory::Update</text>
<text text-anchor="middle" x="448" y="-647" font-family="Helvetica,sans-Serif" font-size="10.00">SleepingState</text>
</a>
</g>
</g>
<!-- Node4&#45;&gt;Node33 -->
<g id="edge35" class="edge"><title>Node4&#45;&gt;Node33</title>
<path fill="none" stroke="midnightblue" d="M339.754,-655C349.141,-655 358.757,-655 368.189,-655"/>
<polygon fill="midnightblue" stroke="midnightblue" points="368.332,-658.5 378.332,-655 368.332,-651.5 368.332,-658.5"/>
</g>
<!-- Node6 -->
<g id="node6" class="node"><title>Node6</title>
<g id="a_node6"><a xlink:href="class_dash_board_manager.html#a714e4e5bbf29e1854c06af1993fecebc" target="_top" xlink:title="DashBoardManager::setVisible3d">
<polygon fill="white" stroke="black" points="765,-453.5 765,-472.5 927,-472.5 927,-453.5 765,-453.5"/>
<text text-anchor="middle" x="846" y="-460.5" font-family="Helvetica,sans-Serif" font-size="10.00">DashBoardManager::setVisible3d</text>
</a>
</g>
</g>
<!-- Node5&#45;&gt;Node6 -->
<g id="edge5" class="edge"><title>Node5&#45;&gt;Node6</title>
<path fill="none" stroke="midnightblue" d="M452.825,-322.114C462.759,-357.761 493.1,-446.733 556,-482 594.066,-503.343 713.385,-487.006 786.265,-474.276"/>
<polygon fill="midnightblue" stroke="midnightblue" points="786.992,-477.701 796.227,-472.507 785.769,-470.809 786.992,-477.701"/>
</g>
<!-- Node8 -->
<g id="node8" class="node"><title>Node8</title>
<g id="a_node8"><a xlink:href="namespace_ro_r_1_1_app.html#a21686de9300823b37db5f3f8fe992fb1" target="_top" xlink:title="RoR::App::GetOverlayWrapper">
<polygon fill="white" stroke="black" points="562,-453.5 562,-472.5 714,-472.5 714,-453.5 562,-453.5"/>
<text text-anchor="middle" x="638" y="-460.5" font-family="Helvetica,sans-Serif" font-size="10.00">RoR::App::GetOverlayWrapper</text>
</a>
</g>
</g>
<!-- Node5&#45;&gt;Node8 -->
<g id="edge7" class="edge"><title>Node5&#45;&gt;Node8</title>
<path fill="none" stroke="midnightblue" d="M456.632,-322.385C471.58,-350.861 507.535,-411.721 556,-443 559.87,-445.498 564.028,-447.683 568.343,-449.596"/>
<polygon fill="midnightblue" stroke="midnightblue" points="567.401,-452.985 577.989,-453.362 569.947,-446.465 567.401,-452.985"/>
</g>
<!-- Node9 -->
<g id="node9" class="node"><title>Node9</title>
<g id="a_node9"><a xlink:href="class_overlay_wrapper.html#a086d876abbbac640d88b09b2bbfe7d0f" target="_top" xlink:title="OverlayWrapper::showDashboard\lOverlays">
<polygon fill="white" stroke="black" points="556,-404 556,-434 720,-434 720,-404 556,-404"/>
<text text-anchor="start" x="564" y="-422" font-family="Helvetica,sans-Serif" font-size="10.00">OverlayWrapper::showDashboard</text>
<text text-anchor="middle" x="638" y="-411" font-family="Helvetica,sans-Serif" font-size="10.00">Overlays</text>
</a>
</g>
</g>
<!-- Node5&#45;&gt;Node9 -->
<g id="edge8" class="edge"><title>Node5&#45;&gt;Node9</title>
<path fill="none" stroke="midnightblue" d="M463.594,-322.014C483.034,-341.224 519.263,-374.357 556,-394 560.161,-396.225 564.551,-398.285 569.046,-400.186"/>
<polygon fill="midnightblue" stroke="midnightblue" points="567.795,-403.455 578.382,-403.867 570.363,-396.943 567.795,-403.455"/>
</g>
<!-- Node12 -->
<g id="node12" class="node"><title>Node12</title>
<g id="a_node12"><a xlink:href="class_beam.html#ab4dfeb77091b6ce9a344b1e1d4e964e3" target="_top" xlink:title="Beam::GetGfxActor">
<polygon fill="white" stroke="black" points="586.5,-365.5 586.5,-384.5 689.5,-384.5 689.5,-365.5 586.5,-365.5"/>
<text text-anchor="middle" x="638" y="-372.5" font-family="Helvetica,sans-Serif" font-size="10.00">Beam::GetGfxActor</text>
</a>
</g>
</g>
<!-- Node5&#45;&gt;Node12 -->
<g id="edge12" class="edge"><title>Node5&#45;&gt;Node12</title>
<path fill="none" stroke="midnightblue" d="M478.854,-322.136C499.998,-332.42 529.244,-345.779 556,-355 564.358,-357.88 573.334,-360.524 582.16,-362.88"/>
<polygon fill="midnightblue" stroke="midnightblue" points="581.461,-366.315 592.018,-365.416 583.205,-359.535 581.461,-366.315"/>
</g>
<!-- Node13 -->
<g id="node13" class="node"><title>Node13</title>
<g id="a_node13"><a xlink:href="class_ro_r_1_1_gfx_actor.html#a68717bfda17ddc3d4cff8e663c9cf06f" target="_top" xlink:title="RoR::GfxActor::GetVideoCam\lState">
<polygon fill="white" stroke="black" points="563.5,-316 563.5,-346 712.5,-346 712.5,-316 563.5,-316"/>
<text text-anchor="start" x="571.5" y="-334" font-family="Helvetica,sans-Serif" font-size="10.00">RoR::GfxActor::GetVideoCam</text>
<text text-anchor="middle" x="638" y="-323" font-family="Helvetica,sans-Serif" font-size="10.00">State</text>
</a>
</g>
</g>
<!-- Node5&#45;&gt;Node13 -->
<g id="edge13" class="edge"><title>Node5&#45;&gt;Node13</title>
<path fill="none" stroke="midnightblue" d="M520.075,-316.073C530.902,-317.456 542.161,-318.893 553.229,-320.306"/>
<polygon fill="midnightblue" stroke="midnightblue" points="552.959,-323.8 563.321,-321.594 553.845,-316.856 552.959,-323.8"/>
</g>
<!-- Node14 -->
<g id="node14" class="node"><title>Node14</title>
<g id="a_node14"><a xlink:href="class_ro_r_1_1_gfx_actor.html#a380125c9102242d296dc6f12b7468412" target="_top" xlink:title="RoR::GfxActor::SetVideoCam\lState">
<polygon fill="white" stroke="black" points="563.5,-267 563.5,-297 712.5,-297 712.5,-267 563.5,-267"/>
<text text-anchor="start" x="571.5" y="-285" font-family="Helvetica,sans-Serif" font-size="10.00">RoR::GfxActor::SetVideoCam</text>
<text text-anchor="middle" x="638" y="-274" font-family="Helvetica,sans-Serif" font-size="10.00">State</text>
</a>
</g>
</g>
<!-- Node5&#45;&gt;Node14 -->
<g id="edge14" class="edge"><title>Node5&#45;&gt;Node14</title>
<path fill="none" stroke="midnightblue" d="M520.075,-297.549C530.902,-296.109 542.161,-294.612 553.229,-293.14"/>
<polygon fill="midnightblue" stroke="midnightblue" points="553.87,-296.585 563.321,-291.798 552.947,-289.647 553.87,-296.585"/>
</g>
<!-- Node15 -->
<g id="node15" class="node"><title>Node15</title>
<g id="a_node15"><a xlink:href="class_beam.html#a3304824c3e7285047f007c956318de09" target="_top" xlink:title="Beam::prepareInside">
<polygon fill="white" stroke="black" points="584.5,-228.5 584.5,-247.5 691.5,-247.5 691.5,-228.5 584.5,-228.5"/>
<text text-anchor="middle" x="638" y="-235.5" font-family="Helvetica,sans-Serif" font-size="10.00">Beam::prepareInside</text>
</a>
</g>
</g>
<!-- Node5&#45;&gt;Node15 -->
<g id="edge15" class="edge"><title>Node5&#45;&gt;Node15</title>
<path fill="none" stroke="midnightblue" d="M476.946,-291.989C498.156,-281.082 528.297,-266.606 556,-257 563.389,-254.438 571.275,-252.11 579.118,-250.031"/>
<polygon fill="midnightblue" stroke="midnightblue" points="580.153,-253.38 588.988,-247.533 578.435,-246.594 580.153,-253.38"/>
</g>
<!-- Node16 -->
<g id="node16" class="node"><title>Node16</title>
<g id="a_node16"><a xlink:href="class_beam.html#a7d009b83ca5b166efe7c356abfcc3490" target="_top" xlink:title="Beam::getRotation">
<polygon fill="white" stroke="black" points="589,-190.5 589,-209.5 687,-209.5 687,-190.5 589,-190.5"/>
<text text-anchor="middle" x="638" y="-197.5" font-family="Helvetica,sans-Serif" font-size="10.00">Beam::getRotation</text>
</a>
</g>
</g>
<!-- Node5&#45;&gt;Node16 -->
<g id="edge16" class="edge"><title>Node5&#45;&gt;Node16</title>
<path fill="none" stroke="midnightblue" d="M463.026,-291.75C482.124,-271.931 518.272,-237.661 556,-219 563.18,-215.449 571.049,-212.545 578.973,-210.174"/>
<polygon fill="midnightblue" stroke="midnightblue" points="579.899,-213.549 588.623,-207.539 578.055,-206.797 579.899,-213.549"/>
</g>
<!-- Node17 -->
<g id="node17" class="node"><title>Node17</title>
<g id="a_node17"><a xlink:href="class_character.html#aa761e344c2aa6df9205bfa6bf1d3ea13" target="_top" xlink:title="Character::setBeamCoupling">
<polygon fill="white" stroke="black" points="566.5,-152.5 566.5,-171.5 709.5,-171.5 709.5,-152.5 566.5,-152.5"/>
<text text-anchor="middle" x="638" y="-159.5" font-family="Helvetica,sans-Serif" font-size="10.00">Character::setBeamCoupling</text>
</a>
</g>
</g>
<!-- Node5&#45;&gt;Node17 -->
<g id="edge17" class="edge"><title>Node5&#45;&gt;Node17</title>
<path fill="none" stroke="midnightblue" d="M457.392,-291.864C473.07,-265.068 509.474,-209.435 556,-181 559.605,-178.797 563.444,-176.849 567.415,-175.127"/>
<polygon fill="midnightblue" stroke="midnightblue" points="568.79,-178.349 576.877,-171.505 566.287,-171.811 568.79,-178.349"/>
</g>
<!-- Node24 -->
<g id="node24" class="node"><title>Node24</title>
<g id="a_node24"><a xlink:href="class_character.html#a305f94b58e7e8b61cc6829e4aba7a060" target="_top" xlink:title="Character::setRotation">
<polygon fill="white" stroke="black" points="580,-114.5 580,-133.5 696,-133.5 696,-114.5 580,-114.5"/>
<text text-anchor="middle" x="638" y="-121.5" font-family="Helvetica,sans-Serif" font-size="10.00">Character::setRotation</text>
</a>
</g>
</g>
<!-- Node5&#45;&gt;Node24 -->
<g id="edge24" class="edge"><title>Node5&#45;&gt;Node24</title>
<path fill="none" stroke="midnightblue" d="M454.501,-291.511C467.019,-258.618 500.887,-181.647 556,-143 560.324,-139.968 565.065,-137.414 570.016,-135.264"/>
<polygon fill="midnightblue" stroke="midnightblue" points="571.612,-138.403 579.741,-131.608 569.149,-131.851 571.612,-138.403"/>
</g>
<!-- Node25 -->
<g id="node25" class="node"><title>Node25</title>
<g id="a_node25"><a xlink:href="class_character.html#a1884d7f3e305d9b23164fdbf208f1cc6" target="_top" xlink:title="Character::setPosition">
<polygon fill="white" stroke="black" points="581,-76.5 581,-95.5 695,-95.5 695,-76.5 581,-76.5"/>
<text text-anchor="middle" x="638" y="-83.5" font-family="Helvetica,sans-Serif" font-size="10.00">Character::setPosition</text>
</a>
</g>
</g>
<!-- Node5&#45;&gt;Node25 -->
<g id="edge25" class="edge"><title>Node5&#45;&gt;Node25</title>
<path fill="none" stroke="midnightblue" d="M452.447,-291.782C461.866,-253.845 491.739,-154.569 556,-105 560.503,-101.526 565.538,-98.6717 570.833,-96.3279"/>
<polygon fill="midnightblue" stroke="midnightblue" points="572.473,-99.4494 580.588,-92.6373 569.997,-92.9022 572.473,-99.4494"/>
</g>
<!-- Node27 -->
<g id="node27" class="node"><title>Node27</title>
<g id="a_node27"><a xlink:href="class_ro_r_1_1_force_feedback.html#a5ad15f0bae3f998c07de438637445f28" target="_top" xlink:title="RoR::ForceFeedback\l::SetEnabled">
<polygon fill="white" stroke="black" points="583,-11 583,-41 693,-41 693,-11 583,-11"/>
<text text-anchor="start" x="591" y="-29" font-family="Helvetica,sans-Serif" font-size="10.00">RoR::ForceFeedback</text>
<text text-anchor="middle" x="638" y="-18" font-family="Helvetica,sans-Serif" font-size="10.00">::SetEnabled</text>
</a>
</g>
</g>
<!-- Node5&#45;&gt;Node27 -->
<g id="edge28" class="edge"><title>Node5&#45;&gt;Node27</title>
<path fill="none" stroke="midnightblue" d="M452.038,-291.804C460.971,-250.655 490.73,-135.562 556,-67 564.069,-58.5239 574.271,-51.5155 584.691,-45.8366"/>
<polygon fill="midnightblue" stroke="midnightblue" points="586.522,-48.8321 593.855,-41.1847 583.354,-42.5902 586.522,-48.8321"/>
</g>
<!-- Node29 -->
<g id="node29" class="node"><title>Node29</title>
<g id="a_node29"><a xlink:href="class_camera_manager.html#a737fe1d8d82faf6d9a3981eb713ec82c" target="_top" xlink:title="CameraManager::NotifyVehicle\lChanged">
<polygon fill="white" stroke="black" points="561.5,-530 561.5,-560 714.5,-560 714.5,-530 561.5,-530"/>
<text text-anchor="start" x="569.5" y="-548" font-family="Helvetica,sans-Serif" font-size="10.00">CameraManager::NotifyVehicle</text>
<text text-anchor="middle" x="638" y="-537" font-family="Helvetica,sans-Serif" font-size="10.00">Changed</text>
</a>
</g>
</g>
<!-- Node5&#45;&gt;Node29 -->
<g id="edge30" class="edge"><title>Node5&#45;&gt;Node29</title>
<path fill="none" stroke="midnightblue" d="M452.703,-322.179C462.715,-360.108 493.851,-459.918 556,-515 560.386,-518.887 565.32,-522.286 570.533,-525.256"/>
<polygon fill="midnightblue" stroke="midnightblue" points="569.025,-528.416 579.521,-529.859 572.216,-522.186 569.025,-528.416"/>
</g>
<!-- Node7 -->
<g id="node7" class="node"><title>Node7</title>
<g id="a_node7"><a xlink:href="class_dash_board.html#a650c134fdce0c84a77d84d2c23bdccbe" target="_top" xlink:title="DashBoard::setVisible">
<polygon fill="white" stroke="black" points="1019,-434.5 1019,-453.5 1133,-453.5 1133,-434.5 1019,-434.5"/>
<text text-anchor="middle" x="1076" y="-441.5" font-family="Helvetica,sans-Serif" font-size="10.00">DashBoard::setVisible</text>
</a>
</g>
</g>
<!-- Node6&#45;&gt;Node7 -->
<g id="edge6" class="edge"><title>Node6&#45;&gt;Node7</title>
<path fill="none" stroke="midnightblue" d="M927.064,-456.328C953.678,-454.11 983.009,-451.666 1008.49,-449.543"/>
<polygon fill="midnightblue" stroke="midnightblue" points="1009.11,-453.003 1018.78,-448.685 1008.52,-446.028 1009.11,-453.003"/>
</g>
<!-- Node10 -->
<g id="node10" class="node"><title>Node10</title>
<g id="a_node10"><a xlink:href="class_dash_board_manager.html#aab1c20ed732f3e11ea290a2f90be99e0" target="_top" xlink:title="DashBoardManager::wasLoaded">
<polygon fill="white" stroke="black" points="767,-377.5 767,-396.5 925,-396.5 925,-377.5 767,-377.5"/>
<text text-anchor="middle" x="846" y="-384.5" font-family="Helvetica,sans-Serif" font-size="10.00">DashBoardManager::wasLoaded</text>
</a>
</g>
</g>
<!-- Node9&#45;&gt;Node10 -->
<g id="edge9" class="edge"><title>Node9&#45;&gt;Node10</title>
<path fill="none" stroke="midnightblue" d="M720.121,-406.399C737.815,-403.65 756.413,-400.761 773.692,-398.077"/>
<polygon fill="midnightblue" stroke="midnightblue" points="774.352,-401.516 783.697,-396.523 773.278,-394.599 774.352,-401.516"/>
</g>
<!-- Node11 -->
<g id="node11" class="node"><title>Node11</title>
<g id="a_node11"><a xlink:href="class_dash_board_manager.html#a21ffd946b6843df16ca7b3ef704b596a" target="_top" xlink:title="DashBoardManager::setVisible">
<polygon fill="white" stroke="black" points="770,-415.5 770,-434.5 922,-434.5 922,-415.5 770,-415.5"/>
<text text-anchor="middle" x="846" y="-422.5" font-family="Helvetica,sans-Serif" font-size="10.00">DashBoardManager::setVisible</text>
</a>
</g>
</g>
<!-- Node9&#45;&gt;Node11 -->
<g id="edge10" class="edge"><title>Node9&#45;&gt;Node11</title>
<path fill="none" stroke="midnightblue" d="M720.121,-421.363C733.092,-421.741 746.548,-422.132 759.614,-422.513"/>
<polygon fill="midnightblue" stroke="midnightblue" points="759.895,-426.023 769.993,-422.815 760.099,-419.026 759.895,-426.023"/>
</g>
<!-- Node11&#45;&gt;Node7 -->
<g id="edge11" class="edge"><title>Node11&#45;&gt;Node7</title>
<path fill="none" stroke="midnightblue" d="M922.288,-431.274C950.236,-433.603 981.708,-436.226 1008.79,-438.482"/>
<polygon fill="midnightblue" stroke="midnightblue" points="1008.68,-441.985 1018.93,-439.328 1009.26,-435.009 1008.68,-441.985"/>
</g>
<!-- Node18 -->
<g id="node18" class="node"><title>Node18</title>
<g id="a_node18"><a xlink:href="class_character.html#ad78f70dcdb7ed4ccd8e97824f62847e1" target="_top" xlink:title="Character::setPhysicsEnabled">
<polygon fill="white" stroke="black" points="771.5,-114.5 771.5,-133.5 920.5,-133.5 920.5,-114.5 771.5,-114.5"/>
<text text-anchor="middle" x="846" y="-121.5" font-family="Helvetica,sans-Serif" font-size="10.00">Character::setPhysicsEnabled</text>
</a>
</g>
</g>
<!-- Node17&#45;&gt;Node18 -->
<g id="edge18" class="edge"><title>Node17&#45;&gt;Node18</title>
<path fill="none" stroke="midnightblue" d="M690.717,-152.46C718.756,-147.288 753.602,-140.86 783.079,-135.422"/>
<polygon fill="midnightblue" stroke="midnightblue" points="784.063,-138.8 793.262,-133.544 782.793,-131.916 784.063,-138.8"/>
</g>
<!-- Node19 -->
<g id="node19" class="node"><title>Node19</title>
<g id="a_node19"><a xlink:href="namespace_ro_r_1_1_app.html#a61093e1171e9aa1d2824499b9a6b8e18" target="_top" xlink:title="RoR::App::GetActiveMpState">
<polygon fill="white" stroke="black" points="773,-228.5 773,-247.5 919,-247.5 919,-228.5 773,-228.5"/>
<text text-anchor="middle" x="846" y="-235.5" font-family="Helvetica,sans-Serif" font-size="10.00">RoR::App::GetActiveMpState</text>
</a>
</g>
</g>
<!-- Node17&#45;&gt;Node19 -->
<g id="edge19" class="edge"><title>Node17&#45;&gt;Node19</title>
<path fill="none" stroke="midnightblue" d="M698.075,-171.564C705.722,-174.023 713.237,-177.115 720,-181 740.173,-192.588 735.712,-207.615 756,-219 759.983,-221.235 764.201,-223.208 768.55,-224.948"/>
<polygon fill="midnightblue" stroke="midnightblue" points="767.647,-228.342 778.242,-228.401 769.996,-221.748 767.647,-228.342"/>
</g>
<!-- Node20 -->
<g id="node20" class="node"><title>Node20</title>
<g id="a_node20"><a xlink:href="class_beam.html#adfe810237f6498de41657429ad35ee38" target="_top" xlink:title="Beam::hasDriverSeat">
<polygon fill="white" stroke="black" points="791,-190.5 791,-209.5 901,-209.5 901,-190.5 791,-190.5"/>
<text text-anchor="middle" x="846" y="-197.5" font-family="Helvetica,sans-Serif" font-size="10.00">Beam::hasDriverSeat</text>
</a>
</g>
</g>
<!-- Node17&#45;&gt;Node20 -->
<g id="edge20" class="edge"><title>Node17&#45;&gt;Node20</title>
<path fill="none" stroke="midnightblue" d="M690.717,-171.54C718.756,-176.712 753.602,-183.14 783.079,-188.578"/>
<polygon fill="midnightblue" stroke="midnightblue" points="782.793,-192.084 793.262,-190.456 784.063,-185.2 782.793,-192.084"/>
</g>
<!-- Node21 -->
<g id="node21" class="node"><title>Node21</title>
<g id="a_node21"><a xlink:href="class_character.html#a9431f9de49989e5bbf7e02810aca1f14" target="_top" xlink:title="Character::setVisible">
<polygon fill="white" stroke="black" points="792,-152.5 792,-171.5 900,-171.5 900,-152.5 792,-152.5"/>
<text text-anchor="middle" x="846" y="-159.5" font-family="Helvetica,sans-Serif" font-size="10.00">Character::setVisible</text>
</a>
</g>
</g>
<!-- Node17&#45;&gt;Node21 -->
<g id="edge21" class="edge"><title>Node17&#45;&gt;Node21</title>
<path fill="none" stroke="midnightblue" d="M709.605,-162C732.937,-162 758.737,-162 781.503,-162"/>
<polygon fill="midnightblue" stroke="midnightblue" points="781.73,-165.5 791.73,-162 781.73,-158.5 781.73,-165.5"/>
</g>
<!-- Node22 -->
<g id="node22" class="node"><title>Node22</title>
<g id="a_node22"><a xlink:href="class_survey_map_manager.html#a17809f36c8b9291270ced418f222faab" target="_top" xlink:title="SurveyMapManager::getMap\lEntityByName">
<polygon fill="white" stroke="black" points="1005,-68 1005,-98 1147,-98 1147,-68 1005,-68"/>
<text text-anchor="start" x="1013" y="-86" font-family="Helvetica,sans-Serif" font-size="10.00">SurveyMapManager::getMap</text>
<text text-anchor="middle" x="1076" y="-75" font-family="Helvetica,sans-Serif" font-size="10.00">EntityByName</text>
</a>
</g>
</g>
<!-- Node21&#45;&gt;Node22 -->
<g id="edge22" class="edge"><title>Node21&#45;&gt;Node22</title>
<path fill="none" stroke="midnightblue" d="M900.159,-152.444C912.069,-149.808 924.561,-146.651 936,-143 970.495,-131.992 1008.12,-115.457 1035.51,-102.531"/>
<polygon fill="midnightblue" stroke="midnightblue" points="1037.23,-105.588 1044.75,-98.1243 1034.22,-99.2693 1037.23,-105.588"/>
</g>
<!-- Node23 -->
<g id="node23" class="node"><title>Node23</title>
<g id="a_node23"><a xlink:href="class_survey_map_entity.html#ad3cc1cb8f1e71f876290abb0eb004c05" target="_top" xlink:title="SurveyMapEntity::setVisibility">
<polygon fill="white" stroke="black" points="1002,-152.5 1002,-171.5 1150,-171.5 1150,-152.5 1002,-152.5"/>
<text text-anchor="middle" x="1076" y="-159.5" font-family="Helvetica,sans-Serif" font-size="10.00">SurveyMapEntity::setVisibility</text>
</a>
</g>
</g>
<!-- Node21&#45;&gt;Node23 -->
<g id="edge23" class="edge"><title>Node21&#45;&gt;Node23</title>
<path fill="none" stroke="midnightblue" d="M900.168,-162C927.359,-162 961.08,-162 991.631,-162"/>
<polygon fill="midnightblue" stroke="midnightblue" points="991.856,-165.5 1001.86,-162 991.856,-158.5 991.856,-165.5"/>
</g>
<!-- Node25&#45;&gt;Node22 -->
<g id="edge26" class="edge"><title>Node25&#45;&gt;Node22</title>
<path fill="none" stroke="midnightblue" d="M686.605,-76.4871C707.76,-72.7216 733.027,-68.8532 756,-67 835.741,-60.5674 856.131,-62.4184 936,-67 955.015,-68.0908 975.422,-70.0143 994.583,-72.1582"/>
<polygon fill="midnightblue" stroke="midnightblue" points="994.444,-75.6652 1004.78,-73.3319 995.245,-68.7112 994.444,-75.6652"/>
</g>
<!-- Node26 -->
<g id="node26" class="node"><title>Node26</title>
<g id="a_node26"><a xlink:href="class_survey_map_entity.html#a781ecb998f41521324088cd3ce66d9ce" target="_top" xlink:title="SurveyMapEntity::setPosition">
<polygon fill="white" stroke="black" points="773,-76.5 773,-95.5 919,-95.5 919,-76.5 773,-76.5"/>
<text text-anchor="middle" x="846" y="-83.5" font-family="Helvetica,sans-Serif" font-size="10.00">SurveyMapEntity::setPosition</text>
</a>
</g>
</g>
<!-- Node25&#45;&gt;Node26 -->
<g id="edge27" class="edge"><title>Node25&#45;&gt;Node26</title>
<path fill="none" stroke="midnightblue" d="M695.018,-86C715.785,-86 739.795,-86 762.433,-86"/>
<polygon fill="midnightblue" stroke="midnightblue" points="762.721,-89.5001 772.721,-86 762.721,-82.5001 762.721,-89.5001"/>
</g>
<!-- Node28 -->
<g id="node28" class="node"><title>Node28</title>
<g id="a_node28"><a xlink:href="namespace_ro_r_1_1_app.html#a51a0672fc999e4d6da7bc06226c9dd1f" target="_top" xlink:title="RoR::App::GetIoFFbackMasterGain">
<polygon fill="white" stroke="black" points="759.5,-0.5 759.5,-19.5 932.5,-19.5 932.5,-0.5 759.5,-0.5"/>
<text text-anchor="middle" x="846" y="-7.5" font-family="Helvetica,sans-Serif" font-size="10.00">RoR::App::GetIoFFbackMasterGain</text>
</a>
</g>
</g>
<!-- Node27&#45;&gt;Node28 -->
<g id="edge29" class="edge"><title>Node27&#45;&gt;Node28</title>
<path fill="none" stroke="midnightblue" d="M693.124,-21.7962C710.381,-20.4558 730.021,-18.9304 749.317,-17.4317"/>
<polygon fill="midnightblue" stroke="midnightblue" points="749.663,-20.9155 759.362,-16.6515 749.121,-13.9365 749.663,-20.9155"/>
</g>
<!-- Node30 -->
<g id="node30" class="node"><title>Node30</title>
<g id="a_node30"><a xlink:href="class_camera_manager.html#a6f50a61b22fd1193ec25c5c2dc8f3ae3" target="_top" xlink:title="CameraManager::switchBehavior">
<polygon fill="white" stroke="black" points="765.5,-491.5 765.5,-510.5 926.5,-510.5 926.5,-491.5 765.5,-491.5"/>
<text text-anchor="middle" x="846" y="-498.5" font-family="Helvetica,sans-Serif" font-size="10.00">CameraManager::switchBehavior</text>
</a>
</g>
</g>
<!-- Node29&#45;&gt;Node30 -->
<g id="edge31" class="edge"><title>Node29&#45;&gt;Node30</title>
<path fill="none" stroke="midnightblue" d="M709.221,-529.993C724.633,-526.7 740.867,-523.232 756,-520 767.114,-517.626 779.009,-515.087 790.368,-512.661"/>
<polygon fill="midnightblue" stroke="midnightblue" points="791.131,-516.077 800.18,-510.567 789.669,-509.232 791.131,-516.077"/>
</g>
<!-- Node31 -->
<g id="node31" class="node"><title>Node31</title>
<g id="a_node31"><a xlink:href="class_beam.html#a39d38800d5ab3b85b305d94b2c8ea502" target="_top" xlink:title="Beam::GetCameraContext">
<polygon fill="white" stroke="black" points="1009.5,-515.5 1009.5,-534.5 1142.5,-534.5 1142.5,-515.5 1009.5,-515.5"/>
<text text-anchor="middle" x="1076" y="-522.5" font-family="Helvetica,sans-Serif" font-size="10.00">Beam::GetCameraContext</text>
</a>
</g>
</g>
<!-- Node29&#45;&gt;Node31 -->
<g id="edge33" class="edge"><title>Node29&#45;&gt;Node31</title>
<path fill="none" stroke="midnightblue" d="M700.575,-560.061C718.348,-563.745 737.846,-567.157 756,-569 835.591,-577.079 856.938,-581.215 936,-569 973.652,-563.183 1015.08,-548.996 1042.83,-538.292"/>
<polygon fill="midnightblue" stroke="midnightblue" points="1044.37,-541.445 1052.4,-534.528 1041.81,-534.931 1044.37,-541.445"/>
</g>
<!-- Node32 -->
<g id="node32" class="node"><title>Node32</title>
<g id="a_node32"><a xlink:href="class_camera_manager.html#a522774afcf439b4e08bc364259d97062" target="_top" xlink:title="CameraManager::SwitchBehavior\lOnVehicleChange">
<polygon fill="white" stroke="black" points="764.5,-530 764.5,-560 927.5,-560 927.5,-530 764.5,-530"/>
<text text-anchor="start" x="772.5" y="-548" font-family="Helvetica,sans-Serif" font-size="10.00">CameraManager::SwitchBehavior</text>
<text text-anchor="middle" x="846" y="-537" font-family="Helvetica,sans-Serif" font-size="10.00">OnVehicleChange</text>
</a>
</g>
</g>
<!-- Node29&#45;&gt;Node32 -->
<g id="edge34" class="edge"><title>Node29&#45;&gt;Node32</title>
<path fill="none" stroke="midnightblue" d="M714.537,-545C727.439,-545 740.961,-545 754.21,-545"/>
<polygon fill="midnightblue" stroke="midnightblue" points="754.274,-548.5 764.274,-545 754.274,-541.5 754.274,-548.5"/>
</g>
<!-- Node30&#45;&gt;Node31 -->
<g id="edge32" class="edge"><title>Node30&#45;&gt;Node31</title>
<path fill="none" stroke="midnightblue" d="M926.743,-509.394C950.234,-511.867 975.865,-514.565 999.107,-517.011"/>
<polygon fill="midnightblue" stroke="midnightblue" points="998.942,-520.513 1009.25,-518.079 999.675,-513.552 998.942,-520.513"/>
</g>
<!-- Node34 -->
<g id="node34" class="node"><title>Node34</title>
<g id="a_node34"><a xlink:href="class_ro_r_1_1_beam_factory.html#aeb17b3a10c961e56770f7dc87a16625c" target="_top" xlink:title="RoR::BeamFactory::getCurrent\lTruck">
<polygon fill="white" stroke="black" points="561.5,-667 561.5,-697 714.5,-697 714.5,-667 561.5,-667"/>
<text text-anchor="start" x="569.5" y="-685" font-family="Helvetica,sans-Serif" font-size="10.00">RoR::BeamFactory::getCurrent</text>
<text text-anchor="middle" x="638" y="-674" font-family="Helvetica,sans-Serif" font-size="10.00">Truck</text>
</a>
</g>
</g>
<!-- Node33&#45;&gt;Node34 -->
<g id="edge36" class="edge"><title>Node33&#45;&gt;Node34</title>
<path fill="none" stroke="midnightblue" d="M517.67,-664.862C528.512,-666.419 539.839,-668.046 551.014,-669.651"/>
<polygon fill="midnightblue" stroke="midnightblue" points="550.82,-673.159 561.216,-671.116 551.815,-666.23 550.82,-673.159"/>
</g>
<!-- Node35 -->
<g id="node35" class="node"><title>Node35</title>
<g id="a_node35"><a xlink:href="class_ro_r_1_1_beam_factory.html#a79720bddfd56a8689f7e60f93e1678cd" target="_top" xlink:title="RoR::BeamFactory::Recursive\lActivation">
<polygon fill="white" stroke="black" points="562,-618 562,-648 714,-648 714,-618 562,-618"/>
<text text-anchor="start" x="570" y="-636" font-family="Helvetica,sans-Serif" font-size="10.00">RoR::BeamFactory::Recursive</text>
<text text-anchor="middle" x="638" y="-625" font-family="Helvetica,sans-Serif" font-size="10.00">Activation</text>
</a>
</g>
</g>
<!-- Node33&#45;&gt;Node35 -->
<g id="edge38" class="edge"><title>Node33&#45;&gt;Node35</title>
<path fill="none" stroke="midnightblue" d="M517.67,-646.964C528.785,-645.663 540.41,-644.303 551.858,-642.963"/>
<polygon fill="midnightblue" stroke="midnightblue" points="552.33,-646.432 561.856,-641.793 551.517,-639.48 552.33,-646.432"/>
</g>
<!-- Node34&#45;&gt;Node3 -->
<g id="edge37" class="edge"><title>Node34&#45;&gt;Node3</title>
<path fill="none" stroke="midnightblue" d="M709.317,-697.019C735.85,-702.686 765.61,-709.043 790.483,-714.356"/>
<polygon fill="midnightblue" stroke="midnightblue" points="789.954,-717.821 800.465,-716.488 791.416,-710.976 789.954,-717.821"/>
</g>
<!-- Node36 -->
<g id="node36" class="node"><title>Node36</title>
<g id="a_node36"><a xlink:href="class_ro_r_1_1_beam_factory.html#acab7b0c4b54d1d6c4950882447ed6661" target="_top" xlink:title="RoR::BeamFactory::truckIntersection\lCollAABB">
<polygon fill="white" stroke="black" points="756,-667 756,-697 936,-697 936,-667 756,-667"/>
<text text-anchor="start" x="764" y="-685" font-family="Helvetica,sans-Serif" font-size="10.00">RoR::BeamFactory::truckIntersection</text>
<text text-anchor="middle" x="846" y="-674" font-family="Helvetica,sans-Serif" font-size="10.00">CollAABB</text>
</a>
</g>
</g>
<!-- Node35&#45;&gt;Node36 -->
<g id="edge39" class="edge"><title>Node35&#45;&gt;Node36</title>
<path fill="none" stroke="midnightblue" d="M702.207,-648.035C724.254,-653.279 749.176,-659.207 771.956,-664.626"/>
<polygon fill="midnightblue" stroke="midnightblue" points="771.374,-668.085 781.913,-666.994 772.994,-661.275 771.374,-668.085"/>
</g>
<!-- Node39 -->
<g id="node39" class="node"><title>Node39</title>
<g id="a_node39"><a xlink:href="class_ro_r_1_1_beam_factory.html#aede50015ffb569b00e4afee1a34fa854" target="_top" xlink:title="RoR::BeamFactory::predict\lTruckIntersectionCollAABB">
<polygon fill="white" stroke="black" points="777.5,-618 777.5,-648 914.5,-648 914.5,-618 777.5,-618"/>
<text text-anchor="start" x="785.5" y="-636" font-family="Helvetica,sans-Serif" font-size="10.00">RoR::BeamFactory::predict</text>
<text text-anchor="middle" x="846" y="-625" font-family="Helvetica,sans-Serif" font-size="10.00">TruckIntersectionCollAABB</text>
</a>
</g>
</g>
<!-- Node35&#45;&gt;Node39 -->
<g id="edge43" class="edge"><title>Node35&#45;&gt;Node39</title>
<path fill="none" stroke="midnightblue" d="M714.245,-633C731.539,-633 749.961,-633 767.355,-633"/>
<polygon fill="midnightblue" stroke="midnightblue" points="767.461,-636.5 777.461,-633 767.461,-629.5 767.461,-636.5"/>
</g>
<!-- Node37 -->
<g id="node37" class="node"><title>Node37</title>
<g id="a_node37"><a xlink:href="class_ro_r_1_1_beam_factory.html#a65a7adae4e12c91a71eedf77d9b739a9" target="_top" xlink:title="RoR::BeamFactory::truckIntersectionAABB">
<polygon fill="white" stroke="black" points="972.5,-704.5 972.5,-723.5 1179.5,-723.5 1179.5,-704.5 972.5,-704.5"/>
<text text-anchor="middle" x="1076" y="-711.5" font-family="Helvetica,sans-Serif" font-size="10.00">RoR::BeamFactory::truckIntersectionAABB</text>
</a>
</g>
</g>
<!-- Node36&#45;&gt;Node37 -->
<g id="edge40" class="edge"><title>Node36&#45;&gt;Node37</title>
<path fill="none" stroke="midnightblue" d="M936.13,-694.51C956.232,-697.331 977.418,-700.304 997.02,-703.056"/>
<polygon fill="midnightblue" stroke="midnightblue" points="996.723,-706.548 1007.11,-704.472 997.696,-699.616 996.723,-706.548"/>
</g>
<!-- Node38 -->
<g id="node38" class="node"><title>Node38</title>
<g id="a_node38"><a xlink:href="class_ro_r_1_1_beam_factory.html#abea20f91f941f569f0b95f32ae2638ec" target="_top" xlink:title="RoR::BeamFactory::intersectionAABB">
<polygon fill="white" stroke="black" points="1216.5,-647.5 1216.5,-666.5 1401.5,-666.5 1401.5,-647.5 1216.5,-647.5"/>
<text text-anchor="middle" x="1309" y="-654.5" font-family="Helvetica,sans-Serif" font-size="10.00">RoR::BeamFactory::intersectionAABB</text>
</a>
</g>
</g>
<!-- Node36&#45;&gt;Node38 -->
<g id="edge42" class="edge"><title>Node36&#45;&gt;Node38</title>
<path fill="none" stroke="midnightblue" d="M936.159,-677.165C1013.47,-672.972 1125.33,-666.906 1206.15,-662.523"/>
<polygon fill="midnightblue" stroke="midnightblue" points="1206.55,-666.007 1216.34,-661.971 1206.17,-659.017 1206.55,-666.007"/>
</g>
<!-- Node37&#45;&gt;Node38 -->
<g id="edge41" class="edge"><title>Node37&#45;&gt;Node38</title>
<path fill="none" stroke="midnightblue" d="M1119.15,-704.413C1137.82,-700.107 1160.03,-694.901 1180,-690 1207.33,-683.295 1237.84,-675.443 1262.22,-669.081"/>
<polygon fill="midnightblue" stroke="midnightblue" points="1263.13,-672.459 1271.92,-666.543 1261.36,-665.687 1263.13,-672.459"/>
</g>
<!-- Node39&#45;&gt;Node38 -->
<g id="edge46" class="edge"><title>Node39&#45;&gt;Node38</title>
<path fill="none" stroke="midnightblue" d="M914.527,-636.516C991.346,-640.515 1117.61,-647.088 1206.34,-651.708"/>
<polygon fill="midnightblue" stroke="midnightblue" points="1206.26,-655.208 1216.43,-652.233 1206.62,-648.217 1206.26,-655.208"/>
</g>
<!-- Node40 -->
<g id="node40" class="node"><title>Node40</title>
<g id="a_node40"><a xlink:href="class_ro_r_1_1_beam_factory.html#a6e019b56235074247a1c7e058f219f92" target="_top" xlink:title="RoR::BeamFactory::predict\lTruckIntersectionAABB">
<polygon fill="white" stroke="black" points="1007.5,-579 1007.5,-609 1144.5,-609 1144.5,-579 1007.5,-579"/>
<text text-anchor="start" x="1015.5" y="-597" font-family="Helvetica,sans-Serif" font-size="10.00">RoR::BeamFactory::predict</text>
<text text-anchor="middle" x="1076" y="-586" font-family="Helvetica,sans-Serif" font-size="10.00">TruckIntersectionAABB</text>
</a>
</g>
</g>
<!-- Node39&#45;&gt;Node40 -->
<g id="edge44" class="edge"><title>Node39&#45;&gt;Node40</title>
<path fill="none" stroke="midnightblue" d="M914.79,-621.404C940.747,-616.964 970.55,-611.866 997.358,-607.281"/>
<polygon fill="midnightblue" stroke="midnightblue" points="998.204,-610.687 1007.47,-605.551 997.024,-603.787 998.204,-610.687"/>
</g>
<!-- Node40&#45;&gt;Node38 -->
<g id="edge45" class="edge"><title>Node40&#45;&gt;Node38</title>
<path fill="none" stroke="midnightblue" d="M1132.04,-609.01C1172.05,-619.922 1225.54,-634.51 1263,-644.727"/>
<polygon fill="midnightblue" stroke="midnightblue" points="1262.55,-648.232 1273.12,-647.486 1264.39,-641.478 1262.55,-648.232"/>
</g>
</g>
</svg>
        <g id="navigator" transform="translate(0 0)" fill="#404254">
                <rect fill="#f2f5e9" fill-opacity="0.5" stroke="#606060" stroke-width=".5" x="0" y="0" width="60" height="60"/>
                <use id="zoomplus" xlink:href="#zoomPlus" x="17" y="9" onmousedown="handleZoom(evt,'in')"/>
                <use id="zoomminus" xlink:href="#zoomMin" x="42" y="9" onmousedown="handleZoom(evt,'out')"/>
                <use id="reset" xlink:href="#resetDef" x="30" y="36" onmousedown="handleReset()"/>
                <g id="arrowUp" xlink:href="#dirArrow" transform="translate(30 24)" onmousedown="handlePan(0,-1)">
                  <use xlink:href="#rim" fill="#404040">
                        <set attributeName="fill" to="#808080" begin="arrowUp.mouseover" end="arrowUp.mouseout"/>
                  </use>
                  <path fill="none" stroke="white" stroke-width="1.5" d="M0,-3.0v7 M-2.5,-0.5L0,-3.0L2.5,-0.5"/>
                </g>
                <g id="arrowRight" xlink:href="#dirArrow" transform="rotate(90) translate(36 -43)" onmousedown="handlePan(1,0)">
                  <use xlink:href="#rim" fill="#404040">
                        <set attributeName="fill" to="#808080" begin="arrowRight.mouseover" end="arrowRight.mouseout"/>
                  </use>
                  <path fill="none" stroke="white" stroke-width="1.5" d="M0,-3.0v7 M-2.5,-0.5L0,-3.0L2.5,-0.5"/>
                </g>
                <g id="arrowDown" xlink:href="#dirArrow" transform="rotate(180) translate(-30 -48)" onmousedown="handlePan(0,1)">
                  <use xlink:href="#rim" fill="#404040">
                        <set attributeName="fill" to="#808080" begin="arrowDown.mouseover" end="arrowDown.mouseout"/>
                  </use>
                  <path fill="none" stroke="white" stroke-width="1.5" d="M0,-3.0v7 M-2.5,-0.5L0,-3.0L2.5,-0.5"/>
                </g>
                <g id="arrowLeft" xlink:href="#dirArrow" transform="rotate(270) translate(-36 17)" onmousedown="handlePan(-1,0)">
                  <use xlink:href="#rim" fill="#404040">
                        <set attributeName="fill" to="#808080" begin="arrowLeft.mouseover" end="arrowLeft.mouseout"/>
                  </use>
                  <path fill="none" stroke="white" stroke-width="1.5" d="M0,-3.0v7 M-2.5,-0.5L0,-3.0L2.5,-0.5"/>
                </g>
        </g>
        <svg viewBox="0 0 15 15" width="100%" height="30px" preserveAspectRatio="xMaxYMin meet">
         <g id="arrow_out" transform="scale(0.3 0.3)">
          <a xlink:href="class_ro_r_1_1_beam_factory_abcdedea5c3b7dab93c09ff70d904e038_cgraph_org.svg" target="_base">
           <rect id="button" ry="5" rx="5" y="6" x="6" height="38" width="38"
                fill="#f2f5e9" fill-opacity="0.5" stroke="#606060" stroke-width="1.0"/>
           <path id="arrow"
             d="M 11.500037,31.436501 C 11.940474,20.09759 22.043105,11.32322 32.158766,21.979434 L 37.068811,17.246167 C 37.068811,17.246167 37.088388,32 37.088388,32 L 22.160133,31.978069 C 22.160133,31.978069 26.997745,27.140456 26.997745,27.140456 C 18.528582,18.264221 13.291696,25.230495 11.500037,31.436501 z"
             style="fill:#404040;"/>
          </a>
         </g>
        </svg>
</svg>
