<?xml version="1.0" encoding="UTF-8" standalone="no"?>
<!DOCTYPE svg PUBLIC "-//W3C//DTD SVG 1.1//EN"
 "http://www.w3.org/Graphics/SVG/1.1/DTD/svg11.dtd">
<!-- Generated by graphviz version 2.36.0 (20140111.2315)
 -->
<!-- Title: RoR::BeamFactory::removeCurrentTruck Pages: 1 -->
<svg width="692pt" height="97pt"
 viewBox="0.00 0.00 692.00 97.00" xmlns="http://www.w3.org/2000/svg" xmlns:xlink="http://www.w3.org/1999/xlink">
<g id="graph0" class="graph" transform="scale(1 1) rotate(0) translate(4 93)">
<title>RoR::BeamFactory::removeCurrentTruck</title>
<polygon fill="white" stroke="none" points="-4,4 -4,-93 688,-93 688,4 -4,4"/>
<!-- Node1 -->
<g id="node1" class="node"><title>Node1</title>
<polygon fill="#bfbfbf" stroke="black" points="0,-25 0,-55 140,-55 140,-25 0,-25"/>
<text text-anchor="start" x="8" y="-43" font-family="Helvetica,sans-Serif" font-size="10.00">RoR::BeamFactory::remove</text>
<text text-anchor="middle" x="70" y="-32" font-family="Helvetica,sans-Serif" font-size="10.00">CurrentTruck</text>
</g>
<!-- Node2 -->
<g id="node2" class="node"><title>Node2</title>
<g id="a_node2"><a xlink:href="class_ro_r_frame_listener.html#afec2a0f00ed552c21d22aae76329bf38" target="_top" xlink:title="RoRFrameListener::Update\lInputEvents">
<polygon fill="white" stroke="black" points="348.5,-59 348.5,-89 485.5,-89 485.5,-59 348.5,-59"/>
<text text-anchor="start" x="356.5" y="-77" font-family="Helvetica,sans-Serif" font-size="10.00">RoRFrameListener::Update</text>
<text text-anchor="middle" x="417" y="-66" font-family="Helvetica,sans-Serif" font-size="10.00">InputEvents</text>
</a>
</g>
</g>
<!-- Node1&#45;&gt;Node2 -->
<g id="edge1" class="edge"><title>Node1&#45;&gt;Node2</title>
<path fill="none" stroke="midnightblue" d="M138.066,-57.2475C150.599,-59.9233 163.643,-62.3445 176,-64 233.867,-71.7524 300.219,-74.0164 348.47,-74.4763"/>
<polygon fill="midnightblue" stroke="midnightblue" points="138.666,-53.7958 128.147,-55.0568 137.157,-60.6311 138.666,-53.7958"/>
</g>
<!-- Node4 -->
<g id="node4" class="node"><title>Node4</title>
<g id="a_node4"><a xlink:href="class_ro_r_frame_listener.html#a74e44d8907e7f6ffddedd260f307a764" target="_top" xlink:title="RoRFrameListener::Reload\lCurrentTruck">
<polygon fill="white" stroke="black" points="176,-25 176,-55 312,-55 312,-25 176,-25"/>
<text text-anchor="start" x="184" y="-43" font-family="Helvetica,sans-Serif" font-size="10.00">RoRFrameListener::Reload</text>
<text text-anchor="middle" x="244" y="-32" font-family="Helvetica,sans-Serif" font-size="10.00">CurrentTruck</text>
</a>
</g>
</g>
<!-- Node1&#45;&gt;Node4 -->
<g id="edge3" class="edge"><title>Node1&#45;&gt;Node4</title>
<path fill="none" stroke="midnightblue" d="M150.654,-40C159.059,-40 167.545,-40 175.789,-40"/>
<polygon fill="midnightblue" stroke="midnightblue" points="150.463,-36.5001 140.463,-40 150.463,-43.5001 150.463,-36.5001"/>
</g>
<!-- Node5 -->
<g id="node5" class="node"><title>Node5</title>
<g id="a_node5"><a xlink:href="class_ro_r_1_1_g_u_i_1_1_top_menubar.html#ad1c44bd3c1247dcd8b876ff7728fac32" target="_top" xlink:title="RoR::GUI::TopMenubar\l::onMenuBtn">
<polygon fill="white" stroke="black" points="356.5,-0 356.5,-30 477.5,-30 477.5,-0 356.5,-0"/>
<text text-anchor="start" x="364.5" y="-18" font-family="Helvetica,sans-Serif" font-size="10.00">RoR::GUI::TopMenubar</text>
<text text-anchor="middle" x="417" y="-7" font-family="Helvetica,sans-Serif" font-size="10.00">::onMenuBtn</text>
</a>
</g>
</g>
<!-- Node1&#45;&gt;Node5 -->
<g id="edge7" class="edge"><title>Node1&#45;&gt;Node5</title>
<path fill="none" stroke="midnightblue" d="M133.403,-22.6168C147.315,-19.4508 162.072,-16.6352 176,-15 237.039,-7.83361 307.414,-8.92536 356.103,-11.1381"/>
<polygon fill="midnightblue" stroke="midnightblue" points="132.371,-19.2641 123.446,-24.9723 133.983,-26.0761 132.371,-19.2641"/>
</g>
<!-- Node3 -->
<g id="node3" class="node"><title>Node3</title>
<g id="a_node3"><a xlink:href="class_ro_r_frame_listener.html#acd8647e188fb8e838689492965b86faf" target="_top" xlink:title="RoRFrameListener::frameStarted">
<polygon fill="white" stroke="black" points="522.5,-64.5 522.5,-83.5 683.5,-83.5 683.5,-64.5 522.5,-64.5"/>
<text text-anchor="middle" x="603" y="-71.5" font-family="Helvetica,sans-Serif" font-size="10.00">RoRFrameListener::frameStarted</text>
</a>
</g>
</g>
<!-- Node2&#45;&gt;Node3 -->
<g id="edge2" class="edge"><title>Node2&#45;&gt;Node3</title>
<path fill="none" stroke="midnightblue" d="M495.879,-74C504.608,-74 513.511,-74 522.263,-74"/>
<polygon fill="midnightblue" stroke="midnightblue" points="495.731,-70.5001 485.731,-74 495.731,-77.5001 495.731,-70.5001"/>
</g>
<!-- Node4&#45;&gt;Node2 -->
<g id="edge4" class="edge"><title>Node4&#45;&gt;Node2</title>
<path fill="none" stroke="midnightblue" d="M321.932,-55.2965C330.711,-57.042 339.611,-58.8116 348.258,-60.5308"/>
<polygon fill="midnightblue" stroke="midnightblue" points="322.584,-51.8575 312.093,-53.3401 321.218,-58.7231 322.584,-51.8575"/>
</g>
<!-- Node4&#45;&gt;Node5 -->
<g id="edge5" class="edge"><title>Node4&#45;&gt;Node5</title>
<path fill="none" stroke="midnightblue" d="M322.109,-28.7268C333.59,-27.0483 345.274,-25.34 356.324,-23.7246"/>
<polygon fill="midnightblue" stroke="midnightblue" points="321.481,-25.2812 312.093,-30.1911 322.494,-32.2076 321.481,-25.2812"/>
</g>
<!-- Node6 -->
<g id="node6" class="node"><title>Node6</title>
<g id="a_node6"><a xlink:href="class_ro_r_1_1_g_u_i_1_1_top_menubar.html#aba4f8b1030da3a9d3b4394562d60a05a" target="_top" xlink:title="RoR::GUI::TopMenubar\l::TopMenubar">
<polygon fill="white" stroke="black" points="542.5,-0 542.5,-30 663.5,-30 663.5,-0 542.5,-0"/>
<text text-anchor="start" x="550.5" y="-18" font-family="Helvetica,sans-Serif" font-size="10.00">RoR::GUI::TopMenubar</text>
<text text-anchor="middle" x="603" y="-7" font-family="Helvetica,sans-Serif" font-size="10.00">::TopMenubar</text>
</a>
</g>
</g>
<!-- Node5&#45;&gt;Node6 -->
<g id="edge6" class="edge"><title>Node5&#45;&gt;Node6</title>
<path fill="none" stroke="midnightblue" d="M487.843,-15C505.767,-15 524.883,-15 542.246,-15"/>
<polygon fill="midnightblue" stroke="midnightblue" points="487.74,-11.5001 477.74,-15 487.739,-18.5001 487.74,-11.5001"/>
</g>
</g>
</svg>
