<?xml version="1.0" encoding="UTF-8" standalone="no"?>
<!DOCTYPE svg PUBLIC "-//W3C//DTD SVG 1.1//EN"
 "http://www.w3.org/Graphics/SVG/1.1/DTD/svg11.dtd">
<!-- Generated by graphviz version 2.36.0 (20140111.2315)
 -->
<!-- Title: IWater Pages: 1 -->
<svg width="143pt" height="84pt"
 viewBox="0.00 0.00 143.00 84.00" xmlns="http://www.w3.org/2000/svg" xmlns:xlink="http://www.w3.org/1999/xlink">
<g id="graph0" class="graph" transform="scale(1 1) rotate(0) translate(4 80)">
<title>IWater</title>
<polygon fill="white" stroke="none" points="-4,4 -4,-80 139,-80 139,4 -4,4"/>
<!-- Node1 -->
<g id="node1" class="node"><title>Node1</title>
<polygon fill="#bfbfbf" stroke="black" points="52,-56.5 52,-75.5 98,-75.5 98,-56.5 52,-56.5"/>
<text text-anchor="middle" x="75" y="-63.5" font-family="Helvetica,sans-Serif" font-size="10.00">IWater</text>
</g>
<!-- Node2 -->
<g id="node2" class="node"><title>Node2</title>
<g id="a_node2"><a xlink:href="class_hydrax_water.html" target="_top" xlink:title="HydraxWater">
<polygon fill="white" stroke="black" points="0,-0.5 0,-19.5 74,-19.5 74,-0.5 0,-0.5"/>
<text text-anchor="middle" x="37" y="-7.5" font-family="Helvetica,sans-Serif" font-size="10.00">HydraxWater</text>
</a>
</g>
</g>
<!-- Node1&#45;&gt;Node2 -->
<g id="edge1" class="edge"><title>Node1&#45;&gt;Node2</title>
<path fill="none" stroke="midnightblue" d="M62.9353,-47.8554C56.3553,-38.5048 48.489,-27.3265 43.1582,-19.7511"/>
<polygon fill="midnightblue" stroke="midnightblue" points="60.1078,-49.9192 68.7251,-56.083 65.8324,-45.8907 60.1078,-49.9192"/>
</g>
<!-- Node3 -->
<g id="node3" class="node"><title>Node3</title>
<g id="a_node3"><a xlink:href="class_water.html" target="_top" xlink:title="Water">
<polygon fill="white" stroke="black" points="92.5,-0.5 92.5,-19.5 135.5,-19.5 135.5,-0.5 92.5,-0.5"/>
<text text-anchor="middle" x="114" y="-7.5" font-family="Helvetica,sans-Serif" font-size="10.00">Water</text>
</a>
</g>
</g>
<!-- Node1&#45;&gt;Node3 -->
<g id="edge2" class="edge"><title>Node1&#45;&gt;Node3</title>
<path fill="none" stroke="midnightblue" d="M87.3822,-47.8554C94.1354,-38.5048 102.209,-27.3265 107.68,-19.7511"/>
<polygon fill="midnightblue" stroke="midnightblue" points="84.4576,-45.927 81.4401,-56.083 90.1324,-50.0254 84.4576,-45.927"/>
</g>
</g>
</svg>
