<?xml version="1.0" encoding="UTF-8" standalone="no"?>
<!DOCTYPE svg PUBLIC "-//W3C//DTD SVG 1.1//EN"
 "http://www.w3.org/Graphics/SVG/1.1/DTD/svg11.dtd">
<!-- Generated by graphviz version 2.36.0 (20140111.2315)
 -->
<!-- Title: Hydrax::Noise::FFT::saveCfg Pages: 1 -->
<svg width="272pt" height="87pt"
 viewBox="0.00 0.00 272.00 87.00" xmlns="http://www.w3.org/2000/svg" xmlns:xlink="http://www.w3.org/1999/xlink">
<g id="graph0" class="graph" transform="scale(1 1) rotate(0) translate(4 83)">
<title>Hydrax::Noise::FFT::saveCfg</title>
<polygon fill="white" stroke="none" points="-4,4 -4,-83 268,-83 268,4 -4,4"/>
<!-- Node1 -->
<g id="node1" class="node"><title>Node1</title>
<polygon fill="#bfbfbf" stroke="black" points="0,-24 0,-54 104,-54 104,-24 0,-24"/>
<text text-anchor="start" x="8" y="-42" font-family="Helvetica,sans-Serif" font-size="10.00">Hydrax::Noise::FFT</text>
<text text-anchor="middle" x="52" y="-31" font-family="Helvetica,sans-Serif" font-size="10.00">::saveCfg</text>
</g>
<!-- Node2 -->
<g id="node2" class="node"><title>Node2</title>
<g id="a_node2"><a xlink:href="class_hydrax_1_1_noise_1_1_noise.html#aac0a9fe1533ddd87467edb954f8abea8" target="_top" xlink:title="Hydrax::Noise::Noise\l::saveCfg">
<polygon fill="white" stroke="black" points="146.5,-49 146.5,-79 257.5,-79 257.5,-49 146.5,-49"/>
<text text-anchor="start" x="154.5" y="-67" font-family="Helvetica,sans-Serif" font-size="10.00">Hydrax::Noise::Noise</text>
<text text-anchor="middle" x="202" y="-56" font-family="Helvetica,sans-Serif" font-size="10.00">::saveCfg</text>
</a>
</g>
</g>
<!-- Node1&#45;&gt;Node2 -->
<g id="edge1" class="edge"><title>Node1&#45;&gt;Node2</title>
<path fill="none" stroke="midnightblue" d="M104.348,-47.6736C114.661,-49.4156 125.623,-51.2674 136.321,-53.0745"/>
<polygon fill="midnightblue" stroke="midnightblue" points="136.024,-56.5739 146.467,-54.7884 137.19,-49.6716 136.024,-56.5739"/>
</g>
<!-- Node3 -->
<g id="node3" class="node"><title>Node3</title>
<g id="a_node3"><a xlink:href="class_hydrax_1_1_cfg_file_manager.html#a020c0d58713f7ecbd396101247bcab1b" target="_top" xlink:title="Hydrax::CfgFileManager\l::_getCfgString">
<polygon fill="white" stroke="black" points="140.5,-0 140.5,-30 263.5,-30 263.5,-0 140.5,-0"/>
<text text-anchor="start" x="148.5" y="-18" font-family="Helvetica,sans-Serif" font-size="10.00">Hydrax::CfgFileManager</text>
<text text-anchor="middle" x="202" y="-7" font-family="Helvetica,sans-Serif" font-size="10.00">::_getCfgString</text>
</a>
</g>
</g>
<!-- Node1&#45;&gt;Node3 -->
<g id="edge2" class="edge"><title>Node1&#45;&gt;Node3</title>
<path fill="none" stroke="midnightblue" d="M104.348,-30.6733C112.78,-29.306 121.645,-27.8683 130.446,-26.4412"/>
<polygon fill="midnightblue" stroke="midnightblue" points="131.017,-29.8943 140.328,-24.8387 129.897,-22.9846 131.017,-29.8943"/>
</g>
</g>
</svg>
