<?xml version="1.0" encoding="UTF-8" standalone="no"?>
<!DOCTYPE svg PUBLIC "-//W3C//DTD SVG 1.1//EN"
 "http://www.w3.org/Graphics/SVG/1.1/DTD/svg11.dtd">
<!-- Generated by graphviz version 2.36.0 (20140111.2315)
 -->
<!-- Title: TerrainGeometryManager::getPageConfigFilename Pages: 1 -->
<!--zoomable 126 -->
<svg id="main" version="1.1" xmlns="http://www.w3.org/2000/svg" xmlns:xlink="http://www.w3.org/1999/xlink" xml:space="preserve" onload="init(evt)">
<style type="text/css"><![CDATA[
.edge:hover path { stroke: red; }
.edge:hover polygon { stroke: red; fill: red; }
]]></style>
<script type="text/javascript"><![CDATA[
var edges = document.getElementsByTagName('g');
if (edges && edges.length) {
  for (var i=0;i<edges.length;i++) {
    if (edges[i].id.substr(0,4)=='edge') {
      edges[i].setAttribute('class','edge');
    }
  }
}
]]></script>
        <defs>
                <circle id="rim" cx="0" cy="0" r="7"/>
                <circle id="rim2" cx="0" cy="0" r="3.5"/>
                <g id="zoomPlus">
                        <use xlink:href="#rim" fill="#404040">
                                <set attributeName="fill" to="#808080" begin="zoomplus.mouseover" end="zoomplus.mouseout"/>
                        </use>
                        <path d="M-4,0h8M0,-4v8" fill="none" stroke="white" stroke-width="1.5" pointer-events="none"/>
                </g>
                <g id="zoomMin">
                        <use xlink:href="#rim" fill="#404040">
                                <set attributeName="fill" to="#808080" begin="zoomminus.mouseover" end="zoomminus.mouseout"/>
                        </use>
                        <path d="M-4,0h8" fill="none" stroke="white" stroke-width="1.5" pointer-events="none"/>
                </g>
                <g id="dirArrow">
                        <path fill="none" stroke="white" stroke-width="1.5" d="M0,-3.0v7 M-2.5,-0.5L0,-3.0L2.5,-0.5"/>
                </g>
               <g id="resetDef">
                       <use xlink:href="#rim2" fill="#404040">
                               <set attributeName="fill" to="#808080" begin="reset.mouseover" end="reset.mouseout"/>
                       </use>
               </g>
        </defs>

<script type="text/javascript">
var viewWidth = 1886;
var viewHeight = 126;
var sectionId = 'dynsection-17';
</script>
<script xlink:href="svgpan.js"/>
<svg id="graph" class="graph">
<g id="viewport">
<title>TerrainGeometryManager::getPageConfigFilename</title>
<polygon fill="white" stroke="none" points="-4,4 -4,-122 1882,-122 1882,4 -4,4"/>
<!-- Node1 -->
<g id="node1" class="node"><title>Node1</title>
<polygon fill="#bfbfbf" stroke="black" points="0.5,-63 0.5,-93 127.5,-93 127.5,-63 0.5,-63"/>
<text text-anchor="start" x="8.5" y="-81" font-family="Helvetica,sans-Serif" font-size="10.00">TerrainGeometryManager</text>
<text text-anchor="middle" x="64" y="-70" font-family="Helvetica,sans-Serif" font-size="10.00">::getPageConfigFilename</text>
</g>
<!-- Node2 -->
<g id="node2" class="node"><title>Node2</title>
<g id="a_node2"><a xlink:href="class_terrain_geometry_manager.html#a8ba9a7f3dd580bca8f77a3367f9a1043" target="_top" xlink:title="TerrainGeometryManager\l::getPageConfig">
<polygon fill="white" stroke="black" points="164.5,-63 164.5,-93 291.5,-93 291.5,-63 164.5,-63"/>
<text text-anchor="start" x="172.5" y="-81" font-family="Helvetica,sans-Serif" font-size="10.00">TerrainGeometryManager</text>
<text text-anchor="middle" x="228" y="-70" font-family="Helvetica,sans-Serif" font-size="10.00">::getPageConfig</text>
</a>
</g>
</g>
<!-- Node1&#45;&gt;Node2 -->
<g id="edge1" class="edge"><title>Node1&#45;&gt;Node2</title>
<path fill="none" stroke="midnightblue" d="M137.885,-78C146.69,-78 155.624,-78 164.266,-78"/>
<polygon fill="midnightblue" stroke="midnightblue" points="137.633,-74.5001 127.633,-78 137.633,-81.5001 137.633,-74.5001"/>
</g>
<!-- Node3 -->
<g id="node3" class="node"><title>Node3</title>
<g id="a_node3"><a xlink:href="class_terrain_geometry_manager.html#a5d955662dda8b746d97fe586997f2471" target="_top" xlink:title="TerrainGeometryManager\l::getPageHeightmap">
<polygon fill="white" stroke="black" points="328.5,-86 328.5,-116 455.5,-116 455.5,-86 328.5,-86"/>
<text text-anchor="start" x="336.5" y="-104" font-family="Helvetica,sans-Serif" font-size="10.00">TerrainGeometryManager</text>
<text text-anchor="middle" x="392" y="-93" font-family="Helvetica,sans-Serif" font-size="10.00">::getPageHeightmap</text>
</a>
</g>
</g>
<!-- Node2&#45;&gt;Node3 -->
<g id="edge2" class="edge"><title>Node2&#45;&gt;Node3</title>
<path fill="none" stroke="midnightblue" d="M301.598,-88.3071C310.496,-89.5704 319.531,-90.8531 328.266,-92.0933"/>
<polygon fill="midnightblue" stroke="midnightblue" points="302.026,-84.8329 291.633,-86.8924 301.042,-91.7634 302.026,-84.8329"/>
</g>
<!-- Node13 -->
<g id="node13" class="node"><title>Node13</title>
<g id="a_node13"><a xlink:href="class_terrain_geometry_manager.html#ad130c4517d56ebd061d7c2d17d4308bb" target="_top" xlink:title="TerrainGeometryManager\l::loadLayers">
<polygon fill="white" stroke="black" points="492.5,-39 492.5,-69 619.5,-69 619.5,-39 492.5,-39"/>
<text text-anchor="start" x="500.5" y="-57" font-family="Helvetica,sans-Serif" font-size="10.00">TerrainGeometryManager</text>
<text text-anchor="middle" x="556" y="-46" font-family="Helvetica,sans-Serif" font-size="10.00">::loadLayers</text>
</a>
</g>
</g>
<!-- Node2&#45;&gt;Node13 -->
<g id="edge12" class="edge"><title>Node2&#45;&gt;Node13</title>
<path fill="none" stroke="midnightblue" d="M301.919,-72.6318C359.134,-68.4196 437.937,-62.6181 492.337,-58.6132"/>
<polygon fill="midnightblue" stroke="midnightblue" points="301.572,-69.1477 291.856,-73.3726 302.086,-76.1288 301.572,-69.1477"/>
</g>
<!-- Node4 -->
<g id="node4" class="node"><title>Node4</title>
<g id="a_node4"><a xlink:href="class_terrain_geometry_manager.html#a2b69c5f50a8c619b28a0f9d2ccb8eb84" target="_top" xlink:title="TerrainGeometryManager\l::getTerrainImage">
<polygon fill="white" stroke="black" points="492.5,-88 492.5,-118 619.5,-118 619.5,-88 492.5,-88"/>
<text text-anchor="start" x="500.5" y="-106" font-family="Helvetica,sans-Serif" font-size="10.00">TerrainGeometryManager</text>
<text text-anchor="middle" x="556" y="-95" font-family="Helvetica,sans-Serif" font-size="10.00">::getTerrainImage</text>
</a>
</g>
</g>
<!-- Node3&#45;&gt;Node4 -->
<g id="edge3" class="edge"><title>Node3&#45;&gt;Node4</title>
<path fill="none" stroke="midnightblue" d="M465.885,-101.9C474.69,-102.009 483.624,-102.119 492.266,-102.226"/>
<polygon fill="midnightblue" stroke="midnightblue" points="465.676,-98.3971 455.633,-101.773 465.589,-105.397 465.676,-98.3971"/>
</g>
<!-- Node5 -->
<g id="node5" class="node"><title>Node5</title>
<g id="a_node5"><a xlink:href="class_terrain_geometry_manager.html#a36142923aede3b529a30a33fda09e6e9" target="_top" xlink:title="TerrainGeometryManager\l::defineTerrain">
<polygon fill="white" stroke="black" points="657.5,-88 657.5,-118 784.5,-118 784.5,-88 657.5,-88"/>
<text text-anchor="start" x="665.5" y="-106" font-family="Helvetica,sans-Serif" font-size="10.00">TerrainGeometryManager</text>
<text text-anchor="middle" x="721" y="-95" font-family="Helvetica,sans-Serif" font-size="10.00">::defineTerrain</text>
</a>
</g>
</g>
<!-- Node4&#45;&gt;Node5 -->
<g id="edge4" class="edge"><title>Node4&#45;&gt;Node5</title>
<path fill="none" stroke="midnightblue" d="M629.831,-103C639.011,-103 648.34,-103 657.344,-103"/>
<polygon fill="midnightblue" stroke="midnightblue" points="629.554,-99.5001 619.554,-103 629.554,-106.5 629.554,-99.5001"/>
</g>
<!-- Node6 -->
<g id="node6" class="node"><title>Node6</title>
<g id="a_node6"><a xlink:href="class_terrain_geometry_manager.html#a3433648af8303236ea2d3435ab2b279b" target="_top" xlink:title="TerrainGeometryManager\l::initTerrain">
<polygon fill="white" stroke="black" points="822.5,-44 822.5,-74 949.5,-74 949.5,-44 822.5,-44"/>
<text text-anchor="start" x="830.5" y="-62" font-family="Helvetica,sans-Serif" font-size="10.00">TerrainGeometryManager</text>
<text text-anchor="middle" x="886" y="-51" font-family="Helvetica,sans-Serif" font-size="10.00">::initTerrain</text>
</a>
</g>
</g>
<!-- Node5&#45;&gt;Node6 -->
<g id="edge5" class="edge"><title>Node5&#45;&gt;Node6</title>
<path fill="none" stroke="midnightblue" d="M787.581,-85.2971C801.422,-81.5608 815.901,-77.6525 829.335,-74.0262"/>
<polygon fill="midnightblue" stroke="midnightblue" points="786.382,-81.9955 777.639,-87.9808 788.206,-88.7536 786.382,-81.9955"/>
</g>
<!-- Node7 -->
<g id="node7" class="node"><title>Node7</title>
<g id="a_node7"><a xlink:href="class_terrain_geometry_manager.html#ac4467adecede14a9bf83a4bf871201d8" target="_top" xlink:title="TerrainGeometryManager\l::loadOgreTerrainConfig">
<polygon fill="white" stroke="black" points="986.5,-44 986.5,-74 1113.5,-74 1113.5,-44 986.5,-44"/>
<text text-anchor="start" x="994.5" y="-62" font-family="Helvetica,sans-Serif" font-size="10.00">TerrainGeometryManager</text>
<text text-anchor="middle" x="1050" y="-51" font-family="Helvetica,sans-Serif" font-size="10.00">::loadOgreTerrainConfig</text>
</a>
</g>
</g>
<!-- Node6&#45;&gt;Node7 -->
<g id="edge6" class="edge"><title>Node6&#45;&gt;Node7</title>
<path fill="none" stroke="midnightblue" d="M959.885,-59C968.69,-59 977.624,-59 986.266,-59"/>
<polygon fill="midnightblue" stroke="midnightblue" points="959.633,-55.5001 949.633,-59 959.633,-62.5001 959.633,-55.5001"/>
</g>
<!-- Node8 -->
<g id="node8" class="node"><title>Node8</title>
<g id="a_node8"><a xlink:href="class_terrain_manager.html#a9a04c837bf2ea6528c465b27ca62f730" target="_top" xlink:title="TerrainManager::loadTerrain">
<polygon fill="white" stroke="black" points="1150,-49.5 1150,-68.5 1288,-68.5 1288,-49.5 1150,-49.5"/>
<text text-anchor="middle" x="1219" y="-56.5" font-family="Helvetica,sans-Serif" font-size="10.00">TerrainManager::loadTerrain</text>
</a>
</g>
</g>
<!-- Node7&#45;&gt;Node8 -->
<g id="edge7" class="edge"><title>Node7&#45;&gt;Node8</title>
<path fill="none" stroke="midnightblue" d="M1123.77,-59C1132.47,-59 1141.33,-59 1149.95,-59"/>
<polygon fill="midnightblue" stroke="midnightblue" points="1123.66,-55.5001 1113.66,-59 1123.66,-62.5001 1123.66,-55.5001"/>
</g>
<!-- Node9 -->
<g id="node9" class="node"><title>Node9</title>
<g id="a_node9"><a xlink:href="class_ro_r_frame_listener.html#a9757c059e840019a3e2659d5ef63ea02" target="_top" xlink:title="Reads GVar &#39;sim_terrain_pending&#39;. ">
<polygon fill="white" stroke="black" points="1324,-49.5 1324,-68.5 1480,-68.5 1480,-49.5 1324,-49.5"/>
<text text-anchor="middle" x="1402" y="-56.5" font-family="Helvetica,sans-Serif" font-size="10.00">RoRFrameListener::LoadTerrain</text>
</a>
</g>
</g>
<!-- Node8&#45;&gt;Node9 -->
<g id="edge8" class="edge"><title>Node8&#45;&gt;Node9</title>
<path fill="none" stroke="midnightblue" d="M1298.36,-59C1306.79,-59 1315.37,-59 1323.78,-59"/>
<polygon fill="midnightblue" stroke="midnightblue" points="1298.17,-55.5001 1288.17,-59 1298.17,-62.5001 1298.17,-55.5001"/>
</g>
<!-- Node10 -->
<g id="node10" class="node"><title>Node10</title>
<g id="a_node10"><a xlink:href="class_ro_r_frame_listener.html#aca3931d7a75f2ad4b9d36c4fcd03a3c9" target="_top" xlink:title="RoRFrameListener::SetupGameplayLoop">
<polygon fill="white" stroke="black" points="1516,-49.5 1516,-68.5 1712,-68.5 1712,-49.5 1516,-49.5"/>
<text text-anchor="middle" x="1614" y="-56.5" font-family="Helvetica,sans-Serif" font-size="10.00">RoRFrameListener::SetupGameplayLoop</text>
</a>
</g>
</g>
<!-- Node9&#45;&gt;Node10 -->
<g id="edge9" class="edge"><title>Node9&#45;&gt;Node10</title>
<path fill="none" stroke="midnightblue" d="M1490.26,-59C1498.75,-59 1507.4,-59 1515.98,-59"/>
<polygon fill="midnightblue" stroke="midnightblue" points="1490,-55.5001 1480,-59 1490,-62.5001 1490,-55.5001"/>
</g>
<!-- Node11 -->
<g id="node11" class="node"><title>Node11</title>
<g id="a_node11"><a xlink:href="main_8cpp.html#a0ddf1224851353fc92bfbff6f499fa97" target="_top" xlink:title="main">
<polygon fill="white" stroke="black" points="1748,-49.5 1748,-68.5 1786,-68.5 1786,-49.5 1748,-49.5"/>
<text text-anchor="middle" x="1767" y="-56.5" font-family="Helvetica,sans-Serif" font-size="10.00">main</text>
</a>
</g>
</g>
<!-- Node10&#45;&gt;Node11 -->
<g id="edge10" class="edge"><title>Node10&#45;&gt;Node11</title>
<path fill="none" stroke="midnightblue" d="M1722.52,-59C1732.03,-59 1740.71,-59 1747.77,-59"/>
<polygon fill="midnightblue" stroke="midnightblue" points="1722.34,-55.5001 1712.34,-59 1722.34,-62.5001 1722.34,-55.5001"/>
</g>
<!-- Node12 -->
<g id="node12" class="node"><title>Node12</title>
<g id="a_node12"><a xlink:href="main_8cpp.html#a2922bc5d5c2d77a3020cfbf9df12aab0" target="_top" xlink:title="WinMain">
<polygon fill="white" stroke="black" points="1822.5,-49.5 1822.5,-68.5 1877.5,-68.5 1877.5,-49.5 1822.5,-49.5"/>
<text text-anchor="middle" x="1850" y="-56.5" font-family="Helvetica,sans-Serif" font-size="10.00">WinMain</text>
</a>
</g>
</g>
<!-- Node11&#45;&gt;Node12 -->
<g id="edge11" class="edge"><title>Node11&#45;&gt;Node12</title>
<path fill="none" stroke="midnightblue" d="M1796.51,-59C1804.93,-59 1814.11,-59 1822.4,-59"/>
<polygon fill="midnightblue" stroke="midnightblue" points="1796.38,-55.5001 1786.38,-59 1796.38,-62.5001 1796.38,-55.5001"/>
</g>
<!-- Node13&#45;&gt;Node6 -->
<g id="edge13" class="edge"><title>Node13&#45;&gt;Node6</title>
<path fill="none" stroke="midnightblue" d="M630.005,-55.1129C687.744,-55.993 767.498,-57.2088 822.359,-58.0451"/>
<polygon fill="midnightblue" stroke="midnightblue" points="629.906,-51.6111 619.854,-54.9581 629.799,-58.6102 629.906,-51.6111"/>
</g>
<!-- Node14 -->
<g id="node14" class="node"><title>Node14</title>
<g id="a_node14"><a xlink:href="class_terrain_geometry_manager.html#a10e78d511f72ed2ba109ff691cdc0ffb" target="_top" xlink:title="TerrainGeometryManager\l::configureTerrainDefaults">
<polygon fill="white" stroke="black" points="656.5,-0 656.5,-30 785.5,-30 785.5,-0 656.5,-0"/>
<text text-anchor="start" x="664.5" y="-18" font-family="Helvetica,sans-Serif" font-size="10.00">TerrainGeometryManager</text>
<text text-anchor="middle" x="721" y="-7" font-family="Helvetica,sans-Serif" font-size="10.00">::configureTerrainDefaults</text>
</a>
</g>
</g>
<!-- Node13&#45;&gt;Node14 -->
<g id="edge14" class="edge"><title>Node13&#45;&gt;Node14</title>
<path fill="none" stroke="midnightblue" d="M629.462,-36.6626C638.669,-34.4594 648.033,-32.2191 657.075,-30.0558"/>
<polygon fill="midnightblue" stroke="midnightblue" points="628.465,-33.3022 619.554,-39.0331 630.094,-40.11 628.465,-33.3022"/>
</g>
<!-- Node14&#45;&gt;Node6 -->
<g id="edge15" class="edge"><title>Node14&#45;&gt;Node6</title>
<path fill="none" stroke="midnightblue" d="M787.581,-32.7029C801.422,-36.4392 815.901,-40.3475 829.335,-43.9738"/>
<polygon fill="midnightblue" stroke="midnightblue" points="788.206,-29.2464 777.639,-30.0192 786.382,-36.0045 788.206,-29.2464"/>
</g>
</g>
</svg>
        <g id="navigator" transform="translate(0 0)" fill="#404254">
                <rect fill="#f2f5e9" fill-opacity="0.5" stroke="#606060" stroke-width=".5" x="0" y="0" width="60" height="60"/>
                <use id="zoomplus" xlink:href="#zoomPlus" x="17" y="9" onmousedown="handleZoom(evt,'in')"/>
                <use id="zoomminus" xlink:href="#zoomMin" x="42" y="9" onmousedown="handleZoom(evt,'out')"/>
                <use id="reset" xlink:href="#resetDef" x="30" y="36" onmousedown="handleReset()"/>
                <g id="arrowUp" xlink:href="#dirArrow" transform="translate(30 24)" onmousedown="handlePan(0,-1)">
                  <use xlink:href="#rim" fill="#404040">
                        <set attributeName="fill" to="#808080" begin="arrowUp.mouseover" end="arrowUp.mouseout"/>
                  </use>
                  <path fill="none" stroke="white" stroke-width="1.5" d="M0,-3.0v7 M-2.5,-0.5L0,-3.0L2.5,-0.5"/>
                </g>
                <g id="arrowRight" xlink:href="#dirArrow" transform="rotate(90) translate(36 -43)" onmousedown="handlePan(1,0)">
                  <use xlink:href="#rim" fill="#404040">
                        <set attributeName="fill" to="#808080" begin="arrowRight.mouseover" end="arrowRight.mouseout"/>
                  </use>
                  <path fill="none" stroke="white" stroke-width="1.5" d="M0,-3.0v7 M-2.5,-0.5L0,-3.0L2.5,-0.5"/>
                </g>
                <g id="arrowDown" xlink:href="#dirArrow" transform="rotate(180) translate(-30 -48)" onmousedown="handlePan(0,1)">
                  <use xlink:href="#rim" fill="#404040">
                        <set attributeName="fill" to="#808080" begin="arrowDown.mouseover" end="arrowDown.mouseout"/>
                  </use>
                  <path fill="none" stroke="white" stroke-width="1.5" d="M0,-3.0v7 M-2.5,-0.5L0,-3.0L2.5,-0.5"/>
                </g>
                <g id="arrowLeft" xlink:href="#dirArrow" transform="rotate(270) translate(-36 17)" onmousedown="handlePan(-1,0)">
                  <use xlink:href="#rim" fill="#404040">
                        <set attributeName="fill" to="#808080" begin="arrowLeft.mouseover" end="arrowLeft.mouseout"/>
                  </use>
                  <path fill="none" stroke="white" stroke-width="1.5" d="M0,-3.0v7 M-2.5,-0.5L0,-3.0L2.5,-0.5"/>
                </g>
        </g>
        <svg viewBox="0 0 15 15" width="100%" height="30px" preserveAspectRatio="xMaxYMin meet">
         <g id="arrow_out" transform="scale(0.3 0.3)">
          <a xlink:href="class_terrain_geometry_manager_ac070ae8f0fec5d49d0942a576ad2c726_icgraph_org.svg" target="_base">
           <rect id="button" ry="5" rx="5" y="6" x="6" height="38" width="38"
                fill="#f2f5e9" fill-opacity="0.5" stroke="#606060" stroke-width="1.0"/>
           <path id="arrow"
             d="M 11.500037,31.436501 C 11.940474,20.09759 22.043105,11.32322 32.158766,21.979434 L 37.068811,17.246167 C 37.068811,17.246167 37.088388,32 37.088388,32 L 22.160133,31.978069 C 22.160133,31.978069 26.997745,27.140456 26.997745,27.140456 C 18.528582,18.264221 13.291696,25.230495 11.500037,31.436501 z"
             style="fill:#404040;"/>
          </a>
         </g>
        </svg>
</svg>
