<?xml version="1.0" encoding="UTF-8" standalone="no"?>
<!DOCTYPE svg PUBLIC "-//W3C//DTD SVG 1.1//EN"
 "http://www.w3.org/Graphics/SVG/1.1/DTD/svg11.dtd">
<!-- Generated by graphviz version 2.36.0 (20140111.2315)
 -->
<!-- Title: Landusemap::getGroundModelAt Pages: 1 -->
<svg width="468pt" height="28pt"
 viewBox="0.00 0.00 468.00 28.00" xmlns="http://www.w3.org/2000/svg" xmlns:xlink="http://www.w3.org/1999/xlink">
<g id="graph0" class="graph" transform="scale(1 1) rotate(0) translate(4 24)">
<title>Landusemap::getGroundModelAt</title>
<polygon fill="white" stroke="none" points="-4,4 -4,-24 464,-24 464,4 -4,4"/>
<!-- Node1 -->
<g id="node1" class="node"><title>Node1</title>
<polygon fill="#bfbfbf" stroke="black" points="0.5,-0.5 0.5,-19.5 159.5,-19.5 159.5,-0.5 0.5,-0.5"/>
<text text-anchor="middle" x="80" y="-7.5" font-family="Helvetica,sans-Serif" font-size="10.00">Landusemap::getGroundModelAt</text>
</g>
<!-- Node2 -->
<g id="node2" class="node"><title>Node2</title>
<g id="a_node2"><a xlink:href="class_collisions.html#af1028e2b9de09140265d02b66654f78f" target="_top" xlink:title="Collisions::groundCollision">
<polygon fill="white" stroke="black" points="196,-0.5 196,-19.5 328,-19.5 328,-0.5 196,-0.5"/>
<text text-anchor="middle" x="262" y="-7.5" font-family="Helvetica,sans-Serif" font-size="10.00">Collisions::groundCollision</text>
</a>
</g>
</g>
<!-- Node1&#45;&gt;Node2 -->
<g id="edge1" class="edge"><title>Node1&#45;&gt;Node2</title>
<path fill="none" stroke="midnightblue" d="M169.952,-10C178.716,-10 187.494,-10 195.952,-10"/>
<polygon fill="midnightblue" stroke="midnightblue" points="169.689,-6.5001 159.689,-10 169.689,-13.5001 169.689,-6.5001"/>
</g>
<!-- Node3 -->
<g id="node3" class="node"><title>Node3</title>
<g id="a_node3"><a xlink:href="class_beam.html#af88caf907f8ac18ea02b135d9ea5cce5" target="_top" xlink:title="Beam::calcNodes">
<polygon fill="white" stroke="black" points="364.5,-0.5 364.5,-19.5 459.5,-19.5 459.5,-0.5 364.5,-0.5"/>
<text text-anchor="middle" x="412" y="-7.5" font-family="Helvetica,sans-Serif" font-size="10.00">Beam::calcNodes</text>
</a>
</g>
</g>
<!-- Node2&#45;&gt;Node3 -->
<g id="edge2" class="edge"><title>Node2&#45;&gt;Node3</title>
<path fill="none" stroke="midnightblue" d="M338.583,-10C347.317,-10 356.022,-10 364.21,-10"/>
<polygon fill="midnightblue" stroke="midnightblue" points="338.346,-6.5001 328.346,-10 338.346,-13.5001 338.346,-6.5001"/>
</g>
</g>
</svg>
