<?xml version="1.0" encoding="UTF-8" standalone="no"?>
<!DOCTYPE svg PUBLIC "-//W3C//DTD SVG 1.1//EN"
 "http://www.w3.org/Graphics/SVG/1.1/DTD/svg11.dtd">
<!-- Generated by graphviz version 2.36.0 (20140111.2315)
 -->
<!-- Title: Ogre::TerrainPSSMMaterialGenerator::SM2Profile::setGlobalColourMapEnabled Pages: 1 -->
<svg width="1406pt" height="48pt"
 viewBox="0.00 0.00 1406.00 48.00" xmlns="http://www.w3.org/2000/svg" xmlns:xlink="http://www.w3.org/1999/xlink">
<g id="graph0" class="graph" transform="scale(1 1) rotate(0) translate(4 44)">
<title>Ogre::TerrainPSSMMaterialGenerator::SM2Profile::setGlobalColourMapEnabled</title>
<polygon fill="white" stroke="none" points="-4,4 -4,-44 1402,-44 1402,4 -4,4"/>
<!-- Node1 -->
<g id="node1" class="node"><title>Node1</title>
<polygon fill="#bfbfbf" stroke="black" points="0,0.5 0,-40.5 140,-40.5 140,0.5 0,0.5"/>
<text text-anchor="start" x="8" y="-28.5" font-family="Helvetica,sans-Serif" font-size="10.00">Ogre::TerrainPSSMMaterial</text>
<text text-anchor="start" x="8" y="-17.5" font-family="Helvetica,sans-Serif" font-size="10.00">Generator::SM2Profile::</text>
<text text-anchor="middle" x="70" y="-6.5" font-family="Helvetica,sans-Serif" font-size="10.00">setGlobalColourMapEnabled</text>
</g>
<!-- Node2 -->
<g id="node2" class="node"><title>Node2</title>
<g id="a_node2"><a xlink:href="class_terrain_geometry_manager.html#a10e78d511f72ed2ba109ff691cdc0ffb" target="_top" xlink:title="TerrainGeometryManager\l::configureTerrainDefaults">
<polygon fill="white" stroke="black" points="176.5,-5 176.5,-35 305.5,-35 305.5,-5 176.5,-5"/>
<text text-anchor="start" x="184.5" y="-23" font-family="Helvetica,sans-Serif" font-size="10.00">TerrainGeometryManager</text>
<text text-anchor="middle" x="241" y="-12" font-family="Helvetica,sans-Serif" font-size="10.00">::configureTerrainDefaults</text>
</a>
</g>
</g>
<!-- Node1&#45;&gt;Node2 -->
<g id="edge1" class="edge"><title>Node1&#45;&gt;Node2</title>
<path fill="none" stroke="midnightblue" d="M150.38,-20C159.076,-20 167.845,-20 176.316,-20"/>
<polygon fill="midnightblue" stroke="midnightblue" points="150.226,-16.5001 140.226,-20 150.226,-23.5001 150.226,-16.5001"/>
</g>
<!-- Node3 -->
<g id="node3" class="node"><title>Node3</title>
<g id="a_node3"><a xlink:href="class_terrain_geometry_manager.html#a3433648af8303236ea2d3435ab2b279b" target="_top" xlink:title="TerrainGeometryManager\l::initTerrain">
<polygon fill="white" stroke="black" points="342.5,-5 342.5,-35 469.5,-35 469.5,-5 342.5,-5"/>
<text text-anchor="start" x="350.5" y="-23" font-family="Helvetica,sans-Serif" font-size="10.00">TerrainGeometryManager</text>
<text text-anchor="middle" x="406" y="-12" font-family="Helvetica,sans-Serif" font-size="10.00">::initTerrain</text>
</a>
</g>
</g>
<!-- Node2&#45;&gt;Node3 -->
<g id="edge2" class="edge"><title>Node2&#45;&gt;Node3</title>
<path fill="none" stroke="midnightblue" d="M316.139,-20C324.881,-20 333.736,-20 342.299,-20"/>
<polygon fill="midnightblue" stroke="midnightblue" points="315.954,-16.5001 305.954,-20 315.954,-23.5001 315.954,-16.5001"/>
</g>
<!-- Node4 -->
<g id="node4" class="node"><title>Node4</title>
<g id="a_node4"><a xlink:href="class_terrain_geometry_manager.html#ac4467adecede14a9bf83a4bf871201d8" target="_top" xlink:title="TerrainGeometryManager\l::loadOgreTerrainConfig">
<polygon fill="white" stroke="black" points="506.5,-5 506.5,-35 633.5,-35 633.5,-5 506.5,-5"/>
<text text-anchor="start" x="514.5" y="-23" font-family="Helvetica,sans-Serif" font-size="10.00">TerrainGeometryManager</text>
<text text-anchor="middle" x="570" y="-12" font-family="Helvetica,sans-Serif" font-size="10.00">::loadOgreTerrainConfig</text>
</a>
</g>
</g>
<!-- Node3&#45;&gt;Node4 -->
<g id="edge3" class="edge"><title>Node3&#45;&gt;Node4</title>
<path fill="none" stroke="midnightblue" d="M479.885,-20C488.69,-20 497.624,-20 506.266,-20"/>
<polygon fill="midnightblue" stroke="midnightblue" points="479.633,-16.5001 469.633,-20 479.633,-23.5001 479.633,-16.5001"/>
</g>
<!-- Node5 -->
<g id="node5" class="node"><title>Node5</title>
<g id="a_node5"><a xlink:href="class_terrain_manager.html#a9a04c837bf2ea6528c465b27ca62f730" target="_top" xlink:title="TerrainManager::loadTerrain">
<polygon fill="white" stroke="black" points="670,-10.5 670,-29.5 808,-29.5 808,-10.5 670,-10.5"/>
<text text-anchor="middle" x="739" y="-17.5" font-family="Helvetica,sans-Serif" font-size="10.00">TerrainManager::loadTerrain</text>
</a>
</g>
</g>
<!-- Node4&#45;&gt;Node5 -->
<g id="edge4" class="edge"><title>Node4&#45;&gt;Node5</title>
<path fill="none" stroke="midnightblue" d="M643.774,-20C652.472,-20 661.327,-20 669.954,-20"/>
<polygon fill="midnightblue" stroke="midnightblue" points="643.66,-16.5001 633.66,-20 643.66,-23.5001 643.66,-16.5001"/>
</g>
<!-- Node6 -->
<g id="node6" class="node"><title>Node6</title>
<g id="a_node6"><a xlink:href="class_ro_r_frame_listener.html#a9757c059e840019a3e2659d5ef63ea02" target="_top" xlink:title="Reads GVar &#39;sim_terrain_pending&#39;. ">
<polygon fill="white" stroke="black" points="844,-10.5 844,-29.5 1000,-29.5 1000,-10.5 844,-10.5"/>
<text text-anchor="middle" x="922" y="-17.5" font-family="Helvetica,sans-Serif" font-size="10.00">RoRFrameListener::LoadTerrain</text>
</a>
</g>
</g>
<!-- Node5&#45;&gt;Node6 -->
<g id="edge5" class="edge"><title>Node5&#45;&gt;Node6</title>
<path fill="none" stroke="midnightblue" d="M818.362,-20C826.792,-20 835.366,-20 843.782,-20"/>
<polygon fill="midnightblue" stroke="midnightblue" points="818.17,-16.5001 808.17,-20 818.17,-23.5001 818.17,-16.5001"/>
</g>
<!-- Node7 -->
<g id="node7" class="node"><title>Node7</title>
<g id="a_node7"><a xlink:href="class_ro_r_frame_listener.html#aca3931d7a75f2ad4b9d36c4fcd03a3c9" target="_top" xlink:title="RoRFrameListener::SetupGameplayLoop">
<polygon fill="white" stroke="black" points="1036,-10.5 1036,-29.5 1232,-29.5 1232,-10.5 1036,-10.5"/>
<text text-anchor="middle" x="1134" y="-17.5" font-family="Helvetica,sans-Serif" font-size="10.00">RoRFrameListener::SetupGameplayLoop</text>
</a>
</g>
</g>
<!-- Node6&#45;&gt;Node7 -->
<g id="edge6" class="edge"><title>Node6&#45;&gt;Node7</title>
<path fill="none" stroke="midnightblue" d="M1010.26,-20C1018.75,-20 1027.4,-20 1035.98,-20"/>
<polygon fill="midnightblue" stroke="midnightblue" points="1010,-16.5001 1000,-20 1010,-23.5001 1010,-16.5001"/>
</g>
<!-- Node8 -->
<g id="node8" class="node"><title>Node8</title>
<g id="a_node8"><a xlink:href="main_8cpp.html#a0ddf1224851353fc92bfbff6f499fa97" target="_top" xlink:title="main">
<polygon fill="white" stroke="black" points="1268,-10.5 1268,-29.5 1306,-29.5 1306,-10.5 1268,-10.5"/>
<text text-anchor="middle" x="1287" y="-17.5" font-family="Helvetica,sans-Serif" font-size="10.00">main</text>
</a>
</g>
</g>
<!-- Node7&#45;&gt;Node8 -->
<g id="edge7" class="edge"><title>Node7&#45;&gt;Node8</title>
<path fill="none" stroke="midnightblue" d="M1242.52,-20C1252.03,-20 1260.71,-20 1267.77,-20"/>
<polygon fill="midnightblue" stroke="midnightblue" points="1242.34,-16.5001 1232.34,-20 1242.34,-23.5001 1242.34,-16.5001"/>
</g>
<!-- Node9 -->
<g id="node9" class="node"><title>Node9</title>
<g id="a_node9"><a xlink:href="main_8cpp.html#a2922bc5d5c2d77a3020cfbf9df12aab0" target="_top" xlink:title="WinMain">
<polygon fill="white" stroke="black" points="1342.5,-10.5 1342.5,-29.5 1397.5,-29.5 1397.5,-10.5 1342.5,-10.5"/>
<text text-anchor="middle" x="1370" y="-17.5" font-family="Helvetica,sans-Serif" font-size="10.00">WinMain</text>
</a>
</g>
</g>
<!-- Node8&#45;&gt;Node9 -->
<g id="edge8" class="edge"><title>Node8&#45;&gt;Node9</title>
<path fill="none" stroke="midnightblue" d="M1316.51,-20C1324.93,-20 1334.11,-20 1342.4,-20"/>
<polygon fill="midnightblue" stroke="midnightblue" points="1316.38,-16.5001 1306.38,-20 1316.38,-23.5001 1316.38,-16.5001"/>
</g>
</g>
</svg>
