<?xml version="1.0" encoding="UTF-8" standalone="no"?>
<!DOCTYPE svg PUBLIC "-//W3C//DTD SVG 1.1//EN"
 "http://www.w3.org/Graphics/SVG/1.1/DTD/svg11.dtd">
<!-- Generated by graphviz version 2.36.0 (20140111.2315)
 -->
<!-- Title: DashBoardManager::update Pages: 1 -->
<svg width="480pt" height="66pt"
 viewBox="0.00 0.00 480.00 66.00" xmlns="http://www.w3.org/2000/svg" xmlns:xlink="http://www.w3.org/1999/xlink">
<g id="graph0" class="graph" transform="scale(1 1) rotate(0) translate(4 62)">
<title>DashBoardManager::update</title>
<polygon fill="white" stroke="none" points="-4,4 -4,-62 476,-62 476,4 -4,4"/>
<!-- Node1 -->
<g id="node1" class="node"><title>Node1</title>
<polygon fill="#bfbfbf" stroke="black" points="0,-19.5 0,-38.5 138,-38.5 138,-19.5 0,-19.5"/>
<text text-anchor="middle" x="69" y="-26.5" font-family="Helvetica,sans-Serif" font-size="10.00">DashBoardManager::update</text>
</g>
<!-- Node2 -->
<g id="node2" class="node"><title>Node2</title>
<g id="a_node2"><a xlink:href="class_dash_board.html#a910b9f299864a9df38aac7911fefecc3" target="_top" xlink:title="DashBoard::update">
<polygon fill="white" stroke="black" points="174.5,-19.5 174.5,-38.5 275.5,-38.5 275.5,-19.5 174.5,-19.5"/>
<text text-anchor="middle" x="225" y="-26.5" font-family="Helvetica,sans-Serif" font-size="10.00">DashBoard::update</text>
</a>
</g>
</g>
<!-- Node1&#45;&gt;Node2 -->
<g id="edge1" class="edge"><title>Node1&#45;&gt;Node2</title>
<path fill="none" stroke="midnightblue" d="M138.443,-29C147.01,-29 155.72,-29 164.141,-29"/>
<polygon fill="midnightblue" stroke="midnightblue" points="164.242,-32.5001 174.242,-29 164.241,-25.5001 164.242,-32.5001"/>
</g>
<!-- Node3 -->
<g id="node3" class="node"><title>Node3</title>
<g id="a_node3"><a xlink:href="class_dash_board_manager.html#ae494723452dce7445890989fd9f788ae" target="_top" xlink:title="DashBoardManager::getNumeric">
<polygon fill="white" stroke="black" points="312.5,-38.5 312.5,-57.5 471.5,-57.5 471.5,-38.5 312.5,-38.5"/>
<text text-anchor="middle" x="392" y="-45.5" font-family="Helvetica,sans-Serif" font-size="10.00">DashBoardManager::getNumeric</text>
</a>
</g>
</g>
<!-- Node2&#45;&gt;Node3 -->
<g id="edge2" class="edge"><title>Node2&#45;&gt;Node3</title>
<path fill="none" stroke="midnightblue" d="M275.505,-34.7006C284.01,-35.68 293.075,-36.7238 302.243,-37.7795"/>
<polygon fill="midnightblue" stroke="midnightblue" points="301.876,-41.2603 312.211,-38.9274 302.677,-34.3063 301.876,-41.2603"/>
</g>
<!-- Node4 -->
<g id="node4" class="node"><title>Node4</title>
<g id="a_node4"><a xlink:href="class_dash_board_manager.html#ae02643729857cf9e6f670a0c0b4fdb7d" target="_top" xlink:title="DashBoardManager::getChar">
<polygon fill="white" stroke="black" points="320.5,-0.5 320.5,-19.5 463.5,-19.5 463.5,-0.5 320.5,-0.5"/>
<text text-anchor="middle" x="392" y="-7.5" font-family="Helvetica,sans-Serif" font-size="10.00">DashBoardManager::getChar</text>
</a>
</g>
</g>
<!-- Node2&#45;&gt;Node4 -->
<g id="edge3" class="edge"><title>Node2&#45;&gt;Node4</title>
<path fill="none" stroke="midnightblue" d="M275.505,-23.2994C286.555,-22.027 298.551,-20.6457 310.49,-19.2708"/>
<polygon fill="midnightblue" stroke="midnightblue" points="310.951,-22.741 320.485,-18.1199 310.15,-15.7869 310.951,-22.741"/>
</g>
</g>
</svg>
