<?xml version="1.0" encoding="UTF-8" standalone="no"?>
<!DOCTYPE svg PUBLIC "-//W3C//DTD SVG 1.1//EN"
 "http://www.w3.org/Graphics/SVG/1.1/DTD/svg11.dtd">
<!-- Generated by graphviz version 2.36.0 (20140111.2315)
 -->
<!-- Title: Hydrax::TextureManager Pages: 1 -->
<svg width="2166pt" height="1154pt"
 viewBox="0.00 0.00 2166.00 1154.00" xmlns="http://www.w3.org/2000/svg" xmlns:xlink="http://www.w3.org/1999/xlink">
<g id="graph0" class="graph" transform="scale(1 1) rotate(0) translate(4 1150)">
<title>Hydrax::TextureManager</title>
<polygon fill="white" stroke="none" points="-4,4 -4,-1150 2162,-1150 2162,4 -4,4"/>
<!-- Node1 -->
<g id="node1" class="node"><title>Node1</title>
<polygon fill="#bfbfbf" stroke="black" points="418.5,-811.5 418.5,-830.5 543.5,-830.5 543.5,-811.5 418.5,-811.5"/>
<text text-anchor="middle" x="481" y="-818.5" font-family="Helvetica,sans-Serif" font-size="10.00">Hydrax::TextureManager</text>
</g>
<!-- Node2 -->
<g id="node2" class="node"><title>Node2</title>
<g id="a_node2"><a xlink:href="class_hydrax_1_1_hydrax.html" target="_top" xlink:title="Hydrax::Hydrax">
<polygon fill="white" stroke="black" points="682,-811.5 682,-830.5 768,-830.5 768,-811.5 682,-811.5"/>
<text text-anchor="middle" x="725" y="-818.5" font-family="Helvetica,sans-Serif" font-size="10.00">Hydrax::Hydrax</text>
</a>
</g>
</g>
<!-- Node1&#45;&gt;Node2 -->
<g id="edge56" class="edge"><title>Node1&#45;&gt;Node2</title>
<path fill="none" stroke="#9a32cd" stroke-dasharray="5,2" d="M553.801,-821C595.497,-821 646.587,-821 681.85,-821"/>
<polygon fill="#9a32cd" stroke="#9a32cd" points="553.693,-817.5 543.693,-821 553.693,-824.5 553.693,-817.5"/>
<text text-anchor="middle" x="603" y="-824" font-family="Helvetica,sans-Serif" font-size="10.00"> mTextureManager</text>
</g>
<!-- Node2&#45;&gt;Node1 -->
<g id="edge1" class="edge"><title>Node2&#45;&gt;Node1</title>
<path fill="none" stroke="#9a32cd" stroke-dasharray="5,2" d="M674.512,-809.522C664.468,-807.639 653.937,-805.984 644,-805 607.733,-801.409 598.267,-801.409 562,-805 548.751,-806.312 534.445,-808.818 521.646,-811.464"/>
<polygon fill="#9a32cd" stroke="#9a32cd" points="673.866,-812.962 684.354,-811.464 675.221,-806.094 673.866,-812.962"/>
<text text-anchor="middle" x="603" y="-808" font-family="Helvetica,sans-Serif" font-size="10.00"> mHydrax</text>
</g>
<!-- Node3 -->
<g id="node3" class="node"><title>Node3</title>
<g id="a_node3"><a xlink:href="class_hydrax_1_1_mesh.html" target="_top" xlink:title="Hydrax::Mesh">
<polygon fill="white" stroke="black" points="948,-913.5 948,-932.5 1026,-932.5 1026,-913.5 948,-913.5"/>
<text text-anchor="middle" x="987" y="-920.5" font-family="Helvetica,sans-Serif" font-size="10.00">Hydrax::Mesh</text>
</a>
</g>
</g>
<!-- Node2&#45;&gt;Node3 -->
<g id="edge3" class="edge"><title>Node2&#45;&gt;Node3</title>
<path fill="none" stroke="#9a32cd" stroke-dasharray="5,2" d="M753.846,-835.162C769.071,-842.666 788.369,-851.795 806,-859 842.561,-873.94 852.779,-874.791 890,-888 913.74,-896.425 940.68,-906.272 959.967,-913.372"/>
<polygon fill="#9a32cd" stroke="#9a32cd" points="754.999,-831.826 744.488,-830.501 751.879,-838.092 754.999,-831.826"/>
<text text-anchor="middle" x="848" y="-891" font-family="Helvetica,sans-Serif" font-size="10.00"> mHydrax</text>
</g>
<!-- Node6 -->
<g id="node6" class="node"><title>Node6</title>
<g id="a_node6"><a xlink:href="class_hydrax_1_1_material_manager.html" target="_top" xlink:title="Hydrax::MaterialManager">
<polygon fill="white" stroke="black" points="924,-105.5 924,-124.5 1050,-124.5 1050,-105.5 924,-105.5"/>
<text text-anchor="middle" x="987" y="-112.5" font-family="Helvetica,sans-Serif" font-size="10.00">Hydrax::MaterialManager</text>
</a>
</g>
</g>
<!-- Node2&#45;&gt;Node6 -->
<g id="edge7" class="edge"><title>Node2&#45;&gt;Node6</title>
<path fill="none" stroke="#9a32cd" stroke-dasharray="5,2" d="M726.938,-801.056C731.783,-716.919 759.873,-385.496 908,-172 922.819,-150.641 948.288,-134.25 966.077,-124.642"/>
<polygon fill="#9a32cd" stroke="#9a32cd" points="723.432,-801.077 726.399,-811.248 730.422,-801.447 723.432,-801.077"/>
<text text-anchor="middle" x="848" y="-372" font-family="Helvetica,sans-Serif" font-size="10.00"> mHydrax</text>
</g>
<!-- Node10 -->
<g id="node10" class="node"><title>Node10</title>
<g id="a_node10"><a xlink:href="class_hydrax_1_1_decals_manager.html" target="_top" xlink:title="Hydrax::DecalsManager">
<polygon fill="white" stroke="black" points="926,-844.5 926,-863.5 1048,-863.5 1048,-844.5 926,-844.5"/>
<text text-anchor="middle" x="987" y="-851.5" font-family="Helvetica,sans-Serif" font-size="10.00">Hydrax::DecalsManager</text>
</a>
</g>
</g>
<!-- Node2&#45;&gt;Node10 -->
<g id="edge13" class="edge"><title>Node2&#45;&gt;Node10</title>
<path fill="none" stroke="#9a32cd" stroke-dasharray="5,2" d="M778.526,-820.25C787.684,-820.146 797.119,-820.056 806,-820 843.333,-819.767 853.307,-813.116 890,-820 898.436,-821.583 899.943,-824.04 908,-827 924.276,-832.979 942.591,-839.338 957.382,-844.382"/>
<polygon fill="#9a32cd" stroke="#9a32cd" points="778.305,-816.752 768.348,-820.372 778.389,-823.751 778.305,-816.752"/>
<text text-anchor="middle" x="848" y="-823" font-family="Helvetica,sans-Serif" font-size="10.00"> mHydrax</text>
</g>
<!-- Node11 -->
<g id="node11" class="node"><title>Node11</title>
<g id="a_node11"><a xlink:href="class_hydrax_1_1_rtt_manager.html" target="_top" xlink:title="Hydrax::RttManager">
<polygon fill="white" stroke="black" points="934.5,-493.5 934.5,-512.5 1039.5,-512.5 1039.5,-493.5 934.5,-493.5"/>
<text text-anchor="middle" x="987" y="-500.5" font-family="Helvetica,sans-Serif" font-size="10.00">Hydrax::RttManager</text>
</a>
</g>
</g>
<!-- Node2&#45;&gt;Node11 -->
<g id="edge26" class="edge"><title>Node2&#45;&gt;Node11</title>
<path fill="none" stroke="#9a32cd" stroke-dasharray="5,2" d="M730.041,-801.235C738.17,-766.568 759.815,-694.808 806,-656 835.726,-631.022 859.015,-655.399 890,-632 902.106,-622.858 899.323,-615.443 908,-603 931.93,-568.686 963.304,-530.223 977.891,-512.671"/>
<polygon fill="#9a32cd" stroke="#9a32cd" points="726.602,-800.579 727.863,-811.098 733.437,-802.088 726.602,-800.579"/>
<text text-anchor="middle" x="848" y="-659" font-family="Helvetica,sans-Serif" font-size="10.00"> mHydrax</text>
</g>
<!-- Node22 -->
<g id="node22" class="node"><title>Node22</title>
<g id="a_node22"><a xlink:href="class_hydrax_1_1_hydrax_1_1_device_listener.html" target="_top" xlink:title="Hydrax::Hydrax::DeviceListener">
<polygon fill="white" stroke="black" points="908.5,-1074.5 908.5,-1093.5 1065.5,-1093.5 1065.5,-1074.5 908.5,-1074.5"/>
<text text-anchor="middle" x="987" y="-1081.5" font-family="Helvetica,sans-Serif" font-size="10.00">Hydrax::Hydrax::DeviceListener</text>
</a>
</g>
</g>
<!-- Node2&#45;&gt;Node22 -->
<g id="edge38" class="edge"><title>Node2&#45;&gt;Node22</title>
<path fill="none" stroke="#9a32cd" stroke-dasharray="5,2" d="M725.966,-840.574C727.043,-887.244 736.824,-1005.38 806,-1062 821.652,-1074.81 866.943,-1080.31 908.175,-1082.6"/>
<polygon fill="#9a32cd" stroke="#9a32cd" points="729.466,-840.521 725.849,-830.562 722.466,-840.603 729.466,-840.521"/>
<text text-anchor="middle" x="848" y="-1085" font-family="Helvetica,sans-Serif" font-size="10.00"> mHydrax</text>
</g>
<!-- Node26 -->
<g id="node26" class="node"><title>Node26</title>
<g id="a_node26"><a xlink:href="class_hydrax_1_1_g_p_u_normal_map_manager.html" target="_top" xlink:title="Hydrax::GPUNormalMapManager">
<polygon fill="white" stroke="black" points="1250,-755.5 1250,-774.5 1414,-774.5 1414,-755.5 1250,-755.5"/>
<text text-anchor="middle" x="1332" y="-762.5" font-family="Helvetica,sans-Serif" font-size="10.00">Hydrax::GPUNormalMapManager</text>
</a>
</g>
</g>
<!-- Node2&#45;&gt;Node26 -->
<g id="edge43" class="edge"><title>Node2&#45;&gt;Node26</title>
<path fill="none" stroke="#9a32cd" stroke-dasharray="5,2" d="M769.392,-808.829C806.012,-799.137 859.994,-786.203 908,-780 1026.24,-764.72 1164.52,-762.783 1249.94,-763.414"/>
<polygon fill="#9a32cd" stroke="#9a32cd" points="768.296,-805.499 759.543,-811.468 770.108,-812.26 768.296,-805.499"/>
<text text-anchor="middle" x="987" y="-783" font-family="Helvetica,sans-Serif" font-size="10.00"> mHydrax</text>
</g>
<!-- Node27 -->
<g id="node27" class="node"><title>Node27</title>
<g id="a_node27"><a xlink:href="class_hydrax_1_1_cfg_file_manager.html" target="_top" xlink:title="Hydrax::CfgFileManager">
<polygon fill="white" stroke="black" points="925.5,-966.5 925.5,-985.5 1048.5,-985.5 1048.5,-966.5 925.5,-966.5"/>
<text text-anchor="middle" x="987" y="-973.5" font-family="Helvetica,sans-Serif" font-size="10.00">Hydrax::CfgFileManager</text>
</a>
</g>
</g>
<!-- Node2&#45;&gt;Node27 -->
<g id="edge46" class="edge"><title>Node2&#45;&gt;Node27</title>
<path fill="none" stroke="#9a32cd" stroke-dasharray="5,2" d="M730.098,-840.755C738.146,-873.919 759.447,-940.004 806,-969 847.146,-994.628 904.453,-991.788 943.268,-985.558"/>
<polygon fill="#9a32cd" stroke="#9a32cd" points="733.482,-839.85 727.86,-830.87 726.655,-841.397 733.482,-839.85"/>
<text text-anchor="middle" x="848" y="-993" font-family="Helvetica,sans-Serif" font-size="10.00"> mHydrax</text>
</g>
<!-- Node28 -->
<g id="node28" class="node"><title>Node28</title>
<g id="a_node28"><a xlink:href="class_hydrax_1_1_god_rays_manager.html" target="_top" xlink:title="Hydrax::GodRaysManager">
<polygon fill="white" stroke="black" points="1762.5,-690.5 1762.5,-709.5 1895.5,-709.5 1895.5,-690.5 1762.5,-690.5"/>
<text text-anchor="middle" x="1829" y="-697.5" font-family="Helvetica,sans-Serif" font-size="10.00">Hydrax::GodRaysManager</text>
</a>
</g>
</g>
<!-- Node2&#45;&gt;Node28 -->
<g id="edge55" class="edge"><title>Node2&#45;&gt;Node28</title>
<path fill="none" stroke="#9a32cd" stroke-dasharray="5,2" d="M749.539,-806.006C765.011,-796.827 786.021,-785.61 806,-779 849.565,-764.586 862.435,-768.431 908,-763 1277.68,-718.933 1373.03,-741.432 1744,-710 1750,-709.492 1756.23,-708.89 1762.47,-708.237"/>
<polygon fill="#9a32cd" stroke="#9a32cd" points="747.401,-803.21 740.679,-811.399 751.041,-809.189 747.401,-803.21"/>
<text text-anchor="middle" x="1332" y="-738" font-family="Helvetica,sans-Serif" font-size="10.00"> mHydrax</text>
</g>
<!-- Node3&#45;&gt;Node2 -->
<g id="edge2" class="edge"><title>Node3&#45;&gt;Node2</title>
<path fill="none" stroke="#9a32cd" stroke-dasharray="5,2" d="M937.585,-925.459C899.904,-925.45 847.26,-921.11 806,-901 772.276,-884.563 744.342,-848.121 732.331,-830.674"/>
<polygon fill="#9a32cd" stroke="#9a32cd" points="937.829,-928.957 947.794,-925.357 937.759,-921.958 937.829,-928.957"/>
<text text-anchor="middle" x="848" y="-926" font-family="Helvetica,sans-Serif" font-size="10.00"> mMesh</text>
</g>
<!-- Node4 -->
<g id="node4" class="node"><title>Node4</title>
<g id="a_node4"><a xlink:href="struct_hydrax_1_1_mesh_1_1_options.html" target="_top" xlink:title="Hydrax::Mesh::Options">
<polygon fill="white" stroke="black" points="158,-955.5 158,-974.5 276,-974.5 276,-955.5 158,-955.5"/>
<text text-anchor="middle" x="217" y="-962.5" font-family="Helvetica,sans-Serif" font-size="10.00">Hydrax::Mesh::Options</text>
</a>
</g>
</g>
<!-- Node4&#45;&gt;Node3 -->
<g id="edge4" class="edge"><title>Node4&#45;&gt;Node3</title>
<path fill="none" stroke="#9a32cd" stroke-dasharray="5,2" d="M230.413,-982.929C243.781,-1000.5 266.826,-1026.17 294,-1037 355.518,-1061.51 838.289,-1078.37 890,-1037 918.458,-1014.23 884.787,-985.095 908,-957 918.068,-944.815 933.346,-936.876 947.72,-931.762"/>
<polygon fill="#9a32cd" stroke="#9a32cd" points="233.057,-980.615 224.335,-974.601 227.403,-984.742 233.057,-980.615"/>
<text text-anchor="middle" x="603" y="-1066" font-family="Helvetica,sans-Serif" font-size="10.00"> mOptions</text>
</g>
<!-- Node24 -->
<g id="node24" class="node"><title>Node24</title>
<g id="a_node24"><a xlink:href="class_hydrax_1_1_module_1_1_module.html" target="_top" xlink:title="Hydrax::Module::Module">
<polygon fill="white" stroke="black" points="419.5,-955.5 419.5,-974.5 542.5,-974.5 542.5,-955.5 419.5,-955.5"/>
<text text-anchor="middle" x="481" y="-962.5" font-family="Helvetica,sans-Serif" font-size="10.00">Hydrax::Module::Module</text>
</a>
</g>
</g>
<!-- Node4&#45;&gt;Node24 -->
<g id="edge41" class="edge"><title>Node4&#45;&gt;Node24</title>
<path fill="none" stroke="#9a32cd" stroke-dasharray="5,2" d="M286.371,-965C327.56,-965 379.55,-965 419.285,-965"/>
<polygon fill="#9a32cd" stroke="#9a32cd" points="286.146,-961.5 276.146,-965 286.146,-968.5 286.146,-961.5"/>
<text text-anchor="middle" x="347" y="-968" font-family="Helvetica,sans-Serif" font-size="10.00"> mMeshOptions</text>
</g>
<!-- Node5 -->
<g id="node5" class="node"><title>Node5</title>
<g id="a_node5"><a xlink:href="struct_hydrax_1_1_size.html" target="_top" xlink:title="Hydrax::Size">
<polygon fill="white" stroke="black" points="0,-851.5 0,-870.5 74,-870.5 74,-851.5 0,-851.5"/>
<text text-anchor="middle" x="37" y="-858.5" font-family="Helvetica,sans-Serif" font-size="10.00">Hydrax::Size</text>
</a>
</g>
</g>
<!-- Node5&#45;&gt;Node4 -->
<g id="edge5" class="edge"><title>Node5&#45;&gt;Node4</title>
<path fill="none" stroke="#9a32cd" stroke-dasharray="5,2" d="M63.1292,-875.682C100.165,-897.321 168.384,-937.179 199.613,-955.426"/>
<polygon fill="#9a32cd" stroke="#9a32cd" points="64.8267,-872.62 54.4268,-870.598 61.2954,-878.664 64.8267,-872.62"/>
<text text-anchor="middle" x="116" y="-923" font-family="Helvetica,sans-Serif" font-size="10.00"> MeshSize</text>
</g>
<!-- Node12 -->
<g id="node12" class="node"><title>Node12</title>
<g id="a_node12"><a xlink:href="struct_hydrax_1_1_rtt_manager_1_1_rtt_options.html" target="_top" xlink:title="Hydrax::RttManager\l::RttOptions">
<polygon fill="white" stroke="black" points="294.5,-687 294.5,-717 399.5,-717 399.5,-687 294.5,-687"/>
<text text-anchor="start" x="302.5" y="-705" font-family="Helvetica,sans-Serif" font-size="10.00">Hydrax::RttManager</text>
<text text-anchor="middle" x="347" y="-694" font-family="Helvetica,sans-Serif" font-size="10.00">::RttOptions</text>
</a>
</g>
</g>
<!-- Node5&#45;&gt;Node12 -->
<g id="edge16" class="edge"><title>Node5&#45;&gt;Node12</title>
<path fill="none" stroke="#9a32cd" stroke-dasharray="5,2" d="M65.7601,-846.669C123.751,-816.732 257.274,-747.803 316.632,-717.161"/>
<polygon fill="#9a32cd" stroke="#9a32cd" points="64.0834,-843.596 56.8031,-851.293 67.2945,-849.816 64.0834,-843.596"/>
<text text-anchor="middle" x="116" y="-836" font-family="Helvetica,sans-Serif" font-size="10.00"> Size_</text>
</g>
<!-- Node6&#45;&gt;Node2 -->
<g id="edge6" class="edge"><title>Node6&#45;&gt;Node2</title>
<path fill="none" stroke="#9a32cd" stroke-dasharray="5,2" d="M954.391,-129.453C937.488,-138.975 918.122,-153.181 908,-172 887.925,-209.324 915.766,-519.352 890,-553 866.159,-584.135 833.86,-552.403 806,-580 737.721,-647.633 727.717,-774.842 726.251,-811.117"/>
<polygon fill="#9a32cd" stroke="#9a32cd" points="956.26,-132.423 963.453,-124.644 952.979,-126.239 956.26,-132.423"/>
<text text-anchor="middle" x="848" y="-583" font-family="Helvetica,sans-Serif" font-size="10.00"> mMaterialManager</text>
</g>
<!-- Node7 -->
<g id="node7" class="node"><title>Node7</title>
<g id="a_node7"><a xlink:href="class_hydrax_1_1_material_manager_1_1_underwater_compositor_listener.html" target="_top" xlink:title="Hydrax::MaterialManager\l::UnderwaterCompositorListener">
<polygon fill="white" stroke="black" points="1253,-28 1253,-58 1411,-58 1411,-28 1253,-28"/>
<text text-anchor="start" x="1261" y="-46" font-family="Helvetica,sans-Serif" font-size="10.00">Hydrax::MaterialManager</text>
<text text-anchor="middle" x="1332" y="-35" font-family="Helvetica,sans-Serif" font-size="10.00">::UnderwaterCompositorListener</text>
</a>
</g>
</g>
<!-- Node6&#45;&gt;Node7 -->
<g id="edge10" class="edge"><title>Node6&#45;&gt;Node7</title>
<path fill="none" stroke="#9a32cd" stroke-dasharray="5,2" d="M1018.31,-101.277C1036.92,-93.3703 1061.43,-83.8661 1084,-78 1100.19,-73.7913 1186.8,-61.9146 1252.94,-53.1583"/>
<polygon fill="#9a32cd" stroke="#9a32cd" points="1016.68,-98.1687 1008.9,-105.355 1019.46,-104.592 1016.68,-98.1687"/>
<text text-anchor="middle" x="1158" y="-81" font-family="Helvetica,sans-Serif" font-size="10.00"> mMaterialManager</text>
</g>
<!-- Node7&#45;&gt;Node6 -->
<g id="edge8" class="edge"><title>Node7&#45;&gt;Node6</title>
<path fill="none" stroke="#9a32cd" stroke-dasharray="5,2" d="M1242.7,-30.2217C1194.61,-26.4864 1134.73,-27.166 1084,-44 1046.82,-56.3402 1012.21,-89.1585 996.644,-105.492"/>
<polygon fill="#9a32cd" stroke="#9a32cd" points="1242.52,-33.7185 1252.78,-31.0815 1243.11,-26.7439 1242.52,-33.7185"/>
<text text-anchor="middle" x="1158" y="-47" font-family="Helvetica,sans-Serif" font-size="10.00"> mUnderwaterCompositorListener</text>
</g>
<!-- Node8 -->
<g id="node8" class="node"><title>Node8</title>
<polygon fill="white" stroke="#bfbfbf" points="961.5,-0.5 961.5,-19.5 1012.5,-19.5 1012.5,-0.5 961.5,-0.5"/>
<text text-anchor="middle" x="987" y="-7.5" font-family="Helvetica,sans-Serif" font-size="10.00">Listener</text>
</g>
<!-- Node8&#45;&gt;Node7 -->
<g id="edge9" class="edge"><title>Node8&#45;&gt;Node7</title>
<path fill="none" stroke="midnightblue" d="M1022.74,-10.5495C1070.18,-11.6286 1157.82,-14.7942 1232,-24 1240.68,-25.0776 1249.75,-26.4591 1258.72,-27.9846"/>
<polygon fill="midnightblue" stroke="midnightblue" points="1022.76,-7.04926 1012.69,-10.3388 1022.61,-14.0477 1022.76,-7.04926"/>
</g>
<!-- Node9 -->
<g id="node9" class="node"><title>Node9</title>
<g id="a_node9"><a xlink:href="struct_hydrax_1_1_material_manager_1_1_options.html" target="_top" xlink:title="Hydrax::MaterialManager\l::Options">
<polygon fill="white" stroke="black" points="662,-100 662,-130 788,-130 788,-100 662,-100"/>
<text text-anchor="start" x="670" y="-118" font-family="Helvetica,sans-Serif" font-size="10.00">Hydrax::MaterialManager</text>
<text text-anchor="middle" x="725" y="-107" font-family="Helvetica,sans-Serif" font-size="10.00">::Options</text>
</a>
</g>
</g>
<!-- Node9&#45;&gt;Node6 -->
<g id="edge11" class="edge"><title>Node9&#45;&gt;Node6</title>
<path fill="none" stroke="#9a32cd" stroke-dasharray="5,2" d="M798.356,-115C837.776,-115 886.063,-115 923.782,-115"/>
<polygon fill="#9a32cd" stroke="#9a32cd" points="798.277,-111.5 788.276,-115 798.276,-118.5 798.277,-111.5"/>
<text text-anchor="middle" x="848" y="-118" font-family="Helvetica,sans-Serif" font-size="10.00"> mOptions</text>
</g>
<!-- Node10&#45;&gt;Node2 -->
<g id="edge12" class="edge"><title>Node10&#45;&gt;Node2</title>
<path fill="none" stroke="#9a32cd" stroke-dasharray="5,2" d="M915.838,-846.354C882.525,-842.586 842.176,-837.822 806,-833 793.749,-831.367 780.468,-829.439 768.312,-827.611"/>
<polygon fill="#9a32cd" stroke="#9a32cd" points="915.61,-849.851 925.939,-847.491 916.393,-842.894 915.61,-849.851"/>
<text text-anchor="middle" x="848" y="-847" font-family="Helvetica,sans-Serif" font-size="10.00"> mDecalsManager</text>
</g>
<!-- Node11&#45;&gt;Node2 -->
<g id="edge14" class="edge"><title>Node11&#45;&gt;Node2</title>
<path fill="none" stroke="#9a32cd" stroke-dasharray="5,2" d="M972.15,-520.522C954.963,-541.152 923.767,-575.118 890,-595 856.323,-614.829 834.722,-594.498 806,-621 746.909,-675.525 730.645,-779.533 726.952,-811.449"/>
<polygon fill="#9a32cd" stroke="#9a32cd" points="975.021,-522.539 978.626,-512.577 969.595,-518.117 975.021,-522.539"/>
<text text-anchor="middle" x="848" y="-624" font-family="Helvetica,sans-Serif" font-size="10.00"> mRttManager</text>
</g>
<!-- Node13 -->
<g id="node13" class="node"><title>Node13</title>
<g id="a_node13"><a xlink:href="class_hydrax_1_1_rtt_manager_1_1_c_reflection_listener.html" target="_top" xlink:title="Hydrax::RttManager\l::CReflectionListener">
<polygon fill="white" stroke="black" points="1578.5,-360 1578.5,-390 1687.5,-390 1687.5,-360 1578.5,-360"/>
<text text-anchor="start" x="1586.5" y="-378" font-family="Helvetica,sans-Serif" font-size="10.00">Hydrax::RttManager</text>
<text text-anchor="middle" x="1633" y="-367" font-family="Helvetica,sans-Serif" font-size="10.00">::CReflectionListener</text>
</a>
</g>
</g>
<!-- Node11&#45;&gt;Node13 -->
<g id="edge19" class="edge"><title>Node11&#45;&gt;Node13</title>
<path fill="none" stroke="#9a32cd" stroke-dasharray="5,2" d="M1020.13,-516.159C1038.49,-522.968 1062.15,-530.559 1084,-534 1228.91,-556.818 1274.92,-573.656 1414,-527 1500.61,-497.946 1583.65,-422.908 1616.84,-390.397"/>
<polygon fill="#9a32cd" stroke="#9a32cd" points="1021.37,-512.888 1010.78,-512.593 1018.88,-519.428 1021.37,-512.888"/>
<text text-anchor="middle" x="1332" y="-560" font-family="Helvetica,sans-Serif" font-size="10.00"> mRttManager</text>
</g>
<!-- Node15 -->
<g id="node15" class="node"><title>Node15</title>
<g id="a_node15"><a xlink:href="class_hydrax_1_1_rtt_manager_1_1_c_reflection_listener_1_1_c_reflection_queue_listener.html" target="_top" xlink:title="Hydrax::RttManager\l::CReflectionListener\l::CReflectionQueueListener">
<polygon fill="white" stroke="black" points="1263.5,-592.5 1263.5,-633.5 1400.5,-633.5 1400.5,-592.5 1263.5,-592.5"/>
<text text-anchor="start" x="1271.5" y="-621.5" font-family="Helvetica,sans-Serif" font-size="10.00">Hydrax::RttManager</text>
<text text-anchor="start" x="1271.5" y="-610.5" font-family="Helvetica,sans-Serif" font-size="10.00">::CReflectionListener</text>
<text text-anchor="middle" x="1332" y="-599.5" font-family="Helvetica,sans-Serif" font-size="10.00">::CReflectionQueueListener</text>
</a>
</g>
</g>
<!-- Node11&#45;&gt;Node15 -->
<g id="edge22" class="edge"><title>Node11&#45;&gt;Node15</title>
<path fill="none" stroke="#9a32cd" stroke-dasharray="5,2" d="M1005.03,-519.656C1023.07,-536.256 1053.16,-561.081 1084,-574 1100.32,-580.835 1195.99,-594.777 1263.35,-604.005"/>
<polygon fill="#9a32cd" stroke="#9a32cd" points="1007.31,-516.993 997.631,-512.681 1002.51,-522.087 1007.31,-516.993"/>
<text text-anchor="middle" x="1158" y="-603" font-family="Helvetica,sans-Serif" font-size="10.00"> mRttManager</text>
</g>
<!-- Node17 -->
<g id="node17" class="node"><title>Node17</title>
<g id="a_node17"><a xlink:href="class_hydrax_1_1_rtt_manager_1_1_c_refraction_listener.html" target="_top" xlink:title="Hydrax::RttManager\l::CRefractionListener">
<polygon fill="white" stroke="black" points="1277,-488 1277,-518 1387,-518 1387,-488 1277,-488"/>
<text text-anchor="start" x="1285" y="-506" font-family="Helvetica,sans-Serif" font-size="10.00">Hydrax::RttManager</text>
<text text-anchor="middle" x="1332" y="-495" font-family="Helvetica,sans-Serif" font-size="10.00">::CRefractionListener</text>
</a>
</g>
</g>
<!-- Node11&#45;&gt;Node17 -->
<g id="edge25" class="edge"><title>Node11&#45;&gt;Node17</title>
<path fill="none" stroke="#9a32cd" stroke-dasharray="5,2" d="M1049.94,-511.889C1061.25,-513.185 1072.96,-514.313 1084,-515 1149.65,-519.087 1166.34,-518.965 1232,-515 1246.6,-514.118 1262.35,-512.511 1276.9,-510.754"/>
<polygon fill="#9a32cd" stroke="#9a32cd" points="1050.05,-508.377 1039.7,-510.66 1049.22,-515.327 1050.05,-508.377"/>
<text text-anchor="middle" x="1158" y="-522" font-family="Helvetica,sans-Serif" font-size="10.00"> mRttManager</text>
</g>
<!-- Node18 -->
<g id="node18" class="node"><title>Node18</title>
<g id="a_node18"><a xlink:href="class_hydrax_1_1_rtt_manager_1_1_c_g_p_u_normal_map_listener.html" target="_top" xlink:title="Hydrax::RttManager\l::CGPUNormalMapListener">
<polygon fill="white" stroke="black" points="1263.5,-234 1263.5,-264 1400.5,-264 1400.5,-234 1263.5,-234"/>
<text text-anchor="start" x="1271.5" y="-252" font-family="Helvetica,sans-Serif" font-size="10.00">Hydrax::RttManager</text>
<text text-anchor="middle" x="1332" y="-241" font-family="Helvetica,sans-Serif" font-size="10.00">::CGPUNormalMapListener</text>
</a>
</g>
</g>
<!-- Node11&#45;&gt;Node18 -->
<g id="edge29" class="edge"><title>Node11&#45;&gt;Node18</title>
<path fill="none" stroke="#9a32cd" stroke-dasharray="5,2" d="M997.732,-484.472C1013.9,-453.051 1046.44,-386.971 1066,-328 1077.47,-293.409 1055.54,-270.767 1084,-248 1141.59,-201.924 1233.3,-218.214 1287.27,-233.865"/>
<polygon fill="#9a32cd" stroke="#9a32cd" points="994.597,-482.915 993.096,-493.403 1000.81,-486.14 994.597,-482.915"/>
<text text-anchor="middle" x="1158" y="-251" font-family="Helvetica,sans-Serif" font-size="10.00"> mRttManager</text>
</g>
<!-- Node19 -->
<g id="node19" class="node"><title>Node19</title>
<g id="a_node19"><a xlink:href="class_hydrax_1_1_rtt_manager_1_1_c_depth_listener.html" target="_top" xlink:title="Hydrax::RttManager\l::CDepthListener">
<polygon fill="white" stroke="black" points="1279.5,-420 1279.5,-450 1384.5,-450 1384.5,-420 1279.5,-420"/>
<text text-anchor="start" x="1287.5" y="-438" font-family="Helvetica,sans-Serif" font-size="10.00">Hydrax::RttManager</text>
<text text-anchor="middle" x="1332" y="-427" font-family="Helvetica,sans-Serif" font-size="10.00">::CDepthListener</text>
</a>
</g>
</g>
<!-- Node11&#45;&gt;Node19 -->
<g id="edge32" class="edge"><title>Node11&#45;&gt;Node19</title>
<path fill="none" stroke="#9a32cd" stroke-dasharray="5,2" d="M1046.2,-491.463C1111.59,-478.498 1216.76,-457.648 1279.35,-445.24"/>
<polygon fill="#9a32cd" stroke="#9a32cd" points="1045.18,-488.095 1036.05,-493.473 1046.54,-494.962 1045.18,-488.095"/>
<text text-anchor="middle" x="1158" y="-486" font-family="Helvetica,sans-Serif" font-size="10.00"> mRttManager</text>
</g>
<!-- Node21 -->
<g id="node21" class="node"><title>Node21</title>
<g id="a_node21"><a xlink:href="class_hydrax_1_1_rtt_manager_1_1_c_depth_reflection_listener.html" target="_top" xlink:title="Hydrax::RttManager\l::CDepthReflectionListener">
<polygon fill="white" stroke="black" points="1264.5,-327 1264.5,-357 1399.5,-357 1399.5,-327 1264.5,-327"/>
<text text-anchor="start" x="1272.5" y="-345" font-family="Helvetica,sans-Serif" font-size="10.00">Hydrax::RttManager</text>
<text text-anchor="middle" x="1332" y="-334" font-family="Helvetica,sans-Serif" font-size="10.00">::CDepthReflectionListener</text>
</a>
</g>
</g>
<!-- Node11&#45;&gt;Node21 -->
<g id="edge35" class="edge"><title>Node11&#45;&gt;Node21</title>
<path fill="none" stroke="#9a32cd" stroke-dasharray="5,2" d="M1000.79,-485.398C1017.5,-463.699 1048.79,-427.223 1084,-407 1140.14,-374.756 1212.58,-358.149 1264.47,-349.83"/>
<polygon fill="#9a32cd" stroke="#9a32cd" points="997.956,-483.346 994.747,-493.443 1003.55,-487.551 997.956,-483.346"/>
<text text-anchor="middle" x="1158" y="-410" font-family="Helvetica,sans-Serif" font-size="10.00"> mRttManager</text>
</g>
<!-- Node11&#45;&gt;Node26 -->
<g id="edge44" class="edge"><title>Node11&#45;&gt;Node26</title>
<path fill="none" stroke="#9a32cd" stroke-dasharray="5,2" d="M1001.25,-520.778C1018.83,-543.801 1051.47,-584.58 1084,-615 1151.26,-677.897 1168.15,-696.795 1250,-739 1263.26,-745.836 1278.66,-751.326 1292.46,-755.466"/>
<polygon fill="#9a32cd" stroke="#9a32cd" points="1003.9,-518.48 995.075,-512.614 998.313,-522.702 1003.9,-518.48"/>
<text text-anchor="middle" x="1158" y="-733" font-family="Helvetica,sans-Serif" font-size="10.00"> mRttManager</text>
</g>
<!-- Node12&#45;&gt;Node11 -->
<g id="edge15" class="edge"><title>Node12&#45;&gt;Node11</title>
<path fill="none" stroke="#9a32cd" stroke-dasharray="5,2" d="M386.027,-682.145C462.933,-643.037 643.474,-556.496 806,-518 848.414,-507.954 897.836,-504.395 934.151,-503.24"/>
<polygon fill="#9a32cd" stroke="#9a32cd" points="384.047,-679.227 376.737,-686.896 387.234,-685.459 384.047,-679.227"/>
<text text-anchor="middle" x="603" y="-604" font-family="Helvetica,sans-Serif" font-size="10.00"> mRttOptions</text>
</g>
<!-- Node13&#45;&gt;Node11 -->
<g id="edge17" class="edge"><title>Node13&#45;&gt;Node11</title>
<path fill="none" stroke="#9a32cd" stroke-dasharray="5,2" d="M1611.64,-352.468C1575.99,-314.887 1498.01,-240.796 1414,-213 1274.76,-166.927 1195.22,-118.385 1084,-214 1064.55,-230.72 1073.28,-303.409 1066,-328 1046.45,-394.02 1007.52,-467.692 993.33,-493.476"/>
<polygon fill="#9a32cd" stroke="#9a32cd" points="1609.21,-354.989 1618.6,-359.903 1614.32,-350.208 1609.21,-354.989"/>
<text text-anchor="middle" x="1332" y="-216" font-family="Helvetica,sans-Serif" font-size="10.00"> mReflectionListener</text>
</g>
<!-- Node14 -->
<g id="node14" class="node"><title>Node14</title>
<polygon fill="white" stroke="#bfbfbf" points="932,-181.5 932,-200.5 1042,-200.5 1042,-181.5 932,-181.5"/>
<text text-anchor="middle" x="987" y="-188.5" font-family="Helvetica,sans-Serif" font-size="10.00">RenderTargetListener</text>
</g>
<!-- Node14&#45;&gt;Node13 -->
<g id="edge18" class="edge"><title>Node14&#45;&gt;Node13</title>
<path fill="none" stroke="midnightblue" d="M1016.41,-177.265C1035.12,-168.999 1060.43,-159.273 1084,-155 1228.32,-128.829 1270.25,-129.851 1414,-159 1482.43,-172.875 1509.42,-168.864 1560,-217 1602.8,-257.733 1622.27,-328.71 1629.04,-359.743"/>
<polygon fill="midnightblue" stroke="midnightblue" points="1014.92,-174.095 1007.27,-181.418 1017.82,-180.468 1014.92,-174.095"/>
</g>
<!-- Node14&#45;&gt;Node17 -->
<g id="edge24" class="edge"><title>Node14&#45;&gt;Node17</title>
<path fill="none" stroke="midnightblue" d="M1005.38,-207.624C1023.49,-226.011 1051.25,-257.374 1066,-290 1084.24,-330.354 1052.97,-356.4 1084,-388 1131.02,-435.891 1179.75,-375.874 1232,-418 1247.49,-430.491 1236.53,-444.35 1250,-459 1261.26,-471.252 1276.74,-480.811 1291.16,-487.843"/>
<polygon fill="midnightblue" stroke="midnightblue" points="1007.84,-205.132 998.272,-200.573 1002.91,-210.101 1007.84,-205.132"/>
</g>
<!-- Node14&#45;&gt;Node18 -->
<g id="edge28" class="edge"><title>Node14&#45;&gt;Node18</title>
<path fill="none" stroke="midnightblue" d="M1052.42,-188.437C1102.15,-187.952 1172.33,-190.538 1232,-205 1257.59,-211.202 1284.8,-223.78 1304.2,-233.905"/>
<polygon fill="midnightblue" stroke="midnightblue" points="1052.07,-184.942 1042.12,-188.584 1052.17,-191.941 1052.07,-184.942"/>
</g>
<!-- Node14&#45;&gt;Node21 -->
<g id="edge34" class="edge"><title>Node14&#45;&gt;Node21</title>
<path fill="none" stroke="midnightblue" d="M1052.18,-199.685C1122.06,-209.377 1224.92,-224.431 1232,-230 1248.29,-242.807 1237.78,-256.269 1250,-273 1265.91,-294.78 1290.02,-314.16 1307.8,-326.793"/>
<polygon fill="midnightblue" stroke="midnightblue" points="1052.51,-196.197 1042.12,-198.295 1051.55,-203.131 1052.51,-196.197"/>
</g>
<!-- Node31 -->
<g id="node31" class="node"><title>Node31</title>
<g id="a_node31"><a xlink:href="class_hydrax_1_1_god_rays_manager_1_1_depth_map_listener.html" target="_top" xlink:title="Hydrax::GodRaysManager\l::DepthMapListener">
<polygon fill="white" stroke="black" points="2024.5,-651 2024.5,-681 2157.5,-681 2157.5,-651 2024.5,-651"/>
<text text-anchor="start" x="2032.5" y="-669" font-family="Helvetica,sans-Serif" font-size="10.00">Hydrax::GodRaysManager</text>
<text text-anchor="middle" x="2091" y="-658" font-family="Helvetica,sans-Serif" font-size="10.00">::DepthMapListener</text>
</a>
</g>
</g>
<!-- Node14&#45;&gt;Node31 -->
<g id="edge53" class="edge"><title>Node14&#45;&gt;Node31</title>
<path fill="none" stroke="midnightblue" d="M1008.14,-175.326C1026.73,-161.739 1055.68,-142.768 1084,-133 1188.54,-96.9388 1220.42,-103 1331,-103 1331,-103 1331,-103 1830,-103 2078.7,-103 2090.27,-561.408 2090.16,-650.941"/>
<polygon fill="midnightblue" stroke="midnightblue" points="1005.8,-172.706 999.888,-181.5 1009.99,-178.31 1005.8,-172.706"/>
</g>
<!-- Node15&#45;&gt;Node13 -->
<g id="edge20" class="edge"><title>Node15&#45;&gt;Node13</title>
<path fill="none" stroke="#9a32cd" stroke-dasharray="5,2" d="M1410.78,-619.533C1458.83,-619.382 1518.94,-611.085 1560,-577 1618.73,-528.251 1629.57,-428.044 1631.56,-390.052"/>
<polygon fill="#9a32cd" stroke="#9a32cd" points="1410.75,-616.033 1400.72,-619.448 1410.69,-623.032 1410.75,-616.033"/>
<text text-anchor="middle" x="1496" y="-622" font-family="Helvetica,sans-Serif" font-size="10.00"> mCReflectionQueueListener</text>
</g>
<!-- Node16 -->
<g id="node16" class="node"><title>Node16</title>
<polygon fill="white" stroke="#bfbfbf" points="918,-612.5 918,-631.5 1056,-631.5 1056,-612.5 918,-612.5"/>
<text text-anchor="middle" x="987" y="-619.5" font-family="Helvetica,sans-Serif" font-size="10.00">Ogre::RenderQueueListener</text>
</g>
<!-- Node16&#45;&gt;Node15 -->
<g id="edge21" class="edge"><title>Node16&#45;&gt;Node15</title>
<path fill="none" stroke="midnightblue" d="M1066.27,-619.946C1125.69,-618.387 1206.57,-616.265 1263.25,-614.778"/>
<polygon fill="midnightblue" stroke="midnightblue" points="1066.08,-616.45 1056.18,-620.211 1066.26,-623.448 1066.08,-616.45"/>
</g>
<!-- Node17&#45;&gt;Node11 -->
<g id="edge23" class="edge"><title>Node17&#45;&gt;Node11</title>
<path fill="none" stroke="#9a32cd" stroke-dasharray="5,2" d="M1266.65,-503C1200.99,-503 1100.39,-503 1039.72,-503"/>
<polygon fill="#9a32cd" stroke="#9a32cd" points="1266.87,-506.5 1276.87,-503 1266.87,-499.5 1266.87,-506.5"/>
<text text-anchor="middle" x="1158" y="-506" font-family="Helvetica,sans-Serif" font-size="10.00"> mRefractionListener</text>
</g>
<!-- Node18&#45;&gt;Node11 -->
<g id="edge27" class="edge"><title>Node18&#45;&gt;Node11</title>
<path fill="none" stroke="#9a32cd" stroke-dasharray="5,2" d="M1253.07,-258.84C1190.84,-268.043 1109.93,-283.45 1084,-304 1067.43,-317.134 1008.18,-455.278 992.07,-493.339"/>
<polygon fill="#9a32cd" stroke="#9a32cd" points="1253.88,-262.259 1263.28,-257.361 1252.88,-255.332 1253.88,-262.259"/>
<text text-anchor="middle" x="1158" y="-307" font-family="Helvetica,sans-Serif" font-size="10.00"> mGPUNormalMapListener</text>
</g>
<!-- Node19&#45;&gt;Node11 -->
<g id="edge30" class="edge"><title>Node19&#45;&gt;Node11</title>
<path fill="none" stroke="#9a32cd" stroke-dasharray="5,2" d="M1269.29,-425.24C1218.35,-419.527 1144.81,-416.742 1084,-436 1047.96,-447.413 1013.61,-477.61 997.524,-493.271"/>
<polygon fill="#9a32cd" stroke="#9a32cd" points="1269.14,-428.747 1279.48,-426.456 1269.97,-421.796 1269.14,-428.747"/>
<text text-anchor="middle" x="1158" y="-439" font-family="Helvetica,sans-Serif" font-size="10.00"> mDepthListener</text>
</g>
<!-- Node20 -->
<g id="node20" class="node"><title>Node20</title>
<polygon fill="white" stroke="#bfbfbf" points="918.5,-299.5 918.5,-318.5 1055.5,-318.5 1055.5,-299.5 918.5,-299.5"/>
<text text-anchor="middle" x="987" y="-306.5" font-family="Helvetica,sans-Serif" font-size="10.00">Ogre::RenderTargetListener</text>
</g>
<!-- Node20&#45;&gt;Node19 -->
<g id="edge31" class="edge"><title>Node20&#45;&gt;Node19</title>
<path fill="none" stroke="midnightblue" d="M1065.61,-304.755C1126.82,-302.973 1206.04,-304.629 1232,-323 1248.91,-334.968 1237.78,-349.269 1250,-366 1265.91,-387.78 1290.02,-407.16 1307.8,-419.793"/>
<polygon fill="midnightblue" stroke="midnightblue" points="1065.45,-301.258 1055.57,-305.082 1065.68,-308.254 1065.45,-301.258"/>
</g>
<!-- Node21&#45;&gt;Node11 -->
<g id="edge33" class="edge"><title>Node21&#45;&gt;Node11</title>
<path fill="none" stroke="#9a32cd" stroke-dasharray="5,2" d="M1263.11,-325.176C1210.72,-316.05 1138.28,-312.124 1084,-343 1024.31,-376.957 997.645,-464.399 990.243,-493.454"/>
<polygon fill="#9a32cd" stroke="#9a32cd" points="1262.51,-328.624 1272.97,-326.997 1263.78,-321.74 1262.51,-328.624"/>
<text text-anchor="middle" x="1158" y="-346" font-family="Helvetica,sans-Serif" font-size="10.00"> mDepthReflectionListener</text>
</g>
<!-- Node22&#45;&gt;Node2 -->
<g id="edge36" class="edge"><title>Node22&#45;&gt;Node2</title>
<path fill="none" stroke="#9a32cd" stroke-dasharray="5,2" d="M949.06,-1070.97C902.79,-1054.06 827.015,-1024.2 806,-1003 754.486,-951.035 733.429,-860.323 727.712,-830.676"/>
<polygon fill="#9a32cd" stroke="#9a32cd" points="948.142,-1074.36 958.736,-1074.48 950.526,-1067.78 948.142,-1074.36"/>
<text text-anchor="middle" x="848" y="-1051" font-family="Helvetica,sans-Serif" font-size="10.00"> mDeviceListener</text>
</g>
<!-- Node23 -->
<g id="node23" class="node"><title>Node23</title>
<polygon fill="white" stroke="#bfbfbf" points="670.5,-1087 670.5,-1117 779.5,-1117 779.5,-1087 670.5,-1087"/>
<text text-anchor="start" x="678.5" y="-1105" font-family="Helvetica,sans-Serif" font-size="10.00">Ogre::RenderSystem</text>
<text text-anchor="middle" x="725" y="-1094" font-family="Helvetica,sans-Serif" font-size="10.00">::Listener</text>
</g>
<!-- Node23&#45;&gt;Node22 -->
<g id="edge37" class="edge"><title>Node23&#45;&gt;Node22</title>
<path fill="none" stroke="midnightblue" d="M789.668,-1100.97C820.075,-1100.15 856.958,-1098.66 890,-1096 898.287,-1095.33 906.959,-1094.47 915.557,-1093.52"/>
<polygon fill="midnightblue" stroke="midnightblue" points="789.527,-1097.47 779.619,-1101.23 789.704,-1104.47 789.527,-1097.47"/>
</g>
<!-- Node24&#45;&gt;Node2 -->
<g id="edge39" class="edge"><title>Node24&#45;&gt;Node2</title>
<path fill="none" stroke="#9a32cd" stroke-dasharray="5,2" d="M507.079,-950.077C556.766,-920.511 666.478,-855.228 707.817,-830.63"/>
<polygon fill="#9a32cd" stroke="#9a32cd" points="505.058,-947.207 498.254,-955.328 508.638,-953.222 505.058,-947.207"/>
<text text-anchor="middle" x="603" y="-918" font-family="Helvetica,sans-Serif" font-size="10.00"> mModule</text>
</g>
<!-- Node25 -->
<g id="node25" class="node"><title>Node25</title>
<g id="a_node25"><a xlink:href="class_hydrax_1_1_noise_1_1_noise.html" target="_top" xlink:title="Hydrax::Noise::Noise">
<polygon fill="white" stroke="black" points="161.5,-1064.5 161.5,-1083.5 272.5,-1083.5 272.5,-1064.5 161.5,-1064.5"/>
<text text-anchor="middle" x="217" y="-1071.5" font-family="Helvetica,sans-Serif" font-size="10.00">Hydrax::Noise::Noise</text>
</a>
</g>
</g>
<!-- Node25&#45;&gt;Node24 -->
<g id="edge40" class="edge"><title>Node25&#45;&gt;Node24</title>
<path fill="none" stroke="#9a32cd" stroke-dasharray="5,2" d="M250.648,-1060.42C304.354,-1038.07 410.039,-994.106 456.801,-974.651"/>
<polygon fill="#9a32cd" stroke="#9a32cd" points="249.139,-1057.25 241.251,-1064.33 251.828,-1063.72 249.139,-1057.25"/>
<text text-anchor="middle" x="347" y="-1045" font-family="Helvetica,sans-Serif" font-size="10.00"> mNoise</text>
</g>
<!-- Node29 -->
<g id="node29" class="node"><title>Node29</title>
<g id="a_node29"><a xlink:href="class_hydrax_1_1_noise_1_1_perlin.html" target="_top" xlink:title="Hydrax::Noise::Perlin">
<polygon fill="white" stroke="black" points="1578,-779.5 1578,-798.5 1688,-798.5 1688,-779.5 1578,-779.5"/>
<text text-anchor="middle" x="1633" y="-786.5" font-family="Helvetica,sans-Serif" font-size="10.00">Hydrax::Noise::Perlin</text>
</a>
</g>
</g>
<!-- Node25&#45;&gt;Node29 -->
<g id="edge49" class="edge"><title>Node25&#45;&gt;Node29</title>
<path fill="none" stroke="midnightblue" d="M247.619,-1087.75C295.42,-1108.65 393.021,-1146 480,-1146 480,-1146 480,-1146 1333,-1146 1519.75,-1146 1612.93,-855.322 1629.35,-798.549"/>
<polygon fill="midnightblue" stroke="midnightblue" points="248.756,-1084.43 238.196,-1083.56 245.911,-1090.82 248.756,-1084.43"/>
</g>
<!-- Node26&#45;&gt;Node2 -->
<g id="edge42" class="edge"><title>Node26&#45;&gt;Node2</title>
<path fill="none" stroke="#9a32cd" stroke-dasharray="5,2" d="M1257.62,-775.884C1248.99,-777.014 1240.31,-778.082 1232,-779 1043.21,-799.863 995.173,-795.994 806,-813 793.766,-814.1 780.49,-815.389 768.334,-816.607"/>
<polygon fill="#9a32cd" stroke="#9a32cd" points="1258.25,-779.332 1267.7,-774.536 1257.32,-772.394 1258.25,-779.332"/>
<text text-anchor="middle" x="987" y="-808" font-family="Helvetica,sans-Serif" font-size="10.00"> mGPUNormalMapManager</text>
</g>
<!-- Node26&#45;&gt;Node29 -->
<g id="edge51" class="edge"><title>Node26&#45;&gt;Node29</title>
<path fill="none" stroke="#9a32cd" stroke-dasharray="5,2" d="M1424.11,-769.026C1465.62,-771.27 1515.36,-774.53 1560,-779 1565.78,-779.578 1571.8,-780.272 1577.8,-781.02"/>
<polygon fill="#9a32cd" stroke="#9a32cd" points="1424.19,-765.525 1414.02,-768.492 1423.82,-772.516 1424.19,-765.525"/>
<text text-anchor="middle" x="1496" y="-782" font-family="Helvetica,sans-Serif" font-size="10.00"> mGPUNormalMapManager</text>
</g>
<!-- Node27&#45;&gt;Node2 -->
<g id="edge45" class="edge"><title>Node27&#45;&gt;Node2</title>
<path fill="none" stroke="#9a32cd" stroke-dasharray="5,2" d="M925.744,-964.505C877.436,-954.921 816.091,-941.777 806,-935 765.655,-907.904 739.347,-853.079 729.905,-830.773"/>
<polygon fill="#9a32cd" stroke="#9a32cd" points="925.343,-967.993 935.831,-966.493 926.696,-961.125 925.343,-967.993"/>
<text text-anchor="middle" x="848" y="-960" font-family="Helvetica,sans-Serif" font-size="10.00"> mCfgFileManager</text>
</g>
<!-- Node28&#45;&gt;Node2 -->
<g id="edge47" class="edge"><title>Node28&#45;&gt;Node2</title>
<path fill="none" stroke="#9a32cd" stroke-dasharray="5,2" d="M1752.06,-696.259C1529.32,-685.855 888.18,-660.181 806,-705 762.401,-728.778 737.643,-787.786 729.261,-811.2"/>
<polygon fill="#9a32cd" stroke="#9a32cd" points="1752.2,-699.769 1762.35,-696.742 1752.52,-692.777 1752.2,-699.769"/>
<text text-anchor="middle" x="1332" y="-687" font-family="Helvetica,sans-Serif" font-size="10.00"> mGodRaysManager</text>
</g>
<!-- Node28&#45;&gt;Node31 -->
<g id="edge54" class="edge"><title>Node28&#45;&gt;Node31</title>
<path fill="none" stroke="#9a32cd" stroke-dasharray="5,2" d="M1856.68,-685.69C1872.78,-677.879 1893.99,-669.003 1914,-665 1949.96,-657.809 1990.87,-657.579 2024.2,-659.365"/>
<polygon fill="#9a32cd" stroke="#9a32cd" points="1854.74,-682.748 1847.38,-690.363 1857.88,-689.004 1854.74,-682.748"/>
<text text-anchor="middle" x="1960" y="-668" font-family="Helvetica,sans-Serif" font-size="10.00"> mGodRaysManager</text>
</g>
<!-- Node29&#45;&gt;Node28 -->
<g id="edge48" class="edge"><title>Node29&#45;&gt;Node28</title>
<path fill="none" stroke="#9a32cd" stroke-dasharray="5,2" d="M1663.94,-775.264C1703.61,-757.064 1772.59,-725.418 1807.09,-709.591"/>
<polygon fill="#9a32cd" stroke="#9a32cd" points="1662.39,-772.124 1654.76,-779.475 1665.31,-778.487 1662.39,-772.124"/>
<text text-anchor="middle" x="1725" y="-759" font-family="Helvetica,sans-Serif" font-size="10.00"> mPerlin</text>
</g>
<!-- Node30 -->
<g id="node30" class="node"><title>Node30</title>
<g id="a_node30"><a xlink:href="struct_hydrax_1_1_noise_1_1_perlin_1_1_options.html" target="_top" xlink:title="Hydrax::Noise::Perlin\l::Options">
<polygon fill="white" stroke="black" points="1277,-794 1277,-824 1387,-824 1387,-794 1277,-794"/>
<text text-anchor="start" x="1285" y="-812" font-family="Helvetica,sans-Serif" font-size="10.00">Hydrax::Noise::Perlin</text>
<text text-anchor="middle" x="1332" y="-801" font-family="Helvetica,sans-Serif" font-size="10.00">::Options</text>
</a>
</g>
</g>
<!-- Node30&#45;&gt;Node29 -->
<g id="edge50" class="edge"><title>Node30&#45;&gt;Node29</title>
<path fill="none" stroke="#9a32cd" stroke-dasharray="5,2" d="M1397.26,-804.702C1451.06,-801.103 1526.97,-796.026 1577.75,-792.629"/>
<polygon fill="#9a32cd" stroke="#9a32cd" points="1396.89,-801.218 1387.15,-805.378 1397.36,-808.203 1396.89,-801.218"/>
<text text-anchor="middle" x="1496" y="-805" font-family="Helvetica,sans-Serif" font-size="10.00"> mOptions</text>
</g>
<!-- Node31&#45;&gt;Node28 -->
<g id="edge52" class="edge"><title>Node31&#45;&gt;Node28</title>
<path fill="none" stroke="#9a32cd" stroke-dasharray="5,2" d="M2014.26,-676.882C2011.47,-677.263 2008.71,-677.637 2006,-678 1969.53,-682.884 1928.76,-688.002 1895.64,-692.072"/>
<polygon fill="#9a32cd" stroke="#9a32cd" points="2015.01,-680.312 2024.44,-675.479 2014.06,-673.378 2015.01,-680.312"/>
<text text-anchor="middle" x="1960" y="-693" font-family="Helvetica,sans-Serif" font-size="10.00"> mDepthMapListener</text>
</g>
</g>
</svg>
