<?xml version="1.0" encoding="UTF-8" standalone="no"?>
<!DOCTYPE svg PUBLIC "-//W3C//DTD SVG 1.1//EN"
 "http://www.w3.org/Graphics/SVG/1.1/DTD/svg11.dtd">
<!-- Generated by graphviz version 2.36.0 (20140111.2315)
 -->
<!-- Title: CacheSystem::loadAllDirectoriesInResourceGroup Pages: 1 -->
<svg width="924pt" height="270pt"
 viewBox="0.00 0.00 924.00 270.00" xmlns="http://www.w3.org/2000/svg" xmlns:xlink="http://www.w3.org/1999/xlink">
<g id="graph0" class="graph" transform="scale(1 1) rotate(0) translate(4 266)">
<title>CacheSystem::loadAllDirectoriesInResourceGroup</title>
<polygon fill="white" stroke="none" points="-4,4 -4,-266 920,-266 920,4 -4,4"/>
<!-- Node1 -->
<g id="node1" class="node"><title>Node1</title>
<polygon fill="#bfbfbf" stroke="black" points="0.5,-144 0.5,-174 161.5,-174 161.5,-144 0.5,-144"/>
<text text-anchor="start" x="8.5" y="-162" font-family="Helvetica,sans-Serif" font-size="10.00">CacheSystem::loadAllDirectories</text>
<text text-anchor="middle" x="81" y="-151" font-family="Helvetica,sans-Serif" font-size="10.00">InResourceGroup</text>
</g>
<!-- Node2 -->
<g id="node2" class="node"><title>Node2</title>
<g id="a_node2"><a xlink:href="namespace_ro_r_1_1_app.html#a68d6403d2b36006a6fa2d28f5ba8f12f" target="_top" xlink:title="RoR::App::GetGuiManager">
<polygon fill="white" stroke="black" points="216,-242.5 216,-261.5 350,-261.5 350,-242.5 216,-242.5"/>
<text text-anchor="middle" x="283" y="-249.5" font-family="Helvetica,sans-Serif" font-size="10.00">RoR::App::GetGuiManager</text>
</a>
</g>
</g>
<!-- Node1&#45;&gt;Node2 -->
<g id="edge1" class="edge"><title>Node1&#45;&gt;Node2</title>
<path fill="none" stroke="midnightblue" d="M101.428,-174.051C123.62,-190.549 161.584,-216.701 198,-232 205.094,-234.98 212.72,-237.569 220.38,-239.805"/>
<polygon fill="midnightblue" stroke="midnightblue" points="219.494,-243.191 230.063,-242.449 221.338,-236.438 219.494,-243.191"/>
</g>
<!-- Node3 -->
<g id="node3" class="node"><title>Node3</title>
<g id="a_node3"><a xlink:href="class_ro_r_1_1_g_u_i_manager.html#acd7e141e9a6cb9cef2f8a7c4a6822a58" target="_top" xlink:title="RoR::GUIManager::GetLoading\lWindow">
<polygon fill="white" stroke="black" points="206,-193 206,-223 360,-223 360,-193 206,-193"/>
<text text-anchor="start" x="214" y="-211" font-family="Helvetica,sans-Serif" font-size="10.00">RoR::GUIManager::GetLoading</text>
<text text-anchor="middle" x="283" y="-200" font-family="Helvetica,sans-Serif" font-size="10.00">Window</text>
</a>
</g>
</g>
<!-- Node1&#45;&gt;Node3 -->
<g id="edge2" class="edge"><title>Node1&#45;&gt;Node3</title>
<path fill="none" stroke="midnightblue" d="M143.366,-174.035C164.675,-179.255 188.75,-185.154 210.786,-190.553"/>
<polygon fill="midnightblue" stroke="midnightblue" points="210.205,-194.014 220.75,-192.994 211.87,-187.215 210.205,-194.014"/>
</g>
<!-- Node4 -->
<g id="node4" class="node"><title>Node4</title>
<g id="a_node4"><a xlink:href="class_ro_r_1_1_g_u_i_1_1_loading_window.html#acc087e971e8347f14011eaa787c8fc5e" target="_top" xlink:title="RoR::GUI::LoadingWindow\l::setProgress">
<polygon fill="white" stroke="black" points="215,-144 215,-174 351,-174 351,-144 215,-144"/>
<text text-anchor="start" x="223" y="-162" font-family="Helvetica,sans-Serif" font-size="10.00">RoR::GUI::LoadingWindow</text>
<text text-anchor="middle" x="283" y="-151" font-family="Helvetica,sans-Serif" font-size="10.00">::setProgress</text>
</a>
</g>
</g>
<!-- Node1&#45;&gt;Node4 -->
<g id="edge3" class="edge"><title>Node1&#45;&gt;Node4</title>
<path fill="none" stroke="midnightblue" d="M161.62,-159C175.82,-159 190.593,-159 204.727,-159"/>
<polygon fill="midnightblue" stroke="midnightblue" points="204.888,-162.5 214.888,-159 204.888,-155.5 204.888,-162.5"/>
</g>
<!-- Node8 -->
<g id="node8" class="node"><title>Node8</title>
<g id="a_node8"><a xlink:href="class_cache_system.html#a6930774611a2fb3df326a427c2af3ccb" target="_top" xlink:title="CacheSystem::loadSingleDirectory">
<polygon fill="white" stroke="black" points="198,-103.5 198,-122.5 368,-122.5 368,-103.5 198,-103.5"/>
<text text-anchor="middle" x="283" y="-110.5" font-family="Helvetica,sans-Serif" font-size="10.00">CacheSystem::loadSingleDirectory</text>
</a>
</g>
</g>
<!-- Node1&#45;&gt;Node8 -->
<g id="edge7" class="edge"><title>Node1&#45;&gt;Node8</title>
<path fill="none" stroke="midnightblue" d="M147.487,-143.938C174.541,-137.715 205.437,-130.61 230.79,-124.778"/>
<polygon fill="midnightblue" stroke="midnightblue" points="231.61,-128.181 240.571,-122.529 230.041,-121.359 231.61,-128.181"/>
</g>
<!-- Node14 -->
<g id="node14" class="node"><title>Node14</title>
<g id="a_node14"><a xlink:href="class_ro_r_1_1_g_u_i_manager.html#a1d838e0f2bbb9cd4c70507aadce7a4dd" target="_top" xlink:title="RoR::GUIManager::SetVisible\l_LoadingWindow">
<polygon fill="white" stroke="black" points="208.5,-27 208.5,-57 357.5,-57 357.5,-27 208.5,-27"/>
<text text-anchor="start" x="216.5" y="-45" font-family="Helvetica,sans-Serif" font-size="10.00">RoR::GUIManager::SetVisible</text>
<text text-anchor="middle" x="283" y="-34" font-family="Helvetica,sans-Serif" font-size="10.00">_LoadingWindow</text>
</a>
</g>
</g>
<!-- Node1&#45;&gt;Node14 -->
<g id="edge14" class="edge"><title>Node1&#45;&gt;Node14</title>
<path fill="none" stroke="midnightblue" d="M107.737,-143.944C143.267,-123.159 207.449,-85.6123 247.22,-62.346"/>
<polygon fill="midnightblue" stroke="midnightblue" points="249.181,-65.2542 256.045,-57.1837 245.646,-59.2122 249.181,-65.2542"/>
</g>
<!-- Node5 -->
<g id="node5" class="node"><title>Node5</title>
<g id="a_node5"><a xlink:href="_utils_8h.html#a23744b3f0e07a907bc9993afbcf37c2d" target="_top" xlink:title="convertToMyGUIString">
<polygon fill="white" stroke="black" points="425.5,-196.5 425.5,-215.5 542.5,-215.5 542.5,-196.5 425.5,-196.5"/>
<text text-anchor="middle" x="484" y="-203.5" font-family="Helvetica,sans-Serif" font-size="10.00">convertToMyGUIString</text>
</a>
</g>
</g>
<!-- Node4&#45;&gt;Node5 -->
<g id="edge4" class="edge"><title>Node4&#45;&gt;Node5</title>
<path fill="none" stroke="midnightblue" d="M347.512,-174C375.026,-180.499 406.784,-187.999 432.634,-194.105"/>
<polygon fill="midnightblue" stroke="midnightblue" points="432.056,-197.564 442.593,-196.457 433.665,-190.752 432.056,-197.564"/>
</g>
<!-- Node7 -->
<g id="node7" class="node"><title>Node7</title>
<g id="a_node7"><a xlink:href="class_ro_r_1_1_g_u_i_1_1_loading_window.html#a7e766d284e97fe928222c35ec5b1a573" target="_top" xlink:title="RoR::GUI::LoadingWindow\l::renderOneFrame">
<polygon fill="white" stroke="black" points="416,-147 416,-177 552,-177 552,-147 416,-147"/>
<text text-anchor="start" x="424" y="-165" font-family="Helvetica,sans-Serif" font-size="10.00">RoR::GUI::LoadingWindow</text>
<text text-anchor="middle" x="484" y="-154" font-family="Helvetica,sans-Serif" font-size="10.00">::renderOneFrame</text>
</a>
</g>
</g>
<!-- Node4&#45;&gt;Node7 -->
<g id="edge6" class="edge"><title>Node4&#45;&gt;Node7</title>
<path fill="none" stroke="midnightblue" d="M351.095,-160.011C368.626,-160.276 387.664,-160.563 405.68,-160.834"/>
<polygon fill="midnightblue" stroke="midnightblue" points="405.806,-164.337 415.858,-160.988 405.912,-157.337 405.806,-164.337"/>
</g>
<!-- Node6 -->
<g id="node6" class="node"><title>Node6</title>
<g id="a_node6"><a xlink:href="_utils_8h.html#abe6f6cf9ad4e672e6f4db9fe552b6bcf" target="_top" xlink:title="ANSI_TO_WCHAR">
<polygon fill="white" stroke="black" points="630,-196.5 630,-215.5 734,-215.5 734,-196.5 630,-196.5"/>
<text text-anchor="middle" x="682" y="-203.5" font-family="Helvetica,sans-Serif" font-size="10.00">ANSI_TO_WCHAR</text>
</a>
</g>
</g>
<!-- Node5&#45;&gt;Node6 -->
<g id="edge5" class="edge"><title>Node5&#45;&gt;Node6</title>
<path fill="none" stroke="midnightblue" d="M542.746,-206C566.954,-206 595.127,-206 619.701,-206"/>
<polygon fill="midnightblue" stroke="midnightblue" points="619.991,-209.5 629.991,-206 619.991,-202.5 619.991,-209.5"/>
</g>
<!-- Node9 -->
<g id="node9" class="node"><title>Node9</title>
<g id="a_node9"><a xlink:href="class_cache_system.html#ad423befaee09dd2e45621690907484f1" target="_top" xlink:title="CacheSystem::parseKnownFiles\lOneRGDirectory">
<polygon fill="white" stroke="black" points="404,-98 404,-128 564,-128 564,-98 404,-98"/>
<text text-anchor="start" x="412" y="-116" font-family="Helvetica,sans-Serif" font-size="10.00">CacheSystem::parseKnownFiles</text>
<text text-anchor="middle" x="484" y="-105" font-family="Helvetica,sans-Serif" font-size="10.00">OneRGDirectory</text>
</a>
</g>
</g>
<!-- Node8&#45;&gt;Node9 -->
<g id="edge8" class="edge"><title>Node8&#45;&gt;Node9</title>
<path fill="none" stroke="midnightblue" d="M368.105,-113C376.645,-113 385.339,-113 393.928,-113"/>
<polygon fill="midnightblue" stroke="midnightblue" points="393.948,-116.5 403.948,-113 393.948,-109.5 393.948,-116.5"/>
</g>
<!-- Node12 -->
<g id="node12" class="node"><title>Node12</title>
<g id="a_node12"><a xlink:href="class_cache_system.html#abb9382582ecfda71e456008e48eef3af" target="_top" xlink:title="CacheSystem::parseKnownFiles\lOneRG">
<polygon fill="white" stroke="black" points="404,-49 404,-79 564,-79 564,-49 404,-49"/>
<text text-anchor="start" x="412" y="-67" font-family="Helvetica,sans-Serif" font-size="10.00">CacheSystem::parseKnownFiles</text>
<text text-anchor="middle" x="484" y="-56" font-family="Helvetica,sans-Serif" font-size="10.00">OneRG</text>
</a>
</g>
</g>
<!-- Node8&#45;&gt;Node12 -->
<g id="edge11" class="edge"><title>Node8&#45;&gt;Node12</title>
<path fill="none" stroke="midnightblue" d="M322.842,-103.436C348.146,-97.2053 381.914,-88.8906 411.918,-81.5026"/>
<polygon fill="midnightblue" stroke="midnightblue" points="413.058,-84.8264 421.932,-79.037 411.385,-78.0294 413.058,-84.8264"/>
</g>
<!-- Node10 -->
<g id="node10" class="node"><title>Node10</title>
<g id="a_node10"><a xlink:href="class_cache_system.html#a12f05687c63beea66a7d560680d0b9f9" target="_top" xlink:title="CacheSystem::getVirtualPath">
<polygon fill="white" stroke="black" points="609,-130.5 609,-149.5 755,-149.5 755,-130.5 609,-130.5"/>
<text text-anchor="middle" x="682" y="-137.5" font-family="Helvetica,sans-Serif" font-size="10.00">CacheSystem::getVirtualPath</text>
</a>
</g>
</g>
<!-- Node9&#45;&gt;Node10 -->
<g id="edge9" class="edge"><title>Node9&#45;&gt;Node10</title>
<path fill="none" stroke="midnightblue" d="M564.156,-123.904C576.523,-125.608 589.307,-127.369 601.678,-129.073"/>
<polygon fill="midnightblue" stroke="midnightblue" points="601.571,-132.591 611.955,-130.489 602.526,-125.657 601.571,-132.591"/>
</g>
<!-- Node11 -->
<g id="node11" class="node"><title>Node11</title>
<g id="a_node11"><a xlink:href="class_cache_system.html#a3edd3d66646d444d6065d8dd7e1ac622" target="_top" xlink:title="CacheSystem::addFile">
<polygon fill="white" stroke="black" points="800,-73.5 800,-92.5 916,-92.5 916,-73.5 800,-73.5"/>
<text text-anchor="middle" x="858" y="-80.5" font-family="Helvetica,sans-Serif" font-size="10.00">CacheSystem::addFile</text>
</a>
</g>
</g>
<!-- Node9&#45;&gt;Node11 -->
<g id="edge10" class="edge"><title>Node9&#45;&gt;Node11</title>
<path fill="none" stroke="midnightblue" d="M564.347,-106.601C631.353,-101.197 726.251,-93.5443 789.623,-88.4336"/>
<polygon fill="midnightblue" stroke="midnightblue" points="790.217,-91.8972 799.903,-87.6046 789.654,-84.9198 790.217,-91.8972"/>
</g>
<!-- Node13 -->
<g id="node13" class="node"><title>Node13</title>
<g id="a_node13"><a xlink:href="class_cache_system.html#a6a83b6a74cf941ba418037daf7bc3759" target="_top" xlink:title="CacheSystem::parseFilesOneRG">
<polygon fill="white" stroke="black" points="600.5,-54.5 600.5,-73.5 763.5,-73.5 763.5,-54.5 600.5,-54.5"/>
<text text-anchor="middle" x="682" y="-61.5" font-family="Helvetica,sans-Serif" font-size="10.00">CacheSystem::parseFilesOneRG</text>
</a>
</g>
</g>
<!-- Node12&#45;&gt;Node13 -->
<g id="edge12" class="edge"><title>Node12&#45;&gt;Node13</title>
<path fill="none" stroke="midnightblue" d="M564.156,-64C572.708,-64 581.46,-64 590.137,-64"/>
<polygon fill="midnightblue" stroke="midnightblue" points="590.272,-67.5001 600.272,-64 590.272,-60.5001 590.272,-67.5001"/>
</g>
<!-- Node13&#45;&gt;Node11 -->
<g id="edge13" class="edge"><title>Node13&#45;&gt;Node11</title>
<path fill="none" stroke="midnightblue" d="M763.633,-72.8048C772.45,-73.7676 781.356,-74.74 789.984,-75.6821"/>
<polygon fill="midnightblue" stroke="midnightblue" points="789.642,-79.1655 799.963,-76.7718 790.402,-72.2069 789.642,-79.1655"/>
</g>
<!-- Node15 -->
<g id="node15" class="node"><title>Node15</title>
<g id="a_node15"><a xlink:href="class_ro_r_1_1_g_u_i_1_1_loading_window.html#af9aae9d856104ee68ef331d772c7f4bb" target="_top" xlink:title="RoR::GUI::LoadingWindow\l::SetVisible">
<polygon fill="white" stroke="black" points="416,-0 416,-30 552,-30 552,-0 416,-0"/>
<text text-anchor="start" x="424" y="-18" font-family="Helvetica,sans-Serif" font-size="10.00">RoR::GUI::LoadingWindow</text>
<text text-anchor="middle" x="484" y="-7" font-family="Helvetica,sans-Serif" font-size="10.00">::SetVisible</text>
</a>
</g>
</g>
<!-- Node14&#45;&gt;Node15 -->
<g id="edge15" class="edge"><title>Node14&#45;&gt;Node15</title>
<path fill="none" stroke="midnightblue" d="M357.535,-32.0229C373.156,-29.9034 389.696,-27.6593 405.462,-25.5203"/>
<polygon fill="midnightblue" stroke="midnightblue" points="406.254,-28.9449 415.693,-24.1321 405.313,-22.0085 406.254,-28.9449"/>
</g>
</g>
</svg>
