<?xml version="1.0" encoding="UTF-8" standalone="no"?>
<!DOCTYPE svg PUBLIC "-//W3C//DTD SVG 1.1//EN"
 "http://www.w3.org/Graphics/SVG/1.1/DTD/svg11.dtd">
<!-- Generated by graphviz version 2.36.0 (20140111.2315)
 -->
<!-- Title: RigDef::Parser::ParseMaterialFlareBindings Pages: 1 -->
<!--zoomable 112 -->
<svg id="main" version="1.1" xmlns="http://www.w3.org/2000/svg" xmlns:xlink="http://www.w3.org/1999/xlink" xml:space="preserve" onload="init(evt)">
<style type="text/css"><![CDATA[
.edge:hover path { stroke: red; }
.edge:hover polygon { stroke: red; fill: red; }
]]></style>
<script type="text/javascript"><![CDATA[
var edges = document.getElementsByTagName('g');
if (edges && edges.length) {
  for (var i=0;i<edges.length;i++) {
    if (edges[i].id.substr(0,4)=='edge') {
      edges[i].setAttribute('class','edge');
    }
  }
}
]]></script>
        <defs>
                <circle id="rim" cx="0" cy="0" r="7"/>
                <circle id="rim2" cx="0" cy="0" r="3.5"/>
                <g id="zoomPlus">
                        <use xlink:href="#rim" fill="#404040">
                                <set attributeName="fill" to="#808080" begin="zoomplus.mouseover" end="zoomplus.mouseout"/>
                        </use>
                        <path d="M-4,0h8M0,-4v8" fill="none" stroke="white" stroke-width="1.5" pointer-events="none"/>
                </g>
                <g id="zoomMin">
                        <use xlink:href="#rim" fill="#404040">
                                <set attributeName="fill" to="#808080" begin="zoomminus.mouseover" end="zoomminus.mouseout"/>
                        </use>
                        <path d="M-4,0h8" fill="none" stroke="white" stroke-width="1.5" pointer-events="none"/>
                </g>
                <g id="dirArrow">
                        <path fill="none" stroke="white" stroke-width="1.5" d="M0,-3.0v7 M-2.5,-0.5L0,-3.0L2.5,-0.5"/>
                </g>
               <g id="resetDef">
                       <use xlink:href="#rim2" fill="#404040">
                               <set attributeName="fill" to="#808080" begin="reset.mouseover" end="reset.mouseout"/>
                       </use>
               </g>
        </defs>

<script type="text/javascript">
var viewWidth = 682;
var viewHeight = 112;
var sectionId = 'dynsection-156';
</script>
<script xlink:href="svgpan.js"/>
<svg id="graph" class="graph">
<g id="viewport">
<title>RigDef::Parser::ParseMaterialFlareBindings</title>
<polygon fill="white" stroke="none" points="-4,4 -4,-108 678,-108 678,4 -4,4"/>
<!-- Node1 -->
<g id="node1" class="node"><title>Node1</title>
<polygon fill="#bfbfbf" stroke="black" points="0,-33 0,-63 148,-63 148,-33 0,-33"/>
<text text-anchor="start" x="8" y="-51" font-family="Helvetica,sans-Serif" font-size="10.00">RigDef::Parser::ParseMaterial</text>
<text text-anchor="middle" x="74" y="-40" font-family="Helvetica,sans-Serif" font-size="10.00">FlareBindings</text>
</g>
<!-- Node2 -->
<g id="node2" class="node"><title>Node2</title>
<g id="a_node2"><a xlink:href="class_rig_def_1_1_parser.html#a8397c243299359e21a84243c01ca43bf" target="_top" xlink:title="RigDef::Parser::CheckNum\lArguments">
<polygon fill="white" stroke="black" points="353.5,-74 353.5,-104 490.5,-104 490.5,-74 353.5,-74"/>
<text text-anchor="start" x="361.5" y="-92" font-family="Helvetica,sans-Serif" font-size="10.00">RigDef::Parser::CheckNum</text>
<text text-anchor="middle" x="422" y="-81" font-family="Helvetica,sans-Serif" font-size="10.00">Arguments</text>
</a>
</g>
</g>
<!-- Node1&#45;&gt;Node2 -->
<g id="edge1" class="edge"><title>Node1&#45;&gt;Node2</title>
<path fill="none" stroke="midnightblue" d="M148.166,-61.5818C160.117,-63.5617 172.385,-65.4512 184,-67 237.043,-74.0733 297.067,-79.62 343.436,-83.3747"/>
<polygon fill="midnightblue" stroke="midnightblue" points="343.168,-86.8643 353.415,-84.1721 343.725,-79.8865 343.168,-86.8643"/>
</g>
<!-- Node4 -->
<g id="node4" class="node"><title>Node4</title>
<g id="a_node4"><a xlink:href="class_rig_def_1_1_parser.html#a635bdc3c7493275fc05f91d51c11945b" target="_top" xlink:title="RigDef::Parser::GetArgInt">
<polygon fill="white" stroke="black" points="185,-38.5 185,-57.5 315,-57.5 315,-38.5 185,-38.5"/>
<text text-anchor="middle" x="250" y="-45.5" font-family="Helvetica,sans-Serif" font-size="10.00">RigDef::Parser::GetArgInt</text>
</a>
</g>
</g>
<!-- Node1&#45;&gt;Node4 -->
<g id="edge3" class="edge"><title>Node1&#45;&gt;Node4</title>
<path fill="none" stroke="midnightblue" d="M148.035,-48C156.859,-48 165.879,-48 174.72,-48"/>
<polygon fill="midnightblue" stroke="midnightblue" points="174.994,-51.5001 184.994,-48 174.994,-44.5001 174.994,-51.5001"/>
</g>
<!-- Node6 -->
<g id="node6" class="node"><title>Node6</title>
<g id="a_node6"><a xlink:href="class_rig_def_1_1_parser.html#a629f3ff2e6181f7953ec28168b0aac00" target="_top" xlink:title="RigDef::Parser::GetArgStr">
<polygon fill="white" stroke="black" points="184.5,-0.5 184.5,-19.5 315.5,-19.5 315.5,-0.5 184.5,-0.5"/>
<text text-anchor="middle" x="250" y="-7.5" font-family="Helvetica,sans-Serif" font-size="10.00">RigDef::Parser::GetArgStr</text>
</a>
</g>
</g>
<!-- Node1&#45;&gt;Node6 -->
<g id="edge6" class="edge"><title>Node1&#45;&gt;Node6</title>
<path fill="none" stroke="midnightblue" d="M143.769,-32.9814C160.997,-29.219 179.223,-25.2386 195.579,-21.6666"/>
<polygon fill="midnightblue" stroke="midnightblue" points="196.473,-25.054 205.496,-19.5009 194.979,-18.2152 196.473,-25.054"/>
</g>
<!-- Node3 -->
<g id="node3" class="node"><title>Node3</title>
<g id="a_node3"><a xlink:href="class_rig_def_1_1_parser.html#a7da949423835fe3241f2ac4c5ac8ebb1" target="_top" xlink:title="Adds a message to parser report. ">
<polygon fill="white" stroke="black" points="528.5,-57.5 528.5,-76.5 673.5,-76.5 673.5,-57.5 528.5,-57.5"/>
<text text-anchor="middle" x="601" y="-64.5" font-family="Helvetica,sans-Serif" font-size="10.00">RigDef::Parser::AddMessage</text>
</a>
</g>
</g>
<!-- Node2&#45;&gt;Node3 -->
<g id="edge2" class="edge"><title>Node2&#45;&gt;Node3</title>
<path fill="none" stroke="midnightblue" d="M490.674,-80.5886C499.704,-79.4661 509.041,-78.3056 518.279,-77.1574"/>
<polygon fill="midnightblue" stroke="midnightblue" points="518.754,-80.6254 528.246,-75.9186 517.89,-73.6789 518.754,-80.6254"/>
</g>
<!-- Node5 -->
<g id="node5" class="node"><title>Node5</title>
<g id="a_node5"><a xlink:href="class_rig_def_1_1_parser.html#a81784a06397ed377c39759981d6c700b" target="_top" xlink:title="RigDef::Parser::GetArgLong">
<polygon fill="white" stroke="black" points="352,-35.5 352,-54.5 492,-54.5 492,-35.5 352,-35.5"/>
<text text-anchor="middle" x="422" y="-42.5" font-family="Helvetica,sans-Serif" font-size="10.00">RigDef::Parser::GetArgLong</text>
</a>
</g>
</g>
<!-- Node4&#45;&gt;Node5 -->
<g id="edge4" class="edge"><title>Node4&#45;&gt;Node5</title>
<path fill="none" stroke="midnightblue" d="M315.27,-46.8658C323.852,-46.7144 332.736,-46.5576 341.539,-46.4023"/>
<polygon fill="midnightblue" stroke="midnightblue" points="341.878,-49.8969 351.814,-46.2209 341.754,-42.898 341.878,-49.8969"/>
</g>
<!-- Node5&#45;&gt;Node3 -->
<g id="edge5" class="edge"><title>Node5&#45;&gt;Node3</title>
<path fill="none" stroke="midnightblue" d="M492.193,-53.6003C500.695,-54.6571 509.447,-55.7449 518.114,-56.8221"/>
<polygon fill="midnightblue" stroke="midnightblue" points="517.874,-60.3191 528.23,-58.0794 518.738,-53.3726 517.874,-60.3191"/>
</g>
</g>
</svg>
        <g id="navigator" transform="translate(0 0)" fill="#404254">
                <rect fill="#f2f5e9" fill-opacity="0.5" stroke="#606060" stroke-width=".5" x="0" y="0" width="60" height="60"/>
                <use id="zoomplus" xlink:href="#zoomPlus" x="17" y="9" onmousedown="handleZoom(evt,'in')"/>
                <use id="zoomminus" xlink:href="#zoomMin" x="42" y="9" onmousedown="handleZoom(evt,'out')"/>
                <use id="reset" xlink:href="#resetDef" x="30" y="36" onmousedown="handleReset()"/>
                <g id="arrowUp" xlink:href="#dirArrow" transform="translate(30 24)" onmousedown="handlePan(0,-1)">
                  <use xlink:href="#rim" fill="#404040">
                        <set attributeName="fill" to="#808080" begin="arrowUp.mouseover" end="arrowUp.mouseout"/>
                  </use>
                  <path fill="none" stroke="white" stroke-width="1.5" d="M0,-3.0v7 M-2.5,-0.5L0,-3.0L2.5,-0.5"/>
                </g>
                <g id="arrowRight" xlink:href="#dirArrow" transform="rotate(90) translate(36 -43)" onmousedown="handlePan(1,0)">
                  <use xlink:href="#rim" fill="#404040">
                        <set attributeName="fill" to="#808080" begin="arrowRight.mouseover" end="arrowRight.mouseout"/>
                  </use>
                  <path fill="none" stroke="white" stroke-width="1.5" d="M0,-3.0v7 M-2.5,-0.5L0,-3.0L2.5,-0.5"/>
                </g>
                <g id="arrowDown" xlink:href="#dirArrow" transform="rotate(180) translate(-30 -48)" onmousedown="handlePan(0,1)">
                  <use xlink:href="#rim" fill="#404040">
                        <set attributeName="fill" to="#808080" begin="arrowDown.mouseover" end="arrowDown.mouseout"/>
                  </use>
                  <path fill="none" stroke="white" stroke-width="1.5" d="M0,-3.0v7 M-2.5,-0.5L0,-3.0L2.5,-0.5"/>
                </g>
                <g id="arrowLeft" xlink:href="#dirArrow" transform="rotate(270) translate(-36 17)" onmousedown="handlePan(-1,0)">
                  <use xlink:href="#rim" fill="#404040">
                        <set attributeName="fill" to="#808080" begin="arrowLeft.mouseover" end="arrowLeft.mouseout"/>
                  </use>
                  <path fill="none" stroke="white" stroke-width="1.5" d="M0,-3.0v7 M-2.5,-0.5L0,-3.0L2.5,-0.5"/>
                </g>
        </g>
        <svg viewBox="0 0 15 15" width="100%" height="30px" preserveAspectRatio="xMaxYMin meet">
         <g id="arrow_out" transform="scale(0.3 0.3)">
          <a xlink:href="class_rig_def_1_1_parser_a217a7f1efdeda44fd56202724ac7fdc5_cgraph_org.svg" target="_base">
           <rect id="button" ry="5" rx="5" y="6" x="6" height="38" width="38"
                fill="#f2f5e9" fill-opacity="0.5" stroke="#606060" stroke-width="1.0"/>
           <path id="arrow"
             d="M 11.500037,31.436501 C 11.940474,20.09759 22.043105,11.32322 32.158766,21.979434 L 37.068811,17.246167 C 37.068811,17.246167 37.088388,32 37.088388,32 L 22.160133,31.978069 C 22.160133,31.978069 26.997745,27.140456 26.997745,27.140456 C 18.528582,18.264221 13.291696,25.230495 11.500037,31.436501 z"
             style="fill:#404040;"/>
          </a>
         </g>
        </svg>
</svg>
