<?xml version="1.0" encoding="UTF-8" standalone="no"?>
<!DOCTYPE svg PUBLIC "-//W3C//DTD SVG 1.1//EN"
 "http://www.w3.org/Graphics/SVG/1.1/DTD/svg11.dtd">
<!-- Generated by graphviz version 2.36.0 (20140111.2315)
 -->
<!-- Title: InputEngine::saveMapping Pages: 1 -->
<svg width="890pt" height="290pt"
 viewBox="0.00 0.00 890.00 290.00" xmlns="http://www.w3.org/2000/svg" xmlns:xlink="http://www.w3.org/1999/xlink">
<g id="graph0" class="graph" transform="scale(1 1) rotate(0) translate(4 286)">
<title>InputEngine::saveMapping</title>
<polygon fill="white" stroke="none" points="-4,4 -4,-286 886,-286 886,4 -4,4"/>
<!-- Node1 -->
<g id="node1" class="node"><title>Node1</title>
<polygon fill="#bfbfbf" stroke="black" points="0,-148.5 0,-167.5 132,-167.5 132,-148.5 0,-148.5"/>
<text text-anchor="middle" x="66" y="-155.5" font-family="Helvetica,sans-Serif" font-size="10.00">InputEngine::saveMapping</text>
</g>
<!-- Node2 -->
<g id="node2" class="node"><title>Node2</title>
<g id="a_node2"><a xlink:href="class_input_engine.html#ad69848c63434a63e34ef8341eb9e3119" target="_top" xlink:title="InputEngine::destroy">
<polygon fill="white" stroke="black" points="391.5,-262.5 391.5,-281.5 498.5,-281.5 498.5,-262.5 391.5,-262.5"/>
<text text-anchor="middle" x="445" y="-269.5" font-family="Helvetica,sans-Serif" font-size="10.00">InputEngine::destroy</text>
</a>
</g>
</g>
<!-- Node1&#45;&gt;Node2 -->
<g id="edge1" class="edge"><title>Node1&#45;&gt;Node2</title>
<path fill="none" stroke="midnightblue" d="M80.7044,-167.575C99.5237,-180.283 134.819,-202.559 168,-215 238.662,-241.495 324.366,-256.755 381.335,-264.7"/>
<polygon fill="midnightblue" stroke="midnightblue" points="380.896,-268.172 391.276,-266.053 381.84,-261.236 380.896,-268.172"/>
</g>
<!-- Node3 -->
<g id="node3" class="node"><title>Node3</title>
<g id="a_node3"><a xlink:href="class_input_engine.html#aa4e8247770d4d69bf1ce5e20d57d6ed4" target="_top" xlink:title="InputEngine::setup">
<polygon fill="white" stroke="black" points="200,-186.5 200,-205.5 298,-205.5 298,-186.5 200,-186.5"/>
<text text-anchor="middle" x="249" y="-193.5" font-family="Helvetica,sans-Serif" font-size="10.00">InputEngine::setup</text>
</a>
</g>
</g>
<!-- Node1&#45;&gt;Node3 -->
<g id="edge2" class="edge"><title>Node1&#45;&gt;Node3</title>
<path fill="none" stroke="midnightblue" d="M112.674,-167.589C136.989,-172.694 167.08,-179.011 192.708,-184.392"/>
<polygon fill="midnightblue" stroke="midnightblue" points="192.149,-187.851 202.654,-186.48 193.587,-181 192.149,-187.851"/>
</g>
<!-- Node15 -->
<g id="node15" class="node"><title>Node15</title>
<g id="a_node15"><a xlink:href="class_input_engine.html#a0a72d5bf9261cc467738ab95f06717f5" target="_top" xlink:title="InputEngine::getEvents">
<polygon fill="white" stroke="black" points="189.5,-148.5 189.5,-167.5 308.5,-167.5 308.5,-148.5 189.5,-148.5"/>
<text text-anchor="middle" x="249" y="-155.5" font-family="Helvetica,sans-Serif" font-size="10.00">InputEngine::getEvents</text>
</a>
</g>
</g>
<!-- Node1&#45;&gt;Node15 -->
<g id="edge16" class="edge"><title>Node1&#45;&gt;Node15</title>
<path fill="none" stroke="midnightblue" d="M132.089,-158C147.47,-158 163.916,-158 179.445,-158"/>
<polygon fill="midnightblue" stroke="midnightblue" points="179.497,-161.5 189.497,-158 179.497,-154.5 179.497,-161.5"/>
</g>
<!-- Node16 -->
<g id="node16" class="node"><title>Node16</title>
<g id="a_node16"><a xlink:href="class_input_engine.html#aa164aa36fca264eb84dbeb6d89d36304" target="_top" xlink:title="InputEngine::eventIDToName">
<polygon fill="white" stroke="black" points="176,-110.5 176,-129.5 322,-129.5 322,-110.5 176,-110.5"/>
<text text-anchor="middle" x="249" y="-117.5" font-family="Helvetica,sans-Serif" font-size="10.00">InputEngine::eventIDToName</text>
</a>
</g>
</g>
<!-- Node1&#45;&gt;Node16 -->
<g id="edge17" class="edge"><title>Node1&#45;&gt;Node16</title>
<path fill="none" stroke="midnightblue" d="M112.674,-148.411C136.989,-143.306 167.08,-136.989 192.708,-131.608"/>
<polygon fill="midnightblue" stroke="midnightblue" points="193.587,-135 202.654,-129.52 192.149,-128.149 193.587,-135"/>
</g>
<!-- Node17 -->
<g id="node17" class="node"><title>Node17</title>
<g id="a_node17"><a xlink:href="class_input_engine.html#af743c01cff6d60daff2f37a25812e831" target="_top" xlink:title="InputEngine::getEventTypeName">
<polygon fill="white" stroke="black" points="168.5,-72.5 168.5,-91.5 329.5,-91.5 329.5,-72.5 168.5,-72.5"/>
<text text-anchor="middle" x="249" y="-79.5" font-family="Helvetica,sans-Serif" font-size="10.00">InputEngine::getEventTypeName</text>
</a>
</g>
</g>
<!-- Node1&#45;&gt;Node17 -->
<g id="edge18" class="edge"><title>Node1&#45;&gt;Node17</title>
<path fill="none" stroke="midnightblue" d="M81.0827,-148.353C100.043,-135.772 135.194,-113.856 168,-101 174.43,-98.4804 181.286,-96.2345 188.178,-94.249"/>
<polygon fill="midnightblue" stroke="midnightblue" points="189.516,-97.513 198.256,-91.5246 187.689,-90.7556 189.516,-97.513"/>
</g>
<!-- Node3&#45;&gt;Node2 -->
<g id="edge3" class="edge"><title>Node3&#45;&gt;Node2</title>
<path fill="none" stroke="midnightblue" d="M266.782,-205.702C288.896,-218.142 329.295,-239.692 366,-253 373.015,-255.544 380.508,-257.854 387.971,-259.918"/>
<polygon fill="midnightblue" stroke="midnightblue" points="387.161,-263.324 397.723,-262.488 388.945,-256.555 387.161,-263.324"/>
</g>
<!-- Node4 -->
<g id="node4" class="node"><title>Node4</title>
<g id="a_node4"><a xlink:href="namespace_ro_r_1_1_app.html#ae855f215c10238b157516439ab9bcc5c" target="_top" xlink:title="RoR::App::GetIoInputGrabMode">
<polygon fill="white" stroke="black" points="366.5,-224.5 366.5,-243.5 523.5,-243.5 523.5,-224.5 366.5,-224.5"/>
<text text-anchor="middle" x="445" y="-231.5" font-family="Helvetica,sans-Serif" font-size="10.00">RoR::App::GetIoInputGrabMode</text>
</a>
</g>
</g>
<!-- Node3&#45;&gt;Node4 -->
<g id="edge4" class="edge"><title>Node3&#45;&gt;Node4</title>
<path fill="none" stroke="midnightblue" d="M298.454,-205.491C324.842,-210.66 357.688,-217.094 385.496,-222.54"/>
<polygon fill="midnightblue" stroke="midnightblue" points="385.005,-226.011 395.491,-224.498 386.351,-219.141 385.005,-226.011"/>
</g>
<!-- Node5 -->
<g id="node5" class="node"><title>Node5</title>
<g id="a_node5"><a xlink:href="namespace_ro_r_1_1_app.html#ab0161218de3dc36879f3e69b84238eba" target="_top" xlink:title="RoR::App::GetOgreSubsystem">
<polygon fill="white" stroke="black" points="369,-186.5 369,-205.5 521,-205.5 521,-186.5 369,-186.5"/>
<text text-anchor="middle" x="445" y="-193.5" font-family="Helvetica,sans-Serif" font-size="10.00">RoR::App::GetOgreSubsystem</text>
</a>
</g>
</g>
<!-- Node3&#45;&gt;Node5 -->
<g id="edge5" class="edge"><title>Node3&#45;&gt;Node5</title>
<path fill="none" stroke="midnightblue" d="M298.454,-196C316.682,-196 337.993,-196 358.595,-196"/>
<polygon fill="midnightblue" stroke="midnightblue" points="358.636,-199.5 368.635,-196 358.635,-192.5 358.636,-199.5"/>
</g>
<!-- Node6 -->
<g id="node6" class="node"><title>Node6</title>
<g id="a_node6"><a xlink:href="class_ro_r_1_1_ogre_subsystem.html#aec5be99797f9add72578fb1fbfec582f" target="_top" xlink:title="RoR::OgreSubsystem\l::GetRenderWindow">
<polygon fill="white" stroke="black" points="388.5,-137 388.5,-167 501.5,-167 501.5,-137 388.5,-137"/>
<text text-anchor="start" x="396.5" y="-155" font-family="Helvetica,sans-Serif" font-size="10.00">RoR::OgreSubsystem</text>
<text text-anchor="middle" x="445" y="-144" font-family="Helvetica,sans-Serif" font-size="10.00">::GetRenderWindow</text>
</a>
</g>
</g>
<!-- Node3&#45;&gt;Node6 -->
<g id="edge6" class="edge"><title>Node3&#45;&gt;Node6</title>
<path fill="none" stroke="midnightblue" d="M292.095,-186.453C317.316,-180.733 349.92,-173.338 378.453,-166.866"/>
<polygon fill="midnightblue" stroke="midnightblue" points="379.379,-170.245 388.357,-164.62 377.83,-163.419 379.379,-170.245"/>
</g>
<!-- Node7 -->
<g id="node7" class="node"><title>Node7</title>
<g id="a_node7"><a xlink:href="class_input_engine.html#a4e6616df0615d79e74d38ba2cf0ee9b2" target="_top" xlink:title="InputEngine::loadMapping">
<polygon fill="white" stroke="black" points="380.5,-98.5 380.5,-117.5 509.5,-117.5 509.5,-98.5 380.5,-98.5"/>
<text text-anchor="middle" x="445" y="-105.5" font-family="Helvetica,sans-Serif" font-size="10.00">InputEngine::loadMapping</text>
</a>
</g>
</g>
<!-- Node3&#45;&gt;Node7 -->
<g id="edge7" class="edge"><title>Node3&#45;&gt;Node7</title>
<path fill="none" stroke="midnightblue" d="M298.408,-190.309C309.423,-187.485 320.629,-183.274 330,-177 352.754,-161.766 343.29,-142.3 366,-127 369.07,-124.931 372.343,-123.088 375.744,-121.444"/>
<polygon fill="midnightblue" stroke="midnightblue" points="377.137,-124.655 384.991,-117.545 374.417,-118.205 377.137,-124.655"/>
</g>
<!-- Node14 -->
<g id="node14" class="node"><title>Node14</title>
<g id="a_node14"><a xlink:href="class_input_engine.html#a1fbcc159a8a9342ba21412c33dc719b1" target="_top" xlink:title="InputEngine::completeMissing\lEvents">
<polygon fill="white" stroke="black" points="371,-49 371,-79 519,-79 519,-49 371,-49"/>
<text text-anchor="start" x="379" y="-67" font-family="Helvetica,sans-Serif" font-size="10.00">InputEngine::completeMissing</text>
<text text-anchor="middle" x="445" y="-56" font-family="Helvetica,sans-Serif" font-size="10.00">Events</text>
</a>
</g>
</g>
<!-- Node3&#45;&gt;Node14 -->
<g id="edge14" class="edge"><title>Node3&#45;&gt;Node14</title>
<path fill="none" stroke="midnightblue" d="M298.308,-192.147C309.702,-189.295 321.106,-184.611 330,-177 362.106,-149.525 334.975,-117.69 366,-89 367.697,-87.4311 369.492,-85.9607 371.367,-84.5825"/>
<polygon fill="midnightblue" stroke="midnightblue" points="373.448,-87.4082 380.037,-79.1117 369.712,-81.4882 373.448,-87.4082"/>
</g>
<!-- Node8 -->
<g id="node8" class="node"><title>Node8</title>
<g id="a_node8"><a xlink:href="class_input_engine.html#a1e3ee67edcec9c7a2dc618b37abc8321" target="_top" xlink:title="InputEngine::resetKeys">
<polygon fill="white" stroke="black" points="564.5,-98.5 564.5,-117.5 683.5,-117.5 683.5,-98.5 564.5,-98.5"/>
<text text-anchor="middle" x="624" y="-105.5" font-family="Helvetica,sans-Serif" font-size="10.00">InputEngine::resetKeys</text>
</a>
</g>
</g>
<!-- Node7&#45;&gt;Node8 -->
<g id="edge8" class="edge"><title>Node7&#45;&gt;Node8</title>
<path fill="none" stroke="midnightblue" d="M509.901,-108C524.383,-108 539.82,-108 554.484,-108"/>
<polygon fill="midnightblue" stroke="midnightblue" points="554.492,-111.5 564.492,-108 554.492,-104.5 554.492,-111.5"/>
</g>
<!-- Node9 -->
<g id="node9" class="node"><title>Node9</title>
<g id="a_node9"><a xlink:href="class_input_engine.html#aefbb52cfac8a59f9e6683665d035222f" target="_top" xlink:title="InputEngine::processLine">
<polygon fill="white" stroke="black" points="560.5,-57.5 560.5,-76.5 687.5,-76.5 687.5,-57.5 560.5,-57.5"/>
<text text-anchor="middle" x="624" y="-64.5" font-family="Helvetica,sans-Serif" font-size="10.00">InputEngine::processLine</text>
</a>
</g>
</g>
<!-- Node7&#45;&gt;Node9 -->
<g id="edge9" class="edge"><title>Node7&#45;&gt;Node9</title>
<path fill="none" stroke="midnightblue" d="M487.052,-98.4907C512.317,-92.6384 544.907,-85.0894 571.844,-78.8497"/>
<polygon fill="midnightblue" stroke="midnightblue" points="572.912,-82.1951 581.864,-76.5286 571.332,-75.3756 572.912,-82.1951"/>
</g>
<!-- Node10 -->
<g id="node10" class="node"><title>Node10</title>
<g id="a_node10"><a xlink:href="class_input_engine.html#a31686978ff9fe35d93d467ef33149b10" target="_top" xlink:title="InputEngine::resolveEventName">
<polygon fill="white" stroke="black" points="724,-114.5 724,-133.5 882,-133.5 882,-114.5 724,-114.5"/>
<text text-anchor="middle" x="803" y="-121.5" font-family="Helvetica,sans-Serif" font-size="10.00">InputEngine::resolveEventName</text>
</a>
</g>
</g>
<!-- Node9&#45;&gt;Node10 -->
<g id="edge10" class="edge"><title>Node9&#45;&gt;Node10</title>
<path fill="none" stroke="midnightblue" d="M654.038,-76.5816C664.78,-80.2724 677.013,-84.6488 688,-89 704.279,-95.4472 707.428,-99.3498 724,-105 731.328,-107.498 739.148,-109.807 746.902,-111.891"/>
<polygon fill="midnightblue" stroke="midnightblue" points="746.088,-115.295 756.645,-114.407 747.838,-108.518 746.088,-115.295"/>
</g>
<!-- Node11 -->
<g id="node11" class="node"><title>Node11</title>
<g id="a_node11"><a xlink:href="class_input_engine.html#a94995e94c51f95bf1c252b8b0559a5a0" target="_top" xlink:title="InputEngine::newEvent">
<polygon fill="white" stroke="black" points="744,-76.5 744,-95.5 862,-95.5 862,-76.5 744,-76.5"/>
<text text-anchor="middle" x="803" y="-83.5" font-family="Helvetica,sans-Serif" font-size="10.00">InputEngine::newEvent</text>
</a>
</g>
</g>
<!-- Node9&#45;&gt;Node11 -->
<g id="edge11" class="edge"><title>Node9&#45;&gt;Node11</title>
<path fill="none" stroke="midnightblue" d="M687.902,-73.7522C702.676,-75.3381 718.492,-77.0359 733.498,-78.6467"/>
<polygon fill="midnightblue" stroke="midnightblue" points="733.419,-82.1582 743.735,-79.7456 734.166,-75.1982 733.419,-82.1582"/>
</g>
<!-- Node12 -->
<g id="node12" class="node"><title>Node12</title>
<g id="a_node12"><a xlink:href="class_input_engine.html#a6e833a491189fdcf9d7efd4e9a44e4d3" target="_top" xlink:title="InputEngine::getEventGroup">
<polygon fill="white" stroke="black" points="733,-38.5 733,-57.5 873,-57.5 873,-38.5 733,-38.5"/>
<text text-anchor="middle" x="803" y="-45.5" font-family="Helvetica,sans-Serif" font-size="10.00">InputEngine::getEventGroup</text>
</a>
</g>
</g>
<!-- Node9&#45;&gt;Node12 -->
<g id="edge12" class="edge"><title>Node9&#45;&gt;Node12</title>
<path fill="none" stroke="midnightblue" d="M687.902,-60.2478C699.199,-59.0351 711.106,-57.757 722.793,-56.5024"/>
<polygon fill="midnightblue" stroke="midnightblue" points="723.418,-59.9556 732.987,-55.4082 722.671,-52.9956 723.418,-59.9556"/>
</g>
<!-- Node13 -->
<g id="node13" class="node"><title>Node13</title>
<g id="a_node13"><a xlink:href="class_input_engine.html#af92de0a39f0fbbe82bc9e81d25f762d1" target="_top" xlink:title="InputEngine::addEvent">
<polygon fill="white" stroke="black" points="745,-0.5 745,-19.5 861,-19.5 861,-0.5 745,-0.5"/>
<text text-anchor="middle" x="803" y="-7.5" font-family="Helvetica,sans-Serif" font-size="10.00">InputEngine::addEvent</text>
</a>
</g>
</g>
<!-- Node9&#45;&gt;Node13 -->
<g id="edge13" class="edge"><title>Node9&#45;&gt;Node13</title>
<path fill="none" stroke="midnightblue" d="M647.516,-57.4115C667.396,-49.1746 697.289,-37.3423 724,-29 731.85,-26.5482 740.226,-24.2172 748.467,-22.0816"/>
<polygon fill="midnightblue" stroke="midnightblue" points="749.566,-25.4142 758.409,-19.5786 747.857,-18.626 749.566,-25.4142"/>
</g>
<!-- Node14&#45;&gt;Node9 -->
<g id="edge15" class="edge"><title>Node14&#45;&gt;Node9</title>
<path fill="none" stroke="midnightblue" d="M519.015,-65.2375C529.299,-65.4119 539.872,-65.591 550.153,-65.7653"/>
<polygon fill="midnightblue" stroke="midnightblue" points="550.258,-69.2675 560.316,-65.9376 550.377,-62.2685 550.258,-69.2675"/>
</g>
</g>
</svg>
