<?xml version="1.0" encoding="UTF-8" standalone="no"?>
<!DOCTYPE svg PUBLIC "-//W3C//DTD SVG 1.1//EN"
 "http://www.w3.org/Graphics/SVG/1.1/DTD/svg11.dtd">
<!-- Generated by graphviz version 2.36.0 (20140111.2315)
 -->
<!-- Title: Ogre::ShaderParticleRenderer::getVertexFormatColour Pages: 1 -->
<svg width="356pt" height="38pt"
 viewBox="0.00 0.00 356.00 38.00" xmlns="http://www.w3.org/2000/svg" xmlns:xlink="http://www.w3.org/1999/xlink">
<g id="graph0" class="graph" transform="scale(1 1) rotate(0) translate(4 34)">
<title>Ogre::ShaderParticleRenderer::getVertexFormatColour</title>
<polygon fill="white" stroke="none" points="-4,4 -4,-34 352,-34 352,4 -4,4"/>
<!-- Node1 -->
<g id="node1" class="node"><title>Node1</title>
<polygon fill="#bfbfbf" stroke="black" points="0.5,-0 0.5,-30 147.5,-30 147.5,-0 0.5,-0"/>
<text text-anchor="start" x="8.5" y="-18" font-family="Helvetica,sans-Serif" font-size="10.00">Ogre::ShaderParticleRenderer</text>
<text text-anchor="middle" x="74" y="-7" font-family="Helvetica,sans-Serif" font-size="10.00">::getVertexFormatColour</text>
</g>
<!-- Node2 -->
<g id="node2" class="node"><title>Node2</title>
<g id="a_node2"><a xlink:href="class_ogre_1_1_shader_particle_renderer_1_1_cmd_vertex_format_colour.html#a76da2ed44e84bf55ca86f0fb93f48ec6" target="_top" xlink:title="Ogre::ShaderParticleRenderer\l::CmdVertexFormatColour::doGet">
<polygon fill="white" stroke="black" points="184,-0 184,-30 348,-30 348,-0 184,-0"/>
<text text-anchor="start" x="192" y="-18" font-family="Helvetica,sans-Serif" font-size="10.00">Ogre::ShaderParticleRenderer</text>
<text text-anchor="middle" x="266" y="-7" font-family="Helvetica,sans-Serif" font-size="10.00">::CmdVertexFormatColour::doGet</text>
</a>
</g>
</g>
<!-- Node1&#45;&gt;Node2 -->
<g id="edge1" class="edge"><title>Node1&#45;&gt;Node2</title>
<path fill="none" stroke="midnightblue" d="M157.731,-15C166.393,-15 175.194,-15 183.838,-15"/>
<polygon fill="midnightblue" stroke="midnightblue" points="157.644,-11.5001 147.644,-15 157.644,-18.5001 157.644,-11.5001"/>
</g>
</g>
</svg>
