<?xml version="1.0" encoding="UTF-8" standalone="no"?>
<!DOCTYPE svg PUBLIC "-//W3C//DTD SVG 1.1//EN"
 "http://www.w3.org/Graphics/SVG/1.1/DTD/svg11.dtd">
<!-- Generated by graphviz version 2.36.0 (20140111.2315)
 -->
<!-- Title: SlideNode::getClosestRail Pages: 1 -->
<svg width="438pt" height="28pt"
 viewBox="0.00 0.00 438.00 28.00" xmlns="http://www.w3.org/2000/svg" xmlns:xlink="http://www.w3.org/1999/xlink">
<g id="graph0" class="graph" transform="scale(1 1) rotate(0) translate(4 24)">
<title>SlideNode::getClosestRail</title>
<polygon fill="white" stroke="none" points="-4,4 -4,-24 434,-24 434,4 -4,4"/>
<!-- Node1 -->
<g id="node1" class="node"><title>Node1</title>
<polygon fill="#bfbfbf" stroke="black" points="0,-0.5 0,-19.5 132,-19.5 132,-0.5 0,-0.5"/>
<text text-anchor="middle" x="66" y="-7.5" font-family="Helvetica,sans-Serif" font-size="10.00">SlideNode::getClosestRail</text>
</g>
<!-- Node2 -->
<g id="node2" class="node"><title>Node2</title>
<g id="a_node2"><a xlink:href="class_slide_node.html#ac5fd218cba138435059c5aec3ce59393" target="_top" xlink:title="SlideNode::getLenTo">
<polygon fill="white" stroke="black" points="168,-0.5 168,-19.5 276,-19.5 276,-0.5 168,-0.5"/>
<text text-anchor="middle" x="222" y="-7.5" font-family="Helvetica,sans-Serif" font-size="10.00">SlideNode::getLenTo</text>
</a>
</g>
</g>
<!-- Node1&#45;&gt;Node2 -->
<g id="edge1" class="edge"><title>Node1&#45;&gt;Node2</title>
<path fill="none" stroke="midnightblue" d="M132.31,-10C140.702,-10 149.285,-10 157.645,-10"/>
<polygon fill="midnightblue" stroke="midnightblue" points="157.705,-13.5001 167.705,-10 157.705,-6.5001 157.705,-13.5001"/>
</g>
<!-- Node3 -->
<g id="node3" class="node"><title>Node3</title>
<g id="a_node3"><a xlink:href="class_rail_group.html#a6efe9a33efe24279e5bfc08f1b54ee40" target="_top" xlink:title="RailGroup::getStartRail">
<polygon fill="white" stroke="black" points="312,-0.5 312,-19.5 430,-19.5 430,-0.5 312,-0.5"/>
<text text-anchor="middle" x="371" y="-7.5" font-family="Helvetica,sans-Serif" font-size="10.00">RailGroup::getStartRail</text>
</a>
</g>
</g>
<!-- Node2&#45;&gt;Node3 -->
<g id="edge2" class="edge"><title>Node2&#45;&gt;Node3</title>
<path fill="none" stroke="midnightblue" d="M276.07,-10C284.405,-10 293.12,-10 301.738,-10"/>
<polygon fill="midnightblue" stroke="midnightblue" points="301.783,-13.5001 311.783,-10 301.783,-6.5001 301.783,-13.5001"/>
</g>
</g>
</svg>
