<?xml version="1.0" encoding="UTF-8" standalone="no"?>
<!DOCTYPE svg PUBLIC "-//W3C//DTD SVG 1.1//EN"
 "http://www.w3.org/Graphics/SVG/1.1/DTD/svg11.dtd">
<!-- Generated by graphviz version 2.36.0 (20140111.2315)
 -->
<!-- Title: TerrainManager::initCamera Pages: 1 -->
<svg width="332pt" height="66pt"
 viewBox="0.00 0.00 332.00 66.00" xmlns="http://www.w3.org/2000/svg" xmlns:xlink="http://www.w3.org/1999/xlink">
<g id="graph0" class="graph" transform="scale(1 1) rotate(0) translate(4 62)">
<title>TerrainManager::initCamera</title>
<polygon fill="white" stroke="none" points="-4,4 -4,-62 328,-62 328,4 -4,4"/>
<!-- Node1 -->
<g id="node1" class="node"><title>Node1</title>
<polygon fill="#bfbfbf" stroke="black" points="0.5,-19.5 0.5,-38.5 137.5,-38.5 137.5,-19.5 0.5,-19.5"/>
<text text-anchor="middle" x="69" y="-26.5" font-family="Helvetica,sans-Serif" font-size="10.00">TerrainManager::initCamera</text>
</g>
<!-- Node2 -->
<g id="node2" class="node"><title>Node2</title>
<g id="a_node2"><a xlink:href="namespace_ro_r_1_1_app.html#aba94f35b27638b6e02e56556aff2963e" target="_top" xlink:title="RoR::App::GetGfxSightRange">
<polygon fill="white" stroke="black" points="174.5,-38.5 174.5,-57.5 323.5,-57.5 323.5,-38.5 174.5,-38.5"/>
<text text-anchor="middle" x="249" y="-45.5" font-family="Helvetica,sans-Serif" font-size="10.00">RoR::App::GetGfxSightRange</text>
</a>
</g>
</g>
<!-- Node1&#45;&gt;Node2 -->
<g id="edge1" class="edge"><title>Node1&#45;&gt;Node2</title>
<path fill="none" stroke="midnightblue" d="M137.548,-36.2102C146.266,-37.1407 155.275,-38.1024 164.215,-39.0566"/>
<polygon fill="midnightblue" stroke="midnightblue" points="163.943,-42.5475 174.258,-40.1287 164.686,-35.587 163.943,-42.5475"/>
</g>
<!-- Node3 -->
<g id="node3" class="node"><title>Node3</title>
<g id="a_node3"><a xlink:href="namespace_ro_r_1_1_app.html#a02caa3283775ee9aae51910208d3e7cc" target="_top" xlink:title="RoR::App::GetGfxWaterMode">
<polygon fill="white" stroke="black" points="175,-0.5 175,-19.5 323,-19.5 323,-0.5 175,-0.5"/>
<text text-anchor="middle" x="249" y="-7.5" font-family="Helvetica,sans-Serif" font-size="10.00">RoR::App::GetGfxWaterMode</text>
</a>
</g>
</g>
<!-- Node1&#45;&gt;Node3 -->
<g id="edge2" class="edge"><title>Node1&#45;&gt;Node3</title>
<path fill="none" stroke="midnightblue" d="M137.548,-21.7898C146.409,-20.844 155.571,-19.866 164.654,-18.8964"/>
<polygon fill="midnightblue" stroke="midnightblue" points="165.284,-22.3492 174.856,-17.8075 164.541,-15.3887 165.284,-22.3492"/>
</g>
</g>
</svg>
