<?xml version="1.0" encoding="UTF-8" standalone="no"?>
<!DOCTYPE svg PUBLIC "-//W3C//DTD SVG 1.1//EN"
 "http://www.w3.org/Graphics/SVG/1.1/DTD/svg11.dtd">
<!-- Generated by graphviz version 2.36.0 (20140111.2315)
 -->
<!-- Title: RoR::GuiPanelBase::CenterToScreen Pages: 1 -->
<svg width="416pt" height="136pt"
 viewBox="0.00 0.00 416.00 136.00" xmlns="http://www.w3.org/2000/svg" xmlns:xlink="http://www.w3.org/1999/xlink">
<g id="graph0" class="graph" transform="scale(1 1) rotate(0) translate(4 132)">
<title>RoR::GuiPanelBase::CenterToScreen</title>
<polygon fill="white" stroke="none" points="-4,4 -4,-132 412,-132 412,4 -4,4"/>
<!-- Node1 -->
<g id="node1" class="node"><title>Node1</title>
<polygon fill="#bfbfbf" stroke="black" points="0.5,-49 0.5,-79 111.5,-79 111.5,-49 0.5,-49"/>
<text text-anchor="start" x="8.5" y="-67" font-family="Helvetica,sans-Serif" font-size="10.00">RoR::GuiPanelBase::</text>
<text text-anchor="middle" x="56" y="-56" font-family="Helvetica,sans-Serif" font-size="10.00">CenterToScreen</text>
</g>
<!-- Node2 -->
<g id="node2" class="node"><title>Node2</title>
<g id="a_node2"><a xlink:href="class_ro_r_1_1_gui_panel_base.html#a7e4cd733a76df97224472bdb5fb09842" target="_top" xlink:title="RoR::GuiPanelBase::\lSetPosition">
<polygon fill="white" stroke="black" points="148.5,-98 148.5,-128 259.5,-128 259.5,-98 148.5,-98"/>
<text text-anchor="start" x="156.5" y="-116" font-family="Helvetica,sans-Serif" font-size="10.00">RoR::GuiPanelBase::</text>
<text text-anchor="middle" x="204" y="-105" font-family="Helvetica,sans-Serif" font-size="10.00">SetPosition</text>
</a>
</g>
</g>
<!-- Node1&#45;&gt;Node2 -->
<g id="edge1" class="edge"><title>Node1&#45;&gt;Node2</title>
<path fill="none" stroke="midnightblue" d="M101.996,-79.1014C116.636,-84.0147 133.046,-89.5224 148.314,-94.6466"/>
<polygon fill="midnightblue" stroke="midnightblue" points="147.558,-98.0847 158.152,-97.9484 149.786,-91.4485 147.558,-98.0847"/>
</g>
<!-- Node3 -->
<g id="node3" class="node"><title>Node3</title>
<g id="a_node3"><a xlink:href="class_ro_r_1_1_gui_panel_base.html#a9d1fac699ff4d79c1007af21c24443e9" target="_top" xlink:title="RoR::GuiPanelBase::\lGetWidthPixels">
<polygon fill="white" stroke="black" points="148.5,-49 148.5,-79 259.5,-79 259.5,-49 148.5,-49"/>
<text text-anchor="start" x="156.5" y="-67" font-family="Helvetica,sans-Serif" font-size="10.00">RoR::GuiPanelBase::</text>
<text text-anchor="middle" x="204" y="-56" font-family="Helvetica,sans-Serif" font-size="10.00">GetWidthPixels</text>
</a>
</g>
</g>
<!-- Node1&#45;&gt;Node3 -->
<g id="edge2" class="edge"><title>Node1&#45;&gt;Node3</title>
<path fill="none" stroke="midnightblue" d="M111.78,-64C120.388,-64 129.356,-64 138.164,-64"/>
<polygon fill="midnightblue" stroke="midnightblue" points="138.398,-67.5001 148.398,-64 138.398,-60.5001 138.398,-67.5001"/>
</g>
<!-- Node5 -->
<g id="node5" class="node"><title>Node5</title>
<g id="a_node5"><a xlink:href="class_ro_r_1_1_gui_panel_base.html#a0610633a6bb4693e333a260935e9ae3c" target="_top" xlink:title="RoR::GuiPanelBase::\lGetHeightPixels">
<polygon fill="white" stroke="black" points="148.5,-0 148.5,-30 259.5,-30 259.5,-0 148.5,-0"/>
<text text-anchor="start" x="156.5" y="-18" font-family="Helvetica,sans-Serif" font-size="10.00">RoR::GuiPanelBase::</text>
<text text-anchor="middle" x="204" y="-7" font-family="Helvetica,sans-Serif" font-size="10.00">GetHeightPixels</text>
</a>
</g>
</g>
<!-- Node1&#45;&gt;Node5 -->
<g id="edge4" class="edge"><title>Node1&#45;&gt;Node5</title>
<path fill="none" stroke="midnightblue" d="M101.996,-48.8986C116.636,-43.9853 133.046,-38.4776 148.314,-33.3534"/>
<polygon fill="midnightblue" stroke="midnightblue" points="149.786,-36.5515 158.152,-30.0516 147.558,-29.9153 149.786,-36.5515"/>
</g>
<!-- Node4 -->
<g id="node4" class="node"><title>Node4</title>
<g id="a_node4"><a xlink:href="class_ro_r_1_1_gui_panel_base.html#a5e33ecbbdbbc4ea1e9369560a753f938" target="_top" xlink:title="RoR::GuiPanelBase::\lGetSizePixels">
<polygon fill="white" stroke="black" points="296.5,-24 296.5,-54 407.5,-54 407.5,-24 296.5,-24"/>
<text text-anchor="start" x="304.5" y="-42" font-family="Helvetica,sans-Serif" font-size="10.00">RoR::GuiPanelBase::</text>
<text text-anchor="middle" x="352" y="-31" font-family="Helvetica,sans-Serif" font-size="10.00">GetSizePixels</text>
</a>
</g>
</g>
<!-- Node3&#45;&gt;Node4 -->
<g id="edge3" class="edge"><title>Node3&#45;&gt;Node4</title>
<path fill="none" stroke="midnightblue" d="M259.78,-54.6198C268.481,-53.1299 277.551,-51.5769 286.451,-50.0529"/>
<polygon fill="midnightblue" stroke="midnightblue" points="287.132,-53.4873 296.398,-48.3496 285.951,-46.5877 287.132,-53.4873"/>
</g>
<!-- Node5&#45;&gt;Node4 -->
<g id="edge5" class="edge"><title>Node5&#45;&gt;Node4</title>
<path fill="none" stroke="midnightblue" d="M259.78,-24.005C268.481,-25.4353 277.551,-26.9262 286.451,-28.3892"/>
<polygon fill="midnightblue" stroke="midnightblue" points="285.963,-31.8559 296.398,-30.0244 287.098,-24.9486 285.963,-31.8559"/>
</g>
</g>
</svg>
