<?xml version="1.0" encoding="UTF-8" standalone="no"?>
<!DOCTYPE svg PUBLIC "-//W3C//DTD SVG 1.1//EN"
 "http://www.w3.org/Graphics/SVG/1.1/DTD/svg11.dtd">
<!-- Generated by graphviz version 2.36.0 (20140111.2315)
 -->
<!-- Title: GameScript::setGravity Pages: 1 -->
<svg width="632pt" height="87pt"
 viewBox="0.00 0.00 632.00 87.00" xmlns="http://www.w3.org/2000/svg" xmlns:xlink="http://www.w3.org/1999/xlink">
<g id="graph0" class="graph" transform="scale(1 1) rotate(0) translate(4 83)">
<title>GameScript::setGravity</title>
<polygon fill="white" stroke="none" points="-4,4 -4,-83 628,-83 628,4 -4,4"/>
<!-- Node1 -->
<g id="node1" class="node"><title>Node1</title>
<polygon fill="#bfbfbf" stroke="black" points="0.5,-29.5 0.5,-48.5 119.5,-48.5 119.5,-29.5 0.5,-29.5"/>
<text text-anchor="middle" x="60" y="-36.5" font-family="Helvetica,sans-Serif" font-size="10.00">GameScript::setGravity</text>
</g>
<!-- Node2 -->
<g id="node2" class="node"><title>Node2</title>
<g id="a_node2"><a xlink:href="class_terrain_manager.html#ae5c8fd26c38acd159ca7f090f84366ff" target="_top" xlink:title="TerrainManager::setGravity">
<polygon fill="white" stroke="black" points="156.5,-29.5 156.5,-48.5 291.5,-48.5 291.5,-29.5 156.5,-29.5"/>
<text text-anchor="middle" x="224" y="-36.5" font-family="Helvetica,sans-Serif" font-size="10.00">TerrainManager::setGravity</text>
</a>
</g>
</g>
<!-- Node1&#45;&gt;Node2 -->
<g id="edge1" class="edge"><title>Node1&#45;&gt;Node2</title>
<path fill="none" stroke="midnightblue" d="M119.944,-39C128.462,-39 137.333,-39 146.138,-39"/>
<polygon fill="midnightblue" stroke="midnightblue" points="146.419,-42.5001 156.419,-39 146.419,-35.5001 146.419,-42.5001"/>
</g>
<!-- Node3 -->
<g id="node3" class="node"><title>Node3</title>
<g id="a_node3"><a xlink:href="class_ro_r_frame_listener.html#a0398db79a92d8178b77e3733abc9a238" target="_top" xlink:title="RoRFrameListener::GetBeam\lFactory">
<polygon fill="white" stroke="black" points="328,-49 328,-79 474,-79 474,-49 328,-49"/>
<text text-anchor="start" x="336" y="-67" font-family="Helvetica,sans-Serif" font-size="10.00">RoRFrameListener::GetBeam</text>
<text text-anchor="middle" x="401" y="-56" font-family="Helvetica,sans-Serif" font-size="10.00">Factory</text>
</a>
</g>
</g>
<!-- Node2&#45;&gt;Node3 -->
<g id="edge2" class="edge"><title>Node2&#45;&gt;Node3</title>
<path fill="none" stroke="midnightblue" d="M291.659,-48.5227C300.291,-49.7559 309.211,-51.0301 318.054,-52.2935"/>
<polygon fill="midnightblue" stroke="midnightblue" points="317.593,-55.763 327.987,-53.7125 318.583,-48.8333 317.593,-55.763"/>
</g>
<!-- Node4 -->
<g id="node4" class="node"><title>Node4</title>
<g id="a_node4"><a xlink:href="class_ro_r_1_1_beam_factory.html#a9333deda4962b746b4ee376c0ea15c88" target="_top" xlink:title="RoR::BeamFactory::recalc\lGravityMasses">
<polygon fill="white" stroke="black" points="334,-0 334,-30 468,-30 468,-0 334,-0"/>
<text text-anchor="start" x="342" y="-18" font-family="Helvetica,sans-Serif" font-size="10.00">RoR::BeamFactory::recalc</text>
<text text-anchor="middle" x="401" y="-7" font-family="Helvetica,sans-Serif" font-size="10.00">GravityMasses</text>
</a>
</g>
</g>
<!-- Node2&#45;&gt;Node4 -->
<g id="edge3" class="edge"><title>Node2&#45;&gt;Node4</title>
<path fill="none" stroke="midnightblue" d="M291.659,-29.8582C302.127,-28.4226 313.016,-26.9292 323.681,-25.4666"/>
<polygon fill="midnightblue" stroke="midnightblue" points="324.384,-28.9031 333.816,-24.0767 323.433,-21.968 324.384,-28.9031"/>
</g>
<!-- Node5 -->
<g id="node5" class="node"><title>Node5</title>
<g id="a_node5"><a xlink:href="class_beam.html#ad33c15d83cbf749972d737f046ce80c1" target="_top" xlink:title="Beam::recalc_masses">
<polygon fill="white" stroke="black" points="510,-5.5 510,-24.5 624,-24.5 624,-5.5 510,-5.5"/>
<text text-anchor="middle" x="567" y="-12.5" font-family="Helvetica,sans-Serif" font-size="10.00">Beam::recalc_masses</text>
</a>
</g>
</g>
<!-- Node4&#45;&gt;Node5 -->
<g id="edge4" class="edge"><title>Node4&#45;&gt;Node5</title>
<path fill="none" stroke="midnightblue" d="M468.232,-15C478.567,-15 489.248,-15 499.587,-15"/>
<polygon fill="midnightblue" stroke="midnightblue" points="499.786,-18.5001 509.785,-15 499.785,-11.5001 499.786,-18.5001"/>
</g>
</g>
</svg>
