<?xml version="1.0" encoding="UTF-8" standalone="no"?>
<!DOCTYPE svg PUBLIC "-//W3C//DTD SVG 1.1//EN"
 "http://www.w3.org/Graphics/SVG/1.1/DTD/svg11.dtd">
<!-- Generated by graphviz version 2.36.0 (20140111.2315)
 -->
<!-- Title: Ogre::ShaderParticleRenderer::CmdVertexFormatTexture::doGet Pages: 1 -->
<svg width="360pt" height="38pt"
 viewBox="0.00 0.00 360.00 38.00" xmlns="http://www.w3.org/2000/svg" xmlns:xlink="http://www.w3.org/1999/xlink">
<g id="graph0" class="graph" transform="scale(1 1) rotate(0) translate(4 34)">
<title>Ogre::ShaderParticleRenderer::CmdVertexFormatTexture::doGet</title>
<polygon fill="white" stroke="none" points="-4,4 -4,-34 356,-34 356,4 -4,4"/>
<!-- Node1 -->
<g id="node1" class="node"><title>Node1</title>
<polygon fill="#bfbfbf" stroke="black" points="0,-0 0,-30 168,-30 168,-0 0,-0"/>
<text text-anchor="start" x="8" y="-18" font-family="Helvetica,sans-Serif" font-size="10.00">Ogre::ShaderParticleRenderer</text>
<text text-anchor="middle" x="84" y="-7" font-family="Helvetica,sans-Serif" font-size="10.00">::CmdVertexFormatTexture::doGet</text>
</g>
<!-- Node2 -->
<g id="node2" class="node"><title>Node2</title>
<g id="a_node2"><a xlink:href="class_ogre_1_1_shader_particle_renderer.html#ab4eb4f61d3c085a4bd9f54769a9b6fa8" target="_top" xlink:title="Ogre::ShaderParticleRenderer\l::getVertexFormatTexture">
<polygon fill="white" stroke="black" points="204.5,-0 204.5,-30 351.5,-30 351.5,-0 204.5,-0"/>
<text text-anchor="start" x="212.5" y="-18" font-family="Helvetica,sans-Serif" font-size="10.00">Ogre::ShaderParticleRenderer</text>
<text text-anchor="middle" x="278" y="-7" font-family="Helvetica,sans-Serif" font-size="10.00">::getVertexFormatTexture</text>
</a>
</g>
</g>
<!-- Node1&#45;&gt;Node2 -->
<g id="edge1" class="edge"><title>Node1&#45;&gt;Node2</title>
<path fill="none" stroke="midnightblue" d="M168.097,-15C176.766,-15 185.577,-15 194.242,-15"/>
<polygon fill="midnightblue" stroke="midnightblue" points="194.329,-18.5001 204.329,-15 194.329,-11.5001 194.329,-18.5001"/>
</g>
</g>
</svg>
