<?xml version="1.0" encoding="UTF-8" standalone="no"?>
<!DOCTYPE svg PUBLIC "-//W3C//DTD SVG 1.1//EN"
 "http://www.w3.org/Graphics/SVG/1.1/DTD/svg11.dtd">
<!-- Generated by graphviz version 2.36.0 (20140111.2315)
 -->
<!-- Title: RigDef::Parser Pages: 1 -->
<svg width="469pt" height="118pt"
 viewBox="0.00 0.00 469.00 118.00" xmlns="http://www.w3.org/2000/svg" xmlns:xlink="http://www.w3.org/1999/xlink">
<g id="graph0" class="graph" transform="scale(1 1) rotate(0) translate(4 114)">
<title>RigDef::Parser</title>
<polygon fill="white" stroke="none" points="-4,4 -4,-114 465,-114 465,4 -4,4"/>
<!-- Node1 -->
<g id="node1" class="node"><title>Node1</title>
<polygon fill="#bfbfbf" stroke="black" points="159,-0.5 159,-19.5 241,-19.5 241,-0.5 159,-0.5"/>
<text text-anchor="middle" x="200" y="-7.5" font-family="Helvetica,sans-Serif" font-size="10.00">RigDef::Parser</text>
</g>
<!-- Node2 -->
<g id="node2" class="node"><title>Node2</title>
<g id="a_node2"><a xlink:href="struct_rig_def_1_1_parser_1_1_token.html" target="_top" xlink:title="RigDef::Parser::Token">
<polygon fill="white" stroke="black" points="-0.5,-84.5 -0.5,-103.5 114.5,-103.5 114.5,-84.5 -0.5,-84.5"/>
<text text-anchor="middle" x="57" y="-91.5" font-family="Helvetica,sans-Serif" font-size="10.00">RigDef::Parser::Token</text>
</a>
</g>
</g>
<!-- Node2&#45;&gt;Node1 -->
<g id="edge1" class="edge"><title>Node2&#45;&gt;Node1</title>
<path fill="none" stroke="#9a32cd" stroke-dasharray="5,2" d="M80.9208,-79.2832C110.645,-62.2385 160.457,-33.675 185.168,-19.505"/>
<polygon fill="#9a32cd" stroke="#9a32cd" points="78.9671,-76.3688 72.0332,-84.3795 82.4493,-82.4413 78.9671,-76.3688"/>
<text text-anchor="middle" x="168" y="-46.5" font-family="Helvetica,sans-Serif" font-size="10.00"> m_args</text>
</g>
<!-- Node3 -->
<g id="node3" class="node"><title>Node3</title>
<g id="a_node3"><a xlink:href="class_rig_def_1_1_sequential_importer.html" target="_top" xlink:title="RigDef::SequentialImporter">
<polygon fill="white" stroke="black" points="132.5,-84.5 132.5,-103.5 267.5,-103.5 267.5,-84.5 132.5,-84.5"/>
<text text-anchor="middle" x="200" y="-91.5" font-family="Helvetica,sans-Serif" font-size="10.00">RigDef::SequentialImporter</text>
</a>
</g>
</g>
<!-- Node3&#45;&gt;Node1 -->
<g id="edge2" class="edge"><title>Node3&#45;&gt;Node1</title>
<path fill="none" stroke="#9a32cd" stroke-dasharray="5,2" d="M200,-73.7589C200,-56.6762 200,-32.4984 200,-19.7123"/>
<polygon fill="#9a32cd" stroke="#9a32cd" points="196.5,-74.2245 200,-84.2246 203.5,-74.2246 196.5,-74.2245"/>
<text text-anchor="middle" x="251" y="-46.5" font-family="Helvetica,sans-Serif" font-size="10.00"> m_sequential_importer</text>
</g>
<!-- Node4 -->
<g id="node4" class="node"><title>Node4</title>
<g id="a_node4"><a xlink:href="struct_rig_def_1_1_managed_materials_options.html" target="_top" xlink:title="RigDef::ManagedMaterials\lOptions">
<polygon fill="white" stroke="black" points="285.5,-79 285.5,-109 418.5,-109 418.5,-79 285.5,-79"/>
<text text-anchor="start" x="293.5" y="-97" font-family="Helvetica,sans-Serif" font-size="10.00">RigDef::ManagedMaterials</text>
<text text-anchor="middle" x="352" y="-86" font-family="Helvetica,sans-Serif" font-size="10.00">Options</text>
</a>
</g>
</g>
<!-- Node4&#45;&gt;Node1 -->
<g id="edge3" class="edge"><title>Node4&#45;&gt;Node1</title>
<path fill="none" stroke="#9a32cd" stroke-dasharray="5,2" d="M337.852,-70.0838C329.814,-58.8589 318.801,-46.0585 306,-38 286.554,-25.7584 261.81,-19.057 241.12,-15.3934"/>
<polygon fill="#9a32cd" stroke="#9a32cd" points="335.132,-72.3101 343.638,-78.6276 340.928,-68.385 335.132,-72.3101"/>
<text text-anchor="start" x="329" y="-52" font-family="Helvetica,sans-Serif" font-size="10.00"> m_current_managed_material</text>
<text text-anchor="middle" x="395" y="-41" font-family="Helvetica,sans-Serif" font-size="10.00">_options</text>
</g>
</g>
</svg>
