<?xml version="1.0" encoding="UTF-8" standalone="no"?>
<!DOCTYPE svg PUBLIC "-//W3C//DTD SVG 1.1//EN"
 "http://www.w3.org/Graphics/SVG/1.1/DTD/svg11.dtd">
<!-- Generated by graphviz version 2.36.0 (20140111.2315)
 -->
<!-- Title: CameraBehaviorVehicle::update Pages: 1 -->
<!--zoomable 356 -->
<svg id="main" version="1.1" xmlns="http://www.w3.org/2000/svg" xmlns:xlink="http://www.w3.org/1999/xlink" xml:space="preserve" onload="init(evt)">
<style type="text/css"><![CDATA[
.edge:hover path { stroke: red; }
.edge:hover polygon { stroke: red; fill: red; }
]]></style>
<script type="text/javascript"><![CDATA[
var edges = document.getElementsByTagName('g');
if (edges && edges.length) {
  for (var i=0;i<edges.length;i++) {
    if (edges[i].id.substr(0,4)=='edge') {
      edges[i].setAttribute('class','edge');
    }
  }
}
]]></script>
        <defs>
                <circle id="rim" cx="0" cy="0" r="7"/>
                <circle id="rim2" cx="0" cy="0" r="3.5"/>
                <g id="zoomPlus">
                        <use xlink:href="#rim" fill="#404040">
                                <set attributeName="fill" to="#808080" begin="zoomplus.mouseover" end="zoomplus.mouseout"/>
                        </use>
                        <path d="M-4,0h8M0,-4v8" fill="none" stroke="white" stroke-width="1.5" pointer-events="none"/>
                </g>
                <g id="zoomMin">
                        <use xlink:href="#rim" fill="#404040">
                                <set attributeName="fill" to="#808080" begin="zoomminus.mouseover" end="zoomminus.mouseout"/>
                        </use>
                        <path d="M-4,0h8" fill="none" stroke="white" stroke-width="1.5" pointer-events="none"/>
                </g>
                <g id="dirArrow">
                        <path fill="none" stroke="white" stroke-width="1.5" d="M0,-3.0v7 M-2.5,-0.5L0,-3.0L2.5,-0.5"/>
                </g>
               <g id="resetDef">
                       <use xlink:href="#rim2" fill="#404040">
                               <set attributeName="fill" to="#808080" begin="reset.mouseover" end="reset.mouseout"/>
                       </use>
               </g>
        </defs>

<script type="text/javascript">
var viewWidth = 742;
var viewHeight = 356;
var sectionId = 'dynsection-6';
</script>
<script xlink:href="svgpan.js"/>
<svg id="graph" class="graph">
<g id="viewport">
<title>CameraBehaviorVehicle::update</title>
<polygon fill="white" stroke="none" points="-4,4 -4,-352 738,-352 738,4 -4,4"/>
<!-- Node1 -->
<g id="node1" class="node"><title>Node1</title>
<polygon fill="#bfbfbf" stroke="black" points="0,-241 0,-271 122,-271 122,-241 0,-241"/>
<text text-anchor="start" x="8" y="-259" font-family="Helvetica,sans-Serif" font-size="10.00">CameraBehaviorVehicle</text>
<text text-anchor="middle" x="61" y="-248" font-family="Helvetica,sans-Serif" font-size="10.00">::update</text>
</g>
<!-- Node2 -->
<g id="node2" class="node"><title>Node2</title>
<g id="a_node2"><a xlink:href="class_beam.html#a9bfc6d1ccf609d069ab142ec9b146719" target="_top" xlink:title="Beam::getDirection">
<polygon fill="white" stroke="black" points="193.5,-322.5 193.5,-341.5 294.5,-341.5 294.5,-322.5 193.5,-322.5"/>
<text text-anchor="middle" x="244" y="-329.5" font-family="Helvetica,sans-Serif" font-size="10.00">Beam::getDirection</text>
</a>
</g>
</g>
<!-- Node1&#45;&gt;Node2 -->
<g id="edge1" class="edge"><title>Node1&#45;&gt;Node2</title>
<path fill="none" stroke="midnightblue" d="M83.0999,-271.197C101.907,-284.074 130.616,-302.13 158,-313 166.067,-316.202 174.79,-318.923 183.468,-321.219"/>
<polygon fill="midnightblue" stroke="midnightblue" points="182.663,-324.625 193.211,-323.632 184.346,-317.83 182.663,-324.625"/>
</g>
<!-- Node3 -->
<g id="node3" class="node"><title>Node3</title>
<g id="a_node3"><a xlink:href="namespace_ro_r_1_1_app.html#ae9f45ba76d3204a02a689f4439c0c97e" target="_top" xlink:title="RoR::App::GetGfxExternCamMode">
<polygon fill="white" stroke="black" points="158.5,-284.5 158.5,-303.5 329.5,-303.5 329.5,-284.5 158.5,-284.5"/>
<text text-anchor="middle" x="244" y="-291.5" font-family="Helvetica,sans-Serif" font-size="10.00">RoR::App::GetGfxExternCamMode</text>
</a>
</g>
</g>
<!-- Node1&#45;&gt;Node3 -->
<g id="edge2" class="edge"><title>Node1&#45;&gt;Node3</title>
<path fill="none" stroke="midnightblue" d="M122.019,-268.601C143.155,-273.038 166.802,-278.003 187.544,-282.357"/>
<polygon fill="midnightblue" stroke="midnightblue" points="186.964,-285.812 197.47,-284.441 188.402,-278.961 186.964,-285.812"/>
</g>
<!-- Node4 -->
<g id="node4" class="node"><title>Node4</title>
<g id="a_node4"><a xlink:href="class_beam.html#a304819ff3ad7dafc09f7f64e0c908d2e" target="_top" xlink:title="Beam::getMinimalCameraRadius">
<polygon fill="white" stroke="black" points="163.5,-246.5 163.5,-265.5 324.5,-265.5 324.5,-246.5 163.5,-246.5"/>
<text text-anchor="middle" x="244" y="-253.5" font-family="Helvetica,sans-Serif" font-size="10.00">Beam::getMinimalCameraRadius</text>
</a>
</g>
</g>
<!-- Node1&#45;&gt;Node4 -->
<g id="edge3" class="edge"><title>Node1&#45;&gt;Node4</title>
<path fill="none" stroke="midnightblue" d="M122.019,-256C132.079,-256 142.707,-256 153.321,-256"/>
<polygon fill="midnightblue" stroke="midnightblue" points="153.473,-259.5 163.473,-256 153.473,-252.5 153.473,-259.5"/>
</g>
<!-- Node5 -->
<g id="node5" class="node"><title>Node5</title>
<g id="a_node5"><a xlink:href="class_beam.html#a1294bf3dfa3848211b06a82020c53e72" target="_top" xlink:title="Beam::getPosition">
<polygon fill="white" stroke="black" points="195.5,-208.5 195.5,-227.5 292.5,-227.5 292.5,-208.5 195.5,-208.5"/>
<text text-anchor="middle" x="244" y="-215.5" font-family="Helvetica,sans-Serif" font-size="10.00">Beam::getPosition</text>
</a>
</g>
</g>
<!-- Node1&#45;&gt;Node5 -->
<g id="edge4" class="edge"><title>Node1&#45;&gt;Node5</title>
<path fill="none" stroke="midnightblue" d="M122.019,-243.399C143.155,-238.962 166.802,-233.997 187.544,-229.643"/>
<polygon fill="midnightblue" stroke="midnightblue" points="188.402,-233.039 197.47,-227.559 186.964,-226.188 188.402,-233.039"/>
</g>
<!-- Node6 -->
<g id="node6" class="node"><title>Node6</title>
<g id="a_node6"><a xlink:href="class_camera_behavior_orbit.html#ac2fbf5b905645faf54092ef1c081ef55" target="_top" xlink:title="CameraBehaviorOrbit\l::update">
<polygon fill="white" stroke="black" points="189,-159 189,-189 299,-189 299,-159 189,-159"/>
<text text-anchor="start" x="197" y="-177" font-family="Helvetica,sans-Serif" font-size="10.00">CameraBehaviorOrbit</text>
<text text-anchor="middle" x="244" y="-166" font-family="Helvetica,sans-Serif" font-size="10.00">::update</text>
</a>
</g>
</g>
<!-- Node1&#45;&gt;Node6 -->
<g id="edge5" class="edge"><title>Node1&#45;&gt;Node6</title>
<path fill="none" stroke="midnightblue" d="M83.6601,-241C102.59,-228.422 131.168,-210.692 158,-199 164.689,-196.085 171.818,-193.392 178.994,-190.939"/>
<polygon fill="midnightblue" stroke="midnightblue" points="180.353,-194.177 188.772,-187.744 178.179,-187.523 180.353,-194.177"/>
</g>
<!-- Node7 -->
<g id="node7" class="node"><title>Node7</title>
<g id="a_node7"><a xlink:href="namespace_ro_r_1_1_app.html#a21fb1ba18d55ba3c4b0dfd2f36df7891" target="_top" xlink:title="RoR::App::GetInputEngine">
<polygon fill="white" stroke="black" points="387,-328.5 387,-347.5 521,-347.5 521,-328.5 387,-328.5"/>
<text text-anchor="middle" x="454" y="-335.5" font-family="Helvetica,sans-Serif" font-size="10.00">RoR::App::GetInputEngine</text>
</a>
</g>
</g>
<!-- Node6&#45;&gt;Node7 -->
<g id="edge6" class="edge"><title>Node6&#45;&gt;Node7</title>
<path fill="none" stroke="midnightblue" d="M299.239,-181.325C310.566,-185.058 321.602,-190.648 330,-199 369.479,-238.266 325.151,-281.16 366,-319 369.569,-322.306 373.575,-325.087 377.857,-327.421"/>
<polygon fill="midnightblue" stroke="midnightblue" points="376.434,-330.618 386.982,-331.61 379.355,-324.257 376.434,-330.618"/>
</g>
<!-- Node8 -->
<g id="node8" class="node"><title>Node8</title>
<g id="a_node8"><a xlink:href="class_input_engine.html#a251be92f16fe445542e240fc121354d8" target="_top" xlink:title="InputEngine::getEventValue">
<polygon fill="white" stroke="black" points="385,-290.5 385,-309.5 523,-309.5 523,-290.5 385,-290.5"/>
<text text-anchor="middle" x="454" y="-297.5" font-family="Helvetica,sans-Serif" font-size="10.00">InputEngine::getEventValue</text>
</a>
</g>
</g>
<!-- Node6&#45;&gt;Node8 -->
<g id="edge7" class="edge"><title>Node6&#45;&gt;Node8</title>
<path fill="none" stroke="midnightblue" d="M299.373,-182.421C310.433,-186.106 321.322,-191.399 330,-199 359.636,-224.956 335.598,-254.946 366,-280 369.074,-282.533 372.408,-284.76 375.918,-286.715"/>
<polygon fill="midnightblue" stroke="midnightblue" points="374.429,-289.882 384.961,-291.038 377.448,-283.567 374.429,-289.882"/>
</g>
<!-- Node11 -->
<g id="node11" class="node"><title>Node11</title>
<g id="a_node11"><a xlink:href="class_camera_behavior_orbit.html#ac2c38d7776bb50ffb4a0d267c11acb2c" target="_top" xlink:title="CameraBehaviorOrbit\l::reset">
<polygon fill="white" stroke="black" points="399,-241 399,-271 509,-271 509,-241 399,-241"/>
<text text-anchor="start" x="407" y="-259" font-family="Helvetica,sans-Serif" font-size="10.00">CameraBehaviorOrbit</text>
<text text-anchor="middle" x="454" y="-248" font-family="Helvetica,sans-Serif" font-size="10.00">::reset</text>
</a>
</g>
</g>
<!-- Node6&#45;&gt;Node11 -->
<g id="edge10" class="edge"><title>Node6&#45;&gt;Node11</title>
<path fill="none" stroke="midnightblue" d="M299.049,-185.999C309.658,-189.422 320.449,-193.703 330,-199 348.721,-209.382 347.247,-220.676 366,-231 373.145,-234.933 380.969,-238.299 388.902,-241.166"/>
<polygon fill="midnightblue" stroke="midnightblue" points="388.001,-244.556 398.595,-244.421 390.229,-237.92 388.001,-244.556"/>
</g>
<!-- Node12 -->
<g id="node12" class="node"><title>Node12</title>
<g id="a_node12"><a xlink:href="namespace_ro_r_1_1_app.html#aa04ed1e7b697aa1f33f1bb1297cb3e48" target="_top" xlink:title="RoR::App::GetConsole">
<polygon fill="white" stroke="black" points="395,-202.5 395,-221.5 513,-221.5 513,-202.5 395,-202.5"/>
<text text-anchor="middle" x="454" y="-209.5" font-family="Helvetica,sans-Serif" font-size="10.00">RoR::App::GetConsole</text>
</a>
</g>
</g>
<!-- Node6&#45;&gt;Node12 -->
<g id="edge11" class="edge"><title>Node6&#45;&gt;Node12</title>
<path fill="none" stroke="midnightblue" d="M299.107,-183.885C327.21,-189.019 361.683,-195.317 390.873,-200.65"/>
<polygon fill="midnightblue" stroke="midnightblue" points="390.492,-204.138 400.958,-202.492 391.75,-197.252 390.492,-204.138"/>
</g>
<!-- Node14 -->
<g id="node14" class="node"><title>Node14</title>
<g id="a_node14"><a xlink:href="class_ro_r_1_1_console.html#a6883dfc6a1d760581a917e101b6357c5" target="_top" xlink:title="RoR::Console::putMessage">
<polygon fill="white" stroke="black" points="385,-164.5 385,-183.5 523,-183.5 523,-164.5 385,-164.5"/>
<text text-anchor="middle" x="454" y="-171.5" font-family="Helvetica,sans-Serif" font-size="10.00">RoR::Console::putMessage</text>
</a>
</g>
</g>
<!-- Node6&#45;&gt;Node14 -->
<g id="edge13" class="edge"><title>Node6&#45;&gt;Node14</title>
<path fill="none" stroke="midnightblue" d="M299.107,-174C322.064,-174 349.272,-174 374.379,-174"/>
<polygon fill="midnightblue" stroke="midnightblue" points="374.62,-177.5 384.62,-174 374.62,-170.5 374.62,-177.5"/>
</g>
<!-- Node16 -->
<g id="node16" class="node"><title>Node16</title>
<g id="a_node16"><a xlink:href="namespace_ro_r_1_1_app.html#a68d6403d2b36006a6fa2d28f5ba8f12f" target="_top" xlink:title="RoR::App::GetGuiManager">
<polygon fill="white" stroke="black" points="387,-126.5 387,-145.5 521,-145.5 521,-126.5 387,-126.5"/>
<text text-anchor="middle" x="454" y="-133.5" font-family="Helvetica,sans-Serif" font-size="10.00">RoR::App::GetGuiManager</text>
</a>
</g>
</g>
<!-- Node6&#45;&gt;Node16 -->
<g id="edge15" class="edge"><title>Node6&#45;&gt;Node16</title>
<path fill="none" stroke="midnightblue" d="M299.107,-164.115C327.21,-158.981 361.683,-152.683 390.873,-147.35"/>
<polygon fill="midnightblue" stroke="midnightblue" points="391.75,-150.748 400.958,-145.508 390.492,-143.862 391.75,-150.748"/>
</g>
<!-- Node17 -->
<g id="node17" class="node"><title>Node17</title>
<g id="a_node17"><a xlink:href="class_ro_r_1_1_g_u_i_manager.html#a534a8e82d1b92384767ab1c555126bba" target="_top" xlink:title="RoR::GUIManager::PushNotification">
<polygon fill="white" stroke="black" points="366,-88.5 366,-107.5 542,-107.5 542,-88.5 366,-88.5"/>
<text text-anchor="middle" x="454" y="-95.5" font-family="Helvetica,sans-Serif" font-size="10.00">RoR::GUIManager::PushNotification</text>
</a>
</g>
</g>
<!-- Node6&#45;&gt;Node17 -->
<g id="edge16" class="edge"><title>Node6&#45;&gt;Node17</title>
<path fill="none" stroke="midnightblue" d="M272.614,-158.794C296.669,-146.087 332.801,-128.283 366,-117 373.701,-114.383 381.911,-112.039 390.095,-109.966"/>
<polygon fill="midnightblue" stroke="midnightblue" points="391.128,-113.318 400.03,-107.573 389.489,-106.512 391.128,-113.318"/>
</g>
<!-- Node19 -->
<g id="node19" class="node"><title>Node19</title>
<g id="a_node19"><a xlink:href="class_terrain_manager.html#ae63cfc0dda4ab62dc7f6d72eb7845628" target="_top" xlink:title="TerrainManager::getHeight\lFinder">
<polygon fill="white" stroke="black" points="388,-39 388,-69 520,-69 520,-39 388,-39"/>
<text text-anchor="start" x="396" y="-57" font-family="Helvetica,sans-Serif" font-size="10.00">TerrainManager::getHeight</text>
<text text-anchor="middle" x="454" y="-46" font-family="Helvetica,sans-Serif" font-size="10.00">Finder</text>
</a>
</g>
</g>
<!-- Node6&#45;&gt;Node19 -->
<g id="edge18" class="edge"><title>Node6&#45;&gt;Node19</title>
<path fill="none" stroke="midnightblue" d="M260.066,-158.945C281.709,-138.119 323.673,-100.645 366,-79 370.519,-76.6891 375.282,-74.5633 380.157,-72.6128"/>
<polygon fill="midnightblue" stroke="midnightblue" points="381.488,-75.8519 389.632,-69.0753 379.039,-69.2941 381.488,-75.8519"/>
</g>
<!-- Node20 -->
<g id="node20" class="node"><title>Node20</title>
<g id="a_node20"><a xlink:href="class_i_height_finder.html#a5757ec3d639bcffc834540067ec8db2e" target="_top" xlink:title="IHeightFinder::getHeightAt">
<polygon fill="white" stroke="black" points="387.5,-0.5 387.5,-19.5 520.5,-19.5 520.5,-0.5 387.5,-0.5"/>
<text text-anchor="middle" x="454" y="-7.5" font-family="Helvetica,sans-Serif" font-size="10.00">IHeightFinder::getHeightAt</text>
</a>
</g>
</g>
<!-- Node6&#45;&gt;Node20 -->
<g id="edge19" class="edge"><title>Node6&#45;&gt;Node20</title>
<path fill="none" stroke="midnightblue" d="M253.345,-158.569C270.336,-128.708 311.959,-63.0559 366,-30 370.351,-27.3389 375.02,-25.0314 379.855,-23.0307"/>
<polygon fill="midnightblue" stroke="midnightblue" points="381.139,-26.2874 389.315,-19.5488 378.722,-19.7182 381.139,-26.2874"/>
</g>
<!-- Node9 -->
<g id="node9" class="node"><title>Node9</title>
<g id="a_node9"><a xlink:href="class_input_engine.html#a3e63861375a5873297281b885c8aa8f9" target="_top" xlink:title="InputEngine::axisLinearity">
<polygon fill="white" stroke="black" points="591.5,-309.5 591.5,-328.5 720.5,-328.5 720.5,-309.5 591.5,-309.5"/>
<text text-anchor="middle" x="656" y="-316.5" font-family="Helvetica,sans-Serif" font-size="10.00">InputEngine::axisLinearity</text>
</a>
</g>
</g>
<!-- Node8&#45;&gt;Node9 -->
<g id="edge8" class="edge"><title>Node8&#45;&gt;Node9</title>
<path fill="none" stroke="midnightblue" d="M523.269,-306.486C541.974,-308.263 562.331,-310.196 581.324,-312.001"/>
<polygon fill="midnightblue" stroke="midnightblue" points="581.129,-315.498 591.415,-312.959 581.791,-308.529 581.129,-315.498"/>
</g>
<!-- Node10 -->
<g id="node10" class="node"><title>Node10</title>
<g id="a_node10"><a xlink:href="class_input_engine.html#aaa9f701b9f4420b8e97cf4ae775038c1" target="_top" xlink:title="InputEngine::deadZone">
<polygon fill="white" stroke="black" points="597.5,-271.5 597.5,-290.5 714.5,-290.5 714.5,-271.5 597.5,-271.5"/>
<text text-anchor="middle" x="656" y="-278.5" font-family="Helvetica,sans-Serif" font-size="10.00">InputEngine::deadZone</text>
</a>
</g>
</g>
<!-- Node8&#45;&gt;Node10 -->
<g id="edge9" class="edge"><title>Node8&#45;&gt;Node10</title>
<path fill="none" stroke="midnightblue" d="M523.269,-293.514C543.983,-291.547 566.723,-289.386 587.393,-287.423"/>
<polygon fill="midnightblue" stroke="midnightblue" points="587.732,-290.906 597.356,-286.476 587.07,-283.938 587.732,-290.906"/>
</g>
<!-- Node13 -->
<g id="node13" class="node"><title>Node13</title>
<g id="a_node13"><a xlink:href="class_ro_r_1_1_g_u_i_manager.html#a982bc848eb4330aa9e57a54bfc60d975" target="_top" xlink:title="RoR::GUIManager::GetConsole">
<polygon fill="white" stroke="black" points="578,-205.5 578,-224.5 734,-224.5 734,-205.5 578,-205.5"/>
<text text-anchor="middle" x="656" y="-212.5" font-family="Helvetica,sans-Serif" font-size="10.00">RoR::GUIManager::GetConsole</text>
</a>
</g>
</g>
<!-- Node12&#45;&gt;Node13 -->
<g id="edge12" class="edge"><title>Node12&#45;&gt;Node13</title>
<path fill="none" stroke="midnightblue" d="M513.117,-212.872C530.147,-213.127 549.154,-213.412 567.583,-213.689"/>
<polygon fill="midnightblue" stroke="midnightblue" points="567.693,-217.191 577.745,-213.841 567.798,-210.191 567.693,-217.191"/>
</g>
<!-- Node15 -->
<g id="node15" class="node"><title>Node15</title>
<g id="a_node15"><a xlink:href="class_inter_thread_store_vector.html#a88d3f7e3e3ce109e13af1c46a12a50b0" target="_top" xlink:title="InterThreadStoreVector\l\&lt; ConsoleMessage \&gt;::push">
<polygon fill="white" stroke="black" points="587.5,-156 587.5,-186 724.5,-186 724.5,-156 587.5,-156"/>
<text text-anchor="start" x="595.5" y="-174" font-family="Helvetica,sans-Serif" font-size="10.00">InterThreadStoreVector</text>
<text text-anchor="middle" x="656" y="-163" font-family="Helvetica,sans-Serif" font-size="10.00">&lt; ConsoleMessage &gt;::push</text>
</a>
</g>
</g>
<!-- Node14&#45;&gt;Node15 -->
<g id="edge14" class="edge"><title>Node14&#45;&gt;Node15</title>
<path fill="none" stroke="midnightblue" d="M523.269,-172.976C540.58,-172.716 559.307,-172.435 577.057,-172.169"/>
<polygon fill="midnightblue" stroke="midnightblue" points="577.431,-175.664 587.377,-172.014 577.326,-168.665 577.431,-175.664"/>
</g>
<!-- Node18 -->
<g id="node18" class="node"><title>Node18</title>
<g id="a_node18"><a xlink:href="class_ro_r_1_1_g_u_i_1_1_sim_utils.html#ac18f8c423994b93276f5f33b22e53d41" target="_top" xlink:title="RoR::GUI::SimUtils\l::PushNotification">
<polygon fill="white" stroke="black" points="604,-83 604,-113 708,-113 708,-83 604,-83"/>
<text text-anchor="start" x="612" y="-101" font-family="Helvetica,sans-Serif" font-size="10.00">RoR::GUI::SimUtils</text>
<text text-anchor="middle" x="656" y="-90" font-family="Helvetica,sans-Serif" font-size="10.00">::PushNotification</text>
</a>
</g>
</g>
<!-- Node17&#45;&gt;Node18 -->
<g id="edge17" class="edge"><title>Node17&#45;&gt;Node18</title>
<path fill="none" stroke="midnightblue" d="M542.141,-98C559.411,-98 577.202,-98 593.406,-98"/>
<polygon fill="midnightblue" stroke="midnightblue" points="593.803,-101.5 603.803,-98 593.803,-94.5001 593.803,-101.5"/>
</g>
</g>
</svg>
        <g id="navigator" transform="translate(0 0)" fill="#404254">
                <rect fill="#f2f5e9" fill-opacity="0.5" stroke="#606060" stroke-width=".5" x="0" y="0" width="60" height="60"/>
                <use id="zoomplus" xlink:href="#zoomPlus" x="17" y="9" onmousedown="handleZoom(evt,'in')"/>
                <use id="zoomminus" xlink:href="#zoomMin" x="42" y="9" onmousedown="handleZoom(evt,'out')"/>
                <use id="reset" xlink:href="#resetDef" x="30" y="36" onmousedown="handleReset()"/>
                <g id="arrowUp" xlink:href="#dirArrow" transform="translate(30 24)" onmousedown="handlePan(0,-1)">
                  <use xlink:href="#rim" fill="#404040">
                        <set attributeName="fill" to="#808080" begin="arrowUp.mouseover" end="arrowUp.mouseout"/>
                  </use>
                  <path fill="none" stroke="white" stroke-width="1.5" d="M0,-3.0v7 M-2.5,-0.5L0,-3.0L2.5,-0.5"/>
                </g>
                <g id="arrowRight" xlink:href="#dirArrow" transform="rotate(90) translate(36 -43)" onmousedown="handlePan(1,0)">
                  <use xlink:href="#rim" fill="#404040">
                        <set attributeName="fill" to="#808080" begin="arrowRight.mouseover" end="arrowRight.mouseout"/>
                  </use>
                  <path fill="none" stroke="white" stroke-width="1.5" d="M0,-3.0v7 M-2.5,-0.5L0,-3.0L2.5,-0.5"/>
                </g>
                <g id="arrowDown" xlink:href="#dirArrow" transform="rotate(180) translate(-30 -48)" onmousedown="handlePan(0,1)">
                  <use xlink:href="#rim" fill="#404040">
                        <set attributeName="fill" to="#808080" begin="arrowDown.mouseover" end="arrowDown.mouseout"/>
                  </use>
                  <path fill="none" stroke="white" stroke-width="1.5" d="M0,-3.0v7 M-2.5,-0.5L0,-3.0L2.5,-0.5"/>
                </g>
                <g id="arrowLeft" xlink:href="#dirArrow" transform="rotate(270) translate(-36 17)" onmousedown="handlePan(-1,0)">
                  <use xlink:href="#rim" fill="#404040">
                        <set attributeName="fill" to="#808080" begin="arrowLeft.mouseover" end="arrowLeft.mouseout"/>
                  </use>
                  <path fill="none" stroke="white" stroke-width="1.5" d="M0,-3.0v7 M-2.5,-0.5L0,-3.0L2.5,-0.5"/>
                </g>
        </g>
        <svg viewBox="0 0 15 15" width="100%" height="30px" preserveAspectRatio="xMaxYMin meet">
         <g id="arrow_out" transform="scale(0.3 0.3)">
          <a xlink:href="class_camera_behavior_vehicle_ae4defc34198f6a82cfb86ede290d055f_cgraph_org.svg" target="_base">
           <rect id="button" ry="5" rx="5" y="6" x="6" height="38" width="38"
                fill="#f2f5e9" fill-opacity="0.5" stroke="#606060" stroke-width="1.0"/>
           <path id="arrow"
             d="M 11.500037,31.436501 C 11.940474,20.09759 22.043105,11.32322 32.158766,21.979434 L 37.068811,17.246167 C 37.068811,17.246167 37.088388,32 37.088388,32 L 22.160133,31.978069 C 22.160133,31.978069 26.997745,27.140456 26.997745,27.140456 C 18.528582,18.264221 13.291696,25.230495 11.500037,31.436501 z"
             style="fill:#404040;"/>
          </a>
         </g>
        </svg>
</svg>
