<?xml version="1.0" encoding="UTF-8" standalone="no"?>
<!DOCTYPE svg PUBLIC "-//W3C//DTD SVG 1.1//EN"
 "http://www.w3.org/Graphics/SVG/1.1/DTD/svg11.dtd">
<!-- Generated by graphviz version 2.36.0 (20140111.2315)
 -->
<!-- Title: DepthOfFieldEffect::setEnabled Pages: 1 -->
<svg width="284pt" height="66pt"
 viewBox="0.00 0.00 284.00 66.00" xmlns="http://www.w3.org/2000/svg" xmlns:xlink="http://www.w3.org/1999/xlink">
<g id="graph0" class="graph" transform="scale(1 1) rotate(0) translate(4 62)">
<title>DepthOfFieldEffect::setEnabled</title>
<polygon fill="white" stroke="none" points="-4,4 -4,-62 280,-62 280,4 -4,4"/>
<!-- Node1 -->
<g id="node1" class="node"><title>Node1</title>
<polygon fill="#bfbfbf" stroke="black" points="0.5,-14 0.5,-44 101.5,-44 101.5,-14 0.5,-14"/>
<text text-anchor="start" x="8.5" y="-32" font-family="Helvetica,sans-Serif" font-size="10.00">DepthOfFieldEffect</text>
<text text-anchor="middle" x="51" y="-21" font-family="Helvetica,sans-Serif" font-size="10.00">::setEnabled</text>
</g>
<!-- Node2 -->
<g id="node2" class="node"><title>Node2</title>
<g id="a_node2"><a xlink:href="class_d_o_f_manager.html#a165e04f5ec744566a8c26d91265d081d" target="_top" xlink:title="DOFManager::setEnabled">
<polygon fill="white" stroke="black" points="142,-38.5 142,-57.5 272,-57.5 272,-38.5 142,-38.5"/>
<text text-anchor="middle" x="207" y="-45.5" font-family="Helvetica,sans-Serif" font-size="10.00">DOFManager::setEnabled</text>
</a>
</g>
</g>
<!-- Node1&#45;&gt;Node2 -->
<g id="edge1" class="edge"><title>Node1&#45;&gt;Node2</title>
<path fill="none" stroke="midnightblue" d="M111.707,-36.3665C121.598,-37.5868 131.891,-38.8567 141.885,-40.0897"/>
<polygon fill="midnightblue" stroke="midnightblue" points="111.928,-32.8672 101.574,-35.1163 111.07,-39.8145 111.928,-32.8672"/>
</g>
<!-- Node3 -->
<g id="node3" class="node"><title>Node3</title>
<g id="a_node3"><a xlink:href="class_d_o_f_manager.html#a7899d5f2eaa03945719f581cdf568606" target="_top" xlink:title="DOFManager::frameStarted">
<polygon fill="white" stroke="black" points="138.5,-0.5 138.5,-19.5 275.5,-19.5 275.5,-0.5 138.5,-0.5"/>
<text text-anchor="middle" x="207" y="-7.5" font-family="Helvetica,sans-Serif" font-size="10.00">DOFManager::frameStarted</text>
</a>
</g>
</g>
<!-- Node1&#45;&gt;Node3 -->
<g id="edge2" class="edge"><title>Node1&#45;&gt;Node3</title>
<path fill="none" stroke="midnightblue" d="M111.643,-21.6414C120.367,-20.5651 129.405,-19.45 138.277,-18.3555"/>
<polygon fill="midnightblue" stroke="midnightblue" points="111.07,-18.1855 101.574,-22.8837 111.928,-25.1328 111.07,-18.1855"/>
</g>
</g>
</svg>
