<?xml version="1.0" encoding="UTF-8" standalone="no"?>
<!DOCTYPE svg PUBLIC "-//W3C//DTD SVG 1.1//EN"
 "http://www.w3.org/Graphics/SVG/1.1/DTD/svg11.dtd">
<!-- Generated by graphviz version 2.36.0 (20140111.2315)
 -->
<!-- Title: utf8::iterator::operator++ Pages: 1 -->
<svg width="692pt" height="332pt"
 viewBox="0.00 0.00 692.00 332.00" xmlns="http://www.w3.org/2000/svg" xmlns:xlink="http://www.w3.org/1999/xlink">
<g id="graph0" class="graph" transform="scale(1 1) rotate(0) translate(4 328)">
<title>utf8::iterator::operator++</title>
<polygon fill="white" stroke="none" points="-4,4 -4,-328 688,-328 688,4 -4,4"/>
<!-- Node1 -->
<g id="node1" class="node"><title>Node1</title>
<polygon fill="#bfbfbf" stroke="black" points="0,-152.5 0,-171.5 122,-171.5 122,-152.5 0,-152.5"/>
<text text-anchor="middle" x="61" y="-159.5" font-family="Helvetica,sans-Serif" font-size="10.00">utf8::iterator::operator++</text>
</g>
<!-- Node2 -->
<g id="node2" class="node"><title>Node2</title>
<g id="a_node2"><a xlink:href="namespaceutf8.html#afc093dfde66a6f52cb4a5caefe0e580d" target="_top" xlink:title="utf8::next">
<polygon fill="white" stroke="black" points="158,-152.5 158,-171.5 216,-171.5 216,-152.5 158,-152.5"/>
<text text-anchor="middle" x="187" y="-159.5" font-family="Helvetica,sans-Serif" font-size="10.00">utf8::next</text>
</a>
</g>
</g>
<!-- Node1&#45;&gt;Node2 -->
<g id="edge1" class="edge"><title>Node1&#45;&gt;Node2</title>
<path fill="none" stroke="midnightblue" d="M122.184,-162C130.851,-162 139.565,-162 147.648,-162"/>
<polygon fill="midnightblue" stroke="midnightblue" points="147.854,-165.5 157.854,-162 147.854,-158.5 147.854,-165.5"/>
</g>
<!-- Node3 -->
<g id="node3" class="node"><title>Node3</title>
<g id="a_node3"><a xlink:href="namespaceutf8_1_1internal.html#abe95547575fcc81911e381df03f8ebfe" target="_top" xlink:title="utf8::internal::validate_next">
<polygon fill="white" stroke="black" points="252,-152.5 252,-171.5 386,-171.5 386,-152.5 252,-152.5"/>
<text text-anchor="middle" x="319" y="-159.5" font-family="Helvetica,sans-Serif" font-size="10.00">utf8::internal::validate_next</text>
</a>
</g>
</g>
<!-- Node2&#45;&gt;Node3 -->
<g id="edge2" class="edge"><title>Node2&#45;&gt;Node3</title>
<path fill="none" stroke="midnightblue" d="M216.208,-162C223.913,-162 232.645,-162 241.679,-162"/>
<polygon fill="midnightblue" stroke="midnightblue" points="241.968,-165.5 251.968,-162 241.968,-158.5 241.968,-165.5"/>
</g>
<!-- Node4 -->
<g id="node4" class="node"><title>Node4</title>
<g id="a_node4"><a xlink:href="namespaceutf8_1_1internal.html#aadbe437cba7bfcc4df2638f633e9787c" target="_top" xlink:title="utf8::internal::sequence\l_length">
<polygon fill="white" stroke="black" points="422.5,-294 422.5,-324 541.5,-324 541.5,-294 422.5,-294"/>
<text text-anchor="start" x="430.5" y="-312" font-family="Helvetica,sans-Serif" font-size="10.00">utf8::internal::sequence</text>
<text text-anchor="middle" x="482" y="-301" font-family="Helvetica,sans-Serif" font-size="10.00">_length</text>
</a>
</g>
</g>
<!-- Node3&#45;&gt;Node4 -->
<g id="edge3" class="edge"><title>Node3&#45;&gt;Node4</title>
<path fill="none" stroke="midnightblue" d="M325.719,-171.564C339.588,-194.035 377.189,-250.802 422,-284 424.346,-285.738 426.832,-287.383 429.404,-288.935"/>
<polygon fill="midnightblue" stroke="midnightblue" points="427.947,-292.128 438.4,-293.856 431.306,-285.987 427.947,-292.128"/>
</g>
<!-- Node6 -->
<g id="node6" class="node"><title>Node6</title>
<g id="a_node6"><a xlink:href="namespaceutf8_1_1internal.html#a6e5df73716136aec55e8fcf3309038b6" target="_top" xlink:title="get_sequence_x functions decode utf&#45;8 sequences of the length x ">
<polygon fill="white" stroke="black" points="437,-245 437,-275 527,-275 527,-245 437,-245"/>
<text text-anchor="start" x="445" y="-263" font-family="Helvetica,sans-Serif" font-size="10.00">utf8::internal::get</text>
<text text-anchor="middle" x="482" y="-252" font-family="Helvetica,sans-Serif" font-size="10.00">_sequence_1</text>
</a>
</g>
</g>
<!-- Node3&#45;&gt;Node6 -->
<g id="edge5" class="edge"><title>Node3&#45;&gt;Node6</title>
<path fill="none" stroke="midnightblue" d="M331.672,-171.668C350.054,-186.582 387.24,-215.512 422,-235 425.449,-236.934 429.078,-238.813 432.771,-240.615"/>
<polygon fill="midnightblue" stroke="midnightblue" points="431.47,-243.87 442.012,-244.922 434.427,-237.525 431.47,-243.87"/>
</g>
<!-- Node7 -->
<g id="node7" class="node"><title>Node7</title>
<g id="a_node7"><a xlink:href="namespaceutf8_1_1internal.html#a9d641b9546be985f9f0fd4955ac42a24" target="_top" xlink:title="utf8::internal::get\l_sequence_2">
<polygon fill="white" stroke="black" points="437,-196 437,-226 527,-226 527,-196 437,-196"/>
<text text-anchor="start" x="445" y="-214" font-family="Helvetica,sans-Serif" font-size="10.00">utf8::internal::get</text>
<text text-anchor="middle" x="482" y="-203" font-family="Helvetica,sans-Serif" font-size="10.00">_sequence_2</text>
</a>
</g>
</g>
<!-- Node3&#45;&gt;Node7 -->
<g id="edge7" class="edge"><title>Node3&#45;&gt;Node7</title>
<path fill="none" stroke="midnightblue" d="M351.425,-171.564C372.914,-178.104 401.949,-186.941 427.087,-194.592"/>
<polygon fill="midnightblue" stroke="midnightblue" points="426.279,-198.004 436.865,-197.568 428.317,-191.307 426.279,-198.004"/>
</g>
<!-- Node8 -->
<g id="node8" class="node"><title>Node8</title>
<g id="a_node8"><a xlink:href="namespaceutf8_1_1internal.html#ac1809a1fb3fa6983d64a0d3a39646008" target="_top" xlink:title="utf8::internal::get\l_sequence_3">
<polygon fill="white" stroke="black" points="437,-147 437,-177 527,-177 527,-147 437,-147"/>
<text text-anchor="start" x="445" y="-165" font-family="Helvetica,sans-Serif" font-size="10.00">utf8::internal::get</text>
<text text-anchor="middle" x="482" y="-154" font-family="Helvetica,sans-Serif" font-size="10.00">_sequence_3</text>
</a>
</g>
</g>
<!-- Node3&#45;&gt;Node8 -->
<g id="edge9" class="edge"><title>Node3&#45;&gt;Node8</title>
<path fill="none" stroke="midnightblue" d="M386.414,-162C399.811,-162 413.744,-162 426.668,-162"/>
<polygon fill="midnightblue" stroke="midnightblue" points="426.786,-165.5 436.786,-162 426.786,-158.5 426.786,-165.5"/>
</g>
<!-- Node9 -->
<g id="node9" class="node"><title>Node9</title>
<g id="a_node9"><a xlink:href="namespaceutf8_1_1internal.html#ad1958e7c6746ba6b1fbb0d81b88b346c" target="_top" xlink:title="utf8::internal::get\l_sequence_4">
<polygon fill="white" stroke="black" points="437,-98 437,-128 527,-128 527,-98 437,-98"/>
<text text-anchor="start" x="445" y="-116" font-family="Helvetica,sans-Serif" font-size="10.00">utf8::internal::get</text>
<text text-anchor="middle" x="482" y="-105" font-family="Helvetica,sans-Serif" font-size="10.00">_sequence_4</text>
</a>
</g>
</g>
<!-- Node3&#45;&gt;Node9 -->
<g id="edge11" class="edge"><title>Node3&#45;&gt;Node9</title>
<path fill="none" stroke="midnightblue" d="M351.425,-152.436C372.914,-145.896 401.949,-137.059 427.087,-129.408"/>
<polygon fill="midnightblue" stroke="midnightblue" points="428.317,-132.693 436.865,-126.432 426.279,-125.996 428.317,-132.693"/>
</g>
<!-- Node10 -->
<g id="node10" class="node"><title>Node10</title>
<g id="a_node10"><a xlink:href="namespaceutf8_1_1internal.html#a97b553137aaeda6e8ca6f8d46f78fd79" target="_top" xlink:title="utf8::internal::is\l_code_point_valid">
<polygon fill="white" stroke="black" points="434.5,-49 434.5,-79 529.5,-79 529.5,-49 434.5,-49"/>
<text text-anchor="start" x="442.5" y="-67" font-family="Helvetica,sans-Serif" font-size="10.00">utf8::internal::is</text>
<text text-anchor="middle" x="482" y="-56" font-family="Helvetica,sans-Serif" font-size="10.00">_code_point_valid</text>
</a>
</g>
</g>
<!-- Node3&#45;&gt;Node10 -->
<g id="edge13" class="edge"><title>Node3&#45;&gt;Node10</title>
<path fill="none" stroke="midnightblue" d="M331.672,-152.332C350.054,-137.418 387.24,-108.488 422,-89 425.449,-87.0661 429.078,-85.1873 432.771,-83.3855"/>
<polygon fill="midnightblue" stroke="midnightblue" points="434.427,-86.4749 442.012,-79.0779 431.47,-80.1302 434.427,-86.4749"/>
</g>
<!-- Node12 -->
<g id="node12" class="node"><title>Node12</title>
<g id="a_node12"><a xlink:href="namespaceutf8_1_1internal.html#a3160f6f24dff465f64f83cb0e66995c6" target="_top" xlink:title="utf8::internal::is\l_overlong_sequence">
<polygon fill="white" stroke="black" points="429,-0 429,-30 535,-30 535,-0 429,-0"/>
<text text-anchor="start" x="437" y="-18" font-family="Helvetica,sans-Serif" font-size="10.00">utf8::internal::is</text>
<text text-anchor="middle" x="482" y="-7" font-family="Helvetica,sans-Serif" font-size="10.00">_overlong_sequence</text>
</a>
</g>
</g>
<!-- Node3&#45;&gt;Node12 -->
<g id="edge15" class="edge"><title>Node3&#45;&gt;Node12</title>
<path fill="none" stroke="midnightblue" d="M325.719,-152.436C339.588,-129.965 377.189,-73.1979 422,-40 424.346,-38.2616 426.832,-36.6169 429.404,-35.0649"/>
<polygon fill="midnightblue" stroke="midnightblue" points="431.306,-38.0135 438.4,-30.144 427.947,-31.8721 431.306,-38.0135"/>
</g>
<!-- Node5 -->
<g id="node5" class="node"><title>Node5</title>
<g id="a_node5"><a xlink:href="namespaceutf8_1_1internal.html#adf6e0469e279b9562aa461b4c3c1e7e4" target="_top" xlink:title="utf8::internal::mask8">
<polygon fill="white" stroke="black" points="578,-201.5 578,-220.5 684,-220.5 684,-201.5 578,-201.5"/>
<text text-anchor="middle" x="631" y="-208.5" font-family="Helvetica,sans-Serif" font-size="10.00">utf8::internal::mask8</text>
</a>
</g>
</g>
<!-- Node4&#45;&gt;Node5 -->
<g id="edge4" class="edge"><title>Node4&#45;&gt;Node5</title>
<path fill="none" stroke="midnightblue" d="M523.143,-293.866C529.609,-290.9 536.108,-287.585 542,-284 568.814,-267.684 596.077,-243.673 613.005,-227.697"/>
<polygon fill="midnightblue" stroke="midnightblue" points="615.642,-230.017 620.437,-220.57 610.797,-224.965 615.642,-230.017"/>
</g>
<!-- Node6&#45;&gt;Node5 -->
<g id="edge6" class="edge"><title>Node6&#45;&gt;Node5</title>
<path fill="none" stroke="midnightblue" d="M527.105,-245.298C547.651,-238.45 571.867,-230.378 591.643,-223.786"/>
<polygon fill="midnightblue" stroke="midnightblue" points="592.868,-227.067 601.248,-220.584 590.654,-220.426 592.868,-227.067"/>
</g>
<!-- Node7&#45;&gt;Node5 -->
<g id="edge8" class="edge"><title>Node7&#45;&gt;Node5</title>
<path fill="none" stroke="midnightblue" d="M527.105,-211C539.842,-211 553.989,-211 567.614,-211"/>
<polygon fill="midnightblue" stroke="midnightblue" points="567.9,-214.5 577.9,-211 567.9,-207.5 567.9,-214.5"/>
</g>
<!-- Node8&#45;&gt;Node5 -->
<g id="edge10" class="edge"><title>Node8&#45;&gt;Node5</title>
<path fill="none" stroke="midnightblue" d="M527.105,-176.702C547.651,-183.55 571.867,-191.622 591.643,-198.214"/>
<polygon fill="midnightblue" stroke="midnightblue" points="590.654,-201.574 601.248,-201.416 592.868,-194.933 590.654,-201.574"/>
</g>
<!-- Node9&#45;&gt;Node5 -->
<g id="edge12" class="edge"><title>Node9&#45;&gt;Node5</title>
<path fill="none" stroke="midnightblue" d="M523.143,-128.134C529.609,-131.1 536.108,-134.415 542,-138 568.814,-154.316 596.077,-178.327 613.005,-194.303"/>
<polygon fill="midnightblue" stroke="midnightblue" points="610.797,-197.035 620.437,-201.43 615.642,-191.983 610.797,-197.035"/>
</g>
<!-- Node11 -->
<g id="node11" class="node"><title>Node11</title>
<g id="a_node11"><a xlink:href="namespaceutf8_1_1internal.html#a31a185a6bc8b9bf454191a8a95a93595" target="_top" xlink:title="utf8::internal::is\l_surrogate">
<polygon fill="white" stroke="black" points="589,-49 589,-79 673,-79 673,-49 589,-49"/>
<text text-anchor="start" x="597" y="-67" font-family="Helvetica,sans-Serif" font-size="10.00">utf8::internal::is</text>
<text text-anchor="middle" x="631" y="-56" font-family="Helvetica,sans-Serif" font-size="10.00">_surrogate</text>
</a>
</g>
</g>
<!-- Node10&#45;&gt;Node11 -->
<g id="edge14" class="edge"><title>Node10&#45;&gt;Node11</title>
<path fill="none" stroke="midnightblue" d="M529.512,-64C545.106,-64 562.582,-64 578.532,-64"/>
<polygon fill="midnightblue" stroke="midnightblue" points="578.759,-67.5001 588.759,-64 578.759,-60.5001 578.759,-67.5001"/>
</g>
</g>
</svg>
