<?xml version="1.0" encoding="UTF-8" standalone="no"?>
<!DOCTYPE svg PUBLIC "-//W3C//DTD SVG 1.1//EN"
 "http://www.w3.org/Graphics/SVG/1.1/DTD/svg11.dtd">
<!-- Generated by graphviz version 2.36.0 (20140111.2315)
 -->
<!-- Title: CacheSystem::IsCacheValid Pages: 1 -->
<!--zoomable 355 -->
<svg id="main" version="1.1" xmlns="http://www.w3.org/2000/svg" xmlns:xlink="http://www.w3.org/1999/xlink" xml:space="preserve" onload="init(evt)">
<style type="text/css"><![CDATA[
.edge:hover path { stroke: red; }
.edge:hover polygon { stroke: red; fill: red; }
]]></style>
<script type="text/javascript"><![CDATA[
var edges = document.getElementsByTagName('g');
if (edges && edges.length) {
  for (var i=0;i<edges.length;i++) {
    if (edges[i].id.substr(0,4)=='edge') {
      edges[i].setAttribute('class','edge');
    }
  }
}
]]></script>
        <defs>
                <circle id="rim" cx="0" cy="0" r="7"/>
                <circle id="rim2" cx="0" cy="0" r="3.5"/>
                <g id="zoomPlus">
                        <use xlink:href="#rim" fill="#404040">
                                <set attributeName="fill" to="#808080" begin="zoomplus.mouseover" end="zoomplus.mouseout"/>
                        </use>
                        <path d="M-4,0h8M0,-4v8" fill="none" stroke="white" stroke-width="1.5" pointer-events="none"/>
                </g>
                <g id="zoomMin">
                        <use xlink:href="#rim" fill="#404040">
                                <set attributeName="fill" to="#808080" begin="zoomminus.mouseover" end="zoomminus.mouseout"/>
                        </use>
                        <path d="M-4,0h8" fill="none" stroke="white" stroke-width="1.5" pointer-events="none"/>
                </g>
                <g id="dirArrow">
                        <path fill="none" stroke="white" stroke-width="1.5" d="M0,-3.0v7 M-2.5,-0.5L0,-3.0L2.5,-0.5"/>
                </g>
               <g id="resetDef">
                       <use xlink:href="#rim2" fill="#404040">
                               <set attributeName="fill" to="#808080" begin="reset.mouseover" end="reset.mouseout"/>
                       </use>
               </g>
        </defs>

<script type="text/javascript">
var viewWidth = 1294;
var viewHeight = 355;
var sectionId = 'dynsection-42';
</script>
<script xlink:href="svgpan.js"/>
<svg id="graph" class="graph">
<g id="viewport">
<title>CacheSystem::IsCacheValid</title>
<polygon fill="white" stroke="none" points="-4,4 -4,-350.722 1290,-350.722 1290,4 -4,4"/>
<!-- Node1 -->
<g id="node1" class="node"><title>Node1</title>
<polygon fill="#bfbfbf" stroke="black" points="0.5,-220.5 0.5,-239.5 143.5,-239.5 143.5,-220.5 0.5,-220.5"/>
<text text-anchor="middle" x="72" y="-227.5" font-family="Helvetica,sans-Serif" font-size="10.00">CacheSystem::IsCacheValid</text>
</g>
<!-- Node2 -->
<g id="node2" class="node"><title>Node2</title>
<g id="a_node2"><a xlink:href="class_cache_system.html#a48763a6f943698105e8f2947d07e8110" target="_top" xlink:title="CacheSystem::getCacheConfig\lFilename">
<polygon fill="white" stroke="black" points="180.5,-289 180.5,-319 335.5,-319 335.5,-289 180.5,-289"/>
<text text-anchor="start" x="188.5" y="-307" font-family="Helvetica,sans-Serif" font-size="10.00">CacheSystem::getCacheConfig</text>
<text text-anchor="middle" x="258" y="-296" font-family="Helvetica,sans-Serif" font-size="10.00">Filename</text>
</a>
</g>
</g>
<!-- Node1&#45;&gt;Node2 -->
<g id="edge1" class="edge"><title>Node1&#45;&gt;Node2</title>
<path fill="none" stroke="midnightblue" d="M92.0421,-239.531C113.219,-249.94 148.59,-266.756 180,-279 185.844,-281.278 191.99,-283.521 198.156,-285.673"/>
<polygon fill="midnightblue" stroke="midnightblue" points="197.225,-289.054 207.82,-288.971 199.486,-282.429 197.225,-289.054"/>
</g>
<!-- Node3 -->
<g id="node3" class="node"><title>Node3</title>
<g id="a_node3"><a xlink:href="class_cache_system.html#aa025222e89657b72478453191ee04878" target="_top" xlink:title="CacheSystem::resourceExists\lInAllGroups">
<polygon fill="white" stroke="black" points="183,-240 183,-270 333,-270 333,-240 183,-240"/>
<text text-anchor="start" x="191" y="-258" font-family="Helvetica,sans-Serif" font-size="10.00">CacheSystem::resourceExists</text>
<text text-anchor="middle" x="258" y="-247" font-family="Helvetica,sans-Serif" font-size="10.00">InAllGroups</text>
</a>
</g>
</g>
<!-- Node1&#45;&gt;Node3 -->
<g id="edge2" class="edge"><title>Node1&#45;&gt;Node3</title>
<path fill="none" stroke="midnightblue" d="M143.087,-239.523C152.837,-240.847 162.935,-242.219 172.909,-243.575"/>
<polygon fill="midnightblue" stroke="midnightblue" points="172.443,-247.043 182.823,-244.922 173.385,-240.107 172.443,-247.043"/>
</g>
<!-- Node4 -->
<g id="node4" class="node"><title>Node4</title>
<g id="a_node4"><a xlink:href="class_improved_config_file.html#a2d25e6897fd728bc4a3751a9677eeb6d" target="_top" xlink:title="ImprovedConfigFile\l::load">
<polygon fill="white" stroke="black" points="207.5,-191 207.5,-221 308.5,-221 308.5,-191 207.5,-191"/>
<text text-anchor="start" x="215.5" y="-209" font-family="Helvetica,sans-Serif" font-size="10.00">ImprovedConfigFile</text>
<text text-anchor="middle" x="258" y="-198" font-family="Helvetica,sans-Serif" font-size="10.00">::load</text>
</a>
</g>
</g>
<!-- Node1&#45;&gt;Node4 -->
<g id="edge3" class="edge"><title>Node1&#45;&gt;Node4</title>
<path fill="none" stroke="midnightblue" d="M143.613,-220.79C161.238,-218.491 179.971,-216.047 197.026,-213.823"/>
<polygon fill="midnightblue" stroke="midnightblue" points="197.941,-217.233 207.404,-212.469 197.035,-210.292 197.941,-217.233"/>
</g>
<!-- Node5 -->
<g id="node5" class="node"><title>Node5</title>
<g id="a_node5"><a xlink:href="class_ro_r_1_1_config_file.html#a958d11a898703248fb908127888b85c0" target="_top" xlink:title="RoR::ConfigFile::GetString">
<polygon fill="white" stroke="black" points="191,-152.5 191,-171.5 325,-171.5 325,-152.5 191,-152.5"/>
<text text-anchor="middle" x="258" y="-159.5" font-family="Helvetica,sans-Serif" font-size="10.00">RoR::ConfigFile::GetString</text>
</a>
</g>
</g>
<!-- Node1&#45;&gt;Node5 -->
<g id="edge4" class="edge"><title>Node1&#45;&gt;Node5</title>
<path fill="none" stroke="midnightblue" d="M91.9344,-220.338C113.017,-209.858 148.306,-193.137 180,-182 188.055,-179.17 196.709,-176.54 205.203,-174.18"/>
<polygon fill="midnightblue" stroke="midnightblue" points="206.305,-177.508 215.056,-171.536 204.491,-170.747 206.305,-177.508"/>
</g>
<!-- Node6 -->
<g id="node6" class="node"><title>Node6</title>
<g id="a_node6"><a xlink:href="class_ro_r_1_1_config_file.html#abfd892376697c81b3636c52a19fd89a4" target="_top" xlink:title="RoR::ConfigFile::GetStringEx">
<polygon fill="white" stroke="black" points="372,-152.5 372,-171.5 518,-171.5 518,-152.5 372,-152.5"/>
<text text-anchor="middle" x="445" y="-159.5" font-family="Helvetica,sans-Serif" font-size="10.00">RoR::ConfigFile::GetStringEx</text>
</a>
</g>
</g>
<!-- Node5&#45;&gt;Node6 -->
<g id="edge5" class="edge"><title>Node5&#45;&gt;Node6</title>
<path fill="none" stroke="midnightblue" d="M325.006,-162C336.842,-162 349.31,-162 361.541,-162"/>
<polygon fill="midnightblue" stroke="midnightblue" points="361.74,-165.5 371.74,-162 361.74,-158.5 361.74,-165.5"/>
</g>
<!-- Node7 -->
<g id="node7" class="node"><title>Node7</title>
<g id="a_node7"><a xlink:href="namespace_ro_r_1_1_utils.html#ac62ee4a4a513a67cba1bdc7d9eb9c7a4" target="_top" xlink:title="RoR::Utils::SanitizeUtf8\lString">
<polygon fill="white" stroke="black" points="554.5,-147 554.5,-177 677.5,-177 677.5,-147 554.5,-147"/>
<text text-anchor="start" x="562.5" y="-165" font-family="Helvetica,sans-Serif" font-size="10.00">RoR::Utils::SanitizeUtf8</text>
<text text-anchor="middle" x="616" y="-154" font-family="Helvetica,sans-Serif" font-size="10.00">String</text>
</a>
</g>
</g>
<!-- Node6&#45;&gt;Node7 -->
<g id="edge6" class="edge"><title>Node6&#45;&gt;Node7</title>
<path fill="none" stroke="midnightblue" d="M518.161,-162C526.802,-162 535.619,-162 544.239,-162"/>
<polygon fill="midnightblue" stroke="midnightblue" points="544.246,-165.5 554.246,-162 544.246,-158.5 544.246,-165.5"/>
</g>
<!-- Node8 -->
<g id="node8" class="node"><title>Node8</title>
<g id="a_node8"><a xlink:href="namespaceutf8.html#a07dcd36a2185e5c9f0b19dd88859cd6c" target="_top" xlink:title="utf8::replace_invalid">
<polygon fill="white" stroke="black" points="714,-152.5 714,-171.5 818,-171.5 818,-152.5 714,-152.5"/>
<text text-anchor="middle" x="766" y="-159.5" font-family="Helvetica,sans-Serif" font-size="10.00">utf8::replace_invalid</text>
</a>
</g>
</g>
<!-- Node7&#45;&gt;Node8 -->
<g id="edge7" class="edge"><title>Node7&#45;&gt;Node8</title>
<path fill="none" stroke="midnightblue" d="M677.624,-162C686.137,-162 694.895,-162 703.425,-162"/>
<polygon fill="midnightblue" stroke="midnightblue" points="703.686,-165.5 713.686,-162 703.686,-158.5 703.686,-165.5"/>
</g>
<!-- Node9 -->
<g id="node9" class="node"><title>Node9</title>
<g id="a_node9"><a xlink:href="namespaceutf8_1_1internal.html#abe95547575fcc81911e381df03f8ebfe" target="_top" xlink:title="utf8::internal::validate_next">
<polygon fill="white" stroke="black" points="854,-152.5 854,-171.5 988,-171.5 988,-152.5 854,-152.5"/>
<text text-anchor="middle" x="921" y="-159.5" font-family="Helvetica,sans-Serif" font-size="10.00">utf8::internal::validate_next</text>
</a>
</g>
</g>
<!-- Node8&#45;&gt;Node9 -->
<g id="edge8" class="edge"><title>Node8&#45;&gt;Node9</title>
<path fill="none" stroke="midnightblue" d="M818.372,-162C826.546,-162 835.151,-162 843.751,-162"/>
<polygon fill="midnightblue" stroke="midnightblue" points="843.819,-165.5 853.819,-162 843.819,-158.5 843.819,-165.5"/>
</g>
<!-- Node19 -->
<g id="node19" class="node"><title>Node19</title>
<g id="a_node19"><a xlink:href="namespaceutf8.html#a3827e78596fc38cfdebd721e9c45c901" target="_top" xlink:title="The library API &#45; functions intended to be called by the users. ">
<polygon fill="white" stroke="black" points="885.5,-60.5 885.5,-79.5 956.5,-79.5 956.5,-60.5 885.5,-60.5"/>
<text text-anchor="middle" x="921" y="-67.5" font-family="Helvetica,sans-Serif" font-size="10.00">utf8::append</text>
</a>
</g>
</g>
<!-- Node8&#45;&gt;Node19 -->
<g id="edge22" class="edge"><title>Node8&#45;&gt;Node19</title>
<path fill="none" stroke="midnightblue" d="M783.085,-152.328C809.899,-136.204 863.904,-103.731 895.483,-84.7425"/>
<polygon fill="midnightblue" stroke="midnightblue" points="897.365,-87.6949 904.131,-79.5421 893.757,-81.6959 897.365,-87.6949"/>
</g>
<!-- Node20 -->
<g id="node20" class="node"><title>Node20</title>
<g id="a_node20"><a xlink:href="namespaceutf8_1_1internal.html#ab4820484159ba613b4901476ceb24516" target="_top" xlink:title="utf8::internal::is\l_trail">
<polygon fill="white" stroke="black" points="879,-264 879,-294 963,-294 963,-264 879,-264"/>
<text text-anchor="start" x="887" y="-282" font-family="Helvetica,sans-Serif" font-size="10.00">utf8::internal::is</text>
<text text-anchor="middle" x="921" y="-271" font-family="Helvetica,sans-Serif" font-size="10.00">_trail</text>
</a>
</g>
</g>
<!-- Node8&#45;&gt;Node20 -->
<g id="edge24" class="edge"><title>Node8&#45;&gt;Node20</title>
<path fill="none" stroke="midnightblue" d="M779.521,-171.575C803.996,-190.291 858.707,-232.129 892.171,-257.719"/>
<polygon fill="midnightblue" stroke="midnightblue" points="890.119,-260.556 900.189,-263.85 894.372,-254.996 890.119,-260.556"/>
</g>
<!-- Node10 -->
<g id="node10" class="node"><title>Node10</title>
<g id="a_node10"><a xlink:href="namespaceutf8_1_1internal.html#aadbe437cba7bfcc4df2638f633e9787c" target="_top" xlink:title="utf8::internal::sequence\l_length">
<polygon fill="white" stroke="black" points="1024.5,-147 1024.5,-177 1143.5,-177 1143.5,-147 1024.5,-147"/>
<text text-anchor="start" x="1032.5" y="-165" font-family="Helvetica,sans-Serif" font-size="10.00">utf8::internal::sequence</text>
<text text-anchor="middle" x="1084" y="-154" font-family="Helvetica,sans-Serif" font-size="10.00">_length</text>
</a>
</g>
</g>
<!-- Node9&#45;&gt;Node10 -->
<g id="edge9" class="edge"><title>Node9&#45;&gt;Node10</title>
<path fill="none" stroke="midnightblue" d="M988.414,-162C997.006,-162 1005.82,-162 1014.44,-162"/>
<polygon fill="midnightblue" stroke="midnightblue" points="1014.46,-165.5 1024.46,-162 1014.46,-158.5 1014.46,-165.5"/>
</g>
<!-- Node12 -->
<g id="node12" class="node"><title>Node12</title>
<g id="a_node12"><a xlink:href="namespaceutf8_1_1internal.html#a6e5df73716136aec55e8fcf3309038b6" target="_top" xlink:title="get_sequence_x functions decode utf&#45;8 sequences of the length x ">
<polygon fill="white" stroke="black" points="1039,-98 1039,-128 1129,-128 1129,-98 1039,-98"/>
<text text-anchor="start" x="1047" y="-116" font-family="Helvetica,sans-Serif" font-size="10.00">utf8::internal::get</text>
<text text-anchor="middle" x="1084" y="-105" font-family="Helvetica,sans-Serif" font-size="10.00">_sequence_1</text>
</a>
</g>
</g>
<!-- Node9&#45;&gt;Node12 -->
<g id="edge11" class="edge"><title>Node9&#45;&gt;Node12</title>
<path fill="none" stroke="midnightblue" d="M953.425,-152.436C974.914,-145.896 1003.95,-137.059 1029.09,-129.408"/>
<polygon fill="midnightblue" stroke="midnightblue" points="1030.32,-132.693 1038.86,-126.432 1028.28,-125.996 1030.32,-132.693"/>
</g>
<!-- Node13 -->
<g id="node13" class="node"><title>Node13</title>
<g id="a_node13"><a xlink:href="namespaceutf8_1_1internal.html#a9d641b9546be985f9f0fd4955ac42a24" target="_top" xlink:title="utf8::internal::get\l_sequence_2">
<polygon fill="white" stroke="black" points="1039,-49 1039,-79 1129,-79 1129,-49 1039,-49"/>
<text text-anchor="start" x="1047" y="-67" font-family="Helvetica,sans-Serif" font-size="10.00">utf8::internal::get</text>
<text text-anchor="middle" x="1084" y="-56" font-family="Helvetica,sans-Serif" font-size="10.00">_sequence_2</text>
</a>
</g>
</g>
<!-- Node9&#45;&gt;Node13 -->
<g id="edge13" class="edge"><title>Node9&#45;&gt;Node13</title>
<path fill="none" stroke="midnightblue" d="M933.672,-152.332C952.054,-137.418 989.24,-108.488 1024,-89 1027.45,-87.0661 1031.08,-85.1873 1034.77,-83.3855"/>
<polygon fill="midnightblue" stroke="midnightblue" points="1036.43,-86.4749 1044.01,-79.0779 1033.47,-80.1302 1036.43,-86.4749"/>
</g>
<!-- Node14 -->
<g id="node14" class="node"><title>Node14</title>
<g id="a_node14"><a xlink:href="namespaceutf8_1_1internal.html#ac1809a1fb3fa6983d64a0d3a39646008" target="_top" xlink:title="utf8::internal::get\l_sequence_3">
<polygon fill="white" stroke="black" points="1039,-294 1039,-324 1129,-324 1129,-294 1039,-294"/>
<text text-anchor="start" x="1047" y="-312" font-family="Helvetica,sans-Serif" font-size="10.00">utf8::internal::get</text>
<text text-anchor="middle" x="1084" y="-301" font-family="Helvetica,sans-Serif" font-size="10.00">_sequence_3</text>
</a>
</g>
</g>
<!-- Node9&#45;&gt;Node14 -->
<g id="edge15" class="edge"><title>Node9&#45;&gt;Node14</title>
<path fill="none" stroke="midnightblue" d="M927.719,-171.564C941.588,-194.035 979.189,-250.802 1024,-284 1026.35,-285.738 1028.83,-287.383 1031.4,-288.935"/>
<polygon fill="midnightblue" stroke="midnightblue" points="1029.95,-292.128 1040.4,-293.856 1033.31,-285.987 1029.95,-292.128"/>
</g>
<!-- Node15 -->
<g id="node15" class="node"><title>Node15</title>
<g id="a_node15"><a xlink:href="namespaceutf8_1_1internal.html#ad1958e7c6746ba6b1fbb0d81b88b346c" target="_top" xlink:title="utf8::internal::get\l_sequence_4">
<polygon fill="white" stroke="black" points="1039,-196 1039,-226 1129,-226 1129,-196 1039,-196"/>
<text text-anchor="start" x="1047" y="-214" font-family="Helvetica,sans-Serif" font-size="10.00">utf8::internal::get</text>
<text text-anchor="middle" x="1084" y="-203" font-family="Helvetica,sans-Serif" font-size="10.00">_sequence_4</text>
</a>
</g>
</g>
<!-- Node9&#45;&gt;Node15 -->
<g id="edge17" class="edge"><title>Node9&#45;&gt;Node15</title>
<path fill="none" stroke="midnightblue" d="M953.425,-171.564C974.914,-178.104 1003.95,-186.941 1029.09,-194.592"/>
<polygon fill="midnightblue" stroke="midnightblue" points="1028.28,-198.004 1038.86,-197.568 1030.32,-191.307 1028.28,-198.004"/>
</g>
<!-- Node16 -->
<g id="node16" class="node"><title>Node16</title>
<g id="a_node16"><a xlink:href="namespaceutf8_1_1internal.html#a97b553137aaeda6e8ca6f8d46f78fd79" target="_top" xlink:title="utf8::internal::is\l_code_point_valid">
<polygon fill="white" stroke="black" points="1036.5,-0 1036.5,-30 1131.5,-30 1131.5,-0 1036.5,-0"/>
<text text-anchor="start" x="1044.5" y="-18" font-family="Helvetica,sans-Serif" font-size="10.00">utf8::internal::is</text>
<text text-anchor="middle" x="1084" y="-7" font-family="Helvetica,sans-Serif" font-size="10.00">_code_point_valid</text>
</a>
</g>
</g>
<!-- Node9&#45;&gt;Node16 -->
<g id="edge19" class="edge"><title>Node9&#45;&gt;Node16</title>
<path fill="none" stroke="midnightblue" d="M931.325,-152.387C944.445,-138.708 968.888,-112.656 988,-89 1005.21,-67.7 1002.48,-55.9304 1024,-39 1025.6,-37.7437 1027.27,-36.5441 1029,-35.3995"/>
<polygon fill="midnightblue" stroke="midnightblue" points="1031.15,-38.1973 1038.01,-30.1276 1027.61,-32.1548 1031.15,-38.1973"/>
</g>
<!-- Node18 -->
<g id="node18" class="node"><title>Node18</title>
<g id="a_node18"><a xlink:href="namespaceutf8_1_1internal.html#a3160f6f24dff465f64f83cb0e66995c6" target="_top" xlink:title="utf8::internal::is\l_overlong_sequence">
<polygon fill="white" stroke="black" points="1031,-245 1031,-275 1137,-275 1137,-245 1031,-245"/>
<text text-anchor="start" x="1039" y="-263" font-family="Helvetica,sans-Serif" font-size="10.00">utf8::internal::is</text>
<text text-anchor="middle" x="1084" y="-252" font-family="Helvetica,sans-Serif" font-size="10.00">_overlong_sequence</text>
</a>
</g>
</g>
<!-- Node9&#45;&gt;Node18 -->
<g id="edge21" class="edge"><title>Node9&#45;&gt;Node18</title>
<path fill="none" stroke="midnightblue" d="M933.672,-171.668C952.054,-186.582 989.24,-215.512 1024,-235 1027.45,-236.934 1031.08,-238.813 1034.77,-240.615"/>
<polygon fill="midnightblue" stroke="midnightblue" points="1033.47,-243.87 1044.01,-244.922 1036.43,-237.525 1033.47,-243.87"/>
</g>
<!-- Node11 -->
<g id="node11" class="node"><title>Node11</title>
<g id="a_node11"><a xlink:href="namespaceutf8_1_1internal.html#adf6e0469e279b9562aa461b4c3c1e7e4" target="_top" xlink:title="utf8::internal::mask8">
<polygon fill="white" stroke="black" points="1180,-176.5 1180,-195.5 1286,-195.5 1286,-176.5 1180,-176.5"/>
<text text-anchor="middle" x="1233" y="-183.5" font-family="Helvetica,sans-Serif" font-size="10.00">utf8::internal::mask8</text>
</a>
</g>
</g>
<!-- Node10&#45;&gt;Node11 -->
<g id="edge10" class="edge"><title>Node10&#45;&gt;Node11</title>
<path fill="none" stroke="midnightblue" d="M1143.52,-171.554C1152.15,-172.964 1161.07,-174.42 1169.78,-175.841"/>
<polygon fill="midnightblue" stroke="midnightblue" points="1169.43,-179.331 1179.86,-177.488 1170.56,-172.422 1169.43,-179.331"/>
</g>
<!-- Node12&#45;&gt;Node11 -->
<g id="edge12" class="edge"><title>Node12&#45;&gt;Node11</title>
<path fill="none" stroke="midnightblue" d="M1122.07,-128.05C1129.4,-131.208 1136.99,-134.612 1144,-138 1165.55,-148.412 1189.34,-161.49 1206.75,-171.365"/>
<polygon fill="midnightblue" stroke="midnightblue" points="1205.29,-174.562 1215.71,-176.484 1208.76,-168.484 1205.29,-174.562"/>
</g>
<!-- Node13&#45;&gt;Node11 -->
<g id="edge14" class="edge"><title>Node13&#45;&gt;Node11</title>
<path fill="none" stroke="midnightblue" d="M1126.85,-79.0282C1132.83,-81.9386 1138.74,-85.2646 1144,-89 1175.63,-111.46 1204.19,-147.071 1219.72,-168.325"/>
<polygon fill="midnightblue" stroke="midnightblue" points="1216.89,-170.377 1225.55,-176.474 1222.58,-166.305 1216.89,-170.377"/>
</g>
<!-- Node14&#45;&gt;Node11 -->
<g id="edge16" class="edge"><title>Node14&#45;&gt;Node11</title>
<path fill="none" stroke="midnightblue" d="M1126.86,-293.996C1132.85,-291.082 1138.75,-287.749 1144,-284 1175.76,-261.332 1204.27,-225.346 1219.76,-203.865"/>
<polygon fill="midnightblue" stroke="midnightblue" points="1222.67,-205.817 1225.57,-195.628 1216.95,-201.781 1222.67,-205.817"/>
</g>
<!-- Node15&#45;&gt;Node11 -->
<g id="edge18" class="edge"><title>Node15&#45;&gt;Node11</title>
<path fill="none" stroke="midnightblue" d="M1129.1,-203.499C1141.97,-201.312 1156.27,-198.88 1170.01,-196.542"/>
<polygon fill="midnightblue" stroke="midnightblue" points="1170.63,-199.988 1179.9,-194.861 1169.45,-193.087 1170.63,-199.988"/>
</g>
<!-- Node17 -->
<g id="node17" class="node"><title>Node17</title>
<g id="a_node17"><a xlink:href="namespaceutf8_1_1internal.html#a31a185a6bc8b9bf454191a8a95a93595" target="_top" xlink:title="utf8::internal::is\l_surrogate">
<polygon fill="white" stroke="black" points="1191,-0 1191,-30 1275,-30 1275,-0 1191,-0"/>
<text text-anchor="start" x="1199" y="-18" font-family="Helvetica,sans-Serif" font-size="10.00">utf8::internal::is</text>
<text text-anchor="middle" x="1233" y="-7" font-family="Helvetica,sans-Serif" font-size="10.00">_surrogate</text>
</a>
</g>
</g>
<!-- Node16&#45;&gt;Node17 -->
<g id="edge20" class="edge"><title>Node16&#45;&gt;Node17</title>
<path fill="none" stroke="midnightblue" d="M1131.51,-15C1147.11,-15 1164.58,-15 1180.53,-15"/>
<polygon fill="midnightblue" stroke="midnightblue" points="1180.76,-18.5001 1190.76,-15 1180.76,-11.5001 1180.76,-18.5001"/>
</g>
<!-- Node19&#45;&gt;Node16 -->
<g id="edge23" class="edge"><title>Node19&#45;&gt;Node16</title>
<path fill="none" stroke="midnightblue" d="M950.044,-60.4197C971.869,-52.964 1002.81,-42.3956 1029.35,-33.3291"/>
<polygon fill="midnightblue" stroke="midnightblue" points="1030.57,-36.6102 1038.9,-30.0654 1028.31,-29.9861 1030.57,-36.6102"/>
</g>
<!-- Node20&#45;&gt;Node11 -->
<g id="edge25" class="edge"><title>Node20&#45;&gt;Node11</title>
<path fill="none" stroke="midnightblue" d="M943.617,-294.06C985.042,-320.889 1077.4,-370.752 1144,-333 1192.82,-305.326 1217.48,-238.598 1227.07,-205.413"/>
<polygon fill="midnightblue" stroke="midnightblue" points="1230.51,-206.118 1229.76,-195.55 1223.75,-204.277 1230.51,-206.118"/>
</g>
</g>
</svg>
        <g id="navigator" transform="translate(0 0)" fill="#404254">
                <rect fill="#f2f5e9" fill-opacity="0.5" stroke="#606060" stroke-width=".5" x="0" y="0" width="60" height="60"/>
                <use id="zoomplus" xlink:href="#zoomPlus" x="17" y="9" onmousedown="handleZoom(evt,'in')"/>
                <use id="zoomminus" xlink:href="#zoomMin" x="42" y="9" onmousedown="handleZoom(evt,'out')"/>
                <use id="reset" xlink:href="#resetDef" x="30" y="36" onmousedown="handleReset()"/>
                <g id="arrowUp" xlink:href="#dirArrow" transform="translate(30 24)" onmousedown="handlePan(0,-1)">
                  <use xlink:href="#rim" fill="#404040">
                        <set attributeName="fill" to="#808080" begin="arrowUp.mouseover" end="arrowUp.mouseout"/>
                  </use>
                  <path fill="none" stroke="white" stroke-width="1.5" d="M0,-3.0v7 M-2.5,-0.5L0,-3.0L2.5,-0.5"/>
                </g>
                <g id="arrowRight" xlink:href="#dirArrow" transform="rotate(90) translate(36 -43)" onmousedown="handlePan(1,0)">
                  <use xlink:href="#rim" fill="#404040">
                        <set attributeName="fill" to="#808080" begin="arrowRight.mouseover" end="arrowRight.mouseout"/>
                  </use>
                  <path fill="none" stroke="white" stroke-width="1.5" d="M0,-3.0v7 M-2.5,-0.5L0,-3.0L2.5,-0.5"/>
                </g>
                <g id="arrowDown" xlink:href="#dirArrow" transform="rotate(180) translate(-30 -48)" onmousedown="handlePan(0,1)">
                  <use xlink:href="#rim" fill="#404040">
                        <set attributeName="fill" to="#808080" begin="arrowDown.mouseover" end="arrowDown.mouseout"/>
                  </use>
                  <path fill="none" stroke="white" stroke-width="1.5" d="M0,-3.0v7 M-2.5,-0.5L0,-3.0L2.5,-0.5"/>
                </g>
                <g id="arrowLeft" xlink:href="#dirArrow" transform="rotate(270) translate(-36 17)" onmousedown="handlePan(-1,0)">
                  <use xlink:href="#rim" fill="#404040">
                        <set attributeName="fill" to="#808080" begin="arrowLeft.mouseover" end="arrowLeft.mouseout"/>
                  </use>
                  <path fill="none" stroke="white" stroke-width="1.5" d="M0,-3.0v7 M-2.5,-0.5L0,-3.0L2.5,-0.5"/>
                </g>
        </g>
        <svg viewBox="0 0 15 15" width="100%" height="30px" preserveAspectRatio="xMaxYMin meet">
         <g id="arrow_out" transform="scale(0.3 0.3)">
          <a xlink:href="class_cache_system_a51fe1554d751cdaeab716e7a4255bd8a_cgraph_org.svg" target="_base">
           <rect id="button" ry="5" rx="5" y="6" x="6" height="38" width="38"
                fill="#f2f5e9" fill-opacity="0.5" stroke="#606060" stroke-width="1.0"/>
           <path id="arrow"
             d="M 11.500037,31.436501 C 11.940474,20.09759 22.043105,11.32322 32.158766,21.979434 L 37.068811,17.246167 C 37.068811,17.246167 37.088388,32 37.088388,32 L 22.160133,31.978069 C 22.160133,31.978069 26.997745,27.140456 26.997745,27.140456 C 18.528582,18.264221 13.291696,25.230495 11.500037,31.436501 z"
             style="fill:#404040;"/>
          </a>
         </g>
        </svg>
</svg>
