<?xml version="1.0" encoding="UTF-8" standalone="no"?>
<!DOCTYPE svg PUBLIC "-//W3C//DTD SVG 1.1//EN"
 "http://www.w3.org/Graphics/SVG/1.1/DTD/svg11.dtd">
<!-- Generated by graphviz version 2.36.0 (20140111.2315)
 -->
<!-- Title: RigDef::Parser::ParseFixes Pages: 1 -->
<svg width="716pt" height="93pt"
 viewBox="0.00 0.00 716.00 93.00" xmlns="http://www.w3.org/2000/svg" xmlns:xlink="http://www.w3.org/1999/xlink">
<g id="graph0" class="graph" transform="scale(1 1) rotate(0) translate(4 89)">
<title>RigDef::Parser::ParseFixes</title>
<polygon fill="white" stroke="none" points="-4,4 -4,-89 712,-89 712,4 -4,4"/>
<!-- Node1 -->
<g id="node1" class="node"><title>Node1</title>
<polygon fill="#bfbfbf" stroke="black" points="0.5,-19.5 0.5,-38.5 137.5,-38.5 137.5,-19.5 0.5,-19.5"/>
<text text-anchor="middle" x="69" y="-26.5" font-family="Helvetica,sans-Serif" font-size="10.00">RigDef::Parser::ParseFixes</text>
</g>
<!-- Node2 -->
<g id="node2" class="node"><title>Node2</title>
<g id="a_node2"><a xlink:href="class_rig_def_1_1_parser.html#a57b7efa0a566ae343d6148a05d420eae" target="_top" xlink:title="RigDef::Parser::GetArgNodeRef">
<polygon fill="white" stroke="black" points="174,-19.5 174,-38.5 332,-38.5 332,-19.5 174,-19.5"/>
<text text-anchor="middle" x="253" y="-26.5" font-family="Helvetica,sans-Serif" font-size="10.00">RigDef::Parser::GetArgNodeRef</text>
</a>
</g>
</g>
<!-- Node1&#45;&gt;Node2 -->
<g id="edge1" class="edge"><title>Node1&#45;&gt;Node2</title>
<path fill="none" stroke="midnightblue" d="M137.511,-29C146.019,-29 154.82,-29 163.589,-29"/>
<polygon fill="midnightblue" stroke="midnightblue" points="163.849,-32.5001 173.849,-29 163.849,-25.5001 163.849,-32.5001"/>
</g>
<!-- Node3 -->
<g id="node3" class="node"><title>Node3</title>
<g id="a_node3"><a xlink:href="class_rig_def_1_1_parser.html#a38e4135df406da0cc2f0fc4afb34ddb3" target="_top" xlink:title="RigDef::Parser::_ParseNodeRef">
<polygon fill="white" stroke="black" points="368,-38.5 368,-57.5 526,-57.5 526,-38.5 368,-38.5"/>
<text text-anchor="middle" x="447" y="-45.5" font-family="Helvetica,sans-Serif" font-size="10.00">RigDef::Parser::_ParseNodeRef</text>
</a>
</g>
</g>
<!-- Node2&#45;&gt;Node3 -->
<g id="edge2" class="edge"><title>Node2&#45;&gt;Node3</title>
<path fill="none" stroke="midnightblue" d="M332.094,-36.728C340.601,-37.5698 349.302,-38.4309 357.918,-39.2835"/>
<polygon fill="midnightblue" stroke="midnightblue" points="357.679,-42.7769 367.975,-40.2788 358.369,-35.811 357.679,-42.7769"/>
</g>
<!-- Node6 -->
<g id="node6" class="node"><title>Node6</title>
<g id="a_node6"><a xlink:href="class_rig_def_1_1_parser.html#a629f3ff2e6181f7953ec28168b0aac00" target="_top" xlink:title="RigDef::Parser::GetArgStr">
<polygon fill="white" stroke="black" points="381.5,-0.5 381.5,-19.5 512.5,-19.5 512.5,-0.5 381.5,-0.5"/>
<text text-anchor="middle" x="447" y="-7.5" font-family="Helvetica,sans-Serif" font-size="10.00">RigDef::Parser::GetArgStr</text>
</a>
</g>
</g>
<!-- Node2&#45;&gt;Node6 -->
<g id="edge5" class="edge"><title>Node2&#45;&gt;Node6</title>
<path fill="none" stroke="midnightblue" d="M332.094,-21.272C345.037,-19.9911 358.431,-18.6657 371.288,-17.3933"/>
<polygon fill="midnightblue" stroke="midnightblue" points="371.859,-20.854 381.466,-16.3862 371.17,-13.8881 371.859,-20.854"/>
</g>
<!-- Node4 -->
<g id="node4" class="node"><title>Node4</title>
<g id="a_node4"><a xlink:href="class_rig_def_1_1_sequential_importer.html#a04d293d8b1f94b9a722e83715911e547" target="_top" xlink:title="RigDef::SequentialImporter\l::IsEnabled">
<polygon fill="white" stroke="black" points="567.5,-55 567.5,-85 702.5,-85 702.5,-55 567.5,-55"/>
<text text-anchor="start" x="575.5" y="-73" font-family="Helvetica,sans-Serif" font-size="10.00">RigDef::SequentialImporter</text>
<text text-anchor="middle" x="635" y="-62" font-family="Helvetica,sans-Serif" font-size="10.00">::IsEnabled</text>
</a>
</g>
</g>
<!-- Node3&#45;&gt;Node4 -->
<g id="edge3" class="edge"><title>Node3&#45;&gt;Node4</title>
<path fill="none" stroke="midnightblue" d="M526.072,-57.2344C536.362,-58.4514 546.902,-59.698 557.17,-60.9126"/>
<polygon fill="midnightblue" stroke="midnightblue" points="556.987,-64.4153 567.329,-62.1142 557.809,-57.4637 556.987,-64.4153"/>
</g>
<!-- Node5 -->
<g id="node5" class="node"><title>Node5</title>
<g id="a_node5"><a xlink:href="class_rig_def_1_1_parser.html#a7da949423835fe3241f2ac4c5ac8ebb1" target="_top" xlink:title="Adds a message to parser report. ">
<polygon fill="white" stroke="black" points="562.5,-16.5 562.5,-35.5 707.5,-35.5 707.5,-16.5 562.5,-16.5"/>
<text text-anchor="middle" x="635" y="-23.5" font-family="Helvetica,sans-Serif" font-size="10.00">RigDef::Parser::AddMessage</text>
</a>
</g>
</g>
<!-- Node3&#45;&gt;Node5 -->
<g id="edge4" class="edge"><title>Node3&#45;&gt;Node5</title>
<path fill="none" stroke="midnightblue" d="M526.072,-38.7656C534.718,-37.743 543.541,-36.6994 552.231,-35.6716"/>
<polygon fill="midnightblue" stroke="midnightblue" points="552.833,-39.1248 562.353,-34.4744 552.011,-32.1733 552.833,-39.1248"/>
</g>
</g>
</svg>
