<?xml version="1.0" encoding="UTF-8" standalone="no"?>
<!DOCTYPE svg PUBLIC "-//W3C//DTD SVG 1.1//EN"
 "http://www.w3.org/Graphics/SVG/1.1/DTD/svg11.dtd">
<!-- Generated by graphviz version 2.36.0 (20140111.2315)
 -->
<!-- Title: RigDef::Parser::ParseFlaresUnified Pages: 1 -->
<svg width="722pt" height="254pt"
 viewBox="0.00 0.00 722.00 254.00" xmlns="http://www.w3.org/2000/svg" xmlns:xlink="http://www.w3.org/1999/xlink">
<g id="graph0" class="graph" transform="scale(1 1) rotate(0) translate(4 250)">
<title>RigDef::Parser::ParseFlaresUnified</title>
<polygon fill="white" stroke="none" points="-4,4 -4,-250 718,-250 718,4 -4,4"/>
<!-- Node1 -->
<g id="node1" class="node"><title>Node1</title>
<polygon fill="#bfbfbf" stroke="black" points="0,-101 0,-131 140,-131 140,-101 0,-101"/>
<text text-anchor="start" x="8" y="-119" font-family="Helvetica,sans-Serif" font-size="10.00">RigDef::Parser::ParseFlares</text>
<text text-anchor="middle" x="70" y="-108" font-family="Helvetica,sans-Serif" font-size="10.00">Unified</text>
</g>
<!-- Node2 -->
<g id="node2" class="node"><title>Node2</title>
<g id="a_node2"><a xlink:href="class_rig_def_1_1_parser.html#a8397c243299359e21a84243c01ca43bf" target="_top" xlink:title="RigDef::Parser::CheckNum\lArguments">
<polygon fill="white" stroke="black" points="384.5,-120 384.5,-150 521.5,-150 521.5,-120 384.5,-120"/>
<text text-anchor="start" x="392.5" y="-138" font-family="Helvetica,sans-Serif" font-size="10.00">RigDef::Parser::CheckNum</text>
<text text-anchor="middle" x="453" y="-127" font-family="Helvetica,sans-Serif" font-size="10.00">Arguments</text>
</a>
</g>
</g>
<!-- Node1&#45;&gt;Node2 -->
<g id="edge1" class="edge"><title>Node1&#45;&gt;Node2</title>
<path fill="none" stroke="midnightblue" d="M140.438,-119.463C206.38,-122.751 305.368,-127.688 373.999,-131.11"/>
<polygon fill="midnightblue" stroke="midnightblue" points="374.158,-134.622 384.32,-131.625 374.506,-127.631 374.158,-134.622"/>
</g>
<!-- Node4 -->
<g id="node4" class="node"><title>Node4</title>
<g id="a_node4"><a xlink:href="class_rig_def_1_1_parser.html#a57b7efa0a566ae343d6148a05d420eae" target="_top" xlink:title="RigDef::Parser::GetArgNodeRef">
<polygon fill="white" stroke="black" points="178,-11.5 178,-30.5 336,-30.5 336,-11.5 178,-11.5"/>
<text text-anchor="middle" x="257" y="-18.5" font-family="Helvetica,sans-Serif" font-size="10.00">RigDef::Parser::GetArgNodeRef</text>
</a>
</g>
</g>
<!-- Node1&#45;&gt;Node4 -->
<g id="edge3" class="edge"><title>Node1&#45;&gt;Node4</title>
<path fill="none" stroke="midnightblue" d="M89.6731,-100.785C109.887,-84.9556 143.594,-60.3757 176,-45 185.431,-40.5251 195.885,-36.6691 206.04,-33.4377"/>
<polygon fill="midnightblue" stroke="midnightblue" points="207.085,-36.7784 215.642,-30.5311 205.056,-30.0786 207.085,-36.7784"/>
</g>
<!-- Node7 -->
<g id="node7" class="node"><title>Node7</title>
<g id="a_node7"><a xlink:href="class_rig_def_1_1_parser.html#a629f3ff2e6181f7953ec28168b0aac00" target="_top" xlink:title="RigDef::Parser::GetArgStr">
<polygon fill="white" stroke="black" points="387.5,-43.5 387.5,-62.5 518.5,-62.5 518.5,-43.5 387.5,-43.5"/>
<text text-anchor="middle" x="453" y="-50.5" font-family="Helvetica,sans-Serif" font-size="10.00">RigDef::Parser::GetArgStr</text>
</a>
</g>
</g>
<!-- Node1&#45;&gt;Node7 -->
<g id="edge16" class="edge"><title>Node1&#45;&gt;Node7</title>
<path fill="none" stroke="midnightblue" d="M105.807,-100.848C125.937,-92.7377 151.966,-83.3438 176,-78 243.095,-63.0817 321.255,-57.0282 377.237,-54.5914"/>
<polygon fill="midnightblue" stroke="midnightblue" points="377.575,-58.0806 387.425,-54.1771 377.291,-51.0864 377.575,-58.0806"/>
</g>
<!-- Node8 -->
<g id="node8" class="node"><title>Node8</title>
<g id="a_node8"><a xlink:href="class_rig_def_1_1_parser.html#ae77a4970494c116e98a92be7a0160a16" target="_top" xlink:title="RigDef::Parser::GetArgFloat">
<polygon fill="white" stroke="black" points="187,-226.5 187,-245.5 327,-245.5 327,-226.5 187,-226.5"/>
<text text-anchor="middle" x="257" y="-233.5" font-family="Helvetica,sans-Serif" font-size="10.00">RigDef::Parser::GetArgFloat</text>
</a>
</g>
</g>
<!-- Node1&#45;&gt;Node8 -->
<g id="edge8" class="edge"><title>Node1&#45;&gt;Node8</title>
<path fill="none" stroke="midnightblue" d="M87.9718,-131.169C108.051,-148.649 142.939,-177.583 176,-198 190.917,-207.212 208.417,-215.757 223.239,-222.401"/>
<polygon fill="midnightblue" stroke="midnightblue" points="221.975,-225.668 232.539,-226.48 224.787,-219.258 221.975,-225.668"/>
</g>
<!-- Node9 -->
<g id="node9" class="node"><title>Node9</title>
<g id="a_node9"><a xlink:href="class_rig_def_1_1_parser.html#a2f5b0003ac64bcfb1341890e4c0657b2" target="_top" xlink:title="RigDef::Parser::GetArgFlareType">
<polygon fill="white" stroke="black" points="176,-169.5 176,-188.5 338,-188.5 338,-169.5 176,-169.5"/>
<text text-anchor="middle" x="257" y="-176.5" font-family="Helvetica,sans-Serif" font-size="10.00">RigDef::Parser::GetArgFlareType</text>
</a>
</g>
</g>
<!-- Node1&#45;&gt;Node9 -->
<g id="edge10" class="edge"><title>Node1&#45;&gt;Node9</title>
<path fill="none" stroke="midnightblue" d="M115.312,-131.09C146.717,-141.785 188.403,-155.981 218.232,-166.138"/>
<polygon fill="midnightblue" stroke="midnightblue" points="217.266,-169.507 227.861,-169.417 219.523,-162.881 217.266,-169.507"/>
</g>
<!-- Node11 -->
<g id="node11" class="node"><title>Node11</title>
<g id="a_node11"><a xlink:href="class_rig_def_1_1_parser.html#a635bdc3c7493275fc05f91d51c11945b" target="_top" xlink:title="RigDef::Parser::GetArgInt">
<polygon fill="white" stroke="black" points="192,-87.5 192,-106.5 322,-106.5 322,-87.5 192,-87.5"/>
<text text-anchor="middle" x="257" y="-94.5" font-family="Helvetica,sans-Serif" font-size="10.00">RigDef::Parser::GetArgInt</text>
</a>
</g>
</g>
<!-- Node1&#45;&gt;Node11 -->
<g id="edge13" class="edge"><title>Node1&#45;&gt;Node11</title>
<path fill="none" stroke="midnightblue" d="M140.15,-108.898C153.644,-107.512 167.848,-106.053 181.507,-104.651"/>
<polygon fill="midnightblue" stroke="midnightblue" points="182.235,-108.094 191.825,-103.591 181.52,-101.131 182.235,-108.094"/>
</g>
<!-- Node3 -->
<g id="node3" class="node"><title>Node3</title>
<g id="a_node3"><a xlink:href="class_rig_def_1_1_parser.html#a7da949423835fe3241f2ac4c5ac8ebb1" target="_top" xlink:title="Adds a message to parser report. ">
<polygon fill="white" stroke="black" points="568.5,-125.5 568.5,-144.5 713.5,-144.5 713.5,-125.5 568.5,-125.5"/>
<text text-anchor="middle" x="641" y="-132.5" font-family="Helvetica,sans-Serif" font-size="10.00">RigDef::Parser::AddMessage</text>
</a>
</g>
</g>
<!-- Node2&#45;&gt;Node3 -->
<g id="edge2" class="edge"><title>Node2&#45;&gt;Node3</title>
<path fill="none" stroke="midnightblue" d="M521.676,-135C533.524,-135 545.966,-135 558.148,-135"/>
<polygon fill="midnightblue" stroke="midnightblue" points="558.302,-138.5 568.302,-135 558.302,-131.5 558.302,-138.5"/>
</g>
<!-- Node5 -->
<g id="node5" class="node"><title>Node5</title>
<g id="a_node5"><a xlink:href="class_rig_def_1_1_parser.html#a38e4135df406da0cc2f0fc4afb34ddb3" target="_top" xlink:title="RigDef::Parser::_ParseNodeRef">
<polygon fill="white" stroke="black" points="374,-5.5 374,-24.5 532,-24.5 532,-5.5 374,-5.5"/>
<text text-anchor="middle" x="453" y="-12.5" font-family="Helvetica,sans-Serif" font-size="10.00">RigDef::Parser::_ParseNodeRef</text>
</a>
</g>
</g>
<!-- Node4&#45;&gt;Node5 -->
<g id="edge4" class="edge"><title>Node4&#45;&gt;Node5</title>
<path fill="none" stroke="midnightblue" d="M336.069,-18.5855C345.095,-18.3063 354.35,-18.0201 363.502,-17.737"/>
<polygon fill="midnightblue" stroke="midnightblue" points="363.888,-21.2269 373.775,-17.4193 363.672,-14.2302 363.888,-21.2269"/>
</g>
<!-- Node4&#45;&gt;Node7 -->
<g id="edge7" class="edge"><title>Node4&#45;&gt;Node7</title>
<path fill="none" stroke="midnightblue" d="M315.681,-30.5144C337.183,-34.0612 361.789,-38.1198 384.123,-41.8038"/>
<polygon fill="midnightblue" stroke="midnightblue" points="383.77,-45.2927 394.206,-43.467 384.909,-38.3861 383.77,-45.2927"/>
</g>
<!-- Node5&#45;&gt;Node3 -->
<g id="edge6" class="edge"><title>Node5&#45;&gt;Node3</title>
<path fill="none" stroke="midnightblue" d="M509.04,-24.6192C516.995,-27.0799 524.888,-30.1569 532,-34 571.452,-55.3192 607.349,-94.5706 626.174,-117.355"/>
<polygon fill="midnightblue" stroke="midnightblue" points="623.515,-119.634 632.524,-125.21 628.959,-115.233 623.515,-119.634"/>
</g>
<!-- Node6 -->
<g id="node6" class="node"><title>Node6</title>
<g id="a_node6"><a xlink:href="class_rig_def_1_1_sequential_importer.html#a04d293d8b1f94b9a722e83715911e547" target="_top" xlink:title="RigDef::SequentialImporter\l::IsEnabled">
<polygon fill="white" stroke="black" points="573.5,-0 573.5,-30 708.5,-30 708.5,-0 573.5,-0"/>
<text text-anchor="start" x="581.5" y="-18" font-family="Helvetica,sans-Serif" font-size="10.00">RigDef::SequentialImporter</text>
<text text-anchor="middle" x="641" y="-7" font-family="Helvetica,sans-Serif" font-size="10.00">::IsEnabled</text>
</a>
</g>
</g>
<!-- Node5&#45;&gt;Node6 -->
<g id="edge5" class="edge"><title>Node5&#45;&gt;Node6</title>
<path fill="none" stroke="midnightblue" d="M532.072,-15C542.362,-15 552.902,-15 563.17,-15"/>
<polygon fill="midnightblue" stroke="midnightblue" points="563.329,-18.5001 573.329,-15 563.329,-11.5001 563.329,-18.5001"/>
</g>
<!-- Node8&#45;&gt;Node3 -->
<g id="edge9" class="edge"><title>Node8&#45;&gt;Node3</title>
<path fill="none" stroke="midnightblue" d="M327.039,-242.337C383.892,-245.032 465.644,-243.009 532,-218 569.536,-203.853 604.746,-172.013 624.233,-152.138"/>
<polygon fill="midnightblue" stroke="midnightblue" points="626.979,-154.33 631.356,-144.682 621.918,-149.494 626.979,-154.33"/>
</g>
<!-- Node9&#45;&gt;Node3 -->
<g id="edge12" class="edge"><title>Node9&#45;&gt;Node3</title>
<path fill="none" stroke="midnightblue" d="M292.448,-188.522C345.078,-201.491 448.223,-220.649 532,-198 565.737,-188.879 599.756,-166.313 620.358,-150.82"/>
<polygon fill="midnightblue" stroke="midnightblue" points="622.546,-153.553 628.326,-144.673 618.27,-148.01 622.546,-153.553"/>
</g>
<!-- Node10 -->
<g id="node10" class="node"><title>Node10</title>
<g id="a_node10"><a xlink:href="class_rig_def_1_1_parser.html#ad50b22d8731d2e568bf1eb09796ba606" target="_top" xlink:title="RigDef::Parser::GetArgChar">
<polygon fill="white" stroke="black" points="383,-169.5 383,-188.5 523,-188.5 523,-169.5 383,-169.5"/>
<text text-anchor="middle" x="453" y="-176.5" font-family="Helvetica,sans-Serif" font-size="10.00">RigDef::Parser::GetArgChar</text>
</a>
</g>
</g>
<!-- Node9&#45;&gt;Node10 -->
<g id="edge11" class="edge"><title>Node9&#45;&gt;Node10</title>
<path fill="none" stroke="midnightblue" d="M338.027,-179C349.571,-179 361.446,-179 372.97,-179"/>
<polygon fill="midnightblue" stroke="midnightblue" points="372.99,-182.5 382.99,-179 372.99,-175.5 372.99,-182.5"/>
</g>
<!-- Node12 -->
<g id="node12" class="node"><title>Node12</title>
<g id="a_node12"><a xlink:href="class_rig_def_1_1_parser.html#a81784a06397ed377c39759981d6c700b" target="_top" xlink:title="RigDef::Parser::GetArgLong">
<polygon fill="white" stroke="black" points="383,-81.5 383,-100.5 523,-100.5 523,-81.5 383,-81.5"/>
<text text-anchor="middle" x="453" y="-88.5" font-family="Helvetica,sans-Serif" font-size="10.00">RigDef::Parser::GetArgLong</text>
</a>
</g>
</g>
<!-- Node11&#45;&gt;Node12 -->
<g id="edge14" class="edge"><title>Node11&#45;&gt;Node12</title>
<path fill="none" stroke="midnightblue" d="M322.061,-95.0187C338.147,-94.5212 355.604,-93.9813 372.348,-93.4635"/>
<polygon fill="midnightblue" stroke="midnightblue" points="372.776,-96.952 382.663,-93.1444 372.56,-89.9553 372.776,-96.952"/>
</g>
<!-- Node12&#45;&gt;Node3 -->
<g id="edge15" class="edge"><title>Node12&#45;&gt;Node3</title>
<path fill="none" stroke="midnightblue" d="M494.359,-100.547C522.389,-107.178 559.932,-116.059 589.879,-123.143"/>
<polygon fill="midnightblue" stroke="midnightblue" points="589.182,-126.575 599.72,-125.471 590.794,-119.763 589.182,-126.575"/>
</g>
</g>
</svg>
