<?xml version="1.0" encoding="UTF-8" standalone="no"?>
<!DOCTYPE svg PUBLIC "-//W3C//DTD SVG 1.1//EN"
 "http://www.w3.org/Graphics/SVG/1.1/DTD/svg11.dtd">
<!-- Generated by graphviz version 2.36.0 (20140111.2315)
 -->
<!-- Title: SurveyMapEntity::init Pages: 1 -->
<svg width="680pt" height="161pt"
 viewBox="0.00 0.00 680.00 161.00" xmlns="http://www.w3.org/2000/svg" xmlns:xlink="http://www.w3.org/1999/xlink">
<g id="graph0" class="graph" transform="scale(1 1) rotate(0) translate(4 157)">
<title>SurveyMapEntity::init</title>
<polygon fill="white" stroke="none" points="-4,4 -4,-157 676,-157 676,4 -4,4"/>
<!-- Node1 -->
<g id="node1" class="node"><title>Node1</title>
<polygon fill="#bfbfbf" stroke="black" points="0,-95.5 0,-114.5 110,-114.5 110,-95.5 0,-95.5"/>
<text text-anchor="middle" x="55" y="-102.5" font-family="Helvetica,sans-Serif" font-size="10.00">SurveyMapEntity::init</text>
</g>
<!-- Node2 -->
<g id="node2" class="node"><title>Node2</title>
<g id="a_node2"><a xlink:href="class_survey_map_entity.html#ad3cc1cb8f1e71f876290abb0eb004c05" target="_top" xlink:title="SurveyMapEntity::setVisibility">
<polygon fill="white" stroke="black" points="146,-133.5 146,-152.5 294,-152.5 294,-133.5 146,-133.5"/>
<text text-anchor="middle" x="220" y="-140.5" font-family="Helvetica,sans-Serif" font-size="10.00">SurveyMapEntity::setVisibility</text>
</a>
</g>
</g>
<!-- Node1&#45;&gt;Node2 -->
<g id="edge1" class="edge"><title>Node1&#45;&gt;Node2</title>
<path fill="none" stroke="midnightblue" d="M97.1318,-114.589C118.738,-119.626 145.409,-125.844 168.286,-131.177"/>
<polygon fill="midnightblue" stroke="midnightblue" points="167.63,-134.618 178.164,-133.48 169.22,-127.801 167.63,-134.618"/>
</g>
<!-- Node3 -->
<g id="node3" class="node"><title>Node3</title>
<g id="a_node3"><a xlink:href="class_survey_map_entity.html#ad83a9d2fd4ab8d3a3841f9e1b0eae729" target="_top" xlink:title="SurveyMapEntity::updateIcon">
<polygon fill="white" stroke="black" points="147,-95.5 147,-114.5 293,-114.5 293,-95.5 147,-95.5"/>
<text text-anchor="middle" x="220" y="-102.5" font-family="Helvetica,sans-Serif" font-size="10.00">SurveyMapEntity::updateIcon</text>
</a>
</g>
</g>
<!-- Node1&#45;&gt;Node3 -->
<g id="edge2" class="edge"><title>Node1&#45;&gt;Node3</title>
<path fill="none" stroke="midnightblue" d="M110.277,-105C118.822,-105 127.819,-105 136.826,-105"/>
<polygon fill="midnightblue" stroke="midnightblue" points="136.978,-108.5 146.978,-105 136.978,-101.5 136.978,-108.5"/>
</g>
<!-- Node4 -->
<g id="node4" class="node"><title>Node4</title>
<g id="a_node4"><a xlink:href="class_survey_map_entity.html#af393a262b4094ca586036e08943b6d72" target="_top" xlink:title="SurveyMapEntity::update">
<polygon fill="white" stroke="black" points="156.5,-57.5 156.5,-76.5 283.5,-76.5 283.5,-57.5 156.5,-57.5"/>
<text text-anchor="middle" x="220" y="-64.5" font-family="Helvetica,sans-Serif" font-size="10.00">SurveyMapEntity::update</text>
</a>
</g>
</g>
<!-- Node1&#45;&gt;Node4 -->
<g id="edge3" class="edge"><title>Node1&#45;&gt;Node4</title>
<path fill="none" stroke="midnightblue" d="M97.1318,-95.411C118.738,-90.3739 145.409,-84.1562 168.286,-78.8229"/>
<polygon fill="midnightblue" stroke="midnightblue" points="169.22,-82.1991 178.164,-76.5201 167.63,-75.3819 169.22,-82.1991"/>
</g>
<!-- Node5 -->
<g id="node5" class="node"><title>Node5</title>
<g id="a_node5"><a xlink:href="class_survey_map_manager.html#a959f28a84f3b54803983c734bcc849e1" target="_top" xlink:title="SurveyMapManager::getMap\lEntitiesVisible">
<polygon fill="white" stroke="black" points="348,-115 348,-145 490,-145 490,-115 348,-115"/>
<text text-anchor="start" x="356" y="-133" font-family="Helvetica,sans-Serif" font-size="10.00">SurveyMapManager::getMap</text>
<text text-anchor="middle" x="419" y="-122" font-family="Helvetica,sans-Serif" font-size="10.00">EntitiesVisible</text>
</a>
</g>
</g>
<!-- Node4&#45;&gt;Node5 -->
<g id="edge4" class="edge"><title>Node4&#45;&gt;Node5</title>
<path fill="none" stroke="midnightblue" d="M264.372,-76.5272C274.249,-79.1801 284.599,-82.3524 294,-86 310.867,-92.5443 313.207,-98.2691 330,-105 335.901,-107.365 342.109,-109.602 348.383,-111.693"/>
<polygon fill="midnightblue" stroke="midnightblue" points="347.67,-115.14 358.261,-114.856 349.805,-108.473 347.67,-115.14"/>
</g>
<!-- Node6 -->
<g id="node6" class="node"><title>Node6</title>
<g id="a_node6"><a xlink:href="class_terrain_manager.html#a41fdd66a57990a5fb33d253213fd04e3" target="_top" xlink:title="TerrainManager::getMaxTerrainSize">
<polygon fill="white" stroke="black" points="333,-76.5 333,-95.5 505,-95.5 505,-76.5 333,-76.5"/>
<text text-anchor="middle" x="419" y="-83.5" font-family="Helvetica,sans-Serif" font-size="10.00">TerrainManager::getMaxTerrainSize</text>
</a>
</g>
</g>
<!-- Node4&#45;&gt;Node6 -->
<g id="edge5" class="edge"><title>Node4&#45;&gt;Node6</title>
<path fill="none" stroke="midnightblue" d="M283.603,-73.0378C296.082,-74.2414 309.452,-75.5309 322.743,-76.8128"/>
<polygon fill="midnightblue" stroke="midnightblue" points="322.586,-80.3138 332.876,-77.79 323.258,-73.3461 322.586,-80.3138"/>
</g>
<!-- Node8 -->
<g id="node8" class="node"><title>Node8</title>
<g id="a_node8"><a xlink:href="class_survey_map_manager.html#afdabdbdf87d39f253ecd17af1770a516" target="_top" xlink:title="SurveyMapManager::getWindowSize">
<polygon fill="white" stroke="black" points="330,-38.5 330,-57.5 508,-57.5 508,-38.5 330,-38.5"/>
<text text-anchor="middle" x="419" y="-45.5" font-family="Helvetica,sans-Serif" font-size="10.00">SurveyMapManager::getWindowSize</text>
</a>
</g>
</g>
<!-- Node4&#45;&gt;Node8 -->
<g id="edge7" class="edge"><title>Node4&#45;&gt;Node8</title>
<path fill="none" stroke="midnightblue" d="M283.603,-60.9622C295.045,-59.8586 307.237,-58.6828 319.429,-57.5068"/>
<polygon fill="midnightblue" stroke="midnightblue" points="320.037,-60.9645 329.655,-56.5206 319.365,-53.9968 320.037,-60.9645"/>
</g>
<!-- Node9 -->
<g id="node9" class="node"><title>Node9</title>
<g id="a_node9"><a xlink:href="class_survey_map_manager.html#aec8d2ee435b736ae628d3924a6d2b29d" target="_top" xlink:title="SurveyMapManager::getMapSize">
<polygon fill="white" stroke="black" points="338.5,-0.5 338.5,-19.5 499.5,-19.5 499.5,-0.5 338.5,-0.5"/>
<text text-anchor="middle" x="419" y="-7.5" font-family="Helvetica,sans-Serif" font-size="10.00">SurveyMapManager::getMapSize</text>
</a>
</g>
</g>
<!-- Node4&#45;&gt;Node9 -->
<g id="edge8" class="edge"><title>Node4&#45;&gt;Node9</title>
<path fill="none" stroke="midnightblue" d="M245.832,-57.3628C267.747,-49.0946 300.675,-37.2438 330,-29 339.157,-26.4257 348.934,-24.0016 358.518,-21.8017"/>
<polygon fill="midnightblue" stroke="midnightblue" points="359.406,-25.1898 368.402,-19.5935 357.88,-18.3582 359.406,-25.1898"/>
</g>
<!-- Node7 -->
<g id="node7" class="node"><title>Node7</title>
<g id="a_node7"><a xlink:href="class_terrain_geometry_manager.html#afead68b5ff7a0b77395065ab8ea855e3" target="_top" xlink:title="TerrainGeometryManager\l::getMaxTerrainSize">
<polygon fill="white" stroke="black" points="544.5,-71 544.5,-101 671.5,-101 671.5,-71 544.5,-71"/>
<text text-anchor="start" x="552.5" y="-89" font-family="Helvetica,sans-Serif" font-size="10.00">TerrainGeometryManager</text>
<text text-anchor="middle" x="608" y="-78" font-family="Helvetica,sans-Serif" font-size="10.00">::getMaxTerrainSize</text>
</a>
</g>
</g>
<!-- Node6&#45;&gt;Node7 -->
<g id="edge6" class="edge"><title>Node6&#45;&gt;Node7</title>
<path fill="none" stroke="midnightblue" d="M505.019,-86C514.726,-86 524.556,-86 534.085,-86"/>
<polygon fill="midnightblue" stroke="midnightblue" points="534.288,-89.5001 544.288,-86 534.288,-82.5001 534.288,-89.5001"/>
</g>
</g>
</svg>
