<?xml version="1.0" encoding="UTF-8" standalone="no"?>
<!DOCTYPE svg PUBLIC "-//W3C//DTD SVG 1.1//EN"
 "http://www.w3.org/Graphics/SVG/1.1/DTD/svg11.dtd">
<!-- Generated by graphviz version 2.36.0 (20140111.2315)
 -->
<!-- Title: RigDef::Parser::ProcessChangeModuleLine Pages: 1 -->
<svg width="720pt" height="117pt"
 viewBox="0.00 0.00 720.00 116.94" xmlns="http://www.w3.org/2000/svg" xmlns:xlink="http://www.w3.org/1999/xlink">
<g id="graph0" class="graph" transform="scale(1 1) rotate(0) translate(4 112.944)">
<title>RigDef::Parser::ProcessChangeModuleLine</title>
<polygon fill="white" stroke="none" points="-4,4 -4,-112.944 716,-112.944 716,4 -4,4"/>
<!-- Node1 -->
<g id="node1" class="node"><title>Node1</title>
<polygon fill="#bfbfbf" stroke="black" points="0,-52 0,-82 158,-82 158,-52 0,-52"/>
<text text-anchor="start" x="8" y="-70" font-family="Helvetica,sans-Serif" font-size="10.00">RigDef::Parser::ProcessChange</text>
<text text-anchor="middle" x="79" y="-59" font-family="Helvetica,sans-Serif" font-size="10.00">ModuleLine</text>
</g>
<!-- Node2 -->
<g id="node2" class="node"><title>Node2</title>
<g id="a_node2"><a xlink:href="class_rig_def_1_1_parser.html#a7da949423835fe3241f2ac4c5ac8ebb1" target="_top" xlink:title="Adds a message to parser report. ">
<polygon fill="white" stroke="black" points="566.5,-70.5 566.5,-89.5 711.5,-89.5 711.5,-70.5 566.5,-70.5"/>
<text text-anchor="middle" x="639" y="-77.5" font-family="Helvetica,sans-Serif" font-size="10.00">RigDef::Parser::AddMessage</text>
</a>
</g>
</g>
<!-- Node1&#45;&gt;Node2 -->
<g id="edge1" class="edge"><title>Node1&#45;&gt;Node2</title>
<path fill="none" stroke="midnightblue" d="M155.76,-82.064C245.293,-97.8229 398.704,-118.413 530,-104 551.299,-101.662 574.543,-96.8043 593.993,-92.0669"/>
<polygon fill="midnightblue" stroke="midnightblue" points="594.937,-95.4385 603.788,-89.6144 593.237,-88.6482 594.937,-95.4385"/>
</g>
<!-- Node3 -->
<g id="node3" class="node"><title>Node3</title>
<g id="a_node3"><a xlink:href="class_rig_def_1_1_parser.html#a8397c243299359e21a84243c01ca43bf" target="_top" xlink:title="RigDef::Parser::CheckNum\lArguments">
<polygon fill="white" stroke="black" points="389.5,-65 389.5,-95 526.5,-95 526.5,-65 389.5,-65"/>
<text text-anchor="start" x="397.5" y="-83" font-family="Helvetica,sans-Serif" font-size="10.00">RigDef::Parser::CheckNum</text>
<text text-anchor="middle" x="458" y="-72" font-family="Helvetica,sans-Serif" font-size="10.00">Arguments</text>
</a>
</g>
</g>
<!-- Node1&#45;&gt;Node3 -->
<g id="edge2" class="edge"><title>Node1&#45;&gt;Node3</title>
<path fill="none" stroke="midnightblue" d="M158.115,-69.6936C222.909,-71.9279 314.572,-75.0887 379.262,-77.3194"/>
<polygon fill="midnightblue" stroke="midnightblue" points="379.29,-80.8223 389.404,-77.6691 379.531,-73.8265 379.29,-80.8223"/>
</g>
<!-- Node4 -->
<g id="node4" class="node"><title>Node4</title>
<g id="a_node4"><a xlink:href="class_rig_def_1_1_parser.html#a629f3ff2e6181f7953ec28168b0aac00" target="_top" xlink:title="RigDef::Parser::GetArgStr">
<polygon fill="white" stroke="black" points="206.5,-38.5 206.5,-57.5 337.5,-57.5 337.5,-38.5 206.5,-38.5"/>
<text text-anchor="middle" x="272" y="-45.5" font-family="Helvetica,sans-Serif" font-size="10.00">RigDef::Parser::GetArgStr</text>
</a>
</g>
</g>
<!-- Node1&#45;&gt;Node4 -->
<g id="edge4" class="edge"><title>Node1&#45;&gt;Node4</title>
<path fill="none" stroke="midnightblue" d="M158.238,-59.2172C170.713,-57.9762 183.595,-56.6947 195.993,-55.4614"/>
<polygon fill="midnightblue" stroke="midnightblue" points="196.67,-58.9114 206.275,-54.4386 195.977,-51.9458 196.67,-58.9114"/>
</g>
<!-- Node5 -->
<g id="node5" class="node"><title>Node5</title>
<g id="a_node5"><a xlink:href="class_rig_def_1_1_parser.html#a43ac79981018f0134d0fe0eb81862554" target="_top" xlink:title="RigDef::Parser::ChangeSection">
<polygon fill="white" stroke="black" points="194.5,-0.5 194.5,-19.5 349.5,-19.5 349.5,-0.5 194.5,-0.5"/>
<text text-anchor="middle" x="272" y="-7.5" font-family="Helvetica,sans-Serif" font-size="10.00">RigDef::Parser::ChangeSection</text>
</a>
</g>
</g>
<!-- Node1&#45;&gt;Node5 -->
<g id="edge5" class="edge"><title>Node1&#45;&gt;Node5</title>
<path fill="none" stroke="midnightblue" d="M122.513,-51.9317C143.844,-44.6011 170.153,-35.9046 194,-29 202.27,-26.6054 211.094,-24.247 219.708,-22.05"/>
<polygon fill="midnightblue" stroke="midnightblue" points="220.829,-25.3777 229.678,-19.5525 219.128,-18.5875 220.829,-25.3777"/>
</g>
<!-- Node3&#45;&gt;Node2 -->
<g id="edge3" class="edge"><title>Node3&#45;&gt;Node2</title>
<path fill="none" stroke="midnightblue" d="M526.672,-80C536.298,-80 546.282,-80 556.142,-80"/>
<polygon fill="midnightblue" stroke="midnightblue" points="556.352,-83.5001 566.352,-80 556.352,-76.5001 556.352,-83.5001"/>
</g>
<!-- Node6 -->
<g id="node6" class="node"><title>Node6</title>
<g id="a_node6"><a xlink:href="class_rig_def_1_1_parser.html#a9dfba6b6520265a6bc20919f0d06b9fb" target="_top" xlink:title="RigDef::Parser::ExitSections">
<polygon fill="white" stroke="black" points="386.5,-13.5 386.5,-32.5 529.5,-32.5 529.5,-13.5 386.5,-13.5"/>
<text text-anchor="middle" x="458" y="-20.5" font-family="Helvetica,sans-Serif" font-size="10.00">RigDef::Parser::ExitSections</text>
</a>
</g>
</g>
<!-- Node5&#45;&gt;Node6 -->
<g id="edge6" class="edge"><title>Node5&#45;&gt;Node6</title>
<path fill="none" stroke="midnightblue" d="M349.7,-15.419C358.418,-16.035 367.324,-16.6642 376.094,-17.2838"/>
<polygon fill="midnightblue" stroke="midnightblue" points="376.085,-20.7918 386.306,-18.0053 376.578,-13.8092 376.085,-20.7918"/>
</g>
<!-- Node6&#45;&gt;Node2 -->
<g id="edge7" class="edge"><title>Node6&#45;&gt;Node2</title>
<path fill="none" stroke="midnightblue" d="M488.961,-32.5405C518.905,-42.076 565.124,-56.7936 598.149,-67.3099"/>
<polygon fill="midnightblue" stroke="midnightblue" points="597.351,-70.7291 607.942,-70.4284 599.475,-64.0591 597.351,-70.7291"/>
</g>
</g>
</svg>
