<?xml version="1.0" encoding="UTF-8" standalone="no"?>
<!DOCTYPE svg PUBLIC "-//W3C//DTD SVG 1.1//EN"
 "http://www.w3.org/Graphics/SVG/1.1/DTD/svg11.dtd">
<!-- Generated by graphviz version 2.36.0 (20140111.2315)
 -->
<!-- Title: RoR::GUI::TopMenubar::triggerUpdateVehicleList Pages: 1 -->
<!--zoomable 279 -->
<svg id="main" version="1.1" xmlns="http://www.w3.org/2000/svg" xmlns:xlink="http://www.w3.org/1999/xlink" xml:space="preserve" onload="init(evt)">
<style type="text/css"><![CDATA[
.edge:hover path { stroke: red; }
.edge:hover polygon { stroke: red; fill: red; }
]]></style>
<script type="text/javascript"><![CDATA[
var edges = document.getElementsByTagName('g');
if (edges && edges.length) {
  for (var i=0;i<edges.length;i++) {
    if (edges[i].id.substr(0,4)=='edge') {
      edges[i].setAttribute('class','edge');
    }
  }
}
]]></script>
        <defs>
                <circle id="rim" cx="0" cy="0" r="7"/>
                <circle id="rim2" cx="0" cy="0" r="3.5"/>
                <g id="zoomPlus">
                        <use xlink:href="#rim" fill="#404040">
                                <set attributeName="fill" to="#808080" begin="zoomplus.mouseover" end="zoomplus.mouseout"/>
                        </use>
                        <path d="M-4,0h8M0,-4v8" fill="none" stroke="white" stroke-width="1.5" pointer-events="none"/>
                </g>
                <g id="zoomMin">
                        <use xlink:href="#rim" fill="#404040">
                                <set attributeName="fill" to="#808080" begin="zoomminus.mouseover" end="zoomminus.mouseout"/>
                        </use>
                        <path d="M-4,0h8" fill="none" stroke="white" stroke-width="1.5" pointer-events="none"/>
                </g>
                <g id="dirArrow">
                        <path fill="none" stroke="white" stroke-width="1.5" d="M0,-3.0v7 M-2.5,-0.5L0,-3.0L2.5,-0.5"/>
                </g>
               <g id="resetDef">
                       <use xlink:href="#rim2" fill="#404040">
                               <set attributeName="fill" to="#808080" begin="reset.mouseover" end="reset.mouseout"/>
                       </use>
               </g>
        </defs>

<script type="text/javascript">
var viewWidth = 1248;
var viewHeight = 279;
var sectionId = 'dynsection-15';
</script>
<script xlink:href="svgpan.js"/>
<svg id="graph" class="graph">
<g id="viewport">
<title>RoR::GUI::TopMenubar::triggerUpdateVehicleList</title>
<polygon fill="white" stroke="none" points="-4,4 -4,-275 1244,-275 1244,4 -4,4"/>
<!-- Node1 -->
<g id="node1" class="node"><title>Node1</title>
<polygon fill="#bfbfbf" stroke="black" points="0.5,-128 0.5,-158 129.5,-158 129.5,-128 0.5,-128"/>
<text text-anchor="start" x="8.5" y="-146" font-family="Helvetica,sans-Serif" font-size="10.00">RoR::GUI::TopMenubar</text>
<text text-anchor="middle" x="65" y="-135" font-family="Helvetica,sans-Serif" font-size="10.00">::triggerUpdateVehicleList</text>
</g>
<!-- Node2 -->
<g id="node2" class="node"><title>Node2</title>
<g id="a_node2"><a xlink:href="class_ro_r_1_1_g_u_i_1_1_top_menubar.html#a5505e211d6b947cf05074cc623bc58e4" target="_top" xlink:title="RoR::GUI::TopMenubar\l::ReflectMultiplayerState">
<polygon fill="white" stroke="black" points="171.5,-203 171.5,-233 296.5,-233 296.5,-203 171.5,-203"/>
<text text-anchor="start" x="179.5" y="-221" font-family="Helvetica,sans-Serif" font-size="10.00">RoR::GUI::TopMenubar</text>
<text text-anchor="middle" x="234" y="-210" font-family="Helvetica,sans-Serif" font-size="10.00">::ReflectMultiplayerState</text>
</a>
</g>
</g>
<!-- Node1&#45;&gt;Node2 -->
<g id="edge1" class="edge"><title>Node1&#45;&gt;Node2</title>
<path fill="none" stroke="midnightblue" d="M109.016,-162.319C137.204,-174.978 173.512,-191.284 199.541,-202.973"/>
<polygon fill="midnightblue" stroke="midnightblue" points="110.351,-159.081 99.7949,-158.177 107.483,-165.467 110.351,-159.081"/>
</g>
<!-- Node6 -->
<g id="node6" class="node"><title>Node6</title>
<g id="a_node6"><a xlink:href="class_ro_r_1_1_beam_factory.html#aa770c50decf07b87d7ac747b64b8e3e5" target="_top" xlink:title="RoR::BeamFactory::Create\lLocalRigInstance">
<polygon fill="white" stroke="black" points="341.5,-147 341.5,-177 478.5,-177 478.5,-147 341.5,-147"/>
<text text-anchor="start" x="349.5" y="-165" font-family="Helvetica,sans-Serif" font-size="10.00">RoR::BeamFactory::Create</text>
<text text-anchor="middle" x="410" y="-154" font-family="Helvetica,sans-Serif" font-size="10.00">LocalRigInstance</text>
</a>
</g>
</g>
<!-- Node1&#45;&gt;Node6 -->
<g id="edge5" class="edge"><title>Node1&#45;&gt;Node6</title>
<path fill="none" stroke="midnightblue" d="M139.838,-147.09C199.616,-150.401 283.137,-155.028 341.227,-158.246"/>
<polygon fill="midnightblue" stroke="midnightblue" points="139.89,-143.588 129.712,-146.529 139.503,-150.577 139.89,-143.588"/>
</g>
<!-- Node15 -->
<g id="node15" class="node"><title>Node15</title>
<g id="a_node15"><a xlink:href="class_ro_r_1_1_beam_factory.html#a32e01669e8f438abae20a1a463dcb355" target="_top" xlink:title="RoR::BeamFactory::Create\lRemoteInstance">
<polygon fill="white" stroke="black" points="341.5,-98 341.5,-128 478.5,-128 478.5,-98 341.5,-98"/>
<text text-anchor="start" x="349.5" y="-116" font-family="Helvetica,sans-Serif" font-size="10.00">RoR::BeamFactory::Create</text>
<text text-anchor="middle" x="410" y="-105" font-family="Helvetica,sans-Serif" font-size="10.00">RemoteInstance</text>
</a>
</g>
</g>
<!-- Node1&#45;&gt;Node15 -->
<g id="edge17" class="edge"><title>Node1&#45;&gt;Node15</title>
<path fill="none" stroke="midnightblue" d="M139.838,-136.542C199.616,-131.313 283.137,-124.008 341.227,-118.928"/>
<polygon fill="midnightblue" stroke="midnightblue" points="139.369,-133.069 129.712,-137.428 139.979,-140.043 139.369,-133.069"/>
</g>
<!-- Node16 -->
<g id="node16" class="node"><title>Node16</title>
<g id="a_node16"><a xlink:href="class_ro_r_1_1_beam_factory.html#a5dcf02227633d77e77f39fc43317dc6b" target="_top" xlink:title="RoR::BeamFactory::Delete\lTruck">
<polygon fill="white" stroke="black" points="166,-65 166,-95 302,-95 302,-65 166,-65"/>
<text text-anchor="start" x="174" y="-83" font-family="Helvetica,sans-Serif" font-size="10.00">RoR::BeamFactory::Delete</text>
<text text-anchor="middle" x="234" y="-72" font-family="Helvetica,sans-Serif" font-size="10.00">Truck</text>
</a>
</g>
</g>
<!-- Node1&#45;&gt;Node16 -->
<g id="edge18" class="edge"><title>Node1&#45;&gt;Node16</title>
<path fill="none" stroke="midnightblue" d="M115.566,-124.301C140.286,-114.976 169.787,-103.847 193.037,-95.076"/>
<polygon fill="midnightblue" stroke="midnightblue" points="114.122,-121.105 106.001,-127.91 116.592,-127.655 114.122,-121.105"/>
</g>
<!-- Node3 -->
<g id="node3" class="node"><title>Node3</title>
<g id="a_node3"><a xlink:href="class_ro_r_1_1_g_u_i_manager.html#ab4ed29f54999b3bf85033f937b3736b9" target="_top" xlink:title="RoR::GUIManager::Reflect\lGameState">
<polygon fill="white" stroke="black" points="518,-240 518,-270 654,-270 654,-240 518,-240"/>
<text text-anchor="start" x="526" y="-258" font-family="Helvetica,sans-Serif" font-size="10.00">RoR::GUIManager::Reflect</text>
<text text-anchor="middle" x="586" y="-247" font-family="Helvetica,sans-Serif" font-size="10.00">GameState</text>
</a>
</g>
</g>
<!-- Node2&#45;&gt;Node3 -->
<g id="edge2" class="edge"><title>Node2&#45;&gt;Node3</title>
<path fill="none" stroke="midnightblue" d="M306.846,-225.595C368.741,-232.138 457.407,-241.512 517.885,-247.905"/>
<polygon fill="midnightblue" stroke="midnightblue" points="307.08,-222.1 296.767,-224.53 306.344,-229.062 307.08,-222.1"/>
</g>
<!-- Node4 -->
<g id="node4" class="node"><title>Node4</title>
<g id="a_node4"><a xlink:href="main_8cpp.html#a0ddf1224851353fc92bfbff6f499fa97" target="_top" xlink:title="main">
<polygon fill="white" stroke="black" points="1110,-219.5 1110,-238.5 1148,-238.5 1148,-219.5 1110,-219.5"/>
<text text-anchor="middle" x="1129" y="-226.5" font-family="Helvetica,sans-Serif" font-size="10.00">main</text>
</a>
</g>
</g>
<!-- Node3&#45;&gt;Node4 -->
<g id="edge3" class="edge"><title>Node3&#45;&gt;Node4</title>
<path fill="none" stroke="midnightblue" d="M664.278,-251.286C792.266,-245.135 1040.99,-233.182 1109.91,-229.869"/>
<polygon fill="midnightblue" stroke="midnightblue" points="663.972,-247.797 654.152,-251.773 664.308,-254.789 663.972,-247.797"/>
</g>
<!-- Node5 -->
<g id="node5" class="node"><title>Node5</title>
<g id="a_node5"><a xlink:href="main_8cpp.html#a2922bc5d5c2d77a3020cfbf9df12aab0" target="_top" xlink:title="WinMain">
<polygon fill="white" stroke="black" points="1184.5,-219.5 1184.5,-238.5 1239.5,-238.5 1239.5,-219.5 1184.5,-219.5"/>
<text text-anchor="middle" x="1212" y="-226.5" font-family="Helvetica,sans-Serif" font-size="10.00">WinMain</text>
</a>
</g>
</g>
<!-- Node4&#45;&gt;Node5 -->
<g id="edge4" class="edge"><title>Node4&#45;&gt;Node5</title>
<path fill="none" stroke="midnightblue" d="M1158.51,-229C1166.93,-229 1176.11,-229 1184.4,-229"/>
<polygon fill="midnightblue" stroke="midnightblue" points="1158.38,-225.5 1148.38,-229 1158.38,-232.5 1158.38,-225.5"/>
</g>
<!-- Node7 -->
<g id="node7" class="node"><title>Node7</title>
<g id="a_node7"><a xlink:href="class_ro_r_frame_listener.html#afec2a0f00ed552c21d22aae76329bf38" target="_top" xlink:title="RoRFrameListener::Update\lInputEvents">
<polygon fill="white" stroke="black" points="697.5,-103 697.5,-133 834.5,-133 834.5,-103 697.5,-103"/>
<text text-anchor="start" x="705.5" y="-121" font-family="Helvetica,sans-Serif" font-size="10.00">RoRFrameListener::Update</text>
<text text-anchor="middle" x="766" y="-110" font-family="Helvetica,sans-Serif" font-size="10.00">InputEvents</text>
</a>
</g>
</g>
<!-- Node6&#45;&gt;Node7 -->
<g id="edge6" class="edge"><title>Node6&#45;&gt;Node7</title>
<path fill="none" stroke="midnightblue" d="M488.809,-151.734C498.634,-150.463 508.55,-149.192 518,-148 578.643,-140.35 647.71,-131.991 697.36,-126.045"/>
<polygon fill="midnightblue" stroke="midnightblue" points="488.093,-148.297 478.626,-153.056 488.994,-155.239 488.093,-148.297"/>
</g>
<!-- Node9 -->
<g id="node9" class="node"><title>Node9</title>
<g id="a_node9"><a xlink:href="class_ro_r_frame_listener.html#a74e44d8907e7f6ffddedd260f307a764" target="_top" xlink:title="RoRFrameListener::Reload\lCurrentTruck">
<polygon fill="white" stroke="black" points="518,-65 518,-95 654,-95 654,-65 518,-65"/>
<text text-anchor="start" x="526" y="-83" font-family="Helvetica,sans-Serif" font-size="10.00">RoRFrameListener::Reload</text>
<text text-anchor="middle" x="586" y="-72" font-family="Helvetica,sans-Serif" font-size="10.00">CurrentTruck</text>
</a>
</g>
</g>
<!-- Node6&#45;&gt;Node9 -->
<g id="edge8" class="edge"><title>Node6&#45;&gt;Node9</title>
<path fill="none" stroke="midnightblue" d="M469.48,-143.045C473.785,-141.155 478.003,-139.137 482,-137 499.637,-127.569 500.767,-120.149 518,-110 527.225,-104.567 537.609,-99.4697 547.399,-95.0724"/>
<polygon fill="midnightblue" stroke="midnightblue" points="467.872,-139.922 459.968,-146.978 470.547,-146.391 467.872,-139.922"/>
</g>
<!-- Node12 -->
<g id="node12" class="node"><title>Node12</title>
<g id="a_node12"><a xlink:href="class_ro_r_frame_listener.html#aca3931d7a75f2ad4b9d36c4fcd03a3c9" target="_top" xlink:title="RoRFrameListener::SetupGameplayLoop">
<polygon fill="white" stroke="black" points="878,-196.5 878,-215.5 1074,-215.5 1074,-196.5 878,-196.5"/>
<text text-anchor="middle" x="976" y="-203.5" font-family="Helvetica,sans-Serif" font-size="10.00">RoRFrameListener::SetupGameplayLoop</text>
</a>
</g>
</g>
<!-- Node6&#45;&gt;Node12 -->
<g id="edge12" class="edge"><title>Node6&#45;&gt;Node12</title>
<path fill="none" stroke="midnightblue" d="M488.797,-162.12C575.31,-163.022 719.077,-166.81 842,-181 872.575,-184.529 906.685,-190.993 932.706,-196.464"/>
<polygon fill="midnightblue" stroke="midnightblue" points="488.827,-158.62 478.795,-162.026 488.761,-165.62 488.827,-158.62"/>
</g>
<!-- Node13 -->
<g id="node13" class="node"><title>Node13</title>
<g id="a_node13"><a xlink:href="class_terrain_object_manager.html#a202d577cb222f42c46e5b6600c9626a4" target="_top" xlink:title="TerrainObjectManager\l::loadPreloadedTrucks">
<polygon fill="white" stroke="black" points="529,-191 529,-221 643,-221 643,-191 529,-191"/>
<text text-anchor="start" x="537" y="-209" font-family="Helvetica,sans-Serif" font-size="10.00">TerrainObjectManager</text>
<text text-anchor="middle" x="586" y="-198" font-family="Helvetica,sans-Serif" font-size="10.00">::loadPreloadedTrucks</text>
</a>
</g>
</g>
<!-- Node6&#45;&gt;Node13 -->
<g id="edge14" class="edge"><title>Node6&#45;&gt;Node13</title>
<path fill="none" stroke="midnightblue" d="M480.292,-179.522C496.397,-183.595 513.347,-187.881 528.808,-191.79"/>
<polygon fill="midnightblue" stroke="midnightblue" points="480.947,-176.078 470.394,-177.019 479.231,-182.864 480.947,-176.078"/>
</g>
<!-- Node8 -->
<g id="node8" class="node"><title>Node8</title>
<g id="a_node8"><a xlink:href="class_ro_r_frame_listener.html#acd8647e188fb8e838689492965b86faf" target="_top" xlink:title="RoRFrameListener::frameStarted">
<polygon fill="white" stroke="black" points="895.5,-108.5 895.5,-127.5 1056.5,-127.5 1056.5,-108.5 895.5,-108.5"/>
<text text-anchor="middle" x="976" y="-115.5" font-family="Helvetica,sans-Serif" font-size="10.00">RoRFrameListener::frameStarted</text>
</a>
</g>
</g>
<!-- Node7&#45;&gt;Node8 -->
<g id="edge7" class="edge"><title>Node7&#45;&gt;Node8</title>
<path fill="none" stroke="midnightblue" d="M844.719,-118C861.305,-118 878.845,-118 895.497,-118"/>
<polygon fill="midnightblue" stroke="midnightblue" points="844.532,-114.5 834.532,-118 844.532,-121.5 844.532,-114.5"/>
</g>
<!-- Node9&#45;&gt;Node7 -->
<g id="edge9" class="edge"><title>Node9&#45;&gt;Node7</title>
<path fill="none" stroke="midnightblue" d="M664.129,-96.4658C675.214,-98.8321 686.548,-101.252 697.428,-103.575"/>
<polygon fill="midnightblue" stroke="midnightblue" points="664.551,-92.977 654.041,-94.312 663.089,-99.8228 664.551,-92.977"/>
</g>
<!-- Node10 -->
<g id="node10" class="node"><title>Node10</title>
<g id="a_node10"><a xlink:href="class_ro_r_1_1_g_u_i_1_1_top_menubar.html#ad1c44bd3c1247dcd8b876ff7728fac32" target="_top" xlink:title="RoR::GUI::TopMenubar\l::onMenuBtn">
<polygon fill="white" stroke="black" points="705.5,-54 705.5,-84 826.5,-84 826.5,-54 705.5,-54"/>
<text text-anchor="start" x="713.5" y="-72" font-family="Helvetica,sans-Serif" font-size="10.00">RoR::GUI::TopMenubar</text>
<text text-anchor="middle" x="766" y="-61" font-family="Helvetica,sans-Serif" font-size="10.00">::onMenuBtn</text>
</a>
</g>
</g>
<!-- Node9&#45;&gt;Node10 -->
<g id="edge10" class="edge"><title>Node9&#45;&gt;Node10</title>
<path fill="none" stroke="midnightblue" d="M664.023,-75.2401C677.856,-74.3853 692.081,-73.5062 705.33,-72.6875"/>
<polygon fill="midnightblue" stroke="midnightblue" points="663.806,-71.7468 654.041,-75.857 664.237,-78.7335 663.806,-71.7468"/>
</g>
<!-- Node11 -->
<g id="node11" class="node"><title>Node11</title>
<g id="a_node11"><a xlink:href="class_ro_r_1_1_g_u_i_1_1_top_menubar.html#aba4f8b1030da3a9d3b4394562d60a05a" target="_top" xlink:title="RoR::GUI::TopMenubar\l::TopMenubar">
<polygon fill="white" stroke="black" points="915.5,-54 915.5,-84 1036.5,-84 1036.5,-54 915.5,-54"/>
<text text-anchor="start" x="923.5" y="-72" font-family="Helvetica,sans-Serif" font-size="10.00">RoR::GUI::TopMenubar</text>
<text text-anchor="middle" x="976" y="-61" font-family="Helvetica,sans-Serif" font-size="10.00">::TopMenubar</text>
</a>
</g>
</g>
<!-- Node10&#45;&gt;Node11 -->
<g id="edge11" class="edge"><title>Node10&#45;&gt;Node11</title>
<path fill="none" stroke="midnightblue" d="M836.934,-69C862.39,-69 890.908,-69 915.387,-69"/>
<polygon fill="midnightblue" stroke="midnightblue" points="836.604,-65.5001 826.604,-69 836.604,-72.5001 836.604,-65.5001"/>
</g>
<!-- Node12&#45;&gt;Node4 -->
<g id="edge13" class="edge"><title>Node12&#45;&gt;Node4</title>
<path fill="none" stroke="midnightblue" d="M1049.88,-217.1C1072.07,-220.481 1094.57,-223.908 1109.69,-226.211"/>
<polygon fill="midnightblue" stroke="midnightblue" points="1050.14,-213.6 1039.73,-215.554 1049.08,-220.52 1050.14,-213.6"/>
</g>
<!-- Node14 -->
<g id="node14" class="node"><title>Node14</title>
<g id="a_node14"><a xlink:href="class_terrain_manager.html#ac666fc0221c16001186b83cd6df66691" target="_top" xlink:title="TerrainManager::loadPreloaded\lTrucks">
<polygon fill="white" stroke="black" points="690,-191 690,-221 842,-221 842,-191 690,-191"/>
<text text-anchor="start" x="698" y="-209" font-family="Helvetica,sans-Serif" font-size="10.00">TerrainManager::loadPreloaded</text>
<text text-anchor="middle" x="766" y="-198" font-family="Helvetica,sans-Serif" font-size="10.00">Trucks</text>
</a>
</g>
</g>
<!-- Node13&#45;&gt;Node14 -->
<g id="edge15" class="edge"><title>Node13&#45;&gt;Node14</title>
<path fill="none" stroke="midnightblue" d="M653.55,-206C665.383,-206 677.782,-206 689.834,-206"/>
<polygon fill="midnightblue" stroke="midnightblue" points="653.32,-202.5 643.32,-206 653.32,-209.5 653.32,-202.5"/>
</g>
<!-- Node14&#45;&gt;Node12 -->
<g id="edge16" class="edge"><title>Node14&#45;&gt;Node12</title>
<path fill="none" stroke="midnightblue" d="M852.3,-206C860.75,-206 869.37,-206 877.927,-206"/>
<polygon fill="midnightblue" stroke="midnightblue" points="852.093,-202.5 842.093,-206 852.093,-209.5 852.093,-202.5"/>
</g>
<!-- Node16&#45;&gt;Node6 -->
<g id="edge19" class="edge"><title>Node16&#45;&gt;Node6</title>
<path fill="none" stroke="midnightblue" d="M268.041,-100.136C287.898,-111.765 313.909,-126.184 338,-137 345.868,-140.533 354.399,-143.906 362.727,-146.966"/>
<polygon fill="midnightblue" stroke="midnightblue" points="269.769,-97.0918 259.38,-95.0124 266.205,-103.116 269.769,-97.0918"/>
</g>
<!-- Node16&#45;&gt;Node15 -->
<g id="edge20" class="edge"><title>Node16&#45;&gt;Node15</title>
<path fill="none" stroke="midnightblue" d="M312.284,-94.6573C321.967,-96.4937 331.812,-98.3609 341.332,-100.166"/>
<polygon fill="midnightblue" stroke="midnightblue" points="312.75,-91.1834 302.273,-92.7587 311.446,-98.0608 312.75,-91.1834"/>
</g>
<!-- Node17 -->
<g id="node17" class="node"><title>Node17</title>
<g id="a_node17"><a xlink:href="class_ro_r_1_1_beam_factory.html#aa61f694b6230afbdc91bc33ef6acd73f" target="_top" xlink:title="RoR::BeamFactory::Remove\lStreamSource">
<polygon fill="white" stroke="black" points="338,-0 338,-30 482,-30 482,-0 338,-0"/>
<text text-anchor="start" x="346" y="-18" font-family="Helvetica,sans-Serif" font-size="10.00">RoR::BeamFactory::Remove</text>
<text text-anchor="middle" x="410" y="-7" font-family="Helvetica,sans-Serif" font-size="10.00">StreamSource</text>
</a>
</g>
</g>
<!-- Node16&#45;&gt;Node17 -->
<g id="edge21" class="edge"><title>Node16&#45;&gt;Node17</title>
<path fill="none" stroke="midnightblue" d="M281.058,-61.0637C298.778,-53.9368 319.253,-45.8942 338,-39 346.182,-35.9911 354.945,-32.9132 363.423,-30.0086"/>
<polygon fill="midnightblue" stroke="midnightblue" points="279.485,-57.9241 271.525,-64.9157 282.108,-64.4143 279.485,-57.9241"/>
</g>
<!-- Node18 -->
<g id="node18" class="node"><title>Node18</title>
<g id="a_node18"><a xlink:href="class_ro_r_1_1_beam_factory.html#a49a4ee797005fff135d8f88a085986a0" target="_top" xlink:title="RoR::BeamFactory::remove\lTruck">
<polygon fill="white" stroke="black" points="340,-49 340,-79 480,-79 480,-49 340,-49"/>
<text text-anchor="start" x="348" y="-67" font-family="Helvetica,sans-Serif" font-size="10.00">RoR::BeamFactory::remove</text>
<text text-anchor="middle" x="410" y="-56" font-family="Helvetica,sans-Serif" font-size="10.00">Truck</text>
</a>
</g>
</g>
<!-- Node16&#45;&gt;Node18 -->
<g id="edge22" class="edge"><title>Node16&#45;&gt;Node18</title>
<path fill="none" stroke="midnightblue" d="M312.496,-72.8739C321.624,-72.0346 330.892,-71.1823 339.894,-70.3546"/>
<polygon fill="midnightblue" stroke="midnightblue" points="311.91,-69.4129 302.273,-73.814 312.551,-76.3835 311.91,-69.4129"/>
</g>
</g>
</svg>
        <g id="navigator" transform="translate(0 0)" fill="#404254">
                <rect fill="#f2f5e9" fill-opacity="0.5" stroke="#606060" stroke-width=".5" x="0" y="0" width="60" height="60"/>
                <use id="zoomplus" xlink:href="#zoomPlus" x="17" y="9" onmousedown="handleZoom(evt,'in')"/>
                <use id="zoomminus" xlink:href="#zoomMin" x="42" y="9" onmousedown="handleZoom(evt,'out')"/>
                <use id="reset" xlink:href="#resetDef" x="30" y="36" onmousedown="handleReset()"/>
                <g id="arrowUp" xlink:href="#dirArrow" transform="translate(30 24)" onmousedown="handlePan(0,-1)">
                  <use xlink:href="#rim" fill="#404040">
                        <set attributeName="fill" to="#808080" begin="arrowUp.mouseover" end="arrowUp.mouseout"/>
                  </use>
                  <path fill="none" stroke="white" stroke-width="1.5" d="M0,-3.0v7 M-2.5,-0.5L0,-3.0L2.5,-0.5"/>
                </g>
                <g id="arrowRight" xlink:href="#dirArrow" transform="rotate(90) translate(36 -43)" onmousedown="handlePan(1,0)">
                  <use xlink:href="#rim" fill="#404040">
                        <set attributeName="fill" to="#808080" begin="arrowRight.mouseover" end="arrowRight.mouseout"/>
                  </use>
                  <path fill="none" stroke="white" stroke-width="1.5" d="M0,-3.0v7 M-2.5,-0.5L0,-3.0L2.5,-0.5"/>
                </g>
                <g id="arrowDown" xlink:href="#dirArrow" transform="rotate(180) translate(-30 -48)" onmousedown="handlePan(0,1)">
                  <use xlink:href="#rim" fill="#404040">
                        <set attributeName="fill" to="#808080" begin="arrowDown.mouseover" end="arrowDown.mouseout"/>
                  </use>
                  <path fill="none" stroke="white" stroke-width="1.5" d="M0,-3.0v7 M-2.5,-0.5L0,-3.0L2.5,-0.5"/>
                </g>
                <g id="arrowLeft" xlink:href="#dirArrow" transform="rotate(270) translate(-36 17)" onmousedown="handlePan(-1,0)">
                  <use xlink:href="#rim" fill="#404040">
                        <set attributeName="fill" to="#808080" begin="arrowLeft.mouseover" end="arrowLeft.mouseout"/>
                  </use>
                  <path fill="none" stroke="white" stroke-width="1.5" d="M0,-3.0v7 M-2.5,-0.5L0,-3.0L2.5,-0.5"/>
                </g>
        </g>
        <svg viewBox="0 0 15 15" width="100%" height="30px" preserveAspectRatio="xMaxYMin meet">
         <g id="arrow_out" transform="scale(0.3 0.3)">
          <a xlink:href="class_ro_r_1_1_g_u_i_1_1_top_menubar_a4ee33e00f5d7deedd9fb0716e797a6b9_icgraph_org.svg" target="_base">
           <rect id="button" ry="5" rx="5" y="6" x="6" height="38" width="38"
                fill="#f2f5e9" fill-opacity="0.5" stroke="#606060" stroke-width="1.0"/>
           <path id="arrow"
             d="M 11.500037,31.436501 C 11.940474,20.09759 22.043105,11.32322 32.158766,21.979434 L 37.068811,17.246167 C 37.068811,17.246167 37.088388,32 37.088388,32 L 22.160133,31.978069 C 22.160133,31.978069 26.997745,27.140456 26.997745,27.140456 C 18.528582,18.264221 13.291696,25.230495 11.500037,31.436501 z"
             style="fill:#404040;"/>
          </a>
         </g>
        </svg>
</svg>
