<?xml version="1.0" encoding="UTF-8" standalone="no"?>
<!DOCTYPE svg PUBLIC "-//W3C//DTD SVG 1.1//EN"
 "http://www.w3.org/Graphics/SVG/1.1/DTD/svg11.dtd">
<!-- Generated by graphviz version 2.36.0 (20140111.2315)
 -->
<!-- Title: Settings::SetMpNetworkEnable Pages: 1 -->
<svg width="680pt" height="66pt"
 viewBox="0.00 0.00 680.00 66.00" xmlns="http://www.w3.org/2000/svg" xmlns:xlink="http://www.w3.org/1999/xlink">
<g id="graph0" class="graph" transform="scale(1 1) rotate(0) translate(4 62)">
<title>Settings::SetMpNetworkEnable</title>
<polygon fill="white" stroke="none" points="-4,4 -4,-62 676,-62 676,4 -4,4"/>
<!-- Node1 -->
<g id="node1" class="node"><title>Node1</title>
<polygon fill="#bfbfbf" stroke="black" points="0,-19.5 0,-38.5 154,-38.5 154,-19.5 0,-19.5"/>
<text text-anchor="middle" x="77" y="-26.5" font-family="Helvetica,sans-Serif" font-size="10.00">Settings::SetMpNetworkEnable</text>
</g>
<!-- Node2 -->
<g id="node2" class="node"><title>Node2</title>
<g id="a_node2"><a xlink:href="namespace_ro_r_1_1_app.html#ab8afb2167b40c6aea9e5be37ff985ac3" target="_top" xlink:title="RoR::App::SetPendingMpState">
<polygon fill="white" stroke="black" points="190.5,-19.5 190.5,-38.5 343.5,-38.5 343.5,-19.5 190.5,-19.5"/>
<text text-anchor="middle" x="267" y="-26.5" font-family="Helvetica,sans-Serif" font-size="10.00">RoR::App::SetPendingMpState</text>
</a>
</g>
</g>
<!-- Node1&#45;&gt;Node2 -->
<g id="edge1" class="edge"><title>Node1&#45;&gt;Node2</title>
<path fill="none" stroke="midnightblue" d="M154.196,-29C162.755,-29 171.519,-29 180.189,-29"/>
<polygon fill="midnightblue" stroke="midnightblue" points="180.306,-32.5001 190.306,-29 180.306,-25.5001 180.306,-32.5001"/>
</g>
<!-- Node3 -->
<g id="node3" class="node"><title>Node3</title>
<g id="a_node3"><a xlink:href="namespace_ro_r_1_1_app.html#ae7ca05a9e2c04da99c1305919b3002b3" target="_top" xlink:title="RoR::App::SetVarEnum">
<polygon fill="white" stroke="black" points="383,-38.5 383,-57.5 505,-57.5 505,-38.5 383,-38.5"/>
<text text-anchor="middle" x="444" y="-45.5" font-family="Helvetica,sans-Serif" font-size="10.00">RoR::App::SetVarEnum</text>
</a>
</g>
</g>
<!-- Node2&#45;&gt;Node3 -->
<g id="edge2" class="edge"><title>Node2&#45;&gt;Node3</title>
<path fill="none" stroke="midnightblue" d="M343.74,-37.2232C353.373,-38.269 363.199,-39.3359 372.741,-40.3719"/>
<polygon fill="midnightblue" stroke="midnightblue" points="372.641,-43.8815 382.96,-41.4814 373.397,-36.9224 372.641,-43.8815"/>
</g>
<!-- Node5 -->
<g id="node5" class="node"><title>Node5</title>
<g id="a_node5"><a xlink:href="namespace_ro_r_1_1_app.html#ae36f5caf06980bf0608f5e88f3f019f8" target="_top" xlink:title="RoR::App::MpStateToStr">
<polygon fill="white" stroke="black" points="380.5,-0.5 380.5,-19.5 507.5,-19.5 507.5,-0.5 380.5,-0.5"/>
<text text-anchor="middle" x="444" y="-7.5" font-family="Helvetica,sans-Serif" font-size="10.00">RoR::App::MpStateToStr</text>
</a>
</g>
</g>
<!-- Node2&#45;&gt;Node5 -->
<g id="edge4" class="edge"><title>Node2&#45;&gt;Node5</title>
<path fill="none" stroke="midnightblue" d="M343.74,-20.7768C352.504,-19.8253 361.428,-18.8564 370.152,-17.9092"/>
<polygon fill="midnightblue" stroke="midnightblue" points="370.717,-21.3686 380.281,-16.8095 369.961,-14.4094 370.717,-21.3686"/>
</g>
<!-- Node4 -->
<g id="node4" class="node"><title>Node4</title>
<g id="a_node4"><a xlink:href="namespace_ro_r_1_1_app.html#a3492dc6307a9d930ac73578e0d1f005e" target="_top" xlink:title="RoR::App::LogVarUpdate">
<polygon fill="white" stroke="black" points="544,-38.5 544,-57.5 672,-57.5 672,-38.5 544,-38.5"/>
<text text-anchor="middle" x="608" y="-45.5" font-family="Helvetica,sans-Serif" font-size="10.00">RoR::App::LogVarUpdate</text>
</a>
</g>
</g>
<!-- Node3&#45;&gt;Node4 -->
<g id="edge3" class="edge"><title>Node3&#45;&gt;Node4</title>
<path fill="none" stroke="midnightblue" d="M505.323,-48C514.572,-48 524.206,-48 533.698,-48"/>
<polygon fill="midnightblue" stroke="midnightblue" points="533.917,-51.5001 543.917,-48 533.917,-44.5001 533.917,-51.5001"/>
</g>
</g>
</svg>
