<?xml version="1.0" encoding="UTF-8" standalone="no"?>
<!DOCTYPE svg PUBLIC "-//W3C//DTD SVG 1.1//EN"
 "http://www.w3.org/Graphics/SVG/1.1/DTD/svg11.dtd">
<!-- Generated by graphviz version 2.36.0 (20140111.2315)
 -->
<!-- Title: Hydrax::Module::RadialGrid Pages: 1 -->
<svg width="2182pt" height="1014pt"
 viewBox="0.00 0.00 2182.00 1014.16" xmlns="http://www.w3.org/2000/svg" xmlns:xlink="http://www.w3.org/1999/xlink">
<g id="graph0" class="graph" transform="scale(1 1) rotate(0) translate(4 1010.16)">
<title>Hydrax::Module::RadialGrid</title>
<polygon fill="white" stroke="none" points="-4,4 -4,-1010.16 2178,-1010.16 2178,4 -4,4"/>
<!-- Node1 -->
<g id="node1" class="node"><title>Node1</title>
<polygon fill="#bfbfbf" stroke="black" points="934.5,-800.5 934.5,-819.5 1071.5,-819.5 1071.5,-800.5 934.5,-800.5"/>
<text text-anchor="middle" x="1003" y="-807.5" font-family="Helvetica,sans-Serif" font-size="10.00">Hydrax::Module::RadialGrid</text>
</g>
<!-- Node2 -->
<g id="node2" class="node"><title>Node2</title>
<g id="a_node2"><a xlink:href="class_hydrax_1_1_module_1_1_module.html" target="_top" xlink:title="Hydrax::Module::Module">
<polygon fill="white" stroke="black" points="418.5,-411.5 418.5,-430.5 541.5,-430.5 541.5,-411.5 418.5,-411.5"/>
<text text-anchor="middle" x="480" y="-418.5" font-family="Helvetica,sans-Serif" font-size="10.00">Hydrax::Module::Module</text>
</a>
</g>
</g>
<!-- Node2&#45;&gt;Node1 -->
<g id="edge1" class="edge"><title>Node2&#45;&gt;Node1</title>
<path fill="none" stroke="midnightblue" d="M484.728,-440.757C496.423,-497.152 537.75,-660.199 638,-744 721.646,-813.922 854.408,-820.134 934.372,-816.384"/>
<polygon fill="midnightblue" stroke="midnightblue" points="488.107,-439.805 482.723,-430.68 481.242,-441.171 488.107,-439.805"/>
</g>
<!-- Node7 -->
<g id="node7" class="node"><title>Node7</title>
<g id="a_node7"><a xlink:href="class_hydrax_1_1_hydrax.html" target="_top" xlink:title="Hydrax::Hydrax">
<polygon fill="white" stroke="black" points="666,-411.5 666,-430.5 752,-430.5 752,-411.5 666,-411.5"/>
<text text-anchor="middle" x="709" y="-418.5" font-family="Helvetica,sans-Serif" font-size="10.00">Hydrax::Hydrax</text>
</a>
</g>
</g>
<!-- Node2&#45;&gt;Node7 -->
<g id="edge43" class="edge"><title>Node2&#45;&gt;Node7</title>
<path fill="none" stroke="#9a32cd" stroke-dasharray="5,2" d="M551.883,-421C589.315,-421 633.983,-421 665.93,-421"/>
<polygon fill="#9a32cd" stroke="#9a32cd" points="551.534,-417.5 541.534,-421 551.534,-424.5 551.534,-417.5"/>
<text text-anchor="middle" x="590" y="-424" font-family="Helvetica,sans-Serif" font-size="10.00"> mModule</text>
</g>
<!-- Node3 -->
<g id="node3" class="node"><title>Node3</title>
<g id="a_node3"><a xlink:href="class_hydrax_1_1_noise_1_1_noise.html" target="_top" xlink:title="Hydrax::Noise::Noise">
<polygon fill="white" stroke="black" points="161.5,-188.5 161.5,-207.5 272.5,-207.5 272.5,-188.5 161.5,-188.5"/>
<text text-anchor="middle" x="217" y="-195.5" font-family="Helvetica,sans-Serif" font-size="10.00">Hydrax::Noise::Noise</text>
</a>
</g>
</g>
<!-- Node3&#45;&gt;Node2 -->
<g id="edge2" class="edge"><title>Node3&#45;&gt;Node2</title>
<path fill="none" stroke="#9a32cd" stroke-dasharray="5,2" d="M223.759,-217.367C233.584,-247.37 256.269,-305.242 294,-340 331.772,-374.796 352.967,-365.376 400,-386 419.508,-394.554 441.681,-404.387 457.56,-411.449"/>
<polygon fill="#9a32cd" stroke="#9a32cd" points="227.049,-216.162 220.717,-207.668 220.37,-218.258 227.049,-216.162"/>
<text text-anchor="middle" x="347" y="-389" font-family="Helvetica,sans-Serif" font-size="10.00"> mNoise</text>
</g>
<!-- Node30 -->
<g id="node30" class="node"><title>Node30</title>
<g id="a_node30"><a xlink:href="class_hydrax_1_1_noise_1_1_perlin.html" target="_top" xlink:title="Hydrax::Noise::Perlin">
<polygon fill="white" stroke="black" points="1594,-211.5 1594,-230.5 1704,-230.5 1704,-211.5 1594,-211.5"/>
<text text-anchor="middle" x="1649" y="-218.5" font-family="Helvetica,sans-Serif" font-size="10.00">Hydrax::Noise::Perlin</text>
</a>
</g>
</g>
<!-- Node3&#45;&gt;Node30 -->
<g id="edge51" class="edge"><title>Node3&#45;&gt;Node30</title>
<path fill="none" stroke="midnightblue" d="M282.585,-188.228C389.476,-172.6 610.047,-142.659 798,-132 845.923,-129.282 858.287,-126.762 906,-132 914.146,-132.894 915.926,-134.598 924,-136 1074.94,-162.201 1113.86,-161.073 1266,-179 1382.78,-192.761 1519.83,-207.482 1593.88,-215.318"/>
<polygon fill="midnightblue" stroke="midnightblue" points="281.985,-184.778 272.6,-189.694 283.003,-191.704 281.985,-184.778"/>
</g>
<!-- Node4 -->
<g id="node4" class="node"><title>Node4</title>
<g id="a_node4"><a xlink:href="struct_hydrax_1_1_mesh_1_1_options.html" target="_top" xlink:title="Hydrax::Mesh::Options">
<polygon fill="white" stroke="black" points="158,-344.5 158,-363.5 276,-363.5 276,-344.5 158,-344.5"/>
<text text-anchor="middle" x="217" y="-351.5" font-family="Helvetica,sans-Serif" font-size="10.00">Hydrax::Mesh::Options</text>
</a>
</g>
</g>
<!-- Node4&#45;&gt;Node2 -->
<g id="edge3" class="edge"><title>Node4&#45;&gt;Node2</title>
<path fill="none" stroke="#9a32cd" stroke-dasharray="5,2" d="M238.686,-369.478C253.35,-379.613 273.914,-392.199 294,-399 334.133,-412.589 381.636,-418.031 418.457,-420.106"/>
<polygon fill="#9a32cd" stroke="#9a32cd" points="240.551,-366.509 230.376,-363.557 236.489,-372.21 240.551,-366.509"/>
<text text-anchor="middle" x="347" y="-422" font-family="Helvetica,sans-Serif" font-size="10.00"> mMeshOptions</text>
</g>
<!-- Node8 -->
<g id="node8" class="node"><title>Node8</title>
<g id="a_node8"><a xlink:href="class_hydrax_1_1_mesh.html" target="_top" xlink:title="Hydrax::Mesh">
<polygon fill="white" stroke="black" points="964,-353.5 964,-372.5 1042,-372.5 1042,-353.5 964,-353.5"/>
<text text-anchor="middle" x="1003" y="-360.5" font-family="Helvetica,sans-Serif" font-size="10.00">Hydrax::Mesh</text>
</a>
</g>
</g>
<!-- Node4&#45;&gt;Node8 -->
<g id="edge9" class="edge"><title>Node4&#45;&gt;Node8</title>
<path fill="none" stroke="#9a32cd" stroke-dasharray="5,2" d="M286.166,-351.365C394.545,-347.346 612.843,-339.945 798,-338 845.997,-337.496 858.62,-330.311 906,-338 914.324,-339.351 915.896,-341.667 924,-344 936.858,-347.702 951.041,-351.299 963.747,-354.35"/>
<polygon fill="#9a32cd" stroke="#9a32cd" points="285.888,-347.873 276.025,-351.743 286.149,-354.868 285.888,-347.873"/>
<text text-anchor="middle" x="590" y="-346" font-family="Helvetica,sans-Serif" font-size="10.00"> mOptions</text>
</g>
<!-- Node5 -->
<g id="node5" class="node"><title>Node5</title>
<g id="a_node5"><a xlink:href="struct_hydrax_1_1_size.html" target="_top" xlink:title="Hydrax::Size">
<polygon fill="white" stroke="black" points="0,-324.5 0,-343.5 74,-343.5 74,-324.5 0,-324.5"/>
<text text-anchor="middle" x="37" y="-331.5" font-family="Helvetica,sans-Serif" font-size="10.00">Hydrax::Size</text>
</a>
</g>
</g>
<!-- Node5&#45;&gt;Node4 -->
<g id="edge4" class="edge"><title>Node5&#45;&gt;Node4</title>
<path fill="none" stroke="#9a32cd" stroke-dasharray="5,2" d="M84.0143,-339.17C106.572,-341.705 133.978,-344.784 157.959,-347.478"/>
<polygon fill="#9a32cd" stroke="#9a32cd" points="84.3493,-335.686 74.021,-338.047 83.5676,-342.642 84.3493,-335.686"/>
<text text-anchor="middle" x="116" y="-349" font-family="Helvetica,sans-Serif" font-size="10.00"> MeshSize</text>
</g>
<!-- Node15 -->
<g id="node15" class="node"><title>Node15</title>
<g id="a_node15"><a xlink:href="struct_hydrax_1_1_rtt_manager_1_1_rtt_options.html" target="_top" xlink:title="Hydrax::RttManager\l::RttOptions">
<polygon fill="white" stroke="black" points="294.5,-301 294.5,-331 399.5,-331 399.5,-301 294.5,-301"/>
<text text-anchor="start" x="302.5" y="-319" font-family="Helvetica,sans-Serif" font-size="10.00">Hydrax::RttManager</text>
<text text-anchor="middle" x="347" y="-308" font-family="Helvetica,sans-Serif" font-size="10.00">::RttOptions</text>
</a>
</g>
</g>
<!-- Node5&#45;&gt;Node15 -->
<g id="edge20" class="edge"><title>Node5&#45;&gt;Node15</title>
<path fill="none" stroke="#9a32cd" stroke-dasharray="5,2" d="M84.3,-326.809C86.9016,-326.509 89.4817,-326.235 92,-326 161.864,-319.469 242.926,-317.193 294.326,-316.406"/>
<polygon fill="#9a32cd" stroke="#9a32cd" points="83.7249,-323.354 74.2438,-328.083 84.6043,-330.299 83.7249,-323.354"/>
<text text-anchor="middle" x="116" y="-329" font-family="Helvetica,sans-Serif" font-size="10.00"> Size_</text>
</g>
<!-- Node6 -->
<g id="node6" class="node"><title>Node6</title>
<g id="a_node6"><a xlink:href="struct_hydrax_1_1_mesh_1_1_p_o_s___n_o_r_m___v_e_r_t_e_x.html" target="_top" xlink:title="Hydrax::Mesh::POS_NORM\l_VERTEX">
<polygon fill="white" stroke="black" points="638.5,-832 638.5,-862 779.5,-862 779.5,-832 638.5,-832"/>
<text text-anchor="start" x="646.5" y="-850" font-family="Helvetica,sans-Serif" font-size="10.00">Hydrax::Mesh::POS_NORM</text>
<text text-anchor="middle" x="709" y="-839" font-family="Helvetica,sans-Serif" font-size="10.00">_VERTEX</text>
</a>
</g>
</g>
<!-- Node6&#45;&gt;Node1 -->
<g id="edge5" class="edge"><title>Node6&#45;&gt;Node1</title>
<path fill="none" stroke="#9a32cd" stroke-dasharray="5,2" d="M789.669,-836.905C835.045,-831.155 891.278,-824.03 934.472,-818.557"/>
<polygon fill="#9a32cd" stroke="#9a32cd" points="789.051,-833.455 779.57,-838.185 789.931,-840.4 789.051,-833.455"/>
<text text-anchor="middle" x="852" y="-839" font-family="Helvetica,sans-Serif" font-size="10.00"> mVerticesChoppyBuffer</text>
</g>
<!-- Node7&#45;&gt;Node1 -->
<g id="edge6" class="edge"><title>Node7&#45;&gt;Node1</title>
<path fill="none" stroke="#9a32cd" stroke-dasharray="5,2" d="M717.747,-440.356C731.904,-476.369 762.137,-556.341 780,-626 791.544,-671.015 768.674,-692.95 798,-729 809.633,-743.3 920.23,-782.26 973.539,-800.43"/>
<polygon fill="#9a32cd" stroke="#9a32cd" points="720.839,-438.658 713.901,-430.651 714.331,-441.237 720.839,-438.658"/>
<text text-anchor="middle" x="852" y="-780" font-family="Helvetica,sans-Serif" font-size="10.00"> mHydrax</text>
</g>
<!-- Node7&#45;&gt;Node8 -->
<g id="edge8" class="edge"><title>Node7&#45;&gt;Node8</title>
<path fill="none" stroke="#9a32cd" stroke-dasharray="5,2" d="M725.245,-403.667C741.366,-386.772 768.509,-362.183 798,-352 854.994,-332.32 926.252,-343.628 967.697,-353.447"/>
<polygon fill="#9a32cd" stroke="#9a32cd" points="722.461,-401.523 718.254,-411.247 727.606,-406.269 722.461,-401.523"/>
<text text-anchor="middle" x="852" y="-355" font-family="Helvetica,sans-Serif" font-size="10.00"> mHydrax</text>
</g>
<!-- Node9 -->
<g id="node9" class="node"><title>Node9</title>
<g id="a_node9"><a xlink:href="class_hydrax_1_1_material_manager.html" target="_top" xlink:title="Hydrax::MaterialManager">
<polygon fill="white" stroke="black" points="940,-107.5 940,-126.5 1066,-126.5 1066,-107.5 940,-107.5"/>
<text text-anchor="middle" x="1003" y="-114.5" font-family="Helvetica,sans-Serif" font-size="10.00">Hydrax::MaterialManager</text>
</a>
</g>
</g>
<!-- Node7&#45;&gt;Node9 -->
<g id="edge11" class="edge"><title>Node7&#45;&gt;Node9</title>
<path fill="none" stroke="#9a32cd" stroke-dasharray="5,2" d="M711.256,-401.013C715.25,-355.395 731.67,-243.147 798,-186 835.181,-153.967 859.545,-178.826 906,-163 934.865,-153.167 966.402,-136.9 985.175,-126.578"/>
<polygon fill="#9a32cd" stroke="#9a32cd" points="707.757,-400.863 710.485,-411.101 714.737,-401.397 707.757,-400.863"/>
<text text-anchor="middle" x="852" y="-189" font-family="Helvetica,sans-Serif" font-size="10.00"> mHydrax</text>
</g>
<!-- Node13 -->
<g id="node13" class="node"><title>Node13</title>
<g id="a_node13"><a xlink:href="class_hydrax_1_1_decals_manager.html" target="_top" xlink:title="Hydrax::DecalsManager">
<polygon fill="white" stroke="black" points="942,-602.5 942,-621.5 1064,-621.5 1064,-602.5 942,-602.5"/>
<text text-anchor="middle" x="1003" y="-609.5" font-family="Helvetica,sans-Serif" font-size="10.00">Hydrax::DecalsManager</text>
</a>
</g>
</g>
<!-- Node7&#45;&gt;Node13 -->
<g id="edge17" class="edge"><title>Node7&#45;&gt;Node13</title>
<path fill="none" stroke="#9a32cd" stroke-dasharray="5,2" d="M712.895,-440.801C719.749,-479.665 740.904,-565.408 798,-603 847.004,-635.264 917.908,-629.573 961.914,-621.517"/>
<polygon fill="#9a32cd" stroke="#9a32cd" points="716.322,-440.063 711.263,-430.754 709.412,-441.186 716.322,-440.063"/>
<text text-anchor="middle" x="852" y="-631" font-family="Helvetica,sans-Serif" font-size="10.00"> mHydrax</text>
</g>
<!-- Node14 -->
<g id="node14" class="node"><title>Node14</title>
<g id="a_node14"><a xlink:href="class_hydrax_1_1_rtt_manager.html" target="_top" xlink:title="Hydrax::RttManager">
<polygon fill="white" stroke="black" points="950.5,-700.5 950.5,-719.5 1055.5,-719.5 1055.5,-700.5 950.5,-700.5"/>
<text text-anchor="middle" x="1003" y="-707.5" font-family="Helvetica,sans-Serif" font-size="10.00">Hydrax::RttManager</text>
</a>
</g>
</g>
<!-- Node7&#45;&gt;Node14 -->
<g id="edge30" class="edge"><title>Node7&#45;&gt;Node14</title>
<path fill="none" stroke="#9a32cd" stroke-dasharray="5,2" d="M717.223,-440.501C730.524,-476.752 759.411,-557.097 780,-626 789.197,-656.778 773.303,-675.458 798,-696 820.312,-714.558 897.336,-715.122 950.085,-713.106"/>
<polygon fill="#9a32cd" stroke="#9a32cd" points="720.364,-438.901 713.622,-430.728 713.796,-441.322 720.364,-438.901"/>
<text text-anchor="middle" x="852" y="-717" font-family="Helvetica,sans-Serif" font-size="10.00"> mHydrax</text>
</g>
<!-- Node25 -->
<g id="node25" class="node"><title>Node25</title>
<g id="a_node25"><a xlink:href="class_hydrax_1_1_hydrax_1_1_device_listener.html" target="_top" xlink:title="Hydrax::Hydrax::DeviceListener">
<polygon fill="white" stroke="black" points="924.5,-513.5 924.5,-532.5 1081.5,-532.5 1081.5,-513.5 924.5,-513.5"/>
<text text-anchor="middle" x="1003" y="-520.5" font-family="Helvetica,sans-Serif" font-size="10.00">Hydrax::Hydrax::DeviceListener</text>
</a>
</g>
</g>
<!-- Node7&#45;&gt;Node25 -->
<g id="edge42" class="edge"><title>Node7&#45;&gt;Node25</title>
<path fill="none" stroke="#9a32cd" stroke-dasharray="5,2" d="M718.197,-440.121C730.857,-466.885 757.964,-514.434 798,-534 822.537,-545.991 891.376,-539.575 942.337,-532.558"/>
<polygon fill="#9a32cd" stroke="#9a32cd" points="721.234,-438.343 713.922,-430.675 714.856,-441.228 721.234,-438.343"/>
<text text-anchor="middle" x="852" y="-544" font-family="Helvetica,sans-Serif" font-size="10.00"> mHydrax</text>
</g>
<!-- Node27 -->
<g id="node27" class="node"><title>Node27</title>
<g id="a_node27"><a xlink:href="class_hydrax_1_1_g_p_u_normal_map_manager.html" target="_top" xlink:title="Hydrax::GPUNormalMapManager">
<polygon fill="white" stroke="black" points="1266,-277.5 1266,-296.5 1430,-296.5 1430,-277.5 1266,-277.5"/>
<text text-anchor="middle" x="1348" y="-284.5" font-family="Helvetica,sans-Serif" font-size="10.00">Hydrax::GPUNormalMapManager</text>
</a>
</g>
</g>
<!-- Node7&#45;&gt;Node27 -->
<g id="edge45" class="edge"><title>Node7&#45;&gt;Node27</title>
<path fill="none" stroke="#9a32cd" stroke-dasharray="5,2" d="M717.975,-401.837C730.647,-373.842 758.095,-322.15 798,-295 963.519,-182.383 1048.62,-256.928 1248,-275 1255.93,-275.719 1264.21,-276.567 1272.45,-277.474"/>
<polygon fill="#9a32cd" stroke="#9a32cd" points="714.635,-400.74 713.847,-411.306 721.052,-403.538 714.635,-400.74"/>
<text text-anchor="middle" x="1003" y="-251" font-family="Helvetica,sans-Serif" font-size="10.00"> mHydrax</text>
</g>
<!-- Node28 -->
<g id="node28" class="node"><title>Node28</title>
<g id="a_node28"><a xlink:href="class_hydrax_1_1_cfg_file_manager.html" target="_top" xlink:title="Hydrax::CfgFileManager">
<polygon fill="white" stroke="black" points="941.5,-460.5 941.5,-479.5 1064.5,-479.5 1064.5,-460.5 941.5,-460.5"/>
<text text-anchor="middle" x="1003" y="-467.5" font-family="Helvetica,sans-Serif" font-size="10.00">Hydrax::CfgFileManager</text>
</a>
</g>
</g>
<!-- Node7&#45;&gt;Node28 -->
<g id="edge48" class="edge"><title>Node7&#45;&gt;Node28</title>
<path fill="none" stroke="#9a32cd" stroke-dasharray="5,2" d="M762.076,-429.739C813.603,-438.386 892.253,-451.583 945.325,-460.489"/>
<polygon fill="#9a32cd" stroke="#9a32cd" points="762.589,-426.276 752.147,-428.073 761.43,-433.179 762.589,-426.276"/>
<text text-anchor="middle" x="852" y="-456" font-family="Helvetica,sans-Serif" font-size="10.00"> mHydrax</text>
</g>
<!-- Node29 -->
<g id="node29" class="node"><title>Node29</title>
<g id="a_node29"><a xlink:href="class_hydrax_1_1_god_rays_manager.html" target="_top" xlink:title="Hydrax::GodRaysManager">
<polygon fill="white" stroke="black" points="1778.5,-173.5 1778.5,-192.5 1911.5,-192.5 1911.5,-173.5 1778.5,-173.5"/>
<text text-anchor="middle" x="1845" y="-180.5" font-family="Helvetica,sans-Serif" font-size="10.00">Hydrax::GodRaysManager</text>
</a>
</g>
</g>
<!-- Node7&#45;&gt;Node29 -->
<g id="edge57" class="edge"><title>Node7&#45;&gt;Node29</title>
<path fill="none" stroke="#9a32cd" stroke-dasharray="5,2" d="M713.02,-401.436C720.097,-363.016 741.632,-278.133 798,-240 958.238,-131.598 1574.56,-164.005 1778.24,-178.049"/>
<polygon fill="#9a32cd" stroke="#9a32cd" points="709.558,-400.92 711.328,-411.366 716.458,-402.096 709.558,-400.92"/>
<text text-anchor="middle" x="1348" y="-167" font-family="Helvetica,sans-Serif" font-size="10.00"> mHydrax</text>
</g>
<!-- Node33 -->
<g id="node33" class="node"><title>Node33</title>
<g id="a_node33"><a xlink:href="class_hydrax_1_1_texture_manager.html" target="_top" xlink:title="Hydrax::TextureManager">
<polygon fill="white" stroke="black" points="940.5,-401.5 940.5,-420.5 1065.5,-420.5 1065.5,-401.5 940.5,-401.5"/>
<text text-anchor="middle" x="1003" y="-408.5" font-family="Helvetica,sans-Serif" font-size="10.00">Hydrax::TextureManager</text>
</a>
</g>
</g>
<!-- Node7&#45;&gt;Node33 -->
<g id="edge59" class="edge"><title>Node7&#45;&gt;Node33</title>
<path fill="none" stroke="#9a32cd" stroke-dasharray="5,2" d="M751.577,-408.967C766.129,-405.32 782.664,-401.805 798,-400 845.554,-394.405 899.684,-397.77 940.23,-402.201"/>
<polygon fill="#9a32cd" stroke="#9a32cd" points="750.657,-405.589 741.859,-411.492 752.418,-412.364 750.657,-405.589"/>
<text text-anchor="middle" x="852" y="-403" font-family="Helvetica,sans-Serif" font-size="10.00"> mHydrax</text>
</g>
<!-- Node8&#45;&gt;Node7 -->
<g id="edge7" class="edge"><title>Node8&#45;&gt;Node7</title>
<path fill="none" stroke="#9a32cd" stroke-dasharray="5,2" d="M953.61,-363.548C911.808,-365.01 850.094,-369.549 798,-383 772.542,-389.573 744.987,-402.508 727.622,-411.447"/>
<polygon fill="#9a32cd" stroke="#9a32cd" points="953.902,-367.041 963.791,-363.239 953.689,-360.044 953.902,-367.041"/>
<text text-anchor="middle" x="852" y="-386" font-family="Helvetica,sans-Serif" font-size="10.00"> mMesh</text>
</g>
<!-- Node9&#45;&gt;Node7 -->
<g id="edge10" class="edge"><title>Node9&#45;&gt;Node7</title>
<path fill="none" stroke="#9a32cd" stroke-dasharray="5,2" d="M929.521,-111.87C886.583,-112.732 833.754,-121.126 798,-152 715.809,-222.971 709.943,-371.88 709.876,-411.27"/>
<polygon fill="#9a32cd" stroke="#9a32cd" points="929.668,-115.37 939.644,-111.801 929.62,-108.37 929.668,-115.37"/>
<text text-anchor="middle" x="852" y="-155" font-family="Helvetica,sans-Serif" font-size="10.00"> mMaterialManager</text>
</g>
<!-- Node10 -->
<g id="node10" class="node"><title>Node10</title>
<g id="a_node10"><a xlink:href="class_hydrax_1_1_material_manager_1_1_underwater_compositor_listener.html" target="_top" xlink:title="Hydrax::MaterialManager\l::UnderwaterCompositorListener">
<polygon fill="white" stroke="black" points="1269,-93 1269,-123 1427,-123 1427,-93 1269,-93"/>
<text text-anchor="start" x="1277" y="-111" font-family="Helvetica,sans-Serif" font-size="10.00">Hydrax::MaterialManager</text>
<text text-anchor="middle" x="1348" y="-100" font-family="Helvetica,sans-Serif" font-size="10.00">::UnderwaterCompositorListener</text>
</a>
</g>
</g>
<!-- Node9&#45;&gt;Node10 -->
<g id="edge14" class="edge"><title>Node9&#45;&gt;Node10</title>
<path fill="none" stroke="#9a32cd" stroke-dasharray="5,2" d="M1076.25,-108.662C1084.25,-107.98 1092.29,-107.4 1100,-107 1156.42,-104.069 1220.19,-104.42 1268.8,-105.451"/>
<polygon fill="#9a32cd" stroke="#9a32cd" points="1075.8,-105.188 1066.15,-109.575 1076.43,-112.16 1075.8,-105.188"/>
<text text-anchor="middle" x="1174" y="-110" font-family="Helvetica,sans-Serif" font-size="10.00"> mMaterialManager</text>
</g>
<!-- Node10&#45;&gt;Node9 -->
<g id="edge12" class="edge"><title>Node10&#45;&gt;Node9</title>
<path fill="none" stroke="#9a32cd" stroke-dasharray="5,2" d="M1258.73,-119.244C1255.11,-119.533 1251.52,-119.787 1248,-120 1182.34,-123.965 1165.77,-121.027 1100,-120 1089.08,-119.829 1077.46,-119.55 1066.22,-119.228"/>
<polygon fill="#9a32cd" stroke="#9a32cd" points="1259.33,-122.704 1268.99,-118.347 1258.72,-115.731 1259.33,-122.704"/>
<text text-anchor="middle" x="1174" y="-126" font-family="Helvetica,sans-Serif" font-size="10.00"> mUnderwaterCompositorListener</text>
</g>
<!-- Node11 -->
<g id="node11" class="node"><title>Node11</title>
<polygon fill="white" stroke="#bfbfbf" points="977.5,-69.5 977.5,-88.5 1028.5,-88.5 1028.5,-69.5 977.5,-69.5"/>
<text text-anchor="middle" x="1003" y="-76.5" font-family="Helvetica,sans-Serif" font-size="10.00">Listener</text>
</g>
<!-- Node11&#45;&gt;Node10 -->
<g id="edge13" class="edge"><title>Node11&#45;&gt;Node10</title>
<path fill="none" stroke="midnightblue" d="M1038.68,-81.9322C1092.24,-86.4608 1196.46,-95.2722 1268.82,-101.39"/>
<polygon fill="midnightblue" stroke="midnightblue" points="1038.93,-78.4406 1028.67,-81.0856 1038.34,-85.4157 1038.93,-78.4406"/>
</g>
<!-- Node12 -->
<g id="node12" class="node"><title>Node12</title>
<g id="a_node12"><a xlink:href="struct_hydrax_1_1_material_manager_1_1_options.html" target="_top" xlink:title="Hydrax::MaterialManager\l::Options">
<polygon fill="white" stroke="black" points="646,-0 646,-30 772,-30 772,-0 646,-0"/>
<text text-anchor="start" x="654" y="-18" font-family="Helvetica,sans-Serif" font-size="10.00">Hydrax::MaterialManager</text>
<text text-anchor="middle" x="709" y="-7" font-family="Helvetica,sans-Serif" font-size="10.00">::Options</text>
</a>
</g>
</g>
<!-- Node12&#45;&gt;Node9 -->
<g id="edge15" class="edge"><title>Node12&#45;&gt;Node9</title>
<path fill="none" stroke="#9a32cd" stroke-dasharray="5,2" d="M754.005,-34.0227C796.852,-52.0764 864.093,-79.1752 924,-98 935.036,-101.468 947.115,-104.684 958.401,-107.448"/>
<polygon fill="#9a32cd" stroke="#9a32cd" points="755.289,-30.7656 744.716,-30.0892 752.559,-37.2115 755.289,-30.7656"/>
<text text-anchor="middle" x="852" y="-94" font-family="Helvetica,sans-Serif" font-size="10.00"> mOptions</text>
</g>
<!-- Node13&#45;&gt;Node7 -->
<g id="edge16" class="edge"><title>Node13&#45;&gt;Node7</title>
<path fill="none" stroke="#9a32cd" stroke-dasharray="5,2" d="M951.536,-600.129C895.284,-586.588 810.523,-565.141 798,-556 751.448,-522.022 722.834,-455.312 713.432,-430.549"/>
<polygon fill="#9a32cd" stroke="#9a32cd" points="950.798,-603.552 961.338,-602.479 952.429,-596.744 950.798,-603.552"/>
<text text-anchor="middle" x="852" y="-591" font-family="Helvetica,sans-Serif" font-size="10.00"> mDecalsManager</text>
</g>
<!-- Node14&#45;&gt;Node7 -->
<g id="edge18" class="edge"><title>Node14&#45;&gt;Node7</title>
<path fill="none" stroke="#9a32cd" stroke-dasharray="5,2" d="M957.669,-697.608C901.327,-681.529 809.905,-654.21 798,-643 732.502,-581.323 714.814,-464.696 710.944,-430.593"/>
<polygon fill="#9a32cd" stroke="#9a32cd" points="956.838,-701.01 967.414,-700.377 958.751,-694.277 956.838,-701.01"/>
<text text-anchor="middle" x="852" y="-684" font-family="Helvetica,sans-Serif" font-size="10.00"> mRttManager</text>
</g>
<!-- Node16 -->
<g id="node16" class="node"><title>Node16</title>
<g id="a_node16"><a xlink:href="class_hydrax_1_1_rtt_manager_1_1_c_reflection_listener.html" target="_top" xlink:title="Hydrax::RttManager\l::CReflectionListener">
<polygon fill="white" stroke="black" points="1594.5,-885 1594.5,-915 1703.5,-915 1703.5,-885 1594.5,-885"/>
<text text-anchor="start" x="1602.5" y="-903" font-family="Helvetica,sans-Serif" font-size="10.00">Hydrax::RttManager</text>
<text text-anchor="middle" x="1649" y="-892" font-family="Helvetica,sans-Serif" font-size="10.00">::CReflectionListener</text>
</a>
</g>
</g>
<!-- Node14&#45;&gt;Node16 -->
<g id="edge23" class="edge"><title>Node14&#45;&gt;Node16</title>
<path fill="none" stroke="#9a32cd" stroke-dasharray="5,2" d="M1025.21,-726.248C1043.12,-741.137 1068.02,-764.799 1082,-791 1099.77,-824.304 1072.7,-847.936 1100,-874 1176.71,-947.225 1470.12,-913.864 1576,-908 1581.9,-907.673 1588.06,-907.197 1594.19,-906.636"/>
<polygon fill="#9a32cd" stroke="#9a32cd" points="1027.03,-723.225 1017.05,-719.67 1022.64,-728.673 1027.03,-723.225"/>
<text text-anchor="middle" x="1348" y="-924" font-family="Helvetica,sans-Serif" font-size="10.00"> mRttManager</text>
</g>
<!-- Node18 -->
<g id="node18" class="node"><title>Node18</title>
<g id="a_node18"><a xlink:href="class_hydrax_1_1_rtt_manager_1_1_c_reflection_listener_1_1_c_reflection_queue_listener.html" target="_top" xlink:title="Hydrax::RttManager\l::CReflectionListener\l::CReflectionQueueListener">
<polygon fill="white" stroke="black" points="1279.5,-484.5 1279.5,-525.5 1416.5,-525.5 1416.5,-484.5 1279.5,-484.5"/>
<text text-anchor="start" x="1287.5" y="-513.5" font-family="Helvetica,sans-Serif" font-size="10.00">Hydrax::RttManager</text>
<text text-anchor="start" x="1287.5" y="-502.5" font-family="Helvetica,sans-Serif" font-size="10.00">::CReflectionListener</text>
<text text-anchor="middle" x="1348" y="-491.5" font-family="Helvetica,sans-Serif" font-size="10.00">::CReflectionQueueListener</text>
</a>
</g>
</g>
<!-- Node14&#45;&gt;Node18 -->
<g id="edge26" class="edge"><title>Node14&#45;&gt;Node18</title>
<path fill="none" stroke="#9a32cd" stroke-dasharray="5,2" d="M1026.15,-693.944C1044.22,-679.572 1068.84,-656.826 1082,-631 1104.3,-587.253 1063.67,-555.033 1100,-522 1147.62,-478.696 1224.05,-480.238 1279.29,-488.976"/>
<polygon fill="#9a32cd" stroke="#9a32cd" points="1023.68,-691.432 1017.88,-700.304 1027.94,-696.98 1023.68,-691.432"/>
<text text-anchor="middle" x="1174" y="-525" font-family="Helvetica,sans-Serif" font-size="10.00"> mRttManager</text>
</g>
<!-- Node20 -->
<g id="node20" class="node"><title>Node20</title>
<g id="a_node20"><a xlink:href="class_hydrax_1_1_rtt_manager_1_1_c_refraction_listener.html" target="_top" xlink:title="Hydrax::RttManager\l::CRefractionListener">
<polygon fill="white" stroke="black" points="1293,-810 1293,-840 1403,-840 1403,-810 1293,-810"/>
<text text-anchor="start" x="1301" y="-828" font-family="Helvetica,sans-Serif" font-size="10.00">Hydrax::RttManager</text>
<text text-anchor="middle" x="1348" y="-817" font-family="Helvetica,sans-Serif" font-size="10.00">::CRefractionListener</text>
</a>
</g>
</g>
<!-- Node14&#45;&gt;Node20 -->
<g id="edge29" class="edge"><title>Node14&#45;&gt;Node20</title>
<path fill="none" stroke="#9a32cd" stroke-dasharray="5,2" d="M1033.92,-723.809C1052.69,-732.212 1077.51,-742.857 1100,-751 1165.45,-774.696 1242.52,-796.908 1292.95,-810.696"/>
<polygon fill="#9a32cd" stroke="#9a32cd" points="1035.26,-720.572 1024.7,-719.645 1032.38,-726.951 1035.26,-720.572"/>
<text text-anchor="middle" x="1174" y="-801" font-family="Helvetica,sans-Serif" font-size="10.00"> mRttManager</text>
</g>
<!-- Node21 -->
<g id="node21" class="node"><title>Node21</title>
<g id="a_node21"><a xlink:href="class_hydrax_1_1_rtt_manager_1_1_c_g_p_u_normal_map_listener.html" target="_top" xlink:title="Hydrax::RttManager\l::CGPUNormalMapListener">
<polygon fill="white" stroke="black" points="1279.5,-729 1279.5,-759 1416.5,-759 1416.5,-729 1279.5,-729"/>
<text text-anchor="start" x="1287.5" y="-747" font-family="Helvetica,sans-Serif" font-size="10.00">Hydrax::RttManager</text>
<text text-anchor="middle" x="1348" y="-736" font-family="Helvetica,sans-Serif" font-size="10.00">::CGPUNormalMapListener</text>
</a>
</g>
</g>
<!-- Node14&#45;&gt;Node21 -->
<g id="edge33" class="edge"><title>Node14&#45;&gt;Node21</title>
<path fill="none" stroke="#9a32cd" stroke-dasharray="5,2" d="M1066.01,-718.079C1077.31,-719.458 1089,-720.823 1100,-722 1160.57,-728.481 1229.65,-734.519 1279.32,-738.623"/>
<polygon fill="#9a32cd" stroke="#9a32cd" points="1066.13,-714.567 1055.78,-716.814 1065.27,-721.514 1066.13,-714.567"/>
<text text-anchor="middle" x="1174" y="-739" font-family="Helvetica,sans-Serif" font-size="10.00"> mRttManager</text>
</g>
<!-- Node22 -->
<g id="node22" class="node"><title>Node22</title>
<g id="a_node22"><a xlink:href="class_hydrax_1_1_rtt_manager_1_1_c_depth_listener.html" target="_top" xlink:title="Hydrax::RttManager\l::CDepthListener">
<polygon fill="white" stroke="black" points="1295.5,-544 1295.5,-574 1400.5,-574 1400.5,-544 1295.5,-544"/>
<text text-anchor="start" x="1303.5" y="-562" font-family="Helvetica,sans-Serif" font-size="10.00">Hydrax::RttManager</text>
<text text-anchor="middle" x="1348" y="-551" font-family="Helvetica,sans-Serif" font-size="10.00">::CDepthListener</text>
</a>
</g>
</g>
<!-- Node14&#45;&gt;Node22 -->
<g id="edge36" class="edge"><title>Node14&#45;&gt;Node22</title>
<path fill="none" stroke="#9a32cd" stroke-dasharray="5,2" d="M1023.63,-693.728C1040.73,-678.781 1065.33,-655.318 1082,-631 1093.02,-614.921 1084.34,-602.617 1100,-591 1130.04,-568.712 1232.28,-561.934 1295.42,-559.881"/>
<polygon fill="#9a32cd" stroke="#9a32cd" points="1021.22,-691.183 1015.91,-700.348 1025.78,-696.498 1021.22,-691.183"/>
<text text-anchor="middle" x="1174" y="-594" font-family="Helvetica,sans-Serif" font-size="10.00"> mRttManager</text>
</g>
<!-- Node24 -->
<g id="node24" class="node"><title>Node24</title>
<g id="a_node24"><a xlink:href="class_hydrax_1_1_rtt_manager_1_1_c_depth_reflection_listener.html" target="_top" xlink:title="Hydrax::RttManager\l::CDepthReflectionListener">
<polygon fill="white" stroke="black" points="1280.5,-636 1280.5,-666 1415.5,-666 1415.5,-636 1280.5,-636"/>
<text text-anchor="start" x="1288.5" y="-654" font-family="Helvetica,sans-Serif" font-size="10.00">Hydrax::RttManager</text>
<text text-anchor="middle" x="1348" y="-643" font-family="Helvetica,sans-Serif" font-size="10.00">::CDepthReflectionListener</text>
</a>
</g>
</g>
<!-- Node14&#45;&gt;Node24 -->
<g id="edge39" class="edge"><title>Node14&#45;&gt;Node24</title>
<path fill="none" stroke="#9a32cd" stroke-dasharray="5,2" d="M1023.27,-694C1041.67,-679.839 1070.84,-660.189 1100,-652 1159.35,-635.334 1229.93,-637.07 1280.41,-641.796"/>
<polygon fill="#9a32cd" stroke="#9a32cd" points="1020.82,-691.481 1015.15,-700.436 1025.16,-696.967 1020.82,-691.481"/>
<text text-anchor="middle" x="1174" y="-655" font-family="Helvetica,sans-Serif" font-size="10.00"> mRttManager</text>
</g>
<!-- Node14&#45;&gt;Node27 -->
<g id="edge46" class="edge"><title>Node14&#45;&gt;Node27</title>
<path fill="none" stroke="#9a32cd" stroke-dasharray="5,2" d="M1026.5,-694.115C1044.78,-679.849 1069.52,-657.161 1082,-631 1113.01,-566.016 1064.08,-532.404 1100,-470 1152.84,-378.184 1272.24,-318.729 1323.21,-296.653"/>
<polygon fill="#9a32cd" stroke="#9a32cd" points="1024.01,-691.61 1018.12,-700.421 1028.22,-697.203 1024.01,-691.61"/>
<text text-anchor="middle" x="1174" y="-473" font-family="Helvetica,sans-Serif" font-size="10.00"> mRttManager</text>
</g>
<!-- Node15&#45;&gt;Node14 -->
<g id="edge19" class="edge"><title>Node15&#45;&gt;Node14</title>
<path fill="none" stroke="#9a32cd" stroke-dasharray="5,2" d="M410.035,-317.632C473.74,-322.958 570.374,-341.93 620,-406 656.687,-453.365 604.536,-625.306 638,-675 677.193,-733.201 723.936,-701.807 780,-744 789.555,-751.191 787.076,-759.135 798,-764 841.848,-783.528 859.567,-776.163 906,-764 938.927,-755.375 972.477,-732.637 989.865,-719.582"/>
<polygon fill="#9a32cd" stroke="#9a32cd" points="409.948,-314.116 399.716,-316.864 409.428,-321.097 409.948,-314.116"/>
<text text-anchor="middle" x="590" y="-409" font-family="Helvetica,sans-Serif" font-size="10.00"> mRttOptions</text>
</g>
<!-- Node16&#45;&gt;Node14 -->
<g id="edge21" class="edge"><title>Node16&#45;&gt;Node14</title>
<path fill="none" stroke="#9a32cd" stroke-dasharray="5,2" d="M1583.75,-897.436C1447.12,-891.434 1137.12,-874.682 1100,-845 1080.24,-829.2 1095.1,-812.644 1082,-791 1064.01,-761.269 1033.33,-733.722 1016.3,-719.696"/>
<polygon fill="#9a32cd" stroke="#9a32cd" points="1583.93,-900.947 1594.07,-897.884 1584.23,-893.954 1583.93,-900.947"/>
<text text-anchor="middle" x="1348" y="-893" font-family="Helvetica,sans-Serif" font-size="10.00"> mReflectionListener</text>
</g>
<!-- Node17 -->
<g id="node17" class="node"><title>Node17</title>
<polygon fill="white" stroke="#bfbfbf" points="948,-853.5 948,-872.5 1058,-872.5 1058,-853.5 948,-853.5"/>
<text text-anchor="middle" x="1003" y="-860.5" font-family="Helvetica,sans-Serif" font-size="10.00">RenderTargetListener</text>
</g>
<!-- Node17&#45;&gt;Node16 -->
<g id="edge22" class="edge"><title>Node17&#45;&gt;Node16</title>
<path fill="none" stroke="midnightblue" d="M1019.35,-880.427C1036.77,-898.775 1067.08,-926.556 1100,-938 1299.82,-1007.48 1370.83,-989.568 1576,-938 1593.96,-933.487 1612.39,-923.642 1626.11,-915.104"/>
<polygon fill="midnightblue" stroke="midnightblue" points="1021.63,-877.741 1012.28,-872.753 1016.48,-882.481 1021.63,-877.741"/>
</g>
<!-- Node17&#45;&gt;Node20 -->
<g id="edge28" class="edge"><title>Node17&#45;&gt;Node20</title>
<path fill="none" stroke="midnightblue" d="M1068.29,-862.47C1117.68,-861.302 1187.46,-857.999 1248,-849 1262.69,-846.816 1278.4,-843.481 1292.88,-839.986"/>
<polygon fill="midnightblue" stroke="midnightblue" points="1068,-858.976 1058.07,-862.689 1068.15,-865.974 1068,-858.976"/>
</g>
<!-- Node17&#45;&gt;Node21 -->
<g id="edge32" class="edge"><title>Node17&#45;&gt;Node21</title>
<path fill="none" stroke="midnightblue" d="M1050.78,-849.569C1062.1,-844.565 1073.4,-837.864 1082,-829 1097,-813.538 1083.19,-797.468 1100,-784 1113.88,-772.881 1211.06,-759.621 1279.3,-751.508"/>
<polygon fill="midnightblue" stroke="midnightblue" points="1049.29,-846.397 1041.33,-853.385 1051.91,-852.888 1049.29,-846.397"/>
</g>
<!-- Node17&#45;&gt;Node24 -->
<g id="edge38" class="edge"><title>Node17&#45;&gt;Node24</title>
<path fill="none" stroke="midnightblue" d="M1055.48,-849.44C1065.64,-844.542 1075.24,-837.923 1082,-829 1117.24,-782.518 1059.89,-741.35 1100,-699 1112.39,-685.917 1211.42,-669.758 1280.25,-659.924"/>
<polygon fill="midnightblue" stroke="midnightblue" points="1053.88,-846.32 1046.06,-853.471 1056.63,-852.756 1053.88,-846.32"/>
</g>
<!-- Node32 -->
<g id="node32" class="node"><title>Node32</title>
<g id="a_node32"><a xlink:href="class_hydrax_1_1_god_rays_manager_1_1_depth_map_listener.html" target="_top" xlink:title="Hydrax::GodRaysManager\l::DepthMapListener">
<polygon fill="white" stroke="black" points="2040.5,-202 2040.5,-232 2173.5,-232 2173.5,-202 2040.5,-202"/>
<text text-anchor="start" x="2048.5" y="-220" font-family="Helvetica,sans-Serif" font-size="10.00">Hydrax::GodRaysManager</text>
<text text-anchor="middle" x="2107" y="-209" font-family="Helvetica,sans-Serif" font-size="10.00">::DepthMapListener</text>
</a>
</g>
</g>
<!-- Node17&#45;&gt;Node32 -->
<g id="edge55" class="edge"><title>Node17&#45;&gt;Node32</title>
<path fill="none" stroke="midnightblue" d="M1014.38,-881.623C1029.55,-906.882 1060.37,-951.226 1100,-972 1197.9,-1023.32 1236.47,-1001 1347,-1001 1347,-1001 1347,-1001 1846,-1001 2014.32,-1001 2092.57,-341.754 2104.4,-232.309"/>
<polygon fill="midnightblue" stroke="midnightblue" points="1017.22,-879.56 1009.17,-872.673 1011.17,-883.078 1017.22,-879.56"/>
</g>
<!-- Node18&#45;&gt;Node16 -->
<g id="edge24" class="edge"><title>Node18&#45;&gt;Node16</title>
<path fill="none" stroke="#9a32cd" stroke-dasharray="5,2" d="M1425.7,-530.702C1427.18,-531.759 1428.61,-532.858 1430,-534 1554.48,-636.468 1625.04,-829.828 1643.24,-884.974"/>
<polygon fill="#9a32cd" stroke="#9a32cd" points="1427.17,-527.489 1416.85,-525.094 1423.42,-533.402 1427.17,-527.489"/>
<text text-anchor="middle" x="1512" y="-728" font-family="Helvetica,sans-Serif" font-size="10.00"> mCReflectionQueueListener</text>
</g>
<!-- Node19 -->
<g id="node19" class="node"><title>Node19</title>
<polygon fill="white" stroke="#bfbfbf" points="934,-315.5 934,-334.5 1072,-334.5 1072,-315.5 934,-315.5"/>
<text text-anchor="middle" x="1003" y="-322.5" font-family="Helvetica,sans-Serif" font-size="10.00">Ogre::RenderQueueListener</text>
</g>
<!-- Node19&#45;&gt;Node18 -->
<g id="edge25" class="edge"><title>Node19&#45;&gt;Node18</title>
<path fill="none" stroke="midnightblue" d="M1082.39,-331.494C1132.85,-338.628 1198.08,-353.596 1248,-385 1288.01,-410.169 1319.58,-457.003 1335.55,-484.121"/>
<polygon fill="midnightblue" stroke="midnightblue" points="1082.55,-327.985 1072.18,-330.128 1081.62,-334.923 1082.55,-327.985"/>
</g>
<!-- Node20&#45;&gt;Node14 -->
<g id="edge27" class="edge"><title>Node20&#45;&gt;Node14</title>
<path fill="none" stroke="#9a32cd" stroke-dasharray="5,2" d="M1282.6,-828.54C1220.17,-830.884 1130.54,-831.052 1100,-815 1088.2,-808.797 1090.64,-801.155 1082,-791 1058.97,-763.94 1029.26,-734.416 1014.01,-719.608"/>
<polygon fill="#9a32cd" stroke="#9a32cd" points="1282.91,-832.03 1292.76,-828.13 1282.63,-825.036 1282.91,-832.03"/>
<text text-anchor="middle" x="1174" y="-833" font-family="Helvetica,sans-Serif" font-size="10.00"> mRefractionListener</text>
</g>
<!-- Node21&#45;&gt;Node14 -->
<g id="edge31" class="edge"><title>Node21&#45;&gt;Node14</title>
<path fill="none" stroke="#9a32cd" stroke-dasharray="5,2" d="M1301.59,-725.501C1285.01,-719.652 1265.93,-713.948 1248,-711 1182.37,-700.212 1105.47,-702.28 1055.8,-705.493"/>
<polygon fill="#9a32cd" stroke="#9a32cd" points="1300.44,-728.806 1311.03,-728.941 1302.83,-722.229 1300.44,-728.806"/>
<text text-anchor="middle" x="1174" y="-714" font-family="Helvetica,sans-Serif" font-size="10.00"> mGPUNormalMapListener</text>
</g>
<!-- Node22&#45;&gt;Node14 -->
<g id="edge34" class="edge"><title>Node22&#45;&gt;Node14</title>
<path fill="none" stroke="#9a32cd" stroke-dasharray="5,2" d="M1285.39,-547.9C1221.61,-537.924 1127.52,-527.922 1100,-550 1071.23,-573.076 1099.64,-598.616 1082,-631 1065.77,-660.788 1034.99,-686.957 1017.34,-700.404"/>
<polygon fill="#9a32cd" stroke="#9a32cd" points="1284.92,-551.37 1295.35,-549.496 1286.03,-544.458 1284.92,-551.37"/>
<text text-anchor="middle" x="1174" y="-553" font-family="Helvetica,sans-Serif" font-size="10.00"> mDepthListener</text>
</g>
<!-- Node23 -->
<g id="node23" class="node"><title>Node23</title>
<polygon fill="white" stroke="#bfbfbf" points="934.5,-551.5 934.5,-570.5 1071.5,-570.5 1071.5,-551.5 934.5,-551.5"/>
<text text-anchor="middle" x="1003" y="-558.5" font-family="Helvetica,sans-Serif" font-size="10.00">Ogre::RenderTargetListener</text>
</g>
<!-- Node23&#45;&gt;Node22 -->
<g id="edge35" class="edge"><title>Node23&#45;&gt;Node22</title>
<path fill="none" stroke="midnightblue" d="M1076.33,-546.332C1078.31,-545.006 1080.21,-543.565 1082,-542 1098.53,-527.551 1081.87,-508.376 1100,-496 1154.33,-458.919 1192.42,-460.825 1248,-496 1263.79,-505.993 1251.88,-521.764 1266,-534 1274.34,-541.227 1284.75,-546.366 1295.29,-550.019"/>
<polygon fill="midnightblue" stroke="midnightblue" points="1074.18,-543.52 1067.15,-551.443 1077.59,-549.635 1074.18,-543.52"/>
</g>
<!-- Node24&#45;&gt;Node14 -->
<g id="edge37" class="edge"><title>Node24&#45;&gt;Node14</title>
<path fill="none" stroke="#9a32cd" stroke-dasharray="5,2" d="M1303.13,-632.273C1252.43,-613.499 1167.32,-590.951 1100,-618 1089.13,-622.368 1035.13,-677.658 1013.24,-700.365"/>
<polygon fill="#9a32cd" stroke="#9a32cd" points="1301.91,-635.55 1312.5,-635.842 1304.4,-629.009 1301.91,-635.55"/>
<text text-anchor="middle" x="1174" y="-621" font-family="Helvetica,sans-Serif" font-size="10.00"> mDepthReflectionListener</text>
</g>
<!-- Node25&#45;&gt;Node7 -->
<g id="edge40" class="edge"><title>Node25&#45;&gt;Node7</title>
<path fill="none" stroke="#9a32cd" stroke-dasharray="5,2" d="M913.92,-520.394C876.864,-516.704 834.068,-508.929 798,-493 764.233,-478.087 732.842,-446.543 718.373,-430.622"/>
<polygon fill="#9a32cd" stroke="#9a32cd" points="913.934,-523.909 924.21,-521.329 914.568,-516.938 913.934,-523.909"/>
<text text-anchor="middle" x="852" y="-522" font-family="Helvetica,sans-Serif" font-size="10.00"> mDeviceListener</text>
</g>
<!-- Node26 -->
<g id="node26" class="node"><title>Node26</title>
<polygon fill="white" stroke="#bfbfbf" points="654.5,-636 654.5,-666 763.5,-666 763.5,-636 654.5,-636"/>
<text text-anchor="start" x="662.5" y="-654" font-family="Helvetica,sans-Serif" font-size="10.00">Ogre::RenderSystem</text>
<text text-anchor="middle" x="709" y="-643" font-family="Helvetica,sans-Serif" font-size="10.00">::Listener</text>
</g>
<!-- Node26&#45;&gt;Node25 -->
<g id="edge41" class="edge"><title>Node26&#45;&gt;Node25</title>
<path fill="none" stroke="midnightblue" d="M773.931,-654.559C823.548,-655.876 886.99,-653.925 906,-637 938.096,-608.425 894.408,-573.162 924,-542 927.647,-538.159 931.93,-535.04 936.58,-532.513"/>
<polygon fill="midnightblue" stroke="midnightblue" points="773.997,-651.059 763.892,-654.244 773.778,-658.056 773.997,-651.059"/>
</g>
<!-- Node27&#45;&gt;Node7 -->
<g id="edge44" class="edge"><title>Node27&#45;&gt;Node7</title>
<path fill="none" stroke="#9a32cd" stroke-dasharray="5,2" d="M1255.97,-280.658C1169.77,-276.547 1037.08,-275.136 924,-295 865.721,-305.238 848.675,-307.45 798,-338 763.827,-358.601 731.906,-394.343 717.717,-411.402"/>
<polygon fill="#9a32cd" stroke="#9a32cd" points="1255.82,-284.155 1265.98,-281.158 1256.17,-277.163 1255.82,-284.155"/>
<text text-anchor="middle" x="1003" y="-298" font-family="Helvetica,sans-Serif" font-size="10.00"> mGPUNormalMapManager</text>
</g>
<!-- Node27&#45;&gt;Node30 -->
<g id="edge53" class="edge"><title>Node27&#45;&gt;Node30</title>
<path fill="none" stroke="#9a32cd" stroke-dasharray="5,2" d="M1440.29,-277.55C1482.15,-271.941 1532.11,-263.433 1576,-251 1594.37,-245.796 1614.35,-237.224 1628.59,-230.572"/>
<polygon fill="#9a32cd" stroke="#9a32cd" points="1439.58,-274.114 1430.11,-278.879 1440.48,-281.055 1439.58,-274.114"/>
<text text-anchor="middle" x="1512" y="-279" font-family="Helvetica,sans-Serif" font-size="10.00"> mGPUNormalMapManager</text>
</g>
<!-- Node28&#45;&gt;Node7 -->
<g id="edge47" class="edge"><title>Node28&#45;&gt;Node7</title>
<path fill="none" stroke="#9a32cd" stroke-dasharray="5,2" d="M931.106,-476.945C891.38,-478.862 841.272,-477.966 798,-467 769.591,-459.801 740.107,-441.878 723.503,-430.649"/>
<polygon fill="#9a32cd" stroke="#9a32cd" points="931.441,-480.432 941.233,-476.385 931.055,-473.442 931.441,-480.432"/>
<text text-anchor="middle" x="852" y="-481" font-family="Helvetica,sans-Serif" font-size="10.00"> mCfgFileManager</text>
</g>
<!-- Node29&#45;&gt;Node7 -->
<g id="edge49" class="edge"><title>Node29&#45;&gt;Node7</title>
<path fill="none" stroke="#9a32cd" stroke-dasharray="5,2" d="M1831.8,-165.04C1804.25,-126.842 1733.08,-41 1650,-41 1002,-41 1002,-41 1002,-41 906.287,-41 862.14,-38.9583 798,-110 714.145,-202.878 709.606,-369.933 709.83,-411.459"/>
<polygon fill="#9a32cd" stroke="#9a32cd" points="1828.95,-167.076 1837.57,-173.24 1834.68,-163.047 1828.95,-167.076"/>
<text text-anchor="middle" x="1348" y="-44" font-family="Helvetica,sans-Serif" font-size="10.00"> mGodRaysManager</text>
</g>
<!-- Node29&#45;&gt;Node32 -->
<g id="edge56" class="edge"><title>Node29&#45;&gt;Node32</title>
<path fill="none" stroke="#9a32cd" stroke-dasharray="5,2" d="M1922.17,-175.888C1953.39,-174.698 1989.7,-175.539 2022,-182 2041.36,-185.873 2061.85,-194.308 2077.74,-201.927"/>
<polygon fill="#9a32cd" stroke="#9a32cd" points="1921.63,-172.41 1911.8,-176.365 1921.95,-179.402 1921.63,-172.41"/>
<text text-anchor="middle" x="1976" y="-185" font-family="Helvetica,sans-Serif" font-size="10.00"> mGodRaysManager</text>
</g>
<!-- Node30&#45;&gt;Node29 -->
<g id="edge50" class="edge"><title>Node30&#45;&gt;Node29</title>
<path fill="none" stroke="#9a32cd" stroke-dasharray="5,2" d="M1708.91,-209.462C1736.58,-204.042 1769.16,-197.659 1795.4,-192.52"/>
<polygon fill="#9a32cd" stroke="#9a32cd" points="1708.1,-206.054 1698.95,-211.411 1709.44,-212.923 1708.1,-206.054"/>
<text text-anchor="middle" x="1741" y="-210" font-family="Helvetica,sans-Serif" font-size="10.00"> mPerlin</text>
</g>
<!-- Node31 -->
<g id="node31" class="node"><title>Node31</title>
<g id="a_node31"><a xlink:href="struct_hydrax_1_1_noise_1_1_perlin_1_1_options.html" target="_top" xlink:title="Hydrax::Noise::Perlin\l::Options">
<polygon fill="white" stroke="black" points="1293,-228 1293,-258 1403,-258 1403,-228 1293,-228"/>
<text text-anchor="start" x="1301" y="-246" font-family="Helvetica,sans-Serif" font-size="10.00">Hydrax::Noise::Perlin</text>
<text text-anchor="middle" x="1348" y="-235" font-family="Helvetica,sans-Serif" font-size="10.00">::Options</text>
</a>
</g>
</g>
<!-- Node31&#45;&gt;Node30 -->
<g id="edge52" class="edge"><title>Node31&#45;&gt;Node30</title>
<path fill="none" stroke="#9a32cd" stroke-dasharray="5,2" d="M1413.26,-238.272C1467.06,-234.314 1542.97,-228.728 1593.75,-224.992"/>
<polygon fill="#9a32cd" stroke="#9a32cd" points="1412.86,-234.792 1403.15,-239.016 1413.38,-241.773 1412.86,-234.792"/>
<text text-anchor="middle" x="1512" y="-239" font-family="Helvetica,sans-Serif" font-size="10.00"> mOptions</text>
</g>
<!-- Node32&#45;&gt;Node29 -->
<g id="edge54" class="edge"><title>Node32&#45;&gt;Node29</title>
<path fill="none" stroke="#9a32cd" stroke-dasharray="5,2" d="M2030.04,-207.801C1999.01,-203.965 1962.77,-199.388 1930,-195 1924.01,-194.198 1917.79,-193.346 1911.56,-192.479"/>
<polygon fill="#9a32cd" stroke="#9a32cd" points="2030,-211.322 2040.36,-209.072 2030.86,-204.375 2030,-211.322"/>
<text text-anchor="middle" x="1976" y="-210" font-family="Helvetica,sans-Serif" font-size="10.00"> mDepthMapListener</text>
</g>
<!-- Node33&#45;&gt;Node7 -->
<g id="edge58" class="edge"><title>Node33&#45;&gt;Node7</title>
<path fill="none" stroke="#9a32cd" stroke-dasharray="5,2" d="M930.047,-413.464C874.169,-415.378 798.611,-417.965 752.147,-419.557"/>
<polygon fill="#9a32cd" stroke="#9a32cd" points="930.366,-416.955 940.24,-413.115 930.126,-409.959 930.366,-416.955"/>
<text text-anchor="middle" x="852" y="-421" font-family="Helvetica,sans-Serif" font-size="10.00"> mTextureManager</text>
</g>
<!-- Node34 -->
<g id="node34" class="node"><title>Node34</title>
<g id="a_node34"><a xlink:href="struct_hydrax_1_1_module_1_1_radial_grid_1_1_options.html" target="_top" xlink:title="Hydrax::Module::RadialGrid\l::Options">
<polygon fill="white" stroke="black" points="640.5,-881 640.5,-911 777.5,-911 777.5,-881 640.5,-881"/>
<text text-anchor="start" x="648.5" y="-899" font-family="Helvetica,sans-Serif" font-size="10.00">Hydrax::Module::RadialGrid</text>
<text text-anchor="middle" x="709" y="-888" font-family="Helvetica,sans-Serif" font-size="10.00">::Options</text>
</a>
</g>
</g>
<!-- Node34&#45;&gt;Node1 -->
<g id="edge60" class="edge"><title>Node34&#45;&gt;Node1</title>
<path fill="none" stroke="#9a32cd" stroke-dasharray="5,2" d="M787.97,-881.427C824.262,-873.8 867.764,-863.445 906,-851 913.41,-848.588 954.199,-830.909 980.169,-819.567"/>
<polygon fill="#9a32cd" stroke="#9a32cd" points="787.018,-878.05 777.936,-883.505 788.438,-884.904 787.018,-878.05"/>
<text text-anchor="middle" x="852" y="-882" font-family="Helvetica,sans-Serif" font-size="10.00"> mOptions</text>
</g>
</g>
</svg>
