<?xml version="1.0" encoding="UTF-8" standalone="no"?>
<!DOCTYPE svg PUBLIC "-//W3C//DTD SVG 1.1//EN"
 "http://www.w3.org/Graphics/SVG/1.1/DTD/svg11.dtd">
<!-- Generated by graphviz version 2.36.0 (20140111.2315)
 -->
<!-- Title: Hydrax::Noise::FFT::_calculeNoise Pages: 1 -->
<svg width="262pt" height="87pt"
 viewBox="0.00 0.00 262.00 87.00" xmlns="http://www.w3.org/2000/svg" xmlns:xlink="http://www.w3.org/1999/xlink">
<g id="graph0" class="graph" transform="scale(1 1) rotate(0) translate(4 83)">
<title>Hydrax::Noise::FFT::_calculeNoise</title>
<polygon fill="white" stroke="none" points="-4,4 -4,-83 258,-83 258,4 -4,4"/>
<!-- Node1 -->
<g id="node1" class="node"><title>Node1</title>
<polygon fill="#bfbfbf" stroke="black" points="0,-24 0,-54 104,-54 104,-24 0,-24"/>
<text text-anchor="start" x="8" y="-42" font-family="Helvetica,sans-Serif" font-size="10.00">Hydrax::Noise::FFT</text>
<text text-anchor="middle" x="52" y="-31" font-family="Helvetica,sans-Serif" font-size="10.00">::_calculeNoise</text>
</g>
<!-- Node2 -->
<g id="node2" class="node"><title>Node2</title>
<g id="a_node2"><a xlink:href="class_hydrax_1_1_noise_1_1_f_f_t.html#a44124ca34d9a04ba0170bae38eee69f3" target="_top" xlink:title="Hydrax::Noise::FFT\l::_executeInverseFFT">
<polygon fill="white" stroke="black" points="140.5,-49 140.5,-79 253.5,-79 253.5,-49 140.5,-49"/>
<text text-anchor="start" x="148.5" y="-67" font-family="Helvetica,sans-Serif" font-size="10.00">Hydrax::Noise::FFT</text>
<text text-anchor="middle" x="197" y="-56" font-family="Helvetica,sans-Serif" font-size="10.00">::_executeInverseFFT</text>
</a>
</g>
</g>
<!-- Node1&#45;&gt;Node2 -->
<g id="edge1" class="edge"><title>Node1&#45;&gt;Node2</title>
<path fill="none" stroke="midnightblue" d="M104.222,-47.955C112.724,-49.4412 121.642,-51.0003 130.439,-52.5383"/>
<polygon fill="midnightblue" stroke="midnightblue" points="129.838,-55.9863 140.292,-54.2608 131.044,-49.0909 129.838,-55.9863"/>
</g>
<!-- Node3 -->
<g id="node3" class="node"><title>Node3</title>
<g id="a_node3"><a xlink:href="class_hydrax_1_1_noise_1_1_f_f_t.html#a46f4f290e8ce60d23aa402a2427b82d6" target="_top" xlink:title="Hydrax::Noise::FFT\l::_normalizeFFTData">
<polygon fill="white" stroke="black" points="142.5,-0 142.5,-30 251.5,-30 251.5,-0 142.5,-0"/>
<text text-anchor="start" x="150.5" y="-18" font-family="Helvetica,sans-Serif" font-size="10.00">Hydrax::Noise::FFT</text>
<text text-anchor="middle" x="197" y="-7" font-family="Helvetica,sans-Serif" font-size="10.00">::_normalizeFFTData</text>
</a>
</g>
</g>
<!-- Node1&#45;&gt;Node3 -->
<g id="edge2" class="edge"><title>Node1&#45;&gt;Node3</title>
<path fill="none" stroke="midnightblue" d="M104.222,-30.4032C113.286,-28.8821 122.823,-27.2814 132.183,-25.7106"/>
<polygon fill="midnightblue" stroke="midnightblue" points="132.956,-29.1299 142.239,-24.0229 131.797,-22.2264 132.956,-29.1299"/>
</g>
</g>
</svg>
