<?xml version="1.0" encoding="UTF-8" standalone="no"?>
<!DOCTYPE svg PUBLIC "-//W3C//DTD SVG 1.1//EN"
 "http://www.w3.org/Graphics/SVG/1.1/DTD/svg11.dtd">
<!-- Generated by graphviz version 2.36.0 (20140111.2315)
 -->
<!-- Title: wraps::BaseLayout::assignWidget Pages: 1 -->
<svg width="518pt" height="832pt"
 viewBox="0.00 0.00 518.00 832.00" xmlns="http://www.w3.org/2000/svg" xmlns:xlink="http://www.w3.org/1999/xlink">
<g id="graph0" class="graph" transform="scale(1 1) rotate(0) translate(4 828)">
<title>wraps::BaseLayout::assignWidget</title>
<polygon fill="white" stroke="none" points="-4,4 -4,-828 514,-828 514,4 -4,4"/>
<!-- Node1 -->
<g id="node1" class="node"><title>Node1</title>
<polygon fill="#bfbfbf" stroke="black" points="0.5,-377 0.5,-407 107.5,-407 107.5,-377 0.5,-377"/>
<text text-anchor="start" x="8.5" y="-395" font-family="Helvetica,sans-Serif" font-size="10.00">wraps::BaseLayout::</text>
<text text-anchor="middle" x="54" y="-384" font-family="Helvetica,sans-Serif" font-size="10.00">assignWidget</text>
</g>
<!-- Node2 -->
<g id="node2" class="node"><title>Node2</title>
<g id="a_node2"><a xlink:href="classwraps_1_1_base_layout.html#aa6f806c099807cf01b238dff74538f7b" target="_top" xlink:title="wraps::BaseLayout::\linitialiseByAttributes">
<polygon fill="white" stroke="black" points="168.5,-402 168.5,-432 275.5,-432 275.5,-402 168.5,-402"/>
<text text-anchor="start" x="176.5" y="-420" font-family="Helvetica,sans-Serif" font-size="10.00">wraps::BaseLayout::</text>
<text text-anchor="middle" x="222" y="-409" font-family="Helvetica,sans-Serif" font-size="10.00">initialiseByAttributes</text>
</a>
</g>
</g>
<!-- Node1&#45;&gt;Node2 -->
<g id="edge1" class="edge"><title>Node1&#45;&gt;Node2</title>
<path fill="none" stroke="midnightblue" d="M117.717,-401.445C134.371,-403.953 152.185,-406.636 168.248,-409.055"/>
<polygon fill="midnightblue" stroke="midnightblue" points="117.933,-397.938 107.523,-399.91 116.891,-404.86 117.933,-397.938"/>
</g>
<!-- Node20 -->
<g id="node20" class="node"><title>Node20</title>
<g id="a_node20"><a xlink:href="class_ro_r_1_1_g_u_i_1_1_open_save_file_dialog.html#a14c64d9f8f06ca966e37cb11d63fe28b" target="_top" xlink:title="RoR::GUI::OpenSaveFileDialog\l::OpenSaveFileDialog">
<polygon fill="white" stroke="black" points="144,-353 144,-383 300,-383 300,-353 144,-353"/>
<text text-anchor="start" x="152" y="-371" font-family="Helvetica,sans-Serif" font-size="10.00">RoR::GUI::OpenSaveFileDialog</text>
<text text-anchor="middle" x="222" y="-360" font-family="Helvetica,sans-Serif" font-size="10.00">::OpenSaveFileDialog</text>
</a>
</g>
</g>
<!-- Node1&#45;&gt;Node20 -->
<g id="edge19" class="edge"><title>Node1&#45;&gt;Node20</title>
<path fill="none" stroke="midnightblue" d="M117.495,-382.965C126.134,-381.716 135.089,-380.421 143.953,-379.139"/>
<polygon fill="midnightblue" stroke="midnightblue" points="116.92,-379.511 107.523,-384.406 117.921,-386.439 116.92,-379.511"/>
</g>
<!-- Node3 -->
<g id="node3" class="node"><title>Node3</title>
<g id="a_node3"><a xlink:href="class_ro_r_1_1_g_u_i_1_1_debug_options_layout.html#a1a1ad6dd54af7eeaaee8187da42532b1" target="_top" xlink:title="RoR::GUI::DebugOptionsLayout\l::DebugOptionsLayout">
<polygon fill="white" stroke="black" points="344,-794 344,-824 502,-824 502,-794 344,-794"/>
<text text-anchor="start" x="352" y="-812" font-family="Helvetica,sans-Serif" font-size="10.00">RoR::GUI::DebugOptionsLayout</text>
<text text-anchor="middle" x="423" y="-801" font-family="Helvetica,sans-Serif" font-size="10.00">::DebugOptionsLayout</text>
</a>
</g>
</g>
<!-- Node2&#45;&gt;Node3 -->
<g id="edge2" class="edge"><title>Node2&#45;&gt;Node3</title>
<path fill="none" stroke="midnightblue" d="M223.045,-442.431C224.588,-508.591 238.089,-687.623 336,-784 339.878,-787.818 344.304,-791.059 349.054,-793.809"/>
<polygon fill="midnightblue" stroke="midnightblue" points="226.54,-442.063 222.884,-432.119 219.541,-442.173 226.54,-442.063"/>
</g>
<!-- Node4 -->
<g id="node4" class="node"><title>Node4</title>
<g id="a_node4"><a xlink:href="class_ro_r_1_1_g_u_i_1_1_game_about_layout.html#a36e21a95b99f558600cb9e4fe7b1539b" target="_top" xlink:title="RoR::GUI::GameAboutLayout\l::GameAboutLayout">
<polygon fill="white" stroke="black" points="349,-745 349,-775 497,-775 497,-745 349,-745"/>
<text text-anchor="start" x="357" y="-763" font-family="Helvetica,sans-Serif" font-size="10.00">RoR::GUI::GameAboutLayout</text>
<text text-anchor="middle" x="423" y="-752" font-family="Helvetica,sans-Serif" font-size="10.00">::GameAboutLayout</text>
</a>
</g>
</g>
<!-- Node2&#45;&gt;Node4 -->
<g id="edge3" class="edge"><title>Node2&#45;&gt;Node4</title>
<path fill="none" stroke="midnightblue" d="M224.441,-442.281C229.239,-502.147 249.728,-653.635 336,-735 340.072,-738.841 344.7,-742.095 349.646,-744.853"/>
<polygon fill="midnightblue" stroke="midnightblue" points="227.925,-441.929 223.715,-432.207 220.943,-442.432 227.925,-441.929"/>
</g>
<!-- Node5 -->
<g id="node5" class="node"><title>Node5</title>
<g id="a_node5"><a xlink:href="class_ro_r_1_1_g_u_i_1_1_game_chat_box_layout.html#a81f2ed163ed219bc38a70b20491722fc" target="_top" xlink:title="RoR::GUI::GameChatBoxLayout\l::GameChatBoxLayout">
<polygon fill="white" stroke="black" points="342.5,-696 342.5,-726 503.5,-726 503.5,-696 342.5,-696"/>
<text text-anchor="start" x="350.5" y="-714" font-family="Helvetica,sans-Serif" font-size="10.00">RoR::GUI::GameChatBoxLayout</text>
<text text-anchor="middle" x="423" y="-703" font-family="Helvetica,sans-Serif" font-size="10.00">::GameChatBoxLayout</text>
</a>
</g>
</g>
<!-- Node2&#45;&gt;Node5 -->
<g id="edge4" class="edge"><title>Node2&#45;&gt;Node5</title>
<path fill="none" stroke="midnightblue" d="M226.26,-441.996C234.512,-495.009 261.178,-619.309 336,-686 340.295,-689.828 345.144,-693.072 350.299,-695.82"/>
<polygon fill="midnightblue" stroke="midnightblue" points="229.722,-441.482 224.806,-432.097 222.796,-442.499 229.722,-441.482"/>
</g>
<!-- Node6 -->
<g id="node6" class="node"><title>Node6</title>
<g id="a_node6"><a xlink:href="class_ro_r_1_1_g_u_i_1_1_game_console_layout.html#a10309dc3e63f9c27fd46fe939d385ba0" target="_top" xlink:title="RoR::GUI::GameConsoleLayout\l::GameConsoleLayout">
<polygon fill="white" stroke="black" points="344,-647 344,-677 502,-677 502,-647 344,-647"/>
<text text-anchor="start" x="352" y="-665" font-family="Helvetica,sans-Serif" font-size="10.00">RoR::GUI::GameConsoleLayout</text>
<text text-anchor="middle" x="423" y="-654" font-family="Helvetica,sans-Serif" font-size="10.00">::GameConsoleLayout</text>
</a>
</g>
</g>
<!-- Node2&#45;&gt;Node6 -->
<g id="edge5" class="edge"><title>Node2&#45;&gt;Node6</title>
<path fill="none" stroke="midnightblue" d="M228.885,-442.13C240.91,-487.863 272.67,-584.774 336,-637 340.678,-640.858 345.927,-644.121 351.464,-646.88"/>
<polygon fill="midnightblue" stroke="midnightblue" points="232.211,-441.005 226.368,-432.168 225.425,-442.72 232.211,-441.005"/>
</g>
<!-- Node7 -->
<g id="node7" class="node"><title>Node7</title>
<g id="a_node7"><a xlink:href="class_ro_r_1_1_g_u_i_1_1_game_main_menu_layout.html#a3de0b8e25ebb02ab85a1d58fce1a3c03" target="_top" xlink:title="RoR::GUI::GameMainMenuLayout\l::GameMainMenuLayout">
<polygon fill="white" stroke="black" points="339.5,-598 339.5,-628 506.5,-628 506.5,-598 339.5,-598"/>
<text text-anchor="start" x="347.5" y="-616" font-family="Helvetica,sans-Serif" font-size="10.00">RoR::GUI::GameMainMenuLayout</text>
<text text-anchor="middle" x="423" y="-605" font-family="Helvetica,sans-Serif" font-size="10.00">::GameMainMenuLayout</text>
</a>
</g>
</g>
<!-- Node2&#45;&gt;Node7 -->
<g id="edge6" class="edge"><title>Node2&#45;&gt;Node7</title>
<path fill="none" stroke="midnightblue" d="M232.703,-441.758C248.604,-479.091 283.755,-549.516 336,-588 341.258,-591.873 347.105,-595.148 353.208,-597.917"/>
<polygon fill="midnightblue" stroke="midnightblue" points="235.789,-440.061 228.731,-432.159 229.321,-442.737 235.789,-440.061"/>
</g>
<!-- Node8 -->
<g id="node8" class="node"><title>Node8</title>
<g id="a_node8"><a xlink:href="class_ro_r_1_1_g_u_i_1_1_game_pause_menu_layout.html#aa8a86f0bbe7120c724ff08a1114b64fd" target="_top" xlink:title="RoR::GUI::GamePauseMenuLayout\l::GamePauseMenuLayout">
<polygon fill="white" stroke="black" points="336,-549 336,-579 510,-579 510,-549 336,-549"/>
<text text-anchor="start" x="344" y="-567" font-family="Helvetica,sans-Serif" font-size="10.00">RoR::GUI::GamePauseMenuLayout</text>
<text text-anchor="middle" x="423" y="-556" font-family="Helvetica,sans-Serif" font-size="10.00">::GamePauseMenuLayout</text>
</a>
</g>
</g>
<!-- Node2&#45;&gt;Node8 -->
<g id="edge7" class="edge"><title>Node2&#45;&gt;Node8</title>
<path fill="none" stroke="midnightblue" d="M238.676,-440.497C258.267,-468.064 294.332,-513.264 336,-539 342.218,-542.84 349.051,-546.113 356.064,-548.897"/>
<polygon fill="midnightblue" stroke="midnightblue" points="241.495,-438.42 232.909,-432.214 235.751,-442.42 241.495,-438.42"/>
</g>
<!-- Node9 -->
<g id="node9" class="node"><title>Node9</title>
<g id="a_node9"><a xlink:href="class_ro_r_1_1_g_u_i_1_1_game_settings_layout.html#a24618c05e36beb6da47c5a2adbc92b06" target="_top" xlink:title="RoR::GUI::GameSettingsLayout\l::GameSettingsLayout">
<polygon fill="white" stroke="black" points="344,-500 344,-530 502,-530 502,-500 344,-500"/>
<text text-anchor="start" x="352" y="-518" font-family="Helvetica,sans-Serif" font-size="10.00">RoR::GUI::GameSettingsLayout</text>
<text text-anchor="middle" x="423" y="-507" font-family="Helvetica,sans-Serif" font-size="10.00">::GameSettingsLayout</text>
</a>
</g>
</g>
<!-- Node2&#45;&gt;Node9 -->
<g id="edge8" class="edge"><title>Node2&#45;&gt;Node9</title>
<path fill="none" stroke="midnightblue" d="M250.632,-438.119C272.737,-454.187 305.051,-475.872 336,-490 344.204,-493.745 353.105,-497.076 361.966,-499.989"/>
<polygon fill="midnightblue" stroke="midnightblue" points="252.521,-435.164 242.395,-432.048 248.368,-440.799 252.521,-435.164"/>
</g>
<!-- Node10 -->
<g id="node10" class="node"><title>Node10</title>
<g id="a_node10"><a xlink:href="class_ro_r_1_1_g_u_i_1_1_loading_window.html#a46482d9458812d8abcdc883c8eedcdda" target="_top" xlink:title="RoR::GUI::LoadingWindow\l::LoadingWindow">
<polygon fill="white" stroke="black" points="355,-451 355,-481 491,-481 491,-451 355,-451"/>
<text text-anchor="start" x="363" y="-469" font-family="Helvetica,sans-Serif" font-size="10.00">RoR::GUI::LoadingWindow</text>
<text text-anchor="middle" x="423" y="-458" font-family="Helvetica,sans-Serif" font-size="10.00">::LoadingWindow</text>
</a>
</g>
</g>
<!-- Node2&#45;&gt;Node10 -->
<g id="edge9" class="edge"><title>Node2&#45;&gt;Node10</title>
<path fill="none" stroke="midnightblue" d="M285.314,-432.344C309.462,-438.29 337.023,-445.076 361.041,-450.99"/>
<polygon fill="midnightblue" stroke="midnightblue" points="286.092,-428.931 275.545,-429.938 284.418,-435.728 286.092,-428.931"/>
</g>
<!-- Node11 -->
<g id="node11" class="node"><title>Node11</title>
<g id="a_node11"><a xlink:href="class_ro_r_1_1_g_u_i_1_1_main_selector_layout.html#a9f9d5ddb03582b032db18dfcbf9b9a01" target="_top" xlink:title="RoR::GUI::MainSelectorLayout\l::MainSelectorLayout">
<polygon fill="white" stroke="black" points="346.5,-402 346.5,-432 499.5,-432 499.5,-402 346.5,-402"/>
<text text-anchor="start" x="354.5" y="-420" font-family="Helvetica,sans-Serif" font-size="10.00">RoR::GUI::MainSelectorLayout</text>
<text text-anchor="middle" x="423" y="-409" font-family="Helvetica,sans-Serif" font-size="10.00">::MainSelectorLayout</text>
</a>
</g>
</g>
<!-- Node2&#45;&gt;Node11 -->
<g id="edge10" class="edge"><title>Node2&#45;&gt;Node11</title>
<path fill="none" stroke="midnightblue" d="M285.687,-417C304.918,-417 326.285,-417 346.29,-417"/>
<polygon fill="midnightblue" stroke="midnightblue" points="285.545,-413.5 275.545,-417 285.545,-420.5 285.545,-413.5"/>
</g>
<!-- Node12 -->
<g id="node12" class="node"><title>Node12</title>
<g id="a_node12"><a xlink:href="class_ro_r_1_1_g_u_i_1_1_message_box_layout.html#a61a47d5efab2e34bd90c9ab6ebb87da6" target="_top" xlink:title="RoR::GUI::MessageBoxLayout\l::MessageBoxLayout">
<polygon fill="white" stroke="black" points="346.5,-353 346.5,-383 499.5,-383 499.5,-353 346.5,-353"/>
<text text-anchor="start" x="354.5" y="-371" font-family="Helvetica,sans-Serif" font-size="10.00">RoR::GUI::MessageBoxLayout</text>
<text text-anchor="middle" x="423" y="-360" font-family="Helvetica,sans-Serif" font-size="10.00">::MessageBoxLayout</text>
</a>
</g>
</g>
<!-- Node2&#45;&gt;Node12 -->
<g id="edge11" class="edge"><title>Node2&#45;&gt;Node12</title>
<path fill="none" stroke="midnightblue" d="M285.314,-401.656C309.462,-395.71 337.023,-388.924 361.041,-383.01"/>
<polygon fill="midnightblue" stroke="midnightblue" points="284.418,-398.272 275.545,-404.062 286.092,-405.069 284.418,-398.272"/>
</g>
<!-- Node13 -->
<g id="node13" class="node"><title>Node13</title>
<g id="a_node13"><a xlink:href="class_ro_r_1_1_g_u_i_1_1_multiplayer_selector_layout.html#aec0c9c664628549aa22026e5e1b2bb4b" target="_top" xlink:title="RoR::GUI::MultiplayerSelector\lLayout::MultiplayerSelectorLayout">
<polygon fill="white" stroke="black" points="341,-304 341,-334 505,-334 505,-304 341,-304"/>
<text text-anchor="start" x="349" y="-322" font-family="Helvetica,sans-Serif" font-size="10.00">RoR::GUI::MultiplayerSelector</text>
<text text-anchor="middle" x="423" y="-311" font-family="Helvetica,sans-Serif" font-size="10.00">Layout::MultiplayerSelectorLayout</text>
</a>
</g>
</g>
<!-- Node2&#45;&gt;Node13 -->
<g id="edge12" class="edge"><title>Node2&#45;&gt;Node13</title>
<path fill="none" stroke="midnightblue" d="M285.18,-400.623C290.402,-398.127 295.426,-395.269 300,-392 321.694,-376.492 314.068,-359.169 336,-344 341.627,-340.108 347.86,-336.816 354.324,-334.032"/>
<polygon fill="midnightblue" stroke="midnightblue" points="283.424,-397.568 275.62,-404.734 286.189,-403.999 283.424,-397.568"/>
</g>
<!-- Node14 -->
<g id="node14" class="node"><title>Node14</title>
<g id="a_node14"><a xlink:href="class_ro_r_1_1_g_u_i_1_1_rig_spawner_report_window_layout.html#ac50c03ff065001480c477be9619e9401" target="_top" xlink:title="RoR::GUI::RigSpawnerReport\lWindowLayout::RigSpawnerReport\lWindowLayout">
<polygon fill="white" stroke="black" points="338,-244.5 338,-285.5 508,-285.5 508,-244.5 338,-244.5"/>
<text text-anchor="start" x="346" y="-273.5" font-family="Helvetica,sans-Serif" font-size="10.00">RoR::GUI::RigSpawnerReport</text>
<text text-anchor="start" x="346" y="-262.5" font-family="Helvetica,sans-Serif" font-size="10.00">WindowLayout::RigSpawnerReport</text>
<text text-anchor="middle" x="423" y="-251.5" font-family="Helvetica,sans-Serif" font-size="10.00">WindowLayout</text>
</a>
</g>
</g>
<!-- Node2&#45;&gt;Node14 -->
<g id="edge13" class="edge"><title>Node2&#45;&gt;Node14</title>
<path fill="none" stroke="midnightblue" d="M285.185,-402.553C290.589,-399.655 295.647,-396.176 300,-392 333.183,-360.165 303.165,-327.193 336,-295 339.613,-291.457 343.667,-288.332 347.994,-285.574"/>
<polygon fill="midnightblue" stroke="midnightblue" points="283.42,-399.513 275.827,-406.901 286.37,-405.861 283.42,-399.513"/>
</g>
<!-- Node15 -->
<g id="node15" class="node"><title>Node15</title>
<g id="a_node15"><a xlink:href="class_ro_r_1_1_g_u_i_1_1_sim_utils_layout.html#ae1122724b7c4e2af9e1adfeb0bcc0fb1" target="_top" xlink:title="RoR::GUI::SimUtilsLayout\l::SimUtilsLayout">
<polygon fill="white" stroke="black" points="356,-196 356,-226 490,-226 490,-196 356,-196"/>
<text text-anchor="start" x="364" y="-214" font-family="Helvetica,sans-Serif" font-size="10.00">RoR::GUI::SimUtilsLayout</text>
<text text-anchor="middle" x="423" y="-203" font-family="Helvetica,sans-Serif" font-size="10.00">::SimUtilsLayout</text>
</a>
</g>
</g>
<!-- Node2&#45;&gt;Node15 -->
<g id="edge14" class="edge"><title>Node2&#45;&gt;Node15</title>
<path fill="none" stroke="midnightblue" d="M284.892,-403.613C290.518,-400.511 295.703,-396.695 300,-392 348.331,-339.189 286.576,-286.79 336,-235 341.565,-229.169 348.417,-224.716 355.805,-221.323"/>
<polygon fill="midnightblue" stroke="midnightblue" points="283.306,-400.491 275.753,-407.922 286.291,-406.822 283.306,-400.491"/>
</g>
<!-- Node16 -->
<g id="node16" class="node"><title>Node16</title>
<g id="a_node16"><a xlink:href="class_ro_r_1_1_g_u_i_1_1_teleport_window_layout.html#a241fbce07a4d5f8bd2708b52d9dbbcad" target="_top" xlink:title="RoR::GUI::TeleportWindow\lLayout::TeleportWindowLayout">
<polygon fill="white" stroke="black" points="347,-147 347,-177 499,-177 499,-147 347,-147"/>
<text text-anchor="start" x="355" y="-165" font-family="Helvetica,sans-Serif" font-size="10.00">RoR::GUI::TeleportWindow</text>
<text text-anchor="middle" x="423" y="-154" font-family="Helvetica,sans-Serif" font-size="10.00">Layout::TeleportWindowLayout</text>
</a>
</g>
</g>
<!-- Node2&#45;&gt;Node16 -->
<g id="edge15" class="edge"><title>Node2&#45;&gt;Node16</title>
<path fill="none" stroke="midnightblue" d="M284.898,-403.971C290.571,-400.803 295.765,-396.874 300,-392 360.672,-322.171 274.251,-255.879 336,-187 339.425,-183.179 343.396,-179.928 347.716,-177.164"/>
<polygon fill="midnightblue" stroke="midnightblue" points="283.197,-400.903 275.658,-408.347 286.194,-407.23 283.197,-400.903"/>
</g>
<!-- Node17 -->
<g id="node17" class="node"><title>Node17</title>
<g id="a_node17"><a xlink:href="class_ro_r_1_1_g_u_i_1_1_vehicle_description_layout.html#a2c8869906689b16b409e526063f5dcbb" target="_top" xlink:title="RoR::GUI::VehicleDescription\lLayout::VehicleDescriptionLayout">
<polygon fill="white" stroke="black" points="341.5,-98 341.5,-128 504.5,-128 504.5,-98 341.5,-98"/>
<text text-anchor="start" x="349.5" y="-116" font-family="Helvetica,sans-Serif" font-size="10.00">RoR::GUI::VehicleDescription</text>
<text text-anchor="middle" x="423" y="-105" font-family="Helvetica,sans-Serif" font-size="10.00">Layout::VehicleDescriptionLayout</text>
</a>
</g>
</g>
<!-- Node2&#45;&gt;Node17 -->
<g id="edge16" class="edge"><title>Node2&#45;&gt;Node17</title>
<path fill="none" stroke="midnightblue" d="M285.062,-404.111C290.704,-400.917 295.846,-396.943 300,-392 373.349,-304.709 261.305,-224.142 336,-138 339.361,-134.123 343.285,-130.831 347.571,-128.036"/>
<polygon fill="midnightblue" stroke="midnightblue" points="283.365,-401.042 275.853,-408.514 286.385,-407.358 283.365,-401.042"/>
</g>
<!-- Node18 -->
<g id="node18" class="node"><title>Node18</title>
<g id="a_node18"><a xlink:href="class_survey_map_entity.html#a8b649c8dd5a60c6ee04cffa7673f7170" target="_top" xlink:title="SurveyMapEntity::SurveyMap\lEntity">
<polygon fill="white" stroke="black" points="349.5,-49 349.5,-79 496.5,-79 496.5,-49 349.5,-49"/>
<text text-anchor="start" x="357.5" y="-67" font-family="Helvetica,sans-Serif" font-size="10.00">SurveyMapEntity::SurveyMap</text>
<text text-anchor="middle" x="423" y="-56" font-family="Helvetica,sans-Serif" font-size="10.00">Entity</text>
</a>
</g>
</g>
<!-- Node2&#45;&gt;Node18 -->
<g id="edge17" class="edge"><title>Node2&#45;&gt;Node18</title>
<path fill="none" stroke="midnightblue" d="M284.933,-404.342C290.65,-401.108 295.844,-397.061 300,-392 386.068,-287.198 248.316,-192.454 336,-89 339.82,-84.4927 344.401,-80.7726 349.433,-77.7054"/>
<polygon fill="midnightblue" stroke="midnightblue" points="283.121,-401.328 275.595,-408.784 286.129,-407.649 283.121,-401.328"/>
</g>
<!-- Node19 -->
<g id="node19" class="node"><title>Node19</title>
<g id="a_node19"><a xlink:href="class_survey_map_manager.html#a68d4e0db3e913d1176cdfcd5a02d0b8b" target="_top" xlink:title="SurveyMapManager::Survey\lMapManager">
<polygon fill="white" stroke="black" points="353,-0 353,-30 493,-30 493,-0 353,-0"/>
<text text-anchor="start" x="361" y="-18" font-family="Helvetica,sans-Serif" font-size="10.00">SurveyMapManager::Survey</text>
<text text-anchor="middle" x="423" y="-7" font-family="Helvetica,sans-Serif" font-size="10.00">MapManager</text>
</a>
</g>
</g>
<!-- Node2&#45;&gt;Node19 -->
<g id="edge18" class="edge"><title>Node2&#45;&gt;Node19</title>
<path fill="none" stroke="midnightblue" d="M285.017,-404.41C290.718,-401.163 295.885,-397.095 300,-392 398.809,-269.658 235.304,-160.794 336,-40 340.679,-34.3867 346.539,-29.9919 352.988,-26.5574"/>
<polygon fill="midnightblue" stroke="midnightblue" points="283.207,-401.395 275.694,-408.865 286.226,-407.711 283.207,-401.395"/>
</g>
</g>
</svg>
