<?xml version="1.0" encoding="UTF-8" standalone="no"?>
<!DOCTYPE svg PUBLIC "-//W3C//DTD SVG 1.1//EN"
 "http://www.w3.org/Graphics/SVG/1.1/DTD/svg11.dtd">
<!-- Generated by graphviz version 2.36.0 (20140111.2315)
 -->
<!-- Title: RoR::ContentManager::InitManagedMaterials Pages: 1 -->
<svg width="320pt" height="66pt"
 viewBox="0.00 0.00 320.00 66.00" xmlns="http://www.w3.org/2000/svg" xmlns:xlink="http://www.w3.org/1999/xlink">
<g id="graph0" class="graph" transform="scale(1 1) rotate(0) translate(4 62)">
<title>RoR::ContentManager::InitManagedMaterials</title>
<polygon fill="white" stroke="none" points="-4,4 -4,-62 316,-62 316,4 -4,4"/>
<!-- Node1 -->
<g id="node1" class="node"><title>Node1</title>
<polygon fill="#bfbfbf" stroke="black" points="0,-14 0,-44 116,-44 116,-14 0,-14"/>
<text text-anchor="start" x="8" y="-32" font-family="Helvetica,sans-Serif" font-size="10.00">RoR::ContentManager</text>
<text text-anchor="middle" x="58" y="-21" font-family="Helvetica,sans-Serif" font-size="10.00">::InitManagedMaterials</text>
</g>
<!-- Node2 -->
<g id="node2" class="node"><title>Node2</title>
<g id="a_node2"><a xlink:href="namespace_ro_r_1_1_app.html#a931f2dc742b47c4891f8e2fc92801aa7" target="_top" xlink:title="RoR::App::GetSysResourcesDir">
<polygon fill="white" stroke="black" points="152.5,-38.5 152.5,-57.5 311.5,-57.5 311.5,-38.5 152.5,-38.5"/>
<text text-anchor="middle" x="232" y="-45.5" font-family="Helvetica,sans-Serif" font-size="10.00">RoR::App::GetSysResourcesDir</text>
</a>
</g>
</g>
<!-- Node1&#45;&gt;Node2 -->
<g id="edge1" class="edge"><title>Node1&#45;&gt;Node2</title>
<path fill="none" stroke="midnightblue" d="M116.274,-35.3267C124.652,-36.2522 133.441,-37.2232 142.269,-38.1983"/>
<polygon fill="midnightblue" stroke="midnightblue" points="141.908,-41.6797 152.232,-39.2989 142.677,-34.722 141.908,-41.6797"/>
</g>
<!-- Node3 -->
<g id="node3" class="node"><title>Node3</title>
<g id="a_node3"><a xlink:href="namespace_ro_r_1_1_app.html#afcd8aada760188c69fedc4ee0bb39e70" target="_top" xlink:title="RoR::App::GetGfxShadowType">
<polygon fill="white" stroke="black" points="154.5,-0.5 154.5,-19.5 309.5,-19.5 309.5,-0.5 154.5,-0.5"/>
<text text-anchor="middle" x="232" y="-7.5" font-family="Helvetica,sans-Serif" font-size="10.00">RoR::App::GetGfxShadowType</text>
</a>
</g>
</g>
<!-- Node1&#45;&gt;Node3 -->
<g id="edge2" class="edge"><title>Node1&#45;&gt;Node3</title>
<path fill="none" stroke="midnightblue" d="M116.274,-22.6733C125.34,-21.6718 134.887,-20.6171 144.444,-19.5614"/>
<polygon fill="midnightblue" stroke="midnightblue" points="144.831,-23.04 154.386,-18.4631 144.062,-16.0824 144.831,-23.04"/>
</g>
</g>
</svg>
