<?xml version="1.0" encoding="UTF-8" standalone="no"?>
<!DOCTYPE svg PUBLIC "-//W3C//DTD SVG 1.1//EN"
 "http://www.w3.org/Graphics/SVG/1.1/DTD/svg11.dtd">
<!-- Generated by graphviz version 2.36.0 (20140111.2315)
 -->
<!-- Title: GameScript::useOnlineAPI Pages: 1 -->
<!--zoomable 537 -->
<svg id="main" version="1.1" xmlns="http://www.w3.org/2000/svg" xmlns:xlink="http://www.w3.org/1999/xlink" xml:space="preserve" onload="init(evt)">
<style type="text/css"><![CDATA[
.edge:hover path { stroke: red; }
.edge:hover polygon { stroke: red; fill: red; }
]]></style>
<script type="text/javascript"><![CDATA[
var edges = document.getElementsByTagName('g');
if (edges && edges.length) {
  for (var i=0;i<edges.length;i++) {
    if (edges[i].id.substr(0,4)=='edge') {
      edges[i].setAttribute('class','edge');
    }
  }
}
]]></script>
        <defs>
                <circle id="rim" cx="0" cy="0" r="7"/>
                <circle id="rim2" cx="0" cy="0" r="3.5"/>
                <g id="zoomPlus">
                        <use xlink:href="#rim" fill="#404040">
                                <set attributeName="fill" to="#808080" begin="zoomplus.mouseover" end="zoomplus.mouseout"/>
                        </use>
                        <path d="M-4,0h8M0,-4v8" fill="none" stroke="white" stroke-width="1.5" pointer-events="none"/>
                </g>
                <g id="zoomMin">
                        <use xlink:href="#rim" fill="#404040">
                                <set attributeName="fill" to="#808080" begin="zoomminus.mouseover" end="zoomminus.mouseout"/>
                        </use>
                        <path d="M-4,0h8" fill="none" stroke="white" stroke-width="1.5" pointer-events="none"/>
                </g>
                <g id="dirArrow">
                        <path fill="none" stroke="white" stroke-width="1.5" d="M0,-3.0v7 M-2.5,-0.5L0,-3.0L2.5,-0.5"/>
                </g>
               <g id="resetDef">
                       <use xlink:href="#rim2" fill="#404040">
                               <set attributeName="fill" to="#808080" begin="reset.mouseover" end="reset.mouseout"/>
                       </use>
               </g>
        </defs>

<script type="text/javascript">
var viewWidth = 1358;
var viewHeight = 537;
var sectionId = 'dynsection-41';
</script>
<script xlink:href="svgpan.js"/>
<svg id="graph" class="graph">
<g id="viewport">
<title>GameScript::useOnlineAPI</title>
<polygon fill="white" stroke="none" points="-4,4 -4,-533 1354,-533 1354,4 -4,4"/>
<!-- Node1 -->
<g id="node1" class="node"><title>Node1</title>
<polygon fill="#bfbfbf" stroke="black" points="0,-430.5 0,-449.5 134,-449.5 134,-430.5 0,-430.5"/>
<text text-anchor="middle" x="67" y="-437.5" font-family="Helvetica,sans-Serif" font-size="10.00">GameScript::useOnlineAPI</text>
</g>
<!-- Node2 -->
<g id="node2" class="node"><title>Node2</title>
<g id="a_node2"><a xlink:href="namespace_ro_r_1_1_app.html#aa04ed1e7b697aa1f33f1bb1297cb3e48" target="_top" xlink:title="RoR::App::GetConsole">
<polygon fill="white" stroke="black" points="403,-506.5 403,-525.5 521,-525.5 521,-506.5 403,-506.5"/>
<text text-anchor="middle" x="462" y="-513.5" font-family="Helvetica,sans-Serif" font-size="10.00">RoR::App::GetConsole</text>
</a>
</g>
</g>
<!-- Node1&#45;&gt;Node2 -->
<g id="edge1" class="edge"><title>Node1&#45;&gt;Node2</title>
<path fill="none" stroke="midnightblue" d="M91.5274,-449.508C111.961,-457.417 142.509,-468.41 170,-475 245.276,-493.044 333.54,-504.101 392.956,-510.115"/>
<polygon fill="midnightblue" stroke="midnightblue" points="392.673,-513.604 402.97,-511.109 393.364,-506.638 392.673,-513.604"/>
</g>
<!-- Node4 -->
<g id="node4" class="node"><title>Node4</title>
<g id="a_node4"><a xlink:href="class_ro_r_1_1_console.html#a6883dfc6a1d760581a917e101b6357c5" target="_top" xlink:title="RoR::Console::putMessage">
<polygon fill="white" stroke="black" points="393,-468.5 393,-487.5 531,-487.5 531,-468.5 393,-468.5"/>
<text text-anchor="middle" x="462" y="-475.5" font-family="Helvetica,sans-Serif" font-size="10.00">RoR::Console::putMessage</text>
</a>
</g>
</g>
<!-- Node1&#45;&gt;Node4 -->
<g id="edge3" class="edge"><title>Node1&#45;&gt;Node4</title>
<path fill="none" stroke="midnightblue" d="M133.505,-449.524C145.625,-451.135 158.185,-452.703 170,-454 241.897,-461.893 324.048,-468.443 382.687,-472.695"/>
<polygon fill="midnightblue" stroke="midnightblue" points="382.763,-476.21 392.988,-473.436 383.265,-469.228 382.763,-476.21"/>
</g>
<!-- Node6 -->
<g id="node6" class="node"><title>Node6</title>
<g id="a_node6"><a xlink:href="namespace_ro_r_1_1_app.html#a68d6403d2b36006a6fa2d28f5ba8f12f" target="_top" xlink:title="RoR::App::GetGuiManager">
<polygon fill="white" stroke="black" points="395,-430.5 395,-449.5 529,-449.5 529,-430.5 395,-430.5"/>
<text text-anchor="middle" x="462" y="-437.5" font-family="Helvetica,sans-Serif" font-size="10.00">RoR::App::GetGuiManager</text>
</a>
</g>
</g>
<!-- Node1&#45;&gt;Node6 -->
<g id="edge5" class="edge"><title>Node1&#45;&gt;Node6</title>
<path fill="none" stroke="midnightblue" d="M134.223,-440C203.482,-440 312.041,-440 384.811,-440"/>
<polygon fill="midnightblue" stroke="midnightblue" points="384.834,-443.5 394.834,-440 384.834,-436.5 384.834,-443.5"/>
</g>
<!-- Node7 -->
<g id="node7" class="node"><title>Node7</title>
<g id="a_node7"><a xlink:href="class_ro_r_1_1_g_u_i_manager.html#a534a8e82d1b92384767ab1c555126bba" target="_top" xlink:title="RoR::GUIManager::PushNotification">
<polygon fill="white" stroke="black" points="374,-392.5 374,-411.5 550,-411.5 550,-392.5 374,-392.5"/>
<text text-anchor="middle" x="462" y="-399.5" font-family="Helvetica,sans-Serif" font-size="10.00">RoR::GUIManager::PushNotification</text>
</a>
</g>
</g>
<!-- Node1&#45;&gt;Node7 -->
<g id="edge6" class="edge"><title>Node1&#45;&gt;Node7</title>
<path fill="none" stroke="midnightblue" d="M134.223,-433.597C196.981,-427.529 292.008,-418.34 363.436,-411.434"/>
<polygon fill="midnightblue" stroke="midnightblue" points="364.18,-414.878 373.797,-410.432 363.506,-407.911 364.18,-414.878"/>
</g>
<!-- Node9 -->
<g id="node9" class="node"><title>Node9</title>
<g id="a_node9"><a xlink:href="class_game_script.html#a8c02937795d82f6bc0de53d8e939993d" target="_top" xlink:title="GameScript::useOnlineAPIDirectly">
<polygon fill="white" stroke="black" points="170,-266.5 170,-285.5 338,-285.5 338,-266.5 170,-266.5"/>
<text text-anchor="middle" x="254" y="-273.5" font-family="Helvetica,sans-Serif" font-size="10.00">GameScript::useOnlineAPIDirectly</text>
</a>
</g>
</g>
<!-- Node1&#45;&gt;Node9 -->
<g id="edge8" class="edge"><title>Node1&#45;&gt;Node9</title>
<path fill="none" stroke="midnightblue" d="M78.746,-430.474C109.144,-403.526 196.023,-326.509 234.396,-292.492"/>
<polygon fill="midnightblue" stroke="midnightblue" points="237.063,-294.805 242.224,-285.552 232.42,-289.567 237.063,-294.805"/>
</g>
<!-- Node3 -->
<g id="node3" class="node"><title>Node3</title>
<g id="a_node3"><a xlink:href="class_ro_r_1_1_g_u_i_manager.html#a982bc848eb4330aa9e57a54bfc60d975" target="_top" xlink:title="RoR::GUIManager::GetConsole">
<polygon fill="white" stroke="black" points="586,-509.5 586,-528.5 742,-528.5 742,-509.5 586,-509.5"/>
<text text-anchor="middle" x="664" y="-516.5" font-family="Helvetica,sans-Serif" font-size="10.00">RoR::GUIManager::GetConsole</text>
</a>
</g>
</g>
<!-- Node2&#45;&gt;Node3 -->
<g id="edge2" class="edge"><title>Node2&#45;&gt;Node3</title>
<path fill="none" stroke="midnightblue" d="M521.117,-516.872C538.147,-517.127 557.154,-517.412 575.583,-517.689"/>
<polygon fill="midnightblue" stroke="midnightblue" points="575.693,-521.191 585.745,-517.841 575.798,-514.191 575.693,-521.191"/>
</g>
<!-- Node5 -->
<g id="node5" class="node"><title>Node5</title>
<g id="a_node5"><a xlink:href="class_inter_thread_store_vector.html#a88d3f7e3e3ce109e13af1c46a12a50b0" target="_top" xlink:title="InterThreadStoreVector\l\&lt; ConsoleMessage \&gt;::push">
<polygon fill="white" stroke="black" points="595.5,-460 595.5,-490 732.5,-490 732.5,-460 595.5,-460"/>
<text text-anchor="start" x="603.5" y="-478" font-family="Helvetica,sans-Serif" font-size="10.00">InterThreadStoreVector</text>
<text text-anchor="middle" x="664" y="-467" font-family="Helvetica,sans-Serif" font-size="10.00">&lt; ConsoleMessage &gt;::push</text>
</a>
</g>
</g>
<!-- Node4&#45;&gt;Node5 -->
<g id="edge4" class="edge"><title>Node4&#45;&gt;Node5</title>
<path fill="none" stroke="midnightblue" d="M531.269,-476.976C548.58,-476.716 567.307,-476.435 585.057,-476.169"/>
<polygon fill="midnightblue" stroke="midnightblue" points="585.431,-479.664 595.377,-476.014 585.326,-472.665 585.431,-479.664"/>
</g>
<!-- Node8 -->
<g id="node8" class="node"><title>Node8</title>
<g id="a_node8"><a xlink:href="class_ro_r_1_1_g_u_i_1_1_sim_utils.html#ac18f8c423994b93276f5f33b22e53d41" target="_top" xlink:title="RoR::GUI::SimUtils\l::PushNotification">
<polygon fill="white" stroke="black" points="612,-387 612,-417 716,-417 716,-387 612,-387"/>
<text text-anchor="start" x="620" y="-405" font-family="Helvetica,sans-Serif" font-size="10.00">RoR::GUI::SimUtils</text>
<text text-anchor="middle" x="664" y="-394" font-family="Helvetica,sans-Serif" font-size="10.00">::PushNotification</text>
</a>
</g>
</g>
<!-- Node7&#45;&gt;Node8 -->
<g id="edge7" class="edge"><title>Node7&#45;&gt;Node8</title>
<path fill="none" stroke="midnightblue" d="M550.141,-402C567.411,-402 585.202,-402 601.406,-402"/>
<polygon fill="midnightblue" stroke="midnightblue" points="601.803,-405.5 611.803,-402 601.803,-398.5 601.803,-405.5"/>
</g>
<!-- Node9&#45;&gt;Node2 -->
<g id="edge18" class="edge"><title>Node9&#45;&gt;Node2</title>
<path fill="none" stroke="midnightblue" d="M257.186,-285.861C265.489,-320.864 298.489,-440.079 374,-497 379.772,-501.351 386.336,-504.746 393.213,-507.39"/>
<polygon fill="midnightblue" stroke="midnightblue" points="392.143,-510.722 402.737,-510.548 394.347,-504.078 392.143,-510.722"/>
</g>
<!-- Node9&#45;&gt;Node4 -->
<g id="edge19" class="edge"><title>Node9&#45;&gt;Node4</title>
<path fill="none" stroke="midnightblue" d="M258.323,-285.871C269.309,-316.899 307.589,-413.114 374,-459 376.951,-461.039 380.082,-462.865 383.336,-464.499"/>
<polygon fill="midnightblue" stroke="midnightblue" points="382.219,-467.83 392.785,-468.615 385.014,-461.412 382.219,-467.83"/>
</g>
<!-- Node9&#45;&gt;Node6 -->
<g id="edge41" class="edge"><title>Node9&#45;&gt;Node6</title>
<path fill="none" stroke="midnightblue" d="M259.889,-285.652C273.777,-312.016 316.227,-385.636 374,-421 377.461,-423.119 381.128,-425.003 384.92,-426.678"/>
<polygon fill="midnightblue" stroke="midnightblue" points="383.975,-430.066 394.564,-430.426 386.511,-423.541 383.975,-430.066"/>
</g>
<!-- Node9&#45;&gt;Node7 -->
<g id="edge42" class="edge"><title>Node9&#45;&gt;Node7</title>
<path fill="none" stroke="midnightblue" d="M262.796,-285.667C280.309,-306.695 325.083,-356.731 374,-382 379.512,-384.847 385.428,-387.293 391.486,-389.394"/>
<polygon fill="midnightblue" stroke="midnightblue" points="390.496,-392.751 401.085,-392.418 392.599,-386.075 390.496,-392.751"/>
</g>
<!-- Node10 -->
<g id="node10" class="node"><title>Node10</title>
<g id="a_node10"><a xlink:href="namespace_ro_r_1_1_app.html#ad0be48f892a24d9f78d4f6f28a70b566" target="_top" xlink:title="RoR::App::GetMpServerPort">
<polygon fill="white" stroke="black" points="391,-266.5 391,-285.5 533,-285.5 533,-266.5 391,-266.5"/>
<text text-anchor="middle" x="462" y="-273.5" font-family="Helvetica,sans-Serif" font-size="10.00">RoR::App::GetMpServerPort</text>
</a>
</g>
</g>
<!-- Node9&#45;&gt;Node10 -->
<g id="edge9" class="edge"><title>Node9&#45;&gt;Node10</title>
<path fill="none" stroke="midnightblue" d="M338.194,-276C352.212,-276 366.738,-276 380.68,-276"/>
<polygon fill="midnightblue" stroke="midnightblue" points="380.714,-279.5 390.714,-276 380.714,-272.5 380.714,-279.5"/>
</g>
<!-- Node11 -->
<g id="node11" class="node"><title>Node11</title>
<g id="a_node11"><a xlink:href="namespace_ro_r_1_1_app.html#a61093e1171e9aa1d2824499b9a6b8e18" target="_top" xlink:title="RoR::App::GetActiveMpState">
<polygon fill="white" stroke="black" points="389,-228.5 389,-247.5 535,-247.5 535,-228.5 389,-228.5"/>
<text text-anchor="middle" x="462" y="-235.5" font-family="Helvetica,sans-Serif" font-size="10.00">RoR::App::GetActiveMpState</text>
</a>
</g>
</g>
<!-- Node9&#45;&gt;Node11 -->
<g id="edge10" class="edge"><title>Node9&#45;&gt;Node11</title>
<path fill="none" stroke="midnightblue" d="M306.717,-266.46C334.756,-261.288 369.602,-254.86 399.079,-249.422"/>
<polygon fill="midnightblue" stroke="midnightblue" points="400.063,-252.8 409.262,-247.544 398.793,-245.916 400.063,-252.8"/>
</g>
<!-- Node12 -->
<g id="node12" class="node"><title>Node12</title>
<g id="a_node12"><a xlink:href="namespace_ro_r_1_1_app.html#a28c0ae9f137c5ff5ba9a024732fdc19c" target="_top" xlink:title="RoR::App::GetMpPlayerName">
<polygon fill="white" stroke="black" points="387.5,-190.5 387.5,-209.5 536.5,-209.5 536.5,-190.5 387.5,-190.5"/>
<text text-anchor="middle" x="462" y="-197.5" font-family="Helvetica,sans-Serif" font-size="10.00">RoR::App::GetMpPlayerName</text>
</a>
</g>
</g>
<!-- Node9&#45;&gt;Node12 -->
<g id="edge11" class="edge"><title>Node9&#45;&gt;Node12</title>
<path fill="none" stroke="midnightblue" d="M271.814,-266.403C294.399,-253.877 336.086,-232.023 374,-219 381.692,-216.358 389.897,-213.999 398.079,-211.919"/>
<polygon fill="midnightblue" stroke="midnightblue" points="399.114,-215.27 408.012,-209.52 397.47,-208.466 399.114,-215.27"/>
</g>
<!-- Node13 -->
<g id="node13" class="node"><title>Node13</title>
<g id="a_node13"><a xlink:href="namespace_ro_r_1_1_app.html#a3e65d1f6ced91c9abf873c67fa6c8bec" target="_top" xlink:title="RoR::App::GetAppLanguage">
<polygon fill="white" stroke="black" points="391.5,-152.5 391.5,-171.5 532.5,-171.5 532.5,-152.5 391.5,-152.5"/>
<text text-anchor="middle" x="462" y="-159.5" font-family="Helvetica,sans-Serif" font-size="10.00">RoR::App::GetAppLanguage</text>
</a>
</g>
</g>
<!-- Node9&#45;&gt;Node13 -->
<g id="edge12" class="edge"><title>Node9&#45;&gt;Node13</title>
<path fill="none" stroke="midnightblue" d="M263.837,-266.461C282.315,-247.128 327.218,-203.274 374,-181 379.06,-178.591 384.431,-176.483 389.925,-174.639"/>
<polygon fill="midnightblue" stroke="midnightblue" points="391.358,-177.862 399.903,-171.598 389.317,-171.166 391.358,-177.862"/>
</g>
<!-- Node14 -->
<g id="node14" class="node"><title>Node14</title>
<g id="a_node14"><a xlink:href="namespace_ro_r_1_1_app.html#ad80413b1955e4d50e6086346f22a957b" target="_top" xlink:title="RoR::App::GetMpServerHost">
<polygon fill="white" stroke="black" points="389.5,-114.5 389.5,-133.5 534.5,-133.5 534.5,-114.5 389.5,-114.5"/>
<text text-anchor="middle" x="462" y="-121.5" font-family="Helvetica,sans-Serif" font-size="10.00">RoR::App::GetMpServerHost</text>
</a>
</g>
</g>
<!-- Node9&#45;&gt;Node14 -->
<g id="edge13" class="edge"><title>Node9&#45;&gt;Node14</title>
<path fill="none" stroke="midnightblue" d="M260.535,-266.441C275.408,-241.68 318.864,-175.154 374,-143 377.86,-140.749 381.958,-138.764 386.191,-137.013"/>
<polygon fill="midnightblue" stroke="midnightblue" points="387.452,-140.278 395.632,-133.544 385.038,-133.708 387.452,-140.278"/>
</g>
<!-- Node15 -->
<g id="node15" class="node"><title>Node15</title>
<g id="a_node15"><a xlink:href="class_beam.html#a0550cfe159057ed02364c9425f279265" target="_top" xlink:title="Beam::getTruckName">
<polygon fill="white" stroke="black" points="405.5,-76.5 405.5,-95.5 518.5,-95.5 518.5,-76.5 405.5,-76.5"/>
<text text-anchor="middle" x="462" y="-83.5" font-family="Helvetica,sans-Serif" font-size="10.00">Beam::getTruckName</text>
</a>
</g>
</g>
<!-- Node9&#45;&gt;Node15 -->
<g id="edge14" class="edge"><title>Node9&#45;&gt;Node15</title>
<path fill="none" stroke="midnightblue" d="M258.687,-266.357C270.473,-236.911 310.239,-147.591 374,-105 380.508,-100.653 387.845,-97.2815 395.427,-94.6708"/>
<polygon fill="midnightblue" stroke="midnightblue" points="396.552,-97.9873 405.12,-91.7541 394.535,-91.2842 396.552,-97.9873"/>
</g>
<!-- Node16 -->
<g id="node16" class="node"><title>Node16</title>
<g id="a_node16"><a xlink:href="class_beam.html#a7c810f9fc80089c7d43bc799bccf182d" target="_top" xlink:title="Beam::getTruckFileName">
<polygon fill="white" stroke="black" points="398,-38.5 398,-57.5 526,-57.5 526,-38.5 398,-38.5"/>
<text text-anchor="middle" x="462" y="-45.5" font-family="Helvetica,sans-Serif" font-size="10.00">Beam::getTruckFileName</text>
</a>
</g>
</g>
<!-- Node9&#45;&gt;Node16 -->
<g id="edge15" class="edge"><title>Node9&#45;&gt;Node16</title>
<path fill="none" stroke="midnightblue" d="M257.486,-266.2C266.577,-232.488 301.344,-120.433 374,-67 378.437,-63.7369 383.324,-61.0141 388.45,-58.7443"/>
<polygon fill="midnightblue" stroke="midnightblue" points="389.801,-61.9745 397.888,-55.1292 387.298,-55.4376 389.801,-61.9745"/>
</g>
<!-- Node17 -->
<g id="node17" class="node"><title>Node17</title>
<g id="a_node17"><a xlink:href="namespace_ro_r_1_1_app.html#ab0161218de3dc36879f3e69b84238eba" target="_top" xlink:title="RoR::App::GetOgreSubsystem">
<polygon fill="white" stroke="black" points="386,-0.5 386,-19.5 538,-19.5 538,-0.5 386,-0.5"/>
<text text-anchor="middle" x="462" y="-7.5" font-family="Helvetica,sans-Serif" font-size="10.00">RoR::App::GetOgreSubsystem</text>
</a>
</g>
</g>
<!-- Node9&#45;&gt;Node17 -->
<g id="edge16" class="edge"><title>Node9&#45;&gt;Node17</title>
<path fill="none" stroke="midnightblue" d="M256.567,-266.317C263.133,-229.052 292.004,-93.7515 374,-29 376.199,-27.2634 378.523,-25.6774 380.943,-24.2295"/>
<polygon fill="midnightblue" stroke="midnightblue" points="382.759,-27.2323 390.074,-19.568 379.576,-20.9977 382.759,-27.2323"/>
</g>
<!-- Node18 -->
<g id="node18" class="node"><title>Node18</title>
<g id="a_node18"><a xlink:href="class_ro_r_1_1_ogre_subsystem.html#aec5be99797f9add72578fb1fbfec582f" target="_top" xlink:title="RoR::OgreSubsystem\l::GetRenderWindow">
<polygon fill="white" stroke="black" points="405.5,-343 405.5,-373 518.5,-373 518.5,-343 405.5,-343"/>
<text text-anchor="start" x="413.5" y="-361" font-family="Helvetica,sans-Serif" font-size="10.00">RoR::OgreSubsystem</text>
<text text-anchor="middle" x="462" y="-350" font-family="Helvetica,sans-Serif" font-size="10.00">::GetRenderWindow</text>
</a>
</g>
</g>
<!-- Node9&#45;&gt;Node18 -->
<g id="edge17" class="edge"><title>Node9&#45;&gt;Node18</title>
<path fill="none" stroke="midnightblue" d="M272.734,-285.649C295.634,-297.838 336.956,-318.919 374,-333 380.868,-335.611 388.128,-338.101 395.409,-340.429"/>
<polygon fill="midnightblue" stroke="midnightblue" points="394.728,-343.882 405.316,-343.498 396.799,-337.196 394.728,-343.882"/>
</g>
<!-- Node19 -->
<g id="node19" class="node"><title>Node19</title>
<g id="a_node19"><a xlink:href="_utils_8cpp.html#aebe76599ecdd7fc4db8b64cba0beb94e" target="_top" xlink:title="ANSI_TO_UTF">
<polygon fill="white" stroke="black" points="420,-304.5 420,-323.5 504,-323.5 504,-304.5 420,-304.5"/>
<text text-anchor="middle" x="462" y="-311.5" font-family="Helvetica,sans-Serif" font-size="10.00">ANSI_TO_UTF</text>
</a>
</g>
</g>
<!-- Node9&#45;&gt;Node19 -->
<g id="edge20" class="edge"><title>Node9&#45;&gt;Node19</title>
<path fill="none" stroke="midnightblue" d="M306.717,-285.54C338.334,-291.372 378.608,-298.801 410.079,-304.607"/>
<polygon fill="midnightblue" stroke="midnightblue" points="409.496,-308.058 419.965,-306.43 410.766,-301.174 409.496,-308.058"/>
</g>
<!-- Node20 -->
<g id="node20" class="node"><title>Node20</title>
<g id="a_node20"><a xlink:href="namespace_ro_r_1_1_utils.html#ac62ee4a4a513a67cba1bdc7d9eb9c7a4" target="_top" xlink:title="RoR::Utils::SanitizeUtf8\lString">
<polygon fill="white" stroke="black" points="602.5,-299 602.5,-329 725.5,-329 725.5,-299 602.5,-299"/>
<text text-anchor="start" x="610.5" y="-317" font-family="Helvetica,sans-Serif" font-size="10.00">RoR::Utils::SanitizeUtf8</text>
<text text-anchor="middle" x="664" y="-306" font-family="Helvetica,sans-Serif" font-size="10.00">String</text>
</a>
</g>
</g>
<!-- Node19&#45;&gt;Node20 -->
<g id="edge21" class="edge"><title>Node19&#45;&gt;Node20</title>
<path fill="none" stroke="midnightblue" d="M504.44,-314C529.72,-314 562.71,-314 592.047,-314"/>
<polygon fill="midnightblue" stroke="midnightblue" points="592.253,-317.5 602.253,-314 592.253,-310.5 592.253,-317.5"/>
</g>
<!-- Node21 -->
<g id="node21" class="node"><title>Node21</title>
<g id="a_node21"><a xlink:href="namespaceutf8.html#a07dcd36a2185e5c9f0b19dd88859cd6c" target="_top" xlink:title="utf8::replace_invalid">
<polygon fill="white" stroke="black" points="778,-304.5 778,-323.5 882,-323.5 882,-304.5 778,-304.5"/>
<text text-anchor="middle" x="830" y="-311.5" font-family="Helvetica,sans-Serif" font-size="10.00">utf8::replace_invalid</text>
</a>
</g>
</g>
<!-- Node20&#45;&gt;Node21 -->
<g id="edge22" class="edge"><title>Node20&#45;&gt;Node21</title>
<path fill="none" stroke="midnightblue" d="M725.602,-314C739.271,-314 753.794,-314 767.5,-314"/>
<polygon fill="midnightblue" stroke="midnightblue" points="767.795,-317.5 777.794,-314 767.794,-310.5 767.795,-317.5"/>
</g>
<!-- Node22 -->
<g id="node22" class="node"><title>Node22</title>
<g id="a_node22"><a xlink:href="namespaceutf8_1_1internal.html#abe95547575fcc81911e381df03f8ebfe" target="_top" xlink:title="utf8::internal::validate_next">
<polygon fill="white" stroke="black" points="918,-304.5 918,-323.5 1052,-323.5 1052,-304.5 918,-304.5"/>
<text text-anchor="middle" x="985" y="-311.5" font-family="Helvetica,sans-Serif" font-size="10.00">utf8::internal::validate_next</text>
</a>
</g>
</g>
<!-- Node21&#45;&gt;Node22 -->
<g id="edge23" class="edge"><title>Node21&#45;&gt;Node22</title>
<path fill="none" stroke="midnightblue" d="M882.372,-314C890.546,-314 899.151,-314 907.751,-314"/>
<polygon fill="midnightblue" stroke="midnightblue" points="907.819,-317.5 917.819,-314 907.819,-310.5 907.819,-317.5"/>
</g>
<!-- Node32 -->
<g id="node32" class="node"><title>Node32</title>
<g id="a_node32"><a xlink:href="namespaceutf8.html#a3827e78596fc38cfdebd721e9c45c901" target="_top" xlink:title="The library API &#45; functions intended to be called by the users. ">
<polygon fill="white" stroke="black" points="949.5,-212.5 949.5,-231.5 1020.5,-231.5 1020.5,-212.5 949.5,-212.5"/>
<text text-anchor="middle" x="985" y="-219.5" font-family="Helvetica,sans-Serif" font-size="10.00">utf8::append</text>
</a>
</g>
</g>
<!-- Node21&#45;&gt;Node32 -->
<g id="edge37" class="edge"><title>Node21&#45;&gt;Node32</title>
<path fill="none" stroke="midnightblue" d="M847.085,-304.328C873.899,-288.204 927.904,-255.731 959.483,-236.743"/>
<polygon fill="midnightblue" stroke="midnightblue" points="961.365,-239.695 968.131,-231.542 957.757,-233.696 961.365,-239.695"/>
</g>
<!-- Node33 -->
<g id="node33" class="node"><title>Node33</title>
<g id="a_node33"><a xlink:href="namespaceutf8_1_1internal.html#ab4820484159ba613b4901476ceb24516" target="_top" xlink:title="utf8::internal::is\l_trail">
<polygon fill="white" stroke="black" points="943,-416 943,-446 1027,-446 1027,-416 943,-416"/>
<text text-anchor="start" x="951" y="-434" font-family="Helvetica,sans-Serif" font-size="10.00">utf8::internal::is</text>
<text text-anchor="middle" x="985" y="-423" font-family="Helvetica,sans-Serif" font-size="10.00">_trail</text>
</a>
</g>
</g>
<!-- Node21&#45;&gt;Node33 -->
<g id="edge39" class="edge"><title>Node21&#45;&gt;Node33</title>
<path fill="none" stroke="midnightblue" d="M843.521,-323.575C867.996,-342.291 922.707,-384.129 956.171,-409.719"/>
<polygon fill="midnightblue" stroke="midnightblue" points="954.119,-412.556 964.189,-415.85 958.372,-406.996 954.119,-412.556"/>
</g>
<!-- Node23 -->
<g id="node23" class="node"><title>Node23</title>
<g id="a_node23"><a xlink:href="namespaceutf8_1_1internal.html#aadbe437cba7bfcc4df2638f633e9787c" target="_top" xlink:title="utf8::internal::sequence\l_length">
<polygon fill="white" stroke="black" points="1088.5,-446 1088.5,-476 1207.5,-476 1207.5,-446 1088.5,-446"/>
<text text-anchor="start" x="1096.5" y="-464" font-family="Helvetica,sans-Serif" font-size="10.00">utf8::internal::sequence</text>
<text text-anchor="middle" x="1148" y="-453" font-family="Helvetica,sans-Serif" font-size="10.00">_length</text>
</a>
</g>
</g>
<!-- Node22&#45;&gt;Node23 -->
<g id="edge24" class="edge"><title>Node22&#45;&gt;Node23</title>
<path fill="none" stroke="midnightblue" d="M991.719,-323.564C1005.59,-346.035 1043.19,-402.802 1088,-436 1090.35,-437.738 1092.83,-439.383 1095.4,-440.935"/>
<polygon fill="midnightblue" stroke="midnightblue" points="1093.95,-444.128 1104.4,-445.856 1097.31,-437.987 1093.95,-444.128"/>
</g>
<!-- Node25 -->
<g id="node25" class="node"><title>Node25</title>
<g id="a_node25"><a xlink:href="namespaceutf8_1_1internal.html#a6e5df73716136aec55e8fcf3309038b6" target="_top" xlink:title="get_sequence_x functions decode utf&#45;8 sequences of the length x ">
<polygon fill="white" stroke="black" points="1103,-397 1103,-427 1193,-427 1193,-397 1103,-397"/>
<text text-anchor="start" x="1111" y="-415" font-family="Helvetica,sans-Serif" font-size="10.00">utf8::internal::get</text>
<text text-anchor="middle" x="1148" y="-404" font-family="Helvetica,sans-Serif" font-size="10.00">_sequence_1</text>
</a>
</g>
</g>
<!-- Node22&#45;&gt;Node25 -->
<g id="edge26" class="edge"><title>Node22&#45;&gt;Node25</title>
<path fill="none" stroke="midnightblue" d="M997.672,-323.668C1016.05,-338.582 1053.24,-367.512 1088,-387 1091.45,-388.934 1095.08,-390.813 1098.77,-392.615"/>
<polygon fill="midnightblue" stroke="midnightblue" points="1097.47,-395.87 1108.01,-396.922 1100.43,-389.525 1097.47,-395.87"/>
</g>
<!-- Node26 -->
<g id="node26" class="node"><title>Node26</title>
<g id="a_node26"><a xlink:href="namespaceutf8_1_1internal.html#a9d641b9546be985f9f0fd4955ac42a24" target="_top" xlink:title="utf8::internal::get\l_sequence_2">
<polygon fill="white" stroke="black" points="1103,-348 1103,-378 1193,-378 1193,-348 1103,-348"/>
<text text-anchor="start" x="1111" y="-366" font-family="Helvetica,sans-Serif" font-size="10.00">utf8::internal::get</text>
<text text-anchor="middle" x="1148" y="-355" font-family="Helvetica,sans-Serif" font-size="10.00">_sequence_2</text>
</a>
</g>
</g>
<!-- Node22&#45;&gt;Node26 -->
<g id="edge28" class="edge"><title>Node22&#45;&gt;Node26</title>
<path fill="none" stroke="midnightblue" d="M1017.42,-323.564C1038.91,-330.104 1067.95,-338.941 1093.09,-346.592"/>
<polygon fill="midnightblue" stroke="midnightblue" points="1092.28,-350.004 1102.86,-349.568 1094.32,-343.307 1092.28,-350.004"/>
</g>
<!-- Node27 -->
<g id="node27" class="node"><title>Node27</title>
<g id="a_node27"><a xlink:href="namespaceutf8_1_1internal.html#ac1809a1fb3fa6983d64a0d3a39646008" target="_top" xlink:title="utf8::internal::get\l_sequence_3">
<polygon fill="white" stroke="black" points="1103,-299 1103,-329 1193,-329 1193,-299 1103,-299"/>
<text text-anchor="start" x="1111" y="-317" font-family="Helvetica,sans-Serif" font-size="10.00">utf8::internal::get</text>
<text text-anchor="middle" x="1148" y="-306" font-family="Helvetica,sans-Serif" font-size="10.00">_sequence_3</text>
</a>
</g>
</g>
<!-- Node22&#45;&gt;Node27 -->
<g id="edge30" class="edge"><title>Node22&#45;&gt;Node27</title>
<path fill="none" stroke="midnightblue" d="M1052.41,-314C1065.81,-314 1079.74,-314 1092.67,-314"/>
<polygon fill="midnightblue" stroke="midnightblue" points="1092.79,-317.5 1102.79,-314 1092.79,-310.5 1092.79,-317.5"/>
</g>
<!-- Node28 -->
<g id="node28" class="node"><title>Node28</title>
<g id="a_node28"><a xlink:href="namespaceutf8_1_1internal.html#ad1958e7c6746ba6b1fbb0d81b88b346c" target="_top" xlink:title="utf8::internal::get\l_sequence_4">
<polygon fill="white" stroke="black" points="1103,-250 1103,-280 1193,-280 1193,-250 1103,-250"/>
<text text-anchor="start" x="1111" y="-268" font-family="Helvetica,sans-Serif" font-size="10.00">utf8::internal::get</text>
<text text-anchor="middle" x="1148" y="-257" font-family="Helvetica,sans-Serif" font-size="10.00">_sequence_4</text>
</a>
</g>
</g>
<!-- Node22&#45;&gt;Node28 -->
<g id="edge32" class="edge"><title>Node22&#45;&gt;Node28</title>
<path fill="none" stroke="midnightblue" d="M1017.42,-304.436C1038.91,-297.896 1067.95,-289.059 1093.09,-281.408"/>
<polygon fill="midnightblue" stroke="midnightblue" points="1094.32,-284.693 1102.86,-278.432 1092.28,-277.996 1094.32,-284.693"/>
</g>
<!-- Node29 -->
<g id="node29" class="node"><title>Node29</title>
<g id="a_node29"><a xlink:href="namespaceutf8_1_1internal.html#a97b553137aaeda6e8ca6f8d46f78fd79" target="_top" xlink:title="utf8::internal::is\l_code_point_valid">
<polygon fill="white" stroke="black" points="1100.5,-152 1100.5,-182 1195.5,-182 1195.5,-152 1100.5,-152"/>
<text text-anchor="start" x="1108.5" y="-170" font-family="Helvetica,sans-Serif" font-size="10.00">utf8::internal::is</text>
<text text-anchor="middle" x="1148" y="-159" font-family="Helvetica,sans-Serif" font-size="10.00">_code_point_valid</text>
</a>
</g>
</g>
<!-- Node22&#45;&gt;Node29 -->
<g id="edge34" class="edge"><title>Node22&#45;&gt;Node29</title>
<path fill="none" stroke="midnightblue" d="M995.293,-304.362C1008.38,-290.652 1032.77,-264.564 1052,-241 1069.08,-220.061 1066.8,-208.76 1088,-192 1090.25,-190.221 1092.64,-188.547 1095.13,-186.975"/>
<polygon fill="midnightblue" stroke="midnightblue" points="1096.9,-189.994 1103.88,-182.016 1093.45,-183.905 1096.9,-189.994"/>
</g>
<!-- Node31 -->
<g id="node31" class="node"><title>Node31</title>
<g id="a_node31"><a xlink:href="namespaceutf8_1_1internal.html#a3160f6f24dff465f64f83cb0e66995c6" target="_top" xlink:title="utf8::internal::is\l_overlong_sequence">
<polygon fill="white" stroke="black" points="1095,-201 1095,-231 1201,-231 1201,-201 1095,-201"/>
<text text-anchor="start" x="1103" y="-219" font-family="Helvetica,sans-Serif" font-size="10.00">utf8::internal::is</text>
<text text-anchor="middle" x="1148" y="-208" font-family="Helvetica,sans-Serif" font-size="10.00">_overlong_sequence</text>
</a>
</g>
</g>
<!-- Node22&#45;&gt;Node31 -->
<g id="edge36" class="edge"><title>Node22&#45;&gt;Node31</title>
<path fill="none" stroke="midnightblue" d="M997.672,-304.332C1016.05,-289.418 1053.24,-260.488 1088,-241 1091.45,-239.066 1095.08,-237.187 1098.77,-235.385"/>
<polygon fill="midnightblue" stroke="midnightblue" points="1100.43,-238.475 1108.01,-231.078 1097.47,-232.13 1100.43,-238.475"/>
</g>
<!-- Node24 -->
<g id="node24" class="node"><title>Node24</title>
<g id="a_node24"><a xlink:href="namespaceutf8_1_1internal.html#adf6e0469e279b9562aa461b4c3c1e7e4" target="_top" xlink:title="utf8::internal::mask8">
<polygon fill="white" stroke="black" points="1244,-377.5 1244,-396.5 1350,-396.5 1350,-377.5 1244,-377.5"/>
<text text-anchor="middle" x="1297" y="-384.5" font-family="Helvetica,sans-Serif" font-size="10.00">utf8::internal::mask8</text>
</a>
</g>
</g>
<!-- Node23&#45;&gt;Node24 -->
<g id="edge25" class="edge"><title>Node23&#45;&gt;Node24</title>
<path fill="none" stroke="midnightblue" d="M1186.1,-445.999C1193.42,-442.836 1201,-439.418 1208,-436 1229.74,-425.379 1253.69,-411.923 1271.11,-401.801"/>
<polygon fill="midnightblue" stroke="midnightblue" points="1273.2,-404.633 1280.06,-396.559 1269.66,-398.593 1273.2,-404.633"/>
</g>
<!-- Node25&#45;&gt;Node24 -->
<g id="edge27" class="edge"><title>Node25&#45;&gt;Node24</title>
<path fill="none" stroke="midnightblue" d="M1193.1,-404.499C1205.97,-402.312 1220.27,-399.88 1234.01,-397.542"/>
<polygon fill="midnightblue" stroke="midnightblue" points="1234.63,-400.988 1243.9,-395.861 1233.45,-394.087 1234.63,-400.988"/>
</g>
<!-- Node26&#45;&gt;Node24 -->
<g id="edge29" class="edge"><title>Node26&#45;&gt;Node24</title>
<path fill="none" stroke="midnightblue" d="M1193.1,-370.201C1205.97,-372.301 1220.27,-374.635 1234.01,-376.88"/>
<polygon fill="midnightblue" stroke="midnightblue" points="1233.47,-380.337 1243.9,-378.494 1234.59,-373.428 1233.47,-380.337"/>
</g>
<!-- Node27&#45;&gt;Node24 -->
<g id="edge31" class="edge"><title>Node27&#45;&gt;Node24</title>
<path fill="none" stroke="midnightblue" d="M1186.07,-329.05C1193.4,-332.208 1200.99,-335.612 1208,-339 1229.55,-349.412 1253.34,-362.49 1270.75,-372.365"/>
<polygon fill="midnightblue" stroke="midnightblue" points="1269.29,-375.562 1279.71,-377.484 1272.76,-369.484 1269.29,-375.562"/>
</g>
<!-- Node28&#45;&gt;Node24 -->
<g id="edge33" class="edge"><title>Node28&#45;&gt;Node24</title>
<path fill="none" stroke="midnightblue" d="M1190.85,-280.028C1196.83,-282.939 1202.74,-286.265 1208,-290 1239.63,-312.46 1268.19,-348.071 1283.72,-369.325"/>
<polygon fill="midnightblue" stroke="midnightblue" points="1280.89,-371.377 1289.55,-377.474 1286.58,-367.305 1280.89,-371.377"/>
</g>
<!-- Node30 -->
<g id="node30" class="node"><title>Node30</title>
<g id="a_node30"><a xlink:href="namespaceutf8_1_1internal.html#a31a185a6bc8b9bf454191a8a95a93595" target="_top" xlink:title="utf8::internal::is\l_surrogate">
<polygon fill="white" stroke="black" points="1255,-152 1255,-182 1339,-182 1339,-152 1255,-152"/>
<text text-anchor="start" x="1263" y="-170" font-family="Helvetica,sans-Serif" font-size="10.00">utf8::internal::is</text>
<text text-anchor="middle" x="1297" y="-159" font-family="Helvetica,sans-Serif" font-size="10.00">_surrogate</text>
</a>
</g>
</g>
<!-- Node29&#45;&gt;Node30 -->
<g id="edge35" class="edge"><title>Node29&#45;&gt;Node30</title>
<path fill="none" stroke="midnightblue" d="M1195.51,-167C1211.11,-167 1228.58,-167 1244.53,-167"/>
<polygon fill="midnightblue" stroke="midnightblue" points="1244.76,-170.5 1254.76,-167 1244.76,-163.5 1244.76,-170.5"/>
</g>
<!-- Node32&#45;&gt;Node29 -->
<g id="edge38" class="edge"><title>Node32&#45;&gt;Node29</title>
<path fill="none" stroke="midnightblue" d="M1014.04,-212.42C1035.87,-204.964 1066.81,-194.396 1093.35,-185.329"/>
<polygon fill="midnightblue" stroke="midnightblue" points="1094.57,-188.61 1102.9,-182.065 1092.31,-181.986 1094.57,-188.61"/>
</g>
<!-- Node33&#45;&gt;Node24 -->
<g id="edge40" class="edge"><title>Node33&#45;&gt;Node24</title>
<path fill="none" stroke="midnightblue" d="M1007.03,-446.088C1026.82,-459.297 1057.86,-477.514 1088,-485 1139.76,-497.856 1159.29,-506.726 1208,-485 1244.53,-468.708 1272.22,-428.934 1286.1,-405.368"/>
<polygon fill="midnightblue" stroke="midnightblue" points="1289.15,-407.081 1291.04,-396.655 1283.06,-403.63 1289.15,-407.081"/>
</g>
</g>
</svg>
        <g id="navigator" transform="translate(0 0)" fill="#404254">
                <rect fill="#f2f5e9" fill-opacity="0.5" stroke="#606060" stroke-width=".5" x="0" y="0" width="60" height="60"/>
                <use id="zoomplus" xlink:href="#zoomPlus" x="17" y="9" onmousedown="handleZoom(evt,'in')"/>
                <use id="zoomminus" xlink:href="#zoomMin" x="42" y="9" onmousedown="handleZoom(evt,'out')"/>
                <use id="reset" xlink:href="#resetDef" x="30" y="36" onmousedown="handleReset()"/>
                <g id="arrowUp" xlink:href="#dirArrow" transform="translate(30 24)" onmousedown="handlePan(0,-1)">
                  <use xlink:href="#rim" fill="#404040">
                        <set attributeName="fill" to="#808080" begin="arrowUp.mouseover" end="arrowUp.mouseout"/>
                  </use>
                  <path fill="none" stroke="white" stroke-width="1.5" d="M0,-3.0v7 M-2.5,-0.5L0,-3.0L2.5,-0.5"/>
                </g>
                <g id="arrowRight" xlink:href="#dirArrow" transform="rotate(90) translate(36 -43)" onmousedown="handlePan(1,0)">
                  <use xlink:href="#rim" fill="#404040">
                        <set attributeName="fill" to="#808080" begin="arrowRight.mouseover" end="arrowRight.mouseout"/>
                  </use>
                  <path fill="none" stroke="white" stroke-width="1.5" d="M0,-3.0v7 M-2.5,-0.5L0,-3.0L2.5,-0.5"/>
                </g>
                <g id="arrowDown" xlink:href="#dirArrow" transform="rotate(180) translate(-30 -48)" onmousedown="handlePan(0,1)">
                  <use xlink:href="#rim" fill="#404040">
                        <set attributeName="fill" to="#808080" begin="arrowDown.mouseover" end="arrowDown.mouseout"/>
                  </use>
                  <path fill="none" stroke="white" stroke-width="1.5" d="M0,-3.0v7 M-2.5,-0.5L0,-3.0L2.5,-0.5"/>
                </g>
                <g id="arrowLeft" xlink:href="#dirArrow" transform="rotate(270) translate(-36 17)" onmousedown="handlePan(-1,0)">
                  <use xlink:href="#rim" fill="#404040">
                        <set attributeName="fill" to="#808080" begin="arrowLeft.mouseover" end="arrowLeft.mouseout"/>
                  </use>
                  <path fill="none" stroke="white" stroke-width="1.5" d="M0,-3.0v7 M-2.5,-0.5L0,-3.0L2.5,-0.5"/>
                </g>
        </g>
        <svg viewBox="0 0 15 15" width="100%" height="30px" preserveAspectRatio="xMaxYMin meet">
         <g id="arrow_out" transform="scale(0.3 0.3)">
          <a xlink:href="class_game_script_a57fef318c599e4d2f86aa9b4b7f2ec12_cgraph_org.svg" target="_base">
           <rect id="button" ry="5" rx="5" y="6" x="6" height="38" width="38"
                fill="#f2f5e9" fill-opacity="0.5" stroke="#606060" stroke-width="1.0"/>
           <path id="arrow"
             d="M 11.500037,31.436501 C 11.940474,20.09759 22.043105,11.32322 32.158766,21.979434 L 37.068811,17.246167 C 37.068811,17.246167 37.088388,32 37.088388,32 L 22.160133,31.978069 C 22.160133,31.978069 26.997745,27.140456 26.997745,27.140456 C 18.528582,18.264221 13.291696,25.230495 11.500037,31.436501 z"
             style="fill:#404040;"/>
          </a>
         </g>
        </svg>
</svg>
