<?xml version="1.0" encoding="UTF-8" standalone="no"?>
<!DOCTYPE svg PUBLIC "-//W3C//DTD SVG 1.1//EN"
 "http://www.w3.org/Graphics/SVG/1.1/DTD/svg11.dtd">
<!-- Generated by graphviz version 2.36.0 (20140111.2315)
 -->
<!-- Title: MOC::CollisionTools::GetMeshInformation Pages: 1 -->
<svg width="560pt" height="185pt"
 viewBox="0.00 0.00 560.00 185.00" xmlns="http://www.w3.org/2000/svg" xmlns:xlink="http://www.w3.org/1999/xlink">
<g id="graph0" class="graph" transform="scale(1 1) rotate(0) translate(4 181)">
<title>MOC::CollisionTools::GetMeshInformation</title>
<polygon fill="white" stroke="none" points="-4,4 -4,-181 556,-181 556,4 -4,4"/>
<!-- Node1 -->
<g id="node1" class="node"><title>Node1</title>
<polygon fill="#bfbfbf" stroke="black" points="0.5,-73 0.5,-103 111.5,-103 111.5,-73 0.5,-73"/>
<text text-anchor="start" x="8.5" y="-91" font-family="Helvetica,sans-Serif" font-size="10.00">MOC::CollisionTools</text>
<text text-anchor="middle" x="56" y="-80" font-family="Helvetica,sans-Serif" font-size="10.00">::GetMeshInformation</text>
</g>
<!-- Node2 -->
<g id="node2" class="node"><title>Node2</title>
<g id="a_node2"><a xlink:href="class_m_o_c_1_1_collision_tools.html#aeea2a5610cba73ec3393563eeb437319" target="_top" xlink:title="MOC::CollisionTools\l::raycast">
<polygon fill="white" stroke="black" points="148.5,-73 148.5,-103 255.5,-103 255.5,-73 148.5,-73"/>
<text text-anchor="start" x="156.5" y="-91" font-family="Helvetica,sans-Serif" font-size="10.00">MOC::CollisionTools</text>
<text text-anchor="middle" x="202" y="-80" font-family="Helvetica,sans-Serif" font-size="10.00">::raycast</text>
</a>
</g>
</g>
<!-- Node1&#45;&gt;Node2 -->
<g id="edge1" class="edge"><title>Node1&#45;&gt;Node2</title>
<path fill="none" stroke="midnightblue" d="M122.037,-88C130.795,-88 139.692,-88 148.202,-88"/>
<polygon fill="midnightblue" stroke="midnightblue" points="121.851,-84.5001 111.851,-88 121.851,-91.5001 121.851,-84.5001"/>
</g>
<!-- Node3 -->
<g id="node3" class="node"><title>Node3</title>
<g id="a_node3"><a xlink:href="class_m_o_c_1_1_collision_tools.html#aeacad4ab634b7d8d9d05dd23182b4ecc" target="_top" xlink:title="MOC::CollisionTools\l::raycastFromCamera">
<polygon fill="white" stroke="black" points="292,-134 292,-164 404,-164 404,-134 292,-134"/>
<text text-anchor="start" x="300" y="-152" font-family="Helvetica,sans-Serif" font-size="10.00">MOC::CollisionTools</text>
<text text-anchor="middle" x="348" y="-141" font-family="Helvetica,sans-Serif" font-size="10.00">::raycastFromCamera</text>
</a>
</g>
</g>
<!-- Node2&#45;&gt;Node3 -->
<g id="edge2" class="edge"><title>Node2&#45;&gt;Node3</title>
<path fill="none" stroke="midnightblue" d="M248,-107.063C268.397,-115.703 292.175,-125.776 311.315,-133.883"/>
<polygon fill="midnightblue" stroke="midnightblue" points="249.169,-103.757 238.596,-103.079 246.438,-110.202 249.169,-103.757"/>
</g>
<!-- Node5 -->
<g id="node5" class="node"><title>Node5</title>
<g id="a_node5"><a xlink:href="class_m_o_c_1_1_collision_tools.html#a926b1617716c4d9953697b90f8b13863" target="_top" xlink:title="MOC::CollisionTools\l::raycastFromPoint">
<polygon fill="white" stroke="black" points="294.5,-73 294.5,-103 401.5,-103 401.5,-73 294.5,-73"/>
<text text-anchor="start" x="302.5" y="-91" font-family="Helvetica,sans-Serif" font-size="10.00">MOC::CollisionTools</text>
<text text-anchor="middle" x="348" y="-80" font-family="Helvetica,sans-Serif" font-size="10.00">::raycastFromPoint</text>
</a>
</g>
</g>
<!-- Node2&#45;&gt;Node5 -->
<g id="edge4" class="edge"><title>Node2&#45;&gt;Node5</title>
<path fill="none" stroke="midnightblue" d="M265.927,-88C275.362,-88 285.008,-88 294.204,-88"/>
<polygon fill="midnightblue" stroke="midnightblue" points="265.803,-84.5001 255.803,-88 265.803,-91.5001 265.803,-84.5001"/>
</g>
<!-- Node9 -->
<g id="node9" class="node"><title>Node9</title>
<g id="a_node9"><a xlink:href="class_m_o_c_1_1_collision_tools.html#afe929b702605c52e24480bf3e9ffad1c" target="_top" xlink:title="MOC::CollisionTools\l::raycast">
<polygon fill="white" stroke="black" points="294.5,-24 294.5,-54 401.5,-54 401.5,-24 294.5,-24"/>
<text text-anchor="start" x="302.5" y="-42" font-family="Helvetica,sans-Serif" font-size="10.00">MOC::CollisionTools</text>
<text text-anchor="middle" x="348" y="-31" font-family="Helvetica,sans-Serif" font-size="10.00">::raycast</text>
</a>
</g>
</g>
<!-- Node2&#45;&gt;Node9 -->
<g id="edge8" class="edge"><title>Node2&#45;&gt;Node9</title>
<path fill="none" stroke="midnightblue" d="M257.043,-69.6104C272.036,-64.5084 288.14,-59.0289 302.519,-54.1359"/>
<polygon fill="midnightblue" stroke="midnightblue" points="255.719,-66.3637 247.38,-72.8986 257.974,-72.9905 255.719,-66.3637"/>
</g>
<!-- Node4 -->
<g id="node4" class="node"><title>Node4</title>
<g id="a_node4"><a xlink:href="class_m_o_c_1_1_collision_tools.html#a7a2c1e82a39f9480ce119de94e644b3a" target="_top" xlink:title="MOC::CollisionTools\l::raycastFromCamera">
<polygon fill="white" stroke="black" points="440,-147 440,-177 552,-177 552,-147 440,-147"/>
<text text-anchor="start" x="448" y="-165" font-family="Helvetica,sans-Serif" font-size="10.00">MOC::CollisionTools</text>
<text text-anchor="middle" x="496" y="-154" font-family="Helvetica,sans-Serif" font-size="10.00">::raycastFromCamera</text>
</a>
</g>
</g>
<!-- Node3&#45;&gt;Node4 -->
<g id="edge3" class="edge"><title>Node3&#45;&gt;Node4</title>
<path fill="none" stroke="midnightblue" d="M414.41,-154.824C422.865,-155.577 431.457,-156.342 439.726,-157.078"/>
<polygon fill="midnightblue" stroke="midnightblue" points="414.467,-151.316 404.196,-153.915 413.846,-158.288 414.467,-151.316"/>
</g>
<!-- Node6 -->
<g id="node6" class="node"><title>Node6</title>
<g id="a_node6"><a xlink:href="class_m_o_c_1_1_collision_tools.html#a2e5543e1407bed98ff637cc24b3f9bc1" target="_top" xlink:title="MOC::CollisionTools\l::collidesWithEntity">
<polygon fill="white" stroke="black" points="442.5,-98 442.5,-128 549.5,-128 549.5,-98 442.5,-98"/>
<text text-anchor="start" x="450.5" y="-116" font-family="Helvetica,sans-Serif" font-size="10.00">MOC::CollisionTools</text>
<text text-anchor="middle" x="496" y="-105" font-family="Helvetica,sans-Serif" font-size="10.00">::collidesWithEntity</text>
</a>
</g>
</g>
<!-- Node5&#45;&gt;Node6 -->
<g id="edge5" class="edge"><title>Node5&#45;&gt;Node6</title>
<path fill="none" stroke="midnightblue" d="M411.784,-98.7507C421.98,-100.497 432.447,-102.289 442.368,-103.988"/>
<polygon fill="midnightblue" stroke="midnightblue" points="412.157,-95.2636 401.709,-97.0256 410.975,-102.163 412.157,-95.2636"/>
</g>
<!-- Node7 -->
<g id="node7" class="node"><title>Node7</title>
<g id="a_node7"><a xlink:href="class_m_o_c_1_1_collision_tools.html#a645e5635f70ad0532099513b2c42c7fb" target="_top" xlink:title="MOC::CollisionTools\l::calculateY">
<polygon fill="white" stroke="black" points="442.5,-49 442.5,-79 549.5,-79 549.5,-49 442.5,-49"/>
<text text-anchor="start" x="450.5" y="-67" font-family="Helvetica,sans-Serif" font-size="10.00">MOC::CollisionTools</text>
<text text-anchor="middle" x="496" y="-56" font-family="Helvetica,sans-Serif" font-size="10.00">::calculateY</text>
</a>
</g>
</g>
<!-- Node5&#45;&gt;Node7 -->
<g id="edge6" class="edge"><title>Node5&#45;&gt;Node7</title>
<path fill="none" stroke="midnightblue" d="M411.784,-77.6793C421.98,-76.0033 432.447,-74.2827 442.368,-72.6518"/>
<polygon fill="midnightblue" stroke="midnightblue" points="411.009,-74.2597 401.709,-79.3354 412.145,-81.167 411.009,-74.2597"/>
</g>
<!-- Node8 -->
<g id="node8" class="node"><title>Node8</title>
<g id="a_node8"><a xlink:href="class_m_o_c_1_1_collision_tools.html#a12d26bad42a281549f955b387eb7d1c1" target="_top" xlink:title="MOC::CollisionTools\l::raycastFromPoint">
<polygon fill="white" stroke="black" points="442.5,-0 442.5,-30 549.5,-30 549.5,-0 442.5,-0"/>
<text text-anchor="start" x="450.5" y="-18" font-family="Helvetica,sans-Serif" font-size="10.00">MOC::CollisionTools</text>
<text text-anchor="middle" x="496" y="-7" font-family="Helvetica,sans-Serif" font-size="10.00">::raycastFromPoint</text>
</a>
</g>
</g>
<!-- Node5&#45;&gt;Node8 -->
<g id="edge7" class="edge"><title>Node5&#45;&gt;Node8</title>
<path fill="none" stroke="midnightblue" d="M393.183,-68.589C396.874,-66.7644 400.522,-64.8891 404,-63 420.684,-53.9377 423.316,-49.0623 440,-40 446.36,-36.5457 453.287,-33.1373 460.013,-30.001"/>
<polygon fill="midnightblue" stroke="midnightblue" points="391.49,-65.519 383.987,-72.999 394.517,-71.8308 391.49,-65.519"/>
</g>
</g>
</svg>
