<?xml version="1.0" encoding="UTF-8" standalone="no"?>
<!DOCTYPE svg PUBLIC "-//W3C//DTD SVG 1.1//EN"
 "http://www.w3.org/Graphics/SVG/1.1/DTD/svg11.dtd">
<!-- Generated by graphviz version 2.36.0 (20140111.2315)
 -->
<!-- Title: FlexMeshWheel Pages: 1 -->
<svg width="307pt" height="108pt"
 viewBox="0.00 0.00 307.00 108.00" xmlns="http://www.w3.org/2000/svg" xmlns:xlink="http://www.w3.org/1999/xlink">
<g id="graph0" class="graph" transform="scale(1 1) rotate(0) translate(4 104)">
<title>FlexMeshWheel</title>
<polygon fill="white" stroke="none" points="-4,4 -4,-104 303,-104 303,4 -4,4"/>
<!-- Node1 -->
<g id="node1" class="node"><title>Node1</title>
<polygon fill="#bfbfbf" stroke="black" points="109.5,-0.5 109.5,-19.5 196.5,-19.5 196.5,-0.5 109.5,-0.5"/>
<text text-anchor="middle" x="153" y="-7.5" font-family="Helvetica,sans-Serif" font-size="10.00">FlexMeshWheel</text>
</g>
<!-- Node2 -->
<g id="node2" class="node"><title>Node2</title>
<g id="a_node2"><a xlink:href="class_flexable.html" target="_top" xlink:title="Flexable">
<polygon fill="white" stroke="black" points="-0.5,-74.5 -0.5,-93.5 52.5,-93.5 52.5,-74.5 -0.5,-74.5"/>
<text text-anchor="middle" x="26" y="-81.5" font-family="Helvetica,sans-Serif" font-size="10.00">Flexable</text>
</a>
</g>
</g>
<!-- Node2&#45;&gt;Node1 -->
<g id="edge1" class="edge"><title>Node2&#45;&gt;Node1</title>
<path fill="none" stroke="midnightblue" d="M49.8716,-69.4665C75.7303,-54.8064 116.195,-31.866 137.952,-19.531"/>
<polygon fill="midnightblue" stroke="midnightblue" points="48.0404,-66.4813 41.0673,-74.4579 51.4927,-72.5708 48.0404,-66.4813"/>
</g>
<!-- Node3 -->
<g id="node3" class="node"><title>Node3</title>
<g id="a_node3"><a xlink:href="struct_flex_mesh_wheel_1_1_flex_mesh_wheel_vertex.html" target="_top" xlink:title="FlexMeshWheel::FlexMeshWheel\lVertex">
<polygon fill="white" stroke="black" points="71,-69 71,-99 235,-99 235,-69 71,-69"/>
<text text-anchor="start" x="79" y="-87" font-family="Helvetica,sans-Serif" font-size="10.00">FlexMeshWheel::FlexMeshWheel</text>
<text text-anchor="middle" x="153" y="-76" font-family="Helvetica,sans-Serif" font-size="10.00">Vertex</text>
</a>
</g>
</g>
<!-- Node3&#45;&gt;Node1 -->
<g id="edge2" class="edge"><title>Node3&#45;&gt;Node1</title>
<path fill="none" stroke="#9a32cd" stroke-dasharray="5,2" d="M153,-58.6883C153,-45.2526 153,-29.3805 153,-19.7589"/>
<polygon fill="#9a32cd" stroke="#9a32cd" points="149.5,-58.7751 153,-68.7751 156.5,-58.7752 149.5,-58.7751"/>
<text text-anchor="middle" x="179" y="-41.5" font-family="Helvetica,sans-Serif" font-size="10.00"> m_vertices</text>
</g>
<!-- Node4 -->
<g id="node4" class="node"><title>Node4</title>
<g id="a_node4"><a xlink:href="structnode__t.html" target="_top" xlink:title="node_t">
<polygon fill="white" stroke="black" points="253,-74.5 253,-93.5 299,-93.5 299,-74.5 253,-74.5"/>
<text text-anchor="middle" x="276" y="-81.5" font-family="Helvetica,sans-Serif" font-size="10.00">node_t</text>
</a>
</g>
</g>
<!-- Node4&#45;&gt;Node1 -->
<g id="edge3" class="edge"><title>Node4&#45;&gt;Node1</title>
<path fill="none" stroke="#9a32cd" stroke-dasharray="5,2" d="M255.734,-68.2863C242.688,-59.094 225.2,-47.2829 209,-38 197.2,-31.2386 183.45,-24.5922 172.528,-19.5856"/>
<polygon fill="#9a32cd" stroke="#9a32cd" points="253.811,-71.2139 263.985,-74.1686 257.874,-65.5139 253.811,-71.2139"/>
<text text-anchor="middle" x="257" y="-41.5" font-family="Helvetica,sans-Serif" font-size="10.00"> m_all_nodes</text>
</g>
</g>
</svg>
