<?xml version="1.0" encoding="UTF-8" standalone="no"?>
<!DOCTYPE svg PUBLIC "-//W3C//DTD SVG 1.1//EN"
 "http://www.w3.org/Graphics/SVG/1.1/DTD/svg11.dtd">
<!-- Generated by graphviz version 2.36.0 (20140111.2315)
 -->
<!-- Title: Ogre::TerrainPSSMMaterialGenerator::SM2Profile::ShaderHelper::updateParams Pages: 1 -->
<svg width="328pt" height="48pt"
 viewBox="0.00 0.00 328.00 48.00" xmlns="http://www.w3.org/2000/svg" xmlns:xlink="http://www.w3.org/1999/xlink">
<g id="graph0" class="graph" transform="scale(1 1) rotate(0) translate(4 44)">
<title>Ogre::TerrainPSSMMaterialGenerator::SM2Profile::ShaderHelper::updateParams</title>
<polygon fill="white" stroke="none" points="-4,4 -4,-44 324,-44 324,4 -4,4"/>
<!-- Node1 -->
<g id="node1" class="node"><title>Node1</title>
<polygon fill="#bfbfbf" stroke="black" points="0.5,0.5 0.5,-40.5 145.5,-40.5 145.5,0.5 0.5,0.5"/>
<text text-anchor="start" x="8.5" y="-28.5" font-family="Helvetica,sans-Serif" font-size="10.00">Ogre::TerrainPSSMMaterial</text>
<text text-anchor="start" x="8.5" y="-17.5" font-family="Helvetica,sans-Serif" font-size="10.00">Generator::SM2Profile::</text>
<text text-anchor="middle" x="73" y="-6.5" font-family="Helvetica,sans-Serif" font-size="10.00">ShaderHelper::updateParams</text>
</g>
<!-- Node2 -->
<g id="node2" class="node"><title>Node2</title>
<g id="a_node2"><a xlink:href="class_ogre_1_1_terrain_p_s_s_m_material_generator_1_1_s_m2_profile.html#a786a58bb91def783550c189d1aedd3a6" target="_top" xlink:title="Ogre::TerrainPSSMMaterial\lGenerator::SM2Profile::\lisCompositeMapEnabled">
<polygon fill="white" stroke="black" points="182.5,0.5 182.5,-40.5 319.5,-40.5 319.5,0.5 182.5,0.5"/>
<text text-anchor="start" x="190.5" y="-28.5" font-family="Helvetica,sans-Serif" font-size="10.00">Ogre::TerrainPSSMMaterial</text>
<text text-anchor="start" x="190.5" y="-17.5" font-family="Helvetica,sans-Serif" font-size="10.00">Generator::SM2Profile::</text>
<text text-anchor="middle" x="251" y="-6.5" font-family="Helvetica,sans-Serif" font-size="10.00">isCompositeMapEnabled</text>
</a>
</g>
</g>
<!-- Node1&#45;&gt;Node2 -->
<g id="edge1" class="edge"><title>Node1&#45;&gt;Node2</title>
<path fill="none" stroke="midnightblue" d="M145.586,-20C154.437,-20 163.517,-20 172.452,-20"/>
<polygon fill="midnightblue" stroke="midnightblue" points="172.457,-23.5001 182.457,-20 172.457,-16.5001 172.457,-23.5001"/>
</g>
</g>
</svg>
