<?xml version="1.0" encoding="UTF-8" standalone="no"?>
<!DOCTYPE svg PUBLIC "-//W3C//DTD SVG 1.1//EN"
 "http://www.w3.org/Graphics/SVG/1.1/DTD/svg11.dtd">
<!-- Generated by graphviz version 2.36.0 (20140111.2315)
 -->
<!-- Title: PointColDetector::query Pages: 1 -->
<svg width="630pt" height="38pt"
 viewBox="0.00 0.00 630.00 38.00" xmlns="http://www.w3.org/2000/svg" xmlns:xlink="http://www.w3.org/1999/xlink">
<g id="graph0" class="graph" transform="scale(1 1) rotate(0) translate(4 34)">
<title>PointColDetector::query</title>
<polygon fill="white" stroke="none" points="-4,4 -4,-34 626,-34 626,4 -4,4"/>
<!-- Node1 -->
<g id="node1" class="node"><title>Node1</title>
<polygon fill="#bfbfbf" stroke="black" points="0,-5.5 0,-24.5 122,-24.5 122,-5.5 0,-5.5"/>
<text text-anchor="middle" x="61" y="-12.5" font-family="Helvetica,sans-Serif" font-size="10.00">PointColDetector::query</text>
</g>
<!-- Node2 -->
<g id="node2" class="node"><title>Node2</title>
<g id="a_node2"><a xlink:href="class_point_col_detector.html#a527315532789859ce268f76a1002be69" target="_top" xlink:title="PointColDetector::queryrec">
<polygon fill="white" stroke="black" points="158.5,-5.5 158.5,-24.5 293.5,-24.5 293.5,-5.5 158.5,-5.5"/>
<text text-anchor="middle" x="226" y="-12.5" font-family="Helvetica,sans-Serif" font-size="10.00">PointColDetector::queryrec</text>
</a>
</g>
</g>
<!-- Node1&#45;&gt;Node2 -->
<g id="edge1" class="edge"><title>Node1&#45;&gt;Node2</title>
<path fill="none" stroke="midnightblue" d="M122.232,-15C130.706,-15 139.509,-15 148.24,-15"/>
<polygon fill="midnightblue" stroke="midnightblue" points="148.432,-18.5001 158.432,-15 148.432,-11.5001 148.432,-18.5001"/>
</g>
<!-- Node3 -->
<g id="node3" class="node"><title>Node3</title>
<g id="a_node3"><a xlink:href="class_point_col_detector.html#afd90680dea847b2ed9fca4f246302389" target="_top" xlink:title="PointColDetector::build\l_kdtree_incr">
<polygon fill="white" stroke="black" points="330,-0 330,-30 448,-30 448,-0 330,-0"/>
<text text-anchor="start" x="338" y="-18" font-family="Helvetica,sans-Serif" font-size="10.00">PointColDetector::build</text>
<text text-anchor="middle" x="389" y="-7" font-family="Helvetica,sans-Serif" font-size="10.00">_kdtree_incr</text>
</a>
</g>
</g>
<!-- Node2&#45;&gt;Node3 -->
<g id="edge2" class="edge"><title>Node2&#45;&gt;Node3</title>
<path fill="none" stroke="midnightblue" d="M293.88,-15C302.356,-15 311.04,-15 319.54,-15"/>
<polygon fill="midnightblue" stroke="midnightblue" points="319.792,-18.5001 329.792,-15 319.792,-11.5001 319.792,-18.5001"/>
</g>
<!-- Node4 -->
<g id="node4" class="node"><title>Node4</title>
<g id="a_node4"><a xlink:href="class_point_col_detector.html#a4aead4359a31a59472d6eb55109fa578" target="_top" xlink:title="PointColDetector::partintwo">
<polygon fill="white" stroke="black" points="484.5,-5.5 484.5,-24.5 621.5,-24.5 621.5,-5.5 484.5,-5.5"/>
<text text-anchor="middle" x="553" y="-12.5" font-family="Helvetica,sans-Serif" font-size="10.00">PointColDetector::partintwo</text>
</a>
</g>
</g>
<!-- Node3&#45;&gt;Node4 -->
<g id="edge3" class="edge"><title>Node3&#45;&gt;Node4</title>
<path fill="none" stroke="midnightblue" d="M448.028,-15C456.511,-15 465.361,-15 474.161,-15"/>
<polygon fill="midnightblue" stroke="midnightblue" points="474.443,-18.5001 484.443,-15 474.443,-11.5001 474.443,-18.5001"/>
</g>
</g>
</svg>
