<?xml version="1.0" encoding="UTF-8" standalone="no"?>
<!DOCTYPE svg PUBLIC "-//W3C//DTD SVG 1.1//EN"
 "http://www.w3.org/Graphics/SVG/1.1/DTD/svg11.dtd">
<!-- Generated by graphviz version 2.36.0 (20140111.2315)
 -->
<!-- Title: RoR::GUI::SimUtils::SetFPSBoxVisible Pages: 1 -->
<svg width="840pt" height="38pt"
 viewBox="0.00 0.00 840.00 38.00" xmlns="http://www.w3.org/2000/svg" xmlns:xlink="http://www.w3.org/1999/xlink">
<g id="graph0" class="graph" transform="scale(1 1) rotate(0) translate(4 34)">
<title>RoR::GUI::SimUtils::SetFPSBoxVisible</title>
<polygon fill="white" stroke="none" points="-4,4 -4,-34 836,-34 836,4 -4,4"/>
<!-- Node1 -->
<g id="node1" class="node"><title>Node1</title>
<polygon fill="#bfbfbf" stroke="black" points="0,-0 0,-30 104,-30 104,-0 0,-0"/>
<text text-anchor="start" x="8" y="-18" font-family="Helvetica,sans-Serif" font-size="10.00">RoR::GUI::SimUtils</text>
<text text-anchor="middle" x="52" y="-7" font-family="Helvetica,sans-Serif" font-size="10.00">::SetFPSBoxVisible</text>
</g>
<!-- Node2 -->
<g id="node2" class="node"><title>Node2</title>
<g id="a_node2"><a xlink:href="class_ro_r_1_1_g_u_i_manager.html#ae6376fb591e87d8aedff5fc5e5655191" target="_top" xlink:title="RoR::GUIManager::hideGUI">
<polygon fill="white" stroke="black" points="140,-5.5 140,-24.5 280,-24.5 280,-5.5 140,-5.5"/>
<text text-anchor="middle" x="210" y="-12.5" font-family="Helvetica,sans-Serif" font-size="10.00">RoR::GUIManager::hideGUI</text>
</a>
</g>
</g>
<!-- Node1&#45;&gt;Node2 -->
<g id="edge1" class="edge"><title>Node1&#45;&gt;Node2</title>
<path fill="none" stroke="midnightblue" d="M114.214,-15C122.657,-15 131.376,-15 139.948,-15"/>
<polygon fill="midnightblue" stroke="midnightblue" points="114.08,-11.5001 104.08,-15 114.08,-18.5001 114.08,-11.5001"/>
</g>
<!-- Node3 -->
<g id="node3" class="node"><title>Node3</title>
<g id="a_node3"><a xlink:href="class_ro_r_frame_listener.html#a519eb1268f9cc62d177d723bdb8190e1" target="_top" xlink:title="RoRFrameListener::HideGUI">
<polygon fill="white" stroke="black" points="316.5,-5.5 316.5,-24.5 459.5,-24.5 459.5,-5.5 316.5,-5.5"/>
<text text-anchor="middle" x="388" y="-12.5" font-family="Helvetica,sans-Serif" font-size="10.00">RoRFrameListener::HideGUI</text>
</a>
</g>
</g>
<!-- Node2&#45;&gt;Node3 -->
<g id="edge2" class="edge"><title>Node2&#45;&gt;Node3</title>
<path fill="none" stroke="midnightblue" d="M290.226,-15C298.953,-15 307.796,-15 316.408,-15"/>
<polygon fill="midnightblue" stroke="midnightblue" points="290.055,-11.5001 280.055,-15 290.055,-18.5001 290.055,-11.5001"/>
</g>
<!-- Node4 -->
<g id="node4" class="node"><title>Node4</title>
<g id="a_node4"><a xlink:href="class_ro_r_frame_listener.html#afec2a0f00ed552c21d22aae76329bf38" target="_top" xlink:title="RoRFrameListener::Update\lInputEvents">
<polygon fill="white" stroke="black" points="496.5,-0 496.5,-30 633.5,-30 633.5,-0 496.5,-0"/>
<text text-anchor="start" x="504.5" y="-18" font-family="Helvetica,sans-Serif" font-size="10.00">RoRFrameListener::Update</text>
<text text-anchor="middle" x="565" y="-7" font-family="Helvetica,sans-Serif" font-size="10.00">InputEvents</text>
</a>
</g>
</g>
<!-- Node3&#45;&gt;Node4 -->
<g id="edge3" class="edge"><title>Node3&#45;&gt;Node4</title>
<path fill="none" stroke="midnightblue" d="M469.716,-15C478.663,-15 487.705,-15 496.466,-15"/>
<polygon fill="midnightblue" stroke="midnightblue" points="469.675,-11.5001 459.675,-15 469.675,-18.5001 469.675,-11.5001"/>
</g>
<!-- Node5 -->
<g id="node5" class="node"><title>Node5</title>
<g id="a_node5"><a xlink:href="class_ro_r_frame_listener.html#acd8647e188fb8e838689492965b86faf" target="_top" xlink:title="RoRFrameListener::frameStarted">
<polygon fill="white" stroke="black" points="670.5,-5.5 670.5,-24.5 831.5,-24.5 831.5,-5.5 670.5,-5.5"/>
<text text-anchor="middle" x="751" y="-12.5" font-family="Helvetica,sans-Serif" font-size="10.00">RoRFrameListener::frameStarted</text>
</a>
</g>
</g>
<!-- Node4&#45;&gt;Node5 -->
<g id="edge4" class="edge"><title>Node4&#45;&gt;Node5</title>
<path fill="none" stroke="midnightblue" d="M643.879,-15C652.608,-15 661.511,-15 670.263,-15"/>
<polygon fill="midnightblue" stroke="midnightblue" points="643.731,-11.5001 633.731,-15 643.731,-18.5001 643.731,-11.5001"/>
</g>
</g>
</svg>
