<?xml version="1.0" encoding="UTF-8" standalone="no"?>
<!DOCTYPE svg PUBLIC "-//W3C//DTD SVG 1.1//EN"
 "http://www.w3.org/Graphics/SVG/1.1/DTD/svg11.dtd">
<!-- Generated by graphviz version 2.36.0 (20140111.2315)
 -->
<!-- Title: Beam::tieToggle Pages: 1 -->
<svg width="468pt" height="51pt"
 viewBox="0.00 0.00 468.00 51.00" xmlns="http://www.w3.org/2000/svg" xmlns:xlink="http://www.w3.org/1999/xlink">
<g id="graph0" class="graph" transform="scale(1 1) rotate(0) translate(4 47)">
<title>Beam::tieToggle</title>
<polygon fill="white" stroke="none" points="-4,4 -4,-47 464,-47 464,4 -4,4"/>
<!-- Node1 -->
<g id="node1" class="node"><title>Node1</title>
<polygon fill="#bfbfbf" stroke="black" points="0,-5.5 0,-24.5 88,-24.5 88,-5.5 0,-5.5"/>
<text text-anchor="middle" x="44" y="-12.5" font-family="Helvetica,sans-Serif" font-size="10.00">Beam::tieToggle</text>
</g>
<!-- Node1&#45;&gt;Node1 -->
<g id="edge3" class="edge"><title>Node1&#45;&gt;Node1</title>
<path fill="none" stroke="midnightblue" d="M16.3742,-33.6539C17.5289,-38.9368 26.7375,-43 44,-43 70.3047,-43 77.9084,-33.5653 66.8111,-24.7571"/>
<polygon fill="midnightblue" stroke="midnightblue" points="19.5076,-35.2176 21.1889,-24.7571 13.3512,-31.886 19.5076,-35.2176"/>
</g>
<!-- Node2 -->
<g id="node2" class="node"><title>Node2</title>
<g id="a_node2"><a xlink:href="class_ro_r_frame_listener.html#afec2a0f00ed552c21d22aae76329bf38" target="_top" xlink:title="RoRFrameListener::Update\lInputEvents">
<polygon fill="white" stroke="black" points="124.5,-0 124.5,-30 261.5,-30 261.5,-0 124.5,-0"/>
<text text-anchor="start" x="132.5" y="-18" font-family="Helvetica,sans-Serif" font-size="10.00">RoRFrameListener::Update</text>
<text text-anchor="middle" x="193" y="-7" font-family="Helvetica,sans-Serif" font-size="10.00">InputEvents</text>
</a>
</g>
</g>
<!-- Node1&#45;&gt;Node2 -->
<g id="edge1" class="edge"><title>Node1&#45;&gt;Node2</title>
<path fill="none" stroke="midnightblue" d="M98.4089,-15C106.872,-15 115.721,-15 124.456,-15"/>
<polygon fill="midnightblue" stroke="midnightblue" points="98.3098,-11.5001 88.3098,-15 98.3097,-18.5001 98.3098,-11.5001"/>
</g>
<!-- Node3 -->
<g id="node3" class="node"><title>Node3</title>
<g id="a_node3"><a xlink:href="class_ro_r_frame_listener.html#acd8647e188fb8e838689492965b86faf" target="_top" xlink:title="RoRFrameListener::frameStarted">
<polygon fill="white" stroke="black" points="298.5,-5.5 298.5,-24.5 459.5,-24.5 459.5,-5.5 298.5,-5.5"/>
<text text-anchor="middle" x="379" y="-12.5" font-family="Helvetica,sans-Serif" font-size="10.00">RoRFrameListener::frameStarted</text>
</a>
</g>
</g>
<!-- Node2&#45;&gt;Node3 -->
<g id="edge2" class="edge"><title>Node2&#45;&gt;Node3</title>
<path fill="none" stroke="midnightblue" d="M271.879,-15C280.608,-15 289.511,-15 298.263,-15"/>
<polygon fill="midnightblue" stroke="midnightblue" points="271.731,-11.5001 261.731,-15 271.731,-18.5001 271.731,-11.5001"/>
</g>
</g>
</svg>
