<?xml version="1.0" encoding="UTF-8" standalone="no"?>
<!DOCTYPE svg PUBLIC "-//W3C//DTD SVG 1.1//EN"
 "http://www.w3.org/Graphics/SVG/1.1/DTD/svg11.dtd">
<!-- Generated by graphviz version 2.36.0 (20140111.2315)
 -->
<!-- Title: CacheSystem::readCategoryTitles Pages: 1 -->
<svg width="622pt" height="60pt"
 viewBox="0.00 0.00 622.00 60.00" xmlns="http://www.w3.org/2000/svg" xmlns:xlink="http://www.w3.org/1999/xlink">
<g id="graph0" class="graph" transform="scale(1 1) rotate(0) translate(4 56)">
<title>CacheSystem::readCategoryTitles</title>
<polygon fill="white" stroke="none" points="-4,4 -4,-56 618,-56 618,4 -4,4"/>
<!-- Node1 -->
<g id="node1" class="node"><title>Node1</title>
<polygon fill="#bfbfbf" stroke="black" points="0.5,-22 0.5,-52 143.5,-52 143.5,-22 0.5,-22"/>
<text text-anchor="start" x="8.5" y="-40" font-family="Helvetica,sans-Serif" font-size="10.00">CacheSystem::readCategory</text>
<text text-anchor="middle" x="72" y="-29" font-family="Helvetica,sans-Serif" font-size="10.00">Titles</text>
</g>
<!-- Node2 -->
<g id="node2" class="node"><title>Node2</title>
<g id="a_node2"><a xlink:href="class_cache_system.html#ae010322c2422bf8f8dbfce904257da31" target="_top" xlink:title="CacheSystem::Startup">
<polygon fill="white" stroke="black" points="180,-27.5 180,-46.5 296,-46.5 296,-27.5 180,-27.5"/>
<text text-anchor="middle" x="238" y="-34.5" font-family="Helvetica,sans-Serif" font-size="10.00">CacheSystem::Startup</text>
</a>
</g>
</g>
<!-- Node1&#45;&gt;Node2 -->
<g id="edge1" class="edge"><title>Node1&#45;&gt;Node2</title>
<path fill="none" stroke="midnightblue" d="M153.527,-37C162.435,-37 171.366,-37 179.9,-37"/>
<polygon fill="midnightblue" stroke="midnightblue" points="153.503,-33.5001 143.503,-37 153.502,-40.5001 153.503,-33.5001"/>
</g>
<!-- Node3 -->
<g id="node3" class="node"><title>Node3</title>
<g id="a_node3"><a xlink:href="main_8cpp.html#a0ddf1224851353fc92bfbff6f499fa97" target="_top" xlink:title="main">
<polygon fill="white" stroke="black" points="484,-27.5 484,-46.5 522,-46.5 522,-27.5 484,-27.5"/>
<text text-anchor="middle" x="503" y="-34.5" font-family="Helvetica,sans-Serif" font-size="10.00">main</text>
</a>
</g>
</g>
<!-- Node2&#45;&gt;Node3 -->
<g id="edge2" class="edge"><title>Node2&#45;&gt;Node3</title>
<path fill="none" stroke="midnightblue" d="M306.355,-38.6036C347.313,-39.3401 400.674,-39.8761 448,-39 459.819,-38.7812 473.085,-38.2933 483.51,-37.8542"/>
<polygon fill="midnightblue" stroke="midnightblue" points="306.284,-35.1017 296.22,-38.4127 306.152,-42.1005 306.284,-35.1017"/>
</g>
<!-- Node5 -->
<g id="node5" class="node"><title>Node5</title>
<g id="a_node5"><a xlink:href="class_ro_r_1_1_content_manager.html#a861b35694f428e463a800052ac0e9f90" target="_top" xlink:title="RoR::ContentManager\l::RegenCache">
<polygon fill="white" stroke="black" points="332.5,-0 332.5,-30 447.5,-30 447.5,-0 332.5,-0"/>
<text text-anchor="start" x="340.5" y="-18" font-family="Helvetica,sans-Serif" font-size="10.00">RoR::ContentManager</text>
<text text-anchor="middle" x="390" y="-7" font-family="Helvetica,sans-Serif" font-size="10.00">::RegenCache</text>
</a>
</g>
</g>
<!-- Node2&#45;&gt;Node5 -->
<g id="edge4" class="edge"><title>Node2&#45;&gt;Node5</title>
<path fill="none" stroke="midnightblue" d="M306.176,-27.1475C314.806,-25.8817 323.576,-24.5955 332.022,-23.3567"/>
<polygon fill="midnightblue" stroke="midnightblue" points="305.523,-23.7058 296.136,-28.62 306.539,-30.6317 305.523,-23.7058"/>
</g>
<!-- Node4 -->
<g id="node4" class="node"><title>Node4</title>
<g id="a_node4"><a xlink:href="main_8cpp.html#a2922bc5d5c2d77a3020cfbf9df12aab0" target="_top" xlink:title="WinMain">
<polygon fill="white" stroke="black" points="558.5,-27.5 558.5,-46.5 613.5,-46.5 613.5,-27.5 558.5,-27.5"/>
<text text-anchor="middle" x="586" y="-34.5" font-family="Helvetica,sans-Serif" font-size="10.00">WinMain</text>
</a>
</g>
</g>
<!-- Node3&#45;&gt;Node4 -->
<g id="edge3" class="edge"><title>Node3&#45;&gt;Node4</title>
<path fill="none" stroke="midnightblue" d="M532.512,-37C540.929,-37 550.105,-37 558.397,-37"/>
<polygon fill="midnightblue" stroke="midnightblue" points="532.38,-33.5001 522.38,-37 532.38,-40.5001 532.38,-33.5001"/>
</g>
<!-- Node5&#45;&gt;Node3 -->
<g id="edge5" class="edge"><title>Node5&#45;&gt;Node3</title>
<path fill="none" stroke="midnightblue" d="M457.799,-28.2394C467.28,-30.1186 476.302,-31.9068 483.694,-33.3718"/>
<polygon fill="midnightblue" stroke="midnightblue" points="458.29,-24.7688 447.801,-26.2578 456.929,-31.6353 458.29,-24.7688"/>
</g>
</g>
</svg>
