<?xml version="1.0" encoding="UTF-8" standalone="no"?>
<!DOCTYPE svg PUBLIC "-//W3C//DTD SVG 1.1//EN"
 "http://www.w3.org/Graphics/SVG/1.1/DTD/svg11.dtd">
<!-- Generated by graphviz version 2.36.0 (20140111.2315)
 -->
<!-- Title: CameraBehaviorVehicleCineCam::update Pages: 1 -->
<!--zoomable 356 -->
<svg id="main" version="1.1" xmlns="http://www.w3.org/2000/svg" xmlns:xlink="http://www.w3.org/1999/xlink" xml:space="preserve" onload="init(evt)">
<style type="text/css"><![CDATA[
.edge:hover path { stroke: red; }
.edge:hover polygon { stroke: red; fill: red; }
]]></style>
<script type="text/javascript"><![CDATA[
var edges = document.getElementsByTagName('g');
if (edges && edges.length) {
  for (var i=0;i<edges.length;i++) {
    if (edges[i].id.substr(0,4)=='edge') {
      edges[i].setAttribute('class','edge');
    }
  }
}
]]></script>
        <defs>
                <circle id="rim" cx="0" cy="0" r="7"/>
                <circle id="rim2" cx="0" cy="0" r="3.5"/>
                <g id="zoomPlus">
                        <use xlink:href="#rim" fill="#404040">
                                <set attributeName="fill" to="#808080" begin="zoomplus.mouseover" end="zoomplus.mouseout"/>
                        </use>
                        <path d="M-4,0h8M0,-4v8" fill="none" stroke="white" stroke-width="1.5" pointer-events="none"/>
                </g>
                <g id="zoomMin">
                        <use xlink:href="#rim" fill="#404040">
                                <set attributeName="fill" to="#808080" begin="zoomminus.mouseover" end="zoomminus.mouseout"/>
                        </use>
                        <path d="M-4,0h8" fill="none" stroke="white" stroke-width="1.5" pointer-events="none"/>
                </g>
                <g id="dirArrow">
                        <path fill="none" stroke="white" stroke-width="1.5" d="M0,-3.0v7 M-2.5,-0.5L0,-3.0L2.5,-0.5"/>
                </g>
               <g id="resetDef">
                       <use xlink:href="#rim2" fill="#404040">
                               <set attributeName="fill" to="#808080" begin="reset.mouseover" end="reset.mouseout"/>
                       </use>
               </g>
        </defs>

<script type="text/javascript">
var viewWidth = 700;
var viewHeight = 356;
var sectionId = 'dynsection-7';
</script>
<script xlink:href="svgpan.js"/>
<svg id="graph" class="graph">
<g id="viewport">
<title>CameraBehaviorVehicleCineCam::update</title>
<polygon fill="white" stroke="none" points="-4,4 -4,-352 696,-352 696,4 -4,4"/>
<!-- Node1 -->
<g id="node1" class="node"><title>Node1</title>
<polygon fill="#bfbfbf" stroke="black" points="0,-159 0,-189 142,-189 142,-159 0,-159"/>
<text text-anchor="start" x="8" y="-177" font-family="Helvetica,sans-Serif" font-size="10.00">CameraBehaviorVehicleCine</text>
<text text-anchor="middle" x="71" y="-166" font-family="Helvetica,sans-Serif" font-size="10.00">Cam::update</text>
</g>
<!-- Node2 -->
<g id="node2" class="node"><title>Node2</title>
<g id="a_node2"><a xlink:href="class_camera_behavior_orbit.html#ac2fbf5b905645faf54092ef1c081ef55" target="_top" xlink:title="CameraBehaviorOrbit\l::update">
<polygon fill="white" stroke="black" points="178,-159 178,-189 288,-189 288,-159 178,-159"/>
<text text-anchor="start" x="186" y="-177" font-family="Helvetica,sans-Serif" font-size="10.00">CameraBehaviorOrbit</text>
<text text-anchor="middle" x="233" y="-166" font-family="Helvetica,sans-Serif" font-size="10.00">::update</text>
</a>
</g>
</g>
<!-- Node1&#45;&gt;Node2 -->
<g id="edge1" class="edge"><title>Node1&#45;&gt;Node2</title>
<path fill="none" stroke="midnightblue" d="M142.178,-174C150.655,-174 159.281,-174 167.667,-174"/>
<polygon fill="midnightblue" stroke="midnightblue" points="167.753,-177.5 177.753,-174 167.753,-170.5 167.753,-177.5"/>
</g>
<!-- Node3 -->
<g id="node3" class="node"><title>Node3</title>
<g id="a_node3"><a xlink:href="namespace_ro_r_1_1_app.html#a21fb1ba18d55ba3c4b0dfd2f36df7891" target="_top" xlink:title="RoR::App::GetInputEngine">
<polygon fill="white" stroke="black" points="345,-328.5 345,-347.5 479,-347.5 479,-328.5 345,-328.5"/>
<text text-anchor="middle" x="412" y="-335.5" font-family="Helvetica,sans-Serif" font-size="10.00">RoR::App::GetInputEngine</text>
</a>
</g>
</g>
<!-- Node2&#45;&gt;Node3 -->
<g id="edge2" class="edge"><title>Node2&#45;&gt;Node3</title>
<path fill="none" stroke="midnightblue" d="M238.858,-189.096C249.294,-218.979 276.816,-285.658 324,-319 327.551,-321.509 331.372,-323.697 335.361,-325.602"/>
<polygon fill="midnightblue" stroke="midnightblue" points="334.345,-328.97 344.923,-329.557 337.02,-322.501 334.345,-328.97"/>
</g>
<!-- Node4 -->
<g id="node4" class="node"><title>Node4</title>
<g id="a_node4"><a xlink:href="class_input_engine.html#a251be92f16fe445542e240fc121354d8" target="_top" xlink:title="InputEngine::getEventValue">
<polygon fill="white" stroke="black" points="343,-290.5 343,-309.5 481,-309.5 481,-290.5 343,-290.5"/>
<text text-anchor="middle" x="412" y="-297.5" font-family="Helvetica,sans-Serif" font-size="10.00">InputEngine::getEventValue</text>
</a>
</g>
</g>
<!-- Node2&#45;&gt;Node4 -->
<g id="edge3" class="edge"><title>Node2&#45;&gt;Node4</title>
<path fill="none" stroke="midnightblue" d="M242.573,-189.342C256.483,-212.742 286.254,-257.044 324,-280 328.357,-282.65 333.032,-284.949 337.87,-286.944"/>
<polygon fill="midnightblue" stroke="midnightblue" points="336.742,-290.258 347.336,-290.417 339.154,-283.687 336.742,-290.258"/>
</g>
<!-- Node7 -->
<g id="node7" class="node"><title>Node7</title>
<g id="a_node7"><a xlink:href="class_camera_behavior_orbit.html#ac2c38d7776bb50ffb4a0d267c11acb2c" target="_top" xlink:title="CameraBehaviorOrbit\l::reset">
<polygon fill="white" stroke="black" points="357,-241 357,-271 467,-271 467,-241 357,-241"/>
<text text-anchor="start" x="365" y="-259" font-family="Helvetica,sans-Serif" font-size="10.00">CameraBehaviorOrbit</text>
<text text-anchor="middle" x="412" y="-248" font-family="Helvetica,sans-Serif" font-size="10.00">::reset</text>
</a>
</g>
</g>
<!-- Node2&#45;&gt;Node7 -->
<g id="edge6" class="edge"><title>Node2&#45;&gt;Node7</title>
<path fill="none" stroke="midnightblue" d="M254.145,-189.126C271.79,-201.781 298.525,-219.556 324,-231 331.338,-234.296 339.22,-237.274 347.135,-239.928"/>
<polygon fill="midnightblue" stroke="midnightblue" points="346.18,-243.298 356.771,-243.006 348.31,-236.629 346.18,-243.298"/>
</g>
<!-- Node8 -->
<g id="node8" class="node"><title>Node8</title>
<g id="a_node8"><a xlink:href="namespace_ro_r_1_1_app.html#aa04ed1e7b697aa1f33f1bb1297cb3e48" target="_top" xlink:title="RoR::App::GetConsole">
<polygon fill="white" stroke="black" points="353,-202.5 353,-221.5 471,-221.5 471,-202.5 353,-202.5"/>
<text text-anchor="middle" x="412" y="-209.5" font-family="Helvetica,sans-Serif" font-size="10.00">RoR::App::GetConsole</text>
</a>
</g>
</g>
<!-- Node2&#45;&gt;Node8 -->
<g id="edge7" class="edge"><title>Node2&#45;&gt;Node8</title>
<path fill="none" stroke="midnightblue" d="M288.068,-185.608C309.746,-190.262 334.689,-195.617 356.418,-200.282"/>
<polygon fill="midnightblue" stroke="midnightblue" points="355.963,-203.764 366.475,-202.441 357.432,-196.92 355.963,-203.764"/>
</g>
<!-- Node10 -->
<g id="node10" class="node"><title>Node10</title>
<g id="a_node10"><a xlink:href="class_ro_r_1_1_console.html#a6883dfc6a1d760581a917e101b6357c5" target="_top" xlink:title="RoR::Console::putMessage">
<polygon fill="white" stroke="black" points="343,-164.5 343,-183.5 481,-183.5 481,-164.5 343,-164.5"/>
<text text-anchor="middle" x="412" y="-171.5" font-family="Helvetica,sans-Serif" font-size="10.00">RoR::Console::putMessage</text>
</a>
</g>
</g>
<!-- Node2&#45;&gt;Node10 -->
<g id="edge9" class="edge"><title>Node2&#45;&gt;Node10</title>
<path fill="none" stroke="midnightblue" d="M288.068,-174C302.11,-174 317.523,-174 332.544,-174"/>
<polygon fill="midnightblue" stroke="midnightblue" points="332.86,-177.5 342.86,-174 332.86,-170.5 332.86,-177.5"/>
</g>
<!-- Node12 -->
<g id="node12" class="node"><title>Node12</title>
<g id="a_node12"><a xlink:href="namespace_ro_r_1_1_app.html#a68d6403d2b36006a6fa2d28f5ba8f12f" target="_top" xlink:title="RoR::App::GetGuiManager">
<polygon fill="white" stroke="black" points="345,-126.5 345,-145.5 479,-145.5 479,-126.5 345,-126.5"/>
<text text-anchor="middle" x="412" y="-133.5" font-family="Helvetica,sans-Serif" font-size="10.00">RoR::App::GetGuiManager</text>
</a>
</g>
</g>
<!-- Node2&#45;&gt;Node12 -->
<g id="edge11" class="edge"><title>Node2&#45;&gt;Node12</title>
<path fill="none" stroke="midnightblue" d="M288.068,-162.392C309.746,-157.738 334.689,-152.383 356.418,-147.718"/>
<polygon fill="midnightblue" stroke="midnightblue" points="357.432,-151.08 366.475,-145.559 355.963,-144.236 357.432,-151.08"/>
</g>
<!-- Node13 -->
<g id="node13" class="node"><title>Node13</title>
<g id="a_node13"><a xlink:href="class_ro_r_1_1_g_u_i_manager.html#a534a8e82d1b92384767ab1c555126bba" target="_top" xlink:title="RoR::GUIManager::PushNotification">
<polygon fill="white" stroke="black" points="324,-88.5 324,-107.5 500,-107.5 500,-88.5 324,-88.5"/>
<text text-anchor="middle" x="412" y="-95.5" font-family="Helvetica,sans-Serif" font-size="10.00">RoR::GUIManager::PushNotification</text>
</a>
</g>
</g>
<!-- Node2&#45;&gt;Node13 -->
<g id="edge12" class="edge"><title>Node2&#45;&gt;Node13</title>
<path fill="none" stroke="midnightblue" d="M253.272,-158.966C270.79,-146.013 297.825,-127.753 324,-117 330.245,-114.434 336.892,-112.191 343.62,-110.235"/>
<polygon fill="midnightblue" stroke="midnightblue" points="344.757,-113.554 353.501,-107.57 342.934,-106.795 344.757,-113.554"/>
</g>
<!-- Node15 -->
<g id="node15" class="node"><title>Node15</title>
<g id="a_node15"><a xlink:href="class_terrain_manager.html#ae63cfc0dda4ab62dc7f6d72eb7845628" target="_top" xlink:title="TerrainManager::getHeight\lFinder">
<polygon fill="white" stroke="black" points="346,-39 346,-69 478,-69 478,-39 346,-39"/>
<text text-anchor="start" x="354" y="-57" font-family="Helvetica,sans-Serif" font-size="10.00">TerrainManager::getHeight</text>
<text text-anchor="middle" x="412" y="-46" font-family="Helvetica,sans-Serif" font-size="10.00">Finder</text>
</a>
</g>
</g>
<!-- Node2&#45;&gt;Node15 -->
<g id="edge14" class="edge"><title>Node2&#45;&gt;Node15</title>
<path fill="none" stroke="midnightblue" d="M244.349,-158.766C259.43,-137.728 289.442,-100.004 324,-79 327.882,-76.6406 331.997,-74.4953 336.242,-72.5458"/>
<polygon fill="midnightblue" stroke="midnightblue" points="337.832,-75.6745 345.704,-68.5837 335.128,-69.2177 337.832,-75.6745"/>
</g>
<!-- Node16 -->
<g id="node16" class="node"><title>Node16</title>
<g id="a_node16"><a xlink:href="class_i_height_finder.html#a5757ec3d639bcffc834540067ec8db2e" target="_top" xlink:title="IHeightFinder::getHeightAt">
<polygon fill="white" stroke="black" points="345.5,-0.5 345.5,-19.5 478.5,-19.5 478.5,-0.5 345.5,-0.5"/>
<text text-anchor="middle" x="412" y="-7.5" font-family="Helvetica,sans-Serif" font-size="10.00">IHeightFinder::getHeightAt</text>
</a>
</g>
</g>
<!-- Node2&#45;&gt;Node16 -->
<g id="edge15" class="edge"><title>Node2&#45;&gt;Node16</title>
<path fill="none" stroke="midnightblue" d="M239.084,-158.592C249.753,-128.772 277.421,-63.1885 324,-30 327.721,-27.3484 331.74,-25.0422 335.937,-23.0372"/>
<polygon fill="midnightblue" stroke="midnightblue" points="337.48,-26.1863 345.366,-19.1115 334.789,-19.7239 337.48,-26.1863"/>
</g>
<!-- Node5 -->
<g id="node5" class="node"><title>Node5</title>
<g id="a_node5"><a xlink:href="class_input_engine.html#a3e63861375a5873297281b885c8aa8f9" target="_top" xlink:title="InputEngine::axisLinearity">
<polygon fill="white" stroke="black" points="549.5,-309.5 549.5,-328.5 678.5,-328.5 678.5,-309.5 549.5,-309.5"/>
<text text-anchor="middle" x="614" y="-316.5" font-family="Helvetica,sans-Serif" font-size="10.00">InputEngine::axisLinearity</text>
</a>
</g>
</g>
<!-- Node4&#45;&gt;Node5 -->
<g id="edge4" class="edge"><title>Node4&#45;&gt;Node5</title>
<path fill="none" stroke="midnightblue" d="M481.269,-306.486C499.974,-308.263 520.331,-310.196 539.324,-312.001"/>
<polygon fill="midnightblue" stroke="midnightblue" points="539.129,-315.498 549.415,-312.959 539.791,-308.529 539.129,-315.498"/>
</g>
<!-- Node6 -->
<g id="node6" class="node"><title>Node6</title>
<g id="a_node6"><a xlink:href="class_input_engine.html#aaa9f701b9f4420b8e97cf4ae775038c1" target="_top" xlink:title="InputEngine::deadZone">
<polygon fill="white" stroke="black" points="555.5,-271.5 555.5,-290.5 672.5,-290.5 672.5,-271.5 555.5,-271.5"/>
<text text-anchor="middle" x="614" y="-278.5" font-family="Helvetica,sans-Serif" font-size="10.00">InputEngine::deadZone</text>
</a>
</g>
</g>
<!-- Node4&#45;&gt;Node6 -->
<g id="edge5" class="edge"><title>Node4&#45;&gt;Node6</title>
<path fill="none" stroke="midnightblue" d="M481.269,-293.514C501.983,-291.547 524.723,-289.386 545.393,-287.423"/>
<polygon fill="midnightblue" stroke="midnightblue" points="545.732,-290.906 555.356,-286.476 545.07,-283.938 545.732,-290.906"/>
</g>
<!-- Node9 -->
<g id="node9" class="node"><title>Node9</title>
<g id="a_node9"><a xlink:href="class_ro_r_1_1_g_u_i_manager.html#a982bc848eb4330aa9e57a54bfc60d975" target="_top" xlink:title="RoR::GUIManager::GetConsole">
<polygon fill="white" stroke="black" points="536,-205.5 536,-224.5 692,-224.5 692,-205.5 536,-205.5"/>
<text text-anchor="middle" x="614" y="-212.5" font-family="Helvetica,sans-Serif" font-size="10.00">RoR::GUIManager::GetConsole</text>
</a>
</g>
</g>
<!-- Node8&#45;&gt;Node9 -->
<g id="edge8" class="edge"><title>Node8&#45;&gt;Node9</title>
<path fill="none" stroke="midnightblue" d="M471.117,-212.872C488.147,-213.127 507.154,-213.412 525.583,-213.689"/>
<polygon fill="midnightblue" stroke="midnightblue" points="525.693,-217.191 535.745,-213.841 525.798,-210.191 525.693,-217.191"/>
</g>
<!-- Node11 -->
<g id="node11" class="node"><title>Node11</title>
<g id="a_node11"><a xlink:href="class_inter_thread_store_vector.html#a88d3f7e3e3ce109e13af1c46a12a50b0" target="_top" xlink:title="InterThreadStoreVector\l\&lt; ConsoleMessage \&gt;::push">
<polygon fill="white" stroke="black" points="545.5,-156 545.5,-186 682.5,-186 682.5,-156 545.5,-156"/>
<text text-anchor="start" x="553.5" y="-174" font-family="Helvetica,sans-Serif" font-size="10.00">InterThreadStoreVector</text>
<text text-anchor="middle" x="614" y="-163" font-family="Helvetica,sans-Serif" font-size="10.00">&lt; ConsoleMessage &gt;::push</text>
</a>
</g>
</g>
<!-- Node10&#45;&gt;Node11 -->
<g id="edge10" class="edge"><title>Node10&#45;&gt;Node11</title>
<path fill="none" stroke="midnightblue" d="M481.269,-172.976C498.58,-172.716 517.307,-172.435 535.057,-172.169"/>
<polygon fill="midnightblue" stroke="midnightblue" points="535.431,-175.664 545.377,-172.014 535.326,-168.665 535.431,-175.664"/>
</g>
<!-- Node14 -->
<g id="node14" class="node"><title>Node14</title>
<g id="a_node14"><a xlink:href="class_ro_r_1_1_g_u_i_1_1_sim_utils.html#ac18f8c423994b93276f5f33b22e53d41" target="_top" xlink:title="RoR::GUI::SimUtils\l::PushNotification">
<polygon fill="white" stroke="black" points="562,-83 562,-113 666,-113 666,-83 562,-83"/>
<text text-anchor="start" x="570" y="-101" font-family="Helvetica,sans-Serif" font-size="10.00">RoR::GUI::SimUtils</text>
<text text-anchor="middle" x="614" y="-90" font-family="Helvetica,sans-Serif" font-size="10.00">::PushNotification</text>
</a>
</g>
</g>
<!-- Node13&#45;&gt;Node14 -->
<g id="edge13" class="edge"><title>Node13&#45;&gt;Node14</title>
<path fill="none" stroke="midnightblue" d="M500.141,-98C517.411,-98 535.202,-98 551.406,-98"/>
<polygon fill="midnightblue" stroke="midnightblue" points="551.803,-101.5 561.803,-98 551.803,-94.5001 551.803,-101.5"/>
</g>
</g>
</svg>
        <g id="navigator" transform="translate(0 0)" fill="#404254">
                <rect fill="#f2f5e9" fill-opacity="0.5" stroke="#606060" stroke-width=".5" x="0" y="0" width="60" height="60"/>
                <use id="zoomplus" xlink:href="#zoomPlus" x="17" y="9" onmousedown="handleZoom(evt,'in')"/>
                <use id="zoomminus" xlink:href="#zoomMin" x="42" y="9" onmousedown="handleZoom(evt,'out')"/>
                <use id="reset" xlink:href="#resetDef" x="30" y="36" onmousedown="handleReset()"/>
                <g id="arrowUp" xlink:href="#dirArrow" transform="translate(30 24)" onmousedown="handlePan(0,-1)">
                  <use xlink:href="#rim" fill="#404040">
                        <set attributeName="fill" to="#808080" begin="arrowUp.mouseover" end="arrowUp.mouseout"/>
                  </use>
                  <path fill="none" stroke="white" stroke-width="1.5" d="M0,-3.0v7 M-2.5,-0.5L0,-3.0L2.5,-0.5"/>
                </g>
                <g id="arrowRight" xlink:href="#dirArrow" transform="rotate(90) translate(36 -43)" onmousedown="handlePan(1,0)">
                  <use xlink:href="#rim" fill="#404040">
                        <set attributeName="fill" to="#808080" begin="arrowRight.mouseover" end="arrowRight.mouseout"/>
                  </use>
                  <path fill="none" stroke="white" stroke-width="1.5" d="M0,-3.0v7 M-2.5,-0.5L0,-3.0L2.5,-0.5"/>
                </g>
                <g id="arrowDown" xlink:href="#dirArrow" transform="rotate(180) translate(-30 -48)" onmousedown="handlePan(0,1)">
                  <use xlink:href="#rim" fill="#404040">
                        <set attributeName="fill" to="#808080" begin="arrowDown.mouseover" end="arrowDown.mouseout"/>
                  </use>
                  <path fill="none" stroke="white" stroke-width="1.5" d="M0,-3.0v7 M-2.5,-0.5L0,-3.0L2.5,-0.5"/>
                </g>
                <g id="arrowLeft" xlink:href="#dirArrow" transform="rotate(270) translate(-36 17)" onmousedown="handlePan(-1,0)">
                  <use xlink:href="#rim" fill="#404040">
                        <set attributeName="fill" to="#808080" begin="arrowLeft.mouseover" end="arrowLeft.mouseout"/>
                  </use>
                  <path fill="none" stroke="white" stroke-width="1.5" d="M0,-3.0v7 M-2.5,-0.5L0,-3.0L2.5,-0.5"/>
                </g>
        </g>
        <svg viewBox="0 0 15 15" width="100%" height="30px" preserveAspectRatio="xMaxYMin meet">
         <g id="arrow_out" transform="scale(0.3 0.3)">
          <a xlink:href="class_camera_behavior_vehicle_cine_cam_a55ece9b32ddd311803bf2f7793d29260_cgraph_org.svg" target="_base">
           <rect id="button" ry="5" rx="5" y="6" x="6" height="38" width="38"
                fill="#f2f5e9" fill-opacity="0.5" stroke="#606060" stroke-width="1.0"/>
           <path id="arrow"
             d="M 11.500037,31.436501 C 11.940474,20.09759 22.043105,11.32322 32.158766,21.979434 L 37.068811,17.246167 C 37.068811,17.246167 37.088388,32 37.088388,32 L 22.160133,31.978069 C 22.160133,31.978069 26.997745,27.140456 26.997745,27.140456 C 18.528582,18.264221 13.291696,25.230495 11.500037,31.436501 z"
             style="fill:#404040;"/>
          </a>
         </g>
        </svg>
</svg>
