<?xml version="1.0" encoding="UTF-8" standalone="no"?>
<!DOCTYPE svg PUBLIC "-//W3C//DTD SVG 1.1//EN"
 "http://www.w3.org/Graphics/SVG/1.1/DTD/svg11.dtd">
<!-- Generated by graphviz version 2.36.0 (20140111.2315)
 -->
<!-- Title: CameraBehaviorVehicleSpline Pages: 1 -->
<svg width="156pt" height="264pt"
 viewBox="0.00 0.00 156.00 264.00" xmlns="http://www.w3.org/2000/svg" xmlns:xlink="http://www.w3.org/1999/xlink">
<g id="graph0" class="graph" transform="scale(1 1) rotate(0) translate(4 260)">
<title>CameraBehaviorVehicleSpline</title>
<polygon fill="white" stroke="none" points="-4,4 -4,-260 152,-260 152,4 -4,4"/>
<!-- Node1 -->
<g id="node1" class="node"><title>Node1</title>
<polygon fill="#bfbfbf" stroke="black" points="-0.5,-0.5 -0.5,-19.5 148.5,-19.5 148.5,-0.5 -0.5,-0.5"/>
<text text-anchor="middle" x="74" y="-7.5" font-family="Helvetica,sans-Serif" font-size="10.00">CameraBehaviorVehicleSpline</text>
</g>
<!-- Node2 -->
<g id="node2" class="node"><title>Node2</title>
<g id="a_node2"><a xlink:href="class_camera_behavior_vehicle.html" target="_top" xlink:title="CameraBehaviorVehicle">
<polygon fill="white" stroke="black" points="13,-56.5 13,-75.5 135,-75.5 135,-56.5 13,-56.5"/>
<text text-anchor="middle" x="74" y="-63.5" font-family="Helvetica,sans-Serif" font-size="10.00">CameraBehaviorVehicle</text>
</a>
</g>
</g>
<!-- Node2&#45;&gt;Node1 -->
<g id="edge1" class="edge"><title>Node2&#45;&gt;Node1</title>
<path fill="none" stroke="midnightblue" d="M74,-45.8045C74,-36.9102 74,-26.7798 74,-19.7511"/>
<polygon fill="midnightblue" stroke="midnightblue" points="70.5001,-46.083 74,-56.083 77.5001,-46.083 70.5001,-46.083"/>
</g>
<!-- Node3 -->
<g id="node3" class="node"><title>Node3</title>
<g id="a_node3"><a xlink:href="class_camera_behavior_orbit.html" target="_top" xlink:title="CameraBehaviorOrbit">
<polygon fill="white" stroke="black" points="19,-112.5 19,-131.5 129,-131.5 129,-112.5 19,-112.5"/>
<text text-anchor="middle" x="74" y="-119.5" font-family="Helvetica,sans-Serif" font-size="10.00">CameraBehaviorOrbit</text>
</a>
</g>
</g>
<!-- Node3&#45;&gt;Node2 -->
<g id="edge2" class="edge"><title>Node3&#45;&gt;Node2</title>
<path fill="none" stroke="midnightblue" d="M74,-101.805C74,-92.9102 74,-82.7798 74,-75.7511"/>
<polygon fill="midnightblue" stroke="midnightblue" points="70.5001,-102.083 74,-112.083 77.5001,-102.083 70.5001,-102.083"/>
</g>
<!-- Node4 -->
<g id="node4" class="node"><title>Node4</title>
<g id="a_node4"><a xlink:href="class_i_behavior.html" target="_top" xlink:title="IBehavior\&lt; CameraManager\l::CameraContext \&gt;">
<polygon fill="white" stroke="black" points="4.5,-169 4.5,-199 143.5,-199 143.5,-169 4.5,-169"/>
<text text-anchor="start" x="12.5" y="-187" font-family="Helvetica,sans-Serif" font-size="10.00">IBehavior&lt; CameraManager</text>
<text text-anchor="middle" x="74" y="-176" font-family="Helvetica,sans-Serif" font-size="10.00">::CameraContext &gt;</text>
</a>
</g>
</g>
<!-- Node4&#45;&gt;Node3 -->
<g id="edge3" class="edge"><title>Node4&#45;&gt;Node3</title>
<path fill="none" stroke="midnightblue" d="M74,-158.586C74,-149.074 74,-138.786 74,-131.731"/>
<polygon fill="midnightblue" stroke="midnightblue" points="70.5001,-158.781 74,-168.781 77.5001,-158.781 70.5001,-158.781"/>
</g>
<!-- Node5 -->
<g id="node5" class="node"><title>Node5</title>
<g id="a_node5"><a xlink:href="class_zeroed_memory_allocator.html" target="_top" xlink:title="ZeroedMemoryAllocator">
<polygon fill="white" stroke="black" points="14,-236.5 14,-255.5 134,-255.5 134,-236.5 14,-236.5"/>
<text text-anchor="middle" x="74" y="-243.5" font-family="Helvetica,sans-Serif" font-size="10.00">ZeroedMemoryAllocator</text>
</a>
</g>
</g>
<!-- Node5&#45;&gt;Node4 -->
<g id="edge4" class="edge"><title>Node5&#45;&gt;Node4</title>
<path fill="none" stroke="midnightblue" d="M74,-226.371C74,-217.585 74,-207.272 74,-199.141"/>
<polygon fill="midnightblue" stroke="midnightblue" points="70.5001,-226.403 74,-236.403 77.5001,-226.403 70.5001,-226.403"/>
</g>
</g>
</svg>
