<?xml version="1.0" encoding="UTF-8" standalone="no"?>
<!DOCTYPE svg PUBLIC "-//W3C//DTD SVG 1.1//EN"
 "http://www.w3.org/Graphics/SVG/1.1/DTD/svg11.dtd">
<!-- Generated by graphviz version 2.36.0 (20140111.2315)
 -->
<!-- Title: CacheSystem::loadAllZipsInResourceGroup Pages: 1 -->
<svg width="970pt" height="60pt"
 viewBox="0.00 0.00 970.00 60.00" xmlns="http://www.w3.org/2000/svg" xmlns:xlink="http://www.w3.org/1999/xlink">
<g id="graph0" class="graph" transform="scale(1 1) rotate(0) translate(4 56)">
<title>CacheSystem::loadAllZipsInResourceGroup</title>
<polygon fill="white" stroke="none" points="-4,4 -4,-56 966,-56 966,4 -4,4"/>
<!-- Node1 -->
<g id="node1" class="node"><title>Node1</title>
<polygon fill="#bfbfbf" stroke="black" points="0.5,-22 0.5,-52 133.5,-52 133.5,-22 0.5,-22"/>
<text text-anchor="start" x="8.5" y="-40" font-family="Helvetica,sans-Serif" font-size="10.00">CacheSystem::loadAllZips</text>
<text text-anchor="middle" x="67" y="-29" font-family="Helvetica,sans-Serif" font-size="10.00">InResourceGroup</text>
</g>
<!-- Node2 -->
<g id="node2" class="node"><title>Node2</title>
<g id="a_node2"><a xlink:href="class_cache_system.html#a2f2307345ec188913271a4cc5220c1bb" target="_top" xlink:title="CacheSystem::loadAllZips">
<polygon fill="white" stroke="black" points="170.5,-27.5 170.5,-46.5 303.5,-46.5 303.5,-27.5 170.5,-27.5"/>
<text text-anchor="middle" x="237" y="-34.5" font-family="Helvetica,sans-Serif" font-size="10.00">CacheSystem::loadAllZips</text>
</a>
</g>
</g>
<!-- Node1&#45;&gt;Node2 -->
<g id="edge1" class="edge"><title>Node1&#45;&gt;Node2</title>
<path fill="none" stroke="midnightblue" d="M144.098,-37C152.836,-37 161.689,-37 170.274,-37"/>
<polygon fill="midnightblue" stroke="midnightblue" points="143.916,-33.5001 133.916,-37 143.916,-40.5001 143.916,-33.5001"/>
</g>
<!-- Node3 -->
<g id="node3" class="node"><title>Node3</title>
<g id="a_node3"><a xlink:href="class_cache_system.html#a37e784da57c57f56a428f61a53b4d618" target="_top" xlink:title="CacheSystem::generateCache">
<polygon fill="white" stroke="black" points="340.5,-27.5 340.5,-46.5 491.5,-46.5 491.5,-27.5 340.5,-27.5"/>
<text text-anchor="middle" x="416" y="-34.5" font-family="Helvetica,sans-Serif" font-size="10.00">CacheSystem::generateCache</text>
</a>
</g>
</g>
<!-- Node2&#45;&gt;Node3 -->
<g id="edge2" class="edge"><title>Node2&#45;&gt;Node3</title>
<path fill="none" stroke="midnightblue" d="M313.821,-37C322.562,-37 331.473,-37 340.201,-37"/>
<polygon fill="midnightblue" stroke="midnightblue" points="313.657,-33.5001 303.657,-37 313.657,-40.5001 313.657,-33.5001"/>
</g>
<!-- Node4 -->
<g id="node4" class="node"><title>Node4</title>
<g id="a_node4"><a xlink:href="class_cache_system.html#ae010322c2422bf8f8dbfce904257da31" target="_top" xlink:title="CacheSystem::Startup">
<polygon fill="white" stroke="black" points="528,-27.5 528,-46.5 644,-46.5 644,-27.5 528,-27.5"/>
<text text-anchor="middle" x="586" y="-34.5" font-family="Helvetica,sans-Serif" font-size="10.00">CacheSystem::Startup</text>
</a>
</g>
</g>
<!-- Node3&#45;&gt;Node4 -->
<g id="edge3" class="edge"><title>Node3&#45;&gt;Node4</title>
<path fill="none" stroke="midnightblue" d="M501.696,-37C510.595,-37 519.484,-37 527.963,-37"/>
<polygon fill="midnightblue" stroke="midnightblue" points="501.666,-33.5001 491.666,-37 501.666,-40.5001 501.666,-33.5001"/>
</g>
<!-- Node5 -->
<g id="node5" class="node"><title>Node5</title>
<g id="a_node5"><a xlink:href="main_8cpp.html#a0ddf1224851353fc92bfbff6f499fa97" target="_top" xlink:title="main">
<polygon fill="white" stroke="black" points="832,-27.5 832,-46.5 870,-46.5 870,-27.5 832,-27.5"/>
<text text-anchor="middle" x="851" y="-34.5" font-family="Helvetica,sans-Serif" font-size="10.00">main</text>
</a>
</g>
</g>
<!-- Node4&#45;&gt;Node5 -->
<g id="edge4" class="edge"><title>Node4&#45;&gt;Node5</title>
<path fill="none" stroke="midnightblue" d="M654.355,-38.6036C695.313,-39.3401 748.674,-39.8761 796,-39 807.819,-38.7812 821.085,-38.2933 831.51,-37.8542"/>
<polygon fill="midnightblue" stroke="midnightblue" points="654.284,-35.1017 644.22,-38.4127 654.152,-42.1005 654.284,-35.1017"/>
</g>
<!-- Node7 -->
<g id="node7" class="node"><title>Node7</title>
<g id="a_node7"><a xlink:href="class_ro_r_1_1_content_manager.html#a861b35694f428e463a800052ac0e9f90" target="_top" xlink:title="RoR::ContentManager\l::RegenCache">
<polygon fill="white" stroke="black" points="680.5,-0 680.5,-30 795.5,-30 795.5,-0 680.5,-0"/>
<text text-anchor="start" x="688.5" y="-18" font-family="Helvetica,sans-Serif" font-size="10.00">RoR::ContentManager</text>
<text text-anchor="middle" x="738" y="-7" font-family="Helvetica,sans-Serif" font-size="10.00">::RegenCache</text>
</a>
</g>
</g>
<!-- Node4&#45;&gt;Node7 -->
<g id="edge6" class="edge"><title>Node4&#45;&gt;Node7</title>
<path fill="none" stroke="midnightblue" d="M654.176,-27.1475C662.806,-25.8817 671.576,-24.5955 680.022,-23.3567"/>
<polygon fill="midnightblue" stroke="midnightblue" points="653.523,-23.7058 644.136,-28.62 654.539,-30.6317 653.523,-23.7058"/>
</g>
<!-- Node6 -->
<g id="node6" class="node"><title>Node6</title>
<g id="a_node6"><a xlink:href="main_8cpp.html#a2922bc5d5c2d77a3020cfbf9df12aab0" target="_top" xlink:title="WinMain">
<polygon fill="white" stroke="black" points="906.5,-27.5 906.5,-46.5 961.5,-46.5 961.5,-27.5 906.5,-27.5"/>
<text text-anchor="middle" x="934" y="-34.5" font-family="Helvetica,sans-Serif" font-size="10.00">WinMain</text>
</a>
</g>
</g>
<!-- Node5&#45;&gt;Node6 -->
<g id="edge5" class="edge"><title>Node5&#45;&gt;Node6</title>
<path fill="none" stroke="midnightblue" d="M880.512,-37C888.929,-37 898.105,-37 906.397,-37"/>
<polygon fill="midnightblue" stroke="midnightblue" points="880.38,-33.5001 870.38,-37 880.38,-40.5001 880.38,-33.5001"/>
</g>
<!-- Node7&#45;&gt;Node5 -->
<g id="edge7" class="edge"><title>Node7&#45;&gt;Node5</title>
<path fill="none" stroke="midnightblue" d="M805.799,-28.2394C815.28,-30.1186 824.302,-31.9068 831.694,-33.3718"/>
<polygon fill="midnightblue" stroke="midnightblue" points="806.29,-24.7688 795.801,-26.2578 804.929,-31.6353 806.29,-24.7688"/>
</g>
</g>
</svg>
