<?xml version="1.0" encoding="UTF-8" standalone="no"?>
<!DOCTYPE svg PUBLIC "-//W3C//DTD SVG 1.1//EN"
 "http://www.w3.org/Graphics/SVG/1.1/DTD/svg11.dtd">
<!-- Generated by graphviz version 2.36.0 (20140111.2315)
 -->
<!-- Title: RoR::GUI::TeleportWindow::TeleportWindowFrameStep Pages: 1 -->
<!--zoomable 126 -->
<svg id="main" version="1.1" xmlns="http://www.w3.org/2000/svg" xmlns:xlink="http://www.w3.org/1999/xlink" xml:space="preserve" onload="init(evt)">
<style type="text/css"><![CDATA[
.edge:hover path { stroke: red; }
.edge:hover polygon { stroke: red; fill: red; }
]]></style>
<script type="text/javascript"><![CDATA[
var edges = document.getElementsByTagName('g');
if (edges && edges.length) {
  for (var i=0;i<edges.length;i++) {
    if (edges[i].id.substr(0,4)=='edge') {
      edges[i].setAttribute('class','edge');
    }
  }
}
]]></script>
        <defs>
                <circle id="rim" cx="0" cy="0" r="7"/>
                <circle id="rim2" cx="0" cy="0" r="3.5"/>
                <g id="zoomPlus">
                        <use xlink:href="#rim" fill="#404040">
                                <set attributeName="fill" to="#808080" begin="zoomplus.mouseover" end="zoomplus.mouseout"/>
                        </use>
                        <path d="M-4,0h8M0,-4v8" fill="none" stroke="white" stroke-width="1.5" pointer-events="none"/>
                </g>
                <g id="zoomMin">
                        <use xlink:href="#rim" fill="#404040">
                                <set attributeName="fill" to="#808080" begin="zoomminus.mouseover" end="zoomminus.mouseout"/>
                        </use>
                        <path d="M-4,0h8" fill="none" stroke="white" stroke-width="1.5" pointer-events="none"/>
                </g>
                <g id="dirArrow">
                        <path fill="none" stroke="white" stroke-width="1.5" d="M0,-3.0v7 M-2.5,-0.5L0,-3.0L2.5,-0.5"/>
                </g>
               <g id="resetDef">
                       <use xlink:href="#rim2" fill="#404040">
                               <set attributeName="fill" to="#808080" begin="reset.mouseover" end="reset.mouseout"/>
                       </use>
               </g>
        </defs>

<script type="text/javascript">
var viewWidth = 856;
var viewHeight = 126;
var sectionId = 'dynsection-28';
</script>
<script xlink:href="svgpan.js"/>
<svg id="graph" class="graph">
<g id="viewport">
<title>RoR::GUI::TeleportWindow::TeleportWindowFrameStep</title>
<polygon fill="white" stroke="none" points="-4,4 -4,-122 852,-122 852,4 -4,4"/>
<!-- Node1 -->
<g id="node1" class="node"><title>Node1</title>
<polygon fill="#bfbfbf" stroke="black" points="0.5,-44 0.5,-74 141.5,-74 141.5,-44 0.5,-44"/>
<text text-anchor="start" x="8.5" y="-62" font-family="Helvetica,sans-Serif" font-size="10.00">RoR::GUI::TeleportWindow</text>
<text text-anchor="middle" x="71" y="-51" font-family="Helvetica,sans-Serif" font-size="10.00">::TeleportWindowFrameStep</text>
</g>
<!-- Node2 -->
<g id="node2" class="node"><title>Node2</title>
<g id="a_node2"><a xlink:href="class_ro_r_1_1_g_u_i_1_1_teleport_window.html#a243abfa71535acbec366933a9c08c33b" target="_top" xlink:title="RoR::GUI::TeleportWindow\l::EnableAltMode">
<polygon fill="white" stroke="black" points="178.5,-44 178.5,-74 315.5,-74 315.5,-44 178.5,-44"/>
<text text-anchor="start" x="186.5" y="-62" font-family="Helvetica,sans-Serif" font-size="10.00">RoR::GUI::TeleportWindow</text>
<text text-anchor="middle" x="247" y="-51" font-family="Helvetica,sans-Serif" font-size="10.00">::EnableAltMode</text>
</a>
</g>
</g>
<!-- Node1&#45;&gt;Node2 -->
<g id="edge1" class="edge"><title>Node1&#45;&gt;Node2</title>
<path fill="none" stroke="midnightblue" d="M141.52,-59C150.228,-59 159.181,-59 168.008,-59"/>
<polygon fill="midnightblue" stroke="midnightblue" points="168.291,-62.5001 178.291,-59 168.291,-55.5001 168.291,-62.5001"/>
</g>
<!-- Node3 -->
<g id="node3" class="node"><title>Node3</title>
<g id="a_node3"><a xlink:href="class_ro_r_1_1_g_u_i_1_1_teleport_window.html#abbaeda3e7eb3f9f57145cbff0827f8a2" target="_top" xlink:title="RoR::GUI::TeleportWindow\l::ShowAltmodeCursor">
<polygon fill="white" stroke="black" points="352.5,-44 352.5,-74 489.5,-74 489.5,-44 352.5,-44"/>
<text text-anchor="start" x="360.5" y="-62" font-family="Helvetica,sans-Serif" font-size="10.00">RoR::GUI::TeleportWindow</text>
<text text-anchor="middle" x="421" y="-51" font-family="Helvetica,sans-Serif" font-size="10.00">::ShowAltmodeCursor</text>
</a>
</g>
</g>
<!-- Node2&#45;&gt;Node3 -->
<g id="edge2" class="edge"><title>Node2&#45;&gt;Node3</title>
<path fill="none" stroke="midnightblue" d="M315.979,-59C324.55,-59 333.372,-59 342.082,-59"/>
<polygon fill="midnightblue" stroke="midnightblue" points="342.233,-62.5001 352.233,-59 342.233,-55.5001 342.233,-62.5001"/>
</g>
<!-- Node4 -->
<g id="node4" class="node"><title>Node4</title>
<g id="a_node4"><a xlink:href="class_ro_r_1_1_g_u_i_1_1_teleport_window.html#a2f2e457c6c3a10d6c4ac9f2f8121d39f" target="_top" xlink:title="RoR::GUI::TeleportWindow\l::SetAltmodeCursorPos">
<polygon fill="white" stroke="black" points="532.5,-88 532.5,-118 669.5,-118 669.5,-88 532.5,-88"/>
<text text-anchor="start" x="540.5" y="-106" font-family="Helvetica,sans-Serif" font-size="10.00">RoR::GUI::TeleportWindow</text>
<text text-anchor="middle" x="601" y="-95" font-family="Helvetica,sans-Serif" font-size="10.00">::SetAltmodeCursorPos</text>
</a>
</g>
</g>
<!-- Node3&#45;&gt;Node4 -->
<g id="edge3" class="edge"><title>Node3&#45;&gt;Node4</title>
<path fill="none" stroke="midnightblue" d="M482.76,-74.0192C497.713,-77.7156 513.853,-81.7053 529.234,-85.5074"/>
<polygon fill="midnightblue" stroke="midnightblue" points="528.664,-88.9718 539.212,-87.9738 530.344,-82.1763 528.664,-88.9718"/>
</g>
<!-- Node5 -->
<g id="node5" class="node"><title>Node5</title>
<g id="a_node5"><a xlink:href="namespace_ro_r_1_1_app.html#a68d6403d2b36006a6fa2d28f5ba8f12f" target="_top" xlink:title="RoR::App::GetGuiManager">
<polygon fill="white" stroke="black" points="534,-49.5 534,-68.5 668,-68.5 668,-49.5 534,-49.5"/>
<text text-anchor="middle" x="601" y="-56.5" font-family="Helvetica,sans-Serif" font-size="10.00">RoR::App::GetGuiManager</text>
</a>
</g>
</g>
<!-- Node3&#45;&gt;Node5 -->
<g id="edge4" class="edge"><title>Node3&#45;&gt;Node5</title>
<path fill="none" stroke="midnightblue" d="M489.548,-59C500.692,-59 512.314,-59 523.655,-59"/>
<polygon fill="midnightblue" stroke="midnightblue" points="523.97,-62.5001 533.97,-59 523.97,-55.5001 523.97,-62.5001"/>
</g>
<!-- Node6 -->
<g id="node6" class="node"><title>Node6</title>
<g id="a_node6"><a xlink:href="class_ro_r_1_1_g_u_i_manager.html#a2255f5dea7d2ba3c2ab3d2970765f642" target="_top" xlink:title="RoR::GUIManager::SetMouse\lCursorVisible">
<polygon fill="white" stroke="black" points="526.5,-0 526.5,-30 675.5,-30 675.5,-0 526.5,-0"/>
<text text-anchor="start" x="534.5" y="-18" font-family="Helvetica,sans-Serif" font-size="10.00">RoR::GUIManager::SetMouse</text>
<text text-anchor="middle" x="601" y="-7" font-family="Helvetica,sans-Serif" font-size="10.00">CursorVisible</text>
</a>
</g>
</g>
<!-- Node3&#45;&gt;Node6 -->
<g id="edge5" class="edge"><title>Node3&#45;&gt;Node6</title>
<path fill="none" stroke="midnightblue" d="M482.76,-43.9808C497.713,-40.2844 513.853,-36.2947 529.234,-32.4926"/>
<polygon fill="midnightblue" stroke="midnightblue" points="530.344,-35.8237 539.212,-30.0262 528.664,-29.0282 530.344,-35.8237"/>
</g>
<!-- Node7 -->
<g id="node7" class="node"><title>Node7</title>
<g id="a_node7"><a xlink:href="class_g_u_i_input_manager.html#a9ca9e7863ca969e2b40c1e4a05e6e501" target="_top" xlink:title="GUIInputManager::Supress\lCursor">
<polygon fill="white" stroke="black" points="712,-0 712,-30 848,-30 848,-0 712,-0"/>
<text text-anchor="start" x="720" y="-18" font-family="Helvetica,sans-Serif" font-size="10.00">GUIInputManager::Supress</text>
<text text-anchor="middle" x="780" y="-7" font-family="Helvetica,sans-Serif" font-size="10.00">Cursor</text>
</a>
</g>
</g>
<!-- Node6&#45;&gt;Node7 -->
<g id="edge6" class="edge"><title>Node6&#45;&gt;Node7</title>
<path fill="none" stroke="midnightblue" d="M675.526,-15C684.196,-15 693.064,-15 701.783,-15"/>
<polygon fill="midnightblue" stroke="midnightblue" points="701.929,-18.5001 711.929,-15 701.929,-11.5001 701.929,-18.5001"/>
</g>
</g>
</svg>
        <g id="navigator" transform="translate(0 0)" fill="#404254">
                <rect fill="#f2f5e9" fill-opacity="0.5" stroke="#606060" stroke-width=".5" x="0" y="0" width="60" height="60"/>
                <use id="zoomplus" xlink:href="#zoomPlus" x="17" y="9" onmousedown="handleZoom(evt,'in')"/>
                <use id="zoomminus" xlink:href="#zoomMin" x="42" y="9" onmousedown="handleZoom(evt,'out')"/>
                <use id="reset" xlink:href="#resetDef" x="30" y="36" onmousedown="handleReset()"/>
                <g id="arrowUp" xlink:href="#dirArrow" transform="translate(30 24)" onmousedown="handlePan(0,-1)">
                  <use xlink:href="#rim" fill="#404040">
                        <set attributeName="fill" to="#808080" begin="arrowUp.mouseover" end="arrowUp.mouseout"/>
                  </use>
                  <path fill="none" stroke="white" stroke-width="1.5" d="M0,-3.0v7 M-2.5,-0.5L0,-3.0L2.5,-0.5"/>
                </g>
                <g id="arrowRight" xlink:href="#dirArrow" transform="rotate(90) translate(36 -43)" onmousedown="handlePan(1,0)">
                  <use xlink:href="#rim" fill="#404040">
                        <set attributeName="fill" to="#808080" begin="arrowRight.mouseover" end="arrowRight.mouseout"/>
                  </use>
                  <path fill="none" stroke="white" stroke-width="1.5" d="M0,-3.0v7 M-2.5,-0.5L0,-3.0L2.5,-0.5"/>
                </g>
                <g id="arrowDown" xlink:href="#dirArrow" transform="rotate(180) translate(-30 -48)" onmousedown="handlePan(0,1)">
                  <use xlink:href="#rim" fill="#404040">
                        <set attributeName="fill" to="#808080" begin="arrowDown.mouseover" end="arrowDown.mouseout"/>
                  </use>
                  <path fill="none" stroke="white" stroke-width="1.5" d="M0,-3.0v7 M-2.5,-0.5L0,-3.0L2.5,-0.5"/>
                </g>
                <g id="arrowLeft" xlink:href="#dirArrow" transform="rotate(270) translate(-36 17)" onmousedown="handlePan(-1,0)">
                  <use xlink:href="#rim" fill="#404040">
                        <set attributeName="fill" to="#808080" begin="arrowLeft.mouseover" end="arrowLeft.mouseout"/>
                  </use>
                  <path fill="none" stroke="white" stroke-width="1.5" d="M0,-3.0v7 M-2.5,-0.5L0,-3.0L2.5,-0.5"/>
                </g>
        </g>
        <svg viewBox="0 0 15 15" width="100%" height="30px" preserveAspectRatio="xMaxYMin meet">
         <g id="arrow_out" transform="scale(0.3 0.3)">
          <a xlink:href="class_ro_r_1_1_g_u_i_1_1_teleport_window_a0068aab5f9d3800bb3e082509403e326_cgraph_org.svg" target="_base">
           <rect id="button" ry="5" rx="5" y="6" x="6" height="38" width="38"
                fill="#f2f5e9" fill-opacity="0.5" stroke="#606060" stroke-width="1.0"/>
           <path id="arrow"
             d="M 11.500037,31.436501 C 11.940474,20.09759 22.043105,11.32322 32.158766,21.979434 L 37.068811,17.246167 C 37.068811,17.246167 37.088388,32 37.088388,32 L 22.160133,31.978069 C 22.160133,31.978069 26.997745,27.140456 26.997745,27.140456 C 18.528582,18.264221 13.291696,25.230495 11.500037,31.436501 z"
             style="fill:#404040;"/>
          </a>
         </g>
        </svg>
</svg>
