<?xml version="1.0" encoding="UTF-8" standalone="no"?>
<!DOCTYPE svg PUBLIC "-//W3C//DTD SVG 1.1//EN"
 "http://www.w3.org/Graphics/SVG/1.1/DTD/svg11.dtd">
<!-- Generated by graphviz version 2.36.0 (20140111.2315)
 -->
<!-- Title: CScriptDictionary::Create Pages: 1 -->
<!--zoomable 87 -->
<svg id="main" version="1.1" xmlns="http://www.w3.org/2000/svg" xmlns:xlink="http://www.w3.org/1999/xlink" xml:space="preserve" onload="init(evt)">
<style type="text/css"><![CDATA[
.edge:hover path { stroke: red; }
.edge:hover polygon { stroke: red; fill: red; }
]]></style>
<script type="text/javascript"><![CDATA[
var edges = document.getElementsByTagName('g');
if (edges && edges.length) {
  for (var i=0;i<edges.length;i++) {
    if (edges[i].id.substr(0,4)=='edge') {
      edges[i].setAttribute('class','edge');
    }
  }
}
]]></script>
        <defs>
                <circle id="rim" cx="0" cy="0" r="7"/>
                <circle id="rim2" cx="0" cy="0" r="3.5"/>
                <g id="zoomPlus">
                        <use xlink:href="#rim" fill="#404040">
                                <set attributeName="fill" to="#808080" begin="zoomplus.mouseover" end="zoomplus.mouseout"/>
                        </use>
                        <path d="M-4,0h8M0,-4v8" fill="none" stroke="white" stroke-width="1.5" pointer-events="none"/>
                </g>
                <g id="zoomMin">
                        <use xlink:href="#rim" fill="#404040">
                                <set attributeName="fill" to="#808080" begin="zoomminus.mouseover" end="zoomminus.mouseout"/>
                        </use>
                        <path d="M-4,0h8" fill="none" stroke="white" stroke-width="1.5" pointer-events="none"/>
                </g>
                <g id="dirArrow">
                        <path fill="none" stroke="white" stroke-width="1.5" d="M0,-3.0v7 M-2.5,-0.5L0,-3.0L2.5,-0.5"/>
                </g>
               <g id="resetDef">
                       <use xlink:href="#rim2" fill="#404040">
                               <set attributeName="fill" to="#808080" begin="reset.mouseover" end="reset.mouseout"/>
                       </use>
               </g>
        </defs>

<script type="text/javascript">
var viewWidth = 600;
var viewHeight = 87;
var sectionId = 'dynsection-3';
</script>
<script xlink:href="svgpan.js"/>
<svg id="graph" class="graph">
<g id="viewport">
<title>CScriptDictionary::Create</title>
<polygon fill="white" stroke="none" points="-4,4 -4,-83 596,-83 596,4 -4,4"/>
<!-- Node1 -->
<g id="node1" class="node"><title>Node1</title>
<polygon fill="#bfbfbf" stroke="black" points="0,-24 0,-54 100,-54 100,-24 0,-24"/>
<text text-anchor="start" x="8" y="-42" font-family="Helvetica,sans-Serif" font-size="10.00">CScriptDictionary::</text>
<text text-anchor="middle" x="50" y="-31" font-family="Helvetica,sans-Serif" font-size="10.00">Create</text>
</g>
<!-- Node2 -->
<g id="node2" class="node"><title>Node2</title>
<g id="a_node2"><a xlink:href="scriptdictionary_8cpp.html#a1c9811cdaf34449862b9ef270ca343e6" target="_top" xlink:title="ScriptDictionaryFactory\l_Generic">
<polygon fill="white" stroke="black" points="144.5,-49 144.5,-79 263.5,-79 263.5,-49 144.5,-49"/>
<text text-anchor="start" x="152.5" y="-67" font-family="Helvetica,sans-Serif" font-size="10.00">ScriptDictionaryFactory</text>
<text text-anchor="middle" x="204" y="-56" font-family="Helvetica,sans-Serif" font-size="10.00">_Generic</text>
</a>
</g>
</g>
<!-- Node1&#45;&gt;Node2 -->
<g id="edge1" class="edge"><title>Node1&#45;&gt;Node2</title>
<path fill="none" stroke="midnightblue" d="M110.424,-48.7736C121.578,-50.6082 133.233,-52.5252 144.364,-54.3559"/>
<polygon fill="midnightblue" stroke="midnightblue" points="110.786,-45.2862 100.35,-47.1168 109.649,-52.1934 110.786,-45.2862"/>
</g>
<!-- Node6 -->
<g id="node6" class="node"><title>Node6</title>
<g id="a_node6"><a xlink:href="scriptdictionary_8cpp.html#a2fee48e56c541a4c9daaaa9df568fee1" target="_top" xlink:title="ScriptDictionaryListFactory\l_Generic">
<polygon fill="white" stroke="black" points="136.5,-0 136.5,-30 271.5,-30 271.5,-0 136.5,-0"/>
<text text-anchor="start" x="144.5" y="-18" font-family="Helvetica,sans-Serif" font-size="10.00">ScriptDictionaryListFactory</text>
<text text-anchor="middle" x="204" y="-7" font-family="Helvetica,sans-Serif" font-size="10.00">_Generic</text>
</a>
</g>
</g>
<!-- Node1&#45;&gt;Node6 -->
<g id="edge6" class="edge"><title>Node1&#45;&gt;Node6</title>
<path fill="none" stroke="midnightblue" d="M110.272,-29.6413C118.865,-28.2844 127.759,-26.8801 136.483,-25.5026"/>
<polygon fill="midnightblue" stroke="midnightblue" points="109.682,-26.191 100.35,-31.2079 110.774,-33.1053 109.682,-26.191"/>
</g>
<!-- Node3 -->
<g id="node3" class="node"><title>Node3</title>
<g id="a_node3"><a xlink:href="scriptdictionary_8h.html#a7c41a379d66a350e692e11acfea995cb" target="_top" xlink:title="RegisterScriptDictionary\l_Native">
<polygon fill="white" stroke="black" points="308.5,-49 308.5,-79 431.5,-79 431.5,-49 308.5,-49"/>
<text text-anchor="start" x="316.5" y="-67" font-family="Helvetica,sans-Serif" font-size="10.00">RegisterScriptDictionary</text>
<text text-anchor="middle" x="370" y="-56" font-family="Helvetica,sans-Serif" font-size="10.00">_Native</text>
</a>
</g>
</g>
<!-- Node2&#45;&gt;Node3 -->
<g id="edge2" class="edge"><title>Node2&#45;&gt;Node3</title>
<path fill="none" stroke="midnightblue" d="M273.754,-64C285.277,-64 297.158,-64 308.455,-64"/>
<polygon fill="midnightblue" stroke="midnightblue" points="273.745,-60.5001 263.745,-64 273.745,-67.5001 273.745,-60.5001"/>
</g>
<!-- Node5 -->
<g id="node5" class="node"><title>Node5</title>
<g id="a_node5"><a xlink:href="scriptdictionary_8h.html#af8fc6fbf1a623e6c2ff14605df4e0570" target="_top" xlink:title="RegisterScriptDictionary\l_Generic">
<polygon fill="white" stroke="black" points="308.5,-0 308.5,-30 431.5,-30 431.5,-0 308.5,-0"/>
<text text-anchor="start" x="316.5" y="-18" font-family="Helvetica,sans-Serif" font-size="10.00">RegisterScriptDictionary</text>
<text text-anchor="middle" x="370" y="-7" font-family="Helvetica,sans-Serif" font-size="10.00">_Generic</text>
</a>
</g>
</g>
<!-- Node2&#45;&gt;Node5 -->
<g id="edge4" class="edge"><title>Node2&#45;&gt;Node5</title>
<path fill="none" stroke="midnightblue" d="M265.134,-46.033C282.706,-40.783 301.723,-35.1011 318.623,-30.0516"/>
<polygon fill="midnightblue" stroke="midnightblue" points="264.123,-42.6822 255.544,-48.8986 266.127,-49.3892 264.123,-42.6822"/>
</g>
<!-- Node4 -->
<g id="node4" class="node"><title>Node4</title>
<g id="a_node4"><a xlink:href="scriptdictionary_8h.html#abf884a3f2b4b07a009c5fc055b48f901" target="_top" xlink:title="RegisterScriptDictionary">
<polygon fill="white" stroke="black" points="468.5,-29.5 468.5,-48.5 591.5,-48.5 591.5,-29.5 468.5,-29.5"/>
<text text-anchor="middle" x="530" y="-36.5" font-family="Helvetica,sans-Serif" font-size="10.00">RegisterScriptDictionary</text>
</a>
</g>
</g>
<!-- Node3&#45;&gt;Node4 -->
<g id="edge3" class="edge"><title>Node3&#45;&gt;Node4</title>
<path fill="none" stroke="midnightblue" d="M441.742,-52.8066C450.772,-51.3779 459.946,-49.9262 468.788,-48.5272"/>
<polygon fill="midnightblue" stroke="midnightblue" points="440.965,-49.3859 431.635,-54.4058 442.059,-56.2999 440.965,-49.3859"/>
</g>
<!-- Node5&#45;&gt;Node4 -->
<g id="edge5" class="edge"><title>Node5&#45;&gt;Node4</title>
<path fill="none" stroke="midnightblue" d="M441.597,-25.7235C450.495,-27.0753 459.538,-28.4488 468.266,-29.7746"/>
<polygon fill="midnightblue" stroke="midnightblue" points="442.047,-22.2519 431.635,-24.2104 440.996,-29.1725 442.047,-22.2519"/>
</g>
<!-- Node6&#45;&gt;Node3 -->
<g id="edge7" class="edge"><title>Node6&#45;&gt;Node3</title>
<path fill="none" stroke="midnightblue" d="M265.134,-32.967C282.706,-38.217 301.723,-43.8989 318.623,-48.9484"/>
<polygon fill="midnightblue" stroke="midnightblue" points="266.127,-29.6108 255.544,-30.1014 264.123,-36.3178 266.127,-29.6108"/>
</g>
<!-- Node6&#45;&gt;Node5 -->
<g id="edge8" class="edge"><title>Node6&#45;&gt;Node5</title>
<path fill="none" stroke="midnightblue" d="M281.753,-15C290.703,-15 299.738,-15 308.428,-15"/>
<polygon fill="midnightblue" stroke="midnightblue" points="281.705,-11.5001 271.705,-15 281.705,-18.5001 281.705,-11.5001"/>
</g>
</g>
</svg>
        <g id="navigator" transform="translate(0 0)" fill="#404254">
                <rect fill="#f2f5e9" fill-opacity="0.5" stroke="#606060" stroke-width=".5" x="0" y="0" width="60" height="60"/>
                <use id="zoomplus" xlink:href="#zoomPlus" x="17" y="9" onmousedown="handleZoom(evt,'in')"/>
                <use id="zoomminus" xlink:href="#zoomMin" x="42" y="9" onmousedown="handleZoom(evt,'out')"/>
                <use id="reset" xlink:href="#resetDef" x="30" y="36" onmousedown="handleReset()"/>
                <g id="arrowUp" xlink:href="#dirArrow" transform="translate(30 24)" onmousedown="handlePan(0,-1)">
                  <use xlink:href="#rim" fill="#404040">
                        <set attributeName="fill" to="#808080" begin="arrowUp.mouseover" end="arrowUp.mouseout"/>
                  </use>
                  <path fill="none" stroke="white" stroke-width="1.5" d="M0,-3.0v7 M-2.5,-0.5L0,-3.0L2.5,-0.5"/>
                </g>
                <g id="arrowRight" xlink:href="#dirArrow" transform="rotate(90) translate(36 -43)" onmousedown="handlePan(1,0)">
                  <use xlink:href="#rim" fill="#404040">
                        <set attributeName="fill" to="#808080" begin="arrowRight.mouseover" end="arrowRight.mouseout"/>
                  </use>
                  <path fill="none" stroke="white" stroke-width="1.5" d="M0,-3.0v7 M-2.5,-0.5L0,-3.0L2.5,-0.5"/>
                </g>
                <g id="arrowDown" xlink:href="#dirArrow" transform="rotate(180) translate(-30 -48)" onmousedown="handlePan(0,1)">
                  <use xlink:href="#rim" fill="#404040">
                        <set attributeName="fill" to="#808080" begin="arrowDown.mouseover" end="arrowDown.mouseout"/>
                  </use>
                  <path fill="none" stroke="white" stroke-width="1.5" d="M0,-3.0v7 M-2.5,-0.5L0,-3.0L2.5,-0.5"/>
                </g>
                <g id="arrowLeft" xlink:href="#dirArrow" transform="rotate(270) translate(-36 17)" onmousedown="handlePan(-1,0)">
                  <use xlink:href="#rim" fill="#404040">
                        <set attributeName="fill" to="#808080" begin="arrowLeft.mouseover" end="arrowLeft.mouseout"/>
                  </use>
                  <path fill="none" stroke="white" stroke-width="1.5" d="M0,-3.0v7 M-2.5,-0.5L0,-3.0L2.5,-0.5"/>
                </g>
        </g>
        <svg viewBox="0 0 15 15" width="100%" height="30px" preserveAspectRatio="xMaxYMin meet">
         <g id="arrow_out" transform="scale(0.3 0.3)">
          <a xlink:href="class_c_script_dictionary_a187a2ddc0cfccf43a3cbfaee3063ace5_icgraph_org.svg" target="_base">
           <rect id="button" ry="5" rx="5" y="6" x="6" height="38" width="38"
                fill="#f2f5e9" fill-opacity="0.5" stroke="#606060" stroke-width="1.0"/>
           <path id="arrow"
             d="M 11.500037,31.436501 C 11.940474,20.09759 22.043105,11.32322 32.158766,21.979434 L 37.068811,17.246167 C 37.068811,17.246167 37.088388,32 37.088388,32 L 22.160133,31.978069 C 22.160133,31.978069 26.997745,27.140456 26.997745,27.140456 C 18.528582,18.264221 13.291696,25.230495 11.500037,31.436501 z"
             style="fill:#404040;"/>
          </a>
         </g>
        </svg>
</svg>
