<?xml version="1.0" encoding="UTF-8" standalone="no"?>
<!DOCTYPE svg PUBLIC "-//W3C//DTD SVG 1.1//EN"
 "http://www.w3.org/Graphics/SVG/1.1/DTD/svg11.dtd">
<!-- Generated by graphviz version 2.36.0 (20140111.2315)
 -->
<!-- Title: Character::createMapEntity Pages: 1 -->
<!--zoomable 191 -->
<svg id="main" version="1.1" xmlns="http://www.w3.org/2000/svg" xmlns:xlink="http://www.w3.org/1999/xlink" xml:space="preserve" onload="init(evt)">
<style type="text/css"><![CDATA[
.edge:hover path { stroke: red; }
.edge:hover polygon { stroke: red; fill: red; }
]]></style>
<script type="text/javascript"><![CDATA[
var edges = document.getElementsByTagName('g');
if (edges && edges.length) {
  for (var i=0;i<edges.length;i++) {
    if (edges[i].id.substr(0,4)=='edge') {
      edges[i].setAttribute('class','edge');
    }
  }
}
]]></script>
        <defs>
                <circle id="rim" cx="0" cy="0" r="7"/>
                <circle id="rim2" cx="0" cy="0" r="3.5"/>
                <g id="zoomPlus">
                        <use xlink:href="#rim" fill="#404040">
                                <set attributeName="fill" to="#808080" begin="zoomplus.mouseover" end="zoomplus.mouseout"/>
                        </use>
                        <path d="M-4,0h8M0,-4v8" fill="none" stroke="white" stroke-width="1.5" pointer-events="none"/>
                </g>
                <g id="zoomMin">
                        <use xlink:href="#rim" fill="#404040">
                                <set attributeName="fill" to="#808080" begin="zoomminus.mouseover" end="zoomminus.mouseout"/>
                        </use>
                        <path d="M-4,0h8" fill="none" stroke="white" stroke-width="1.5" pointer-events="none"/>
                </g>
                <g id="dirArrow">
                        <path fill="none" stroke="white" stroke-width="1.5" d="M0,-3.0v7 M-2.5,-0.5L0,-3.0L2.5,-0.5"/>
                </g>
               <g id="resetDef">
                       <use xlink:href="#rim2" fill="#404040">
                               <set attributeName="fill" to="#808080" begin="reset.mouseover" end="reset.mouseout"/>
                       </use>
               </g>
        </defs>

<script type="text/javascript">
var viewWidth = 890;
var viewHeight = 191;
var sectionId = 'dynsection-4';
</script>
<script xlink:href="svgpan.js"/>
<svg id="graph" class="graph">
<g id="viewport">
<title>Character::createMapEntity</title>
<polygon fill="white" stroke="none" points="-4,4 -4,-187 886,-187 886,4 -4,4"/>
<!-- Node1 -->
<g id="node1" class="node"><title>Node1</title>
<polygon fill="#bfbfbf" stroke="black" points="0.5,-76.5 0.5,-95.5 137.5,-95.5 137.5,-76.5 0.5,-76.5"/>
<text text-anchor="middle" x="69" y="-83.5" font-family="Helvetica,sans-Serif" font-size="10.00">Character::createMapEntity</text>
</g>
<!-- Node2 -->
<g id="node2" class="node"><title>Node2</title>
<g id="a_node2"><a xlink:href="class_survey_map_manager.html#a8d4bc71b43014156c7f1d620988ceb8f" target="_top" xlink:title="SurveyMapManager::create\lNamedMapEntity">
<polygon fill="white" stroke="black" points="179.5,-153 179.5,-183 316.5,-183 316.5,-153 179.5,-153"/>
<text text-anchor="start" x="187.5" y="-171" font-family="Helvetica,sans-Serif" font-size="10.00">SurveyMapManager::create</text>
<text text-anchor="middle" x="248" y="-160" font-family="Helvetica,sans-Serif" font-size="10.00">NamedMapEntity</text>
</a>
</g>
</g>
<!-- Node1&#45;&gt;Node2 -->
<g id="edge1" class="edge"><title>Node1&#45;&gt;Node2</title>
<path fill="none" stroke="midnightblue" d="M85.4315,-95.5542C105.375,-107.643 141.413,-128.617 174,-143 178.979,-145.198 184.216,-147.327 189.504,-149.355"/>
<polygon fill="midnightblue" stroke="midnightblue" points="188.439,-152.693 199.032,-152.888 190.873,-146.13 188.439,-152.693"/>
</g>
<!-- Node4 -->
<g id="node4" class="node"><title>Node4</title>
<g id="a_node4"><a xlink:href="class_survey_map_entity.html#a24cc0fef7d3f1f296e7e8ccf94413fa5" target="_top" xlink:title="SurveyMapEntity::setState">
<polygon fill="white" stroke="black" points="181,-114.5 181,-133.5 315,-133.5 315,-114.5 181,-114.5"/>
<text text-anchor="middle" x="248" y="-121.5" font-family="Helvetica,sans-Serif" font-size="10.00">SurveyMapEntity::setState</text>
</a>
</g>
</g>
<!-- Node1&#45;&gt;Node4 -->
<g id="edge3" class="edge"><title>Node1&#45;&gt;Node4</title>
<path fill="none" stroke="midnightblue" d="M114.665,-95.589C138.337,-100.671 167.608,-106.955 192.597,-112.32"/>
<polygon fill="midnightblue" stroke="midnightblue" points="192.145,-115.803 202.657,-114.48 193.614,-108.959 192.145,-115.803"/>
</g>
<!-- Node12 -->
<g id="node12" class="node"><title>Node12</title>
<g id="a_node12"><a xlink:href="class_survey_map_entity.html#ad3cc1cb8f1e71f876290abb0eb004c05" target="_top" xlink:title="SurveyMapEntity::setVisibility">
<polygon fill="white" stroke="black" points="174,-76.5 174,-95.5 322,-95.5 322,-76.5 174,-76.5"/>
<text text-anchor="middle" x="248" y="-83.5" font-family="Helvetica,sans-Serif" font-size="10.00">SurveyMapEntity::setVisibility</text>
</a>
</g>
</g>
<!-- Node1&#45;&gt;Node12 -->
<g id="edge11" class="edge"><title>Node1&#45;&gt;Node12</title>
<path fill="none" stroke="midnightblue" d="M137.674,-86C146.161,-86 154.92,-86 163.612,-86"/>
<polygon fill="midnightblue" stroke="midnightblue" points="163.766,-89.5001 173.766,-86 163.766,-82.5001 163.766,-89.5001"/>
</g>
<!-- Node13 -->
<g id="node13" class="node"><title>Node13</title>
<g id="a_node13"><a xlink:href="class_survey_map_entity.html#a781ecb998f41521324088cd3ce66d9ce" target="_top" xlink:title="SurveyMapEntity::setPosition">
<polygon fill="white" stroke="black" points="175,-38.5 175,-57.5 321,-57.5 321,-38.5 175,-38.5"/>
<text text-anchor="middle" x="248" y="-45.5" font-family="Helvetica,sans-Serif" font-size="10.00">SurveyMapEntity::setPosition</text>
</a>
</g>
</g>
<!-- Node1&#45;&gt;Node13 -->
<g id="edge12" class="edge"><title>Node1&#45;&gt;Node13</title>
<path fill="none" stroke="midnightblue" d="M114.665,-76.411C138.337,-71.3287 167.608,-65.0446 192.597,-59.6797"/>
<polygon fill="midnightblue" stroke="midnightblue" points="193.614,-63.0412 202.657,-57.5201 192.145,-56.1972 193.614,-63.0412"/>
</g>
<!-- Node14 -->
<g id="node14" class="node"><title>Node14</title>
<g id="a_node14"><a xlink:href="class_survey_map_entity.html#a23640d7a462102b43b62b44204a99a2d" target="_top" xlink:title="SurveyMapEntity::setRotation">
<polygon fill="white" stroke="black" points="174,-0.5 174,-19.5 322,-19.5 322,-0.5 174,-0.5"/>
<text text-anchor="middle" x="248" y="-7.5" font-family="Helvetica,sans-Serif" font-size="10.00">SurveyMapEntity::setRotation</text>
</a>
</g>
</g>
<!-- Node1&#45;&gt;Node14 -->
<g id="edge13" class="edge"><title>Node1&#45;&gt;Node14</title>
<path fill="none" stroke="midnightblue" d="M84.5888,-76.4856C104.209,-64.0511 140.512,-42.2978 174,-29 180.215,-26.5321 186.855,-24.2928 193.503,-22.289"/>
<polygon fill="midnightblue" stroke="midnightblue" points="194.545,-25.6316 203.201,-19.5227 192.624,-18.9002 194.545,-25.6316"/>
</g>
<!-- Node3 -->
<g id="node3" class="node"><title>Node3</title>
<g id="a_node3"><a xlink:href="class_survey_map_manager.html#a7af7a8d747001ee3749c4c0b97a32375" target="_top" xlink:title="SurveyMapManager::create\lMapEntity">
<polygon fill="white" stroke="black" points="362.5,-153 362.5,-183 499.5,-183 499.5,-153 362.5,-153"/>
<text text-anchor="start" x="370.5" y="-171" font-family="Helvetica,sans-Serif" font-size="10.00">SurveyMapManager::create</text>
<text text-anchor="middle" x="431" y="-160" font-family="Helvetica,sans-Serif" font-size="10.00">MapEntity</text>
</a>
</g>
</g>
<!-- Node2&#45;&gt;Node3 -->
<g id="edge2" class="edge"><title>Node2&#45;&gt;Node3</title>
<path fill="none" stroke="midnightblue" d="M316.655,-168C328.227,-168 340.331,-168 352.143,-168"/>
<polygon fill="midnightblue" stroke="midnightblue" points="352.427,-171.5 362.427,-168 352.427,-164.5 352.427,-171.5"/>
</g>
<!-- Node5 -->
<g id="node5" class="node"><title>Node5</title>
<g id="a_node5"><a xlink:href="class_survey_map_entity.html#ad83a9d2fd4ab8d3a3841f9e1b0eae729" target="_top" xlink:title="SurveyMapEntity::updateIcon">
<polygon fill="white" stroke="black" points="358,-114.5 358,-133.5 504,-133.5 504,-114.5 358,-114.5"/>
<text text-anchor="middle" x="431" y="-121.5" font-family="Helvetica,sans-Serif" font-size="10.00">SurveyMapEntity::updateIcon</text>
</a>
</g>
</g>
<!-- Node4&#45;&gt;Node5 -->
<g id="edge4" class="edge"><title>Node4&#45;&gt;Node5</title>
<path fill="none" stroke="midnightblue" d="M315.113,-124C325.783,-124 336.942,-124 347.933,-124"/>
<polygon fill="midnightblue" stroke="midnightblue" points="347.961,-127.5 357.961,-124 347.961,-120.5 347.961,-127.5"/>
</g>
<!-- Node6 -->
<g id="node6" class="node"><title>Node6</title>
<g id="a_node6"><a xlink:href="class_survey_map_entity.html#af393a262b4094ca586036e08943b6d72" target="_top" xlink:title="SurveyMapEntity::update">
<polygon fill="white" stroke="black" points="367.5,-76.5 367.5,-95.5 494.5,-95.5 494.5,-76.5 367.5,-76.5"/>
<text text-anchor="middle" x="431" y="-83.5" font-family="Helvetica,sans-Serif" font-size="10.00">SurveyMapEntity::update</text>
</a>
</g>
</g>
<!-- Node4&#45;&gt;Node6 -->
<g id="edge5" class="edge"><title>Node4&#45;&gt;Node6</title>
<path fill="none" stroke="midnightblue" d="M294.674,-114.411C318.989,-109.306 349.08,-102.989 374.708,-97.6082"/>
<polygon fill="midnightblue" stroke="midnightblue" points="375.587,-101 384.654,-95.5201 374.149,-94.1495 375.587,-101"/>
</g>
<!-- Node7 -->
<g id="node7" class="node"><title>Node7</title>
<g id="a_node7"><a xlink:href="class_survey_map_manager.html#a959f28a84f3b54803983c734bcc849e1" target="_top" xlink:title="SurveyMapManager::getMap\lEntitiesVisible">
<polygon fill="white" stroke="black" points="558,-134 558,-164 700,-164 700,-134 558,-134"/>
<text text-anchor="start" x="566" y="-152" font-family="Helvetica,sans-Serif" font-size="10.00">SurveyMapManager::getMap</text>
<text text-anchor="middle" x="629" y="-141" font-family="Helvetica,sans-Serif" font-size="10.00">EntitiesVisible</text>
</a>
</g>
</g>
<!-- Node6&#45;&gt;Node7 -->
<g id="edge6" class="edge"><title>Node6&#45;&gt;Node7</title>
<path fill="none" stroke="midnightblue" d="M474.774,-95.5728C484.517,-98.2236 494.726,-101.383 504,-105 520.855,-111.573 523.207,-117.269 540,-124 545.901,-126.365 552.109,-128.602 558.383,-130.693"/>
<polygon fill="midnightblue" stroke="midnightblue" points="557.67,-134.14 568.261,-133.856 559.805,-127.473 557.67,-134.14"/>
</g>
<!-- Node8 -->
<g id="node8" class="node"><title>Node8</title>
<g id="a_node8"><a xlink:href="class_terrain_manager.html#a41fdd66a57990a5fb33d253213fd04e3" target="_top" xlink:title="TerrainManager::getMaxTerrainSize">
<polygon fill="white" stroke="black" points="543,-95.5 543,-114.5 715,-114.5 715,-95.5 543,-95.5"/>
<text text-anchor="middle" x="629" y="-102.5" font-family="Helvetica,sans-Serif" font-size="10.00">TerrainManager::getMaxTerrainSize</text>
</a>
</g>
</g>
<!-- Node6&#45;&gt;Node8 -->
<g id="edge7" class="edge"><title>Node6&#45;&gt;Node8</title>
<path fill="none" stroke="midnightblue" d="M494.555,-92.064C506.665,-93.238 519.611,-94.4929 532.499,-95.7422"/>
<polygon fill="midnightblue" stroke="midnightblue" points="532.514,-99.2601 542.805,-96.7413 533.19,-92.2927 532.514,-99.2601"/>
</g>
<!-- Node10 -->
<g id="node10" class="node"><title>Node10</title>
<g id="a_node10"><a xlink:href="class_survey_map_manager.html#afdabdbdf87d39f253ecd17af1770a516" target="_top" xlink:title="SurveyMapManager::getWindowSize">
<polygon fill="white" stroke="black" points="540,-57.5 540,-76.5 718,-76.5 718,-57.5 540,-57.5"/>
<text text-anchor="middle" x="629" y="-64.5" font-family="Helvetica,sans-Serif" font-size="10.00">SurveyMapManager::getWindowSize</text>
</a>
</g>
</g>
<!-- Node6&#45;&gt;Node10 -->
<g id="edge9" class="edge"><title>Node6&#45;&gt;Node10</title>
<path fill="none" stroke="midnightblue" d="M494.555,-79.936C505.845,-78.8415 517.862,-77.6767 529.88,-76.5116"/>
<polygon fill="midnightblue" stroke="midnightblue" points="530.345,-79.9831 539.961,-75.5344 529.67,-73.0157 530.345,-79.9831"/>
</g>
<!-- Node11 -->
<g id="node11" class="node"><title>Node11</title>
<g id="a_node11"><a xlink:href="class_survey_map_manager.html#aec8d2ee435b736ae628d3924a6d2b29d" target="_top" xlink:title="SurveyMapManager::getMapSize">
<polygon fill="white" stroke="black" points="548.5,-19.5 548.5,-38.5 709.5,-38.5 709.5,-19.5 548.5,-19.5"/>
<text text-anchor="middle" x="629" y="-26.5" font-family="Helvetica,sans-Serif" font-size="10.00">SurveyMapManager::getMapSize</text>
</a>
</g>
</g>
<!-- Node6&#45;&gt;Node11 -->
<g id="edge10" class="edge"><title>Node6&#45;&gt;Node11</title>
<path fill="none" stroke="midnightblue" d="M456.596,-76.3501C478.304,-68.0738 510.927,-56.2182 540,-48 549.154,-45.4126 558.928,-42.9815 568.512,-40.7788"/>
<polygon fill="midnightblue" stroke="midnightblue" points="569.4,-44.1667 578.395,-38.569 567.872,-37.3354 569.4,-44.1667"/>
</g>
<!-- Node9 -->
<g id="node9" class="node"><title>Node9</title>
<g id="a_node9"><a xlink:href="class_terrain_geometry_manager.html#afead68b5ff7a0b77395065ab8ea855e3" target="_top" xlink:title="TerrainGeometryManager\l::getMaxTerrainSize">
<polygon fill="white" stroke="black" points="754.5,-90 754.5,-120 881.5,-120 881.5,-90 754.5,-90"/>
<text text-anchor="start" x="762.5" y="-108" font-family="Helvetica,sans-Serif" font-size="10.00">TerrainGeometryManager</text>
<text text-anchor="middle" x="818" y="-97" font-family="Helvetica,sans-Serif" font-size="10.00">::getMaxTerrainSize</text>
</a>
</g>
</g>
<!-- Node8&#45;&gt;Node9 -->
<g id="edge8" class="edge"><title>Node8&#45;&gt;Node9</title>
<path fill="none" stroke="midnightblue" d="M715.019,-105C724.726,-105 734.556,-105 744.085,-105"/>
<polygon fill="midnightblue" stroke="midnightblue" points="744.288,-108.5 754.288,-105 744.288,-101.5 744.288,-108.5"/>
</g>
</g>
</svg>
        <g id="navigator" transform="translate(0 0)" fill="#404254">
                <rect fill="#f2f5e9" fill-opacity="0.5" stroke="#606060" stroke-width=".5" x="0" y="0" width="60" height="60"/>
                <use id="zoomplus" xlink:href="#zoomPlus" x="17" y="9" onmousedown="handleZoom(evt,'in')"/>
                <use id="zoomminus" xlink:href="#zoomMin" x="42" y="9" onmousedown="handleZoom(evt,'out')"/>
                <use id="reset" xlink:href="#resetDef" x="30" y="36" onmousedown="handleReset()"/>
                <g id="arrowUp" xlink:href="#dirArrow" transform="translate(30 24)" onmousedown="handlePan(0,-1)">
                  <use xlink:href="#rim" fill="#404040">
                        <set attributeName="fill" to="#808080" begin="arrowUp.mouseover" end="arrowUp.mouseout"/>
                  </use>
                  <path fill="none" stroke="white" stroke-width="1.5" d="M0,-3.0v7 M-2.5,-0.5L0,-3.0L2.5,-0.5"/>
                </g>
                <g id="arrowRight" xlink:href="#dirArrow" transform="rotate(90) translate(36 -43)" onmousedown="handlePan(1,0)">
                  <use xlink:href="#rim" fill="#404040">
                        <set attributeName="fill" to="#808080" begin="arrowRight.mouseover" end="arrowRight.mouseout"/>
                  </use>
                  <path fill="none" stroke="white" stroke-width="1.5" d="M0,-3.0v7 M-2.5,-0.5L0,-3.0L2.5,-0.5"/>
                </g>
                <g id="arrowDown" xlink:href="#dirArrow" transform="rotate(180) translate(-30 -48)" onmousedown="handlePan(0,1)">
                  <use xlink:href="#rim" fill="#404040">
                        <set attributeName="fill" to="#808080" begin="arrowDown.mouseover" end="arrowDown.mouseout"/>
                  </use>
                  <path fill="none" stroke="white" stroke-width="1.5" d="M0,-3.0v7 M-2.5,-0.5L0,-3.0L2.5,-0.5"/>
                </g>
                <g id="arrowLeft" xlink:href="#dirArrow" transform="rotate(270) translate(-36 17)" onmousedown="handlePan(-1,0)">
                  <use xlink:href="#rim" fill="#404040">
                        <set attributeName="fill" to="#808080" begin="arrowLeft.mouseover" end="arrowLeft.mouseout"/>
                  </use>
                  <path fill="none" stroke="white" stroke-width="1.5" d="M0,-3.0v7 M-2.5,-0.5L0,-3.0L2.5,-0.5"/>
                </g>
        </g>
        <svg viewBox="0 0 15 15" width="100%" height="30px" preserveAspectRatio="xMaxYMin meet">
         <g id="arrow_out" transform="scale(0.3 0.3)">
          <a xlink:href="class_character_adb69cfa9a30f3b698e97417d1369824a_cgraph_org.svg" target="_base">
           <rect id="button" ry="5" rx="5" y="6" x="6" height="38" width="38"
                fill="#f2f5e9" fill-opacity="0.5" stroke="#606060" stroke-width="1.0"/>
           <path id="arrow"
             d="M 11.500037,31.436501 C 11.940474,20.09759 22.043105,11.32322 32.158766,21.979434 L 37.068811,17.246167 C 37.068811,17.246167 37.088388,32 37.088388,32 L 22.160133,31.978069 C 22.160133,31.978069 26.997745,27.140456 26.997745,27.140456 C 18.528582,18.264221 13.291696,25.230495 11.500037,31.436501 z"
             style="fill:#404040;"/>
          </a>
         </g>
        </svg>
</svg>
