<?xml version="1.0" encoding="UTF-8" standalone="no"?>
<!DOCTYPE svg PUBLIC "-//W3C//DTD SVG 1.1//EN"
 "http://www.w3.org/Graphics/SVG/1.1/DTD/svg11.dtd">
<!-- Generated by graphviz version 2.36.0 (20140111.2315)
 -->
<!-- Title: DOFManager::DOFManager Pages: 1 -->
<svg width="336pt" height="77pt"
 viewBox="0.00 0.00 336.00 77.00" xmlns="http://www.w3.org/2000/svg" xmlns:xlink="http://www.w3.org/1999/xlink">
<g id="graph0" class="graph" transform="scale(1 1) rotate(0) translate(4 73)">
<title>DOFManager::DOFManager</title>
<polygon fill="white" stroke="none" points="-4,4 -4,-73 332,-73 332,4 -4,4"/>
<!-- Node1 -->
<g id="node1" class="node"><title>Node1</title>
<polygon fill="#bfbfbf" stroke="black" points="0,-27.5 0,-46.5 140,-46.5 140,-27.5 0,-27.5"/>
<text text-anchor="middle" x="70" y="-34.5" font-family="Helvetica,sans-Serif" font-size="10.00">DOFManager::DOFManager</text>
</g>
<!-- Node2 -->
<g id="node2" class="node"><title>Node2</title>
<g id="a_node2"><a xlink:href="namespace_ro_r_1_1_app.html#ab0161218de3dc36879f3e69b84238eba" target="_top" xlink:title="RoR::App::GetOgreSubsystem">
<polygon fill="white" stroke="black" points="176,-49.5 176,-68.5 328,-68.5 328,-49.5 176,-49.5"/>
<text text-anchor="middle" x="252" y="-56.5" font-family="Helvetica,sans-Serif" font-size="10.00">RoR::App::GetOgreSubsystem</text>
</a>
</g>
</g>
<!-- Node1&#45;&gt;Node2 -->
<g id="edge1" class="edge"><title>Node1&#45;&gt;Node2</title>
<path fill="none" stroke="midnightblue" d="M140.078,-45.4429C148.486,-46.4706 157.153,-47.5298 165.761,-48.5819"/>
<polygon fill="midnightblue" stroke="midnightblue" points="165.47,-52.0723 175.821,-49.8114 166.319,-45.124 165.47,-52.0723"/>
</g>
<!-- Node3 -->
<g id="node3" class="node"><title>Node3</title>
<g id="a_node3"><a xlink:href="class_ro_r_1_1_ogre_subsystem.html#a2f68e736be01d118cae03e831b38a9df" target="_top" xlink:title="RoR::OgreSubsystem\l::GetOgreRoot">
<polygon fill="white" stroke="black" points="195.5,-0 195.5,-30 308.5,-30 308.5,-0 195.5,-0"/>
<text text-anchor="start" x="203.5" y="-18" font-family="Helvetica,sans-Serif" font-size="10.00">RoR::OgreSubsystem</text>
<text text-anchor="middle" x="252" y="-7" font-family="Helvetica,sans-Serif" font-size="10.00">::GetOgreRoot</text>
</a>
</g>
</g>
<!-- Node1&#45;&gt;Node3 -->
<g id="edge2" class="edge"><title>Node1&#45;&gt;Node3</title>
<path fill="none" stroke="midnightblue" d="M140.078,-28.5571C154.9,-26.7456 170.523,-24.8361 185.216,-23.0403"/>
<polygon fill="midnightblue" stroke="midnightblue" points="185.717,-26.5052 195.218,-21.8178 184.867,-19.5569 185.717,-26.5052"/>
</g>
</g>
</svg>
