<?xml version="1.0" encoding="UTF-8" standalone="no"?>
<!DOCTYPE svg PUBLIC "-//W3C//DTD SVG 1.1//EN"
 "http://www.w3.org/Graphics/SVG/1.1/DTD/svg11.dtd">
<!-- Generated by graphviz version 2.36.0 (20140111.2315)
 -->
<!-- Title: Beam::GetGfxActor Pages: 1 -->
<svg width="1638pt" height="630pt"
 viewBox="0.00 0.00 1638.00 630.25" xmlns="http://www.w3.org/2000/svg" xmlns:xlink="http://www.w3.org/1999/xlink">
<g id="graph0" class="graph" transform="scale(1 1) rotate(0) translate(4 626.246)">
<title>Beam::GetGfxActor</title>
<polygon fill="white" stroke="none" points="-4,4 -4,-626.246 1634,-626.246 1634,4 -4,4"/>
<!-- Node1 -->
<g id="node1" class="node"><title>Node1</title>
<polygon fill="#bfbfbf" stroke="black" points="0.5,-28.5 0.5,-47.5 103.5,-47.5 103.5,-28.5 0.5,-28.5"/>
<text text-anchor="middle" x="52" y="-35.5" font-family="Helvetica,sans-Serif" font-size="10.00">Beam::GetGfxActor</text>
</g>
<!-- Node2 -->
<g id="node2" class="node"><title>Node2</title>
<g id="a_node2"><a xlink:href="class_ro_r_frame_listener.html#afec2a0f00ed552c21d22aae76329bf38" target="_top" xlink:title="RoRFrameListener::Update\lInputEvents">
<polygon fill="white" stroke="black" points="1087.5,-154 1087.5,-184 1224.5,-184 1224.5,-154 1087.5,-154"/>
<text text-anchor="start" x="1095.5" y="-172" font-family="Helvetica,sans-Serif" font-size="10.00">RoRFrameListener::Update</text>
<text text-anchor="middle" x="1156" y="-161" font-family="Helvetica,sans-Serif" font-size="10.00">InputEvents</text>
</a>
</g>
</g>
<!-- Node1&#45;&gt;Node2 -->
<g id="edge1" class="edge"><title>Node1&#45;&gt;Node2</title>
<path fill="none" stroke="midnightblue" d="M113.745,-38C182.302,-38 297.162,-38 396,-38 396,-38 396,-38 787,-38 901.805,-38 939.609,-16.2218 1044,-64 1088.62,-84.4232 1126.72,-130.163 1144.42,-153.963"/>
<polygon fill="midnightblue" stroke="midnightblue" points="113.562,-34.5001 103.562,-38 113.562,-41.5001 113.562,-34.5001"/>
</g>
<!-- Node3 -->
<g id="node3" class="node"><title>Node3</title>
<g id="a_node3"><a xlink:href="class_ro_r_frame_listener.html#acd8647e188fb8e838689492965b86faf" target="_top" xlink:title="RoRFrameListener::frameStarted">
<polygon fill="white" stroke="black" points="1285.5,-75.5 1285.5,-94.5 1446.5,-94.5 1446.5,-75.5 1285.5,-75.5"/>
<text text-anchor="middle" x="1366" y="-82.5" font-family="Helvetica,sans-Serif" font-size="10.00">RoRFrameListener::frameStarted</text>
</a>
</g>
</g>
<!-- Node1&#45;&gt;Node3 -->
<g id="edge3" class="edge"><title>Node1&#45;&gt;Node3</title>
<path fill="none" stroke="midnightblue" d="M113.815,-27.1599C182.206,-15.9282 296.699,-0 396,-0 396,-0 396,-0 970,-0 1112.05,-0 1276.52,-53.185 1339.07,-75.4146"/>
<polygon fill="midnightblue" stroke="midnightblue" points="112.946,-23.7563 103.655,-28.8497 114.094,-30.6615 112.946,-23.7563"/>
</g>
<!-- Node4 -->
<g id="node4" class="node"><title>Node4</title>
<g id="a_node4"><a xlink:href="class_ro_r_frame_listener.html#ad309b37d305d55def42d92f17abed557" target="_top" xlink:title="RoRFrameListener::Changed\lCurrentVehicle">
<polygon fill="white" stroke="black" points="140,-132 140,-162 284,-162 284,-132 140,-132"/>
<text text-anchor="start" x="148" y="-150" font-family="Helvetica,sans-Serif" font-size="10.00">RoRFrameListener::Changed</text>
<text text-anchor="middle" x="212" y="-139" font-family="Helvetica,sans-Serif" font-size="10.00">CurrentVehicle</text>
</a>
</g>
</g>
<!-- Node1&#45;&gt;Node4 -->
<g id="edge4" class="edge"><title>Node1&#45;&gt;Node4</title>
<path fill="none" stroke="midnightblue" d="M75.6162,-53.6023C105.857,-74.4646 159.117,-111.207 189.027,-131.841"/>
<polygon fill="midnightblue" stroke="midnightblue" points="77.2403,-50.4707 67.0214,-47.673 73.2652,-56.2326 77.2403,-50.4707"/>
</g>
<!-- Node2&#45;&gt;Node3 -->
<g id="edge2" class="edge"><title>Node2&#45;&gt;Node3</title>
<path fill="none" stroke="midnightblue" d="M1203.55,-150.202C1246.33,-132.925 1308.01,-108.015 1341.39,-94.5343"/>
<polygon fill="midnightblue" stroke="midnightblue" points="1202.15,-146.992 1194.19,-153.982 1204.77,-153.483 1202.15,-146.992"/>
</g>
<!-- Node5 -->
<g id="node5" class="node"><title>Node5</title>
<g id="a_node5"><a xlink:href="class_ro_r_1_1_beam_factory.html#ac70a8aa131a6709ebf05dc3c0f6dab10" target="_top" xlink:title="RoR::BeamFactory::setCurrent\lTruck">
<polygon fill="white" stroke="black" points="320.5,-220 320.5,-250 473.5,-250 473.5,-220 320.5,-220"/>
<text text-anchor="start" x="328.5" y="-238" font-family="Helvetica,sans-Serif" font-size="10.00">RoR::BeamFactory::setCurrent</text>
<text text-anchor="middle" x="397" y="-227" font-family="Helvetica,sans-Serif" font-size="10.00">Truck</text>
</a>
</g>
</g>
<!-- Node4&#45;&gt;Node5 -->
<g id="edge5" class="edge"><title>Node4&#45;&gt;Node5</title>
<path fill="none" stroke="midnightblue" d="M253.531,-166.49C287.044,-182.606 333.951,-205.162 364.646,-219.923"/>
<polygon fill="midnightblue" stroke="midnightblue" points="254.988,-163.307 244.459,-162.128 251.954,-169.616 254.988,-163.307"/>
</g>
<!-- Node5&#45;&gt;Node2 -->
<g id="edge6" class="edge"><title>Node5&#45;&gt;Node2</title>
<path fill="none" stroke="midnightblue" d="M483.857,-231C633.995,-223.74 938.322,-207.777 1044,-193 1060.11,-190.747 1077.36,-187.454 1093.35,-184.025"/>
<polygon fill="midnightblue" stroke="midnightblue" points="483.576,-227.509 473.756,-231.486 483.913,-234.501 483.576,-227.509"/>
</g>
<!-- Node6 -->
<g id="node6" class="node"><title>Node6</title>
<g id="a_node6"><a xlink:href="class_ro_r_frame_listener.html#abc123f9d1e56e13a72e5f80fdaa5a17e" target="_top" xlink:title="RoRFrameListener::Finalize\lTruckSpawning">
<polygon fill="white" stroke="black" points="899.5,-154 899.5,-184 1038.5,-184 1038.5,-154 899.5,-154"/>
<text text-anchor="start" x="907.5" y="-172" font-family="Helvetica,sans-Serif" font-size="10.00">RoRFrameListener::Finalize</text>
<text text-anchor="middle" x="969" y="-161" font-family="Helvetica,sans-Serif" font-size="10.00">TruckSpawning</text>
</a>
</g>
</g>
<!-- Node5&#45;&gt;Node6 -->
<g id="edge7" class="edge"><title>Node5&#45;&gt;Node6</title>
<path fill="none" stroke="midnightblue" d="M446.348,-216.592C465.841,-209.929 488.717,-203.054 510,-199 646.398,-173.022 809.307,-168.509 899.443,-168.277"/>
<polygon fill="midnightblue" stroke="midnightblue" points="445.066,-213.332 436.781,-219.936 447.375,-219.94 445.066,-213.332"/>
</g>
<!-- Node7 -->
<g id="node7" class="node"><title>Node7</title>
<g id="a_node7"><a xlink:href="class_ro_r_frame_listener.html#a74e44d8907e7f6ffddedd260f307a764" target="_top" xlink:title="RoRFrameListener::Reload\lCurrentTruck">
<polygon fill="white" stroke="black" points="901,-465 901,-495 1037,-495 1037,-465 901,-465"/>
<text text-anchor="start" x="909" y="-483" font-family="Helvetica,sans-Serif" font-size="10.00">RoRFrameListener::Reload</text>
<text text-anchor="middle" x="969" y="-472" font-family="Helvetica,sans-Serif" font-size="10.00">CurrentTruck</text>
</a>
</g>
</g>
<!-- Node5&#45;&gt;Node7 -->
<g id="edge9" class="edge"><title>Node5&#45;&gt;Node7</title>
<path fill="none" stroke="midnightblue" d="M413.507,-259.024C433.128,-287.918 469.31,-336.461 510,-368 589.501,-429.621 616.577,-440.973 714,-466 775.917,-481.906 849.021,-484.3 900.866,-483.378"/>
<polygon fill="midnightblue" stroke="midnightblue" points="416.198,-256.751 407.733,-250.379 410.377,-260.639 416.198,-256.751"/>
</g>
<!-- Node8 -->
<g id="node8" class="node"><title>Node8</title>
<g id="a_node8"><a xlink:href="class_ro_r_1_1_g_u_i_1_1_top_menubar.html#ad1c44bd3c1247dcd8b876ff7728fac32" target="_top" xlink:title="RoR::GUI::TopMenubar\l::onMenuBtn">
<polygon fill="white" stroke="black" points="1095.5,-553 1095.5,-583 1216.5,-583 1216.5,-553 1095.5,-553"/>
<text text-anchor="start" x="1103.5" y="-571" font-family="Helvetica,sans-Serif" font-size="10.00">RoR::GUI::TopMenubar</text>
<text text-anchor="middle" x="1156" y="-560" font-family="Helvetica,sans-Serif" font-size="10.00">::onMenuBtn</text>
</a>
</g>
</g>
<!-- Node5&#45;&gt;Node8 -->
<g id="edge16" class="edge"><title>Node5&#45;&gt;Node8</title>
<path fill="none" stroke="midnightblue" d="M398.625,-260.47C401.627,-320.529 418.386,-470.977 510,-538 691.4,-670.708 984.302,-613.944 1102.78,-583.094"/>
<polygon fill="midnightblue" stroke="midnightblue" points="402.117,-260.196 398.21,-250.348 395.123,-260.483 402.117,-260.196"/>
</g>
<!-- Node10 -->
<g id="node10" class="node"><title>Node10</title>
<g id="a_node10"><a xlink:href="class_ro_r_frame_listener.html#aca3931d7a75f2ad4b9d36c4fcd03a3c9" target="_top" xlink:title="RoRFrameListener::SetupGameplayLoop">
<polygon fill="white" stroke="black" points="1268,-426.5 1268,-445.5 1464,-445.5 1464,-426.5 1268,-426.5"/>
<text text-anchor="middle" x="1366" y="-433.5" font-family="Helvetica,sans-Serif" font-size="10.00">RoRFrameListener::SetupGameplayLoop</text>
</a>
</g>
</g>
<!-- Node5&#45;&gt;Node10 -->
<g id="edge13" class="edge"><title>Node5&#45;&gt;Node10</title>
<path fill="none" stroke="midnightblue" d="M406.121,-259.622C420.65,-299.996 454.836,-380.342 510,-426 609.955,-508.73 655.249,-524 785,-524 785,-524 785,-524 970,-524 1112.97,-524 1278.24,-468.393 1340.02,-445.585"/>
<polygon fill="midnightblue" stroke="midnightblue" points="409.375,-258.322 402.773,-250.036 402.766,-260.631 409.375,-258.322"/>
</g>
<!-- Node13 -->
<g id="node13" class="node"><title>Node13</title>
<g id="a_node13"><a xlink:href="class_ro_r_1_1_beam_factory.html#a5dcf02227633d77e77f39fc43317dc6b" target="_top" xlink:title="RoR::BeamFactory::Delete\lTruck">
<polygon fill="white" stroke="black" points="526,-329 526,-359 662,-359 662,-329 526,-329"/>
<text text-anchor="start" x="534" y="-347" font-family="Helvetica,sans-Serif" font-size="10.00">RoR::BeamFactory::Delete</text>
<text text-anchor="middle" x="594" y="-336" font-family="Helvetica,sans-Serif" font-size="10.00">Truck</text>
</a>
</g>
</g>
<!-- Node5&#45;&gt;Node13 -->
<g id="edge17" class="edge"><title>Node5&#45;&gt;Node13</title>
<path fill="none" stroke="midnightblue" d="M433.87,-255.05C472.095,-276.417 531.739,-309.756 566.116,-328.973"/>
<polygon fill="midnightblue" stroke="midnightblue" points="435.551,-251.98 425.114,-250.156 432.135,-258.09 435.551,-251.98"/>
</g>
<!-- Node20 -->
<g id="node20" class="node"><title>Node20</title>
<g id="a_node20"><a xlink:href="class_ro_r_1_1_beam_factory.html#abcdedea5c3b7dab93c09ff70d904e038" target="_top" xlink:title="RoR::BeamFactory::enterNext\lTruck">
<polygon fill="white" stroke="black" points="894,-105 894,-135 1044,-135 1044,-105 894,-105"/>
<text text-anchor="start" x="902" y="-123" font-family="Helvetica,sans-Serif" font-size="10.00">RoR::BeamFactory::enterNext</text>
<text text-anchor="middle" x="969" y="-112" font-family="Helvetica,sans-Serif" font-size="10.00">Truck</text>
</a>
</g>
</g>
<!-- Node5&#45;&gt;Node20 -->
<g id="edge28" class="edge"><title>Node5&#45;&gt;Node20</title>
<path fill="none" stroke="midnightblue" d="M428.072,-214.49C449.846,-200.698 480.515,-183.381 510,-174 640.657,-132.429 801.459,-122.311 893.607,-120.168"/>
<polygon fill="midnightblue" stroke="midnightblue" points="426.105,-211.594 419.605,-219.961 429.904,-217.474 426.105,-211.594"/>
</g>
<!-- Node21 -->
<g id="node21" class="node"><title>Node21</title>
<g id="a_node21"><a xlink:href="class_ro_r_1_1_beam_factory.html#a4d3987d8687c75d3eeac5352c86160e0" target="_top" xlink:title="RoR::BeamFactory::enterPrevious\lTruck">
<polygon fill="white" stroke="black" points="510.5,-68 510.5,-98 677.5,-98 677.5,-68 510.5,-68"/>
<text text-anchor="start" x="518.5" y="-86" font-family="Helvetica,sans-Serif" font-size="10.00">RoR::BeamFactory::enterPrevious</text>
<text text-anchor="middle" x="594" y="-75" font-family="Helvetica,sans-Serif" font-size="10.00">Truck</text>
</a>
</g>
</g>
<!-- Node5&#45;&gt;Node21 -->
<g id="edge30" class="edge"><title>Node5&#45;&gt;Node21</title>
<path fill="none" stroke="midnightblue" d="M415.464,-211.701C435.787,-185.917 471.509,-144.511 510,-118 521.462,-110.105 534.987,-103.469 547.754,-98.1714"/>
<polygon fill="midnightblue" stroke="midnightblue" points="412.544,-209.756 409.18,-219.802 418.075,-214.046 412.544,-209.756"/>
</g>
<!-- Node22 -->
<g id="node22" class="node"><title>Node22</title>
<g id="a_node22"><a xlink:href="class_ro_r_1_1_beam_factory.html#a297cce523629edad68ff2c05bcaa44ac" target="_top" xlink:title="RoR::BeamFactory::enterRescue\lTruck">
<polygon fill="white" stroke="black" points="512.5,-242 512.5,-272 675.5,-272 675.5,-242 512.5,-242"/>
<text text-anchor="start" x="520.5" y="-260" font-family="Helvetica,sans-Serif" font-size="10.00">RoR::BeamFactory::enterRescue</text>
<text text-anchor="middle" x="594" y="-249" font-family="Helvetica,sans-Serif" font-size="10.00">Truck</text>
</a>
</g>
</g>
<!-- Node5&#45;&gt;Node22 -->
<g id="edge32" class="edge"><title>Node5&#45;&gt;Node22</title>
<path fill="none" stroke="midnightblue" d="M483.83,-244.683C493.261,-245.747 502.84,-246.828 512.207,-247.885"/>
<polygon fill="midnightblue" stroke="midnightblue" points="484.001,-241.181 473.671,-243.537 483.216,-248.136 484.001,-241.181"/>
</g>
<!-- Node6&#45;&gt;Node2 -->
<g id="edge8" class="edge"><title>Node6&#45;&gt;Node2</title>
<path fill="none" stroke="midnightblue" d="M1048.83,-169C1061.67,-169 1074.87,-169 1087.41,-169"/>
<polygon fill="midnightblue" stroke="midnightblue" points="1048.62,-165.5 1038.62,-169 1048.62,-172.5 1048.62,-165.5"/>
</g>
<!-- Node7&#45;&gt;Node2 -->
<g id="edge10" class="edge"><title>Node7&#45;&gt;Node2</title>
<path fill="none" stroke="midnightblue" d="M1000.33,-458.714C1014.94,-447.317 1031.87,-432.286 1044,-416 1102.12,-337.945 1138.82,-224.625 1150.74,-184.104"/>
<polygon fill="midnightblue" stroke="midnightblue" points="997.904,-456.158 992.047,-464.987 1002.13,-461.738 997.904,-456.158"/>
</g>
<!-- Node7&#45;&gt;Node8 -->
<g id="edge11" class="edge"><title>Node7&#45;&gt;Node8</title>
<path fill="none" stroke="midnightblue" d="M1010.97,-499.49C1044.85,-515.606 1092.27,-538.162 1123.3,-552.923"/>
<polygon fill="midnightblue" stroke="midnightblue" points="1012.34,-496.263 1001.8,-495.128 1009.33,-502.584 1012.34,-496.263"/>
</g>
<!-- Node9 -->
<g id="node9" class="node"><title>Node9</title>
<g id="a_node9"><a xlink:href="class_ro_r_1_1_g_u_i_1_1_top_menubar.html#aba4f8b1030da3a9d3b4394562d60a05a" target="_top" xlink:title="RoR::GUI::TopMenubar\l::TopMenubar">
<polygon fill="white" stroke="black" points="1305.5,-553 1305.5,-583 1426.5,-583 1426.5,-553 1305.5,-553"/>
<text text-anchor="start" x="1313.5" y="-571" font-family="Helvetica,sans-Serif" font-size="10.00">RoR::GUI::TopMenubar</text>
<text text-anchor="middle" x="1366" y="-560" font-family="Helvetica,sans-Serif" font-size="10.00">::TopMenubar</text>
</a>
</g>
</g>
<!-- Node8&#45;&gt;Node9 -->
<g id="edge12" class="edge"><title>Node8&#45;&gt;Node9</title>
<path fill="none" stroke="midnightblue" d="M1226.93,-568C1252.39,-568 1280.91,-568 1305.39,-568"/>
<polygon fill="midnightblue" stroke="midnightblue" points="1226.6,-564.5 1216.6,-568 1226.6,-571.5 1226.6,-564.5"/>
</g>
<!-- Node11 -->
<g id="node11" class="node"><title>Node11</title>
<g id="a_node11"><a xlink:href="main_8cpp.html#a0ddf1224851353fc92bfbff6f499fa97" target="_top" xlink:title="main">
<polygon fill="white" stroke="black" points="1500,-426.5 1500,-445.5 1538,-445.5 1538,-426.5 1500,-426.5"/>
<text text-anchor="middle" x="1519" y="-433.5" font-family="Helvetica,sans-Serif" font-size="10.00">main</text>
</a>
</g>
</g>
<!-- Node10&#45;&gt;Node11 -->
<g id="edge14" class="edge"><title>Node10&#45;&gt;Node11</title>
<path fill="none" stroke="midnightblue" d="M1474.52,-436C1484.03,-436 1492.71,-436 1499.77,-436"/>
<polygon fill="midnightblue" stroke="midnightblue" points="1474.34,-432.5 1464.34,-436 1474.34,-439.5 1474.34,-432.5"/>
</g>
<!-- Node12 -->
<g id="node12" class="node"><title>Node12</title>
<g id="a_node12"><a xlink:href="main_8cpp.html#a2922bc5d5c2d77a3020cfbf9df12aab0" target="_top" xlink:title="WinMain">
<polygon fill="white" stroke="black" points="1574.5,-426.5 1574.5,-445.5 1629.5,-445.5 1629.5,-426.5 1574.5,-426.5"/>
<text text-anchor="middle" x="1602" y="-433.5" font-family="Helvetica,sans-Serif" font-size="10.00">WinMain</text>
</a>
</g>
</g>
<!-- Node11&#45;&gt;Node12 -->
<g id="edge15" class="edge"><title>Node11&#45;&gt;Node12</title>
<path fill="none" stroke="midnightblue" d="M1548.51,-436C1556.93,-436 1566.11,-436 1574.4,-436"/>
<polygon fill="midnightblue" stroke="midnightblue" points="1548.38,-432.5 1538.38,-436 1548.38,-439.5 1548.38,-432.5"/>
</g>
<!-- Node14 -->
<g id="node14" class="node"><title>Node14</title>
<g id="a_node14"><a xlink:href="class_ro_r_1_1_beam_factory.html#aa770c50decf07b87d7ac747b64b8e3e5" target="_top" xlink:title="RoR::BeamFactory::Create\lLocalRigInstance">
<polygon fill="white" stroke="black" points="717.5,-427 717.5,-457 854.5,-457 854.5,-427 717.5,-427"/>
<text text-anchor="start" x="725.5" y="-445" font-family="Helvetica,sans-Serif" font-size="10.00">RoR::BeamFactory::Create</text>
<text text-anchor="middle" x="786" y="-434" font-family="Helvetica,sans-Serif" font-size="10.00">LocalRigInstance</text>
</a>
</g>
</g>
<!-- Node13&#45;&gt;Node14 -->
<g id="edge18" class="edge"><title>Node13&#45;&gt;Node14</title>
<path fill="none" stroke="midnightblue" d="M625.046,-364.901C648.524,-380.615 682.371,-401.939 714,-417 721.551,-420.596 729.764,-423.956 737.837,-426.974"/>
<polygon fill="midnightblue" stroke="midnightblue" points="626.826,-361.88 616.582,-359.178 622.905,-367.679 626.826,-361.88"/>
</g>
<!-- Node17 -->
<g id="node17" class="node"><title>Node17</title>
<g id="a_node17"><a xlink:href="class_ro_r_1_1_beam_factory.html#a32e01669e8f438abae20a1a463dcb355" target="_top" xlink:title="RoR::BeamFactory::Create\lRemoteInstance">
<polygon fill="white" stroke="black" points="717.5,-280 717.5,-310 854.5,-310 854.5,-280 717.5,-280"/>
<text text-anchor="start" x="725.5" y="-298" font-family="Helvetica,sans-Serif" font-size="10.00">RoR::BeamFactory::Create</text>
<text text-anchor="middle" x="786" y="-287" font-family="Helvetica,sans-Serif" font-size="10.00">RemoteInstance</text>
</a>
</g>
</g>
<!-- Node13&#45;&gt;Node17 -->
<g id="edge25" class="edge"><title>Node13&#45;&gt;Node17</title>
<path fill="none" stroke="midnightblue" d="M663.05,-326.45C683.915,-321.069 706.67,-315.201 726.813,-310.006"/>
<polygon fill="midnightblue" stroke="midnightblue" points="662.107,-323.079 653.297,-328.965 663.855,-329.857 662.107,-323.079"/>
</g>
<!-- Node18 -->
<g id="node18" class="node"><title>Node18</title>
<g id="a_node18"><a xlink:href="class_ro_r_1_1_beam_factory.html#aa61f694b6230afbdc91bc33ef6acd73f" target="_top" xlink:title="RoR::BeamFactory::Remove\lStreamSource">
<polygon fill="white" stroke="black" points="714,-378 714,-408 858,-408 858,-378 714,-378"/>
<text text-anchor="start" x="722" y="-396" font-family="Helvetica,sans-Serif" font-size="10.00">RoR::BeamFactory::Remove</text>
<text text-anchor="middle" x="786" y="-385" font-family="Helvetica,sans-Serif" font-size="10.00">StreamSource</text>
</a>
</g>
</g>
<!-- Node13&#45;&gt;Node18 -->
<g id="edge26" class="edge"><title>Node13&#45;&gt;Node18</title>
<path fill="none" stroke="midnightblue" d="M663.05,-361.55C683.915,-366.931 706.67,-372.799 726.813,-377.994"/>
<polygon fill="midnightblue" stroke="midnightblue" points="663.855,-358.143 653.297,-359.035 662.107,-364.921 663.855,-358.143"/>
</g>
<!-- Node19 -->
<g id="node19" class="node"><title>Node19</title>
<g id="a_node19"><a xlink:href="class_ro_r_1_1_beam_factory.html#a49a4ee797005fff135d8f88a085986a0" target="_top" xlink:title="RoR::BeamFactory::remove\lTruck">
<polygon fill="white" stroke="black" points="716,-329 716,-359 856,-359 856,-329 716,-329"/>
<text text-anchor="start" x="724" y="-347" font-family="Helvetica,sans-Serif" font-size="10.00">RoR::BeamFactory::remove</text>
<text text-anchor="middle" x="786" y="-336" font-family="Helvetica,sans-Serif" font-size="10.00">Truck</text>
</a>
</g>
</g>
<!-- Node13&#45;&gt;Node19 -->
<g id="edge27" class="edge"><title>Node13&#45;&gt;Node19</title>
<path fill="none" stroke="midnightblue" d="M672.586,-344C686.935,-344 701.833,-344 715.91,-344"/>
<polygon fill="midnightblue" stroke="midnightblue" points="672.254,-340.5 662.254,-344 672.254,-347.5 672.254,-340.5"/>
</g>
<!-- Node14&#45;&gt;Node2 -->
<g id="edge19" class="edge"><title>Node14&#45;&gt;Node2</title>
<path fill="none" stroke="midnightblue" d="M850.151,-422.195C852.884,-420.588 855.517,-418.859 858,-417 879.92,-400.589 874.379,-386.101 894,-367 951.767,-310.764 980.07,-314.118 1044,-265 1078.95,-238.146 1117.36,-203.745 1138.58,-184.262"/>
<polygon fill="midnightblue" stroke="midnightblue" points="848.367,-419.179 841.138,-426.925 851.619,-425.378 848.367,-419.179"/>
</g>
<!-- Node14&#45;&gt;Node7 -->
<g id="edge20" class="edge"><title>Node14&#45;&gt;Node7</title>
<path fill="none" stroke="midnightblue" d="M864.65,-458.302C876.657,-460.823 888.973,-463.409 900.728,-465.877"/>
<polygon fill="midnightblue" stroke="midnightblue" points="865.161,-454.833 854.655,-456.204 863.723,-461.684 865.161,-454.833"/>
</g>
<!-- Node14&#45;&gt;Node10 -->
<g id="edge21" class="edge"><title>Node14&#45;&gt;Node10</title>
<path fill="none" stroke="midnightblue" d="M864.87,-441.192C969.235,-440.108 1154.44,-438.186 1267.82,-437.009"/>
<polygon fill="midnightblue" stroke="midnightblue" points="864.682,-437.693 854.719,-441.297 864.755,-444.693 864.682,-437.693"/>
</g>
<!-- Node15 -->
<g id="node15" class="node"><title>Node15</title>
<g id="a_node15"><a xlink:href="class_terrain_object_manager.html#a202d577cb222f42c46e5b6600c9626a4" target="_top" xlink:title="TerrainObjectManager\l::loadPreloadedTrucks">
<polygon fill="white" stroke="black" points="912,-377 912,-407 1026,-407 1026,-377 912,-377"/>
<text text-anchor="start" x="920" y="-395" font-family="Helvetica,sans-Serif" font-size="10.00">TerrainObjectManager</text>
<text text-anchor="middle" x="969" y="-384" font-family="Helvetica,sans-Serif" font-size="10.00">::loadPreloadedTrucks</text>
</a>
</g>
</g>
<!-- Node14&#45;&gt;Node15 -->
<g id="edge22" class="edge"><title>Node14&#45;&gt;Node15</title>
<path fill="none" stroke="midnightblue" d="M851.124,-424.286C871.485,-418.662 893.797,-412.498 913.42,-407.077"/>
<polygon fill="midnightblue" stroke="midnightblue" points="850.013,-420.962 841.306,-426.998 851.877,-427.709 850.013,-420.962"/>
</g>
<!-- Node16 -->
<g id="node16" class="node"><title>Node16</title>
<g id="a_node16"><a xlink:href="class_terrain_manager.html#ac666fc0221c16001186b83cd6df66691" target="_top" xlink:title="TerrainManager::loadPreloaded\lTrucks">
<polygon fill="white" stroke="black" points="1080,-377 1080,-407 1232,-407 1232,-377 1080,-377"/>
<text text-anchor="start" x="1088" y="-395" font-family="Helvetica,sans-Serif" font-size="10.00">TerrainManager::loadPreloaded</text>
<text text-anchor="middle" x="1156" y="-384" font-family="Helvetica,sans-Serif" font-size="10.00">Trucks</text>
</a>
</g>
</g>
<!-- Node15&#45;&gt;Node16 -->
<g id="edge23" class="edge"><title>Node15&#45;&gt;Node16</title>
<path fill="none" stroke="midnightblue" d="M1036.12,-392C1050.25,-392 1065.27,-392 1079.71,-392"/>
<polygon fill="midnightblue" stroke="midnightblue" points="1036.01,-388.5 1026.01,-392 1036.01,-395.5 1036.01,-388.5"/>
</g>
<!-- Node16&#45;&gt;Node10 -->
<g id="edge24" class="edge"><title>Node16&#45;&gt;Node10</title>
<path fill="none" stroke="midnightblue" d="M1238.14,-409.164C1265.98,-415.053 1296.12,-421.429 1320.03,-426.488"/>
<polygon fill="midnightblue" stroke="midnightblue" points="1238.51,-405.665 1228,-407.019 1237.06,-412.513 1238.51,-405.665"/>
</g>
<!-- Node20&#45;&gt;Node2 -->
<g id="edge29" class="edge"><title>Node20&#45;&gt;Node2</title>
<path fill="none" stroke="midnightblue" d="M1036.54,-137.623C1056.78,-142.984 1078.82,-148.823 1098.34,-153.994"/>
<polygon fill="midnightblue" stroke="midnightblue" points="1037.33,-134.212 1026.76,-135.035 1035.53,-140.978 1037.33,-134.212"/>
</g>
<!-- Node21&#45;&gt;Node2 -->
<g id="edge31" class="edge"><title>Node21&#45;&gt;Node2</title>
<path fill="none" stroke="midnightblue" d="M687.731,-70.7924C780.293,-61.9738 925.437,-57.3657 1044,-95 1081.75,-106.982 1118.59,-135.974 1138.9,-153.906"/>
<polygon fill="midnightblue" stroke="midnightblue" points="687.154,-67.3323 677.547,-71.7999 687.843,-74.2983 687.154,-67.3323"/>
</g>
<!-- Node22&#45;&gt;Node2 -->
<g id="edge33" class="edge"><title>Node22&#45;&gt;Node2</title>
<path fill="none" stroke="midnightblue" d="M685.882,-261.772C777.918,-264.106 923.484,-260.888 1044,-227 1076.86,-217.76 1111.17,-198.039 1132.78,-184.167"/>
<polygon fill="midnightblue" stroke="midnightblue" points="685.855,-258.27 675.761,-261.487 685.659,-265.267 685.855,-258.27"/>
</g>
</g>
</svg>
