<?xml version="1.0" encoding="UTF-8" standalone="no"?>
<!DOCTYPE svg PUBLIC "-//W3C//DTD SVG 1.1//EN"
 "http://www.w3.org/Graphics/SVG/1.1/DTD/svg11.dtd">
<!-- Generated by graphviz version 2.36.0 (20140111.2315)
 -->
<!-- Title: Character::update Pages: 1 -->
<!--zoomable 913 -->
<svg id="main" version="1.1" xmlns="http://www.w3.org/2000/svg" xmlns:xlink="http://www.w3.org/1999/xlink" xml:space="preserve" onload="init(evt)">
<style type="text/css"><![CDATA[
.edge:hover path { stroke: red; }
.edge:hover polygon { stroke: red; fill: red; }
]]></style>
<script type="text/javascript"><![CDATA[
var edges = document.getElementsByTagName('g');
if (edges && edges.length) {
  for (var i=0;i<edges.length;i++) {
    if (edges[i].id.substr(0,4)=='edge') {
      edges[i].setAttribute('class','edge');
    }
  }
}
]]></script>
        <defs>
                <circle id="rim" cx="0" cy="0" r="7"/>
                <circle id="rim2" cx="0" cy="0" r="3.5"/>
                <g id="zoomPlus">
                        <use xlink:href="#rim" fill="#404040">
                                <set attributeName="fill" to="#808080" begin="zoomplus.mouseover" end="zoomplus.mouseout"/>
                        </use>
                        <path d="M-4,0h8M0,-4v8" fill="none" stroke="white" stroke-width="1.5" pointer-events="none"/>
                </g>
                <g id="zoomMin">
                        <use xlink:href="#rim" fill="#404040">
                                <set attributeName="fill" to="#808080" begin="zoomminus.mouseover" end="zoomminus.mouseout"/>
                        </use>
                        <path d="M-4,0h8" fill="none" stroke="white" stroke-width="1.5" pointer-events="none"/>
                </g>
                <g id="dirArrow">
                        <path fill="none" stroke="white" stroke-width="1.5" d="M0,-3.0v7 M-2.5,-0.5L0,-3.0L2.5,-0.5"/>
                </g>
               <g id="resetDef">
                       <use xlink:href="#rim2" fill="#404040">
                               <set attributeName="fill" to="#808080" begin="reset.mouseover" end="reset.mouseout"/>
                       </use>
               </g>
        </defs>

<script type="text/javascript">
var viewWidth = 1226;
var viewHeight = 913;
var sectionId = 'dynsection-27';
</script>
<script xlink:href="svgpan.js"/>
<svg id="graph" class="graph">
<g id="viewport">
<title>Character::update</title>
<polygon fill="white" stroke="none" points="-4,4 -4,-909 1222,-909 1222,4 -4,4"/>
<!-- Node1 -->
<g id="node1" class="node"><title>Node1</title>
<polygon fill="#bfbfbf" stroke="black" points="0.5,-373.5 0.5,-392.5 95.5,-392.5 95.5,-373.5 0.5,-373.5"/>
<text text-anchor="middle" x="48" y="-380.5" font-family="Helvetica,sans-Serif" font-size="10.00">Character::update</text>
</g>
<!-- Node2 -->
<g id="node2" class="node"><title>Node2</title>
<g id="a_node2"><a xlink:href="class_camera_manager.html#a8cbcaac61bff564ad37ebfdeef25acab" target="_top" xlink:title="CameraManager::gameControls\lLocked">
<polygon fill="white" stroke="black" points="132.5,-770 132.5,-800 287.5,-800 287.5,-770 132.5,-770"/>
<text text-anchor="start" x="140.5" y="-788" font-family="Helvetica,sans-Serif" font-size="10.00">CameraManager::gameControls</text>
<text text-anchor="middle" x="210" y="-777" font-family="Helvetica,sans-Serif" font-size="10.00">Locked</text>
</a>
</g>
</g>
<!-- Node1&#45;&gt;Node2 -->
<g id="edge1" class="edge"><title>Node1&#45;&gt;Node2</title>
<path fill="none" stroke="midnightblue" d="M49.9281,-392.623C55.1743,-445.204 82.6475,-697.512 132,-755 135.026,-758.524 138.517,-761.637 142.309,-764.386"/>
<polygon fill="midnightblue" stroke="midnightblue" points="140.691,-767.502 151.024,-769.841 144.405,-761.568 140.691,-767.502"/>
</g>
<!-- Node3 -->
<g id="node3" class="node"><title>Node3</title>
<g id="a_node3"><a xlink:href="_character_8cpp.html#a65346bcca4408024b040c2ebfbab8d31" target="_top" xlink:title="calculate_collision\l_depth">
<polygon fill="white" stroke="black" points="162,-682 162,-712 258,-712 258,-682 162,-682"/>
<text text-anchor="start" x="170" y="-700" font-family="Helvetica,sans-Serif" font-size="10.00">calculate_collision</text>
<text text-anchor="middle" x="210" y="-689" font-family="Helvetica,sans-Serif" font-size="10.00">_depth</text>
</a>
</g>
</g>
<!-- Node1&#45;&gt;Node3 -->
<g id="edge2" class="edge"><title>Node1&#45;&gt;Node3</title>
<path fill="none" stroke="midnightblue" d="M48.7419,-392.529C48.1922,-432.531 51.4708,-588.663 132,-672 137.631,-677.827 144.631,-682.298 152.099,-685.727"/>
<polygon fill="midnightblue" stroke="midnightblue" points="151.152,-689.117 161.739,-689.538 153.726,-682.607 151.152,-689.117"/>
</g>
<!-- Node4 -->
<g id="node4" class="node"><title>Node4</title>
<g id="a_node4"><a xlink:href="class_collisions.html#a265e80a2a5e77dd57ce94ae62c2a11ab" target="_top" xlink:title="Collisions::collisionCorrect">
<polygon fill="white" stroke="black" points="328.5,-745.5 328.5,-764.5 461.5,-764.5 461.5,-745.5 328.5,-745.5"/>
<text text-anchor="middle" x="395" y="-752.5" font-family="Helvetica,sans-Serif" font-size="10.00">Collisions::collisionCorrect</text>
</a>
</g>
</g>
<!-- Node1&#45;&gt;Node4 -->
<g id="edge16" class="edge"><title>Node1&#45;&gt;Node4</title>
<path fill="none" stroke="midnightblue" d="M49.9186,-392.598C54.9301,-442.851 80.6481,-675.088 132,-721 158.751,-744.917 250.676,-752.299 318.113,-754.424"/>
<polygon fill="midnightblue" stroke="midnightblue" points="318.198,-757.928 328.293,-754.711 318.396,-750.931 318.198,-757.928"/>
</g>
<!-- Node16 -->
<g id="node16" class="node"><title>Node16</title>
<g id="a_node16"><a xlink:href="class_camera_manager.html#a0c27870e9affd6a9098abb4114c14bdf" target="_top" xlink:title="CameraManager::NotifyContext\lChange">
<polygon fill="white" stroke="black" points="132.5,-556 132.5,-586 287.5,-586 287.5,-556 132.5,-556"/>
<text text-anchor="start" x="140.5" y="-574" font-family="Helvetica,sans-Serif" font-size="10.00">CameraManager::NotifyContext</text>
<text text-anchor="middle" x="210" y="-563" font-family="Helvetica,sans-Serif" font-size="10.00">Change</text>
</a>
</g>
</g>
<!-- Node1&#45;&gt;Node16 -->
<g id="edge15" class="edge"><title>Node1&#45;&gt;Node16</title>
<path fill="none" stroke="midnightblue" d="M51.1647,-392.702C57.9247,-420.75 81.2909,-502.689 132,-546 133.964,-547.677 136.042,-549.243 138.209,-550.703"/>
<polygon fill="midnightblue" stroke="midnightblue" points="136.552,-553.789 146.948,-555.835 140.097,-547.753 136.552,-553.789"/>
</g>
<!-- Node17 -->
<g id="node17" class="node"><title>Node17</title>
<g id="a_node17"><a xlink:href="class_terrain_manager.html#ae63cfc0dda4ab62dc7f6d72eb7845628" target="_top" xlink:title="TerrainManager::getHeight\lFinder">
<polygon fill="white" stroke="black" points="144,-507 144,-537 276,-537 276,-507 144,-507"/>
<text text-anchor="start" x="152" y="-525" font-family="Helvetica,sans-Serif" font-size="10.00">TerrainManager::getHeight</text>
<text text-anchor="middle" x="210" y="-514" font-family="Helvetica,sans-Serif" font-size="10.00">Finder</text>
</a>
</g>
</g>
<!-- Node1&#45;&gt;Node17 -->
<g id="edge17" class="edge"><title>Node1&#45;&gt;Node17</title>
<path fill="none" stroke="midnightblue" d="M53.332,-392.523C63.7195,-414.305 92.1722,-468.101 132,-497 134.673,-498.94 137.505,-500.734 140.443,-502.393"/>
<polygon fill="midnightblue" stroke="midnightblue" points="139.02,-505.596 149.524,-506.976 142.173,-499.346 139.02,-505.596"/>
</g>
<!-- Node18 -->
<g id="node18" class="node"><title>Node18</title>
<g id="a_node18"><a xlink:href="class_i_height_finder.html#a5757ec3d639bcffc834540067ec8db2e" target="_top" xlink:title="IHeightFinder::getHeightAt">
<polygon fill="white" stroke="black" points="143.5,-468.5 143.5,-487.5 276.5,-487.5 276.5,-468.5 143.5,-468.5"/>
<text text-anchor="middle" x="210" y="-475.5" font-family="Helvetica,sans-Serif" font-size="10.00">IHeightFinder::getHeightAt</text>
</a>
</g>
</g>
<!-- Node1&#45;&gt;Node18 -->
<g id="edge18" class="edge"><title>Node1&#45;&gt;Node18</title>
<path fill="none" stroke="midnightblue" d="M56.6035,-392.568C70.0354,-408.801 99.6194,-441.659 132,-459 136.252,-461.277 140.782,-463.287 145.435,-465.06"/>
<polygon fill="midnightblue" stroke="midnightblue" points="144.513,-468.443 155.107,-468.376 146.783,-461.822 144.513,-468.443"/>
</g>
<!-- Node19 -->
<g id="node19" class="node"><title>Node19</title>
<g id="a_node19"><a xlink:href="class_terrain_manager.html#a1d0227a71a4e114099797646ff6756b7" target="_top" xlink:title="TerrainManager::getWater">
<polygon fill="white" stroke="black" points="145,-430.5 145,-449.5 275,-449.5 275,-430.5 145,-430.5"/>
<text text-anchor="middle" x="210" y="-437.5" font-family="Helvetica,sans-Serif" font-size="10.00">TerrainManager::getWater</text>
</a>
</g>
</g>
<!-- Node1&#45;&gt;Node19 -->
<g id="edge19" class="edge"><title>Node1&#45;&gt;Node19</title>
<path fill="none" stroke="midnightblue" d="M67.3778,-392.626C83.9299,-401 109.105,-413.014 132,-421 139.141,-423.491 146.763,-425.788 154.33,-427.859"/>
<polygon fill="midnightblue" stroke="midnightblue" points="153.641,-431.297 164.202,-430.449 155.418,-424.526 153.641,-431.297"/>
</g>
<!-- Node20 -->
<g id="node20" class="node"><title>Node20</title>
<g id="a_node20"><a xlink:href="class_i_water.html#a48916b4b4fdcd2e945b391164d0a0083" target="_top" xlink:title="IWater::getHeightWaves">
<polygon fill="white" stroke="black" points="147.5,-392.5 147.5,-411.5 272.5,-411.5 272.5,-392.5 147.5,-392.5"/>
<text text-anchor="middle" x="210" y="-399.5" font-family="Helvetica,sans-Serif" font-size="10.00">IWater::getHeightWaves</text>
</a>
</g>
</g>
<!-- Node1&#45;&gt;Node20 -->
<g id="edge20" class="edge"><title>Node1&#45;&gt;Node20</title>
<path fill="none" stroke="midnightblue" d="M95.7087,-388.547C108.698,-390.089 123.112,-391.801 137.185,-393.472"/>
<polygon fill="midnightblue" stroke="midnightblue" points="137.003,-396.975 147.346,-394.679 137.829,-390.024 137.003,-396.975"/>
</g>
<!-- Node21 -->
<g id="node21" class="node"><title>Node21</title>
<g id="a_node21"><a xlink:href="namespace_ro_r_1_1_app.html#a21fb1ba18d55ba3c4b0dfd2f36df7891" target="_top" xlink:title="RoR::App::GetInputEngine">
<polygon fill="white" stroke="black" points="143,-354.5 143,-373.5 277,-373.5 277,-354.5 143,-354.5"/>
<text text-anchor="middle" x="210" y="-361.5" font-family="Helvetica,sans-Serif" font-size="10.00">RoR::App::GetInputEngine</text>
</a>
</g>
</g>
<!-- Node1&#45;&gt;Node21 -->
<g id="edge21" class="edge"><title>Node1&#45;&gt;Node21</title>
<path fill="none" stroke="midnightblue" d="M95.7087,-377.453C107.354,-376.07 120.144,-374.552 132.808,-373.048"/>
<polygon fill="midnightblue" stroke="midnightblue" points="133.394,-376.503 142.911,-371.848 132.568,-369.552 133.394,-376.503"/>
</g>
<!-- Node22 -->
<g id="node22" class="node"><title>Node22</title>
<g id="a_node22"><a xlink:href="class_input_engine.html#a72145988ab99faec6f618c2a4011d236" target="_top" xlink:title="InputEngine::getEventBool\lValue">
<polygon fill="white" stroke="black" points="143.5,-267 143.5,-297 276.5,-297 276.5,-267 143.5,-267"/>
<text text-anchor="start" x="151.5" y="-285" font-family="Helvetica,sans-Serif" font-size="10.00">InputEngine::getEventBool</text>
<text text-anchor="middle" x="210" y="-274" font-family="Helvetica,sans-Serif" font-size="10.00">Value</text>
</a>
</g>
</g>
<!-- Node1&#45;&gt;Node22 -->
<g id="edge22" class="edge"><title>Node1&#45;&gt;Node22</title>
<path fill="none" stroke="midnightblue" d="M58.3742,-373.077C72.9316,-358.137 102.391,-329.731 132,-312 138.75,-307.957 146.143,-304.27 153.592,-300.971"/>
<polygon fill="midnightblue" stroke="midnightblue" points="155.156,-304.11 163.013,-297.003 152.439,-297.659 155.156,-304.11"/>
</g>
<!-- Node23 -->
<g id="node23" class="node"><title>Node23</title>
<g id="a_node23"><a xlink:href="class_input_engine.html#a251be92f16fe445542e240fc121354d8" target="_top" xlink:title="InputEngine::getEventValue">
<polygon fill="white" stroke="black" points="326,-294.5 326,-313.5 464,-313.5 464,-294.5 326,-294.5"/>
<text text-anchor="middle" x="395" y="-301.5" font-family="Helvetica,sans-Serif" font-size="10.00">InputEngine::getEventValue</text>
</a>
</g>
</g>
<!-- Node1&#45;&gt;Node23 -->
<g id="edge26" class="edge"><title>Node1&#45;&gt;Node23</title>
<path fill="none" stroke="midnightblue" d="M66.2627,-373.396C82.6832,-364.676 108.325,-352.124 132,-345 192.366,-326.835 263.11,-316.373 315.86,-310.57"/>
<polygon fill="midnightblue" stroke="midnightblue" points="316.256,-314.047 325.828,-309.505 315.513,-307.087 316.256,-314.047"/>
</g>
<!-- Node26 -->
<g id="node26" class="node"><title>Node26</title>
<g id="a_node26"><a xlink:href="class_input_engine.html#a31083a87d361611caf4ded6955565d18" target="_top" xlink:title="InputEngine::isKeyDown">
<polygon fill="white" stroke="black" points="147.5,-228.5 147.5,-247.5 272.5,-247.5 272.5,-228.5 147.5,-228.5"/>
<text text-anchor="middle" x="210" y="-235.5" font-family="Helvetica,sans-Serif" font-size="10.00">InputEngine::isKeyDown</text>
</a>
</g>
</g>
<!-- Node1&#45;&gt;Node26 -->
<g id="edge27" class="edge"><title>Node1&#45;&gt;Node26</title>
<path fill="none" stroke="midnightblue" d="M52.5266,-373.441C61.7158,-349.909 88.7302,-288.85 132,-258 135.416,-255.564 139.105,-253.425 142.955,-251.547"/>
<polygon fill="midnightblue" stroke="midnightblue" points="144.348,-254.758 152.176,-247.618 141.604,-248.318 144.348,-254.758"/>
</g>
<!-- Node27 -->
<g id="node27" class="node"><title>Node27</title>
<g id="a_node27"><a xlink:href="class_character.html#a305f94b58e7e8b61cc6829e4aba7a060" target="_top" xlink:title="Character::setRotation">
<polygon fill="white" stroke="black" points="152,-190.5 152,-209.5 268,-209.5 268,-190.5 152,-190.5"/>
<text text-anchor="middle" x="210" y="-197.5" font-family="Helvetica,sans-Serif" font-size="10.00">Character::setRotation</text>
</a>
</g>
</g>
<!-- Node1&#45;&gt;Node27 -->
<g id="edge28" class="edge"><title>Node1&#45;&gt;Node27</title>
<path fill="none" stroke="midnightblue" d="M50.9082,-373.465C57.0918,-345.15 79.3117,-260.923 132,-219 135.182,-216.468 138.654,-214.268 142.308,-212.356"/>
<polygon fill="midnightblue" stroke="midnightblue" points="143.989,-215.439 151.7,-208.173 141.141,-209.044 143.989,-215.439"/>
</g>
<!-- Node28 -->
<g id="node28" class="node"><title>Node28</title>
<g id="a_node28"><a xlink:href="class_character.html#a391e1f5a88ed4185bb3ef1f878a5d7af" target="_top" xlink:title="Character::setAnimationMode">
<polygon fill="white" stroke="black" points="137,-152.5 137,-171.5 283,-171.5 283,-152.5 137,-152.5"/>
<text text-anchor="middle" x="210" y="-159.5" font-family="Helvetica,sans-Serif" font-size="10.00">Character::setAnimationMode</text>
</a>
</g>
</g>
<!-- Node1&#45;&gt;Node28 -->
<g id="edge29" class="edge"><title>Node1&#45;&gt;Node28</title>
<path fill="none" stroke="midnightblue" d="M49.9538,-373.211C53.68,-340.526 70.2573,-234.223 132,-181 133.962,-179.309 136.051,-177.763 138.239,-176.352"/>
<polygon fill="midnightblue" stroke="midnightblue" points="139.981,-179.389 147.101,-171.544 136.642,-173.236 139.981,-179.389"/>
</g>
<!-- Node29 -->
<g id="node29" class="node"><title>Node29</title>
<g id="a_node29"><a xlink:href="class_character.html#aec36e78fd1c7f63ad7cb128fe128b4f1" target="_top" xlink:title="Character::updateMapIcon">
<polygon fill="white" stroke="black" points="144,-605.5 144,-624.5 276,-624.5 276,-605.5 144,-605.5"/>
<text text-anchor="middle" x="210" y="-612.5" font-family="Helvetica,sans-Serif" font-size="10.00">Character::updateMapIcon</text>
</a>
</g>
</g>
<!-- Node1&#45;&gt;Node29 -->
<g id="edge30" class="edge"><title>Node1&#45;&gt;Node29</title>
<path fill="none" stroke="midnightblue" d="M49.7691,-392.759C52.9568,-426.364 68.146,-538.328 132,-595 134.352,-597.087 136.894,-598.961 139.575,-600.644"/>
<polygon fill="midnightblue" stroke="midnightblue" points="138.066,-603.805 148.541,-605.391 141.341,-597.619 138.066,-603.805"/>
</g>
<!-- Node43 -->
<g id="node43" class="node"><title>Node43</title>
<g id="a_node43"><a xlink:href="class_beam.html#adfe810237f6498de41657429ad35ee38" target="_top" xlink:title="Beam::hasDriverSeat">
<polygon fill="white" stroke="black" points="155,-114.5 155,-133.5 265,-133.5 265,-114.5 155,-114.5"/>
<text text-anchor="middle" x="210" y="-121.5" font-family="Helvetica,sans-Serif" font-size="10.00">Beam::hasDriverSeat</text>
</a>
</g>
</g>
<!-- Node1&#45;&gt;Node43 -->
<g id="edge48" class="edge"><title>Node1&#45;&gt;Node43</title>
<path fill="none" stroke="midnightblue" d="M49.2315,-373.488C50.6456,-337.455 60.691,-208.096 132,-143 135.904,-139.436 140.369,-136.514 145.138,-134.121"/>
<polygon fill="midnightblue" stroke="midnightblue" points="146.752,-137.239 154.619,-130.142 144.043,-130.785 146.752,-137.239"/>
</g>
<!-- Node44 -->
<g id="node44" class="node"><title>Node44</title>
<g id="a_node44"><a xlink:href="class_beam.html#a58da17fe256483a8367103e0bb05abdb" target="_top" xlink:title="Beam::calculateDriverPos">
<polygon fill="white" stroke="black" points="144.5,-76.5 144.5,-95.5 275.5,-95.5 275.5,-76.5 144.5,-76.5"/>
<text text-anchor="middle" x="210" y="-83.5" font-family="Helvetica,sans-Serif" font-size="10.00">Beam::calculateDriverPos</text>
</a>
</g>
</g>
<!-- Node1&#45;&gt;Node44 -->
<g id="edge49" class="edge"><title>Node1&#45;&gt;Node44</title>
<path fill="none" stroke="midnightblue" d="M48.7153,-373.407C48.0939,-333.864 51.2311,-181.966 132,-105 133.495,-103.575 135.08,-102.252 136.737,-101.024"/>
<polygon fill="midnightblue" stroke="midnightblue" points="138.852,-103.834 145.568,-95.6387 135.208,-97.8571 138.852,-103.834"/>
</g>
<!-- Node45 -->
<g id="node45" class="node"><title>Node45</title>
<g id="a_node45"><a xlink:href="class_character.html#a1884d7f3e305d9b23164fdbf208f1cc6" target="_top" xlink:title="Character::setPosition">
<polygon fill="white" stroke="black" points="153,-643.5 153,-662.5 267,-662.5 267,-643.5 153,-643.5"/>
<text text-anchor="middle" x="210" y="-650.5" font-family="Helvetica,sans-Serif" font-size="10.00">Character::setPosition</text>
</a>
</g>
</g>
<!-- Node1&#45;&gt;Node45 -->
<g id="edge50" class="edge"><title>Node1&#45;&gt;Node45</title>
<path fill="none" stroke="midnightblue" d="M49.0713,-392.679C49.896,-429.96 58.059,-565.574 132,-634 135.447,-637.19 139.342,-639.867 143.506,-642.111"/>
<polygon fill="midnightblue" stroke="midnightblue" points="142.421,-645.461 152.977,-646.365 145.288,-639.075 142.421,-645.461"/>
</g>
<!-- Node46 -->
<g id="node46" class="node"><title>Node46</title>
<g id="a_node46"><a xlink:href="namespace_ro_r_1_1_app.html#a61093e1171e9aa1d2824499b9a6b8e18" target="_top" xlink:title="RoR::App::GetActiveMpState">
<polygon fill="white" stroke="black" points="137,-38.5 137,-57.5 283,-57.5 283,-38.5 137,-38.5"/>
<text text-anchor="middle" x="210" y="-45.5" font-family="Helvetica,sans-Serif" font-size="10.00">RoR::App::GetActiveMpState</text>
</a>
</g>
</g>
<!-- Node1&#45;&gt;Node46 -->
<g id="edge53" class="edge"><title>Node1&#45;&gt;Node46</title>
<path fill="none" stroke="midnightblue" d="M50.1884,-373.493C56.349,-325.698 86.1382,-112.182 132,-67 133.435,-65.5868 134.956,-64.273 136.551,-63.0519"/>
<polygon fill="midnightblue" stroke="midnightblue" points="138.468,-65.9807 145.062,-57.6879 134.736,-60.0586 138.468,-65.9807"/>
</g>
<!-- Node47 -->
<g id="node47" class="node"><title>Node47</title>
<g id="a_node47"><a xlink:href="class_character.html#acc209b1262a3a8d82d5f9f3c7818d499" target="_top" xlink:title="Character::sendStreamData">
<polygon fill="white" stroke="black" points="140.5,-0.5 140.5,-19.5 279.5,-19.5 279.5,-0.5 140.5,-0.5"/>
<text text-anchor="middle" x="210" y="-7.5" font-family="Helvetica,sans-Serif" font-size="10.00">Character::sendStreamData</text>
</a>
</g>
</g>
<!-- Node1&#45;&gt;Node47 -->
<g id="edge54" class="edge"><title>Node1&#45;&gt;Node47</title>
<path fill="none" stroke="midnightblue" d="M49.9124,-373.398C54.9817,-322.05 81.3003,-80.2921 132,-29 133.416,-27.5678 134.921,-26.2373 136.501,-25.0015"/>
<polygon fill="midnightblue" stroke="midnightblue" points="138.426,-27.9244 144.954,-19.5792 134.647,-22.0324 138.426,-27.9244"/>
</g>
<!-- Node3&#45;&gt;Node4 -->
<g id="edge3" class="edge"><title>Node3&#45;&gt;Node4</title>
<path fill="none" stroke="midnightblue" d="M258.127,-711.936C287.968,-721.394 326.116,-733.485 354.39,-742.446"/>
<polygon fill="midnightblue" stroke="midnightblue" points="353.359,-745.791 363.949,-745.476 355.474,-739.118 353.359,-745.791"/>
</g>
<!-- Node5 -->
<g id="node5" class="node"><title>Node5</title>
<g id="a_node5"><a xlink:href="class_terrain_manager.html#a41fdd66a57990a5fb33d253213fd04e3" target="_top" xlink:title="TerrainManager::getMaxTerrainSize">
<polygon fill="white" stroke="black" points="879,-681.5 879,-700.5 1051,-700.5 1051,-681.5 879,-681.5"/>
<text text-anchor="middle" x="965" y="-688.5" font-family="Helvetica,sans-Serif" font-size="10.00">TerrainManager::getMaxTerrainSize</text>
</a>
</g>
</g>
<!-- Node4&#45;&gt;Node5 -->
<g id="edge4" class="edge"><title>Node4&#45;&gt;Node5</title>
<path fill="none" stroke="midnightblue" d="M414.557,-745.462C435.267,-735.343 470.073,-719.886 502,-713 626.584,-686.131 774.272,-684.122 868.528,-686.476"/>
<polygon fill="midnightblue" stroke="midnightblue" points="868.524,-689.977 878.615,-686.75 868.714,-682.98 868.524,-689.977"/>
</g>
<!-- Node7 -->
<g id="node7" class="node"><title>Node7</title>
<g id="a_node7"><a xlink:href="class_collisions.html#a4d438eb211fe0953343dc39f478e14e0" target="_top" xlink:title="Collisions::hash_find">
<polygon fill="white" stroke="black" points="522.5,-760.5 522.5,-779.5 629.5,-779.5 629.5,-760.5 522.5,-760.5"/>
<text text-anchor="middle" x="576" y="-767.5" font-family="Helvetica,sans-Serif" font-size="10.00">Collisions::hash_find</text>
</a>
</g>
</g>
<!-- Node4&#45;&gt;Node7 -->
<g id="edge6" class="edge"><title>Node4&#45;&gt;Node7</title>
<path fill="none" stroke="midnightblue" d="M461.637,-760.5C478.162,-761.885 495.859,-763.368 512.24,-764.741"/>
<polygon fill="midnightblue" stroke="midnightblue" points="511.99,-768.232 522.247,-765.579 512.574,-761.256 511.99,-768.232"/>
</g>
<!-- Node9 -->
<g id="node9" class="node"><title>Node9</title>
<g id="a_node9"><a xlink:href="class_collisions.html#a169c711864e32721fb5daab7d7d01df4" target="_top" xlink:title="Collisions::permitEvent">
<polygon fill="white" stroke="black" points="517,-722.5 517,-741.5 635,-741.5 635,-722.5 517,-722.5"/>
<text text-anchor="middle" x="576" y="-729.5" font-family="Helvetica,sans-Serif" font-size="10.00">Collisions::permitEvent</text>
</a>
</g>
</g>
<!-- Node4&#45;&gt;Node9 -->
<g id="edge8" class="edge"><title>Node4&#45;&gt;Node9</title>
<path fill="none" stroke="midnightblue" d="M461.637,-746.566C476.31,-744.681 491.907,-742.677 506.686,-740.778"/>
<polygon fill="midnightblue" stroke="midnightblue" points="507.294,-744.229 516.766,-739.483 506.401,-737.286 507.294,-744.229"/>
</g>
<!-- Node13 -->
<g id="node13" class="node"><title>Node13</title>
<g id="a_node13"><a xlink:href="class_collisions.html#afab554d00436aa9157c93a4eaecf8d74" target="_top" xlink:title="Collisions::envokeScript\lCallback">
<polygon fill="white" stroke="black" points="515,-875 515,-905 637,-905 637,-875 515,-875"/>
<text text-anchor="start" x="523" y="-893" font-family="Helvetica,sans-Serif" font-size="10.00">Collisions::envokeScript</text>
<text text-anchor="middle" x="576" y="-882" font-family="Helvetica,sans-Serif" font-size="10.00">Callback</text>
</a>
</g>
</g>
<!-- Node4&#45;&gt;Node13 -->
<g id="edge12" class="edge"><title>Node4&#45;&gt;Node13</title>
<path fill="none" stroke="midnightblue" d="M402.804,-764.716C418.123,-785.909 457.48,-836.656 502,-865 505.182,-867.026 508.547,-868.908 512.016,-870.654"/>
<polygon fill="midnightblue" stroke="midnightblue" points="510.841,-873.967 521.389,-874.964 513.766,-867.607 510.841,-873.967"/>
</g>
<!-- Node14 -->
<g id="node14" class="node"><title>Node14</title>
<g id="a_node14"><a xlink:href="class_collisions.html#accb10540c3aa849f57b7fd3b9da2e1c6" target="_top" xlink:title="Collisions::calcCollidedSide">
<polygon fill="white" stroke="black" points="507,-836.5 507,-855.5 645,-855.5 645,-836.5 507,-836.5"/>
<text text-anchor="middle" x="576" y="-843.5" font-family="Helvetica,sans-Serif" font-size="10.00">Collisions::calcCollidedSide</text>
</a>
</g>
</g>
<!-- Node4&#45;&gt;Node14 -->
<g id="edge13" class="edge"><title>Node4&#45;&gt;Node14</title>
<path fill="none" stroke="midnightblue" d="M407.288,-764.621C425.851,-779.973 464.516,-810.006 502,-827 507.349,-829.425 513.063,-831.583 518.852,-833.494"/>
<polygon fill="midnightblue" stroke="midnightblue" points="518.025,-836.901 528.612,-836.479 520.073,-830.207 518.025,-836.901"/>
</g>
<!-- Node15 -->
<g id="node15" class="node"><title>Node15</title>
<g id="a_node15"><a xlink:href="class_collisions.html#ad12c4976773ee3a8034b02fe1cd0212d" target="_top" xlink:title="Collisions::clearEventCache">
<polygon fill="white" stroke="black" points="506,-798.5 506,-817.5 646,-817.5 646,-798.5 506,-798.5"/>
<text text-anchor="middle" x="576" y="-805.5" font-family="Helvetica,sans-Serif" font-size="10.00">Collisions::clearEventCache</text>
</a>
</g>
</g>
<!-- Node4&#45;&gt;Node15 -->
<g id="edge14" class="edge"><title>Node4&#45;&gt;Node15</title>
<path fill="none" stroke="midnightblue" d="M424.213,-764.522C445.494,-771.59 475.459,-781.296 502,-789 509.958,-791.31 518.441,-793.639 526.705,-795.836"/>
<polygon fill="midnightblue" stroke="midnightblue" points="526.064,-799.286 536.625,-798.441 527.841,-792.516 526.064,-799.286"/>
</g>
<!-- Node6 -->
<g id="node6" class="node"><title>Node6</title>
<g id="a_node6"><a xlink:href="class_terrain_geometry_manager.html#afead68b5ff7a0b77395065ab8ea855e3" target="_top" xlink:title="TerrainGeometryManager\l::getMaxTerrainSize">
<polygon fill="white" stroke="black" points="1090.5,-676 1090.5,-706 1217.5,-706 1217.5,-676 1090.5,-676"/>
<text text-anchor="start" x="1098.5" y="-694" font-family="Helvetica,sans-Serif" font-size="10.00">TerrainGeometryManager</text>
<text text-anchor="middle" x="1154" y="-683" font-family="Helvetica,sans-Serif" font-size="10.00">::getMaxTerrainSize</text>
</a>
</g>
</g>
<!-- Node5&#45;&gt;Node6 -->
<g id="edge5" class="edge"><title>Node5&#45;&gt;Node6</title>
<path fill="none" stroke="midnightblue" d="M1051.02,-691C1060.73,-691 1070.56,-691 1080.09,-691"/>
<polygon fill="midnightblue" stroke="midnightblue" points="1080.29,-694.5 1090.29,-691 1080.29,-687.5 1080.29,-694.5"/>
</g>
<!-- Node8 -->
<g id="node8" class="node"><title>Node8</title>
<g id="a_node8"><a xlink:href="class_collisions.html#a7e21c069d16d661d211d0cb896577edf" target="_top" xlink:title="Collisions::hashfunc">
<polygon fill="white" stroke="black" points="710.5,-818.5 710.5,-837.5 815.5,-837.5 815.5,-818.5 710.5,-818.5"/>
<text text-anchor="middle" x="763" y="-825.5" font-family="Helvetica,sans-Serif" font-size="10.00">Collisions::hashfunc</text>
</a>
</g>
</g>
<!-- Node7&#45;&gt;Node8 -->
<g id="edge7" class="edge"><title>Node7&#45;&gt;Node8</title>
<path fill="none" stroke="midnightblue" d="M620.372,-779.527C630.249,-782.18 640.599,-785.352 650,-789 666.867,-795.544 669.142,-801.433 686,-808 693.33,-810.855 701.213,-813.439 709.029,-815.729"/>
<polygon fill="midnightblue" stroke="midnightblue" points="708.272,-819.151 718.845,-818.47 710.155,-812.409 708.272,-819.151"/>
</g>
<!-- Node10 -->
<g id="node10" class="node"><title>Node10</title>
<g id="a_node10"><a xlink:href="class_ro_r_frame_listener.html#a0398db79a92d8178b77e3733abc9a238" target="_top" xlink:title="RoRFrameListener::GetBeam\lFactory">
<polygon fill="white" stroke="black" points="690,-720 690,-750 836,-750 836,-720 690,-720"/>
<text text-anchor="start" x="698" y="-738" font-family="Helvetica,sans-Serif" font-size="10.00">RoRFrameListener::GetBeam</text>
<text text-anchor="middle" x="763" y="-727" font-family="Helvetica,sans-Serif" font-size="10.00">Factory</text>
</a>
</g>
</g>
<!-- Node9&#45;&gt;Node10 -->
<g id="edge9" class="edge"><title>Node9&#45;&gt;Node10</title>
<path fill="none" stroke="midnightblue" d="M635.028,-732.941C649.148,-733.17 664.518,-733.419 679.532,-733.663"/>
<polygon fill="midnightblue" stroke="midnightblue" points="679.794,-737.167 689.849,-733.83 679.907,-730.168 679.794,-737.167"/>
</g>
<!-- Node11 -->
<g id="node11" class="node"><title>Node11</title>
<g id="a_node11"><a xlink:href="class_ro_r_1_1_beam_factory.html#aeb17b3a10c961e56770f7dc87a16625c" target="_top" xlink:title="RoR::BeamFactory::getCurrent\lTruck">
<polygon fill="white" stroke="black" points="686.5,-769 686.5,-799 839.5,-799 839.5,-769 686.5,-769"/>
<text text-anchor="start" x="694.5" y="-787" font-family="Helvetica,sans-Serif" font-size="10.00">RoR::BeamFactory::getCurrent</text>
<text text-anchor="middle" x="763" y="-776" font-family="Helvetica,sans-Serif" font-size="10.00">Truck</text>
</a>
</g>
</g>
<!-- Node9&#45;&gt;Node11 -->
<g id="edge10" class="edge"><title>Node9&#45;&gt;Node11</title>
<path fill="none" stroke="midnightblue" d="M614.574,-741.535C625.973,-744.493 638.516,-747.815 650,-751 667.063,-755.733 685.523,-761.079 702.439,-766.067"/>
<polygon fill="midnightblue" stroke="midnightblue" points="701.616,-769.474 712.198,-768.956 703.603,-762.762 701.616,-769.474"/>
</g>
<!-- Node12 -->
<g id="node12" class="node"><title>Node12</title>
<g id="a_node12"><a xlink:href="class_ro_r_1_1_beam_factory.html#aadb09a68dc35fad593189242429df218" target="_top" xlink:title="RoR::BeamFactory::getTruck">
<polygon fill="white" stroke="black" points="892,-774.5 892,-793.5 1038,-793.5 1038,-774.5 892,-774.5"/>
<text text-anchor="middle" x="965" y="-781.5" font-family="Helvetica,sans-Serif" font-size="10.00">RoR::BeamFactory::getTruck</text>
</a>
</g>
</g>
<!-- Node11&#45;&gt;Node12 -->
<g id="edge11" class="edge"><title>Node11&#45;&gt;Node12</title>
<path fill="none" stroke="midnightblue" d="M839.611,-784C853.408,-784 867.865,-784 881.841,-784"/>
<polygon fill="midnightblue" stroke="midnightblue" points="881.917,-787.5 891.917,-784 881.917,-780.5 881.917,-787.5"/>
</g>
<!-- Node22&#45;&gt;Node23 -->
<g id="edge23" class="edge"><title>Node22&#45;&gt;Node23</title>
<path fill="none" stroke="midnightblue" d="M276.55,-289.88C289.3,-291.413 302.782,-293.034 315.889,-294.61"/>
<polygon fill="midnightblue" stroke="midnightblue" points="315.475,-298.085 325.821,-295.804 316.31,-291.135 315.475,-298.085"/>
</g>
<!-- Node24 -->
<g id="node24" class="node"><title>Node24</title>
<g id="a_node24"><a xlink:href="class_input_engine.html#a3e63861375a5873297281b885c8aa8f9" target="_top" xlink:title="InputEngine::axisLinearity">
<polygon fill="white" stroke="black" points="511.5,-275.5 511.5,-294.5 640.5,-294.5 640.5,-275.5 511.5,-275.5"/>
<text text-anchor="middle" x="576" y="-282.5" font-family="Helvetica,sans-Serif" font-size="10.00">InputEngine::axisLinearity</text>
</a>
</g>
</g>
<!-- Node23&#45;&gt;Node24 -->
<g id="edge24" class="edge"><title>Node23&#45;&gt;Node24</title>
<path fill="none" stroke="midnightblue" d="M464.183,-296.763C476.301,-295.476 488.973,-294.131 501.238,-292.829"/>
<polygon fill="midnightblue" stroke="midnightblue" points="501.849,-296.284 511.424,-291.748 501.11,-289.323 501.849,-296.284"/>
</g>
<!-- Node25 -->
<g id="node25" class="node"><title>Node25</title>
<g id="a_node25"><a xlink:href="class_input_engine.html#aaa9f701b9f4420b8e97cf4ae775038c1" target="_top" xlink:title="InputEngine::deadZone">
<polygon fill="white" stroke="black" points="517.5,-313.5 517.5,-332.5 634.5,-332.5 634.5,-313.5 517.5,-313.5"/>
<text text-anchor="middle" x="576" y="-320.5" font-family="Helvetica,sans-Serif" font-size="10.00">InputEngine::deadZone</text>
</a>
</g>
</g>
<!-- Node23&#45;&gt;Node25 -->
<g id="edge25" class="edge"><title>Node23&#45;&gt;Node25</title>
<path fill="none" stroke="midnightblue" d="M464.183,-311.237C478.255,-312.731 493.073,-314.304 507.134,-315.796"/>
<polygon fill="midnightblue" stroke="midnightblue" points="506.903,-319.291 517.217,-316.867 507.642,-312.331 506.903,-319.291"/>
</g>
<!-- Node30 -->
<g id="node30" class="node"><title>Node30</title>
<g id="a_node30"><a xlink:href="class_survey_map_manager.html#a17809f36c8b9291270ced418f222faab" target="_top" xlink:title="SurveyMapManager::getMap\lEntityByName">
<polygon fill="white" stroke="black" points="324,-638 324,-668 466,-668 466,-638 324,-638"/>
<text text-anchor="start" x="332" y="-656" font-family="Helvetica,sans-Serif" font-size="10.00">SurveyMapManager::getMap</text>
<text text-anchor="middle" x="395" y="-645" font-family="Helvetica,sans-Serif" font-size="10.00">EntityByName</text>
</a>
</g>
</g>
<!-- Node29&#45;&gt;Node30 -->
<g id="edge31" class="edge"><title>Node29&#45;&gt;Node30</title>
<path fill="none" stroke="midnightblue" d="M257.179,-624.589C274.479,-628.182 294.672,-632.375 314.149,-636.419"/>
<polygon fill="midnightblue" stroke="midnightblue" points="313.44,-639.846 323.942,-638.453 314.863,-632.992 313.44,-639.846"/>
</g>
<!-- Node31 -->
<g id="node31" class="node"><title>Node31</title>
<g id="a_node31"><a xlink:href="class_survey_map_entity.html#a781ecb998f41521324088cd3ce66d9ce" target="_top" xlink:title="SurveyMapEntity::setPosition">
<polygon fill="white" stroke="black" points="503,-643.5 503,-662.5 649,-662.5 649,-643.5 503,-643.5"/>
<text text-anchor="middle" x="576" y="-650.5" font-family="Helvetica,sans-Serif" font-size="10.00">SurveyMapEntity::setPosition</text>
</a>
</g>
</g>
<!-- Node29&#45;&gt;Node31 -->
<g id="edge32" class="edge"><title>Node29&#45;&gt;Node31</title>
<path fill="none" stroke="midnightblue" d="M276.258,-615.679C327.942,-616.916 401.863,-620.237 466,-629 486.763,-631.837 509.436,-636.56 528.7,-641.069"/>
<polygon fill="midnightblue" stroke="midnightblue" points="527.895,-644.476 538.435,-643.397 529.523,-637.667 527.895,-644.476"/>
</g>
<!-- Node32 -->
<g id="node32" class="node"><title>Node32</title>
<g id="a_node32"><a xlink:href="class_survey_map_entity.html#a23640d7a462102b43b62b44204a99a2d" target="_top" xlink:title="SurveyMapEntity::setRotation">
<polygon fill="white" stroke="black" points="502,-517.5 502,-536.5 650,-536.5 650,-517.5 502,-517.5"/>
<text text-anchor="middle" x="576" y="-524.5" font-family="Helvetica,sans-Serif" font-size="10.00">SurveyMapEntity::setRotation</text>
</a>
</g>
</g>
<!-- Node29&#45;&gt;Node32 -->
<g id="edge33" class="edge"><title>Node29&#45;&gt;Node32</title>
<path fill="none" stroke="midnightblue" d="M265.38,-605.436C273.311,-602.766 281.113,-599.356 288,-595 309.065,-581.677 301.968,-563.654 324,-552 375.261,-524.886 440.651,-519.134 491.836,-519.898"/>
<polygon fill="midnightblue" stroke="midnightblue" points="491.796,-523.398 501.875,-520.133 491.96,-516.4 491.796,-523.398"/>
</g>
<!-- Node33 -->
<g id="node33" class="node"><title>Node33</title>
<g id="a_node33"><a xlink:href="class_survey_map_entity.html#ad3cc1cb8f1e71f876290abb0eb004c05" target="_top" xlink:title="SurveyMapEntity::setVisibility">
<polygon fill="white" stroke="black" points="502,-479.5 502,-498.5 650,-498.5 650,-479.5 502,-479.5"/>
<text text-anchor="middle" x="576" y="-486.5" font-family="Helvetica,sans-Serif" font-size="10.00">SurveyMapEntity::setVisibility</text>
</a>
</g>
</g>
<!-- Node29&#45;&gt;Node33 -->
<g id="edge34" class="edge"><title>Node29&#45;&gt;Node33</title>
<path fill="none" stroke="midnightblue" d="M270.453,-605.456C276.799,-602.772 282.818,-599.353 288,-595 317.544,-570.182 292.713,-538.582 324,-516 374.914,-479.252 447.453,-475.179 501.466,-478.718"/>
<polygon fill="midnightblue" stroke="midnightblue" points="501.432,-482.225 511.668,-479.49 501.961,-475.245 501.432,-482.225"/>
</g>
<!-- Node34 -->
<g id="node34" class="node"><title>Node34</title>
<g id="a_node34"><a xlink:href="class_character.html#adb69cfa9a30f3b698e97417d1369824a" target="_top" xlink:title="Character::createMapEntity">
<polygon fill="white" stroke="black" points="326.5,-561.5 326.5,-580.5 463.5,-580.5 463.5,-561.5 326.5,-561.5"/>
<text text-anchor="middle" x="395" y="-568.5" font-family="Helvetica,sans-Serif" font-size="10.00">Character::createMapEntity</text>
</a>
</g>
</g>
<!-- Node29&#45;&gt;Node34 -->
<g id="edge35" class="edge"><title>Node29&#45;&gt;Node34</title>
<path fill="none" stroke="midnightblue" d="M250.708,-605.453C278.166,-598.851 314.902,-590.018 344.303,-582.949"/>
<polygon fill="midnightblue" stroke="midnightblue" points="345.465,-586.27 354.369,-580.529 343.828,-579.464 345.465,-586.27"/>
</g>
<!-- Node34&#45;&gt;Node31 -->
<g id="edge46" class="edge"><title>Node34&#45;&gt;Node31</title>
<path fill="none" stroke="midnightblue" d="M435.001,-580.587C445.554,-584.168 456.638,-588.895 466,-595 485.759,-607.885 481.767,-621.872 502,-634 505.665,-636.197 509.581,-638.142 513.625,-639.864"/>
<polygon fill="midnightblue" stroke="midnightblue" points="512.643,-643.235 523.235,-643.492 515.116,-636.686 512.643,-643.235"/>
</g>
<!-- Node34&#45;&gt;Node32 -->
<g id="edge47" class="edge"><title>Node34&#45;&gt;Node32</title>
<path fill="none" stroke="midnightblue" d="M434.84,-561.453C461.698,-554.851 497.631,-546.018 526.389,-538.949"/>
<polygon fill="midnightblue" stroke="midnightblue" points="527.36,-542.315 536.235,-536.529 525.689,-535.517 527.36,-542.315"/>
</g>
<!-- Node34&#45;&gt;Node33 -->
<g id="edge45" class="edge"><title>Node34&#45;&gt;Node33</title>
<path fill="none" stroke="midnightblue" d="M409.403,-561.336C428.903,-547.681 466.637,-522.761 502,-508 507.79,-505.583 513.969,-503.406 520.189,-501.462"/>
<polygon fill="midnightblue" stroke="midnightblue" points="521.336,-504.773 529.947,-498.601 519.366,-498.056 521.336,-504.773"/>
</g>
<!-- Node35 -->
<g id="node35" class="node"><title>Node35</title>
<g id="a_node35"><a xlink:href="class_survey_map_manager.html#a8d4bc71b43014156c7f1d620988ceb8f" target="_top" xlink:title="SurveyMapManager::create\lNamedMapEntity">
<polygon fill="white" stroke="black" points="507.5,-556 507.5,-586 644.5,-586 644.5,-556 507.5,-556"/>
<text text-anchor="start" x="515.5" y="-574" font-family="Helvetica,sans-Serif" font-size="10.00">SurveyMapManager::create</text>
<text text-anchor="middle" x="576" y="-563" font-family="Helvetica,sans-Serif" font-size="10.00">NamedMapEntity</text>
</a>
</g>
</g>
<!-- Node34&#45;&gt;Node35 -->
<g id="edge36" class="edge"><title>Node34&#45;&gt;Node35</title>
<path fill="none" stroke="midnightblue" d="M463.672,-571C474.587,-571 485.964,-571 497.097,-571"/>
<polygon fill="midnightblue" stroke="midnightblue" points="497.232,-574.5 507.232,-571 497.232,-567.5 497.232,-574.5"/>
</g>
<!-- Node37 -->
<g id="node37" class="node"><title>Node37</title>
<g id="a_node37"><a xlink:href="class_survey_map_entity.html#a24cc0fef7d3f1f296e7e8ccf94413fa5" target="_top" xlink:title="SurveyMapEntity::setState">
<polygon fill="white" stroke="black" points="509,-605.5 509,-624.5 643,-624.5 643,-605.5 509,-605.5"/>
<text text-anchor="middle" x="576" y="-612.5" font-family="Helvetica,sans-Serif" font-size="10.00">SurveyMapEntity::setState</text>
</a>
</g>
</g>
<!-- Node34&#45;&gt;Node37 -->
<g id="edge38" class="edge"><title>Node34&#45;&gt;Node37</title>
<path fill="none" stroke="midnightblue" d="M434.84,-580.547C461.698,-587.149 497.631,-595.982 526.389,-603.051"/>
<polygon fill="midnightblue" stroke="midnightblue" points="525.689,-606.483 536.235,-605.471 527.36,-599.685 525.689,-606.483"/>
</g>
<!-- Node36 -->
<g id="node36" class="node"><title>Node36</title>
<g id="a_node36"><a xlink:href="class_survey_map_manager.html#a7af7a8d747001ee3749c4c0b97a32375" target="_top" xlink:title="SurveyMapManager::create\lMapEntity">
<polygon fill="white" stroke="black" points="694.5,-556 694.5,-586 831.5,-586 831.5,-556 694.5,-556"/>
<text text-anchor="start" x="702.5" y="-574" font-family="Helvetica,sans-Serif" font-size="10.00">SurveyMapManager::create</text>
<text text-anchor="middle" x="763" y="-563" font-family="Helvetica,sans-Serif" font-size="10.00">MapEntity</text>
</a>
</g>
</g>
<!-- Node35&#45;&gt;Node36 -->
<g id="edge37" class="edge"><title>Node35&#45;&gt;Node36</title>
<path fill="none" stroke="midnightblue" d="M644.575,-571C657.362,-571 670.835,-571 683.915,-571"/>
<polygon fill="midnightblue" stroke="midnightblue" points="684.299,-574.5 694.299,-571 684.299,-567.5 684.299,-574.5"/>
</g>
<!-- Node38 -->
<g id="node38" class="node"><title>Node38</title>
<g id="a_node38"><a xlink:href="class_survey_map_entity.html#ad83a9d2fd4ab8d3a3841f9e1b0eae729" target="_top" xlink:title="SurveyMapEntity::updateIcon">
<polygon fill="white" stroke="black" points="690,-643.5 690,-662.5 836,-662.5 836,-643.5 690,-643.5"/>
<text text-anchor="middle" x="763" y="-650.5" font-family="Helvetica,sans-Serif" font-size="10.00">SurveyMapEntity::updateIcon</text>
</a>
</g>
</g>
<!-- Node37&#45;&gt;Node38 -->
<g id="edge39" class="edge"><title>Node37&#45;&gt;Node38</title>
<path fill="none" stroke="midnightblue" d="M623.683,-624.589C648.646,-629.716 679.564,-636.067 705.834,-641.463"/>
<polygon fill="midnightblue" stroke="midnightblue" points="705.153,-644.896 715.652,-643.48 706.561,-638.039 705.153,-644.896"/>
</g>
<!-- Node39 -->
<g id="node39" class="node"><title>Node39</title>
<g id="a_node39"><a xlink:href="class_survey_map_entity.html#af393a262b4094ca586036e08943b6d72" target="_top" xlink:title="SurveyMapEntity::update">
<polygon fill="white" stroke="black" points="699.5,-605.5 699.5,-624.5 826.5,-624.5 826.5,-605.5 699.5,-605.5"/>
<text text-anchor="middle" x="763" y="-612.5" font-family="Helvetica,sans-Serif" font-size="10.00">SurveyMapEntity::update</text>
</a>
</g>
</g>
<!-- Node37&#45;&gt;Node39 -->
<g id="edge40" class="edge"><title>Node37&#45;&gt;Node39</title>
<path fill="none" stroke="midnightblue" d="M643.006,-615C657.929,-615 673.857,-615 689.048,-615"/>
<polygon fill="midnightblue" stroke="midnightblue" points="689.425,-618.5 699.425,-615 689.425,-611.5 689.425,-618.5"/>
</g>
<!-- Node39&#45;&gt;Node5 -->
<g id="edge42" class="edge"><title>Node39&#45;&gt;Node5</title>
<path fill="none" stroke="midnightblue" d="M818.24,-624.505C825.825,-626.979 833.306,-630.09 840,-634 860.088,-645.735 855.725,-660.591 876,-672 880.016,-674.26 884.275,-676.251 888.666,-678.006"/>
<polygon fill="midnightblue" stroke="midnightblue" points="887.856,-681.432 898.45,-681.482 890.199,-674.836 887.856,-681.432"/>
</g>
<!-- Node40 -->
<g id="node40" class="node"><title>Node40</title>
<g id="a_node40"><a xlink:href="class_survey_map_manager.html#a959f28a84f3b54803983c734bcc849e1" target="_top" xlink:title="SurveyMapManager::getMap\lEntitiesVisible">
<polygon fill="white" stroke="black" points="894,-556 894,-586 1036,-586 1036,-556 894,-556"/>
<text text-anchor="start" x="902" y="-574" font-family="Helvetica,sans-Serif" font-size="10.00">SurveyMapManager::getMap</text>
<text text-anchor="middle" x="965" y="-563" font-family="Helvetica,sans-Serif" font-size="10.00">EntitiesVisible</text>
</a>
</g>
</g>
<!-- Node39&#45;&gt;Node40 -->
<g id="edge41" class="edge"><title>Node39&#45;&gt;Node40</title>
<path fill="none" stroke="midnightblue" d="M807.397,-605.453C830.216,-600.432 858.899,-594.122 885.461,-588.279"/>
<polygon fill="midnightblue" stroke="midnightblue" points="886.507,-591.632 895.521,-586.065 885.003,-584.796 886.507,-591.632"/>
</g>
<!-- Node41 -->
<g id="node41" class="node"><title>Node41</title>
<g id="a_node41"><a xlink:href="class_survey_map_manager.html#afdabdbdf87d39f253ecd17af1770a516" target="_top" xlink:title="SurveyMapManager::getWindowSize">
<polygon fill="white" stroke="black" points="876,-643.5 876,-662.5 1054,-662.5 1054,-643.5 876,-643.5"/>
<text text-anchor="middle" x="965" y="-650.5" font-family="Helvetica,sans-Serif" font-size="10.00">SurveyMapManager::getWindowSize</text>
</a>
</g>
</g>
<!-- Node39&#45;&gt;Node41 -->
<g id="edge43" class="edge"><title>Node39&#45;&gt;Node41</title>
<path fill="none" stroke="midnightblue" d="M814.21,-624.54C841.433,-629.712 875.264,-636.14 903.883,-641.578"/>
<polygon fill="midnightblue" stroke="midnightblue" points="903.291,-645.028 913.769,-643.456 904.598,-638.151 903.291,-645.028"/>
</g>
<!-- Node42 -->
<g id="node42" class="node"><title>Node42</title>
<g id="a_node42"><a xlink:href="class_survey_map_manager.html#aec8d2ee435b736ae628d3924a6d2b29d" target="_top" xlink:title="SurveyMapManager::getMapSize">
<polygon fill="white" stroke="black" points="884.5,-605.5 884.5,-624.5 1045.5,-624.5 1045.5,-605.5 884.5,-605.5"/>
<text text-anchor="middle" x="965" y="-612.5" font-family="Helvetica,sans-Serif" font-size="10.00">SurveyMapManager::getMapSize</text>
</a>
</g>
</g>
<!-- Node39&#45;&gt;Node42 -->
<g id="edge44" class="edge"><title>Node39&#45;&gt;Node42</title>
<path fill="none" stroke="midnightblue" d="M826.733,-615C841.674,-615 857.911,-615 873.814,-615"/>
<polygon fill="midnightblue" stroke="midnightblue" points="874.199,-618.5 884.199,-615 874.199,-611.5 874.199,-618.5"/>
</g>
<!-- Node45&#45;&gt;Node30 -->
<g id="edge51" class="edge"><title>Node45&#45;&gt;Node30</title>
<path fill="none" stroke="midnightblue" d="M267.399,-653C282.044,-653 298.104,-653 313.72,-653"/>
<polygon fill="midnightblue" stroke="midnightblue" points="313.9,-656.5 323.899,-653 313.899,-649.5 313.9,-656.5"/>
</g>
<!-- Node45&#45;&gt;Node31 -->
<g id="edge52" class="edge"><title>Node45&#45;&gt;Node31</title>
<path fill="none" stroke="midnightblue" d="M246.573,-662.553C268.672,-667.988 297.771,-674.245 324,-677 386.766,-683.592 403.259,-683.826 466,-677 487.489,-674.662 510.948,-669.805 530.579,-665.067"/>
<polygon fill="midnightblue" stroke="midnightblue" points="531.602,-668.419 540.465,-662.615 529.916,-661.625 531.602,-668.419"/>
</g>
</g>
</svg>
        <g id="navigator" transform="translate(0 0)" fill="#404254">
                <rect fill="#f2f5e9" fill-opacity="0.5" stroke="#606060" stroke-width=".5" x="0" y="0" width="60" height="60"/>
                <use id="zoomplus" xlink:href="#zoomPlus" x="17" y="9" onmousedown="handleZoom(evt,'in')"/>
                <use id="zoomminus" xlink:href="#zoomMin" x="42" y="9" onmousedown="handleZoom(evt,'out')"/>
                <use id="reset" xlink:href="#resetDef" x="30" y="36" onmousedown="handleReset()"/>
                <g id="arrowUp" xlink:href="#dirArrow" transform="translate(30 24)" onmousedown="handlePan(0,-1)">
                  <use xlink:href="#rim" fill="#404040">
                        <set attributeName="fill" to="#808080" begin="arrowUp.mouseover" end="arrowUp.mouseout"/>
                  </use>
                  <path fill="none" stroke="white" stroke-width="1.5" d="M0,-3.0v7 M-2.5,-0.5L0,-3.0L2.5,-0.5"/>
                </g>
                <g id="arrowRight" xlink:href="#dirArrow" transform="rotate(90) translate(36 -43)" onmousedown="handlePan(1,0)">
                  <use xlink:href="#rim" fill="#404040">
                        <set attributeName="fill" to="#808080" begin="arrowRight.mouseover" end="arrowRight.mouseout"/>
                  </use>
                  <path fill="none" stroke="white" stroke-width="1.5" d="M0,-3.0v7 M-2.5,-0.5L0,-3.0L2.5,-0.5"/>
                </g>
                <g id="arrowDown" xlink:href="#dirArrow" transform="rotate(180) translate(-30 -48)" onmousedown="handlePan(0,1)">
                  <use xlink:href="#rim" fill="#404040">
                        <set attributeName="fill" to="#808080" begin="arrowDown.mouseover" end="arrowDown.mouseout"/>
                  </use>
                  <path fill="none" stroke="white" stroke-width="1.5" d="M0,-3.0v7 M-2.5,-0.5L0,-3.0L2.5,-0.5"/>
                </g>
                <g id="arrowLeft" xlink:href="#dirArrow" transform="rotate(270) translate(-36 17)" onmousedown="handlePan(-1,0)">
                  <use xlink:href="#rim" fill="#404040">
                        <set attributeName="fill" to="#808080" begin="arrowLeft.mouseover" end="arrowLeft.mouseout"/>
                  </use>
                  <path fill="none" stroke="white" stroke-width="1.5" d="M0,-3.0v7 M-2.5,-0.5L0,-3.0L2.5,-0.5"/>
                </g>
        </g>
        <svg viewBox="0 0 15 15" width="100%" height="30px" preserveAspectRatio="xMaxYMin meet">
         <g id="arrow_out" transform="scale(0.3 0.3)">
          <a xlink:href="class_character_a4806a9150eb30673bab3d0b47e05d135_cgraph_org.svg" target="_base">
           <rect id="button" ry="5" rx="5" y="6" x="6" height="38" width="38"
                fill="#f2f5e9" fill-opacity="0.5" stroke="#606060" stroke-width="1.0"/>
           <path id="arrow"
             d="M 11.500037,31.436501 C 11.940474,20.09759 22.043105,11.32322 32.158766,21.979434 L 37.068811,17.246167 C 37.068811,17.246167 37.088388,32 37.088388,32 L 22.160133,31.978069 C 22.160133,31.978069 26.997745,27.140456 26.997745,27.140456 C 18.528582,18.264221 13.291696,25.230495 11.500037,31.436501 z"
             style="fill:#404040;"/>
          </a>
         </g>
        </svg>
</svg>
