<?xml version="1.0" encoding="UTF-8" standalone="no"?>
<!DOCTYPE svg PUBLIC "-//W3C//DTD SVG 1.1//EN"
 "http://www.w3.org/Graphics/SVG/1.1/DTD/svg11.dtd">
<!-- Generated by graphviz version 2.36.0 (20140111.2315)
 -->
<!-- Title: RoR::MainMenu::JoinMultiplayerServer Pages: 1 -->
<svg width="694pt" height="203pt"
 viewBox="0.00 0.00 694.00 203.00" xmlns="http://www.w3.org/2000/svg" xmlns:xlink="http://www.w3.org/1999/xlink">
<g id="graph0" class="graph" transform="scale(1 1) rotate(0) translate(4 199)">
<title>RoR::MainMenu::JoinMultiplayerServer</title>
<polygon fill="white" stroke="none" points="-4,4 -4,-199 690,-199 690,4 -4,4"/>
<!-- Node1 -->
<g id="node1" class="node"><title>Node1</title>
<polygon fill="#bfbfbf" stroke="black" points="0.5,-82 0.5,-112 159.5,-112 159.5,-82 0.5,-82"/>
<text text-anchor="start" x="8.5" y="-100" font-family="Helvetica,sans-Serif" font-size="10.00">RoR::MainMenu::JoinMultiplayer</text>
<text text-anchor="middle" x="80" y="-89" font-family="Helvetica,sans-Serif" font-size="10.00">Server</text>
</g>
<!-- Node2 -->
<g id="node2" class="node"><title>Node2</title>
<g id="a_node2"><a xlink:href="namespace_ro_r_1_1_app.html#a68d6403d2b36006a6fa2d28f5ba8f12f" target="_top" xlink:title="RoR::App::GetGuiManager">
<polygon fill="white" stroke="black" points="208,-175.5 208,-194.5 342,-194.5 342,-175.5 208,-175.5"/>
<text text-anchor="middle" x="275" y="-182.5" font-family="Helvetica,sans-Serif" font-size="10.00">RoR::App::GetGuiManager</text>
</a>
</g>
</g>
<!-- Node1&#45;&gt;Node2 -->
<g id="edge1" class="edge"><title>Node1&#45;&gt;Node2</title>
<path fill="none" stroke="midnightblue" d="M102.502,-112.242C124.907,-127.503 161.497,-150.716 196,-165 203.005,-167.9 210.543,-170.469 218.074,-172.717"/>
<polygon fill="midnightblue" stroke="midnightblue" points="217.349,-176.149 227.923,-175.488 219.245,-169.41 217.349,-176.149"/>
</g>
<!-- Node3 -->
<g id="node3" class="node"><title>Node3</title>
<g id="a_node3"><a xlink:href="namespace_ro_r_1_1_chat_system.html#a6f241a03cbcff913db50001fa2bb0ae7" target="_top" xlink:title="RoR::ChatSystem::SendStream\lSetup">
<polygon fill="white" stroke="black" points="196,-126 196,-156 354,-156 354,-126 196,-126"/>
<text text-anchor="start" x="204" y="-144" font-family="Helvetica,sans-Serif" font-size="10.00">RoR::ChatSystem::SendStream</text>
<text text-anchor="middle" x="275" y="-133" font-family="Helvetica,sans-Serif" font-size="10.00">Setup</text>
</a>
</g>
</g>
<!-- Node1&#45;&gt;Node3 -->
<g id="edge2" class="edge"><title>Node1&#45;&gt;Node3</title>
<path fill="none" stroke="midnightblue" d="M146.88,-112.019C163.402,-115.786 181.261,-119.857 198.223,-123.724"/>
<polygon fill="midnightblue" stroke="midnightblue" points="197.562,-127.163 208.09,-125.974 199.118,-120.339 197.562,-127.163"/>
</g>
<!-- Node4 -->
<g id="node4" class="node"><title>Node4</title>
<g id="a_node4"><a xlink:href="namespace_ro_r_1_1_app.html#af4b16dd2fadb7771dae5f0d97f93eed8" target="_top" xlink:title="RoR::App::SetSimNextTerrain">
<polygon fill="white" stroke="black" points="200.5,-87.5 200.5,-106.5 349.5,-106.5 349.5,-87.5 200.5,-87.5"/>
<text text-anchor="middle" x="275" y="-94.5" font-family="Helvetica,sans-Serif" font-size="10.00">RoR::App::SetSimNextTerrain</text>
</a>
</g>
</g>
<!-- Node1&#45;&gt;Node4 -->
<g id="edge3" class="edge"><title>Node1&#45;&gt;Node4</title>
<path fill="none" stroke="midnightblue" d="M159.5,-97C169.597,-97 179.967,-97 190.146,-97"/>
<polygon fill="midnightblue" stroke="midnightblue" points="190.243,-100.5 200.243,-97 190.243,-93.5001 190.243,-100.5"/>
</g>
<!-- Node6 -->
<g id="node6" class="node"><title>Node6</title>
<g id="a_node6"><a xlink:href="namespace_ro_r_1_1_app.html#a9c821dcc2190b100f4003e72e0b924b1" target="_top" xlink:title="RoR::App::SetPendingAppState">
<polygon fill="white" stroke="black" points="196.5,-49.5 196.5,-68.5 353.5,-68.5 353.5,-49.5 196.5,-49.5"/>
<text text-anchor="middle" x="275" y="-56.5" font-family="Helvetica,sans-Serif" font-size="10.00">RoR::App::SetPendingAppState</text>
</a>
</g>
</g>
<!-- Node1&#45;&gt;Node6 -->
<g id="edge5" class="edge"><title>Node1&#45;&gt;Node6</title>
<path fill="none" stroke="midnightblue" d="M157.279,-81.9814C176.748,-78.148 197.367,-74.0883 215.771,-70.4648"/>
<polygon fill="midnightblue" stroke="midnightblue" points="216.61,-73.8669 225.745,-68.5009 215.258,-66.9988 216.61,-73.8669"/>
</g>
<!-- Node10 -->
<g id="node10" class="node"><title>Node10</title>
<g id="a_node10"><a xlink:href="namespace_ro_r_1_1_app.html#ace3cf184630c4e8380fb9abdc2fd9c4e" target="_top" xlink:title="RoR::App::GetDiagPreselected\lTerrain">
<polygon fill="white" stroke="black" points="198,-0 198,-30 352,-30 352,-0 198,-0"/>
<text text-anchor="start" x="206" y="-18" font-family="Helvetica,sans-Serif" font-size="10.00">RoR::App::GetDiagPreselected</text>
<text text-anchor="middle" x="275" y="-7" font-family="Helvetica,sans-Serif" font-size="10.00">Terrain</text>
</a>
</g>
</g>
<!-- Node1&#45;&gt;Node10 -->
<g id="edge9" class="edge"><title>Node1&#45;&gt;Node10</title>
<path fill="none" stroke="midnightblue" d="M108.351,-81.9885C131.321,-69.7371 165.231,-52.4744 196,-40 201.708,-37.6859 207.717,-35.4393 213.762,-33.3034"/>
<polygon fill="midnightblue" stroke="midnightblue" points="214.932,-36.6025 223.253,-30.0446 212.659,-29.9819 214.932,-36.6025"/>
</g>
<!-- Node5 -->
<g id="node5" class="node"><title>Node5</title>
<g id="a_node5"><a xlink:href="namespace_ro_r_1_1_app.html#a14508a8885a04713a5a39d5628be83c9" target="_top" xlink:title="RoR::App::SetVarStr">
<polygon fill="white" stroke="black" points="401.5,-87.5 401.5,-106.5 510.5,-106.5 510.5,-87.5 401.5,-87.5"/>
<text text-anchor="middle" x="456" y="-94.5" font-family="Helvetica,sans-Serif" font-size="10.00">RoR::App::SetVarStr</text>
</a>
</g>
</g>
<!-- Node4&#45;&gt;Node5 -->
<g id="edge4" class="edge"><title>Node4&#45;&gt;Node5</title>
<path fill="none" stroke="midnightblue" d="M349.581,-97C363.412,-97 377.768,-97 391.268,-97"/>
<polygon fill="midnightblue" stroke="midnightblue" points="391.402,-100.5 401.402,-97 391.402,-93.5001 391.402,-100.5"/>
</g>
<!-- Node7 -->
<g id="node7" class="node"><title>Node7</title>
<g id="a_node7"><a xlink:href="namespace_ro_r_1_1_app.html#ae7ca05a9e2c04da99c1305919b3002b3" target="_top" xlink:title="RoR::App::SetVarEnum">
<polygon fill="white" stroke="black" points="395,-49.5 395,-68.5 517,-68.5 517,-49.5 395,-49.5"/>
<text text-anchor="middle" x="456" y="-56.5" font-family="Helvetica,sans-Serif" font-size="10.00">RoR::App::SetVarEnum</text>
</a>
</g>
</g>
<!-- Node6&#45;&gt;Node7 -->
<g id="edge6" class="edge"><title>Node6&#45;&gt;Node7</title>
<path fill="none" stroke="midnightblue" d="M353.731,-59C364.062,-59 374.607,-59 384.8,-59"/>
<polygon fill="midnightblue" stroke="midnightblue" points="384.856,-62.5001 394.856,-59 384.856,-55.5001 384.856,-62.5001"/>
</g>
<!-- Node9 -->
<g id="node9" class="node"><title>Node9</title>
<g id="a_node9"><a xlink:href="namespace_ro_r_1_1_app.html#a18ba521dde82ec933a84f3dd87d372e9" target="_top" xlink:title="RoR::App::AppStateToStr">
<polygon fill="white" stroke="black" points="390.5,-11.5 390.5,-30.5 521.5,-30.5 521.5,-11.5 390.5,-11.5"/>
<text text-anchor="middle" x="456" y="-18.5" font-family="Helvetica,sans-Serif" font-size="10.00">RoR::App::AppStateToStr</text>
</a>
</g>
</g>
<!-- Node6&#45;&gt;Node9 -->
<g id="edge8" class="edge"><title>Node6&#45;&gt;Node9</title>
<path fill="none" stroke="midnightblue" d="M321.169,-49.411C345.216,-44.3061 374.974,-37.9887 400.319,-32.6082"/>
<polygon fill="midnightblue" stroke="midnightblue" points="401.1,-36.0205 410.156,-30.5201 399.647,-29.1731 401.1,-36.0205"/>
</g>
<!-- Node8 -->
<g id="node8" class="node"><title>Node8</title>
<g id="a_node8"><a xlink:href="namespace_ro_r_1_1_app.html#a3492dc6307a9d930ac73578e0d1f005e" target="_top" xlink:title="RoR::App::LogVarUpdate">
<polygon fill="white" stroke="black" points="558,-49.5 558,-68.5 686,-68.5 686,-49.5 558,-49.5"/>
<text text-anchor="middle" x="622" y="-56.5" font-family="Helvetica,sans-Serif" font-size="10.00">RoR::App::LogVarUpdate</text>
</a>
</g>
</g>
<!-- Node7&#45;&gt;Node8 -->
<g id="edge7" class="edge"><title>Node7&#45;&gt;Node8</title>
<path fill="none" stroke="midnightblue" d="M517.136,-59C527.078,-59 537.482,-59 547.704,-59"/>
<polygon fill="midnightblue" stroke="midnightblue" points="547.841,-62.5001 557.841,-59 547.841,-55.5001 547.841,-62.5001"/>
</g>
</g>
</svg>
