<?xml version="1.0" encoding="UTF-8" standalone="no"?>
<!DOCTYPE svg PUBLIC "-//W3C//DTD SVG 1.1//EN"
 "http://www.w3.org/Graphics/SVG/1.1/DTD/svg11.dtd">
<!-- Generated by graphviz version 2.36.0 (20140111.2315)
 -->
<!-- Title: RigDef::Parser::ParseAirbrakes Pages: 1 -->
<svg width="734pt" height="158pt"
 viewBox="0.00 0.00 734.00 158.00" xmlns="http://www.w3.org/2000/svg" xmlns:xlink="http://www.w3.org/1999/xlink">
<g id="graph0" class="graph" transform="scale(1 1) rotate(0) translate(4 154)">
<title>RigDef::Parser::ParseAirbrakes</title>
<polygon fill="white" stroke="none" points="-4,4 -4,-154 730,-154 730,4 -4,4"/>
<!-- Node1 -->
<g id="node1" class="node"><title>Node1</title>
<polygon fill="#bfbfbf" stroke="black" points="0.5,-81.5 0.5,-100.5 155.5,-100.5 155.5,-81.5 0.5,-81.5"/>
<text text-anchor="middle" x="78" y="-88.5" font-family="Helvetica,sans-Serif" font-size="10.00">RigDef::Parser::ParseAirbrakes</text>
</g>
<!-- Node2 -->
<g id="node2" class="node"><title>Node2</title>
<g id="a_node2"><a xlink:href="class_rig_def_1_1_parser.html#a8397c243299359e21a84243c01ca43bf" target="_top" xlink:title="RigDef::Parser::CheckNum\lArguments">
<polygon fill="white" stroke="black" points="396.5,-120 396.5,-150 533.5,-150 533.5,-120 396.5,-120"/>
<text text-anchor="start" x="404.5" y="-138" font-family="Helvetica,sans-Serif" font-size="10.00">RigDef::Parser::CheckNum</text>
<text text-anchor="middle" x="465" y="-127" font-family="Helvetica,sans-Serif" font-size="10.00">Arguments</text>
</a>
</g>
</g>
<!-- Node1&#45;&gt;Node2 -->
<g id="edge1" class="edge"><title>Node1&#45;&gt;Node2</title>
<path fill="none" stroke="midnightblue" d="M130.633,-100.518C149.851,-103.84 171.878,-107.387 192,-110 257.275,-118.475 331.729,-125.11 386.219,-129.408"/>
<polygon fill="midnightblue" stroke="midnightblue" points="386.256,-132.921 396.497,-130.209 386.8,-125.942 386.256,-132.921"/>
</g>
<!-- Node4 -->
<g id="node4" class="node"><title>Node4</title>
<g id="a_node4"><a xlink:href="class_rig_def_1_1_parser.html#a57b7efa0a566ae343d6148a05d420eae" target="_top" xlink:title="RigDef::Parser::GetArgNodeRef">
<polygon fill="white" stroke="black" points="192,-43.5 192,-62.5 350,-62.5 350,-43.5 192,-43.5"/>
<text text-anchor="middle" x="271" y="-50.5" font-family="Helvetica,sans-Serif" font-size="10.00">RigDef::Parser::GetArgNodeRef</text>
</a>
</g>
</g>
<!-- Node1&#45;&gt;Node4 -->
<g id="edge3" class="edge"><title>Node1&#45;&gt;Node4</title>
<path fill="none" stroke="midnightblue" d="M127.197,-81.411C152.97,-76.2835 184.891,-69.9328 212.012,-64.5368"/>
<polygon fill="midnightblue" stroke="midnightblue" points="213.024,-67.9041 222.149,-62.5201 211.658,-61.0387 213.024,-67.9041"/>
</g>
<!-- Node8 -->
<g id="node8" class="node"><title>Node8</title>
<g id="a_node8"><a xlink:href="class_rig_def_1_1_parser.html#ae77a4970494c116e98a92be7a0160a16" target="_top" xlink:title="RigDef::Parser::GetArgFloat">
<polygon fill="white" stroke="black" points="201,-81.5 201,-100.5 341,-100.5 341,-81.5 201,-81.5"/>
<text text-anchor="middle" x="271" y="-88.5" font-family="Helvetica,sans-Serif" font-size="10.00">RigDef::Parser::GetArgFloat</text>
</a>
</g>
</g>
<!-- Node1&#45;&gt;Node8 -->
<g id="edge8" class="edge"><title>Node1&#45;&gt;Node8</title>
<path fill="none" stroke="midnightblue" d="M155.586,-91C167.145,-91 179.09,-91 190.704,-91"/>
<polygon fill="midnightblue" stroke="midnightblue" points="190.808,-94.5001 200.808,-91 190.808,-87.5001 190.808,-94.5001"/>
</g>
<!-- Node3 -->
<g id="node3" class="node"><title>Node3</title>
<g id="a_node3"><a xlink:href="class_rig_def_1_1_parser.html#a7da949423835fe3241f2ac4c5ac8ebb1" target="_top" xlink:title="Adds a message to parser report. ">
<polygon fill="white" stroke="black" points="580.5,-81.5 580.5,-100.5 725.5,-100.5 725.5,-81.5 580.5,-81.5"/>
<text text-anchor="middle" x="653" y="-88.5" font-family="Helvetica,sans-Serif" font-size="10.00">RigDef::Parser::AddMessage</text>
</a>
</g>
</g>
<!-- Node2&#45;&gt;Node3 -->
<g id="edge2" class="edge"><title>Node2&#45;&gt;Node3</title>
<path fill="none" stroke="midnightblue" d="M529.49,-119.981C553.127,-114.389 579.602,-108.126 601.875,-102.857"/>
<polygon fill="midnightblue" stroke="midnightblue" points="602.863,-106.221 611.788,-100.512 601.251,-99.4086 602.863,-106.221"/>
</g>
<!-- Node5 -->
<g id="node5" class="node"><title>Node5</title>
<g id="a_node5"><a xlink:href="class_rig_def_1_1_parser.html#a38e4135df406da0cc2f0fc4afb34ddb3" target="_top" xlink:title="RigDef::Parser::_ParseNodeRef">
<polygon fill="white" stroke="black" points="386,-5.5 386,-24.5 544,-24.5 544,-5.5 386,-5.5"/>
<text text-anchor="middle" x="465" y="-12.5" font-family="Helvetica,sans-Serif" font-size="10.00">RigDef::Parser::_ParseNodeRef</text>
</a>
</g>
</g>
<!-- Node4&#45;&gt;Node5 -->
<g id="edge4" class="edge"><title>Node4&#45;&gt;Node5</title>
<path fill="none" stroke="midnightblue" d="M320.45,-43.411C346.471,-38.261 378.728,-31.8768 406.069,-26.4656"/>
<polygon fill="midnightblue" stroke="midnightblue" points="406.769,-29.895 415.899,-24.5201 405.409,-23.0282 406.769,-29.895"/>
</g>
<!-- Node7 -->
<g id="node7" class="node"><title>Node7</title>
<g id="a_node7"><a xlink:href="class_rig_def_1_1_parser.html#a629f3ff2e6181f7953ec28168b0aac00" target="_top" xlink:title="RigDef::Parser::GetArgStr">
<polygon fill="white" stroke="black" points="399.5,-43.5 399.5,-62.5 530.5,-62.5 530.5,-43.5 399.5,-43.5"/>
<text text-anchor="middle" x="465" y="-50.5" font-family="Helvetica,sans-Serif" font-size="10.00">RigDef::Parser::GetArgStr</text>
</a>
</g>
</g>
<!-- Node4&#45;&gt;Node7 -->
<g id="edge7" class="edge"><title>Node4&#45;&gt;Node7</title>
<path fill="none" stroke="midnightblue" d="M350.094,-53C363.037,-53 376.431,-53 389.288,-53"/>
<polygon fill="midnightblue" stroke="midnightblue" points="389.466,-56.5001 399.466,-53 389.466,-49.5001 389.466,-56.5001"/>
</g>
<!-- Node5&#45;&gt;Node3 -->
<g id="edge6" class="edge"><title>Node5&#45;&gt;Node3</title>
<path fill="none" stroke="midnightblue" d="M513.179,-24.5073C523.483,-27.1306 534.225,-30.2953 544,-34 574.222,-45.4542 606.746,-63.4786 628.115,-76.187"/>
<polygon fill="midnightblue" stroke="midnightblue" points="626.455,-79.2728 636.825,-81.441 630.07,-73.2788 626.455,-79.2728"/>
</g>
<!-- Node6 -->
<g id="node6" class="node"><title>Node6</title>
<g id="a_node6"><a xlink:href="class_rig_def_1_1_sequential_importer.html#a04d293d8b1f94b9a722e83715911e547" target="_top" xlink:title="RigDef::SequentialImporter\l::IsEnabled">
<polygon fill="white" stroke="black" points="585.5,-0 585.5,-30 720.5,-30 720.5,-0 585.5,-0"/>
<text text-anchor="start" x="593.5" y="-18" font-family="Helvetica,sans-Serif" font-size="10.00">RigDef::SequentialImporter</text>
<text text-anchor="middle" x="653" y="-7" font-family="Helvetica,sans-Serif" font-size="10.00">::IsEnabled</text>
</a>
</g>
</g>
<!-- Node5&#45;&gt;Node6 -->
<g id="edge5" class="edge"><title>Node5&#45;&gt;Node6</title>
<path fill="none" stroke="midnightblue" d="M544.072,-15C554.362,-15 564.902,-15 575.17,-15"/>
<polygon fill="midnightblue" stroke="midnightblue" points="575.329,-18.5001 585.329,-15 575.329,-11.5001 575.329,-18.5001"/>
</g>
<!-- Node8&#45;&gt;Node3 -->
<g id="edge9" class="edge"><title>Node8&#45;&gt;Node3</title>
<path fill="none" stroke="midnightblue" d="M341.256,-91C405.702,-91 501.792,-91 570.035,-91"/>
<polygon fill="midnightblue" stroke="midnightblue" points="570.316,-94.5001 580.316,-91 570.316,-87.5001 570.316,-94.5001"/>
</g>
</g>
</svg>
