<?xml version="1.0" encoding="UTF-8" standalone="no"?>
<!DOCTYPE svg PUBLIC "-//W3C//DTD SVG 1.1//EN"
 "http://www.w3.org/Graphics/SVG/1.1/DTD/svg11.dtd">
<!-- Generated by graphviz version 2.36.0 (20140111.2315)
 -->
<!-- Title: CScriptArray::AddRef Pages: 1 -->
<svg width="570pt" height="38pt"
 viewBox="0.00 0.00 570.00 38.00" xmlns="http://www.w3.org/2000/svg" xmlns:xlink="http://www.w3.org/1999/xlink">
<g id="graph0" class="graph" transform="scale(1 1) rotate(0) translate(4 34)">
<title>CScriptArray::AddRef</title>
<polygon fill="white" stroke="none" points="-4,4 -4,-34 566,-34 566,4 -4,4"/>
<!-- Node1 -->
<g id="node1" class="node"><title>Node1</title>
<polygon fill="#bfbfbf" stroke="black" points="0,-5.5 0,-24.5 112,-24.5 112,-5.5 0,-5.5"/>
<text text-anchor="middle" x="56" y="-12.5" font-family="Helvetica,sans-Serif" font-size="10.00">CScriptArray::AddRef</text>
</g>
<!-- Node2 -->
<g id="node2" class="node"><title>Node2</title>
<g id="a_node2"><a xlink:href="scriptarray_8cpp.html#a401960f38cb92bb78fd6df79a2bf5fb2" target="_top" xlink:title="ScriptArrayAddRef_Generic">
<polygon fill="white" stroke="black" points="148.5,-5.5 148.5,-24.5 285.5,-24.5 285.5,-5.5 148.5,-5.5"/>
<text text-anchor="middle" x="217" y="-12.5" font-family="Helvetica,sans-Serif" font-size="10.00">ScriptArrayAddRef_Generic</text>
</a>
</g>
</g>
<!-- Node1&#45;&gt;Node2 -->
<g id="edge1" class="edge"><title>Node1&#45;&gt;Node2</title>
<path fill="none" stroke="midnightblue" d="M122.442,-15C130.981,-15 139.744,-15 148.319,-15"/>
<polygon fill="midnightblue" stroke="midnightblue" points="122.164,-11.5001 112.164,-15 122.164,-18.5001 122.164,-11.5001"/>
</g>
<!-- Node3 -->
<g id="node3" class="node"><title>Node3</title>
<g id="a_node3"><a xlink:href="scriptarray_8cpp.html#a3f10cc670a493480c2a665a984710480" target="_top" xlink:title="RegisterScriptArray\l_Generic">
<polygon fill="white" stroke="black" points="322,-0 322,-30 424,-30 424,-0 322,-0"/>
<text text-anchor="start" x="330" y="-18" font-family="Helvetica,sans-Serif" font-size="10.00">RegisterScriptArray</text>
<text text-anchor="middle" x="373" y="-7" font-family="Helvetica,sans-Serif" font-size="10.00">_Generic</text>
</a>
</g>
</g>
<!-- Node2&#45;&gt;Node3 -->
<g id="edge2" class="edge"><title>Node2&#45;&gt;Node3</title>
<path fill="none" stroke="midnightblue" d="M295.823,-15C304.595,-15 313.352,-15 321.64,-15"/>
<polygon fill="midnightblue" stroke="midnightblue" points="295.547,-11.5001 285.547,-15 295.547,-18.5001 295.547,-11.5001"/>
</g>
<!-- Node4 -->
<g id="node4" class="node"><title>Node4</title>
<g id="a_node4"><a xlink:href="scriptarray_8h.html#ac97e4fe44bf13c876d66eadb481369da" target="_top" xlink:title="RegisterScriptArray">
<polygon fill="white" stroke="black" points="460,-5.5 460,-24.5 562,-24.5 562,-5.5 460,-5.5"/>
<text text-anchor="middle" x="511" y="-12.5" font-family="Helvetica,sans-Serif" font-size="10.00">RegisterScriptArray</text>
</a>
</g>
</g>
<!-- Node3&#45;&gt;Node4 -->
<g id="edge3" class="edge"><title>Node3&#45;&gt;Node4</title>
<path fill="none" stroke="midnightblue" d="M434.511,-15C443.013,-15 451.674,-15 459.952,-15"/>
<polygon fill="midnightblue" stroke="midnightblue" points="434.255,-11.5001 424.255,-15 434.255,-18.5001 434.255,-11.5001"/>
</g>
</g>
</svg>
