<?xml version="1.0" encoding="UTF-8" standalone="no"?>
<!DOCTYPE svg PUBLIC "-//W3C//DTD SVG 1.1//EN"
 "http://www.w3.org/Graphics/SVG/1.1/DTD/svg11.dtd">
<!-- Generated by graphviz version 2.36.0 (20140111.2315)
 -->
<!-- Title: Hydrax::Hydrax::getSunArea Pages: 1 -->
<!--zoomable 283 -->
<svg id="main" version="1.1" xmlns="http://www.w3.org/2000/svg" xmlns:xlink="http://www.w3.org/1999/xlink" xml:space="preserve" onload="init(evt)">
<style type="text/css"><![CDATA[
.edge:hover path { stroke: red; }
.edge:hover polygon { stroke: red; fill: red; }
]]></style>
<script type="text/javascript"><![CDATA[
var edges = document.getElementsByTagName('g');
if (edges && edges.length) {
  for (var i=0;i<edges.length;i++) {
    if (edges[i].id.substr(0,4)=='edge') {
      edges[i].setAttribute('class','edge');
    }
  }
}
]]></script>
        <defs>
                <circle id="rim" cx="0" cy="0" r="7"/>
                <circle id="rim2" cx="0" cy="0" r="3.5"/>
                <g id="zoomPlus">
                        <use xlink:href="#rim" fill="#404040">
                                <set attributeName="fill" to="#808080" begin="zoomplus.mouseover" end="zoomplus.mouseout"/>
                        </use>
                        <path d="M-4,0h8M0,-4v8" fill="none" stroke="white" stroke-width="1.5" pointer-events="none"/>
                </g>
                <g id="zoomMin">
                        <use xlink:href="#rim" fill="#404040">
                                <set attributeName="fill" to="#808080" begin="zoomminus.mouseover" end="zoomminus.mouseout"/>
                        </use>
                        <path d="M-4,0h8" fill="none" stroke="white" stroke-width="1.5" pointer-events="none"/>
                </g>
                <g id="dirArrow">
                        <path fill="none" stroke="white" stroke-width="1.5" d="M0,-3.0v7 M-2.5,-0.5L0,-3.0L2.5,-0.5"/>
                </g>
               <g id="resetDef">
                       <use xlink:href="#rim2" fill="#404040">
                               <set attributeName="fill" to="#808080" begin="reset.mouseover" end="reset.mouseout"/>
                       </use>
               </g>
        </defs>

<script type="text/javascript">
var viewWidth = 1034;
var viewHeight = 283;
var sectionId = 'dynsection-33';
</script>
<script xlink:href="svgpan.js"/>
<svg id="graph" class="graph">
<g id="viewport">
<title>Hydrax::Hydrax::getSunArea</title>
<polygon fill="white" stroke="none" points="-4,4 -4,-279 1030,-279 1030,4 -4,4"/>
<!-- Node1 -->
<g id="node1" class="node"><title>Node1</title>
<polygon fill="#bfbfbf" stroke="black" points="0.5,-176.5 0.5,-195.5 143.5,-195.5 143.5,-176.5 0.5,-176.5"/>
<text text-anchor="middle" x="72" y="-183.5" font-family="Helvetica,sans-Serif" font-size="10.00">Hydrax::Hydrax::getSunArea</text>
</g>
<!-- Node2 -->
<g id="node2" class="node"><title>Node2</title>
<g id="a_node2"><a xlink:href="class_hydrax_1_1_cfg_file_manager.html#a4397ab1deeabca41d9743e52b295e51d" target="_top" xlink:title="Hydrax::CfgFileManager\l::_getComponentsCfgString">
<polygon fill="white" stroke="black" points="181,-245 181,-275 319,-275 319,-245 181,-245"/>
<text text-anchor="start" x="189" y="-263" font-family="Helvetica,sans-Serif" font-size="10.00">Hydrax::CfgFileManager</text>
<text text-anchor="middle" x="250" y="-252" font-family="Helvetica,sans-Serif" font-size="10.00">::_getComponentsCfgString</text>
</a>
</g>
</g>
<!-- Node1&#45;&gt;Node2 -->
<g id="edge1" class="edge"><title>Node1&#45;&gt;Node2</title>
<path fill="none" stroke="midnightblue" d="M101.685,-199.911C123.072,-210.092 153.108,-223.992 180,-235 188.254,-238.379 197.153,-241.779 205.728,-244.936"/>
<polygon fill="midnightblue" stroke="midnightblue" points="103.041,-196.68 92.5098,-195.518 100.018,-202.993 103.041,-196.68"/>
</g>
<!-- Node4 -->
<g id="node4" class="node"><title>Node4</title>
<g id="a_node4"><a xlink:href="class_hydrax_1_1_material_manager.html#a20f50f4b2b7d133fcc5be5e31d136856" target="_top" xlink:title="Hydrax::MaterialManager\l::_createWaterMaterial">
<polygon fill="white" stroke="black" points="187,-196 187,-226 313,-226 313,-196 187,-196"/>
<text text-anchor="start" x="195" y="-214" font-family="Helvetica,sans-Serif" font-size="10.00">Hydrax::MaterialManager</text>
<text text-anchor="middle" x="250" y="-203" font-family="Helvetica,sans-Serif" font-size="10.00">::_createWaterMaterial</text>
</a>
</g>
</g>
<!-- Node1&#45;&gt;Node4 -->
<g id="edge3" class="edge"><title>Node1&#45;&gt;Node4</title>
<path fill="none" stroke="midnightblue" d="M150.221,-196.969C162.446,-198.705 174.952,-200.482 186.777,-202.161"/>
<polygon fill="midnightblue" stroke="midnightblue" points="150.433,-193.464 140.04,-195.523 149.448,-200.394 150.433,-193.464"/>
</g>
<!-- Node6 -->
<g id="node6" class="node"><title>Node6</title>
<g id="a_node6"><a xlink:href="class_hydrax_1_1_material_manager.html#a23043949a092bd6b806ad5bd7619cfe7" target="_top" xlink:title="Hydrax::MaterialManager\l::_createUnderwaterMaterial">
<polygon fill="white" stroke="black" points="180,-147 180,-177 320,-177 320,-147 180,-147"/>
<text text-anchor="start" x="188" y="-165" font-family="Helvetica,sans-Serif" font-size="10.00">Hydrax::MaterialManager</text>
<text text-anchor="middle" x="250" y="-154" font-family="Helvetica,sans-Serif" font-size="10.00">::_createUnderwaterMaterial</text>
</a>
</g>
</g>
<!-- Node1&#45;&gt;Node6 -->
<g id="edge5" class="edge"><title>Node1&#45;&gt;Node6</title>
<path fill="none" stroke="midnightblue" d="M152.9,-175.105C161.895,-173.878 171.004,-172.636 179.847,-171.43"/>
<polygon fill="midnightblue" stroke="midnightblue" points="152.248,-171.661 142.813,-176.48 153.194,-178.597 152.248,-171.661"/>
</g>
<!-- Node7 -->
<g id="node7" class="node"><title>Node7</title>
<g id="a_node7"><a xlink:href="class_hydrax_1_1_material_manager.html#a2961836553f7a30a8baffb9e82f7216e" target="_top" xlink:title="Hydrax::MaterialManager\l::reload">
<polygon fill="white" stroke="black" points="187,-98 187,-128 313,-128 313,-98 187,-98"/>
<text text-anchor="start" x="195" y="-116" font-family="Helvetica,sans-Serif" font-size="10.00">Hydrax::MaterialManager</text>
<text text-anchor="middle" x="250" y="-105" font-family="Helvetica,sans-Serif" font-size="10.00">::reload</text>
</a>
</g>
</g>
<!-- Node1&#45;&gt;Node7 -->
<g id="edge7" class="edge"><title>Node1&#45;&gt;Node7</title>
<path fill="none" stroke="midnightblue" d="M102.503,-172.056C123.851,-162.141 153.487,-148.733 180,-138 188.267,-134.653 197.172,-131.268 205.748,-128.115"/>
<polygon fill="midnightblue" stroke="midnightblue" points="100.899,-168.942 93.3187,-176.344 103.861,-175.285 100.899,-168.942"/>
</g>
<!-- Node3 -->
<g id="node3" class="node"><title>Node3</title>
<g id="a_node3"><a xlink:href="class_hydrax_1_1_cfg_file_manager.html#a5bdea43e50f5a1662e2dc80e68e0d8a6" target="_top" xlink:title="Hydrax::CfgFileManager\l::save">
<polygon fill="white" stroke="black" points="376.5,-245 376.5,-275 499.5,-275 499.5,-245 376.5,-245"/>
<text text-anchor="start" x="384.5" y="-263" font-family="Helvetica,sans-Serif" font-size="10.00">Hydrax::CfgFileManager</text>
<text text-anchor="middle" x="438" y="-252" font-family="Helvetica,sans-Serif" font-size="10.00">::save</text>
</a>
</g>
</g>
<!-- Node2&#45;&gt;Node3 -->
<g id="edge2" class="edge"><title>Node2&#45;&gt;Node3</title>
<path fill="none" stroke="midnightblue" d="M329.441,-260C345.174,-260 361.477,-260 376.489,-260"/>
<polygon fill="midnightblue" stroke="midnightblue" points="329.203,-256.5 319.203,-260 329.203,-263.5 329.203,-256.5"/>
</g>
<!-- Node5 -->
<g id="node5" class="node"><title>Node5</title>
<g id="a_node5"><a xlink:href="class_hydrax_1_1_material_manager.html#a6aa7b0a92b824348577d506f7bcf581b" target="_top" xlink:title="Hydrax::MaterialManager\l::createMaterials">
<polygon fill="white" stroke="black" points="375,-196 375,-226 501,-226 501,-196 375,-196"/>
<text text-anchor="start" x="383" y="-214" font-family="Helvetica,sans-Serif" font-size="10.00">Hydrax::MaterialManager</text>
<text text-anchor="middle" x="438" y="-203" font-family="Helvetica,sans-Serif" font-size="10.00">::createMaterials</text>
</a>
</g>
</g>
<!-- Node4&#45;&gt;Node5 -->
<g id="edge4" class="edge"><title>Node4&#45;&gt;Node5</title>
<path fill="none" stroke="midnightblue" d="M323.597,-211C340.537,-211 358.426,-211 374.865,-211"/>
<polygon fill="midnightblue" stroke="midnightblue" points="323.194,-207.5 313.194,-211 323.194,-214.5 323.194,-207.5"/>
</g>
<!-- Node6&#45;&gt;Node5 -->
<g id="edge6" class="edge"><title>Node6&#45;&gt;Node5</title>
<path fill="none" stroke="midnightblue" d="M317.895,-179.623C338.244,-184.984 360.408,-190.823 380.038,-195.994"/>
<polygon fill="midnightblue" stroke="midnightblue" points="318.632,-176.198 308.07,-177.035 316.849,-182.967 318.632,-176.198"/>
</g>
<!-- Node8 -->
<g id="node8" class="node"><title>Node8</title>
<g id="a_node8"><a xlink:href="class_hydrax_1_1_g_p_u_normal_map_manager.html#a7398a504e11ea902839868d69bcf956b" target="_top" xlink:title="Hydrax::GPUNormalMapManager\l::create">
<polygon fill="white" stroke="black" points="356,-147 356,-177 520,-177 520,-147 356,-147"/>
<text text-anchor="start" x="364" y="-165" font-family="Helvetica,sans-Serif" font-size="10.00">Hydrax::GPUNormalMapManager</text>
<text text-anchor="middle" x="438" y="-154" font-family="Helvetica,sans-Serif" font-size="10.00">::create</text>
</a>
</g>
</g>
<!-- Node7&#45;&gt;Node8 -->
<g id="edge8" class="edge"><title>Node7&#45;&gt;Node8</title>
<path fill="none" stroke="midnightblue" d="M317.895,-130.623C338.244,-135.984 360.408,-141.823 380.038,-146.994"/>
<polygon fill="midnightblue" stroke="midnightblue" points="318.632,-127.198 308.07,-128.035 316.849,-133.967 318.632,-127.198"/>
</g>
<!-- Node13 -->
<g id="node13" class="node"><title>Node13</title>
<g id="a_node13"><a xlink:href="class_hydrax_1_1_rtt_manager.html#abf7d8e05771b9f904efa09fe94ab0907" target="_top" xlink:title="Hydrax::RttManager\l::setTextureSize">
<polygon fill="white" stroke="black" points="385.5,-98 385.5,-128 490.5,-128 490.5,-98 385.5,-98"/>
<text text-anchor="start" x="393.5" y="-116" font-family="Helvetica,sans-Serif" font-size="10.00">Hydrax::RttManager</text>
<text text-anchor="middle" x="438" y="-105" font-family="Helvetica,sans-Serif" font-size="10.00">::setTextureSize</text>
</a>
</g>
</g>
<!-- Node7&#45;&gt;Node13 -->
<g id="edge13" class="edge"><title>Node7&#45;&gt;Node13</title>
<path fill="none" stroke="midnightblue" d="M323.24,-113C343.982,-113 366.175,-113 385.402,-113"/>
<polygon fill="midnightblue" stroke="midnightblue" points="323.194,-109.5 313.194,-113 323.194,-116.5 323.194,-109.5"/>
</g>
<!-- Node16 -->
<g id="node16" class="node"><title>Node16</title>
<g id="a_node16"><a xlink:href="class_hydrax_1_1_rtt_manager.html#ad54dd87efa7baa4a5037faa2e5241738" target="_top" xlink:title="Hydrax::RttManager\l::setTexturesSize">
<polygon fill="white" stroke="black" points="385.5,-49 385.5,-79 490.5,-79 490.5,-49 385.5,-49"/>
<text text-anchor="start" x="393.5" y="-67" font-family="Helvetica,sans-Serif" font-size="10.00">Hydrax::RttManager</text>
<text text-anchor="middle" x="438" y="-56" font-family="Helvetica,sans-Serif" font-size="10.00">::setTexturesSize</text>
</a>
</g>
</g>
<!-- Node7&#45;&gt;Node16 -->
<g id="edge16" class="edge"><title>Node7&#45;&gt;Node16</title>
<path fill="none" stroke="midnightblue" d="M317.79,-95.4048C340.048,-89.541 364.488,-83.1026 385.413,-77.5901"/>
<polygon fill="midnightblue" stroke="midnightblue" points="316.849,-92.0333 308.07,-97.9654 318.632,-98.8023 316.849,-92.0333"/>
</g>
<!-- Node17 -->
<g id="node17" class="node"><title>Node17</title>
<g id="a_node17"><a xlink:href="class_hydrax_1_1_texture_manager.html#a30bfb59332540e897c43193474b4aa19" target="_top" xlink:title="Hydrax::TextureManager\l::create">
<polygon fill="white" stroke="black" points="375.5,-0 375.5,-30 500.5,-30 500.5,-0 375.5,-0"/>
<text text-anchor="start" x="383.5" y="-18" font-family="Helvetica,sans-Serif" font-size="10.00">Hydrax::TextureManager</text>
<text text-anchor="middle" x="438" y="-7" font-family="Helvetica,sans-Serif" font-size="10.00">::create</text>
</a>
</g>
</g>
<!-- Node7&#45;&gt;Node17 -->
<g id="edge17" class="edge"><title>Node7&#45;&gt;Node17</title>
<path fill="none" stroke="midnightblue" d="M276.31,-91.5796C296.706,-75.234 326.716,-53.1815 356,-39 362.864,-35.6759 370.282,-32.7119 377.745,-30.099"/>
<polygon fill="midnightblue" stroke="midnightblue" points="273.999,-88.9476 268.454,-97.9753 278.418,-94.3761 273.999,-88.9476"/>
</g>
<!-- Node9 -->
<g id="node9" class="node"><title>Node9</title>
<g id="a_node9"><a xlink:href="class_hydrax_1_1_noise_1_1_f_f_t.html#aa8e2b9d2b8307c07be2d2cd9cf115560" target="_top" xlink:title="Hydrax::Noise::FFT\l::createGPUNormalMapResources">
<polygon fill="white" stroke="black" points="556.5,-196 556.5,-226 725.5,-226 725.5,-196 556.5,-196"/>
<text text-anchor="start" x="564.5" y="-214" font-family="Helvetica,sans-Serif" font-size="10.00">Hydrax::Noise::FFT</text>
<text text-anchor="middle" x="641" y="-203" font-family="Helvetica,sans-Serif" font-size="10.00">::createGPUNormalMapResources</text>
</a>
</g>
</g>
<!-- Node8&#45;&gt;Node9 -->
<g id="edge9" class="edge"><title>Node8&#45;&gt;Node9</title>
<path fill="none" stroke="midnightblue" d="M510.391,-179.404C532.626,-184.824 556.942,-190.752 578.444,-195.994"/>
<polygon fill="midnightblue" stroke="midnightblue" points="511.217,-176.003 500.673,-177.035 509.559,-182.804 511.217,-176.003"/>
</g>
<!-- Node12 -->
<g id="node12" class="node"><title>Node12</title>
<g id="a_node12"><a xlink:href="class_hydrax_1_1_noise_1_1_perlin.html#adb347b98692bd7ce6ad7ce76c605d15a" target="_top" xlink:title="Hydrax::Noise::Perlin\l::createGPUNormalMapResources">
<polygon fill="white" stroke="black" points="556.5,-147 556.5,-177 725.5,-177 725.5,-147 556.5,-147"/>
<text text-anchor="start" x="564.5" y="-165" font-family="Helvetica,sans-Serif" font-size="10.00">Hydrax::Noise::Perlin</text>
<text text-anchor="middle" x="641" y="-154" font-family="Helvetica,sans-Serif" font-size="10.00">::createGPUNormalMapResources</text>
</a>
</g>
</g>
<!-- Node8&#45;&gt;Node12 -->
<g id="edge12" class="edge"><title>Node8&#45;&gt;Node12</title>
<path fill="none" stroke="midnightblue" d="M530.269,-162C538.916,-162 547.656,-162 556.228,-162"/>
<polygon fill="midnightblue" stroke="midnightblue" points="530.175,-158.5 520.175,-162 530.175,-165.5 530.175,-158.5"/>
</g>
<!-- Node10 -->
<g id="node10" class="node"><title>Node10</title>
<g id="a_node10"><a xlink:href="class_hydrax_1_1_noise_1_1_f_f_t.html#a1d7ec06eb11cda608cc8f73256c35be5" target="_top" xlink:title="Hydrax::Noise::FFT\l::setOptions">
<polygon fill="white" stroke="black" points="772,-196 772,-226 876,-226 876,-196 772,-196"/>
<text text-anchor="start" x="780" y="-214" font-family="Helvetica,sans-Serif" font-size="10.00">Hydrax::Noise::FFT</text>
<text text-anchor="middle" x="824" y="-203" font-family="Helvetica,sans-Serif" font-size="10.00">::setOptions</text>
</a>
</g>
</g>
<!-- Node9&#45;&gt;Node10 -->
<g id="edge10" class="edge"><title>Node9&#45;&gt;Node10</title>
<path fill="none" stroke="midnightblue" d="M735.966,-211C748.292,-211 760.532,-211 771.77,-211"/>
<polygon fill="midnightblue" stroke="midnightblue" points="735.612,-207.5 725.612,-211 735.612,-214.5 735.612,-207.5"/>
</g>
<!-- Node11 -->
<g id="node11" class="node"><title>Node11</title>
<g id="a_node11"><a xlink:href="class_hydrax_1_1_noise_1_1_f_f_t.html#a64245b9e56eeb8627ac3f5260dc203dd" target="_top" xlink:title="Hydrax::Noise::FFT\l::loadCfg">
<polygon fill="white" stroke="black" points="922,-196 922,-226 1026,-226 1026,-196 922,-196"/>
<text text-anchor="start" x="930" y="-214" font-family="Helvetica,sans-Serif" font-size="10.00">Hydrax::Noise::FFT</text>
<text text-anchor="middle" x="974" y="-203" font-family="Helvetica,sans-Serif" font-size="10.00">::loadCfg</text>
</a>
</g>
</g>
<!-- Node10&#45;&gt;Node11 -->
<g id="edge11" class="edge"><title>Node10&#45;&gt;Node11</title>
<path fill="none" stroke="midnightblue" d="M886.507,-211C898.23,-211 910.382,-211 921.743,-211"/>
<polygon fill="midnightblue" stroke="midnightblue" points="886.348,-207.5 876.348,-211 886.348,-214.5 886.348,-207.5"/>
</g>
<!-- Node14 -->
<g id="node14" class="node"><title>Node14</title>
<g id="a_node14"><a xlink:href="class_hydrax_1_1_cfg_file_manager.html#ae2a1a0accf942e528f6ba8a041a674e6" target="_top" xlink:title="Hydrax::CfgFileManager\l::_loadRttSettings">
<polygon fill="white" stroke="black" points="579.5,-98 579.5,-128 702.5,-128 702.5,-98 579.5,-98"/>
<text text-anchor="start" x="587.5" y="-116" font-family="Helvetica,sans-Serif" font-size="10.00">Hydrax::CfgFileManager</text>
<text text-anchor="middle" x="641" y="-105" font-family="Helvetica,sans-Serif" font-size="10.00">::_loadRttSettings</text>
</a>
</g>
</g>
<!-- Node13&#45;&gt;Node14 -->
<g id="edge14" class="edge"><title>Node13&#45;&gt;Node14</title>
<path fill="none" stroke="midnightblue" d="M500.604,-113C525.617,-113 554.431,-113 579.347,-113"/>
<polygon fill="midnightblue" stroke="midnightblue" points="500.502,-109.5 490.501,-113 500.501,-116.5 500.502,-109.5"/>
</g>
<!-- Node15 -->
<g id="node15" class="node"><title>Node15</title>
<g id="a_node15"><a xlink:href="class_hydrax_1_1_cfg_file_manager.html#a7d283a6b6b61ad70292c7cb24cd3543c" target="_top" xlink:title="Hydrax::CfgFileManager\l::load">
<polygon fill="white" stroke="black" points="762.5,-98 762.5,-128 885.5,-128 885.5,-98 762.5,-98"/>
<text text-anchor="start" x="770.5" y="-116" font-family="Helvetica,sans-Serif" font-size="10.00">Hydrax::CfgFileManager</text>
<text text-anchor="middle" x="824" y="-105" font-family="Helvetica,sans-Serif" font-size="10.00">::load</text>
</a>
</g>
</g>
<!-- Node14&#45;&gt;Node15 -->
<g id="edge15" class="edge"><title>Node14&#45;&gt;Node15</title>
<path fill="none" stroke="midnightblue" d="M712.591,-113C728.985,-113 746.297,-113 762.227,-113"/>
<polygon fill="midnightblue" stroke="midnightblue" points="712.522,-109.5 702.522,-113 712.522,-116.5 712.522,-109.5"/>
</g>
</g>
</svg>
        <g id="navigator" transform="translate(0 0)" fill="#404254">
                <rect fill="#f2f5e9" fill-opacity="0.5" stroke="#606060" stroke-width=".5" x="0" y="0" width="60" height="60"/>
                <use id="zoomplus" xlink:href="#zoomPlus" x="17" y="9" onmousedown="handleZoom(evt,'in')"/>
                <use id="zoomminus" xlink:href="#zoomMin" x="42" y="9" onmousedown="handleZoom(evt,'out')"/>
                <use id="reset" xlink:href="#resetDef" x="30" y="36" onmousedown="handleReset()"/>
                <g id="arrowUp" xlink:href="#dirArrow" transform="translate(30 24)" onmousedown="handlePan(0,-1)">
                  <use xlink:href="#rim" fill="#404040">
                        <set attributeName="fill" to="#808080" begin="arrowUp.mouseover" end="arrowUp.mouseout"/>
                  </use>
                  <path fill="none" stroke="white" stroke-width="1.5" d="M0,-3.0v7 M-2.5,-0.5L0,-3.0L2.5,-0.5"/>
                </g>
                <g id="arrowRight" xlink:href="#dirArrow" transform="rotate(90) translate(36 -43)" onmousedown="handlePan(1,0)">
                  <use xlink:href="#rim" fill="#404040">
                        <set attributeName="fill" to="#808080" begin="arrowRight.mouseover" end="arrowRight.mouseout"/>
                  </use>
                  <path fill="none" stroke="white" stroke-width="1.5" d="M0,-3.0v7 M-2.5,-0.5L0,-3.0L2.5,-0.5"/>
                </g>
                <g id="arrowDown" xlink:href="#dirArrow" transform="rotate(180) translate(-30 -48)" onmousedown="handlePan(0,1)">
                  <use xlink:href="#rim" fill="#404040">
                        <set attributeName="fill" to="#808080" begin="arrowDown.mouseover" end="arrowDown.mouseout"/>
                  </use>
                  <path fill="none" stroke="white" stroke-width="1.5" d="M0,-3.0v7 M-2.5,-0.5L0,-3.0L2.5,-0.5"/>
                </g>
                <g id="arrowLeft" xlink:href="#dirArrow" transform="rotate(270) translate(-36 17)" onmousedown="handlePan(-1,0)">
                  <use xlink:href="#rim" fill="#404040">
                        <set attributeName="fill" to="#808080" begin="arrowLeft.mouseover" end="arrowLeft.mouseout"/>
                  </use>
                  <path fill="none" stroke="white" stroke-width="1.5" d="M0,-3.0v7 M-2.5,-0.5L0,-3.0L2.5,-0.5"/>
                </g>
        </g>
        <svg viewBox="0 0 15 15" width="100%" height="30px" preserveAspectRatio="xMaxYMin meet">
         <g id="arrow_out" transform="scale(0.3 0.3)">
          <a xlink:href="class_hydrax_1_1_hydrax_a881b74b5c9a3c830317174cf610d6867_icgraph_org.svg" target="_base">
           <rect id="button" ry="5" rx="5" y="6" x="6" height="38" width="38"
                fill="#f2f5e9" fill-opacity="0.5" stroke="#606060" stroke-width="1.0"/>
           <path id="arrow"
             d="M 11.500037,31.436501 C 11.940474,20.09759 22.043105,11.32322 32.158766,21.979434 L 37.068811,17.246167 C 37.068811,17.246167 37.088388,32 37.088388,32 L 22.160133,31.978069 C 22.160133,31.978069 26.997745,27.140456 26.997745,27.140456 C 18.528582,18.264221 13.291696,25.230495 11.500037,31.436501 z"
             style="fill:#404040;"/>
          </a>
         </g>
        </svg>
</svg>
