<?xml version="1.0" encoding="UTF-8" standalone="no"?>
<!DOCTYPE svg PUBLIC "-//W3C//DTD SVG 1.1//EN"
 "http://www.w3.org/Graphics/SVG/1.1/DTD/svg11.dtd">
<!-- Generated by graphviz version 2.36.0 (20140111.2315)
 -->
<!-- Title: RoR::BeamFactory::UpdateSleepingState Pages: 1 -->
<!--zoomable 574 -->
<svg id="main" version="1.1" xmlns="http://www.w3.org/2000/svg" xmlns:xlink="http://www.w3.org/1999/xlink" xml:space="preserve" onload="init(evt)">
<style type="text/css"><![CDATA[
.edge:hover path { stroke: red; }
.edge:hover polygon { stroke: red; fill: red; }
]]></style>
<script type="text/javascript"><![CDATA[
var edges = document.getElementsByTagName('g');
if (edges && edges.length) {
  for (var i=0;i<edges.length;i++) {
    if (edges[i].id.substr(0,4)=='edge') {
      edges[i].setAttribute('class','edge');
    }
  }
}
]]></script>
        <defs>
                <circle id="rim" cx="0" cy="0" r="7"/>
                <circle id="rim2" cx="0" cy="0" r="3.5"/>
                <g id="zoomPlus">
                        <use xlink:href="#rim" fill="#404040">
                                <set attributeName="fill" to="#808080" begin="zoomplus.mouseover" end="zoomplus.mouseout"/>
                        </use>
                        <path d="M-4,0h8M0,-4v8" fill="none" stroke="white" stroke-width="1.5" pointer-events="none"/>
                </g>
                <g id="zoomMin">
                        <use xlink:href="#rim" fill="#404040">
                                <set attributeName="fill" to="#808080" begin="zoomminus.mouseover" end="zoomminus.mouseout"/>
                        </use>
                        <path d="M-4,0h8" fill="none" stroke="white" stroke-width="1.5" pointer-events="none"/>
                </g>
                <g id="dirArrow">
                        <path fill="none" stroke="white" stroke-width="1.5" d="M0,-3.0v7 M-2.5,-0.5L0,-3.0L2.5,-0.5"/>
                </g>
               <g id="resetDef">
                       <use xlink:href="#rim2" fill="#404040">
                               <set attributeName="fill" to="#808080" begin="reset.mouseover" end="reset.mouseout"/>
                       </use>
               </g>
        </defs>

<script type="text/javascript">
var viewWidth = 1494;
var viewHeight = 574;
var sectionId = 'dynsection-75';
</script>
<script xlink:href="svgpan.js"/>
<svg id="graph" class="graph">
<g id="viewport">
<title>RoR::BeamFactory::UpdateSleepingState</title>
<polygon fill="white" stroke="none" points="-4,4 -4,-570.019 1490,-570.019 1490,4 -4,4"/>
<!-- Node1 -->
<g id="node1" class="node"><title>Node1</title>
<polygon fill="#bfbfbf" stroke="black" points="0.5,-417 0.5,-447 139.5,-447 139.5,-417 0.5,-417"/>
<text text-anchor="start" x="8.5" y="-435" font-family="Helvetica,sans-Serif" font-size="10.00">RoR::BeamFactory::Update</text>
<text text-anchor="middle" x="70" y="-424" font-family="Helvetica,sans-Serif" font-size="10.00">SleepingState</text>
</g>
<!-- Node2 -->
<g id="node2" class="node"><title>Node2</title>
<g id="a_node2"><a xlink:href="class_ro_r_1_1_beam_factory.html#ac70a8aa131a6709ebf05dc3c0f6dab10" target="_top" xlink:title="RoR::BeamFactory::setCurrent\lTruck">
<polygon fill="white" stroke="black" points="176.5,-352 176.5,-382 329.5,-382 329.5,-352 176.5,-352"/>
<text text-anchor="start" x="184.5" y="-370" font-family="Helvetica,sans-Serif" font-size="10.00">RoR::BeamFactory::setCurrent</text>
<text text-anchor="middle" x="253" y="-359" font-family="Helvetica,sans-Serif" font-size="10.00">Truck</text>
</a>
</g>
</g>
<!-- Node1&#45;&gt;Node2 -->
<g id="edge1" class="edge"><title>Node1&#45;&gt;Node2</title>
<path fill="none" stroke="midnightblue" d="M122.495,-413.507C150.166,-403.57 183.854,-391.472 209.935,-382.106"/>
<polygon fill="midnightblue" stroke="midnightblue" points="121.209,-410.25 112.98,-416.924 123.574,-416.838 121.209,-410.25"/>
</g>
<!-- Node22 -->
<g id="node22" class="node"><title>Node22</title>
<g id="a_node22"><a xlink:href="class_ro_r_1_1_beam_factory.html#a87e6c050f0af4ef2e39976749ac9762c" target="_top" xlink:title="RoR::BeamFactory::update">
<polygon fill="white" stroke="black" points="184.5,-488.5 184.5,-507.5 321.5,-507.5 321.5,-488.5 184.5,-488.5"/>
<text text-anchor="middle" x="253" y="-495.5" font-family="Helvetica,sans-Serif" font-size="10.00">RoR::BeamFactory::update</text>
</a>
</g>
</g>
<!-- Node1&#45;&gt;Node22 -->
<g id="edge31" class="edge"><title>Node1&#45;&gt;Node22</title>
<path fill="none" stroke="midnightblue" d="M122.233,-450.682C155.987,-462.99 198.783,-478.595 225.788,-488.442"/>
<polygon fill="midnightblue" stroke="midnightblue" points="123.119,-447.279 112.525,-447.142 120.721,-453.856 123.119,-447.279"/>
</g>
<!-- Node3 -->
<g id="node3" class="node"><title>Node3</title>
<g id="a_node3"><a xlink:href="class_ro_r_frame_listener.html#afec2a0f00ed552c21d22aae76329bf38" target="_top" xlink:title="RoRFrameListener::Update\lInputEvents">
<polygon fill="white" stroke="black" points="943.5,-398 943.5,-428 1080.5,-428 1080.5,-398 943.5,-398"/>
<text text-anchor="start" x="951.5" y="-416" font-family="Helvetica,sans-Serif" font-size="10.00">RoRFrameListener::Update</text>
<text text-anchor="middle" x="1012" y="-405" font-family="Helvetica,sans-Serif" font-size="10.00">InputEvents</text>
</a>
</g>
</g>
<!-- Node2&#45;&gt;Node3 -->
<g id="edge2" class="edge"><title>Node2&#45;&gt;Node3</title>
<path fill="none" stroke="midnightblue" d="M292.915,-386.427C314.045,-396.174 340.912,-407.303 366,-414 596.23,-475.453 666.839,-511.174 900,-462 930.711,-455.523 963.275,-439.986 985.131,-428.13"/>
<polygon fill="midnightblue" stroke="midnightblue" points="294.177,-383.152 283.638,-382.066 291.199,-389.487 294.177,-383.152"/>
</g>
<!-- Node5 -->
<g id="node5" class="node"><title>Node5</title>
<g id="a_node5"><a xlink:href="class_ro_r_frame_listener.html#abc123f9d1e56e13a72e5f80fdaa5a17e" target="_top" xlink:title="RoRFrameListener::Finalize\lTruckSpawning">
<polygon fill="white" stroke="black" points="755.5,-423 755.5,-453 894.5,-453 894.5,-423 755.5,-423"/>
<text text-anchor="start" x="763.5" y="-441" font-family="Helvetica,sans-Serif" font-size="10.00">RoRFrameListener::Finalize</text>
<text text-anchor="middle" x="825" y="-430" font-family="Helvetica,sans-Serif" font-size="10.00">TruckSpawning</text>
</a>
</g>
</g>
<!-- Node2&#45;&gt;Node5 -->
<g id="edge4" class="edge"><title>Node2&#45;&gt;Node5</title>
<path fill="none" stroke="midnightblue" d="M335.669,-383.901C345.859,-385.756 356.155,-387.509 366,-389 503.576,-409.831 665.719,-424.981 755.477,-432.55"/>
<polygon fill="midnightblue" stroke="midnightblue" points="336.007,-380.404 325.536,-382.018 334.728,-387.286 336.007,-380.404"/>
</g>
<!-- Node6 -->
<g id="node6" class="node"><title>Node6</title>
<g id="a_node6"><a xlink:href="class_ro_r_frame_listener.html#a74e44d8907e7f6ffddedd260f307a764" target="_top" xlink:title="RoRFrameListener::Reload\lCurrentTruck">
<polygon fill="white" stroke="black" points="757,-248 757,-278 893,-278 893,-248 757,-248"/>
<text text-anchor="start" x="765" y="-266" font-family="Helvetica,sans-Serif" font-size="10.00">RoRFrameListener::Reload</text>
<text text-anchor="middle" x="825" y="-255" font-family="Helvetica,sans-Serif" font-size="10.00">CurrentTruck</text>
</a>
</g>
</g>
<!-- Node2&#45;&gt;Node6 -->
<g id="edge6" class="edge"><title>Node2&#45;&gt;Node6</title>
<path fill="none" stroke="midnightblue" d="M292.914,-347.568C314.043,-337.819 340.91,-326.69 366,-320 501.876,-283.771 666.702,-270.427 756.926,-265.617"/>
<polygon fill="midnightblue" stroke="midnightblue" points="291.197,-344.507 283.637,-351.93 294.176,-350.842 291.197,-344.507"/>
</g>
<!-- Node7 -->
<g id="node7" class="node"><title>Node7</title>
<g id="a_node7"><a xlink:href="class_ro_r_1_1_g_u_i_1_1_top_menubar.html#ad1c44bd3c1247dcd8b876ff7728fac32" target="_top" xlink:title="RoR::GUI::TopMenubar\l::onMenuBtn">
<polygon fill="white" stroke="black" points="951.5,-229 951.5,-259 1072.5,-259 1072.5,-229 951.5,-229"/>
<text text-anchor="start" x="959.5" y="-247" font-family="Helvetica,sans-Serif" font-size="10.00">RoR::GUI::TopMenubar</text>
<text text-anchor="middle" x="1012" y="-236" font-family="Helvetica,sans-Serif" font-size="10.00">::onMenuBtn</text>
</a>
</g>
</g>
<!-- Node2&#45;&gt;Node7 -->
<g id="edge13" class="edge"><title>Node2&#45;&gt;Node7</title>
<path fill="none" stroke="midnightblue" d="M276.618,-344.934C297.846,-325.659 331.428,-298.684 366,-285 568.401,-204.889 834.448,-222.651 951.443,-235.953"/>
<polygon fill="midnightblue" stroke="midnightblue" points="274.061,-342.532 269.111,-351.9 278.822,-347.663 274.061,-342.532"/>
</g>
<!-- Node9 -->
<g id="node9" class="node"><title>Node9</title>
<g id="a_node9"><a xlink:href="class_ro_r_frame_listener.html#aca3931d7a75f2ad4b9d36c4fcd03a3c9" target="_top" xlink:title="RoRFrameListener::SetupGameplayLoop">
<polygon fill="white" stroke="black" points="1124,-127.5 1124,-146.5 1320,-146.5 1320,-127.5 1124,-127.5"/>
<text text-anchor="middle" x="1222" y="-134.5" font-family="Helvetica,sans-Serif" font-size="10.00">RoRFrameListener::SetupGameplayLoop</text>
</a>
</g>
</g>
<!-- Node2&#45;&gt;Node9 -->
<g id="edge10" class="edge"><title>Node2&#45;&gt;Node9</title>
<path fill="none" stroke="midnightblue" d="M259.157,-341.931C270.424,-292.868 301.552,-183.189 366,-117 458.661,-21.836 508.176,-0 641,-0 641,-0 641,-0 826,-0 981.693,-0 1153.79,-96.1823 1205.5,-127.366"/>
<polygon fill="midnightblue" stroke="midnightblue" points="255.736,-341.191 256.992,-351.711 262.571,-342.704 255.736,-341.191"/>
</g>
<!-- Node12 -->
<g id="node12" class="node"><title>Node12</title>
<g id="a_node12"><a xlink:href="class_ro_r_1_1_beam_factory.html#a5dcf02227633d77e77f39fc43317dc6b" target="_top" xlink:title="RoR::BeamFactory::Delete\lTruck">
<polygon fill="white" stroke="black" points="382,-127 382,-157 518,-157 518,-127 382,-127"/>
<text text-anchor="start" x="390" y="-145" font-family="Helvetica,sans-Serif" font-size="10.00">RoR::BeamFactory::Delete</text>
<text text-anchor="middle" x="450" y="-134" font-family="Helvetica,sans-Serif" font-size="10.00">Truck</text>
</a>
</g>
</g>
<!-- Node2&#45;&gt;Node12 -->
<g id="edge14" class="edge"><title>Node2&#45;&gt;Node12</title>
<path fill="none" stroke="midnightblue" d="M270.329,-343.454C291.252,-313.837 329.226,-261.908 366,-221 387.279,-197.329 414.381,-172.387 431.715,-157.01"/>
<polygon fill="midnightblue" stroke="midnightblue" points="267.286,-341.697 264.403,-351.892 273.014,-345.72 267.286,-341.697"/>
</g>
<!-- Node19 -->
<g id="node19" class="node"><title>Node19</title>
<g id="a_node19"><a xlink:href="class_ro_r_1_1_beam_factory.html#abcdedea5c3b7dab93c09ff70d904e038" target="_top" xlink:title="RoR::BeamFactory::enterNext\lTruck">
<polygon fill="white" stroke="black" points="750,-374 750,-404 900,-404 900,-374 750,-374"/>
<text text-anchor="start" x="758" y="-392" font-family="Helvetica,sans-Serif" font-size="10.00">RoR::BeamFactory::enterNext</text>
<text text-anchor="middle" x="825" y="-381" font-family="Helvetica,sans-Serif" font-size="10.00">Truck</text>
</a>
</g>
</g>
<!-- Node2&#45;&gt;Node19 -->
<g id="edge25" class="edge"><title>Node2&#45;&gt;Node19</title>
<path fill="none" stroke="midnightblue" d="M339.896,-370.315C451.445,-374.621 644.32,-382.065 749.807,-386.136"/>
<polygon fill="midnightblue" stroke="midnightblue" points="339.819,-366.81 329.692,-369.921 339.549,-373.805 339.819,-366.81"/>
</g>
<!-- Node20 -->
<g id="node20" class="node"><title>Node20</title>
<g id="a_node20"><a xlink:href="class_ro_r_1_1_beam_factory.html#a4d3987d8687c75d3eeac5352c86160e0" target="_top" xlink:title="RoR::BeamFactory::enterPrevious\lTruck">
<polygon fill="white" stroke="black" points="366.5,-330 366.5,-360 533.5,-360 533.5,-330 366.5,-330"/>
<text text-anchor="start" x="374.5" y="-348" font-family="Helvetica,sans-Serif" font-size="10.00">RoR::BeamFactory::enterPrevious</text>
<text text-anchor="middle" x="450" y="-337" font-family="Helvetica,sans-Serif" font-size="10.00">Truck</text>
</a>
</g>
</g>
<!-- Node2&#45;&gt;Node20 -->
<g id="edge27" class="edge"><title>Node2&#45;&gt;Node20</title>
<path fill="none" stroke="midnightblue" d="M339.881,-357.311C348.643,-356.322 357.531,-355.32 366.258,-354.335"/>
<polygon fill="midnightblue" stroke="midnightblue" points="339.216,-353.864 329.671,-358.463 340.001,-360.819 339.216,-353.864"/>
</g>
<!-- Node21 -->
<g id="node21" class="node"><title>Node21</title>
<g id="a_node21"><a xlink:href="class_ro_r_1_1_beam_factory.html#a297cce523629edad68ff2c05bcaa44ac" target="_top" xlink:title="RoR::BeamFactory::enterRescue\lTruck">
<polygon fill="white" stroke="black" points="368.5,-505 368.5,-535 531.5,-535 531.5,-505 368.5,-505"/>
<text text-anchor="start" x="376.5" y="-523" font-family="Helvetica,sans-Serif" font-size="10.00">RoR::BeamFactory::enterRescue</text>
<text text-anchor="middle" x="450" y="-512" font-family="Helvetica,sans-Serif" font-size="10.00">Truck</text>
</a>
</g>
</g>
<!-- Node2&#45;&gt;Node21 -->
<g id="edge29" class="edge"><title>Node2&#45;&gt;Node21</title>
<path fill="none" stroke="midnightblue" d="M269.734,-390.249C289.343,-417.612 325.276,-462.762 366,-490 374.915,-495.963 385.161,-500.908 395.342,-504.946"/>
<polygon fill="midnightblue" stroke="midnightblue" points="272.572,-388.201 263.956,-382.036 266.847,-392.228 272.572,-388.201"/>
</g>
<!-- Node4 -->
<g id="node4" class="node"><title>Node4</title>
<g id="a_node4"><a xlink:href="class_ro_r_frame_listener.html#acd8647e188fb8e838689492965b86faf" target="_top" xlink:title="RoRFrameListener::frameStarted">
<polygon fill="white" stroke="black" points="1141.5,-478.5 1141.5,-497.5 1302.5,-497.5 1302.5,-478.5 1141.5,-478.5"/>
<text text-anchor="middle" x="1222" y="-485.5" font-family="Helvetica,sans-Serif" font-size="10.00">RoRFrameListener::frameStarted</text>
</a>
</g>
</g>
<!-- Node3&#45;&gt;Node4 -->
<g id="edge3" class="edge"><title>Node3&#45;&gt;Node4</title>
<path fill="none" stroke="midnightblue" d="M1064.69,-431.64C1105.89,-446.493 1161.88,-466.683 1194.46,-478.431"/>
<polygon fill="midnightblue" stroke="midnightblue" points="1065.69,-428.277 1055.09,-428.177 1063.31,-434.862 1065.69,-428.277"/>
</g>
<!-- Node5&#45;&gt;Node3 -->
<g id="edge5" class="edge"><title>Node5&#45;&gt;Node3</title>
<path fill="none" stroke="midnightblue" d="M904.827,-427.348C917.668,-425.612 930.869,-423.828 943.411,-422.134"/>
<polygon fill="midnightblue" stroke="midnightblue" points="904.065,-423.919 894.624,-428.726 905.003,-430.856 904.065,-423.919"/>
</g>
<!-- Node6&#45;&gt;Node3 -->
<g id="edge7" class="edge"><title>Node6&#45;&gt;Node3</title>
<path fill="none" stroke="midnightblue" d="M881.666,-282.412C888.071,-285.553 894.33,-289.081 900,-293 943.424,-323.012 982.344,-372.76 1000.38,-397.722"/>
<polygon fill="midnightblue" stroke="midnightblue" points="882.778,-279.071 872.229,-278.085 879.861,-285.434 882.778,-279.071"/>
</g>
<!-- Node6&#45;&gt;Node7 -->
<g id="edge8" class="edge"><title>Node6&#45;&gt;Node7</title>
<path fill="none" stroke="midnightblue" d="M903.438,-255.047C919.41,-253.407 935.998,-251.703 951.227,-250.139"/>
<polygon fill="midnightblue" stroke="midnightblue" points="902.641,-251.61 893.051,-256.114 903.356,-258.574 902.641,-251.61"/>
</g>
<!-- Node8 -->
<g id="node8" class="node"><title>Node8</title>
<g id="a_node8"><a xlink:href="class_ro_r_1_1_g_u_i_1_1_top_menubar.html#aba4f8b1030da3a9d3b4394562d60a05a" target="_top" xlink:title="RoR::GUI::TopMenubar\l::TopMenubar">
<polygon fill="white" stroke="black" points="1161.5,-229 1161.5,-259 1282.5,-259 1282.5,-229 1161.5,-229"/>
<text text-anchor="start" x="1169.5" y="-247" font-family="Helvetica,sans-Serif" font-size="10.00">RoR::GUI::TopMenubar</text>
<text text-anchor="middle" x="1222" y="-236" font-family="Helvetica,sans-Serif" font-size="10.00">::TopMenubar</text>
</a>
</g>
</g>
<!-- Node7&#45;&gt;Node8 -->
<g id="edge9" class="edge"><title>Node7&#45;&gt;Node8</title>
<path fill="none" stroke="midnightblue" d="M1082.93,-244C1108.39,-244 1136.91,-244 1161.39,-244"/>
<polygon fill="midnightblue" stroke="midnightblue" points="1082.6,-240.5 1072.6,-244 1082.6,-247.5 1082.6,-240.5"/>
</g>
<!-- Node10 -->
<g id="node10" class="node"><title>Node10</title>
<g id="a_node10"><a xlink:href="main_8cpp.html#a0ddf1224851353fc92bfbff6f499fa97" target="_top" xlink:title="main">
<polygon fill="white" stroke="black" points="1356,-127.5 1356,-146.5 1394,-146.5 1394,-127.5 1356,-127.5"/>
<text text-anchor="middle" x="1375" y="-134.5" font-family="Helvetica,sans-Serif" font-size="10.00">main</text>
</a>
</g>
</g>
<!-- Node9&#45;&gt;Node10 -->
<g id="edge11" class="edge"><title>Node9&#45;&gt;Node10</title>
<path fill="none" stroke="midnightblue" d="M1330.52,-137C1340.03,-137 1348.71,-137 1355.77,-137"/>
<polygon fill="midnightblue" stroke="midnightblue" points="1330.34,-133.5 1320.34,-137 1330.34,-140.5 1330.34,-133.5"/>
</g>
<!-- Node11 -->
<g id="node11" class="node"><title>Node11</title>
<g id="a_node11"><a xlink:href="main_8cpp.html#a2922bc5d5c2d77a3020cfbf9df12aab0" target="_top" xlink:title="WinMain">
<polygon fill="white" stroke="black" points="1430.5,-127.5 1430.5,-146.5 1485.5,-146.5 1485.5,-127.5 1430.5,-127.5"/>
<text text-anchor="middle" x="1458" y="-134.5" font-family="Helvetica,sans-Serif" font-size="10.00">WinMain</text>
</a>
</g>
</g>
<!-- Node10&#45;&gt;Node11 -->
<g id="edge12" class="edge"><title>Node10&#45;&gt;Node11</title>
<path fill="none" stroke="midnightblue" d="M1404.51,-137C1412.93,-137 1422.11,-137 1430.4,-137"/>
<polygon fill="midnightblue" stroke="midnightblue" points="1404.38,-133.5 1394.38,-137 1404.38,-140.5 1404.38,-133.5"/>
</g>
<!-- Node13 -->
<g id="node13" class="node"><title>Node13</title>
<g id="a_node13"><a xlink:href="class_ro_r_1_1_beam_factory.html#aa770c50decf07b87d7ac747b64b8e3e5" target="_top" xlink:title="RoR::BeamFactory::Create\lLocalRigInstance">
<polygon fill="white" stroke="black" points="573.5,-176 573.5,-206 710.5,-206 710.5,-176 573.5,-176"/>
<text text-anchor="start" x="581.5" y="-194" font-family="Helvetica,sans-Serif" font-size="10.00">RoR::BeamFactory::Create</text>
<text text-anchor="middle" x="642" y="-183" font-family="Helvetica,sans-Serif" font-size="10.00">LocalRigInstance</text>
</a>
</g>
</g>
<!-- Node12&#45;&gt;Node13 -->
<g id="edge15" class="edge"><title>Node12&#45;&gt;Node13</title>
<path fill="none" stroke="midnightblue" d="M519.05,-159.55C539.915,-164.931 562.67,-170.799 582.813,-175.994"/>
<polygon fill="midnightblue" stroke="midnightblue" points="519.855,-156.143 509.297,-157.035 518.107,-162.921 519.855,-156.143"/>
</g>
<!-- Node16 -->
<g id="node16" class="node"><title>Node16</title>
<g id="a_node16"><a xlink:href="class_ro_r_1_1_beam_factory.html#a32e01669e8f438abae20a1a463dcb355" target="_top" xlink:title="RoR::BeamFactory::Create\lRemoteInstance">
<polygon fill="white" stroke="black" points="573.5,-127 573.5,-157 710.5,-157 710.5,-127 573.5,-127"/>
<text text-anchor="start" x="581.5" y="-145" font-family="Helvetica,sans-Serif" font-size="10.00">RoR::BeamFactory::Create</text>
<text text-anchor="middle" x="642" y="-134" font-family="Helvetica,sans-Serif" font-size="10.00">RemoteInstance</text>
</a>
</g>
</g>
<!-- Node12&#45;&gt;Node16 -->
<g id="edge22" class="edge"><title>Node12&#45;&gt;Node16</title>
<path fill="none" stroke="midnightblue" d="M528.414,-142C543.254,-142 558.687,-142 573.195,-142"/>
<polygon fill="midnightblue" stroke="midnightblue" points="528.254,-138.5 518.254,-142 528.254,-145.5 528.254,-138.5"/>
</g>
<!-- Node17 -->
<g id="node17" class="node"><title>Node17</title>
<g id="a_node17"><a xlink:href="class_ro_r_1_1_beam_factory.html#aa61f694b6230afbdc91bc33ef6acd73f" target="_top" xlink:title="RoR::BeamFactory::Remove\lStreamSource">
<polygon fill="white" stroke="black" points="570,-78 570,-108 714,-108 714,-78 570,-78"/>
<text text-anchor="start" x="578" y="-96" font-family="Helvetica,sans-Serif" font-size="10.00">RoR::BeamFactory::Remove</text>
<text text-anchor="middle" x="642" y="-85" font-family="Helvetica,sans-Serif" font-size="10.00">StreamSource</text>
</a>
</g>
</g>
<!-- Node12&#45;&gt;Node17 -->
<g id="edge23" class="edge"><title>Node12&#45;&gt;Node17</title>
<path fill="none" stroke="midnightblue" d="M519.05,-124.45C539.915,-119.069 562.67,-113.201 582.813,-108.006"/>
<polygon fill="midnightblue" stroke="midnightblue" points="518.107,-121.079 509.297,-126.965 519.855,-127.857 518.107,-121.079"/>
</g>
<!-- Node18 -->
<g id="node18" class="node"><title>Node18</title>
<g id="a_node18"><a xlink:href="class_ro_r_1_1_beam_factory.html#a49a4ee797005fff135d8f88a085986a0" target="_top" xlink:title="RoR::BeamFactory::remove\lTruck">
<polygon fill="white" stroke="black" points="572,-29 572,-59 712,-59 712,-29 572,-29"/>
<text text-anchor="start" x="580" y="-47" font-family="Helvetica,sans-Serif" font-size="10.00">RoR::BeamFactory::remove</text>
<text text-anchor="middle" x="642" y="-36" font-family="Helvetica,sans-Serif" font-size="10.00">Truck</text>
</a>
</g>
</g>
<!-- Node12&#45;&gt;Node18 -->
<g id="edge24" class="edge"><title>Node12&#45;&gt;Node18</title>
<path fill="none" stroke="midnightblue" d="M480.521,-120.963C503.963,-104.929 538.008,-83.1061 570,-68 576.824,-64.7777 584.201,-61.7836 591.529,-59.0796"/>
<polygon fill="midnightblue" stroke="midnightblue" points="478.316,-118.232 472.081,-126.798 482.297,-123.989 478.316,-118.232"/>
</g>
<!-- Node13&#45;&gt;Node3 -->
<g id="edge16" class="edge"><title>Node13&#45;&gt;Node3</title>
<path fill="none" stroke="midnightblue" d="M662.691,-213.778C682.648,-235.522 715.437,-267.744 750,-287 810.692,-320.813 837.771,-300.107 900,-331 936.697,-349.218 973.895,-379.685 994.552,-397.908"/>
<polygon fill="midnightblue" stroke="midnightblue" points="665.233,-211.371 655.939,-206.284 660.032,-216.056 665.233,-211.371"/>
</g>
<!-- Node13&#45;&gt;Node6 -->
<g id="edge17" class="edge"><title>Node13&#45;&gt;Node6</title>
<path fill="none" stroke="midnightblue" d="M690.328,-209.827C720.191,-221.706 758.244,-236.843 786.106,-247.926"/>
<polygon fill="midnightblue" stroke="midnightblue" points="691.529,-206.538 680.944,-206.094 688.942,-213.042 691.529,-206.538"/>
</g>
<!-- Node13&#45;&gt;Node9 -->
<g id="edge18" class="edge"><title>Node13&#45;&gt;Node9</title>
<path fill="none" stroke="midnightblue" d="M720.71,-188.381C809.718,-184.774 959.801,-176.838 1088,-161 1117.22,-157.39 1149.76,-151.551 1175.33,-146.537"/>
<polygon fill="midnightblue" stroke="midnightblue" points="720.549,-184.884 710.696,-188.779 720.827,-191.879 720.549,-184.884"/>
</g>
<!-- Node14 -->
<g id="node14" class="node"><title>Node14</title>
<g id="a_node14"><a xlink:href="class_terrain_object_manager.html#a202d577cb222f42c46e5b6600c9626a4" target="_top" xlink:title="TerrainObjectManager\l::loadPreloadedTrucks">
<polygon fill="white" stroke="black" points="768,-122 768,-152 882,-152 882,-122 768,-122"/>
<text text-anchor="start" x="776" y="-140" font-family="Helvetica,sans-Serif" font-size="10.00">TerrainObjectManager</text>
<text text-anchor="middle" x="825" y="-129" font-family="Helvetica,sans-Serif" font-size="10.00">::loadPreloadedTrucks</text>
</a>
</g>
</g>
<!-- Node13&#45;&gt;Node14 -->
<g id="edge19" class="edge"><title>Node13&#45;&gt;Node14</title>
<path fill="none" stroke="midnightblue" d="M703.013,-173.095C725.867,-166.277 751.658,-158.583 773.538,-152.055"/>
<polygon fill="midnightblue" stroke="midnightblue" points="702.001,-169.745 693.419,-175.958 704.002,-176.453 702.001,-169.745"/>
</g>
<!-- Node15 -->
<g id="node15" class="node"><title>Node15</title>
<g id="a_node15"><a xlink:href="class_terrain_manager.html#ac666fc0221c16001186b83cd6df66691" target="_top" xlink:title="TerrainManager::loadPreloaded\lTrucks">
<polygon fill="white" stroke="black" points="936,-122 936,-152 1088,-152 1088,-122 936,-122"/>
<text text-anchor="start" x="944" y="-140" font-family="Helvetica,sans-Serif" font-size="10.00">TerrainManager::loadPreloaded</text>
<text text-anchor="middle" x="1012" y="-129" font-family="Helvetica,sans-Serif" font-size="10.00">Trucks</text>
</a>
</g>
</g>
<!-- Node14&#45;&gt;Node15 -->
<g id="edge20" class="edge"><title>Node14&#45;&gt;Node15</title>
<path fill="none" stroke="midnightblue" d="M892.117,-137C906.245,-137 921.27,-137 935.715,-137"/>
<polygon fill="midnightblue" stroke="midnightblue" points="892.008,-133.5 882.008,-137 892.008,-140.5 892.008,-133.5"/>
</g>
<!-- Node15&#45;&gt;Node9 -->
<g id="edge21" class="edge"><title>Node15&#45;&gt;Node9</title>
<path fill="none" stroke="midnightblue" d="M1098.3,-137C1106.75,-137 1115.37,-137 1123.93,-137"/>
<polygon fill="midnightblue" stroke="midnightblue" points="1098.09,-133.5 1088.09,-137 1098.09,-140.5 1098.09,-133.5"/>
</g>
<!-- Node19&#45;&gt;Node3 -->
<g id="edge26" class="edge"><title>Node19&#45;&gt;Node3</title>
<path fill="none" stroke="midnightblue" d="M910.299,-399.936C921.385,-401.374 932.629,-402.833 943.389,-404.229"/>
<polygon fill="midnightblue" stroke="midnightblue" points="910.548,-396.439 900.181,-398.623 909.647,-403.381 910.548,-396.439"/>
</g>
<!-- Node20&#45;&gt;Node3 -->
<g id="edge28" class="edge"><title>Node20&#45;&gt;Node3</title>
<path fill="none" stroke="midnightblue" d="M543.853,-338.973C635.607,-335.331 779.339,-335.875 900,-364 930.362,-371.077 962.718,-386.349 984.613,-397.974"/>
<polygon fill="midnightblue" stroke="midnightblue" points="543.601,-335.481 533.757,-339.399 543.896,-342.474 543.601,-335.481"/>
</g>
<!-- Node21&#45;&gt;Node3 -->
<g id="edge30" class="edge"><title>Node21&#45;&gt;Node3</title>
<path fill="none" stroke="midnightblue" d="M541.849,-530.236C634.777,-537.279 781.866,-538.818 900,-496 939.815,-481.569 977.349,-447.75 996.92,-428.023"/>
<polygon fill="midnightblue" stroke="midnightblue" points="541.877,-526.727 531.631,-529.422 541.322,-533.705 541.877,-526.727"/>
</g>
<!-- Node22&#45;&gt;Node4 -->
<g id="edge32" class="edge"><title>Node22&#45;&gt;Node4</title>
<path fill="none" stroke="midnightblue" d="M281.167,-512.019C303.362,-522.763 335.878,-536.91 366,-544 485.286,-572.075 518.455,-564 641,-564 641,-564 641,-564 826,-564 964.97,-564 1126.57,-518.076 1191.64,-497.625"/>
<polygon fill="midnightblue" stroke="midnightblue" points="282.549,-508.798 272.033,-507.507 279.448,-515.074 282.549,-508.798"/>
</g>
</g>
</svg>
        <g id="navigator" transform="translate(0 0)" fill="#404254">
                <rect fill="#f2f5e9" fill-opacity="0.5" stroke="#606060" stroke-width=".5" x="0" y="0" width="60" height="60"/>
                <use id="zoomplus" xlink:href="#zoomPlus" x="17" y="9" onmousedown="handleZoom(evt,'in')"/>
                <use id="zoomminus" xlink:href="#zoomMin" x="42" y="9" onmousedown="handleZoom(evt,'out')"/>
                <use id="reset" xlink:href="#resetDef" x="30" y="36" onmousedown="handleReset()"/>
                <g id="arrowUp" xlink:href="#dirArrow" transform="translate(30 24)" onmousedown="handlePan(0,-1)">
                  <use xlink:href="#rim" fill="#404040">
                        <set attributeName="fill" to="#808080" begin="arrowUp.mouseover" end="arrowUp.mouseout"/>
                  </use>
                  <path fill="none" stroke="white" stroke-width="1.5" d="M0,-3.0v7 M-2.5,-0.5L0,-3.0L2.5,-0.5"/>
                </g>
                <g id="arrowRight" xlink:href="#dirArrow" transform="rotate(90) translate(36 -43)" onmousedown="handlePan(1,0)">
                  <use xlink:href="#rim" fill="#404040">
                        <set attributeName="fill" to="#808080" begin="arrowRight.mouseover" end="arrowRight.mouseout"/>
                  </use>
                  <path fill="none" stroke="white" stroke-width="1.5" d="M0,-3.0v7 M-2.5,-0.5L0,-3.0L2.5,-0.5"/>
                </g>
                <g id="arrowDown" xlink:href="#dirArrow" transform="rotate(180) translate(-30 -48)" onmousedown="handlePan(0,1)">
                  <use xlink:href="#rim" fill="#404040">
                        <set attributeName="fill" to="#808080" begin="arrowDown.mouseover" end="arrowDown.mouseout"/>
                  </use>
                  <path fill="none" stroke="white" stroke-width="1.5" d="M0,-3.0v7 M-2.5,-0.5L0,-3.0L2.5,-0.5"/>
                </g>
                <g id="arrowLeft" xlink:href="#dirArrow" transform="rotate(270) translate(-36 17)" onmousedown="handlePan(-1,0)">
                  <use xlink:href="#rim" fill="#404040">
                        <set attributeName="fill" to="#808080" begin="arrowLeft.mouseover" end="arrowLeft.mouseout"/>
                  </use>
                  <path fill="none" stroke="white" stroke-width="1.5" d="M0,-3.0v7 M-2.5,-0.5L0,-3.0L2.5,-0.5"/>
                </g>
        </g>
        <svg viewBox="0 0 15 15" width="100%" height="30px" preserveAspectRatio="xMaxYMin meet">
         <g id="arrow_out" transform="scale(0.3 0.3)">
          <a xlink:href="class_ro_r_1_1_beam_factory_a1a0708c3248c3759a0352257a4af458b_icgraph_org.svg" target="_base">
           <rect id="button" ry="5" rx="5" y="6" x="6" height="38" width="38"
                fill="#f2f5e9" fill-opacity="0.5" stroke="#606060" stroke-width="1.0"/>
           <path id="arrow"
             d="M 11.500037,31.436501 C 11.940474,20.09759 22.043105,11.32322 32.158766,21.979434 L 37.068811,17.246167 C 37.068811,17.246167 37.088388,32 37.088388,32 L 22.160133,31.978069 C 22.160133,31.978069 26.997745,27.140456 26.997745,27.140456 C 18.528582,18.264221 13.291696,25.230495 11.500037,31.436501 z"
             style="fill:#404040;"/>
          </a>
         </g>
        </svg>
</svg>
