<?xml version="1.0" encoding="UTF-8" standalone="no"?>
<!DOCTYPE svg PUBLIC "-//W3C//DTD SVG 1.1//EN"
 "http://www.w3.org/Graphics/SVG/1.1/DTD/svg11.dtd">
<!-- Generated by graphviz version 2.36.0 (20140111.2315)
 -->
<!-- Title: MOC::CollisionTools::getStaticGeometry Pages: 1 -->
<svg width="556pt" height="185pt"
 viewBox="0.00 0.00 556.00 185.00" xmlns="http://www.w3.org/2000/svg" xmlns:xlink="http://www.w3.org/1999/xlink">
<g id="graph0" class="graph" transform="scale(1 1) rotate(0) translate(4 181)">
<title>MOC::CollisionTools::getStaticGeometry</title>
<polygon fill="white" stroke="none" points="-4,4 -4,-181 552,-181 552,4 -4,4"/>
<!-- Node1 -->
<g id="node1" class="node"><title>Node1</title>
<polygon fill="#bfbfbf" stroke="black" points="0.5,-73 0.5,-103 107.5,-103 107.5,-73 0.5,-73"/>
<text text-anchor="start" x="8.5" y="-91" font-family="Helvetica,sans-Serif" font-size="10.00">MOC::CollisionTools</text>
<text text-anchor="middle" x="54" y="-80" font-family="Helvetica,sans-Serif" font-size="10.00">::getStaticGeometry</text>
</g>
<!-- Node2 -->
<g id="node2" class="node"><title>Node2</title>
<g id="a_node2"><a xlink:href="class_m_o_c_1_1_collision_tools.html#aeea2a5610cba73ec3393563eeb437319" target="_top" xlink:title="MOC::CollisionTools\l::raycast">
<polygon fill="white" stroke="black" points="144.5,-73 144.5,-103 251.5,-103 251.5,-73 144.5,-73"/>
<text text-anchor="start" x="152.5" y="-91" font-family="Helvetica,sans-Serif" font-size="10.00">MOC::CollisionTools</text>
<text text-anchor="middle" x="198" y="-80" font-family="Helvetica,sans-Serif" font-size="10.00">::raycast</text>
</a>
</g>
</g>
<!-- Node1&#45;&gt;Node2 -->
<g id="edge1" class="edge"><title>Node1&#45;&gt;Node2</title>
<path fill="none" stroke="midnightblue" d="M117.994,-88C126.704,-88 135.578,-88 144.08,-88"/>
<polygon fill="midnightblue" stroke="midnightblue" points="117.876,-84.5001 107.876,-88 117.876,-91.5001 117.876,-84.5001"/>
</g>
<!-- Node3 -->
<g id="node3" class="node"><title>Node3</title>
<g id="a_node3"><a xlink:href="class_m_o_c_1_1_collision_tools.html#aeacad4ab634b7d8d9d05dd23182b4ecc" target="_top" xlink:title="MOC::CollisionTools\l::raycastFromCamera">
<polygon fill="white" stroke="black" points="288,-134 288,-164 400,-164 400,-134 288,-134"/>
<text text-anchor="start" x="296" y="-152" font-family="Helvetica,sans-Serif" font-size="10.00">MOC::CollisionTools</text>
<text text-anchor="middle" x="344" y="-141" font-family="Helvetica,sans-Serif" font-size="10.00">::raycastFromCamera</text>
</a>
</g>
</g>
<!-- Node2&#45;&gt;Node3 -->
<g id="edge2" class="edge"><title>Node2&#45;&gt;Node3</title>
<path fill="none" stroke="midnightblue" d="M244,-107.063C264.397,-115.703 288.175,-125.776 307.315,-133.883"/>
<polygon fill="midnightblue" stroke="midnightblue" points="245.169,-103.757 234.596,-103.079 242.438,-110.202 245.169,-103.757"/>
</g>
<!-- Node5 -->
<g id="node5" class="node"><title>Node5</title>
<g id="a_node5"><a xlink:href="class_m_o_c_1_1_collision_tools.html#a926b1617716c4d9953697b90f8b13863" target="_top" xlink:title="MOC::CollisionTools\l::raycastFromPoint">
<polygon fill="white" stroke="black" points="290.5,-73 290.5,-103 397.5,-103 397.5,-73 290.5,-73"/>
<text text-anchor="start" x="298.5" y="-91" font-family="Helvetica,sans-Serif" font-size="10.00">MOC::CollisionTools</text>
<text text-anchor="middle" x="344" y="-80" font-family="Helvetica,sans-Serif" font-size="10.00">::raycastFromPoint</text>
</a>
</g>
</g>
<!-- Node2&#45;&gt;Node5 -->
<g id="edge4" class="edge"><title>Node2&#45;&gt;Node5</title>
<path fill="none" stroke="midnightblue" d="M261.927,-88C271.362,-88 281.008,-88 290.204,-88"/>
<polygon fill="midnightblue" stroke="midnightblue" points="261.803,-84.5001 251.803,-88 261.803,-91.5001 261.803,-84.5001"/>
</g>
<!-- Node9 -->
<g id="node9" class="node"><title>Node9</title>
<g id="a_node9"><a xlink:href="class_m_o_c_1_1_collision_tools.html#afe929b702605c52e24480bf3e9ffad1c" target="_top" xlink:title="MOC::CollisionTools\l::raycast">
<polygon fill="white" stroke="black" points="290.5,-24 290.5,-54 397.5,-54 397.5,-24 290.5,-24"/>
<text text-anchor="start" x="298.5" y="-42" font-family="Helvetica,sans-Serif" font-size="10.00">MOC::CollisionTools</text>
<text text-anchor="middle" x="344" y="-31" font-family="Helvetica,sans-Serif" font-size="10.00">::raycast</text>
</a>
</g>
</g>
<!-- Node2&#45;&gt;Node9 -->
<g id="edge8" class="edge"><title>Node2&#45;&gt;Node9</title>
<path fill="none" stroke="midnightblue" d="M253.043,-69.6104C268.036,-64.5084 284.14,-59.0289 298.519,-54.1359"/>
<polygon fill="midnightblue" stroke="midnightblue" points="251.719,-66.3637 243.38,-72.8986 253.974,-72.9905 251.719,-66.3637"/>
</g>
<!-- Node4 -->
<g id="node4" class="node"><title>Node4</title>
<g id="a_node4"><a xlink:href="class_m_o_c_1_1_collision_tools.html#a7a2c1e82a39f9480ce119de94e644b3a" target="_top" xlink:title="MOC::CollisionTools\l::raycastFromCamera">
<polygon fill="white" stroke="black" points="436,-147 436,-177 548,-177 548,-147 436,-147"/>
<text text-anchor="start" x="444" y="-165" font-family="Helvetica,sans-Serif" font-size="10.00">MOC::CollisionTools</text>
<text text-anchor="middle" x="492" y="-154" font-family="Helvetica,sans-Serif" font-size="10.00">::raycastFromCamera</text>
</a>
</g>
</g>
<!-- Node3&#45;&gt;Node4 -->
<g id="edge3" class="edge"><title>Node3&#45;&gt;Node4</title>
<path fill="none" stroke="midnightblue" d="M410.41,-154.824C418.865,-155.577 427.457,-156.342 435.726,-157.078"/>
<polygon fill="midnightblue" stroke="midnightblue" points="410.467,-151.316 400.196,-153.915 409.846,-158.288 410.467,-151.316"/>
</g>
<!-- Node6 -->
<g id="node6" class="node"><title>Node6</title>
<g id="a_node6"><a xlink:href="class_m_o_c_1_1_collision_tools.html#a2e5543e1407bed98ff637cc24b3f9bc1" target="_top" xlink:title="MOC::CollisionTools\l::collidesWithEntity">
<polygon fill="white" stroke="black" points="438.5,-98 438.5,-128 545.5,-128 545.5,-98 438.5,-98"/>
<text text-anchor="start" x="446.5" y="-116" font-family="Helvetica,sans-Serif" font-size="10.00">MOC::CollisionTools</text>
<text text-anchor="middle" x="492" y="-105" font-family="Helvetica,sans-Serif" font-size="10.00">::collidesWithEntity</text>
</a>
</g>
</g>
<!-- Node5&#45;&gt;Node6 -->
<g id="edge5" class="edge"><title>Node5&#45;&gt;Node6</title>
<path fill="none" stroke="midnightblue" d="M407.784,-98.7507C417.98,-100.497 428.447,-102.289 438.368,-103.988"/>
<polygon fill="midnightblue" stroke="midnightblue" points="408.157,-95.2636 397.709,-97.0256 406.975,-102.163 408.157,-95.2636"/>
</g>
<!-- Node7 -->
<g id="node7" class="node"><title>Node7</title>
<g id="a_node7"><a xlink:href="class_m_o_c_1_1_collision_tools.html#a645e5635f70ad0532099513b2c42c7fb" target="_top" xlink:title="MOC::CollisionTools\l::calculateY">
<polygon fill="white" stroke="black" points="438.5,-49 438.5,-79 545.5,-79 545.5,-49 438.5,-49"/>
<text text-anchor="start" x="446.5" y="-67" font-family="Helvetica,sans-Serif" font-size="10.00">MOC::CollisionTools</text>
<text text-anchor="middle" x="492" y="-56" font-family="Helvetica,sans-Serif" font-size="10.00">::calculateY</text>
</a>
</g>
</g>
<!-- Node5&#45;&gt;Node7 -->
<g id="edge6" class="edge"><title>Node5&#45;&gt;Node7</title>
<path fill="none" stroke="midnightblue" d="M407.784,-77.6793C417.98,-76.0033 428.447,-74.2827 438.368,-72.6518"/>
<polygon fill="midnightblue" stroke="midnightblue" points="407.009,-74.2597 397.709,-79.3354 408.145,-81.167 407.009,-74.2597"/>
</g>
<!-- Node8 -->
<g id="node8" class="node"><title>Node8</title>
<g id="a_node8"><a xlink:href="class_m_o_c_1_1_collision_tools.html#a12d26bad42a281549f955b387eb7d1c1" target="_top" xlink:title="MOC::CollisionTools\l::raycastFromPoint">
<polygon fill="white" stroke="black" points="438.5,-0 438.5,-30 545.5,-30 545.5,-0 438.5,-0"/>
<text text-anchor="start" x="446.5" y="-18" font-family="Helvetica,sans-Serif" font-size="10.00">MOC::CollisionTools</text>
<text text-anchor="middle" x="492" y="-7" font-family="Helvetica,sans-Serif" font-size="10.00">::raycastFromPoint</text>
</a>
</g>
</g>
<!-- Node5&#45;&gt;Node8 -->
<g id="edge7" class="edge"><title>Node5&#45;&gt;Node8</title>
<path fill="none" stroke="midnightblue" d="M389.183,-68.589C392.874,-66.7644 396.522,-64.8891 400,-63 416.684,-53.9377 419.316,-49.0623 436,-40 442.36,-36.5457 449.287,-33.1373 456.013,-30.001"/>
<polygon fill="midnightblue" stroke="midnightblue" points="387.49,-65.519 379.987,-72.999 390.517,-71.8308 387.49,-65.519"/>
</g>
</g>
</svg>
