<?xml version="1.0" encoding="UTF-8" standalone="no"?>
<!DOCTYPE svg PUBLIC "-//W3C//DTD SVG 1.1//EN"
 "http://www.w3.org/Graphics/SVG/1.1/DTD/svg11.dtd">
<!-- Generated by graphviz version 2.36.0 (20140111.2315)
 -->
<!-- Title: RoR::BeamFactory::getTrucks Pages: 1 -->
<!--zoomable 244 -->
<svg id="main" version="1.1" xmlns="http://www.w3.org/2000/svg" xmlns:xlink="http://www.w3.org/1999/xlink" xml:space="preserve" onload="init(evt)">
<style type="text/css"><![CDATA[
.edge:hover path { stroke: red; }
.edge:hover polygon { stroke: red; fill: red; }
]]></style>
<script type="text/javascript"><![CDATA[
var edges = document.getElementsByTagName('g');
if (edges && edges.length) {
  for (var i=0;i<edges.length;i++) {
    if (edges[i].id.substr(0,4)=='edge') {
      edges[i].setAttribute('class','edge');
    }
  }
}
]]></script>
        <defs>
                <circle id="rim" cx="0" cy="0" r="7"/>
                <circle id="rim2" cx="0" cy="0" r="3.5"/>
                <g id="zoomPlus">
                        <use xlink:href="#rim" fill="#404040">
                                <set attributeName="fill" to="#808080" begin="zoomplus.mouseover" end="zoomplus.mouseout"/>
                        </use>
                        <path d="M-4,0h8M0,-4v8" fill="none" stroke="white" stroke-width="1.5" pointer-events="none"/>
                </g>
                <g id="zoomMin">
                        <use xlink:href="#rim" fill="#404040">
                                <set attributeName="fill" to="#808080" begin="zoomminus.mouseover" end="zoomminus.mouseout"/>
                        </use>
                        <path d="M-4,0h8" fill="none" stroke="white" stroke-width="1.5" pointer-events="none"/>
                </g>
                <g id="dirArrow">
                        <path fill="none" stroke="white" stroke-width="1.5" d="M0,-3.0v7 M-2.5,-0.5L0,-3.0L2.5,-0.5"/>
                </g>
               <g id="resetDef">
                       <use xlink:href="#rim2" fill="#404040">
                               <set attributeName="fill" to="#808080" begin="reset.mouseover" end="reset.mouseout"/>
                       </use>
               </g>
        </defs>

<script type="text/javascript">
var viewWidth = 986;
var viewHeight = 244;
var sectionId = 'dynsection-32';
</script>
<script xlink:href="svgpan.js"/>
<svg id="graph" class="graph">
<g id="viewport">
<title>RoR::BeamFactory::getTrucks</title>
<polygon fill="white" stroke="none" points="-4,4 -4,-240 982,-240 982,4 -4,4"/>
<!-- Node1 -->
<g id="node1" class="node"><title>Node1</title>
<polygon fill="#bfbfbf" stroke="black" points="0.5,-110.5 0.5,-129.5 151.5,-129.5 151.5,-110.5 0.5,-110.5"/>
<text text-anchor="middle" x="76" y="-117.5" font-family="Helvetica,sans-Serif" font-size="10.00">RoR::BeamFactory::getTrucks</text>
</g>
<!-- Node2 -->
<g id="node2" class="node"><title>Node2</title>
<g id="a_node2"><a xlink:href="class_ro_r_frame_listener.html#afec2a0f00ed552c21d22aae76329bf38" target="_top" xlink:title="RoRFrameListener::Update\lInputEvents">
<polygon fill="white" stroke="black" points="208.5,-206 208.5,-236 345.5,-236 345.5,-206 208.5,-206"/>
<text text-anchor="start" x="216.5" y="-224" font-family="Helvetica,sans-Serif" font-size="10.00">RoRFrameListener::Update</text>
<text text-anchor="middle" x="277" y="-213" font-family="Helvetica,sans-Serif" font-size="10.00">InputEvents</text>
</a>
</g>
</g>
<!-- Node1&#45;&gt;Node2 -->
<g id="edge1" class="edge"><title>Node1&#45;&gt;Node2</title>
<path fill="none" stroke="midnightblue" d="M97.8685,-135.52C119.539,-151.105 154.85,-175.036 188,-191 199.634,-196.603 212.591,-201.634 224.907,-205.903"/>
<polygon fill="midnightblue" stroke="midnightblue" points="99.8742,-132.651 89.7293,-129.596 95.7549,-138.311 99.8742,-132.651"/>
</g>
<!-- Node3 -->
<g id="node3" class="node"><title>Node3</title>
<g id="a_node3"><a xlink:href="class_ro_r_frame_listener.html#acd8647e188fb8e838689492965b86faf" target="_top" xlink:title="RoRFrameListener::frameStarted">
<polygon fill="white" stroke="black" points="402.5,-189.5 402.5,-208.5 563.5,-208.5 563.5,-189.5 402.5,-189.5"/>
<text text-anchor="middle" x="483" y="-196.5" font-family="Helvetica,sans-Serif" font-size="10.00">RoRFrameListener::frameStarted</text>
</a>
</g>
</g>
<!-- Node1&#45;&gt;Node3 -->
<g id="edge3" class="edge"><title>Node1&#45;&gt;Node3</title>
<path fill="none" stroke="midnightblue" d="M110.31,-133.273C132.103,-141.489 161.369,-151.646 188,-158 259.559,-175.072 342.728,-185.853 402.309,-192.051"/>
<polygon fill="midnightblue" stroke="midnightblue" points="111.45,-129.962 100.86,-129.656 108.948,-136.5 111.45,-129.962"/>
</g>
<!-- Node4 -->
<g id="node4" class="node"><title>Node4</title>
<g id="a_node4"><a xlink:href="class_ro_r_frame_listener.html#a57679664f6f2299add5b6ba7fcbb1b11" target="_top" xlink:title="RoRFrameListener::ShowLoaderGUI">
<polygon fill="white" stroke="black" points="188.5,-129.5 188.5,-148.5 365.5,-148.5 365.5,-129.5 188.5,-129.5"/>
<text text-anchor="middle" x="277" y="-136.5" font-family="Helvetica,sans-Serif" font-size="10.00">RoRFrameListener::ShowLoaderGUI</text>
</a>
</g>
</g>
<!-- Node1&#45;&gt;Node4 -->
<g id="edge4" class="edge"><title>Node1&#45;&gt;Node4</title>
<path fill="none" stroke="midnightblue" d="M161.82,-128.098C170.544,-128.931 179.422,-129.779 188.177,-130.615"/>
<polygon fill="midnightblue" stroke="midnightblue" points="161.954,-124.595 151.666,-127.129 161.288,-131.564 161.954,-124.595"/>
</g>
<!-- Node5 -->
<g id="node5" class="node"><title>Node5</title>
<g id="a_node5"><a xlink:href="class_ro_r_1_1_scene_mouse.html#a4b6998ce12990478a6a2bf2e59b2eb1d" target="_top" xlink:title="RoR::SceneMouse::mouseMoved">
<polygon fill="white" stroke="black" points="606,-91.5 606,-110.5 770,-110.5 770,-91.5 606,-91.5"/>
<text text-anchor="middle" x="688" y="-98.5" font-family="Helvetica,sans-Serif" font-size="10.00">RoR::SceneMouse::mouseMoved</text>
</a>
</g>
</g>
<!-- Node1&#45;&gt;Node5 -->
<g id="edge5" class="edge"><title>Node1&#45;&gt;Node5</title>
<path fill="none" stroke="midnightblue" d="M161.83,-117.358C279.337,-113.698 490.191,-107.13 605.76,-103.53"/>
<polygon fill="midnightblue" stroke="midnightblue" points="161.684,-113.861 151.798,-117.67 161.902,-120.857 161.684,-113.861"/>
</g>
<!-- Node7 -->
<g id="node7" class="node"><title>Node7</title>
<g id="a_node7"><a xlink:href="class_ro_r_1_1_g_u_i_1_1_top_menubar.html#addbf2f7c7b987d76109c9ed95f966437" target="_top" xlink:title="RoR::GUI::TopMenubar\l::addUserToMenu">
<polygon fill="white" stroke="black" points="216.5,-42 216.5,-72 337.5,-72 337.5,-42 216.5,-42"/>
<text text-anchor="start" x="224.5" y="-60" font-family="Helvetica,sans-Serif" font-size="10.00">RoR::GUI::TopMenubar</text>
<text text-anchor="middle" x="277" y="-49" font-family="Helvetica,sans-Serif" font-size="10.00">::addUserToMenu</text>
</a>
</g>
</g>
<!-- Node1&#45;&gt;Node7 -->
<g id="edge7" class="edge"><title>Node1&#45;&gt;Node7</title>
<path fill="none" stroke="midnightblue" d="M117.171,-107.282C149.312,-97.1073 194.463,-82.8132 228.414,-72.065"/>
<polygon fill="midnightblue" stroke="midnightblue" points="115.701,-104.077 107.224,-110.432 117.814,-110.75 115.701,-104.077"/>
</g>
<!-- Node8 -->
<g id="node8" class="node"><title>Node8</title>
<g id="a_node8"><a xlink:href="class_ro_r_1_1_g_u_i_1_1_top_menubar.html#a70583f192ad3c430862d4e17afac2a2f" target="_top" xlink:title="RoR::GUI::TopMenubar\l::vehiclesListUpdate">
<polygon fill="white" stroke="black" points="422.5,-42 422.5,-72 543.5,-72 543.5,-42 422.5,-42"/>
<text text-anchor="start" x="430.5" y="-60" font-family="Helvetica,sans-Serif" font-size="10.00">RoR::GUI::TopMenubar</text>
<text text-anchor="middle" x="483" y="-49" font-family="Helvetica,sans-Serif" font-size="10.00">::vehiclesListUpdate</text>
</a>
</g>
</g>
<!-- Node1&#45;&gt;Node8 -->
<g id="edge13" class="edge"><title>Node1&#45;&gt;Node8</title>
<path fill="none" stroke="midnightblue" d="M91.7577,-102.672C111.243,-81.2748 147.816,-45.9965 188,-32 272.294,-2.63977 378.048,-24.831 436.993,-41.998"/>
<polygon fill="midnightblue" stroke="midnightblue" points="88.9435,-100.57 84.9328,-110.377 94.1835,-105.212 88.9435,-100.57"/>
</g>
<!-- Node2&#45;&gt;Node3 -->
<g id="edge2" class="edge"><title>Node2&#45;&gt;Node3</title>
<path fill="none" stroke="midnightblue" d="M355.978,-212.591C371.099,-210.96 386.968,-209.249 402.149,-207.611"/>
<polygon fill="midnightblue" stroke="midnightblue" points="355.213,-209.153 345.646,-213.705 355.963,-216.112 355.213,-209.153"/>
</g>
<!-- Node6 -->
<g id="node6" class="node"><title>Node6</title>
<g id="a_node6"><a xlink:href="class_g_u_i_input_manager.html#a2f52a8c0b01fca8c55a954bdb7d2ab79" target="_top" xlink:title="GUIInputManager::mouseMoved">
<polygon fill="white" stroke="black" points="816,-90.5 816,-109.5 974,-109.5 974,-90.5 816,-90.5"/>
<text text-anchor="middle" x="895" y="-97.5" font-family="Helvetica,sans-Serif" font-size="10.00">GUIInputManager::mouseMoved</text>
</a>
</g>
</g>
<!-- Node5&#45;&gt;Node6 -->
<g id="edge6" class="edge"><title>Node5&#45;&gt;Node6</title>
<path fill="none" stroke="midnightblue" d="M780.375,-100.554C792.233,-100.496 804.293,-100.438 815.909,-100.381"/>
<polygon fill="midnightblue" stroke="midnightblue" points="780.004,-97.0559 770.021,-100.605 780.038,-104.056 780.004,-97.0559"/>
</g>
<!-- Node7&#45;&gt;Node8 -->
<g id="edge8" class="edge"><title>Node7&#45;&gt;Node8</title>
<path fill="none" stroke="midnightblue" d="M347.768,-57C372.031,-57 399.006,-57 422.372,-57"/>
<polygon fill="midnightblue" stroke="midnightblue" points="347.554,-53.5001 337.554,-57 347.554,-60.5001 347.554,-53.5001"/>
</g>
<!-- Node9 -->
<g id="node9" class="node"><title>Node9</title>
<g id="a_node9"><a xlink:href="class_ro_r_1_1_g_u_i_1_1_top_menubar.html#a85cdceff2c0f1196726097bc04953567" target="_top" xlink:title="RoR::GUI::TopMenubar\l::updatePositionUponMousePosition">
<polygon fill="white" stroke="black" points="600.5,-42 600.5,-72 775.5,-72 775.5,-42 600.5,-42"/>
<text text-anchor="start" x="608.5" y="-60" font-family="Helvetica,sans-Serif" font-size="10.00">RoR::GUI::TopMenubar</text>
<text text-anchor="middle" x="688" y="-49" font-family="Helvetica,sans-Serif" font-size="10.00">::updatePositionUponMousePosition</text>
</a>
</g>
</g>
<!-- Node8&#45;&gt;Node9 -->
<g id="edge9" class="edge"><title>Node8&#45;&gt;Node9</title>
<path fill="none" stroke="midnightblue" d="M553.739,-57C568.743,-57 584.777,-57 600.335,-57"/>
<polygon fill="midnightblue" stroke="midnightblue" points="553.535,-53.5001 543.535,-57 553.535,-60.5001 553.535,-53.5001"/>
</g>
<!-- Node9&#45;&gt;Node6 -->
<g id="edge10" class="edge"><title>Node9&#45;&gt;Node6</title>
<path fill="none" stroke="midnightblue" d="M770.752,-74.1481C797.272,-79.7106 825.725,-85.6788 848.603,-90.4777"/>
<polygon fill="midnightblue" stroke="midnightblue" points="771.205,-70.6668 760.699,-72.0393 769.768,-77.5177 771.205,-70.6668"/>
</g>
<!-- Node10 -->
<g id="node10" class="node"><title>Node10</title>
<g id="a_node10"><a xlink:href="class_g_u_i_input_manager.html#a2e10c3db1bd7068fc87476ce1cceb7c6" target="_top" xlink:title="GUIInputManager::mousePressed">
<polygon fill="white" stroke="black" points="812.5,-49.5 812.5,-68.5 977.5,-68.5 977.5,-49.5 812.5,-49.5"/>
<text text-anchor="middle" x="895" y="-56.5" font-family="Helvetica,sans-Serif" font-size="10.00">GUIInputManager::mousePressed</text>
</a>
</g>
</g>
<!-- Node9&#45;&gt;Node10 -->
<g id="edge11" class="edge"><title>Node9&#45;&gt;Node10</title>
<path fill="none" stroke="midnightblue" d="M785.645,-57.9429C794.541,-58.0297 803.495,-58.117 812.239,-58.2023"/>
<polygon fill="midnightblue" stroke="midnightblue" points="785.675,-54.4431 775.641,-57.8453 785.607,-61.4428 785.675,-54.4431"/>
</g>
<!-- Node11 -->
<g id="node11" class="node"><title>Node11</title>
<g id="a_node11"><a xlink:href="class_ro_r_1_1_g_u_i_1_1_top_menubar.html#aba4f8b1030da3a9d3b4394562d60a05a" target="_top" xlink:title="RoR::GUI::TopMenubar\l::TopMenubar">
<polygon fill="white" stroke="black" points="834.5,-0 834.5,-30 955.5,-30 955.5,-0 834.5,-0"/>
<text text-anchor="start" x="842.5" y="-18" font-family="Helvetica,sans-Serif" font-size="10.00">RoR::GUI::TopMenubar</text>
<text text-anchor="middle" x="895" y="-7" font-family="Helvetica,sans-Serif" font-size="10.00">::TopMenubar</text>
</a>
</g>
</g>
<!-- Node9&#45;&gt;Node11 -->
<g id="edge12" class="edge"><title>Node9&#45;&gt;Node11</title>
<path fill="none" stroke="midnightblue" d="M772.484,-39.896C793.169,-35.6581 814.924,-31.2009 834.22,-27.2476"/>
<polygon fill="midnightblue" stroke="midnightblue" points="771.525,-36.5197 762.431,-41.9557 772.93,-43.3773 771.525,-36.5197"/>
</g>
</g>
</svg>
        <g id="navigator" transform="translate(0 0)" fill="#404254">
                <rect fill="#f2f5e9" fill-opacity="0.5" stroke="#606060" stroke-width=".5" x="0" y="0" width="60" height="60"/>
                <use id="zoomplus" xlink:href="#zoomPlus" x="17" y="9" onmousedown="handleZoom(evt,'in')"/>
                <use id="zoomminus" xlink:href="#zoomMin" x="42" y="9" onmousedown="handleZoom(evt,'out')"/>
                <use id="reset" xlink:href="#resetDef" x="30" y="36" onmousedown="handleReset()"/>
                <g id="arrowUp" xlink:href="#dirArrow" transform="translate(30 24)" onmousedown="handlePan(0,-1)">
                  <use xlink:href="#rim" fill="#404040">
                        <set attributeName="fill" to="#808080" begin="arrowUp.mouseover" end="arrowUp.mouseout"/>
                  </use>
                  <path fill="none" stroke="white" stroke-width="1.5" d="M0,-3.0v7 M-2.5,-0.5L0,-3.0L2.5,-0.5"/>
                </g>
                <g id="arrowRight" xlink:href="#dirArrow" transform="rotate(90) translate(36 -43)" onmousedown="handlePan(1,0)">
                  <use xlink:href="#rim" fill="#404040">
                        <set attributeName="fill" to="#808080" begin="arrowRight.mouseover" end="arrowRight.mouseout"/>
                  </use>
                  <path fill="none" stroke="white" stroke-width="1.5" d="M0,-3.0v7 M-2.5,-0.5L0,-3.0L2.5,-0.5"/>
                </g>
                <g id="arrowDown" xlink:href="#dirArrow" transform="rotate(180) translate(-30 -48)" onmousedown="handlePan(0,1)">
                  <use xlink:href="#rim" fill="#404040">
                        <set attributeName="fill" to="#808080" begin="arrowDown.mouseover" end="arrowDown.mouseout"/>
                  </use>
                  <path fill="none" stroke="white" stroke-width="1.5" d="M0,-3.0v7 M-2.5,-0.5L0,-3.0L2.5,-0.5"/>
                </g>
                <g id="arrowLeft" xlink:href="#dirArrow" transform="rotate(270) translate(-36 17)" onmousedown="handlePan(-1,0)">
                  <use xlink:href="#rim" fill="#404040">
                        <set attributeName="fill" to="#808080" begin="arrowLeft.mouseover" end="arrowLeft.mouseout"/>
                  </use>
                  <path fill="none" stroke="white" stroke-width="1.5" d="M0,-3.0v7 M-2.5,-0.5L0,-3.0L2.5,-0.5"/>
                </g>
        </g>
        <svg viewBox="0 0 15 15" width="100%" height="30px" preserveAspectRatio="xMaxYMin meet">
         <g id="arrow_out" transform="scale(0.3 0.3)">
          <a xlink:href="class_ro_r_1_1_beam_factory_a4941682a48735d61f13f27b67a4c0b8e_icgraph_org.svg" target="_base">
           <rect id="button" ry="5" rx="5" y="6" x="6" height="38" width="38"
                fill="#f2f5e9" fill-opacity="0.5" stroke="#606060" stroke-width="1.0"/>
           <path id="arrow"
             d="M 11.500037,31.436501 C 11.940474,20.09759 22.043105,11.32322 32.158766,21.979434 L 37.068811,17.246167 C 37.068811,17.246167 37.088388,32 37.088388,32 L 22.160133,31.978069 C 22.160133,31.978069 26.997745,27.140456 26.997745,27.140456 C 18.528582,18.264221 13.291696,25.230495 11.500037,31.436501 z"
             style="fill:#404040;"/>
          </a>
         </g>
        </svg>
</svg>
