<?xml version="1.0" encoding="UTF-8" standalone="no"?>
<!DOCTYPE svg PUBLIC "-//W3C//DTD SVG 1.1//EN"
 "http://www.w3.org/Graphics/SVG/1.1/DTD/svg11.dtd">
<!-- Generated by graphviz version 2.36.0 (20140111.2315)
 -->
<!-- Title: Turbojet Pages: 1 -->
<svg width="277pt" height="96pt"
 viewBox="0.00 0.00 277.00 96.00" xmlns="http://www.w3.org/2000/svg" xmlns:xlink="http://www.w3.org/1999/xlink">
<g id="graph0" class="graph" transform="scale(1 1) rotate(0) translate(4 92)">
<title>Turbojet</title>
<polygon fill="white" stroke="none" points="-4,4 -4,-92 273,-92 273,4 -4,4"/>
<!-- Node1 -->
<g id="node1" class="node"><title>Node1</title>
<polygon fill="#bfbfbf" stroke="black" points="119,-0.5 119,-19.5 171,-19.5 171,-0.5 119,-0.5"/>
<text text-anchor="middle" x="145" y="-7.5" font-family="Helvetica,sans-Serif" font-size="10.00">Turbojet</text>
</g>
<!-- Node2 -->
<g id="node2" class="node"><title>Node2</title>
<g id="a_node2"><a xlink:href="class_aero_engine.html" target="_top" xlink:title="AeroEngine">
<polygon fill="white" stroke="black" points="-0.5,-68.5 -0.5,-87.5 66.5,-87.5 66.5,-68.5 -0.5,-68.5"/>
<text text-anchor="middle" x="33" y="-75.5" font-family="Helvetica,sans-Serif" font-size="10.00">AeroEngine</text>
</a>
</g>
</g>
<!-- Node2&#45;&gt;Node1 -->
<g id="edge1" class="edge"><title>Node2&#45;&gt;Node1</title>
<path fill="none" stroke="midnightblue" d="M56.4783,-63.1646C78.7658,-50.0309 111.571,-30.6993 130.354,-19.6305"/>
<polygon fill="midnightblue" stroke="midnightblue" points="54.4805,-60.2793 47.642,-68.3717 58.0344,-66.3101 54.4805,-60.2793"/>
</g>
<!-- Node3 -->
<g id="node3" class="node"><title>Node3</title>
<g id="a_node3"><a xlink:href="class_zeroed_memory_allocator.html" target="_top" xlink:title="ZeroedMemoryAllocator">
<polygon fill="white" stroke="black" points="85,-68.5 85,-87.5 205,-87.5 205,-68.5 85,-68.5"/>
<text text-anchor="middle" x="145" y="-75.5" font-family="Helvetica,sans-Serif" font-size="10.00">ZeroedMemoryAllocator</text>
</a>
</g>
</g>
<!-- Node3&#45;&gt;Node1 -->
<g id="edge2" class="edge"><title>Node3&#45;&gt;Node1</title>
<path fill="none" stroke="midnightblue" d="M145,-58.0413C145,-45.4724 145,-29.5631 145,-19.8411"/>
<polygon fill="midnightblue" stroke="midnightblue" points="141.5,-58.3716 145,-68.3717 148.5,-58.3717 141.5,-58.3716"/>
</g>
<!-- Node4 -->
<g id="node4" class="node"><title>Node4</title>
<g id="a_node4"><a xlink:href="structnode__t.html" target="_top" xlink:title="node_t">
<polygon fill="white" stroke="black" points="223,-68.5 223,-87.5 269,-87.5 269,-68.5 223,-68.5"/>
<text text-anchor="middle" x="246" y="-75.5" font-family="Helvetica,sans-Serif" font-size="10.00">node_t</text>
</a>
</g>
</g>
<!-- Node4&#45;&gt;Node1 -->
<g id="edge3" class="edge"><title>Node4&#45;&gt;Node1</title>
<path fill="none" stroke="#9a32cd" stroke-dasharray="5,2" d="M224.287,-62.8113C204.202,-49.6863 174.995,-30.6004 158.207,-19.6305"/>
<polygon fill="#9a32cd" stroke="#9a32cd" points="222.51,-65.8313 232.796,-68.3717 226.339,-59.9714 222.51,-65.8313"/>
<text text-anchor="middle" x="220" y="-41.5" font-family="Helvetica,sans-Serif" font-size="10.00"> nodes</text>
</g>
</g>
</svg>
