<?xml version="1.0" encoding="UTF-8" standalone="no"?>
<!DOCTYPE svg PUBLIC "-//W3C//DTD SVG 1.1//EN"
 "http://www.w3.org/Graphics/SVG/1.1/DTD/svg11.dtd">
<!-- Generated by graphviz version 2.36.0 (20140111.2315)
 -->
<!-- Title: Collisions::hash_add Pages: 1 -->
<svg width="2162pt" height="175pt"
 viewBox="0.00 0.00 2162.00 175.40" xmlns="http://www.w3.org/2000/svg" xmlns:xlink="http://www.w3.org/1999/xlink">
<g id="graph0" class="graph" transform="scale(1 1) rotate(0) translate(4 171.398)">
<title>Collisions::hash_add</title>
<polygon fill="white" stroke="none" points="-4,4 -4,-171.398 2158,-171.398 2158,4 -4,4"/>
<!-- Node1 -->
<g id="node1" class="node"><title>Node1</title>
<polygon fill="#bfbfbf" stroke="black" points="0.5,-121.5 0.5,-140.5 107.5,-140.5 107.5,-121.5 0.5,-121.5"/>
<text text-anchor="middle" x="54" y="-128.5" font-family="Helvetica,sans-Serif" font-size="10.00">Collisions::hash_add</text>
</g>
<!-- Node2 -->
<g id="node2" class="node"><title>Node2</title>
<g id="a_node2"><a xlink:href="class_collisions.html#a50cf1fc86be3b7e69b687256f6d5d1f3" target="_top" xlink:title="Collisions::addCollisionBox">
<polygon fill="white" stroke="black" points="144,-140.5 144,-159.5 280,-159.5 280,-140.5 144,-140.5"/>
<text text-anchor="middle" x="212" y="-147.5" font-family="Helvetica,sans-Serif" font-size="10.00">Collisions::addCollisionBox</text>
</a>
</g>
</g>
<!-- Node1&#45;&gt;Node2 -->
<g id="edge1" class="edge"><title>Node1&#45;&gt;Node2</title>
<path fill="none" stroke="midnightblue" d="M117.755,-138.643C126.346,-139.69 135.194,-140.767 143.859,-141.823"/>
<polygon fill="midnightblue" stroke="midnightblue" points="118.164,-135.167 107.814,-137.433 117.318,-142.116 118.164,-135.167"/>
</g>
<!-- Node12 -->
<g id="node12" class="node"><title>Node12</title>
<g id="a_node12"><a xlink:href="class_collisions.html#a44e7f403a680e597a54209b2873b6e28" target="_top" xlink:title="Collisions::addCollisionTri">
<polygon fill="white" stroke="black" points="147,-102.5 147,-121.5 277,-121.5 277,-102.5 147,-102.5"/>
<text text-anchor="middle" x="212" y="-109.5" font-family="Helvetica,sans-Serif" font-size="10.00">Collisions::addCollisionTri</text>
</a>
</g>
</g>
<!-- Node1&#45;&gt;Node12 -->
<g id="edge11" class="edge"><title>Node1&#45;&gt;Node12</title>
<path fill="none" stroke="midnightblue" d="M117.995,-123.328C127.515,-122.168 137.344,-120.971 146.888,-119.809"/>
<polygon fill="midnightblue" stroke="midnightblue" points="117.318,-119.884 107.814,-124.567 118.164,-126.833 117.318,-119.884"/>
</g>
<!-- Node3 -->
<g id="node3" class="node"><title>Node3</title>
<g id="a_node3"><a xlink:href="class_terrain_object_manager.html#a62a108ad201e16585ab3115befedae60" target="_top" xlink:title="TerrainObjectManager\l::loadObject">
<polygon fill="white" stroke="black" points="496.5,-137 496.5,-167 609.5,-167 609.5,-137 496.5,-137"/>
<text text-anchor="start" x="504.5" y="-155" font-family="Helvetica,sans-Serif" font-size="10.00">TerrainObjectManager</text>
<text text-anchor="middle" x="553" y="-144" font-family="Helvetica,sans-Serif" font-size="10.00">::loadObject</text>
</a>
</g>
</g>
<!-- Node2&#45;&gt;Node3 -->
<g id="edge2" class="edge"><title>Node2&#45;&gt;Node3</title>
<path fill="none" stroke="midnightblue" d="M290.628,-150.458C353.381,-150.828 440.209,-151.34 496.242,-151.671"/>
<polygon fill="midnightblue" stroke="midnightblue" points="290.401,-146.957 280.381,-150.398 290.36,-153.957 290.401,-146.957"/>
</g>
<!-- Node4 -->
<g id="node4" class="node"><title>Node4</title>
<g id="a_node4"><a xlink:href="class_game_script.html#adc155d46516906fb9bfddde649c02ee6" target="_top" xlink:title="GameScript::spawnObject">
<polygon fill="white" stroke="black" points="646.5,-136.5 646.5,-155.5 777.5,-155.5 777.5,-136.5 646.5,-136.5"/>
<text text-anchor="middle" x="712" y="-143.5" font-family="Helvetica,sans-Serif" font-size="10.00">GameScript::spawnObject</text>
</a>
</g>
</g>
<!-- Node3&#45;&gt;Node4 -->
<g id="edge3" class="edge"><title>Node3&#45;&gt;Node4</title>
<path fill="none" stroke="midnightblue" d="M619.911,-149.481C628.634,-149.148 637.571,-148.806 646.275,-148.474"/>
<polygon fill="midnightblue" stroke="midnightblue" points="619.653,-145.988 609.794,-149.868 619.921,-152.983 619.653,-145.988"/>
</g>
<!-- Node5 -->
<g id="node5" class="node"><title>Node5</title>
<g id="a_node5"><a xlink:href="class_terrain_object_manager.html#a45ccbf51f9c0ecac68927fed5e52eaa4" target="_top" xlink:title="TerrainObjectManager\l::loadObjectConfigFile">
<polygon fill="white" stroke="black" points="1102.5,-93 1102.5,-123 1215.5,-123 1215.5,-93 1102.5,-93"/>
<text text-anchor="start" x="1110.5" y="-111" font-family="Helvetica,sans-Serif" font-size="10.00">TerrainObjectManager</text>
<text text-anchor="middle" x="1159" y="-100" font-family="Helvetica,sans-Serif" font-size="10.00">::loadObjectConfigFile</text>
</a>
</g>
</g>
<!-- Node3&#45;&gt;Node5 -->
<g id="edge4" class="edge"><title>Node3&#45;&gt;Node5</title>
<path fill="none" stroke="midnightblue" d="M619.98,-162.46C628.711,-163.51 637.557,-164.406 646,-165 812.614,-176.713 1008.61,-141.004 1102.45,-120.828"/>
<polygon fill="midnightblue" stroke="midnightblue" points="620.178,-158.957 609.816,-161.166 619.294,-165.901 620.178,-158.957"/>
</g>
<!-- Node6 -->
<g id="node6" class="node"><title>Node6</title>
<g id="a_node6"><a xlink:href="class_terrain_manager.html#a4ad87b973cb6af52daaf530a5feff167" target="_top" xlink:title="TerrainManager::loadTerrain\lObjects">
<polygon fill="white" stroke="black" points="1252,-93 1252,-123 1390,-123 1390,-93 1252,-93"/>
<text text-anchor="start" x="1260" y="-111" font-family="Helvetica,sans-Serif" font-size="10.00">TerrainManager::loadTerrain</text>
<text text-anchor="middle" x="1321" y="-100" font-family="Helvetica,sans-Serif" font-size="10.00">Objects</text>
</a>
</g>
</g>
<!-- Node5&#45;&gt;Node6 -->
<g id="edge5" class="edge"><title>Node5&#45;&gt;Node6</title>
<path fill="none" stroke="midnightblue" d="M1225.57,-108C1234.25,-108 1243.17,-108 1251.89,-108"/>
<polygon fill="midnightblue" stroke="midnightblue" points="1225.51,-104.5 1215.51,-108 1225.51,-111.5 1225.51,-104.5"/>
</g>
<!-- Node7 -->
<g id="node7" class="node"><title>Node7</title>
<g id="a_node7"><a xlink:href="class_terrain_manager.html#a9a04c837bf2ea6528c465b27ca62f730" target="_top" xlink:title="TerrainManager::loadTerrain">
<polygon fill="white" stroke="black" points="1426,-98.5 1426,-117.5 1564,-117.5 1564,-98.5 1426,-98.5"/>
<text text-anchor="middle" x="1495" y="-105.5" font-family="Helvetica,sans-Serif" font-size="10.00">TerrainManager::loadTerrain</text>
</a>
</g>
</g>
<!-- Node6&#45;&gt;Node7 -->
<g id="edge6" class="edge"><title>Node6&#45;&gt;Node7</title>
<path fill="none" stroke="midnightblue" d="M1400.64,-108C1409.03,-108 1417.51,-108 1425.76,-108"/>
<polygon fill="midnightblue" stroke="midnightblue" points="1400.47,-104.5 1390.47,-108 1400.47,-111.5 1400.47,-104.5"/>
</g>
<!-- Node8 -->
<g id="node8" class="node"><title>Node8</title>
<g id="a_node8"><a xlink:href="class_ro_r_frame_listener.html#a9757c059e840019a3e2659d5ef63ea02" target="_top" xlink:title="Reads GVar &#39;sim_terrain_pending&#39;. ">
<polygon fill="white" stroke="black" points="1600,-98.5 1600,-117.5 1756,-117.5 1756,-98.5 1600,-98.5"/>
<text text-anchor="middle" x="1678" y="-105.5" font-family="Helvetica,sans-Serif" font-size="10.00">RoRFrameListener::LoadTerrain</text>
</a>
</g>
</g>
<!-- Node7&#45;&gt;Node8 -->
<g id="edge7" class="edge"><title>Node7&#45;&gt;Node8</title>
<path fill="none" stroke="midnightblue" d="M1574.36,-108C1582.79,-108 1591.37,-108 1599.78,-108"/>
<polygon fill="midnightblue" stroke="midnightblue" points="1574.17,-104.5 1564.17,-108 1574.17,-111.5 1574.17,-104.5"/>
</g>
<!-- Node9 -->
<g id="node9" class="node"><title>Node9</title>
<g id="a_node9"><a xlink:href="class_ro_r_frame_listener.html#aca3931d7a75f2ad4b9d36c4fcd03a3c9" target="_top" xlink:title="RoRFrameListener::SetupGameplayLoop">
<polygon fill="white" stroke="black" points="1792,-98.5 1792,-117.5 1988,-117.5 1988,-98.5 1792,-98.5"/>
<text text-anchor="middle" x="1890" y="-105.5" font-family="Helvetica,sans-Serif" font-size="10.00">RoRFrameListener::SetupGameplayLoop</text>
</a>
</g>
</g>
<!-- Node8&#45;&gt;Node9 -->
<g id="edge8" class="edge"><title>Node8&#45;&gt;Node9</title>
<path fill="none" stroke="midnightblue" d="M1766.26,-108C1774.75,-108 1783.4,-108 1791.98,-108"/>
<polygon fill="midnightblue" stroke="midnightblue" points="1766,-104.5 1756,-108 1766,-111.5 1766,-104.5"/>
</g>
<!-- Node10 -->
<g id="node10" class="node"><title>Node10</title>
<g id="a_node10"><a xlink:href="main_8cpp.html#a0ddf1224851353fc92bfbff6f499fa97" target="_top" xlink:title="main">
<polygon fill="white" stroke="black" points="2024,-98.5 2024,-117.5 2062,-117.5 2062,-98.5 2024,-98.5"/>
<text text-anchor="middle" x="2043" y="-105.5" font-family="Helvetica,sans-Serif" font-size="10.00">main</text>
</a>
</g>
</g>
<!-- Node9&#45;&gt;Node10 -->
<g id="edge9" class="edge"><title>Node9&#45;&gt;Node10</title>
<path fill="none" stroke="midnightblue" d="M1998.52,-108C2008.03,-108 2016.71,-108 2023.77,-108"/>
<polygon fill="midnightblue" stroke="midnightblue" points="1998.34,-104.5 1988.34,-108 1998.34,-111.5 1998.34,-104.5"/>
</g>
<!-- Node11 -->
<g id="node11" class="node"><title>Node11</title>
<g id="a_node11"><a xlink:href="main_8cpp.html#a2922bc5d5c2d77a3020cfbf9df12aab0" target="_top" xlink:title="WinMain">
<polygon fill="white" stroke="black" points="2098.5,-98.5 2098.5,-117.5 2153.5,-117.5 2153.5,-98.5 2098.5,-98.5"/>
<text text-anchor="middle" x="2126" y="-105.5" font-family="Helvetica,sans-Serif" font-size="10.00">WinMain</text>
</a>
</g>
</g>
<!-- Node10&#45;&gt;Node11 -->
<g id="edge10" class="edge"><title>Node10&#45;&gt;Node11</title>
<path fill="none" stroke="midnightblue" d="M2072.51,-108C2080.93,-108 2090.11,-108 2098.4,-108"/>
<polygon fill="midnightblue" stroke="midnightblue" points="2072.38,-104.5 2062.38,-108 2072.38,-111.5 2072.38,-104.5"/>
</g>
<!-- Node13 -->
<g id="node13" class="node"><title>Node13</title>
<g id="a_node13"><a xlink:href="class_road2.html#ade752b3c6e9e9251bbea2833eb6e4731" target="_top" xlink:title="Road2::addCollisionQuad">
<polygon fill="white" stroke="black" points="324,-61.5 324,-80.5 452,-80.5 452,-61.5 324,-61.5"/>
<text text-anchor="middle" x="388" y="-68.5" font-family="Helvetica,sans-Serif" font-size="10.00">Road2::addCollisionQuad</text>
</a>
</g>
</g>
<!-- Node12&#45;&gt;Node13 -->
<g id="edge12" class="edge"><title>Node12&#45;&gt;Node13</title>
<path fill="none" stroke="midnightblue" d="M263.201,-100.171C289.67,-93.9342 321.709,-86.3847 346.561,-80.5286"/>
<polygon fill="midnightblue" stroke="midnightblue" points="262.287,-96.7904 253.356,-102.491 263.893,-103.604 262.287,-96.7904"/>
</g>
<!-- Node20 -->
<g id="node20" class="node"><title>Node20</title>
<g id="a_node20"><a xlink:href="class_collisions.html#a285399f2b679c1d0b649b71aa805d5f3" target="_top" xlink:title="Collisions::addCollisionMesh">
<polygon fill="white" stroke="black" points="316.5,-102.5 316.5,-121.5 459.5,-121.5 459.5,-102.5 316.5,-102.5"/>
<text text-anchor="middle" x="388" y="-109.5" font-family="Helvetica,sans-Serif" font-size="10.00">Collisions::addCollisionMesh</text>
</a>
</g>
</g>
<!-- Node12&#45;&gt;Node20 -->
<g id="edge21" class="edge"><title>Node12&#45;&gt;Node20</title>
<path fill="none" stroke="midnightblue" d="M287.527,-112C297.049,-112 306.774,-112 316.234,-112"/>
<polygon fill="midnightblue" stroke="midnightblue" points="287.297,-108.5 277.297,-112 287.297,-115.5 287.297,-108.5"/>
</g>
<!-- Node14 -->
<g id="node14" class="node"><title>Node14</title>
<g id="a_node14"><a xlink:href="class_road2.html#a27a9cf5803361dbd84862a241ac2b9bb" target="_top" xlink:title="Road2::addQuad">
<polygon fill="white" stroke="black" points="508,-60.5 508,-79.5 598,-79.5 598,-60.5 508,-60.5"/>
<text text-anchor="middle" x="553" y="-67.5" font-family="Helvetica,sans-Serif" font-size="10.00">Road2::addQuad</text>
</a>
</g>
</g>
<!-- Node13&#45;&gt;Node14 -->
<g id="edge13" class="edge"><title>Node13&#45;&gt;Node14</title>
<path fill="none" stroke="midnightblue" d="M462.172,-70.5511C477.748,-70.4555 493.734,-70.3575 507.823,-70.271"/>
<polygon fill="midnightblue" stroke="midnightblue" points="461.998,-67.052 452.02,-70.6134 462.041,-74.0519 461.998,-67.052"/>
</g>
<!-- Node15 -->
<g id="node15" class="node"><title>Node15</title>
<g id="a_node15"><a xlink:href="class_road2.html#a9a8d8af3d830d58c09b2cea742e42832" target="_top" xlink:title="Road2::finish">
<polygon fill="white" stroke="black" points="675,-60.5 675,-79.5 749,-79.5 749,-60.5 675,-60.5"/>
<text text-anchor="middle" x="712" y="-67.5" font-family="Helvetica,sans-Serif" font-size="10.00">Road2::finish</text>
</a>
</g>
</g>
<!-- Node14&#45;&gt;Node15 -->
<g id="edge14" class="edge"><title>Node14&#45;&gt;Node15</title>
<path fill="none" stroke="midnightblue" d="M608.357,-70C630.347,-70 655.137,-70 674.845,-70"/>
<polygon fill="midnightblue" stroke="midnightblue" points="608.151,-66.5001 598.151,-70 608.151,-73.5001 608.151,-66.5001"/>
</g>
<!-- Node19 -->
<g id="node19" class="node"><title>Node19</title>
<g id="a_node19"><a xlink:href="class_road2.html#af1ed3f3e7283f49faad7101f0908ad19" target="_top" xlink:title="Road2::addBlock">
<polygon fill="white" stroke="black" points="666,-22.5 666,-41.5 758,-41.5 758,-22.5 666,-22.5"/>
<text text-anchor="middle" x="712" y="-29.5" font-family="Helvetica,sans-Serif" font-size="10.00">Road2::addBlock</text>
</a>
</g>
</g>
<!-- Node14&#45;&gt;Node19 -->
<g id="edge19" class="edge"><title>Node14&#45;&gt;Node19</title>
<path fill="none" stroke="midnightblue" d="M603.447,-58.032C625.448,-52.7069 650.994,-46.5238 671.667,-41.5201"/>
<polygon fill="midnightblue" stroke="midnightblue" points="602.514,-54.6567 593.618,-60.411 604.16,-61.4602 602.514,-54.6567"/>
</g>
<!-- Node16 -->
<g id="node16" class="node"><title>Node16</title>
<g id="a_node16"><a xlink:href="class_procedural_manager.html#a63f800c4fe54872d67b0a3e3b1361927" target="_top" xlink:title="ProceduralManager::\lupdateObject">
<polygon fill="white" stroke="black" points="814.5,-33 814.5,-63 921.5,-63 921.5,-33 814.5,-33"/>
<text text-anchor="start" x="822.5" y="-51" font-family="Helvetica,sans-Serif" font-size="10.00">ProceduralManager::</text>
<text text-anchor="middle" x="868" y="-40" font-family="Helvetica,sans-Serif" font-size="10.00">updateObject</text>
</a>
</g>
</g>
<!-- Node15&#45;&gt;Node16 -->
<g id="edge15" class="edge"><title>Node15&#45;&gt;Node16</title>
<path fill="none" stroke="midnightblue" d="M759.051,-63.4212C776.5,-60.9286 796.492,-58.0726 814.491,-55.5013"/>
<polygon fill="midnightblue" stroke="midnightblue" points="758.511,-59.9629 749.106,-64.842 759.501,-66.8925 758.511,-59.9629"/>
</g>
<!-- Node17 -->
<g id="node17" class="node"><title>Node17</title>
<g id="a_node17"><a xlink:href="class_procedural_manager.html#afa1f48ec20e08e76dc41f68a0a8dd5b5" target="_top" xlink:title="ProceduralManager::\lupdateAllObjects">
<polygon fill="white" stroke="black" points="958.5,-0 958.5,-30 1065.5,-30 1065.5,-0 958.5,-0"/>
<text text-anchor="start" x="966.5" y="-18" font-family="Helvetica,sans-Serif" font-size="10.00">ProceduralManager::</text>
<text text-anchor="middle" x="1012" y="-7" font-family="Helvetica,sans-Serif" font-size="10.00">updateAllObjects</text>
</a>
</g>
</g>
<!-- Node16&#45;&gt;Node17 -->
<g id="edge16" class="edge"><title>Node16&#45;&gt;Node17</title>
<path fill="none" stroke="midnightblue" d="M931.71,-33.4265C940.512,-31.3811 949.485,-29.2957 958.08,-27.2982"/>
<polygon fill="midnightblue" stroke="midnightblue" points="930.824,-30.0392 921.876,-35.712 932.408,-36.8575 930.824,-30.0392"/>
</g>
<!-- Node18 -->
<g id="node18" class="node"><title>Node18</title>
<g id="a_node18"><a xlink:href="class_procedural_manager.html#a2512968cf40ccdd75b82aa830bcafe17" target="_top" xlink:title="ProceduralManager::\laddObject">
<polygon fill="white" stroke="black" points="958.5,-49 958.5,-79 1065.5,-79 1065.5,-49 958.5,-49"/>
<text text-anchor="start" x="966.5" y="-67" font-family="Helvetica,sans-Serif" font-size="10.00">ProceduralManager::</text>
<text text-anchor="middle" x="1012" y="-56" font-family="Helvetica,sans-Serif" font-size="10.00">addObject</text>
</a>
</g>
</g>
<!-- Node16&#45;&gt;Node18 -->
<g id="edge17" class="edge"><title>Node16&#45;&gt;Node18</title>
<path fill="none" stroke="midnightblue" d="M931.994,-55.0979C940.704,-56.0794 949.578,-57.0792 958.08,-58.0372"/>
<polygon fill="midnightblue" stroke="midnightblue" points="932.205,-51.5996 921.876,-53.9578 931.421,-58.5556 932.205,-51.5996"/>
</g>
<!-- Node18&#45;&gt;Node5 -->
<g id="edge18" class="edge"><title>Node18&#45;&gt;Node5</title>
<path fill="none" stroke="midnightblue" d="M1072.36,-82.0129C1084.28,-85.6292 1096.69,-89.3941 1108.24,-92.8991"/>
<polygon fill="midnightblue" stroke="midnightblue" points="1073.08,-78.5738 1062.5,-79.0192 1071.05,-85.2722 1073.08,-78.5738"/>
</g>
<!-- Node19&#45;&gt;Node16 -->
<g id="edge20" class="edge"><title>Node19&#45;&gt;Node16</title>
<path fill="none" stroke="midnightblue" d="M768.503,-37.7666C783.453,-39.3198 799.577,-40.9951 814.365,-42.5315"/>
<polygon fill="midnightblue" stroke="midnightblue" points="768.68,-34.2662 758.372,-36.714 767.957,-41.2287 768.68,-34.2662"/>
</g>
<!-- Node20&#45;&gt;Node3 -->
<g id="edge23" class="edge"><title>Node20&#45;&gt;Node3</title>
<path fill="none" stroke="midnightblue" d="M437.955,-124.013C456.34,-128.525 477.37,-133.686 496.322,-138.337"/>
<polygon fill="midnightblue" stroke="midnightblue" points="438.589,-120.565 428.043,-121.581 436.92,-127.363 438.589,-120.565"/>
</g>
<!-- Node20&#45;&gt;Node5 -->
<g id="edge22" class="edge"><title>Node20&#45;&gt;Node5</title>
<path fill="none" stroke="midnightblue" d="M469.863,-110.44C534.982,-109.317 628.877,-108 711,-108 711,-108 711,-108 869,-108 950.156,-108 1044.13,-108 1102.33,-108"/>
<polygon fill="midnightblue" stroke="midnightblue" points="469.602,-106.943 459.665,-110.618 469.724,-113.942 469.602,-106.943"/>
</g>
</g>
</svg>
