<?xml version="1.0" encoding="UTF-8" standalone="no"?>
<!DOCTYPE svg PUBLIC "-//W3C//DTD SVG 1.1//EN"
 "http://www.w3.org/Graphics/SVG/1.1/DTD/svg11.dtd">
<!-- Generated by graphviz version 2.36.0 (20140111.2315)
 -->
<!-- Title: RoR::Console::frameEntered Pages: 1 -->
<svg width="512pt" height="38pt"
 viewBox="0.00 0.00 512.00 38.00" xmlns="http://www.w3.org/2000/svg" xmlns:xlink="http://www.w3.org/1999/xlink">
<g id="graph0" class="graph" transform="scale(1 1) rotate(0) translate(4 34)">
<title>RoR::Console::frameEntered</title>
<polygon fill="white" stroke="none" points="-4,4 -4,-34 508,-34 508,4 -4,4"/>
<!-- Node1 -->
<g id="node1" class="node"><title>Node1</title>
<polygon fill="#bfbfbf" stroke="black" points="0.5,-5.5 0.5,-24.5 143.5,-24.5 143.5,-5.5 0.5,-5.5"/>
<text text-anchor="middle" x="72" y="-12.5" font-family="Helvetica,sans-Serif" font-size="10.00">RoR::Console::frameEntered</text>
</g>
<!-- Node2 -->
<g id="node2" class="node"><title>Node2</title>
<g id="a_node2"><a xlink:href="class_ro_r_1_1_console.html#a39bc16dcdb4bd1ea40e9051441e0c082" target="_top" xlink:title="RoR::Console::messageUpdate">
<polygon fill="white" stroke="black" points="180,-5.5 180,-24.5 336,-24.5 336,-5.5 180,-5.5"/>
<text text-anchor="middle" x="258" y="-12.5" font-family="Helvetica,sans-Serif" font-size="10.00">RoR::Console::messageUpdate</text>
</a>
</g>
</g>
<!-- Node1&#45;&gt;Node2 -->
<g id="edge1" class="edge"><title>Node1&#45;&gt;Node2</title>
<path fill="none" stroke="midnightblue" d="M143.613,-15C152.136,-15 160.917,-15 169.643,-15"/>
<polygon fill="midnightblue" stroke="midnightblue" points="169.842,-18.5001 179.842,-15 169.842,-11.5001 169.842,-18.5001"/>
</g>
<!-- Node3 -->
<g id="node3" class="node"><title>Node3</title>
<g id="a_node3"><a xlink:href="class_inter_thread_store_vector.html#a69b4cf0a78a4b0bb43cfb2d172b50af2" target="_top" xlink:title="InterThreadStoreVector\l\&lt; ConsoleMessage \&gt;::pull">
<polygon fill="white" stroke="black" points="372.5,-0 372.5,-30 503.5,-30 503.5,-0 372.5,-0"/>
<text text-anchor="start" x="380.5" y="-18" font-family="Helvetica,sans-Serif" font-size="10.00">InterThreadStoreVector</text>
<text text-anchor="middle" x="438" y="-7" font-family="Helvetica,sans-Serif" font-size="10.00">&lt; ConsoleMessage &gt;::pull</text>
</a>
</g>
</g>
<!-- Node2&#45;&gt;Node3 -->
<g id="edge2" class="edge"><title>Node2&#45;&gt;Node3</title>
<path fill="none" stroke="midnightblue" d="M336.038,-15C344.75,-15 353.617,-15 362.298,-15"/>
<polygon fill="midnightblue" stroke="midnightblue" points="362.383,-18.5001 372.383,-15 362.383,-11.5001 362.383,-18.5001"/>
</g>
</g>
</svg>
