<?xml version="1.0" encoding="UTF-8" standalone="no"?>
<!DOCTYPE svg PUBLIC "-//W3C//DTD SVG 1.1//EN"
 "http://www.w3.org/Graphics/SVG/1.1/DTD/svg11.dtd">
<!-- Generated by graphviz version 2.36.0 (20140111.2315)
 -->
<!-- Title: CacheSystem::parseFilesOneRG Pages: 1 -->
<!--zoomable 106 -->
<svg id="main" version="1.1" xmlns="http://www.w3.org/2000/svg" xmlns:xlink="http://www.w3.org/1999/xlink" xml:space="preserve" onload="init(evt)">
<style type="text/css"><![CDATA[
.edge:hover path { stroke: red; }
.edge:hover polygon { stroke: red; fill: red; }
]]></style>
<script type="text/javascript"><![CDATA[
var edges = document.getElementsByTagName('g');
if (edges && edges.length) {
  for (var i=0;i<edges.length;i++) {
    if (edges[i].id.substr(0,4)=='edge') {
      edges[i].setAttribute('class','edge');
    }
  }
}
]]></script>
        <defs>
                <circle id="rim" cx="0" cy="0" r="7"/>
                <circle id="rim2" cx="0" cy="0" r="3.5"/>
                <g id="zoomPlus">
                        <use xlink:href="#rim" fill="#404040">
                                <set attributeName="fill" to="#808080" begin="zoomplus.mouseover" end="zoomplus.mouseout"/>
                        </use>
                        <path d="M-4,0h8M0,-4v8" fill="none" stroke="white" stroke-width="1.5" pointer-events="none"/>
                </g>
                <g id="zoomMin">
                        <use xlink:href="#rim" fill="#404040">
                                <set attributeName="fill" to="#808080" begin="zoomminus.mouseover" end="zoomminus.mouseout"/>
                        </use>
                        <path d="M-4,0h8" fill="none" stroke="white" stroke-width="1.5" pointer-events="none"/>
                </g>
                <g id="dirArrow">
                        <path fill="none" stroke="white" stroke-width="1.5" d="M0,-3.0v7 M-2.5,-0.5L0,-3.0L2.5,-0.5"/>
                </g>
               <g id="resetDef">
                       <use xlink:href="#rim2" fill="#404040">
                               <set attributeName="fill" to="#808080" begin="reset.mouseover" end="reset.mouseout"/>
                       </use>
               </g>
        </defs>

<script type="text/javascript">
var viewWidth = 1784;
var viewHeight = 106;
var sectionId = 'dynsection-67';
</script>
<script xlink:href="svgpan.js"/>
<svg id="graph" class="graph">
<g id="viewport">
<title>CacheSystem::parseFilesOneRG</title>
<polygon fill="white" stroke="none" points="-4,4 -4,-102 1780,-102 1780,4 -4,4"/>
<!-- Node1 -->
<g id="node1" class="node"><title>Node1</title>
<polygon fill="#bfbfbf" stroke="black" points="0.5,-51.5 0.5,-70.5 163.5,-70.5 163.5,-51.5 0.5,-51.5"/>
<text text-anchor="middle" x="82" y="-58.5" font-family="Helvetica,sans-Serif" font-size="10.00">CacheSystem::parseFilesOneRG</text>
</g>
<!-- Node2 -->
<g id="node2" class="node"><title>Node2</title>
<g id="a_node2"><a xlink:href="class_cache_system.html#a036efb41e9f0e0eebba120bf0d45ea8d" target="_top" xlink:title="CacheSystem::parseFilesAllRG">
<polygon fill="white" stroke="black" points="202,-73.5 202,-92.5 358,-92.5 358,-73.5 202,-73.5"/>
<text text-anchor="middle" x="280" y="-80.5" font-family="Helvetica,sans-Serif" font-size="10.00">CacheSystem::parseFilesAllRG</text>
</a>
</g>
</g>
<!-- Node1&#45;&gt;Node2 -->
<g id="edge1" class="edge"><title>Node1&#45;&gt;Node2</title>
<path fill="none" stroke="midnightblue" d="M173.734,-71.1845C183.15,-72.2413 192.655,-73.3082 201.9,-74.346"/>
<polygon fill="midnightblue" stroke="midnightblue" points="173.897,-67.6809 163.569,-70.0435 173.116,-74.6372 173.897,-67.6809"/>
</g>
<!-- Node4 -->
<g id="node4" class="node"><title>Node4</title>
<g id="a_node4"><a xlink:href="class_cache_system.html#abb9382582ecfda71e456008e48eef3af" target="_top" xlink:title="CacheSystem::parseKnownFiles\lOneRG">
<polygon fill="white" stroke="black" points="200,-24 200,-54 360,-54 360,-24 200,-24"/>
<text text-anchor="start" x="208" y="-42" font-family="Helvetica,sans-Serif" font-size="10.00">CacheSystem::parseKnownFiles</text>
<text text-anchor="middle" x="280" y="-31" font-family="Helvetica,sans-Serif" font-size="10.00">OneRG</text>
</a>
</g>
</g>
<!-- Node1&#45;&gt;Node4 -->
<g id="edge3" class="edge"><title>Node1&#45;&gt;Node4</title>
<path fill="none" stroke="midnightblue" d="M173.704,-50.8189C182.382,-49.8449 191.136,-48.8623 199.693,-47.9019"/>
<polygon fill="midnightblue" stroke="midnightblue" points="173.116,-47.3628 163.569,-51.9565 173.897,-54.3191 173.116,-47.3628"/>
</g>
<!-- Node3 -->
<g id="node3" class="node"><title>Node3</title>
<g id="a_node3"><a xlink:href="class_cache_system.html#a05e0de87195bf1fd27783dc7b15a0b0b" target="_top" xlink:title="CacheSystem::parseKnownFiles\lAllRG">
<polygon fill="white" stroke="black" points="401,-68 401,-98 561,-98 561,-68 401,-68"/>
<text text-anchor="start" x="409" y="-86" font-family="Helvetica,sans-Serif" font-size="10.00">CacheSystem::parseKnownFiles</text>
<text text-anchor="middle" x="481" y="-75" font-family="Helvetica,sans-Serif" font-size="10.00">AllRG</text>
</a>
</g>
</g>
<!-- Node2&#45;&gt;Node3 -->
<g id="edge2" class="edge"><title>Node2&#45;&gt;Node3</title>
<path fill="none" stroke="midnightblue" d="M368.476,-83C379.248,-83 390.211,-83 400.85,-83"/>
<polygon fill="midnightblue" stroke="midnightblue" points="368.223,-79.5001 358.223,-83 368.223,-86.5001 368.223,-79.5001"/>
</g>
<!-- Node5 -->
<g id="node5" class="node"><title>Node5</title>
<g id="a_node5"><a xlink:href="class_cache_system.html#a6930774611a2fb3df326a427c2af3ccb" target="_top" xlink:title="CacheSystem::loadSingleDirectory">
<polygon fill="white" stroke="black" points="396,-29.5 396,-48.5 566,-48.5 566,-29.5 396,-29.5"/>
<text text-anchor="middle" x="481" y="-36.5" font-family="Helvetica,sans-Serif" font-size="10.00">CacheSystem::loadSingleDirectory</text>
</a>
</g>
</g>
<!-- Node4&#45;&gt;Node5 -->
<g id="edge4" class="edge"><title>Node4&#45;&gt;Node5</title>
<path fill="none" stroke="midnightblue" d="M370.455,-39C378.897,-39 387.436,-39 395.827,-39"/>
<polygon fill="midnightblue" stroke="midnightblue" points="370.222,-35.5001 360.222,-39 370.222,-42.5001 370.222,-35.5001"/>
</g>
<!-- Node6 -->
<g id="node6" class="node"><title>Node6</title>
<g id="a_node6"><a xlink:href="class_cache_system.html#afa2911e77ee5652f6b1739a8b1f334c4" target="_top" xlink:title="CacheSystem::loadAllDirectories\lInResourceGroup">
<polygon fill="white" stroke="black" points="602.5,-49 602.5,-79 763.5,-79 763.5,-49 602.5,-49"/>
<text text-anchor="start" x="610.5" y="-67" font-family="Helvetica,sans-Serif" font-size="10.00">CacheSystem::loadAllDirectories</text>
<text text-anchor="middle" x="683" y="-56" font-family="Helvetica,sans-Serif" font-size="10.00">InResourceGroup</text>
</a>
</g>
</g>
<!-- Node5&#45;&gt;Node6 -->
<g id="edge5" class="edge"><title>Node5&#45;&gt;Node6</title>
<path fill="none" stroke="midnightblue" d="M568.449,-49.8062C579.719,-51.2149 591.223,-52.6529 602.374,-54.0468"/>
<polygon fill="midnightblue" stroke="midnightblue" points="568.539,-46.2902 558.182,-48.5227 567.671,-53.2362 568.539,-46.2902"/>
</g>
<!-- Node13 -->
<g id="node13" class="node"><title>Node13</title>
<g id="a_node13"><a xlink:href="class_cache_system.html#ab2251b8c119efb98588c8c85f882aa3f" target="_top" xlink:title="CacheSystem::checkForNew\lDirectoriesInResourceGroup">
<polygon fill="white" stroke="black" points="610,-0 610,-30 756,-30 756,-0 610,-0"/>
<text text-anchor="start" x="618" y="-18" font-family="Helvetica,sans-Serif" font-size="10.00">CacheSystem::checkForNew</text>
<text text-anchor="middle" x="683" y="-7" font-family="Helvetica,sans-Serif" font-size="10.00">DirectoriesInResourceGroup</text>
</a>
</g>
</g>
<!-- Node5&#45;&gt;Node13 -->
<g id="edge13" class="edge"><title>Node5&#45;&gt;Node13</title>
<path fill="none" stroke="midnightblue" d="M571.56,-28.2528C584.396,-26.7125 597.463,-25.1444 609.904,-23.6515"/>
<polygon fill="midnightblue" stroke="midnightblue" points="570.844,-24.8135 561.333,-29.4801 571.678,-31.7636 570.844,-24.8135"/>
</g>
<!-- Node7 -->
<g id="node7" class="node"><title>Node7</title>
<g id="a_node7"><a xlink:href="class_cache_system.html#a2f2307345ec188913271a4cc5220c1bb" target="_top" xlink:title="CacheSystem::loadAllZips">
<polygon fill="white" stroke="black" points="983.5,-52.5 983.5,-71.5 1116.5,-71.5 1116.5,-52.5 983.5,-52.5"/>
<text text-anchor="middle" x="1050" y="-59.5" font-family="Helvetica,sans-Serif" font-size="10.00">CacheSystem::loadAllZips</text>
</a>
</g>
</g>
<!-- Node6&#45;&gt;Node7 -->
<g id="edge6" class="edge"><title>Node6&#45;&gt;Node7</title>
<path fill="none" stroke="midnightblue" d="M773.865,-63.5076C838.696,-63.1524 924.751,-62.6808 983.238,-62.3603"/>
<polygon fill="midnightblue" stroke="midnightblue" points="773.63,-60.0087 763.65,-63.5636 773.669,-67.0086 773.63,-60.0087"/>
</g>
<!-- Node8 -->
<g id="node8" class="node"><title>Node8</title>
<g id="a_node8"><a xlink:href="class_cache_system.html#a37e784da57c57f56a428f61a53b4d618" target="_top" xlink:title="CacheSystem::generateCache">
<polygon fill="white" stroke="black" points="1154.5,-29.5 1154.5,-48.5 1305.5,-48.5 1305.5,-29.5 1154.5,-29.5"/>
<text text-anchor="middle" x="1230" y="-36.5" font-family="Helvetica,sans-Serif" font-size="10.00">CacheSystem::generateCache</text>
</a>
</g>
</g>
<!-- Node7&#45;&gt;Node8 -->
<g id="edge7" class="edge"><title>Node7&#45;&gt;Node8</title>
<path fill="none" stroke="midnightblue" d="M1126.68,-52.2216C1136.13,-51.0004 1145.78,-49.7527 1155.21,-48.5352"/>
<polygon fill="midnightblue" stroke="midnightblue" points="1125.99,-48.7809 1116.52,-53.5336 1126.89,-55.7232 1125.99,-48.7809"/>
</g>
<!-- Node9 -->
<g id="node9" class="node"><title>Node9</title>
<g id="a_node9"><a xlink:href="class_cache_system.html#ae010322c2422bf8f8dbfce904257da31" target="_top" xlink:title="CacheSystem::Startup">
<polygon fill="white" stroke="black" points="1342,-29.5 1342,-48.5 1458,-48.5 1458,-29.5 1342,-29.5"/>
<text text-anchor="middle" x="1400" y="-36.5" font-family="Helvetica,sans-Serif" font-size="10.00">CacheSystem::Startup</text>
</a>
</g>
</g>
<!-- Node8&#45;&gt;Node9 -->
<g id="edge8" class="edge"><title>Node8&#45;&gt;Node9</title>
<path fill="none" stroke="midnightblue" d="M1315.7,-39C1324.6,-39 1333.48,-39 1341.96,-39"/>
<polygon fill="midnightblue" stroke="midnightblue" points="1315.67,-35.5001 1305.67,-39 1315.67,-42.5001 1315.67,-35.5001"/>
</g>
<!-- Node10 -->
<g id="node10" class="node"><title>Node10</title>
<g id="a_node10"><a xlink:href="main_8cpp.html#a0ddf1224851353fc92bfbff6f499fa97" target="_top" xlink:title="main">
<polygon fill="white" stroke="black" points="1646,-29.5 1646,-48.5 1684,-48.5 1684,-29.5 1646,-29.5"/>
<text text-anchor="middle" x="1665" y="-36.5" font-family="Helvetica,sans-Serif" font-size="10.00">main</text>
</a>
</g>
</g>
<!-- Node9&#45;&gt;Node10 -->
<g id="edge9" class="edge"><title>Node9&#45;&gt;Node10</title>
<path fill="none" stroke="midnightblue" d="M1468.35,-40.6036C1509.31,-41.3401 1562.67,-41.8761 1610,-41 1621.82,-40.7812 1635.08,-40.2933 1645.51,-39.8542"/>
<polygon fill="midnightblue" stroke="midnightblue" points="1468.28,-37.1017 1458.22,-40.4127 1468.15,-44.1005 1468.28,-37.1017"/>
</g>
<!-- Node12 -->
<g id="node12" class="node"><title>Node12</title>
<g id="a_node12"><a xlink:href="class_ro_r_1_1_content_manager.html#a861b35694f428e463a800052ac0e9f90" target="_top" xlink:title="RoR::ContentManager\l::RegenCache">
<polygon fill="white" stroke="black" points="1494.5,-2 1494.5,-32 1609.5,-32 1609.5,-2 1494.5,-2"/>
<text text-anchor="start" x="1502.5" y="-20" font-family="Helvetica,sans-Serif" font-size="10.00">RoR::ContentManager</text>
<text text-anchor="middle" x="1552" y="-9" font-family="Helvetica,sans-Serif" font-size="10.00">::RegenCache</text>
</a>
</g>
</g>
<!-- Node9&#45;&gt;Node12 -->
<g id="edge11" class="edge"><title>Node9&#45;&gt;Node12</title>
<path fill="none" stroke="midnightblue" d="M1468.18,-29.1475C1476.81,-27.8817 1485.58,-26.5955 1494.02,-25.3567"/>
<polygon fill="midnightblue" stroke="midnightblue" points="1467.52,-25.7058 1458.14,-30.62 1468.54,-32.6317 1467.52,-25.7058"/>
</g>
<!-- Node11 -->
<g id="node11" class="node"><title>Node11</title>
<g id="a_node11"><a xlink:href="main_8cpp.html#a2922bc5d5c2d77a3020cfbf9df12aab0" target="_top" xlink:title="WinMain">
<polygon fill="white" stroke="black" points="1720.5,-29.5 1720.5,-48.5 1775.5,-48.5 1775.5,-29.5 1720.5,-29.5"/>
<text text-anchor="middle" x="1748" y="-36.5" font-family="Helvetica,sans-Serif" font-size="10.00">WinMain</text>
</a>
</g>
</g>
<!-- Node10&#45;&gt;Node11 -->
<g id="edge10" class="edge"><title>Node10&#45;&gt;Node11</title>
<path fill="none" stroke="midnightblue" d="M1694.51,-39C1702.93,-39 1712.11,-39 1720.4,-39"/>
<polygon fill="midnightblue" stroke="midnightblue" points="1694.38,-35.5001 1684.38,-39 1694.38,-42.5001 1694.38,-35.5001"/>
</g>
<!-- Node12&#45;&gt;Node10 -->
<g id="edge12" class="edge"><title>Node12&#45;&gt;Node10</title>
<path fill="none" stroke="midnightblue" d="M1619.8,-30.2394C1629.28,-32.1186 1638.3,-33.9068 1645.69,-35.3718"/>
<polygon fill="midnightblue" stroke="midnightblue" points="1620.29,-26.7688 1609.8,-28.2578 1618.93,-33.6353 1620.29,-26.7688"/>
</g>
<!-- Node14 -->
<g id="node14" class="node"><title>Node14</title>
<g id="a_node14"><a xlink:href="class_cache_system.html#ac30fff8eecfc197fc4ccca8c6cf06109" target="_top" xlink:title="CacheSystem::checkForNew\lContent">
<polygon fill="white" stroke="black" points="800,-2 800,-32 946,-32 946,-2 800,-2"/>
<text text-anchor="start" x="808" y="-20" font-family="Helvetica,sans-Serif" font-size="10.00">CacheSystem::checkForNew</text>
<text text-anchor="middle" x="873" y="-9" font-family="Helvetica,sans-Serif" font-size="10.00">Content</text>
</a>
</g>
</g>
<!-- Node13&#45;&gt;Node14 -->
<g id="edge14" class="edge"><title>Node13&#45;&gt;Node14</title>
<path fill="none" stroke="midnightblue" d="M766.295,-15.8755C777.431,-15.994 788.791,-16.1148 799.734,-16.2312"/>
<polygon fill="midnightblue" stroke="midnightblue" points="766.185,-12.3742 756.148,-15.7675 766.11,-19.3738 766.185,-12.3742"/>
</g>
<!-- Node15 -->
<g id="node15" class="node"><title>Node15</title>
<g id="a_node15"><a xlink:href="class_cache_system.html#a4439130b97404a54bca3ca9768586c48" target="_top" xlink:title="CacheSystem::incremental\lCacheUpdate">
<polygon fill="white" stroke="black" points="982.5,-2 982.5,-32 1117.5,-32 1117.5,-2 982.5,-2"/>
<text text-anchor="start" x="990.5" y="-20" font-family="Helvetica,sans-Serif" font-size="10.00">CacheSystem::incremental</text>
<text text-anchor="middle" x="1050" y="-9" font-family="Helvetica,sans-Serif" font-size="10.00">CacheUpdate</text>
</a>
</g>
</g>
<!-- Node14&#45;&gt;Node15 -->
<g id="edge15" class="edge"><title>Node14&#45;&gt;Node15</title>
<path fill="none" stroke="midnightblue" d="M956.351,-17C965.052,-17 973.82,-17 982.312,-17"/>
<polygon fill="midnightblue" stroke="midnightblue" points="956.19,-13.5001 946.19,-17 956.19,-20.5001 956.19,-13.5001"/>
</g>
<!-- Node15&#45;&gt;Node8 -->
<g id="edge16" class="edge"><title>Node15&#45;&gt;Node8</title>
<path fill="none" stroke="midnightblue" d="M1127.53,-26.4585C1136.46,-27.5628 1145.57,-28.6881 1154.47,-29.7889"/>
<polygon fill="midnightblue" stroke="midnightblue" points="1127.89,-22.9764 1117.53,-25.2233 1127.03,-29.9236 1127.89,-22.9764"/>
</g>
</g>
</svg>
        <g id="navigator" transform="translate(0 0)" fill="#404254">
                <rect fill="#f2f5e9" fill-opacity="0.5" stroke="#606060" stroke-width=".5" x="0" y="0" width="60" height="60"/>
                <use id="zoomplus" xlink:href="#zoomPlus" x="17" y="9" onmousedown="handleZoom(evt,'in')"/>
                <use id="zoomminus" xlink:href="#zoomMin" x="42" y="9" onmousedown="handleZoom(evt,'out')"/>
                <use id="reset" xlink:href="#resetDef" x="30" y="36" onmousedown="handleReset()"/>
                <g id="arrowUp" xlink:href="#dirArrow" transform="translate(30 24)" onmousedown="handlePan(0,-1)">
                  <use xlink:href="#rim" fill="#404040">
                        <set attributeName="fill" to="#808080" begin="arrowUp.mouseover" end="arrowUp.mouseout"/>
                  </use>
                  <path fill="none" stroke="white" stroke-width="1.5" d="M0,-3.0v7 M-2.5,-0.5L0,-3.0L2.5,-0.5"/>
                </g>
                <g id="arrowRight" xlink:href="#dirArrow" transform="rotate(90) translate(36 -43)" onmousedown="handlePan(1,0)">
                  <use xlink:href="#rim" fill="#404040">
                        <set attributeName="fill" to="#808080" begin="arrowRight.mouseover" end="arrowRight.mouseout"/>
                  </use>
                  <path fill="none" stroke="white" stroke-width="1.5" d="M0,-3.0v7 M-2.5,-0.5L0,-3.0L2.5,-0.5"/>
                </g>
                <g id="arrowDown" xlink:href="#dirArrow" transform="rotate(180) translate(-30 -48)" onmousedown="handlePan(0,1)">
                  <use xlink:href="#rim" fill="#404040">
                        <set attributeName="fill" to="#808080" begin="arrowDown.mouseover" end="arrowDown.mouseout"/>
                  </use>
                  <path fill="none" stroke="white" stroke-width="1.5" d="M0,-3.0v7 M-2.5,-0.5L0,-3.0L2.5,-0.5"/>
                </g>
                <g id="arrowLeft" xlink:href="#dirArrow" transform="rotate(270) translate(-36 17)" onmousedown="handlePan(-1,0)">
                  <use xlink:href="#rim" fill="#404040">
                        <set attributeName="fill" to="#808080" begin="arrowLeft.mouseover" end="arrowLeft.mouseout"/>
                  </use>
                  <path fill="none" stroke="white" stroke-width="1.5" d="M0,-3.0v7 M-2.5,-0.5L0,-3.0L2.5,-0.5"/>
                </g>
        </g>
        <svg viewBox="0 0 15 15" width="100%" height="30px" preserveAspectRatio="xMaxYMin meet">
         <g id="arrow_out" transform="scale(0.3 0.3)">
          <a xlink:href="class_cache_system_a6a83b6a74cf941ba418037daf7bc3759_icgraph_org.svg" target="_base">
           <rect id="button" ry="5" rx="5" y="6" x="6" height="38" width="38"
                fill="#f2f5e9" fill-opacity="0.5" stroke="#606060" stroke-width="1.0"/>
           <path id="arrow"
             d="M 11.500037,31.436501 C 11.940474,20.09759 22.043105,11.32322 32.158766,21.979434 L 37.068811,17.246167 C 37.068811,17.246167 37.088388,32 37.088388,32 L 22.160133,31.978069 C 22.160133,31.978069 26.997745,27.140456 26.997745,27.140456 C 18.528582,18.264221 13.291696,25.230495 11.500037,31.436501 z"
             style="fill:#404040;"/>
          </a>
         </g>
        </svg>
</svg>
