<?xml version="1.0" encoding="UTF-8" standalone="no"?>
<!DOCTYPE svg PUBLIC "-//W3C//DTD SVG 1.1//EN"
 "http://www.w3.org/Graphics/SVG/1.1/DTD/svg11.dtd">
<!-- Generated by graphviz version 2.36.0 (20140111.2315)
 -->
<!-- Title: Hydrax::Noise::Perlin::_calculeNoise Pages: 1 -->
<svg width="434pt" height="87pt"
 viewBox="0.00 0.00 434.00 87.00" xmlns="http://www.w3.org/2000/svg" xmlns:xlink="http://www.w3.org/1999/xlink">
<g id="graph0" class="graph" transform="scale(1 1) rotate(0) translate(4 83)">
<title>Hydrax::Noise::Perlin::_calculeNoise</title>
<polygon fill="white" stroke="none" points="-4,4 -4,-83 430,-83 430,4 -4,4"/>
<!-- Node1 -->
<g id="node1" class="node"><title>Node1</title>
<polygon fill="#bfbfbf" stroke="black" points="0,-24 0,-54 110,-54 110,-24 0,-24"/>
<text text-anchor="start" x="8" y="-42" font-family="Helvetica,sans-Serif" font-size="10.00">Hydrax::Noise::Perlin</text>
<text text-anchor="middle" x="55" y="-31" font-family="Helvetica,sans-Serif" font-size="10.00">::_calculeNoise</text>
</g>
<!-- Node2 -->
<g id="node2" class="node"><title>Node2</title>
<g id="a_node2"><a xlink:href="class_hydrax_1_1_noise_1_1_perlin.html#a2037c02fa7d577eb72487a1b778b62dd" target="_top" xlink:title="Hydrax::Noise::Perlin\l::update">
<polygon fill="white" stroke="black" points="146,-24 146,-54 256,-54 256,-24 146,-24"/>
<text text-anchor="start" x="154" y="-42" font-family="Helvetica,sans-Serif" font-size="10.00">Hydrax::Noise::Perlin</text>
<text text-anchor="middle" x="201" y="-31" font-family="Helvetica,sans-Serif" font-size="10.00">::update</text>
</a>
</g>
</g>
<!-- Node1&#45;&gt;Node2 -->
<g id="edge1" class="edge"><title>Node1&#45;&gt;Node2</title>
<path fill="none" stroke="midnightblue" d="M120.27,-39C128.75,-39 137.375,-39 145.667,-39"/>
<polygon fill="midnightblue" stroke="midnightblue" points="120.03,-35.5001 110.03,-39 120.03,-42.5001 120.03,-35.5001"/>
</g>
<!-- Node3 -->
<g id="node3" class="node"><title>Node3</title>
<g id="a_node3"><a xlink:href="class_hydrax_1_1_god_rays_manager.html#a90ec2ead8e869ab4388641de1edeba11" target="_top" xlink:title="Hydrax::GodRaysManager\l::update">
<polygon fill="white" stroke="black" points="292.5,-49 292.5,-79 425.5,-79 425.5,-49 292.5,-49"/>
<text text-anchor="start" x="300.5" y="-67" font-family="Helvetica,sans-Serif" font-size="10.00">Hydrax::GodRaysManager</text>
<text text-anchor="middle" x="359" y="-56" font-family="Helvetica,sans-Serif" font-size="10.00">::update</text>
</a>
</g>
</g>
<!-- Node2&#45;&gt;Node3 -->
<g id="edge2" class="edge"><title>Node2&#45;&gt;Node3</title>
<path fill="none" stroke="midnightblue" d="M266.16,-49.2821C274.825,-50.6707 283.726,-52.0971 292.415,-53.4896"/>
<polygon fill="midnightblue" stroke="midnightblue" points="266.551,-45.8002 256.123,-47.6736 265.444,-52.712 266.551,-45.8002"/>
</g>
<!-- Node4 -->
<g id="node4" class="node"><title>Node4</title>
<g id="a_node4"><a xlink:href="class_hydrax_1_1_noise_1_1_real.html#a436ebf5d7564c7c200619f8f4d192183" target="_top" xlink:title="Hydrax::Noise::Real\l::update">
<polygon fill="white" stroke="black" points="306,-0 306,-30 412,-30 412,-0 306,-0"/>
<text text-anchor="start" x="314" y="-18" font-family="Helvetica,sans-Serif" font-size="10.00">Hydrax::Noise::Real</text>
<text text-anchor="middle" x="359" y="-7" font-family="Helvetica,sans-Serif" font-size="10.00">::update</text>
</a>
</g>
</g>
<!-- Node2&#45;&gt;Node4 -->
<g id="edge3" class="edge"><title>Node2&#45;&gt;Node4</title>
<path fill="none" stroke="midnightblue" d="M266.097,-29.139C279.313,-27.1057 293.08,-24.9877 305.813,-23.0288"/>
<polygon fill="midnightblue" stroke="midnightblue" points="265.475,-25.6934 256.123,-30.6733 266.539,-32.612 265.475,-25.6934"/>
</g>
</g>
</svg>
