<?xml version="1.0" encoding="UTF-8" standalone="no"?>
<!DOCTYPE svg PUBLIC "-//W3C//DTD SVG 1.1//EN"
 "http://www.w3.org/Graphics/SVG/1.1/DTD/svg11.dtd">
<!-- Generated by graphviz version 2.36.0 (20140111.2315)
 -->
<!-- Title: CacheSystem::loadSingleDirectory Pages: 1 -->
<!--zoomable 87 -->
<svg id="main" version="1.1" xmlns="http://www.w3.org/2000/svg" xmlns:xlink="http://www.w3.org/1999/xlink" xml:space="preserve" onload="init(evt)">
<style type="text/css"><![CDATA[
.edge:hover path { stroke: red; }
.edge:hover polygon { stroke: red; fill: red; }
]]></style>
<script type="text/javascript"><![CDATA[
var edges = document.getElementsByTagName('g');
if (edges && edges.length) {
  for (var i=0;i<edges.length;i++) {
    if (edges[i].id.substr(0,4)=='edge') {
      edges[i].setAttribute('class','edge');
    }
  }
}
]]></script>
        <defs>
                <circle id="rim" cx="0" cy="0" r="7"/>
                <circle id="rim2" cx="0" cy="0" r="3.5"/>
                <g id="zoomPlus">
                        <use xlink:href="#rim" fill="#404040">
                                <set attributeName="fill" to="#808080" begin="zoomplus.mouseover" end="zoomplus.mouseout"/>
                        </use>
                        <path d="M-4,0h8M0,-4v8" fill="none" stroke="white" stroke-width="1.5" pointer-events="none"/>
                </g>
                <g id="zoomMin">
                        <use xlink:href="#rim" fill="#404040">
                                <set attributeName="fill" to="#808080" begin="zoomminus.mouseover" end="zoomminus.mouseout"/>
                        </use>
                        <path d="M-4,0h8" fill="none" stroke="white" stroke-width="1.5" pointer-events="none"/>
                </g>
                <g id="dirArrow">
                        <path fill="none" stroke="white" stroke-width="1.5" d="M0,-3.0v7 M-2.5,-0.5L0,-3.0L2.5,-0.5"/>
                </g>
               <g id="resetDef">
                       <use xlink:href="#rim2" fill="#404040">
                               <set attributeName="fill" to="#808080" begin="reset.mouseover" end="reset.mouseout"/>
                       </use>
               </g>
        </defs>

<script type="text/javascript">
var viewWidth = 1388;
var viewHeight = 87;
var sectionId = 'dynsection-58';
</script>
<script xlink:href="svgpan.js"/>
<svg id="graph" class="graph">
<g id="viewport">
<title>CacheSystem::loadSingleDirectory</title>
<polygon fill="white" stroke="none" points="-4,4 -4,-83 1384,-83 1384,4 -4,4"/>
<!-- Node1 -->
<g id="node1" class="node"><title>Node1</title>
<polygon fill="#bfbfbf" stroke="black" points="0,-29.5 0,-48.5 170,-48.5 170,-29.5 0,-29.5"/>
<text text-anchor="middle" x="85" y="-36.5" font-family="Helvetica,sans-Serif" font-size="10.00">CacheSystem::loadSingleDirectory</text>
</g>
<!-- Node2 -->
<g id="node2" class="node"><title>Node2</title>
<g id="a_node2"><a xlink:href="class_cache_system.html#afa2911e77ee5652f6b1739a8b1f334c4" target="_top" xlink:title="CacheSystem::loadAllDirectories\lInResourceGroup">
<polygon fill="white" stroke="black" points="206.5,-49 206.5,-79 367.5,-79 367.5,-49 206.5,-49"/>
<text text-anchor="start" x="214.5" y="-67" font-family="Helvetica,sans-Serif" font-size="10.00">CacheSystem::loadAllDirectories</text>
<text text-anchor="middle" x="287" y="-56" font-family="Helvetica,sans-Serif" font-size="10.00">InResourceGroup</text>
</a>
</g>
</g>
<!-- Node1&#45;&gt;Node2 -->
<g id="edge1" class="edge"><title>Node1&#45;&gt;Node2</title>
<path fill="none" stroke="midnightblue" d="M172.449,-49.8062C183.719,-51.2149 195.223,-52.6529 206.374,-54.0468"/>
<polygon fill="midnightblue" stroke="midnightblue" points="172.539,-46.2902 162.182,-48.5227 171.671,-53.2362 172.539,-46.2902"/>
</g>
<!-- Node9 -->
<g id="node9" class="node"><title>Node9</title>
<g id="a_node9"><a xlink:href="class_cache_system.html#ab2251b8c119efb98588c8c85f882aa3f" target="_top" xlink:title="CacheSystem::checkForNew\lDirectoriesInResourceGroup">
<polygon fill="white" stroke="black" points="214,-0 214,-30 360,-30 360,-0 214,-0"/>
<text text-anchor="start" x="222" y="-18" font-family="Helvetica,sans-Serif" font-size="10.00">CacheSystem::checkForNew</text>
<text text-anchor="middle" x="287" y="-7" font-family="Helvetica,sans-Serif" font-size="10.00">DirectoriesInResourceGroup</text>
</a>
</g>
</g>
<!-- Node1&#45;&gt;Node9 -->
<g id="edge9" class="edge"><title>Node1&#45;&gt;Node9</title>
<path fill="none" stroke="midnightblue" d="M175.56,-28.2528C188.396,-26.7125 201.463,-25.1444 213.904,-23.6515"/>
<polygon fill="midnightblue" stroke="midnightblue" points="174.844,-24.8135 165.333,-29.4801 175.678,-31.7636 174.844,-24.8135"/>
</g>
<!-- Node3 -->
<g id="node3" class="node"><title>Node3</title>
<g id="a_node3"><a xlink:href="class_cache_system.html#a2f2307345ec188913271a4cc5220c1bb" target="_top" xlink:title="CacheSystem::loadAllZips">
<polygon fill="white" stroke="black" points="587.5,-52.5 587.5,-71.5 720.5,-71.5 720.5,-52.5 587.5,-52.5"/>
<text text-anchor="middle" x="654" y="-59.5" font-family="Helvetica,sans-Serif" font-size="10.00">CacheSystem::loadAllZips</text>
</a>
</g>
</g>
<!-- Node2&#45;&gt;Node3 -->
<g id="edge2" class="edge"><title>Node2&#45;&gt;Node3</title>
<path fill="none" stroke="midnightblue" d="M377.865,-63.5076C442.696,-63.1524 528.751,-62.6808 587.238,-62.3603"/>
<polygon fill="midnightblue" stroke="midnightblue" points="377.63,-60.0087 367.65,-63.5636 377.669,-67.0086 377.63,-60.0087"/>
</g>
<!-- Node4 -->
<g id="node4" class="node"><title>Node4</title>
<g id="a_node4"><a xlink:href="class_cache_system.html#a37e784da57c57f56a428f61a53b4d618" target="_top" xlink:title="CacheSystem::generateCache">
<polygon fill="white" stroke="black" points="758.5,-29.5 758.5,-48.5 909.5,-48.5 909.5,-29.5 758.5,-29.5"/>
<text text-anchor="middle" x="834" y="-36.5" font-family="Helvetica,sans-Serif" font-size="10.00">CacheSystem::generateCache</text>
</a>
</g>
</g>
<!-- Node3&#45;&gt;Node4 -->
<g id="edge3" class="edge"><title>Node3&#45;&gt;Node4</title>
<path fill="none" stroke="midnightblue" d="M730.676,-52.2216C740.128,-51.0004 749.784,-49.7527 759.206,-48.5352"/>
<polygon fill="midnightblue" stroke="midnightblue" points="729.991,-48.7809 720.522,-53.5336 730.888,-55.7232 729.991,-48.7809"/>
</g>
<!-- Node5 -->
<g id="node5" class="node"><title>Node5</title>
<g id="a_node5"><a xlink:href="class_cache_system.html#ae010322c2422bf8f8dbfce904257da31" target="_top" xlink:title="CacheSystem::Startup">
<polygon fill="white" stroke="black" points="946,-29.5 946,-48.5 1062,-48.5 1062,-29.5 946,-29.5"/>
<text text-anchor="middle" x="1004" y="-36.5" font-family="Helvetica,sans-Serif" font-size="10.00">CacheSystem::Startup</text>
</a>
</g>
</g>
<!-- Node4&#45;&gt;Node5 -->
<g id="edge4" class="edge"><title>Node4&#45;&gt;Node5</title>
<path fill="none" stroke="midnightblue" d="M919.696,-39C928.595,-39 937.484,-39 945.963,-39"/>
<polygon fill="midnightblue" stroke="midnightblue" points="919.666,-35.5001 909.666,-39 919.666,-42.5001 919.666,-35.5001"/>
</g>
<!-- Node6 -->
<g id="node6" class="node"><title>Node6</title>
<g id="a_node6"><a xlink:href="main_8cpp.html#a0ddf1224851353fc92bfbff6f499fa97" target="_top" xlink:title="main">
<polygon fill="white" stroke="black" points="1250,-29.5 1250,-48.5 1288,-48.5 1288,-29.5 1250,-29.5"/>
<text text-anchor="middle" x="1269" y="-36.5" font-family="Helvetica,sans-Serif" font-size="10.00">main</text>
</a>
</g>
</g>
<!-- Node5&#45;&gt;Node6 -->
<g id="edge5" class="edge"><title>Node5&#45;&gt;Node6</title>
<path fill="none" stroke="midnightblue" d="M1072.35,-40.6036C1113.31,-41.3401 1166.67,-41.8761 1214,-41 1225.82,-40.7812 1239.08,-40.2933 1249.51,-39.8542"/>
<polygon fill="midnightblue" stroke="midnightblue" points="1072.28,-37.1017 1062.22,-40.4127 1072.15,-44.1005 1072.28,-37.1017"/>
</g>
<!-- Node8 -->
<g id="node8" class="node"><title>Node8</title>
<g id="a_node8"><a xlink:href="class_ro_r_1_1_content_manager.html#a861b35694f428e463a800052ac0e9f90" target="_top" xlink:title="RoR::ContentManager\l::RegenCache">
<polygon fill="white" stroke="black" points="1098.5,-2 1098.5,-32 1213.5,-32 1213.5,-2 1098.5,-2"/>
<text text-anchor="start" x="1106.5" y="-20" font-family="Helvetica,sans-Serif" font-size="10.00">RoR::ContentManager</text>
<text text-anchor="middle" x="1156" y="-9" font-family="Helvetica,sans-Serif" font-size="10.00">::RegenCache</text>
</a>
</g>
</g>
<!-- Node5&#45;&gt;Node8 -->
<g id="edge7" class="edge"><title>Node5&#45;&gt;Node8</title>
<path fill="none" stroke="midnightblue" d="M1072.18,-29.1475C1080.81,-27.8817 1089.58,-26.5955 1098.02,-25.3567"/>
<polygon fill="midnightblue" stroke="midnightblue" points="1071.52,-25.7058 1062.14,-30.62 1072.54,-32.6317 1071.52,-25.7058"/>
</g>
<!-- Node7 -->
<g id="node7" class="node"><title>Node7</title>
<g id="a_node7"><a xlink:href="main_8cpp.html#a2922bc5d5c2d77a3020cfbf9df12aab0" target="_top" xlink:title="WinMain">
<polygon fill="white" stroke="black" points="1324.5,-29.5 1324.5,-48.5 1379.5,-48.5 1379.5,-29.5 1324.5,-29.5"/>
<text text-anchor="middle" x="1352" y="-36.5" font-family="Helvetica,sans-Serif" font-size="10.00">WinMain</text>
</a>
</g>
</g>
<!-- Node6&#45;&gt;Node7 -->
<g id="edge6" class="edge"><title>Node6&#45;&gt;Node7</title>
<path fill="none" stroke="midnightblue" d="M1298.51,-39C1306.93,-39 1316.11,-39 1324.4,-39"/>
<polygon fill="midnightblue" stroke="midnightblue" points="1298.38,-35.5001 1288.38,-39 1298.38,-42.5001 1298.38,-35.5001"/>
</g>
<!-- Node8&#45;&gt;Node6 -->
<g id="edge8" class="edge"><title>Node8&#45;&gt;Node6</title>
<path fill="none" stroke="midnightblue" d="M1223.8,-30.2394C1233.28,-32.1186 1242.3,-33.9068 1249.69,-35.3718"/>
<polygon fill="midnightblue" stroke="midnightblue" points="1224.29,-26.7688 1213.8,-28.2578 1222.93,-33.6353 1224.29,-26.7688"/>
</g>
<!-- Node10 -->
<g id="node10" class="node"><title>Node10</title>
<g id="a_node10"><a xlink:href="class_cache_system.html#ac30fff8eecfc197fc4ccca8c6cf06109" target="_top" xlink:title="CacheSystem::checkForNew\lContent">
<polygon fill="white" stroke="black" points="404,-2 404,-32 550,-32 550,-2 404,-2"/>
<text text-anchor="start" x="412" y="-20" font-family="Helvetica,sans-Serif" font-size="10.00">CacheSystem::checkForNew</text>
<text text-anchor="middle" x="477" y="-9" font-family="Helvetica,sans-Serif" font-size="10.00">Content</text>
</a>
</g>
</g>
<!-- Node9&#45;&gt;Node10 -->
<g id="edge10" class="edge"><title>Node9&#45;&gt;Node10</title>
<path fill="none" stroke="midnightblue" d="M370.295,-15.8755C381.431,-15.994 392.791,-16.1148 403.734,-16.2312"/>
<polygon fill="midnightblue" stroke="midnightblue" points="370.185,-12.3742 360.148,-15.7675 370.11,-19.3738 370.185,-12.3742"/>
</g>
<!-- Node11 -->
<g id="node11" class="node"><title>Node11</title>
<g id="a_node11"><a xlink:href="class_cache_system.html#a4439130b97404a54bca3ca9768586c48" target="_top" xlink:title="CacheSystem::incremental\lCacheUpdate">
<polygon fill="white" stroke="black" points="586.5,-2 586.5,-32 721.5,-32 721.5,-2 586.5,-2"/>
<text text-anchor="start" x="594.5" y="-20" font-family="Helvetica,sans-Serif" font-size="10.00">CacheSystem::incremental</text>
<text text-anchor="middle" x="654" y="-9" font-family="Helvetica,sans-Serif" font-size="10.00">CacheUpdate</text>
</a>
</g>
</g>
<!-- Node10&#45;&gt;Node11 -->
<g id="edge11" class="edge"><title>Node10&#45;&gt;Node11</title>
<path fill="none" stroke="midnightblue" d="M560.351,-17C569.052,-17 577.82,-17 586.312,-17"/>
<polygon fill="midnightblue" stroke="midnightblue" points="560.19,-13.5001 550.19,-17 560.19,-20.5001 560.19,-13.5001"/>
</g>
<!-- Node11&#45;&gt;Node4 -->
<g id="edge12" class="edge"><title>Node11&#45;&gt;Node4</title>
<path fill="none" stroke="midnightblue" d="M731.528,-26.4585C740.462,-27.5628 749.567,-28.6881 758.474,-29.7889"/>
<polygon fill="midnightblue" stroke="midnightblue" points="731.888,-22.9764 721.534,-25.2233 731.029,-29.9236 731.888,-22.9764"/>
</g>
</g>
</svg>
        <g id="navigator" transform="translate(0 0)" fill="#404254">
                <rect fill="#f2f5e9" fill-opacity="0.5" stroke="#606060" stroke-width=".5" x="0" y="0" width="60" height="60"/>
                <use id="zoomplus" xlink:href="#zoomPlus" x="17" y="9" onmousedown="handleZoom(evt,'in')"/>
                <use id="zoomminus" xlink:href="#zoomMin" x="42" y="9" onmousedown="handleZoom(evt,'out')"/>
                <use id="reset" xlink:href="#resetDef" x="30" y="36" onmousedown="handleReset()"/>
                <g id="arrowUp" xlink:href="#dirArrow" transform="translate(30 24)" onmousedown="handlePan(0,-1)">
                  <use xlink:href="#rim" fill="#404040">
                        <set attributeName="fill" to="#808080" begin="arrowUp.mouseover" end="arrowUp.mouseout"/>
                  </use>
                  <path fill="none" stroke="white" stroke-width="1.5" d="M0,-3.0v7 M-2.5,-0.5L0,-3.0L2.5,-0.5"/>
                </g>
                <g id="arrowRight" xlink:href="#dirArrow" transform="rotate(90) translate(36 -43)" onmousedown="handlePan(1,0)">
                  <use xlink:href="#rim" fill="#404040">
                        <set attributeName="fill" to="#808080" begin="arrowRight.mouseover" end="arrowRight.mouseout"/>
                  </use>
                  <path fill="none" stroke="white" stroke-width="1.5" d="M0,-3.0v7 M-2.5,-0.5L0,-3.0L2.5,-0.5"/>
                </g>
                <g id="arrowDown" xlink:href="#dirArrow" transform="rotate(180) translate(-30 -48)" onmousedown="handlePan(0,1)">
                  <use xlink:href="#rim" fill="#404040">
                        <set attributeName="fill" to="#808080" begin="arrowDown.mouseover" end="arrowDown.mouseout"/>
                  </use>
                  <path fill="none" stroke="white" stroke-width="1.5" d="M0,-3.0v7 M-2.5,-0.5L0,-3.0L2.5,-0.5"/>
                </g>
                <g id="arrowLeft" xlink:href="#dirArrow" transform="rotate(270) translate(-36 17)" onmousedown="handlePan(-1,0)">
                  <use xlink:href="#rim" fill="#404040">
                        <set attributeName="fill" to="#808080" begin="arrowLeft.mouseover" end="arrowLeft.mouseout"/>
                  </use>
                  <path fill="none" stroke="white" stroke-width="1.5" d="M0,-3.0v7 M-2.5,-0.5L0,-3.0L2.5,-0.5"/>
                </g>
        </g>
        <svg viewBox="0 0 15 15" width="100%" height="30px" preserveAspectRatio="xMaxYMin meet">
         <g id="arrow_out" transform="scale(0.3 0.3)">
          <a xlink:href="class_cache_system_a6930774611a2fb3df326a427c2af3ccb_icgraph_org.svg" target="_base">
           <rect id="button" ry="5" rx="5" y="6" x="6" height="38" width="38"
                fill="#f2f5e9" fill-opacity="0.5" stroke="#606060" stroke-width="1.0"/>
           <path id="arrow"
             d="M 11.500037,31.436501 C 11.940474,20.09759 22.043105,11.32322 32.158766,21.979434 L 37.068811,17.246167 C 37.068811,17.246167 37.088388,32 37.088388,32 L 22.160133,31.978069 C 22.160133,31.978069 26.997745,27.140456 26.997745,27.140456 C 18.528582,18.264221 13.291696,25.230495 11.500037,31.436501 z"
             style="fill:#404040;"/>
          </a>
         </g>
        </svg>
</svg>
