<?xml version="1.0" encoding="UTF-8" standalone="no"?>
<!DOCTYPE svg PUBLIC "-//W3C//DTD SVG 1.1//EN"
 "http://www.w3.org/Graphics/SVG/1.1/DTD/svg11.dtd">
<!-- Generated by graphviz version 2.36.0 (20140111.2315)
 -->
<!-- Title: Hydrax::Noise::Noise::update Pages: 1 -->
<svg width="456pt" height="136pt"
 viewBox="0.00 0.00 456.00 136.00" xmlns="http://www.w3.org/2000/svg" xmlns:xlink="http://www.w3.org/1999/xlink">
<g id="graph0" class="graph" transform="scale(1 1) rotate(0) translate(4 132)">
<title>Hydrax::Noise::Noise::update</title>
<polygon fill="white" stroke="none" points="-4,4 -4,-132 452,-132 452,4 -4,4"/>
<!-- Node1 -->
<g id="node1" class="node"><title>Node1</title>
<polygon fill="#bfbfbf" stroke="black" points="0.5,-49 0.5,-79 111.5,-79 111.5,-49 0.5,-49"/>
<text text-anchor="start" x="8.5" y="-67" font-family="Helvetica,sans-Serif" font-size="10.00">Hydrax::Noise::Noise</text>
<text text-anchor="middle" x="56" y="-56" font-family="Helvetica,sans-Serif" font-size="10.00">::update</text>
</g>
<!-- Node2 -->
<g id="node2" class="node"><title>Node2</title>
<g id="a_node2"><a xlink:href="class_hydrax_1_1_module_1_1_module.html#a2042d450f99d9348fa4b7bd29ba89df3" target="_top" xlink:title="Hydrax::Module::Module\l::update">
<polygon fill="white" stroke="black" points="148.5,-49 148.5,-79 271.5,-79 271.5,-49 148.5,-49"/>
<text text-anchor="start" x="156.5" y="-67" font-family="Helvetica,sans-Serif" font-size="10.00">Hydrax::Module::Module</text>
<text text-anchor="middle" x="210" y="-56" font-family="Helvetica,sans-Serif" font-size="10.00">::update</text>
</a>
</g>
</g>
<!-- Node1&#45;&gt;Node2 -->
<g id="edge1" class="edge"><title>Node1&#45;&gt;Node2</title>
<path fill="none" stroke="midnightblue" d="M121.996,-64C130.719,-64 139.639,-64 148.284,-64"/>
<polygon fill="midnightblue" stroke="midnightblue" points="121.876,-60.5001 111.875,-64 121.875,-67.5001 121.876,-60.5001"/>
</g>
<!-- Node3 -->
<g id="node3" class="node"><title>Node3</title>
<g id="a_node3"><a xlink:href="class_hydrax_1_1_module_1_1_projected_grid.html#a8d7a8efcd6b7fd0e4313c9114bd2c061" target="_top" xlink:title="Hydrax::Module::Projected\lGrid::update">
<polygon fill="white" stroke="black" points="311.5,-98 311.5,-128 444.5,-128 444.5,-98 311.5,-98"/>
<text text-anchor="start" x="319.5" y="-116" font-family="Helvetica,sans-Serif" font-size="10.00">Hydrax::Module::Projected</text>
<text text-anchor="middle" x="378" y="-105" font-family="Helvetica,sans-Serif" font-size="10.00">Grid::update</text>
</a>
</g>
</g>
<!-- Node2&#45;&gt;Node3 -->
<g id="edge2" class="edge"><title>Node2&#45;&gt;Node3</title>
<path fill="none" stroke="midnightblue" d="M271.868,-81.967C289.654,-87.217 308.902,-92.8989 326.009,-97.9484"/>
<polygon fill="midnightblue" stroke="midnightblue" points="272.742,-78.5757 262.16,-79.1014 270.76,-85.2894 272.742,-78.5757"/>
</g>
<!-- Node4 -->
<g id="node4" class="node"><title>Node4</title>
<g id="a_node4"><a xlink:href="class_hydrax_1_1_module_1_1_radial_grid.html#aee5199bfbee4429ab428d477e36443dd" target="_top" xlink:title="Hydrax::Module::RadialGrid\l::update">
<polygon fill="white" stroke="black" points="309.5,-49 309.5,-79 446.5,-79 446.5,-49 309.5,-49"/>
<text text-anchor="start" x="317.5" y="-67" font-family="Helvetica,sans-Serif" font-size="10.00">Hydrax::Module::RadialGrid</text>
<text text-anchor="middle" x="378" y="-56" font-family="Helvetica,sans-Serif" font-size="10.00">::update</text>
</a>
</g>
</g>
<!-- Node2&#45;&gt;Node4 -->
<g id="edge3" class="edge"><title>Node2&#45;&gt;Node4</title>
<path fill="none" stroke="midnightblue" d="M282.02,-64C291.105,-64 300.386,-64 309.414,-64"/>
<polygon fill="midnightblue" stroke="midnightblue" points="281.87,-60.5001 271.87,-64 281.87,-67.5001 281.87,-60.5001"/>
</g>
<!-- Node5 -->
<g id="node5" class="node"><title>Node5</title>
<g id="a_node5"><a xlink:href="class_hydrax_1_1_module_1_1_simple_grid.html#aaa120d4f487785136a3134cc8980fb16" target="_top" xlink:title="Hydrax::Module::SimpleGrid\l::update">
<polygon fill="white" stroke="black" points="308,-0 308,-30 448,-30 448,-0 308,-0"/>
<text text-anchor="start" x="316" y="-18" font-family="Helvetica,sans-Serif" font-size="10.00">Hydrax::Module::SimpleGrid</text>
<text text-anchor="middle" x="378" y="-7" font-family="Helvetica,sans-Serif" font-size="10.00">::update</text>
</a>
</g>
</g>
<!-- Node2&#45;&gt;Node5 -->
<g id="edge4" class="edge"><title>Node2&#45;&gt;Node5</title>
<path fill="none" stroke="midnightblue" d="M271.868,-46.033C289.654,-40.783 308.902,-35.1011 326.009,-30.0516"/>
<polygon fill="midnightblue" stroke="midnightblue" points="270.76,-42.7106 262.16,-48.8986 272.742,-49.4243 270.76,-42.7106"/>
</g>
</g>
</svg>
