<?xml version="1.0" encoding="UTF-8" standalone="no"?>
<!DOCTYPE svg PUBLIC "-//W3C//DTD SVG 1.1//EN"
 "http://www.w3.org/Graphics/SVG/1.1/DTD/svg11.dtd">
<!-- Generated by graphviz version 2.36.0 (20140111.2315)
 -->
<!-- Title: TerrainManager::GetDef Pages: 1 -->
<svg width="528pt" height="28pt"
 viewBox="0.00 0.00 528.00 28.00" xmlns="http://www.w3.org/2000/svg" xmlns:xlink="http://www.w3.org/1999/xlink">
<g id="graph0" class="graph" transform="scale(1 1) rotate(0) translate(4 24)">
<title>TerrainManager::GetDef</title>
<polygon fill="white" stroke="none" points="-4,4 -4,-24 524,-24 524,4 -4,4"/>
<!-- Node1 -->
<g id="node1" class="node"><title>Node1</title>
<polygon fill="#bfbfbf" stroke="black" points="0,-0.5 0,-19.5 122,-19.5 122,-0.5 0,-0.5"/>
<text text-anchor="middle" x="61" y="-7.5" font-family="Helvetica,sans-Serif" font-size="10.00">TerrainManager::GetDef</text>
</g>
<!-- Node2 -->
<g id="node2" class="node"><title>Node2</title>
<g id="a_node2"><a xlink:href="class_ro_r_frame_listener.html#aca3931d7a75f2ad4b9d36c4fcd03a3c9" target="_top" xlink:title="RoRFrameListener::SetupGameplayLoop">
<polygon fill="white" stroke="black" points="158,-0.5 158,-19.5 354,-19.5 354,-0.5 158,-0.5"/>
<text text-anchor="middle" x="256" y="-7.5" font-family="Helvetica,sans-Serif" font-size="10.00">RoRFrameListener::SetupGameplayLoop</text>
</a>
</g>
</g>
<!-- Node1&#45;&gt;Node2 -->
<g id="edge1" class="edge"><title>Node1&#45;&gt;Node2</title>
<path fill="none" stroke="midnightblue" d="M132.073,-10C140.457,-10 149.129,-10 157.809,-10"/>
<polygon fill="midnightblue" stroke="midnightblue" points="132.008,-6.5001 122.008,-10 132.008,-13.5001 132.008,-6.5001"/>
</g>
<!-- Node3 -->
<g id="node3" class="node"><title>Node3</title>
<g id="a_node3"><a xlink:href="main_8cpp.html#a0ddf1224851353fc92bfbff6f499fa97" target="_top" xlink:title="main">
<polygon fill="white" stroke="black" points="390,-0.5 390,-19.5 428,-19.5 428,-0.5 390,-0.5"/>
<text text-anchor="middle" x="409" y="-7.5" font-family="Helvetica,sans-Serif" font-size="10.00">main</text>
</a>
</g>
</g>
<!-- Node2&#45;&gt;Node3 -->
<g id="edge2" class="edge"><title>Node2&#45;&gt;Node3</title>
<path fill="none" stroke="midnightblue" d="M364.519,-10C374.031,-10 382.712,-10 389.772,-10"/>
<polygon fill="midnightblue" stroke="midnightblue" points="364.338,-6.5001 354.338,-10 364.338,-13.5001 364.338,-6.5001"/>
</g>
<!-- Node4 -->
<g id="node4" class="node"><title>Node4</title>
<g id="a_node4"><a xlink:href="main_8cpp.html#a2922bc5d5c2d77a3020cfbf9df12aab0" target="_top" xlink:title="WinMain">
<polygon fill="white" stroke="black" points="464.5,-0.5 464.5,-19.5 519.5,-19.5 519.5,-0.5 464.5,-0.5"/>
<text text-anchor="middle" x="492" y="-7.5" font-family="Helvetica,sans-Serif" font-size="10.00">WinMain</text>
</a>
</g>
</g>
<!-- Node3&#45;&gt;Node4 -->
<g id="edge3" class="edge"><title>Node3&#45;&gt;Node4</title>
<path fill="none" stroke="midnightblue" d="M438.512,-10C446.929,-10 456.105,-10 464.397,-10"/>
<polygon fill="midnightblue" stroke="midnightblue" points="438.38,-6.5001 428.38,-10 438.38,-13.5001 438.38,-6.5001"/>
</g>
</g>
</svg>
