<?xml version="1.0" encoding="UTF-8" standalone="no"?>
<!DOCTYPE svg PUBLIC "-//W3C//DTD SVG 1.1//EN"
 "http://www.w3.org/Graphics/SVG/1.1/DTD/svg11.dtd">
<!-- Generated by graphviz version 2.36.0 (20140111.2315)
 -->
<!-- Title: RigDef::Node::Ref::GetLineNumber Pages: 1 -->
<svg width="456pt" height="126pt"
 viewBox="0.00 0.00 456.00 126.00" xmlns="http://www.w3.org/2000/svg" xmlns:xlink="http://www.w3.org/1999/xlink">
<g id="graph0" class="graph" transform="scale(1 1) rotate(0) translate(4 122)">
<title>RigDef::Node::Ref::GetLineNumber</title>
<polygon fill="white" stroke="none" points="-4,4 -4,-122 452,-122 452,4 -4,4"/>
<!-- Node1 -->
<g id="node1" class="node"><title>Node1</title>
<polygon fill="#bfbfbf" stroke="black" points="0,-44 0,-74 104,-74 104,-44 0,-44"/>
<text text-anchor="start" x="8" y="-62" font-family="Helvetica,sans-Serif" font-size="10.00">RigDef::Node::Ref::</text>
<text text-anchor="middle" x="52" y="-51" font-family="Helvetica,sans-Serif" font-size="10.00">GetLineNumber</text>
</g>
<!-- Node2 -->
<g id="node2" class="node"><title>Node2</title>
<g id="a_node2"><a xlink:href="class_rig_def_1_1_sequential_importer.html#a97bec71f6d710c1c6804d9b1e03977a5" target="_top" xlink:title="RigDef::SequentialImporter\l::ResolveNode">
<polygon fill="white" stroke="black" points="140.5,-88 140.5,-118 275.5,-118 275.5,-88 140.5,-88"/>
<text text-anchor="start" x="148.5" y="-106" font-family="Helvetica,sans-Serif" font-size="10.00">RigDef::SequentialImporter</text>
<text text-anchor="middle" x="208" y="-95" font-family="Helvetica,sans-Serif" font-size="10.00">::ResolveNode</text>
</a>
</g>
</g>
<!-- Node1&#45;&gt;Node2 -->
<g id="edge1" class="edge"><title>Node1&#45;&gt;Node2</title>
<path fill="none" stroke="midnightblue" d="M114.273,-76.5064C127.542,-80.2978 141.463,-84.275 154.365,-87.9615"/>
<polygon fill="midnightblue" stroke="midnightblue" points="114.857,-73.0333 104.28,-73.6514 112.933,-79.764 114.857,-73.0333"/>
</g>
<!-- Node3 -->
<g id="node3" class="node"><title>Node3</title>
<g id="a_node3"><a xlink:href="class_rig_def_1_1_sequential_importer.html#a3b5fe4ea5c9ab72bab2c88845cbe144a" target="_top" xlink:title="RigDef::SequentialImporter\l::ResolveNodeRanges">
<polygon fill="white" stroke="black" points="312.5,-66 312.5,-96 447.5,-96 447.5,-66 312.5,-66"/>
<text text-anchor="start" x="320.5" y="-84" font-family="Helvetica,sans-Serif" font-size="10.00">RigDef::SequentialImporter</text>
<text text-anchor="middle" x="380" y="-73" font-family="Helvetica,sans-Serif" font-size="10.00">::ResolveNodeRanges</text>
</a>
</g>
</g>
<!-- Node1&#45;&gt;Node3 -->
<g id="edge4" class="edge"><title>Node1&#45;&gt;Node3</title>
<path fill="none" stroke="midnightblue" d="M114.516,-63.1514C171,-66.9632 254.485,-72.5972 312.494,-76.5118"/>
<polygon fill="midnightblue" stroke="midnightblue" points="114.509,-59.6431 104.296,-62.4617 114.038,-66.6272 114.509,-59.6431"/>
</g>
<!-- Node4 -->
<g id="node4" class="node"><title>Node4</title>
<g id="a_node4"><a xlink:href="class_rig_def_1_1_sequential_importer.html#a6029705326e0cfa1d42e06ff8a3937de" target="_top" xlink:title="RigDef::SequentialImporter\l::ResolveFlexbodyForset">
<polygon fill="white" stroke="black" points="140.5,-0 140.5,-30 275.5,-30 275.5,-0 140.5,-0"/>
<text text-anchor="start" x="148.5" y="-18" font-family="Helvetica,sans-Serif" font-size="10.00">RigDef::SequentialImporter</text>
<text text-anchor="middle" x="208" y="-7" font-family="Helvetica,sans-Serif" font-size="10.00">::ResolveFlexbodyForset</text>
</a>
</g>
</g>
<!-- Node1&#45;&gt;Node4 -->
<g id="edge3" class="edge"><title>Node1&#45;&gt;Node4</title>
<path fill="none" stroke="midnightblue" d="M114.273,-41.4936C127.542,-37.7022 141.463,-33.725 154.365,-30.0385"/>
<polygon fill="midnightblue" stroke="midnightblue" points="112.933,-38.236 104.28,-44.3486 114.857,-44.9667 112.933,-38.236"/>
</g>
<!-- Node2&#45;&gt;Node3 -->
<g id="edge2" class="edge"><title>Node2&#45;&gt;Node3</title>
<path fill="none" stroke="midnightblue" d="M285.715,-93.0721C294.651,-91.9158 303.71,-90.7434 312.492,-89.6069"/>
<polygon fill="midnightblue" stroke="midnightblue" points="285.169,-89.6136 275.701,-94.3682 286.067,-96.5557 285.169,-89.6136"/>
</g>
</g>
</svg>
