<?xml version="1.0" encoding="UTF-8" standalone="no"?>
<!DOCTYPE svg PUBLIC "-//W3C//DTD SVG 1.1//EN"
 "http://www.w3.org/Graphics/SVG/1.1/DTD/svg11.dtd">
<!-- Generated by graphviz version 2.36.0 (20140111.2315)
 -->
<!-- Title: DepthOfFieldEffect::removeCompositor Pages: 1 -->
<svg width="264pt" height="38pt"
 viewBox="0.00 0.00 264.00 38.00" xmlns="http://www.w3.org/2000/svg" xmlns:xlink="http://www.w3.org/1999/xlink">
<g id="graph0" class="graph" transform="scale(1 1) rotate(0) translate(4 34)">
<title>DepthOfFieldEffect::removeCompositor</title>
<polygon fill="white" stroke="none" points="-4,4 -4,-34 260,-34 260,4 -4,4"/>
<!-- Node1 -->
<g id="node1" class="node"><title>Node1</title>
<polygon fill="#bfbfbf" stroke="black" points="0.5,-0 0.5,-30 105.5,-30 105.5,-0 0.5,-0"/>
<text text-anchor="start" x="8.5" y="-18" font-family="Helvetica,sans-Serif" font-size="10.00">DepthOfFieldEffect</text>
<text text-anchor="middle" x="53" y="-7" font-family="Helvetica,sans-Serif" font-size="10.00">::removeCompositor</text>
</g>
<!-- Node2 -->
<g id="node2" class="node"><title>Node2</title>
<g id="a_node2"><a xlink:href="class_depth_of_field_effect.html#ac2f23c19a118845a0bcd7b7c37dd267b" target="_top" xlink:title="DepthOfFieldEffect\l::~DepthOfFieldEffect">
<polygon fill="white" stroke="black" points="142.5,-0 142.5,-30 255.5,-30 255.5,-0 142.5,-0"/>
<text text-anchor="start" x="150.5" y="-18" font-family="Helvetica,sans-Serif" font-size="10.00">DepthOfFieldEffect</text>
<text text-anchor="middle" x="199" y="-7" font-family="Helvetica,sans-Serif" font-size="10.00">::~DepthOfFieldEffect</text>
</a>
</g>
</g>
<!-- Node1&#45;&gt;Node2 -->
<g id="edge1" class="edge"><title>Node1&#45;&gt;Node2</title>
<path fill="none" stroke="midnightblue" d="M115.819,-15C124.651,-15 133.691,-15 142.393,-15"/>
<polygon fill="midnightblue" stroke="midnightblue" points="115.581,-11.5001 105.581,-15 115.581,-18.5001 115.581,-11.5001"/>
</g>
</g>
</svg>
