<?xml version="1.0" encoding="UTF-8" standalone="no"?>
<!DOCTYPE svg PUBLIC "-//W3C//DTD SVG 1.1//EN"
 "http://www.w3.org/Graphics/SVG/1.1/DTD/svg11.dtd">
<!-- Generated by graphviz version 2.36.0 (20140111.2315)
 -->
<!-- Title: Hydrax::Image::getSize Pages: 1 -->
<svg width="452pt" height="38pt"
 viewBox="0.00 0.00 452.00 38.00" xmlns="http://www.w3.org/2000/svg" xmlns:xlink="http://www.w3.org/1999/xlink">
<g id="graph0" class="graph" transform="scale(1 1) rotate(0) translate(4 34)">
<title>Hydrax::Image::getSize</title>
<polygon fill="white" stroke="none" points="-4,4 -4,-34 448,-34 448,4 -4,4"/>
<!-- Node1 -->
<g id="node1" class="node"><title>Node1</title>
<polygon fill="#bfbfbf" stroke="black" points="0,-5.5 0,-24.5 120,-24.5 120,-5.5 0,-5.5"/>
<text text-anchor="middle" x="60" y="-12.5" font-family="Helvetica,sans-Serif" font-size="10.00">Hydrax::Image::getSize</text>
</g>
<!-- Node2 -->
<g id="node2" class="node"><title>Node2</title>
<g id="a_node2"><a xlink:href="class_hydrax_1_1_texture_manager.html#af1277c0d5f8c9bc186bd58ca58b8c0e3" target="_top" xlink:title="Hydrax::TextureManager\l::_updateNormalMap">
<polygon fill="white" stroke="black" points="156.5,-0 156.5,-30 281.5,-30 281.5,-0 156.5,-0"/>
<text text-anchor="start" x="164.5" y="-18" font-family="Helvetica,sans-Serif" font-size="10.00">Hydrax::TextureManager</text>
<text text-anchor="middle" x="219" y="-7" font-family="Helvetica,sans-Serif" font-size="10.00">::_updateNormalMap</text>
</a>
</g>
</g>
<!-- Node1&#45;&gt;Node2 -->
<g id="edge1" class="edge"><title>Node1&#45;&gt;Node2</title>
<path fill="none" stroke="midnightblue" d="M130.44,-15C139.111,-15 147.931,-15 156.47,-15"/>
<polygon fill="midnightblue" stroke="midnightblue" points="130.355,-11.5001 120.355,-15 130.355,-18.5001 130.355,-11.5001"/>
</g>
<!-- Node3 -->
<g id="node3" class="node"><title>Node3</title>
<g id="a_node3"><a xlink:href="class_hydrax_1_1_texture_manager.html#aeec28019cfbb7d4ec705b07d5519f98a" target="_top" xlink:title="Hydrax::TextureManager\l::update">
<polygon fill="white" stroke="black" points="318.5,-0 318.5,-30 443.5,-30 443.5,-0 318.5,-0"/>
<text text-anchor="start" x="326.5" y="-18" font-family="Helvetica,sans-Serif" font-size="10.00">Hydrax::TextureManager</text>
<text text-anchor="middle" x="381" y="-7" font-family="Helvetica,sans-Serif" font-size="10.00">::update</text>
</a>
</g>
</g>
<!-- Node2&#45;&gt;Node3 -->
<g id="edge2" class="edge"><title>Node2&#45;&gt;Node3</title>
<path fill="none" stroke="midnightblue" d="M292.061,-15C300.822,-15 309.712,-15 318.304,-15"/>
<polygon fill="midnightblue" stroke="midnightblue" points="291.86,-11.5001 281.86,-15 291.86,-18.5001 291.86,-11.5001"/>
</g>
</g>
</svg>
