<?xml version="1.0" encoding="UTF-8" standalone="no"?>
<!DOCTYPE svg PUBLIC "-//W3C//DTD SVG 1.1//EN"
 "http://www.w3.org/Graphics/SVG/1.1/DTD/svg11.dtd">
<!-- Generated by graphviz version 2.36.0 (20140111.2315)
 -->
<!-- Title: RoR::GUI::GamePauseMenu::SetVisible Pages: 1 -->
<svg width="630pt" height="87pt"
 viewBox="0.00 0.00 630.00 87.00" xmlns="http://www.w3.org/2000/svg" xmlns:xlink="http://www.w3.org/1999/xlink">
<g id="graph0" class="graph" transform="scale(1 1) rotate(0) translate(4 83)">
<title>RoR::GUI::GamePauseMenu::SetVisible</title>
<polygon fill="white" stroke="none" points="-4,4 -4,-83 626,-83 626,4 -4,4"/>
<!-- Node1 -->
<g id="node1" class="node"><title>Node1</title>
<polygon fill="#bfbfbf" stroke="black" points="0.5,-24 0.5,-54 145.5,-54 145.5,-24 0.5,-24"/>
<text text-anchor="start" x="8.5" y="-42" font-family="Helvetica,sans-Serif" font-size="10.00">RoR::GUI::GamePauseMenu</text>
<text text-anchor="middle" x="73" y="-31" font-family="Helvetica,sans-Serif" font-size="10.00">::SetVisible</text>
</g>
<!-- Node2 -->
<g id="node2" class="node"><title>Node2</title>
<g id="a_node2"><a xlink:href="class_ro_r_1_1_g_u_i_manager.html#a8837f1976f69697cc6c122b698f498ef" target="_top" xlink:title="RoR::GUIManager::SetVisible\l_GamePauseMenu">
<polygon fill="white" stroke="black" points="182.5,-49 182.5,-79 331.5,-79 331.5,-49 182.5,-49"/>
<text text-anchor="start" x="190.5" y="-67" font-family="Helvetica,sans-Serif" font-size="10.00">RoR::GUIManager::SetVisible</text>
<text text-anchor="middle" x="257" y="-56" font-family="Helvetica,sans-Serif" font-size="10.00">_GamePauseMenu</text>
</a>
</g>
</g>
<!-- Node1&#45;&gt;Node2 -->
<g id="edge1" class="edge"><title>Node1&#45;&gt;Node2</title>
<path fill="none" stroke="midnightblue" d="M155.631,-50.2131C164.516,-51.4335 173.52,-52.6704 182.302,-53.8767"/>
<polygon fill="midnightblue" stroke="midnightblue" points="156.053,-46.7383 145.67,-48.8448 155.101,-53.6731 156.053,-46.7383"/>
</g>
<!-- Node4 -->
<g id="node4" class="node"><title>Node4</title>
<g id="a_node4"><a xlink:href="class_ro_r_1_1_g_u_i_manager.html#ab4ed29f54999b3bf85033f937b3736b9" target="_top" xlink:title="RoR::GUIManager::Reflect\lGameState">
<polygon fill="white" stroke="black" points="189,-0 189,-30 325,-30 325,-0 189,-0"/>
<text text-anchor="start" x="197" y="-18" font-family="Helvetica,sans-Serif" font-size="10.00">RoR::GUIManager::Reflect</text>
<text text-anchor="middle" x="257" y="-7" font-family="Helvetica,sans-Serif" font-size="10.00">GameState</text>
</a>
</g>
</g>
<!-- Node1&#45;&gt;Node4 -->
<g id="edge3" class="edge"><title>Node1&#45;&gt;Node4</title>
<path fill="none" stroke="midnightblue" d="M155.762,-28.2183C166.827,-26.759 178.077,-25.2755 188.847,-23.8553"/>
<polygon fill="midnightblue" stroke="midnightblue" points="155.127,-24.7716 145.67,-29.549 156.042,-31.7115 155.127,-24.7716"/>
</g>
<!-- Node3 -->
<g id="node3" class="node"><title>Node3</title>
<g id="a_node3"><a xlink:href="class_ro_r_frame_listener.html#acd8647e188fb8e838689492965b86faf" target="_top" xlink:title="RoRFrameListener::frameStarted">
<polygon fill="white" stroke="black" points="368.5,-54.5 368.5,-73.5 529.5,-73.5 529.5,-54.5 368.5,-54.5"/>
<text text-anchor="middle" x="449" y="-61.5" font-family="Helvetica,sans-Serif" font-size="10.00">RoRFrameListener::frameStarted</text>
</a>
</g>
</g>
<!-- Node2&#45;&gt;Node3 -->
<g id="edge2" class="edge"><title>Node2&#45;&gt;Node3</title>
<path fill="none" stroke="midnightblue" d="M341.947,-64C350.716,-64 359.611,-64 368.33,-64"/>
<polygon fill="midnightblue" stroke="midnightblue" points="341.731,-60.5001 331.731,-64 341.731,-67.5001 341.731,-60.5001"/>
</g>
<!-- Node5 -->
<g id="node5" class="node"><title>Node5</title>
<g id="a_node5"><a xlink:href="main_8cpp.html#a0ddf1224851353fc92bfbff6f499fa97" target="_top" xlink:title="main">
<polygon fill="white" stroke="black" points="430,-5.5 430,-24.5 468,-24.5 468,-5.5 430,-5.5"/>
<text text-anchor="middle" x="449" y="-12.5" font-family="Helvetica,sans-Serif" font-size="10.00">main</text>
</a>
</g>
</g>
<!-- Node4&#45;&gt;Node5 -->
<g id="edge4" class="edge"><title>Node4&#45;&gt;Node5</title>
<path fill="none" stroke="midnightblue" d="M335.399,-15C370.038,-15 407.912,-15 429.721,-15"/>
<polygon fill="midnightblue" stroke="midnightblue" points="335.254,-11.5001 325.254,-15 335.254,-18.5001 335.254,-11.5001"/>
</g>
<!-- Node6 -->
<g id="node6" class="node"><title>Node6</title>
<g id="a_node6"><a xlink:href="main_8cpp.html#a2922bc5d5c2d77a3020cfbf9df12aab0" target="_top" xlink:title="WinMain">
<polygon fill="white" stroke="black" points="566.5,-5.5 566.5,-24.5 621.5,-24.5 621.5,-5.5 566.5,-5.5"/>
<text text-anchor="middle" x="594" y="-12.5" font-family="Helvetica,sans-Serif" font-size="10.00">WinMain</text>
</a>
</g>
</g>
<!-- Node5&#45;&gt;Node6 -->
<g id="edge5" class="edge"><title>Node5&#45;&gt;Node6</title>
<path fill="none" stroke="midnightblue" d="M478.275,-15C503.839,-15 541.206,-15 566.278,-15"/>
<polygon fill="midnightblue" stroke="midnightblue" points="478.111,-11.5001 468.111,-15 478.111,-18.5001 478.111,-11.5001"/>
</g>
</g>
</svg>
