<?xml version="1.0" encoding="UTF-8" standalone="no"?>
<!DOCTYPE svg PUBLIC "-//W3C//DTD SVG 1.1//EN"
 "http://www.w3.org/Graphics/SVG/1.1/DTD/svg11.dtd">
<!-- Generated by graphviz version 2.36.0 (20140111.2315)
 -->
<!-- Title: RoR::GUI::MainSelector Pages: 1 -->
<svg width="484pt" height="154pt"
 viewBox="0.00 0.00 484.00 154.00" xmlns="http://www.w3.org/2000/svg" xmlns:xlink="http://www.w3.org/1999/xlink">
<g id="graph0" class="graph" transform="scale(1 1) rotate(0) translate(4 150)">
<title>RoR::GUI::MainSelector</title>
<polygon fill="white" stroke="none" points="-4,4 -4,-150 480,-150 480,4 -4,4"/>
<!-- Node1 -->
<g id="node1" class="node"><title>Node1</title>
<polygon fill="#bfbfbf" stroke="black" points="198,-0.5 198,-19.5 322,-19.5 322,-0.5 198,-0.5"/>
<text text-anchor="middle" x="260" y="-7.5" font-family="Helvetica,sans-Serif" font-size="10.00">RoR::GUI::MainSelector</text>
</g>
<!-- Node2 -->
<g id="node2" class="node"><title>Node2</title>
<g id="a_node2"><a xlink:href="class_ro_r_1_1_g_u_i_1_1_main_selector_layout.html" target="_top" xlink:title="RoR::GUI::MainSelectorLayout">
<polygon fill="white" stroke="black" points="-0.5,-68.5 -0.5,-87.5 152.5,-87.5 152.5,-68.5 -0.5,-68.5"/>
<text text-anchor="middle" x="76" y="-75.5" font-family="Helvetica,sans-Serif" font-size="10.00">RoR::GUI::MainSelectorLayout</text>
</a>
</g>
</g>
<!-- Node2&#45;&gt;Node1 -->
<g id="edge1" class="edge"><title>Node2&#45;&gt;Node1</title>
<path fill="none" stroke="midnightblue" d="M109.803,-64.875C146.469,-51.723 204.059,-31.066 236.231,-19.5259"/>
<polygon fill="midnightblue" stroke="midnightblue" points="108.286,-61.7008 100.055,-68.3717 110.649,-68.2897 108.286,-61.7008"/>
</g>
<!-- Node3 -->
<g id="node3" class="node"><title>Node3</title>
<g id="a_node3"><a xlink:href="classwraps_1_1_base_layout.html" target="_top" xlink:title="wraps::BaseLayout">
<polygon fill="white" stroke="black" points="25.5,-126.5 25.5,-145.5 126.5,-145.5 126.5,-126.5 25.5,-126.5"/>
<text text-anchor="middle" x="76" y="-133.5" font-family="Helvetica,sans-Serif" font-size="10.00">wraps::BaseLayout</text>
</a>
</g>
</g>
<!-- Node3&#45;&gt;Node2 -->
<g id="edge2" class="edge"><title>Node3&#45;&gt;Node2</title>
<path fill="none" stroke="midnightblue" d="M76,-115.953C76,-106.287 76,-95.0312 76,-87.5052"/>
<polygon fill="midnightblue" stroke="midnightblue" points="72.5001,-116.25 76,-126.25 79.5001,-116.25 72.5001,-116.25"/>
</g>
<!-- Node4 -->
<g id="node4" class="node"><title>Node4</title>
<g id="a_node4"><a xlink:href="struct_ro_r_1_1_skin_def.html" target="_top" xlink:title="RoR::SkinDef">
<polygon fill="white" stroke="black" points="171,-68.5 171,-87.5 249,-87.5 249,-68.5 171,-68.5"/>
<text text-anchor="middle" x="210" y="-75.5" font-family="Helvetica,sans-Serif" font-size="10.00">RoR::SkinDef</text>
</a>
</g>
</g>
<!-- Node4&#45;&gt;Node1 -->
<g id="edge3" class="edge"><title>Node4&#45;&gt;Node1</title>
<path fill="none" stroke="#9a32cd" stroke-dasharray="5,2" d="M206.748,-57.8931C206.536,-51.1798 207.438,-43.8574 211,-38 216.047,-29.7013 224.628,-23.7661 233.212,-19.6142"/>
<polygon fill="#9a32cd" stroke="#9a32cd" points="203.314,-58.6904 207.883,-68.2497 210.273,-57.9279 203.314,-58.6904"/>
<text text-anchor="middle" x="249.5" y="-41.5" font-family="Helvetica,sans-Serif" font-size="10.00"> m_selected_skin</text>
</g>
<!-- Node5 -->
<g id="node5" class="node"><title>Node5</title>
<g id="a_node5"><a xlink:href="class_cache_entry.html" target="_top" xlink:title="CacheEntry">
<polygon fill="white" stroke="black" points="276,-68.5 276,-87.5 344,-87.5 344,-68.5 276,-68.5"/>
<text text-anchor="middle" x="310" y="-75.5" font-family="Helvetica,sans-Serif" font-size="10.00">CacheEntry</text>
</a>
</g>
</g>
<!-- Node5&#45;&gt;Node1 -->
<g id="edge4" class="edge"><title>Node5&#45;&gt;Node1</title>
<path fill="none" stroke="#9a32cd" stroke-dasharray="5,2" d="M301.261,-59.0017C297.578,-52.1486 292.987,-44.4438 288,-38 282.793,-31.2708 275.928,-24.6249 270.3,-19.6105"/>
<polygon fill="#9a32cd" stroke="#9a32cd" points="298.286,-60.8709 305.949,-68.1867 304.521,-57.6886 298.286,-60.8709"/>
<text text-anchor="middle" x="336.5" y="-41.5" font-family="Helvetica,sans-Serif" font-size="10.00"> m_selected_entry</text>
</g>
<!-- Node6 -->
<g id="node6" class="node"><title>Node6</title>
<g id="a_node6"><a xlink:href="class_ro_r_1_1_skin_manager.html" target="_top" xlink:title="Manages Skin resources, parsing .skin files and generally organizing them. ">
<polygon fill="white" stroke="black" points="364,-68.5 364,-87.5 464,-87.5 464,-68.5 364,-68.5"/>
<text text-anchor="middle" x="414" y="-75.5" font-family="Helvetica,sans-Serif" font-size="10.00">RoR::SkinManager</text>
</a>
</g>
</g>
<!-- Node6&#45;&gt;Node1 -->
<g id="edge5" class="edge"><title>Node6&#45;&gt;Node1</title>
<path fill="none" stroke="#9a32cd" stroke-dasharray="5,2" d="M403.359,-59.9172C397.649,-52.108 389.945,-43.4114 381,-38 363.413,-27.3608 342.108,-20.902 322.308,-16.9852"/>
<polygon fill="#9a32cd" stroke="#9a32cd" points="400.605,-62.0942 409.1,-68.4268 406.408,-58.1794 400.605,-62.0942"/>
<text text-anchor="middle" x="434" y="-41.5" font-family="Helvetica,sans-Serif" font-size="10.00"> m_skin_manager</text>
</g>
<!-- Node7 -->
<g id="node7" class="node"><title>Node7</title>
<polygon fill="white" stroke="#bfbfbf" points="352.5,-126.5 352.5,-145.5 475.5,-145.5 475.5,-126.5 352.5,-126.5"/>
<text text-anchor="middle" x="414" y="-133.5" font-family="Helvetica,sans-Serif" font-size="10.00">Ogre::ResourceManager</text>
</g>
<!-- Node7&#45;&gt;Node6 -->
<g id="edge6" class="edge"><title>Node7&#45;&gt;Node6</title>
<path fill="none" stroke="midnightblue" d="M414,-115.953C414,-106.287 414,-95.0312 414,-87.5052"/>
<polygon fill="midnightblue" stroke="midnightblue" points="410.5,-116.25 414,-126.25 417.5,-116.25 410.5,-116.25"/>
</g>
</g>
</svg>
