<?xml version="1.0" encoding="UTF-8" standalone="no"?>
<!DOCTYPE svg PUBLIC "-//W3C//DTD SVG 1.1//EN"
 "http://www.w3.org/Graphics/SVG/1.1/DTD/svg11.dtd">
<!-- Generated by graphviz version 2.36.0 (20140111.2315)
 -->
<!-- Title: RoR::SceneMouse::update Pages: 1 -->
<svg width="348pt" height="104pt"
 viewBox="0.00 0.00 348.00 104.00" xmlns="http://www.w3.org/2000/svg" xmlns:xlink="http://www.w3.org/1999/xlink">
<g id="graph0" class="graph" transform="scale(1 1) rotate(0) translate(4 100)">
<title>RoR::SceneMouse::update</title>
<polygon fill="white" stroke="none" points="-4,4 -4,-100 344,-100 344,4 -4,4"/>
<!-- Node1 -->
<g id="node1" class="node"><title>Node1</title>
<polygon fill="#bfbfbf" stroke="black" points="0.5,-38.5 0.5,-57.5 135.5,-57.5 135.5,-38.5 0.5,-38.5"/>
<text text-anchor="middle" x="68" y="-45.5" font-family="Helvetica,sans-Serif" font-size="10.00">RoR::SceneMouse::update</text>
</g>
<!-- Node2 -->
<g id="node2" class="node"><title>Node2</title>
<g id="a_node2"><a xlink:href="namespace_ro_r_1_1_app.html#a7d08f57d04e928e5acd0258383a53efc" target="_top" xlink:title="RoR::App::GetActiveSimState">
<polygon fill="white" stroke="black" points="181,-76.5 181,-95.5 331,-95.5 331,-76.5 181,-76.5"/>
<text text-anchor="middle" x="256" y="-83.5" font-family="Helvetica,sans-Serif" font-size="10.00">RoR::App::GetActiveSimState</text>
</a>
</g>
</g>
<!-- Node1&#45;&gt;Node2 -->
<g id="edge1" class="edge"><title>Node1&#45;&gt;Node2</title>
<path fill="none" stroke="midnightblue" d="M115.936,-57.589C141.033,-62.7165 172.119,-69.0672 198.53,-74.4632"/>
<polygon fill="midnightblue" stroke="midnightblue" points="197.904,-77.9074 208.402,-76.4799 199.305,-71.049 197.904,-77.9074"/>
</g>
<!-- Node3 -->
<g id="node3" class="node"><title>Node3</title>
<g id="a_node3"><a xlink:href="class_ro_r_1_1_scene_mouse.html#ac09143f60df04b55807fbe8550404b00" target="_top" xlink:title="RoR::SceneMouse::getMouseRay">
<polygon fill="white" stroke="black" points="172.5,-38.5 172.5,-57.5 339.5,-57.5 339.5,-38.5 172.5,-38.5"/>
<text text-anchor="middle" x="256" y="-45.5" font-family="Helvetica,sans-Serif" font-size="10.00">RoR::SceneMouse::getMouseRay</text>
</a>
</g>
</g>
<!-- Node1&#45;&gt;Node3 -->
<g id="edge2" class="edge"><title>Node1&#45;&gt;Node3</title>
<path fill="none" stroke="midnightblue" d="M135.625,-48C144.259,-48 153.223,-48 162.186,-48"/>
<polygon fill="midnightblue" stroke="midnightblue" points="162.286,-51.5001 172.286,-48 162.286,-44.5001 162.286,-51.5001"/>
</g>
<!-- Node4 -->
<g id="node4" class="node"><title>Node4</title>
<g id="a_node4"><a xlink:href="class_beam.html#a465164195a8158babeaa9506f91d52de" target="_top" xlink:title="Beam::mouseMove">
<polygon fill="white" stroke="black" points="205.5,-0.5 205.5,-19.5 306.5,-19.5 306.5,-0.5 205.5,-0.5"/>
<text text-anchor="middle" x="256" y="-7.5" font-family="Helvetica,sans-Serif" font-size="10.00">Beam::mouseMove</text>
</a>
</g>
</g>
<!-- Node1&#45;&gt;Node4 -->
<g id="edge3" class="edge"><title>Node1&#45;&gt;Node4</title>
<path fill="none" stroke="midnightblue" d="M115.936,-38.411C141.033,-33.2835 172.119,-26.9328 198.53,-21.5368"/>
<polygon fill="midnightblue" stroke="midnightblue" points="199.305,-24.951 208.402,-19.5201 197.904,-18.0926 199.305,-24.951"/>
</g>
</g>
</svg>
