<?xml version="1.0" encoding="UTF-8" standalone="no"?>
<!DOCTYPE svg PUBLIC "-//W3C//DTD SVG 1.1//EN"
 "http://www.w3.org/Graphics/SVG/1.1/DTD/svg11.dtd">
<!-- Generated by graphviz version 2.36.0 (20140111.2315)
 -->
<!-- Title: RigDef::Parser::_ParseNodeOptions Pages: 1 -->
<svg width="1236pt" height="87pt"
 viewBox="0.00 0.00 1236.00 87.00" xmlns="http://www.w3.org/2000/svg" xmlns:xlink="http://www.w3.org/1999/xlink">
<g id="graph0" class="graph" transform="scale(1 1) rotate(0) translate(4 83)">
<title>RigDef::Parser::_ParseNodeOptions</title>
<polygon fill="white" stroke="none" points="-4,4 -4,-83 1232,-83 1232,4 -4,4"/>
<!-- Node1 -->
<g id="node1" class="node"><title>Node1</title>
<polygon fill="#bfbfbf" stroke="black" points="0,-24 0,-54 142,-54 142,-24 0,-24"/>
<text text-anchor="start" x="8" y="-42" font-family="Helvetica,sans-Serif" font-size="10.00">RigDef::Parser::_ParseNode</text>
<text text-anchor="middle" x="71" y="-31" font-family="Helvetica,sans-Serif" font-size="10.00">Options</text>
</g>
<!-- Node2 -->
<g id="node2" class="node"><title>Node2</title>
<g id="a_node2"><a xlink:href="class_rig_def_1_1_parser.html#af479f1b644a69613107891a791eb7fcb" target="_top" xlink:title="RigDef::Parser::ParseDirective\lSetNodeDefaults">
<polygon fill="white" stroke="black" points="178,-49 178,-79 330,-79 330,-49 178,-49"/>
<text text-anchor="start" x="186" y="-67" font-family="Helvetica,sans-Serif" font-size="10.00">RigDef::Parser::ParseDirective</text>
<text text-anchor="middle" x="254" y="-56" font-family="Helvetica,sans-Serif" font-size="10.00">SetNodeDefaults</text>
</a>
</g>
</g>
<!-- Node1&#45;&gt;Node2 -->
<g id="edge1" class="edge"><title>Node1&#45;&gt;Node2</title>
<path fill="none" stroke="midnightblue" d="M152.419,-50.1076C160.829,-51.2692 169.356,-52.447 177.706,-53.6003"/>
<polygon fill="midnightblue" stroke="midnightblue" points="152.623,-46.6027 142.238,-48.7014 151.665,-53.5368 152.623,-46.6027"/>
</g>
<!-- Node9 -->
<g id="node9" class="node"><title>Node9</title>
<g id="a_node9"><a xlink:href="class_rig_def_1_1_parser.html#ab51bfc6218f4c104444db174b6272798" target="_top" xlink:title="RigDef::Parser::ParseNodes\lUnified">
<polygon fill="white" stroke="black" points="183,-0 183,-30 325,-30 325,-0 183,-0"/>
<text text-anchor="start" x="191" y="-18" font-family="Helvetica,sans-Serif" font-size="10.00">RigDef::Parser::ParseNodes</text>
<text text-anchor="middle" x="254" y="-7" font-family="Helvetica,sans-Serif" font-size="10.00">Unified</text>
</a>
</g>
</g>
<!-- Node1&#45;&gt;Node9 -->
<g id="edge8" class="edge"><title>Node1&#45;&gt;Node9</title>
<path fill="none" stroke="midnightblue" d="M152.322,-28.3496C162.482,-27.0024 172.815,-25.6322 182.801,-24.3081"/>
<polygon fill="midnightblue" stroke="midnightblue" points="151.692,-24.9024 142.238,-29.6866 152.612,-31.8417 151.692,-24.9024"/>
</g>
<!-- Node3 -->
<g id="node3" class="node"><title>Node3</title>
<g id="a_node3"><a xlink:href="class_rig_def_1_1_parser.html#a99a49d75798b1fa5dfbd00873455fbeb" target="_top" xlink:title="RigDef::Parser::ProcessCurrentLine">
<polygon fill="white" stroke="black" points="366,-29.5 366,-48.5 540,-48.5 540,-29.5 366,-29.5"/>
<text text-anchor="middle" x="453" y="-36.5" font-family="Helvetica,sans-Serif" font-size="10.00">RigDef::Parser::ProcessCurrentLine</text>
</a>
</g>
</g>
<!-- Node2&#45;&gt;Node3 -->
<g id="edge2" class="edge"><title>Node2&#45;&gt;Node3</title>
<path fill="none" stroke="midnightblue" d="M340.199,-53.1879C352.392,-51.6406 364.862,-50.0581 376.843,-48.5377"/>
<polygon fill="midnightblue" stroke="midnightblue" points="339.519,-49.7461 330.039,-54.4773 340.4,-56.6904 339.519,-49.7461"/>
</g>
<!-- Node4 -->
<g id="node4" class="node"><title>Node4</title>
<g id="a_node4"><a xlink:href="class_rig_def_1_1_parser.html#ad1920ba0a8dc23ac5043b2c270ef5f47" target="_top" xlink:title="RigDef::Parser::ProcessRawLine">
<polygon fill="white" stroke="black" points="576,-29.5 576,-48.5 738,-48.5 738,-29.5 576,-29.5"/>
<text text-anchor="middle" x="657" y="-36.5" font-family="Helvetica,sans-Serif" font-size="10.00">RigDef::Parser::ProcessRawLine</text>
</a>
</g>
</g>
<!-- Node3&#45;&gt;Node4 -->
<g id="edge3" class="edge"><title>Node3&#45;&gt;Node4</title>
<path fill="none" stroke="midnightblue" d="M550.255,-39C558.806,-39 567.403,-39 575.799,-39"/>
<polygon fill="midnightblue" stroke="midnightblue" points="550.252,-35.5001 540.252,-39 550.252,-42.5001 550.252,-35.5001"/>
</g>
<!-- Node5 -->
<g id="node5" class="node"><title>Node5</title>
<g id="a_node5"><a xlink:href="class_rig_def_1_1_parser.html#ab08d0ba4ffb90b72cb351014bb7861bd" target="_top" xlink:title="RigDef::Parser::ProcessOgre\lStream">
<polygon fill="white" stroke="black" points="774.5,-24 774.5,-54 919.5,-54 919.5,-24 774.5,-24"/>
<text text-anchor="start" x="782.5" y="-42" font-family="Helvetica,sans-Serif" font-size="10.00">RigDef::Parser::ProcessOgre</text>
<text text-anchor="middle" x="847" y="-31" font-family="Helvetica,sans-Serif" font-size="10.00">Stream</text>
</a>
</g>
</g>
<!-- Node4&#45;&gt;Node5 -->
<g id="edge4" class="edge"><title>Node4&#45;&gt;Node5</title>
<path fill="none" stroke="midnightblue" d="M748.261,-39C757.034,-39 765.85,-39 774.403,-39"/>
<polygon fill="midnightblue" stroke="midnightblue" points="748.002,-35.5001 738.002,-39 748.001,-42.5001 748.002,-35.5001"/>
</g>
<!-- Node6 -->
<g id="node6" class="node"><title>Node6</title>
<g id="a_node6"><a xlink:href="class_beam.html#ab0cbc6c4e3822fc5786af2c8036f7efb" target="_top" xlink:title="Beam::LoadTruck">
<polygon fill="white" stroke="black" points="990,-48.5 990,-67.5 1084,-67.5 1084,-48.5 990,-48.5"/>
<text text-anchor="middle" x="1037" y="-55.5" font-family="Helvetica,sans-Serif" font-size="10.00">Beam::LoadTruck</text>
</a>
</g>
</g>
<!-- Node5&#45;&gt;Node6 -->
<g id="edge5" class="edge"><title>Node5&#45;&gt;Node6</title>
<path fill="none" stroke="midnightblue" d="M929.649,-47.2517C950.264,-49.3352 971.686,-51.5002 989.855,-53.3364"/>
<polygon fill="midnightblue" stroke="midnightblue" points="929.912,-43.7606 919.611,-46.2373 929.208,-50.7252 929.912,-43.7606"/>
</g>
<!-- Node8 -->
<g id="node8" class="node"><title>Node8</title>
<g id="a_node8"><a xlink:href="class_cache_system.html#ad640fd28c3075eb6310d8d8f3475cefb" target="_top" xlink:title="CacheSystem::fillTruckDetailInfo">
<polygon fill="white" stroke="black" points="956.5,-10.5 956.5,-29.5 1117.5,-29.5 1117.5,-10.5 956.5,-10.5"/>
<text text-anchor="middle" x="1037" y="-17.5" font-family="Helvetica,sans-Serif" font-size="10.00">CacheSystem::fillTruckDetailInfo</text>
</a>
</g>
</g>
<!-- Node5&#45;&gt;Node8 -->
<g id="edge7" class="edge"><title>Node5&#45;&gt;Node8</title>
<path fill="none" stroke="midnightblue" d="M929.584,-30.7548C938.49,-29.8547 947.547,-28.9394 956.429,-28.0418"/>
<polygon fill="midnightblue" stroke="midnightblue" points="929.208,-27.2748 919.611,-31.7627 929.912,-34.2394 929.208,-27.2748"/>
</g>
<!-- Node7 -->
<g id="node7" class="node"><title>Node7</title>
<g id="a_node7"><a xlink:href="class_beam.html#a0d55b25fa0d1623305f3ac51694cbd42" target="_top" xlink:title="Beam::Beam">
<polygon fill="white" stroke="black" points="1154,-48.5 1154,-67.5 1228,-67.5 1228,-48.5 1154,-48.5"/>
<text text-anchor="middle" x="1191" y="-55.5" font-family="Helvetica,sans-Serif" font-size="10.00">Beam::Beam</text>
</a>
</g>
</g>
<!-- Node6&#45;&gt;Node7 -->
<g id="edge6" class="edge"><title>Node6&#45;&gt;Node7</title>
<path fill="none" stroke="midnightblue" d="M1094.22,-58C1114.13,-58 1135.98,-58 1153.79,-58"/>
<polygon fill="midnightblue" stroke="midnightblue" points="1094.02,-54.5001 1084.02,-58 1094.02,-61.5001 1094.02,-54.5001"/>
</g>
<!-- Node9&#45;&gt;Node3 -->
<g id="edge9" class="edge"><title>Node9&#45;&gt;Node3</title>
<path fill="none" stroke="midnightblue" d="M335.143,-24.7636C347.915,-26.3195 361.113,-27.9274 373.838,-29.4777"/>
<polygon fill="midnightblue" stroke="midnightblue" points="335.359,-21.2642 325.01,-23.5291 334.513,-28.2128 335.359,-21.2642"/>
</g>
</g>
</svg>
