<?xml version="1.0" encoding="UTF-8" standalone="no"?>
<!DOCTYPE svg PUBLIC "-//W3C//DTD SVG 1.1//EN"
 "http://www.w3.org/Graphics/SVG/1.1/DTD/svg11.dtd">
<!-- Generated by graphviz version 2.36.0 (20140111.2315)
 -->
<!-- Title: Ogre::MovableText::setAdditionalHeight Pages: 1 -->
<svg width="1566pt" height="155pt"
 viewBox="0.00 0.00 1566.00 155.00" xmlns="http://www.w3.org/2000/svg" xmlns:xlink="http://www.w3.org/1999/xlink">
<g id="graph0" class="graph" transform="scale(1 1) rotate(0) translate(4 151)">
<title>Ogre::MovableText::setAdditionalHeight</title>
<polygon fill="white" stroke="none" points="-4,4 -4,-151 1562,-151 1562,4 -4,4"/>
<!-- Node1 -->
<g id="node1" class="node"><title>Node1</title>
<polygon fill="#bfbfbf" stroke="black" points="0,-65 0,-95 106,-95 106,-65 0,-65"/>
<text text-anchor="start" x="8" y="-83" font-family="Helvetica,sans-Serif" font-size="10.00">Ogre::MovableText::</text>
<text text-anchor="middle" x="53" y="-72" font-family="Helvetica,sans-Serif" font-size="10.00">setAdditionalHeight</text>
</g>
<!-- Node2 -->
<g id="node2" class="node"><title>Node2</title>
<g id="a_node2"><a xlink:href="class_character.html#a2b381f85738c4ede878be18925e1ce81" target="_top" xlink:title="Character::Character">
<polygon fill="white" stroke="black" points="160,-127.5 160,-146.5 268,-146.5 268,-127.5 160,-127.5"/>
<text text-anchor="middle" x="214" y="-134.5" font-family="Helvetica,sans-Serif" font-size="10.00">Character::Character</text>
</a>
</g>
</g>
<!-- Node1&#45;&gt;Node2 -->
<g id="edge1" class="edge"><title>Node1&#45;&gt;Node2</title>
<path fill="none" stroke="midnightblue" d="M102.827,-98.6352C115.549,-103.401 129.262,-108.46 142,-113 155.727,-117.892 171.033,-123.098 183.909,-127.406"/>
<polygon fill="midnightblue" stroke="midnightblue" points="103.917,-95.3056 93.3245,-95.061 101.452,-101.857 103.917,-95.3056"/>
</g>
<!-- Node3 -->
<g id="node3" class="node"><title>Node3</title>
<g id="a_node3"><a xlink:href="class_collisions.html#a50cf1fc86be3b7e69b687256f6d5d1f3" target="_top" xlink:title="Collisions::addCollisionBox">
<polygon fill="white" stroke="black" points="146,-51.5 146,-70.5 282,-70.5 282,-51.5 146,-51.5"/>
<text text-anchor="middle" x="214" y="-58.5" font-family="Helvetica,sans-Serif" font-size="10.00">Collisions::addCollisionBox</text>
</a>
</g>
</g>
<!-- Node1&#45;&gt;Node3 -->
<g id="edge2" class="edge"><title>Node1&#45;&gt;Node3</title>
<path fill="none" stroke="midnightblue" d="M116.055,-72.5846C125.796,-71.4206 135.905,-70.2126 145.757,-69.0353"/>
<polygon fill="midnightblue" stroke="midnightblue" points="115.577,-69.1168 106.063,-73.7787 116.407,-76.0674 115.577,-69.1168"/>
</g>
<!-- Node13 -->
<g id="node13" class="node"><title>Node13</title>
<g id="a_node13"><a xlink:href="class_collisions.html#a671f48109ee3e019d5eb10cc93ea3383" target="_top" xlink:title="Collisions::createCollision\lDebugVisualization">
<polygon fill="white" stroke="black" points="322,-90 322,-120 452,-120 452,-90 322,-90"/>
<text text-anchor="start" x="330" y="-108" font-family="Helvetica,sans-Serif" font-size="10.00">Collisions::createCollision</text>
<text text-anchor="middle" x="387" y="-97" font-family="Helvetica,sans-Serif" font-size="10.00">DebugVisualization</text>
</a>
</g>
</g>
<!-- Node1&#45;&gt;Node13 -->
<g id="edge12" class="edge"><title>Node1&#45;&gt;Node13</title>
<path fill="none" stroke="midnightblue" d="M116.489,-84.7055C175.184,-89.1253 262.608,-95.7084 321.84,-100.169"/>
<polygon fill="midnightblue" stroke="midnightblue" points="116.475,-81.1946 106.24,-83.9338 115.949,-88.1748 116.475,-81.1946"/>
</g>
<!-- Node15 -->
<g id="node15" class="node"><title>Node15</title>
<g id="a_node15"><a xlink:href="class_collisions.html#a285399f2b679c1d0b649b71aa805d5f3" target="_top" xlink:title="Collisions::addCollisionMesh">
<polygon fill="white" stroke="black" points="142.5,-13.5 142.5,-32.5 285.5,-32.5 285.5,-13.5 142.5,-13.5"/>
<text text-anchor="middle" x="214" y="-20.5" font-family="Helvetica,sans-Serif" font-size="10.00">Collisions::addCollisionMesh</text>
</a>
</g>
</g>
<!-- Node1&#45;&gt;Node15 -->
<g id="edge15" class="edge"><title>Node1&#45;&gt;Node15</title>
<path fill="none" stroke="midnightblue" d="M95.0245,-60.8075C109.665,-54.3541 126.398,-47.4236 142,-42 152.004,-38.5225 162.984,-35.3027 173.256,-32.539"/>
<polygon fill="midnightblue" stroke="midnightblue" points="93.4391,-57.6824 85.7382,-64.9589 96.296,-64.0729 93.4391,-57.6824"/>
</g>
<!-- Node4 -->
<g id="node4" class="node"><title>Node4</title>
<g id="a_node4"><a xlink:href="class_terrain_object_manager.html#a62a108ad201e16585ab3115befedae60" target="_top" xlink:title="TerrainObjectManager\l::loadObject">
<polygon fill="white" stroke="black" points="330.5,-41 330.5,-71 443.5,-71 443.5,-41 330.5,-41"/>
<text text-anchor="start" x="338.5" y="-59" font-family="Helvetica,sans-Serif" font-size="10.00">TerrainObjectManager</text>
<text text-anchor="middle" x="387" y="-48" font-family="Helvetica,sans-Serif" font-size="10.00">::loadObject</text>
</a>
</g>
</g>
<!-- Node3&#45;&gt;Node4 -->
<g id="edge3" class="edge"><title>Node3&#45;&gt;Node4</title>
<path fill="none" stroke="midnightblue" d="M292.316,-58.7393C305.158,-58.3638 318.248,-57.981 330.414,-57.6253"/>
<polygon fill="midnightblue" stroke="midnightblue" points="291.986,-55.2473 282.093,-59.0382 292.191,-62.2444 291.986,-55.2473"/>
</g>
<!-- Node5 -->
<g id="node5" class="node"><title>Node5</title>
<g id="a_node5"><a xlink:href="class_game_script.html#adc155d46516906fb9bfddde649c02ee6" target="_top" xlink:title="GameScript::spawnObject">
<polygon fill="white" stroke="black" points="488.5,-49.5 488.5,-68.5 619.5,-68.5 619.5,-49.5 488.5,-49.5"/>
<text text-anchor="middle" x="554" y="-56.5" font-family="Helvetica,sans-Serif" font-size="10.00">GameScript::spawnObject</text>
</a>
</g>
</g>
<!-- Node4&#45;&gt;Node5 -->
<g id="edge4" class="edge"><title>Node4&#45;&gt;Node5</title>
<path fill="none" stroke="midnightblue" d="M454.091,-57.2016C465.388,-57.4071 477.113,-57.6202 488.372,-57.8249"/>
<polygon fill="midnightblue" stroke="midnightblue" points="453.923,-53.6981 443.861,-57.0157 453.796,-60.697 453.923,-53.6981"/>
</g>
<!-- Node6 -->
<g id="node6" class="node"><title>Node6</title>
<g id="a_node6"><a xlink:href="class_terrain_object_manager.html#a45ccbf51f9c0ecac68927fed5e52eaa4" target="_top" xlink:title="TerrainObjectManager\l::loadObjectConfigFile">
<polygon fill="white" stroke="black" points="497.5,-0 497.5,-30 610.5,-30 610.5,-0 497.5,-0"/>
<text text-anchor="start" x="505.5" y="-18" font-family="Helvetica,sans-Serif" font-size="10.00">TerrainObjectManager</text>
<text text-anchor="middle" x="554" y="-7" font-family="Helvetica,sans-Serif" font-size="10.00">::loadObjectConfigFile</text>
</a>
</g>
</g>
<!-- Node4&#45;&gt;Node6 -->
<g id="edge5" class="edge"><title>Node4&#45;&gt;Node6</title>
<path fill="none" stroke="midnightblue" d="M453.752,-39.6617C468.237,-36.0622 483.442,-32.2841 497.476,-28.7968"/>
<polygon fill="midnightblue" stroke="midnightblue" points="452.722,-36.311 443.861,-42.1193 454.41,-43.1044 452.722,-36.311"/>
</g>
<!-- Node7 -->
<g id="node7" class="node"><title>Node7</title>
<g id="a_node7"><a xlink:href="class_terrain_manager.html#a4ad87b973cb6af52daaf530a5feff167" target="_top" xlink:title="TerrainManager::loadTerrain\lObjects">
<polygon fill="white" stroke="black" points="656,-19 656,-49 794,-49 794,-19 656,-19"/>
<text text-anchor="start" x="664" y="-37" font-family="Helvetica,sans-Serif" font-size="10.00">TerrainManager::loadTerrain</text>
<text text-anchor="middle" x="725" y="-26" font-family="Helvetica,sans-Serif" font-size="10.00">Objects</text>
</a>
</g>
</g>
<!-- Node6&#45;&gt;Node7 -->
<g id="edge6" class="edge"><title>Node6&#45;&gt;Node7</title>
<path fill="none" stroke="midnightblue" d="M620.779,-22.3953C632.299,-23.6904 644.306,-25.0404 655.887,-26.3423"/>
<polygon fill="midnightblue" stroke="midnightblue" points="621.134,-18.9132 610.805,-21.274 620.352,-25.8694 621.134,-18.9132"/>
</g>
<!-- Node8 -->
<g id="node8" class="node"><title>Node8</title>
<g id="a_node8"><a xlink:href="class_terrain_manager.html#a9a04c837bf2ea6528c465b27ca62f730" target="_top" xlink:title="TerrainManager::loadTerrain">
<polygon fill="white" stroke="black" points="830,-53.5 830,-72.5 968,-72.5 968,-53.5 830,-53.5"/>
<text text-anchor="middle" x="899" y="-60.5" font-family="Helvetica,sans-Serif" font-size="10.00">TerrainManager::loadTerrain</text>
</a>
</g>
</g>
<!-- Node7&#45;&gt;Node8 -->
<g id="edge7" class="edge"><title>Node7&#45;&gt;Node8</title>
<path fill="none" stroke="midnightblue" d="M804.461,-47.2289C816.998,-49.3426 829.75,-51.4927 841.641,-53.4976"/>
<polygon fill="midnightblue" stroke="midnightblue" points="804.916,-43.7563 794.473,-45.5449 803.752,-50.6588 804.916,-43.7563"/>
</g>
<!-- Node9 -->
<g id="node9" class="node"><title>Node9</title>
<g id="a_node9"><a xlink:href="class_ro_r_frame_listener.html#a9757c059e840019a3e2659d5ef63ea02" target="_top" xlink:title="Reads GVar &#39;sim_terrain_pending&#39;. ">
<polygon fill="white" stroke="black" points="1004,-53.5 1004,-72.5 1160,-72.5 1160,-53.5 1004,-53.5"/>
<text text-anchor="middle" x="1082" y="-60.5" font-family="Helvetica,sans-Serif" font-size="10.00">RoRFrameListener::LoadTerrain</text>
</a>
</g>
</g>
<!-- Node8&#45;&gt;Node9 -->
<g id="edge8" class="edge"><title>Node8&#45;&gt;Node9</title>
<path fill="none" stroke="midnightblue" d="M978.362,-63C986.792,-63 995.366,-63 1003.78,-63"/>
<polygon fill="midnightblue" stroke="midnightblue" points="978.17,-59.5001 968.17,-63 978.17,-66.5001 978.17,-59.5001"/>
</g>
<!-- Node10 -->
<g id="node10" class="node"><title>Node10</title>
<g id="a_node10"><a xlink:href="class_ro_r_frame_listener.html#aca3931d7a75f2ad4b9d36c4fcd03a3c9" target="_top" xlink:title="RoRFrameListener::SetupGameplayLoop">
<polygon fill="white" stroke="black" points="1196,-53.5 1196,-72.5 1392,-72.5 1392,-53.5 1196,-53.5"/>
<text text-anchor="middle" x="1294" y="-60.5" font-family="Helvetica,sans-Serif" font-size="10.00">RoRFrameListener::SetupGameplayLoop</text>
</a>
</g>
</g>
<!-- Node9&#45;&gt;Node10 -->
<g id="edge9" class="edge"><title>Node9&#45;&gt;Node10</title>
<path fill="none" stroke="midnightblue" d="M1170.26,-63C1178.75,-63 1187.4,-63 1195.98,-63"/>
<polygon fill="midnightblue" stroke="midnightblue" points="1170,-59.5001 1160,-63 1170,-66.5001 1170,-59.5001"/>
</g>
<!-- Node11 -->
<g id="node11" class="node"><title>Node11</title>
<g id="a_node11"><a xlink:href="main_8cpp.html#a0ddf1224851353fc92bfbff6f499fa97" target="_top" xlink:title="main">
<polygon fill="white" stroke="black" points="1428,-53.5 1428,-72.5 1466,-72.5 1466,-53.5 1428,-53.5"/>
<text text-anchor="middle" x="1447" y="-60.5" font-family="Helvetica,sans-Serif" font-size="10.00">main</text>
</a>
</g>
</g>
<!-- Node10&#45;&gt;Node11 -->
<g id="edge10" class="edge"><title>Node10&#45;&gt;Node11</title>
<path fill="none" stroke="midnightblue" d="M1402.52,-63C1412.03,-63 1420.71,-63 1427.77,-63"/>
<polygon fill="midnightblue" stroke="midnightblue" points="1402.34,-59.5001 1392.34,-63 1402.34,-66.5001 1402.34,-59.5001"/>
</g>
<!-- Node12 -->
<g id="node12" class="node"><title>Node12</title>
<g id="a_node12"><a xlink:href="main_8cpp.html#a2922bc5d5c2d77a3020cfbf9df12aab0" target="_top" xlink:title="WinMain">
<polygon fill="white" stroke="black" points="1502.5,-53.5 1502.5,-72.5 1557.5,-72.5 1557.5,-53.5 1502.5,-53.5"/>
<text text-anchor="middle" x="1530" y="-60.5" font-family="Helvetica,sans-Serif" font-size="10.00">WinMain</text>
</a>
</g>
</g>
<!-- Node11&#45;&gt;Node12 -->
<g id="edge11" class="edge"><title>Node11&#45;&gt;Node12</title>
<path fill="none" stroke="midnightblue" d="M1476.51,-63C1484.93,-63 1494.11,-63 1502.4,-63"/>
<polygon fill="midnightblue" stroke="midnightblue" points="1476.38,-59.5001 1466.38,-63 1476.38,-66.5001 1476.38,-59.5001"/>
</g>
<!-- Node14 -->
<g id="node14" class="node"><title>Node14</title>
<g id="a_node14"><a xlink:href="class_collisions.html#ae63812137037d5a0e4da7cfb6d3b9ed0" target="_top" xlink:title="Collisions::finishLoading\lTerrain">
<polygon fill="white" stroke="black" points="664,-77 664,-107 786,-107 786,-77 664,-77"/>
<text text-anchor="start" x="672" y="-95" font-family="Helvetica,sans-Serif" font-size="10.00">Collisions::finishLoading</text>
<text text-anchor="middle" x="725" y="-84" font-family="Helvetica,sans-Serif" font-size="10.00">Terrain</text>
</a>
</g>
</g>
<!-- Node13&#45;&gt;Node14 -->
<g id="edge13" class="edge"><title>Node13&#45;&gt;Node14</title>
<path fill="none" stroke="midnightblue" d="M462.649,-102.112C523.207,-99.7688 607.476,-96.5084 663.785,-94.3298"/>
<polygon fill="midnightblue" stroke="midnightblue" points="462.244,-98.6248 452.387,-102.509 462.514,-105.62 462.244,-98.6248"/>
</g>
<!-- Node14&#45;&gt;Node8 -->
<g id="edge14" class="edge"><title>Node14&#45;&gt;Node8</title>
<path fill="none" stroke="midnightblue" d="M796.445,-80.1226C811.491,-77.5858 827.194,-74.9382 841.629,-72.5045"/>
<polygon fill="midnightblue" stroke="midnightblue" points="795.436,-76.7433 786.157,-81.8572 796.6,-83.6458 795.436,-76.7433"/>
</g>
<!-- Node15&#45;&gt;Node4 -->
<g id="edge17" class="edge"><title>Node15&#45;&gt;Node4</title>
<path fill="none" stroke="midnightblue" d="M274.351,-34.4536C292.519,-37.9598 312.43,-41.8023 330.343,-45.2591"/>
<polygon fill="midnightblue" stroke="midnightblue" points="274.942,-31.0033 264.46,-32.545 273.616,-37.8765 274.942,-31.0033"/>
</g>
<!-- Node15&#45;&gt;Node6 -->
<g id="edge16" class="edge"><title>Node15&#45;&gt;Node6</title>
<path fill="none" stroke="midnightblue" d="M296.032,-21.0821C358.242,-19.6097 442.502,-17.6153 497.3,-16.3183"/>
<polygon fill="midnightblue" stroke="midnightblue" points="295.77,-17.5872 285.856,-21.3229 295.936,-24.5852 295.77,-17.5872"/>
</g>
</g>
</svg>
