<?xml version="1.0" encoding="UTF-8" standalone="no"?>
<!DOCTYPE svg PUBLIC "-//W3C//DTD SVG 1.1//EN"
 "http://www.w3.org/Graphics/SVG/1.1/DTD/svg11.dtd">
<!-- Generated by graphviz version 2.36.0 (20140111.2315)
 -->
<!-- Title: LocalStorage::getDegree Pages: 1 -->
<svg width="1242pt" height="355pt"
 viewBox="0.00 0.00 1242.00 354.72" xmlns="http://www.w3.org/2000/svg" xmlns:xlink="http://www.w3.org/1999/xlink">
<g id="graph0" class="graph" transform="scale(1 1) rotate(0) translate(4 350.722)">
<title>LocalStorage::getDegree</title>
<polygon fill="white" stroke="none" points="-4,4 -4,-350.722 1238,-350.722 1238,4 -4,4"/>
<!-- Node1 -->
<g id="node1" class="node"><title>Node1</title>
<polygon fill="#bfbfbf" stroke="black" points="0.5,-174.5 0.5,-193.5 125.5,-193.5 125.5,-174.5 0.5,-174.5"/>
<text text-anchor="middle" x="63" y="-181.5" font-family="Helvetica,sans-Serif" font-size="10.00">LocalStorage::getDegree</text>
</g>
<!-- Node2 -->
<g id="node2" class="node"><title>Node2</title>
<g id="a_node2"><a xlink:href="class_local_storage.html#aa18cb1ed34366948bbdd4d01775121a5" target="_top" xlink:title="LocalStorage::parseKey">
<polygon fill="white" stroke="black" points="162.5,-196.5 162.5,-215.5 283.5,-215.5 283.5,-196.5 162.5,-196.5"/>
<text text-anchor="middle" x="223" y="-203.5" font-family="Helvetica,sans-Serif" font-size="10.00">LocalStorage::parseKey</text>
</a>
</g>
</g>
<!-- Node1&#45;&gt;Node2 -->
<g id="edge1" class="edge"><title>Node1&#45;&gt;Node2</title>
<path fill="none" stroke="midnightblue" d="M125.539,-192.569C134.353,-193.796 143.472,-195.066 152.427,-196.313"/>
<polygon fill="midnightblue" stroke="midnightblue" points="152.056,-199.795 162.443,-197.707 153.021,-192.861 152.056,-199.795"/>
</g>
<!-- Node3 -->
<g id="node3" class="node"><title>Node3</title>
<g id="a_node3"><a xlink:href="class_improved_config_file.html#a5ac0b10fd60f3c9fcf758ed402287d78" target="_top" xlink:title="ImprovedConfigFile\l::getSettingRadian">
<polygon fill="white" stroke="black" points="172.5,-147 172.5,-177 273.5,-177 273.5,-147 172.5,-147"/>
<text text-anchor="start" x="180.5" y="-165" font-family="Helvetica,sans-Serif" font-size="10.00">ImprovedConfigFile</text>
<text text-anchor="middle" x="223" y="-154" font-family="Helvetica,sans-Serif" font-size="10.00">::getSettingRadian</text>
</a>
</g>
</g>
<!-- Node1&#45;&gt;Node3 -->
<g id="edge2" class="edge"><title>Node1&#45;&gt;Node3</title>
<path fill="none" stroke="midnightblue" d="M125.539,-175.431C137.468,-173.77 149.956,-172.031 161.841,-170.377"/>
<polygon fill="midnightblue" stroke="midnightblue" points="162.678,-173.794 172.099,-168.948 161.712,-166.861 162.678,-173.794"/>
</g>
<!-- Node4 -->
<g id="node4" class="node"><title>Node4</title>
<g id="a_node4"><a xlink:href="class_ro_r_1_1_config_file.html#abfd892376697c81b3636c52a19fd89a4" target="_top" xlink:title="RoR::ConfigFile::GetStringEx">
<polygon fill="white" stroke="black" points="320,-152.5 320,-171.5 466,-171.5 466,-152.5 320,-152.5"/>
<text text-anchor="middle" x="393" y="-159.5" font-family="Helvetica,sans-Serif" font-size="10.00">RoR::ConfigFile::GetStringEx</text>
</a>
</g>
</g>
<!-- Node3&#45;&gt;Node4 -->
<g id="edge3" class="edge"><title>Node3&#45;&gt;Node4</title>
<path fill="none" stroke="midnightblue" d="M273.951,-162C285.21,-162 297.451,-162 309.646,-162"/>
<polygon fill="midnightblue" stroke="midnightblue" points="309.857,-165.5 319.857,-162 309.857,-158.5 309.857,-165.5"/>
</g>
<!-- Node5 -->
<g id="node5" class="node"><title>Node5</title>
<g id="a_node5"><a xlink:href="namespace_ro_r_1_1_utils.html#ac62ee4a4a513a67cba1bdc7d9eb9c7a4" target="_top" xlink:title="RoR::Utils::SanitizeUtf8\lString">
<polygon fill="white" stroke="black" points="502.5,-147 502.5,-177 625.5,-177 625.5,-147 502.5,-147"/>
<text text-anchor="start" x="510.5" y="-165" font-family="Helvetica,sans-Serif" font-size="10.00">RoR::Utils::SanitizeUtf8</text>
<text text-anchor="middle" x="564" y="-154" font-family="Helvetica,sans-Serif" font-size="10.00">String</text>
</a>
</g>
</g>
<!-- Node4&#45;&gt;Node5 -->
<g id="edge4" class="edge"><title>Node4&#45;&gt;Node5</title>
<path fill="none" stroke="midnightblue" d="M466.161,-162C474.802,-162 483.619,-162 492.239,-162"/>
<polygon fill="midnightblue" stroke="midnightblue" points="492.246,-165.5 502.246,-162 492.246,-158.5 492.246,-165.5"/>
</g>
<!-- Node6 -->
<g id="node6" class="node"><title>Node6</title>
<g id="a_node6"><a xlink:href="namespaceutf8.html#a07dcd36a2185e5c9f0b19dd88859cd6c" target="_top" xlink:title="utf8::replace_invalid">
<polygon fill="white" stroke="black" points="662,-152.5 662,-171.5 766,-171.5 766,-152.5 662,-152.5"/>
<text text-anchor="middle" x="714" y="-159.5" font-family="Helvetica,sans-Serif" font-size="10.00">utf8::replace_invalid</text>
</a>
</g>
</g>
<!-- Node5&#45;&gt;Node6 -->
<g id="edge5" class="edge"><title>Node5&#45;&gt;Node6</title>
<path fill="none" stroke="midnightblue" d="M625.624,-162C634.137,-162 642.895,-162 651.425,-162"/>
<polygon fill="midnightblue" stroke="midnightblue" points="651.686,-165.5 661.686,-162 651.686,-158.5 651.686,-165.5"/>
</g>
<!-- Node7 -->
<g id="node7" class="node"><title>Node7</title>
<g id="a_node7"><a xlink:href="namespaceutf8_1_1internal.html#abe95547575fcc81911e381df03f8ebfe" target="_top" xlink:title="utf8::internal::validate_next">
<polygon fill="white" stroke="black" points="802,-152.5 802,-171.5 936,-171.5 936,-152.5 802,-152.5"/>
<text text-anchor="middle" x="869" y="-159.5" font-family="Helvetica,sans-Serif" font-size="10.00">utf8::internal::validate_next</text>
</a>
</g>
</g>
<!-- Node6&#45;&gt;Node7 -->
<g id="edge6" class="edge"><title>Node6&#45;&gt;Node7</title>
<path fill="none" stroke="midnightblue" d="M766.372,-162C774.546,-162 783.151,-162 791.751,-162"/>
<polygon fill="midnightblue" stroke="midnightblue" points="791.819,-165.5 801.819,-162 791.819,-158.5 791.819,-165.5"/>
</g>
<!-- Node17 -->
<g id="node17" class="node"><title>Node17</title>
<g id="a_node17"><a xlink:href="namespaceutf8.html#a3827e78596fc38cfdebd721e9c45c901" target="_top" xlink:title="The library API &#45; functions intended to be called by the users. ">
<polygon fill="white" stroke="black" points="833.5,-60.5 833.5,-79.5 904.5,-79.5 904.5,-60.5 833.5,-60.5"/>
<text text-anchor="middle" x="869" y="-67.5" font-family="Helvetica,sans-Serif" font-size="10.00">utf8::append</text>
</a>
</g>
</g>
<!-- Node6&#45;&gt;Node17 -->
<g id="edge20" class="edge"><title>Node6&#45;&gt;Node17</title>
<path fill="none" stroke="midnightblue" d="M731.085,-152.328C757.899,-136.204 811.904,-103.731 843.483,-84.7425"/>
<polygon fill="midnightblue" stroke="midnightblue" points="845.365,-87.6949 852.131,-79.5421 841.757,-81.6959 845.365,-87.6949"/>
</g>
<!-- Node18 -->
<g id="node18" class="node"><title>Node18</title>
<g id="a_node18"><a xlink:href="namespaceutf8_1_1internal.html#ab4820484159ba613b4901476ceb24516" target="_top" xlink:title="utf8::internal::is\l_trail">
<polygon fill="white" stroke="black" points="827,-264 827,-294 911,-294 911,-264 827,-264"/>
<text text-anchor="start" x="835" y="-282" font-family="Helvetica,sans-Serif" font-size="10.00">utf8::internal::is</text>
<text text-anchor="middle" x="869" y="-271" font-family="Helvetica,sans-Serif" font-size="10.00">_trail</text>
</a>
</g>
</g>
<!-- Node6&#45;&gt;Node18 -->
<g id="edge22" class="edge"><title>Node6&#45;&gt;Node18</title>
<path fill="none" stroke="midnightblue" d="M727.521,-171.575C751.996,-190.291 806.707,-232.129 840.171,-257.719"/>
<polygon fill="midnightblue" stroke="midnightblue" points="838.119,-260.556 848.189,-263.85 842.372,-254.996 838.119,-260.556"/>
</g>
<!-- Node8 -->
<g id="node8" class="node"><title>Node8</title>
<g id="a_node8"><a xlink:href="namespaceutf8_1_1internal.html#aadbe437cba7bfcc4df2638f633e9787c" target="_top" xlink:title="utf8::internal::sequence\l_length">
<polygon fill="white" stroke="black" points="972.5,-147 972.5,-177 1091.5,-177 1091.5,-147 972.5,-147"/>
<text text-anchor="start" x="980.5" y="-165" font-family="Helvetica,sans-Serif" font-size="10.00">utf8::internal::sequence</text>
<text text-anchor="middle" x="1032" y="-154" font-family="Helvetica,sans-Serif" font-size="10.00">_length</text>
</a>
</g>
</g>
<!-- Node7&#45;&gt;Node8 -->
<g id="edge7" class="edge"><title>Node7&#45;&gt;Node8</title>
<path fill="none" stroke="midnightblue" d="M936.414,-162C945.006,-162 953.819,-162 962.444,-162"/>
<polygon fill="midnightblue" stroke="midnightblue" points="962.459,-165.5 972.459,-162 962.459,-158.5 962.459,-165.5"/>
</g>
<!-- Node10 -->
<g id="node10" class="node"><title>Node10</title>
<g id="a_node10"><a xlink:href="namespaceutf8_1_1internal.html#a6e5df73716136aec55e8fcf3309038b6" target="_top" xlink:title="get_sequence_x functions decode utf&#45;8 sequences of the length x ">
<polygon fill="white" stroke="black" points="987,-98 987,-128 1077,-128 1077,-98 987,-98"/>
<text text-anchor="start" x="995" y="-116" font-family="Helvetica,sans-Serif" font-size="10.00">utf8::internal::get</text>
<text text-anchor="middle" x="1032" y="-105" font-family="Helvetica,sans-Serif" font-size="10.00">_sequence_1</text>
</a>
</g>
</g>
<!-- Node7&#45;&gt;Node10 -->
<g id="edge9" class="edge"><title>Node7&#45;&gt;Node10</title>
<path fill="none" stroke="midnightblue" d="M901.425,-152.436C922.914,-145.896 951.949,-137.059 977.087,-129.408"/>
<polygon fill="midnightblue" stroke="midnightblue" points="978.317,-132.693 986.865,-126.432 976.279,-125.996 978.317,-132.693"/>
</g>
<!-- Node11 -->
<g id="node11" class="node"><title>Node11</title>
<g id="a_node11"><a xlink:href="namespaceutf8_1_1internal.html#a9d641b9546be985f9f0fd4955ac42a24" target="_top" xlink:title="utf8::internal::get\l_sequence_2">
<polygon fill="white" stroke="black" points="987,-49 987,-79 1077,-79 1077,-49 987,-49"/>
<text text-anchor="start" x="995" y="-67" font-family="Helvetica,sans-Serif" font-size="10.00">utf8::internal::get</text>
<text text-anchor="middle" x="1032" y="-56" font-family="Helvetica,sans-Serif" font-size="10.00">_sequence_2</text>
</a>
</g>
</g>
<!-- Node7&#45;&gt;Node11 -->
<g id="edge11" class="edge"><title>Node7&#45;&gt;Node11</title>
<path fill="none" stroke="midnightblue" d="M881.672,-152.332C900.054,-137.418 937.24,-108.488 972,-89 975.449,-87.0661 979.078,-85.1873 982.771,-83.3855"/>
<polygon fill="midnightblue" stroke="midnightblue" points="984.427,-86.4749 992.012,-79.0779 981.47,-80.1302 984.427,-86.4749"/>
</g>
<!-- Node12 -->
<g id="node12" class="node"><title>Node12</title>
<g id="a_node12"><a xlink:href="namespaceutf8_1_1internal.html#ac1809a1fb3fa6983d64a0d3a39646008" target="_top" xlink:title="utf8::internal::get\l_sequence_3">
<polygon fill="white" stroke="black" points="987,-294 987,-324 1077,-324 1077,-294 987,-294"/>
<text text-anchor="start" x="995" y="-312" font-family="Helvetica,sans-Serif" font-size="10.00">utf8::internal::get</text>
<text text-anchor="middle" x="1032" y="-301" font-family="Helvetica,sans-Serif" font-size="10.00">_sequence_3</text>
</a>
</g>
</g>
<!-- Node7&#45;&gt;Node12 -->
<g id="edge13" class="edge"><title>Node7&#45;&gt;Node12</title>
<path fill="none" stroke="midnightblue" d="M875.719,-171.564C889.588,-194.035 927.189,-250.802 972,-284 974.346,-285.738 976.832,-287.383 979.404,-288.935"/>
<polygon fill="midnightblue" stroke="midnightblue" points="977.947,-292.128 988.4,-293.856 981.306,-285.987 977.947,-292.128"/>
</g>
<!-- Node13 -->
<g id="node13" class="node"><title>Node13</title>
<g id="a_node13"><a xlink:href="namespaceutf8_1_1internal.html#ad1958e7c6746ba6b1fbb0d81b88b346c" target="_top" xlink:title="utf8::internal::get\l_sequence_4">
<polygon fill="white" stroke="black" points="987,-196 987,-226 1077,-226 1077,-196 987,-196"/>
<text text-anchor="start" x="995" y="-214" font-family="Helvetica,sans-Serif" font-size="10.00">utf8::internal::get</text>
<text text-anchor="middle" x="1032" y="-203" font-family="Helvetica,sans-Serif" font-size="10.00">_sequence_4</text>
</a>
</g>
</g>
<!-- Node7&#45;&gt;Node13 -->
<g id="edge15" class="edge"><title>Node7&#45;&gt;Node13</title>
<path fill="none" stroke="midnightblue" d="M901.425,-171.564C922.914,-178.104 951.949,-186.941 977.087,-194.592"/>
<polygon fill="midnightblue" stroke="midnightblue" points="976.279,-198.004 986.865,-197.568 978.317,-191.307 976.279,-198.004"/>
</g>
<!-- Node14 -->
<g id="node14" class="node"><title>Node14</title>
<g id="a_node14"><a xlink:href="namespaceutf8_1_1internal.html#a97b553137aaeda6e8ca6f8d46f78fd79" target="_top" xlink:title="utf8::internal::is\l_code_point_valid">
<polygon fill="white" stroke="black" points="984.5,-0 984.5,-30 1079.5,-30 1079.5,-0 984.5,-0"/>
<text text-anchor="start" x="992.5" y="-18" font-family="Helvetica,sans-Serif" font-size="10.00">utf8::internal::is</text>
<text text-anchor="middle" x="1032" y="-7" font-family="Helvetica,sans-Serif" font-size="10.00">_code_point_valid</text>
</a>
</g>
</g>
<!-- Node7&#45;&gt;Node14 -->
<g id="edge17" class="edge"><title>Node7&#45;&gt;Node14</title>
<path fill="none" stroke="midnightblue" d="M879.325,-152.387C892.445,-138.708 916.888,-112.656 936,-89 953.209,-67.7 950.478,-55.9304 972,-39 973.597,-37.7437 975.269,-36.5441 976.996,-35.3995"/>
<polygon fill="midnightblue" stroke="midnightblue" points="979.145,-38.1973 986.01,-30.1276 975.611,-32.1548 979.145,-38.1973"/>
</g>
<!-- Node16 -->
<g id="node16" class="node"><title>Node16</title>
<g id="a_node16"><a xlink:href="namespaceutf8_1_1internal.html#a3160f6f24dff465f64f83cb0e66995c6" target="_top" xlink:title="utf8::internal::is\l_overlong_sequence">
<polygon fill="white" stroke="black" points="979,-245 979,-275 1085,-275 1085,-245 979,-245"/>
<text text-anchor="start" x="987" y="-263" font-family="Helvetica,sans-Serif" font-size="10.00">utf8::internal::is</text>
<text text-anchor="middle" x="1032" y="-252" font-family="Helvetica,sans-Serif" font-size="10.00">_overlong_sequence</text>
</a>
</g>
</g>
<!-- Node7&#45;&gt;Node16 -->
<g id="edge19" class="edge"><title>Node7&#45;&gt;Node16</title>
<path fill="none" stroke="midnightblue" d="M881.672,-171.668C900.054,-186.582 937.24,-215.512 972,-235 975.449,-236.934 979.078,-238.813 982.771,-240.615"/>
<polygon fill="midnightblue" stroke="midnightblue" points="981.47,-243.87 992.012,-244.922 984.427,-237.525 981.47,-243.87"/>
</g>
<!-- Node9 -->
<g id="node9" class="node"><title>Node9</title>
<g id="a_node9"><a xlink:href="namespaceutf8_1_1internal.html#adf6e0469e279b9562aa461b4c3c1e7e4" target="_top" xlink:title="utf8::internal::mask8">
<polygon fill="white" stroke="black" points="1128,-176.5 1128,-195.5 1234,-195.5 1234,-176.5 1128,-176.5"/>
<text text-anchor="middle" x="1181" y="-183.5" font-family="Helvetica,sans-Serif" font-size="10.00">utf8::internal::mask8</text>
</a>
</g>
</g>
<!-- Node8&#45;&gt;Node9 -->
<g id="edge8" class="edge"><title>Node8&#45;&gt;Node9</title>
<path fill="none" stroke="midnightblue" d="M1091.52,-171.554C1100.15,-172.964 1109.07,-174.42 1117.78,-175.841"/>
<polygon fill="midnightblue" stroke="midnightblue" points="1117.43,-179.331 1127.86,-177.488 1118.56,-172.422 1117.43,-179.331"/>
</g>
<!-- Node10&#45;&gt;Node9 -->
<g id="edge10" class="edge"><title>Node10&#45;&gt;Node9</title>
<path fill="none" stroke="midnightblue" d="M1070.07,-128.05C1077.4,-131.208 1084.99,-134.612 1092,-138 1113.55,-148.412 1137.34,-161.49 1154.75,-171.365"/>
<polygon fill="midnightblue" stroke="midnightblue" points="1153.29,-174.562 1163.71,-176.484 1156.76,-168.484 1153.29,-174.562"/>
</g>
<!-- Node11&#45;&gt;Node9 -->
<g id="edge12" class="edge"><title>Node11&#45;&gt;Node9</title>
<path fill="none" stroke="midnightblue" d="M1074.85,-79.0282C1080.83,-81.9386 1086.74,-85.2646 1092,-89 1123.63,-111.46 1152.19,-147.071 1167.72,-168.325"/>
<polygon fill="midnightblue" stroke="midnightblue" points="1164.89,-170.377 1173.55,-176.474 1170.58,-166.305 1164.89,-170.377"/>
</g>
<!-- Node12&#45;&gt;Node9 -->
<g id="edge14" class="edge"><title>Node12&#45;&gt;Node9</title>
<path fill="none" stroke="midnightblue" d="M1074.86,-293.996C1080.85,-291.082 1086.75,-287.749 1092,-284 1123.76,-261.332 1152.27,-225.346 1167.76,-203.865"/>
<polygon fill="midnightblue" stroke="midnightblue" points="1170.67,-205.817 1173.57,-195.628 1164.95,-201.781 1170.67,-205.817"/>
</g>
<!-- Node13&#45;&gt;Node9 -->
<g id="edge16" class="edge"><title>Node13&#45;&gt;Node9</title>
<path fill="none" stroke="midnightblue" d="M1077.1,-203.499C1089.97,-201.312 1104.27,-198.88 1118.01,-196.542"/>
<polygon fill="midnightblue" stroke="midnightblue" points="1118.63,-199.988 1127.9,-194.861 1117.45,-193.087 1118.63,-199.988"/>
</g>
<!-- Node15 -->
<g id="node15" class="node"><title>Node15</title>
<g id="a_node15"><a xlink:href="namespaceutf8_1_1internal.html#a31a185a6bc8b9bf454191a8a95a93595" target="_top" xlink:title="utf8::internal::is\l_surrogate">
<polygon fill="white" stroke="black" points="1139,-0 1139,-30 1223,-30 1223,-0 1139,-0"/>
<text text-anchor="start" x="1147" y="-18" font-family="Helvetica,sans-Serif" font-size="10.00">utf8::internal::is</text>
<text text-anchor="middle" x="1181" y="-7" font-family="Helvetica,sans-Serif" font-size="10.00">_surrogate</text>
</a>
</g>
</g>
<!-- Node14&#45;&gt;Node15 -->
<g id="edge18" class="edge"><title>Node14&#45;&gt;Node15</title>
<path fill="none" stroke="midnightblue" d="M1079.51,-15C1095.11,-15 1112.58,-15 1128.53,-15"/>
<polygon fill="midnightblue" stroke="midnightblue" points="1128.76,-18.5001 1138.76,-15 1128.76,-11.5001 1128.76,-18.5001"/>
</g>
<!-- Node17&#45;&gt;Node14 -->
<g id="edge21" class="edge"><title>Node17&#45;&gt;Node14</title>
<path fill="none" stroke="midnightblue" d="M898.044,-60.4197C919.869,-52.964 950.806,-42.3956 977.346,-33.3291"/>
<polygon fill="midnightblue" stroke="midnightblue" points="978.568,-36.6102 986.9,-30.0654 976.305,-29.9861 978.568,-36.6102"/>
</g>
<!-- Node18&#45;&gt;Node9 -->
<g id="edge23" class="edge"><title>Node18&#45;&gt;Node9</title>
<path fill="none" stroke="midnightblue" d="M891.617,-294.06C933.042,-320.889 1025.4,-370.752 1092,-333 1140.82,-305.326 1165.48,-238.598 1175.07,-205.413"/>
<polygon fill="midnightblue" stroke="midnightblue" points="1178.51,-206.118 1177.76,-195.55 1171.75,-204.277 1178.51,-206.118"/>
</g>
</g>
</svg>
