<?xml version="1.0" encoding="UTF-8" standalone="no"?>
<!DOCTYPE svg PUBLIC "-//W3C//DTD SVG 1.1//EN"
 "http://www.w3.org/Graphics/SVG/1.1/DTD/svg11.dtd">
<!-- Generated by graphviz version 2.36.0 (20140111.2315)
 -->
<!-- Title: SurveyMapEntity::SurveyMapEntity Pages: 1 -->
<!--zoomable 259 -->
<svg id="main" version="1.1" xmlns="http://www.w3.org/2000/svg" xmlns:xlink="http://www.w3.org/1999/xlink" xml:space="preserve" onload="init(evt)">
<style type="text/css"><![CDATA[
.edge:hover path { stroke: red; }
.edge:hover polygon { stroke: red; fill: red; }
]]></style>
<script type="text/javascript"><![CDATA[
var edges = document.getElementsByTagName('g');
if (edges && edges.length) {
  for (var i=0;i<edges.length;i++) {
    if (edges[i].id.substr(0,4)=='edge') {
      edges[i].setAttribute('class','edge');
    }
  }
}
]]></script>
        <defs>
                <circle id="rim" cx="0" cy="0" r="7"/>
                <circle id="rim2" cx="0" cy="0" r="3.5"/>
                <g id="zoomPlus">
                        <use xlink:href="#rim" fill="#404040">
                                <set attributeName="fill" to="#808080" begin="zoomplus.mouseover" end="zoomplus.mouseout"/>
                        </use>
                        <path d="M-4,0h8M0,-4v8" fill="none" stroke="white" stroke-width="1.5" pointer-events="none"/>
                </g>
                <g id="zoomMin">
                        <use xlink:href="#rim" fill="#404040">
                                <set attributeName="fill" to="#808080" begin="zoomminus.mouseover" end="zoomminus.mouseout"/>
                        </use>
                        <path d="M-4,0h8" fill="none" stroke="white" stroke-width="1.5" pointer-events="none"/>
                </g>
                <g id="dirArrow">
                        <path fill="none" stroke="white" stroke-width="1.5" d="M0,-3.0v7 M-2.5,-0.5L0,-3.0L2.5,-0.5"/>
                </g>
               <g id="resetDef">
                       <use xlink:href="#rim2" fill="#404040">
                               <set attributeName="fill" to="#808080" begin="reset.mouseover" end="reset.mouseout"/>
                       </use>
               </g>
        </defs>

<script type="text/javascript">
var viewWidth = 864;
var viewHeight = 259;
var sectionId = 'dynsection-2';
</script>
<script xlink:href="svgpan.js"/>
<svg id="graph" class="graph">
<g id="viewport">
<title>SurveyMapEntity::SurveyMapEntity</title>
<polygon fill="white" stroke="none" points="-4,4 -4,-255 860,-255 860,4 -4,4"/>
<!-- Node1 -->
<g id="node1" class="node"><title>Node1</title>
<polygon fill="#bfbfbf" stroke="black" points="0.5,-150 0.5,-180 147.5,-180 147.5,-150 0.5,-150"/>
<text text-anchor="start" x="8.5" y="-168" font-family="Helvetica,sans-Serif" font-size="10.00">SurveyMapEntity::SurveyMap</text>
<text text-anchor="middle" x="74" y="-157" font-family="Helvetica,sans-Serif" font-size="10.00">Entity</text>
</g>
<!-- Node2 -->
<g id="node2" class="node"><title>Node2</title>
<g id="a_node2"><a xlink:href="classwraps_1_1_base_layout.html#aa6f806c099807cf01b238dff74538f7b" target="_top" xlink:title="wraps::BaseLayout::\linitialiseByAttributes">
<polygon fill="white" stroke="black" points="185.5,-172 185.5,-202 292.5,-202 292.5,-172 185.5,-172"/>
<text text-anchor="start" x="193.5" y="-190" font-family="Helvetica,sans-Serif" font-size="10.00">wraps::BaseLayout::</text>
<text text-anchor="middle" x="239" y="-179" font-family="Helvetica,sans-Serif" font-size="10.00">initialiseByAttributes</text>
</a>
</g>
</g>
<!-- Node1&#45;&gt;Node2 -->
<g id="edge1" class="edge"><title>Node1&#45;&gt;Node2</title>
<path fill="none" stroke="midnightblue" d="M147.918,-174.842C157.033,-176.072 166.293,-177.322 175.235,-178.529"/>
<polygon fill="midnightblue" stroke="midnightblue" points="174.792,-182 185.17,-179.87 175.728,-175.063 174.792,-182"/>
</g>
<!-- Node6 -->
<g id="node6" class="node"><title>Node6</title>
<g id="a_node6"><a xlink:href="class_survey_map_entity.html#a43d21ef6c5e18306c95e1e113db3b166" target="_top" xlink:title="SurveyMapEntity::init">
<polygon fill="white" stroke="black" points="184,-114.5 184,-133.5 294,-133.5 294,-114.5 184,-114.5"/>
<text text-anchor="middle" x="239" y="-121.5" font-family="Helvetica,sans-Serif" font-size="10.00">SurveyMapEntity::init</text>
</a>
</g>
</g>
<!-- Node1&#45;&gt;Node6 -->
<g id="edge5" class="edge"><title>Node1&#45;&gt;Node6</title>
<path fill="none" stroke="midnightblue" d="M134.77,-149.966C152.998,-145.381 172.792,-140.402 190.125,-136.042"/>
<polygon fill="midnightblue" stroke="midnightblue" points="191.171,-139.388 200.015,-133.554 189.463,-132.6 191.171,-139.388"/>
</g>
<!-- Node3 -->
<g id="node3" class="node"><title>Node3</title>
<g id="a_node3"><a xlink:href="classwraps_1_1_base_layout.html#a259ffe59370c08268229022e9ff0e1b0" target="_top" xlink:title="wraps::BaseLayout::\linitialise">
<polygon fill="white" stroke="black" points="350.5,-221 350.5,-251 457.5,-251 457.5,-221 350.5,-221"/>
<text text-anchor="start" x="358.5" y="-239" font-family="Helvetica,sans-Serif" font-size="10.00">wraps::BaseLayout::</text>
<text text-anchor="middle" x="404" y="-228" font-family="Helvetica,sans-Serif" font-size="10.00">initialise</text>
</a>
</g>
</g>
<!-- Node2&#45;&gt;Node3 -->
<g id="edge2" class="edge"><title>Node2&#45;&gt;Node3</title>
<path fill="none" stroke="midnightblue" d="M290.235,-202.101C306.891,-207.108 325.6,-212.732 342.919,-217.939"/>
<polygon fill="midnightblue" stroke="midnightblue" points="342.346,-221.421 352.93,-220.948 344.361,-214.718 342.346,-221.421"/>
</g>
<!-- Node5 -->
<g id="node5" class="node"><title>Node5</title>
<g id="a_node5"><a xlink:href="classwraps_1_1_base_layout.html#a2dbd783151c111ebba363adf2cb53622" target="_top" xlink:title="wraps::BaseLayout::\lassignWidget">
<polygon fill="white" stroke="black" points="350.5,-172 350.5,-202 457.5,-202 457.5,-172 350.5,-172"/>
<text text-anchor="start" x="358.5" y="-190" font-family="Helvetica,sans-Serif" font-size="10.00">wraps::BaseLayout::</text>
<text text-anchor="middle" x="404" y="-179" font-family="Helvetica,sans-Serif" font-size="10.00">assignWidget</text>
</a>
</g>
</g>
<!-- Node2&#45;&gt;Node5 -->
<g id="edge4" class="edge"><title>Node2&#45;&gt;Node5</title>
<path fill="none" stroke="midnightblue" d="M292.921,-187C308.02,-187 324.617,-187 340.242,-187"/>
<polygon fill="midnightblue" stroke="midnightblue" points="340.344,-190.5 350.344,-187 340.344,-183.5 340.344,-190.5"/>
</g>
<!-- Node4 -->
<g id="node4" class="node"><title>Node4</title>
<g id="a_node4"><a xlink:href="classwraps_1_1_base_layout.html#a1fcf2ea81000efa2c14828cc67d4aeb6" target="_top" xlink:title="wraps::BaseLayout::\lsnapToParent">
<polygon fill="white" stroke="black" points="549.5,-221 549.5,-251 656.5,-251 656.5,-221 549.5,-221"/>
<text text-anchor="start" x="557.5" y="-239" font-family="Helvetica,sans-Serif" font-size="10.00">wraps::BaseLayout::</text>
<text text-anchor="middle" x="603" y="-228" font-family="Helvetica,sans-Serif" font-size="10.00">snapToParent</text>
</a>
</g>
</g>
<!-- Node3&#45;&gt;Node4 -->
<g id="edge3" class="edge"><title>Node3&#45;&gt;Node4</title>
<path fill="none" stroke="midnightblue" d="M457.534,-236C482.589,-236 512.759,-236 539.034,-236"/>
<polygon fill="midnightblue" stroke="midnightblue" points="539.271,-239.5 549.271,-236 539.271,-232.5 539.271,-239.5"/>
</g>
<!-- Node7 -->
<g id="node7" class="node"><title>Node7</title>
<g id="a_node7"><a xlink:href="class_survey_map_entity.html#ad3cc1cb8f1e71f876290abb0eb004c05" target="_top" xlink:title="SurveyMapEntity::setVisibility">
<polygon fill="white" stroke="black" points="330,-133.5 330,-152.5 478,-152.5 478,-133.5 330,-133.5"/>
<text text-anchor="middle" x="404" y="-140.5" font-family="Helvetica,sans-Serif" font-size="10.00">SurveyMapEntity::setVisibility</text>
</a>
</g>
</g>
<!-- Node6&#45;&gt;Node7 -->
<g id="edge6" class="edge"><title>Node6&#45;&gt;Node7</title>
<path fill="none" stroke="midnightblue" d="M294.277,-130.327C302.464,-131.281 311.066,-132.284 319.694,-133.289"/>
<polygon fill="midnightblue" stroke="midnightblue" points="319.474,-136.787 329.812,-134.469 320.285,-129.835 319.474,-136.787"/>
</g>
<!-- Node8 -->
<g id="node8" class="node"><title>Node8</title>
<g id="a_node8"><a xlink:href="class_survey_map_entity.html#ad83a9d2fd4ab8d3a3841f9e1b0eae729" target="_top" xlink:title="SurveyMapEntity::updateIcon">
<polygon fill="white" stroke="black" points="331,-95.5 331,-114.5 477,-114.5 477,-95.5 331,-95.5"/>
<text text-anchor="middle" x="404" y="-102.5" font-family="Helvetica,sans-Serif" font-size="10.00">SurveyMapEntity::updateIcon</text>
</a>
</g>
</g>
<!-- Node6&#45;&gt;Node8 -->
<g id="edge7" class="edge"><title>Node6&#45;&gt;Node8</title>
<path fill="none" stroke="midnightblue" d="M294.277,-117.673C302.822,-116.677 311.819,-115.628 320.826,-114.579"/>
<polygon fill="midnightblue" stroke="midnightblue" points="321.45,-118.03 330.978,-113.395 320.64,-111.077 321.45,-118.03"/>
</g>
<!-- Node9 -->
<g id="node9" class="node"><title>Node9</title>
<g id="a_node9"><a xlink:href="class_survey_map_entity.html#af393a262b4094ca586036e08943b6d72" target="_top" xlink:title="SurveyMapEntity::update">
<polygon fill="white" stroke="black" points="340.5,-57.5 340.5,-76.5 467.5,-76.5 467.5,-57.5 340.5,-57.5"/>
<text text-anchor="middle" x="404" y="-64.5" font-family="Helvetica,sans-Serif" font-size="10.00">SurveyMapEntity::update</text>
</a>
</g>
</g>
<!-- Node6&#45;&gt;Node9 -->
<g id="edge8" class="edge"><title>Node6&#45;&gt;Node9</title>
<path fill="none" stroke="midnightblue" d="M260.405,-114.382C278.435,-106.126 305.586,-94.2824 330,-86 337.157,-83.5719 344.797,-81.273 352.339,-79.1684"/>
<polygon fill="midnightblue" stroke="midnightblue" points="353.406,-82.5057 362.147,-76.5191 351.581,-75.7478 353.406,-82.5057"/>
</g>
<!-- Node10 -->
<g id="node10" class="node"><title>Node10</title>
<g id="a_node10"><a xlink:href="class_survey_map_manager.html#a959f28a84f3b54803983c734bcc849e1" target="_top" xlink:title="SurveyMapManager::getMap\lEntitiesVisible">
<polygon fill="white" stroke="black" points="532,-115 532,-145 674,-145 674,-115 532,-115"/>
<text text-anchor="start" x="540" y="-133" font-family="Helvetica,sans-Serif" font-size="10.00">SurveyMapManager::getMap</text>
<text text-anchor="middle" x="603" y="-122" font-family="Helvetica,sans-Serif" font-size="10.00">EntitiesVisible</text>
</a>
</g>
</g>
<!-- Node9&#45;&gt;Node10 -->
<g id="edge9" class="edge"><title>Node9&#45;&gt;Node10</title>
<path fill="none" stroke="midnightblue" d="M448.372,-76.5272C458.249,-79.1801 468.599,-82.3524 478,-86 494.867,-92.5443 497.207,-98.2691 514,-105 519.901,-107.365 526.109,-109.602 532.383,-111.693"/>
<polygon fill="midnightblue" stroke="midnightblue" points="531.67,-115.14 542.261,-114.856 533.805,-108.473 531.67,-115.14"/>
</g>
<!-- Node11 -->
<g id="node11" class="node"><title>Node11</title>
<g id="a_node11"><a xlink:href="class_terrain_manager.html#a41fdd66a57990a5fb33d253213fd04e3" target="_top" xlink:title="TerrainManager::getMaxTerrainSize">
<polygon fill="white" stroke="black" points="517,-76.5 517,-95.5 689,-95.5 689,-76.5 517,-76.5"/>
<text text-anchor="middle" x="603" y="-83.5" font-family="Helvetica,sans-Serif" font-size="10.00">TerrainManager::getMaxTerrainSize</text>
</a>
</g>
</g>
<!-- Node9&#45;&gt;Node11 -->
<g id="edge10" class="edge"><title>Node9&#45;&gt;Node11</title>
<path fill="none" stroke="midnightblue" d="M467.603,-73.0378C480.082,-74.2414 493.452,-75.5309 506.743,-76.8128"/>
<polygon fill="midnightblue" stroke="midnightblue" points="506.586,-80.3138 516.876,-77.79 507.258,-73.3461 506.586,-80.3138"/>
</g>
<!-- Node13 -->
<g id="node13" class="node"><title>Node13</title>
<g id="a_node13"><a xlink:href="class_survey_map_manager.html#afdabdbdf87d39f253ecd17af1770a516" target="_top" xlink:title="SurveyMapManager::getWindowSize">
<polygon fill="white" stroke="black" points="514,-38.5 514,-57.5 692,-57.5 692,-38.5 514,-38.5"/>
<text text-anchor="middle" x="603" y="-45.5" font-family="Helvetica,sans-Serif" font-size="10.00">SurveyMapManager::getWindowSize</text>
</a>
</g>
</g>
<!-- Node9&#45;&gt;Node13 -->
<g id="edge12" class="edge"><title>Node9&#45;&gt;Node13</title>
<path fill="none" stroke="midnightblue" d="M467.603,-60.9622C479.045,-59.8586 491.237,-58.6828 503.429,-57.5068"/>
<polygon fill="midnightblue" stroke="midnightblue" points="504.037,-60.9645 513.655,-56.5206 503.365,-53.9968 504.037,-60.9645"/>
</g>
<!-- Node14 -->
<g id="node14" class="node"><title>Node14</title>
<g id="a_node14"><a xlink:href="class_survey_map_manager.html#aec8d2ee435b736ae628d3924a6d2b29d" target="_top" xlink:title="SurveyMapManager::getMapSize">
<polygon fill="white" stroke="black" points="522.5,-0.5 522.5,-19.5 683.5,-19.5 683.5,-0.5 522.5,-0.5"/>
<text text-anchor="middle" x="603" y="-7.5" font-family="Helvetica,sans-Serif" font-size="10.00">SurveyMapManager::getMapSize</text>
</a>
</g>
</g>
<!-- Node9&#45;&gt;Node14 -->
<g id="edge13" class="edge"><title>Node9&#45;&gt;Node14</title>
<path fill="none" stroke="midnightblue" d="M429.832,-57.3628C451.747,-49.0946 484.675,-37.2438 514,-29 523.157,-26.4257 532.934,-24.0016 542.518,-21.8017"/>
<polygon fill="midnightblue" stroke="midnightblue" points="543.406,-25.1898 552.402,-19.5935 541.88,-18.3582 543.406,-25.1898"/>
</g>
<!-- Node12 -->
<g id="node12" class="node"><title>Node12</title>
<g id="a_node12"><a xlink:href="class_terrain_geometry_manager.html#afead68b5ff7a0b77395065ab8ea855e3" target="_top" xlink:title="TerrainGeometryManager\l::getMaxTerrainSize">
<polygon fill="white" stroke="black" points="728.5,-71 728.5,-101 855.5,-101 855.5,-71 728.5,-71"/>
<text text-anchor="start" x="736.5" y="-89" font-family="Helvetica,sans-Serif" font-size="10.00">TerrainGeometryManager</text>
<text text-anchor="middle" x="792" y="-78" font-family="Helvetica,sans-Serif" font-size="10.00">::getMaxTerrainSize</text>
</a>
</g>
</g>
<!-- Node11&#45;&gt;Node12 -->
<g id="edge11" class="edge"><title>Node11&#45;&gt;Node12</title>
<path fill="none" stroke="midnightblue" d="M689.019,-86C698.726,-86 708.556,-86 718.085,-86"/>
<polygon fill="midnightblue" stroke="midnightblue" points="718.288,-89.5001 728.288,-86 718.288,-82.5001 718.288,-89.5001"/>
</g>
</g>
</svg>
        <g id="navigator" transform="translate(0 0)" fill="#404254">
                <rect fill="#f2f5e9" fill-opacity="0.5" stroke="#606060" stroke-width=".5" x="0" y="0" width="60" height="60"/>
                <use id="zoomplus" xlink:href="#zoomPlus" x="17" y="9" onmousedown="handleZoom(evt,'in')"/>
                <use id="zoomminus" xlink:href="#zoomMin" x="42" y="9" onmousedown="handleZoom(evt,'out')"/>
                <use id="reset" xlink:href="#resetDef" x="30" y="36" onmousedown="handleReset()"/>
                <g id="arrowUp" xlink:href="#dirArrow" transform="translate(30 24)" onmousedown="handlePan(0,-1)">
                  <use xlink:href="#rim" fill="#404040">
                        <set attributeName="fill" to="#808080" begin="arrowUp.mouseover" end="arrowUp.mouseout"/>
                  </use>
                  <path fill="none" stroke="white" stroke-width="1.5" d="M0,-3.0v7 M-2.5,-0.5L0,-3.0L2.5,-0.5"/>
                </g>
                <g id="arrowRight" xlink:href="#dirArrow" transform="rotate(90) translate(36 -43)" onmousedown="handlePan(1,0)">
                  <use xlink:href="#rim" fill="#404040">
                        <set attributeName="fill" to="#808080" begin="arrowRight.mouseover" end="arrowRight.mouseout"/>
                  </use>
                  <path fill="none" stroke="white" stroke-width="1.5" d="M0,-3.0v7 M-2.5,-0.5L0,-3.0L2.5,-0.5"/>
                </g>
                <g id="arrowDown" xlink:href="#dirArrow" transform="rotate(180) translate(-30 -48)" onmousedown="handlePan(0,1)">
                  <use xlink:href="#rim" fill="#404040">
                        <set attributeName="fill" to="#808080" begin="arrowDown.mouseover" end="arrowDown.mouseout"/>
                  </use>
                  <path fill="none" stroke="white" stroke-width="1.5" d="M0,-3.0v7 M-2.5,-0.5L0,-3.0L2.5,-0.5"/>
                </g>
                <g id="arrowLeft" xlink:href="#dirArrow" transform="rotate(270) translate(-36 17)" onmousedown="handlePan(-1,0)">
                  <use xlink:href="#rim" fill="#404040">
                        <set attributeName="fill" to="#808080" begin="arrowLeft.mouseover" end="arrowLeft.mouseout"/>
                  </use>
                  <path fill="none" stroke="white" stroke-width="1.5" d="M0,-3.0v7 M-2.5,-0.5L0,-3.0L2.5,-0.5"/>
                </g>
        </g>
        <svg viewBox="0 0 15 15" width="100%" height="30px" preserveAspectRatio="xMaxYMin meet">
         <g id="arrow_out" transform="scale(0.3 0.3)">
          <a xlink:href="class_survey_map_entity_a8b649c8dd5a60c6ee04cffa7673f7170_cgraph_org.svg" target="_base">
           <rect id="button" ry="5" rx="5" y="6" x="6" height="38" width="38"
                fill="#f2f5e9" fill-opacity="0.5" stroke="#606060" stroke-width="1.0"/>
           <path id="arrow"
             d="M 11.500037,31.436501 C 11.940474,20.09759 22.043105,11.32322 32.158766,21.979434 L 37.068811,17.246167 C 37.068811,17.246167 37.088388,32 37.088388,32 L 22.160133,31.978069 C 22.160133,31.978069 26.997745,27.140456 26.997745,27.140456 C 18.528582,18.264221 13.291696,25.230495 11.500037,31.436501 z"
             style="fill:#404040;"/>
          </a>
         </g>
        </svg>
</svg>
