<?xml version="1.0" encoding="UTF-8" standalone="no"?>
<!DOCTYPE svg PUBLIC "-//W3C//DTD SVG 1.1//EN"
 "http://www.w3.org/Graphics/SVG/1.1/DTD/svg11.dtd">
<!-- Generated by graphviz version 2.36.0 (20140111.2315)
 -->
<!-- Title: OverlayWrapper::SetupDirectionArrow Pages: 1 -->
<svg width="564pt" height="38pt"
 viewBox="0.00 0.00 564.00 38.00" xmlns="http://www.w3.org/2000/svg" xmlns:xlink="http://www.w3.org/1999/xlink">
<g id="graph0" class="graph" transform="scale(1 1) rotate(0) translate(4 34)">
<title>OverlayWrapper::SetupDirectionArrow</title>
<polygon fill="white" stroke="none" points="-4,4 -4,-34 560,-34 560,4 -4,4"/>
<!-- Node1 -->
<g id="node1" class="node"><title>Node1</title>
<polygon fill="#bfbfbf" stroke="black" points="0,-0 0,-30 158,-30 158,-0 0,-0"/>
<text text-anchor="start" x="8" y="-18" font-family="Helvetica,sans-Serif" font-size="10.00">OverlayWrapper::SetupDirection</text>
<text text-anchor="middle" x="79" y="-7" font-family="Helvetica,sans-Serif" font-size="10.00">Arrow</text>
</g>
<!-- Node2 -->
<g id="node2" class="node"><title>Node2</title>
<g id="a_node2"><a xlink:href="class_ro_r_frame_listener.html#aca3931d7a75f2ad4b9d36c4fcd03a3c9" target="_top" xlink:title="RoRFrameListener::SetupGameplayLoop">
<polygon fill="white" stroke="black" points="194,-5.5 194,-24.5 390,-24.5 390,-5.5 194,-5.5"/>
<text text-anchor="middle" x="292" y="-12.5" font-family="Helvetica,sans-Serif" font-size="10.00">RoRFrameListener::SetupGameplayLoop</text>
</a>
</g>
</g>
<!-- Node1&#45;&gt;Node2 -->
<g id="edge1" class="edge"><title>Node1&#45;&gt;Node2</title>
<path fill="none" stroke="midnightblue" d="M168.441,-15C176.853,-15 185.414,-15 193.902,-15"/>
<polygon fill="midnightblue" stroke="midnightblue" points="168.269,-11.5001 158.269,-15 168.269,-18.5001 168.269,-11.5001"/>
</g>
<!-- Node3 -->
<g id="node3" class="node"><title>Node3</title>
<g id="a_node3"><a xlink:href="main_8cpp.html#a0ddf1224851353fc92bfbff6f499fa97" target="_top" xlink:title="main">
<polygon fill="white" stroke="black" points="426,-5.5 426,-24.5 464,-24.5 464,-5.5 426,-5.5"/>
<text text-anchor="middle" x="445" y="-12.5" font-family="Helvetica,sans-Serif" font-size="10.00">main</text>
</a>
</g>
</g>
<!-- Node2&#45;&gt;Node3 -->
<g id="edge2" class="edge"><title>Node2&#45;&gt;Node3</title>
<path fill="none" stroke="midnightblue" d="M400.519,-15C410.031,-15 418.712,-15 425.772,-15"/>
<polygon fill="midnightblue" stroke="midnightblue" points="400.338,-11.5001 390.338,-15 400.338,-18.5001 400.338,-11.5001"/>
</g>
<!-- Node4 -->
<g id="node4" class="node"><title>Node4</title>
<g id="a_node4"><a xlink:href="main_8cpp.html#a2922bc5d5c2d77a3020cfbf9df12aab0" target="_top" xlink:title="WinMain">
<polygon fill="white" stroke="black" points="500.5,-5.5 500.5,-24.5 555.5,-24.5 555.5,-5.5 500.5,-5.5"/>
<text text-anchor="middle" x="528" y="-12.5" font-family="Helvetica,sans-Serif" font-size="10.00">WinMain</text>
</a>
</g>
</g>
<!-- Node3&#45;&gt;Node4 -->
<g id="edge3" class="edge"><title>Node3&#45;&gt;Node4</title>
<path fill="none" stroke="midnightblue" d="M474.512,-15C482.929,-15 492.105,-15 500.397,-15"/>
<polygon fill="midnightblue" stroke="midnightblue" points="474.38,-11.5001 464.38,-15 474.38,-18.5001 474.38,-11.5001"/>
</g>
</g>
</svg>
