<?xml version="1.0" encoding="UTF-8" standalone="no"?>
<!DOCTYPE svg PUBLIC "-//W3C//DTD SVG 1.1//EN"
 "http://www.w3.org/Graphics/SVG/1.1/DTD/svg11.dtd">
<!-- Generated by graphviz version 2.36.0 (20140111.2315)
 -->
<!-- Title: Hydrax::MaterialManager::_createDepthMaterial Pages: 1 -->
<svg width="1226pt" height="82pt"
 viewBox="0.00 0.00 1226.00 82.00" xmlns="http://www.w3.org/2000/svg" xmlns:xlink="http://www.w3.org/1999/xlink">
<g id="graph0" class="graph" transform="scale(1 1) rotate(0) translate(4 78)">
<title>Hydrax::MaterialManager::_createDepthMaterial</title>
<polygon fill="white" stroke="none" points="-4,4 -4,-78 1222,-78 1222,4 -4,4"/>
<!-- Node1 -->
<g id="node1" class="node"><title>Node1</title>
<polygon fill="#bfbfbf" stroke="black" points="0,-22 0,-52 126,-52 126,-22 0,-22"/>
<text text-anchor="start" x="8" y="-40" font-family="Helvetica,sans-Serif" font-size="10.00">Hydrax::MaterialManager</text>
<text text-anchor="middle" x="63" y="-29" font-family="Helvetica,sans-Serif" font-size="10.00">::_createDepthMaterial</text>
</g>
<!-- Node2 -->
<g id="node2" class="node"><title>Node2</title>
<g id="a_node2"><a xlink:href="class_hydrax_1_1_material_manager.html#a6aa7b0a92b824348577d506f7bcf581b" target="_top" xlink:title="Hydrax::MaterialManager\l::createMaterials">
<polygon fill="white" stroke="black" points="326,-44 326,-74 452,-74 452,-44 326,-44"/>
<text text-anchor="start" x="334" y="-62" font-family="Helvetica,sans-Serif" font-size="10.00">Hydrax::MaterialManager</text>
<text text-anchor="middle" x="389" y="-51" font-family="Helvetica,sans-Serif" font-size="10.00">::createMaterials</text>
</a>
</g>
</g>
<!-- Node1&#45;&gt;Node2 -->
<g id="edge1" class="edge"><title>Node1&#45;&gt;Node2</title>
<path fill="none" stroke="midnightblue" d="M136.099,-41.8956C193.037,-45.7618 271.659,-51.1003 325.847,-54.7798"/>
<polygon fill="midnightblue" stroke="midnightblue" points="136.301,-38.4014 126.087,-41.2158 135.827,-45.3853 136.301,-38.4014"/>
</g>
<!-- Node3 -->
<g id="node3" class="node"><title>Node3</title>
<g id="a_node3"><a xlink:href="class_hydrax_1_1_material_manager.html#ab70527e20f62a739a738773173c7966f" target="_top" xlink:title="Hydrax::MaterialManager\l::addDepthTechnique">
<polygon fill="white" stroke="black" points="162,-0 162,-30 288,-30 288,-0 162,-0"/>
<text text-anchor="start" x="170" y="-18" font-family="Helvetica,sans-Serif" font-size="10.00">Hydrax::MaterialManager</text>
<text text-anchor="middle" x="225" y="-7" font-family="Helvetica,sans-Serif" font-size="10.00">::addDepthTechnique</text>
</a>
</g>
</g>
<!-- Node1&#45;&gt;Node3 -->
<g id="edge2" class="edge"><title>Node1&#45;&gt;Node3</title>
<path fill="none" stroke="midnightblue" d="M136.267,-27.0633C144.808,-25.8889 153.468,-24.6982 161.852,-23.5454"/>
<polygon fill="midnightblue" stroke="midnightblue" points="135.748,-23.6016 126.318,-28.4312 136.702,-30.5363 135.748,-23.6016"/>
</g>
<!-- Node3&#45;&gt;Node2 -->
<g id="edge3" class="edge"><title>Node3&#45;&gt;Node2</title>
<path fill="none" stroke="midnightblue" d="M291.179,-32.7029C304.935,-36.4392 319.325,-40.3475 332.676,-43.9738"/>
<polygon fill="midnightblue" stroke="midnightblue" points="291.866,-29.2628 281.298,-30.0192 290.031,-36.018 291.866,-29.2628"/>
</g>
<!-- Node4 -->
<g id="node4" class="node"><title>Node4</title>
<g id="a_node4"><a xlink:href="class_terrain_manager.html#aa7c9434ece63d1313c840b632a3b0430" target="_top" xlink:title="TerrainManager::initWater">
<polygon fill="white" stroke="black" points="324.5,-5.5 324.5,-24.5 453.5,-24.5 453.5,-5.5 324.5,-5.5"/>
<text text-anchor="middle" x="389" y="-12.5" font-family="Helvetica,sans-Serif" font-size="10.00">TerrainManager::initWater</text>
</a>
</g>
</g>
<!-- Node3&#45;&gt;Node4 -->
<g id="edge4" class="edge"><title>Node3&#45;&gt;Node4</title>
<path fill="none" stroke="midnightblue" d="M298.294,-15C306.992,-15 315.826,-15 324.387,-15"/>
<polygon fill="midnightblue" stroke="midnightblue" points="298.17,-11.5001 288.17,-15 298.17,-18.5001 298.17,-11.5001"/>
</g>
<!-- Node5 -->
<g id="node5" class="node"><title>Node5</title>
<g id="a_node5"><a xlink:href="class_terrain_manager.html#a9a04c837bf2ea6528c465b27ca62f730" target="_top" xlink:title="TerrainManager::loadTerrain">
<polygon fill="white" stroke="black" points="490,-5.5 490,-24.5 628,-24.5 628,-5.5 490,-5.5"/>
<text text-anchor="middle" x="559" y="-12.5" font-family="Helvetica,sans-Serif" font-size="10.00">TerrainManager::loadTerrain</text>
</a>
</g>
</g>
<!-- Node4&#45;&gt;Node5 -->
<g id="edge5" class="edge"><title>Node4&#45;&gt;Node5</title>
<path fill="none" stroke="midnightblue" d="M463.664,-15C472.39,-15 481.267,-15 489.91,-15"/>
<polygon fill="midnightblue" stroke="midnightblue" points="463.514,-11.5001 453.514,-15 463.514,-18.5001 463.514,-11.5001"/>
</g>
<!-- Node6 -->
<g id="node6" class="node"><title>Node6</title>
<g id="a_node6"><a xlink:href="class_ro_r_frame_listener.html#a9757c059e840019a3e2659d5ef63ea02" target="_top" xlink:title="Reads GVar &#39;sim_terrain_pending&#39;. ">
<polygon fill="white" stroke="black" points="664,-5.5 664,-24.5 820,-24.5 820,-5.5 664,-5.5"/>
<text text-anchor="middle" x="742" y="-12.5" font-family="Helvetica,sans-Serif" font-size="10.00">RoRFrameListener::LoadTerrain</text>
</a>
</g>
</g>
<!-- Node5&#45;&gt;Node6 -->
<g id="edge6" class="edge"><title>Node5&#45;&gt;Node6</title>
<path fill="none" stroke="midnightblue" d="M638.362,-15C646.792,-15 655.366,-15 663.782,-15"/>
<polygon fill="midnightblue" stroke="midnightblue" points="638.17,-11.5001 628.17,-15 638.17,-18.5001 638.17,-11.5001"/>
</g>
<!-- Node7 -->
<g id="node7" class="node"><title>Node7</title>
<g id="a_node7"><a xlink:href="class_ro_r_frame_listener.html#aca3931d7a75f2ad4b9d36c4fcd03a3c9" target="_top" xlink:title="RoRFrameListener::SetupGameplayLoop">
<polygon fill="white" stroke="black" points="856,-5.5 856,-24.5 1052,-24.5 1052,-5.5 856,-5.5"/>
<text text-anchor="middle" x="954" y="-12.5" font-family="Helvetica,sans-Serif" font-size="10.00">RoRFrameListener::SetupGameplayLoop</text>
</a>
</g>
</g>
<!-- Node6&#45;&gt;Node7 -->
<g id="edge7" class="edge"><title>Node6&#45;&gt;Node7</title>
<path fill="none" stroke="midnightblue" d="M830.265,-15C838.755,-15 847.404,-15 855.982,-15"/>
<polygon fill="midnightblue" stroke="midnightblue" points="830.004,-11.5001 820.004,-15 830.004,-18.5001 830.004,-11.5001"/>
</g>
<!-- Node8 -->
<g id="node8" class="node"><title>Node8</title>
<g id="a_node8"><a xlink:href="main_8cpp.html#a0ddf1224851353fc92bfbff6f499fa97" target="_top" xlink:title="main">
<polygon fill="white" stroke="black" points="1088,-5.5 1088,-24.5 1126,-24.5 1126,-5.5 1088,-5.5"/>
<text text-anchor="middle" x="1107" y="-12.5" font-family="Helvetica,sans-Serif" font-size="10.00">main</text>
</a>
</g>
</g>
<!-- Node7&#45;&gt;Node8 -->
<g id="edge8" class="edge"><title>Node7&#45;&gt;Node8</title>
<path fill="none" stroke="midnightblue" d="M1062.52,-15C1072.03,-15 1080.71,-15 1087.77,-15"/>
<polygon fill="midnightblue" stroke="midnightblue" points="1062.34,-11.5001 1052.34,-15 1062.34,-18.5001 1062.34,-11.5001"/>
</g>
<!-- Node9 -->
<g id="node9" class="node"><title>Node9</title>
<g id="a_node9"><a xlink:href="main_8cpp.html#a2922bc5d5c2d77a3020cfbf9df12aab0" target="_top" xlink:title="WinMain">
<polygon fill="white" stroke="black" points="1162.5,-5.5 1162.5,-24.5 1217.5,-24.5 1217.5,-5.5 1162.5,-5.5"/>
<text text-anchor="middle" x="1190" y="-12.5" font-family="Helvetica,sans-Serif" font-size="10.00">WinMain</text>
</a>
</g>
</g>
<!-- Node8&#45;&gt;Node9 -->
<g id="edge9" class="edge"><title>Node8&#45;&gt;Node9</title>
<path fill="none" stroke="midnightblue" d="M1136.51,-15C1144.93,-15 1154.11,-15 1162.4,-15"/>
<polygon fill="midnightblue" stroke="midnightblue" points="1136.38,-11.5001 1126.38,-15 1136.38,-18.5001 1136.38,-11.5001"/>
</g>
</g>
</svg>
