<?xml version="1.0" encoding="UTF-8" standalone="no"?>
<!DOCTYPE svg PUBLIC "-//W3C//DTD SVG 1.1//EN"
 "http://www.w3.org/Graphics/SVG/1.1/DTD/svg11.dtd">
<!-- Generated by graphviz version 2.36.0 (20140111.2315)
 -->
<!-- Title: RoR::GUI::MpClientList::update Pages: 1 -->
<svg width="510pt" height="126pt"
 viewBox="0.00 0.00 510.00 126.00" xmlns="http://www.w3.org/2000/svg" xmlns:xlink="http://www.w3.org/1999/xlink">
<g id="graph0" class="graph" transform="scale(1 1) rotate(0) translate(4 122)">
<title>RoR::GUI::MpClientList::update</title>
<polygon fill="white" stroke="none" points="-4,4 -4,-122 506,-122 506,4 -4,4"/>
<!-- Node1 -->
<g id="node1" class="node"><title>Node1</title>
<polygon fill="#bfbfbf" stroke="black" points="0,-44 0,-74 122,-74 122,-44 0,-44"/>
<text text-anchor="start" x="8" y="-62" font-family="Helvetica,sans-Serif" font-size="10.00">RoR::GUI::MpClientList</text>
<text text-anchor="middle" x="61" y="-51" font-family="Helvetica,sans-Serif" font-size="10.00">::update</text>
</g>
<!-- Node2 -->
<g id="node2" class="node"><title>Node2</title>
<g id="a_node2"><a xlink:href="class_ro_r_1_1_g_u_i_1_1_mp_client_list.html#a39f1ace97e41e7f020fb11add7d32ccc" target="_top" xlink:title="RoR::GUI::MpClientList\l::updateSlot">
<polygon fill="white" stroke="black" points="158,-44 158,-74 280,-74 280,-44 158,-44"/>
<text text-anchor="start" x="166" y="-62" font-family="Helvetica,sans-Serif" font-size="10.00">RoR::GUI::MpClientList</text>
<text text-anchor="middle" x="219" y="-51" font-family="Helvetica,sans-Serif" font-size="10.00">::updateSlot</text>
</a>
</g>
</g>
<!-- Node1&#45;&gt;Node2 -->
<g id="edge1" class="edge"><title>Node1&#45;&gt;Node2</title>
<path fill="none" stroke="midnightblue" d="M122.314,-59C130.604,-59 139.175,-59 147.626,-59"/>
<polygon fill="midnightblue" stroke="midnightblue" points="147.847,-62.5001 157.847,-59 147.847,-55.5001 147.847,-62.5001"/>
</g>
<!-- Node3 -->
<g id="node3" class="node"><title>Node3</title>
<g id="a_node3"><a xlink:href="class_ro_r_frame_listener.html#a0398db79a92d8178b77e3733abc9a238" target="_top" xlink:title="RoRFrameListener::GetBeam\lFactory">
<polygon fill="white" stroke="black" points="336,-88 336,-118 482,-118 482,-88 336,-88"/>
<text text-anchor="start" x="344" y="-106" font-family="Helvetica,sans-Serif" font-size="10.00">RoRFrameListener::GetBeam</text>
<text text-anchor="middle" x="409" y="-95" font-family="Helvetica,sans-Serif" font-size="10.00">Factory</text>
</a>
</g>
</g>
<!-- Node2&#45;&gt;Node3 -->
<g id="edge2" class="edge"><title>Node2&#45;&gt;Node3</title>
<path fill="none" stroke="midnightblue" d="M280.001,-73.0428C297.138,-77.0535 316.017,-81.472 333.89,-85.6551"/>
<polygon fill="midnightblue" stroke="midnightblue" points="333.164,-89.0797 343.699,-87.9507 334.759,-82.2639 333.164,-89.0797"/>
</g>
<!-- Node4 -->
<g id="node4" class="node"><title>Node4</title>
<g id="a_node4"><a xlink:href="class_ro_r_1_1_beam_factory.html#af81d989e1facfd300fd8935504f0cf2d" target="_top" xlink:title="RoR::BeamFactory::checkStreamsOK">
<polygon fill="white" stroke="black" points="316.5,-49.5 316.5,-68.5 501.5,-68.5 501.5,-49.5 316.5,-49.5"/>
<text text-anchor="middle" x="409" y="-56.5" font-family="Helvetica,sans-Serif" font-size="10.00">RoR::BeamFactory::checkStreamsOK</text>
</a>
</g>
</g>
<!-- Node2&#45;&gt;Node4 -->
<g id="edge3" class="edge"><title>Node2&#45;&gt;Node4</title>
<path fill="none" stroke="midnightblue" d="M280.001,-59C288.434,-59 297.288,-59 306.236,-59"/>
<polygon fill="midnightblue" stroke="midnightblue" points="306.362,-62.5001 316.362,-59 306.362,-55.5001 306.362,-62.5001"/>
</g>
<!-- Node5 -->
<g id="node5" class="node"><title>Node5</title>
<g id="a_node5"><a xlink:href="class_ro_r_1_1_beam_factory.html#a9055984415b2d96fb51410c4323371ea" target="_top" xlink:title="RoR::BeamFactory::checkStreams\lRemoteOK">
<polygon fill="white" stroke="black" points="324,-0 324,-30 494,-30 494,-0 324,-0"/>
<text text-anchor="start" x="332" y="-18" font-family="Helvetica,sans-Serif" font-size="10.00">RoR::BeamFactory::checkStreams</text>
<text text-anchor="middle" x="409" y="-7" font-family="Helvetica,sans-Serif" font-size="10.00">RemoteOK</text>
</a>
</g>
</g>
<!-- Node2&#45;&gt;Node5 -->
<g id="edge4" class="edge"><title>Node2&#45;&gt;Node5</title>
<path fill="none" stroke="midnightblue" d="M280.001,-44.9572C297.138,-40.9465 316.017,-36.528 333.89,-32.3449"/>
<polygon fill="midnightblue" stroke="midnightblue" points="334.759,-35.7361 343.699,-30.0493 333.164,-28.9203 334.759,-35.7361"/>
</g>
</g>
</svg>
