<?xml version="1.0" encoding="UTF-8" standalone="no"?>
<!DOCTYPE svg PUBLIC "-//W3C//DTD SVG 1.1//EN"
 "http://www.w3.org/Graphics/SVG/1.1/DTD/svg11.dtd">
<!-- Generated by graphviz version 2.36.0 (20140111.2315)
 -->
<!-- Title: ImprovedConfigFile::saveAs Pages: 1 -->
<svg width="584pt" height="38pt"
 viewBox="0.00 0.00 584.00 38.00" xmlns="http://www.w3.org/2000/svg" xmlns:xlink="http://www.w3.org/1999/xlink">
<g id="graph0" class="graph" transform="scale(1 1) rotate(0) translate(4 34)">
<title>ImprovedConfigFile::saveAs</title>
<polygon fill="white" stroke="none" points="-4,4 -4,-34 580,-34 580,4 -4,4"/>
<!-- Node1 -->
<g id="node1" class="node"><title>Node1</title>
<polygon fill="#bfbfbf" stroke="black" points="0.5,-0 0.5,-30 101.5,-30 101.5,-0 0.5,-0"/>
<text text-anchor="start" x="8.5" y="-18" font-family="Helvetica,sans-Serif" font-size="10.00">ImprovedConfigFile</text>
<text text-anchor="middle" x="51" y="-7" font-family="Helvetica,sans-Serif" font-size="10.00">::saveAs</text>
</g>
<!-- Node2 -->
<g id="node2" class="node"><title>Node2</title>
<g id="a_node2"><a xlink:href="class_improved_config_file.html#a0fa55a46b54fef181d9cc15599c30f28" target="_top" xlink:title="ImprovedConfigFile\l::save">
<polygon fill="white" stroke="black" points="138.5,-0 138.5,-30 239.5,-30 239.5,-0 138.5,-0"/>
<text text-anchor="start" x="146.5" y="-18" font-family="Helvetica,sans-Serif" font-size="10.00">ImprovedConfigFile</text>
<text text-anchor="middle" x="189" y="-7" font-family="Helvetica,sans-Serif" font-size="10.00">::save</text>
</a>
</g>
</g>
<!-- Node1&#45;&gt;Node2 -->
<g id="edge1" class="edge"><title>Node1&#45;&gt;Node2</title>
<path fill="none" stroke="midnightblue" d="M112,-15C120.729,-15 129.637,-15 138.137,-15"/>
<polygon fill="midnightblue" stroke="midnightblue" points="111.869,-11.5001 101.869,-15 111.869,-18.5001 111.869,-11.5001"/>
</g>
<!-- Node3 -->
<g id="node3" class="node"><title>Node3</title>
<g id="a_node3"><a xlink:href="class_local_storage.html#a28967ad68e01d80fd9c4e6a067d10dbc" target="_top" xlink:title="LocalStorage::saveDict">
<polygon fill="white" stroke="black" points="276.5,-5.5 276.5,-24.5 395.5,-24.5 395.5,-5.5 276.5,-5.5"/>
<text text-anchor="middle" x="336" y="-12.5" font-family="Helvetica,sans-Serif" font-size="10.00">LocalStorage::saveDict</text>
</a>
</g>
</g>
<!-- Node2&#45;&gt;Node3 -->
<g id="edge2" class="edge"><title>Node2&#45;&gt;Node3</title>
<path fill="none" stroke="midnightblue" d="M249.961,-15C258.655,-15 267.597,-15 276.266,-15"/>
<polygon fill="midnightblue" stroke="midnightblue" points="249.901,-11.5001 239.901,-15 249.901,-18.5001 249.901,-11.5001"/>
</g>
<!-- Node4 -->
<g id="node4" class="node"><title>Node4</title>
<g id="a_node4"><a xlink:href="class_local_storage.html#abeb2886cf09e3ff9b6d20bc5387fc089" target="_top" xlink:title="LocalStorage::~LocalStorage">
<polygon fill="white" stroke="black" points="432.5,-5.5 432.5,-24.5 575.5,-24.5 575.5,-5.5 432.5,-5.5"/>
<text text-anchor="middle" x="504" y="-12.5" font-family="Helvetica,sans-Serif" font-size="10.00">LocalStorage::~LocalStorage</text>
</a>
</g>
</g>
<!-- Node3&#45;&gt;Node4 -->
<g id="edge3" class="edge"><title>Node3&#45;&gt;Node4</title>
<path fill="none" stroke="midnightblue" d="M405.758,-15C414.583,-15 423.629,-15 432.481,-15"/>
<polygon fill="midnightblue" stroke="midnightblue" points="405.525,-11.5001 395.525,-15 405.525,-18.5001 405.525,-11.5001"/>
</g>
</g>
</svg>
