<?xml version="1.0" encoding="UTF-8" standalone="no"?>
<!DOCTYPE svg PUBLIC "-//W3C//DTD SVG 1.1//EN"
 "http://www.w3.org/Graphics/SVG/1.1/DTD/svg11.dtd">
<!-- Generated by graphviz version 2.36.0 (20140111.2315)
 -->
<!-- Title: RoR::GUI::GameChatBox::pushMsg Pages: 1 -->
<svg width="880pt" height="115pt"
 viewBox="0.00 0.00 880.00 115.00" xmlns="http://www.w3.org/2000/svg" xmlns:xlink="http://www.w3.org/1999/xlink">
<g id="graph0" class="graph" transform="scale(1 1) rotate(0) translate(4 111)">
<title>RoR::GUI::GameChatBox::pushMsg</title>
<polygon fill="white" stroke="none" points="-4,4 -4,-111 876,-111 876,4 -4,4"/>
<!-- Node1 -->
<g id="node1" class="node"><title>Node1</title>
<polygon fill="#bfbfbf" stroke="black" points="0.5,-44 0.5,-74 131.5,-74 131.5,-44 0.5,-44"/>
<text text-anchor="start" x="8.5" y="-62" font-family="Helvetica,sans-Serif" font-size="10.00">RoR::GUI::GameChatBox</text>
<text text-anchor="middle" x="66" y="-51" font-family="Helvetica,sans-Serif" font-size="10.00">::pushMsg</text>
</g>
<!-- Node2 -->
<g id="node2" class="node"><title>Node2</title>
<g id="a_node2"><a xlink:href="class_ro_r_1_1_g_u_i_manager.html#a1800f11b608bda375d794ca4e7a86ed3" target="_top" xlink:title="RoR::GUIManager::pushMessage\lChatBox">
<polygon fill="white" stroke="black" points="168.5,-44 168.5,-74 333.5,-74 333.5,-44 168.5,-44"/>
<text text-anchor="start" x="176.5" y="-62" font-family="Helvetica,sans-Serif" font-size="10.00">RoR::GUIManager::pushMessage</text>
<text text-anchor="middle" x="251" y="-51" font-family="Helvetica,sans-Serif" font-size="10.00">ChatBox</text>
</a>
</g>
</g>
<!-- Node1&#45;&gt;Node2 -->
<g id="edge1" class="edge"><title>Node1&#45;&gt;Node2</title>
<path fill="none" stroke="midnightblue" d="M141.73,-59C150.529,-59 159.543,-59 168.43,-59"/>
<polygon fill="midnightblue" stroke="midnightblue" points="141.519,-55.5001 131.519,-59 141.519,-62.5001 141.519,-55.5001"/>
</g>
<!-- Node3 -->
<g id="node3" class="node"><title>Node3</title>
<g id="a_node3"><a xlink:href="namespace_ro_r_1_1_chat_system.html#ac86a179645242547b160be482c8660f8" target="_top" xlink:title="RoR::ChatSystem::SendPrivateChat">
<polygon fill="white" stroke="black" points="379,-87.5 379,-106.5 557,-106.5 557,-87.5 379,-87.5"/>
<text text-anchor="middle" x="468" y="-94.5" font-family="Helvetica,sans-Serif" font-size="10.00">RoR::ChatSystem::SendPrivateChat</text>
</a>
</g>
</g>
<!-- Node2&#45;&gt;Node3 -->
<g id="edge2" class="edge"><title>Node2&#45;&gt;Node3</title>
<path fill="none" stroke="midnightblue" d="M343.659,-75.2002C367.339,-79.3854 392.067,-83.756 413.111,-87.4754"/>
<polygon fill="midnightblue" stroke="midnightblue" points="344.045,-71.7143 333.589,-73.4204 342.827,-78.6075 344.045,-71.7143"/>
</g>
<!-- Node5 -->
<g id="node5" class="node"><title>Node5</title>
<g id="a_node5"><a xlink:href="class_ro_r_frame_listener.html#aca3931d7a75f2ad4b9d36c4fcd03a3c9" target="_top" xlink:title="RoRFrameListener::SetupGameplayLoop">
<polygon fill="white" stroke="black" points="370,-49.5 370,-68.5 566,-68.5 566,-49.5 370,-49.5"/>
<text text-anchor="middle" x="468" y="-56.5" font-family="Helvetica,sans-Serif" font-size="10.00">RoRFrameListener::SetupGameplayLoop</text>
</a>
</g>
</g>
<!-- Node2&#45;&gt;Node5 -->
<g id="edge4" class="edge"><title>Node2&#45;&gt;Node5</title>
<path fill="none" stroke="midnightblue" d="M343.705,-59C352.389,-59 361.213,-59 369.945,-59"/>
<polygon fill="midnightblue" stroke="midnightblue" points="343.589,-55.5001 333.589,-59 343.589,-62.5001 343.589,-55.5001"/>
</g>
<!-- Node8 -->
<g id="node8" class="node"><title>Node8</title>
<g id="a_node8"><a xlink:href="class_ro_r_1_1_beam_factory.html#a32e01669e8f438abae20a1a463dcb355" target="_top" xlink:title="RoR::BeamFactory::Create\lRemoteInstance">
<polygon fill="white" stroke="black" points="399.5,-0 399.5,-30 536.5,-30 536.5,-0 399.5,-0"/>
<text text-anchor="start" x="407.5" y="-18" font-family="Helvetica,sans-Serif" font-size="10.00">RoR::BeamFactory::Create</text>
<text text-anchor="middle" x="468" y="-7" font-family="Helvetica,sans-Serif" font-size="10.00">RemoteInstance</text>
</a>
</g>
</g>
<!-- Node2&#45;&gt;Node8 -->
<g id="edge7" class="edge"><title>Node2&#45;&gt;Node8</title>
<path fill="none" stroke="midnightblue" d="M335.346,-41.9431C356.541,-37.6055 379.058,-32.9975 399.363,-28.8419"/>
<polygon fill="midnightblue" stroke="midnightblue" points="334.485,-38.5468 325.389,-43.9808 335.888,-45.4047 334.485,-38.5468"/>
</g>
<!-- Node4 -->
<g id="node4" class="node"><title>Node4</title>
<g id="a_node4"><a xlink:href="namespace_ro_r_1_1_chat_system.html#a14b342ebb5df20d82e0ff484dc9ed66b" target="_top" xlink:title="RoR::ChatSystem::SendPrivateChat">
<polygon fill="white" stroke="black" points="602,-87.5 602,-106.5 780,-106.5 780,-87.5 602,-87.5"/>
<text text-anchor="middle" x="691" y="-94.5" font-family="Helvetica,sans-Serif" font-size="10.00">RoR::ChatSystem::SendPrivateChat</text>
</a>
</g>
</g>
<!-- Node3&#45;&gt;Node4 -->
<g id="edge3" class="edge"><title>Node3&#45;&gt;Node4</title>
<path fill="none" stroke="midnightblue" d="M567.339,-97C578.831,-97 590.5,-97 601.842,-97"/>
<polygon fill="midnightblue" stroke="midnightblue" points="567.298,-93.5001 557.298,-97 567.298,-100.5 567.298,-93.5001"/>
</g>
<!-- Node6 -->
<g id="node6" class="node"><title>Node6</title>
<g id="a_node6"><a xlink:href="main_8cpp.html#a0ddf1224851353fc92bfbff6f499fa97" target="_top" xlink:title="main">
<polygon fill="white" stroke="black" points="672,-49.5 672,-68.5 710,-68.5 710,-49.5 672,-49.5"/>
<text text-anchor="middle" x="691" y="-56.5" font-family="Helvetica,sans-Serif" font-size="10.00">main</text>
</a>
</g>
</g>
<!-- Node5&#45;&gt;Node6 -->
<g id="edge5" class="edge"><title>Node5&#45;&gt;Node6</title>
<path fill="none" stroke="midnightblue" d="M576.564,-59C613.201,-59 650.268,-59 671.641,-59"/>
<polygon fill="midnightblue" stroke="midnightblue" points="576.255,-55.5001 566.255,-59 576.255,-62.5001 576.255,-55.5001"/>
</g>
<!-- Node7 -->
<g id="node7" class="node"><title>Node7</title>
<g id="a_node7"><a xlink:href="main_8cpp.html#a2922bc5d5c2d77a3020cfbf9df12aab0" target="_top" xlink:title="WinMain">
<polygon fill="white" stroke="black" points="816.5,-49.5 816.5,-68.5 871.5,-68.5 871.5,-49.5 816.5,-49.5"/>
<text text-anchor="middle" x="844" y="-56.5" font-family="Helvetica,sans-Serif" font-size="10.00">WinMain</text>
</a>
</g>
</g>
<!-- Node6&#45;&gt;Node7 -->
<g id="edge6" class="edge"><title>Node6&#45;&gt;Node7</title>
<path fill="none" stroke="midnightblue" d="M720.377,-59C747.915,-59 789.388,-59 816.331,-59"/>
<polygon fill="midnightblue" stroke="midnightblue" points="720.214,-55.5001 710.214,-59 720.214,-62.5001 720.214,-55.5001"/>
</g>
</g>
</svg>
