<?xml version="1.0" encoding="UTF-8" standalone="no"?>
<!DOCTYPE svg PUBLIC "-//W3C//DTD SVG 1.1//EN"
 "http://www.w3.org/Graphics/SVG/1.1/DTD/svg11.dtd">
<!-- Generated by graphviz version 2.36.0 (20140111.2315)
 -->
<!-- Title: RoR::BeamFactory::setTrucksForcedActive Pages: 1 -->
<svg width="476pt" height="38pt"
 viewBox="0.00 0.00 476.00 38.00" xmlns="http://www.w3.org/2000/svg" xmlns:xlink="http://www.w3.org/1999/xlink">
<g id="graph0" class="graph" transform="scale(1 1) rotate(0) translate(4 34)">
<title>RoR::BeamFactory::setTrucksForcedActive</title>
<polygon fill="white" stroke="none" points="-4,4 -4,-34 472,-34 472,4 -4,4"/>
<!-- Node1 -->
<g id="node1" class="node"><title>Node1</title>
<polygon fill="#bfbfbf" stroke="black" points="0.5,-0 0.5,-30 151.5,-30 151.5,-0 0.5,-0"/>
<text text-anchor="start" x="8.5" y="-18" font-family="Helvetica,sans-Serif" font-size="10.00">RoR::BeamFactory::setTrucks</text>
<text text-anchor="middle" x="76" y="-7" font-family="Helvetica,sans-Serif" font-size="10.00">ForcedActive</text>
</g>
<!-- Node2 -->
<g id="node2" class="node"><title>Node2</title>
<g id="a_node2"><a xlink:href="class_ro_r_1_1_g_u_i_1_1_top_menubar.html#ad1c44bd3c1247dcd8b876ff7728fac32" target="_top" xlink:title="RoR::GUI::TopMenubar\l::onMenuBtn">
<polygon fill="white" stroke="black" points="188.5,-0 188.5,-30 309.5,-30 309.5,-0 188.5,-0"/>
<text text-anchor="start" x="196.5" y="-18" font-family="Helvetica,sans-Serif" font-size="10.00">RoR::GUI::TopMenubar</text>
<text text-anchor="middle" x="249" y="-7" font-family="Helvetica,sans-Serif" font-size="10.00">::onMenuBtn</text>
</a>
</g>
</g>
<!-- Node1&#45;&gt;Node2 -->
<g id="edge1" class="edge"><title>Node1&#45;&gt;Node2</title>
<path fill="none" stroke="midnightblue" d="M161.668,-15C170.693,-15 179.731,-15 188.378,-15"/>
<polygon fill="midnightblue" stroke="midnightblue" points="161.506,-11.5001 151.506,-15 161.506,-18.5001 161.506,-11.5001"/>
</g>
<!-- Node3 -->
<g id="node3" class="node"><title>Node3</title>
<g id="a_node3"><a xlink:href="class_ro_r_1_1_g_u_i_1_1_top_menubar.html#aba4f8b1030da3a9d3b4394562d60a05a" target="_top" xlink:title="RoR::GUI::TopMenubar\l::TopMenubar">
<polygon fill="white" stroke="black" points="346.5,-0 346.5,-30 467.5,-30 467.5,-0 346.5,-0"/>
<text text-anchor="start" x="354.5" y="-18" font-family="Helvetica,sans-Serif" font-size="10.00">RoR::GUI::TopMenubar</text>
<text text-anchor="middle" x="407" y="-7" font-family="Helvetica,sans-Serif" font-size="10.00">::TopMenubar</text>
</a>
</g>
</g>
<!-- Node2&#45;&gt;Node3 -->
<g id="edge2" class="edge"><title>Node2&#45;&gt;Node3</title>
<path fill="none" stroke="midnightblue" d="M320.06,-15C328.819,-15 337.712,-15 346.293,-15"/>
<polygon fill="midnightblue" stroke="midnightblue" points="319.868,-11.5001 309.868,-15 319.867,-18.5001 319.868,-11.5001"/>
</g>
</g>
</svg>
