<?xml version="1.0" encoding="UTF-8" standalone="no"?>
<!DOCTYPE svg PUBLIC "-//W3C//DTD SVG 1.1//EN"
 "http://www.w3.org/Graphics/SVG/1.1/DTD/svg11.dtd">
<!-- Generated by graphviz version 2.36.0 (20140111.2315)
 -->
<!-- Title: Hydrax::Noise::FFT::_normalizeFFTData Pages: 1 -->
<svg width="818pt" height="87pt"
 viewBox="0.00 0.00 818.00 87.00" xmlns="http://www.w3.org/2000/svg" xmlns:xlink="http://www.w3.org/1999/xlink">
<g id="graph0" class="graph" transform="scale(1 1) rotate(0) translate(4 83)">
<title>Hydrax::Noise::FFT::_normalizeFFTData</title>
<polygon fill="white" stroke="none" points="-4,4 -4,-83 814,-83 814,4 -4,4"/>
<!-- Node1 -->
<g id="node1" class="node"><title>Node1</title>
<polygon fill="#bfbfbf" stroke="black" points="0.5,-24 0.5,-54 109.5,-54 109.5,-24 0.5,-24"/>
<text text-anchor="start" x="8.5" y="-42" font-family="Helvetica,sans-Serif" font-size="10.00">Hydrax::Noise::FFT</text>
<text text-anchor="middle" x="55" y="-31" font-family="Helvetica,sans-Serif" font-size="10.00">::_normalizeFFTData</text>
</g>
<!-- Node2 -->
<g id="node2" class="node"><title>Node2</title>
<g id="a_node2"><a xlink:href="class_hydrax_1_1_noise_1_1_f_f_t.html#a151554f29d50a392787763c42df4c7e2" target="_top" xlink:title="Hydrax::Noise::FFT\l::_calculeNoise">
<polygon fill="white" stroke="black" points="146,-24 146,-54 250,-54 250,-24 146,-24"/>
<text text-anchor="start" x="154" y="-42" font-family="Helvetica,sans-Serif" font-size="10.00">Hydrax::Noise::FFT</text>
<text text-anchor="middle" x="198" y="-31" font-family="Helvetica,sans-Serif" font-size="10.00">::_calculeNoise</text>
</a>
</g>
</g>
<!-- Node1&#45;&gt;Node2 -->
<g id="edge1" class="edge"><title>Node1&#45;&gt;Node2</title>
<path fill="none" stroke="midnightblue" d="M119.816,-39C128.508,-39 137.336,-39 145.765,-39"/>
<polygon fill="midnightblue" stroke="midnightblue" points="119.708,-35.5001 109.708,-39 119.708,-42.5001 119.708,-35.5001"/>
</g>
<!-- Node3 -->
<g id="node3" class="node"><title>Node3</title>
<g id="a_node3"><a xlink:href="class_hydrax_1_1_noise_1_1_f_f_t.html#aedb7b8614828cda29b62aa6c1509e22a" target="_top" xlink:title="Hydrax::Noise::FFT\l::update">
<polygon fill="white" stroke="black" points="286,-49 286,-79 390,-79 390,-49 286,-49"/>
<text text-anchor="start" x="294" y="-67" font-family="Helvetica,sans-Serif" font-size="10.00">Hydrax::Noise::FFT</text>
<text text-anchor="middle" x="338" y="-56" font-family="Helvetica,sans-Serif" font-size="10.00">::update</text>
</a>
</g>
</g>
<!-- Node2&#45;&gt;Node3 -->
<g id="edge2" class="edge"><title>Node2&#45;&gt;Node3</title>
<path fill="none" stroke="midnightblue" d="M260.496,-50.1405C268.872,-51.658 277.398,-53.2025 285.571,-54.6831"/>
<polygon fill="midnightblue" stroke="midnightblue" points="260.85,-46.6478 250.386,-48.3091 259.602,-53.5357 260.85,-46.6478"/>
</g>
<!-- Node4 -->
<g id="node4" class="node"><title>Node4</title>
<g id="a_node4"><a xlink:href="class_hydrax_1_1_noise_1_1_f_f_t.html#a1853cb0b53ecccb1ecc06c5cd8fe65aa" target="_top" xlink:title="Hydrax::Noise::FFT\l::_initNoise">
<polygon fill="white" stroke="black" points="286,-0 286,-30 390,-30 390,-0 286,-0"/>
<text text-anchor="start" x="294" y="-18" font-family="Helvetica,sans-Serif" font-size="10.00">Hydrax::Noise::FFT</text>
<text text-anchor="middle" x="338" y="-7" font-family="Helvetica,sans-Serif" font-size="10.00">::_initNoise</text>
</a>
</g>
</g>
<!-- Node2&#45;&gt;Node4 -->
<g id="edge3" class="edge"><title>Node2&#45;&gt;Node4</title>
<path fill="none" stroke="midnightblue" d="M260.496,-28.3051C268.872,-26.8483 277.398,-25.3656 285.571,-23.9442"/>
<polygon fill="midnightblue" stroke="midnightblue" points="259.639,-24.9016 250.386,-30.0633 260.838,-31.798 259.639,-24.9016"/>
</g>
<!-- Node5 -->
<g id="node5" class="node"><title>Node5</title>
<g id="a_node5"><a xlink:href="class_hydrax_1_1_noise_1_1_f_f_t.html#ac382e8624b864a32267687592b769bd3" target="_top" xlink:title="Hydrax::Noise::FFT\l::create">
<polygon fill="white" stroke="black" points="426,-0 426,-30 530,-30 530,-0 426,-0"/>
<text text-anchor="start" x="434" y="-18" font-family="Helvetica,sans-Serif" font-size="10.00">Hydrax::Noise::FFT</text>
<text text-anchor="middle" x="478" y="-7" font-family="Helvetica,sans-Serif" font-size="10.00">::create</text>
</a>
</g>
</g>
<!-- Node4&#45;&gt;Node5 -->
<g id="edge4" class="edge"><title>Node4&#45;&gt;Node5</title>
<path fill="none" stroke="midnightblue" d="M400.496,-15C408.872,-15 417.398,-15 425.571,-15"/>
<polygon fill="midnightblue" stroke="midnightblue" points="400.386,-11.5001 390.386,-15 400.386,-18.5001 400.386,-11.5001"/>
</g>
<!-- Node6 -->
<g id="node6" class="node"><title>Node6</title>
<g id="a_node6"><a xlink:href="class_hydrax_1_1_noise_1_1_f_f_t.html#a1d7ec06eb11cda608cc8f73256c35be5" target="_top" xlink:title="Hydrax::Noise::FFT\l::setOptions">
<polygon fill="white" stroke="black" points="566,-0 566,-30 670,-30 670,-0 566,-0"/>
<text text-anchor="start" x="574" y="-18" font-family="Helvetica,sans-Serif" font-size="10.00">Hydrax::Noise::FFT</text>
<text text-anchor="middle" x="618" y="-7" font-family="Helvetica,sans-Serif" font-size="10.00">::setOptions</text>
</a>
</g>
</g>
<!-- Node5&#45;&gt;Node6 -->
<g id="edge5" class="edge"><title>Node5&#45;&gt;Node6</title>
<path fill="none" stroke="midnightblue" d="M540.496,-15C548.872,-15 557.398,-15 565.571,-15"/>
<polygon fill="midnightblue" stroke="midnightblue" points="540.386,-11.5001 530.386,-15 540.386,-18.5001 540.386,-11.5001"/>
</g>
<!-- Node7 -->
<g id="node7" class="node"><title>Node7</title>
<g id="a_node7"><a xlink:href="class_hydrax_1_1_noise_1_1_f_f_t.html#a64245b9e56eeb8627ac3f5260dc203dd" target="_top" xlink:title="Hydrax::Noise::FFT\l::loadCfg">
<polygon fill="white" stroke="black" points="706,-0 706,-30 810,-30 810,-0 706,-0"/>
<text text-anchor="start" x="714" y="-18" font-family="Helvetica,sans-Serif" font-size="10.00">Hydrax::Noise::FFT</text>
<text text-anchor="middle" x="758" y="-7" font-family="Helvetica,sans-Serif" font-size="10.00">::loadCfg</text>
</a>
</g>
</g>
<!-- Node6&#45;&gt;Node7 -->
<g id="edge6" class="edge"><title>Node6&#45;&gt;Node7</title>
<path fill="none" stroke="midnightblue" d="M680.496,-15C688.872,-15 697.398,-15 705.571,-15"/>
<polygon fill="midnightblue" stroke="midnightblue" points="680.386,-11.5001 670.386,-15 680.386,-18.5001 680.386,-11.5001"/>
</g>
</g>
</svg>
