<?xml version="1.0" encoding="UTF-8" standalone="no"?>
<!DOCTYPE svg PUBLIC "-//W3C//DTD SVG 1.1//EN"
 "http://www.w3.org/Graphics/SVG/1.1/DTD/svg11.dtd">
<!-- Generated by graphviz version 2.36.0 (20140111.2315)
 -->
<!-- Title: Ogre::TerrainPSSMMaterialGenerator::SM2Profile::ShaderHelper Pages: 1 -->
<svg width="144pt" height="106pt"
 viewBox="0.00 0.00 144.00 106.00" xmlns="http://www.w3.org/2000/svg" xmlns:xlink="http://www.w3.org/1999/xlink">
<g id="graph0" class="graph" transform="scale(1 1) rotate(0) translate(4 102)">
<title>Ogre::TerrainPSSMMaterialGenerator::SM2Profile::ShaderHelper</title>
<polygon fill="white" stroke="none" points="-4,4 -4,-102 140,-102 140,4 -4,4"/>
<!-- Node1 -->
<g id="node1" class="node"><title>Node1</title>
<polygon fill="#bfbfbf" stroke="black" points="-0.5,-0.5 -0.5,-41.5 136.5,-41.5 136.5,-0.5 -0.5,-0.5"/>
<text text-anchor="start" x="7.5" y="-29.5" font-family="Helvetica,sans-Serif" font-size="10.00">Ogre::TerrainPSSMMaterial</text>
<text text-anchor="start" x="7.5" y="-18.5" font-family="Helvetica,sans-Serif" font-size="10.00">Generator::SM2Profile::</text>
<text text-anchor="middle" x="68" y="-7.5" font-family="Helvetica,sans-Serif" font-size="10.00">ShaderHelper</text>
</g>
<!-- Node2 -->
<g id="node2" class="node"><title>Node2</title>
<polygon fill="white" stroke="#bfbfbf" points="34,-78.5 34,-97.5 102,-97.5 102,-78.5 34,-78.5"/>
<text text-anchor="middle" x="68" y="-85.5" font-family="Helvetica,sans-Serif" font-size="10.00">TerrainAlloc</text>
</g>
<!-- Node2&#45;&gt;Node1 -->
<g id="edge1" class="edge"><title>Node2&#45;&gt;Node1</title>
<path fill="none" stroke="midnightblue" d="M68,-68.037C68,-59.7084 68,-49.9358 68,-41.5421"/>
<polygon fill="midnightblue" stroke="midnightblue" points="64.5001,-68.2338 68,-78.2338 71.5001,-68.2338 64.5001,-68.2338"/>
</g>
</g>
</svg>
