<?xml version="1.0" encoding="UTF-8" standalone="no"?>
<!DOCTYPE svg PUBLIC "-//W3C//DTD SVG 1.1//EN"
 "http://www.w3.org/Graphics/SVG/1.1/DTD/svg11.dtd">
<!-- Generated by graphviz version 2.36.0 (20140111.2315)
 -->
<!-- Title: Beam::updateFlexbodiesFinal Pages: 1 -->
<svg width="702pt" height="144pt"
 viewBox="0.00 0.00 702.00 143.59" xmlns="http://www.w3.org/2000/svg" xmlns:xlink="http://www.w3.org/1999/xlink">
<g id="graph0" class="graph" transform="scale(1 1) rotate(0) translate(4 139.586)">
<title>Beam::updateFlexbodiesFinal</title>
<polygon fill="white" stroke="none" points="-4,4 -4,-139.586 698,-139.586 698,4 -4,4"/>
<!-- Node1 -->
<g id="node1" class="node"><title>Node1</title>
<polygon fill="#bfbfbf" stroke="black" points="0,-71.5 0,-90.5 146,-90.5 146,-71.5 0,-71.5"/>
<text text-anchor="middle" x="73" y="-78.5" font-family="Helvetica,sans-Serif" font-size="10.00">Beam::updateFlexbodiesFinal</text>
</g>
<!-- Node2 -->
<g id="node2" class="node"><title>Node2</title>
<g id="a_node2"><a xlink:href="class_ro_r_frame_listener.html#afec2a0f00ed552c21d22aae76329bf38" target="_top" xlink:title="RoRFrameListener::Update\lInputEvents">
<polygon fill="white" stroke="black" points="358.5,-77 358.5,-107 495.5,-107 495.5,-77 358.5,-77"/>
<text text-anchor="start" x="366.5" y="-95" font-family="Helvetica,sans-Serif" font-size="10.00">RoRFrameListener::Update</text>
<text text-anchor="middle" x="427" y="-84" font-family="Helvetica,sans-Serif" font-size="10.00">InputEvents</text>
</a>
</g>
</g>
<!-- Node1&#45;&gt;Node2 -->
<g id="edge1" class="edge"><title>Node1&#45;&gt;Node2</title>
<path fill="none" stroke="midnightblue" d="M99.5426,-95.3678C120.845,-106.48 152.389,-120.957 182,-127 242.965,-139.443 260.596,-137.055 322,-127 345.5,-123.152 370.847,-114.717 390.633,-107.092"/>
<polygon fill="midnightblue" stroke="midnightblue" points="100.988,-92.1718 90.5195,-90.5413 97.6865,-98.3442 100.988,-92.1718"/>
</g>
<!-- Node4 -->
<g id="node4" class="node"><title>Node4</title>
<g id="a_node4"><a xlink:href="class_ro_r_frame_listener.html#abc123f9d1e56e13a72e5f80fdaa5a17e" target="_top" xlink:title="RoRFrameListener::Finalize\lTruckSpawning">
<polygon fill="white" stroke="black" points="182.5,-88 182.5,-118 321.5,-118 321.5,-88 182.5,-88"/>
<text text-anchor="start" x="190.5" y="-106" font-family="Helvetica,sans-Serif" font-size="10.00">RoRFrameListener::Finalize</text>
<text text-anchor="middle" x="252" y="-95" font-family="Helvetica,sans-Serif" font-size="10.00">TruckSpawning</text>
</a>
</g>
</g>
<!-- Node1&#45;&gt;Node4 -->
<g id="edge3" class="edge"><title>Node1&#45;&gt;Node4</title>
<path fill="none" stroke="midnightblue" d="M156.407,-91.2426C165.108,-92.3242 173.889,-93.4156 182.41,-94.4747"/>
<polygon fill="midnightblue" stroke="midnightblue" points="156.603,-87.7402 146.248,-89.98 155.74,-94.6868 156.603,-87.7402"/>
</g>
<!-- Node5 -->
<g id="node5" class="node"><title>Node5</title>
<g id="a_node5"><a xlink:href="class_beam.html#a0d55b25fa0d1623305f3ac51694cbd42" target="_top" xlink:title="Beam::Beam">
<polygon fill="white" stroke="black" points="215,-49.5 215,-68.5 289,-68.5 289,-49.5 215,-49.5"/>
<text text-anchor="middle" x="252" y="-56.5" font-family="Helvetica,sans-Serif" font-size="10.00">Beam::Beam</text>
</a>
</g>
</g>
<!-- Node1&#45;&gt;Node5 -->
<g id="edge5" class="edge"><title>Node1&#45;&gt;Node5</title>
<path fill="none" stroke="midnightblue" d="M156.243,-70.7777C176.717,-68.233 197.639,-65.6324 214.598,-63.5246"/>
<polygon fill="midnightblue" stroke="midnightblue" points="155.74,-67.3132 146.248,-72.02 156.603,-74.2598 155.74,-67.3132"/>
</g>
<!-- Node6 -->
<g id="node6" class="node"><title>Node6</title>
<g id="a_node6"><a xlink:href="class_ro_r_1_1_beam_factory.html#ad7cd25bde010030495830d42291de38b" target="_top" xlink:title="RoR::BeamFactory::update\lFlexbodiesFinal">
<polygon fill="white" stroke="black" points="183.5,-0 183.5,-30 320.5,-30 320.5,-0 183.5,-0"/>
<text text-anchor="start" x="191.5" y="-18" font-family="Helvetica,sans-Serif" font-size="10.00">RoR::BeamFactory::update</text>
<text text-anchor="middle" x="252" y="-7" font-family="Helvetica,sans-Serif" font-size="10.00">FlexbodiesFinal</text>
</a>
</g>
</g>
<!-- Node1&#45;&gt;Node6 -->
<g id="edge6" class="edge"><title>Node1&#45;&gt;Node6</title>
<path fill="none" stroke="midnightblue" d="M108.377,-67.7968C129.572,-59.6946 157.326,-49.1528 182,-40 190.72,-36.7652 200.078,-33.3423 209.001,-30.1018"/>
<polygon fill="midnightblue" stroke="midnightblue" points="106.927,-64.604 98.8393,-71.4474 109.43,-71.1415 106.927,-64.604"/>
</g>
<!-- Node3 -->
<g id="node3" class="node"><title>Node3</title>
<g id="a_node3"><a xlink:href="class_ro_r_frame_listener.html#acd8647e188fb8e838689492965b86faf" target="_top" xlink:title="RoRFrameListener::frameStarted">
<polygon fill="white" stroke="black" points="532.5,-49.5 532.5,-68.5 693.5,-68.5 693.5,-49.5 532.5,-49.5"/>
<text text-anchor="middle" x="613" y="-56.5" font-family="Helvetica,sans-Serif" font-size="10.00">RoRFrameListener::frameStarted</text>
</a>
</g>
</g>
<!-- Node2&#45;&gt;Node3 -->
<g id="edge2" class="edge"><title>Node2&#45;&gt;Node3</title>
<path fill="none" stroke="midnightblue" d="M505.594,-78.0836C523.519,-74.8689 542.192,-71.52 558.799,-68.5414"/>
<polygon fill="midnightblue" stroke="midnightblue" points="504.956,-74.6422 495.731,-79.8526 506.192,-81.5322 504.956,-74.6422"/>
</g>
<!-- Node4&#45;&gt;Node2 -->
<g id="edge4" class="edge"><title>Node4&#45;&gt;Node2</title>
<path fill="none" stroke="midnightblue" d="M331.852,-97.9863C340.751,-97.4205 349.759,-96.8477 358.494,-96.2923"/>
<polygon fill="midnightblue" stroke="midnightblue" points="331.629,-94.4933 321.871,-98.6209 332.073,-101.479 331.629,-94.4933"/>
</g>
<!-- Node6&#45;&gt;Node2 -->
<g id="edge7" class="edge"><title>Node6&#45;&gt;Node2</title>
<path fill="none" stroke="midnightblue" d="M306.544,-33.7032C311.799,-35.747 317.024,-37.8633 322,-40 348.339,-51.3111 377.457,-66.0732 398.167,-76.9777"/>
<polygon fill="midnightblue" stroke="midnightblue" points="307.692,-30.3952 297.101,-30.114 305.205,-36.9385 307.692,-30.3952"/>
</g>
<!-- Node6&#45;&gt;Node3 -->
<g id="edge8" class="edge"><title>Node6&#45;&gt;Node3</title>
<path fill="none" stroke="midnightblue" d="M330.753,-24.5296C391.059,-31.9208 474.242,-42.1161 534.487,-49.4998"/>
<polygon fill="midnightblue" stroke="midnightblue" points="330.877,-21.0187 320.525,-23.2761 330.025,-27.9667 330.877,-21.0187"/>
</g>
</g>
</svg>
