<?xml version="1.0" encoding="UTF-8" standalone="no"?>
<!DOCTYPE svg PUBLIC "-//W3C//DTD SVG 1.1//EN"
 "http://www.w3.org/Graphics/SVG/1.1/DTD/svg11.dtd">
<!-- Generated by graphviz version 2.36.0 (20140111.2315)
 -->
<!-- Title: GUIInputManager::SupressCursor Pages: 1 -->
<svg width="1054pt" height="136pt"
 viewBox="0.00 0.00 1054.00 136.00" xmlns="http://www.w3.org/2000/svg" xmlns:xlink="http://www.w3.org/1999/xlink">
<g id="graph0" class="graph" transform="scale(1 1) rotate(0) translate(4 132)">
<title>GUIInputManager::SupressCursor</title>
<polygon fill="white" stroke="none" points="-4,4 -4,-132 1050,-132 1050,4 -4,4"/>
<!-- Node1 -->
<g id="node1" class="node"><title>Node1</title>
<polygon fill="#bfbfbf" stroke="black" points="0,-49 0,-79 136,-79 136,-49 0,-49"/>
<text text-anchor="start" x="8" y="-67" font-family="Helvetica,sans-Serif" font-size="10.00">GUIInputManager::Supress</text>
<text text-anchor="middle" x="68" y="-56" font-family="Helvetica,sans-Serif" font-size="10.00">Cursor</text>
</g>
<!-- Node2 -->
<g id="node2" class="node"><title>Node2</title>
<g id="a_node2"><a xlink:href="class_ro_r_1_1_g_u_i_manager.html#a2255f5dea7d2ba3c2ab3d2970765f642" target="_top" xlink:title="RoR::GUIManager::SetMouse\lCursorVisible">
<polygon fill="white" stroke="black" points="172.5,-49 172.5,-79 321.5,-79 321.5,-49 172.5,-49"/>
<text text-anchor="start" x="180.5" y="-67" font-family="Helvetica,sans-Serif" font-size="10.00">RoR::GUIManager::SetMouse</text>
<text text-anchor="middle" x="247" y="-56" font-family="Helvetica,sans-Serif" font-size="10.00">CursorVisible</text>
</a>
</g>
</g>
<!-- Node1&#45;&gt;Node2 -->
<g id="edge1" class="edge"><title>Node1&#45;&gt;Node2</title>
<path fill="none" stroke="midnightblue" d="M146.261,-64C154.933,-64 163.751,-64 172.375,-64"/>
<polygon fill="midnightblue" stroke="midnightblue" points="146.169,-60.5001 136.168,-64 146.168,-67.5001 146.169,-60.5001"/>
</g>
<!-- Node3 -->
<g id="node3" class="node"><title>Node3</title>
<g id="a_node3"><a xlink:href="class_ro_r_1_1_g_u_i_1_1_teleport_window.html#abbaeda3e7eb3f9f57145cbff0827f8a2" target="_top" xlink:title="RoR::GUI::TeleportWindow\l::ShowAltmodeCursor">
<polygon fill="white" stroke="black" points="358.5,-49 358.5,-79 495.5,-79 495.5,-49 358.5,-49"/>
<text text-anchor="start" x="366.5" y="-67" font-family="Helvetica,sans-Serif" font-size="10.00">RoR::GUI::TeleportWindow</text>
<text text-anchor="middle" x="427" y="-56" font-family="Helvetica,sans-Serif" font-size="10.00">::ShowAltmodeCursor</text>
</a>
</g>
</g>
<!-- Node2&#45;&gt;Node3 -->
<g id="edge2" class="edge"><title>Node2&#45;&gt;Node3</title>
<path fill="none" stroke="midnightblue" d="M331.717,-64C340.647,-64 349.648,-64 358.359,-64"/>
<polygon fill="midnightblue" stroke="midnightblue" points="331.684,-60.5001 321.684,-64 331.684,-67.5001 331.684,-60.5001"/>
</g>
<!-- Node4 -->
<g id="node4" class="node"><title>Node4</title>
<g id="a_node4"><a xlink:href="class_ro_r_1_1_g_u_i_1_1_teleport_window.html#ac12c3b21c2d449c71b26173369aa3a38" target="_top" xlink:title="RoR::GUI::TeleportWindow\l::MinimapGotFocus">
<polygon fill="white" stroke="black" points="532.5,-98 532.5,-128 669.5,-128 669.5,-98 532.5,-98"/>
<text text-anchor="start" x="540.5" y="-116" font-family="Helvetica,sans-Serif" font-size="10.00">RoR::GUI::TeleportWindow</text>
<text text-anchor="middle" x="601" y="-105" font-family="Helvetica,sans-Serif" font-size="10.00">::MinimapGotFocus</text>
</a>
</g>
</g>
<!-- Node3&#45;&gt;Node4 -->
<g id="edge3" class="edge"><title>Node3&#45;&gt;Node4</title>
<path fill="none" stroke="midnightblue" d="M490.812,-81.8941C509.312,-87.1644 529.359,-92.8755 547.166,-97.9484"/>
<polygon fill="midnightblue" stroke="midnightblue" points="491.585,-78.4753 481.009,-79.1014 489.668,-85.2074 491.585,-78.4753"/>
</g>
<!-- Node6 -->
<g id="node6" class="node"><title>Node6</title>
<g id="a_node6"><a xlink:href="class_ro_r_1_1_g_u_i_1_1_teleport_window.html#af5ee78f38d36e527dcf15acba2c1645d" target="_top" xlink:title="RoR::GUI::TeleportWindow\l::MinimapLostFocus">
<polygon fill="white" stroke="black" points="532.5,-49 532.5,-79 669.5,-79 669.5,-49 532.5,-49"/>
<text text-anchor="start" x="540.5" y="-67" font-family="Helvetica,sans-Serif" font-size="10.00">RoR::GUI::TeleportWindow</text>
<text text-anchor="middle" x="601" y="-56" font-family="Helvetica,sans-Serif" font-size="10.00">::MinimapLostFocus</text>
</a>
</g>
</g>
<!-- Node3&#45;&gt;Node6 -->
<g id="edge5" class="edge"><title>Node3&#45;&gt;Node6</title>
<path fill="none" stroke="midnightblue" d="M506.134,-64C514.846,-64 523.666,-64 532.233,-64"/>
<polygon fill="midnightblue" stroke="midnightblue" points="505.979,-60.5001 495.979,-64 505.979,-67.5001 505.979,-60.5001"/>
</g>
<!-- Node7 -->
<g id="node7" class="node"><title>Node7</title>
<g id="a_node7"><a xlink:href="class_ro_r_1_1_g_u_i_1_1_teleport_window.html#a243abfa71535acbec366933a9c08c33b" target="_top" xlink:title="RoR::GUI::TeleportWindow\l::EnableAltMode">
<polygon fill="white" stroke="black" points="532.5,-0 532.5,-30 669.5,-30 669.5,-0 532.5,-0"/>
<text text-anchor="start" x="540.5" y="-18" font-family="Helvetica,sans-Serif" font-size="10.00">RoR::GUI::TeleportWindow</text>
<text text-anchor="middle" x="601" y="-7" font-family="Helvetica,sans-Serif" font-size="10.00">::EnableAltMode</text>
</a>
</g>
</g>
<!-- Node3&#45;&gt;Node7 -->
<g id="edge7" class="edge"><title>Node3&#45;&gt;Node7</title>
<path fill="none" stroke="midnightblue" d="M490.812,-46.1059C509.312,-40.8356 529.359,-35.1245 547.166,-30.0516"/>
<polygon fill="midnightblue" stroke="midnightblue" points="489.668,-42.7926 481.009,-48.8986 491.585,-49.5247 489.668,-42.7926"/>
</g>
<!-- Node5 -->
<g id="node5" class="node"><title>Node5</title>
<g id="a_node5"><a xlink:href="class_ro_r_1_1_g_u_i_1_1_teleport_window.html#a09839bd0d122825f6ae2fbd75cd8bfcb" target="_top" xlink:title="RoR::GUI::TeleportWindow\l::TeleportWindow">
<polygon fill="white" stroke="black" points="708.5,-73 708.5,-103 845.5,-103 845.5,-73 708.5,-73"/>
<text text-anchor="start" x="716.5" y="-91" font-family="Helvetica,sans-Serif" font-size="10.00">RoR::GUI::TeleportWindow</text>
<text text-anchor="middle" x="777" y="-80" font-family="Helvetica,sans-Serif" font-size="10.00">::TeleportWindow</text>
</a>
</g>
</g>
<!-- Node4&#45;&gt;Node5 -->
<g id="edge4" class="edge"><title>Node4&#45;&gt;Node5</title>
<path fill="none" stroke="midnightblue" d="M679.682,-101.839C689.264,-100.462 698.999,-99.0634 708.414,-97.7107"/>
<polygon fill="midnightblue" stroke="midnightblue" points="679.172,-98.3761 669.771,-103.263 680.167,-105.305 679.172,-98.3761"/>
</g>
<!-- Node6&#45;&gt;Node5 -->
<g id="edge6" class="edge"><title>Node6&#45;&gt;Node5</title>
<path fill="none" stroke="midnightblue" d="M679.682,-74.7147C689.264,-76.0364 698.999,-77.3791 708.414,-78.6778"/>
<polygon fill="midnightblue" stroke="midnightblue" points="680.156,-71.247 669.771,-73.3477 679.199,-78.1814 680.156,-71.247"/>
</g>
<!-- Node8 -->
<g id="node8" class="node"><title>Node8</title>
<g id="a_node8"><a xlink:href="class_ro_r_1_1_g_u_i_1_1_teleport_window.html#a0068aab5f9d3800bb3e082509403e326" target="_top" xlink:title="RoR::GUI::TeleportWindow\l::TeleportWindowFrameStep">
<polygon fill="white" stroke="black" points="706.5,-0 706.5,-30 847.5,-30 847.5,-0 706.5,-0"/>
<text text-anchor="start" x="714.5" y="-18" font-family="Helvetica,sans-Serif" font-size="10.00">RoR::GUI::TeleportWindow</text>
<text text-anchor="middle" x="777" y="-7" font-family="Helvetica,sans-Serif" font-size="10.00">::TeleportWindowFrameStep</text>
</a>
</g>
</g>
<!-- Node7&#45;&gt;Node8 -->
<g id="edge8" class="edge"><title>Node7&#45;&gt;Node8</title>
<path fill="none" stroke="midnightblue" d="M680.016,-15C688.811,-15 697.729,-15 706.406,-15"/>
<polygon fill="midnightblue" stroke="midnightblue" points="679.771,-11.5001 669.771,-15 679.771,-18.5001 679.771,-11.5001"/>
</g>
<!-- Node9 -->
<g id="node9" class="node"><title>Node9</title>
<g id="a_node9"><a xlink:href="class_ro_r_frame_listener.html#acd8647e188fb8e838689492965b86faf" target="_top" xlink:title="RoRFrameListener::frameStarted">
<polygon fill="white" stroke="black" points="884.5,-5.5 884.5,-24.5 1045.5,-24.5 1045.5,-5.5 884.5,-5.5"/>
<text text-anchor="middle" x="965" y="-12.5" font-family="Helvetica,sans-Serif" font-size="10.00">RoRFrameListener::frameStarted</text>
</a>
</g>
</g>
<!-- Node8&#45;&gt;Node9 -->
<g id="edge9" class="edge"><title>Node8&#45;&gt;Node9</title>
<path fill="none" stroke="midnightblue" d="M857.736,-15C866.514,-15 875.453,-15 884.232,-15"/>
<polygon fill="midnightblue" stroke="midnightblue" points="857.524,-11.5001 847.524,-15 857.524,-18.5001 857.524,-11.5001"/>
</g>
</g>
</svg>
