<?xml version="1.0" encoding="UTF-8" standalone="no"?>
<!DOCTYPE svg PUBLIC "-//W3C//DTD SVG 1.1//EN"
 "http://www.w3.org/Graphics/SVG/1.1/DTD/svg11.dtd">
<!-- Generated by graphviz version 2.36.0 (20140111.2315)
 -->
<!-- Title: Hydrax::Hydrax::setSmoothPower Pages: 1 -->
<svg width="482pt" height="38pt"
 viewBox="0.00 0.00 482.00 38.00" xmlns="http://www.w3.org/2000/svg" xmlns:xlink="http://www.w3.org/1999/xlink">
<g id="graph0" class="graph" transform="scale(1 1) rotate(0) translate(4 34)">
<title>Hydrax::Hydrax::setSmoothPower</title>
<polygon fill="white" stroke="none" points="-4,4 -4,-34 478,-34 478,4 -4,4"/>
<!-- Node1 -->
<g id="node1" class="node"><title>Node1</title>
<polygon fill="#bfbfbf" stroke="black" points="0.5,-0 0.5,-30 139.5,-30 139.5,-0 0.5,-0"/>
<text text-anchor="start" x="8.5" y="-18" font-family="Helvetica,sans-Serif" font-size="10.00">Hydrax::Hydrax::setSmooth</text>
<text text-anchor="middle" x="70" y="-7" font-family="Helvetica,sans-Serif" font-size="10.00">Power</text>
</g>
<!-- Node2 -->
<g id="node2" class="node"><title>Node2</title>
<g id="a_node2"><a xlink:href="class_hydrax_1_1_cfg_file_manager.html#a6717ef4e731b3c22d71260aaa6d0336a" target="_top" xlink:title="Hydrax::CfgFileManager\l::_loadComponentsSettings">
<polygon fill="white" stroke="black" points="176.5,-0 176.5,-30 313.5,-30 313.5,-0 176.5,-0"/>
<text text-anchor="start" x="184.5" y="-18" font-family="Helvetica,sans-Serif" font-size="10.00">Hydrax::CfgFileManager</text>
<text text-anchor="middle" x="245" y="-7" font-family="Helvetica,sans-Serif" font-size="10.00">::_loadComponentsSettings</text>
</a>
</g>
</g>
<!-- Node1&#45;&gt;Node2 -->
<g id="edge1" class="edge"><title>Node1&#45;&gt;Node2</title>
<path fill="none" stroke="midnightblue" d="M150.139,-15C158.945,-15 167.852,-15 176.494,-15"/>
<polygon fill="midnightblue" stroke="midnightblue" points="149.871,-11.5001 139.871,-15 149.871,-18.5001 149.871,-11.5001"/>
</g>
<!-- Node3 -->
<g id="node3" class="node"><title>Node3</title>
<g id="a_node3"><a xlink:href="class_hydrax_1_1_cfg_file_manager.html#a7d283a6b6b61ad70292c7cb24cd3543c" target="_top" xlink:title="Hydrax::CfgFileManager\l::load">
<polygon fill="white" stroke="black" points="350.5,-0 350.5,-30 473.5,-30 473.5,-0 350.5,-0"/>
<text text-anchor="start" x="358.5" y="-18" font-family="Helvetica,sans-Serif" font-size="10.00">Hydrax::CfgFileManager</text>
<text text-anchor="middle" x="412" y="-7" font-family="Helvetica,sans-Serif" font-size="10.00">::load</text>
</a>
</g>
</g>
<!-- Node2&#45;&gt;Node3 -->
<g id="edge2" class="edge"><title>Node2&#45;&gt;Node3</title>
<path fill="none" stroke="midnightblue" d="M323.668,-15C332.645,-15 341.698,-15 350.401,-15"/>
<polygon fill="midnightblue" stroke="midnightblue" points="323.588,-11.5001 313.588,-15 323.588,-18.5001 323.588,-11.5001"/>
</g>
</g>
</svg>
