<?xml version="1.0" encoding="UTF-8" standalone="no"?>
<!DOCTYPE svg PUBLIC "-//W3C//DTD SVG 1.1//EN"
 "http://www.w3.org/Graphics/SVG/1.1/DTD/svg11.dtd">
<!-- Generated by graphviz version 2.36.0 (20140111.2315)
 -->
<!-- Title: GUIInputManager::mouseReleased Pages: 1 -->
<!--zoomable 692 -->
<svg id="main" version="1.1" xmlns="http://www.w3.org/2000/svg" xmlns:xlink="http://www.w3.org/1999/xlink" xml:space="preserve" onload="init(evt)">
<style type="text/css"><![CDATA[
.edge:hover path { stroke: red; }
.edge:hover polygon { stroke: red; fill: red; }
]]></style>
<script type="text/javascript"><![CDATA[
var edges = document.getElementsByTagName('g');
if (edges && edges.length) {
  for (var i=0;i<edges.length;i++) {
    if (edges[i].id.substr(0,4)=='edge') {
      edges[i].setAttribute('class','edge');
    }
  }
}
]]></script>
        <defs>
                <circle id="rim" cx="0" cy="0" r="7"/>
                <circle id="rim2" cx="0" cy="0" r="3.5"/>
                <g id="zoomPlus">
                        <use xlink:href="#rim" fill="#404040">
                                <set attributeName="fill" to="#808080" begin="zoomplus.mouseover" end="zoomplus.mouseout"/>
                        </use>
                        <path d="M-4,0h8M0,-4v8" fill="none" stroke="white" stroke-width="1.5" pointer-events="none"/>
                </g>
                <g id="zoomMin">
                        <use xlink:href="#rim" fill="#404040">
                                <set attributeName="fill" to="#808080" begin="zoomminus.mouseover" end="zoomminus.mouseout"/>
                        </use>
                        <path d="M-4,0h8" fill="none" stroke="white" stroke-width="1.5" pointer-events="none"/>
                </g>
                <g id="dirArrow">
                        <path fill="none" stroke="white" stroke-width="1.5" d="M0,-3.0v7 M-2.5,-0.5L0,-3.0L2.5,-0.5"/>
                </g>
               <g id="resetDef">
                       <use xlink:href="#rim2" fill="#404040">
                               <set attributeName="fill" to="#808080" begin="reset.mouseover" end="reset.mouseout"/>
                       </use>
               </g>
        </defs>

<script type="text/javascript">
var viewWidth = 974;
var viewHeight = 692;
var sectionId = 'dynsection-7';
</script>
<script xlink:href="svgpan.js"/>
<svg id="graph" class="graph">
<g id="viewport">
<title>GUIInputManager::mouseReleased</title>
<polygon fill="white" stroke="none" points="-4,4 -4,-688 970,-688 970,4 -4,4"/>
<!-- Node1 -->
<g id="node1" class="node"><title>Node1</title>
<polygon fill="#bfbfbf" stroke="black" points="0,-329.5 0,-348.5 170,-348.5 170,-329.5 0,-329.5"/>
<text text-anchor="middle" x="85" y="-336.5" font-family="Helvetica,sans-Serif" font-size="10.00">GUIInputManager::mouseReleased</text>
</g>
<!-- Node2 -->
<g id="node2" class="node"><title>Node2</title>
<g id="a_node2"><a xlink:href="class_g_u_i_input_manager.html#af743c86f4405a5d1d500411986acc9a8" target="_top" xlink:title="GUIInputManager::WakeUpGUI">
<polygon fill="white" stroke="black" points="216,-623.5 216,-642.5 372,-642.5 372,-623.5 216,-623.5"/>
<text text-anchor="middle" x="294" y="-630.5" font-family="Helvetica,sans-Serif" font-size="10.00">GUIInputManager::WakeUpGUI</text>
</a>
</g>
</g>
<!-- Node1&#45;&gt;Node2 -->
<g id="edge1" class="edge"><title>Node1&#45;&gt;Node2</title>
<path fill="none" stroke="midnightblue" d="M92.8873,-348.782C122.729,-391.166 241.12,-559.316 280.32,-614.991"/>
<polygon fill="midnightblue" stroke="midnightblue" points="277.677,-617.317 286.296,-623.479 283.401,-613.287 277.677,-617.317"/>
</g>
<!-- Node7 -->
<g id="node7" class="node"><title>Node7</title>
<g id="a_node7"><a xlink:href="namespace_ro_r_1_1_app.html#a21686de9300823b37db5f3f8fe992fb1" target="_top" xlink:title="RoR::App::GetOverlayWrapper">
<polygon fill="white" stroke="black" points="218,-367.5 218,-386.5 370,-386.5 370,-367.5 218,-367.5"/>
<text text-anchor="middle" x="294" y="-374.5" font-family="Helvetica,sans-Serif" font-size="10.00">RoR::App::GetOverlayWrapper</text>
</a>
</g>
</g>
<!-- Node1&#45;&gt;Node7 -->
<g id="edge7" class="edge"><title>Node1&#45;&gt;Node7</title>
<path fill="none" stroke="midnightblue" d="M137.968,-348.54C166.266,-353.735 201.464,-360.196 231.167,-365.649"/>
<polygon fill="midnightblue" stroke="midnightblue" points="230.543,-369.093 241.011,-367.456 231.807,-362.208 230.543,-369.093"/>
</g>
<!-- Node8 -->
<g id="node8" class="node"><title>Node8</title>
<g id="a_node8"><a xlink:href="class_overlay_wrapper.html#a813c49ce923d19067d0a656c0d79c610" target="_top" xlink:title="OverlayWrapper::mouseReleased">
<polygon fill="white" stroke="black" points="212,-329.5 212,-348.5 376,-348.5 376,-329.5 212,-329.5"/>
<text text-anchor="middle" x="294" y="-336.5" font-family="Helvetica,sans-Serif" font-size="10.00">OverlayWrapper::mouseReleased</text>
</a>
</g>
</g>
<!-- Node1&#45;&gt;Node8 -->
<g id="edge8" class="edge"><title>Node1&#45;&gt;Node8</title>
<path fill="none" stroke="midnightblue" d="M170.195,-339C180.628,-339 191.333,-339 201.864,-339"/>
<polygon fill="midnightblue" stroke="midnightblue" points="201.894,-342.5 211.894,-339 201.894,-335.5 201.894,-342.5"/>
</g>
<!-- Node24 -->
<g id="node24" class="node"><title>Node24</title>
<g id="a_node24"><a xlink:href="namespace_ro_r_1_1_app.html#a9cf485c85535821ad3aaf98c65263abd" target="_top" xlink:title="RoR::App::GetSceneMouse">
<polygon fill="white" stroke="black" points="224.5,-291.5 224.5,-310.5 363.5,-310.5 363.5,-291.5 224.5,-291.5"/>
<text text-anchor="middle" x="294" y="-298.5" font-family="Helvetica,sans-Serif" font-size="10.00">RoR::App::GetSceneMouse</text>
</a>
</g>
</g>
<!-- Node1&#45;&gt;Node24 -->
<g id="edge24" class="edge"><title>Node1&#45;&gt;Node24</title>
<path fill="none" stroke="midnightblue" d="M137.968,-329.46C166.266,-324.265 201.464,-317.804 231.167,-312.351"/>
<polygon fill="midnightblue" stroke="midnightblue" points="231.807,-315.792 241.011,-310.544 230.543,-308.907 231.807,-315.792"/>
</g>
<!-- Node25 -->
<g id="node25" class="node"><title>Node25</title>
<g id="a_node25"><a xlink:href="class_ro_r_1_1_scene_mouse.html#a3acc549dff8747f1a0af196526895dc0" target="_top" xlink:title="RoR::SceneMouse::mouseReleased">
<polygon fill="white" stroke="black" points="206,-66.5 206,-85.5 382,-85.5 382,-66.5 206,-66.5"/>
<text text-anchor="middle" x="294" y="-73.5" font-family="Helvetica,sans-Serif" font-size="10.00">RoR::SceneMouse::mouseReleased</text>
</a>
</g>
</g>
<!-- Node1&#45;&gt;Node25 -->
<g id="edge25" class="edge"><title>Node1&#45;&gt;Node25</title>
<path fill="none" stroke="midnightblue" d="M93.6127,-329.328C124.233,-290.424 238.681,-145.015 278.909,-93.9033"/>
<polygon fill="midnightblue" stroke="midnightblue" points="281.884,-95.7829 285.318,-85.7602 276.383,-91.4535 281.884,-95.7829"/>
</g>
<!-- Node3 -->
<g id="node3" class="node"><title>Node3</title>
<g id="a_node3"><a xlink:href="namespace_ro_r_1_1_app.html#a68d6403d2b36006a6fa2d28f5ba8f12f" target="_top" xlink:title="RoR::App::GetGuiManager">
<polygon fill="white" stroke="black" points="821,-664.5 821,-683.5 955,-683.5 955,-664.5 821,-664.5"/>
<text text-anchor="middle" x="888" y="-671.5" font-family="Helvetica,sans-Serif" font-size="10.00">RoR::App::GetGuiManager</text>
</a>
</g>
</g>
<!-- Node2&#45;&gt;Node3 -->
<g id="edge2" class="edge"><title>Node2&#45;&gt;Node3</title>
<path fill="none" stroke="midnightblue" d="M335.471,-642.553C359.343,-647.772 390.225,-653.807 418,-657 555.704,-672.832 717.505,-675.129 810.565,-674.889"/>
<polygon fill="midnightblue" stroke="midnightblue" points="810.749,-678.389 820.736,-674.852 810.723,-671.389 810.749,-678.389"/>
</g>
<!-- Node4 -->
<g id="node4" class="node"><title>Node4</title>
<g id="a_node4"><a xlink:href="class_ro_r_1_1_g_u_i_manager.html#ae032ae0ac0445e1b4bd8db096ab4802c" target="_top" xlink:title="RoR::GUIManager::SetVisible\l_TopMenubar">
<polygon fill="white" stroke="black" points="426.5,-618 426.5,-648 575.5,-648 575.5,-618 426.5,-618"/>
<text text-anchor="start" x="434.5" y="-636" font-family="Helvetica,sans-Serif" font-size="10.00">RoR::GUIManager::SetVisible</text>
<text text-anchor="middle" x="501" y="-625" font-family="Helvetica,sans-Serif" font-size="10.00">_TopMenubar</text>
</a>
</g>
</g>
<!-- Node2&#45;&gt;Node4 -->
<g id="edge3" class="edge"><title>Node2&#45;&gt;Node4</title>
<path fill="none" stroke="midnightblue" d="M372.21,-633C386.457,-633 401.4,-633 415.841,-633"/>
<polygon fill="midnightblue" stroke="midnightblue" points="416.251,-636.5 426.251,-633 416.25,-629.5 416.251,-636.5"/>
</g>
<!-- Node5 -->
<g id="node5" class="node"><title>Node5</title>
<g id="a_node5"><a xlink:href="class_ro_r_1_1_g_u_i_1_1_top_menubar.html#a7ee247dd78285318bb567fc49eb8a467" target="_top" xlink:title="RoR::GUI::TopMenubar\l::SetVisible">
<polygon fill="white" stroke="black" points="636.5,-618 636.5,-648 757.5,-648 757.5,-618 636.5,-618"/>
<text text-anchor="start" x="644.5" y="-636" font-family="Helvetica,sans-Serif" font-size="10.00">RoR::GUI::TopMenubar</text>
<text text-anchor="middle" x="697" y="-625" font-family="Helvetica,sans-Serif" font-size="10.00">::SetVisible</text>
</a>
</g>
</g>
<!-- Node4&#45;&gt;Node5 -->
<g id="edge4" class="edge"><title>Node4&#45;&gt;Node5</title>
<path fill="none" stroke="midnightblue" d="M575.62,-633C592.219,-633 609.79,-633 626.226,-633"/>
<polygon fill="midnightblue" stroke="midnightblue" points="626.294,-636.5 636.294,-633 626.294,-629.5 626.294,-636.5"/>
</g>
<!-- Node5&#45;&gt;Node3 -->
<g id="edge5" class="edge"><title>Node5&#45;&gt;Node3</title>
<path fill="none" stroke="midnightblue" d="M757.541,-645.916C781.779,-651.174 809.588,-657.207 833.204,-662.33"/>
<polygon fill="midnightblue" stroke="midnightblue" points="832.531,-665.765 843.046,-664.465 834.015,-658.924 832.531,-665.765"/>
</g>
<!-- Node6 -->
<g id="node6" class="node"><title>Node6</title>
<g id="a_node6"><a xlink:href="class_ro_r_1_1_g_u_i_manager.html#aa9d9cf9d3a246eb3200f4a1c1e299b5b" target="_top" xlink:title="RoR::GUIManager::UnfocusGui">
<polygon fill="white" stroke="black" points="810,-623.5 810,-642.5 966,-642.5 966,-623.5 810,-623.5"/>
<text text-anchor="middle" x="888" y="-630.5" font-family="Helvetica,sans-Serif" font-size="10.00">RoR::GUIManager::UnfocusGui</text>
</a>
</g>
</g>
<!-- Node5&#45;&gt;Node6 -->
<g id="edge6" class="edge"><title>Node5&#45;&gt;Node6</title>
<path fill="none" stroke="midnightblue" d="M757.541,-633C770.863,-633 785.263,-633 799.454,-633"/>
<polygon fill="midnightblue" stroke="midnightblue" points="799.731,-636.5 809.731,-633 799.731,-629.5 799.731,-636.5"/>
</g>
<!-- Node9 -->
<g id="node9" class="node"><title>Node9</title>
<g id="a_node9"><a xlink:href="class_overlay_wrapper.html#a7059a60d3d3e067be79c66247298b56b" target="_top" xlink:title="OverlayWrapper::mouseMoved">
<polygon fill="white" stroke="black" points="425,-329.5 425,-348.5 577,-348.5 577,-329.5 425,-329.5"/>
<text text-anchor="middle" x="501" y="-336.5" font-family="Helvetica,sans-Serif" font-size="10.00">OverlayWrapper::mouseMoved</text>
</a>
</g>
</g>
<!-- Node8&#45;&gt;Node9 -->
<g id="edge9" class="edge"><title>Node8&#45;&gt;Node9</title>
<path fill="none" stroke="midnightblue" d="M376.021,-339C388.738,-339 401.916,-339 414.725,-339"/>
<polygon fill="midnightblue" stroke="midnightblue" points="414.902,-342.5 424.902,-339 414.902,-335.5 414.902,-342.5"/>
</g>
<!-- Node10 -->
<g id="node10" class="node"><title>Node10</title>
<g id="a_node10"><a xlink:href="class_ro_r_frame_listener.html#a0398db79a92d8178b77e3733abc9a238" target="_top" xlink:title="RoRFrameListener::GetBeam\lFactory">
<polygon fill="white" stroke="black" points="624,-569 624,-599 770,-599 770,-569 624,-569"/>
<text text-anchor="start" x="632" y="-587" font-family="Helvetica,sans-Serif" font-size="10.00">RoRFrameListener::GetBeam</text>
<text text-anchor="middle" x="697" y="-576" font-family="Helvetica,sans-Serif" font-size="10.00">Factory</text>
</a>
</g>
</g>
<!-- Node9&#45;&gt;Node10 -->
<g id="edge10" class="edge"><title>Node9&#45;&gt;Node10</title>
<path fill="none" stroke="midnightblue" d="M504.365,-348.553C513.263,-382.505 547.953,-498.544 620,-559 622.002,-560.68 624.12,-562.247 626.326,-563.711"/>
<polygon fill="midnightblue" stroke="midnightblue" points="624.806,-566.875 635.214,-568.852 628.311,-560.816 624.806,-566.875"/>
</g>
<!-- Node11 -->
<g id="node11" class="node"><title>Node11</title>
<g id="a_node11"><a xlink:href="class_ro_r_1_1_beam_factory.html#aeb17b3a10c961e56770f7dc87a16625c" target="_top" xlink:title="RoR::BeamFactory::getCurrent\lTruck">
<polygon fill="white" stroke="black" points="620.5,-520 620.5,-550 773.5,-550 773.5,-520 620.5,-520"/>
<text text-anchor="start" x="628.5" y="-538" font-family="Helvetica,sans-Serif" font-size="10.00">RoR::BeamFactory::getCurrent</text>
<text text-anchor="middle" x="697" y="-527" font-family="Helvetica,sans-Serif" font-size="10.00">Truck</text>
</a>
</g>
</g>
<!-- Node9&#45;&gt;Node11 -->
<g id="edge11" class="edge"><title>Node9&#45;&gt;Node11</title>
<path fill="none" stroke="midnightblue" d="M506.007,-348.768C518.414,-377.806 559.059,-464.41 620,-510 622.478,-511.854 625.101,-513.574 627.824,-515.171"/>
<polygon fill="midnightblue" stroke="midnightblue" points="626.323,-518.336 636.808,-519.858 629.561,-512.129 626.323,-518.336"/>
</g>
<!-- Node13 -->
<g id="node13" class="node"><title>Node13</title>
<g id="a_node13"><a xlink:href="class_aero_engine.html#a90099d51230d1a393a298eb13699b536" target="_top" xlink:title="AeroEngine::setThrottle">
<polygon fill="white" stroke="black" points="637.5,-481.5 637.5,-500.5 756.5,-500.5 756.5,-481.5 637.5,-481.5"/>
<text text-anchor="middle" x="697" y="-488.5" font-family="Helvetica,sans-Serif" font-size="10.00">AeroEngine::setThrottle</text>
</a>
</g>
</g>
<!-- Node9&#45;&gt;Node13 -->
<g id="edge13" class="edge"><title>Node9&#45;&gt;Node13</title>
<path fill="none" stroke="midnightblue" d="M507.741,-348.826C522.773,-373.642 565.889,-439.193 620,-472 623.598,-474.181 627.436,-476.113 631.404,-477.824"/>
<polygon fill="midnightblue" stroke="midnightblue" points="630.256,-481.131 640.846,-481.426 632.751,-474.591 630.256,-481.131"/>
</g>
<!-- Node14 -->
<g id="node14" class="node"><title>Node14</title>
<g id="a_node14"><a xlink:href="class_aero_engine.html#a2b3797238e5475e8f7d97c0fb69929ac" target="_top" xlink:title="AeroEngine::flipStart">
<polygon fill="white" stroke="black" points="643.5,-443.5 643.5,-462.5 750.5,-462.5 750.5,-443.5 643.5,-443.5"/>
<text text-anchor="middle" x="697" y="-450.5" font-family="Helvetica,sans-Serif" font-size="10.00">AeroEngine::flipStart</text>
</a>
</g>
</g>
<!-- Node9&#45;&gt;Node14 -->
<g id="edge14" class="edge"><title>Node9&#45;&gt;Node14</title>
<path fill="none" stroke="midnightblue" d="M511.084,-348.722C529.65,-367.998 574.078,-411.167 620,-434 624.675,-436.325 629.658,-438.379 634.749,-440.193"/>
<polygon fill="midnightblue" stroke="midnightblue" points="634.033,-443.64 644.625,-443.39 636.189,-436.98 634.033,-443.64"/>
</g>
<!-- Node15 -->
<g id="node15" class="node"><title>Node15</title>
<g id="a_node15"><a xlink:href="class_autopilot.html#a00b1d2ca9518bc352c4062342da50a9b" target="_top" xlink:title="Autopilot::toggleHeading">
<polygon fill="white" stroke="black" points="635.5,-405.5 635.5,-424.5 758.5,-424.5 758.5,-405.5 635.5,-405.5"/>
<text text-anchor="middle" x="697" y="-412.5" font-family="Helvetica,sans-Serif" font-size="10.00">Autopilot::toggleHeading</text>
</a>
</g>
</g>
<!-- Node9&#45;&gt;Node15 -->
<g id="edge15" class="edge"><title>Node9&#45;&gt;Node15</title>
<path fill="none" stroke="midnightblue" d="M519.108,-348.649C541.642,-361.031 582.779,-382.519 620,-396 626.857,-398.484 634.177,-400.76 641.463,-402.808"/>
<polygon fill="midnightblue" stroke="midnightblue" points="640.768,-406.245 651.333,-405.456 642.582,-399.484 640.768,-406.245"/>
</g>
<!-- Node16 -->
<g id="node16" class="node"><title>Node16</title>
<g id="a_node16"><a xlink:href="class_autopilot.html#af1607003da33dd35dad90c347e13538b" target="_top" xlink:title="Autopilot::toggleAlt">
<polygon fill="white" stroke="black" points="647.5,-367.5 647.5,-386.5 746.5,-386.5 746.5,-367.5 647.5,-367.5"/>
<text text-anchor="middle" x="697" y="-374.5" font-family="Helvetica,sans-Serif" font-size="10.00">Autopilot::toggleAlt</text>
</a>
</g>
</g>
<!-- Node9&#45;&gt;Node16 -->
<g id="edge16" class="edge"><title>Node9&#45;&gt;Node16</title>
<path fill="none" stroke="midnightblue" d="M550.954,-348.589C577.247,-353.739 609.84,-360.123 637.465,-365.534"/>
<polygon fill="midnightblue" stroke="midnightblue" points="636.911,-368.992 647.398,-367.48 638.257,-362.123 636.911,-368.992"/>
</g>
<!-- Node17 -->
<g id="node17" class="node"><title>Node17</title>
<g id="a_node17"><a xlink:href="class_autopilot.html#a3a42fb5df8a890d4ea80e804a88aaa7b" target="_top" xlink:title="Autopilot::toggleIAS">
<polygon fill="white" stroke="black" points="645,-329.5 645,-348.5 749,-348.5 749,-329.5 645,-329.5"/>
<text text-anchor="middle" x="697" y="-336.5" font-family="Helvetica,sans-Serif" font-size="10.00">Autopilot::toggleIAS</text>
</a>
</g>
</g>
<!-- Node9&#45;&gt;Node17 -->
<g id="edge17" class="edge"><title>Node9&#45;&gt;Node17</title>
<path fill="none" stroke="midnightblue" d="M577.005,-339C596.079,-339 616.35,-339 634.654,-339"/>
<polygon fill="midnightblue" stroke="midnightblue" points="634.889,-342.5 644.889,-339 634.889,-335.5 634.889,-342.5"/>
</g>
<!-- Node18 -->
<g id="node18" class="node"><title>Node18</title>
<g id="a_node18"><a xlink:href="class_autopilot.html#a8703f1437b71495a93b9a601c4707e84" target="_top" xlink:title="Autopilot::toggleGPWS">
<polygon fill="white" stroke="black" points="638,-291.5 638,-310.5 756,-310.5 756,-291.5 638,-291.5"/>
<text text-anchor="middle" x="697" y="-298.5" font-family="Helvetica,sans-Serif" font-size="10.00">Autopilot::toggleGPWS</text>
</a>
</g>
</g>
<!-- Node9&#45;&gt;Node18 -->
<g id="edge18" class="edge"><title>Node9&#45;&gt;Node18</title>
<path fill="none" stroke="midnightblue" d="M550.954,-329.411C577.247,-324.261 609.84,-317.877 637.465,-312.466"/>
<polygon fill="midnightblue" stroke="midnightblue" points="638.257,-315.877 647.398,-310.52 636.911,-309.008 638.257,-315.877"/>
</g>
<!-- Node19 -->
<g id="node19" class="node"><title>Node19</title>
<g id="a_node19"><a xlink:href="class_beam.html#a6ed36647ce357654c04703737db3463f" target="_top" xlink:title="diff lock on or off ">
<polygon fill="white" stroke="black" points="630.5,-253.5 630.5,-272.5 763.5,-272.5 763.5,-253.5 630.5,-253.5"/>
<text text-anchor="middle" x="697" y="-260.5" font-family="Helvetica,sans-Serif" font-size="10.00">Beam::parkingbrakeToggle</text>
</a>
</g>
</g>
<!-- Node9&#45;&gt;Node19 -->
<g id="edge19" class="edge"><title>Node9&#45;&gt;Node19</title>
<path fill="none" stroke="midnightblue" d="M519.108,-329.351C541.642,-316.969 582.779,-295.481 620,-282 626.857,-279.516 634.177,-277.24 641.463,-275.192"/>
<polygon fill="midnightblue" stroke="midnightblue" points="642.582,-278.516 651.333,-272.544 640.768,-271.755 642.582,-278.516"/>
</g>
<!-- Node20 -->
<g id="node20" class="node"><title>Node20</title>
<g id="a_node20"><a xlink:href="class_autopilot.html#ad9a9a33193dc7b16154902459030dfd5" target="_top" xlink:title="Autopilot::adjHDG">
<polygon fill="white" stroke="black" points="649,-215.5 649,-234.5 745,-234.5 745,-215.5 649,-215.5"/>
<text text-anchor="middle" x="697" y="-222.5" font-family="Helvetica,sans-Serif" font-size="10.00">Autopilot::adjHDG</text>
</a>
</g>
</g>
<!-- Node9&#45;&gt;Node20 -->
<g id="edge20" class="edge"><title>Node9&#45;&gt;Node20</title>
<path fill="none" stroke="midnightblue" d="M511.084,-329.278C529.65,-310.002 574.078,-266.833 620,-244 625.973,-241.03 632.447,-238.501 639.011,-236.352"/>
<polygon fill="midnightblue" stroke="midnightblue" points="640.067,-239.69 648.644,-233.47 638.06,-232.984 640.067,-239.69"/>
</g>
<!-- Node21 -->
<g id="node21" class="node"><title>Node21</title>
<g id="a_node21"><a xlink:href="class_autopilot.html#a10647aa3ee6ebd76b41cfbd9511ab19c" target="_top" xlink:title="Autopilot::adjALT">
<polygon fill="white" stroke="black" points="651,-177.5 651,-196.5 743,-196.5 743,-177.5 651,-177.5"/>
<text text-anchor="middle" x="697" y="-184.5" font-family="Helvetica,sans-Serif" font-size="10.00">Autopilot::adjALT</text>
</a>
</g>
</g>
<!-- Node9&#45;&gt;Node21 -->
<g id="edge21" class="edge"><title>Node9&#45;&gt;Node21</title>
<path fill="none" stroke="midnightblue" d="M507.741,-329.174C522.773,-304.358 565.889,-238.807 620,-206 626.396,-202.122 633.552,-199.033 640.846,-196.574"/>
<polygon fill="midnightblue" stroke="midnightblue" points="642.24,-199.81 650.82,-193.595 640.236,-193.103 642.24,-199.81"/>
</g>
<!-- Node22 -->
<g id="node22" class="node"><title>Node22</title>
<g id="a_node22"><a xlink:href="class_autopilot.html#a5a59895f0bb1ffd1ac55d115d36b30b6" target="_top" xlink:title="Autopilot::adjVS">
<polygon fill="white" stroke="black" points="653.5,-139.5 653.5,-158.5 740.5,-158.5 740.5,-139.5 653.5,-139.5"/>
<text text-anchor="middle" x="697" y="-146.5" font-family="Helvetica,sans-Serif" font-size="10.00">Autopilot::adjVS</text>
</a>
</g>
</g>
<!-- Node9&#45;&gt;Node22 -->
<g id="edge22" class="edge"><title>Node9&#45;&gt;Node22</title>
<path fill="none" stroke="midnightblue" d="M505.689,-329.441C517.47,-300.24 557.143,-211.547 620,-168 627.071,-163.101 635.287,-159.463 643.651,-156.762"/>
<polygon fill="midnightblue" stroke="midnightblue" points="644.797,-160.076 653.478,-154.002 642.904,-153.337 644.797,-160.076"/>
</g>
<!-- Node23 -->
<g id="node23" class="node"><title>Node23</title>
<g id="a_node23"><a xlink:href="class_autopilot.html#a19c3d3062afa0f1c4739ac80957ef9cf" target="_top" xlink:title="Autopilot::adjIAS">
<polygon fill="white" stroke="black" points="652,-101.5 652,-120.5 742,-120.5 742,-101.5 652,-101.5"/>
<text text-anchor="middle" x="697" y="-108.5" font-family="Helvetica,sans-Serif" font-size="10.00">Autopilot::adjIAS</text>
</a>
</g>
</g>
<!-- Node9&#45;&gt;Node23 -->
<g id="edge23" class="edge"><title>Node9&#45;&gt;Node23</title>
<path fill="none" stroke="midnightblue" d="M504.498,-329.281C513.619,-295.832 548.398,-184.533 620,-130 626.538,-125.02 634.225,-121.333 642.153,-118.605"/>
<polygon fill="midnightblue" stroke="midnightblue" points="643.283,-121.921 651.882,-115.731 641.3,-115.207 643.283,-121.921"/>
</g>
<!-- Node12 -->
<g id="node12" class="node"><title>Node12</title>
<g id="a_node12"><a xlink:href="class_ro_r_1_1_beam_factory.html#aadb09a68dc35fad593189242429df218" target="_top" xlink:title="RoR::BeamFactory::getTruck">
<polygon fill="white" stroke="black" points="815,-525.5 815,-544.5 961,-544.5 961,-525.5 815,-525.5"/>
<text text-anchor="middle" x="888" y="-532.5" font-family="Helvetica,sans-Serif" font-size="10.00">RoR::BeamFactory::getTruck</text>
</a>
</g>
</g>
<!-- Node11&#45;&gt;Node12 -->
<g id="edge12" class="edge"><title>Node11&#45;&gt;Node12</title>
<path fill="none" stroke="midnightblue" d="M773.513,-535C783.769,-535 794.336,-535 804.705,-535"/>
<polygon fill="midnightblue" stroke="midnightblue" points="804.988,-538.5 814.987,-535 804.987,-531.5 804.988,-538.5"/>
</g>
<!-- Node26 -->
<g id="node26" class="node"><title>Node26</title>
<g id="a_node26"><a xlink:href="namespace_ro_r_1_1_app.html#a7d08f57d04e928e5acd0258383a53efc" target="_top" xlink:title="RoR::App::GetActiveSimState">
<polygon fill="white" stroke="black" points="622,-63.5 622,-82.5 772,-82.5 772,-63.5 622,-63.5"/>
<text text-anchor="middle" x="697" y="-70.5" font-family="Helvetica,sans-Serif" font-size="10.00">RoR::App::GetActiveSimState</text>
</a>
</g>
</g>
<!-- Node25&#45;&gt;Node26 -->
<g id="edge26" class="edge"><title>Node25&#45;&gt;Node26</title>
<path fill="none" stroke="midnightblue" d="M382.272,-77.9306C439.616,-78.872 516.281,-79.5108 584,-78 593.003,-77.7991 602.41,-77.5076 611.78,-77.1647"/>
<polygon fill="midnightblue" stroke="midnightblue" points="612.056,-80.6567 621.914,-76.7742 611.786,-73.6619 612.056,-80.6567"/>
</g>
<!-- Node27 -->
<g id="node27" class="node"><title>Node27</title>
<g id="a_node27"><a xlink:href="class_ro_r_1_1_scene_mouse.html#a7a0d8c6d6ebe7f330e27f7bab0eb18d9" target="_top" xlink:title="RoR::SceneMouse::release\lMousePick">
<polygon fill="white" stroke="black" points="432.5,-39 432.5,-69 569.5,-69 569.5,-39 432.5,-39"/>
<text text-anchor="start" x="440.5" y="-57" font-family="Helvetica,sans-Serif" font-size="10.00">RoR::SceneMouse::release</text>
<text text-anchor="middle" x="501" y="-46" font-family="Helvetica,sans-Serif" font-size="10.00">MousePick</text>
</a>
</g>
</g>
<!-- Node25&#45;&gt;Node27 -->
<g id="edge27" class="edge"><title>Node25&#45;&gt;Node27</title>
<path fill="none" stroke="midnightblue" d="M382.236,-66.6381C395.478,-65.217 409.068,-63.7586 422.095,-62.3606"/>
<polygon fill="midnightblue" stroke="midnightblue" points="422.834,-65.8014 432.404,-61.2542 422.087,-58.8413 422.834,-65.8014"/>
</g>
<!-- Node29 -->
<g id="node29" class="node"><title>Node29</title>
<g id="a_node29"><a xlink:href="class_camera_manager.html#a1936c437722105d077fc0c7cfb9b0072" target="_top" xlink:title="CameraManager::mouseReleased">
<polygon fill="white" stroke="black" points="418.5,-0.5 418.5,-19.5 583.5,-19.5 583.5,-0.5 418.5,-0.5"/>
<text text-anchor="middle" x="501" y="-7.5" font-family="Helvetica,sans-Serif" font-size="10.00">CameraManager::mouseReleased</text>
</a>
</g>
</g>
<!-- Node25&#45;&gt;Node29 -->
<g id="edge30" class="edge"><title>Node25&#45;&gt;Node29</title>
<path fill="none" stroke="midnightblue" d="M317.346,-66.3945C341.749,-56.1577 382.144,-39.9481 418,-29 426.327,-26.4576 435.219,-24.0694 443.963,-21.9015"/>
<polygon fill="midnightblue" stroke="midnightblue" points="444.829,-25.2929 453.733,-19.5509 443.192,-18.4871 444.829,-25.2929"/>
</g>
<!-- Node27&#45;&gt;Node26 -->
<g id="edge28" class="edge"><title>Node27&#45;&gt;Node26</title>
<path fill="none" stroke="midnightblue" d="M569.579,-60.6186C583.131,-61.9458 597.528,-63.3558 611.568,-64.7309"/>
<polygon fill="midnightblue" stroke="midnightblue" points="611.417,-68.2328 621.711,-65.7242 612.099,-61.2661 611.417,-68.2328"/>
</g>
<!-- Node28 -->
<g id="node28" class="node"><title>Node28</title>
<g id="a_node28"><a xlink:href="class_beam.html#a465164195a8158babeaa9506f91d52de" target="_top" xlink:title="Beam::mouseMove">
<polygon fill="white" stroke="black" points="646.5,-25.5 646.5,-44.5 747.5,-44.5 747.5,-25.5 646.5,-25.5"/>
<text text-anchor="middle" x="697" y="-32.5" font-family="Helvetica,sans-Serif" font-size="10.00">Beam::mouseMove</text>
</a>
</g>
</g>
<!-- Node27&#45;&gt;Node28 -->
<g id="edge29" class="edge"><title>Node27&#45;&gt;Node28</title>
<path fill="none" stroke="midnightblue" d="M569.579,-47.3814C591.288,-45.2553 615.167,-42.9166 636.271,-40.8498"/>
<polygon fill="midnightblue" stroke="midnightblue" points="636.775,-44.3172 646.386,-39.8591 636.092,-37.3506 636.775,-44.3172"/>
</g>
</g>
</svg>
        <g id="navigator" transform="translate(0 0)" fill="#404254">
                <rect fill="#f2f5e9" fill-opacity="0.5" stroke="#606060" stroke-width=".5" x="0" y="0" width="60" height="60"/>
                <use id="zoomplus" xlink:href="#zoomPlus" x="17" y="9" onmousedown="handleZoom(evt,'in')"/>
                <use id="zoomminus" xlink:href="#zoomMin" x="42" y="9" onmousedown="handleZoom(evt,'out')"/>
                <use id="reset" xlink:href="#resetDef" x="30" y="36" onmousedown="handleReset()"/>
                <g id="arrowUp" xlink:href="#dirArrow" transform="translate(30 24)" onmousedown="handlePan(0,-1)">
                  <use xlink:href="#rim" fill="#404040">
                        <set attributeName="fill" to="#808080" begin="arrowUp.mouseover" end="arrowUp.mouseout"/>
                  </use>
                  <path fill="none" stroke="white" stroke-width="1.5" d="M0,-3.0v7 M-2.5,-0.5L0,-3.0L2.5,-0.5"/>
                </g>
                <g id="arrowRight" xlink:href="#dirArrow" transform="rotate(90) translate(36 -43)" onmousedown="handlePan(1,0)">
                  <use xlink:href="#rim" fill="#404040">
                        <set attributeName="fill" to="#808080" begin="arrowRight.mouseover" end="arrowRight.mouseout"/>
                  </use>
                  <path fill="none" stroke="white" stroke-width="1.5" d="M0,-3.0v7 M-2.5,-0.5L0,-3.0L2.5,-0.5"/>
                </g>
                <g id="arrowDown" xlink:href="#dirArrow" transform="rotate(180) translate(-30 -48)" onmousedown="handlePan(0,1)">
                  <use xlink:href="#rim" fill="#404040">
                        <set attributeName="fill" to="#808080" begin="arrowDown.mouseover" end="arrowDown.mouseout"/>
                  </use>
                  <path fill="none" stroke="white" stroke-width="1.5" d="M0,-3.0v7 M-2.5,-0.5L0,-3.0L2.5,-0.5"/>
                </g>
                <g id="arrowLeft" xlink:href="#dirArrow" transform="rotate(270) translate(-36 17)" onmousedown="handlePan(-1,0)">
                  <use xlink:href="#rim" fill="#404040">
                        <set attributeName="fill" to="#808080" begin="arrowLeft.mouseover" end="arrowLeft.mouseout"/>
                  </use>
                  <path fill="none" stroke="white" stroke-width="1.5" d="M0,-3.0v7 M-2.5,-0.5L0,-3.0L2.5,-0.5"/>
                </g>
        </g>
        <svg viewBox="0 0 15 15" width="100%" height="30px" preserveAspectRatio="xMaxYMin meet">
         <g id="arrow_out" transform="scale(0.3 0.3)">
          <a xlink:href="class_g_u_i_input_manager_a5f096906671c8b2fc404353cb0cc3cf4_cgraph_org.svg" target="_base">
           <rect id="button" ry="5" rx="5" y="6" x="6" height="38" width="38"
                fill="#f2f5e9" fill-opacity="0.5" stroke="#606060" stroke-width="1.0"/>
           <path id="arrow"
             d="M 11.500037,31.436501 C 11.940474,20.09759 22.043105,11.32322 32.158766,21.979434 L 37.068811,17.246167 C 37.068811,17.246167 37.088388,32 37.088388,32 L 22.160133,31.978069 C 22.160133,31.978069 26.997745,27.140456 26.997745,27.140456 C 18.528582,18.264221 13.291696,25.230495 11.500037,31.436501 z"
             style="fill:#404040;"/>
          </a>
         </g>
        </svg>
</svg>
