<?xml version="1.0" encoding="UTF-8" standalone="no"?>
<!DOCTYPE svg PUBLIC "-//W3C//DTD SVG 1.1//EN"
 "http://www.w3.org/Graphics/SVG/1.1/DTD/svg11.dtd">
<!-- Generated by graphviz version 2.36.0 (20140111.2315)
 -->
<!-- Title: Ogre::MovableText::MovableText Pages: 1 -->
<svg width="398pt" height="87pt"
 viewBox="0.00 0.00 398.00 87.00" xmlns="http://www.w3.org/2000/svg" xmlns:xlink="http://www.w3.org/1999/xlink">
<g id="graph0" class="graph" transform="scale(1 1) rotate(0) translate(4 83)">
<title>Ogre::MovableText::MovableText</title>
<polygon fill="white" stroke="none" points="-4,4 -4,-83 394,-83 394,4 -4,4"/>
<!-- Node1 -->
<g id="node1" class="node"><title>Node1</title>
<polygon fill="#bfbfbf" stroke="black" points="0,-24 0,-54 106,-54 106,-24 0,-24"/>
<text text-anchor="start" x="8" y="-42" font-family="Helvetica,sans-Serif" font-size="10.00">Ogre::MovableText::</text>
<text text-anchor="middle" x="53" y="-31" font-family="Helvetica,sans-Serif" font-size="10.00">MovableText</text>
</g>
<!-- Node2 -->
<g id="node2" class="node"><title>Node2</title>
<g id="a_node2"><a xlink:href="class_ogre_1_1_movable_text.html#aed27a49ecadb3905afb7b5de4409d799" target="_top" xlink:title="Ogre::MovableText::\lsetFontName">
<polygon fill="white" stroke="black" points="142,-49 142,-79 248,-79 248,-49 142,-49"/>
<text text-anchor="start" x="150" y="-67" font-family="Helvetica,sans-Serif" font-size="10.00">Ogre::MovableText::</text>
<text text-anchor="middle" x="195" y="-56" font-family="Helvetica,sans-Serif" font-size="10.00">setFontName</text>
</a>
</g>
</g>
<!-- Node1&#45;&gt;Node2 -->
<g id="edge1" class="edge"><title>Node1&#45;&gt;Node2</title>
<path fill="none" stroke="midnightblue" d="M106.131,-48.3091C114.512,-49.8058 123.26,-51.3679 131.849,-52.9015"/>
<polygon fill="midnightblue" stroke="midnightblue" points="131.366,-56.3707 141.826,-54.6831 132.597,-49.4797 131.366,-56.3707"/>
</g>
<!-- Node3 -->
<g id="node3" class="node"><title>Node3</title>
<g id="a_node3"><a xlink:href="class_ogre_1_1_movable_text.html#a1414bbe8133feca96a3a425c94e6f063" target="_top" xlink:title="Ogre::MovableText::\l_setupGeometry">
<polygon fill="white" stroke="black" points="142,-0 142,-30 248,-30 248,-0 142,-0"/>
<text text-anchor="start" x="150" y="-18" font-family="Helvetica,sans-Serif" font-size="10.00">Ogre::MovableText::</text>
<text text-anchor="middle" x="195" y="-7" font-family="Helvetica,sans-Serif" font-size="10.00">_setupGeometry</text>
</a>
</g>
</g>
<!-- Node1&#45;&gt;Node3 -->
<g id="edge2" class="edge"><title>Node1&#45;&gt;Node3</title>
<path fill="none" stroke="midnightblue" d="M106.131,-30.0633C114.512,-28.6264 123.26,-27.1268 131.849,-25.6545"/>
<polygon fill="midnightblue" stroke="midnightblue" points="132.561,-29.0836 141.826,-23.9442 131.378,-22.1842 132.561,-29.0836"/>
</g>
<!-- Node4 -->
<g id="node4" class="node"><title>Node4</title>
<g id="a_node4"><a xlink:href="class_ogre_1_1_movable_text.html#af39ecbbae96d642b5e4a1a2889d3cb87" target="_top" xlink:title="Ogre::MovableText::\l_updateColors">
<polygon fill="white" stroke="black" points="284,-0 284,-30 390,-30 390,-0 284,-0"/>
<text text-anchor="start" x="292" y="-18" font-family="Helvetica,sans-Serif" font-size="10.00">Ogre::MovableText::</text>
<text text-anchor="middle" x="337" y="-7" font-family="Helvetica,sans-Serif" font-size="10.00">_updateColors</text>
</a>
</g>
</g>
<!-- Node3&#45;&gt;Node4 -->
<g id="edge3" class="edge"><title>Node3&#45;&gt;Node4</title>
<path fill="none" stroke="midnightblue" d="M248.131,-15C256.421,-15 265.07,-15 273.568,-15"/>
<polygon fill="midnightblue" stroke="midnightblue" points="273.826,-18.5001 283.826,-15 273.826,-11.5001 273.826,-18.5001"/>
</g>
</g>
</svg>
