<?xml version="1.0" encoding="UTF-8" standalone="no"?>
<!DOCTYPE svg PUBLIC "-//W3C//DTD SVG 1.1//EN"
 "http://www.w3.org/Graphics/SVG/1.1/DTD/svg11.dtd">
<!-- Generated by graphviz version 2.36.0 (20140111.2315)
 -->
<!-- Title: RoR::GUI::GameSettings::SetVisible Pages: 1 -->
<svg width="324pt" height="38pt"
 viewBox="0.00 0.00 324.00 38.00" xmlns="http://www.w3.org/2000/svg" xmlns:xlink="http://www.w3.org/1999/xlink">
<g id="graph0" class="graph" transform="scale(1 1) rotate(0) translate(4 34)">
<title>RoR::GUI::GameSettings::SetVisible</title>
<polygon fill="white" stroke="none" points="-4,4 -4,-34 320,-34 320,4 -4,4"/>
<!-- Node1 -->
<g id="node1" class="node"><title>Node1</title>
<polygon fill="#bfbfbf" stroke="black" points="0.5,-0 0.5,-30 129.5,-30 129.5,-0 0.5,-0"/>
<text text-anchor="start" x="8.5" y="-18" font-family="Helvetica,sans-Serif" font-size="10.00">RoR::GUI::GameSettings</text>
<text text-anchor="middle" x="65" y="-7" font-family="Helvetica,sans-Serif" font-size="10.00">::SetVisible</text>
</g>
<!-- Node2 -->
<g id="node2" class="node"><title>Node2</title>
<g id="a_node2"><a xlink:href="class_ro_r_1_1_g_u_i_manager.html#a927de50f6fa0946694cdda4cf7caf28b" target="_top" xlink:title="RoR::GUIManager::SetVisible\l_GameSettings">
<polygon fill="white" stroke="black" points="166.5,-0 166.5,-30 315.5,-30 315.5,-0 166.5,-0"/>
<text text-anchor="start" x="174.5" y="-18" font-family="Helvetica,sans-Serif" font-size="10.00">RoR::GUIManager::SetVisible</text>
<text text-anchor="middle" x="241" y="-7" font-family="Helvetica,sans-Serif" font-size="10.00">_GameSettings</text>
</a>
</g>
</g>
<!-- Node1&#45;&gt;Node2 -->
<g id="edge1" class="edge"><title>Node1&#45;&gt;Node2</title>
<path fill="none" stroke="midnightblue" d="M139.996,-15C148.768,-15 157.721,-15 166.486,-15"/>
<polygon fill="midnightblue" stroke="midnightblue" points="139.803,-11.5001 129.803,-15 139.803,-18.5001 139.803,-11.5001"/>
</g>
</g>
</svg>
