<?xml version="1.0" encoding="UTF-8" standalone="no"?>
<!DOCTYPE svg PUBLIC "-//W3C//DTD SVG 1.1//EN"
 "http://www.w3.org/Graphics/SVG/1.1/DTD/svg11.dtd">
<!-- Generated by graphviz version 2.36.0 (20140111.2315)
 -->
<!-- Title: Replay::setHidden Pages: 1 -->
<svg width="658pt" height="38pt"
 viewBox="0.00 0.00 658.00 38.00" xmlns="http://www.w3.org/2000/svg" xmlns:xlink="http://www.w3.org/1999/xlink">
<g id="graph0" class="graph" transform="scale(1 1) rotate(0) translate(4 34)">
<title>Replay::setHidden</title>
<polygon fill="white" stroke="none" points="-4,4 -4,-34 654,-34 654,4 -4,4"/>
<!-- Node1 -->
<g id="node1" class="node"><title>Node1</title>
<polygon fill="#bfbfbf" stroke="black" points="0,-5.5 0,-24.5 98,-24.5 98,-5.5 0,-5.5"/>
<text text-anchor="middle" x="49" y="-12.5" font-family="Helvetica,sans-Serif" font-size="10.00">Replay::setHidden</text>
</g>
<!-- Node2 -->
<g id="node2" class="node"><title>Node2</title>
<g id="a_node2"><a xlink:href="class_ro_r_frame_listener.html#a519eb1268f9cc62d177d723bdb8190e1" target="_top" xlink:title="RoRFrameListener::HideGUI">
<polygon fill="white" stroke="black" points="134.5,-5.5 134.5,-24.5 277.5,-24.5 277.5,-5.5 134.5,-5.5"/>
<text text-anchor="middle" x="206" y="-12.5" font-family="Helvetica,sans-Serif" font-size="10.00">RoRFrameListener::HideGUI</text>
</a>
</g>
</g>
<!-- Node1&#45;&gt;Node2 -->
<g id="edge1" class="edge"><title>Node1&#45;&gt;Node2</title>
<path fill="none" stroke="midnightblue" d="M108.356,-15C116.846,-15 125.662,-15 134.362,-15"/>
<polygon fill="midnightblue" stroke="midnightblue" points="108.193,-11.5001 98.1933,-15 108.193,-18.5001 108.193,-11.5001"/>
</g>
<!-- Node3 -->
<g id="node3" class="node"><title>Node3</title>
<g id="a_node3"><a xlink:href="class_ro_r_frame_listener.html#afec2a0f00ed552c21d22aae76329bf38" target="_top" xlink:title="RoRFrameListener::Update\lInputEvents">
<polygon fill="white" stroke="black" points="314.5,-0 314.5,-30 451.5,-30 451.5,-0 314.5,-0"/>
<text text-anchor="start" x="322.5" y="-18" font-family="Helvetica,sans-Serif" font-size="10.00">RoRFrameListener::Update</text>
<text text-anchor="middle" x="383" y="-7" font-family="Helvetica,sans-Serif" font-size="10.00">InputEvents</text>
</a>
</g>
</g>
<!-- Node2&#45;&gt;Node3 -->
<g id="edge2" class="edge"><title>Node2&#45;&gt;Node3</title>
<path fill="none" stroke="midnightblue" d="M287.716,-15C296.663,-15 305.705,-15 314.466,-15"/>
<polygon fill="midnightblue" stroke="midnightblue" points="287.675,-11.5001 277.675,-15 287.675,-18.5001 287.675,-11.5001"/>
</g>
<!-- Node4 -->
<g id="node4" class="node"><title>Node4</title>
<g id="a_node4"><a xlink:href="class_ro_r_frame_listener.html#acd8647e188fb8e838689492965b86faf" target="_top" xlink:title="RoRFrameListener::frameStarted">
<polygon fill="white" stroke="black" points="488.5,-5.5 488.5,-24.5 649.5,-24.5 649.5,-5.5 488.5,-5.5"/>
<text text-anchor="middle" x="569" y="-12.5" font-family="Helvetica,sans-Serif" font-size="10.00">RoRFrameListener::frameStarted</text>
</a>
</g>
</g>
<!-- Node3&#45;&gt;Node4 -->
<g id="edge3" class="edge"><title>Node3&#45;&gt;Node4</title>
<path fill="none" stroke="midnightblue" d="M461.879,-15C470.608,-15 479.511,-15 488.263,-15"/>
<polygon fill="midnightblue" stroke="midnightblue" points="461.731,-11.5001 451.731,-15 461.731,-18.5001 461.731,-11.5001"/>
</g>
</g>
</svg>
