<?xml version="1.0" encoding="UTF-8" standalone="no"?>
<!DOCTYPE svg PUBLIC "-//W3C//DTD SVG 1.1//EN"
 "http://www.w3.org/Graphics/SVG/1.1/DTD/svg11.dtd">
<!-- Generated by graphviz version 2.36.0 (20140111.2315)
 -->
<!-- Title: Hydrax::RttManager::getPixelFormat Pages: 1 -->
<svg width="1104pt" height="307pt"
 viewBox="0.00 0.00 1104.00 307.00" xmlns="http://www.w3.org/2000/svg" xmlns:xlink="http://www.w3.org/1999/xlink">
<g id="graph0" class="graph" transform="scale(1 1) rotate(0) translate(4 303)">
<title>Hydrax::RttManager::getPixelFormat</title>
<polygon fill="white" stroke="none" points="-4,4 -4,-303 1100,-303 1100,4 -4,4"/>
<!-- Node1 -->
<g id="node1" class="node"><title>Node1</title>
<polygon fill="#bfbfbf" stroke="black" points="0.5,-122 0.5,-152 105.5,-152 105.5,-122 0.5,-122"/>
<text text-anchor="start" x="8.5" y="-140" font-family="Helvetica,sans-Serif" font-size="10.00">Hydrax::RttManager</text>
<text text-anchor="middle" x="53" y="-129" font-family="Helvetica,sans-Serif" font-size="10.00">::getPixelFormat</text>
</g>
<!-- Node2 -->
<g id="node2" class="node"><title>Node2</title>
<g id="a_node2"><a xlink:href="class_hydrax_1_1_rtt_manager.html#aab5e7c56ec35030e7410e9ca01f737a1" target="_top" xlink:title="Hydrax::RttManager\l::_initializeRtt">
<polygon fill="white" stroke="black" points="142.5,-122 142.5,-152 247.5,-152 247.5,-122 142.5,-122"/>
<text text-anchor="start" x="150.5" y="-140" font-family="Helvetica,sans-Serif" font-size="10.00">Hydrax::RttManager</text>
<text text-anchor="middle" x="195" y="-129" font-family="Helvetica,sans-Serif" font-size="10.00">::_initializeRtt</text>
</a>
</g>
</g>
<!-- Node1&#45;&gt;Node2 -->
<g id="edge1" class="edge"><title>Node1&#45;&gt;Node2</title>
<path fill="none" stroke="midnightblue" d="M116.002,-137C124.847,-137 133.864,-137 142.48,-137"/>
<polygon fill="midnightblue" stroke="midnightblue" points="115.733,-133.5 105.733,-137 115.733,-140.5 115.733,-133.5"/>
</g>
<!-- Node3 -->
<g id="node3" class="node"><title>Node3</title>
<g id="a_node3"><a xlink:href="class_hydrax_1_1_rtt_manager.html#a774efa00a79ade65e726ed0774d2ac2e" target="_top" xlink:title="Hydrax::RttManager\l::initialize">
<polygon fill="white" stroke="black" points="284.5,-122 284.5,-152 389.5,-152 389.5,-122 284.5,-122"/>
<text text-anchor="start" x="292.5" y="-140" font-family="Helvetica,sans-Serif" font-size="10.00">Hydrax::RttManager</text>
<text text-anchor="middle" x="337" y="-129" font-family="Helvetica,sans-Serif" font-size="10.00">::initialize</text>
</a>
</g>
</g>
<!-- Node2&#45;&gt;Node3 -->
<g id="edge2" class="edge"><title>Node2&#45;&gt;Node3</title>
<path fill="none" stroke="midnightblue" d="M258.002,-137C266.847,-137 275.864,-137 284.48,-137"/>
<polygon fill="midnightblue" stroke="midnightblue" points="257.733,-133.5 247.733,-137 257.733,-140.5 257.733,-133.5"/>
</g>
<!-- Node4 -->
<g id="node4" class="node"><title>Node4</title>
<g id="a_node4"><a xlink:href="class_hydrax_1_1_g_p_u_normal_map_manager.html#a7398a504e11ea902839868d69bcf956b" target="_top" xlink:title="Hydrax::GPUNormalMapManager\l::create">
<polygon fill="white" stroke="black" points="426,-245 426,-275 590,-275 590,-245 426,-245"/>
<text text-anchor="start" x="434" y="-263" font-family="Helvetica,sans-Serif" font-size="10.00">Hydrax::GPUNormalMapManager</text>
<text text-anchor="middle" x="508" y="-252" font-family="Helvetica,sans-Serif" font-size="10.00">::create</text>
</a>
</g>
</g>
<!-- Node3&#45;&gt;Node4 -->
<g id="edge3" class="edge"><title>Node3&#45;&gt;Node4</title>
<path fill="none" stroke="midnightblue" d="M353.428,-160.518C369.172,-182.751 395.563,-215.524 426,-235 431.95,-238.808 438.517,-242.066 445.259,-244.848"/>
<polygon fill="midnightblue" stroke="midnightblue" points="356.3,-158.517 347.737,-152.277 350.54,-162.494 356.3,-158.517"/>
</g>
<!-- Node9 -->
<g id="node9" class="node"><title>Node9</title>
<g id="a_node9"><a xlink:href="class_hydrax_1_1_g_p_u_normal_map_manager.html#ac58c786ad6359d8f70b5ecd0bc30464b" target="_top" xlink:title="Hydrax::GPUNormalMapManager\l::setActive">
<polygon fill="white" stroke="black" points="426,-196 426,-226 590,-226 590,-196 426,-196"/>
<text text-anchor="start" x="434" y="-214" font-family="Helvetica,sans-Serif" font-size="10.00">Hydrax::GPUNormalMapManager</text>
<text text-anchor="middle" x="508" y="-203" font-family="Helvetica,sans-Serif" font-size="10.00">::setActive</text>
</a>
</g>
</g>
<!-- Node3&#45;&gt;Node9 -->
<g id="edge8" class="edge"><title>Node3&#45;&gt;Node9</title>
<path fill="none" stroke="midnightblue" d="M370.552,-157.269C386.803,-166.827 407.005,-177.886 426,-186 434.391,-189.584 443.469,-192.899 452.408,-195.864"/>
<polygon fill="midnightblue" stroke="midnightblue" points="372.344,-154.262 361.963,-152.141 368.755,-160.272 372.344,-154.262"/>
</g>
<!-- Node10 -->
<g id="node10" class="node"><title>Node10</title>
<g id="a_node10"><a xlink:href="class_hydrax_1_1_rtt_manager.html#abf7d8e05771b9f904efa09fe94ab0907" target="_top" xlink:title="Hydrax::RttManager\l::setTextureSize">
<polygon fill="white" stroke="black" points="455.5,-147 455.5,-177 560.5,-177 560.5,-147 455.5,-147"/>
<text text-anchor="start" x="463.5" y="-165" font-family="Helvetica,sans-Serif" font-size="10.00">Hydrax::RttManager</text>
<text text-anchor="middle" x="508" y="-154" font-family="Helvetica,sans-Serif" font-size="10.00">::setTextureSize</text>
</a>
</g>
</g>
<!-- Node3&#45;&gt;Node10 -->
<g id="edge9" class="edge"><title>Node3&#45;&gt;Node10</title>
<path fill="none" stroke="midnightblue" d="M399.615,-146.115C417.929,-148.824 437.794,-151.762 455.401,-154.367"/>
<polygon fill="midnightblue" stroke="midnightblue" points="400.028,-142.638 389.624,-144.637 399.004,-149.562 400.028,-142.638"/>
</g>
<!-- Node13 -->
<g id="node13" class="node"><title>Node13</title>
<g id="a_node13"><a xlink:href="class_hydrax_1_1_rtt_manager.html#ad54dd87efa7baa4a5037faa2e5241738" target="_top" xlink:title="Hydrax::RttManager\l::setTexturesSize">
<polygon fill="white" stroke="black" points="455.5,-98 455.5,-128 560.5,-128 560.5,-98 455.5,-98"/>
<text text-anchor="start" x="463.5" y="-116" font-family="Helvetica,sans-Serif" font-size="10.00">Hydrax::RttManager</text>
<text text-anchor="middle" x="508" y="-105" font-family="Helvetica,sans-Serif" font-size="10.00">::setTexturesSize</text>
</a>
</g>
</g>
<!-- Node3&#45;&gt;Node13 -->
<g id="edge12" class="edge"><title>Node3&#45;&gt;Node13</title>
<path fill="none" stroke="midnightblue" d="M399.615,-128.25C417.929,-125.649 437.794,-122.828 455.401,-120.328"/>
<polygon fill="midnightblue" stroke="midnightblue" points="399.032,-124.797 389.624,-129.669 400.017,-131.728 399.032,-124.797"/>
</g>
<!-- Node14 -->
<g id="node14" class="node"><title>Node14</title>
<g id="a_node14"><a xlink:href="class_hydrax_1_1_rtt_manager.html#a009e9c7631dad8d588790401cab753b6" target="_top" xlink:title="Hydrax::RttManager\l::setNumberOfChannels">
<polygon fill="white" stroke="black" points="447,-49 447,-79 569,-79 569,-49 447,-49"/>
<text text-anchor="start" x="455" y="-67" font-family="Helvetica,sans-Serif" font-size="10.00">Hydrax::RttManager</text>
<text text-anchor="middle" x="508" y="-56" font-family="Helvetica,sans-Serif" font-size="10.00">::setNumberOfChannels</text>
</a>
</g>
</g>
<!-- Node3&#45;&gt;Node14 -->
<g id="edge13" class="edge"><title>Node3&#45;&gt;Node14</title>
<path fill="none" stroke="midnightblue" d="M370.512,-116.638C386.754,-107.057 406.959,-96.0069 426,-88 433.706,-84.7594 441.997,-81.772 450.229,-79.0858"/>
<polygon fill="midnightblue" stroke="midnightblue" points="368.709,-113.638 361.93,-121.781 372.307,-119.643 368.709,-113.638"/>
</g>
<!-- Node16 -->
<g id="node16" class="node"><title>Node16</title>
<g id="a_node16"><a xlink:href="class_hydrax_1_1_rtt_manager.html#afe968a7c8f23a6fa9b0d5b499ef09491" target="_top" xlink:title="Hydrax::RttManager\l::setBitsPerChannel">
<polygon fill="white" stroke="black" points="455.5,-0 455.5,-30 560.5,-30 560.5,-0 455.5,-0"/>
<text text-anchor="start" x="463.5" y="-18" font-family="Helvetica,sans-Serif" font-size="10.00">Hydrax::RttManager</text>
<text text-anchor="middle" x="508" y="-7" font-family="Helvetica,sans-Serif" font-size="10.00">::setBitsPerChannel</text>
</a>
</g>
</g>
<!-- Node3&#45;&gt;Node16 -->
<g id="edge15" class="edge"><title>Node3&#45;&gt;Node16</title>
<path fill="none" stroke="midnightblue" d="M353.38,-113.406C369.088,-91.1172 395.454,-58.3038 426,-39 434.927,-33.3586 445.24,-28.9921 455.453,-25.6295"/>
<polygon fill="midnightblue" stroke="midnightblue" points="350.481,-111.446 347.704,-121.67 356.251,-115.409 350.481,-111.446"/>
</g>
<!-- Node5 -->
<g id="node5" class="node"><title>Node5</title>
<g id="a_node5"><a xlink:href="class_hydrax_1_1_noise_1_1_f_f_t.html#aa8e2b9d2b8307c07be2d2cd9cf115560" target="_top" xlink:title="Hydrax::Noise::FFT\l::createGPUNormalMapResources">
<polygon fill="white" stroke="black" points="626.5,-269 626.5,-299 795.5,-299 795.5,-269 626.5,-269"/>
<text text-anchor="start" x="634.5" y="-287" font-family="Helvetica,sans-Serif" font-size="10.00">Hydrax::Noise::FFT</text>
<text text-anchor="middle" x="711" y="-276" font-family="Helvetica,sans-Serif" font-size="10.00">::createGPUNormalMapResources</text>
</a>
</g>
</g>
<!-- Node4&#45;&gt;Node5 -->
<g id="edge4" class="edge"><title>Node4&#45;&gt;Node5</title>
<path fill="none" stroke="midnightblue" d="M600.269,-270.898C608.916,-271.93 617.656,-272.974 626.228,-273.997"/>
<polygon fill="midnightblue" stroke="midnightblue" points="600.519,-267.403 590.175,-269.693 599.689,-274.354 600.519,-267.403"/>
</g>
<!-- Node8 -->
<g id="node8" class="node"><title>Node8</title>
<g id="a_node8"><a xlink:href="class_hydrax_1_1_noise_1_1_perlin.html#adb347b98692bd7ce6ad7ce76c605d15a" target="_top" xlink:title="Hydrax::Noise::Perlin\l::createGPUNormalMapResources">
<polygon fill="white" stroke="black" points="626.5,-220 626.5,-250 795.5,-250 795.5,-220 626.5,-220"/>
<text text-anchor="start" x="634.5" y="-238" font-family="Helvetica,sans-Serif" font-size="10.00">Hydrax::Noise::Perlin</text>
<text text-anchor="middle" x="711" y="-227" font-family="Helvetica,sans-Serif" font-size="10.00">::createGPUNormalMapResources</text>
</a>
</g>
</g>
<!-- Node4&#45;&gt;Node8 -->
<g id="edge7" class="edge"><title>Node4&#45;&gt;Node8</title>
<path fill="none" stroke="midnightblue" d="M600.269,-248.648C608.916,-247.573 617.656,-246.486 626.228,-245.419"/>
<polygon fill="midnightblue" stroke="midnightblue" points="599.667,-245.196 590.175,-249.904 600.531,-252.142 599.667,-245.196"/>
</g>
<!-- Node6 -->
<g id="node6" class="node"><title>Node6</title>
<g id="a_node6"><a xlink:href="class_hydrax_1_1_noise_1_1_f_f_t.html#a1d7ec06eb11cda608cc8f73256c35be5" target="_top" xlink:title="Hydrax::Noise::FFT\l::setOptions">
<polygon fill="white" stroke="black" points="842,-269 842,-299 946,-299 946,-269 842,-269"/>
<text text-anchor="start" x="850" y="-287" font-family="Helvetica,sans-Serif" font-size="10.00">Hydrax::Noise::FFT</text>
<text text-anchor="middle" x="894" y="-276" font-family="Helvetica,sans-Serif" font-size="10.00">::setOptions</text>
</a>
</g>
</g>
<!-- Node5&#45;&gt;Node6 -->
<g id="edge5" class="edge"><title>Node5&#45;&gt;Node6</title>
<path fill="none" stroke="midnightblue" d="M805.966,-284C818.292,-284 830.532,-284 841.77,-284"/>
<polygon fill="midnightblue" stroke="midnightblue" points="805.612,-280.5 795.612,-284 805.612,-287.5 805.612,-280.5"/>
</g>
<!-- Node7 -->
<g id="node7" class="node"><title>Node7</title>
<g id="a_node7"><a xlink:href="class_hydrax_1_1_noise_1_1_f_f_t.html#a64245b9e56eeb8627ac3f5260dc203dd" target="_top" xlink:title="Hydrax::Noise::FFT\l::loadCfg">
<polygon fill="white" stroke="black" points="992,-269 992,-299 1096,-299 1096,-269 992,-269"/>
<text text-anchor="start" x="1000" y="-287" font-family="Helvetica,sans-Serif" font-size="10.00">Hydrax::Noise::FFT</text>
<text text-anchor="middle" x="1044" y="-276" font-family="Helvetica,sans-Serif" font-size="10.00">::loadCfg</text>
</a>
</g>
</g>
<!-- Node6&#45;&gt;Node7 -->
<g id="edge6" class="edge"><title>Node6&#45;&gt;Node7</title>
<path fill="none" stroke="midnightblue" d="M956.507,-284C968.23,-284 980.382,-284 991.743,-284"/>
<polygon fill="midnightblue" stroke="midnightblue" points="956.348,-280.5 946.348,-284 956.348,-287.5 956.348,-280.5"/>
</g>
<!-- Node11 -->
<g id="node11" class="node"><title>Node11</title>
<g id="a_node11"><a xlink:href="class_hydrax_1_1_cfg_file_manager.html#ae2a1a0accf942e528f6ba8a041a674e6" target="_top" xlink:title="Hydrax::CfgFileManager\l::_loadRttSettings">
<polygon fill="white" stroke="black" points="649.5,-147 649.5,-177 772.5,-177 772.5,-147 649.5,-147"/>
<text text-anchor="start" x="657.5" y="-165" font-family="Helvetica,sans-Serif" font-size="10.00">Hydrax::CfgFileManager</text>
<text text-anchor="middle" x="711" y="-154" font-family="Helvetica,sans-Serif" font-size="10.00">::_loadRttSettings</text>
</a>
</g>
</g>
<!-- Node10&#45;&gt;Node11 -->
<g id="edge10" class="edge"><title>Node10&#45;&gt;Node11</title>
<path fill="none" stroke="midnightblue" d="M570.604,-162C595.617,-162 624.431,-162 649.347,-162"/>
<polygon fill="midnightblue" stroke="midnightblue" points="570.502,-158.5 560.501,-162 570.501,-165.5 570.502,-158.5"/>
</g>
<!-- Node12 -->
<g id="node12" class="node"><title>Node12</title>
<g id="a_node12"><a xlink:href="class_hydrax_1_1_cfg_file_manager.html#a7d283a6b6b61ad70292c7cb24cd3543c" target="_top" xlink:title="Hydrax::CfgFileManager\l::load">
<polygon fill="white" stroke="black" points="832.5,-147 832.5,-177 955.5,-177 955.5,-147 832.5,-147"/>
<text text-anchor="start" x="840.5" y="-165" font-family="Helvetica,sans-Serif" font-size="10.00">Hydrax::CfgFileManager</text>
<text text-anchor="middle" x="894" y="-154" font-family="Helvetica,sans-Serif" font-size="10.00">::load</text>
</a>
</g>
</g>
<!-- Node11&#45;&gt;Node12 -->
<g id="edge11" class="edge"><title>Node11&#45;&gt;Node12</title>
<path fill="none" stroke="midnightblue" d="M782.591,-162C798.985,-162 816.297,-162 832.227,-162"/>
<polygon fill="midnightblue" stroke="midnightblue" points="782.522,-158.5 772.522,-162 782.522,-165.5 782.522,-158.5"/>
</g>
<!-- Node15 -->
<g id="node15" class="node"><title>Node15</title>
<g id="a_node15"><a xlink:href="class_hydrax_1_1_g_p_u_normal_map_manager.html#a9c2a79cec8c9a72e2916587e09c9c83f" target="_top" xlink:title="Hydrax::GPUNormalMapManager\l::GPUNormalMapManager">
<polygon fill="white" stroke="black" points="629,-25 629,-55 793,-55 793,-25 629,-25"/>
<text text-anchor="start" x="637" y="-43" font-family="Helvetica,sans-Serif" font-size="10.00">Hydrax::GPUNormalMapManager</text>
<text text-anchor="middle" x="711" y="-32" font-family="Helvetica,sans-Serif" font-size="10.00">::GPUNormalMapManager</text>
</a>
</g>
</g>
<!-- Node14&#45;&gt;Node15 -->
<g id="edge14" class="edge"><title>Node14&#45;&gt;Node15</title>
<path fill="none" stroke="midnightblue" d="M579.336,-55.6017C595.285,-53.6973 612.352,-51.6595 628.713,-49.7059"/>
<polygon fill="midnightblue" stroke="midnightblue" points="578.549,-52.1707 569.034,-56.8317 579.379,-59.1213 578.549,-52.1707"/>
</g>
<!-- Node16&#45;&gt;Node15 -->
<g id="edge16" class="edge"><title>Node16&#45;&gt;Node15</title>
<path fill="none" stroke="midnightblue" d="M570.514,-22.6509C588.954,-24.9446 609.468,-27.496 628.965,-29.921"/>
<polygon fill="midnightblue" stroke="midnightblue" points="570.857,-19.1668 560.501,-21.4057 569.993,-26.1133 570.857,-19.1668"/>
</g>
</g>
</svg>
