<?xml version="1.0" encoding="UTF-8" standalone="no"?>
<!DOCTYPE svg PUBLIC "-//W3C//DTD SVG 1.1//EN"
 "http://www.w3.org/Graphics/SVG/1.1/DTD/svg11.dtd">
<!-- Generated by graphviz version 2.36.0 (20140111.2315)
 -->
<!-- Title: RoR::OgreSubsystem::StartOgre Pages: 1 -->
<!--zoomable 235 -->
<svg id="main" version="1.1" xmlns="http://www.w3.org/2000/svg" xmlns:xlink="http://www.w3.org/1999/xlink" xml:space="preserve" onload="init(evt)">
<style type="text/css"><![CDATA[
.edge:hover path { stroke: red; }
.edge:hover polygon { stroke: red; fill: red; }
]]></style>
<script type="text/javascript"><![CDATA[
var edges = document.getElementsByTagName('g');
if (edges && edges.length) {
  for (var i=0;i<edges.length;i++) {
    if (edges[i].id.substr(0,4)=='edge') {
      edges[i].setAttribute('class','edge');
    }
  }
}
]]></script>
        <defs>
                <circle id="rim" cx="0" cy="0" r="7"/>
                <circle id="rim2" cx="0" cy="0" r="3.5"/>
                <g id="zoomPlus">
                        <use xlink:href="#rim" fill="#404040">
                                <set attributeName="fill" to="#808080" begin="zoomplus.mouseover" end="zoomplus.mouseout"/>
                        </use>
                        <path d="M-4,0h8M0,-4v8" fill="none" stroke="white" stroke-width="1.5" pointer-events="none"/>
                </g>
                <g id="zoomMin">
                        <use xlink:href="#rim" fill="#404040">
                                <set attributeName="fill" to="#808080" begin="zoomminus.mouseover" end="zoomminus.mouseout"/>
                        </use>
                        <path d="M-4,0h8" fill="none" stroke="white" stroke-width="1.5" pointer-events="none"/>
                </g>
                <g id="dirArrow">
                        <path fill="none" stroke="white" stroke-width="1.5" d="M0,-3.0v7 M-2.5,-0.5L0,-3.0L2.5,-0.5"/>
                </g>
               <g id="resetDef">
                       <use xlink:href="#rim2" fill="#404040">
                               <set attributeName="fill" to="#808080" begin="reset.mouseover" end="reset.mouseout"/>
                       </use>
               </g>
        </defs>

<script type="text/javascript">
var viewWidth = 644;
var viewHeight = 235;
var sectionId = 'dynsection-11';
</script>
<script xlink:href="svgpan.js"/>
<svg id="graph" class="graph">
<g id="viewport">
<title>RoR::OgreSubsystem::StartOgre</title>
<polygon fill="white" stroke="none" points="-4,4 -4,-231 640,-231 640,4 -4,4"/>
<!-- Node1 -->
<g id="node1" class="node"><title>Node1</title>
<polygon fill="#bfbfbf" stroke="black" points="0.5,-126 0.5,-156 113.5,-156 113.5,-126 0.5,-126"/>
<text text-anchor="start" x="8.5" y="-144" font-family="Helvetica,sans-Serif" font-size="10.00">RoR::OgreSubsystem</text>
<text text-anchor="middle" x="57" y="-133" font-family="Helvetica,sans-Serif" font-size="10.00">::StartOgre</text>
</g>
<!-- Node2 -->
<g id="node2" class="node"><title>Node2</title>
<g id="a_node2"><a xlink:href="namespace_ro_r_1_1_app.html#af341888bb18cf9d743c56111c8c90306" target="_top" xlink:title="RoR::App::GetSysLogsDir">
<polygon fill="white" stroke="black" points="153.5,-207.5 153.5,-226.5 286.5,-226.5 286.5,-207.5 153.5,-207.5"/>
<text text-anchor="middle" x="220" y="-214.5" font-family="Helvetica,sans-Serif" font-size="10.00">RoR::App::GetSysLogsDir</text>
</a>
</g>
</g>
<!-- Node1&#45;&gt;Node2 -->
<g id="edge1" class="edge"><title>Node1&#45;&gt;Node2</title>
<path fill="none" stroke="midnightblue" d="M78.6126,-156.171C96.6626,-168.856 123.999,-186.647 150,-198 155.398,-200.357 161.163,-202.493 166.974,-204.408"/>
<polygon fill="midnightblue" stroke="midnightblue" points="166.152,-207.817 176.74,-207.424 168.218,-201.129 166.152,-207.817"/>
</g>
<!-- Node3 -->
<g id="node3" class="node"><title>Node3</title>
<g id="a_node3"><a xlink:href="namespace_ro_r_1_1_app.html#a2c3bd075339dae711a99f41ae3916863" target="_top" xlink:title="RoR::App::GetSysConfigDir">
<polygon fill="white" stroke="black" points="150,-169.5 150,-188.5 290,-188.5 290,-169.5 150,-169.5"/>
<text text-anchor="middle" x="220" y="-176.5" font-family="Helvetica,sans-Serif" font-size="10.00">RoR::App::GetSysConfigDir</text>
</a>
</g>
</g>
<!-- Node1&#45;&gt;Node3 -->
<g id="edge2" class="edge"><title>Node1&#45;&gt;Node3</title>
<path fill="none" stroke="midnightblue" d="M113.858,-154.184C131.7,-158.395 151.328,-163.028 168.746,-167.139"/>
<polygon fill="midnightblue" stroke="midnightblue" points="168.18,-170.601 178.716,-169.492 169.788,-163.788 168.18,-170.601"/>
</g>
<!-- Node4 -->
<g id="node4" class="node"><title>Node4</title>
<g id="a_node4"><a xlink:href="namespace_ro_r_1_1_app.html#a0e0b819c4266e90fbaaa882e1bbd1544" target="_top" xlink:title="RoR::App::GetSysProcessDir">
<polygon fill="white" stroke="black" points="326,-123.5 326,-142.5 474,-142.5 474,-123.5 326,-123.5"/>
<text text-anchor="middle" x="400" y="-130.5" font-family="Helvetica,sans-Serif" font-size="10.00">RoR::App::GetSysProcessDir</text>
</a>
</g>
</g>
<!-- Node1&#45;&gt;Node4 -->
<g id="edge3" class="edge"><title>Node1&#45;&gt;Node4</title>
<path fill="none" stroke="midnightblue" d="M113.546,-139.697C168.34,-138.411 252.781,-136.43 315.627,-134.956"/>
<polygon fill="midnightblue" stroke="midnightblue" points="315.998,-138.448 325.913,-134.715 315.834,-131.45 315.998,-138.448"/>
</g>
<!-- Node5 -->
<g id="node5" class="node"><title>Node5</title>
<g id="a_node5"><a xlink:href="class_ro_r_1_1_ogre_subsystem.html#aec1ce242a94215d9500cf4d73776596c" target="_top" xlink:title="RoR::OgreSubsystem\l::LoadOgrePlugins">
<polygon fill="white" stroke="black" points="163.5,-82 163.5,-112 276.5,-112 276.5,-82 163.5,-82"/>
<text text-anchor="start" x="171.5" y="-100" font-family="Helvetica,sans-Serif" font-size="10.00">RoR::OgreSubsystem</text>
<text text-anchor="middle" x="220" y="-89" font-family="Helvetica,sans-Serif" font-size="10.00">::LoadOgrePlugins</text>
</a>
</g>
</g>
<!-- Node1&#45;&gt;Node5 -->
<g id="edge4" class="edge"><title>Node1&#45;&gt;Node5</title>
<path fill="none" stroke="midnightblue" d="M112.957,-125.981C126.225,-122.355 140.525,-118.447 154.197,-114.71"/>
<polygon fill="midnightblue" stroke="midnightblue" points="155.294,-118.039 164.018,-112.026 153.449,-111.286 155.294,-118.039"/>
</g>
<!-- Node6 -->
<g id="node6" class="node"><title>Node6</title>
<g id="a_node6"><a xlink:href="class_ro_r_1_1_ogre_subsystem.html#adac15fe2de5856cb1a1befa681eec2e6" target="_top" xlink:title="RoR::OgreSubsystem\l::Configure">
<polygon fill="white" stroke="black" points="163.5,-33 163.5,-63 276.5,-63 276.5,-33 163.5,-33"/>
<text text-anchor="start" x="171.5" y="-51" font-family="Helvetica,sans-Serif" font-size="10.00">RoR::OgreSubsystem</text>
<text text-anchor="middle" x="220" y="-40" font-family="Helvetica,sans-Serif" font-size="10.00">::Configure</text>
</a>
</g>
</g>
<!-- Node1&#45;&gt;Node6 -->
<g id="edge6" class="edge"><title>Node1&#45;&gt;Node6</title>
<path fill="none" stroke="midnightblue" d="M74.8824,-125.786C92.5522,-110.5 121.625,-87.1029 150,-72 153.271,-70.2588 156.695,-68.6024 160.193,-67.0342"/>
<polygon fill="midnightblue" stroke="midnightblue" points="161.712,-70.1925 169.574,-63.0911 158.999,-63.7393 161.712,-70.1925"/>
</g>
<!-- Node5&#45;&gt;Node4 -->
<g id="edge5" class="edge"><title>Node5&#45;&gt;Node4</title>
<path fill="none" stroke="midnightblue" d="M276.832,-108.292C297.51,-112.474 320.975,-117.22 341.775,-121.426"/>
<polygon fill="midnightblue" stroke="midnightblue" points="341.253,-124.892 351.748,-123.443 342.641,-118.031 341.253,-124.892"/>
</g>
<!-- Node7 -->
<g id="node7" class="node"><title>Node7</title>
<g id="a_node7"><a xlink:href="_utils_8cpp.html#a6219796a02effcab384e7c356aa6bc3d" target="_top" xlink:title="fixRenderWindowIcon">
<polygon fill="white" stroke="black" points="343.5,-76.5 343.5,-95.5 456.5,-95.5 456.5,-76.5 343.5,-76.5"/>
<text text-anchor="middle" x="400" y="-83.5" font-family="Helvetica,sans-Serif" font-size="10.00">fixRenderWindowIcon</text>
</a>
</g>
</g>
<!-- Node6&#45;&gt;Node7 -->
<g id="edge7" class="edge"><title>Node6&#45;&gt;Node7</title>
<path fill="none" stroke="midnightblue" d="M276.832,-59.9192C298.396,-64.5228 322.992,-69.7735 344.434,-74.3512"/>
<polygon fill="midnightblue" stroke="midnightblue" points="343.85,-77.8052 354.36,-76.4702 345.311,-70.9595 343.85,-77.8052"/>
</g>
<!-- Node8 -->
<g id="node8" class="node"><title>Node8</title>
<g id="a_node8"><a xlink:href="struct_error_utils.html#aec73b03c7829838888bbecf9acda1b98" target="_top" xlink:title="ErrorUtils::ShowError">
<polygon fill="white" stroke="black" points="345,-38.5 345,-57.5 455,-57.5 455,-38.5 345,-38.5"/>
<text text-anchor="middle" x="400" y="-45.5" font-family="Helvetica,sans-Serif" font-size="10.00">ErrorUtils::ShowError</text>
</a>
</g>
</g>
<!-- Node6&#45;&gt;Node8 -->
<g id="edge8" class="edge"><title>Node6&#45;&gt;Node8</title>
<path fill="none" stroke="midnightblue" d="M276.832,-48C295.24,-48 315.858,-48 334.837,-48"/>
<polygon fill="midnightblue" stroke="midnightblue" points="334.889,-51.5001 344.889,-48 334.889,-44.5001 334.889,-51.5001"/>
</g>
<!-- Node10 -->
<g id="node10" class="node"><title>Node10</title>
<g id="a_node10"><a xlink:href="namespace_profiler.html#af79bb59414ef3ba134213bb6f2f2d292" target="_top" xlink:title="Profiler::exit">
<polygon fill="white" stroke="black" points="365.5,-0.5 365.5,-19.5 434.5,-19.5 434.5,-0.5 365.5,-0.5"/>
<text text-anchor="middle" x="400" y="-7.5" font-family="Helvetica,sans-Serif" font-size="10.00">Profiler::exit</text>
</a>
</g>
</g>
<!-- Node6&#45;&gt;Node10 -->
<g id="edge10" class="edge"><title>Node6&#45;&gt;Node10</title>
<path fill="none" stroke="midnightblue" d="M276.832,-36.0808C302.144,-30.6772 331.632,-24.3819 355.296,-19.3301"/>
<polygon fill="midnightblue" stroke="midnightblue" points="356.337,-22.6867 365.386,-17.1759 354.876,-15.8409 356.337,-22.6867"/>
</g>
<!-- Node9 -->
<g id="node9" class="node"><title>Node9</title>
<g id="a_node9"><a xlink:href="struct_error_utils.html#a3250a36825c8b55b26d1565addb7e922" target="_top" xlink:title="ErrorUtils::ShowMsgBox">
<polygon fill="white" stroke="black" points="510.5,-38.5 510.5,-57.5 635.5,-57.5 635.5,-38.5 510.5,-38.5"/>
<text text-anchor="middle" x="573" y="-45.5" font-family="Helvetica,sans-Serif" font-size="10.00">ErrorUtils::ShowMsgBox</text>
</a>
</g>
</g>
<!-- Node8&#45;&gt;Node9 -->
<g id="edge9" class="edge"><title>Node8&#45;&gt;Node9</title>
<path fill="none" stroke="midnightblue" d="M455.105,-48C469.336,-48 484.914,-48 499.926,-48"/>
<polygon fill="midnightblue" stroke="midnightblue" points="500.205,-51.5001 510.205,-48 500.205,-44.5001 500.205,-51.5001"/>
</g>
</g>
</svg>
        <g id="navigator" transform="translate(0 0)" fill="#404254">
                <rect fill="#f2f5e9" fill-opacity="0.5" stroke="#606060" stroke-width=".5" x="0" y="0" width="60" height="60"/>
                <use id="zoomplus" xlink:href="#zoomPlus" x="17" y="9" onmousedown="handleZoom(evt,'in')"/>
                <use id="zoomminus" xlink:href="#zoomMin" x="42" y="9" onmousedown="handleZoom(evt,'out')"/>
                <use id="reset" xlink:href="#resetDef" x="30" y="36" onmousedown="handleReset()"/>
                <g id="arrowUp" xlink:href="#dirArrow" transform="translate(30 24)" onmousedown="handlePan(0,-1)">
                  <use xlink:href="#rim" fill="#404040">
                        <set attributeName="fill" to="#808080" begin="arrowUp.mouseover" end="arrowUp.mouseout"/>
                  </use>
                  <path fill="none" stroke="white" stroke-width="1.5" d="M0,-3.0v7 M-2.5,-0.5L0,-3.0L2.5,-0.5"/>
                </g>
                <g id="arrowRight" xlink:href="#dirArrow" transform="rotate(90) translate(36 -43)" onmousedown="handlePan(1,0)">
                  <use xlink:href="#rim" fill="#404040">
                        <set attributeName="fill" to="#808080" begin="arrowRight.mouseover" end="arrowRight.mouseout"/>
                  </use>
                  <path fill="none" stroke="white" stroke-width="1.5" d="M0,-3.0v7 M-2.5,-0.5L0,-3.0L2.5,-0.5"/>
                </g>
                <g id="arrowDown" xlink:href="#dirArrow" transform="rotate(180) translate(-30 -48)" onmousedown="handlePan(0,1)">
                  <use xlink:href="#rim" fill="#404040">
                        <set attributeName="fill" to="#808080" begin="arrowDown.mouseover" end="arrowDown.mouseout"/>
                  </use>
                  <path fill="none" stroke="white" stroke-width="1.5" d="M0,-3.0v7 M-2.5,-0.5L0,-3.0L2.5,-0.5"/>
                </g>
                <g id="arrowLeft" xlink:href="#dirArrow" transform="rotate(270) translate(-36 17)" onmousedown="handlePan(-1,0)">
                  <use xlink:href="#rim" fill="#404040">
                        <set attributeName="fill" to="#808080" begin="arrowLeft.mouseover" end="arrowLeft.mouseout"/>
                  </use>
                  <path fill="none" stroke="white" stroke-width="1.5" d="M0,-3.0v7 M-2.5,-0.5L0,-3.0L2.5,-0.5"/>
                </g>
        </g>
        <svg viewBox="0 0 15 15" width="100%" height="30px" preserveAspectRatio="xMaxYMin meet">
         <g id="arrow_out" transform="scale(0.3 0.3)">
          <a xlink:href="class_ro_r_1_1_ogre_subsystem_a541179a8406418170d2f1321dc0b5c8f_cgraph_org.svg" target="_base">
           <rect id="button" ry="5" rx="5" y="6" x="6" height="38" width="38"
                fill="#f2f5e9" fill-opacity="0.5" stroke="#606060" stroke-width="1.0"/>
           <path id="arrow"
             d="M 11.500037,31.436501 C 11.940474,20.09759 22.043105,11.32322 32.158766,21.979434 L 37.068811,17.246167 C 37.068811,17.246167 37.088388,32 37.088388,32 L 22.160133,31.978069 C 22.160133,31.978069 26.997745,27.140456 26.997745,27.140456 C 18.528582,18.264221 13.291696,25.230495 11.500037,31.436501 z"
             style="fill:#404040;"/>
          </a>
         </g>
        </svg>
</svg>
