<?xml version="1.0" encoding="UTF-8" standalone="no"?>
<!DOCTYPE svg PUBLIC "-//W3C//DTD SVG 1.1//EN"
 "http://www.w3.org/Graphics/SVG/1.1/DTD/svg11.dtd">
<!-- Generated by graphviz version 2.36.0 (20140111.2315)
 -->
<!-- Title: CacheSystem::fillTerrainDetailInfo Pages: 1 -->
<!--zoomable 386 -->
<svg id="main" version="1.1" xmlns="http://www.w3.org/2000/svg" xmlns:xlink="http://www.w3.org/1999/xlink" xml:space="preserve" onload="init(evt)">
<style type="text/css"><![CDATA[
.edge:hover path { stroke: red; }
.edge:hover polygon { stroke: red; fill: red; }
]]></style>
<script type="text/javascript"><![CDATA[
var edges = document.getElementsByTagName('g');
if (edges && edges.length) {
  for (var i=0;i<edges.length;i++) {
    if (edges[i].id.substr(0,4)=='edge') {
      edges[i].setAttribute('class','edge');
    }
  }
}
]]></script>
        <defs>
                <circle id="rim" cx="0" cy="0" r="7"/>
                <circle id="rim2" cx="0" cy="0" r="3.5"/>
                <g id="zoomPlus">
                        <use xlink:href="#rim" fill="#404040">
                                <set attributeName="fill" to="#808080" begin="zoomplus.mouseover" end="zoomplus.mouseout"/>
                        </use>
                        <path d="M-4,0h8M0,-4v8" fill="none" stroke="white" stroke-width="1.5" pointer-events="none"/>
                </g>
                <g id="zoomMin">
                        <use xlink:href="#rim" fill="#404040">
                                <set attributeName="fill" to="#808080" begin="zoomminus.mouseover" end="zoomminus.mouseout"/>
                        </use>
                        <path d="M-4,0h8" fill="none" stroke="white" stroke-width="1.5" pointer-events="none"/>
                </g>
                <g id="dirArrow">
                        <path fill="none" stroke="white" stroke-width="1.5" d="M0,-3.0v7 M-2.5,-0.5L0,-3.0L2.5,-0.5"/>
                </g>
               <g id="resetDef">
                       <use xlink:href="#rim2" fill="#404040">
                               <set attributeName="fill" to="#808080" begin="reset.mouseover" end="reset.mouseout"/>
                       </use>
               </g>
        </defs>

<script type="text/javascript">
var viewWidth = 1226;
var viewHeight = 386;
var sectionId = 'dynsection-26';
</script>
<script xlink:href="svgpan.js"/>
<svg id="graph" class="graph">
<g id="viewport">
<title>CacheSystem::fillTerrainDetailInfo</title>
<polygon fill="white" stroke="none" points="-4,4 -4,-381.722 1222,-381.722 1222,4 -4,4"/>
<!-- Node1 -->
<g id="node1" class="node"><title>Node1</title>
<polygon fill="#bfbfbf" stroke="black" points="0.5,-93 0.5,-123 125.5,-123 125.5,-93 0.5,-93"/>
<text text-anchor="start" x="8.5" y="-111" font-family="Helvetica,sans-Serif" font-size="10.00">CacheSystem::fillTerrain</text>
<text text-anchor="middle" x="63" y="-100" font-family="Helvetica,sans-Serif" font-size="10.00">DetailInfo</text>
</g>
<!-- Node2 -->
<g id="node2" class="node"><title>Node2</title>
<g id="a_node2"><a xlink:href="class_ro_r_1_1_terrn2_parser.html#aaf74ce663f16609faf6f139d4bf256e4" target="_top" xlink:title="RoR::Terrn2Parser::\lLoadTerrn2">
<polygon fill="white" stroke="black" points="162.5,-93 162.5,-123 267.5,-123 267.5,-93 162.5,-93"/>
<text text-anchor="start" x="170.5" y="-111" font-family="Helvetica,sans-Serif" font-size="10.00">RoR::Terrn2Parser::</text>
<text text-anchor="middle" x="215" y="-100" font-family="Helvetica,sans-Serif" font-size="10.00">LoadTerrn2</text>
</a>
</g>
</g>
<!-- Node1&#45;&gt;Node2 -->
<g id="edge1" class="edge"><title>Node1&#45;&gt;Node2</title>
<path fill="none" stroke="midnightblue" d="M125.877,-108C134.577,-108 143.521,-108 152.22,-108"/>
<polygon fill="midnightblue" stroke="midnightblue" points="152.29,-111.5 162.29,-108 152.29,-104.5 152.29,-111.5"/>
</g>
<!-- Node3 -->
<g id="node3" class="node"><title>Node3</title>
<g id="a_node3"><a xlink:href="class_ro_r_1_1_config_file.html#abfd892376697c81b3636c52a19fd89a4" target="_top" xlink:title="RoR::ConfigFile::GetStringEx">
<polygon fill="white" stroke="black" points="304,-202.5 304,-221.5 450,-221.5 450,-202.5 304,-202.5"/>
<text text-anchor="middle" x="377" y="-209.5" font-family="Helvetica,sans-Serif" font-size="10.00">RoR::ConfigFile::GetStringEx</text>
</a>
</g>
</g>
<!-- Node2&#45;&gt;Node3 -->
<g id="edge2" class="edge"><title>Node2&#45;&gt;Node3</title>
<path fill="none" stroke="midnightblue" d="M228.866,-123.014C244.844,-140.804 273.711,-170.262 304,-188 311.437,-192.355 319.773,-196.051 328.064,-199.141"/>
<polygon fill="midnightblue" stroke="midnightblue" points="327.125,-202.52 337.72,-202.493 329.421,-195.907 327.125,-202.52"/>
</g>
<!-- Node4 -->
<g id="node4" class="node"><title>Node4</title>
<g id="a_node4"><a xlink:href="namespace_ro_r_1_1_utils.html#ac62ee4a4a513a67cba1bdc7d9eb9c7a4" target="_top" xlink:title="RoR::Utils::SanitizeUtf8\lString">
<polygon fill="white" stroke="black" points="486.5,-178 486.5,-208 609.5,-208 609.5,-178 486.5,-178"/>
<text text-anchor="start" x="494.5" y="-196" font-family="Helvetica,sans-Serif" font-size="10.00">RoR::Utils::SanitizeUtf8</text>
<text text-anchor="middle" x="548" y="-185" font-family="Helvetica,sans-Serif" font-size="10.00">String</text>
</a>
</g>
</g>
<!-- Node2&#45;&gt;Node4 -->
<g id="edge27" class="edge"><title>Node2&#45;&gt;Node4</title>
<path fill="none" stroke="midnightblue" d="M239.721,-123.093C256.923,-133.354 281.093,-146.399 304,-154 360.222,-172.656 426.817,-182.544 476.061,-187.689"/>
<polygon fill="midnightblue" stroke="midnightblue" points="475.997,-191.2 486.296,-188.716 476.696,-184.235 475.997,-191.2"/>
</g>
<!-- Node18 -->
<g id="node18" class="node"><title>Node18</title>
<g id="a_node18"><a xlink:href="class_ro_r_1_1_config_file.html#a92b88389fdbac2c1700a28e2faef6c61" target="_top" xlink:title="RoR::ConfigFile::GetColour\lValue">
<polygon fill="white" stroke="black" points="308.5,-115 308.5,-145 445.5,-145 445.5,-115 308.5,-115"/>
<text text-anchor="start" x="316.5" y="-133" font-family="Helvetica,sans-Serif" font-size="10.00">RoR::ConfigFile::GetColour</text>
<text text-anchor="middle" x="377" y="-122" font-family="Helvetica,sans-Serif" font-size="10.00">Value</text>
</a>
</g>
</g>
<!-- Node2&#45;&gt;Node18 -->
<g id="edge23" class="edge"><title>Node2&#45;&gt;Node18</title>
<path fill="none" stroke="midnightblue" d="M267.506,-115.082C277.336,-116.434 287.827,-117.876 298.266,-119.312"/>
<polygon fill="midnightblue" stroke="midnightblue" points="297.853,-122.788 308.236,-120.682 298.806,-115.853 297.853,-122.788"/>
</g>
<!-- Node19 -->
<g id="node19" class="node"><title>Node19</title>
<g id="a_node19"><a xlink:href="class_ro_r_1_1_config_file.html#a25572ea93ed98ede14d9bf2068bf6e80" target="_top" xlink:title="RoR::ConfigFile::GetInt">
<polygon fill="white" stroke="black" points="317,-76.5 317,-95.5 437,-95.5 437,-76.5 317,-76.5"/>
<text text-anchor="middle" x="377" y="-83.5" font-family="Helvetica,sans-Serif" font-size="10.00">RoR::ConfigFile::GetInt</text>
</a>
</g>
</g>
<!-- Node2&#45;&gt;Node19 -->
<g id="edge24" class="edge"><title>Node2&#45;&gt;Node19</title>
<path fill="none" stroke="midnightblue" d="M267.506,-100.918C280.027,-99.1963 293.619,-97.3273 306.812,-95.5133"/>
<polygon fill="midnightblue" stroke="midnightblue" points="307.368,-98.9699 316.798,-94.1402 306.415,-92.0351 307.368,-98.9699"/>
</g>
<!-- Node20 -->
<g id="node20" class="node"><title>Node20</title>
<g id="a_node20"><a xlink:href="class_ro_r_1_1_config_file.html#a443b6eaac77d88546f06dfe2e037ffbd" target="_top" xlink:title="RoR::ConfigFile::GetFloat">
<polygon fill="white" stroke="black" points="311.5,-38.5 311.5,-57.5 442.5,-57.5 442.5,-38.5 311.5,-38.5"/>
<text text-anchor="middle" x="377" y="-45.5" font-family="Helvetica,sans-Serif" font-size="10.00">RoR::ConfigFile::GetFloat</text>
</a>
</g>
</g>
<!-- Node2&#45;&gt;Node20 -->
<g id="edge25" class="edge"><title>Node2&#45;&gt;Node20</title>
<path fill="none" stroke="midnightblue" d="M245.182,-92.8051C262.056,-84.4269 283.871,-74.2796 304,-67 310.77,-64.5517 318.002,-62.2694 325.174,-60.1969"/>
<polygon fill="midnightblue" stroke="midnightblue" points="326.169,-63.553 334.868,-57.5048 324.296,-56.8082 326.169,-63.553"/>
</g>
<!-- Node21 -->
<g id="node21" class="node"><title>Node21</title>
<g id="a_node21"><a xlink:href="class_ro_r_1_1_config_file.html#a154b80c711ad5bffe8b2c0224f5d1d2d" target="_top" xlink:title="RoR::ConfigFile::GetBool">
<polygon fill="white" stroke="black" points="313,-0.5 313,-19.5 441,-19.5 441,-0.5 313,-0.5"/>
<text text-anchor="middle" x="377" y="-7.5" font-family="Helvetica,sans-Serif" font-size="10.00">RoR::ConfigFile::GetBool</text>
</a>
</g>
</g>
<!-- Node2&#45;&gt;Node21 -->
<g id="edge26" class="edge"><title>Node2&#45;&gt;Node21</title>
<path fill="none" stroke="midnightblue" d="M228.721,-92.8547C244.556,-74.9724 273.283,-45.5732 304,-29 308.256,-26.7037 312.805,-24.6729 317.472,-22.8789"/>
<polygon fill="midnightblue" stroke="midnightblue" points="318.856,-26.1033 327.157,-19.52 316.562,-19.4897 318.856,-26.1033"/>
</g>
<!-- Node3&#45;&gt;Node4 -->
<g id="edge3" class="edge"><title>Node3&#45;&gt;Node4</title>
<path fill="none" stroke="midnightblue" d="M450.161,-203.887C458.802,-202.916 467.619,-201.925 476.239,-200.955"/>
<polygon fill="midnightblue" stroke="midnightblue" points="476.7,-204.426 486.246,-199.83 475.918,-197.47 476.7,-204.426"/>
</g>
<!-- Node5 -->
<g id="node5" class="node"><title>Node5</title>
<g id="a_node5"><a xlink:href="namespaceutf8.html#a07dcd36a2185e5c9f0b19dd88859cd6c" target="_top" xlink:title="utf8::replace_invalid">
<polygon fill="white" stroke="black" points="646,-183.5 646,-202.5 750,-202.5 750,-183.5 646,-183.5"/>
<text text-anchor="middle" x="698" y="-190.5" font-family="Helvetica,sans-Serif" font-size="10.00">utf8::replace_invalid</text>
</a>
</g>
</g>
<!-- Node4&#45;&gt;Node5 -->
<g id="edge4" class="edge"><title>Node4&#45;&gt;Node5</title>
<path fill="none" stroke="midnightblue" d="M609.624,-193C618.137,-193 626.895,-193 635.425,-193"/>
<polygon fill="midnightblue" stroke="midnightblue" points="635.686,-196.5 645.686,-193 635.686,-189.5 635.686,-196.5"/>
</g>
<!-- Node6 -->
<g id="node6" class="node"><title>Node6</title>
<g id="a_node6"><a xlink:href="namespaceutf8_1_1internal.html#abe95547575fcc81911e381df03f8ebfe" target="_top" xlink:title="utf8::internal::validate_next">
<polygon fill="white" stroke="black" points="786,-183.5 786,-202.5 920,-202.5 920,-183.5 786,-183.5"/>
<text text-anchor="middle" x="853" y="-190.5" font-family="Helvetica,sans-Serif" font-size="10.00">utf8::internal::validate_next</text>
</a>
</g>
</g>
<!-- Node5&#45;&gt;Node6 -->
<g id="edge5" class="edge"><title>Node5&#45;&gt;Node6</title>
<path fill="none" stroke="midnightblue" d="M750.372,-193C758.546,-193 767.151,-193 775.751,-193"/>
<polygon fill="midnightblue" stroke="midnightblue" points="775.819,-196.5 785.819,-193 775.819,-189.5 775.819,-196.5"/>
</g>
<!-- Node16 -->
<g id="node16" class="node"><title>Node16</title>
<g id="a_node16"><a xlink:href="namespaceutf8.html#a3827e78596fc38cfdebd721e9c45c901" target="_top" xlink:title="The library API &#45; functions intended to be called by the users. ">
<polygon fill="white" stroke="black" points="817.5,-91.5 817.5,-110.5 888.5,-110.5 888.5,-91.5 817.5,-91.5"/>
<text text-anchor="middle" x="853" y="-98.5" font-family="Helvetica,sans-Serif" font-size="10.00">utf8::append</text>
</a>
</g>
</g>
<!-- Node5&#45;&gt;Node16 -->
<g id="edge19" class="edge"><title>Node5&#45;&gt;Node16</title>
<path fill="none" stroke="midnightblue" d="M715.085,-183.328C741.899,-167.204 795.904,-134.731 827.483,-115.743"/>
<polygon fill="midnightblue" stroke="midnightblue" points="829.365,-118.695 836.131,-110.542 825.757,-112.696 829.365,-118.695"/>
</g>
<!-- Node17 -->
<g id="node17" class="node"><title>Node17</title>
<g id="a_node17"><a xlink:href="namespaceutf8_1_1internal.html#ab4820484159ba613b4901476ceb24516" target="_top" xlink:title="utf8::internal::is\l_trail">
<polygon fill="white" stroke="black" points="811,-295 811,-325 895,-325 895,-295 811,-295"/>
<text text-anchor="start" x="819" y="-313" font-family="Helvetica,sans-Serif" font-size="10.00">utf8::internal::is</text>
<text text-anchor="middle" x="853" y="-302" font-family="Helvetica,sans-Serif" font-size="10.00">_trail</text>
</a>
</g>
</g>
<!-- Node5&#45;&gt;Node17 -->
<g id="edge21" class="edge"><title>Node5&#45;&gt;Node17</title>
<path fill="none" stroke="midnightblue" d="M711.521,-202.575C735.996,-221.291 790.707,-263.129 824.171,-288.719"/>
<polygon fill="midnightblue" stroke="midnightblue" points="822.119,-291.556 832.189,-294.85 826.372,-285.996 822.119,-291.556"/>
</g>
<!-- Node7 -->
<g id="node7" class="node"><title>Node7</title>
<g id="a_node7"><a xlink:href="namespaceutf8_1_1internal.html#aadbe437cba7bfcc4df2638f633e9787c" target="_top" xlink:title="utf8::internal::sequence\l_length">
<polygon fill="white" stroke="black" points="956.5,-178 956.5,-208 1075.5,-208 1075.5,-178 956.5,-178"/>
<text text-anchor="start" x="964.5" y="-196" font-family="Helvetica,sans-Serif" font-size="10.00">utf8::internal::sequence</text>
<text text-anchor="middle" x="1016" y="-185" font-family="Helvetica,sans-Serif" font-size="10.00">_length</text>
</a>
</g>
</g>
<!-- Node6&#45;&gt;Node7 -->
<g id="edge6" class="edge"><title>Node6&#45;&gt;Node7</title>
<path fill="none" stroke="midnightblue" d="M920.414,-193C929.006,-193 937.819,-193 946.444,-193"/>
<polygon fill="midnightblue" stroke="midnightblue" points="946.459,-196.5 956.459,-193 946.459,-189.5 946.459,-196.5"/>
</g>
<!-- Node9 -->
<g id="node9" class="node"><title>Node9</title>
<g id="a_node9"><a xlink:href="namespaceutf8_1_1internal.html#a6e5df73716136aec55e8fcf3309038b6" target="_top" xlink:title="get_sequence_x functions decode utf&#45;8 sequences of the length x ">
<polygon fill="white" stroke="black" points="971,-129 971,-159 1061,-159 1061,-129 971,-129"/>
<text text-anchor="start" x="979" y="-147" font-family="Helvetica,sans-Serif" font-size="10.00">utf8::internal::get</text>
<text text-anchor="middle" x="1016" y="-136" font-family="Helvetica,sans-Serif" font-size="10.00">_sequence_1</text>
</a>
</g>
</g>
<!-- Node6&#45;&gt;Node9 -->
<g id="edge8" class="edge"><title>Node6&#45;&gt;Node9</title>
<path fill="none" stroke="midnightblue" d="M885.425,-183.436C906.914,-176.896 935.949,-168.059 961.087,-160.408"/>
<polygon fill="midnightblue" stroke="midnightblue" points="962.317,-163.693 970.865,-157.432 960.279,-156.996 962.317,-163.693"/>
</g>
<!-- Node10 -->
<g id="node10" class="node"><title>Node10</title>
<g id="a_node10"><a xlink:href="namespaceutf8_1_1internal.html#a9d641b9546be985f9f0fd4955ac42a24" target="_top" xlink:title="utf8::internal::get\l_sequence_2">
<polygon fill="white" stroke="black" points="971,-80 971,-110 1061,-110 1061,-80 971,-80"/>
<text text-anchor="start" x="979" y="-98" font-family="Helvetica,sans-Serif" font-size="10.00">utf8::internal::get</text>
<text text-anchor="middle" x="1016" y="-87" font-family="Helvetica,sans-Serif" font-size="10.00">_sequence_2</text>
</a>
</g>
</g>
<!-- Node6&#45;&gt;Node10 -->
<g id="edge10" class="edge"><title>Node6&#45;&gt;Node10</title>
<path fill="none" stroke="midnightblue" d="M865.672,-183.332C884.054,-168.418 921.24,-139.488 956,-120 959.449,-118.066 963.078,-116.187 966.771,-114.385"/>
<polygon fill="midnightblue" stroke="midnightblue" points="968.427,-117.475 976.012,-110.078 965.47,-111.13 968.427,-117.475"/>
</g>
<!-- Node11 -->
<g id="node11" class="node"><title>Node11</title>
<g id="a_node11"><a xlink:href="namespaceutf8_1_1internal.html#ac1809a1fb3fa6983d64a0d3a39646008" target="_top" xlink:title="utf8::internal::get\l_sequence_3">
<polygon fill="white" stroke="black" points="971,-325 971,-355 1061,-355 1061,-325 971,-325"/>
<text text-anchor="start" x="979" y="-343" font-family="Helvetica,sans-Serif" font-size="10.00">utf8::internal::get</text>
<text text-anchor="middle" x="1016" y="-332" font-family="Helvetica,sans-Serif" font-size="10.00">_sequence_3</text>
</a>
</g>
</g>
<!-- Node6&#45;&gt;Node11 -->
<g id="edge12" class="edge"><title>Node6&#45;&gt;Node11</title>
<path fill="none" stroke="midnightblue" d="M859.719,-202.564C873.588,-225.035 911.189,-281.802 956,-315 958.346,-316.738 960.832,-318.383 963.404,-319.935"/>
<polygon fill="midnightblue" stroke="midnightblue" points="961.947,-323.128 972.4,-324.856 965.306,-316.987 961.947,-323.128"/>
</g>
<!-- Node12 -->
<g id="node12" class="node"><title>Node12</title>
<g id="a_node12"><a xlink:href="namespaceutf8_1_1internal.html#ad1958e7c6746ba6b1fbb0d81b88b346c" target="_top" xlink:title="utf8::internal::get\l_sequence_4">
<polygon fill="white" stroke="black" points="971,-227 971,-257 1061,-257 1061,-227 971,-227"/>
<text text-anchor="start" x="979" y="-245" font-family="Helvetica,sans-Serif" font-size="10.00">utf8::internal::get</text>
<text text-anchor="middle" x="1016" y="-234" font-family="Helvetica,sans-Serif" font-size="10.00">_sequence_4</text>
</a>
</g>
</g>
<!-- Node6&#45;&gt;Node12 -->
<g id="edge14" class="edge"><title>Node6&#45;&gt;Node12</title>
<path fill="none" stroke="midnightblue" d="M885.425,-202.564C906.914,-209.104 935.949,-217.941 961.087,-225.592"/>
<polygon fill="midnightblue" stroke="midnightblue" points="960.279,-229.004 970.865,-228.568 962.317,-222.307 960.279,-229.004"/>
</g>
<!-- Node13 -->
<g id="node13" class="node"><title>Node13</title>
<g id="a_node13"><a xlink:href="namespaceutf8_1_1internal.html#a97b553137aaeda6e8ca6f8d46f78fd79" target="_top" xlink:title="utf8::internal::is\l_code_point_valid">
<polygon fill="white" stroke="black" points="968.5,-31 968.5,-61 1063.5,-61 1063.5,-31 968.5,-31"/>
<text text-anchor="start" x="976.5" y="-49" font-family="Helvetica,sans-Serif" font-size="10.00">utf8::internal::is</text>
<text text-anchor="middle" x="1016" y="-38" font-family="Helvetica,sans-Serif" font-size="10.00">_code_point_valid</text>
</a>
</g>
</g>
<!-- Node6&#45;&gt;Node13 -->
<g id="edge16" class="edge"><title>Node6&#45;&gt;Node13</title>
<path fill="none" stroke="midnightblue" d="M863.293,-183.362C876.376,-169.652 900.774,-143.564 920,-120 937.084,-99.0615 934.801,-87.7596 956,-71 958.25,-69.2213 960.645,-67.5472 963.133,-65.9749"/>
<polygon fill="midnightblue" stroke="midnightblue" points="964.905,-68.994 971.876,-61.0161 961.451,-62.9051 964.905,-68.994"/>
</g>
<!-- Node15 -->
<g id="node15" class="node"><title>Node15</title>
<g id="a_node15"><a xlink:href="namespaceutf8_1_1internal.html#a3160f6f24dff465f64f83cb0e66995c6" target="_top" xlink:title="utf8::internal::is\l_overlong_sequence">
<polygon fill="white" stroke="black" points="963,-276 963,-306 1069,-306 1069,-276 963,-276"/>
<text text-anchor="start" x="971" y="-294" font-family="Helvetica,sans-Serif" font-size="10.00">utf8::internal::is</text>
<text text-anchor="middle" x="1016" y="-283" font-family="Helvetica,sans-Serif" font-size="10.00">_overlong_sequence</text>
</a>
</g>
</g>
<!-- Node6&#45;&gt;Node15 -->
<g id="edge18" class="edge"><title>Node6&#45;&gt;Node15</title>
<path fill="none" stroke="midnightblue" d="M865.672,-202.668C884.054,-217.582 921.24,-246.512 956,-266 959.449,-267.934 963.078,-269.813 966.771,-271.615"/>
<polygon fill="midnightblue" stroke="midnightblue" points="965.47,-274.87 976.012,-275.922 968.427,-268.525 965.47,-274.87"/>
</g>
<!-- Node8 -->
<g id="node8" class="node"><title>Node8</title>
<g id="a_node8"><a xlink:href="namespaceutf8_1_1internal.html#adf6e0469e279b9562aa461b4c3c1e7e4" target="_top" xlink:title="utf8::internal::mask8">
<polygon fill="white" stroke="black" points="1112,-207.5 1112,-226.5 1218,-226.5 1218,-207.5 1112,-207.5"/>
<text text-anchor="middle" x="1165" y="-214.5" font-family="Helvetica,sans-Serif" font-size="10.00">utf8::internal::mask8</text>
</a>
</g>
</g>
<!-- Node7&#45;&gt;Node8 -->
<g id="edge7" class="edge"><title>Node7&#45;&gt;Node8</title>
<path fill="none" stroke="midnightblue" d="M1075.52,-202.554C1084.15,-203.964 1093.07,-205.42 1101.78,-206.841"/>
<polygon fill="midnightblue" stroke="midnightblue" points="1101.43,-210.331 1111.86,-208.488 1102.56,-203.422 1101.43,-210.331"/>
</g>
<!-- Node9&#45;&gt;Node8 -->
<g id="edge9" class="edge"><title>Node9&#45;&gt;Node8</title>
<path fill="none" stroke="midnightblue" d="M1054.07,-159.05C1061.4,-162.208 1068.99,-165.612 1076,-169 1097.55,-179.412 1121.34,-192.49 1138.75,-202.365"/>
<polygon fill="midnightblue" stroke="midnightblue" points="1137.29,-205.562 1147.71,-207.484 1140.76,-199.484 1137.29,-205.562"/>
</g>
<!-- Node10&#45;&gt;Node8 -->
<g id="edge11" class="edge"><title>Node10&#45;&gt;Node8</title>
<path fill="none" stroke="midnightblue" d="M1058.85,-110.028C1064.83,-112.939 1070.74,-116.265 1076,-120 1107.63,-142.46 1136.19,-178.071 1151.72,-199.325"/>
<polygon fill="midnightblue" stroke="midnightblue" points="1148.89,-201.377 1157.55,-207.474 1154.58,-197.305 1148.89,-201.377"/>
</g>
<!-- Node11&#45;&gt;Node8 -->
<g id="edge13" class="edge"><title>Node11&#45;&gt;Node8</title>
<path fill="none" stroke="midnightblue" d="M1058.86,-324.996C1064.85,-322.082 1070.75,-318.749 1076,-315 1107.76,-292.332 1136.27,-256.346 1151.76,-234.865"/>
<polygon fill="midnightblue" stroke="midnightblue" points="1154.67,-236.817 1157.57,-226.628 1148.95,-232.781 1154.67,-236.817"/>
</g>
<!-- Node12&#45;&gt;Node8 -->
<g id="edge15" class="edge"><title>Node12&#45;&gt;Node8</title>
<path fill="none" stroke="midnightblue" d="M1061.1,-234.499C1073.97,-232.312 1088.27,-229.88 1102.01,-227.542"/>
<polygon fill="midnightblue" stroke="midnightblue" points="1102.63,-230.988 1111.9,-225.861 1101.45,-224.087 1102.63,-230.988"/>
</g>
<!-- Node14 -->
<g id="node14" class="node"><title>Node14</title>
<g id="a_node14"><a xlink:href="namespaceutf8_1_1internal.html#a31a185a6bc8b9bf454191a8a95a93595" target="_top" xlink:title="utf8::internal::is\l_surrogate">
<polygon fill="white" stroke="black" points="1123,-31 1123,-61 1207,-61 1207,-31 1123,-31"/>
<text text-anchor="start" x="1131" y="-49" font-family="Helvetica,sans-Serif" font-size="10.00">utf8::internal::is</text>
<text text-anchor="middle" x="1165" y="-38" font-family="Helvetica,sans-Serif" font-size="10.00">_surrogate</text>
</a>
</g>
</g>
<!-- Node13&#45;&gt;Node14 -->
<g id="edge17" class="edge"><title>Node13&#45;&gt;Node14</title>
<path fill="none" stroke="midnightblue" d="M1063.51,-46C1079.11,-46 1096.58,-46 1112.53,-46"/>
<polygon fill="midnightblue" stroke="midnightblue" points="1112.76,-49.5001 1122.76,-46 1112.76,-42.5001 1112.76,-49.5001"/>
</g>
<!-- Node16&#45;&gt;Node13 -->
<g id="edge20" class="edge"><title>Node16&#45;&gt;Node13</title>
<path fill="none" stroke="midnightblue" d="M882.044,-91.4197C903.869,-83.964 934.806,-73.3956 961.346,-64.3291"/>
<polygon fill="midnightblue" stroke="midnightblue" points="962.568,-67.6102 970.9,-61.0654 960.305,-60.9861 962.568,-67.6102"/>
</g>
<!-- Node17&#45;&gt;Node8 -->
<g id="edge22" class="edge"><title>Node17&#45;&gt;Node8</title>
<path fill="none" stroke="midnightblue" d="M875.617,-325.06C917.042,-351.889 1009.4,-401.752 1076,-364 1124.82,-336.326 1149.48,-269.598 1159.07,-236.413"/>
<polygon fill="midnightblue" stroke="midnightblue" points="1162.51,-237.118 1161.76,-226.55 1155.75,-235.277 1162.51,-237.118"/>
</g>
</g>
</svg>
        <g id="navigator" transform="translate(0 0)" fill="#404254">
                <rect fill="#f2f5e9" fill-opacity="0.5" stroke="#606060" stroke-width=".5" x="0" y="0" width="60" height="60"/>
                <use id="zoomplus" xlink:href="#zoomPlus" x="17" y="9" onmousedown="handleZoom(evt,'in')"/>
                <use id="zoomminus" xlink:href="#zoomMin" x="42" y="9" onmousedown="handleZoom(evt,'out')"/>
                <use id="reset" xlink:href="#resetDef" x="30" y="36" onmousedown="handleReset()"/>
                <g id="arrowUp" xlink:href="#dirArrow" transform="translate(30 24)" onmousedown="handlePan(0,-1)">
                  <use xlink:href="#rim" fill="#404040">
                        <set attributeName="fill" to="#808080" begin="arrowUp.mouseover" end="arrowUp.mouseout"/>
                  </use>
                  <path fill="none" stroke="white" stroke-width="1.5" d="M0,-3.0v7 M-2.5,-0.5L0,-3.0L2.5,-0.5"/>
                </g>
                <g id="arrowRight" xlink:href="#dirArrow" transform="rotate(90) translate(36 -43)" onmousedown="handlePan(1,0)">
                  <use xlink:href="#rim" fill="#404040">
                        <set attributeName="fill" to="#808080" begin="arrowRight.mouseover" end="arrowRight.mouseout"/>
                  </use>
                  <path fill="none" stroke="white" stroke-width="1.5" d="M0,-3.0v7 M-2.5,-0.5L0,-3.0L2.5,-0.5"/>
                </g>
                <g id="arrowDown" xlink:href="#dirArrow" transform="rotate(180) translate(-30 -48)" onmousedown="handlePan(0,1)">
                  <use xlink:href="#rim" fill="#404040">
                        <set attributeName="fill" to="#808080" begin="arrowDown.mouseover" end="arrowDown.mouseout"/>
                  </use>
                  <path fill="none" stroke="white" stroke-width="1.5" d="M0,-3.0v7 M-2.5,-0.5L0,-3.0L2.5,-0.5"/>
                </g>
                <g id="arrowLeft" xlink:href="#dirArrow" transform="rotate(270) translate(-36 17)" onmousedown="handlePan(-1,0)">
                  <use xlink:href="#rim" fill="#404040">
                        <set attributeName="fill" to="#808080" begin="arrowLeft.mouseover" end="arrowLeft.mouseout"/>
                  </use>
                  <path fill="none" stroke="white" stroke-width="1.5" d="M0,-3.0v7 M-2.5,-0.5L0,-3.0L2.5,-0.5"/>
                </g>
        </g>
        <svg viewBox="0 0 15 15" width="100%" height="30px" preserveAspectRatio="xMaxYMin meet">
         <g id="arrow_out" transform="scale(0.3 0.3)">
          <a xlink:href="class_cache_system_a8c919d3618cc1b8924fc17f2c8cf4155_cgraph_org.svg" target="_base">
           <rect id="button" ry="5" rx="5" y="6" x="6" height="38" width="38"
                fill="#f2f5e9" fill-opacity="0.5" stroke="#606060" stroke-width="1.0"/>
           <path id="arrow"
             d="M 11.500037,31.436501 C 11.940474,20.09759 22.043105,11.32322 32.158766,21.979434 L 37.068811,17.246167 C 37.068811,17.246167 37.088388,32 37.088388,32 L 22.160133,31.978069 C 22.160133,31.978069 26.997745,27.140456 26.997745,27.140456 C 18.528582,18.264221 13.291696,25.230495 11.500037,31.436501 z"
             style="fill:#404040;"/>
          </a>
         </g>
        </svg>
</svg>
