<?xml version="1.0" encoding="UTF-8" standalone="no"?>
<!DOCTYPE svg PUBLIC "-//W3C//DTD SVG 1.1//EN"
 "http://www.w3.org/Graphics/SVG/1.1/DTD/svg11.dtd">
<!-- Generated by graphviz version 2.36.0 (20140111.2315)
 -->
<!-- Title: CameraBehaviorCharacter::update Pages: 1 -->
<!--zoomable 356 -->
<svg id="main" version="1.1" xmlns="http://www.w3.org/2000/svg" xmlns:xlink="http://www.w3.org/1999/xlink" xml:space="preserve" onload="init(evt)">
<style type="text/css"><![CDATA[
.edge:hover path { stroke: red; }
.edge:hover polygon { stroke: red; fill: red; }
]]></style>
<script type="text/javascript"><![CDATA[
var edges = document.getElementsByTagName('g');
if (edges && edges.length) {
  for (var i=0;i<edges.length;i++) {
    if (edges[i].id.substr(0,4)=='edge') {
      edges[i].setAttribute('class','edge');
    }
  }
}
]]></script>
        <defs>
                <circle id="rim" cx="0" cy="0" r="7"/>
                <circle id="rim2" cx="0" cy="0" r="3.5"/>
                <g id="zoomPlus">
                        <use xlink:href="#rim" fill="#404040">
                                <set attributeName="fill" to="#808080" begin="zoomplus.mouseover" end="zoomplus.mouseout"/>
                        </use>
                        <path d="M-4,0h8M0,-4v8" fill="none" stroke="white" stroke-width="1.5" pointer-events="none"/>
                </g>
                <g id="zoomMin">
                        <use xlink:href="#rim" fill="#404040">
                                <set attributeName="fill" to="#808080" begin="zoomminus.mouseover" end="zoomminus.mouseout"/>
                        </use>
                        <path d="M-4,0h8" fill="none" stroke="white" stroke-width="1.5" pointer-events="none"/>
                </g>
                <g id="dirArrow">
                        <path fill="none" stroke="white" stroke-width="1.5" d="M0,-3.0v7 M-2.5,-0.5L0,-3.0L2.5,-0.5"/>
                </g>
               <g id="resetDef">
                       <use xlink:href="#rim2" fill="#404040">
                               <set attributeName="fill" to="#808080" begin="reset.mouseover" end="reset.mouseout"/>
                       </use>
               </g>
        </defs>

<script type="text/javascript">
var viewWidth = 696;
var viewHeight = 356;
var sectionId = 'dynsection-7';
</script>
<script xlink:href="svgpan.js"/>
<svg id="graph" class="graph">
<g id="viewport">
<title>CameraBehaviorCharacter::update</title>
<polygon fill="white" stroke="none" points="-4,4 -4,-352 692,-352 692,4 -4,4"/>
<!-- Node1 -->
<g id="node1" class="node"><title>Node1</title>
<polygon fill="#bfbfbf" stroke="black" points="0,-203 0,-233 132,-233 132,-203 0,-203"/>
<text text-anchor="start" x="8" y="-221" font-family="Helvetica,sans-Serif" font-size="10.00">CameraBehaviorCharacter</text>
<text text-anchor="middle" x="66" y="-210" font-family="Helvetica,sans-Serif" font-size="10.00">::update</text>
</g>
<!-- Node2 -->
<g id="node2" class="node"><title>Node2</title>
<g id="a_node2"><a xlink:href="class_character.html#a7e18e6ea7965b2e32946a06256ec8984" target="_top" xlink:title="Character::getRotation">
<polygon fill="white" stroke="black" points="168,-246.5 168,-265.5 284,-265.5 284,-246.5 168,-246.5"/>
<text text-anchor="middle" x="226" y="-253.5" font-family="Helvetica,sans-Serif" font-size="10.00">Character::getRotation</text>
</a>
</g>
</g>
<!-- Node1&#45;&gt;Node2 -->
<g id="edge1" class="edge"><title>Node1&#45;&gt;Node2</title>
<path fill="none" stroke="midnightblue" d="M129.446,-233.019C144.724,-236.693 160.867,-240.576 175.449,-244.083"/>
<polygon fill="midnightblue" stroke="midnightblue" points="174.723,-247.508 185.264,-246.443 176.36,-240.702 174.723,-247.508"/>
</g>
<!-- Node3 -->
<g id="node3" class="node"><title>Node3</title>
<g id="a_node3"><a xlink:href="class_character.html#a2c056adebe0e35330a3eae862667f1d4" target="_top" xlink:title="Character::getPosition">
<polygon fill="white" stroke="black" points="169,-208.5 169,-227.5 283,-227.5 283,-208.5 169,-208.5"/>
<text text-anchor="middle" x="226" y="-215.5" font-family="Helvetica,sans-Serif" font-size="10.00">Character::getPosition</text>
</a>
</g>
</g>
<!-- Node1&#45;&gt;Node3 -->
<g id="edge2" class="edge"><title>Node1&#45;&gt;Node3</title>
<path fill="none" stroke="midnightblue" d="M132.177,-218C140.853,-218 149.758,-218 158.457,-218"/>
<polygon fill="midnightblue" stroke="midnightblue" points="158.547,-221.5 168.547,-218 158.547,-214.5 158.547,-221.5"/>
</g>
<!-- Node4 -->
<g id="node4" class="node"><title>Node4</title>
<g id="a_node4"><a xlink:href="class_camera_behavior_orbit.html#ac2fbf5b905645faf54092ef1c081ef55" target="_top" xlink:title="CameraBehaviorOrbit\l::update">
<polygon fill="white" stroke="black" points="171,-159 171,-189 281,-189 281,-159 171,-159"/>
<text text-anchor="start" x="179" y="-177" font-family="Helvetica,sans-Serif" font-size="10.00">CameraBehaviorOrbit</text>
<text text-anchor="middle" x="226" y="-166" font-family="Helvetica,sans-Serif" font-size="10.00">::update</text>
</a>
</g>
</g>
<!-- Node1&#45;&gt;Node4 -->
<g id="edge3" class="edge"><title>Node1&#45;&gt;Node4</title>
<path fill="none" stroke="midnightblue" d="M120.933,-202.981C133.953,-199.355 147.987,-195.447 161.405,-191.71"/>
<polygon fill="midnightblue" stroke="midnightblue" points="162.348,-195.081 171.042,-189.026 160.47,-188.337 162.348,-195.081"/>
</g>
<!-- Node5 -->
<g id="node5" class="node"><title>Node5</title>
<g id="a_node5"><a xlink:href="namespace_ro_r_1_1_app.html#a21fb1ba18d55ba3c4b0dfd2f36df7891" target="_top" xlink:title="RoR::App::GetInputEngine">
<polygon fill="white" stroke="black" points="341,-328.5 341,-347.5 475,-347.5 475,-328.5 341,-328.5"/>
<text text-anchor="middle" x="408" y="-335.5" font-family="Helvetica,sans-Serif" font-size="10.00">RoR::App::GetInputEngine</text>
</a>
</g>
</g>
<!-- Node4&#45;&gt;Node5 -->
<g id="edge4" class="edge"><title>Node4&#45;&gt;Node5</title>
<path fill="none" stroke="midnightblue" d="M271.932,-189C276.41,-191.809 280.563,-195.116 284,-199 320.902,-240.698 279.151,-281.16 320,-319 323.569,-322.306 327.575,-325.087 331.857,-327.421"/>
<polygon fill="midnightblue" stroke="midnightblue" points="330.434,-330.618 340.982,-331.61 333.355,-324.257 330.434,-330.618"/>
</g>
<!-- Node6 -->
<g id="node6" class="node"><title>Node6</title>
<g id="a_node6"><a xlink:href="class_input_engine.html#a251be92f16fe445542e240fc121354d8" target="_top" xlink:title="InputEngine::getEventValue">
<polygon fill="white" stroke="black" points="339,-290.5 339,-309.5 477,-309.5 477,-290.5 339,-290.5"/>
<text text-anchor="middle" x="408" y="-297.5" font-family="Helvetica,sans-Serif" font-size="10.00">InputEngine::getEventValue</text>
</a>
</g>
</g>
<!-- Node4&#45;&gt;Node6 -->
<g id="edge5" class="edge"><title>Node4&#45;&gt;Node6</title>
<path fill="none" stroke="midnightblue" d="M270.887,-189.108C275.662,-191.913 280.17,-195.189 284,-199 311.925,-226.789 289.598,-254.946 320,-280 323.074,-282.533 326.408,-284.76 329.918,-286.715"/>
<polygon fill="midnightblue" stroke="midnightblue" points="328.429,-289.882 338.961,-291.038 331.448,-283.567 328.429,-289.882"/>
</g>
<!-- Node9 -->
<g id="node9" class="node"><title>Node9</title>
<g id="a_node9"><a xlink:href="class_camera_behavior_orbit.html#ac2c38d7776bb50ffb4a0d267c11acb2c" target="_top" xlink:title="CameraBehaviorOrbit\l::reset">
<polygon fill="white" stroke="black" points="353,-241 353,-271 463,-271 463,-241 353,-241"/>
<text text-anchor="start" x="361" y="-259" font-family="Helvetica,sans-Serif" font-size="10.00">CameraBehaviorOrbit</text>
<text text-anchor="middle" x="408" y="-248" font-family="Helvetica,sans-Serif" font-size="10.00">::reset</text>
</a>
</g>
</g>
<!-- Node4&#45;&gt;Node9 -->
<g id="edge8" class="edge"><title>Node4&#45;&gt;Node9</title>
<path fill="none" stroke="midnightblue" d="M265.872,-189.083C272.108,-192.054 278.36,-195.385 284,-199 302.023,-210.552 301.247,-220.676 320,-231 327.145,-234.933 334.969,-238.299 342.902,-241.166"/>
<polygon fill="midnightblue" stroke="midnightblue" points="342.001,-244.556 352.595,-244.421 344.229,-237.92 342.001,-244.556"/>
</g>
<!-- Node10 -->
<g id="node10" class="node"><title>Node10</title>
<g id="a_node10"><a xlink:href="namespace_ro_r_1_1_app.html#aa04ed1e7b697aa1f33f1bb1297cb3e48" target="_top" xlink:title="RoR::App::GetConsole">
<polygon fill="white" stroke="black" points="349,-202.5 349,-221.5 467,-221.5 467,-202.5 349,-202.5"/>
<text text-anchor="middle" x="408" y="-209.5" font-family="Helvetica,sans-Serif" font-size="10.00">RoR::App::GetConsole</text>
</a>
</g>
</g>
<!-- Node4&#45;&gt;Node10 -->
<g id="edge9" class="edge"><title>Node4&#45;&gt;Node10</title>
<path fill="none" stroke="midnightblue" d="M281.006,-185.401C303.367,-190.122 329.276,-195.592 351.764,-200.339"/>
<polygon fill="midnightblue" stroke="midnightblue" points="351.323,-203.823 361.831,-202.464 352.769,-196.974 351.323,-203.823"/>
</g>
<!-- Node12 -->
<g id="node12" class="node"><title>Node12</title>
<g id="a_node12"><a xlink:href="class_ro_r_1_1_console.html#a6883dfc6a1d760581a917e101b6357c5" target="_top" xlink:title="RoR::Console::putMessage">
<polygon fill="white" stroke="black" points="339,-164.5 339,-183.5 477,-183.5 477,-164.5 339,-164.5"/>
<text text-anchor="middle" x="408" y="-171.5" font-family="Helvetica,sans-Serif" font-size="10.00">RoR::Console::putMessage</text>
</a>
</g>
</g>
<!-- Node4&#45;&gt;Node12 -->
<g id="edge11" class="edge"><title>Node4&#45;&gt;Node12</title>
<path fill="none" stroke="midnightblue" d="M281.006,-174C295.957,-174 312.494,-174 328.534,-174"/>
<polygon fill="midnightblue" stroke="midnightblue" points="328.982,-177.5 338.982,-174 328.982,-170.5 328.982,-177.5"/>
</g>
<!-- Node14 -->
<g id="node14" class="node"><title>Node14</title>
<g id="a_node14"><a xlink:href="namespace_ro_r_1_1_app.html#a68d6403d2b36006a6fa2d28f5ba8f12f" target="_top" xlink:title="RoR::App::GetGuiManager">
<polygon fill="white" stroke="black" points="341,-126.5 341,-145.5 475,-145.5 475,-126.5 341,-126.5"/>
<text text-anchor="middle" x="408" y="-133.5" font-family="Helvetica,sans-Serif" font-size="10.00">RoR::App::GetGuiManager</text>
</a>
</g>
</g>
<!-- Node4&#45;&gt;Node14 -->
<g id="edge13" class="edge"><title>Node4&#45;&gt;Node14</title>
<path fill="none" stroke="midnightblue" d="M281.006,-162.599C303.367,-157.878 329.276,-152.408 351.764,-147.661"/>
<polygon fill="midnightblue" stroke="midnightblue" points="352.769,-151.026 361.831,-145.536 351.323,-144.177 352.769,-151.026"/>
</g>
<!-- Node15 -->
<g id="node15" class="node"><title>Node15</title>
<g id="a_node15"><a xlink:href="class_ro_r_1_1_g_u_i_manager.html#a534a8e82d1b92384767ab1c555126bba" target="_top" xlink:title="RoR::GUIManager::PushNotification">
<polygon fill="white" stroke="black" points="320,-88.5 320,-107.5 496,-107.5 496,-88.5 320,-88.5"/>
<text text-anchor="middle" x="408" y="-95.5" font-family="Helvetica,sans-Serif" font-size="10.00">RoR::GUIManager::PushNotification</text>
</a>
</g>
</g>
<!-- Node4&#45;&gt;Node15 -->
<g id="edge14" class="edge"><title>Node4&#45;&gt;Node15</title>
<path fill="none" stroke="midnightblue" d="M246.996,-158.994C265.15,-146.061 293.119,-127.812 320,-117 326.36,-114.442 333.128,-112.199 339.97,-110.241"/>
<polygon fill="midnightblue" stroke="midnightblue" points="341.246,-113.523 350.01,-107.57 339.446,-106.758 341.246,-113.523"/>
</g>
<!-- Node17 -->
<g id="node17" class="node"><title>Node17</title>
<g id="a_node17"><a xlink:href="class_terrain_manager.html#ae63cfc0dda4ab62dc7f6d72eb7845628" target="_top" xlink:title="TerrainManager::getHeight\lFinder">
<polygon fill="white" stroke="black" points="342,-39 342,-69 474,-69 474,-39 342,-39"/>
<text text-anchor="start" x="350" y="-57" font-family="Helvetica,sans-Serif" font-size="10.00">TerrainManager::getHeight</text>
<text text-anchor="middle" x="408" y="-46" font-family="Helvetica,sans-Serif" font-size="10.00">Finder</text>
</a>
</g>
</g>
<!-- Node4&#45;&gt;Node17 -->
<g id="edge16" class="edge"><title>Node4&#45;&gt;Node17</title>
<path fill="none" stroke="midnightblue" d="M237.814,-158.779C253.539,-137.756 284.719,-100.049 320,-79 323.901,-76.6725 328.031,-74.5519 332.287,-72.6211"/>
<polygon fill="midnightblue" stroke="midnightblue" points="333.871,-75.7534 341.768,-68.6908 331.19,-69.2869 333.871,-75.7534"/>
</g>
<!-- Node18 -->
<g id="node18" class="node"><title>Node18</title>
<g id="a_node18"><a xlink:href="class_i_height_finder.html#a5757ec3d639bcffc834540067ec8db2e" target="_top" xlink:title="IHeightFinder::getHeightAt">
<polygon fill="white" stroke="black" points="341.5,-0.5 341.5,-19.5 474.5,-19.5 474.5,-0.5 341.5,-0.5"/>
<text text-anchor="middle" x="408" y="-7.5" font-family="Helvetica,sans-Serif" font-size="10.00">IHeightFinder::getHeightAt</text>
</a>
</g>
</g>
<!-- Node4&#45;&gt;Node18 -->
<g id="edge17" class="edge"><title>Node4&#45;&gt;Node18</title>
<path fill="none" stroke="midnightblue" d="M232.405,-158.586C243.697,-128.755 272.732,-63.1531 320,-30 323.741,-27.3761 327.774,-25.0912 331.983,-23.1022"/>
<polygon fill="midnightblue" stroke="midnightblue" points="333.523,-26.2534 341.431,-19.2036 330.852,-19.7826 333.523,-26.2534"/>
</g>
<!-- Node7 -->
<g id="node7" class="node"><title>Node7</title>
<g id="a_node7"><a xlink:href="class_input_engine.html#a3e63861375a5873297281b885c8aa8f9" target="_top" xlink:title="InputEngine::axisLinearity">
<polygon fill="white" stroke="black" points="545.5,-309.5 545.5,-328.5 674.5,-328.5 674.5,-309.5 545.5,-309.5"/>
<text text-anchor="middle" x="610" y="-316.5" font-family="Helvetica,sans-Serif" font-size="10.00">InputEngine::axisLinearity</text>
</a>
</g>
</g>
<!-- Node6&#45;&gt;Node7 -->
<g id="edge6" class="edge"><title>Node6&#45;&gt;Node7</title>
<path fill="none" stroke="midnightblue" d="M477.269,-306.486C495.974,-308.263 516.331,-310.196 535.324,-312.001"/>
<polygon fill="midnightblue" stroke="midnightblue" points="535.129,-315.498 545.415,-312.959 535.791,-308.529 535.129,-315.498"/>
</g>
<!-- Node8 -->
<g id="node8" class="node"><title>Node8</title>
<g id="a_node8"><a xlink:href="class_input_engine.html#aaa9f701b9f4420b8e97cf4ae775038c1" target="_top" xlink:title="InputEngine::deadZone">
<polygon fill="white" stroke="black" points="551.5,-271.5 551.5,-290.5 668.5,-290.5 668.5,-271.5 551.5,-271.5"/>
<text text-anchor="middle" x="610" y="-278.5" font-family="Helvetica,sans-Serif" font-size="10.00">InputEngine::deadZone</text>
</a>
</g>
</g>
<!-- Node6&#45;&gt;Node8 -->
<g id="edge7" class="edge"><title>Node6&#45;&gt;Node8</title>
<path fill="none" stroke="midnightblue" d="M477.269,-293.514C497.983,-291.547 520.723,-289.386 541.393,-287.423"/>
<polygon fill="midnightblue" stroke="midnightblue" points="541.732,-290.906 551.356,-286.476 541.07,-283.938 541.732,-290.906"/>
</g>
<!-- Node11 -->
<g id="node11" class="node"><title>Node11</title>
<g id="a_node11"><a xlink:href="class_ro_r_1_1_g_u_i_manager.html#a982bc848eb4330aa9e57a54bfc60d975" target="_top" xlink:title="RoR::GUIManager::GetConsole">
<polygon fill="white" stroke="black" points="532,-205.5 532,-224.5 688,-224.5 688,-205.5 532,-205.5"/>
<text text-anchor="middle" x="610" y="-212.5" font-family="Helvetica,sans-Serif" font-size="10.00">RoR::GUIManager::GetConsole</text>
</a>
</g>
</g>
<!-- Node10&#45;&gt;Node11 -->
<g id="edge10" class="edge"><title>Node10&#45;&gt;Node11</title>
<path fill="none" stroke="midnightblue" d="M467.117,-212.872C484.147,-213.127 503.154,-213.412 521.583,-213.689"/>
<polygon fill="midnightblue" stroke="midnightblue" points="521.693,-217.191 531.745,-213.841 521.798,-210.191 521.693,-217.191"/>
</g>
<!-- Node13 -->
<g id="node13" class="node"><title>Node13</title>
<g id="a_node13"><a xlink:href="class_inter_thread_store_vector.html#a88d3f7e3e3ce109e13af1c46a12a50b0" target="_top" xlink:title="InterThreadStoreVector\l\&lt; ConsoleMessage \&gt;::push">
<polygon fill="white" stroke="black" points="541.5,-156 541.5,-186 678.5,-186 678.5,-156 541.5,-156"/>
<text text-anchor="start" x="549.5" y="-174" font-family="Helvetica,sans-Serif" font-size="10.00">InterThreadStoreVector</text>
<text text-anchor="middle" x="610" y="-163" font-family="Helvetica,sans-Serif" font-size="10.00">&lt; ConsoleMessage &gt;::push</text>
</a>
</g>
</g>
<!-- Node12&#45;&gt;Node13 -->
<g id="edge12" class="edge"><title>Node12&#45;&gt;Node13</title>
<path fill="none" stroke="midnightblue" d="M477.269,-172.976C494.58,-172.716 513.307,-172.435 531.057,-172.169"/>
<polygon fill="midnightblue" stroke="midnightblue" points="531.431,-175.664 541.377,-172.014 531.326,-168.665 531.431,-175.664"/>
</g>
<!-- Node16 -->
<g id="node16" class="node"><title>Node16</title>
<g id="a_node16"><a xlink:href="class_ro_r_1_1_g_u_i_1_1_sim_utils.html#ac18f8c423994b93276f5f33b22e53d41" target="_top" xlink:title="RoR::GUI::SimUtils\l::PushNotification">
<polygon fill="white" stroke="black" points="558,-83 558,-113 662,-113 662,-83 558,-83"/>
<text text-anchor="start" x="566" y="-101" font-family="Helvetica,sans-Serif" font-size="10.00">RoR::GUI::SimUtils</text>
<text text-anchor="middle" x="610" y="-90" font-family="Helvetica,sans-Serif" font-size="10.00">::PushNotification</text>
</a>
</g>
</g>
<!-- Node15&#45;&gt;Node16 -->
<g id="edge15" class="edge"><title>Node15&#45;&gt;Node16</title>
<path fill="none" stroke="midnightblue" d="M496.141,-98C513.411,-98 531.202,-98 547.406,-98"/>
<polygon fill="midnightblue" stroke="midnightblue" points="547.803,-101.5 557.803,-98 547.803,-94.5001 547.803,-101.5"/>
</g>
</g>
</svg>
        <g id="navigator" transform="translate(0 0)" fill="#404254">
                <rect fill="#f2f5e9" fill-opacity="0.5" stroke="#606060" stroke-width=".5" x="0" y="0" width="60" height="60"/>
                <use id="zoomplus" xlink:href="#zoomPlus" x="17" y="9" onmousedown="handleZoom(evt,'in')"/>
                <use id="zoomminus" xlink:href="#zoomMin" x="42" y="9" onmousedown="handleZoom(evt,'out')"/>
                <use id="reset" xlink:href="#resetDef" x="30" y="36" onmousedown="handleReset()"/>
                <g id="arrowUp" xlink:href="#dirArrow" transform="translate(30 24)" onmousedown="handlePan(0,-1)">
                  <use xlink:href="#rim" fill="#404040">
                        <set attributeName="fill" to="#808080" begin="arrowUp.mouseover" end="arrowUp.mouseout"/>
                  </use>
                  <path fill="none" stroke="white" stroke-width="1.5" d="M0,-3.0v7 M-2.5,-0.5L0,-3.0L2.5,-0.5"/>
                </g>
                <g id="arrowRight" xlink:href="#dirArrow" transform="rotate(90) translate(36 -43)" onmousedown="handlePan(1,0)">
                  <use xlink:href="#rim" fill="#404040">
                        <set attributeName="fill" to="#808080" begin="arrowRight.mouseover" end="arrowRight.mouseout"/>
                  </use>
                  <path fill="none" stroke="white" stroke-width="1.5" d="M0,-3.0v7 M-2.5,-0.5L0,-3.0L2.5,-0.5"/>
                </g>
                <g id="arrowDown" xlink:href="#dirArrow" transform="rotate(180) translate(-30 -48)" onmousedown="handlePan(0,1)">
                  <use xlink:href="#rim" fill="#404040">
                        <set attributeName="fill" to="#808080" begin="arrowDown.mouseover" end="arrowDown.mouseout"/>
                  </use>
                  <path fill="none" stroke="white" stroke-width="1.5" d="M0,-3.0v7 M-2.5,-0.5L0,-3.0L2.5,-0.5"/>
                </g>
                <g id="arrowLeft" xlink:href="#dirArrow" transform="rotate(270) translate(-36 17)" onmousedown="handlePan(-1,0)">
                  <use xlink:href="#rim" fill="#404040">
                        <set attributeName="fill" to="#808080" begin="arrowLeft.mouseover" end="arrowLeft.mouseout"/>
                  </use>
                  <path fill="none" stroke="white" stroke-width="1.5" d="M0,-3.0v7 M-2.5,-0.5L0,-3.0L2.5,-0.5"/>
                </g>
        </g>
        <svg viewBox="0 0 15 15" width="100%" height="30px" preserveAspectRatio="xMaxYMin meet">
         <g id="arrow_out" transform="scale(0.3 0.3)">
          <a xlink:href="class_camera_behavior_character_a325a21bfc3a39744a03f9b5c7d4df7ca_cgraph_org.svg" target="_base">
           <rect id="button" ry="5" rx="5" y="6" x="6" height="38" width="38"
                fill="#f2f5e9" fill-opacity="0.5" stroke="#606060" stroke-width="1.0"/>
           <path id="arrow"
             d="M 11.500037,31.436501 C 11.940474,20.09759 22.043105,11.32322 32.158766,21.979434 L 37.068811,17.246167 C 37.068811,17.246167 37.088388,32 37.088388,32 L 22.160133,31.978069 C 22.160133,31.978069 26.997745,27.140456 26.997745,27.140456 C 18.528582,18.264221 13.291696,25.230495 11.500037,31.436501 z"
             style="fill:#404040;"/>
          </a>
         </g>
        </svg>
</svg>
