<?xml version="1.0" encoding="UTF-8" standalone="no"?>
<!DOCTYPE svg PUBLIC "-//W3C//DTD SVG 1.1//EN"
 "http://www.w3.org/Graphics/SVG/1.1/DTD/svg11.dtd">
<!-- Generated by graphviz version 2.36.0 (20140111.2315)
 -->
<!-- Title: RoR::MainMenu::JoinMultiplayerServer Pages: 1 -->
<svg width="334pt" height="38pt"
 viewBox="0.00 0.00 334.00 38.00" xmlns="http://www.w3.org/2000/svg" xmlns:xlink="http://www.w3.org/1999/xlink">
<g id="graph0" class="graph" transform="scale(1 1) rotate(0) translate(4 34)">
<title>RoR::MainMenu::JoinMultiplayerServer</title>
<polygon fill="white" stroke="none" points="-4,4 -4,-34 330,-34 330,4 -4,4"/>
<!-- Node1 -->
<g id="node1" class="node"><title>Node1</title>
<polygon fill="#bfbfbf" stroke="black" points="0.5,-0 0.5,-30 159.5,-30 159.5,-0 0.5,-0"/>
<text text-anchor="start" x="8.5" y="-18" font-family="Helvetica,sans-Serif" font-size="10.00">RoR::MainMenu::JoinMultiplayer</text>
<text text-anchor="middle" x="80" y="-7" font-family="Helvetica,sans-Serif" font-size="10.00">Server</text>
</g>
<!-- Node2 -->
<g id="node2" class="node"><title>Node2</title>
<g id="a_node2"><a xlink:href="main_8cpp.html#a0ddf1224851353fc92bfbff6f499fa97" target="_top" xlink:title="main">
<polygon fill="white" stroke="black" points="196,-5.5 196,-24.5 234,-24.5 234,-5.5 196,-5.5"/>
<text text-anchor="middle" x="215" y="-12.5" font-family="Helvetica,sans-Serif" font-size="10.00">main</text>
</a>
</g>
</g>
<!-- Node1&#45;&gt;Node2 -->
<g id="edge1" class="edge"><title>Node1&#45;&gt;Node2</title>
<path fill="none" stroke="midnightblue" d="M169.784,-15C179.425,-15 188.36,-15 195.638,-15"/>
<polygon fill="midnightblue" stroke="midnightblue" points="169.52,-11.5001 159.52,-15 169.52,-18.5001 169.52,-11.5001"/>
</g>
<!-- Node3 -->
<g id="node3" class="node"><title>Node3</title>
<g id="a_node3"><a xlink:href="main_8cpp.html#a2922bc5d5c2d77a3020cfbf9df12aab0" target="_top" xlink:title="WinMain">
<polygon fill="white" stroke="black" points="270.5,-5.5 270.5,-24.5 325.5,-24.5 325.5,-5.5 270.5,-5.5"/>
<text text-anchor="middle" x="298" y="-12.5" font-family="Helvetica,sans-Serif" font-size="10.00">WinMain</text>
</a>
</g>
</g>
<!-- Node2&#45;&gt;Node3 -->
<g id="edge2" class="edge"><title>Node2&#45;&gt;Node3</title>
<path fill="none" stroke="midnightblue" d="M244.512,-15C252.929,-15 262.105,-15 270.397,-15"/>
<polygon fill="midnightblue" stroke="midnightblue" points="244.38,-11.5001 234.38,-15 244.38,-18.5001 244.38,-11.5001"/>
</g>
</g>
</svg>
