<?xml version="1.0" encoding="UTF-8" standalone="no"?>
<!DOCTYPE svg PUBLIC "-//W3C//DTD SVG 1.1//EN"
 "http://www.w3.org/Graphics/SVG/1.1/DTD/svg11.dtd">
<!-- Generated by graphviz version 2.36.0 (20140111.2315)
 -->
<!-- Title: RoR::GUIManager::GetConsole Pages: 1 -->
<!--zoomable 693 -->
<svg id="main" version="1.1" xmlns="http://www.w3.org/2000/svg" xmlns:xlink="http://www.w3.org/1999/xlink" xml:space="preserve" onload="init(evt)">
<style type="text/css"><![CDATA[
.edge:hover path { stroke: red; }
.edge:hover polygon { stroke: red; fill: red; }
]]></style>
<script type="text/javascript"><![CDATA[
var edges = document.getElementsByTagName('g');
if (edges && edges.length) {
  for (var i=0;i<edges.length;i++) {
    if (edges[i].id.substr(0,4)=='edge') {
      edges[i].setAttribute('class','edge');
    }
  }
}
]]></script>
        <defs>
                <circle id="rim" cx="0" cy="0" r="7"/>
                <circle id="rim2" cx="0" cy="0" r="3.5"/>
                <g id="zoomPlus">
                        <use xlink:href="#rim" fill="#404040">
                                <set attributeName="fill" to="#808080" begin="zoomplus.mouseover" end="zoomplus.mouseout"/>
                        </use>
                        <path d="M-4,0h8M0,-4v8" fill="none" stroke="white" stroke-width="1.5" pointer-events="none"/>
                </g>
                <g id="zoomMin">
                        <use xlink:href="#rim" fill="#404040">
                                <set attributeName="fill" to="#808080" begin="zoomminus.mouseover" end="zoomminus.mouseout"/>
                        </use>
                        <path d="M-4,0h8" fill="none" stroke="white" stroke-width="1.5" pointer-events="none"/>
                </g>
                <g id="dirArrow">
                        <path fill="none" stroke="white" stroke-width="1.5" d="M0,-3.0v7 M-2.5,-0.5L0,-3.0L2.5,-0.5"/>
                </g>
               <g id="resetDef">
                       <use xlink:href="#rim2" fill="#404040">
                               <set attributeName="fill" to="#808080" begin="reset.mouseover" end="reset.mouseout"/>
                       </use>
               </g>
        </defs>

<script type="text/javascript">
var viewWidth = 916;
var viewHeight = 693;
var sectionId = 'dynsection-15';
</script>
<script xlink:href="svgpan.js"/>
<svg id="graph" class="graph">
<g id="viewport">
<title>RoR::GUIManager::GetConsole</title>
<polygon fill="white" stroke="none" points="-4,4 -4,-688.709 912,-688.709 912,4 -4,4"/>
<!-- Node1 -->
<g id="node1" class="node"><title>Node1</title>
<polygon fill="#bfbfbf" stroke="black" points="0,-316.209 0,-335.209 156,-335.209 156,-316.209 0,-316.209"/>
<text text-anchor="middle" x="78" y="-323.209" font-family="Helvetica,sans-Serif" font-size="10.00">RoR::GUIManager::GetConsole</text>
</g>
<!-- Node2 -->
<g id="node2" class="node"><title>Node2</title>
<g id="a_node2"><a xlink:href="namespace_ro_r_1_1_app.html#aa04ed1e7b697aa1f33f1bb1297cb3e48" target="_top" xlink:title="RoR::App::GetConsole">
<polygon fill="white" stroke="black" points="192,-316.209 192,-335.209 310,-335.209 310,-316.209 192,-316.209"/>
<text text-anchor="middle" x="251" y="-323.209" font-family="Helvetica,sans-Serif" font-size="10.00">RoR::App::GetConsole</text>
</a>
</g>
</g>
<!-- Node1&#45;&gt;Node2 -->
<g id="edge1" class="edge"><title>Node1&#45;&gt;Node2</title>
<path fill="none" stroke="midnightblue" d="M166.589,-325.709C175.195,-325.709 183.773,-325.709 191.973,-325.709"/>
<polygon fill="midnightblue" stroke="midnightblue" points="166.495,-322.209 156.495,-325.709 166.495,-329.209 166.495,-322.209"/>
</g>
<!-- Node3 -->
<g id="node3" class="node"><title>Node3</title>
<g id="a_node3"><a xlink:href="struct_ro_r_1_1_land_vehicle_simulation.html#a830e19b0460db3df601abe83096f78d7" target="_top" xlink:title="RoR::LandVehicleSimulation\l::UpdateVehicle">
<polygon fill="white" stroke="black" points="364,-654.709 364,-684.709 506,-684.709 506,-654.709 364,-654.709"/>
<text text-anchor="start" x="372" y="-672.709" font-family="Helvetica,sans-Serif" font-size="10.00">RoR::LandVehicleSimulation</text>
<text text-anchor="middle" x="435" y="-661.709" font-family="Helvetica,sans-Serif" font-size="10.00">::UpdateVehicle</text>
</a>
</g>
</g>
<!-- Node2&#45;&gt;Node3 -->
<g id="edge2" class="edge"><title>Node2&#45;&gt;Node3</title>
<path fill="none" stroke="midnightblue" d="M252.012,-345.543C253.137,-400.165 263.822,-554.375 346,-639.709 351.934,-645.871 359.183,-650.767 366.948,-654.658"/>
<polygon fill="midnightblue" stroke="midnightblue" points="255.511,-345.419 251.895,-335.46 248.512,-345.5 255.511,-345.419"/>
</g>
<!-- Node4 -->
<g id="node4" class="node"><title>Node4</title>
<g id="a_node4"><a xlink:href="class_ro_r_frame_listener.html#afec2a0f00ed552c21d22aae76329bf38" target="_top" xlink:title="RoRFrameListener::Update\lInputEvents">
<polygon fill="white" stroke="black" points="566.5,-593.709 566.5,-623.709 703.5,-623.709 703.5,-593.709 566.5,-593.709"/>
<text text-anchor="start" x="574.5" y="-611.709" font-family="Helvetica,sans-Serif" font-size="10.00">RoRFrameListener::Update</text>
<text text-anchor="middle" x="635" y="-600.709" font-family="Helvetica,sans-Serif" font-size="10.00">InputEvents</text>
</a>
</g>
</g>
<!-- Node2&#45;&gt;Node4 -->
<g id="edge3" class="edge"><title>Node2&#45;&gt;Node4</title>
<path fill="none" stroke="midnightblue" d="M251.539,-345.558C251.519,-398.645 259.678,-544.105 346,-606.709 416.734,-658.007 525.098,-640.203 586.758,-623.734"/>
<polygon fill="midnightblue" stroke="midnightblue" points="255.04,-345.47 251.648,-335.433 248.04,-345.395 255.04,-345.47"/>
</g>
<!-- Node6 -->
<g id="node6" class="node"><title>Node6</title>
<g id="a_node6"><a xlink:href="class_ro_r_frame_listener.html#a57679664f6f2299add5b6ba7fcbb1b11" target="_top" xlink:title="RoRFrameListener::ShowLoaderGUI">
<polygon fill="white" stroke="black" points="346.5,-578.209 346.5,-597.209 523.5,-597.209 523.5,-578.209 346.5,-578.209"/>
<text text-anchor="middle" x="435" y="-585.209" font-family="Helvetica,sans-Serif" font-size="10.00">RoRFrameListener::ShowLoaderGUI</text>
</a>
</g>
</g>
<!-- Node2&#45;&gt;Node6 -->
<g id="edge5" class="edge"><title>Node2&#45;&gt;Node6</title>
<path fill="none" stroke="midnightblue" d="M253.589,-345.605C258.413,-392.069 277.104,-508.264 346,-567.709 350.982,-572.007 356.698,-575.434 362.773,-578.159"/>
<polygon fill="midnightblue" stroke="midnightblue" points="257.049,-345.006 252.64,-335.372 250.079,-345.653 257.049,-345.006"/>
</g>
<!-- Node7 -->
<g id="node7" class="node"><title>Node7</title>
<g id="a_node7"><a xlink:href="class_ro_r_frame_listener.html#a74e44d8907e7f6ffddedd260f307a764" target="_top" xlink:title="RoRFrameListener::Reload\lCurrentTruck">
<polygon fill="white" stroke="black" points="367,-528.709 367,-558.709 503,-558.709 503,-528.709 367,-528.709"/>
<text text-anchor="start" x="375" y="-546.709" font-family="Helvetica,sans-Serif" font-size="10.00">RoRFrameListener::Reload</text>
<text text-anchor="middle" x="435" y="-535.709" font-family="Helvetica,sans-Serif" font-size="10.00">CurrentTruck</text>
</a>
</g>
</g>
<!-- Node2&#45;&gt;Node7 -->
<g id="edge6" class="edge"><title>Node2&#45;&gt;Node7</title>
<path fill="none" stroke="midnightblue" d="M255.951,-345.298C264.857,-384.318 290.228,-472 346,-518.709 352.088,-523.807 359.155,-527.868 366.586,-531.102"/>
<polygon fill="midnightblue" stroke="midnightblue" points="259.357,-344.488 253.823,-335.454 252.515,-345.967 259.357,-344.488"/>
</g>
<!-- Node10 -->
<g id="node10" class="node"><title>Node10</title>
<g id="a_node10"><a xlink:href="class_camera_behavior_fixed.html#a241ef159be15e1eaea2d515e8783e9cf" target="_top" xlink:title="CameraBehaviorFixed\l::activate">
<polygon fill="white" stroke="black" points="378.5,-479.709 378.5,-509.709 491.5,-509.709 491.5,-479.709 378.5,-479.709"/>
<text text-anchor="start" x="386.5" y="-497.709" font-family="Helvetica,sans-Serif" font-size="10.00">CameraBehaviorFixed</text>
<text text-anchor="middle" x="435" y="-486.709" font-family="Helvetica,sans-Serif" font-size="10.00">::activate</text>
</a>
</g>
</g>
<!-- Node2&#45;&gt;Node10 -->
<g id="edge10" class="edge"><title>Node2&#45;&gt;Node10</title>
<path fill="none" stroke="midnightblue" d="M259.382,-345.153C272.186,-376.233 301.482,-436.933 346,-469.709 355.464,-476.677 366.81,-481.705 378.159,-485.333"/>
<polygon fill="midnightblue" stroke="midnightblue" points="262.488,-343.49 255.543,-335.489 255.982,-346.075 262.488,-343.49"/>
</g>
<!-- Node11 -->
<g id="node11" class="node"><title>Node11</title>
<g id="a_node11"><a xlink:href="class_camera_behavior_free.html#a00d41bdbc48a1fdf054e4c49307b6333" target="_top" xlink:title="CameraBehaviorFree\l::activate">
<polygon fill="white" stroke="black" points="380.5,-430.709 380.5,-460.709 489.5,-460.709 489.5,-430.709 380.5,-430.709"/>
<text text-anchor="start" x="388.5" y="-448.709" font-family="Helvetica,sans-Serif" font-size="10.00">CameraBehaviorFree</text>
<text text-anchor="middle" x="435" y="-437.709" font-family="Helvetica,sans-Serif" font-size="10.00">::activate</text>
</a>
</g>
</g>
<!-- Node2&#45;&gt;Node11 -->
<g id="edge11" class="edge"><title>Node2&#45;&gt;Node11</title>
<path fill="none" stroke="midnightblue" d="M265.019,-343.639C281.51,-365.073 311.918,-400.567 346,-420.709 356.392,-426.85 368.369,-431.548 380.075,-435.119"/>
<polygon fill="midnightblue" stroke="midnightblue" points="267.636,-341.295 258.833,-335.399 262.038,-345.497 267.636,-341.295"/>
</g>
<!-- Node12 -->
<g id="node12" class="node"><title>Node12</title>
<g id="a_node12"><a xlink:href="class_camera_behavior_isometric.html#a87263a46cf14697b5aedfa831e5506f7" target="_top" xlink:title="CameraBehaviorIsometric\l::activate">
<polygon fill="white" stroke="black" points="370,-381.709 370,-411.709 500,-411.709 500,-381.709 370,-381.709"/>
<text text-anchor="start" x="378" y="-399.709" font-family="Helvetica,sans-Serif" font-size="10.00">CameraBehaviorIsometric</text>
<text text-anchor="middle" x="435" y="-388.709" font-family="Helvetica,sans-Serif" font-size="10.00">::activate</text>
</a>
</g>
</g>
<!-- Node2&#45;&gt;Node12 -->
<g id="edge12" class="edge"><title>Node2&#45;&gt;Node12</title>
<path fill="none" stroke="midnightblue" d="M278.257,-340.13C296.804,-349.923 322.451,-362.684 346,-371.709 355.343,-375.289 365.417,-378.621 375.297,-381.611"/>
<polygon fill="midnightblue" stroke="midnightblue" points="279.723,-336.944 269.254,-335.314 276.422,-343.117 279.723,-336.944"/>
</g>
<!-- Node13 -->
<g id="node13" class="node"><title>Node13</title>
<g id="a_node13"><a xlink:href="class_camera_behavior_orbit.html#ac2fbf5b905645faf54092ef1c081ef55" target="_top" xlink:title="CameraBehaviorOrbit\l::update">
<polygon fill="white" stroke="black" points="380,-332.709 380,-362.709 490,-362.709 490,-332.709 380,-332.709"/>
<text text-anchor="start" x="388" y="-350.709" font-family="Helvetica,sans-Serif" font-size="10.00">CameraBehaviorOrbit</text>
<text text-anchor="middle" x="435" y="-339.709" font-family="Helvetica,sans-Serif" font-size="10.00">::update</text>
</a>
</g>
</g>
<!-- Node2&#45;&gt;Node13 -->
<g id="edge13" class="edge"><title>Node2&#45;&gt;Node13</title>
<path fill="none" stroke="midnightblue" d="M320.228,-333.956C339.927,-336.337 361.148,-338.902 379.865,-341.165"/>
<polygon fill="midnightblue" stroke="midnightblue" points="320.434,-330.455 310.086,-332.73 319.594,-337.405 320.434,-330.455"/>
</g>
<!-- Node17 -->
<g id="node17" class="node"><title>Node17</title>
<g id="a_node17"><a xlink:href="class_camera_behavior_vehicle_spline.html#ae30aef518419478d4c3ad73879eae6cd" target="_top" xlink:title="CameraBehaviorVehicleSpline\l::update">
<polygon fill="white" stroke="black" points="560.5,-283.709 560.5,-313.709 709.5,-313.709 709.5,-283.709 560.5,-283.709"/>
<text text-anchor="start" x="568.5" y="-301.709" font-family="Helvetica,sans-Serif" font-size="10.00">CameraBehaviorVehicleSpline</text>
<text text-anchor="middle" x="635" y="-290.709" font-family="Helvetica,sans-Serif" font-size="10.00">::update</text>
</a>
</g>
</g>
<!-- Node2&#45;&gt;Node17 -->
<g id="edge18" class="edge"><title>Node2&#45;&gt;Node17</title>
<path fill="none" stroke="midnightblue" d="M320.132,-320.893C387.702,-316.117 490.917,-308.822 560.35,-303.914"/>
<polygon fill="midnightblue" stroke="midnightblue" points="319.746,-317.411 310.018,-321.608 320.239,-324.394 319.746,-317.411"/>
</g>
<!-- Node18 -->
<g id="node18" class="node"><title>Node18</title>
<g id="a_node18"><a xlink:href="class_ro_r_1_1_g_u_i_1_1_texture_tool_window.html#a342b5b13b3f8e1a78766224962f68785" target="_top" xlink:title="RoR::GUI::TextureToolWindow\l::saveTexture">
<polygon fill="white" stroke="black" points="358,-244.709 358,-274.709 512,-274.709 512,-244.709 358,-244.709"/>
<text text-anchor="start" x="366" y="-262.709" font-family="Helvetica,sans-Serif" font-size="10.00">RoR::GUI::TextureToolWindow</text>
<text text-anchor="middle" x="435" y="-251.709" font-family="Helvetica,sans-Serif" font-size="10.00">::saveTexture</text>
</a>
</g>
</g>
<!-- Node2&#45;&gt;Node18 -->
<g id="edge19" class="edge"><title>Node2&#45;&gt;Node18</title>
<path fill="none" stroke="midnightblue" d="M285.673,-312.464C303.538,-305.526 325.895,-296.982 346,-289.709 359.812,-284.711 374.924,-279.476 388.667,-274.803"/>
<polygon fill="midnightblue" stroke="midnightblue" points="284.299,-309.243 276.253,-316.136 286.841,-315.766 284.299,-309.243"/>
</g>
<!-- Node19 -->
<g id="node19" class="node"><title>Node19</title>
<g id="a_node19"><a xlink:href="class_ro_r_1_1_g_u_i_1_1_texture_tool_window.html#ae99f96751422895d21953af7e652040f" target="_top" xlink:title="RoR::GUI::TextureToolWindow\l::updateControls">
<polygon fill="white" stroke="black" points="358,-195.709 358,-225.709 512,-225.709 512,-195.709 358,-195.709"/>
<text text-anchor="start" x="366" y="-213.709" font-family="Helvetica,sans-Serif" font-size="10.00">RoR::GUI::TextureToolWindow</text>
<text text-anchor="middle" x="435" y="-202.709" font-family="Helvetica,sans-Serif" font-size="10.00">::updateControls</text>
</a>
</g>
</g>
<!-- Node2&#45;&gt;Node19 -->
<g id="edge20" class="edge"><title>Node2&#45;&gt;Node19</title>
<path fill="none" stroke="midnightblue" d="M265.411,-308.178C282.094,-287.578 312.496,-253.79 346,-234.709 352.055,-231.26 358.628,-228.288 365.362,-225.731"/>
<polygon fill="midnightblue" stroke="midnightblue" points="262.59,-306.104 259.132,-316.119 268.08,-310.446 262.59,-306.104"/>
</g>
<!-- Node20 -->
<g id="node20" class="node"><title>Node20</title>
<g id="a_node20"><a xlink:href="class_beam.html#ab0cbc6c4e3822fc5786af2c8036f7efb" target="_top" xlink:title="Beam::LoadTruck">
<polygon fill="white" stroke="black" points="388,-157.209 388,-176.209 482,-176.209 482,-157.209 388,-157.209"/>
<text text-anchor="middle" x="435" y="-164.209" font-family="Helvetica,sans-Serif" font-size="10.00">Beam::LoadTruck</text>
</a>
</g>
</g>
<!-- Node2&#45;&gt;Node20 -->
<g id="edge21" class="edge"><title>Node2&#45;&gt;Node20</title>
<path fill="none" stroke="midnightblue" d="M259.303,-306.476C271.996,-275.795 301.139,-216.142 346,-185.709 358.288,-177.373 373.574,-172.607 387.942,-169.91"/>
<polygon fill="midnightblue" stroke="midnightblue" points="255.949,-305.439 255.501,-316.024 262.452,-308.028 255.949,-305.439"/>
</g>
<!-- Node22 -->
<g id="node22" class="node"><title>Node22</title>
<g id="a_node22"><a xlink:href="class_game_script.html#a8d3e1d2eb76012b6b03795caf140a488" target="_top" xlink:title="GameScript::flashMessage">
<polygon fill="white" stroke="black" points="367.5,-119.209 367.5,-138.209 502.5,-138.209 502.5,-119.209 367.5,-119.209"/>
<text text-anchor="middle" x="435" y="-126.209" font-family="Helvetica,sans-Serif" font-size="10.00">GameScript::flashMessage</text>
</a>
</g>
</g>
<!-- Node2&#45;&gt;Node22 -->
<g id="edge23" class="edge"><title>Node2&#45;&gt;Node22</title>
<path fill="none" stroke="midnightblue" d="M256.507,-306.097C266.112,-268.964 292.248,-188.469 346,-147.709 352.352,-142.892 359.665,-139.241 367.305,-136.481"/>
<polygon fill="midnightblue" stroke="midnightblue" points="253.028,-305.591 254.045,-316.137 259.826,-307.258 253.028,-305.591"/>
</g>
<!-- Node23 -->
<g id="node23" class="node"><title>Node23</title>
<g id="a_node23"><a xlink:href="class_game_script.html#a1df285262747691657513586dfe94907" target="_top" xlink:title="GameScript::message">
<polygon fill="white" stroke="black" points="378,-81.2086 378,-100.209 492,-100.209 492,-81.2086 378,-81.2086"/>
<text text-anchor="middle" x="435" y="-88.2086" font-family="Helvetica,sans-Serif" font-size="10.00">GameScript::message</text>
</a>
</g>
</g>
<!-- Node2&#45;&gt;Node23 -->
<g id="edge24" class="edge"><title>Node2&#45;&gt;Node23</title>
<path fill="none" stroke="midnightblue" d="M254.523,-306.152C261.123,-263.405 282.987,-161.344 346,-109.709 355.067,-102.279 366.374,-97.5714 377.831,-94.6293"/>
<polygon fill="midnightblue" stroke="midnightblue" points="251.049,-305.719 253.101,-316.113 257.979,-306.708 251.049,-305.719"/>
</g>
<!-- Node24 -->
<g id="node24" class="node"><title>Node24</title>
<g id="a_node24"><a xlink:href="class_game_script.html#a8c02937795d82f6bc0de53d8e939993d" target="_top" xlink:title="GameScript::useOnlineAPIDirectly">
<polygon fill="white" stroke="black" points="351,-43.2086 351,-62.2086 519,-62.2086 519,-43.2086 351,-43.2086"/>
<text text-anchor="middle" x="435" y="-50.2086" font-family="Helvetica,sans-Serif" font-size="10.00">GameScript::useOnlineAPIDirectly</text>
</a>
</g>
</g>
<!-- Node2&#45;&gt;Node24 -->
<g id="edge25" class="edge"><title>Node2&#45;&gt;Node24</title>
<path fill="none" stroke="midnightblue" d="M253.109,-306.075C256.926,-258.136 273.656,-134.458 346,-71.7086 350.369,-67.9193 355.313,-64.8285 360.575,-62.3134"/>
<polygon fill="midnightblue" stroke="midnightblue" points="249.616,-305.856 252.418,-316.074 256.599,-306.339 249.616,-305.856"/>
</g>
<!-- Node25 -->
<g id="node25" class="node"><title>Node25</title>
<g id="a_node25"><a xlink:href="class_game_script.html#a57fef318c599e4d2f86aa9b4b7f2ec12" target="_top" xlink:title="GameScript::useOnlineAPI">
<polygon fill="white" stroke="black" points="568,-24.2086 568,-43.2086 702,-43.2086 702,-24.2086 568,-24.2086"/>
<text text-anchor="middle" x="635" y="-31.2086" font-family="Helvetica,sans-Serif" font-size="10.00">GameScript::useOnlineAPI</text>
</a>
</g>
</g>
<!-- Node2&#45;&gt;Node25 -->
<g id="edge27" class="edge"><title>Node2&#45;&gt;Node25</title>
<path fill="none" stroke="midnightblue" d="M251.241,-306.158C250.334,-251.899 256.188,-99.1477 346,-33.7086 425.205,24.002 551.948,-6.65674 607.007,-24.1982"/>
<polygon fill="midnightblue" stroke="midnightblue" points="247.742,-306.271 251.509,-316.174 254.74,-306.084 247.742,-306.271"/>
</g>
<!-- Node5 -->
<g id="node5" class="node"><title>Node5</title>
<g id="a_node5"><a xlink:href="class_ro_r_frame_listener.html#acd8647e188fb8e838689492965b86faf" target="_top" xlink:title="RoRFrameListener::frameStarted">
<polygon fill="white" stroke="black" points="746.5,-599.209 746.5,-618.209 907.5,-618.209 907.5,-599.209 746.5,-599.209"/>
<text text-anchor="middle" x="827" y="-606.209" font-family="Helvetica,sans-Serif" font-size="10.00">RoRFrameListener::frameStarted</text>
</a>
</g>
</g>
<!-- Node4&#45;&gt;Node5 -->
<g id="edge4" class="edge"><title>Node4&#45;&gt;Node5</title>
<path fill="none" stroke="midnightblue" d="M713.728,-608.709C724.491,-608.709 735.559,-608.709 746.356,-608.709"/>
<polygon fill="midnightblue" stroke="midnightblue" points="713.522,-605.209 703.522,-608.709 713.522,-612.209 713.522,-605.209"/>
</g>
<!-- Node7&#45;&gt;Node4 -->
<g id="edge7" class="edge"><title>Node7&#45;&gt;Node4</title>
<path fill="none" stroke="midnightblue" d="M501.268,-561.683C508.955,-563.967 516.668,-566.338 524,-568.709 547.685,-576.368 573.89,-585.857 594.78,-593.669"/>
<polygon fill="midnightblue" stroke="midnightblue" points="502.157,-558.296 491.576,-558.841 500.187,-565.013 502.157,-558.296"/>
</g>
<!-- Node8 -->
<g id="node8" class="node"><title>Node8</title>
<g id="a_node8"><a xlink:href="class_ro_r_1_1_g_u_i_1_1_top_menubar.html#ad1c44bd3c1247dcd8b876ff7728fac32" target="_top" xlink:title="RoR::GUI::TopMenubar\l::onMenuBtn">
<polygon fill="white" stroke="black" points="574.5,-528.709 574.5,-558.709 695.5,-558.709 695.5,-528.709 574.5,-528.709"/>
<text text-anchor="start" x="582.5" y="-546.709" font-family="Helvetica,sans-Serif" font-size="10.00">RoR::GUI::TopMenubar</text>
<text text-anchor="middle" x="635" y="-535.709" font-family="Helvetica,sans-Serif" font-size="10.00">::onMenuBtn</text>
</a>
</g>
</g>
<!-- Node7&#45;&gt;Node8 -->
<g id="edge8" class="edge"><title>Node7&#45;&gt;Node8</title>
<path fill="none" stroke="midnightblue" d="M513.2,-543.709C533.511,-543.709 555.109,-543.709 574.342,-543.709"/>
<polygon fill="midnightblue" stroke="midnightblue" points="513.034,-540.209 503.034,-543.709 513.034,-547.209 513.034,-540.209"/>
</g>
<!-- Node9 -->
<g id="node9" class="node"><title>Node9</title>
<g id="a_node9"><a xlink:href="class_ro_r_1_1_g_u_i_1_1_top_menubar.html#aba4f8b1030da3a9d3b4394562d60a05a" target="_top" xlink:title="RoR::GUI::TopMenubar\l::TopMenubar">
<polygon fill="white" stroke="black" points="766.5,-528.709 766.5,-558.709 887.5,-558.709 887.5,-528.709 766.5,-528.709"/>
<text text-anchor="start" x="774.5" y="-546.709" font-family="Helvetica,sans-Serif" font-size="10.00">RoR::GUI::TopMenubar</text>
<text text-anchor="middle" x="827" y="-535.709" font-family="Helvetica,sans-Serif" font-size="10.00">::TopMenubar</text>
</a>
</g>
</g>
<!-- Node8&#45;&gt;Node9 -->
<g id="edge9" class="edge"><title>Node8&#45;&gt;Node9</title>
<path fill="none" stroke="midnightblue" d="M705.812,-543.709C725.664,-543.709 747.096,-543.709 766.289,-543.709"/>
<polygon fill="midnightblue" stroke="midnightblue" points="705.596,-540.209 695.596,-543.709 705.596,-547.209 705.596,-540.209"/>
</g>
<!-- Node14 -->
<g id="node14" class="node"><title>Node14</title>
<g id="a_node14"><a xlink:href="class_camera_behavior_character.html#a325a21bfc3a39744a03f9b5c7d4df7ca" target="_top" xlink:title="CameraBehaviorCharacter\l::update">
<polygon fill="white" stroke="black" points="569,-430.709 569,-460.709 701,-460.709 701,-430.709 569,-430.709"/>
<text text-anchor="start" x="577" y="-448.709" font-family="Helvetica,sans-Serif" font-size="10.00">CameraBehaviorCharacter</text>
<text text-anchor="middle" x="635" y="-437.709" font-family="Helvetica,sans-Serif" font-size="10.00">::update</text>
</a>
</g>
</g>
<!-- Node13&#45;&gt;Node14 -->
<g id="edge14" class="edge"><title>Node13&#45;&gt;Node14</title>
<path fill="none" stroke="midnightblue" d="M499.812,-360.43C508.352,-363.65 516.677,-367.677 524,-372.709 545.978,-387.811 538.398,-405.073 560,-420.709 565.273,-424.525 571.17,-427.789 577.272,-430.574"/>
<polygon fill="midnightblue" stroke="midnightblue" points="500.716,-357.04 490.122,-357.126 498.457,-363.666 500.716,-357.04"/>
</g>
<!-- Node15 -->
<g id="node15" class="node"><title>Node15</title>
<g id="a_node15"><a xlink:href="class_camera_behavior_vehicle.html#ae4defc34198f6a82cfb86ede290d055f" target="_top" xlink:title="CameraBehaviorVehicle\l::update">
<polygon fill="white" stroke="black" points="574,-381.709 574,-411.709 696,-411.709 696,-381.709 574,-381.709"/>
<text text-anchor="start" x="582" y="-399.709" font-family="Helvetica,sans-Serif" font-size="10.00">CameraBehaviorVehicle</text>
<text text-anchor="middle" x="635" y="-388.709" font-family="Helvetica,sans-Serif" font-size="10.00">::update</text>
</a>
</g>
</g>
<!-- Node13&#45;&gt;Node15 -->
<g id="edge15" class="edge"><title>Node13&#45;&gt;Node15</title>
<path fill="none" stroke="midnightblue" d="M500.033,-363.555C523.679,-369.407 550.38,-376.015 573.686,-381.782"/>
<polygon fill="midnightblue" stroke="midnightblue" points="500.652,-360.103 490.104,-361.098 498.971,-366.898 500.652,-360.103"/>
</g>
<!-- Node16 -->
<g id="node16" class="node"><title>Node16</title>
<g id="a_node16"><a xlink:href="class_camera_behavior_vehicle_cine_cam.html#a55ece9b32ddd311803bf2f7793d29260" target="_top" xlink:title="CameraBehaviorVehicleCine\lCam::update">
<polygon fill="white" stroke="black" points="564,-332.709 564,-362.709 706,-362.709 706,-332.709 564,-332.709"/>
<text text-anchor="start" x="572" y="-350.709" font-family="Helvetica,sans-Serif" font-size="10.00">CameraBehaviorVehicleCine</text>
<text text-anchor="middle" x="635" y="-339.709" font-family="Helvetica,sans-Serif" font-size="10.00">Cam::update</text>
</a>
</g>
</g>
<!-- Node13&#45;&gt;Node16 -->
<g id="edge16" class="edge"><title>Node13&#45;&gt;Node16</title>
<path fill="none" stroke="midnightblue" d="M500.216,-347.709C520.587,-347.709 543.208,-347.709 563.966,-347.709"/>
<polygon fill="midnightblue" stroke="midnightblue" points="500.104,-344.209 490.104,-347.709 500.104,-351.209 500.104,-344.209"/>
</g>
<!-- Node13&#45;&gt;Node17 -->
<g id="edge17" class="edge"><title>Node13&#45;&gt;Node17</title>
<path fill="none" stroke="midnightblue" d="M499.988,-331.873C523.526,-326.048 550.095,-319.473 573.332,-313.722"/>
<polygon fill="midnightblue" stroke="midnightblue" points="498.971,-328.519 490.104,-334.319 500.652,-335.314 498.971,-328.519"/>
</g>
<!-- Node21 -->
<g id="node21" class="node"><title>Node21</title>
<g id="a_node21"><a xlink:href="class_beam.html#a0d55b25fa0d1623305f3ac51694cbd42" target="_top" xlink:title="Beam::Beam">
<polygon fill="white" stroke="black" points="598,-157.209 598,-176.209 672,-176.209 672,-157.209 598,-157.209"/>
<text text-anchor="middle" x="635" y="-164.209" font-family="Helvetica,sans-Serif" font-size="10.00">Beam::Beam</text>
</a>
</g>
</g>
<!-- Node20&#45;&gt;Node21 -->
<g id="edge22" class="edge"><title>Node20&#45;&gt;Node21</title>
<path fill="none" stroke="midnightblue" d="M492.414,-166.709C526.344,-166.709 568.52,-166.709 597.976,-166.709"/>
<polygon fill="midnightblue" stroke="midnightblue" points="492.172,-163.209 482.172,-166.709 492.172,-170.209 492.172,-163.209"/>
</g>
<!-- Node24&#45;&gt;Node25 -->
<g id="edge26" class="edge"><title>Node24&#45;&gt;Node25</title>
<path fill="none" stroke="midnightblue" d="M529.098,-43.7749C542.216,-42.5161 555.473,-41.244 567.943,-40.0474"/>
<polygon fill="midnightblue" stroke="midnightblue" points="528.729,-40.2942 519.109,-44.7335 529.398,-47.2622 528.729,-40.2942"/>
</g>
</g>
</svg>
        <g id="navigator" transform="translate(0 0)" fill="#404254">
                <rect fill="#f2f5e9" fill-opacity="0.5" stroke="#606060" stroke-width=".5" x="0" y="0" width="60" height="60"/>
                <use id="zoomplus" xlink:href="#zoomPlus" x="17" y="9" onmousedown="handleZoom(evt,'in')"/>
                <use id="zoomminus" xlink:href="#zoomMin" x="42" y="9" onmousedown="handleZoom(evt,'out')"/>
                <use id="reset" xlink:href="#resetDef" x="30" y="36" onmousedown="handleReset()"/>
                <g id="arrowUp" xlink:href="#dirArrow" transform="translate(30 24)" onmousedown="handlePan(0,-1)">
                  <use xlink:href="#rim" fill="#404040">
                        <set attributeName="fill" to="#808080" begin="arrowUp.mouseover" end="arrowUp.mouseout"/>
                  </use>
                  <path fill="none" stroke="white" stroke-width="1.5" d="M0,-3.0v7 M-2.5,-0.5L0,-3.0L2.5,-0.5"/>
                </g>
                <g id="arrowRight" xlink:href="#dirArrow" transform="rotate(90) translate(36 -43)" onmousedown="handlePan(1,0)">
                  <use xlink:href="#rim" fill="#404040">
                        <set attributeName="fill" to="#808080" begin="arrowRight.mouseover" end="arrowRight.mouseout"/>
                  </use>
                  <path fill="none" stroke="white" stroke-width="1.5" d="M0,-3.0v7 M-2.5,-0.5L0,-3.0L2.5,-0.5"/>
                </g>
                <g id="arrowDown" xlink:href="#dirArrow" transform="rotate(180) translate(-30 -48)" onmousedown="handlePan(0,1)">
                  <use xlink:href="#rim" fill="#404040">
                        <set attributeName="fill" to="#808080" begin="arrowDown.mouseover" end="arrowDown.mouseout"/>
                  </use>
                  <path fill="none" stroke="white" stroke-width="1.5" d="M0,-3.0v7 M-2.5,-0.5L0,-3.0L2.5,-0.5"/>
                </g>
                <g id="arrowLeft" xlink:href="#dirArrow" transform="rotate(270) translate(-36 17)" onmousedown="handlePan(-1,0)">
                  <use xlink:href="#rim" fill="#404040">
                        <set attributeName="fill" to="#808080" begin="arrowLeft.mouseover" end="arrowLeft.mouseout"/>
                  </use>
                  <path fill="none" stroke="white" stroke-width="1.5" d="M0,-3.0v7 M-2.5,-0.5L0,-3.0L2.5,-0.5"/>
                </g>
        </g>
        <svg viewBox="0 0 15 15" width="100%" height="30px" preserveAspectRatio="xMaxYMin meet">
         <g id="arrow_out" transform="scale(0.3 0.3)">
          <a xlink:href="class_ro_r_1_1_g_u_i_manager_a982bc848eb4330aa9e57a54bfc60d975_icgraph_org.svg" target="_base">
           <rect id="button" ry="5" rx="5" y="6" x="6" height="38" width="38"
                fill="#f2f5e9" fill-opacity="0.5" stroke="#606060" stroke-width="1.0"/>
           <path id="arrow"
             d="M 11.500037,31.436501 C 11.940474,20.09759 22.043105,11.32322 32.158766,21.979434 L 37.068811,17.246167 C 37.068811,17.246167 37.088388,32 37.088388,32 L 22.160133,31.978069 C 22.160133,31.978069 26.997745,27.140456 26.997745,27.140456 C 18.528582,18.264221 13.291696,25.230495 11.500037,31.436501 z"
             style="fill:#404040;"/>
          </a>
         </g>
        </svg>
</svg>
