<?xml version="1.0" encoding="UTF-8" standalone="no"?>
<!DOCTYPE svg PUBLIC "-//W3C//DTD SVG 1.1//EN"
 "http://www.w3.org/Graphics/SVG/1.1/DTD/svg11.dtd">
<!-- Generated by graphviz version 2.36.0 (20140111.2315)
 -->
<!-- Title: TerrainManager::initDashboards Pages: 1 -->
<svg width="1124pt" height="28pt"
 viewBox="0.00 0.00 1124.00 28.00" xmlns="http://www.w3.org/2000/svg" xmlns:xlink="http://www.w3.org/1999/xlink">
<g id="graph0" class="graph" transform="scale(1 1) rotate(0) translate(4 24)">
<title>TerrainManager::initDashboards</title>
<polygon fill="white" stroke="none" points="-4,4 -4,-24 1120,-24 1120,4 -4,4"/>
<!-- Node1 -->
<g id="node1" class="node"><title>Node1</title>
<polygon fill="#bfbfbf" stroke="black" points="0.5,-0.5 0.5,-19.5 155.5,-19.5 155.5,-0.5 0.5,-0.5"/>
<text text-anchor="middle" x="78" y="-7.5" font-family="Helvetica,sans-Serif" font-size="10.00">TerrainManager::initDashboards</text>
</g>
<!-- Node2 -->
<g id="node2" class="node"><title>Node2</title>
<g id="a_node2"><a xlink:href="class_terrain_manager.html#a13e84f666b59e55f3c67ee345bda5873" target="_top" xlink:title="TerrainManager::initSubSystems">
<polygon fill="white" stroke="black" points="192.5,-0.5 192.5,-19.5 351.5,-19.5 351.5,-0.5 192.5,-0.5"/>
<text text-anchor="middle" x="272" y="-7.5" font-family="Helvetica,sans-Serif" font-size="10.00">TerrainManager::initSubSystems</text>
</a>
</g>
</g>
<!-- Node1&#45;&gt;Node2 -->
<g id="edge1" class="edge"><title>Node1&#45;&gt;Node2</title>
<path fill="none" stroke="midnightblue" d="M165.928,-10C174.687,-10 183.547,-10 192.213,-10"/>
<polygon fill="midnightblue" stroke="midnightblue" points="165.711,-6.5001 155.711,-10 165.711,-13.5001 165.711,-6.5001"/>
</g>
<!-- Node3 -->
<g id="node3" class="node"><title>Node3</title>
<g id="a_node3"><a xlink:href="class_terrain_manager.html#a9a04c837bf2ea6528c465b27ca62f730" target="_top" xlink:title="TerrainManager::loadTerrain">
<polygon fill="white" stroke="black" points="388,-0.5 388,-19.5 526,-19.5 526,-0.5 388,-0.5"/>
<text text-anchor="middle" x="457" y="-7.5" font-family="Helvetica,sans-Serif" font-size="10.00">TerrainManager::loadTerrain</text>
</a>
</g>
</g>
<!-- Node2&#45;&gt;Node3 -->
<g id="edge2" class="edge"><title>Node2&#45;&gt;Node3</title>
<path fill="none" stroke="midnightblue" d="M361.858,-10C370.566,-10 379.305,-10 387.76,-10"/>
<polygon fill="midnightblue" stroke="midnightblue" points="361.671,-6.5001 351.671,-10 361.67,-13.5001 361.671,-6.5001"/>
</g>
<!-- Node4 -->
<g id="node4" class="node"><title>Node4</title>
<g id="a_node4"><a xlink:href="class_ro_r_frame_listener.html#a9757c059e840019a3e2659d5ef63ea02" target="_top" xlink:title="Reads GVar &#39;sim_terrain_pending&#39;. ">
<polygon fill="white" stroke="black" points="562,-0.5 562,-19.5 718,-19.5 718,-0.5 562,-0.5"/>
<text text-anchor="middle" x="640" y="-7.5" font-family="Helvetica,sans-Serif" font-size="10.00">RoRFrameListener::LoadTerrain</text>
</a>
</g>
</g>
<!-- Node3&#45;&gt;Node4 -->
<g id="edge3" class="edge"><title>Node3&#45;&gt;Node4</title>
<path fill="none" stroke="midnightblue" d="M536.362,-10C544.792,-10 553.366,-10 561.782,-10"/>
<polygon fill="midnightblue" stroke="midnightblue" points="536.17,-6.5001 526.17,-10 536.17,-13.5001 536.17,-6.5001"/>
</g>
<!-- Node5 -->
<g id="node5" class="node"><title>Node5</title>
<g id="a_node5"><a xlink:href="class_ro_r_frame_listener.html#aca3931d7a75f2ad4b9d36c4fcd03a3c9" target="_top" xlink:title="RoRFrameListener::SetupGameplayLoop">
<polygon fill="white" stroke="black" points="754,-0.5 754,-19.5 950,-19.5 950,-0.5 754,-0.5"/>
<text text-anchor="middle" x="852" y="-7.5" font-family="Helvetica,sans-Serif" font-size="10.00">RoRFrameListener::SetupGameplayLoop</text>
</a>
</g>
</g>
<!-- Node4&#45;&gt;Node5 -->
<g id="edge4" class="edge"><title>Node4&#45;&gt;Node5</title>
<path fill="none" stroke="midnightblue" d="M728.265,-10C736.755,-10 745.404,-10 753.982,-10"/>
<polygon fill="midnightblue" stroke="midnightblue" points="728.004,-6.5001 718.004,-10 728.004,-13.5001 728.004,-6.5001"/>
</g>
<!-- Node6 -->
<g id="node6" class="node"><title>Node6</title>
<g id="a_node6"><a xlink:href="main_8cpp.html#a0ddf1224851353fc92bfbff6f499fa97" target="_top" xlink:title="main">
<polygon fill="white" stroke="black" points="986,-0.5 986,-19.5 1024,-19.5 1024,-0.5 986,-0.5"/>
<text text-anchor="middle" x="1005" y="-7.5" font-family="Helvetica,sans-Serif" font-size="10.00">main</text>
</a>
</g>
</g>
<!-- Node5&#45;&gt;Node6 -->
<g id="edge5" class="edge"><title>Node5&#45;&gt;Node6</title>
<path fill="none" stroke="midnightblue" d="M960.519,-10C970.031,-10 978.712,-10 985.772,-10"/>
<polygon fill="midnightblue" stroke="midnightblue" points="960.338,-6.5001 950.338,-10 960.338,-13.5001 960.338,-6.5001"/>
</g>
<!-- Node7 -->
<g id="node7" class="node"><title>Node7</title>
<g id="a_node7"><a xlink:href="main_8cpp.html#a2922bc5d5c2d77a3020cfbf9df12aab0" target="_top" xlink:title="WinMain">
<polygon fill="white" stroke="black" points="1060.5,-0.5 1060.5,-19.5 1115.5,-19.5 1115.5,-0.5 1060.5,-0.5"/>
<text text-anchor="middle" x="1088" y="-7.5" font-family="Helvetica,sans-Serif" font-size="10.00">WinMain</text>
</a>
</g>
</g>
<!-- Node6&#45;&gt;Node7 -->
<g id="edge6" class="edge"><title>Node6&#45;&gt;Node7</title>
<path fill="none" stroke="midnightblue" d="M1034.51,-10C1042.93,-10 1052.11,-10 1060.4,-10"/>
<polygon fill="midnightblue" stroke="midnightblue" points="1034.38,-6.5001 1024.38,-10 1034.38,-13.5001 1034.38,-6.5001"/>
</g>
</g>
</svg>
