<?xml version="1.0" encoding="UTF-8" standalone="no"?>
<!DOCTYPE svg PUBLIC "-//W3C//DTD SVG 1.1//EN"
 "http://www.w3.org/Graphics/SVG/1.1/DTD/svg11.dtd">
<!-- Generated by graphviz version 2.36.0 (20140111.2315)
 -->
<!-- Title: RigDef::Parser::ProcessKeywordCab Pages: 1 -->
<svg width="1086pt" height="66pt"
 viewBox="0.00 0.00 1086.00 66.00" xmlns="http://www.w3.org/2000/svg" xmlns:xlink="http://www.w3.org/1999/xlink">
<g id="graph0" class="graph" transform="scale(1 1) rotate(0) translate(4 62)">
<title>RigDef::Parser::ProcessKeywordCab</title>
<polygon fill="white" stroke="none" points="-4,4 -4,-62 1082,-62 1082,4 -4,4"/>
<!-- Node1 -->
<g id="node1" class="node"><title>Node1</title>
<polygon fill="#bfbfbf" stroke="black" points="0,-19.5 0,-38.5 180,-38.5 180,-19.5 0,-19.5"/>
<text text-anchor="middle" x="90" y="-26.5" font-family="Helvetica,sans-Serif" font-size="10.00">RigDef::Parser::ProcessKeywordCab</text>
</g>
<!-- Node2 -->
<g id="node2" class="node"><title>Node2</title>
<g id="a_node2"><a xlink:href="class_rig_def_1_1_parser.html#a99a49d75798b1fa5dfbd00873455fbeb" target="_top" xlink:title="RigDef::Parser::ProcessCurrentLine">
<polygon fill="white" stroke="black" points="216,-19.5 216,-38.5 390,-38.5 390,-19.5 216,-19.5"/>
<text text-anchor="middle" x="303" y="-26.5" font-family="Helvetica,sans-Serif" font-size="10.00">RigDef::Parser::ProcessCurrentLine</text>
</a>
</g>
</g>
<!-- Node1&#45;&gt;Node2 -->
<g id="edge1" class="edge"><title>Node1&#45;&gt;Node2</title>
<path fill="none" stroke="midnightblue" d="M190.194,-29C198.761,-29 207.383,-29 215.834,-29"/>
<polygon fill="midnightblue" stroke="midnightblue" points="190.177,-25.5001 180.177,-29 190.177,-32.5001 190.177,-25.5001"/>
</g>
<!-- Node3 -->
<g id="node3" class="node"><title>Node3</title>
<g id="a_node3"><a xlink:href="class_rig_def_1_1_parser.html#ad1920ba0a8dc23ac5043b2c270ef5f47" target="_top" xlink:title="RigDef::Parser::ProcessRawLine">
<polygon fill="white" stroke="black" points="426,-19.5 426,-38.5 588,-38.5 588,-19.5 426,-19.5"/>
<text text-anchor="middle" x="507" y="-26.5" font-family="Helvetica,sans-Serif" font-size="10.00">RigDef::Parser::ProcessRawLine</text>
</a>
</g>
</g>
<!-- Node2&#45;&gt;Node3 -->
<g id="edge2" class="edge"><title>Node2&#45;&gt;Node3</title>
<path fill="none" stroke="midnightblue" d="M400.255,-29C408.806,-29 417.403,-29 425.799,-29"/>
<polygon fill="midnightblue" stroke="midnightblue" points="400.252,-25.5001 390.252,-29 400.252,-32.5001 400.252,-25.5001"/>
</g>
<!-- Node4 -->
<g id="node4" class="node"><title>Node4</title>
<g id="a_node4"><a xlink:href="class_rig_def_1_1_parser.html#ab08d0ba4ffb90b72cb351014bb7861bd" target="_top" xlink:title="RigDef::Parser::ProcessOgre\lStream">
<polygon fill="white" stroke="black" points="624.5,-14 624.5,-44 769.5,-44 769.5,-14 624.5,-14"/>
<text text-anchor="start" x="632.5" y="-32" font-family="Helvetica,sans-Serif" font-size="10.00">RigDef::Parser::ProcessOgre</text>
<text text-anchor="middle" x="697" y="-21" font-family="Helvetica,sans-Serif" font-size="10.00">Stream</text>
</a>
</g>
</g>
<!-- Node3&#45;&gt;Node4 -->
<g id="edge3" class="edge"><title>Node3&#45;&gt;Node4</title>
<path fill="none" stroke="midnightblue" d="M598.261,-29C607.034,-29 615.85,-29 624.403,-29"/>
<polygon fill="midnightblue" stroke="midnightblue" points="598.002,-25.5001 588.002,-29 598.001,-32.5001 598.002,-25.5001"/>
</g>
<!-- Node5 -->
<g id="node5" class="node"><title>Node5</title>
<g id="a_node5"><a xlink:href="class_beam.html#ab0cbc6c4e3822fc5786af2c8036f7efb" target="_top" xlink:title="Beam::LoadTruck">
<polygon fill="white" stroke="black" points="840,-38.5 840,-57.5 934,-57.5 934,-38.5 840,-38.5"/>
<text text-anchor="middle" x="887" y="-45.5" font-family="Helvetica,sans-Serif" font-size="10.00">Beam::LoadTruck</text>
</a>
</g>
</g>
<!-- Node4&#45;&gt;Node5 -->
<g id="edge4" class="edge"><title>Node4&#45;&gt;Node5</title>
<path fill="none" stroke="midnightblue" d="M779.649,-37.2517C800.264,-39.3352 821.686,-41.5002 839.855,-43.3364"/>
<polygon fill="midnightblue" stroke="midnightblue" points="779.912,-33.7606 769.611,-36.2373 779.208,-40.7252 779.912,-33.7606"/>
</g>
<!-- Node7 -->
<g id="node7" class="node"><title>Node7</title>
<g id="a_node7"><a xlink:href="class_cache_system.html#ad640fd28c3075eb6310d8d8f3475cefb" target="_top" xlink:title="CacheSystem::fillTruckDetailInfo">
<polygon fill="white" stroke="black" points="806.5,-0.5 806.5,-19.5 967.5,-19.5 967.5,-0.5 806.5,-0.5"/>
<text text-anchor="middle" x="887" y="-7.5" font-family="Helvetica,sans-Serif" font-size="10.00">CacheSystem::fillTruckDetailInfo</text>
</a>
</g>
</g>
<!-- Node4&#45;&gt;Node7 -->
<g id="edge6" class="edge"><title>Node4&#45;&gt;Node7</title>
<path fill="none" stroke="midnightblue" d="M779.584,-20.7548C788.49,-19.8547 797.547,-18.9394 806.429,-18.0418"/>
<polygon fill="midnightblue" stroke="midnightblue" points="779.208,-17.2748 769.611,-21.7627 779.912,-24.2394 779.208,-17.2748"/>
</g>
<!-- Node6 -->
<g id="node6" class="node"><title>Node6</title>
<g id="a_node6"><a xlink:href="class_beam.html#a0d55b25fa0d1623305f3ac51694cbd42" target="_top" xlink:title="Beam::Beam">
<polygon fill="white" stroke="black" points="1004,-38.5 1004,-57.5 1078,-57.5 1078,-38.5 1004,-38.5"/>
<text text-anchor="middle" x="1041" y="-45.5" font-family="Helvetica,sans-Serif" font-size="10.00">Beam::Beam</text>
</a>
</g>
</g>
<!-- Node5&#45;&gt;Node6 -->
<g id="edge5" class="edge"><title>Node5&#45;&gt;Node6</title>
<path fill="none" stroke="midnightblue" d="M944.22,-48C964.129,-48 985.985,-48 1003.79,-48"/>
<polygon fill="midnightblue" stroke="midnightblue" points="944.018,-44.5001 934.018,-48 944.017,-51.5001 944.018,-44.5001"/>
</g>
</g>
</svg>
