<?xml version="1.0" encoding="UTF-8" standalone="no"?>
<!DOCTYPE svg PUBLIC "-//W3C//DTD SVG 1.1//EN"
 "http://www.w3.org/Graphics/SVG/1.1/DTD/svg11.dtd">
<!-- Generated by graphviz version 2.36.0 (20140111.2315)
 -->
<!-- Title: TerrainGeometryManager::getHeightAtTerrainPosition Pages: 1 -->
<svg width="648pt" height="38pt"
 viewBox="0.00 0.00 648.00 38.00" xmlns="http://www.w3.org/2000/svg" xmlns:xlink="http://www.w3.org/1999/xlink">
<g id="graph0" class="graph" transform="scale(1 1) rotate(0) translate(4 34)">
<title>TerrainGeometryManager::getHeightAtTerrainPosition</title>
<polygon fill="white" stroke="none" points="-4,4 -4,-34 644,-34 644,4 -4,4"/>
<!-- Node1 -->
<g id="node1" class="node"><title>Node1</title>
<polygon fill="#bfbfbf" stroke="black" points="0,-0 0,-30 140,-30 140,-0 0,-0"/>
<text text-anchor="start" x="8" y="-18" font-family="Helvetica,sans-Serif" font-size="10.00">TerrainGeometryManager</text>
<text text-anchor="middle" x="70" y="-7" font-family="Helvetica,sans-Serif" font-size="10.00">::getHeightAtTerrainPosition</text>
</g>
<!-- Node2 -->
<g id="node2" class="node"><title>Node2</title>
<g id="a_node2"><a xlink:href="class_terrain_geometry_manager.html#a0b29da6ca8332db2e5ea1d261dc48cf2" target="_top" xlink:title="TerrainGeometryManager\l::getHeightAtWorldPosition">
<polygon fill="white" stroke="black" points="176.5,-0 176.5,-30 311.5,-30 311.5,-0 176.5,-0"/>
<text text-anchor="start" x="184.5" y="-18" font-family="Helvetica,sans-Serif" font-size="10.00">TerrainGeometryManager</text>
<text text-anchor="middle" x="244" y="-7" font-family="Helvetica,sans-Serif" font-size="10.00">::getHeightAtWorldPosition</text>
</a>
</g>
</g>
<!-- Node1&#45;&gt;Node2 -->
<g id="edge1" class="edge"><title>Node1&#45;&gt;Node2</title>
<path fill="none" stroke="midnightblue" d="M150.536,-15C159.169,-15 167.889,-15 176.346,-15"/>
<polygon fill="midnightblue" stroke="midnightblue" points="150.463,-11.5001 140.463,-15 150.463,-18.5001 150.463,-11.5001"/>
</g>
<!-- Node3 -->
<g id="node3" class="node"><title>Node3</title>
<g id="a_node3"><a xlink:href="class_terrain_geometry_manager.html#a57cfde0ce76cbb55021a6838a6e69987" target="_top" xlink:title="TerrainGeometryManager\l::getHeightAt">
<polygon fill="white" stroke="black" points="348.5,-0 348.5,-30 475.5,-30 475.5,-0 348.5,-0"/>
<text text-anchor="start" x="356.5" y="-18" font-family="Helvetica,sans-Serif" font-size="10.00">TerrainGeometryManager</text>
<text text-anchor="middle" x="412" y="-7" font-family="Helvetica,sans-Serif" font-size="10.00">::getHeightAt</text>
</a>
</g>
</g>
<!-- Node2&#45;&gt;Node3 -->
<g id="edge2" class="edge"><title>Node2&#45;&gt;Node3</title>
<path fill="none" stroke="midnightblue" d="M321.639,-15C330.621,-15 339.704,-15 348.462,-15"/>
<polygon fill="midnightblue" stroke="midnightblue" points="321.562,-11.5001 311.562,-15 321.562,-18.5001 321.562,-11.5001"/>
</g>
<!-- Node4 -->
<g id="node4" class="node"><title>Node4</title>
<g id="a_node4"><a xlink:href="class_terrain_geometry_manager.html#a70da6461cb8d86d360f970b2677716da" target="_top" xlink:title="TerrainGeometryManager\l::getNormalAt">
<polygon fill="white" stroke="black" points="512.5,-0 512.5,-30 639.5,-30 639.5,-0 512.5,-0"/>
<text text-anchor="start" x="520.5" y="-18" font-family="Helvetica,sans-Serif" font-size="10.00">TerrainGeometryManager</text>
<text text-anchor="middle" x="576" y="-7" font-family="Helvetica,sans-Serif" font-size="10.00">::getNormalAt</text>
</a>
</g>
</g>
<!-- Node3&#45;&gt;Node4 -->
<g id="edge3" class="edge"><title>Node3&#45;&gt;Node4</title>
<path fill="none" stroke="midnightblue" d="M485.885,-15C494.69,-15 503.624,-15 512.266,-15"/>
<polygon fill="midnightblue" stroke="midnightblue" points="485.633,-11.5001 475.633,-15 485.633,-18.5001 485.633,-11.5001"/>
</g>
</g>
</svg>
