<?xml version="1.0" encoding="UTF-8" standalone="no"?>
<!DOCTYPE svg PUBLIC "-//W3C//DTD SVG 1.1//EN"
 "http://www.w3.org/Graphics/SVG/1.1/DTD/svg11.dtd">
<!-- Generated by graphviz version 2.36.0 (20140111.2315)
 -->
<!-- Title: HDRListener Pages: 1 -->
<svg width="277pt" height="96pt"
 viewBox="0.00 0.00 277.00 96.00" xmlns="http://www.w3.org/2000/svg" xmlns:xlink="http://www.w3.org/1999/xlink">
<g id="graph0" class="graph" transform="scale(1 1) rotate(0) translate(4 92)">
<title>HDRListener</title>
<polygon fill="white" stroke="none" points="-4,4 -4,-92 273,-92 273,4 -4,4"/>
<!-- Node1 -->
<g id="node1" class="node"><title>Node1</title>
<polygon fill="#bfbfbf" stroke="black" points="100,-0.5 100,-19.5 174,-19.5 174,-0.5 100,-0.5"/>
<text text-anchor="middle" x="137" y="-7.5" font-family="Helvetica,sans-Serif" font-size="10.00">HDRListener</text>
</g>
<!-- Node2 -->
<g id="node2" class="node"><title>Node2</title>
<polygon fill="white" stroke="#bfbfbf" points="-0.5,-57 -0.5,-87 130.5,-87 130.5,-57 -0.5,-57"/>
<text text-anchor="start" x="7.5" y="-75" font-family="Helvetica,sans-Serif" font-size="10.00">Ogre::CompositorInstance</text>
<text text-anchor="middle" x="65" y="-64" font-family="Helvetica,sans-Serif" font-size="10.00">::Listener</text>
</g>
<!-- Node2&#45;&gt;Node1 -->
<g id="edge1" class="edge"><title>Node2&#45;&gt;Node1</title>
<path fill="none" stroke="midnightblue" d="M89.9358,-50.2202C102.46,-39.7831 116.964,-27.6968 126.523,-19.7305"/>
<polygon fill="midnightblue" stroke="midnightblue" points="87.5046,-47.6902 82.063,-56.7808 91.9859,-53.0677 87.5046,-47.6902"/>
</g>
<!-- Node3 -->
<g id="node3" class="node"><title>Node3</title>
<g id="a_node3"><a xlink:href="class_zeroed_memory_allocator.html" target="_top" xlink:title="ZeroedMemoryAllocator">
<polygon fill="white" stroke="black" points="149,-62.5 149,-81.5 269,-81.5 269,-62.5 149,-62.5"/>
<text text-anchor="middle" x="209" y="-69.5" font-family="Helvetica,sans-Serif" font-size="10.00">ZeroedMemoryAllocator</text>
</a>
</g>
</g>
<!-- Node3&#45;&gt;Node1 -->
<g id="edge2" class="edge"><title>Node3&#45;&gt;Node1</title>
<path fill="none" stroke="midnightblue" d="M190.816,-55.8464C177.045,-44.3706 158.623,-29.0195 147.297,-19.5806"/>
<polygon fill="midnightblue" stroke="midnightblue" points="188.761,-58.6904 198.684,-62.4035 193.243,-53.3128 188.761,-58.6904"/>
</g>
</g>
</svg>
