<?xml version="1.0" encoding="UTF-8" standalone="no"?>
<!DOCTYPE svg PUBLIC "-//W3C//DTD SVG 1.1//EN"
 "http://www.w3.org/Graphics/SVG/1.1/DTD/svg11.dtd">
<!-- Generated by graphviz version 2.36.0 (20140111.2315)
 -->
<!-- Title: RigDef::Node::Ref::IsValidAnyState Pages: 1 -->
<!--zoomable 311 -->
<svg id="main" version="1.1" xmlns="http://www.w3.org/2000/svg" xmlns:xlink="http://www.w3.org/1999/xlink" xml:space="preserve" onload="init(evt)">
<style type="text/css"><![CDATA[
.edge:hover path { stroke: red; }
.edge:hover polygon { stroke: red; fill: red; }
]]></style>
<script type="text/javascript"><![CDATA[
var edges = document.getElementsByTagName('g');
if (edges && edges.length) {
  for (var i=0;i<edges.length;i++) {
    if (edges[i].id.substr(0,4)=='edge') {
      edges[i].setAttribute('class','edge');
    }
  }
}
]]></script>
        <defs>
                <circle id="rim" cx="0" cy="0" r="7"/>
                <circle id="rim2" cx="0" cy="0" r="3.5"/>
                <g id="zoomPlus">
                        <use xlink:href="#rim" fill="#404040">
                                <set attributeName="fill" to="#808080" begin="zoomplus.mouseover" end="zoomplus.mouseout"/>
                        </use>
                        <path d="M-4,0h8M0,-4v8" fill="none" stroke="white" stroke-width="1.5" pointer-events="none"/>
                </g>
                <g id="zoomMin">
                        <use xlink:href="#rim" fill="#404040">
                                <set attributeName="fill" to="#808080" begin="zoomminus.mouseover" end="zoomminus.mouseout"/>
                        </use>
                        <path d="M-4,0h8" fill="none" stroke="white" stroke-width="1.5" pointer-events="none"/>
                </g>
                <g id="dirArrow">
                        <path fill="none" stroke="white" stroke-width="1.5" d="M0,-3.0v7 M-2.5,-0.5L0,-3.0L2.5,-0.5"/>
                </g>
               <g id="resetDef">
                       <use xlink:href="#rim2" fill="#404040">
                               <set attributeName="fill" to="#808080" begin="reset.mouseover" end="reset.mouseout"/>
                       </use>
               </g>
        </defs>

<script type="text/javascript">
var viewWidth = 1192;
var viewHeight = 311;
var sectionId = 'dynsection-2';
</script>
<script xlink:href="svgpan.js"/>
<svg id="graph" class="graph">
<g id="viewport">
<title>RigDef::Node::Ref::IsValidAnyState</title>
<polygon fill="white" stroke="none" points="-4,4 -4,-307 1188,-307 1188,4 -4,4"/>
<!-- Node1 -->
<g id="node1" class="node"><title>Node1</title>
<polygon fill="#bfbfbf" stroke="black" points="0,-147 0,-177 104,-177 104,-147 0,-147"/>
<text text-anchor="start" x="8" y="-165" font-family="Helvetica,sans-Serif" font-size="10.00">RigDef::Node::Ref::</text>
<text text-anchor="middle" x="52" y="-154" font-family="Helvetica,sans-Serif" font-size="10.00">IsValidAnyState</text>
</g>
<!-- Node2 -->
<g id="node2" class="node"><title>Node2</title>
<g id="a_node2"><a xlink:href="class_rig_def_1_1_parser.html#a2de971b4fb695506cedfc335d3c99203" target="_top" xlink:title="RigDef::Parser::ParseWheel2">
<polygon fill="white" stroke="black" points="140,-283.5 140,-302.5 286,-302.5 286,-283.5 140,-283.5"/>
<text text-anchor="middle" x="213" y="-290.5" font-family="Helvetica,sans-Serif" font-size="10.00">RigDef::Parser::ParseWheel2</text>
</a>
</g>
</g>
<!-- Node1&#45;&gt;Node2 -->
<g id="edge1" class="edge"><title>Node1&#45;&gt;Node2</title>
<path fill="none" stroke="midnightblue" d="M65.5705,-186.349C80.0719,-212.008 106.308,-251.724 140,-274 145.823,-277.85 152.394,-280.922 159.136,-283.371"/>
<polygon fill="midnightblue" stroke="midnightblue" points="68.4704,-184.358 60.5962,-177.269 62.3313,-187.721 68.4704,-184.358"/>
</g>
<!-- Node9 -->
<g id="node9" class="node"><title>Node9</title>
<g id="a_node9"><a xlink:href="class_rig_def_1_1_parser.html#ab3a94bdd7e33ec265315b873cebdce7c" target="_top" xlink:title="RigDef::Parser::ParseWheel">
<polygon fill="white" stroke="black" points="142.5,-245.5 142.5,-264.5 283.5,-264.5 283.5,-245.5 142.5,-245.5"/>
<text text-anchor="middle" x="213" y="-252.5" font-family="Helvetica,sans-Serif" font-size="10.00">RigDef::Parser::ParseWheel</text>
</a>
</g>
</g>
<!-- Node1&#45;&gt;Node9 -->
<g id="edge8" class="edge"><title>Node1&#45;&gt;Node9</title>
<path fill="none" stroke="midnightblue" d="M74.4243,-184.554C90.9442,-200.73 115.11,-221.898 140,-235 148.151,-239.29 157.319,-242.739 166.312,-245.484"/>
<polygon fill="midnightblue" stroke="midnightblue" points="76.4996,-181.678 66.959,-177.071 71.544,-186.622 76.4996,-181.678"/>
</g>
<!-- Node10 -->
<g id="node10" class="node"><title>Node10</title>
<g id="a_node10"><a xlink:href="class_rig_def_1_1_parser.html#a03587a8b94beca0dcf706ec936f77bab" target="_top" xlink:title="RigDef::Parser::ParseMesh\lWheelUnified">
<polygon fill="white" stroke="black" points="144.5,-196 144.5,-226 281.5,-226 281.5,-196 144.5,-196"/>
<text text-anchor="start" x="152.5" y="-214" font-family="Helvetica,sans-Serif" font-size="10.00">RigDef::Parser::ParseMesh</text>
<text text-anchor="middle" x="213" y="-203" font-family="Helvetica,sans-Serif" font-size="10.00">WheelUnified</text>
</a>
</g>
</g>
<!-- Node1&#45;&gt;Node10 -->
<g id="edge10" class="edge"><title>Node1&#45;&gt;Node10</title>
<path fill="none" stroke="midnightblue" d="M111.775,-180.113C128.678,-185.322 146.926,-190.946 163.159,-195.948"/>
<polygon fill="midnightblue" stroke="midnightblue" points="112.59,-176.702 102.003,-177.101 110.528,-183.391 112.59,-176.702"/>
</g>
<!-- Node11 -->
<g id="node11" class="node"><title>Node11</title>
<g id="a_node11"><a xlink:href="class_rig_def_1_1_parser.html#a6bf9cf8041b531158f9a8319d696b2cc" target="_top" xlink:title="RigDef::Parser::ParseFlex\lBodyWheel">
<polygon fill="white" stroke="black" points="147,-147 147,-177 279,-177 279,-147 147,-147"/>
<text text-anchor="start" x="155" y="-165" font-family="Helvetica,sans-Serif" font-size="10.00">RigDef::Parser::ParseFlex</text>
<text text-anchor="middle" x="213" y="-154" font-family="Helvetica,sans-Serif" font-size="10.00">BodyWheel</text>
</a>
</g>
</g>
<!-- Node1&#45;&gt;Node11 -->
<g id="edge12" class="edge"><title>Node1&#45;&gt;Node11</title>
<path fill="none" stroke="midnightblue" d="M114.275,-162C124.977,-162 136.145,-162 146.945,-162"/>
<polygon fill="midnightblue" stroke="midnightblue" points="114.184,-158.5 104.184,-162 114.184,-165.5 114.184,-158.5"/>
</g>
<!-- Node12 -->
<g id="node12" class="node"><title>Node12</title>
<g id="a_node12"><a xlink:href="class_rig_def_1_1_sequential_importer.html#a6029705326e0cfa1d42e06ff8a3937de" target="_top" xlink:title="RigDef::SequentialImporter\l::ResolveFlexbodyForset">
<polygon fill="white" stroke="black" points="145.5,-98 145.5,-128 280.5,-128 280.5,-98 145.5,-98"/>
<text text-anchor="start" x="153.5" y="-116" font-family="Helvetica,sans-Serif" font-size="10.00">RigDef::SequentialImporter</text>
<text text-anchor="middle" x="213" y="-105" font-family="Helvetica,sans-Serif" font-size="10.00">::ResolveFlexbodyForset</text>
</a>
</g>
</g>
<!-- Node1&#45;&gt;Node12 -->
<g id="edge14" class="edge"><title>Node1&#45;&gt;Node12</title>
<path fill="none" stroke="midnightblue" d="M111.775,-143.887C128.678,-138.678 146.926,-133.054 163.159,-128.052"/>
<polygon fill="midnightblue" stroke="midnightblue" points="110.528,-140.609 102.003,-146.899 112.59,-147.298 110.528,-140.609"/>
</g>
<!-- Node13 -->
<g id="node13" class="node"><title>Node13</title>
<g id="a_node13"><a xlink:href="class_rig_def_1_1_serializer.html#ac89c3ff8f73e0dbfa613cfe377034e5f" target="_top" xlink:title="RigDef::Serializer\l::ProcessAirbrakes">
<polygon fill="white" stroke="black" points="163,-49 163,-79 263,-79 263,-49 163,-49"/>
<text text-anchor="start" x="171" y="-67" font-family="Helvetica,sans-Serif" font-size="10.00">RigDef::Serializer</text>
<text text-anchor="middle" x="213" y="-56" font-family="Helvetica,sans-Serif" font-size="10.00">::ProcessAirbrakes</text>
</a>
</g>
</g>
<!-- Node1&#45;&gt;Node13 -->
<g id="edge15" class="edge"><title>Node1&#45;&gt;Node13</title>
<path fill="none" stroke="midnightblue" d="M74.9769,-139.617C91.6138,-123.707 115.684,-102.798 140,-89 147.135,-84.951 155.037,-81.3969 162.916,-78.3354"/>
<polygon fill="midnightblue" stroke="midnightblue" points="72.1516,-137.483 67.4383,-146.972 77.0401,-142.494 72.1516,-137.483"/>
</g>
<!-- Node15 -->
<g id="node15" class="node"><title>Node15</title>
<g id="a_node15"><a xlink:href="class_rig_def_1_1_serializer.html#a24d6a50dd7fc7a6ad0593eaf5da878c9" target="_top" xlink:title="RigDef::Serializer\l::ProcessVideocamera">
<polygon fill="white" stroke="black" points="155,-0 155,-30 271,-30 271,-0 155,-0"/>
<text text-anchor="start" x="163" y="-18" font-family="Helvetica,sans-Serif" font-size="10.00">RigDef::Serializer</text>
<text text-anchor="middle" x="213" y="-7" font-family="Helvetica,sans-Serif" font-size="10.00">::ProcessVideocamera</text>
</a>
</g>
</g>
<!-- Node1&#45;&gt;Node15 -->
<g id="edge17" class="edge"><title>Node1&#45;&gt;Node15</title>
<path fill="none" stroke="midnightblue" d="M64.2216,-137.758C78.219,-110.067 104.678,-65.2146 140,-39 144.655,-35.5449 149.838,-32.5685 155.228,-30.0083"/>
<polygon fill="midnightblue" stroke="midnightblue" points="61.0586,-136.259 59.7961,-146.778 67.343,-139.342 61.0586,-136.259"/>
</g>
<!-- Node3 -->
<g id="node3" class="node"><title>Node3</title>
<g id="a_node3"><a xlink:href="class_rig_def_1_1_parser.html#a99a49d75798b1fa5dfbd00873455fbeb" target="_top" xlink:title="RigDef::Parser::ProcessCurrentLine">
<polygon fill="white" stroke="black" points="322,-223.5 322,-242.5 496,-242.5 496,-223.5 322,-223.5"/>
<text text-anchor="middle" x="409" y="-230.5" font-family="Helvetica,sans-Serif" font-size="10.00">RigDef::Parser::ProcessCurrentLine</text>
</a>
</g>
</g>
<!-- Node2&#45;&gt;Node3 -->
<g id="edge2" class="edge"><title>Node2&#45;&gt;Node3</title>
<path fill="none" stroke="midnightblue" d="M261.931,-280.826C269.991,-278.643 278.252,-276.321 286,-274 318.963,-264.124 356.416,-251.293 381.029,-242.636"/>
<polygon fill="midnightblue" stroke="midnightblue" points="261.005,-277.45 252.246,-283.41 262.81,-284.214 261.005,-277.45"/>
</g>
<!-- Node4 -->
<g id="node4" class="node"><title>Node4</title>
<g id="a_node4"><a xlink:href="class_rig_def_1_1_parser.html#ad1920ba0a8dc23ac5043b2c270ef5f47" target="_top" xlink:title="RigDef::Parser::ProcessRawLine">
<polygon fill="white" stroke="black" points="532,-223.5 532,-242.5 694,-242.5 694,-223.5 532,-223.5"/>
<text text-anchor="middle" x="613" y="-230.5" font-family="Helvetica,sans-Serif" font-size="10.00">RigDef::Parser::ProcessRawLine</text>
</a>
</g>
</g>
<!-- Node3&#45;&gt;Node4 -->
<g id="edge3" class="edge"><title>Node3&#45;&gt;Node4</title>
<path fill="none" stroke="midnightblue" d="M506.255,-233C514.806,-233 523.403,-233 531.799,-233"/>
<polygon fill="midnightblue" stroke="midnightblue" points="506.252,-229.5 496.252,-233 506.252,-236.5 506.252,-229.5"/>
</g>
<!-- Node5 -->
<g id="node5" class="node"><title>Node5</title>
<g id="a_node5"><a xlink:href="class_rig_def_1_1_parser.html#ab08d0ba4ffb90b72cb351014bb7861bd" target="_top" xlink:title="RigDef::Parser::ProcessOgre\lStream">
<polygon fill="white" stroke="black" points="730.5,-218 730.5,-248 875.5,-248 875.5,-218 730.5,-218"/>
<text text-anchor="start" x="738.5" y="-236" font-family="Helvetica,sans-Serif" font-size="10.00">RigDef::Parser::ProcessOgre</text>
<text text-anchor="middle" x="803" y="-225" font-family="Helvetica,sans-Serif" font-size="10.00">Stream</text>
</a>
</g>
</g>
<!-- Node4&#45;&gt;Node5 -->
<g id="edge4" class="edge"><title>Node4&#45;&gt;Node5</title>
<path fill="none" stroke="midnightblue" d="M704.261,-233C713.034,-233 721.85,-233 730.403,-233"/>
<polygon fill="midnightblue" stroke="midnightblue" points="704.002,-229.5 694.002,-233 704.001,-236.5 704.002,-229.5"/>
</g>
<!-- Node6 -->
<g id="node6" class="node"><title>Node6</title>
<g id="a_node6"><a xlink:href="class_beam.html#ab0cbc6c4e3822fc5786af2c8036f7efb" target="_top" xlink:title="Beam::LoadTruck">
<polygon fill="white" stroke="black" points="946,-242.5 946,-261.5 1040,-261.5 1040,-242.5 946,-242.5"/>
<text text-anchor="middle" x="993" y="-249.5" font-family="Helvetica,sans-Serif" font-size="10.00">Beam::LoadTruck</text>
</a>
</g>
</g>
<!-- Node5&#45;&gt;Node6 -->
<g id="edge5" class="edge"><title>Node5&#45;&gt;Node6</title>
<path fill="none" stroke="midnightblue" d="M885.649,-241.252C906.264,-243.335 927.686,-245.5 945.855,-247.336"/>
<polygon fill="midnightblue" stroke="midnightblue" points="885.912,-237.761 875.611,-240.237 885.208,-244.725 885.912,-237.761"/>
</g>
<!-- Node8 -->
<g id="node8" class="node"><title>Node8</title>
<g id="a_node8"><a xlink:href="class_cache_system.html#ad640fd28c3075eb6310d8d8f3475cefb" target="_top" xlink:title="CacheSystem::fillTruckDetailInfo">
<polygon fill="white" stroke="black" points="912.5,-204.5 912.5,-223.5 1073.5,-223.5 1073.5,-204.5 912.5,-204.5"/>
<text text-anchor="middle" x="993" y="-211.5" font-family="Helvetica,sans-Serif" font-size="10.00">CacheSystem::fillTruckDetailInfo</text>
</a>
</g>
</g>
<!-- Node5&#45;&gt;Node8 -->
<g id="edge7" class="edge"><title>Node5&#45;&gt;Node8</title>
<path fill="none" stroke="midnightblue" d="M885.584,-224.755C894.49,-223.855 903.547,-222.939 912.429,-222.042"/>
<polygon fill="midnightblue" stroke="midnightblue" points="885.208,-221.275 875.611,-225.763 885.912,-228.239 885.208,-221.275"/>
</g>
<!-- Node7 -->
<g id="node7" class="node"><title>Node7</title>
<g id="a_node7"><a xlink:href="class_beam.html#a0d55b25fa0d1623305f3ac51694cbd42" target="_top" xlink:title="Beam::Beam">
<polygon fill="white" stroke="black" points="1110,-242.5 1110,-261.5 1184,-261.5 1184,-242.5 1110,-242.5"/>
<text text-anchor="middle" x="1147" y="-249.5" font-family="Helvetica,sans-Serif" font-size="10.00">Beam::Beam</text>
</a>
</g>
</g>
<!-- Node6&#45;&gt;Node7 -->
<g id="edge6" class="edge"><title>Node6&#45;&gt;Node7</title>
<path fill="none" stroke="midnightblue" d="M1050.22,-252C1070.13,-252 1091.98,-252 1109.79,-252"/>
<polygon fill="midnightblue" stroke="midnightblue" points="1050.02,-248.5 1040.02,-252 1050.02,-255.5 1050.02,-248.5"/>
</g>
<!-- Node9&#45;&gt;Node3 -->
<g id="edge9" class="edge"><title>Node9&#45;&gt;Node3</title>
<path fill="none" stroke="midnightblue" d="M293.971,-245.931C303.867,-244.809 314.007,-243.659 323.962,-242.53"/>
<polygon fill="midnightblue" stroke="midnightblue" points="293.306,-242.484 283.764,-247.089 294.095,-249.439 293.306,-242.484"/>
</g>
<!-- Node10&#45;&gt;Node3 -->
<g id="edge11" class="edge"><title>Node10&#45;&gt;Node3</title>
<path fill="none" stroke="midnightblue" d="M291.645,-219.805C302.264,-221.009 313.207,-222.25 323.934,-223.467"/>
<polygon fill="midnightblue" stroke="midnightblue" points="291.91,-216.313 281.579,-218.664 291.121,-223.268 291.91,-216.313"/>
</g>
<!-- Node11&#45;&gt;Node3 -->
<g id="edge13" class="edge"><title>Node11&#45;&gt;Node3</title>
<path fill="none" stroke="midnightblue" d="M267.565,-180.423C273.789,-182.616 280.04,-184.842 286,-187 319.842,-199.253 358.708,-214.03 383.303,-223.47"/>
<polygon fill="midnightblue" stroke="midnightblue" points="268.447,-177.024 257.852,-177.02 266.131,-183.63 268.447,-177.024"/>
</g>
<!-- Node14 -->
<g id="node14" class="node"><title>Node14</title>
<g id="a_node14"><a xlink:href="class_rig_def_1_1_serializer.html#a0d25ba7124bac77109b3251d0d5014ec" target="_top" xlink:title="RigDef::Serializer\l::Serialize">
<polygon fill="white" stroke="black" points="362,-25 362,-55 456,-55 456,-25 362,-25"/>
<text text-anchor="start" x="370" y="-43" font-family="Helvetica,sans-Serif" font-size="10.00">RigDef::Serializer</text>
<text text-anchor="middle" x="409" y="-32" font-family="Helvetica,sans-Serif" font-size="10.00">::Serialize</text>
</a>
</g>
</g>
<!-- Node13&#45;&gt;Node14 -->
<g id="edge16" class="edge"><title>Node13&#45;&gt;Node14</title>
<path fill="none" stroke="midnightblue" d="M273.426,-56.6484C301.853,-53.1315 335.374,-48.9847 361.849,-45.7094"/>
<polygon fill="midnightblue" stroke="midnightblue" points="272.7,-53.2114 263.205,-57.9128 273.559,-60.1584 272.7,-53.2114"/>
</g>
<!-- Node15&#45;&gt;Node14 -->
<g id="edge18" class="edge"><title>Node15&#45;&gt;Node14</title>
<path fill="none" stroke="midnightblue" d="M281.196,-23.6593C307.866,-27.0961 337.865,-30.9619 361.986,-34.0704"/>
<polygon fill="midnightblue" stroke="midnightblue" points="281.522,-20.1725 271.157,-22.3656 280.628,-27.1151 281.522,-20.1725"/>
</g>
</g>
</svg>
        <g id="navigator" transform="translate(0 0)" fill="#404254">
                <rect fill="#f2f5e9" fill-opacity="0.5" stroke="#606060" stroke-width=".5" x="0" y="0" width="60" height="60"/>
                <use id="zoomplus" xlink:href="#zoomPlus" x="17" y="9" onmousedown="handleZoom(evt,'in')"/>
                <use id="zoomminus" xlink:href="#zoomMin" x="42" y="9" onmousedown="handleZoom(evt,'out')"/>
                <use id="reset" xlink:href="#resetDef" x="30" y="36" onmousedown="handleReset()"/>
                <g id="arrowUp" xlink:href="#dirArrow" transform="translate(30 24)" onmousedown="handlePan(0,-1)">
                  <use xlink:href="#rim" fill="#404040">
                        <set attributeName="fill" to="#808080" begin="arrowUp.mouseover" end="arrowUp.mouseout"/>
                  </use>
                  <path fill="none" stroke="white" stroke-width="1.5" d="M0,-3.0v7 M-2.5,-0.5L0,-3.0L2.5,-0.5"/>
                </g>
                <g id="arrowRight" xlink:href="#dirArrow" transform="rotate(90) translate(36 -43)" onmousedown="handlePan(1,0)">
                  <use xlink:href="#rim" fill="#404040">
                        <set attributeName="fill" to="#808080" begin="arrowRight.mouseover" end="arrowRight.mouseout"/>
                  </use>
                  <path fill="none" stroke="white" stroke-width="1.5" d="M0,-3.0v7 M-2.5,-0.5L0,-3.0L2.5,-0.5"/>
                </g>
                <g id="arrowDown" xlink:href="#dirArrow" transform="rotate(180) translate(-30 -48)" onmousedown="handlePan(0,1)">
                  <use xlink:href="#rim" fill="#404040">
                        <set attributeName="fill" to="#808080" begin="arrowDown.mouseover" end="arrowDown.mouseout"/>
                  </use>
                  <path fill="none" stroke="white" stroke-width="1.5" d="M0,-3.0v7 M-2.5,-0.5L0,-3.0L2.5,-0.5"/>
                </g>
                <g id="arrowLeft" xlink:href="#dirArrow" transform="rotate(270) translate(-36 17)" onmousedown="handlePan(-1,0)">
                  <use xlink:href="#rim" fill="#404040">
                        <set attributeName="fill" to="#808080" begin="arrowLeft.mouseover" end="arrowLeft.mouseout"/>
                  </use>
                  <path fill="none" stroke="white" stroke-width="1.5" d="M0,-3.0v7 M-2.5,-0.5L0,-3.0L2.5,-0.5"/>
                </g>
        </g>
        <svg viewBox="0 0 15 15" width="100%" height="30px" preserveAspectRatio="xMaxYMin meet">
         <g id="arrow_out" transform="scale(0.3 0.3)">
          <a xlink:href="class_rig_def_1_1_node_1_1_ref_a5912183c0dfa018a32190a5bc89b53c8_icgraph_org.svg" target="_base">
           <rect id="button" ry="5" rx="5" y="6" x="6" height="38" width="38"
                fill="#f2f5e9" fill-opacity="0.5" stroke="#606060" stroke-width="1.0"/>
           <path id="arrow"
             d="M 11.500037,31.436501 C 11.940474,20.09759 22.043105,11.32322 32.158766,21.979434 L 37.068811,17.246167 C 37.068811,17.246167 37.088388,32 37.088388,32 L 22.160133,31.978069 C 22.160133,31.978069 26.997745,27.140456 26.997745,27.140456 C 18.528582,18.264221 13.291696,25.230495 11.500037,31.436501 z"
             style="fill:#404040;"/>
          </a>
         </g>
        </svg>
</svg>
