<?xml version="1.0" encoding="UTF-8" standalone="no"?>
<!DOCTYPE svg PUBLIC "-//W3C//DTD SVG 1.1//EN"
 "http://www.w3.org/Graphics/SVG/1.1/DTD/svg11.dtd">
<!-- Generated by graphviz version 2.36.0 (20140111.2315)
 -->
<!-- Title: RigDef::Validator::CheckSectionSubmeshGroundmodel Pages: 1 -->
<svg width="320pt" height="38pt"
 viewBox="0.00 0.00 320.00 38.00" xmlns="http://www.w3.org/2000/svg" xmlns:xlink="http://www.w3.org/1999/xlink">
<g id="graph0" class="graph" transform="scale(1 1) rotate(0) translate(4 34)">
<title>RigDef::Validator::CheckSectionSubmeshGroundmodel</title>
<polygon fill="white" stroke="none" points="-4,4 -4,-34 316,-34 316,4 -4,4"/>
<!-- Node1 -->
<g id="node1" class="node"><title>Node1</title>
<polygon fill="#bfbfbf" stroke="black" points="0.5,-0 0.5,-30 177.5,-30 177.5,-0 0.5,-0"/>
<text text-anchor="start" x="8.5" y="-18" font-family="Helvetica,sans-Serif" font-size="10.00">RigDef::Validator::</text>
<text text-anchor="middle" x="89" y="-7" font-family="Helvetica,sans-Serif" font-size="10.00">CheckSectionSubmeshGroundmodel</text>
</g>
<!-- Node2 -->
<g id="node2" class="node"><title>Node2</title>
<g id="a_node2"><a xlink:href="class_rig_def_1_1_validator.html#aa3829c16295971903af9f510063d9101" target="_top" xlink:title="RigDef::Validator::\lAddMessage">
<polygon fill="white" stroke="black" points="214,-0 214,-30 312,-30 312,-0 214,-0"/>
<text text-anchor="start" x="222" y="-18" font-family="Helvetica,sans-Serif" font-size="10.00">RigDef::Validator::</text>
<text text-anchor="middle" x="263" y="-7" font-family="Helvetica,sans-Serif" font-size="10.00">AddMessage</text>
</a>
</g>
</g>
<!-- Node1&#45;&gt;Node2 -->
<g id="edge1" class="edge"><title>Node1&#45;&gt;Node2</title>
<path fill="none" stroke="midnightblue" d="M177.512,-15C186.362,-15 195.19,-15 203.622,-15"/>
<polygon fill="midnightblue" stroke="midnightblue" points="203.686,-18.5001 213.686,-15 203.686,-11.5001 203.686,-18.5001"/>
</g>
</g>
</svg>
