<?xml version="1.0" encoding="UTF-8" standalone="no"?>
<!DOCTYPE svg PUBLIC "-//W3C//DTD SVG 1.1//EN"
 "http://www.w3.org/Graphics/SVG/1.1/DTD/svg11.dtd">
<!-- Generated by graphviz version 2.36.0 (20140111.2315)
 -->
<!-- Title: Hydrax::Module::Module::getName Pages: 1 -->
<!--zoomable 325 -->
<svg id="main" version="1.1" xmlns="http://www.w3.org/2000/svg" xmlns:xlink="http://www.w3.org/1999/xlink" xml:space="preserve" onload="init(evt)">
<style type="text/css"><![CDATA[
.edge:hover path { stroke: red; }
.edge:hover polygon { stroke: red; fill: red; }
]]></style>
<script type="text/javascript"><![CDATA[
var edges = document.getElementsByTagName('g');
if (edges && edges.length) {
  for (var i=0;i<edges.length;i++) {
    if (edges[i].id.substr(0,4)=='edge') {
      edges[i].setAttribute('class','edge');
    }
  }
}
]]></script>
        <defs>
                <circle id="rim" cx="0" cy="0" r="7"/>
                <circle id="rim2" cx="0" cy="0" r="3.5"/>
                <g id="zoomPlus">
                        <use xlink:href="#rim" fill="#404040">
                                <set attributeName="fill" to="#808080" begin="zoomplus.mouseover" end="zoomplus.mouseout"/>
                        </use>
                        <path d="M-4,0h8M0,-4v8" fill="none" stroke="white" stroke-width="1.5" pointer-events="none"/>
                </g>
                <g id="zoomMin">
                        <use xlink:href="#rim" fill="#404040">
                                <set attributeName="fill" to="#808080" begin="zoomminus.mouseover" end="zoomminus.mouseout"/>
                        </use>
                        <path d="M-4,0h8" fill="none" stroke="white" stroke-width="1.5" pointer-events="none"/>
                </g>
                <g id="dirArrow">
                        <path fill="none" stroke="white" stroke-width="1.5" d="M0,-3.0v7 M-2.5,-0.5L0,-3.0L2.5,-0.5"/>
                </g>
               <g id="resetDef">
                       <use xlink:href="#rim2" fill="#404040">
                               <set attributeName="fill" to="#808080" begin="reset.mouseover" end="reset.mouseout"/>
                       </use>
               </g>
        </defs>

<script type="text/javascript">
var viewWidth = 660;
var viewHeight = 325;
var sectionId = 'dynsection-6';
</script>
<script xlink:href="svgpan.js"/>
<svg id="graph" class="graph">
<g id="viewport">
<title>Hydrax::Module::Module::getName</title>
<polygon fill="white" stroke="none" points="-4,4 -4,-321 656,-321 656,4 -4,4"/>
<!-- Node1 -->
<g id="node1" class="node"><title>Node1</title>
<polygon fill="#bfbfbf" stroke="black" points="0.5,-164 0.5,-194 123.5,-194 123.5,-164 0.5,-164"/>
<text text-anchor="start" x="8.5" y="-182" font-family="Helvetica,sans-Serif" font-size="10.00">Hydrax::Module::Module</text>
<text text-anchor="middle" x="62" y="-171" font-family="Helvetica,sans-Serif" font-size="10.00">::getName</text>
</g>
<!-- Node2 -->
<g id="node2" class="node"><title>Node2</title>
<g id="a_node2"><a xlink:href="class_hydrax_1_1_module_1_1_projected_grid.html#a7b656225a58519ec687225f1f809010c" target="_top" xlink:title="Hydrax::Module::Projected\lGrid::~ProjectedGrid">
<polygon fill="white" stroke="black" points="163.5,-287 163.5,-317 296.5,-317 296.5,-287 163.5,-287"/>
<text text-anchor="start" x="171.5" y="-305" font-family="Helvetica,sans-Serif" font-size="10.00">Hydrax::Module::Projected</text>
<text text-anchor="middle" x="230" y="-294" font-family="Helvetica,sans-Serif" font-size="10.00">Grid::~ProjectedGrid</text>
</a>
</g>
</g>
<!-- Node1&#45;&gt;Node2 -->
<g id="edge1" class="edge"><title>Node1&#45;&gt;Node2</title>
<path fill="none" stroke="midnightblue" d="M80.8093,-202.197C98.7172,-224.133 128.171,-256.64 160,-277 165.903,-280.776 172.455,-284.084 179.104,-286.949"/>
<polygon fill="midnightblue" stroke="midnightblue" points="83.5126,-199.973 74.5303,-194.355 78.0482,-204.348 83.5126,-199.973"/>
</g>
<!-- Node3 -->
<g id="node3" class="node"><title>Node3</title>
<g id="a_node3"><a xlink:href="class_hydrax_1_1_module_1_1_projected_grid.html#a86e4648a741558934e664f7400082742" target="_top" xlink:title="Hydrax::Module::Projected\lGrid::create">
<polygon fill="white" stroke="black" points="163.5,-238 163.5,-268 296.5,-268 296.5,-238 163.5,-238"/>
<text text-anchor="start" x="171.5" y="-256" font-family="Helvetica,sans-Serif" font-size="10.00">Hydrax::Module::Projected</text>
<text text-anchor="middle" x="230" y="-245" font-family="Helvetica,sans-Serif" font-size="10.00">Grid::create</text>
</a>
</g>
</g>
<!-- Node1&#45;&gt;Node3 -->
<g id="edge2" class="edge"><title>Node1&#45;&gt;Node3</title>
<path fill="none" stroke="midnightblue" d="M99.5764,-198.786C117.538,-208.164 139.646,-219.209 160,-228 167.954,-231.435 176.551,-234.809 184.888,-237.912"/>
<polygon fill="midnightblue" stroke="midnightblue" points="101.072,-195.618 90.5927,-194.055 97.8098,-201.811 101.072,-195.618"/>
</g>
<!-- Node7 -->
<g id="node7" class="node"><title>Node7</title>
<g id="a_node7"><a xlink:href="class_hydrax_1_1_module_1_1_radial_grid.html#af8caf3997cfc178019db4ac735394b7c" target="_top" xlink:title="Hydrax::Module::RadialGrid\l::~RadialGrid">
<polygon fill="white" stroke="black" points="161.5,-189 161.5,-219 298.5,-219 298.5,-189 161.5,-189"/>
<text text-anchor="start" x="169.5" y="-207" font-family="Helvetica,sans-Serif" font-size="10.00">Hydrax::Module::RadialGrid</text>
<text text-anchor="middle" x="230" y="-196" font-family="Helvetica,sans-Serif" font-size="10.00">::~RadialGrid</text>
</a>
</g>
</g>
<!-- Node1&#45;&gt;Node7 -->
<g id="edge6" class="edge"><title>Node1&#45;&gt;Node7</title>
<path fill="none" stroke="midnightblue" d="M134.02,-189.696C143.105,-191.064 152.386,-192.462 161.414,-193.821"/>
<polygon fill="midnightblue" stroke="midnightblue" points="134.279,-186.195 123.87,-188.167 133.237,-193.117 134.279,-186.195"/>
</g>
<!-- Node8 -->
<g id="node8" class="node"><title>Node8</title>
<g id="a_node8"><a xlink:href="class_hydrax_1_1_module_1_1_radial_grid.html#a8c0f059e53170e7d1114bb7faecbcb0a" target="_top" xlink:title="Hydrax::Module::RadialGrid\l::create">
<polygon fill="white" stroke="black" points="161.5,-140 161.5,-170 298.5,-170 298.5,-140 161.5,-140"/>
<text text-anchor="start" x="169.5" y="-158" font-family="Helvetica,sans-Serif" font-size="10.00">Hydrax::Module::RadialGrid</text>
<text text-anchor="middle" x="230" y="-147" font-family="Helvetica,sans-Serif" font-size="10.00">::create</text>
</a>
</g>
</g>
<!-- Node1&#45;&gt;Node8 -->
<g id="edge7" class="edge"><title>Node1&#45;&gt;Node8</title>
<path fill="none" stroke="midnightblue" d="M134.02,-168.732C143.105,-167.419 152.386,-166.077 161.414,-164.771"/>
<polygon fill="midnightblue" stroke="midnightblue" points="133.266,-165.305 123.87,-170.2 134.268,-172.233 133.266,-165.305"/>
</g>
<!-- Node12 -->
<g id="node12" class="node"><title>Node12</title>
<g id="a_node12"><a xlink:href="class_hydrax_1_1_module_1_1_simple_grid.html#aa697faa687d55e5f211bae56e0ec9d14" target="_top" xlink:title="Hydrax::Module::SimpleGrid\l::~SimpleGrid">
<polygon fill="white" stroke="black" points="160,-91 160,-121 300,-121 300,-91 160,-91"/>
<text text-anchor="start" x="168" y="-109" font-family="Helvetica,sans-Serif" font-size="10.00">Hydrax::Module::SimpleGrid</text>
<text text-anchor="middle" x="230" y="-98" font-family="Helvetica,sans-Serif" font-size="10.00">::~SimpleGrid</text>
</a>
</g>
</g>
<!-- Node1&#45;&gt;Node12 -->
<g id="edge11" class="edge"><title>Node1&#45;&gt;Node12</title>
<path fill="none" stroke="midnightblue" d="M100.402,-159.27C118.23,-150.182 139.988,-139.545 160,-131 168.085,-127.548 176.825,-124.14 185.278,-121.004"/>
<polygon fill="midnightblue" stroke="midnightblue" points="98.7622,-156.178 91.4678,-163.862 101.962,-162.404 98.7622,-156.178"/>
</g>
<!-- Node13 -->
<g id="node13" class="node"><title>Node13</title>
<g id="a_node13"><a xlink:href="class_hydrax_1_1_module_1_1_simple_grid.html#a7e52fb7497f6a2d27666a384d7a1d003" target="_top" xlink:title="Hydrax::Module::SimpleGrid\l::create">
<polygon fill="white" stroke="black" points="160,-42 160,-72 300,-72 300,-42 160,-42"/>
<text text-anchor="start" x="168" y="-60" font-family="Helvetica,sans-Serif" font-size="10.00">Hydrax::Module::SimpleGrid</text>
<text text-anchor="middle" x="230" y="-49" font-family="Helvetica,sans-Serif" font-size="10.00">::create</text>
</a>
</g>
</g>
<!-- Node1&#45;&gt;Node13 -->
<g id="edge12" class="edge"><title>Node1&#45;&gt;Node13</title>
<path fill="none" stroke="midnightblue" d="M81.0964,-155.762C99.0627,-134.061 128.422,-102.085 160,-82 165.913,-78.2391 172.47,-74.9403 179.122,-72.0785"/>
<polygon fill="midnightblue" stroke="midnightblue" points="78.1496,-153.839 74.5655,-163.809 83.5848,-158.25 78.1496,-153.839"/>
</g>
<!-- Node4 -->
<g id="node4" class="node"><title>Node4</title>
<g id="a_node4"><a xlink:href="class_hydrax_1_1_module_1_1_projected_grid.html#a04d04b9cfc173538038a5f51094c1ffa" target="_top" xlink:title="Hydrax::Module::Projected\lGrid::setOptions">
<polygon fill="white" stroke="black" points="339.5,-238 339.5,-268 472.5,-268 472.5,-238 339.5,-238"/>
<text text-anchor="start" x="347.5" y="-256" font-family="Helvetica,sans-Serif" font-size="10.00">Hydrax::Module::Projected</text>
<text text-anchor="middle" x="406" y="-245" font-family="Helvetica,sans-Serif" font-size="10.00">Grid::setOptions</text>
</a>
</g>
</g>
<!-- Node3&#45;&gt;Node4 -->
<g id="edge3" class="edge"><title>Node3&#45;&gt;Node4</title>
<path fill="none" stroke="midnightblue" d="M307.035,-253C317.825,-253 328.844,-253 339.414,-253"/>
<polygon fill="midnightblue" stroke="midnightblue" points="306.782,-249.5 296.782,-253 306.782,-256.5 306.782,-249.5"/>
</g>
<!-- Node5 -->
<g id="node5" class="node"><title>Node5</title>
<g id="a_node5"><a xlink:href="class_hydrax_1_1_module_1_1_projected_grid.html#aa9308990b99866cbd09edd3600972443" target="_top" xlink:title="Hydrax::Module::Projected\lGrid::ProjectedGrid">
<polygon fill="white" stroke="black" points="515.5,-263 515.5,-293 648.5,-293 648.5,-263 515.5,-263"/>
<text text-anchor="start" x="523.5" y="-281" font-family="Helvetica,sans-Serif" font-size="10.00">Hydrax::Module::Projected</text>
<text text-anchor="middle" x="582" y="-270" font-family="Helvetica,sans-Serif" font-size="10.00">Grid::ProjectedGrid</text>
</a>
</g>
</g>
<!-- Node4&#45;&gt;Node5 -->
<g id="edge4" class="edge"><title>Node4&#45;&gt;Node5</title>
<path fill="none" stroke="midnightblue" d="M482.701,-263.877C493.598,-265.442 504.735,-267.042 515.414,-268.577"/>
<polygon fill="midnightblue" stroke="midnightblue" points="483.178,-260.409 472.782,-262.451 482.183,-267.338 483.178,-260.409"/>
</g>
<!-- Node6 -->
<g id="node6" class="node"><title>Node6</title>
<g id="a_node6"><a xlink:href="class_hydrax_1_1_module_1_1_projected_grid.html#af951c58cc93cf75d57e69aa14a668d3e" target="_top" xlink:title="Hydrax::Module::Projected\lGrid::loadCfg">
<polygon fill="white" stroke="black" points="515.5,-214 515.5,-244 648.5,-244 648.5,-214 515.5,-214"/>
<text text-anchor="start" x="523.5" y="-232" font-family="Helvetica,sans-Serif" font-size="10.00">Hydrax::Module::Projected</text>
<text text-anchor="middle" x="582" y="-221" font-family="Helvetica,sans-Serif" font-size="10.00">Grid::loadCfg</text>
</a>
</g>
</g>
<!-- Node4&#45;&gt;Node6 -->
<g id="edge5" class="edge"><title>Node4&#45;&gt;Node6</title>
<path fill="none" stroke="midnightblue" d="M482.701,-242.558C493.598,-241.055 504.735,-239.519 515.414,-238.046"/>
<polygon fill="midnightblue" stroke="midnightblue" points="482.21,-239.093 472.782,-243.927 483.166,-246.027 482.21,-239.093"/>
</g>
<!-- Node9 -->
<g id="node9" class="node"><title>Node9</title>
<g id="a_node9"><a xlink:href="class_hydrax_1_1_module_1_1_radial_grid.html#acfc2ae157df9b6159302a90561ffc038" target="_top" xlink:title="Hydrax::Module::RadialGrid\l::setOptions">
<polygon fill="white" stroke="black" points="337.5,-140 337.5,-170 474.5,-170 474.5,-140 337.5,-140"/>
<text text-anchor="start" x="345.5" y="-158" font-family="Helvetica,sans-Serif" font-size="10.00">Hydrax::Module::RadialGrid</text>
<text text-anchor="middle" x="406" y="-147" font-family="Helvetica,sans-Serif" font-size="10.00">::setOptions</text>
</a>
</g>
</g>
<!-- Node8&#45;&gt;Node9 -->
<g id="edge8" class="edge"><title>Node8&#45;&gt;Node9</title>
<path fill="none" stroke="midnightblue" d="M308.984,-155C318.469,-155 328.098,-155 337.414,-155"/>
<polygon fill="midnightblue" stroke="midnightblue" points="308.771,-151.5 298.771,-155 308.771,-158.5 308.771,-151.5"/>
</g>
<!-- Node10 -->
<g id="node10" class="node"><title>Node10</title>
<g id="a_node10"><a xlink:href="class_hydrax_1_1_module_1_1_radial_grid.html#abc52ff8727a537d5303fabc1179fa45f" target="_top" xlink:title="Hydrax::Module::RadialGrid\l::RadialGrid">
<polygon fill="white" stroke="black" points="513.5,-159 513.5,-189 650.5,-189 650.5,-159 513.5,-159"/>
<text text-anchor="start" x="521.5" y="-177" font-family="Helvetica,sans-Serif" font-size="10.00">Hydrax::Module::RadialGrid</text>
<text text-anchor="middle" x="582" y="-166" font-family="Helvetica,sans-Serif" font-size="10.00">::RadialGrid</text>
</a>
</g>
</g>
<!-- Node9&#45;&gt;Node10 -->
<g id="edge9" class="edge"><title>Node9&#45;&gt;Node10</title>
<path fill="none" stroke="midnightblue" d="M484.984,-163.516C494.469,-164.551 504.098,-165.603 513.414,-166.62"/>
<polygon fill="midnightblue" stroke="midnightblue" points="485.092,-160.007 474.771,-162.4 484.332,-166.965 485.092,-160.007"/>
</g>
<!-- Node11 -->
<g id="node11" class="node"><title>Node11</title>
<g id="a_node11"><a xlink:href="class_hydrax_1_1_module_1_1_radial_grid.html#a31b3bab8e74f2f1e316a1800470ac685" target="_top" xlink:title="Hydrax::Module::RadialGrid\l::loadCfg">
<polygon fill="white" stroke="black" points="513.5,-110 513.5,-140 650.5,-140 650.5,-110 513.5,-110"/>
<text text-anchor="start" x="521.5" y="-128" font-family="Helvetica,sans-Serif" font-size="10.00">Hydrax::Module::RadialGrid</text>
<text text-anchor="middle" x="582" y="-117" font-family="Helvetica,sans-Serif" font-size="10.00">::loadCfg</text>
</a>
</g>
</g>
<!-- Node9&#45;&gt;Node11 -->
<g id="edge10" class="edge"><title>Node9&#45;&gt;Node11</title>
<path fill="none" stroke="midnightblue" d="M484.682,-141.607C494.264,-139.954 503.999,-138.276 513.414,-136.653"/>
<polygon fill="midnightblue" stroke="midnightblue" points="484.031,-138.167 474.771,-143.315 485.22,-145.065 484.031,-138.167"/>
</g>
<!-- Node14 -->
<g id="node14" class="node"><title>Node14</title>
<g id="a_node14"><a xlink:href="class_hydrax_1_1_module_1_1_simple_grid.html#a6b83cb95b2803b068a53bf76afaa9ac4" target="_top" xlink:title="Hydrax::Module::SimpleGrid\l::setOptions">
<polygon fill="white" stroke="black" points="336,-42 336,-72 476,-72 476,-42 336,-42"/>
<text text-anchor="start" x="344" y="-60" font-family="Helvetica,sans-Serif" font-size="10.00">Hydrax::Module::SimpleGrid</text>
<text text-anchor="middle" x="406" y="-49" font-family="Helvetica,sans-Serif" font-size="10.00">::setOptions</text>
</a>
</g>
</g>
<!-- Node13&#45;&gt;Node14 -->
<g id="edge13" class="edge"><title>Node13&#45;&gt;Node14</title>
<path fill="none" stroke="midnightblue" d="M310.035,-57C318.625,-57 327.319,-57 335.779,-57"/>
<polygon fill="midnightblue" stroke="midnightblue" points="310.019,-53.5001 300.019,-57 310.019,-60.5001 310.019,-53.5001"/>
</g>
<!-- Node15 -->
<g id="node15" class="node"><title>Node15</title>
<g id="a_node15"><a xlink:href="class_hydrax_1_1_module_1_1_simple_grid.html#aae091cd103798dcc8f8b92af7dbfccef" target="_top" xlink:title="Hydrax::Module::SimpleGrid\l::SimpleGrid">
<polygon fill="white" stroke="black" points="512,-49 512,-79 652,-79 652,-49 512,-49"/>
<text text-anchor="start" x="520" y="-67" font-family="Helvetica,sans-Serif" font-size="10.00">Hydrax::Module::SimpleGrid</text>
<text text-anchor="middle" x="582" y="-56" font-family="Helvetica,sans-Serif" font-size="10.00">::SimpleGrid</text>
</a>
</g>
</g>
<!-- Node14&#45;&gt;Node15 -->
<g id="edge14" class="edge"><title>Node14&#45;&gt;Node15</title>
<path fill="none" stroke="midnightblue" d="M486.035,-60.1796C494.625,-60.5251 503.319,-60.8749 511.779,-61.2153"/>
<polygon fill="midnightblue" stroke="midnightblue" points="486.152,-56.6815 476.019,-59.7766 485.871,-63.6759 486.152,-56.6815"/>
</g>
<!-- Node16 -->
<g id="node16" class="node"><title>Node16</title>
<g id="a_node16"><a xlink:href="class_hydrax_1_1_module_1_1_simple_grid.html#a3741ec1a3df1863e730711fd9d3b14e1" target="_top" xlink:title="Hydrax::Module::SimpleGrid\l::loadCfg">
<polygon fill="white" stroke="black" points="512,-0 512,-30 652,-30 652,-0 512,-0"/>
<text text-anchor="start" x="520" y="-18" font-family="Helvetica,sans-Serif" font-size="10.00">Hydrax::Module::SimpleGrid</text>
<text text-anchor="middle" x="582" y="-7" font-family="Helvetica,sans-Serif" font-size="10.00">::loadCfg</text>
</a>
</g>
</g>
<!-- Node14&#45;&gt;Node16 -->
<g id="edge15" class="edge"><title>Node14&#45;&gt;Node16</title>
<path fill="none" stroke="midnightblue" d="M479.263,-39.5573C492.401,-36.3861 506.001,-33.1033 518.816,-30.0098"/>
<polygon fill="midnightblue" stroke="midnightblue" points="478.226,-36.2069 469.327,-41.9557 479.869,-43.0115 478.226,-36.2069"/>
</g>
</g>
</svg>
        <g id="navigator" transform="translate(0 0)" fill="#404254">
                <rect fill="#f2f5e9" fill-opacity="0.5" stroke="#606060" stroke-width=".5" x="0" y="0" width="60" height="60"/>
                <use id="zoomplus" xlink:href="#zoomPlus" x="17" y="9" onmousedown="handleZoom(evt,'in')"/>
                <use id="zoomminus" xlink:href="#zoomMin" x="42" y="9" onmousedown="handleZoom(evt,'out')"/>
                <use id="reset" xlink:href="#resetDef" x="30" y="36" onmousedown="handleReset()"/>
                <g id="arrowUp" xlink:href="#dirArrow" transform="translate(30 24)" onmousedown="handlePan(0,-1)">
                  <use xlink:href="#rim" fill="#404040">
                        <set attributeName="fill" to="#808080" begin="arrowUp.mouseover" end="arrowUp.mouseout"/>
                  </use>
                  <path fill="none" stroke="white" stroke-width="1.5" d="M0,-3.0v7 M-2.5,-0.5L0,-3.0L2.5,-0.5"/>
                </g>
                <g id="arrowRight" xlink:href="#dirArrow" transform="rotate(90) translate(36 -43)" onmousedown="handlePan(1,0)">
                  <use xlink:href="#rim" fill="#404040">
                        <set attributeName="fill" to="#808080" begin="arrowRight.mouseover" end="arrowRight.mouseout"/>
                  </use>
                  <path fill="none" stroke="white" stroke-width="1.5" d="M0,-3.0v7 M-2.5,-0.5L0,-3.0L2.5,-0.5"/>
                </g>
                <g id="arrowDown" xlink:href="#dirArrow" transform="rotate(180) translate(-30 -48)" onmousedown="handlePan(0,1)">
                  <use xlink:href="#rim" fill="#404040">
                        <set attributeName="fill" to="#808080" begin="arrowDown.mouseover" end="arrowDown.mouseout"/>
                  </use>
                  <path fill="none" stroke="white" stroke-width="1.5" d="M0,-3.0v7 M-2.5,-0.5L0,-3.0L2.5,-0.5"/>
                </g>
                <g id="arrowLeft" xlink:href="#dirArrow" transform="rotate(270) translate(-36 17)" onmousedown="handlePan(-1,0)">
                  <use xlink:href="#rim" fill="#404040">
                        <set attributeName="fill" to="#808080" begin="arrowLeft.mouseover" end="arrowLeft.mouseout"/>
                  </use>
                  <path fill="none" stroke="white" stroke-width="1.5" d="M0,-3.0v7 M-2.5,-0.5L0,-3.0L2.5,-0.5"/>
                </g>
        </g>
        <svg viewBox="0 0 15 15" width="100%" height="30px" preserveAspectRatio="xMaxYMin meet">
         <g id="arrow_out" transform="scale(0.3 0.3)">
          <a xlink:href="class_hydrax_1_1_module_1_1_module_af00dbb4fcb83e45e89c7d537860ee486_icgraph_org.svg" target="_base">
           <rect id="button" ry="5" rx="5" y="6" x="6" height="38" width="38"
                fill="#f2f5e9" fill-opacity="0.5" stroke="#606060" stroke-width="1.0"/>
           <path id="arrow"
             d="M 11.500037,31.436501 C 11.940474,20.09759 22.043105,11.32322 32.158766,21.979434 L 37.068811,17.246167 C 37.068811,17.246167 37.088388,32 37.088388,32 L 22.160133,31.978069 C 22.160133,31.978069 26.997745,27.140456 26.997745,27.140456 C 18.528582,18.264221 13.291696,25.230495 11.500037,31.436501 z"
             style="fill:#404040;"/>
          </a>
         </g>
        </svg>
</svg>
