<?xml version="1.0" encoding="UTF-8" standalone="no"?>
<!DOCTYPE svg PUBLIC "-//W3C//DTD SVG 1.1//EN"
 "http://www.w3.org/Graphics/SVG/1.1/DTD/svg11.dtd">
<!-- Generated by graphviz version 2.36.0 (20140111.2315)
 -->
<!-- Title: RigDef::SequentialImporter::ResolveNodeRanges Pages: 1 -->
<!--zoomable 333 -->
<svg id="main" version="1.1" xmlns="http://www.w3.org/2000/svg" xmlns:xlink="http://www.w3.org/1999/xlink" xml:space="preserve" onload="init(evt)">
<style type="text/css"><![CDATA[
.edge:hover path { stroke: red; }
.edge:hover polygon { stroke: red; fill: red; }
]]></style>
<script type="text/javascript"><![CDATA[
var edges = document.getElementsByTagName('g');
if (edges && edges.length) {
  for (var i=0;i<edges.length;i++) {
    if (edges[i].id.substr(0,4)=='edge') {
      edges[i].setAttribute('class','edge');
    }
  }
}
]]></script>
        <defs>
                <circle id="rim" cx="0" cy="0" r="7"/>
                <circle id="rim2" cx="0" cy="0" r="3.5"/>
                <g id="zoomPlus">
                        <use xlink:href="#rim" fill="#404040">
                                <set attributeName="fill" to="#808080" begin="zoomplus.mouseover" end="zoomplus.mouseout"/>
                        </use>
                        <path d="M-4,0h8M0,-4v8" fill="none" stroke="white" stroke-width="1.5" pointer-events="none"/>
                </g>
                <g id="zoomMin">
                        <use xlink:href="#rim" fill="#404040">
                                <set attributeName="fill" to="#808080" begin="zoomminus.mouseover" end="zoomminus.mouseout"/>
                        </use>
                        <path d="M-4,0h8" fill="none" stroke="white" stroke-width="1.5" pointer-events="none"/>
                </g>
                <g id="dirArrow">
                        <path fill="none" stroke="white" stroke-width="1.5" d="M0,-3.0v7 M-2.5,-0.5L0,-3.0L2.5,-0.5"/>
                </g>
               <g id="resetDef">
                       <use xlink:href="#rim2" fill="#404040">
                               <set attributeName="fill" to="#808080" begin="reset.mouseover" end="reset.mouseout"/>
                       </use>
               </g>
        </defs>

<script type="text/javascript">
var viewWidth = 502;
var viewHeight = 333;
var sectionId = 'dynsection-23';
</script>
<script xlink:href="svgpan.js"/>
<svg id="graph" class="graph">
<g id="viewport">
<title>RigDef::SequentialImporter::ResolveNodeRanges</title>
<polygon fill="white" stroke="none" points="-4,4 -4,-329 498,-329 498,4 -4,4"/>
<!-- Node1 -->
<g id="node1" class="node"><title>Node1</title>
<polygon fill="#bfbfbf" stroke="black" points="0.5,-175 0.5,-205 135.5,-205 135.5,-175 0.5,-175"/>
<text text-anchor="start" x="8.5" y="-193" font-family="Helvetica,sans-Serif" font-size="10.00">RigDef::SequentialImporter</text>
<text text-anchor="middle" x="68" y="-182" font-family="Helvetica,sans-Serif" font-size="10.00">::ResolveNodeRanges</text>
</g>
<!-- Node2 -->
<g id="node2" class="node"><title>Node2</title>
<g id="a_node2"><a xlink:href="struct_rig_def_1_1_node_1_1_range.html#aea06174c0a0e9dcb80c71c616eb253c2" target="_top" xlink:title="RigDef::Node::Range\l::IsRange">
<polygon fill="white" stroke="black" points="184.5,-295 184.5,-325 295.5,-325 295.5,-295 184.5,-295"/>
<text text-anchor="start" x="192.5" y="-313" font-family="Helvetica,sans-Serif" font-size="10.00">RigDef::Node::Range</text>
<text text-anchor="middle" x="240" y="-302" font-family="Helvetica,sans-Serif" font-size="10.00">::IsRange</text>
</a>
</g>
</g>
<!-- Node1&#45;&gt;Node2 -->
<g id="edge1" class="edge"><title>Node1&#45;&gt;Node2</title>
<path fill="none" stroke="midnightblue" d="M83.5506,-205.261C102.528,-224.533 137.404,-257.846 172,-280 177.841,-283.74 184.226,-287.246 190.661,-290.448"/>
<polygon fill="midnightblue" stroke="midnightblue" points="189.531,-293.786 200.066,-294.914 192.534,-287.463 189.531,-293.786"/>
</g>
<!-- Node3 -->
<g id="node3" class="node"><title>Node3</title>
<g id="a_node3"><a xlink:href="class_rig_def_1_1_sequential_importer.html#a97bec71f6d710c1c6804d9b1e03977a5" target="_top" xlink:title="RigDef::SequentialImporter\l::ResolveNode">
<polygon fill="white" stroke="black" points="172.5,-131 172.5,-161 307.5,-161 307.5,-131 172.5,-131"/>
<text text-anchor="start" x="180.5" y="-149" font-family="Helvetica,sans-Serif" font-size="10.00">RigDef::SequentialImporter</text>
<text text-anchor="middle" x="240" y="-138" font-family="Helvetica,sans-Serif" font-size="10.00">::ResolveNode</text>
</a>
</g>
</g>
<!-- Node1&#45;&gt;Node3 -->
<g id="edge2" class="edge"><title>Node1&#45;&gt;Node3</title>
<path fill="none" stroke="midnightblue" d="M127.029,-174.981C141.174,-171.32 156.432,-167.371 170.995,-163.601"/>
<polygon fill="midnightblue" stroke="midnightblue" points="172.14,-166.92 180.944,-161.026 170.386,-160.144 172.14,-166.92"/>
</g>
<!-- Node5 -->
<g id="node5" class="node"><title>Node5</title>
<g id="a_node5"><a xlink:href="class_rig_def_1_1_node_1_1_ref.html#ac60d95e308e77df22b8b62f0c7c4bbe9" target="_top" xlink:title="RigDef::Node::Ref::\lGetLineNumber">
<polygon fill="white" stroke="black" points="367,-263 367,-293 471,-293 471,-263 367,-263"/>
<text text-anchor="start" x="375" y="-281" font-family="Helvetica,sans-Serif" font-size="10.00">RigDef::Node::Ref::</text>
<text text-anchor="middle" x="419" y="-270" font-family="Helvetica,sans-Serif" font-size="10.00">GetLineNumber</text>
</a>
</g>
</g>
<!-- Node1&#45;&gt;Node5 -->
<g id="edge17" class="edge"><title>Node1&#45;&gt;Node5</title>
<path fill="none" stroke="midnightblue" d="M107.224,-205.179C126.45,-212.442 150.237,-220.868 172,-227 234.056,-244.485 306.465,-258.782 356.582,-267.742"/>
<polygon fill="midnightblue" stroke="midnightblue" points="356.155,-271.221 366.612,-269.517 357.375,-264.328 356.155,-271.221"/>
</g>
<!-- Node6 -->
<g id="node6" class="node"><title>Node6</title>
<g id="a_node6"><a xlink:href="class_rig_def_1_1_node_1_1_ref.html#a654831f9421f9d314d849f966f70a04d" target="_top" xlink:title="RigDef::Node::Ref::Num">
<polygon fill="white" stroke="black" points="356.5,-224.5 356.5,-243.5 481.5,-243.5 481.5,-224.5 356.5,-224.5"/>
<text text-anchor="middle" x="419" y="-231.5" font-family="Helvetica,sans-Serif" font-size="10.00">RigDef::Node::Ref::Num</text>
</a>
</g>
</g>
<!-- Node1&#45;&gt;Node6 -->
<g id="edge12" class="edge"><title>Node1&#45;&gt;Node6</title>
<path fill="none" stroke="midnightblue" d="M135.747,-199.209C147.81,-200.834 160.277,-202.489 172,-204 230.562,-211.55 297.033,-219.627 346.103,-225.496"/>
<polygon fill="midnightblue" stroke="midnightblue" points="345.956,-229.003 356.301,-226.714 346.787,-222.053 345.956,-229.003"/>
</g>
<!-- Node7 -->
<g id="node7" class="node"><title>Node7</title>
<g id="a_node7"><a xlink:href="class_rig_def_1_1_node_1_1_ref.html#a141e4a4770a737736436a3746a31f3ea" target="_top" xlink:title="RigDef::Node::Ref::\lToString">
<polygon fill="white" stroke="black" points="367,-175 367,-205 471,-205 471,-175 367,-175"/>
<text text-anchor="start" x="375" y="-193" font-family="Helvetica,sans-Serif" font-size="10.00">RigDef::Node::Ref::</text>
<text text-anchor="middle" x="419" y="-182" font-family="Helvetica,sans-Serif" font-size="10.00">ToString</text>
</a>
</g>
</g>
<!-- Node1&#45;&gt;Node7 -->
<g id="edge10" class="edge"><title>Node1&#45;&gt;Node7</title>
<path fill="none" stroke="midnightblue" d="M135.878,-190C199.718,-190 295.086,-190 356.924,-190"/>
<polygon fill="midnightblue" stroke="midnightblue" points="356.929,-193.5 366.929,-190 356.929,-186.5 356.929,-193.5"/>
</g>
<!-- Node8 -->
<g id="node8" class="node"><title>Node8</title>
<g id="a_node8"><a xlink:href="class_rig_def_1_1_sequential_importer.html#abbbd9a34cae153cb481b6c61a7927a97" target="_top" xlink:title="RigDef::SequentialImporter\l::AddMessage">
<polygon fill="white" stroke="black" points="351.5,-0 351.5,-30 486.5,-30 486.5,-0 351.5,-0"/>
<text text-anchor="start" x="359.5" y="-18" font-family="Helvetica,sans-Serif" font-size="10.00">RigDef::SequentialImporter</text>
<text text-anchor="middle" x="419" y="-7" font-family="Helvetica,sans-Serif" font-size="10.00">::AddMessage</text>
</a>
</g>
</g>
<!-- Node1&#45;&gt;Node8 -->
<g id="edge11" class="edge"><title>Node1&#45;&gt;Node8</title>
<path fill="none" stroke="midnightblue" d="M75.7777,-174.812C89.44,-146.131 123.203,-84.2585 172,-55 222.968,-24.44 290.054,-15.1576 341.293,-13.118"/>
<polygon fill="midnightblue" stroke="midnightblue" points="341.435,-16.6154 351.32,-12.8025 341.215,-9.61885 341.435,-16.6154"/>
</g>
<!-- Node11 -->
<g id="node11" class="node"><title>Node11</title>
<g id="a_node11"><a xlink:href="class_rig_def_1_1_sequential_importer.html#ac2e3fa72a3d0f97a7cebe79456efd2ef" target="_top" xlink:title="RigDef::SequentialImporter\l::ResolveNodeByIndex">
<polygon fill="white" stroke="black" points="172.5,-65 172.5,-95 307.5,-95 307.5,-65 172.5,-65"/>
<text text-anchor="start" x="180.5" y="-83" font-family="Helvetica,sans-Serif" font-size="10.00">RigDef::SequentialImporter</text>
<text text-anchor="middle" x="240" y="-72" font-family="Helvetica,sans-Serif" font-size="10.00">::ResolveNodeByIndex</text>
</a>
</g>
</g>
<!-- Node1&#45;&gt;Node11 -->
<g id="edge13" class="edge"><title>Node1&#45;&gt;Node11</title>
<path fill="none" stroke="midnightblue" d="M90.9284,-174.93C111.663,-160.771 143.726,-139.111 172,-121 182.676,-114.162 194.434,-106.883 205.08,-100.385"/>
<polygon fill="midnightblue" stroke="midnightblue" points="206.986,-103.323 213.713,-95.1381 203.35,-97.3412 206.986,-103.323"/>
</g>
<!-- Node4 -->
<g id="node4" class="node"><title>Node4</title>
<g id="a_node4"><a xlink:href="class_rig_def_1_1_node_1_1_ref.html#a80f06d82da5ac28617eca47baa590821" target="_top" xlink:title="RigDef::Node::Ref::Str">
<polygon fill="white" stroke="black" points="360.5,-136.5 360.5,-155.5 477.5,-155.5 477.5,-136.5 360.5,-136.5"/>
<text text-anchor="middle" x="419" y="-143.5" font-family="Helvetica,sans-Serif" font-size="10.00">RigDef::Node::Ref::Str</text>
</a>
</g>
</g>
<!-- Node3&#45;&gt;Node4 -->
<g id="edge3" class="edge"><title>Node3&#45;&gt;Node4</title>
<path fill="none" stroke="midnightblue" d="M307.664,-146C321.621,-146 336.352,-146 350.345,-146"/>
<polygon fill="midnightblue" stroke="midnightblue" points="350.383,-149.5 360.383,-146 350.383,-142.5 350.383,-149.5"/>
</g>
<!-- Node3&#45;&gt;Node5 -->
<g id="edge4" class="edge"><title>Node3&#45;&gt;Node5</title>
<path fill="none" stroke="midnightblue" d="M251.909,-161.353C269.028,-184.39 304.368,-227.869 344,-253 348.257,-255.699 352.838,-258.142 357.559,-260.345"/>
<polygon fill="midnightblue" stroke="midnightblue" points="356.192,-263.567 366.762,-264.293 358.952,-257.134 356.192,-263.567"/>
</g>
<!-- Node3&#45;&gt;Node6 -->
<g id="edge5" class="edge"><title>Node3&#45;&gt;Node6</title>
<path fill="none" stroke="midnightblue" d="M260.033,-161.283C279.921,-176.577 312.553,-199.815 344,-214 350.194,-216.794 356.862,-219.269 363.567,-221.442"/>
<polygon fill="midnightblue" stroke="midnightblue" points="362.783,-224.861 373.368,-224.409 364.811,-218.161 362.783,-224.861"/>
</g>
<!-- Node3&#45;&gt;Node7 -->
<g id="edge6" class="edge"><title>Node3&#45;&gt;Node7</title>
<path fill="none" stroke="midnightblue" d="M301.418,-161.019C319.417,-165.493 339.144,-170.397 357.168,-174.878"/>
<polygon fill="midnightblue" stroke="midnightblue" points="356.436,-178.302 366.985,-177.318 358.125,-171.509 356.436,-178.302"/>
</g>
<!-- Node3&#45;&gt;Node8 -->
<g id="edge7" class="edge"><title>Node3&#45;&gt;Node8</title>
<path fill="none" stroke="midnightblue" d="M272.064,-130.911C284.286,-123.921 297.804,-114.764 308,-104 330.711,-80.0251 318.516,-60.0033 344,-39 345.563,-37.7115 347.198,-36.4916 348.889,-35.3367"/>
<polygon fill="midnightblue" stroke="midnightblue" points="350.936,-38.1923 357.759,-30.087 347.371,-32.1682 350.936,-38.1923"/>
</g>
<!-- Node9 -->
<g id="node9" class="node"><title>Node9</title>
<g id="a_node9"><a xlink:href="class_rig_def_1_1_sequential_importer.html#a92713dc168c8a95cab4d0d0ff4967172" target="_top" xlink:title="RigDef::SequentialImporter\l::GetNodeArrayOffset">
<polygon fill="white" stroke="black" points="351.5,-49 351.5,-79 486.5,-79 486.5,-49 351.5,-49"/>
<text text-anchor="start" x="359.5" y="-67" font-family="Helvetica,sans-Serif" font-size="10.00">RigDef::SequentialImporter</text>
<text text-anchor="middle" x="419" y="-56" font-family="Helvetica,sans-Serif" font-size="10.00">::GetNodeArrayOffset</text>
</a>
</g>
</g>
<!-- Node3&#45;&gt;Node9 -->
<g id="edge8" class="edge"><title>Node3&#45;&gt;Node9</title>
<path fill="none" stroke="midnightblue" d="M265.339,-130.895C285.819,-118.587 316.141,-101.295 344,-89 349.04,-86.7757 354.344,-84.6278 359.701,-82.588"/>
<polygon fill="midnightblue" stroke="midnightblue" points="361.177,-85.7746 369.356,-79.0401 358.762,-79.2042 361.177,-85.7746"/>
</g>
<!-- Node10 -->
<g id="node10" class="node"><title>Node10</title>
<g id="a_node10"><a xlink:href="struct_rig_def_1_1_file.html#aecfdfd70221c860aebb6edf3f40d78d2" target="_top" xlink:title="RigDef::File::KeywordToString">
<polygon fill="white" stroke="black" points="344,-98.5 344,-117.5 494,-117.5 494,-98.5 344,-98.5"/>
<text text-anchor="middle" x="419" y="-105.5" font-family="Helvetica,sans-Serif" font-size="10.00">RigDef::File::KeywordToString</text>
</a>
</g>
</g>
<!-- Node3&#45;&gt;Node10 -->
<g id="edge9" class="edge"><title>Node3&#45;&gt;Node10</title>
<path fill="none" stroke="midnightblue" d="M307.664,-131.688C326.096,-127.731 345.875,-123.484 363.525,-119.695"/>
<polygon fill="midnightblue" stroke="midnightblue" points="364.602,-123.044 373.645,-117.523 363.133,-116.2 364.602,-123.044"/>
</g>
<!-- Node11&#45;&gt;Node8 -->
<g id="edge14" class="edge"><title>Node11&#45;&gt;Node8</title>
<path fill="none" stroke="midnightblue" d="M277.007,-64.9991C296.683,-56.9713 321.55,-47.0988 344,-39 349.241,-37.1094 354.714,-35.2049 360.208,-33.3402"/>
<polygon fill="midnightblue" stroke="midnightblue" points="361.704,-36.5306 370.076,-30.0381 359.482,-29.8924 361.704,-36.5306"/>
</g>
<!-- Node11&#45;&gt;Node9 -->
<g id="edge15" class="edge"><title>Node11&#45;&gt;Node9</title>
<path fill="none" stroke="midnightblue" d="M307.664,-73.9739C318.618,-72.9837 330.048,-71.9504 341.225,-70.9402"/>
<polygon fill="midnightblue" stroke="midnightblue" points="341.752,-74.4068 351.396,-70.0207 341.122,-67.4353 341.752,-74.4068"/>
</g>
<!-- Node11&#45;&gt;Node10 -->
<g id="edge16" class="edge"><title>Node11&#45;&gt;Node10</title>
<path fill="none" stroke="midnightblue" d="M307.664,-90.5457C320.783,-92.6211 334.585,-94.8045 347.816,-96.8975"/>
<polygon fill="midnightblue" stroke="midnightblue" points="347.378,-100.372 357.802,-98.4771 348.472,-93.4575 347.378,-100.372"/>
</g>
</g>
</svg>
        <g id="navigator" transform="translate(0 0)" fill="#404254">
                <rect fill="#f2f5e9" fill-opacity="0.5" stroke="#606060" stroke-width=".5" x="0" y="0" width="60" height="60"/>
                <use id="zoomplus" xlink:href="#zoomPlus" x="17" y="9" onmousedown="handleZoom(evt,'in')"/>
                <use id="zoomminus" xlink:href="#zoomMin" x="42" y="9" onmousedown="handleZoom(evt,'out')"/>
                <use id="reset" xlink:href="#resetDef" x="30" y="36" onmousedown="handleReset()"/>
                <g id="arrowUp" xlink:href="#dirArrow" transform="translate(30 24)" onmousedown="handlePan(0,-1)">
                  <use xlink:href="#rim" fill="#404040">
                        <set attributeName="fill" to="#808080" begin="arrowUp.mouseover" end="arrowUp.mouseout"/>
                  </use>
                  <path fill="none" stroke="white" stroke-width="1.5" d="M0,-3.0v7 M-2.5,-0.5L0,-3.0L2.5,-0.5"/>
                </g>
                <g id="arrowRight" xlink:href="#dirArrow" transform="rotate(90) translate(36 -43)" onmousedown="handlePan(1,0)">
                  <use xlink:href="#rim" fill="#404040">
                        <set attributeName="fill" to="#808080" begin="arrowRight.mouseover" end="arrowRight.mouseout"/>
                  </use>
                  <path fill="none" stroke="white" stroke-width="1.5" d="M0,-3.0v7 M-2.5,-0.5L0,-3.0L2.5,-0.5"/>
                </g>
                <g id="arrowDown" xlink:href="#dirArrow" transform="rotate(180) translate(-30 -48)" onmousedown="handlePan(0,1)">
                  <use xlink:href="#rim" fill="#404040">
                        <set attributeName="fill" to="#808080" begin="arrowDown.mouseover" end="arrowDown.mouseout"/>
                  </use>
                  <path fill="none" stroke="white" stroke-width="1.5" d="M0,-3.0v7 M-2.5,-0.5L0,-3.0L2.5,-0.5"/>
                </g>
                <g id="arrowLeft" xlink:href="#dirArrow" transform="rotate(270) translate(-36 17)" onmousedown="handlePan(-1,0)">
                  <use xlink:href="#rim" fill="#404040">
                        <set attributeName="fill" to="#808080" begin="arrowLeft.mouseover" end="arrowLeft.mouseout"/>
                  </use>
                  <path fill="none" stroke="white" stroke-width="1.5" d="M0,-3.0v7 M-2.5,-0.5L0,-3.0L2.5,-0.5"/>
                </g>
        </g>
        <svg viewBox="0 0 15 15" width="100%" height="30px" preserveAspectRatio="xMaxYMin meet">
         <g id="arrow_out" transform="scale(0.3 0.3)">
          <a xlink:href="class_rig_def_1_1_sequential_importer_a3b5fe4ea5c9ab72bab2c88845cbe144a_cgraph_org.svg" target="_base">
           <rect id="button" ry="5" rx="5" y="6" x="6" height="38" width="38"
                fill="#f2f5e9" fill-opacity="0.5" stroke="#606060" stroke-width="1.0"/>
           <path id="arrow"
             d="M 11.500037,31.436501 C 11.940474,20.09759 22.043105,11.32322 32.158766,21.979434 L 37.068811,17.246167 C 37.068811,17.246167 37.088388,32 37.088388,32 L 22.160133,31.978069 C 22.160133,31.978069 26.997745,27.140456 26.997745,27.140456 C 18.528582,18.264221 13.291696,25.230495 11.500037,31.436501 z"
             style="fill:#404040;"/>
          </a>
         </g>
        </svg>
</svg>
