<?xml version="1.0" encoding="UTF-8" standalone="no"?>
<!DOCTYPE svg PUBLIC "-//W3C//DTD SVG 1.1//EN"
 "http://www.w3.org/Graphics/SVG/1.1/DTD/svg11.dtd">
<!-- Generated by graphviz version 2.36.0 (20140111.2315)
 -->
<!-- Title: TorqueCurve::spaceCurveEvenly Pages: 1 -->
<svg width="844pt" height="332pt"
 viewBox="0.00 0.00 844.00 332.00" xmlns="http://www.w3.org/2000/svg" xmlns:xlink="http://www.w3.org/1999/xlink">
<g id="graph0" class="graph" transform="scale(1 1) rotate(0) translate(4 328)">
<title>TorqueCurve::spaceCurveEvenly</title>
<polygon fill="white" stroke="none" points="-4,4 -4,-328 840,-328 840,4 -4,4"/>
<!-- Node1 -->
<g id="node1" class="node"><title>Node1</title>
<polygon fill="#bfbfbf" stroke="black" points="0.5,-152.5 0.5,-171.5 161.5,-171.5 161.5,-152.5 0.5,-152.5"/>
<text text-anchor="middle" x="81" y="-159.5" font-family="Helvetica,sans-Serif" font-size="10.00">TorqueCurve::spaceCurveEvenly</text>
</g>
<!-- Node2 -->
<g id="node2" class="node"><title>Node2</title>
<g id="a_node2"><a xlink:href="namespaceutf8.html#a75394fbfe91b1122e2602a6d73c5f612" target="_top" xlink:title="utf8::distance">
<polygon fill="white" stroke="black" points="198,-152.5 198,-171.5 274,-171.5 274,-152.5 198,-152.5"/>
<text text-anchor="middle" x="236" y="-159.5" font-family="Helvetica,sans-Serif" font-size="10.00">utf8::distance</text>
</a>
</g>
</g>
<!-- Node1&#45;&gt;Node2 -->
<g id="edge1" class="edge"><title>Node1&#45;&gt;Node2</title>
<path fill="none" stroke="midnightblue" d="M161.637,-162C170.52,-162 179.347,-162 187.637,-162"/>
<polygon fill="midnightblue" stroke="midnightblue" points="187.815,-165.5 197.815,-162 187.815,-158.5 187.815,-165.5"/>
</g>
<!-- Node3 -->
<g id="node3" class="node"><title>Node3</title>
<g id="a_node3"><a xlink:href="namespaceutf8.html#afc093dfde66a6f52cb4a5caefe0e580d" target="_top" xlink:title="utf8::next">
<polygon fill="white" stroke="black" points="310,-152.5 310,-171.5 368,-171.5 368,-152.5 310,-152.5"/>
<text text-anchor="middle" x="339" y="-159.5" font-family="Helvetica,sans-Serif" font-size="10.00">utf8::next</text>
</a>
</g>
</g>
<!-- Node2&#45;&gt;Node3 -->
<g id="edge2" class="edge"><title>Node2&#45;&gt;Node3</title>
<path fill="none" stroke="midnightblue" d="M274.035,-162C282.348,-162 291.186,-162 299.555,-162"/>
<polygon fill="midnightblue" stroke="midnightblue" points="299.83,-165.5 309.83,-162 299.83,-158.5 299.83,-165.5"/>
</g>
<!-- Node4 -->
<g id="node4" class="node"><title>Node4</title>
<g id="a_node4"><a xlink:href="namespaceutf8_1_1internal.html#abe95547575fcc81911e381df03f8ebfe" target="_top" xlink:title="utf8::internal::validate_next">
<polygon fill="white" stroke="black" points="404,-152.5 404,-171.5 538,-171.5 538,-152.5 404,-152.5"/>
<text text-anchor="middle" x="471" y="-159.5" font-family="Helvetica,sans-Serif" font-size="10.00">utf8::internal::validate_next</text>
</a>
</g>
</g>
<!-- Node3&#45;&gt;Node4 -->
<g id="edge3" class="edge"><title>Node3&#45;&gt;Node4</title>
<path fill="none" stroke="midnightblue" d="M368.208,-162C375.913,-162 384.645,-162 393.679,-162"/>
<polygon fill="midnightblue" stroke="midnightblue" points="393.968,-165.5 403.968,-162 393.968,-158.5 393.968,-165.5"/>
</g>
<!-- Node5 -->
<g id="node5" class="node"><title>Node5</title>
<g id="a_node5"><a xlink:href="namespaceutf8_1_1internal.html#aadbe437cba7bfcc4df2638f633e9787c" target="_top" xlink:title="utf8::internal::sequence\l_length">
<polygon fill="white" stroke="black" points="574.5,-294 574.5,-324 693.5,-324 693.5,-294 574.5,-294"/>
<text text-anchor="start" x="582.5" y="-312" font-family="Helvetica,sans-Serif" font-size="10.00">utf8::internal::sequence</text>
<text text-anchor="middle" x="634" y="-301" font-family="Helvetica,sans-Serif" font-size="10.00">_length</text>
</a>
</g>
</g>
<!-- Node4&#45;&gt;Node5 -->
<g id="edge4" class="edge"><title>Node4&#45;&gt;Node5</title>
<path fill="none" stroke="midnightblue" d="M477.719,-171.564C491.588,-194.035 529.189,-250.802 574,-284 576.346,-285.738 578.832,-287.383 581.404,-288.935"/>
<polygon fill="midnightblue" stroke="midnightblue" points="579.947,-292.128 590.4,-293.856 583.306,-285.987 579.947,-292.128"/>
</g>
<!-- Node7 -->
<g id="node7" class="node"><title>Node7</title>
<g id="a_node7"><a xlink:href="namespaceutf8_1_1internal.html#a6e5df73716136aec55e8fcf3309038b6" target="_top" xlink:title="get_sequence_x functions decode utf&#45;8 sequences of the length x ">
<polygon fill="white" stroke="black" points="589,-245 589,-275 679,-275 679,-245 589,-245"/>
<text text-anchor="start" x="597" y="-263" font-family="Helvetica,sans-Serif" font-size="10.00">utf8::internal::get</text>
<text text-anchor="middle" x="634" y="-252" font-family="Helvetica,sans-Serif" font-size="10.00">_sequence_1</text>
</a>
</g>
</g>
<!-- Node4&#45;&gt;Node7 -->
<g id="edge6" class="edge"><title>Node4&#45;&gt;Node7</title>
<path fill="none" stroke="midnightblue" d="M483.672,-171.668C502.054,-186.582 539.24,-215.512 574,-235 577.449,-236.934 581.078,-238.813 584.771,-240.615"/>
<polygon fill="midnightblue" stroke="midnightblue" points="583.47,-243.87 594.012,-244.922 586.427,-237.525 583.47,-243.87"/>
</g>
<!-- Node8 -->
<g id="node8" class="node"><title>Node8</title>
<g id="a_node8"><a xlink:href="namespaceutf8_1_1internal.html#a9d641b9546be985f9f0fd4955ac42a24" target="_top" xlink:title="utf8::internal::get\l_sequence_2">
<polygon fill="white" stroke="black" points="589,-196 589,-226 679,-226 679,-196 589,-196"/>
<text text-anchor="start" x="597" y="-214" font-family="Helvetica,sans-Serif" font-size="10.00">utf8::internal::get</text>
<text text-anchor="middle" x="634" y="-203" font-family="Helvetica,sans-Serif" font-size="10.00">_sequence_2</text>
</a>
</g>
</g>
<!-- Node4&#45;&gt;Node8 -->
<g id="edge8" class="edge"><title>Node4&#45;&gt;Node8</title>
<path fill="none" stroke="midnightblue" d="M503.425,-171.564C524.914,-178.104 553.949,-186.941 579.087,-194.592"/>
<polygon fill="midnightblue" stroke="midnightblue" points="578.279,-198.004 588.865,-197.568 580.317,-191.307 578.279,-198.004"/>
</g>
<!-- Node9 -->
<g id="node9" class="node"><title>Node9</title>
<g id="a_node9"><a xlink:href="namespaceutf8_1_1internal.html#ac1809a1fb3fa6983d64a0d3a39646008" target="_top" xlink:title="utf8::internal::get\l_sequence_3">
<polygon fill="white" stroke="black" points="589,-147 589,-177 679,-177 679,-147 589,-147"/>
<text text-anchor="start" x="597" y="-165" font-family="Helvetica,sans-Serif" font-size="10.00">utf8::internal::get</text>
<text text-anchor="middle" x="634" y="-154" font-family="Helvetica,sans-Serif" font-size="10.00">_sequence_3</text>
</a>
</g>
</g>
<!-- Node4&#45;&gt;Node9 -->
<g id="edge10" class="edge"><title>Node4&#45;&gt;Node9</title>
<path fill="none" stroke="midnightblue" d="M538.414,-162C551.811,-162 565.744,-162 578.668,-162"/>
<polygon fill="midnightblue" stroke="midnightblue" points="578.786,-165.5 588.786,-162 578.786,-158.5 578.786,-165.5"/>
</g>
<!-- Node10 -->
<g id="node10" class="node"><title>Node10</title>
<g id="a_node10"><a xlink:href="namespaceutf8_1_1internal.html#ad1958e7c6746ba6b1fbb0d81b88b346c" target="_top" xlink:title="utf8::internal::get\l_sequence_4">
<polygon fill="white" stroke="black" points="589,-98 589,-128 679,-128 679,-98 589,-98"/>
<text text-anchor="start" x="597" y="-116" font-family="Helvetica,sans-Serif" font-size="10.00">utf8::internal::get</text>
<text text-anchor="middle" x="634" y="-105" font-family="Helvetica,sans-Serif" font-size="10.00">_sequence_4</text>
</a>
</g>
</g>
<!-- Node4&#45;&gt;Node10 -->
<g id="edge12" class="edge"><title>Node4&#45;&gt;Node10</title>
<path fill="none" stroke="midnightblue" d="M503.425,-152.436C524.914,-145.896 553.949,-137.059 579.087,-129.408"/>
<polygon fill="midnightblue" stroke="midnightblue" points="580.317,-132.693 588.865,-126.432 578.279,-125.996 580.317,-132.693"/>
</g>
<!-- Node11 -->
<g id="node11" class="node"><title>Node11</title>
<g id="a_node11"><a xlink:href="namespaceutf8_1_1internal.html#a97b553137aaeda6e8ca6f8d46f78fd79" target="_top" xlink:title="utf8::internal::is\l_code_point_valid">
<polygon fill="white" stroke="black" points="586.5,-49 586.5,-79 681.5,-79 681.5,-49 586.5,-49"/>
<text text-anchor="start" x="594.5" y="-67" font-family="Helvetica,sans-Serif" font-size="10.00">utf8::internal::is</text>
<text text-anchor="middle" x="634" y="-56" font-family="Helvetica,sans-Serif" font-size="10.00">_code_point_valid</text>
</a>
</g>
</g>
<!-- Node4&#45;&gt;Node11 -->
<g id="edge14" class="edge"><title>Node4&#45;&gt;Node11</title>
<path fill="none" stroke="midnightblue" d="M483.672,-152.332C502.054,-137.418 539.24,-108.488 574,-89 577.449,-87.0661 581.078,-85.1873 584.771,-83.3855"/>
<polygon fill="midnightblue" stroke="midnightblue" points="586.427,-86.4749 594.012,-79.0779 583.47,-80.1302 586.427,-86.4749"/>
</g>
<!-- Node13 -->
<g id="node13" class="node"><title>Node13</title>
<g id="a_node13"><a xlink:href="namespaceutf8_1_1internal.html#a3160f6f24dff465f64f83cb0e66995c6" target="_top" xlink:title="utf8::internal::is\l_overlong_sequence">
<polygon fill="white" stroke="black" points="581,-0 581,-30 687,-30 687,-0 581,-0"/>
<text text-anchor="start" x="589" y="-18" font-family="Helvetica,sans-Serif" font-size="10.00">utf8::internal::is</text>
<text text-anchor="middle" x="634" y="-7" font-family="Helvetica,sans-Serif" font-size="10.00">_overlong_sequence</text>
</a>
</g>
</g>
<!-- Node4&#45;&gt;Node13 -->
<g id="edge16" class="edge"><title>Node4&#45;&gt;Node13</title>
<path fill="none" stroke="midnightblue" d="M477.719,-152.436C491.588,-129.965 529.189,-73.1979 574,-40 576.346,-38.2616 578.832,-36.6169 581.404,-35.0649"/>
<polygon fill="midnightblue" stroke="midnightblue" points="583.306,-38.0135 590.4,-30.144 579.947,-31.8721 583.306,-38.0135"/>
</g>
<!-- Node6 -->
<g id="node6" class="node"><title>Node6</title>
<g id="a_node6"><a xlink:href="namespaceutf8_1_1internal.html#adf6e0469e279b9562aa461b4c3c1e7e4" target="_top" xlink:title="utf8::internal::mask8">
<polygon fill="white" stroke="black" points="730,-201.5 730,-220.5 836,-220.5 836,-201.5 730,-201.5"/>
<text text-anchor="middle" x="783" y="-208.5" font-family="Helvetica,sans-Serif" font-size="10.00">utf8::internal::mask8</text>
</a>
</g>
</g>
<!-- Node5&#45;&gt;Node6 -->
<g id="edge5" class="edge"><title>Node5&#45;&gt;Node6</title>
<path fill="none" stroke="midnightblue" d="M675.143,-293.866C681.609,-290.9 688.108,-287.585 694,-284 720.814,-267.684 748.077,-243.673 765.005,-227.697"/>
<polygon fill="midnightblue" stroke="midnightblue" points="767.642,-230.017 772.437,-220.57 762.797,-224.965 767.642,-230.017"/>
</g>
<!-- Node7&#45;&gt;Node6 -->
<g id="edge7" class="edge"><title>Node7&#45;&gt;Node6</title>
<path fill="none" stroke="midnightblue" d="M679.105,-245.298C699.651,-238.45 723.867,-230.378 743.643,-223.786"/>
<polygon fill="midnightblue" stroke="midnightblue" points="744.868,-227.067 753.248,-220.584 742.654,-220.426 744.868,-227.067"/>
</g>
<!-- Node8&#45;&gt;Node6 -->
<g id="edge9" class="edge"><title>Node8&#45;&gt;Node6</title>
<path fill="none" stroke="midnightblue" d="M679.105,-211C691.842,-211 705.989,-211 719.614,-211"/>
<polygon fill="midnightblue" stroke="midnightblue" points="719.9,-214.5 729.9,-211 719.9,-207.5 719.9,-214.5"/>
</g>
<!-- Node9&#45;&gt;Node6 -->
<g id="edge11" class="edge"><title>Node9&#45;&gt;Node6</title>
<path fill="none" stroke="midnightblue" d="M679.105,-176.702C699.651,-183.55 723.867,-191.622 743.643,-198.214"/>
<polygon fill="midnightblue" stroke="midnightblue" points="742.654,-201.574 753.248,-201.416 744.868,-194.933 742.654,-201.574"/>
</g>
<!-- Node10&#45;&gt;Node6 -->
<g id="edge13" class="edge"><title>Node10&#45;&gt;Node6</title>
<path fill="none" stroke="midnightblue" d="M675.143,-128.134C681.609,-131.1 688.108,-134.415 694,-138 720.814,-154.316 748.077,-178.327 765.005,-194.303"/>
<polygon fill="midnightblue" stroke="midnightblue" points="762.797,-197.035 772.437,-201.43 767.642,-191.983 762.797,-197.035"/>
</g>
<!-- Node12 -->
<g id="node12" class="node"><title>Node12</title>
<g id="a_node12"><a xlink:href="namespaceutf8_1_1internal.html#a31a185a6bc8b9bf454191a8a95a93595" target="_top" xlink:title="utf8::internal::is\l_surrogate">
<polygon fill="white" stroke="black" points="741,-49 741,-79 825,-79 825,-49 741,-49"/>
<text text-anchor="start" x="749" y="-67" font-family="Helvetica,sans-Serif" font-size="10.00">utf8::internal::is</text>
<text text-anchor="middle" x="783" y="-56" font-family="Helvetica,sans-Serif" font-size="10.00">_surrogate</text>
</a>
</g>
</g>
<!-- Node11&#45;&gt;Node12 -->
<g id="edge15" class="edge"><title>Node11&#45;&gt;Node12</title>
<path fill="none" stroke="midnightblue" d="M681.512,-64C697.106,-64 714.582,-64 730.532,-64"/>
<polygon fill="midnightblue" stroke="midnightblue" points="730.759,-67.5001 740.759,-64 730.759,-60.5001 730.759,-67.5001"/>
</g>
</g>
</svg>
