<?xml version="1.0" encoding="UTF-8" standalone="no"?>
<!DOCTYPE svg PUBLIC "-//W3C//DTD SVG 1.1//EN"
 "http://www.w3.org/Graphics/SVG/1.1/DTD/svg11.dtd">
<!-- Generated by graphviz version 2.36.0 (20140111.2315)
 -->
<!-- Title: ThreadPool::RunTask Pages: 1 -->
<svg width="862pt" height="164pt"
 viewBox="0.00 0.00 862.00 164.00" xmlns="http://www.w3.org/2000/svg" xmlns:xlink="http://www.w3.org/1999/xlink">
<g id="graph0" class="graph" transform="scale(1 1) rotate(0) translate(4 160)">
<title>ThreadPool::RunTask</title>
<polygon fill="white" stroke="none" points="-4,4 -4,-160 858,-160 858,4 -4,4"/>
<!-- Node1 -->
<g id="node1" class="node"><title>Node1</title>
<polygon fill="#bfbfbf" stroke="black" points="0,-47.5 0,-66.5 112,-66.5 112,-47.5 0,-47.5"/>
<text text-anchor="middle" x="56" y="-54.5" font-family="Helvetica,sans-Serif" font-size="10.00">ThreadPool::RunTask</text>
</g>
<!-- Node2 -->
<g id="node2" class="node"><title>Node2</title>
<g id="a_node2"><a xlink:href="class_beam.html#af699a6dc8e304af65ef4b2e6d616ed8a" target="_top" xlink:title="Beam::updateFlexbodiesPrepare">
<polygon fill="white" stroke="black" points="148,-68.5 148,-87.5 306,-87.5 306,-68.5 148,-68.5"/>
<text text-anchor="middle" x="227" y="-75.5" font-family="Helvetica,sans-Serif" font-size="10.00">Beam::updateFlexbodiesPrepare</text>
</a>
</g>
</g>
<!-- Node1&#45;&gt;Node2 -->
<g id="edge1" class="edge"><title>Node1&#45;&gt;Node2</title>
<path fill="none" stroke="midnightblue" d="M122.51,-65.1402C131.309,-66.2337 140.399,-67.3632 149.369,-68.4778"/>
<polygon fill="midnightblue" stroke="midnightblue" points="122.692,-61.6361 112.337,-63.8762 121.829,-68.5827 122.692,-61.6361"/>
</g>
<!-- Node8 -->
<g id="node8" class="node"><title>Node8</title>
<g id="a_node8"><a xlink:href="class_thread_pool.html#af914d6d908301bc5f316c4219caf8a11" target="_top" xlink:title="Run collection of tasks in parallel and wait until all have finished. ">
<polygon fill="white" stroke="black" points="168.5,-27.5 168.5,-46.5 285.5,-46.5 285.5,-27.5 168.5,-27.5"/>
<text text-anchor="middle" x="227" y="-34.5" font-family="Helvetica,sans-Serif" font-size="10.00">ThreadPool::Parallelize</text>
</a>
</g>
</g>
<!-- Node1&#45;&gt;Node8 -->
<g id="edge8" class="edge"><title>Node1&#45;&gt;Node8</title>
<path fill="none" stroke="midnightblue" d="M122.594,-49.2375C137.639,-47.4569 153.528,-45.5765 168.217,-43.8383"/>
<polygon fill="midnightblue" stroke="midnightblue" points="121.856,-45.8002 112.337,-50.4513 122.679,-52.7517 121.856,-45.8002"/>
</g>
<!-- Node3 -->
<g id="node3" class="node"><title>Node3</title>
<g id="a_node3"><a xlink:href="class_ro_r_frame_listener.html#abc123f9d1e56e13a72e5f80fdaa5a17e" target="_top" xlink:title="RoRFrameListener::Finalize\lTruckSpawning">
<polygon fill="white" stroke="black" points="342.5,-126 342.5,-156 481.5,-156 481.5,-126 342.5,-126"/>
<text text-anchor="start" x="350.5" y="-144" font-family="Helvetica,sans-Serif" font-size="10.00">RoRFrameListener::Finalize</text>
<text text-anchor="middle" x="412" y="-133" font-family="Helvetica,sans-Serif" font-size="10.00">TruckSpawning</text>
</a>
</g>
</g>
<!-- Node2&#45;&gt;Node3 -->
<g id="edge2" class="edge"><title>Node2&#45;&gt;Node3</title>
<path fill="none" stroke="midnightblue" d="M265.326,-90.8499C294.857,-101.016 336.154,-115.233 367.24,-125.935"/>
<polygon fill="midnightblue" stroke="midnightblue" points="266.388,-87.5142 255.794,-87.5683 264.11,-94.1329 266.388,-87.5142"/>
</g>
<!-- Node6 -->
<g id="node6" class="node"><title>Node6</title>
<g id="a_node6"><a xlink:href="class_beam.html#a0d55b25fa0d1623305f3ac51694cbd42" target="_top" xlink:title="Beam::Beam">
<polygon fill="white" stroke="black" points="375,-87.5 375,-106.5 449,-106.5 449,-87.5 375,-87.5"/>
<text text-anchor="middle" x="412" y="-94.5" font-family="Helvetica,sans-Serif" font-size="10.00">Beam::Beam</text>
</a>
</g>
</g>
<!-- Node2&#45;&gt;Node6 -->
<g id="edge5" class="edge"><title>Node2&#45;&gt;Node6</title>
<path fill="none" stroke="midnightblue" d="M316.276,-87.1653C337,-89.3169 357.944,-91.4915 374.85,-93.2467"/>
<polygon fill="midnightblue" stroke="midnightblue" points="316.447,-83.6643 306.139,-86.1128 315.724,-90.6269 316.447,-83.6643"/>
</g>
<!-- Node7 -->
<g id="node7" class="node"><title>Node7</title>
<g id="a_node7"><a xlink:href="class_ro_r_1_1_beam_factory.html#a422abac5067d57e32e2a586062d52742" target="_top" xlink:title="RoR::BeamFactory::update\lFlexbodiesPrepare">
<polygon fill="white" stroke="black" points="518.5,-44 518.5,-74 655.5,-74 655.5,-44 518.5,-44"/>
<text text-anchor="start" x="526.5" y="-62" font-family="Helvetica,sans-Serif" font-size="10.00">RoR::BeamFactory::update</text>
<text text-anchor="middle" x="587" y="-51" font-family="Helvetica,sans-Serif" font-size="10.00">FlexbodiesPrepare</text>
</a>
</g>
</g>
<!-- Node2&#45;&gt;Node7 -->
<g id="edge6" class="edge"><title>Node2&#45;&gt;Node7</title>
<path fill="none" stroke="midnightblue" d="M316.348,-73.3111C378.736,-70 461.084,-65.6296 518.291,-62.5935"/>
<polygon fill="midnightblue" stroke="midnightblue" points="315.923,-69.8287 306.122,-73.8538 316.294,-76.8189 315.923,-69.8287"/>
</g>
<!-- Node4 -->
<g id="node4" class="node"><title>Node4</title>
<g id="a_node4"><a xlink:href="class_ro_r_frame_listener.html#afec2a0f00ed552c21d22aae76329bf38" target="_top" xlink:title="RoRFrameListener::Update\lInputEvents">
<polygon fill="white" stroke="black" points="518.5,-109 518.5,-139 655.5,-139 655.5,-109 518.5,-109"/>
<text text-anchor="start" x="526.5" y="-127" font-family="Helvetica,sans-Serif" font-size="10.00">RoRFrameListener::Update</text>
<text text-anchor="middle" x="587" y="-116" font-family="Helvetica,sans-Serif" font-size="10.00">InputEvents</text>
</a>
</g>
</g>
<!-- Node3&#45;&gt;Node4 -->
<g id="edge3" class="edge"><title>Node3&#45;&gt;Node4</title>
<path fill="none" stroke="midnightblue" d="M491.852,-133.252C500.751,-132.377 509.759,-131.492 518.494,-130.634"/>
<polygon fill="midnightblue" stroke="midnightblue" points="491.481,-129.771 481.871,-134.232 492.166,-136.737 491.481,-129.771"/>
</g>
<!-- Node5 -->
<g id="node5" class="node"><title>Node5</title>
<g id="a_node5"><a xlink:href="class_ro_r_frame_listener.html#acd8647e188fb8e838689492965b86faf" target="_top" xlink:title="RoRFrameListener::frameStarted">
<polygon fill="white" stroke="black" points="692.5,-49.5 692.5,-68.5 853.5,-68.5 853.5,-49.5 692.5,-49.5"/>
<text text-anchor="middle" x="773" y="-56.5" font-family="Helvetica,sans-Serif" font-size="10.00">RoRFrameListener::frameStarted</text>
</a>
</g>
</g>
<!-- Node4&#45;&gt;Node5 -->
<g id="edge4" class="edge"><title>Node4&#45;&gt;Node5</title>
<path fill="none" stroke="midnightblue" d="M640.484,-105.459C674.567,-93.4194 717.582,-78.2236 744.949,-68.556"/>
<polygon fill="midnightblue" stroke="midnightblue" points="638.939,-102.293 630.676,-108.924 641.271,-108.894 638.939,-102.293"/>
</g>
<!-- Node7&#45;&gt;Node5 -->
<g id="edge7" class="edge"><title>Node7&#45;&gt;Node5</title>
<path fill="none" stroke="midnightblue" d="M665.879,-59C674.608,-59 683.511,-59 692.263,-59"/>
<polygon fill="midnightblue" stroke="midnightblue" points="665.731,-55.5001 655.731,-59 665.731,-62.5001 665.731,-55.5001"/>
</g>
<!-- Node9 -->
<g id="node9" class="node"><title>Node9</title>
<g id="a_node9"><a xlink:href="class_ro_r_1_1_beam_factory.html#ac25b17e65074996433c472da5028fed1" target="_top" xlink:title="RoR::BeamFactory::Update\lPhysicsSimulation">
<polygon fill="white" stroke="black" points="342.5,-0 342.5,-30 481.5,-30 481.5,-0 342.5,-0"/>
<text text-anchor="start" x="350.5" y="-18" font-family="Helvetica,sans-Serif" font-size="10.00">RoR::BeamFactory::Update</text>
<text text-anchor="middle" x="412" y="-7" font-family="Helvetica,sans-Serif" font-size="10.00">PhysicsSimulation</text>
</a>
</g>
</g>
<!-- Node8&#45;&gt;Node9 -->
<g id="edge9" class="edge"><title>Node8&#45;&gt;Node9</title>
<path fill="none" stroke="midnightblue" d="M295.98,-28.8275C311.145,-27.0044 327.235,-25.0701 342.424,-23.2441"/>
<polygon fill="midnightblue" stroke="midnightblue" points="295.162,-25.4006 285.651,-30.0693 295.997,-32.3506 295.162,-25.4006"/>
</g>
<!-- Node10 -->
<g id="node10" class="node"><title>Node10</title>
<g id="a_node10"><a xlink:href="class_ro_r_1_1_beam_factory.html#a87e6c050f0af4ef2e39976749ac9762c" target="_top" xlink:title="RoR::BeamFactory::update">
<polygon fill="white" stroke="black" points="518.5,-5.5 518.5,-24.5 655.5,-24.5 655.5,-5.5 518.5,-5.5"/>
<text text-anchor="middle" x="587" y="-12.5" font-family="Helvetica,sans-Serif" font-size="10.00">RoR::BeamFactory::update</text>
</a>
</g>
</g>
<!-- Node9&#45;&gt;Node10 -->
<g id="edge10" class="edge"><title>Node9&#45;&gt;Node10</title>
<path fill="none" stroke="midnightblue" d="M492.139,-15C500.945,-15 509.852,-15 518.494,-15"/>
<polygon fill="midnightblue" stroke="midnightblue" points="491.871,-11.5001 481.871,-15 491.871,-18.5001 491.871,-11.5001"/>
</g>
<!-- Node10&#45;&gt;Node5 -->
<g id="edge11" class="edge"><title>Node10&#45;&gt;Node5</title>
<path fill="none" stroke="midnightblue" d="M637.665,-26.8764C667.305,-33.9642 704.442,-42.8448 732.153,-49.4713"/>
<polygon fill="midnightblue" stroke="midnightblue" points="638.465,-23.4691 627.925,-24.5473 636.837,-30.2772 638.465,-23.4691"/>
</g>
</g>
</svg>
