<?xml version="1.0" encoding="UTF-8" standalone="no"?>
<!DOCTYPE svg PUBLIC "-//W3C//DTD SVG 1.1//EN"
 "http://www.w3.org/Graphics/SVG/1.1/DTD/svg11.dtd">
<!-- Generated by graphviz version 2.36.0 (20140111.2315)
 -->
<!-- Title: RoR::GUI::GameMainMenuLayout::GameMainMenuLayout Pages: 1 -->
<svg width="608pt" height="87pt"
 viewBox="0.00 0.00 608.00 87.00" xmlns="http://www.w3.org/2000/svg" xmlns:xlink="http://www.w3.org/1999/xlink">
<g id="graph0" class="graph" transform="scale(1 1) rotate(0) translate(4 83)">
<title>RoR::GUI::GameMainMenuLayout::GameMainMenuLayout</title>
<polygon fill="white" stroke="none" points="-4,4 -4,-83 604,-83 604,4 -4,4"/>
<!-- Node1 -->
<g id="node1" class="node"><title>Node1</title>
<polygon fill="#bfbfbf" stroke="black" points="0.5,-24 0.5,-54 167.5,-54 167.5,-24 0.5,-24"/>
<text text-anchor="start" x="8.5" y="-42" font-family="Helvetica,sans-Serif" font-size="10.00">RoR::GUI::GameMainMenuLayout</text>
<text text-anchor="middle" x="84" y="-31" font-family="Helvetica,sans-Serif" font-size="10.00">::GameMainMenuLayout</text>
</g>
<!-- Node2 -->
<g id="node2" class="node"><title>Node2</title>
<g id="a_node2"><a xlink:href="classwraps_1_1_base_layout.html#aa6f806c099807cf01b238dff74538f7b" target="_top" xlink:title="wraps::BaseLayout::\linitialiseByAttributes">
<polygon fill="white" stroke="black" points="204.5,-24 204.5,-54 311.5,-54 311.5,-24 204.5,-24"/>
<text text-anchor="start" x="212.5" y="-42" font-family="Helvetica,sans-Serif" font-size="10.00">wraps::BaseLayout::</text>
<text text-anchor="middle" x="258" y="-31" font-family="Helvetica,sans-Serif" font-size="10.00">initialiseByAttributes</text>
</a>
</g>
</g>
<!-- Node1&#45;&gt;Node2 -->
<g id="edge1" class="edge"><title>Node1&#45;&gt;Node2</title>
<path fill="none" stroke="midnightblue" d="M167.725,-39C176.536,-39 185.392,-39 193.924,-39"/>
<polygon fill="midnightblue" stroke="midnightblue" points="194.145,-42.5001 204.145,-39 194.145,-35.5001 194.145,-42.5001"/>
</g>
<!-- Node3 -->
<g id="node3" class="node"><title>Node3</title>
<g id="a_node3"><a xlink:href="classwraps_1_1_base_layout.html#a259ffe59370c08268229022e9ff0e1b0" target="_top" xlink:title="wraps::BaseLayout::\linitialise">
<polygon fill="white" stroke="black" points="348.5,-49 348.5,-79 455.5,-79 455.5,-49 348.5,-49"/>
<text text-anchor="start" x="356.5" y="-67" font-family="Helvetica,sans-Serif" font-size="10.00">wraps::BaseLayout::</text>
<text text-anchor="middle" x="402" y="-56" font-family="Helvetica,sans-Serif" font-size="10.00">initialise</text>
</a>
</g>
</g>
<!-- Node2&#45;&gt;Node3 -->
<g id="edge2" class="edge"><title>Node2&#45;&gt;Node3</title>
<path fill="none" stroke="midnightblue" d="M311.876,-48.3091C320.377,-49.8058 329.25,-51.3679 337.961,-52.9015"/>
<polygon fill="midnightblue" stroke="midnightblue" points="337.625,-56.3962 348.08,-54.6831 338.839,-49.5022 337.625,-56.3962"/>
</g>
<!-- Node5 -->
<g id="node5" class="node"><title>Node5</title>
<g id="a_node5"><a xlink:href="classwraps_1_1_base_layout.html#a2dbd783151c111ebba363adf2cb53622" target="_top" xlink:title="wraps::BaseLayout::\lassignWidget">
<polygon fill="white" stroke="black" points="348.5,-0 348.5,-30 455.5,-30 455.5,-0 348.5,-0"/>
<text text-anchor="start" x="356.5" y="-18" font-family="Helvetica,sans-Serif" font-size="10.00">wraps::BaseLayout::</text>
<text text-anchor="middle" x="402" y="-7" font-family="Helvetica,sans-Serif" font-size="10.00">assignWidget</text>
</a>
</g>
</g>
<!-- Node2&#45;&gt;Node5 -->
<g id="edge4" class="edge"><title>Node2&#45;&gt;Node5</title>
<path fill="none" stroke="midnightblue" d="M311.876,-30.0633C320.377,-28.6264 329.25,-27.1268 337.961,-25.6545"/>
<polygon fill="midnightblue" stroke="midnightblue" points="338.803,-29.0618 348.08,-23.9442 337.637,-22.1597 338.803,-29.0618"/>
</g>
<!-- Node4 -->
<g id="node4" class="node"><title>Node4</title>
<g id="a_node4"><a xlink:href="classwraps_1_1_base_layout.html#a1fcf2ea81000efa2c14828cc67d4aeb6" target="_top" xlink:title="wraps::BaseLayout::\lsnapToParent">
<polygon fill="white" stroke="black" points="492.5,-49 492.5,-79 599.5,-79 599.5,-49 492.5,-49"/>
<text text-anchor="start" x="500.5" y="-67" font-family="Helvetica,sans-Serif" font-size="10.00">wraps::BaseLayout::</text>
<text text-anchor="middle" x="546" y="-56" font-family="Helvetica,sans-Serif" font-size="10.00">snapToParent</text>
</a>
</g>
</g>
<!-- Node3&#45;&gt;Node4 -->
<g id="edge3" class="edge"><title>Node3&#45;&gt;Node4</title>
<path fill="none" stroke="midnightblue" d="M455.876,-64C464.377,-64 473.25,-64 481.961,-64"/>
<polygon fill="midnightblue" stroke="midnightblue" points="482.08,-67.5001 492.08,-64 482.08,-60.5001 482.08,-67.5001"/>
</g>
</g>
</svg>
