<?xml version="1.0" encoding="UTF-8" standalone="no"?>
<!DOCTYPE svg PUBLIC "-//W3C//DTD SVG 1.1//EN"
 "http://www.w3.org/Graphics/SVG/1.1/DTD/svg11.dtd">
<!-- Generated by graphviz version 2.36.0 (20140111.2315)
 -->
<!-- Title: RigDef::Parser::ParseWing Pages: 1 -->
<!--zoomable 197 -->
<svg id="main" version="1.1" xmlns="http://www.w3.org/2000/svg" xmlns:xlink="http://www.w3.org/1999/xlink" xml:space="preserve" onload="init(evt)">
<style type="text/css"><![CDATA[
.edge:hover path { stroke: red; }
.edge:hover polygon { stroke: red; fill: red; }
]]></style>
<script type="text/javascript"><![CDATA[
var edges = document.getElementsByTagName('g');
if (edges && edges.length) {
  for (var i=0;i<edges.length;i++) {
    if (edges[i].id.substr(0,4)=='edge') {
      edges[i].setAttribute('class','edge');
    }
  }
}
]]></script>
        <defs>
                <circle id="rim" cx="0" cy="0" r="7"/>
                <circle id="rim2" cx="0" cy="0" r="3.5"/>
                <g id="zoomPlus">
                        <use xlink:href="#rim" fill="#404040">
                                <set attributeName="fill" to="#808080" begin="zoomplus.mouseover" end="zoomplus.mouseout"/>
                        </use>
                        <path d="M-4,0h8M0,-4v8" fill="none" stroke="white" stroke-width="1.5" pointer-events="none"/>
                </g>
                <g id="zoomMin">
                        <use xlink:href="#rim" fill="#404040">
                                <set attributeName="fill" to="#808080" begin="zoomminus.mouseover" end="zoomminus.mouseout"/>
                        </use>
                        <path d="M-4,0h8" fill="none" stroke="white" stroke-width="1.5" pointer-events="none"/>
                </g>
                <g id="dirArrow">
                        <path fill="none" stroke="white" stroke-width="1.5" d="M0,-3.0v7 M-2.5,-0.5L0,-3.0L2.5,-0.5"/>
                </g>
               <g id="resetDef">
                       <use xlink:href="#rim2" fill="#404040">
                               <set attributeName="fill" to="#808080" begin="reset.mouseover" end="reset.mouseout"/>
                       </use>
               </g>
        </defs>

<script type="text/javascript">
var viewWidth = 714;
var viewHeight = 197;
var sectionId = 'dynsection-226';
</script>
<script xlink:href="svgpan.js"/>
<svg id="graph" class="graph">
<g id="viewport">
<title>RigDef::Parser::ParseWing</title>
<polygon fill="white" stroke="none" points="-4,4 -4,-193 710,-193 710,4 -4,4"/>
<!-- Node1 -->
<g id="node1" class="node"><title>Node1</title>
<polygon fill="#bfbfbf" stroke="black" points="0,-87.5 0,-106.5 136,-106.5 136,-87.5 0,-87.5"/>
<text text-anchor="middle" x="68" y="-94.5" font-family="Helvetica,sans-Serif" font-size="10.00">RigDef::Parser::ParseWing</text>
</g>
<!-- Node2 -->
<g id="node2" class="node"><title>Node2</title>
<g id="a_node2"><a xlink:href="class_rig_def_1_1_parser.html#a8397c243299359e21a84243c01ca43bf" target="_top" xlink:title="RigDef::Parser::CheckNum\lArguments">
<polygon fill="white" stroke="black" points="376.5,-123 376.5,-153 513.5,-153 513.5,-123 376.5,-123"/>
<text text-anchor="start" x="384.5" y="-141" font-family="Helvetica,sans-Serif" font-size="10.00">RigDef::Parser::CheckNum</text>
<text text-anchor="middle" x="445" y="-130" font-family="Helvetica,sans-Serif" font-size="10.00">Arguments</text>
</a>
</g>
</g>
<!-- Node1&#45;&gt;Node2 -->
<g id="edge1" class="edge"><title>Node1&#45;&gt;Node2</title>
<path fill="none" stroke="midnightblue" d="M103.528,-106.562C123.399,-111.682 148.929,-117.615 172,-121 236.979,-130.533 311.458,-134.726 366.032,-136.567"/>
<polygon fill="midnightblue" stroke="midnightblue" points="366.222,-140.075 376.328,-136.895 366.445,-133.079 366.222,-140.075"/>
</g>
<!-- Node4 -->
<g id="node4" class="node"><title>Node4</title>
<g id="a_node4"><a xlink:href="class_rig_def_1_1_parser.html#a57b7efa0a566ae343d6148a05d420eae" target="_top" xlink:title="RigDef::Parser::GetArgNodeRef">
<polygon fill="white" stroke="black" points="172,-5.5 172,-24.5 330,-24.5 330,-5.5 172,-5.5"/>
<text text-anchor="middle" x="251" y="-12.5" font-family="Helvetica,sans-Serif" font-size="10.00">RigDef::Parser::GetArgNodeRef</text>
</a>
</g>
</g>
<!-- Node1&#45;&gt;Node4 -->
<g id="edge3" class="edge"><title>Node1&#45;&gt;Node4</title>
<path fill="none" stroke="midnightblue" d="M83.8344,-87.2973C103.397,-74.8222 139.19,-53.092 172,-39 181.964,-34.7205 192.942,-30.8546 203.438,-27.5375"/>
<polygon fill="midnightblue" stroke="midnightblue" points="204.759,-30.7939 213.304,-24.5299 202.717,-24.0981 204.759,-30.7939"/>
</g>
<!-- Node7 -->
<g id="node7" class="node"><title>Node7</title>
<g id="a_node7"><a xlink:href="class_rig_def_1_1_parser.html#a629f3ff2e6181f7953ec28168b0aac00" target="_top" xlink:title="RigDef::Parser::GetArgStr">
<polygon fill="white" stroke="black" points="379.5,-43.5 379.5,-62.5 510.5,-62.5 510.5,-43.5 379.5,-43.5"/>
<text text-anchor="middle" x="445" y="-50.5" font-family="Helvetica,sans-Serif" font-size="10.00">RigDef::Parser::GetArgStr</text>
</a>
</g>
</g>
<!-- Node1&#45;&gt;Node7 -->
<g id="edge13" class="edge"><title>Node1&#45;&gt;Node7</title>
<path fill="none" stroke="midnightblue" d="M102.114,-87.4584C122.17,-82.0572 148.361,-75.6676 172,-72 238.138,-61.7385 314.189,-57.0161 369.029,-54.8446"/>
<polygon fill="midnightblue" stroke="midnightblue" points="369.498,-58.3295 379.359,-54.4557 369.235,-51.3344 369.498,-58.3295"/>
</g>
<!-- Node8 -->
<g id="node8" class="node"><title>Node8</title>
<g id="a_node8"><a xlink:href="class_rig_def_1_1_parser.html#ae77a4970494c116e98a92be7a0160a16" target="_top" xlink:title="RigDef::Parser::GetArgFloat">
<polygon fill="white" stroke="black" points="181,-169.5 181,-188.5 321,-188.5 321,-169.5 181,-169.5"/>
<text text-anchor="middle" x="251" y="-176.5" font-family="Helvetica,sans-Serif" font-size="10.00">RigDef::Parser::GetArgFloat</text>
</a>
</g>
</g>
<!-- Node1&#45;&gt;Node8 -->
<g id="edge8" class="edge"><title>Node1&#45;&gt;Node8</title>
<path fill="none" stroke="midnightblue" d="M83.8344,-106.703C103.397,-119.178 139.19,-140.908 172,-155 181.964,-159.28 192.942,-163.145 203.438,-166.462"/>
<polygon fill="midnightblue" stroke="midnightblue" points="202.717,-169.902 213.304,-169.47 204.759,-163.206 202.717,-169.902"/>
</g>
<!-- Node9 -->
<g id="node9" class="node"><title>Node9</title>
<g id="a_node9"><a xlink:href="class_rig_def_1_1_parser.html#a919e64ab89bf1b36662bee01f194be53" target="_top" xlink:title="RigDef::Parser::GetArgWing\lSurface">
<polygon fill="white" stroke="black" points="180.5,-82 180.5,-112 321.5,-112 321.5,-82 180.5,-82"/>
<text text-anchor="start" x="188.5" y="-100" font-family="Helvetica,sans-Serif" font-size="10.00">RigDef::Parser::GetArgWing</text>
<text text-anchor="middle" x="251" y="-89" font-family="Helvetica,sans-Serif" font-size="10.00">Surface</text>
</a>
</g>
</g>
<!-- Node1&#45;&gt;Node9 -->
<g id="edge10" class="edge"><title>Node1&#45;&gt;Node9</title>
<path fill="none" stroke="midnightblue" d="M136.141,-97C147.155,-97 158.666,-97 169.956,-97"/>
<polygon fill="midnightblue" stroke="midnightblue" points="170.243,-100.5 180.243,-97 170.243,-93.5001 170.243,-100.5"/>
</g>
<!-- Node3 -->
<g id="node3" class="node"><title>Node3</title>
<g id="a_node3"><a xlink:href="class_rig_def_1_1_parser.html#a7da949423835fe3241f2ac4c5ac8ebb1" target="_top" xlink:title="Adds a message to parser report. ">
<polygon fill="white" stroke="black" points="560.5,-106.5 560.5,-125.5 705.5,-125.5 705.5,-106.5 560.5,-106.5"/>
<text text-anchor="middle" x="633" y="-113.5" font-family="Helvetica,sans-Serif" font-size="10.00">RigDef::Parser::AddMessage</text>
</a>
</g>
</g>
<!-- Node2&#45;&gt;Node3 -->
<g id="edge2" class="edge"><title>Node2&#45;&gt;Node3</title>
<path fill="none" stroke="midnightblue" d="M513.676,-129.995C525.524,-128.594 537.966,-127.122 550.148,-125.681"/>
<polygon fill="midnightblue" stroke="midnightblue" points="550.782,-129.131 560.302,-124.48 549.96,-122.179 550.782,-129.131"/>
</g>
<!-- Node5 -->
<g id="node5" class="node"><title>Node5</title>
<g id="a_node5"><a xlink:href="class_rig_def_1_1_parser.html#a38e4135df406da0cc2f0fc4afb34ddb3" target="_top" xlink:title="RigDef::Parser::_ParseNodeRef">
<polygon fill="white" stroke="black" points="366,-5.5 366,-24.5 524,-24.5 524,-5.5 366,-5.5"/>
<text text-anchor="middle" x="445" y="-12.5" font-family="Helvetica,sans-Serif" font-size="10.00">RigDef::Parser::_ParseNodeRef</text>
</a>
</g>
</g>
<!-- Node4&#45;&gt;Node5 -->
<g id="edge4" class="edge"><title>Node4&#45;&gt;Node5</title>
<path fill="none" stroke="midnightblue" d="M330.094,-15C338.601,-15 347.302,-15 355.918,-15"/>
<polygon fill="midnightblue" stroke="midnightblue" points="355.975,-18.5001 365.975,-15 355.975,-11.5001 355.975,-18.5001"/>
</g>
<!-- Node4&#45;&gt;Node7 -->
<g id="edge7" class="edge"><title>Node4&#45;&gt;Node7</title>
<path fill="none" stroke="midnightblue" d="M300.45,-24.589C326.471,-29.739 358.728,-36.1232 386.069,-41.5344"/>
<polygon fill="midnightblue" stroke="midnightblue" points="385.409,-44.9718 395.899,-43.4799 386.769,-38.105 385.409,-44.9718"/>
</g>
<!-- Node5&#45;&gt;Node3 -->
<g id="edge6" class="edge"><title>Node5&#45;&gt;Node3</title>
<path fill="none" stroke="midnightblue" d="M498.22,-24.563C507.043,-27.063 515.945,-30.167 524,-34 559.499,-50.8933 594.64,-80.6392 614.785,-99.2815"/>
<polygon fill="midnightblue" stroke="midnightblue" points="612.543,-101.978 622.22,-106.292 617.346,-96.885 612.543,-101.978"/>
</g>
<!-- Node6 -->
<g id="node6" class="node"><title>Node6</title>
<g id="a_node6"><a xlink:href="class_rig_def_1_1_sequential_importer.html#a04d293d8b1f94b9a722e83715911e547" target="_top" xlink:title="RigDef::SequentialImporter\l::IsEnabled">
<polygon fill="white" stroke="black" points="565.5,-0 565.5,-30 700.5,-30 700.5,-0 565.5,-0"/>
<text text-anchor="start" x="573.5" y="-18" font-family="Helvetica,sans-Serif" font-size="10.00">RigDef::SequentialImporter</text>
<text text-anchor="middle" x="633" y="-7" font-family="Helvetica,sans-Serif" font-size="10.00">::IsEnabled</text>
</a>
</g>
</g>
<!-- Node5&#45;&gt;Node6 -->
<g id="edge5" class="edge"><title>Node5&#45;&gt;Node6</title>
<path fill="none" stroke="midnightblue" d="M524.072,-15C534.362,-15 544.902,-15 555.17,-15"/>
<polygon fill="midnightblue" stroke="midnightblue" points="555.329,-18.5001 565.329,-15 555.329,-11.5001 555.329,-18.5001"/>
</g>
<!-- Node8&#45;&gt;Node3 -->
<g id="edge9" class="edge"><title>Node8&#45;&gt;Node3</title>
<path fill="none" stroke="midnightblue" d="M321.132,-181.096C376.68,-181.254 456.32,-178.028 524,-162 553.064,-155.117 584.246,-141.039 605.596,-130.26"/>
<polygon fill="midnightblue" stroke="midnightblue" points="607.389,-133.273 614.67,-125.577 604.179,-127.053 607.389,-133.273"/>
</g>
<!-- Node9&#45;&gt;Node3 -->
<g id="edge12" class="edge"><title>Node9&#45;&gt;Node3</title>
<path fill="none" stroke="midnightblue" d="M321.698,-100.485C386.201,-103.71 482.129,-108.506 550.227,-111.911"/>
<polygon fill="midnightblue" stroke="midnightblue" points="550.324,-115.42 560.487,-112.424 550.674,-108.429 550.324,-115.42"/>
</g>
<!-- Node9&#45;&gt;Node7 -->
<g id="edge11" class="edge"><title>Node9&#45;&gt;Node7</title>
<path fill="none" stroke="midnightblue" d="M317.539,-81.9808C342.048,-76.364 369.513,-70.07 392.569,-64.7863"/>
<polygon fill="midnightblue" stroke="midnightblue" points="393.526,-68.1578 402.491,-62.5124 391.962,-61.3347 393.526,-68.1578"/>
</g>
</g>
</svg>
        <g id="navigator" transform="translate(0 0)" fill="#404254">
                <rect fill="#f2f5e9" fill-opacity="0.5" stroke="#606060" stroke-width=".5" x="0" y="0" width="60" height="60"/>
                <use id="zoomplus" xlink:href="#zoomPlus" x="17" y="9" onmousedown="handleZoom(evt,'in')"/>
                <use id="zoomminus" xlink:href="#zoomMin" x="42" y="9" onmousedown="handleZoom(evt,'out')"/>
                <use id="reset" xlink:href="#resetDef" x="30" y="36" onmousedown="handleReset()"/>
                <g id="arrowUp" xlink:href="#dirArrow" transform="translate(30 24)" onmousedown="handlePan(0,-1)">
                  <use xlink:href="#rim" fill="#404040">
                        <set attributeName="fill" to="#808080" begin="arrowUp.mouseover" end="arrowUp.mouseout"/>
                  </use>
                  <path fill="none" stroke="white" stroke-width="1.5" d="M0,-3.0v7 M-2.5,-0.5L0,-3.0L2.5,-0.5"/>
                </g>
                <g id="arrowRight" xlink:href="#dirArrow" transform="rotate(90) translate(36 -43)" onmousedown="handlePan(1,0)">
                  <use xlink:href="#rim" fill="#404040">
                        <set attributeName="fill" to="#808080" begin="arrowRight.mouseover" end="arrowRight.mouseout"/>
                  </use>
                  <path fill="none" stroke="white" stroke-width="1.5" d="M0,-3.0v7 M-2.5,-0.5L0,-3.0L2.5,-0.5"/>
                </g>
                <g id="arrowDown" xlink:href="#dirArrow" transform="rotate(180) translate(-30 -48)" onmousedown="handlePan(0,1)">
                  <use xlink:href="#rim" fill="#404040">
                        <set attributeName="fill" to="#808080" begin="arrowDown.mouseover" end="arrowDown.mouseout"/>
                  </use>
                  <path fill="none" stroke="white" stroke-width="1.5" d="M0,-3.0v7 M-2.5,-0.5L0,-3.0L2.5,-0.5"/>
                </g>
                <g id="arrowLeft" xlink:href="#dirArrow" transform="rotate(270) translate(-36 17)" onmousedown="handlePan(-1,0)">
                  <use xlink:href="#rim" fill="#404040">
                        <set attributeName="fill" to="#808080" begin="arrowLeft.mouseover" end="arrowLeft.mouseout"/>
                  </use>
                  <path fill="none" stroke="white" stroke-width="1.5" d="M0,-3.0v7 M-2.5,-0.5L0,-3.0L2.5,-0.5"/>
                </g>
        </g>
        <svg viewBox="0 0 15 15" width="100%" height="30px" preserveAspectRatio="xMaxYMin meet">
         <g id="arrow_out" transform="scale(0.3 0.3)">
          <a xlink:href="class_rig_def_1_1_parser_aca72f006110a85d23f19a4c2522d0589_cgraph_org.svg" target="_base">
           <rect id="button" ry="5" rx="5" y="6" x="6" height="38" width="38"
                fill="#f2f5e9" fill-opacity="0.5" stroke="#606060" stroke-width="1.0"/>
           <path id="arrow"
             d="M 11.500037,31.436501 C 11.940474,20.09759 22.043105,11.32322 32.158766,21.979434 L 37.068811,17.246167 C 37.068811,17.246167 37.088388,32 37.088388,32 L 22.160133,31.978069 C 22.160133,31.978069 26.997745,27.140456 26.997745,27.140456 C 18.528582,18.264221 13.291696,25.230495 11.500037,31.436501 z"
             style="fill:#404040;"/>
          </a>
         </g>
        </svg>
</svg>
