<?xml version="1.0" encoding="UTF-8" standalone="no"?>
<!DOCTYPE svg PUBLIC "-//W3C//DTD SVG 1.1//EN"
 "http://www.w3.org/Graphics/SVG/1.1/DTD/svg11.dtd">
<!-- Generated by graphviz version 2.36.0 (20140111.2315)
 -->
<!-- Title: Beam::calcNodes Pages: 1 -->
<!--zoomable 318 -->
<svg id="main" version="1.1" xmlns="http://www.w3.org/2000/svg" xmlns:xlink="http://www.w3.org/1999/xlink" xml:space="preserve" onload="init(evt)">
<style type="text/css"><![CDATA[
.edge:hover path { stroke: red; }
.edge:hover polygon { stroke: red; fill: red; }
]]></style>
<script type="text/javascript"><![CDATA[
var edges = document.getElementsByTagName('g');
if (edges && edges.length) {
  for (var i=0;i<edges.length;i++) {
    if (edges[i].id.substr(0,4)=='edge') {
      edges[i].setAttribute('class','edge');
    }
  }
}
]]></script>
        <defs>
                <circle id="rim" cx="0" cy="0" r="7"/>
                <circle id="rim2" cx="0" cy="0" r="3.5"/>
                <g id="zoomPlus">
                        <use xlink:href="#rim" fill="#404040">
                                <set attributeName="fill" to="#808080" begin="zoomplus.mouseover" end="zoomplus.mouseout"/>
                        </use>
                        <path d="M-4,0h8M0,-4v8" fill="none" stroke="white" stroke-width="1.5" pointer-events="none"/>
                </g>
                <g id="zoomMin">
                        <use xlink:href="#rim" fill="#404040">
                                <set attributeName="fill" to="#808080" begin="zoomminus.mouseover" end="zoomminus.mouseout"/>
                        </use>
                        <path d="M-4,0h8" fill="none" stroke="white" stroke-width="1.5" pointer-events="none"/>
                </g>
                <g id="dirArrow">
                        <path fill="none" stroke="white" stroke-width="1.5" d="M0,-3.0v7 M-2.5,-0.5L0,-3.0L2.5,-0.5"/>
                </g>
               <g id="resetDef">
                       <use xlink:href="#rim2" fill="#404040">
                               <set attributeName="fill" to="#808080" begin="reset.mouseover" end="reset.mouseout"/>
                       </use>
               </g>
        </defs>

<script type="text/javascript">
var viewWidth = 862;
var viewHeight = 318;
var sectionId = 'dynsection-17';
</script>
<script xlink:href="svgpan.js"/>
<svg id="graph" class="graph">
<g id="viewport">
<title>Beam::calcNodes</title>
<polygon fill="white" stroke="none" points="-4,4 -4,-314 858,-314 858,4 -4,4"/>
<!-- Node1 -->
<g id="node1" class="node"><title>Node1</title>
<polygon fill="#bfbfbf" stroke="black" points="0.5,-133.5 0.5,-152.5 95.5,-152.5 95.5,-133.5 0.5,-133.5"/>
<text text-anchor="middle" x="48" y="-140.5" font-family="Helvetica,sans-Serif" font-size="10.00">Beam::calcNodes</text>
</g>
<!-- Node2 -->
<g id="node2" class="node"><title>Node2</title>
<g id="a_node2"><a xlink:href="class_terrain_manager.html#a1d0227a71a4e114099797646ff6756b7" target="_top" xlink:title="TerrainManager::getWater">
<polygon fill="white" stroke="black" points="135,-266.5 135,-285.5 265,-285.5 265,-266.5 135,-266.5"/>
<text text-anchor="middle" x="200" y="-273.5" font-family="Helvetica,sans-Serif" font-size="10.00">TerrainManager::getWater</text>
</a>
</g>
</g>
<!-- Node1&#45;&gt;Node2 -->
<g id="edge1" class="edge"><title>Node1&#45;&gt;Node2</title>
<path fill="none" stroke="midnightblue" d="M53.2578,-152.628C63.489,-174.629 91.6358,-228.855 132,-257 134.864,-258.997 137.934,-260.785 141.127,-262.386"/>
<polygon fill="midnightblue" stroke="midnightblue" points="139.819,-265.634 150.385,-266.421 142.616,-259.217 139.819,-265.634"/>
</g>
<!-- Node3 -->
<g id="node3" class="node"><title>Node3</title>
<g id="a_node3"><a xlink:href="class_terrain_manager.html#a02de3af7287847607182da563f4bbf2f" target="_top" xlink:title="TerrainManager::getGravity">
<polygon fill="white" stroke="black" points="132.5,-228.5 132.5,-247.5 267.5,-247.5 267.5,-228.5 132.5,-228.5"/>
<text text-anchor="middle" x="200" y="-235.5" font-family="Helvetica,sans-Serif" font-size="10.00">TerrainManager::getGravity</text>
</a>
</g>
</g>
<!-- Node1&#45;&gt;Node3 -->
<g id="edge2" class="edge"><title>Node1&#45;&gt;Node3</title>
<path fill="none" stroke="midnightblue" d="M56.8849,-152.708C70.5127,-168.852 100.093,-201.2 132,-219 135.968,-221.213 140.214,-223.187 144.572,-224.942"/>
<polygon fill="midnightblue" stroke="midnightblue" points="143.632,-228.324 154.226,-228.447 146.021,-221.744 143.632,-228.324"/>
</g>
<!-- Node4 -->
<g id="node4" class="node"><title>Node4</title>
<g id="a_node4"><a xlink:href="class_collisions.html#af1028e2b9de09140265d02b66654f78f" target="_top" xlink:title="Collisions::groundCollision">
<polygon fill="white" stroke="black" points="134,-190.5 134,-209.5 266,-209.5 266,-190.5 134,-190.5"/>
<text text-anchor="middle" x="200" y="-197.5" font-family="Helvetica,sans-Serif" font-size="10.00">Collisions::groundCollision</text>
</a>
</g>
</g>
<!-- Node1&#45;&gt;Node4 -->
<g id="edge3" class="edge"><title>Node1&#45;&gt;Node4</title>
<path fill="none" stroke="midnightblue" d="M67.7727,-152.597C84.3725,-160.84 109.395,-172.676 132,-181 138.327,-183.33 145.077,-185.546 151.765,-187.588"/>
<polygon fill="midnightblue" stroke="midnightblue" points="150.882,-190.977 161.463,-190.448 152.862,-184.262 150.882,-190.977"/>
</g>
<!-- Node14 -->
<g id="node14" class="node"><title>Node14</title>
<g id="a_node14"><a xlink:href="class_collisions.html#aa2c8d77c6ff7001821d497c689c28e6b" target="_top" xlink:title="Collisions::nodeCollision">
<polygon fill="white" stroke="black" points="138,-152.5 138,-171.5 262,-171.5 262,-152.5 138,-152.5"/>
<text text-anchor="middle" x="200" y="-159.5" font-family="Helvetica,sans-Serif" font-size="10.00">Collisions::nodeCollision</text>
</a>
</g>
</g>
<!-- Node1&#45;&gt;Node14 -->
<g id="edge13" class="edge"><title>Node1&#45;&gt;Node14</title>
<path fill="none" stroke="midnightblue" d="M95.6387,-148.908C105.845,-150.2 116.872,-151.597 127.793,-152.98"/>
<polygon fill="midnightblue" stroke="midnightblue" points="127.404,-156.459 137.764,-154.243 128.284,-149.515 127.404,-156.459"/>
</g>
<!-- Node22 -->
<g id="node22" class="node"><title>Node22</title>
<g id="a_node22"><a xlink:href="_approx_math_8h.html#a490412854eb41c73cdb44120e33cb2f4" target="_top" xlink:title="approx_sqrt">
<polygon fill="white" stroke="black" points="166,-114.5 166,-133.5 234,-133.5 234,-114.5 166,-114.5"/>
<text text-anchor="middle" x="200" y="-121.5" font-family="Helvetica,sans-Serif" font-size="10.00">approx_sqrt</text>
</a>
</g>
</g>
<!-- Node1&#45;&gt;Node22 -->
<g id="edge22" class="edge"><title>Node1&#45;&gt;Node22</title>
<path fill="none" stroke="midnightblue" d="M95.6387,-137.092C114.796,-134.666 136.848,-131.873 155.65,-129.491"/>
<polygon fill="midnightblue" stroke="midnightblue" points="156.241,-132.944 165.722,-128.215 155.361,-126 156.241,-132.944"/>
</g>
<!-- Node23 -->
<g id="node23" class="node"><title>Node23</title>
<g id="a_node23"><a xlink:href="_approx_math_8h.html#a935ee6fdb8b4bb87c69a20ca0cc6601f" target="_top" xlink:title="frand_11">
<polygon fill="white" stroke="black" points="173,-76.5 173,-95.5 227,-95.5 227,-76.5 173,-76.5"/>
<text text-anchor="middle" x="200" y="-83.5" font-family="Helvetica,sans-Serif" font-size="10.00">frand_11</text>
</a>
</g>
</g>
<!-- Node1&#45;&gt;Node23 -->
<g id="edge23" class="edge"><title>Node1&#45;&gt;Node23</title>
<path fill="none" stroke="midnightblue" d="M67.7727,-133.403C84.3725,-125.16 109.395,-113.324 132,-105 141.956,-101.334 152.959,-97.9485 163.121,-95.0824"/>
<polygon fill="midnightblue" stroke="midnightblue" points="164.211,-98.4129 172.933,-92.3981 162.364,-91.661 164.211,-98.4129"/>
</g>
<!-- Node24 -->
<g id="node24" class="node"><title>Node24</title>
<g id="a_node24"><a xlink:href="class_i_water.html#a0d07fdfe2dadf9e7e7ebc9266c0bd4a0" target="_top" xlink:title="IWater::isUnderWater">
<polygon fill="white" stroke="black" points="144,-38.5 144,-57.5 256,-57.5 256,-38.5 144,-38.5"/>
<text text-anchor="middle" x="200" y="-45.5" font-family="Helvetica,sans-Serif" font-size="10.00">IWater::isUnderWater</text>
</a>
</g>
</g>
<!-- Node1&#45;&gt;Node24 -->
<g id="edge24" class="edge"><title>Node1&#45;&gt;Node24</title>
<path fill="none" stroke="midnightblue" d="M56.8849,-133.292C70.5127,-117.148 100.093,-84.7998 132,-67 135.968,-64.7865 140.214,-62.8135 144.572,-61.0579"/>
<polygon fill="midnightblue" stroke="midnightblue" points="146.021,-64.2558 154.226,-57.5534 143.632,-57.6759 146.021,-64.2558"/>
</g>
<!-- Node25 -->
<g id="node25" class="node"><title>Node25</title>
<g id="a_node25"><a xlink:href="class_i_water.html#ad2499255884025d55a940eb24ecd8e4d" target="_top" xlink:title="IWater::getHeight">
<polygon fill="white" stroke="black" points="153,-0.5 153,-19.5 247,-19.5 247,-0.5 153,-0.5"/>
<text text-anchor="middle" x="200" y="-7.5" font-family="Helvetica,sans-Serif" font-size="10.00">IWater::getHeight</text>
</a>
</g>
</g>
<!-- Node1&#45;&gt;Node25 -->
<g id="edge25" class="edge"><title>Node1&#45;&gt;Node25</title>
<path fill="none" stroke="midnightblue" d="M53.2578,-133.372C63.489,-111.371 91.6358,-57.1454 132,-29 135.515,-26.5493 139.34,-24.4131 143.323,-22.5511"/>
<polygon fill="midnightblue" stroke="midnightblue" points="144.884,-25.6945 152.83,-18.6855 142.248,-19.21 144.884,-25.6945"/>
</g>
<!-- Node5 -->
<g id="node5" class="node"><title>Node5</title>
<g id="a_node5"><a xlink:href="class_landusemap.html#ae1674c54ecba0ba42db48a919eda4ba1" target="_top" xlink:title="Landusemap::getGroundModelAt">
<polygon fill="white" stroke="black" points="304.5,-285.5 304.5,-304.5 463.5,-304.5 463.5,-285.5 304.5,-285.5"/>
<text text-anchor="middle" x="384" y="-292.5" font-family="Helvetica,sans-Serif" font-size="10.00">Landusemap::getGroundModelAt</text>
</a>
</g>
</g>
<!-- Node4&#45;&gt;Node5 -->
<g id="edge4" class="edge"><title>Node4&#45;&gt;Node5</title>
<path fill="none" stroke="midnightblue" d="M250.546,-209.519C256.766,-211.986 262.771,-215.091 268,-219 291.999,-236.939 279.644,-258.548 304,-276 306.695,-277.931 309.56,-279.667 312.543,-281.229"/>
<polygon fill="midnightblue" stroke="midnightblue" points="311.233,-284.478 321.787,-285.408 314.116,-278.099 311.233,-284.478"/>
</g>
<!-- Node8 -->
<g id="node8" class="node"><title>Node8</title>
<g id="a_node8"><a xlink:href="class_i_height_finder.html#a5757ec3d639bcffc834540067ec8db2e" target="_top" xlink:title="IHeightFinder::getHeightAt">
<polygon fill="white" stroke="black" points="317.5,-247.5 317.5,-266.5 450.5,-266.5 450.5,-247.5 317.5,-247.5"/>
<text text-anchor="middle" x="384" y="-254.5" font-family="Helvetica,sans-Serif" font-size="10.00">IHeightFinder::getHeightAt</text>
</a>
</g>
</g>
<!-- Node4&#45;&gt;Node8 -->
<g id="edge7" class="edge"><title>Node4&#45;&gt;Node8</title>
<path fill="none" stroke="midnightblue" d="M240.081,-209.595C249.359,-212.28 259.133,-215.448 268,-219 284.795,-225.727 287.073,-231.613 304,-238 310.714,-240.534 317.88,-242.811 325.053,-244.833"/>
<polygon fill="midnightblue" stroke="midnightblue" points="324.231,-248.236 334.796,-247.433 326.036,-241.473 324.231,-248.236"/>
</g>
<!-- Node9 -->
<g id="node9" class="node"><title>Node9</title>
<g id="a_node9"><a xlink:href="class_i_height_finder.html#a1e72a8b431fcce239ab01e7d77235aab" target="_top" xlink:title="IHeightFinder::getNormalAt">
<polygon fill="white" stroke="black" points="316,-209.5 316,-228.5 452,-228.5 452,-209.5 316,-209.5"/>
<text text-anchor="middle" x="384" y="-216.5" font-family="Helvetica,sans-Serif" font-size="10.00">IHeightFinder::getNormalAt</text>
</a>
</g>
</g>
<!-- Node4&#45;&gt;Node9 -->
<g id="edge8" class="edge"><title>Node4&#45;&gt;Node9</title>
<path fill="none" stroke="midnightblue" d="M266.192,-206.806C279.034,-208.146 292.624,-209.565 305.817,-210.942"/>
<polygon fill="midnightblue" stroke="midnightblue" points="305.5,-214.428 315.81,-211.986 306.227,-207.466 305.5,-214.428"/>
</g>
<!-- Node10 -->
<g id="node10" class="node"><title>Node10</title>
<g id="a_node10"><a xlink:href="_collisions_8cpp.html#a9933836f15db1958d035f7d773aefd06" target="_top" xlink:title="primitiveCollision">
<polygon fill="white" stroke="black" points="338.5,-171.5 338.5,-190.5 429.5,-190.5 429.5,-171.5 338.5,-171.5"/>
<text text-anchor="middle" x="384" y="-178.5" font-family="Helvetica,sans-Serif" font-size="10.00">primitiveCollision</text>
</a>
</g>
</g>
<!-- Node4&#45;&gt;Node10 -->
<g id="edge9" class="edge"><title>Node4&#45;&gt;Node10</title>
<path fill="none" stroke="midnightblue" d="M266.192,-193.194C286.604,-191.063 308.904,-188.735 328.498,-186.69"/>
<polygon fill="midnightblue" stroke="midnightblue" points="328.891,-190.168 338.473,-185.648 328.164,-183.206 328.891,-190.168"/>
</g>
<!-- Node6 -->
<g id="node6" class="node"><title>Node6</title>
<g id="a_node6"><a xlink:href="class_terrain_manager.html#a41fdd66a57990a5fb33d253213fd04e3" target="_top" xlink:title="TerrainManager::getMaxTerrainSize">
<polygon fill="white" stroke="black" points="500,-285.5 500,-304.5 672,-304.5 672,-285.5 500,-285.5"/>
<text text-anchor="middle" x="586" y="-292.5" font-family="Helvetica,sans-Serif" font-size="10.00">TerrainManager::getMaxTerrainSize</text>
</a>
</g>
</g>
<!-- Node5&#45;&gt;Node6 -->
<g id="edge5" class="edge"><title>Node5&#45;&gt;Node6</title>
<path fill="none" stroke="midnightblue" d="M463.758,-295C472.244,-295 480.943,-295 489.596,-295"/>
<polygon fill="midnightblue" stroke="midnightblue" points="489.718,-298.5 499.717,-295 489.717,-291.5 489.718,-298.5"/>
</g>
<!-- Node7 -->
<g id="node7" class="node"><title>Node7</title>
<g id="a_node7"><a xlink:href="class_terrain_geometry_manager.html#afead68b5ff7a0b77395065ab8ea855e3" target="_top" xlink:title="TerrainGeometryManager\l::getMaxTerrainSize">
<polygon fill="white" stroke="black" points="717.5,-280 717.5,-310 844.5,-310 844.5,-280 717.5,-280"/>
<text text-anchor="start" x="725.5" y="-298" font-family="Helvetica,sans-Serif" font-size="10.00">TerrainGeometryManager</text>
<text text-anchor="middle" x="781" y="-287" font-family="Helvetica,sans-Serif" font-size="10.00">::getMaxTerrainSize</text>
</a>
</g>
</g>
<!-- Node6&#45;&gt;Node7 -->
<g id="edge6" class="edge"><title>Node6&#45;&gt;Node7</title>
<path fill="none" stroke="midnightblue" d="M672.214,-295C683.811,-295 695.629,-295 706.984,-295"/>
<polygon fill="midnightblue" stroke="midnightblue" points="707.263,-298.5 717.263,-295 707.263,-291.5 707.263,-298.5"/>
</g>
<!-- Node11 -->
<g id="node11" class="node"><title>Node11</title>
<g id="a_node11"><a xlink:href="_approx_math_8h.html#aa827078e74a2a2b87a97a834d2359e88" target="_top" xlink:title="approx_pow">
<polygon fill="white" stroke="black" points="551.5,-247.5 551.5,-266.5 620.5,-266.5 620.5,-247.5 551.5,-247.5"/>
<text text-anchor="middle" x="586" y="-254.5" font-family="Helvetica,sans-Serif" font-size="10.00">approx_pow</text>
</a>
</g>
</g>
<!-- Node10&#45;&gt;Node11 -->
<g id="edge10" class="edge"><title>Node10&#45;&gt;Node11</title>
<path fill="none" stroke="midnightblue" d="M429.761,-187.074C441.423,-189.887 453.62,-193.998 464,-200 484.14,-211.645 479.766,-226.518 500,-238 512.593,-245.146 527.658,-249.605 541.584,-252.387"/>
<polygon fill="midnightblue" stroke="midnightblue" points="541.015,-255.84 551.471,-254.13 542.231,-248.947 541.015,-255.84"/>
</g>
<!-- Node12 -->
<g id="node12" class="node"><title>Node12</title>
<g id="a_node12"><a xlink:href="_approx_math_8h.html#a08e9e14c091640464aae072f3823b855" target="_top" xlink:title="fast_invSqrt">
<polygon fill="white" stroke="black" points="551.5,-209.5 551.5,-228.5 620.5,-228.5 620.5,-209.5 551.5,-209.5"/>
<text text-anchor="middle" x="586" y="-216.5" font-family="Helvetica,sans-Serif" font-size="10.00">fast_invSqrt</text>
</a>
</g>
</g>
<!-- Node10&#45;&gt;Node12 -->
<g id="edge11" class="edge"><title>Node10&#45;&gt;Node12</title>
<path fill="none" stroke="midnightblue" d="M429.884,-189.528C463.283,-195.874 508.611,-204.486 541.64,-210.762"/>
<polygon fill="midnightblue" stroke="midnightblue" points="540.991,-214.201 551.468,-212.629 542.297,-207.324 540.991,-214.201"/>
</g>
<!-- Node13 -->
<g id="node13" class="node"><title>Node13</title>
<g id="a_node13"><a xlink:href="_approx_math_8h.html#a9f32a288dbece202a4eaa1808aad5506" target="_top" xlink:title="approx_exp">
<polygon fill="white" stroke="black" points="552.5,-171.5 552.5,-190.5 619.5,-190.5 619.5,-171.5 552.5,-171.5"/>
<text text-anchor="middle" x="586" y="-178.5" font-family="Helvetica,sans-Serif" font-size="10.00">approx_exp</text>
</a>
</g>
</g>
<!-- Node10&#45;&gt;Node13 -->
<g id="edge12" class="edge"><title>Node10&#45;&gt;Node13</title>
<path fill="none" stroke="midnightblue" d="M429.884,-181C463.451,-181 509.067,-181 542.136,-181"/>
<polygon fill="midnightblue" stroke="midnightblue" points="542.401,-184.5 552.401,-181 542.401,-177.5 542.401,-184.5"/>
</g>
<!-- Node14&#45;&gt;Node10 -->
<g id="edge21" class="edge"><title>Node14&#45;&gt;Node10</title>
<path fill="none" stroke="midnightblue" d="M262.11,-168.38C283.586,-170.622 307.561,-173.125 328.462,-175.306"/>
<polygon fill="midnightblue" stroke="midnightblue" points="328.141,-178.792 338.45,-176.349 328.868,-171.83 328.141,-178.792"/>
</g>
<!-- Node15 -->
<g id="node15" class="node"><title>Node15</title>
<g id="a_node15"><a xlink:href="class_collisions.html#a4d438eb211fe0953343dc39f478e14e0" target="_top" xlink:title="Collisions::hash_find">
<polygon fill="white" stroke="black" points="330.5,-133.5 330.5,-152.5 437.5,-152.5 437.5,-133.5 330.5,-133.5"/>
<text text-anchor="middle" x="384" y="-140.5" font-family="Helvetica,sans-Serif" font-size="10.00">Collisions::hash_find</text>
</a>
</g>
</g>
<!-- Node14&#45;&gt;Node15 -->
<g id="edge14" class="edge"><title>Node14&#45;&gt;Node15</title>
<path fill="none" stroke="midnightblue" d="M262.11,-155.62C280.842,-153.665 301.476,-151.511 320.312,-149.544"/>
<polygon fill="midnightblue" stroke="midnightblue" points="320.69,-153.024 330.272,-148.505 319.963,-146.062 320.69,-153.024"/>
</g>
<!-- Node17 -->
<g id="node17" class="node"><title>Node17</title>
<g id="a_node17"><a xlink:href="class_collisions.html#a169c711864e32721fb5daab7d7d01df4" target="_top" xlink:title="Collisions::permitEvent">
<polygon fill="white" stroke="black" points="325,-92.5 325,-111.5 443,-111.5 443,-92.5 325,-92.5"/>
<text text-anchor="middle" x="384" y="-99.5" font-family="Helvetica,sans-Serif" font-size="10.00">Collisions::permitEvent</text>
</a>
</g>
</g>
<!-- Node14&#45;&gt;Node17 -->
<g id="edge16" class="edge"><title>Node14&#45;&gt;Node17</title>
<path fill="none" stroke="midnightblue" d="M240.081,-152.405C249.359,-149.72 259.133,-146.552 268,-143 284.795,-136.273 287.19,-130.687 304,-124 313.033,-120.407 322.867,-117.165 332.433,-114.343"/>
<polygon fill="midnightblue" stroke="midnightblue" points="333.594,-117.652 342.26,-111.557 331.684,-110.918 333.594,-117.652"/>
</g>
<!-- Node21 -->
<g id="node21" class="node"><title>Node21</title>
<g id="a_node21"><a xlink:href="class_collisions.html#afab554d00436aa9157c93a4eaecf8d74" target="_top" xlink:title="Collisions::envokeScript\lCallback">
<polygon fill="white" stroke="black" points="323,-43 323,-73 445,-73 445,-43 323,-43"/>
<text text-anchor="start" x="331" y="-61" font-family="Helvetica,sans-Serif" font-size="10.00">Collisions::envokeScript</text>
<text text-anchor="middle" x="384" y="-50" font-family="Helvetica,sans-Serif" font-size="10.00">Callback</text>
</a>
</g>
</g>
<!-- Node14&#45;&gt;Node21 -->
<g id="edge20" class="edge"><title>Node14&#45;&gt;Node21</title>
<path fill="none" stroke="midnightblue" d="M250.975,-152.454C257.059,-149.992 262.912,-146.895 268,-143 292.694,-124.097 279.594,-102.273 304,-83 307.087,-80.5621 310.416,-78.3599 313.9,-76.3706"/>
<polygon fill="midnightblue" stroke="midnightblue" points="315.487,-79.4901 322.829,-71.852 312.326,-73.2443 315.487,-79.4901"/>
</g>
<!-- Node16 -->
<g id="node16" class="node"><title>Node16</title>
<g id="a_node16"><a xlink:href="class_collisions.html#a7e21c069d16d661d211d0cb896577edf" target="_top" xlink:title="Collisions::hashfunc">
<polygon fill="white" stroke="black" points="533.5,-133.5 533.5,-152.5 638.5,-152.5 638.5,-133.5 533.5,-133.5"/>
<text text-anchor="middle" x="586" y="-140.5" font-family="Helvetica,sans-Serif" font-size="10.00">Collisions::hashfunc</text>
</a>
</g>
</g>
<!-- Node15&#45;&gt;Node16 -->
<g id="edge15" class="edge"><title>Node15&#45;&gt;Node16</title>
<path fill="none" stroke="midnightblue" d="M437.548,-143C463.82,-143 495.78,-143 523.221,-143"/>
<polygon fill="midnightblue" stroke="midnightblue" points="523.495,-146.5 533.495,-143 523.495,-139.5 523.495,-146.5"/>
</g>
<!-- Node18 -->
<g id="node18" class="node"><title>Node18</title>
<g id="a_node18"><a xlink:href="class_ro_r_frame_listener.html#a0398db79a92d8178b77e3733abc9a238" target="_top" xlink:title="RoRFrameListener::GetBeam\lFactory">
<polygon fill="white" stroke="black" points="513,-84 513,-114 659,-114 659,-84 513,-84"/>
<text text-anchor="start" x="521" y="-102" font-family="Helvetica,sans-Serif" font-size="10.00">RoRFrameListener::GetBeam</text>
<text text-anchor="middle" x="586" y="-91" font-family="Helvetica,sans-Serif" font-size="10.00">Factory</text>
</a>
</g>
</g>
<!-- Node17&#45;&gt;Node18 -->
<g id="edge17" class="edge"><title>Node17&#45;&gt;Node18</title>
<path fill="none" stroke="midnightblue" d="M443.117,-101.128C461.764,-100.849 482.783,-100.533 502.817,-100.233"/>
<polygon fill="midnightblue" stroke="midnightblue" points="502.924,-103.732 512.87,-100.082 502.819,-96.7324 502.924,-103.732"/>
</g>
<!-- Node19 -->
<g id="node19" class="node"><title>Node19</title>
<g id="a_node19"><a xlink:href="class_ro_r_1_1_beam_factory.html#aeb17b3a10c961e56770f7dc87a16625c" target="_top" xlink:title="RoR::BeamFactory::getCurrent\lTruck">
<polygon fill="white" stroke="black" points="509.5,-35 509.5,-65 662.5,-65 662.5,-35 509.5,-35"/>
<text text-anchor="start" x="517.5" y="-53" font-family="Helvetica,sans-Serif" font-size="10.00">RoR::BeamFactory::getCurrent</text>
<text text-anchor="middle" x="586" y="-42" font-family="Helvetica,sans-Serif" font-size="10.00">Truck</text>
</a>
</g>
</g>
<!-- Node17&#45;&gt;Node19 -->
<g id="edge18" class="edge"><title>Node17&#45;&gt;Node19</title>
<path fill="none" stroke="midnightblue" d="M423.194,-92.4174C436.155,-89.1426 450.714,-85.4384 464,-82 481.838,-77.3834 501.135,-72.3142 518.966,-67.5988"/>
<polygon fill="midnightblue" stroke="midnightblue" points="519.933,-70.9636 528.704,-65.0206 518.141,-64.1968 519.933,-70.9636"/>
</g>
<!-- Node20 -->
<g id="node20" class="node"><title>Node20</title>
<g id="a_node20"><a xlink:href="class_ro_r_1_1_beam_factory.html#aadb09a68dc35fad593189242429df218" target="_top" xlink:title="RoR::BeamFactory::getTruck">
<polygon fill="white" stroke="black" points="708,-40.5 708,-59.5 854,-59.5 854,-40.5 708,-40.5"/>
<text text-anchor="middle" x="781" y="-47.5" font-family="Helvetica,sans-Serif" font-size="10.00">RoR::BeamFactory::getTruck</text>
</a>
</g>
</g>
<!-- Node19&#45;&gt;Node20 -->
<g id="edge19" class="edge"><title>Node19&#45;&gt;Node20</title>
<path fill="none" stroke="midnightblue" d="M662.725,-50C674.242,-50 686.173,-50 697.819,-50"/>
<polygon fill="midnightblue" stroke="midnightblue" points="697.964,-53.5001 707.963,-50 697.963,-46.5001 697.964,-53.5001"/>
</g>
</g>
</svg>
        <g id="navigator" transform="translate(0 0)" fill="#404254">
                <rect fill="#f2f5e9" fill-opacity="0.5" stroke="#606060" stroke-width=".5" x="0" y="0" width="60" height="60"/>
                <use id="zoomplus" xlink:href="#zoomPlus" x="17" y="9" onmousedown="handleZoom(evt,'in')"/>
                <use id="zoomminus" xlink:href="#zoomMin" x="42" y="9" onmousedown="handleZoom(evt,'out')"/>
                <use id="reset" xlink:href="#resetDef" x="30" y="36" onmousedown="handleReset()"/>
                <g id="arrowUp" xlink:href="#dirArrow" transform="translate(30 24)" onmousedown="handlePan(0,-1)">
                  <use xlink:href="#rim" fill="#404040">
                        <set attributeName="fill" to="#808080" begin="arrowUp.mouseover" end="arrowUp.mouseout"/>
                  </use>
                  <path fill="none" stroke="white" stroke-width="1.5" d="M0,-3.0v7 M-2.5,-0.5L0,-3.0L2.5,-0.5"/>
                </g>
                <g id="arrowRight" xlink:href="#dirArrow" transform="rotate(90) translate(36 -43)" onmousedown="handlePan(1,0)">
                  <use xlink:href="#rim" fill="#404040">
                        <set attributeName="fill" to="#808080" begin="arrowRight.mouseover" end="arrowRight.mouseout"/>
                  </use>
                  <path fill="none" stroke="white" stroke-width="1.5" d="M0,-3.0v7 M-2.5,-0.5L0,-3.0L2.5,-0.5"/>
                </g>
                <g id="arrowDown" xlink:href="#dirArrow" transform="rotate(180) translate(-30 -48)" onmousedown="handlePan(0,1)">
                  <use xlink:href="#rim" fill="#404040">
                        <set attributeName="fill" to="#808080" begin="arrowDown.mouseover" end="arrowDown.mouseout"/>
                  </use>
                  <path fill="none" stroke="white" stroke-width="1.5" d="M0,-3.0v7 M-2.5,-0.5L0,-3.0L2.5,-0.5"/>
                </g>
                <g id="arrowLeft" xlink:href="#dirArrow" transform="rotate(270) translate(-36 17)" onmousedown="handlePan(-1,0)">
                  <use xlink:href="#rim" fill="#404040">
                        <set attributeName="fill" to="#808080" begin="arrowLeft.mouseover" end="arrowLeft.mouseout"/>
                  </use>
                  <path fill="none" stroke="white" stroke-width="1.5" d="M0,-3.0v7 M-2.5,-0.5L0,-3.0L2.5,-0.5"/>
                </g>
        </g>
        <svg viewBox="0 0 15 15" width="100%" height="30px" preserveAspectRatio="xMaxYMin meet">
         <g id="arrow_out" transform="scale(0.3 0.3)">
          <a xlink:href="class_beam_af88caf907f8ac18ea02b135d9ea5cce5_cgraph_org.svg" target="_base">
           <rect id="button" ry="5" rx="5" y="6" x="6" height="38" width="38"
                fill="#f2f5e9" fill-opacity="0.5" stroke="#606060" stroke-width="1.0"/>
           <path id="arrow"
             d="M 11.500037,31.436501 C 11.940474,20.09759 22.043105,11.32322 32.158766,21.979434 L 37.068811,17.246167 C 37.068811,17.246167 37.088388,32 37.088388,32 L 22.160133,31.978069 C 22.160133,31.978069 26.997745,27.140456 26.997745,27.140456 C 18.528582,18.264221 13.291696,25.230495 11.500037,31.436501 z"
             style="fill:#404040;"/>
          </a>
         </g>
        </svg>
</svg>
