<?xml version="1.0" encoding="UTF-8" standalone="no"?>
<!DOCTYPE svg PUBLIC "-//W3C//DTD SVG 1.1//EN"
 "http://www.w3.org/Graphics/SVG/1.1/DTD/svg11.dtd">
<!-- Generated by graphviz version 2.36.0 (20140111.2315)
 -->
<!-- Title: RoR::ForceFeedback::SetForces Pages: 1 -->
<svg width="328pt" height="66pt"
 viewBox="0.00 0.00 328.00 66.00" xmlns="http://www.w3.org/2000/svg" xmlns:xlink="http://www.w3.org/1999/xlink">
<g id="graph0" class="graph" transform="scale(1 1) rotate(0) translate(4 62)">
<title>RoR::ForceFeedback::SetForces</title>
<polygon fill="white" stroke="none" points="-4,4 -4,-62 324,-62 324,4 -4,4"/>
<!-- Node1 -->
<g id="node1" class="node"><title>Node1</title>
<polygon fill="#bfbfbf" stroke="black" points="0,-14 0,-44 110,-44 110,-14 0,-14"/>
<text text-anchor="start" x="8" y="-32" font-family="Helvetica,sans-Serif" font-size="10.00">RoR::ForceFeedback</text>
<text text-anchor="middle" x="55" y="-21" font-family="Helvetica,sans-Serif" font-size="10.00">::SetForces</text>
</g>
<!-- Node2 -->
<g id="node2" class="node"><title>Node2</title>
<g id="a_node2"><a xlink:href="namespace_ro_r_1_1_app.html#a9362fd933fecd9bd690c97bf691206e7" target="_top" xlink:title="RoR::App::GetIoFFbackStressGain">
<polygon fill="white" stroke="black" points="147,-38.5 147,-57.5 319,-57.5 319,-38.5 147,-38.5"/>
<text text-anchor="middle" x="233" y="-45.5" font-family="Helvetica,sans-Serif" font-size="10.00">RoR::App::GetIoFFbackStressGain</text>
</a>
</g>
</g>
<!-- Node1&#45;&gt;Node2 -->
<g id="edge1" class="edge"><title>Node1&#45;&gt;Node2</title>
<path fill="none" stroke="midnightblue" d="M110.242,-34.8557C118.681,-35.7667 127.608,-36.7305 136.64,-37.7055"/>
<polygon fill="midnightblue" stroke="midnightblue" points="136.543,-41.2152 146.861,-38.8088 137.294,-34.2556 136.543,-41.2152"/>
</g>
<!-- Node3 -->
<g id="node3" class="node"><title>Node3</title>
<g id="a_node3"><a xlink:href="namespace_ro_r_1_1_app.html#a223842eb2277b36d1dc79a3014415d2c" target="_top" xlink:title="RoR::App::GetIoFFbackCenterGain">
<polygon fill="white" stroke="black" points="146.5,-0.5 146.5,-19.5 319.5,-19.5 319.5,-0.5 146.5,-0.5"/>
<text text-anchor="middle" x="233" y="-7.5" font-family="Helvetica,sans-Serif" font-size="10.00">RoR::App::GetIoFFbackCenterGain</text>
</a>
</g>
</g>
<!-- Node1&#45;&gt;Node3 -->
<g id="edge2" class="edge"><title>Node1&#45;&gt;Node3</title>
<path fill="none" stroke="midnightblue" d="M110.242,-23.1443C118.534,-22.2491 127.298,-21.303 136.169,-20.3454"/>
<polygon fill="midnightblue" stroke="midnightblue" points="136.644,-23.8146 146.21,-19.2614 135.892,-16.855 136.644,-23.8146"/>
</g>
</g>
</svg>
