<?xml version="1.0" encoding="UTF-8" standalone="no"?>
<!DOCTYPE svg PUBLIC "-//W3C//DTD SVG 1.1//EN"
 "http://www.w3.org/Graphics/SVG/1.1/DTD/svg11.dtd">
<!-- Generated by graphviz version 2.36.0 (20140111.2315)
 -->
<!-- Title: RoR::GUI::MpClientList::MpClientList Pages: 1 -->
<svg width="288pt" height="136pt"
 viewBox="0.00 0.00 288.00 136.00" xmlns="http://www.w3.org/2000/svg" xmlns:xlink="http://www.w3.org/1999/xlink">
<g id="graph0" class="graph" transform="scale(1 1) rotate(0) translate(4 132)">
<title>RoR::GUI::MpClientList::MpClientList</title>
<polygon fill="white" stroke="none" points="-4,4 -4,-132 284,-132 284,4 -4,4"/>
<!-- Node1 -->
<g id="node1" class="node"><title>Node1</title>
<polygon fill="#bfbfbf" stroke="black" points="0,-49 0,-79 122,-79 122,-49 0,-49"/>
<text text-anchor="start" x="8" y="-67" font-family="Helvetica,sans-Serif" font-size="10.00">RoR::GUI::MpClientList</text>
<text text-anchor="middle" x="61" y="-56" font-family="Helvetica,sans-Serif" font-size="10.00">::MpClientList</text>
</g>
<!-- Node2 -->
<g id="node2" class="node"><title>Node2</title>
<g id="a_node2"><a xlink:href="class_ro_r_1_1_g_u_i_1_1_mp_client_list.html#a932cac1b565b275cc1198cfe2bf74e66" target="_top" xlink:title="RoR::GUI::MpClientList\l::openToolTip">
<polygon fill="white" stroke="black" points="158,-98 158,-128 280,-128 280,-98 158,-98"/>
<text text-anchor="start" x="166" y="-116" font-family="Helvetica,sans-Serif" font-size="10.00">RoR::GUI::MpClientList</text>
<text text-anchor="middle" x="219" y="-105" font-family="Helvetica,sans-Serif" font-size="10.00">::openToolTip</text>
</a>
</g>
</g>
<!-- Node1&#45;&gt;Node2 -->
<g id="edge1" class="edge"><title>Node1&#45;&gt;Node2</title>
<path fill="none" stroke="midnightblue" d="M110.078,-79.1014C126.018,-84.1083 143.924,-89.7324 160.5,-94.939"/>
<polygon fill="midnightblue" stroke="midnightblue" points="159.491,-98.2908 170.081,-97.9484 161.589,-91.6125 159.491,-98.2908"/>
</g>
<!-- Node3 -->
<g id="node3" class="node"><title>Node3</title>
<g id="a_node3"><a xlink:href="class_ro_r_1_1_g_u_i_1_1_mp_client_list.html#a30f80ed27c69bb60375cdecabac9da3f" target="_top" xlink:title="RoR::GUI::MpClientList\l::clickInfoIcon">
<polygon fill="white" stroke="black" points="158,-49 158,-79 280,-79 280,-49 158,-49"/>
<text text-anchor="start" x="166" y="-67" font-family="Helvetica,sans-Serif" font-size="10.00">RoR::GUI::MpClientList</text>
<text text-anchor="middle" x="219" y="-56" font-family="Helvetica,sans-Serif" font-size="10.00">::clickInfoIcon</text>
</a>
</g>
</g>
<!-- Node1&#45;&gt;Node3 -->
<g id="edge2" class="edge"><title>Node1&#45;&gt;Node3</title>
<path fill="none" stroke="midnightblue" d="M122.314,-64C130.604,-64 139.175,-64 147.626,-64"/>
<polygon fill="midnightblue" stroke="midnightblue" points="147.847,-67.5001 157.847,-64 147.847,-60.5001 147.847,-67.5001"/>
</g>
<!-- Node4 -->
<g id="node4" class="node"><title>Node4</title>
<g id="a_node4"><a xlink:href="class_ro_r_1_1_g_u_i_1_1_mp_client_list.html#a78a32677ac1907a635cf578b2c2bef10" target="_top" xlink:title="RoR::GUI::MpClientList\l::clickUserGoIcon">
<polygon fill="white" stroke="black" points="158,-0 158,-30 280,-30 280,-0 158,-0"/>
<text text-anchor="start" x="166" y="-18" font-family="Helvetica,sans-Serif" font-size="10.00">RoR::GUI::MpClientList</text>
<text text-anchor="middle" x="219" y="-7" font-family="Helvetica,sans-Serif" font-size="10.00">::clickUserGoIcon</text>
</a>
</g>
</g>
<!-- Node1&#45;&gt;Node4 -->
<g id="edge3" class="edge"><title>Node1&#45;&gt;Node4</title>
<path fill="none" stroke="midnightblue" d="M110.078,-48.8986C126.018,-43.8917 143.924,-38.2676 160.5,-33.061"/>
<polygon fill="midnightblue" stroke="midnightblue" points="161.589,-36.3875 170.081,-30.0516 159.491,-29.7092 161.589,-36.3875"/>
</g>
</g>
</svg>
