<?xml version="1.0" encoding="UTF-8" standalone="no"?>
<!DOCTYPE svg PUBLIC "-//W3C//DTD SVG 1.1//EN"
 "http://www.w3.org/Graphics/SVG/1.1/DTD/svg11.dtd">
<!-- Generated by graphviz version 2.36.0 (20140111.2315)
 -->
<!-- Title: BeamEngine::hasContact Pages: 1 -->
<svg width="512pt" height="115pt"
 viewBox="0.00 0.00 512.00 115.00" xmlns="http://www.w3.org/2000/svg" xmlns:xlink="http://www.w3.org/1999/xlink">
<g id="graph0" class="graph" transform="scale(1 1) rotate(0) translate(4 111)">
<title>BeamEngine::hasContact</title>
<polygon fill="white" stroke="none" points="-4,4 -4,-111 508,-111 508,4 -4,4"/>
<!-- Node1 -->
<g id="node1" class="node"><title>Node1</title>
<polygon fill="#bfbfbf" stroke="black" points="0,-38.5 0,-57.5 128,-57.5 128,-38.5 0,-38.5"/>
<text text-anchor="middle" x="64" y="-45.5" font-family="Helvetica,sans-Serif" font-size="10.00">BeamEngine::hasContact</text>
</g>
<!-- Node2 -->
<g id="node2" class="node"><title>Node2</title>
<g id="a_node2"><a xlink:href="struct_ro_r_1_1_land_vehicle_simulation.html#a20e0e3bfb3deaa213ffb06d283ae81c8" target="_top" xlink:title="RoR::LandVehicleSimulation\l::UpdateCruiseControl">
<polygon fill="white" stroke="black" points="164,-77 164,-107 306,-107 306,-77 164,-77"/>
<text text-anchor="start" x="172" y="-95" font-family="Helvetica,sans-Serif" font-size="10.00">RoR::LandVehicleSimulation</text>
<text text-anchor="middle" x="235" y="-84" font-family="Helvetica,sans-Serif" font-size="10.00">::UpdateCruiseControl</text>
</a>
</g>
</g>
<!-- Node1&#45;&gt;Node2 -->
<g id="edge1" class="edge"><title>Node1&#45;&gt;Node2</title>
<path fill="none" stroke="midnightblue" d="M111.465,-60.0974C131.453,-65.3013 155.029,-71.4395 176.135,-76.9346"/>
<polygon fill="midnightblue" stroke="midnightblue" points="112.23,-56.6799 101.67,-57.5473 110.466,-63.4541 112.23,-56.6799"/>
</g>
<!-- Node3 -->
<g id="node3" class="node"><title>Node3</title>
<g id="a_node3"><a xlink:href="struct_ro_r_1_1_land_vehicle_simulation.html#a830e19b0460db3df601abe83096f78d7" target="_top" xlink:title="RoR::LandVehicleSimulation\l::UpdateVehicle">
<polygon fill="white" stroke="black" points="352,-58 352,-88 494,-88 494,-58 352,-58"/>
<text text-anchor="start" x="360" y="-76" font-family="Helvetica,sans-Serif" font-size="10.00">RoR::LandVehicleSimulation</text>
<text text-anchor="middle" x="423" y="-65" font-family="Helvetica,sans-Serif" font-size="10.00">::UpdateVehicle</text>
</a>
</g>
</g>
<!-- Node1&#45;&gt;Node3 -->
<g id="edge3" class="edge"><title>Node1&#45;&gt;Node3</title>
<path fill="none" stroke="midnightblue" d="M138.199,-53.126C200.809,-57.5104 290.319,-63.7787 351.991,-68.0974"/>
<polygon fill="midnightblue" stroke="midnightblue" points="138.223,-49.6192 128.003,-52.412 137.734,-56.6021 138.223,-49.6192"/>
</g>
<!-- Node4 -->
<g id="node4" class="node"><title>Node4</title>
<g id="a_node4"><a xlink:href="class_out_protocol.html#ae17e602d236aaeb1cafb79d984f6fadd" target="_top" xlink:title="OutProtocol::Update">
<polygon fill="white" stroke="black" points="182,-0.5 182,-19.5 288,-19.5 288,-0.5 182,-0.5"/>
<text text-anchor="middle" x="235" y="-7.5" font-family="Helvetica,sans-Serif" font-size="10.00">OutProtocol::Update</text>
</a>
</g>
</g>
<!-- Node1&#45;&gt;Node4 -->
<g id="edge4" class="edge"><title>Node1&#45;&gt;Node4</title>
<path fill="none" stroke="midnightblue" d="M117.587,-36.1757C141.413,-30.8184 169.207,-24.5689 191.661,-19.5201"/>
<polygon fill="midnightblue" stroke="midnightblue" points="116.634,-32.8024 107.646,-38.411 118.17,-39.6319 116.634,-32.8024"/>
</g>
<!-- Node2&#45;&gt;Node3 -->
<g id="edge2" class="edge"><title>Node2&#45;&gt;Node3</title>
<path fill="none" stroke="midnightblue" d="M316.313,-83.796C328.09,-82.5929 340.144,-81.3616 351.701,-80.1811"/>
<polygon fill="midnightblue" stroke="midnightblue" points="315.646,-80.3458 306.054,-84.844 316.358,-87.3096 315.646,-80.3458"/>
</g>
<!-- Node5 -->
<g id="node5" class="node"><title>Node5</title>
<g id="a_node5"><a xlink:href="class_ro_r_frame_listener.html#acd8647e188fb8e838689492965b86faf" target="_top" xlink:title="RoRFrameListener::frameStarted">
<polygon fill="white" stroke="black" points="342.5,-0.5 342.5,-19.5 503.5,-19.5 503.5,-0.5 342.5,-0.5"/>
<text text-anchor="middle" x="423" y="-7.5" font-family="Helvetica,sans-Serif" font-size="10.00">RoRFrameListener::frameStarted</text>
</a>
</g>
</g>
<!-- Node4&#45;&gt;Node5 -->
<g id="edge5" class="edge"><title>Node4&#45;&gt;Node5</title>
<path fill="none" stroke="midnightblue" d="M298.358,-10C312.448,-10 327.594,-10 342.289,-10"/>
<polygon fill="midnightblue" stroke="midnightblue" points="298.306,-6.5001 288.306,-10 298.306,-13.5001 298.306,-6.5001"/>
</g>
</g>
</svg>
