<?xml version="1.0" encoding="UTF-8" standalone="no"?>
<!DOCTYPE svg PUBLIC "-//W3C//DTD SVG 1.1//EN"
 "http://www.w3.org/Graphics/SVG/1.1/DTD/svg11.dtd">
<!-- Generated by graphviz version 2.36.0 (20140111.2315)
 -->
<!-- Title: RoR::BeamFactory::DeleteTruck Pages: 1 -->
<svg width="1082pt" height="256pt"
 viewBox="0.00 0.00 1082.00 256.00" xmlns="http://www.w3.org/2000/svg" xmlns:xlink="http://www.w3.org/1999/xlink">
<g id="graph0" class="graph" transform="scale(1 1) rotate(0) translate(4 252)">
<title>RoR::BeamFactory::DeleteTruck</title>
<polygon fill="white" stroke="none" points="-4,4 -4,-252 1078,-252 1078,4 -4,4"/>
<!-- Node1 -->
<g id="node1" class="node"><title>Node1</title>
<polygon fill="#bfbfbf" stroke="black" points="0,-73 0,-103 136,-103 136,-73 0,-73"/>
<text text-anchor="start" x="8" y="-91" font-family="Helvetica,sans-Serif" font-size="10.00">RoR::BeamFactory::Delete</text>
<text text-anchor="middle" x="68" y="-80" font-family="Helvetica,sans-Serif" font-size="10.00">Truck</text>
</g>
<!-- Node2 -->
<g id="node2" class="node"><title>Node2</title>
<g id="a_node2"><a xlink:href="class_ro_r_1_1_beam_factory.html#aa770c50decf07b87d7ac747b64b8e3e5" target="_top" xlink:title="RoR::BeamFactory::Create\lLocalRigInstance">
<polygon fill="white" stroke="black" points="175.5,-147 175.5,-177 312.5,-177 312.5,-147 175.5,-147"/>
<text text-anchor="start" x="183.5" y="-165" font-family="Helvetica,sans-Serif" font-size="10.00">RoR::BeamFactory::Create</text>
<text text-anchor="middle" x="244" y="-154" font-family="Helvetica,sans-Serif" font-size="10.00">LocalRigInstance</text>
</a>
</g>
</g>
<!-- Node1&#45;&gt;Node2 -->
<g id="edge1" class="edge"><title>Node1&#45;&gt;Node2</title>
<path fill="none" stroke="midnightblue" d="M107.822,-107.66C126.934,-117.031 150.448,-128.108 172,-137 180.335,-140.439 189.336,-143.84 198.036,-146.975"/>
<polygon fill="midnightblue" stroke="midnightblue" points="109.336,-104.504 98.8204,-103.213 106.236,-110.78 109.336,-104.504"/>
</g>
<!-- Node13 -->
<g id="node13" class="node"><title>Node13</title>
<g id="a_node13"><a xlink:href="class_ro_r_1_1_beam_factory.html#a32e01669e8f438abae20a1a463dcb355" target="_top" xlink:title="RoR::BeamFactory::Create\lRemoteInstance">
<polygon fill="white" stroke="black" points="175.5,-98 175.5,-128 312.5,-128 312.5,-98 175.5,-98"/>
<text text-anchor="start" x="183.5" y="-116" font-family="Helvetica,sans-Serif" font-size="10.00">RoR::BeamFactory::Create</text>
<text text-anchor="middle" x="244" y="-105" font-family="Helvetica,sans-Serif" font-size="10.00">RemoteInstance</text>
</a>
</g>
</g>
<!-- Node1&#45;&gt;Node13 -->
<g id="edge14" class="edge"><title>Node1&#45;&gt;Node13</title>
<path fill="none" stroke="midnightblue" d="M146.284,-99.104C155.967,-100.495 165.812,-101.91 175.332,-103.278"/>
<polygon fill="midnightblue" stroke="midnightblue" points="146.669,-95.6235 136.273,-97.6657 145.674,-102.552 146.669,-95.6235"/>
</g>
<!-- Node14 -->
<g id="node14" class="node"><title>Node14</title>
<g id="a_node14"><a xlink:href="class_ro_r_1_1_beam_factory.html#aa61f694b6230afbdc91bc33ef6acd73f" target="_top" xlink:title="RoR::BeamFactory::Remove\lStreamSource">
<polygon fill="white" stroke="black" points="172,-49 172,-79 316,-79 316,-49 172,-49"/>
<text text-anchor="start" x="180" y="-67" font-family="Helvetica,sans-Serif" font-size="10.00">RoR::BeamFactory::Remove</text>
<text text-anchor="middle" x="244" y="-56" font-family="Helvetica,sans-Serif" font-size="10.00">StreamSource</text>
</a>
</g>
</g>
<!-- Node1&#45;&gt;Node14 -->
<g id="edge15" class="edge"><title>Node1&#45;&gt;Node14</title>
<path fill="none" stroke="midnightblue" d="M146.216,-77.3496C154.752,-76.1721 163.416,-74.9771 171.873,-73.8107"/>
<polygon fill="midnightblue" stroke="midnightblue" points="145.701,-73.8873 136.273,-78.721 146.657,-80.8217 145.701,-73.8873"/>
</g>
<!-- Node15 -->
<g id="node15" class="node"><title>Node15</title>
<g id="a_node15"><a xlink:href="class_ro_r_1_1_beam_factory.html#a49a4ee797005fff135d8f88a085986a0" target="_top" xlink:title="RoR::BeamFactory::remove\lTruck">
<polygon fill="white" stroke="black" points="174,-0 174,-30 314,-30 314,-0 174,-0"/>
<text text-anchor="start" x="182" y="-18" font-family="Helvetica,sans-Serif" font-size="10.00">RoR::BeamFactory::remove</text>
<text text-anchor="middle" x="244" y="-7" font-family="Helvetica,sans-Serif" font-size="10.00">Truck</text>
</a>
</g>
</g>
<!-- Node1&#45;&gt;Node15 -->
<g id="edge16" class="edge"><title>Node1&#45;&gt;Node15</title>
<path fill="none" stroke="midnightblue" d="M107.355,-68.4271C126.531,-58.9838 150.235,-47.8199 172,-39 179.597,-35.9214 187.755,-32.9045 195.738,-30.1055"/>
<polygon fill="midnightblue" stroke="midnightblue" points="105.734,-65.3244 98.3341,-72.9069 108.847,-71.594 105.734,-65.3244"/>
</g>
<!-- Node3 -->
<g id="node3" class="node"><title>Node3</title>
<g id="a_node3"><a xlink:href="class_ro_r_frame_listener.html#afec2a0f00ed552c21d22aae76329bf38" target="_top" xlink:title="RoRFrameListener::Update\lInputEvents">
<polygon fill="white" stroke="black" points="531.5,-218 531.5,-248 668.5,-248 668.5,-218 531.5,-218"/>
<text text-anchor="start" x="539.5" y="-236" font-family="Helvetica,sans-Serif" font-size="10.00">RoRFrameListener::Update</text>
<text text-anchor="middle" x="600" y="-225" font-family="Helvetica,sans-Serif" font-size="10.00">InputEvents</text>
</a>
</g>
</g>
<!-- Node2&#45;&gt;Node3 -->
<g id="edge2" class="edge"><title>Node2&#45;&gt;Node3</title>
<path fill="none" stroke="midnightblue" d="M282.767,-181.597C302.815,-191.126 328.174,-201.829 352,-208 411.457,-223.4 481.254,-229.402 531.457,-231.696"/>
<polygon fill="midnightblue" stroke="midnightblue" points="284.193,-178.399 273.669,-177.18 281.136,-184.696 284.193,-178.399"/>
</g>
<!-- Node5 -->
<g id="node5" class="node"><title>Node5</title>
<g id="a_node5"><a xlink:href="class_ro_r_frame_listener.html#a74e44d8907e7f6ffddedd260f307a764" target="_top" xlink:title="RoRFrameListener::Reload\lCurrentTruck">
<polygon fill="white" stroke="black" points="352,-169 352,-199 488,-199 488,-169 352,-169"/>
<text text-anchor="start" x="360" y="-187" font-family="Helvetica,sans-Serif" font-size="10.00">RoRFrameListener::Reload</text>
<text text-anchor="middle" x="420" y="-176" font-family="Helvetica,sans-Serif" font-size="10.00">CurrentTruck</text>
</a>
</g>
</g>
<!-- Node2&#45;&gt;Node5 -->
<g id="edge4" class="edge"><title>Node2&#45;&gt;Node5</title>
<path fill="none" stroke="midnightblue" d="M322.832,-171.841C332.56,-173.071 342.442,-174.32 351.986,-175.527"/>
<polygon fill="midnightblue" stroke="midnightblue" points="323.131,-168.351 312.771,-170.569 322.253,-175.296 323.131,-168.351"/>
</g>
<!-- Node8 -->
<g id="node8" class="node"><title>Node8</title>
<g id="a_node8"><a xlink:href="class_ro_r_frame_listener.html#aca3931d7a75f2ad4b9d36c4fcd03a3c9" target="_top" xlink:title="RoRFrameListener::SetupGameplayLoop">
<polygon fill="white" stroke="black" points="712,-108.5 712,-127.5 908,-127.5 908,-108.5 712,-108.5"/>
<text text-anchor="middle" x="810" y="-115.5" font-family="Helvetica,sans-Serif" font-size="10.00">RoRFrameListener::SetupGameplayLoop</text>
</a>
</g>
</g>
<!-- Node2&#45;&gt;Node8 -->
<g id="edge8" class="edge"><title>Node2&#45;&gt;Node8</title>
<path fill="none" stroke="midnightblue" d="M322.929,-155.92C424.376,-148.006 601.682,-134.174 711.805,-125.583"/>
<polygon fill="midnightblue" stroke="midnightblue" points="322.449,-152.447 312.751,-156.714 322.993,-159.426 322.449,-152.447"/>
</g>
<!-- Node11 -->
<g id="node11" class="node"><title>Node11</title>
<g id="a_node11"><a xlink:href="class_terrain_object_manager.html#a202d577cb222f42c46e5b6600c9626a4" target="_top" xlink:title="TerrainObjectManager\l::loadPreloadedTrucks">
<polygon fill="white" stroke="black" points="363,-81 363,-111 477,-111 477,-81 363,-81"/>
<text text-anchor="start" x="371" y="-99" font-family="Helvetica,sans-Serif" font-size="10.00">TerrainObjectManager</text>
<text text-anchor="middle" x="420" y="-88" font-family="Helvetica,sans-Serif" font-size="10.00">::loadPreloadedTrucks</text>
</a>
</g>
</g>
<!-- Node2&#45;&gt;Node11 -->
<g id="edge11" class="edge"><title>Node2&#45;&gt;Node11</title>
<path fill="none" stroke="midnightblue" d="M298.103,-143.565C304.152,-141.387 310.218,-139.168 316,-137 337.986,-128.757 362.41,-119.059 381.954,-111.165"/>
<polygon fill="midnightblue" stroke="midnightblue" points="296.896,-140.279 288.656,-146.939 299.251,-146.871 296.896,-140.279"/>
</g>
<!-- Node4 -->
<g id="node4" class="node"><title>Node4</title>
<g id="a_node4"><a xlink:href="class_ro_r_frame_listener.html#acd8647e188fb8e838689492965b86faf" target="_top" xlink:title="RoRFrameListener::frameStarted">
<polygon fill="white" stroke="black" points="729.5,-223.5 729.5,-242.5 890.5,-242.5 890.5,-223.5 729.5,-223.5"/>
<text text-anchor="middle" x="810" y="-230.5" font-family="Helvetica,sans-Serif" font-size="10.00">RoRFrameListener::frameStarted</text>
</a>
</g>
</g>
<!-- Node3&#45;&gt;Node4 -->
<g id="edge3" class="edge"><title>Node3&#45;&gt;Node4</title>
<path fill="none" stroke="midnightblue" d="M678.719,-233C695.305,-233 712.845,-233 729.497,-233"/>
<polygon fill="midnightblue" stroke="midnightblue" points="678.532,-229.5 668.532,-233 678.532,-236.5 678.532,-229.5"/>
</g>
<!-- Node5&#45;&gt;Node3 -->
<g id="edge5" class="edge"><title>Node5&#45;&gt;Node3</title>
<path fill="none" stroke="midnightblue" d="M485.738,-201.821C504.957,-207.112 525.81,-212.852 544.323,-217.948"/>
<polygon fill="midnightblue" stroke="midnightblue" points="486.429,-198.381 475.858,-199.101 484.571,-205.13 486.429,-198.381"/>
</g>
<!-- Node6 -->
<g id="node6" class="node"><title>Node6</title>
<g id="a_node6"><a xlink:href="class_ro_r_1_1_g_u_i_1_1_top_menubar.html#ad1c44bd3c1247dcd8b876ff7728fac32" target="_top" xlink:title="RoR::GUI::TopMenubar\l::onMenuBtn">
<polygon fill="white" stroke="black" points="539.5,-169 539.5,-199 660.5,-199 660.5,-169 539.5,-169"/>
<text text-anchor="start" x="547.5" y="-187" font-family="Helvetica,sans-Serif" font-size="10.00">RoR::GUI::TopMenubar</text>
<text text-anchor="middle" x="600" y="-176" font-family="Helvetica,sans-Serif" font-size="10.00">::onMenuBtn</text>
</a>
</g>
</g>
<!-- Node5&#45;&gt;Node6 -->
<g id="edge6" class="edge"><title>Node5&#45;&gt;Node6</title>
<path fill="none" stroke="midnightblue" d="M498.426,-184C512.132,-184 526.209,-184 539.33,-184"/>
<polygon fill="midnightblue" stroke="midnightblue" points="498.041,-180.5 488.041,-184 498.04,-187.5 498.041,-180.5"/>
</g>
<!-- Node7 -->
<g id="node7" class="node"><title>Node7</title>
<g id="a_node7"><a xlink:href="class_ro_r_1_1_g_u_i_1_1_top_menubar.html#aba4f8b1030da3a9d3b4394562d60a05a" target="_top" xlink:title="RoR::GUI::TopMenubar\l::TopMenubar">
<polygon fill="white" stroke="black" points="749.5,-169 749.5,-199 870.5,-199 870.5,-169 749.5,-169"/>
<text text-anchor="start" x="757.5" y="-187" font-family="Helvetica,sans-Serif" font-size="10.00">RoR::GUI::TopMenubar</text>
<text text-anchor="middle" x="810" y="-176" font-family="Helvetica,sans-Serif" font-size="10.00">::TopMenubar</text>
</a>
</g>
</g>
<!-- Node6&#45;&gt;Node7 -->
<g id="edge7" class="edge"><title>Node6&#45;&gt;Node7</title>
<path fill="none" stroke="midnightblue" d="M670.934,-184C696.39,-184 724.908,-184 749.387,-184"/>
<polygon fill="midnightblue" stroke="midnightblue" points="670.604,-180.5 660.604,-184 670.604,-187.5 670.604,-180.5"/>
</g>
<!-- Node9 -->
<g id="node9" class="node"><title>Node9</title>
<g id="a_node9"><a xlink:href="main_8cpp.html#a0ddf1224851353fc92bfbff6f499fa97" target="_top" xlink:title="main">
<polygon fill="white" stroke="black" points="944,-108.5 944,-127.5 982,-127.5 982,-108.5 944,-108.5"/>
<text text-anchor="middle" x="963" y="-115.5" font-family="Helvetica,sans-Serif" font-size="10.00">main</text>
</a>
</g>
</g>
<!-- Node8&#45;&gt;Node9 -->
<g id="edge9" class="edge"><title>Node8&#45;&gt;Node9</title>
<path fill="none" stroke="midnightblue" d="M918.519,-118C928.031,-118 936.712,-118 943.772,-118"/>
<polygon fill="midnightblue" stroke="midnightblue" points="918.338,-114.5 908.338,-118 918.338,-121.5 918.338,-114.5"/>
</g>
<!-- Node10 -->
<g id="node10" class="node"><title>Node10</title>
<g id="a_node10"><a xlink:href="main_8cpp.html#a2922bc5d5c2d77a3020cfbf9df12aab0" target="_top" xlink:title="WinMain">
<polygon fill="white" stroke="black" points="1018.5,-108.5 1018.5,-127.5 1073.5,-127.5 1073.5,-108.5 1018.5,-108.5"/>
<text text-anchor="middle" x="1046" y="-115.5" font-family="Helvetica,sans-Serif" font-size="10.00">WinMain</text>
</a>
</g>
</g>
<!-- Node9&#45;&gt;Node10 -->
<g id="edge10" class="edge"><title>Node9&#45;&gt;Node10</title>
<path fill="none" stroke="midnightblue" d="M992.512,-118C1000.93,-118 1010.11,-118 1018.4,-118"/>
<polygon fill="midnightblue" stroke="midnightblue" points="992.38,-114.5 982.38,-118 992.38,-121.5 992.38,-114.5"/>
</g>
<!-- Node12 -->
<g id="node12" class="node"><title>Node12</title>
<g id="a_node12"><a xlink:href="class_terrain_manager.html#ac666fc0221c16001186b83cd6df66691" target="_top" xlink:title="TerrainManager::loadPreloaded\lTrucks">
<polygon fill="white" stroke="black" points="524,-81 524,-111 676,-111 676,-81 524,-81"/>
<text text-anchor="start" x="532" y="-99" font-family="Helvetica,sans-Serif" font-size="10.00">TerrainManager::loadPreloaded</text>
<text text-anchor="middle" x="600" y="-88" font-family="Helvetica,sans-Serif" font-size="10.00">Trucks</text>
</a>
</g>
</g>
<!-- Node11&#45;&gt;Node12 -->
<g id="edge12" class="edge"><title>Node11&#45;&gt;Node12</title>
<path fill="none" stroke="midnightblue" d="M487.55,-96C499.383,-96 511.782,-96 523.834,-96"/>
<polygon fill="midnightblue" stroke="midnightblue" points="487.32,-92.5001 477.32,-96 487.32,-99.5001 487.32,-92.5001"/>
</g>
<!-- Node12&#45;&gt;Node8 -->
<g id="edge13" class="edge"><title>Node12&#45;&gt;Node8</title>
<path fill="none" stroke="midnightblue" d="M686.355,-105.028C697.165,-106.171 708.252,-107.344 719.129,-108.494"/>
<polygon fill="midnightblue" stroke="midnightblue" points="686.405,-101.514 676.093,-103.943 685.669,-108.475 686.405,-101.514"/>
</g>
</g>
</svg>
