<?xml version="1.0" encoding="UTF-8" standalone="no"?>
<!DOCTYPE svg PUBLIC "-//W3C//DTD SVG 1.1//EN"
 "http://www.w3.org/Graphics/SVG/1.1/DTD/svg11.dtd">
<!-- Generated by graphviz version 2.36.0 (20140111.2315)
 -->
<!-- Title: InputEngine::windowResized Pages: 1 -->
<!--zoomable 213 -->
<svg id="main" version="1.1" xmlns="http://www.w3.org/2000/svg" xmlns:xlink="http://www.w3.org/1999/xlink" xml:space="preserve" onload="init(evt)">
<style type="text/css"><![CDATA[
.edge:hover path { stroke: red; }
.edge:hover polygon { stroke: red; fill: red; }
]]></style>
<script type="text/javascript"><![CDATA[
var edges = document.getElementsByTagName('g');
if (edges && edges.length) {
  for (var i=0;i<edges.length;i++) {
    if (edges[i].id.substr(0,4)=='edge') {
      edges[i].setAttribute('class','edge');
    }
  }
}
]]></script>
        <defs>
                <circle id="rim" cx="0" cy="0" r="7"/>
                <circle id="rim2" cx="0" cy="0" r="3.5"/>
                <g id="zoomPlus">
                        <use xlink:href="#rim" fill="#404040">
                                <set attributeName="fill" to="#808080" begin="zoomplus.mouseover" end="zoomplus.mouseout"/>
                        </use>
                        <path d="M-4,0h8M0,-4v8" fill="none" stroke="white" stroke-width="1.5" pointer-events="none"/>
                </g>
                <g id="zoomMin">
                        <use xlink:href="#rim" fill="#404040">
                                <set attributeName="fill" to="#808080" begin="zoomminus.mouseover" end="zoomminus.mouseout"/>
                        </use>
                        <path d="M-4,0h8" fill="none" stroke="white" stroke-width="1.5" pointer-events="none"/>
                </g>
                <g id="dirArrow">
                        <path fill="none" stroke="white" stroke-width="1.5" d="M0,-3.0v7 M-2.5,-0.5L0,-3.0L2.5,-0.5"/>
                </g>
               <g id="resetDef">
                       <use xlink:href="#rim2" fill="#404040">
                               <set attributeName="fill" to="#808080" begin="reset.mouseover" end="reset.mouseout"/>
                       </use>
               </g>
        </defs>

<script type="text/javascript">
var viewWidth = 750;
var viewHeight = 213;
var sectionId = 'dynsection-58';
</script>
<script xlink:href="svgpan.js"/>
<svg id="graph" class="graph">
<g id="viewport">
<title>InputEngine::windowResized</title>
<polygon fill="white" stroke="none" points="-4,4 -4,-209 746,-209 746,4 -4,4"/>
<!-- Node1 -->
<g id="node1" class="node"><title>Node1</title>
<polygon fill="#bfbfbf" stroke="black" points="0.5,-154.5 0.5,-173.5 143.5,-173.5 143.5,-154.5 0.5,-154.5"/>
<text text-anchor="middle" x="72" y="-161.5" font-family="Helvetica,sans-Serif" font-size="10.00">InputEngine::windowResized</text>
</g>
<!-- Node2 -->
<g id="node2" class="node"><title>Node2</title>
<g id="a_node2"><a xlink:href="namespace_ro_r_1_1_app.html#a68d6403d2b36006a6fa2d28f5ba8f12f" target="_top" xlink:title="RoR::App::GetGuiManager">
<polygon fill="white" stroke="black" points="200,-173.5 200,-192.5 334,-192.5 334,-173.5 200,-173.5"/>
<text text-anchor="middle" x="267" y="-180.5" font-family="Helvetica,sans-Serif" font-size="10.00">RoR::App::GetGuiManager</text>
</a>
</g>
</g>
<!-- Node1&#45;&gt;Node2 -->
<g id="edge1" class="edge"><title>Node1&#45;&gt;Node2</title>
<path fill="none" stroke="midnightblue" d="M143.77,-170.967C158.63,-172.43 174.368,-173.979 189.429,-175.462"/>
<polygon fill="midnightblue" stroke="midnightblue" points="189.433,-178.979 199.728,-176.476 190.119,-172.013 189.433,-178.979"/>
</g>
<!-- Node3 -->
<g id="node3" class="node"><title>Node3</title>
<g id="a_node3"><a xlink:href="class_ro_r_1_1_g_u_i_manager.html#a383e4098572ae987a16b794ae3f504bd" target="_top" xlink:title="RoR::GUIManager::windowResized">
<polygon fill="white" stroke="black" points="180.5,-135.5 180.5,-154.5 353.5,-154.5 353.5,-135.5 180.5,-135.5"/>
<text text-anchor="middle" x="267" y="-142.5" font-family="Helvetica,sans-Serif" font-size="10.00">RoR::GUIManager::windowResized</text>
</a>
</g>
</g>
<!-- Node1&#45;&gt;Node3 -->
<g id="edge2" class="edge"><title>Node1&#45;&gt;Node3</title>
<path fill="none" stroke="midnightblue" d="M143.77,-157.033C152.447,-156.179 161.422,-155.295 170.388,-154.413"/>
<polygon fill="midnightblue" stroke="midnightblue" points="170.88,-157.881 180.489,-153.418 170.194,-150.915 170.88,-157.881"/>
</g>
<!-- Node4 -->
<g id="node4" class="node"><title>Node4</title>
<g id="a_node4"><a xlink:href="class_g_u_i_input_manager.html#a5fde1d31061185a8cea4911ff2d56b61" target="_top" xlink:title="GUIInputManager::setInput\lViewSize">
<polygon fill="white" stroke="black" points="399.5,-163 399.5,-193 534.5,-193 534.5,-163 399.5,-163"/>
<text text-anchor="start" x="407.5" y="-181" font-family="Helvetica,sans-Serif" font-size="10.00">GUIInputManager::setInput</text>
<text text-anchor="middle" x="467" y="-170" font-family="Helvetica,sans-Serif" font-size="10.00">ViewSize</text>
</a>
</g>
</g>
<!-- Node3&#45;&gt;Node4 -->
<g id="edge3" class="edge"><title>Node3&#45;&gt;Node4</title>
<path fill="none" stroke="midnightblue" d="M325.004,-154.501C345.025,-157.838 367.859,-161.643 389.234,-165.206"/>
<polygon fill="midnightblue" stroke="midnightblue" points="388.824,-168.686 399.263,-166.877 389.975,-161.781 388.824,-168.686"/>
</g>
<!-- Node6 -->
<g id="node6" class="node"><title>Node6</title>
<g id="a_node6"><a xlink:href="class_ro_r_1_1_g_u_i_manager.html#aa6522e664233ae16430b5ded2f4c25b0" target="_top" xlink:title="RoR::GUIManager::AdjustMain\lMenuPosition">
<polygon fill="white" stroke="black" points="390.5,-98 390.5,-128 543.5,-128 543.5,-98 390.5,-98"/>
<text text-anchor="start" x="398.5" y="-116" font-family="Helvetica,sans-Serif" font-size="10.00">RoR::GUIManager::AdjustMain</text>
<text text-anchor="middle" x="467" y="-105" font-family="Helvetica,sans-Serif" font-size="10.00">MenuPosition</text>
</a>
</g>
</g>
<!-- Node3&#45;&gt;Node6 -->
<g id="edge5" class="edge"><title>Node3&#45;&gt;Node6</title>
<path fill="none" stroke="midnightblue" d="M326.87,-135.486C343.702,-132.765 362.397,-129.744 380.481,-126.821"/>
<polygon fill="midnightblue" stroke="midnightblue" points="381.135,-130.261 390.448,-125.21 380.018,-123.351 381.135,-130.261"/>
</g>
<!-- Node5 -->
<g id="node5" class="node"><title>Node5</title>
<g id="a_node5"><a xlink:href="class_g_u_i_input_manager.html#af367cbabbd2130a3cb260f93da0bb914" target="_top" xlink:title="GUIInputManager::checkPosition">
<polygon fill="white" stroke="black" points="580.5,-185.5 580.5,-204.5 741.5,-204.5 741.5,-185.5 580.5,-185.5"/>
<text text-anchor="middle" x="661" y="-192.5" font-family="Helvetica,sans-Serif" font-size="10.00">GUIInputManager::checkPosition</text>
</a>
</g>
</g>
<!-- Node4&#45;&gt;Node5 -->
<g id="edge4" class="edge"><title>Node4&#45;&gt;Node5</title>
<path fill="none" stroke="midnightblue" d="M534.613,-183.898C546.121,-184.917 558.253,-185.991 570.253,-187.054"/>
<polygon fill="midnightblue" stroke="midnightblue" points="570.016,-190.546 580.286,-187.942 570.634,-183.574 570.016,-190.546"/>
</g>
<!-- Node7 -->
<g id="node7" class="node"><title>Node7</title>
<g id="a_node7"><a xlink:href="namespace_ro_r_1_1_app.html#ab0161218de3dc36879f3e69b84238eba" target="_top" xlink:title="RoR::App::GetOgreSubsystem">
<polygon fill="white" stroke="black" points="585,-147.5 585,-166.5 737,-166.5 737,-147.5 585,-147.5"/>
<text text-anchor="middle" x="661" y="-154.5" font-family="Helvetica,sans-Serif" font-size="10.00">RoR::App::GetOgreSubsystem</text>
</a>
</g>
</g>
<!-- Node6&#45;&gt;Node7 -->
<g id="edge6" class="edge"><title>Node6&#45;&gt;Node7</title>
<path fill="none" stroke="midnightblue" d="M533.539,-128.019C558.048,-133.636 585.513,-139.93 608.569,-145.214"/>
<polygon fill="midnightblue" stroke="midnightblue" points="607.962,-148.665 618.491,-147.488 609.526,-141.842 607.962,-148.665"/>
</g>
<!-- Node8 -->
<g id="node8" class="node"><title>Node8</title>
<g id="a_node8"><a xlink:href="class_ro_r_1_1_ogre_subsystem.html#aec5be99797f9add72578fb1fbfec582f" target="_top" xlink:title="RoR::OgreSubsystem\l::GetRenderWindow">
<polygon fill="white" stroke="black" points="604.5,-98 604.5,-128 717.5,-128 717.5,-98 604.5,-98"/>
<text text-anchor="start" x="612.5" y="-116" font-family="Helvetica,sans-Serif" font-size="10.00">RoR::OgreSubsystem</text>
<text text-anchor="middle" x="661" y="-105" font-family="Helvetica,sans-Serif" font-size="10.00">::GetRenderWindow</text>
</a>
</g>
</g>
<!-- Node6&#45;&gt;Node8 -->
<g id="edge7" class="edge"><title>Node6&#45;&gt;Node8</title>
<path fill="none" stroke="midnightblue" d="M543.608,-113C560.222,-113 577.69,-113 593.896,-113"/>
<polygon fill="midnightblue" stroke="midnightblue" points="594.341,-116.5 604.341,-113 594.341,-109.5 594.341,-116.5"/>
</g>
<!-- Node9 -->
<g id="node9" class="node"><title>Node9</title>
<g id="a_node9"><a xlink:href="class_ro_r_1_1_g_u_i_1_1_game_main_menu.html#a166e66f4c854383407a2633e019a9681" target="_top" xlink:title="RoR::GUI::GameMainMenu\l::GetHeight">
<polygon fill="white" stroke="black" points="592,-49 592,-79 730,-79 730,-49 592,-49"/>
<text text-anchor="start" x="600" y="-67" font-family="Helvetica,sans-Serif" font-size="10.00">RoR::GUI::GameMainMenu</text>
<text text-anchor="middle" x="661" y="-56" font-family="Helvetica,sans-Serif" font-size="10.00">::GetHeight</text>
</a>
</g>
</g>
<!-- Node6&#45;&gt;Node9 -->
<g id="edge8" class="edge"><title>Node6&#45;&gt;Node9</title>
<path fill="none" stroke="midnightblue" d="M526.911,-97.9654C547.276,-92.7682 570.272,-86.8994 591.349,-81.5204"/>
<polygon fill="midnightblue" stroke="midnightblue" points="592.376,-84.8704 601.2,-79.0062 590.645,-78.0878 592.376,-84.8704"/>
</g>
<!-- Node10 -->
<g id="node10" class="node"><title>Node10</title>
<g id="a_node10"><a xlink:href="class_ro_r_1_1_g_u_i_1_1_game_main_menu.html#a1653b19df9892e3ee1c23d08c3b1041b" target="_top" xlink:title="RoR::GUI::GameMainMenu\l::SetPosition">
<polygon fill="white" stroke="black" points="592,-0 592,-30 730,-30 730,-0 592,-0"/>
<text text-anchor="start" x="600" y="-18" font-family="Helvetica,sans-Serif" font-size="10.00">RoR::GUI::GameMainMenu</text>
<text text-anchor="middle" x="661" y="-7" font-family="Helvetica,sans-Serif" font-size="10.00">::SetPosition</text>
</a>
</g>
</g>
<!-- Node6&#45;&gt;Node10 -->
<g id="edge9" class="edge"><title>Node6&#45;&gt;Node10</title>
<path fill="none" stroke="midnightblue" d="M487.192,-97.7741C508.711,-81.3277 545.171,-55.2976 580,-39 584.1,-37.0814 588.39,-35.2738 592.762,-33.5788"/>
<polygon fill="midnightblue" stroke="midnightblue" points="594.233,-36.7678 602.424,-30.0481 591.83,-30.193 594.233,-36.7678"/>
</g>
</g>
</svg>
        <g id="navigator" transform="translate(0 0)" fill="#404254">
                <rect fill="#f2f5e9" fill-opacity="0.5" stroke="#606060" stroke-width=".5" x="0" y="0" width="60" height="60"/>
                <use id="zoomplus" xlink:href="#zoomPlus" x="17" y="9" onmousedown="handleZoom(evt,'in')"/>
                <use id="zoomminus" xlink:href="#zoomMin" x="42" y="9" onmousedown="handleZoom(evt,'out')"/>
                <use id="reset" xlink:href="#resetDef" x="30" y="36" onmousedown="handleReset()"/>
                <g id="arrowUp" xlink:href="#dirArrow" transform="translate(30 24)" onmousedown="handlePan(0,-1)">
                  <use xlink:href="#rim" fill="#404040">
                        <set attributeName="fill" to="#808080" begin="arrowUp.mouseover" end="arrowUp.mouseout"/>
                  </use>
                  <path fill="none" stroke="white" stroke-width="1.5" d="M0,-3.0v7 M-2.5,-0.5L0,-3.0L2.5,-0.5"/>
                </g>
                <g id="arrowRight" xlink:href="#dirArrow" transform="rotate(90) translate(36 -43)" onmousedown="handlePan(1,0)">
                  <use xlink:href="#rim" fill="#404040">
                        <set attributeName="fill" to="#808080" begin="arrowRight.mouseover" end="arrowRight.mouseout"/>
                  </use>
                  <path fill="none" stroke="white" stroke-width="1.5" d="M0,-3.0v7 M-2.5,-0.5L0,-3.0L2.5,-0.5"/>
                </g>
                <g id="arrowDown" xlink:href="#dirArrow" transform="rotate(180) translate(-30 -48)" onmousedown="handlePan(0,1)">
                  <use xlink:href="#rim" fill="#404040">
                        <set attributeName="fill" to="#808080" begin="arrowDown.mouseover" end="arrowDown.mouseout"/>
                  </use>
                  <path fill="none" stroke="white" stroke-width="1.5" d="M0,-3.0v7 M-2.5,-0.5L0,-3.0L2.5,-0.5"/>
                </g>
                <g id="arrowLeft" xlink:href="#dirArrow" transform="rotate(270) translate(-36 17)" onmousedown="handlePan(-1,0)">
                  <use xlink:href="#rim" fill="#404040">
                        <set attributeName="fill" to="#808080" begin="arrowLeft.mouseover" end="arrowLeft.mouseout"/>
                  </use>
                  <path fill="none" stroke="white" stroke-width="1.5" d="M0,-3.0v7 M-2.5,-0.5L0,-3.0L2.5,-0.5"/>
                </g>
        </g>
        <svg viewBox="0 0 15 15" width="100%" height="30px" preserveAspectRatio="xMaxYMin meet">
         <g id="arrow_out" transform="scale(0.3 0.3)">
          <a xlink:href="class_input_engine_aa85ec07499919e7de34d3de44c869875_cgraph_org.svg" target="_base">
           <rect id="button" ry="5" rx="5" y="6" x="6" height="38" width="38"
                fill="#f2f5e9" fill-opacity="0.5" stroke="#606060" stroke-width="1.0"/>
           <path id="arrow"
             d="M 11.500037,31.436501 C 11.940474,20.09759 22.043105,11.32322 32.158766,21.979434 L 37.068811,17.246167 C 37.068811,17.246167 37.088388,32 37.088388,32 L 22.160133,31.978069 C 22.160133,31.978069 26.997745,27.140456 26.997745,27.140456 C 18.528582,18.264221 13.291696,25.230495 11.500037,31.436501 z"
             style="fill:#404040;"/>
          </a>
         </g>
        </svg>
</svg>
