<?xml version="1.0" encoding="UTF-8" standalone="no"?>
<!DOCTYPE svg PUBLIC "-//W3C//DTD SVG 1.1//EN"
 "http://www.w3.org/Graphics/SVG/1.1/DTD/svg11.dtd">
<!-- Generated by graphviz version 2.36.0 (20140111.2315)
 -->
<!-- Title: RigDef::Parser::ParseWheel2 Pages: 1 -->
<svg width="1052pt" height="66pt"
 viewBox="0.00 0.00 1052.00 66.00" xmlns="http://www.w3.org/2000/svg" xmlns:xlink="http://www.w3.org/1999/xlink">
<g id="graph0" class="graph" transform="scale(1 1) rotate(0) translate(4 62)">
<title>RigDef::Parser::ParseWheel2</title>
<polygon fill="white" stroke="none" points="-4,4 -4,-62 1048,-62 1048,4 -4,4"/>
<!-- Node1 -->
<g id="node1" class="node"><title>Node1</title>
<polygon fill="#bfbfbf" stroke="black" points="0,-19.5 0,-38.5 146,-38.5 146,-19.5 0,-19.5"/>
<text text-anchor="middle" x="73" y="-26.5" font-family="Helvetica,sans-Serif" font-size="10.00">RigDef::Parser::ParseWheel2</text>
</g>
<!-- Node2 -->
<g id="node2" class="node"><title>Node2</title>
<g id="a_node2"><a xlink:href="class_rig_def_1_1_parser.html#a99a49d75798b1fa5dfbd00873455fbeb" target="_top" xlink:title="RigDef::Parser::ProcessCurrentLine">
<polygon fill="white" stroke="black" points="182,-19.5 182,-38.5 356,-38.5 356,-19.5 182,-19.5"/>
<text text-anchor="middle" x="269" y="-26.5" font-family="Helvetica,sans-Serif" font-size="10.00">RigDef::Parser::ProcessCurrentLine</text>
</a>
</g>
</g>
<!-- Node1&#45;&gt;Node2 -->
<g id="edge1" class="edge"><title>Node1&#45;&gt;Node2</title>
<path fill="none" stroke="midnightblue" d="M156.438,-29C164.875,-29 173.463,-29 181.938,-29"/>
<polygon fill="midnightblue" stroke="midnightblue" points="156.238,-25.5001 146.238,-29 156.238,-32.5001 156.238,-25.5001"/>
</g>
<!-- Node3 -->
<g id="node3" class="node"><title>Node3</title>
<g id="a_node3"><a xlink:href="class_rig_def_1_1_parser.html#ad1920ba0a8dc23ac5043b2c270ef5f47" target="_top" xlink:title="RigDef::Parser::ProcessRawLine">
<polygon fill="white" stroke="black" points="392,-19.5 392,-38.5 554,-38.5 554,-19.5 392,-19.5"/>
<text text-anchor="middle" x="473" y="-26.5" font-family="Helvetica,sans-Serif" font-size="10.00">RigDef::Parser::ProcessRawLine</text>
</a>
</g>
</g>
<!-- Node2&#45;&gt;Node3 -->
<g id="edge2" class="edge"><title>Node2&#45;&gt;Node3</title>
<path fill="none" stroke="midnightblue" d="M366.255,-29C374.806,-29 383.403,-29 391.799,-29"/>
<polygon fill="midnightblue" stroke="midnightblue" points="366.252,-25.5001 356.252,-29 366.252,-32.5001 366.252,-25.5001"/>
</g>
<!-- Node4 -->
<g id="node4" class="node"><title>Node4</title>
<g id="a_node4"><a xlink:href="class_rig_def_1_1_parser.html#ab08d0ba4ffb90b72cb351014bb7861bd" target="_top" xlink:title="RigDef::Parser::ProcessOgre\lStream">
<polygon fill="white" stroke="black" points="590.5,-14 590.5,-44 735.5,-44 735.5,-14 590.5,-14"/>
<text text-anchor="start" x="598.5" y="-32" font-family="Helvetica,sans-Serif" font-size="10.00">RigDef::Parser::ProcessOgre</text>
<text text-anchor="middle" x="663" y="-21" font-family="Helvetica,sans-Serif" font-size="10.00">Stream</text>
</a>
</g>
</g>
<!-- Node3&#45;&gt;Node4 -->
<g id="edge3" class="edge"><title>Node3&#45;&gt;Node4</title>
<path fill="none" stroke="midnightblue" d="M564.261,-29C573.034,-29 581.85,-29 590.403,-29"/>
<polygon fill="midnightblue" stroke="midnightblue" points="564.002,-25.5001 554.002,-29 564.001,-32.5001 564.002,-25.5001"/>
</g>
<!-- Node5 -->
<g id="node5" class="node"><title>Node5</title>
<g id="a_node5"><a xlink:href="class_beam.html#ab0cbc6c4e3822fc5786af2c8036f7efb" target="_top" xlink:title="Beam::LoadTruck">
<polygon fill="white" stroke="black" points="806,-38.5 806,-57.5 900,-57.5 900,-38.5 806,-38.5"/>
<text text-anchor="middle" x="853" y="-45.5" font-family="Helvetica,sans-Serif" font-size="10.00">Beam::LoadTruck</text>
</a>
</g>
</g>
<!-- Node4&#45;&gt;Node5 -->
<g id="edge4" class="edge"><title>Node4&#45;&gt;Node5</title>
<path fill="none" stroke="midnightblue" d="M745.649,-37.2517C766.264,-39.3352 787.686,-41.5002 805.855,-43.3364"/>
<polygon fill="midnightblue" stroke="midnightblue" points="745.912,-33.7606 735.611,-36.2373 745.208,-40.7252 745.912,-33.7606"/>
</g>
<!-- Node7 -->
<g id="node7" class="node"><title>Node7</title>
<g id="a_node7"><a xlink:href="class_cache_system.html#ad640fd28c3075eb6310d8d8f3475cefb" target="_top" xlink:title="CacheSystem::fillTruckDetailInfo">
<polygon fill="white" stroke="black" points="772.5,-0.5 772.5,-19.5 933.5,-19.5 933.5,-0.5 772.5,-0.5"/>
<text text-anchor="middle" x="853" y="-7.5" font-family="Helvetica,sans-Serif" font-size="10.00">CacheSystem::fillTruckDetailInfo</text>
</a>
</g>
</g>
<!-- Node4&#45;&gt;Node7 -->
<g id="edge6" class="edge"><title>Node4&#45;&gt;Node7</title>
<path fill="none" stroke="midnightblue" d="M745.584,-20.7548C754.49,-19.8547 763.547,-18.9394 772.429,-18.0418"/>
<polygon fill="midnightblue" stroke="midnightblue" points="745.208,-17.2748 735.611,-21.7627 745.912,-24.2394 745.208,-17.2748"/>
</g>
<!-- Node6 -->
<g id="node6" class="node"><title>Node6</title>
<g id="a_node6"><a xlink:href="class_beam.html#a0d55b25fa0d1623305f3ac51694cbd42" target="_top" xlink:title="Beam::Beam">
<polygon fill="white" stroke="black" points="970,-38.5 970,-57.5 1044,-57.5 1044,-38.5 970,-38.5"/>
<text text-anchor="middle" x="1007" y="-45.5" font-family="Helvetica,sans-Serif" font-size="10.00">Beam::Beam</text>
</a>
</g>
</g>
<!-- Node5&#45;&gt;Node6 -->
<g id="edge5" class="edge"><title>Node5&#45;&gt;Node6</title>
<path fill="none" stroke="midnightblue" d="M910.22,-48C930.129,-48 951.985,-48 969.785,-48"/>
<polygon fill="midnightblue" stroke="midnightblue" points="910.018,-44.5001 900.018,-48 910.017,-51.5001 910.018,-44.5001"/>
</g>
</g>
</svg>
