<?xml version="1.0" encoding="UTF-8" standalone="no"?>
<!DOCTYPE svg PUBLIC "-//W3C//DTD SVG 1.1//EN"
 "http://www.w3.org/Graphics/SVG/1.1/DTD/svg11.dtd">
<!-- Generated by graphviz version 2.36.0 (20140111.2315)
 -->
<!-- Title: SlideNode::UpdateForces Pages: 1 -->
<svg width="300pt" height="116pt"
 viewBox="0.00 0.00 300.00 116.00" xmlns="http://www.w3.org/2000/svg" xmlns:xlink="http://www.w3.org/1999/xlink">
<g id="graph0" class="graph" transform="scale(1 1) rotate(0) translate(4 112)">
<title>SlideNode::UpdateForces</title>
<polygon fill="white" stroke="none" points="-4,4 -4,-112 296,-112 296,4 -4,4"/>
<!-- Node1 -->
<g id="node1" class="node"><title>Node1</title>
<polygon fill="#bfbfbf" stroke="black" points="0.5,-44.5 0.5,-63.5 129.5,-63.5 129.5,-44.5 0.5,-44.5"/>
<text text-anchor="middle" x="65" y="-51.5" font-family="Helvetica,sans-Serif" font-size="10.00">SlideNode::UpdateForces</text>
</g>
<!-- Node2 -->
<g id="node2" class="node"><title>Node2</title>
<g id="a_node2"><a xlink:href="class_slide_node.html#ad23b51a24cc3c95671d14c715496a7ae" target="_top" xlink:title="SlideNode::getFlag">
<polygon fill="white" stroke="black" points="179,-88.5 179,-107.5 279,-107.5 279,-88.5 179,-88.5"/>
<text text-anchor="middle" x="229" y="-95.5" font-family="Helvetica,sans-Serif" font-size="10.00">SlideNode::getFlag</text>
</a>
</g>
</g>
<!-- Node1&#45;&gt;Node2 -->
<g id="edge1" class="edge"><title>Node1&#45;&gt;Node2</title>
<path fill="none" stroke="midnightblue" d="M101.152,-63.5473C125.14,-70.0627 157.128,-78.7508 182.98,-85.7722"/>
<polygon fill="midnightblue" stroke="midnightblue" points="182.349,-89.2278 192.917,-88.4713 184.184,-82.4725 182.349,-89.2278"/>
</g>
<!-- Node3 -->
<g id="node3" class="node"><title>Node3</title>
<g id="a_node3"><a xlink:href="class_slide_node.html#a1b1058345404a3acb47ad0befb57578f" target="_top" xlink:title="SlideNode::getCorrective\lForces">
<polygon fill="white" stroke="black" points="166,-39 166,-69 292,-69 292,-39 166,-39"/>
<text text-anchor="start" x="174" y="-57" font-family="Helvetica,sans-Serif" font-size="10.00">SlideNode::getCorrective</text>
<text text-anchor="middle" x="229" y="-46" font-family="Helvetica,sans-Serif" font-size="10.00">Forces</text>
</a>
</g>
</g>
<!-- Node1&#45;&gt;Node3 -->
<g id="edge2" class="edge"><title>Node1&#45;&gt;Node3</title>
<path fill="none" stroke="midnightblue" d="M129.562,-54C138.163,-54 147.039,-54 155.778,-54"/>
<polygon fill="midnightblue" stroke="midnightblue" points="155.948,-57.5001 165.948,-54 155.948,-50.5001 155.948,-57.5001"/>
</g>
<!-- Node4 -->
<g id="node4" class="node"><title>Node4</title>
<g id="a_node4"><a xlink:href="class_slide_node.html#a8f8725382b867c6ed9ddaf1e7a6d710a" target="_top" xlink:title="SlideNode::setFlag">
<polygon fill="white" stroke="black" points="179,-0.5 179,-19.5 279,-19.5 279,-0.5 179,-0.5"/>
<text text-anchor="middle" x="229" y="-7.5" font-family="Helvetica,sans-Serif" font-size="10.00">SlideNode::setFlag</text>
</a>
</g>
</g>
<!-- Node1&#45;&gt;Node4 -->
<g id="edge3" class="edge"><title>Node1&#45;&gt;Node4</title>
<path fill="none" stroke="midnightblue" d="M101.152,-44.4527C125.14,-37.9373 157.128,-29.2492 182.98,-22.2278"/>
<polygon fill="midnightblue" stroke="midnightblue" points="184.184,-25.5275 192.917,-19.5287 182.349,-18.7722 184.184,-25.5275"/>
</g>
</g>
</svg>
