<?xml version="1.0" encoding="UTF-8" standalone="no"?>
<!DOCTYPE svg PUBLIC "-//W3C//DTD SVG 1.1//EN"
 "http://www.w3.org/Graphics/SVG/1.1/DTD/svg11.dtd">
<!-- Generated by graphviz version 2.36.0 (20140111.2315)
 -->
<!-- Title: CameraBehaviorCharacter Pages: 1 -->
<svg width="146pt" height="208pt"
 viewBox="0.00 0.00 146.00 208.00" xmlns="http://www.w3.org/2000/svg" xmlns:xlink="http://www.w3.org/1999/xlink">
<g id="graph0" class="graph" transform="scale(1 1) rotate(0) translate(4 204)">
<title>CameraBehaviorCharacter</title>
<polygon fill="white" stroke="none" points="-4,4 -4,-204 142,-204 142,4 -4,4"/>
<!-- Node1 -->
<g id="node1" class="node"><title>Node1</title>
<polygon fill="#bfbfbf" stroke="black" points="3,-0.5 3,-19.5 135,-19.5 135,-0.5 3,-0.5"/>
<text text-anchor="middle" x="69" y="-7.5" font-family="Helvetica,sans-Serif" font-size="10.00">CameraBehaviorCharacter</text>
</g>
<!-- Node2 -->
<g id="node2" class="node"><title>Node2</title>
<g id="a_node2"><a xlink:href="class_camera_behavior_orbit.html" target="_top" xlink:title="CameraBehaviorOrbit">
<polygon fill="white" stroke="black" points="14,-56.5 14,-75.5 124,-75.5 124,-56.5 14,-56.5"/>
<text text-anchor="middle" x="69" y="-63.5" font-family="Helvetica,sans-Serif" font-size="10.00">CameraBehaviorOrbit</text>
</a>
</g>
</g>
<!-- Node2&#45;&gt;Node1 -->
<g id="edge1" class="edge"><title>Node2&#45;&gt;Node1</title>
<path fill="none" stroke="midnightblue" d="M69,-45.8045C69,-36.9102 69,-26.7798 69,-19.7511"/>
<polygon fill="midnightblue" stroke="midnightblue" points="65.5001,-46.083 69,-56.083 72.5001,-46.083 65.5001,-46.083"/>
</g>
<!-- Node3 -->
<g id="node3" class="node"><title>Node3</title>
<g id="a_node3"><a xlink:href="class_i_behavior.html" target="_top" xlink:title="IBehavior\&lt; CameraManager\l::CameraContext \&gt;">
<polygon fill="white" stroke="black" points="-0.5,-113 -0.5,-143 138.5,-143 138.5,-113 -0.5,-113"/>
<text text-anchor="start" x="7.5" y="-131" font-family="Helvetica,sans-Serif" font-size="10.00">IBehavior&lt; CameraManager</text>
<text text-anchor="middle" x="69" y="-120" font-family="Helvetica,sans-Serif" font-size="10.00">::CameraContext &gt;</text>
</a>
</g>
</g>
<!-- Node3&#45;&gt;Node2 -->
<g id="edge2" class="edge"><title>Node3&#45;&gt;Node2</title>
<path fill="none" stroke="midnightblue" d="M69,-102.586C69,-93.0743 69,-82.7864 69,-75.7305"/>
<polygon fill="midnightblue" stroke="midnightblue" points="65.5001,-102.781 69,-112.781 72.5001,-102.781 65.5001,-102.781"/>
</g>
<!-- Node4 -->
<g id="node4" class="node"><title>Node4</title>
<g id="a_node4"><a xlink:href="class_zeroed_memory_allocator.html" target="_top" xlink:title="ZeroedMemoryAllocator">
<polygon fill="white" stroke="black" points="9,-180.5 9,-199.5 129,-199.5 129,-180.5 9,-180.5"/>
<text text-anchor="middle" x="69" y="-187.5" font-family="Helvetica,sans-Serif" font-size="10.00">ZeroedMemoryAllocator</text>
</a>
</g>
</g>
<!-- Node4&#45;&gt;Node3 -->
<g id="edge3" class="edge"><title>Node4&#45;&gt;Node3</title>
<path fill="none" stroke="midnightblue" d="M69,-170.371C69,-161.585 69,-151.272 69,-143.141"/>
<polygon fill="midnightblue" stroke="midnightblue" points="65.5001,-170.403 69,-180.403 72.5001,-170.403 65.5001,-170.403"/>
</g>
</g>
</svg>
