<?xml version="1.0" encoding="UTF-8" standalone="no"?>
<!DOCTYPE svg PUBLIC "-//W3C//DTD SVG 1.1//EN"
 "http://www.w3.org/Graphics/SVG/1.1/DTD/svg11.dtd">
<!-- Generated by graphviz version 2.36.0 (20140111.2315)
 -->
<!-- Title: RigDef::Parser::ParseFlexbody Pages: 1 -->
<svg width="732pt" height="182pt"
 viewBox="0.00 0.00 732.00 181.50" xmlns="http://www.w3.org/2000/svg" xmlns:xlink="http://www.w3.org/1999/xlink">
<g id="graph0" class="graph" transform="scale(1 1) rotate(0) translate(4 177.502)">
<title>RigDef::Parser::ParseFlexbody</title>
<polygon fill="white" stroke="none" points="-4,4 -4,-177.502 728,-177.502 728,4 -4,4"/>
<!-- Node1 -->
<g id="node1" class="node"><title>Node1</title>
<polygon fill="#bfbfbf" stroke="black" points="0.5,-88.5 0.5,-107.5 153.5,-107.5 153.5,-88.5 0.5,-88.5"/>
<text text-anchor="middle" x="77" y="-95.5" font-family="Helvetica,sans-Serif" font-size="10.00">RigDef::Parser::ParseFlexbody</text>
</g>
<!-- Node2 -->
<g id="node2" class="node"><title>Node2</title>
<g id="a_node2"><a xlink:href="class_rig_def_1_1_parser.html#a8397c243299359e21a84243c01ca43bf" target="_top" xlink:title="RigDef::Parser::CheckNum\lArguments">
<polygon fill="white" stroke="black" points="394.5,-82 394.5,-112 531.5,-112 531.5,-82 394.5,-82"/>
<text text-anchor="start" x="402.5" y="-100" font-family="Helvetica,sans-Serif" font-size="10.00">RigDef::Parser::CheckNum</text>
<text text-anchor="middle" x="463" y="-89" font-family="Helvetica,sans-Serif" font-size="10.00">Arguments</text>
</a>
</g>
</g>
<!-- Node1&#45;&gt;Node2 -->
<g id="edge1" class="edge"><title>Node1&#45;&gt;Node2</title>
<path fill="none" stroke="midnightblue" d="M153.866,-97.8024C220.498,-97.6289 317.021,-97.3775 384.218,-97.2026"/>
<polygon fill="midnightblue" stroke="midnightblue" points="384.336,-100.702 394.327,-97.1762 384.318,-93.7024 384.336,-100.702"/>
</g>
<!-- Node3 -->
<g id="node3" class="node"><title>Node3</title>
<g id="a_node3"><a xlink:href="class_rig_def_1_1_parser.html#a7da949423835fe3241f2ac4c5ac8ebb1" target="_top" xlink:title="Adds a message to parser report. ">
<polygon fill="white" stroke="black" points="578.5,-109.5 578.5,-128.5 723.5,-128.5 723.5,-109.5 578.5,-109.5"/>
<text text-anchor="middle" x="651" y="-116.5" font-family="Helvetica,sans-Serif" font-size="10.00">RigDef::Parser::AddMessage</text>
</a>
</g>
</g>
<!-- Node1&#45;&gt;Node3 -->
<g id="edge11" class="edge"><title>Node1&#45;&gt;Node3</title>
<path fill="none" stroke="midnightblue" d="M90.9039,-107.692C110.88,-122.024 151.061,-148.227 190,-158 340.96,-195.889 527.59,-153.853 608.907,-131.347"/>
<polygon fill="midnightblue" stroke="midnightblue" points="610.075,-134.655 618.752,-128.575 608.177,-127.917 610.075,-134.655"/>
</g>
<!-- Node4 -->
<g id="node4" class="node"><title>Node4</title>
<g id="a_node4"><a xlink:href="class_rig_def_1_1_parser.html#a57b7efa0a566ae343d6148a05d420eae" target="_top" xlink:title="RigDef::Parser::GetArgNodeRef">
<polygon fill="white" stroke="black" points="190,-12.5 190,-31.5 348,-31.5 348,-12.5 190,-12.5"/>
<text text-anchor="middle" x="269" y="-19.5" font-family="Helvetica,sans-Serif" font-size="10.00">RigDef::Parser::GetArgNodeRef</text>
</a>
</g>
</g>
<!-- Node1&#45;&gt;Node4 -->
<g id="edge3" class="edge"><title>Node1&#45;&gt;Node4</title>
<path fill="none" stroke="midnightblue" d="M96.6855,-88.367C118.65,-77.2695 156.377,-58.9091 190,-46 200.844,-41.8366 212.742,-37.8784 223.907,-34.421"/>
<polygon fill="midnightblue" stroke="midnightblue" points="224.929,-37.7684 233.485,-31.519 222.9,-31.0691 224.929,-37.7684"/>
</g>
<!-- Node7 -->
<g id="node7" class="node"><title>Node7</title>
<g id="a_node7"><a xlink:href="class_rig_def_1_1_parser.html#a629f3ff2e6181f7953ec28168b0aac00" target="_top" xlink:title="RigDef::Parser::GetArgStr">
<polygon fill="white" stroke="black" points="397.5,-43.5 397.5,-62.5 528.5,-62.5 528.5,-43.5 397.5,-43.5"/>
<text text-anchor="middle" x="463" y="-50.5" font-family="Helvetica,sans-Serif" font-size="10.00">RigDef::Parser::GetArgStr</text>
</a>
</g>
</g>
<!-- Node1&#45;&gt;Node7 -->
<g id="edge10" class="edge"><title>Node1&#45;&gt;Node7</title>
<path fill="none" stroke="midnightblue" d="M153.866,-89.1094C221.538,-81.1792 320.04,-69.6359 387.342,-61.749"/>
<polygon fill="midnightblue" stroke="midnightblue" points="387.927,-65.2045 397.451,-60.5643 387.112,-58.2521 387.927,-65.2045"/>
</g>
<!-- Node8 -->
<g id="node8" class="node"><title>Node8</title>
<g id="a_node8"><a xlink:href="class_rig_def_1_1_parser.html#ae77a4970494c116e98a92be7a0160a16" target="_top" xlink:title="RigDef::Parser::GetArgFloat">
<polygon fill="white" stroke="black" points="199,-129.5 199,-148.5 339,-148.5 339,-129.5 199,-129.5"/>
<text text-anchor="middle" x="269" y="-136.5" font-family="Helvetica,sans-Serif" font-size="10.00">RigDef::Parser::GetArgFloat</text>
</a>
</g>
</g>
<!-- Node1&#45;&gt;Node8 -->
<g id="edge8" class="edge"><title>Node1&#45;&gt;Node8</title>
<path fill="none" stroke="midnightblue" d="M122.067,-107.509C149.427,-113.413 184.788,-121.044 213.85,-127.315"/>
<polygon fill="midnightblue" stroke="midnightblue" points="213.33,-130.783 223.843,-129.471 214.806,-123.941 213.33,-130.783"/>
</g>
<!-- Node2&#45;&gt;Node3 -->
<g id="edge2" class="edge"><title>Node2&#45;&gt;Node3</title>
<path fill="none" stroke="midnightblue" d="M531.676,-105.005C543.524,-106.406 555.966,-107.878 568.148,-109.319"/>
<polygon fill="midnightblue" stroke="midnightblue" points="567.96,-112.821 578.302,-110.52 568.782,-105.869 567.96,-112.821"/>
</g>
<!-- Node5 -->
<g id="node5" class="node"><title>Node5</title>
<g id="a_node5"><a xlink:href="class_rig_def_1_1_parser.html#a38e4135df406da0cc2f0fc4afb34ddb3" target="_top" xlink:title="RigDef::Parser::_ParseNodeRef">
<polygon fill="white" stroke="black" points="384,-5.5 384,-24.5 542,-24.5 542,-5.5 384,-5.5"/>
<text text-anchor="middle" x="463" y="-12.5" font-family="Helvetica,sans-Serif" font-size="10.00">RigDef::Parser::_ParseNodeRef</text>
</a>
</g>
</g>
<!-- Node4&#45;&gt;Node5 -->
<g id="edge4" class="edge"><title>Node4&#45;&gt;Node5</title>
<path fill="none" stroke="midnightblue" d="M348.094,-19.1528C356.601,-18.8427 365.302,-18.5255 373.918,-18.2113"/>
<polygon fill="midnightblue" stroke="midnightblue" points="374.11,-21.7068 383.975,-17.8446 373.855,-14.7114 374.11,-21.7068"/>
</g>
<!-- Node4&#45;&gt;Node7 -->
<g id="edge7" class="edge"><title>Node4&#45;&gt;Node7</title>
<path fill="none" stroke="midnightblue" d="M328.911,-31.5117C349.089,-34.7696 371.85,-38.4445 392.768,-41.8219"/>
<polygon fill="midnightblue" stroke="midnightblue" points="392.439,-45.3141 402.869,-43.4529 393.555,-38.4036 392.439,-45.3141"/>
</g>
<!-- Node5&#45;&gt;Node3 -->
<g id="edge6" class="edge"><title>Node5&#45;&gt;Node3</title>
<path fill="none" stroke="midnightblue" d="M516.69,-24.5634C525.371,-27.0564 534.104,-30.1581 542,-34 578.206,-51.6175 613.607,-82.9428 633.533,-102.249"/>
<polygon fill="midnightblue" stroke="midnightblue" points="631.275,-104.939 640.849,-109.477 636.195,-99.9591 631.275,-104.939"/>
</g>
<!-- Node6 -->
<g id="node6" class="node"><title>Node6</title>
<g id="a_node6"><a xlink:href="class_rig_def_1_1_sequential_importer.html#a04d293d8b1f94b9a722e83715911e547" target="_top" xlink:title="RigDef::SequentialImporter\l::IsEnabled">
<polygon fill="white" stroke="black" points="583.5,-0 583.5,-30 718.5,-30 718.5,-0 583.5,-0"/>
<text text-anchor="start" x="591.5" y="-18" font-family="Helvetica,sans-Serif" font-size="10.00">RigDef::SequentialImporter</text>
<text text-anchor="middle" x="651" y="-7" font-family="Helvetica,sans-Serif" font-size="10.00">::IsEnabled</text>
</a>
</g>
</g>
<!-- Node5&#45;&gt;Node6 -->
<g id="edge5" class="edge"><title>Node5&#45;&gt;Node6</title>
<path fill="none" stroke="midnightblue" d="M542.072,-15C552.362,-15 562.902,-15 573.17,-15"/>
<polygon fill="midnightblue" stroke="midnightblue" points="573.329,-18.5001 583.329,-15 573.329,-11.5001 573.329,-18.5001"/>
</g>
<!-- Node8&#45;&gt;Node3 -->
<g id="edge9" class="edge"><title>Node8&#45;&gt;Node3</title>
<path fill="none" stroke="midnightblue" d="M339.256,-135.355C403.702,-131.963 499.792,-126.906 568.035,-123.314"/>
<polygon fill="midnightblue" stroke="midnightblue" points="568.514,-126.794 578.316,-122.773 568.146,-119.803 568.514,-126.794"/>
</g>
</g>
</svg>
