<?xml version="1.0" encoding="UTF-8" standalone="no"?>
<!DOCTYPE svg PUBLIC "-//W3C//DTD SVG 1.1//EN"
 "http://www.w3.org/Graphics/SVG/1.1/DTD/svg11.dtd">
<!-- Generated by graphviz version 2.36.0 (20140111.2315)
 -->
<!-- Title: Water::showWave Pages: 1 -->
<svg width="446pt" height="115pt"
 viewBox="0.00 0.00 446.00 115.00" xmlns="http://www.w3.org/2000/svg" xmlns:xlink="http://www.w3.org/1999/xlink">
<g id="graph0" class="graph" transform="scale(1 1) rotate(0) translate(4 111)">
<title>Water::showWave</title>
<polygon fill="white" stroke="none" points="-4,4 -4,-111 442,-111 442,4 -4,4"/>
<!-- Node1 -->
<g id="node1" class="node"><title>Node1</title>
<polygon fill="#bfbfbf" stroke="black" points="0,-38.5 0,-57.5 98,-57.5 98,-38.5 0,-38.5"/>
<text text-anchor="middle" x="49" y="-45.5" font-family="Helvetica,sans-Serif" font-size="10.00">Water::showWave</text>
</g>
<!-- Node2 -->
<g id="node2" class="node"><title>Node2</title>
<g id="a_node2"><a xlink:href="class_water.html#ae0ff5f204633423eb3d8f825940b0c94" target="_top" xlink:title="Water::getHeightWaves">
<polygon fill="white" stroke="black" points="134,-38.5 134,-57.5 256,-57.5 256,-38.5 134,-38.5"/>
<text text-anchor="middle" x="195" y="-45.5" font-family="Helvetica,sans-Serif" font-size="10.00">Water::getHeightWaves</text>
</a>
</g>
</g>
<!-- Node1&#45;&gt;Node2 -->
<g id="edge1" class="edge"><title>Node1&#45;&gt;Node2</title>
<path fill="none" stroke="midnightblue" d="M98.3505,-48C106.513,-48 115.133,-48 123.719,-48"/>
<polygon fill="midnightblue" stroke="midnightblue" points="123.755,-51.5001 133.755,-48 123.755,-44.5001 123.755,-51.5001"/>
</g>
<!-- Node3 -->
<g id="node3" class="node"><title>Node3</title>
<g id="a_node3"><a xlink:href="namespace_ro_r_1_1_app.html#a347d49b8105a10d1f95dfa8dcc543fc0" target="_top" xlink:title="RoR::App::GetGfxWaterUse\lWaves">
<polygon fill="white" stroke="black" points="294,-77 294,-107 436,-107 436,-77 294,-77"/>
<text text-anchor="start" x="302" y="-95" font-family="Helvetica,sans-Serif" font-size="10.00">RoR::App::GetGfxWaterUse</text>
<text text-anchor="middle" x="365" y="-84" font-family="Helvetica,sans-Serif" font-size="10.00">Waves</text>
</a>
</g>
</g>
<!-- Node2&#45;&gt;Node3 -->
<g id="edge2" class="edge"><title>Node2&#45;&gt;Node3</title>
<path fill="none" stroke="midnightblue" d="M232.453,-57.5473C251.199,-62.457 274.656,-68.6004 296.551,-74.3347"/>
<polygon fill="midnightblue" stroke="midnightblue" points="295.917,-77.7868 306.478,-76.9346 297.691,-71.0152 295.917,-77.7868"/>
</g>
<!-- Node4 -->
<g id="node4" class="node"><title>Node4</title>
<g id="a_node4"><a xlink:href="namespace_ro_r_1_1_app.html#a61093e1171e9aa1d2824499b9a6b8e18" target="_top" xlink:title="RoR::App::GetActiveMpState">
<polygon fill="white" stroke="black" points="292,-38.5 292,-57.5 438,-57.5 438,-38.5 292,-38.5"/>
<text text-anchor="middle" x="365" y="-45.5" font-family="Helvetica,sans-Serif" font-size="10.00">RoR::App::GetActiveMpState</text>
</a>
</g>
</g>
<!-- Node2&#45;&gt;Node4 -->
<g id="edge3" class="edge"><title>Node2&#45;&gt;Node4</title>
<path fill="none" stroke="midnightblue" d="M256.177,-48C264.501,-48 273.165,-48 281.803,-48"/>
<polygon fill="midnightblue" stroke="midnightblue" points="281.91,-51.5001 291.91,-48 281.91,-44.5001 281.91,-51.5001"/>
</g>
<!-- Node5 -->
<g id="node5" class="node"><title>Node5</title>
<g id="a_node5"><a xlink:href="class_water.html#a0e898659c77fb2358402d0cd669301c0" target="_top" xlink:title="Water::getWaveHeight">
<polygon fill="white" stroke="black" points="307,-0.5 307,-19.5 423,-19.5 423,-0.5 307,-0.5"/>
<text text-anchor="middle" x="365" y="-7.5" font-family="Helvetica,sans-Serif" font-size="10.00">Water::getWaveHeight</text>
</a>
</g>
</g>
<!-- Node2&#45;&gt;Node5 -->
<g id="edge4" class="edge"><title>Node2&#45;&gt;Node5</title>
<path fill="none" stroke="midnightblue" d="M238.393,-38.411C260.763,-33.3513 288.398,-27.1004 312.047,-21.7512"/>
<polygon fill="midnightblue" stroke="midnightblue" points="312.93,-25.1401 321.911,-19.5201 311.386,-18.3125 312.93,-25.1401"/>
</g>
</g>
</svg>
