<?xml version="1.0" encoding="UTF-8" standalone="no"?>
<!DOCTYPE svg PUBLIC "-//W3C//DTD SVG 1.1//EN"
 "http://www.w3.org/Graphics/SVG/1.1/DTD/svg11.dtd">
<!-- Generated by graphviz version 2.36.0 (20140111.2315)
 -->
<!-- Title: Hydrax::GodRaysManager::create Pages: 1 -->
<svg width="742pt" height="471pt"
 viewBox="0.00 0.00 742.00 471.00" xmlns="http://www.w3.org/2000/svg" xmlns:xlink="http://www.w3.org/1999/xlink">
<g id="graph0" class="graph" transform="scale(1 1) rotate(0) translate(4 467)">
<title>Hydrax::GodRaysManager::create</title>
<polygon fill="white" stroke="none" points="-4,4 -4,-467 738,-467 738,4 -4,4"/>
<!-- Node1 -->
<g id="node1" class="node"><title>Node1</title>
<polygon fill="#bfbfbf" stroke="black" points="0.5,-238 0.5,-268 133.5,-268 133.5,-238 0.5,-238"/>
<text text-anchor="start" x="8.5" y="-256" font-family="Helvetica,sans-Serif" font-size="10.00">Hydrax::GodRaysManager</text>
<text text-anchor="middle" x="67" y="-245" font-family="Helvetica,sans-Serif" font-size="10.00">::create</text>
</g>
<!-- Node2 -->
<g id="node2" class="node"><title>Node2</title>
<g id="a_node2"><a xlink:href="class_hydrax_1_1_noise_1_1_perlin.html#a3e260e7c239d90da210aa3e27289c6f0" target="_top" xlink:title="Hydrax::Noise::Perlin\l::create">
<polygon fill="white" stroke="black" points="182,-380 182,-410 292,-410 292,-380 182,-380"/>
<text text-anchor="start" x="190" y="-398" font-family="Helvetica,sans-Serif" font-size="10.00">Hydrax::Noise::Perlin</text>
<text text-anchor="middle" x="237" y="-387" font-family="Helvetica,sans-Serif" font-size="10.00">::create</text>
</a>
</g>
</g>
<!-- Node1&#45;&gt;Node2 -->
<g id="edge1" class="edge"><title>Node1&#45;&gt;Node2</title>
<path fill="none" stroke="midnightblue" d="M79.8964,-268.315C97.7114,-290.535 133.181,-332.1 170,-360 177.21,-365.464 185.391,-370.548 193.478,-375.055"/>
<polygon fill="midnightblue" stroke="midnightblue" points="192.043,-378.257 202.512,-379.887 195.345,-372.084 192.043,-378.257"/>
</g>
<!-- Node6 -->
<g id="node6" class="node"><title>Node6</title>
<g id="a_node6"><a xlink:href="class_hydrax_1_1_hydrax.html#a4f6dfef270938f04d0430eaf8e1fa88f" target="_top" xlink:title="Hydrax::Hydrax::getScene\lManager">
<polygon fill="white" stroke="black" points="389.5,-286 389.5,-316 522.5,-316 522.5,-286 389.5,-286"/>
<text text-anchor="start" x="397.5" y="-304" font-family="Helvetica,sans-Serif" font-size="10.00">Hydrax::Hydrax::getScene</text>
<text text-anchor="middle" x="456" y="-293" font-family="Helvetica,sans-Serif" font-size="10.00">Manager</text>
</a>
</g>
</g>
<!-- Node1&#45;&gt;Node6 -->
<g id="edge5" class="edge"><title>Node1&#45;&gt;Node6</title>
<path fill="none" stroke="midnightblue" d="M82.5411,-268.035C100.945,-285.871 134.544,-314.62 170,-326 226.706,-344.201 244.645,-330.88 304,-326 328.563,-323.98 355.148,-320.143 379.066,-316.069"/>
<polygon fill="midnightblue" stroke="midnightblue" points="379.889,-319.479 389.14,-314.314 378.687,-312.583 379.889,-319.479"/>
</g>
<!-- Node7 -->
<g id="node7" class="node"><title>Node7</title>
<g id="a_node7"><a xlink:href="class_hydrax_1_1_god_rays_manager.html#ae9b48811f31edab50567458b6a59cebb" target="_top" xlink:title="Hydrax::GodRaysManager\l::_createDepthRTT">
<polygon fill="white" stroke="black" points="170.5,-287 170.5,-317 303.5,-317 303.5,-287 170.5,-287"/>
<text text-anchor="start" x="178.5" y="-305" font-family="Helvetica,sans-Serif" font-size="10.00">Hydrax::GodRaysManager</text>
<text text-anchor="middle" x="237" y="-294" font-family="Helvetica,sans-Serif" font-size="10.00">::_createDepthRTT</text>
</a>
</g>
</g>
<!-- Node1&#45;&gt;Node7 -->
<g id="edge6" class="edge"><title>Node1&#45;&gt;Node7</title>
<path fill="none" stroke="midnightblue" d="M119.776,-268.101C137.103,-273.155 156.586,-278.838 174.577,-284.085"/>
<polygon fill="midnightblue" stroke="midnightblue" points="173.815,-287.508 184.395,-286.948 175.775,-280.788 173.815,-287.508"/>
</g>
<!-- Node8 -->
<g id="node8" class="node"><title>Node8</title>
<g id="a_node8"><a xlink:href="class_hydrax_1_1_god_rays_manager.html#ad8e21289bddd02ed9a62b3a2db1ff54f" target="_top" xlink:title="Hydrax::GodRaysManager\l::_createMaterials">
<polygon fill="white" stroke="black" points="170.5,-140 170.5,-170 303.5,-170 303.5,-140 170.5,-140"/>
<text text-anchor="start" x="178.5" y="-158" font-family="Helvetica,sans-Serif" font-size="10.00">Hydrax::GodRaysManager</text>
<text text-anchor="middle" x="237" y="-147" font-family="Helvetica,sans-Serif" font-size="10.00">::_createMaterials</text>
</a>
</g>
</g>
<!-- Node1&#45;&gt;Node8 -->
<g id="edge7" class="edge"><title>Node1&#45;&gt;Node8</title>
<path fill="none" stroke="midnightblue" d="M78.9368,-237.858C95.4307,-220.708 128.257,-193.86 161.433,-174.753"/>
<polygon fill="midnightblue" stroke="midnightblue" points="163.271,-177.736 170.324,-169.829 159.88,-171.612 163.271,-177.736"/>
</g>
<!-- Node15 -->
<g id="node15" class="node"><title>Node15</title>
<g id="a_node15"><a xlink:href="class_hydrax_1_1_god_rays_manager.html#abe86da8a21691f1bac9d817147c9edba" target="_top" xlink:title="Hydrax::GodRaysManager\l::addDepthTechnique">
<polygon fill="white" stroke="black" points="170.5,-189 170.5,-219 303.5,-219 303.5,-189 170.5,-189"/>
<text text-anchor="start" x="178.5" y="-207" font-family="Helvetica,sans-Serif" font-size="10.00">Hydrax::GodRaysManager</text>
<text text-anchor="middle" x="237" y="-196" font-family="Helvetica,sans-Serif" font-size="10.00">::addDepthTechnique</text>
</a>
</g>
</g>
<!-- Node1&#45;&gt;Node15 -->
<g id="edge15" class="edge"><title>Node1&#45;&gt;Node15</title>
<path fill="none" stroke="midnightblue" d="M119.776,-237.899C137.103,-232.845 156.586,-227.162 174.577,-221.915"/>
<polygon fill="midnightblue" stroke="midnightblue" points="175.775,-225.212 184.395,-219.052 173.815,-218.492 175.775,-225.212"/>
</g>
<!-- Node16 -->
<g id="node16" class="node"><title>Node16</title>
<g id="a_node16"><a xlink:href="class_hydrax_1_1_god_rays_manager.html#ab60cb054a3c4948b82c0b1c3736d17b3" target="_top" xlink:title="Hydrax::GodRaysManager\l::_createGodRays">
<polygon fill="white" stroke="black" points="170.5,-238 170.5,-268 303.5,-268 303.5,-238 170.5,-238"/>
<text text-anchor="start" x="178.5" y="-256" font-family="Helvetica,sans-Serif" font-size="10.00">Hydrax::GodRaysManager</text>
<text text-anchor="middle" x="237" y="-245" font-family="Helvetica,sans-Serif" font-size="10.00">::_createGodRays</text>
</a>
</g>
</g>
<!-- Node1&#45;&gt;Node16 -->
<g id="edge17" class="edge"><title>Node1&#45;&gt;Node16</title>
<path fill="none" stroke="midnightblue" d="M133.916,-253C142.505,-253 151.359,-253 160.096,-253"/>
<polygon fill="midnightblue" stroke="midnightblue" points="160.274,-256.5 170.274,-253 160.274,-249.5 160.274,-256.5"/>
</g>
<!-- Node3 -->
<g id="node3" class="node"><title>Node3</title>
<g id="a_node3"><a xlink:href="class_hydrax_1_1_noise_1_1_noise.html#a94f5963b8f6fed2fb22149ff22e1166f" target="_top" xlink:title="Hydrax::Noise::Noise\l::isCreated">
<polygon fill="white" stroke="black" points="400.5,-384 400.5,-414 511.5,-414 511.5,-384 400.5,-384"/>
<text text-anchor="start" x="408.5" y="-402" font-family="Helvetica,sans-Serif" font-size="10.00">Hydrax::Noise::Noise</text>
<text text-anchor="middle" x="456" y="-391" font-family="Helvetica,sans-Serif" font-size="10.00">::isCreated</text>
</a>
</g>
</g>
<!-- Node2&#45;&gt;Node3 -->
<g id="edge2" class="edge"><title>Node2&#45;&gt;Node3</title>
<path fill="none" stroke="midnightblue" d="M292.198,-395.999C321.861,-396.546 358.819,-397.227 390.021,-397.802"/>
<polygon fill="midnightblue" stroke="midnightblue" points="390.3,-401.308 400.363,-397.993 390.429,-394.309 390.3,-401.308"/>
</g>
<!-- Node4 -->
<g id="node4" class="node"><title>Node4</title>
<g id="a_node4"><a xlink:href="class_hydrax_1_1_noise_1_1_noise.html#abe9cf8765feed765e6a35b0779125f6a" target="_top" xlink:title="Hydrax::Noise::Noise\l::create">
<polygon fill="white" stroke="black" points="400.5,-335 400.5,-365 511.5,-365 511.5,-335 400.5,-335"/>
<text text-anchor="start" x="408.5" y="-353" font-family="Helvetica,sans-Serif" font-size="10.00">Hydrax::Noise::Noise</text>
<text text-anchor="middle" x="456" y="-342" font-family="Helvetica,sans-Serif" font-size="10.00">::create</text>
</a>
</g>
</g>
<!-- Node2&#45;&gt;Node4 -->
<g id="edge3" class="edge"><title>Node2&#45;&gt;Node4</title>
<path fill="none" stroke="midnightblue" d="M292.198,-383.761C321.99,-377.583 359.141,-369.879 390.428,-363.391"/>
<polygon fill="midnightblue" stroke="midnightblue" points="391.282,-366.788 400.363,-361.33 389.861,-359.934 391.282,-366.788"/>
</g>
<!-- Node5 -->
<g id="node5" class="node"><title>Node5</title>
<g id="a_node5"><a xlink:href="class_hydrax_1_1_noise_1_1_perlin.html#a79f375919de9abd4823e60ce003a95e6" target="_top" xlink:title="Hydrax::Noise::Perlin\l::_initNoise">
<polygon fill="white" stroke="black" points="401,-433 401,-463 511,-463 511,-433 401,-433"/>
<text text-anchor="start" x="409" y="-451" font-family="Helvetica,sans-Serif" font-size="10.00">Hydrax::Noise::Perlin</text>
<text text-anchor="middle" x="456" y="-440" font-family="Helvetica,sans-Serif" font-size="10.00">::_initNoise</text>
</a>
</g>
</g>
<!-- Node2&#45;&gt;Node5 -->
<g id="edge4" class="edge"><title>Node2&#45;&gt;Node5</title>
<path fill="none" stroke="midnightblue" d="M290.536,-410.003C306.386,-414.372 323.861,-419.034 340,-423 356.349,-427.018 374.087,-431.039 390.627,-434.646"/>
<polygon fill="midnightblue" stroke="midnightblue" points="390.233,-438.141 400.747,-436.834 391.713,-431.3 390.233,-438.141"/>
</g>
<!-- Node8&#45;&gt;Node1 -->
<g id="edge11" class="edge"><title>Node8&#45;&gt;Node1</title>
<path fill="none" stroke="midnightblue" d="M211.792,-170.009C198.998,-175.151 183.245,-180.966 170,-188 146.374,-200.547 122.048,-217.99 103.08,-231.809"/>
<polygon fill="midnightblue" stroke="midnightblue" points="100.782,-229.153 94.7639,-237.873 104.906,-234.809 100.782,-229.153"/>
</g>
<!-- Node9 -->
<g id="node9" class="node"><title>Node9</title>
<g id="a_node9"><a xlink:href="class_hydrax_1_1_hydrax.html#aa3ca4b94a8cfb1aed6e3a997dc9fac7e" target="_top" xlink:title="Hydrax::Hydrax::getShaderMode">
<polygon fill="white" stroke="black" points="376,-196.5 376,-215.5 536,-215.5 536,-196.5 376,-196.5"/>
<text text-anchor="middle" x="456" y="-203.5" font-family="Helvetica,sans-Serif" font-size="10.00">Hydrax::Hydrax::getShaderMode</text>
</a>
</g>
</g>
<!-- Node8&#45;&gt;Node9 -->
<g id="edge8" class="edge"><title>Node8&#45;&gt;Node9</title>
<path fill="none" stroke="midnightblue" d="M283.118,-170.016C300.734,-175.535 321.184,-181.523 340,-186 353.484,-189.209 367.973,-192.131 381.966,-194.69"/>
<polygon fill="midnightblue" stroke="midnightblue" points="381.586,-198.177 392.046,-196.488 382.816,-191.286 381.586,-198.177"/>
</g>
<!-- Node10 -->
<g id="node10" class="node"><title>Node10</title>
<g id="a_node10"><a xlink:href="class_hydrax_1_1_hydrax.html#a572279649449549c7be3ef809221fbae" target="_top" xlink:title="Hydrax::Hydrax::getMaterial\lManager">
<polygon fill="white" stroke="black" points="386,-49 386,-79 526,-79 526,-49 386,-49"/>
<text text-anchor="start" x="394" y="-67" font-family="Helvetica,sans-Serif" font-size="10.00">Hydrax::Hydrax::getMaterial</text>
<text text-anchor="middle" x="456" y="-56" font-family="Helvetica,sans-Serif" font-size="10.00">Manager</text>
</a>
</g>
</g>
<!-- Node8&#45;&gt;Node10 -->
<g id="edge9" class="edge"><title>Node8&#45;&gt;Node10</title>
<path fill="none" stroke="midnightblue" d="M256.336,-139.856C275.874,-124.494 308.3,-101.159 340,-88 351.371,-83.28 363.773,-79.4515 376.088,-76.3565"/>
<polygon fill="midnightblue" stroke="midnightblue" points="376.999,-79.7376 385.924,-74.0286 375.387,-72.9257 376.999,-79.7376"/>
</g>
<!-- Node11 -->
<g id="node11" class="node"><title>Node11</title>
<g id="a_node11"><a xlink:href="class_hydrax_1_1_god_rays_manager.html#af77436c5ea371f23c3c34afc4c0789b2" target="_top" xlink:title="Hydrax::GodRaysManager\l::_isComponent">
<polygon fill="white" stroke="black" points="389.5,-0 389.5,-30 522.5,-30 522.5,-0 389.5,-0"/>
<text text-anchor="start" x="397.5" y="-18" font-family="Helvetica,sans-Serif" font-size="10.00">Hydrax::GodRaysManager</text>
<text text-anchor="middle" x="456" y="-7" font-family="Helvetica,sans-Serif" font-size="10.00">::_isComponent</text>
</a>
</g>
</g>
<!-- Node8&#45;&gt;Node11 -->
<g id="edge10" class="edge"><title>Node8&#45;&gt;Node11</title>
<path fill="none" stroke="midnightblue" d="M246.793,-139.764C262.218,-114.507 296.672,-64.2492 340,-39 351.982,-32.0175 365.712,-27.0511 379.416,-23.5224"/>
<polygon fill="midnightblue" stroke="midnightblue" points="380.423,-26.8815 389.365,-21.1987 378.831,-20.0649 380.423,-26.8815"/>
</g>
<!-- Node12 -->
<g id="node12" class="node"><title>Node12</title>
<g id="a_node12"><a xlink:href="class_hydrax_1_1_material_manager.html#a9374e09a2d918becab5db16240d2b8e1" target="_top" xlink:title="Hydrax::MaterialManager\l::fillGpuProgramsToPass">
<polygon fill="white" stroke="black" points="393,-147 393,-177 519,-177 519,-147 393,-147"/>
<text text-anchor="start" x="401" y="-165" font-family="Helvetica,sans-Serif" font-size="10.00">Hydrax::MaterialManager</text>
<text text-anchor="middle" x="456" y="-154" font-family="Helvetica,sans-Serif" font-size="10.00">::fillGpuProgramsToPass</text>
</a>
</g>
</g>
<!-- Node8&#45;&gt;Node12 -->
<g id="edge12" class="edge"><title>Node8&#45;&gt;Node12</title>
<path fill="none" stroke="midnightblue" d="M303.696,-157.119C328.694,-157.926 357.303,-158.848 382.866,-159.673"/>
<polygon fill="midnightblue" stroke="midnightblue" points="382.762,-163.171 392.87,-159.996 382.988,-156.175 382.762,-163.171"/>
</g>
<!-- Node14 -->
<g id="node14" class="node"><title>Node14</title>
<g id="a_node14"><a xlink:href="_god_rays_manager_8cpp.html#afbf3adf4f7626f9e4dd3e294bf4fb718" target="_top" xlink:title="PROJECTIONCLIPSPACE2DTOIMAGESPACE\l_PERSPECTIVE">
<polygon fill="white" stroke="black" points="340,-98 340,-128 572,-128 572,-98 340,-98"/>
<text text-anchor="start" x="348" y="-116" font-family="Helvetica,sans-Serif" font-size="10.00">PROJECTIONCLIPSPACE2DTOIMAGESPACE</text>
<text text-anchor="middle" x="456" y="-105" font-family="Helvetica,sans-Serif" font-size="10.00">_PERSPECTIVE</text>
</a>
</g>
</g>
<!-- Node8&#45;&gt;Node14 -->
<g id="edge14" class="edge"><title>Node8&#45;&gt;Node14</title>
<path fill="none" stroke="midnightblue" d="M303.696,-142.285C323.726,-138.408 346.074,-134.082 367.316,-129.971"/>
<polygon fill="midnightblue" stroke="midnightblue" points="368.159,-133.373 377.312,-128.036 366.829,-126.501 368.159,-133.373"/>
</g>
<!-- Node13 -->
<g id="node13" class="node"><title>Node13</title>
<g id="a_node13"><a xlink:href="class_hydrax_1_1_material_manager.html#ac0f7c351a7df142a04023c3409d6d871" target="_top" xlink:title="Hydrax::MaterialManager\l::createGpuProgram">
<polygon fill="white" stroke="black" points="608,-147 608,-177 734,-177 734,-147 608,-147"/>
<text text-anchor="start" x="616" y="-165" font-family="Helvetica,sans-Serif" font-size="10.00">Hydrax::MaterialManager</text>
<text text-anchor="middle" x="671" y="-154" font-family="Helvetica,sans-Serif" font-size="10.00">::createGpuProgram</text>
</a>
</g>
</g>
<!-- Node12&#45;&gt;Node13 -->
<g id="edge13" class="edge"><title>Node12&#45;&gt;Node13</title>
<path fill="none" stroke="midnightblue" d="M519.181,-162C543.68,-162 571.986,-162 597.413,-162"/>
<polygon fill="midnightblue" stroke="midnightblue" points="597.742,-165.5 607.742,-162 597.742,-158.5 597.742,-165.5"/>
</g>
<!-- Node15&#45;&gt;Node9 -->
<g id="edge16" class="edge"><title>Node15&#45;&gt;Node9</title>
<path fill="none" stroke="midnightblue" d="M303.696,-204.605C323.207,-204.785 344.917,-204.985 365.661,-205.177"/>
<polygon fill="midnightblue" stroke="midnightblue" points="365.722,-208.677 375.754,-205.27 365.786,-201.678 365.722,-208.677"/>
</g>
<!-- Node16&#45;&gt;Node6 -->
<g id="edge18" class="edge"><title>Node16&#45;&gt;Node6</title>
<path fill="none" stroke="midnightblue" d="M303.553,-267.86C315.668,-270.584 328.214,-273.39 340,-276 352.717,-278.816 366.232,-281.78 379.359,-284.643"/>
<polygon fill="midnightblue" stroke="midnightblue" points="378.785,-288.1 389.301,-286.809 380.275,-281.261 378.785,-288.1"/>
</g>
<!-- Node17 -->
<g id="node17" class="node"><title>Node17</title>
<g id="a_node17"><a xlink:href="class_hydrax_1_1_hydrax.html#a1532419b2859aed22a63d913c527ce21" target="_top" xlink:title="Hydrax::Hydrax::_isCurrent\lFrameUnderwater">
<polygon fill="white" stroke="black" points="387.5,-237 387.5,-267 524.5,-267 524.5,-237 387.5,-237"/>
<text text-anchor="start" x="395.5" y="-255" font-family="Helvetica,sans-Serif" font-size="10.00">Hydrax::Hydrax::_isCurrent</text>
<text text-anchor="middle" x="456" y="-244" font-family="Helvetica,sans-Serif" font-size="10.00">FrameUnderwater</text>
</a>
</g>
</g>
<!-- Node16&#45;&gt;Node17 -->
<g id="edge19" class="edge"><title>Node16&#45;&gt;Node17</title>
<path fill="none" stroke="midnightblue" d="M303.696,-252.697C326.836,-252.591 353.069,-252.47 377.117,-252.359"/>
<polygon fill="midnightblue" stroke="midnightblue" points="377.29,-255.858 387.274,-252.312 377.258,-248.858 377.29,-255.858"/>
</g>
</g>
</svg>
