<?xml version="1.0" encoding="UTF-8" standalone="no"?>
<!DOCTYPE svg PUBLIC "-//W3C//DTD SVG 1.1//EN"
 "http://www.w3.org/Graphics/SVG/1.1/DTD/svg11.dtd">
<!-- Generated by graphviz version 2.36.0 (20140111.2315)
 -->
<!-- Title: GameScript::setWaterHeight Pages: 1 -->
<svg width="318pt" height="142pt"
 viewBox="0.00 0.00 318.00 142.00" xmlns="http://www.w3.org/2000/svg" xmlns:xlink="http://www.w3.org/1999/xlink">
<g id="graph0" class="graph" transform="scale(1 1) rotate(0) translate(4 138)">
<title>GameScript::setWaterHeight</title>
<polygon fill="white" stroke="none" points="-4,4 -4,-138 314,-138 314,4 -4,4"/>
<!-- Node1 -->
<g id="node1" class="node"><title>Node1</title>
<polygon fill="#bfbfbf" stroke="black" points="0.5,-57.5 0.5,-76.5 143.5,-76.5 143.5,-57.5 0.5,-57.5"/>
<text text-anchor="middle" x="72" y="-64.5" font-family="Helvetica,sans-Serif" font-size="10.00">GameScript::setWaterHeight</text>
</g>
<!-- Node2 -->
<g id="node2" class="node"><title>Node2</title>
<g id="a_node2"><a xlink:href="class_terrain_manager.html#a1d0227a71a4e114099797646ff6756b7" target="_top" xlink:title="TerrainManager::getWater">
<polygon fill="white" stroke="black" points="180,-114.5 180,-133.5 310,-133.5 310,-114.5 180,-114.5"/>
<text text-anchor="middle" x="245" y="-121.5" font-family="Helvetica,sans-Serif" font-size="10.00">TerrainManager::getWater</text>
</a>
</g>
</g>
<!-- Node1&#45;&gt;Node2 -->
<g id="edge1" class="edge"><title>Node1&#45;&gt;Node2</title>
<path fill="none" stroke="midnightblue" d="M98.8152,-76.5981C120.407,-84.5219 152.072,-95.9022 180,-105 186.664,-107.171 193.75,-109.376 200.688,-111.479"/>
<polygon fill="midnightblue" stroke="midnightblue" points="200.096,-114.955 210.68,-114.469 202.103,-108.249 200.096,-114.955"/>
</g>
<!-- Node3 -->
<g id="node3" class="node"><title>Node3</title>
<g id="a_node3"><a xlink:href="class_i_water.html#a7d7819f7cf473aa8a99ddca7cbdec0bc" target="_top" xlink:title="IWater::setCamera">
<polygon fill="white" stroke="black" points="195,-76.5 195,-95.5 295,-95.5 295,-76.5 195,-76.5"/>
<text text-anchor="middle" x="245" y="-83.5" font-family="Helvetica,sans-Serif" font-size="10.00">IWater::setCamera</text>
</a>
</g>
</g>
<!-- Node1&#45;&gt;Node3 -->
<g id="edge2" class="edge"><title>Node1&#45;&gt;Node3</title>
<path fill="none" stroke="midnightblue" d="M143.54,-74.8377C157.249,-76.361 171.488,-77.9431 184.787,-79.4208"/>
<polygon fill="midnightblue" stroke="midnightblue" points="184.424,-82.9019 194.749,-80.5277 185.197,-75.9447 184.424,-82.9019"/>
</g>
<!-- Node4 -->
<g id="node4" class="node"><title>Node4</title>
<g id="a_node4"><a xlink:href="class_i_water.html#a765dee3032e94499aca869e24c321f22" target="_top" xlink:title="IWater::setHeight">
<polygon fill="white" stroke="black" points="198,-38.5 198,-57.5 292,-57.5 292,-38.5 198,-38.5"/>
<text text-anchor="middle" x="245" y="-45.5" font-family="Helvetica,sans-Serif" font-size="10.00">IWater::setHeight</text>
</a>
</g>
</g>
<!-- Node1&#45;&gt;Node4 -->
<g id="edge3" class="edge"><title>Node1&#45;&gt;Node4</title>
<path fill="none" stroke="midnightblue" d="M143.54,-59.1623C158.272,-57.5254 173.615,-55.8205 187.747,-54.2503"/>
<polygon fill="midnightblue" stroke="midnightblue" points="188.245,-57.7166 197.797,-53.1337 187.472,-50.7595 188.245,-57.7166"/>
</g>
<!-- Node5 -->
<g id="node5" class="node"><title>Node5</title>
<g id="a_node5"><a xlink:href="class_i_water.html#a2fb52c8272f9e090a8a59e5a13f5ef91" target="_top" xlink:title="IWater::update">
<polygon fill="white" stroke="black" points="204.5,-0.5 204.5,-19.5 285.5,-19.5 285.5,-0.5 204.5,-0.5"/>
<text text-anchor="middle" x="245" y="-7.5" font-family="Helvetica,sans-Serif" font-size="10.00">IWater::update</text>
</a>
</g>
</g>
<!-- Node1&#45;&gt;Node5 -->
<g id="edge4" class="edge"><title>Node1&#45;&gt;Node5</title>
<path fill="none" stroke="midnightblue" d="M98.8152,-57.4019C120.407,-49.4781 152.072,-38.0978 180,-29 186.664,-26.8292 193.75,-24.6238 200.688,-22.5213"/>
<polygon fill="midnightblue" stroke="midnightblue" points="202.103,-25.7512 210.68,-19.5306 200.096,-19.0452 202.103,-25.7512"/>
</g>
</g>
</svg>
