<?xml version="1.0" encoding="UTF-8" standalone="no"?>
<!DOCTYPE svg PUBLIC "-//W3C//DTD SVG 1.1//EN"
 "http://www.w3.org/Graphics/SVG/1.1/DTD/svg11.dtd">
<!-- Generated by graphviz version 2.36.0 (20140111.2315)
 -->
<!-- Title: TerrainManager::getObjectManager Pages: 1 -->
<svg width="534pt" height="153pt"
 viewBox="0.00 0.00 534.00 153.00" xmlns="http://www.w3.org/2000/svg" xmlns:xlink="http://www.w3.org/1999/xlink">
<g id="graph0" class="graph" transform="scale(1 1) rotate(0) translate(4 149)">
<title>TerrainManager::getObjectManager</title>
<polygon fill="white" stroke="none" points="-4,4 -4,-149 530,-149 530,4 -4,4"/>
<!-- Node1 -->
<g id="node1" class="node"><title>Node1</title>
<polygon fill="#bfbfbf" stroke="black" points="0,-52 0,-82 132,-82 132,-52 0,-52"/>
<text text-anchor="start" x="8" y="-70" font-family="Helvetica,sans-Serif" font-size="10.00">TerrainManager::getObject</text>
<text text-anchor="middle" x="66" y="-59" font-family="Helvetica,sans-Serif" font-size="10.00">Manager</text>
</g>
<!-- Node2 -->
<g id="node2" class="node"><title>Node2</title>
<g id="a_node2"><a xlink:href="class_ro_r_frame_listener.html#afec2a0f00ed552c21d22aae76329bf38" target="_top" xlink:title="RoRFrameListener::Update\lInputEvents">
<polygon fill="white" stroke="black" points="179.5,-115 179.5,-145 316.5,-145 316.5,-115 179.5,-115"/>
<text text-anchor="start" x="187.5" y="-133" font-family="Helvetica,sans-Serif" font-size="10.00">RoRFrameListener::Update</text>
<text text-anchor="middle" x="248" y="-122" font-family="Helvetica,sans-Serif" font-size="10.00">InputEvents</text>
</a>
</g>
</g>
<!-- Node1&#45;&gt;Node2 -->
<g id="edge1" class="edge"><title>Node1&#45;&gt;Node2</title>
<path fill="none" stroke="midnightblue" d="M115.201,-85.7335C131.857,-92.0473 150.684,-99.0075 168,-105 177.652,-108.34 188.027,-111.751 197.981,-114.936"/>
<polygon fill="midnightblue" stroke="midnightblue" points="116.264,-82.3931 105.673,-82.103 113.771,-88.9343 116.264,-82.3931"/>
</g>
<!-- Node4 -->
<g id="node4" class="node"><title>Node4</title>
<g id="a_node4"><a xlink:href="class_game_script.html#ac9ef8b95e5fd759b73ef414e9ae9a6a8" target="_top" xlink:title="GameScript::destroyObject">
<polygon fill="white" stroke="black" points="180.5,-76.5 180.5,-95.5 315.5,-95.5 315.5,-76.5 180.5,-76.5"/>
<text text-anchor="middle" x="248" y="-83.5" font-family="Helvetica,sans-Serif" font-size="10.00">GameScript::destroyObject</text>
</a>
</g>
</g>
<!-- Node1&#45;&gt;Node4 -->
<g id="edge3" class="edge"><title>Node1&#45;&gt;Node4</title>
<path fill="none" stroke="midnightblue" d="M142.296,-74.9479C154.969,-76.2856 168.042,-77.6655 180.472,-78.9776"/>
<polygon fill="midnightblue" stroke="midnightblue" points="142.551,-71.4554 132.239,-73.8863 141.816,-78.4168 142.551,-71.4554"/>
</g>
<!-- Node5 -->
<g id="node5" class="node"><title>Node5</title>
<g id="a_node5"><a xlink:href="class_game_script.html#aa46b0d78d78459cbe2e74dee5e63365a" target="_top" xlink:title="GameScript::moveObjectVisuals">
<polygon fill="white" stroke="black" points="168.5,-38.5 168.5,-57.5 327.5,-57.5 327.5,-38.5 168.5,-38.5"/>
<text text-anchor="middle" x="248" y="-45.5" font-family="Helvetica,sans-Serif" font-size="10.00">GameScript::moveObjectVisuals</text>
</a>
</g>
</g>
<!-- Node1&#45;&gt;Node5 -->
<g id="edge4" class="edge"><title>Node1&#45;&gt;Node5</title>
<path fill="none" stroke="midnightblue" d="M142.296,-59.0521C150.954,-58.1382 159.798,-57.2046 168.497,-56.2864"/>
<polygon fill="midnightblue" stroke="midnightblue" points="141.816,-55.5832 132.239,-60.1137 142.551,-62.5446 141.816,-55.5832"/>
</g>
<!-- Node6 -->
<g id="node6" class="node"><title>Node6</title>
<g id="a_node6"><a xlink:href="class_game_script.html#adc155d46516906fb9bfddde649c02ee6" target="_top" xlink:title="GameScript::spawnObject">
<polygon fill="white" stroke="black" points="182.5,-0.5 182.5,-19.5 313.5,-19.5 313.5,-0.5 182.5,-0.5"/>
<text text-anchor="middle" x="248" y="-7.5" font-family="Helvetica,sans-Serif" font-size="10.00">GameScript::spawnObject</text>
</a>
</g>
</g>
<!-- Node1&#45;&gt;Node6 -->
<g id="edge5" class="edge"><title>Node1&#45;&gt;Node6</title>
<path fill="none" stroke="midnightblue" d="M113.273,-48.2151C130.317,-41.662 149.885,-34.5628 168,-29 179.192,-25.563 191.432,-22.3575 202.862,-19.5946"/>
<polygon fill="midnightblue" stroke="midnightblue" points="111.61,-45.1067 103.559,-51.9946 114.148,-51.6303 111.61,-45.1067"/>
</g>
<!-- Node3 -->
<g id="node3" class="node"><title>Node3</title>
<g id="a_node3"><a xlink:href="class_ro_r_frame_listener.html#acd8647e188fb8e838689492965b86faf" target="_top" xlink:title="RoRFrameListener::frameStarted">
<polygon fill="white" stroke="black" points="364.5,-120.5 364.5,-139.5 525.5,-139.5 525.5,-120.5 364.5,-120.5"/>
<text text-anchor="middle" x="445" y="-127.5" font-family="Helvetica,sans-Serif" font-size="10.00">RoRFrameListener::frameStarted</text>
</a>
</g>
</g>
<!-- Node2&#45;&gt;Node3 -->
<g id="edge2" class="edge"><title>Node2&#45;&gt;Node3</title>
<path fill="none" stroke="midnightblue" d="M326.9,-130C339.242,-130 352.02,-130 364.4,-130"/>
<polygon fill="midnightblue" stroke="midnightblue" points="326.654,-126.5 316.654,-130 326.654,-133.5 326.654,-126.5"/>
</g>
</g>
</svg>
