<?xml version="1.0" encoding="UTF-8" standalone="no"?>
<!DOCTYPE svg PUBLIC "-//W3C//DTD SVG 1.1//EN"
 "http://www.w3.org/Graphics/SVG/1.1/DTD/svg11.dtd">
<!-- Generated by graphviz version 2.36.0 (20140111.2315)
 -->
<!-- Title: RigDef::Parser::ParseAxles Pages: 1 -->
<svg width="522pt" height="77pt"
 viewBox="0.00 0.00 522.00 77.00" xmlns="http://www.w3.org/2000/svg" xmlns:xlink="http://www.w3.org/1999/xlink">
<g id="graph0" class="graph" transform="scale(1 1) rotate(0) translate(4 73)">
<title>RigDef::Parser::ParseAxles</title>
<polygon fill="white" stroke="none" points="-4,4 -4,-73 518,-73 518,4 -4,4"/>
<!-- Node1 -->
<g id="node1" class="node"><title>Node1</title>
<polygon fill="#bfbfbf" stroke="black" points="0,-30.5 0,-49.5 138,-49.5 138,-30.5 0,-30.5"/>
<text text-anchor="middle" x="69" y="-37.5" font-family="Helvetica,sans-Serif" font-size="10.00">RigDef::Parser::ParseAxles</text>
</g>
<!-- Node2 -->
<g id="node2" class="node"><title>Node2</title>
<g id="a_node2"><a xlink:href="class_rig_def_1_1_parser.html#a7da949423835fe3241f2ac4c5ac8ebb1" target="_top" xlink:title="Adds a message to parser report. ">
<polygon fill="white" stroke="black" points="368.5,-49.5 368.5,-68.5 513.5,-68.5 513.5,-49.5 368.5,-49.5"/>
<text text-anchor="middle" x="441" y="-56.5" font-family="Helvetica,sans-Serif" font-size="10.00">RigDef::Parser::AddMessage</text>
</a>
</g>
</g>
<!-- Node1&#45;&gt;Node2 -->
<g id="edge1" class="edge"><title>Node1&#45;&gt;Node2</title>
<path fill="none" stroke="midnightblue" d="M138.295,-43.507C200.333,-46.6928 291.964,-51.3982 357.954,-54.7868"/>
<polygon fill="midnightblue" stroke="midnightblue" points="358.15,-58.3014 368.317,-55.319 358.509,-51.3106 358.15,-58.3014"/>
</g>
<!-- Node3 -->
<g id="node3" class="node"><title>Node3</title>
<g id="a_node3"><a xlink:href="class_rig_def_1_1_parser.html#a38e4135df406da0cc2f0fc4afb34ddb3" target="_top" xlink:title="RigDef::Parser::_ParseNodeRef">
<polygon fill="white" stroke="black" points="174,-11.5 174,-30.5 332,-30.5 332,-11.5 174,-11.5"/>
<text text-anchor="middle" x="253" y="-18.5" font-family="Helvetica,sans-Serif" font-size="10.00">RigDef::Parser::_ParseNodeRef</text>
</a>
</g>
</g>
<!-- Node1&#45;&gt;Node3 -->
<g id="edge2" class="edge"><title>Node1&#45;&gt;Node3</title>
<path fill="none" stroke="midnightblue" d="M138.029,-32.8981C146.447,-32.0193 155.146,-31.1112 163.81,-30.2066"/>
<polygon fill="midnightblue" stroke="midnightblue" points="164.365,-33.6678 173.947,-29.1484 163.638,-26.7057 164.365,-33.6678"/>
</g>
<!-- Node3&#45;&gt;Node2 -->
<g id="edge4" class="edge"><title>Node3&#45;&gt;Node2</title>
<path fill="none" stroke="midnightblue" d="M300.936,-30.589C326.033,-35.7165 357.119,-42.0672 383.53,-47.4632"/>
<polygon fill="midnightblue" stroke="midnightblue" points="382.904,-50.9074 393.402,-49.4799 384.305,-44.049 382.904,-50.9074"/>
</g>
<!-- Node4 -->
<g id="node4" class="node"><title>Node4</title>
<g id="a_node4"><a xlink:href="class_rig_def_1_1_sequential_importer.html#a04d293d8b1f94b9a722e83715911e547" target="_top" xlink:title="RigDef::SequentialImporter\l::IsEnabled">
<polygon fill="white" stroke="black" points="373.5,-0 373.5,-30 508.5,-30 508.5,-0 373.5,-0"/>
<text text-anchor="start" x="381.5" y="-18" font-family="Helvetica,sans-Serif" font-size="10.00">RigDef::SequentialImporter</text>
<text text-anchor="middle" x="441" y="-7" font-family="Helvetica,sans-Serif" font-size="10.00">::IsEnabled</text>
</a>
</g>
</g>
<!-- Node3&#45;&gt;Node4 -->
<g id="edge3" class="edge"><title>Node3&#45;&gt;Node4</title>
<path fill="none" stroke="midnightblue" d="M332.072,-18.4815C342.362,-18.1496 352.902,-17.8096 363.17,-17.4784"/>
<polygon fill="midnightblue" stroke="midnightblue" points="363.447,-20.9714 373.329,-17.1507 363.221,-13.975 363.447,-20.9714"/>
</g>
</g>
</svg>
