<?xml version="1.0" encoding="UTF-8" standalone="no"?>
<!DOCTYPE svg PUBLIC "-//W3C//DTD SVG 1.1//EN"
 "http://www.w3.org/Graphics/SVG/1.1/DTD/svg11.dtd">
<!-- Generated by graphviz version 2.36.0 (20140111.2315)
 -->
<!-- Title: CacheSystem::removeFileFromFileCache Pages: 1 -->
<svg width="994pt" height="60pt"
 viewBox="0.00 0.00 994.00 60.00" xmlns="http://www.w3.org/2000/svg" xmlns:xlink="http://www.w3.org/1999/xlink">
<g id="graph0" class="graph" transform="scale(1 1) rotate(0) translate(4 56)">
<title>CacheSystem::removeFileFromFileCache</title>
<polygon fill="white" stroke="none" points="-4,4 -4,-56 990,-56 990,4 -4,4"/>
<!-- Node1 -->
<g id="node1" class="node"><title>Node1</title>
<polygon fill="#bfbfbf" stroke="black" points="0.5,-22 0.5,-52 155.5,-52 155.5,-22 0.5,-22"/>
<text text-anchor="start" x="8.5" y="-40" font-family="Helvetica,sans-Serif" font-size="10.00">CacheSystem::removeFileFrom</text>
<text text-anchor="middle" x="78" y="-29" font-family="Helvetica,sans-Serif" font-size="10.00">FileCache</text>
</g>
<!-- Node2 -->
<g id="node2" class="node"><title>Node2</title>
<g id="a_node2"><a xlink:href="class_cache_system.html#a4439130b97404a54bca3ca9768586c48" target="_top" xlink:title="CacheSystem::incremental\lCacheUpdate">
<polygon fill="white" stroke="black" points="192.5,-22 192.5,-52 327.5,-52 327.5,-22 192.5,-22"/>
<text text-anchor="start" x="200.5" y="-40" font-family="Helvetica,sans-Serif" font-size="10.00">CacheSystem::incremental</text>
<text text-anchor="middle" x="260" y="-29" font-family="Helvetica,sans-Serif" font-size="10.00">CacheUpdate</text>
</a>
</g>
</g>
<!-- Node1&#45;&gt;Node2 -->
<g id="edge1" class="edge"><title>Node1&#45;&gt;Node2</title>
<path fill="none" stroke="midnightblue" d="M165.701,-37C174.684,-37 183.71,-37 192.422,-37"/>
<polygon fill="midnightblue" stroke="midnightblue" points="165.597,-33.5001 155.597,-37 165.597,-40.5001 165.597,-33.5001"/>
</g>
<!-- Node3 -->
<g id="node3" class="node"><title>Node3</title>
<g id="a_node3"><a xlink:href="class_cache_system.html#a37e784da57c57f56a428f61a53b4d618" target="_top" xlink:title="CacheSystem::generateCache">
<polygon fill="white" stroke="black" points="364.5,-27.5 364.5,-46.5 515.5,-46.5 515.5,-27.5 364.5,-27.5"/>
<text text-anchor="middle" x="440" y="-34.5" font-family="Helvetica,sans-Serif" font-size="10.00">CacheSystem::generateCache</text>
</a>
</g>
</g>
<!-- Node2&#45;&gt;Node3 -->
<g id="edge2" class="edge"><title>Node2&#45;&gt;Node3</title>
<path fill="none" stroke="midnightblue" d="M337.816,-37C346.658,-37 355.663,-37 364.474,-37"/>
<polygon fill="midnightblue" stroke="midnightblue" points="337.534,-33.5001 327.534,-37 337.534,-40.5001 337.534,-33.5001"/>
</g>
<!-- Node4 -->
<g id="node4" class="node"><title>Node4</title>
<g id="a_node4"><a xlink:href="class_cache_system.html#ae010322c2422bf8f8dbfce904257da31" target="_top" xlink:title="CacheSystem::Startup">
<polygon fill="white" stroke="black" points="552,-27.5 552,-46.5 668,-46.5 668,-27.5 552,-27.5"/>
<text text-anchor="middle" x="610" y="-34.5" font-family="Helvetica,sans-Serif" font-size="10.00">CacheSystem::Startup</text>
</a>
</g>
</g>
<!-- Node3&#45;&gt;Node4 -->
<g id="edge3" class="edge"><title>Node3&#45;&gt;Node4</title>
<path fill="none" stroke="midnightblue" d="M525.696,-37C534.595,-37 543.484,-37 551.963,-37"/>
<polygon fill="midnightblue" stroke="midnightblue" points="525.666,-33.5001 515.666,-37 525.666,-40.5001 525.666,-33.5001"/>
</g>
<!-- Node5 -->
<g id="node5" class="node"><title>Node5</title>
<g id="a_node5"><a xlink:href="main_8cpp.html#a0ddf1224851353fc92bfbff6f499fa97" target="_top" xlink:title="main">
<polygon fill="white" stroke="black" points="856,-27.5 856,-46.5 894,-46.5 894,-27.5 856,-27.5"/>
<text text-anchor="middle" x="875" y="-34.5" font-family="Helvetica,sans-Serif" font-size="10.00">main</text>
</a>
</g>
</g>
<!-- Node4&#45;&gt;Node5 -->
<g id="edge4" class="edge"><title>Node4&#45;&gt;Node5</title>
<path fill="none" stroke="midnightblue" d="M678.355,-38.6036C719.313,-39.3401 772.674,-39.8761 820,-39 831.819,-38.7812 845.085,-38.2933 855.51,-37.8542"/>
<polygon fill="midnightblue" stroke="midnightblue" points="678.284,-35.1017 668.22,-38.4127 678.152,-42.1005 678.284,-35.1017"/>
</g>
<!-- Node7 -->
<g id="node7" class="node"><title>Node7</title>
<g id="a_node7"><a xlink:href="class_ro_r_1_1_content_manager.html#a861b35694f428e463a800052ac0e9f90" target="_top" xlink:title="RoR::ContentManager\l::RegenCache">
<polygon fill="white" stroke="black" points="704.5,-0 704.5,-30 819.5,-30 819.5,-0 704.5,-0"/>
<text text-anchor="start" x="712.5" y="-18" font-family="Helvetica,sans-Serif" font-size="10.00">RoR::ContentManager</text>
<text text-anchor="middle" x="762" y="-7" font-family="Helvetica,sans-Serif" font-size="10.00">::RegenCache</text>
</a>
</g>
</g>
<!-- Node4&#45;&gt;Node7 -->
<g id="edge6" class="edge"><title>Node4&#45;&gt;Node7</title>
<path fill="none" stroke="midnightblue" d="M678.176,-27.1475C686.806,-25.8817 695.576,-24.5955 704.022,-23.3567"/>
<polygon fill="midnightblue" stroke="midnightblue" points="677.523,-23.7058 668.136,-28.62 678.539,-30.6317 677.523,-23.7058"/>
</g>
<!-- Node6 -->
<g id="node6" class="node"><title>Node6</title>
<g id="a_node6"><a xlink:href="main_8cpp.html#a2922bc5d5c2d77a3020cfbf9df12aab0" target="_top" xlink:title="WinMain">
<polygon fill="white" stroke="black" points="930.5,-27.5 930.5,-46.5 985.5,-46.5 985.5,-27.5 930.5,-27.5"/>
<text text-anchor="middle" x="958" y="-34.5" font-family="Helvetica,sans-Serif" font-size="10.00">WinMain</text>
</a>
</g>
</g>
<!-- Node5&#45;&gt;Node6 -->
<g id="edge5" class="edge"><title>Node5&#45;&gt;Node6</title>
<path fill="none" stroke="midnightblue" d="M904.512,-37C912.929,-37 922.105,-37 930.397,-37"/>
<polygon fill="midnightblue" stroke="midnightblue" points="904.38,-33.5001 894.38,-37 904.38,-40.5001 904.38,-33.5001"/>
</g>
<!-- Node7&#45;&gt;Node5 -->
<g id="edge7" class="edge"><title>Node7&#45;&gt;Node5</title>
<path fill="none" stroke="midnightblue" d="M829.799,-28.2394C839.28,-30.1186 848.302,-31.9068 855.694,-33.3718"/>
<polygon fill="midnightblue" stroke="midnightblue" points="830.29,-24.7688 819.801,-26.2578 828.929,-31.6353 830.29,-24.7688"/>
</g>
</g>
</svg>
