<?xml version="1.0" encoding="UTF-8" standalone="no"?>
<!DOCTYPE svg PUBLIC "-//W3C//DTD SVG 1.1//EN"
 "http://www.w3.org/Graphics/SVG/1.1/DTD/svg11.dtd">
<!-- Generated by graphviz version 2.36.0 (20140111.2315)
 -->
<!-- Title: OverlayWrapper::OverlayWrapper Pages: 1 -->
<!--zoomable 192 -->
<svg id="main" version="1.1" xmlns="http://www.w3.org/2000/svg" xmlns:xlink="http://www.w3.org/1999/xlink" xml:space="preserve" onload="init(evt)">
<style type="text/css"><![CDATA[
.edge:hover path { stroke: red; }
.edge:hover polygon { stroke: red; fill: red; }
]]></style>
<script type="text/javascript"><![CDATA[
var edges = document.getElementsByTagName('g');
if (edges && edges.length) {
  for (var i=0;i<edges.length;i++) {
    if (edges[i].id.substr(0,4)=='edge') {
      edges[i].setAttribute('class','edge');
    }
  }
}
]]></script>
        <defs>
                <circle id="rim" cx="0" cy="0" r="7"/>
                <circle id="rim2" cx="0" cy="0" r="3.5"/>
                <g id="zoomPlus">
                        <use xlink:href="#rim" fill="#404040">
                                <set attributeName="fill" to="#808080" begin="zoomplus.mouseover" end="zoomplus.mouseout"/>
                        </use>
                        <path d="M-4,0h8M0,-4v8" fill="none" stroke="white" stroke-width="1.5" pointer-events="none"/>
                </g>
                <g id="zoomMin">
                        <use xlink:href="#rim" fill="#404040">
                                <set attributeName="fill" to="#808080" begin="zoomminus.mouseover" end="zoomminus.mouseout"/>
                        </use>
                        <path d="M-4,0h8" fill="none" stroke="white" stroke-width="1.5" pointer-events="none"/>
                </g>
                <g id="dirArrow">
                        <path fill="none" stroke="white" stroke-width="1.5" d="M0,-3.0v7 M-2.5,-0.5L0,-3.0L2.5,-0.5"/>
                </g>
               <g id="resetDef">
                       <use xlink:href="#rim2" fill="#404040">
                               <set attributeName="fill" to="#808080" begin="reset.mouseover" end="reset.mouseout"/>
                       </use>
               </g>
        </defs>

<script type="text/javascript">
var viewWidth = 732;
var viewHeight = 192;
var sectionId = 'dynsection-2';
</script>
<script xlink:href="svgpan.js"/>
<svg id="graph" class="graph">
<g id="viewport">
<title>OverlayWrapper::OverlayWrapper</title>
<polygon fill="white" stroke="none" points="-4,4 -4,-188 728,-188 728,4 -4,4"/>
<!-- Node1 -->
<g id="node1" class="node"><title>Node1</title>
<polygon fill="#bfbfbf" stroke="black" points="0,-120.5 0,-139.5 164,-139.5 164,-120.5 0,-120.5"/>
<text text-anchor="middle" x="82" y="-127.5" font-family="Helvetica,sans-Serif" font-size="10.00">OverlayWrapper::OverlayWrapper</text>
</g>
<!-- Node2 -->
<g id="node2" class="node"><title>Node2</title>
<g id="a_node2"><a xlink:href="namespace_ro_r_1_1_app.html#ab0161218de3dc36879f3e69b84238eba" target="_top" xlink:title="RoR::App::GetOgreSubsystem">
<polygon fill="white" stroke="black" points="200,-164.5 200,-183.5 352,-183.5 352,-164.5 200,-164.5"/>
<text text-anchor="middle" x="276" y="-171.5" font-family="Helvetica,sans-Serif" font-size="10.00">RoR::App::GetOgreSubsystem</text>
</a>
</g>
</g>
<!-- Node1&#45;&gt;Node2 -->
<g id="edge1" class="edge"><title>Node1&#45;&gt;Node2</title>
<path fill="none" stroke="midnightblue" d="M124.661,-139.547C153.721,-146.207 192.686,-155.136 223.665,-162.236"/>
<polygon fill="midnightblue" stroke="midnightblue" points="222.891,-165.649 233.42,-164.471 224.455,-158.826 222.891,-165.649"/>
</g>
<!-- Node3 -->
<g id="node3" class="node"><title>Node3</title>
<g id="a_node3"><a xlink:href="class_ro_r_1_1_ogre_subsystem.html#aec5be99797f9add72578fb1fbfec582f" target="_top" xlink:title="RoR::OgreSubsystem\l::GetRenderWindow">
<polygon fill="white" stroke="black" points="219.5,-115 219.5,-145 332.5,-145 332.5,-115 219.5,-115"/>
<text text-anchor="start" x="227.5" y="-133" font-family="Helvetica,sans-Serif" font-size="10.00">RoR::OgreSubsystem</text>
<text text-anchor="middle" x="276" y="-122" font-family="Helvetica,sans-Serif" font-size="10.00">::GetRenderWindow</text>
</a>
</g>
</g>
<!-- Node1&#45;&gt;Node3 -->
<g id="edge2" class="edge"><title>Node1&#45;&gt;Node3</title>
<path fill="none" stroke="midnightblue" d="M164.147,-130C179.136,-130 194.62,-130 209.089,-130"/>
<polygon fill="midnightblue" stroke="midnightblue" points="209.424,-133.5 219.424,-130 209.424,-126.5 209.424,-133.5"/>
</g>
<!-- Node4 -->
<g id="node4" class="node"><title>Node4</title>
<g id="a_node4"><a xlink:href="class_overlay_wrapper.html#ad7b118e7cbe7a185df4473e11bd8a46d" target="_top" xlink:title="OverlayWrapper::init">
<polygon fill="white" stroke="black" points="223,-76.5 223,-95.5 329,-95.5 329,-76.5 223,-76.5"/>
<text text-anchor="middle" x="276" y="-83.5" font-family="Helvetica,sans-Serif" font-size="10.00">OverlayWrapper::init</text>
</a>
</g>
</g>
<!-- Node1&#45;&gt;Node4 -->
<g id="edge3" class="edge"><title>Node1&#45;&gt;Node4</title>
<path fill="none" stroke="midnightblue" d="M124.661,-120.453C153.721,-113.793 192.686,-104.864 223.665,-97.7642"/>
<polygon fill="midnightblue" stroke="midnightblue" points="224.455,-101.174 233.42,-95.5287 222.891,-94.351 224.455,-101.174"/>
</g>
<!-- Node5 -->
<g id="node5" class="node"><title>Node5</title>
<g id="a_node5"><a xlink:href="class_overlay_wrapper.html#a1efa678e12875b4b84ab42dbb184edd4" target="_top" xlink:title="OverlayWrapper::loadOverlay">
<polygon fill="white" stroke="black" points="388.5,-164.5 388.5,-183.5 533.5,-183.5 533.5,-164.5 388.5,-164.5"/>
<text text-anchor="middle" x="461" y="-171.5" font-family="Helvetica,sans-Serif" font-size="10.00">OverlayWrapper::loadOverlay</text>
</a>
</g>
</g>
<!-- Node4&#45;&gt;Node5 -->
<g id="edge4" class="edge"><title>Node4&#45;&gt;Node5</title>
<path fill="none" stroke="midnightblue" d="M329.004,-94.9933C337.107,-97.7402 345.076,-101.324 352,-106 374.1,-120.924 365.978,-138.962 388,-154 391.556,-156.428 395.399,-158.563 399.397,-160.439"/>
<polygon fill="midnightblue" stroke="midnightblue" points="398.36,-163.797 408.94,-164.365 401.024,-157.324 398.36,-163.797"/>
</g>
<!-- Node7 -->
<g id="node7" class="node"><title>Node7</title>
<g id="a_node7"><a xlink:href="class_overlay_wrapper.html#aa751cd9eecb3717a754cf91c6be2ce4d" target="_top" xlink:title="OverlayWrapper::loadOverlay\lElement">
<polygon fill="white" stroke="black" points="388.5,-115 388.5,-145 533.5,-145 533.5,-115 388.5,-115"/>
<text text-anchor="start" x="396.5" y="-133" font-family="Helvetica,sans-Serif" font-size="10.00">OverlayWrapper::loadOverlay</text>
<text text-anchor="middle" x="461" y="-122" font-family="Helvetica,sans-Serif" font-size="10.00">Element</text>
</a>
</g>
</g>
<!-- Node4&#45;&gt;Node7 -->
<g id="edge6" class="edge"><title>Node4&#45;&gt;Node7</title>
<path fill="none" stroke="midnightblue" d="M316.708,-95.5473C337.404,-100.523 363.37,-106.767 387.494,-112.567"/>
<polygon fill="midnightblue" stroke="midnightblue" points="386.801,-116 397.342,-114.935 388.437,-109.194 386.801,-116"/>
</g>
<!-- Node8 -->
<g id="node8" class="node"><title>Node8</title>
<g id="a_node8"><a xlink:href="struct_error_utils.html#aec73b03c7829838888bbecf9acda1b98" target="_top" xlink:title="ErrorUtils::ShowError">
<polygon fill="white" stroke="black" points="406,-76.5 406,-95.5 516,-95.5 516,-76.5 406,-76.5"/>
<text text-anchor="middle" x="461" y="-83.5" font-family="Helvetica,sans-Serif" font-size="10.00">ErrorUtils::ShowError</text>
</a>
</g>
</g>
<!-- Node4&#45;&gt;Node8 -->
<g id="edge7" class="edge"><title>Node4&#45;&gt;Node8</title>
<path fill="none" stroke="midnightblue" d="M329.44,-86C350.138,-86 374.118,-86 395.835,-86"/>
<polygon fill="midnightblue" stroke="midnightblue" points="395.961,-89.5001 405.961,-86 395.961,-82.5001 395.961,-89.5001"/>
</g>
<!-- Node10 -->
<g id="node10" class="node"><title>Node10</title>
<g id="a_node10"><a xlink:href="class_overlay_wrapper.html#af04680c7e12a731fef2db00e3dcd8143" target="_top" xlink:title="OverlayWrapper::resizePanel">
<polygon fill="white" stroke="black" points="389,-38.5 389,-57.5 533,-57.5 533,-38.5 389,-38.5"/>
<text text-anchor="middle" x="461" y="-45.5" font-family="Helvetica,sans-Serif" font-size="10.00">OverlayWrapper::resizePanel</text>
</a>
</g>
</g>
<!-- Node4&#45;&gt;Node10 -->
<g id="edge9" class="edge"><title>Node4&#45;&gt;Node10</title>
<path fill="none" stroke="midnightblue" d="M323.179,-76.411C347.763,-71.3061 378.186,-64.9887 404.097,-59.6082"/>
<polygon fill="midnightblue" stroke="midnightblue" points="405.074,-62.9802 414.153,-57.5201 403.651,-56.1264 405.074,-62.9802"/>
</g>
<!-- Node11 -->
<g id="node11" class="node"><title>Node11</title>
<g id="a_node11"><a xlink:href="class_overlay_wrapper.html#adbd14cda6b9c56d4cb3e136ea6447d63" target="_top" xlink:title="OverlayWrapper::reposPanel">
<polygon fill="white" stroke="black" points="390,-0.5 390,-19.5 532,-19.5 532,-0.5 390,-0.5"/>
<text text-anchor="middle" x="461" y="-7.5" font-family="Helvetica,sans-Serif" font-size="10.00">OverlayWrapper::reposPanel</text>
</a>
</g>
</g>
<!-- Node4&#45;&gt;Node11 -->
<g id="edge10" class="edge"><title>Node4&#45;&gt;Node11</title>
<path fill="none" stroke="midnightblue" d="M293.037,-76.3563C314.174,-63.9792 352.805,-42.4972 388,-29 394.326,-26.574 401.079,-24.3451 407.819,-22.3342"/>
<polygon fill="midnightblue" stroke="midnightblue" points="408.971,-25.6455 417.635,-19.5464 407.059,-18.9118 408.971,-25.6455"/>
</g>
<!-- Node6 -->
<g id="node6" class="node"><title>Node6</title>
<g id="a_node6"><a xlink:href="class_overlay_wrapper.html#a10e6c145bc3e376b6cc2159929898b1d" target="_top" xlink:title="OverlayWrapper::resizeOverlay">
<polygon fill="white" stroke="black" points="570.5,-164.5 570.5,-183.5 723.5,-183.5 723.5,-164.5 570.5,-164.5"/>
<text text-anchor="middle" x="647" y="-171.5" font-family="Helvetica,sans-Serif" font-size="10.00">OverlayWrapper::resizeOverlay</text>
</a>
</g>
</g>
<!-- Node5&#45;&gt;Node6 -->
<g id="edge5" class="edge"><title>Node5&#45;&gt;Node6</title>
<path fill="none" stroke="midnightblue" d="M533.666,-174C542.297,-174 551.179,-174 559.987,-174"/>
<polygon fill="midnightblue" stroke="midnightblue" points="560.274,-177.5 570.274,-174 560.274,-170.5 560.274,-177.5"/>
</g>
<!-- Node9 -->
<g id="node9" class="node"><title>Node9</title>
<g id="a_node9"><a xlink:href="struct_error_utils.html#a3250a36825c8b55b26d1565addb7e922" target="_top" xlink:title="ErrorUtils::ShowMsgBox">
<polygon fill="white" stroke="black" points="584.5,-76.5 584.5,-95.5 709.5,-95.5 709.5,-76.5 584.5,-76.5"/>
<text text-anchor="middle" x="647" y="-83.5" font-family="Helvetica,sans-Serif" font-size="10.00">ErrorUtils::ShowMsgBox</text>
</a>
</g>
</g>
<!-- Node8&#45;&gt;Node9 -->
<g id="edge8" class="edge"><title>Node8&#45;&gt;Node9</title>
<path fill="none" stroke="midnightblue" d="M516.211,-86C534.362,-86 554.889,-86 574.172,-86"/>
<polygon fill="midnightblue" stroke="midnightblue" points="574.427,-89.5001 584.427,-86 574.427,-82.5001 574.427,-89.5001"/>
</g>
</g>
</svg>
        <g id="navigator" transform="translate(0 0)" fill="#404254">
                <rect fill="#f2f5e9" fill-opacity="0.5" stroke="#606060" stroke-width=".5" x="0" y="0" width="60" height="60"/>
                <use id="zoomplus" xlink:href="#zoomPlus" x="17" y="9" onmousedown="handleZoom(evt,'in')"/>
                <use id="zoomminus" xlink:href="#zoomMin" x="42" y="9" onmousedown="handleZoom(evt,'out')"/>
                <use id="reset" xlink:href="#resetDef" x="30" y="36" onmousedown="handleReset()"/>
                <g id="arrowUp" xlink:href="#dirArrow" transform="translate(30 24)" onmousedown="handlePan(0,-1)">
                  <use xlink:href="#rim" fill="#404040">
                        <set attributeName="fill" to="#808080" begin="arrowUp.mouseover" end="arrowUp.mouseout"/>
                  </use>
                  <path fill="none" stroke="white" stroke-width="1.5" d="M0,-3.0v7 M-2.5,-0.5L0,-3.0L2.5,-0.5"/>
                </g>
                <g id="arrowRight" xlink:href="#dirArrow" transform="rotate(90) translate(36 -43)" onmousedown="handlePan(1,0)">
                  <use xlink:href="#rim" fill="#404040">
                        <set attributeName="fill" to="#808080" begin="arrowRight.mouseover" end="arrowRight.mouseout"/>
                  </use>
                  <path fill="none" stroke="white" stroke-width="1.5" d="M0,-3.0v7 M-2.5,-0.5L0,-3.0L2.5,-0.5"/>
                </g>
                <g id="arrowDown" xlink:href="#dirArrow" transform="rotate(180) translate(-30 -48)" onmousedown="handlePan(0,1)">
                  <use xlink:href="#rim" fill="#404040">
                        <set attributeName="fill" to="#808080" begin="arrowDown.mouseover" end="arrowDown.mouseout"/>
                  </use>
                  <path fill="none" stroke="white" stroke-width="1.5" d="M0,-3.0v7 M-2.5,-0.5L0,-3.0L2.5,-0.5"/>
                </g>
                <g id="arrowLeft" xlink:href="#dirArrow" transform="rotate(270) translate(-36 17)" onmousedown="handlePan(-1,0)">
                  <use xlink:href="#rim" fill="#404040">
                        <set attributeName="fill" to="#808080" begin="arrowLeft.mouseover" end="arrowLeft.mouseout"/>
                  </use>
                  <path fill="none" stroke="white" stroke-width="1.5" d="M0,-3.0v7 M-2.5,-0.5L0,-3.0L2.5,-0.5"/>
                </g>
        </g>
        <svg viewBox="0 0 15 15" width="100%" height="30px" preserveAspectRatio="xMaxYMin meet">
         <g id="arrow_out" transform="scale(0.3 0.3)">
          <a xlink:href="class_overlay_wrapper_a92ee0e58e468f5a657fc02cdb98b0352_cgraph_org.svg" target="_base">
           <rect id="button" ry="5" rx="5" y="6" x="6" height="38" width="38"
                fill="#f2f5e9" fill-opacity="0.5" stroke="#606060" stroke-width="1.0"/>
           <path id="arrow"
             d="M 11.500037,31.436501 C 11.940474,20.09759 22.043105,11.32322 32.158766,21.979434 L 37.068811,17.246167 C 37.068811,17.246167 37.088388,32 37.088388,32 L 22.160133,31.978069 C 22.160133,31.978069 26.997745,27.140456 26.997745,27.140456 C 18.528582,18.264221 13.291696,25.230495 11.500037,31.436501 z"
             style="fill:#404040;"/>
          </a>
         </g>
        </svg>
</svg>
