<?xml version="1.0" encoding="UTF-8" standalone="no"?>
<!DOCTYPE svg PUBLIC "-//W3C//DTD SVG 1.1//EN"
 "http://www.w3.org/Graphics/SVG/1.1/DTD/svg11.dtd">
<!-- Generated by graphviz version 2.36.0 (20140111.2315)
 -->
<!-- Title: DOFManager::SetSimController Pages: 1 -->
<svg width="766pt" height="28pt"
 viewBox="0.00 0.00 766.00 28.00" xmlns="http://www.w3.org/2000/svg" xmlns:xlink="http://www.w3.org/1999/xlink">
<g id="graph0" class="graph" transform="scale(1 1) rotate(0) translate(4 24)">
<title>DOFManager::SetSimController</title>
<polygon fill="white" stroke="none" points="-4,4 -4,-24 762,-24 762,4 -4,4"/>
<!-- Node1 -->
<g id="node1" class="node"><title>Node1</title>
<polygon fill="#bfbfbf" stroke="black" points="0.5,-0.5 0.5,-19.5 155.5,-19.5 155.5,-0.5 0.5,-0.5"/>
<text text-anchor="middle" x="78" y="-7.5" font-family="Helvetica,sans-Serif" font-size="10.00">DOFManager::SetSimController</text>
</g>
<!-- Node2 -->
<g id="node2" class="node"><title>Node2</title>
<g id="a_node2"><a xlink:href="class_camera_manager.html#a274c61ebc611ed654dabcdba551fe280" target="_top" xlink:title="CameraManager::SetSimController">
<polygon fill="white" stroke="black" points="192.5,-0.5 192.5,-19.5 361.5,-19.5 361.5,-0.5 192.5,-0.5"/>
<text text-anchor="middle" x="277" y="-7.5" font-family="Helvetica,sans-Serif" font-size="10.00">CameraManager::SetSimController</text>
</a>
</g>
</g>
<!-- Node1&#45;&gt;Node2 -->
<g id="edge1" class="edge"><title>Node1&#45;&gt;Node2</title>
<path fill="none" stroke="midnightblue" d="M165.938,-10C174.698,-10 183.58,-10 192.305,-10"/>
<polygon fill="midnightblue" stroke="midnightblue" points="165.729,-6.5001 155.729,-10 165.729,-13.5001 165.729,-6.5001"/>
</g>
<!-- Node3 -->
<g id="node3" class="node"><title>Node3</title>
<g id="a_node3"><a xlink:href="class_ro_r_frame_listener.html#a9e239911ad148aa76c58202920090f76" target="_top" xlink:title="RoRFrameListener::EnterGameplayLoop">
<polygon fill="white" stroke="black" points="398,-0.5 398,-19.5 592,-19.5 592,-0.5 398,-0.5"/>
<text text-anchor="middle" x="495" y="-7.5" font-family="Helvetica,sans-Serif" font-size="10.00">RoRFrameListener::EnterGameplayLoop</text>
</a>
</g>
</g>
<!-- Node2&#45;&gt;Node3 -->
<g id="edge2" class="edge"><title>Node2&#45;&gt;Node3</title>
<path fill="none" stroke="midnightblue" d="M371.613,-10C380.279,-10 389.071,-10 397.76,-10"/>
<polygon fill="midnightblue" stroke="midnightblue" points="371.511,-6.5001 361.511,-10 371.511,-13.5001 371.511,-6.5001"/>
</g>
<!-- Node4 -->
<g id="node4" class="node"><title>Node4</title>
<g id="a_node4"><a xlink:href="main_8cpp.html#a0ddf1224851353fc92bfbff6f499fa97" target="_top" xlink:title="main">
<polygon fill="white" stroke="black" points="628,-0.5 628,-19.5 666,-19.5 666,-0.5 628,-0.5"/>
<text text-anchor="middle" x="647" y="-7.5" font-family="Helvetica,sans-Serif" font-size="10.00">main</text>
</a>
</g>
</g>
<!-- Node3&#45;&gt;Node4 -->
<g id="edge3" class="edge"><title>Node3&#45;&gt;Node4</title>
<path fill="none" stroke="midnightblue" d="M602.452,-10C611.968,-10 620.659,-10 627.731,-10"/>
<polygon fill="midnightblue" stroke="midnightblue" points="602.27,-6.5001 592.27,-10 602.27,-13.5001 602.27,-6.5001"/>
</g>
<!-- Node5 -->
<g id="node5" class="node"><title>Node5</title>
<g id="a_node5"><a xlink:href="main_8cpp.html#a2922bc5d5c2d77a3020cfbf9df12aab0" target="_top" xlink:title="WinMain">
<polygon fill="white" stroke="black" points="702.5,-0.5 702.5,-19.5 757.5,-19.5 757.5,-0.5 702.5,-0.5"/>
<text text-anchor="middle" x="730" y="-7.5" font-family="Helvetica,sans-Serif" font-size="10.00">WinMain</text>
</a>
</g>
</g>
<!-- Node4&#45;&gt;Node5 -->
<g id="edge4" class="edge"><title>Node4&#45;&gt;Node5</title>
<path fill="none" stroke="midnightblue" d="M676.512,-10C684.929,-10 694.105,-10 702.397,-10"/>
<polygon fill="midnightblue" stroke="midnightblue" points="676.38,-6.5001 666.38,-10 676.38,-13.5001 676.38,-6.5001"/>
</g>
</g>
</svg>
