<?xml version="1.0" encoding="UTF-8" standalone="no"?>
<!DOCTYPE svg PUBLIC "-//W3C//DTD SVG 1.1//EN"
 "http://www.w3.org/Graphics/SVG/1.1/DTD/svg11.dtd">
<!-- Generated by graphviz version 2.36.0 (20140111.2315)
 -->
<!-- Title: Hydrax::Noise::FFT::remove Pages: 1 -->
<!--zoomable 185 -->
<svg id="main" version="1.1" xmlns="http://www.w3.org/2000/svg" xmlns:xlink="http://www.w3.org/1999/xlink" xml:space="preserve" onload="init(evt)">
<style type="text/css"><![CDATA[
.edge:hover path { stroke: red; }
.edge:hover polygon { stroke: red; fill: red; }
]]></style>
<script type="text/javascript"><![CDATA[
var edges = document.getElementsByTagName('g');
if (edges && edges.length) {
  for (var i=0;i<edges.length;i++) {
    if (edges[i].id.substr(0,4)=='edge') {
      edges[i].setAttribute('class','edge');
    }
  }
}
]]></script>
        <defs>
                <circle id="rim" cx="0" cy="0" r="7"/>
                <circle id="rim2" cx="0" cy="0" r="3.5"/>
                <g id="zoomPlus">
                        <use xlink:href="#rim" fill="#404040">
                                <set attributeName="fill" to="#808080" begin="zoomplus.mouseover" end="zoomplus.mouseout"/>
                        </use>
                        <path d="M-4,0h8M0,-4v8" fill="none" stroke="white" stroke-width="1.5" pointer-events="none"/>
                </g>
                <g id="zoomMin">
                        <use xlink:href="#rim" fill="#404040">
                                <set attributeName="fill" to="#808080" begin="zoomminus.mouseover" end="zoomminus.mouseout"/>
                        </use>
                        <path d="M-4,0h8" fill="none" stroke="white" stroke-width="1.5" pointer-events="none"/>
                </g>
                <g id="dirArrow">
                        <path fill="none" stroke="white" stroke-width="1.5" d="M0,-3.0v7 M-2.5,-0.5L0,-3.0L2.5,-0.5"/>
                </g>
               <g id="resetDef">
                       <use xlink:href="#rim2" fill="#404040">
                               <set attributeName="fill" to="#808080" begin="reset.mouseover" end="reset.mouseout"/>
                       </use>
               </g>
        </defs>

<script type="text/javascript">
var viewWidth = 680;
var viewHeight = 185;
var sectionId = 'dynsection-19';
</script>
<script xlink:href="svgpan.js"/>
<svg id="graph" class="graph">
<g id="viewport">
<title>Hydrax::Noise::FFT::remove</title>
<polygon fill="white" stroke="none" points="-4,4 -4,-181 676,-181 676,4 -4,4"/>
<!-- Node1 -->
<g id="node1" class="node"><title>Node1</title>
<polygon fill="#bfbfbf" stroke="black" points="0,-73 0,-103 104,-103 104,-73 0,-73"/>
<text text-anchor="start" x="8" y="-91" font-family="Helvetica,sans-Serif" font-size="10.00">Hydrax::Noise::FFT</text>
<text text-anchor="middle" x="52" y="-80" font-family="Helvetica,sans-Serif" font-size="10.00">::remove</text>
</g>
<!-- Node2 -->
<g id="node2" class="node"><title>Node2</title>
<g id="a_node2"><a xlink:href="class_hydrax_1_1_noise_1_1_noise.html#ae2260556005e5a5eaebae94d936b60c0" target="_top" xlink:title="Hydrax::Noise::Noise\l::areGPUNormalMapResourcesCreated">
<polygon fill="white" stroke="black" points="140,-147 140,-177 330,-177 330,-147 140,-147"/>
<text text-anchor="start" x="148" y="-165" font-family="Helvetica,sans-Serif" font-size="10.00">Hydrax::Noise::Noise</text>
<text text-anchor="middle" x="235" y="-154" font-family="Helvetica,sans-Serif" font-size="10.00">::areGPUNormalMapResourcesCreated</text>
</a>
</g>
</g>
<!-- Node1&#45;&gt;Node2 -->
<g id="edge1" class="edge"><title>Node1&#45;&gt;Node2</title>
<path fill="none" stroke="midnightblue" d="M76.1898,-103.203C93.2671,-113.859 117.36,-127.788 140,-137 146.148,-139.502 152.624,-141.824 159.182,-143.964"/>
<polygon fill="midnightblue" stroke="midnightblue" points="158.232,-147.334 168.821,-146.968 160.315,-140.651 158.232,-147.334"/>
</g>
<!-- Node3 -->
<g id="node3" class="node"><title>Node3</title>
<g id="a_node3"><a xlink:href="class_hydrax_1_1_noise_1_1_noise.html#a9d3ca345d3f5b629e43ab276236d93b7" target="_top" xlink:title="Hydrax::Noise::Noise\l::removeGPUNormalMapResources">
<polygon fill="white" stroke="black" points="148,-98 148,-128 322,-128 322,-98 148,-98"/>
<text text-anchor="start" x="156" y="-116" font-family="Helvetica,sans-Serif" font-size="10.00">Hydrax::Noise::Noise</text>
<text text-anchor="middle" x="235" y="-105" font-family="Helvetica,sans-Serif" font-size="10.00">::removeGPUNormalMapResources</text>
</a>
</g>
</g>
<!-- Node1&#45;&gt;Node3 -->
<g id="edge2" class="edge"><title>Node1&#45;&gt;Node3</title>
<path fill="none" stroke="midnightblue" d="M104.383,-95.0971C114.892,-96.5486 126.272,-98.1204 137.776,-99.7093"/>
<polygon fill="midnightblue" stroke="midnightblue" points="137.513,-103.206 147.898,-101.107 138.471,-96.2721 137.513,-103.206"/>
</g>
<!-- Node6 -->
<g id="node6" class="node"><title>Node6</title>
<g id="a_node6"><a xlink:href="class_hydrax_1_1_noise_1_1_noise.html#a94f5963b8f6fed2fb22149ff22e1166f" target="_top" xlink:title="Hydrax::Noise::Noise\l::isCreated">
<polygon fill="white" stroke="black" points="179.5,-49 179.5,-79 290.5,-79 290.5,-49 179.5,-49"/>
<text text-anchor="start" x="187.5" y="-67" font-family="Helvetica,sans-Serif" font-size="10.00">Hydrax::Noise::Noise</text>
<text text-anchor="middle" x="235" y="-56" font-family="Helvetica,sans-Serif" font-size="10.00">::isCreated</text>
</a>
</g>
</g>
<!-- Node1&#45;&gt;Node6 -->
<g id="edge5" class="edge"><title>Node1&#45;&gt;Node6</title>
<path fill="none" stroke="midnightblue" d="M104.383,-81.1868C124.594,-78.5069 148.027,-75.3997 169.366,-72.5702"/>
<polygon fill="midnightblue" stroke="midnightblue" points="169.873,-76.0338 179.326,-71.2496 168.952,-69.0945 169.873,-76.0338"/>
</g>
<!-- Node7 -->
<g id="node7" class="node"><title>Node7</title>
<g id="a_node7"><a xlink:href="class_hydrax_1_1_noise_1_1_noise.html#a00c4aaa7604ea492740318d01f651606" target="_top" xlink:title="Hydrax::Noise::Noise\l::remove">
<polygon fill="white" stroke="black" points="179.5,-0 179.5,-30 290.5,-30 290.5,-0 179.5,-0"/>
<text text-anchor="start" x="187.5" y="-18" font-family="Helvetica,sans-Serif" font-size="10.00">Hydrax::Noise::Noise</text>
<text text-anchor="middle" x="235" y="-7" font-family="Helvetica,sans-Serif" font-size="10.00">::remove</text>
</a>
</g>
</g>
<!-- Node1&#45;&gt;Node7 -->
<g id="edge6" class="edge"><title>Node1&#45;&gt;Node7</title>
<path fill="none" stroke="midnightblue" d="M76.5972,-72.9113C93.6721,-62.5154 117.591,-49.004 140,-40 149.284,-36.2697 159.306,-32.927 169.227,-29.9922"/>
<polygon fill="midnightblue" stroke="midnightblue" points="170.419,-33.2922 179.083,-27.1942 168.507,-26.5583 170.419,-33.2922"/>
</g>
<!-- Node4 -->
<g id="node4" class="node"><title>Node4</title>
<g id="a_node4"><a xlink:href="class_hydrax_1_1_g_p_u_normal_map_manager.html#a3a9a24e5832aaa24f78025d1ba04f8a3" target="_top" xlink:title="Hydrax::GPUNormalMapManager\l::remove">
<polygon fill="white" stroke="black" points="366,-98 366,-128 530,-128 530,-98 366,-98"/>
<text text-anchor="start" x="374" y="-116" font-family="Helvetica,sans-Serif" font-size="10.00">Hydrax::GPUNormalMapManager</text>
<text text-anchor="middle" x="448" y="-105" font-family="Helvetica,sans-Serif" font-size="10.00">::remove</text>
</a>
</g>
</g>
<!-- Node3&#45;&gt;Node4 -->
<g id="edge3" class="edge"><title>Node3&#45;&gt;Node4</title>
<path fill="none" stroke="midnightblue" d="M322.126,-113C333.206,-113 344.582,-113 355.74,-113"/>
<polygon fill="midnightblue" stroke="midnightblue" points="355.913,-116.5 365.913,-113 355.913,-109.5 355.913,-116.5"/>
</g>
<!-- Node5 -->
<g id="node5" class="node"><title>Node5</title>
<g id="a_node5"><a xlink:href="class_hydrax_1_1_rtt_manager.html#a360139ed63706da8ca9ec04716d65574" target="_top" xlink:title="Hydrax::RttManager\l::remove">
<polygon fill="white" stroke="black" points="566.5,-98 566.5,-128 671.5,-128 671.5,-98 566.5,-98"/>
<text text-anchor="start" x="574.5" y="-116" font-family="Helvetica,sans-Serif" font-size="10.00">Hydrax::RttManager</text>
<text text-anchor="middle" x="619" y="-105" font-family="Helvetica,sans-Serif" font-size="10.00">::remove</text>
</a>
</g>
</g>
<!-- Node4&#45;&gt;Node5 -->
<g id="edge4" class="edge"><title>Node4&#45;&gt;Node5</title>
<path fill="none" stroke="midnightblue" d="M530.035,-113C538.828,-113 547.671,-113 556.182,-113"/>
<polygon fill="midnightblue" stroke="midnightblue" points="556.374,-116.5 566.374,-113 556.374,-109.5 556.374,-116.5"/>
</g>
</g>
</svg>
        <g id="navigator" transform="translate(0 0)" fill="#404254">
                <rect fill="#f2f5e9" fill-opacity="0.5" stroke="#606060" stroke-width=".5" x="0" y="0" width="60" height="60"/>
                <use id="zoomplus" xlink:href="#zoomPlus" x="17" y="9" onmousedown="handleZoom(evt,'in')"/>
                <use id="zoomminus" xlink:href="#zoomMin" x="42" y="9" onmousedown="handleZoom(evt,'out')"/>
                <use id="reset" xlink:href="#resetDef" x="30" y="36" onmousedown="handleReset()"/>
                <g id="arrowUp" xlink:href="#dirArrow" transform="translate(30 24)" onmousedown="handlePan(0,-1)">
                  <use xlink:href="#rim" fill="#404040">
                        <set attributeName="fill" to="#808080" begin="arrowUp.mouseover" end="arrowUp.mouseout"/>
                  </use>
                  <path fill="none" stroke="white" stroke-width="1.5" d="M0,-3.0v7 M-2.5,-0.5L0,-3.0L2.5,-0.5"/>
                </g>
                <g id="arrowRight" xlink:href="#dirArrow" transform="rotate(90) translate(36 -43)" onmousedown="handlePan(1,0)">
                  <use xlink:href="#rim" fill="#404040">
                        <set attributeName="fill" to="#808080" begin="arrowRight.mouseover" end="arrowRight.mouseout"/>
                  </use>
                  <path fill="none" stroke="white" stroke-width="1.5" d="M0,-3.0v7 M-2.5,-0.5L0,-3.0L2.5,-0.5"/>
                </g>
                <g id="arrowDown" xlink:href="#dirArrow" transform="rotate(180) translate(-30 -48)" onmousedown="handlePan(0,1)">
                  <use xlink:href="#rim" fill="#404040">
                        <set attributeName="fill" to="#808080" begin="arrowDown.mouseover" end="arrowDown.mouseout"/>
                  </use>
                  <path fill="none" stroke="white" stroke-width="1.5" d="M0,-3.0v7 M-2.5,-0.5L0,-3.0L2.5,-0.5"/>
                </g>
                <g id="arrowLeft" xlink:href="#dirArrow" transform="rotate(270) translate(-36 17)" onmousedown="handlePan(-1,0)">
                  <use xlink:href="#rim" fill="#404040">
                        <set attributeName="fill" to="#808080" begin="arrowLeft.mouseover" end="arrowLeft.mouseout"/>
                  </use>
                  <path fill="none" stroke="white" stroke-width="1.5" d="M0,-3.0v7 M-2.5,-0.5L0,-3.0L2.5,-0.5"/>
                </g>
        </g>
        <svg viewBox="0 0 15 15" width="100%" height="30px" preserveAspectRatio="xMaxYMin meet">
         <g id="arrow_out" transform="scale(0.3 0.3)">
          <a xlink:href="class_hydrax_1_1_noise_1_1_f_f_t_a9567d90d8fae8dbd74d05d1e3b8281e4_cgraph_org.svg" target="_base">
           <rect id="button" ry="5" rx="5" y="6" x="6" height="38" width="38"
                fill="#f2f5e9" fill-opacity="0.5" stroke="#606060" stroke-width="1.0"/>
           <path id="arrow"
             d="M 11.500037,31.436501 C 11.940474,20.09759 22.043105,11.32322 32.158766,21.979434 L 37.068811,17.246167 C 37.068811,17.246167 37.088388,32 37.088388,32 L 22.160133,31.978069 C 22.160133,31.978069 26.997745,27.140456 26.997745,27.140456 C 18.528582,18.264221 13.291696,25.230495 11.500037,31.436501 z"
             style="fill:#404040;"/>
          </a>
         </g>
        </svg>
</svg>
