<?xml version="1.0" encoding="UTF-8" standalone="no"?>
<!DOCTYPE svg PUBLIC "-//W3C//DTD SVG 1.1//EN"
 "http://www.w3.org/Graphics/SVG/1.1/DTD/svg11.dtd">
<!-- Generated by graphviz version 2.36.0 (20140111.2315)
 -->
<!-- Title: Hydrax::Mesh::getOptions Pages: 1 -->
<!--zoomable 234 -->
<svg id="main" version="1.1" xmlns="http://www.w3.org/2000/svg" xmlns:xlink="http://www.w3.org/1999/xlink" xml:space="preserve" onload="init(evt)">
<style type="text/css"><![CDATA[
.edge:hover path { stroke: red; }
.edge:hover polygon { stroke: red; fill: red; }
]]></style>
<script type="text/javascript"><![CDATA[
var edges = document.getElementsByTagName('g');
if (edges && edges.length) {
  for (var i=0;i<edges.length;i++) {
    if (edges[i].id.substr(0,4)=='edge') {
      edges[i].setAttribute('class','edge');
    }
  }
}
]]></script>
        <defs>
                <circle id="rim" cx="0" cy="0" r="7"/>
                <circle id="rim2" cx="0" cy="0" r="3.5"/>
                <g id="zoomPlus">
                        <use xlink:href="#rim" fill="#404040">
                                <set attributeName="fill" to="#808080" begin="zoomplus.mouseover" end="zoomplus.mouseout"/>
                        </use>
                        <path d="M-4,0h8M0,-4v8" fill="none" stroke="white" stroke-width="1.5" pointer-events="none"/>
                </g>
                <g id="zoomMin">
                        <use xlink:href="#rim" fill="#404040">
                                <set attributeName="fill" to="#808080" begin="zoomminus.mouseover" end="zoomminus.mouseout"/>
                        </use>
                        <path d="M-4,0h8" fill="none" stroke="white" stroke-width="1.5" pointer-events="none"/>
                </g>
                <g id="dirArrow">
                        <path fill="none" stroke="white" stroke-width="1.5" d="M0,-3.0v7 M-2.5,-0.5L0,-3.0L2.5,-0.5"/>
                </g>
               <g id="resetDef">
                       <use xlink:href="#rim2" fill="#404040">
                               <set attributeName="fill" to="#808080" begin="reset.mouseover" end="reset.mouseout"/>
                       </use>
               </g>
        </defs>

<script type="text/javascript">
var viewWidth = 1008;
var viewHeight = 234;
var sectionId = 'dynsection-12';
</script>
<script xlink:href="svgpan.js"/>
<svg id="graph" class="graph">
<g id="viewport">
<title>Hydrax::Mesh::getOptions</title>
<polygon fill="white" stroke="none" points="-4,4 -4,-230 1004,-230 1004,4 -4,4"/>
<!-- Node1 -->
<g id="node1" class="node"><title>Node1</title>
<polygon fill="#bfbfbf" stroke="black" points="0.5,-139.5 0.5,-158.5 131.5,-158.5 131.5,-139.5 0.5,-139.5"/>
<text text-anchor="middle" x="66" y="-146.5" font-family="Helvetica,sans-Serif" font-size="10.00">Hydrax::Mesh::getOptions</text>
</g>
<!-- Node2 -->
<g id="node2" class="node"><title>Node2</title>
<g id="a_node2"><a xlink:href="class_hydrax_1_1_material_manager.html#a20f50f4b2b7d133fcc5be5e31d136856" target="_top" xlink:title="Hydrax::MaterialManager\l::_createWaterMaterial">
<polygon fill="white" stroke="black" points="168,-171 168,-201 294,-201 294,-171 168,-171"/>
<text text-anchor="start" x="176" y="-189" font-family="Helvetica,sans-Serif" font-size="10.00">Hydrax::MaterialManager</text>
<text text-anchor="middle" x="231" y="-178" font-family="Helvetica,sans-Serif" font-size="10.00">::_createWaterMaterial</text>
</a>
</g>
</g>
<!-- Node1&#45;&gt;Node2 -->
<g id="edge1" class="edge"><title>Node1&#45;&gt;Node2</title>
<path fill="none" stroke="midnightblue" d="M118.935,-160.789C134.497,-164.321 151.723,-168.232 167.872,-171.897"/>
<polygon fill="midnightblue" stroke="midnightblue" points="119.503,-157.329 108.977,-158.528 117.954,-164.155 119.503,-157.329"/>
</g>
<!-- Node4 -->
<g id="node4" class="node"><title>Node4</title>
<g id="a_node4"><a xlink:href="class_hydrax_1_1_material_manager.html#a2961836553f7a30a8baffb9e82f7216e" target="_top" xlink:title="Hydrax::MaterialManager\l::reload">
<polygon fill="white" stroke="black" points="168,-98 168,-128 294,-128 294,-98 168,-98"/>
<text text-anchor="start" x="176" y="-116" font-family="Helvetica,sans-Serif" font-size="10.00">Hydrax::MaterialManager</text>
<text text-anchor="middle" x="231" y="-105" font-family="Helvetica,sans-Serif" font-size="10.00">::reload</text>
</a>
</g>
</g>
<!-- Node1&#45;&gt;Node4 -->
<g id="edge3" class="edge"><title>Node1&#45;&gt;Node4</title>
<path fill="none" stroke="midnightblue" d="M120.033,-137.287C135.29,-133.918 152.069,-130.212 167.825,-126.732"/>
<polygon fill="midnightblue" stroke="midnightblue" points="119.263,-133.873 110.253,-139.447 120.773,-140.708 119.263,-133.873"/>
</g>
<!-- Node3 -->
<g id="node3" class="node"><title>Node3</title>
<g id="a_node3"><a xlink:href="class_hydrax_1_1_material_manager.html#a6aa7b0a92b824348577d506f7bcf581b" target="_top" xlink:title="Hydrax::MaterialManager\l::createMaterials">
<polygon fill="white" stroke="black" points="349,-196 349,-226 475,-226 475,-196 349,-196"/>
<text text-anchor="start" x="357" y="-214" font-family="Helvetica,sans-Serif" font-size="10.00">Hydrax::MaterialManager</text>
<text text-anchor="middle" x="412" y="-203" font-family="Helvetica,sans-Serif" font-size="10.00">::createMaterials</text>
</a>
</g>
</g>
<!-- Node2&#45;&gt;Node3 -->
<g id="edge2" class="edge"><title>Node2&#45;&gt;Node3</title>
<path fill="none" stroke="midnightblue" d="M304.189,-196.082C318.937,-198.142 334.337,-200.293 348.704,-202.299"/>
<polygon fill="midnightblue" stroke="midnightblue" points="304.491,-192.591 294.103,-194.674 303.523,-199.523 304.491,-192.591"/>
</g>
<!-- Node5 -->
<g id="node5" class="node"><title>Node5</title>
<g id="a_node5"><a xlink:href="class_hydrax_1_1_g_p_u_normal_map_manager.html#a7398a504e11ea902839868d69bcf956b" target="_top" xlink:title="Hydrax::GPUNormalMapManager\l::create">
<polygon fill="white" stroke="black" points="330,-147 330,-177 494,-177 494,-147 330,-147"/>
<text text-anchor="start" x="338" y="-165" font-family="Helvetica,sans-Serif" font-size="10.00">Hydrax::GPUNormalMapManager</text>
<text text-anchor="middle" x="412" y="-154" font-family="Helvetica,sans-Serif" font-size="10.00">::create</text>
</a>
</g>
</g>
<!-- Node4&#45;&gt;Node5 -->
<g id="edge4" class="edge"><title>Node4&#45;&gt;Node5</title>
<path fill="none" stroke="midnightblue" d="M296.836,-130.748C316.236,-136.059 337.313,-141.829 356.016,-146.948"/>
<polygon fill="midnightblue" stroke="midnightblue" points="297.736,-127.366 287.166,-128.101 295.888,-134.118 297.736,-127.366"/>
</g>
<!-- Node10 -->
<g id="node10" class="node"><title>Node10</title>
<g id="a_node10"><a xlink:href="class_hydrax_1_1_rtt_manager.html#abf7d8e05771b9f904efa09fe94ab0907" target="_top" xlink:title="Hydrax::RttManager\l::setTextureSize">
<polygon fill="white" stroke="black" points="359.5,-98 359.5,-128 464.5,-128 464.5,-98 359.5,-98"/>
<text text-anchor="start" x="367.5" y="-116" font-family="Helvetica,sans-Serif" font-size="10.00">Hydrax::RttManager</text>
<text text-anchor="middle" x="412" y="-105" font-family="Helvetica,sans-Serif" font-size="10.00">::setTextureSize</text>
</a>
</g>
</g>
<!-- Node4&#45;&gt;Node10 -->
<g id="edge9" class="edge"><title>Node4&#45;&gt;Node10</title>
<path fill="none" stroke="midnightblue" d="M304.237,-113C322.705,-113 342.192,-113 359.39,-113"/>
<polygon fill="midnightblue" stroke="midnightblue" points="304.103,-109.5 294.103,-113 304.103,-116.5 304.103,-109.5"/>
</g>
<!-- Node13 -->
<g id="node13" class="node"><title>Node13</title>
<g id="a_node13"><a xlink:href="class_hydrax_1_1_rtt_manager.html#ad54dd87efa7baa4a5037faa2e5241738" target="_top" xlink:title="Hydrax::RttManager\l::setTexturesSize">
<polygon fill="white" stroke="black" points="359.5,-49 359.5,-79 464.5,-79 464.5,-49 359.5,-49"/>
<text text-anchor="start" x="367.5" y="-67" font-family="Helvetica,sans-Serif" font-size="10.00">Hydrax::RttManager</text>
<text text-anchor="middle" x="412" y="-56" font-family="Helvetica,sans-Serif" font-size="10.00">::setTexturesSize</text>
</a>
</g>
</g>
<!-- Node4&#45;&gt;Node13 -->
<g id="edge12" class="edge"><title>Node4&#45;&gt;Node13</title>
<path fill="none" stroke="midnightblue" d="M297.065,-95.189C317.574,-89.5748 339.936,-83.4532 359.376,-78.1317"/>
<polygon fill="midnightblue" stroke="midnightblue" points="295.888,-91.8824 287.166,-97.8986 297.736,-98.634 295.888,-91.8824"/>
</g>
<!-- Node14 -->
<g id="node14" class="node"><title>Node14</title>
<g id="a_node14"><a xlink:href="class_hydrax_1_1_texture_manager.html#a30bfb59332540e897c43193474b4aa19" target="_top" xlink:title="Hydrax::TextureManager\l::create">
<polygon fill="white" stroke="black" points="349.5,-0 349.5,-30 474.5,-30 474.5,-0 349.5,-0"/>
<text text-anchor="start" x="357.5" y="-18" font-family="Helvetica,sans-Serif" font-size="10.00">Hydrax::TextureManager</text>
<text text-anchor="middle" x="412" y="-7" font-family="Helvetica,sans-Serif" font-size="10.00">::create</text>
</a>
</g>
</g>
<!-- Node4&#45;&gt;Node14 -->
<g id="edge13" class="edge"><title>Node4&#45;&gt;Node14</title>
<path fill="none" stroke="midnightblue" d="M255.633,-91.2683C274.532,-74.8947 302.355,-52.9527 330,-39 336.678,-35.6297 343.91,-32.6497 351.21,-30.0383"/>
<polygon fill="midnightblue" stroke="midnightblue" points="253.292,-88.6662 248.106,-97.9051 257.921,-93.9166 253.292,-88.6662"/>
</g>
<!-- Node6 -->
<g id="node6" class="node"><title>Node6</title>
<g id="a_node6"><a xlink:href="class_hydrax_1_1_noise_1_1_f_f_t.html#aa8e2b9d2b8307c07be2d2cd9cf115560" target="_top" xlink:title="Hydrax::Noise::FFT\l::createGPUNormalMapResources">
<polygon fill="white" stroke="black" points="530.5,-196 530.5,-226 699.5,-226 699.5,-196 530.5,-196"/>
<text text-anchor="start" x="538.5" y="-214" font-family="Helvetica,sans-Serif" font-size="10.00">Hydrax::Noise::FFT</text>
<text text-anchor="middle" x="615" y="-203" font-family="Helvetica,sans-Serif" font-size="10.00">::createGPUNormalMapResources</text>
</a>
</g>
</g>
<!-- Node5&#45;&gt;Node6 -->
<g id="edge5" class="edge"><title>Node5&#45;&gt;Node6</title>
<path fill="none" stroke="midnightblue" d="M484.391,-179.404C506.626,-184.824 530.942,-190.752 552.444,-195.994"/>
<polygon fill="midnightblue" stroke="midnightblue" points="485.217,-176.003 474.673,-177.035 483.559,-182.804 485.217,-176.003"/>
</g>
<!-- Node9 -->
<g id="node9" class="node"><title>Node9</title>
<g id="a_node9"><a xlink:href="class_hydrax_1_1_noise_1_1_perlin.html#adb347b98692bd7ce6ad7ce76c605d15a" target="_top" xlink:title="Hydrax::Noise::Perlin\l::createGPUNormalMapResources">
<polygon fill="white" stroke="black" points="530.5,-147 530.5,-177 699.5,-177 699.5,-147 530.5,-147"/>
<text text-anchor="start" x="538.5" y="-165" font-family="Helvetica,sans-Serif" font-size="10.00">Hydrax::Noise::Perlin</text>
<text text-anchor="middle" x="615" y="-154" font-family="Helvetica,sans-Serif" font-size="10.00">::createGPUNormalMapResources</text>
</a>
</g>
</g>
<!-- Node5&#45;&gt;Node9 -->
<g id="edge8" class="edge"><title>Node5&#45;&gt;Node9</title>
<path fill="none" stroke="midnightblue" d="M504.269,-162C512.916,-162 521.656,-162 530.228,-162"/>
<polygon fill="midnightblue" stroke="midnightblue" points="504.175,-158.5 494.175,-162 504.175,-165.5 504.175,-158.5"/>
</g>
<!-- Node7 -->
<g id="node7" class="node"><title>Node7</title>
<g id="a_node7"><a xlink:href="class_hydrax_1_1_noise_1_1_f_f_t.html#a1d7ec06eb11cda608cc8f73256c35be5" target="_top" xlink:title="Hydrax::Noise::FFT\l::setOptions">
<polygon fill="white" stroke="black" points="746,-196 746,-226 850,-226 850,-196 746,-196"/>
<text text-anchor="start" x="754" y="-214" font-family="Helvetica,sans-Serif" font-size="10.00">Hydrax::Noise::FFT</text>
<text text-anchor="middle" x="798" y="-203" font-family="Helvetica,sans-Serif" font-size="10.00">::setOptions</text>
</a>
</g>
</g>
<!-- Node6&#45;&gt;Node7 -->
<g id="edge6" class="edge"><title>Node6&#45;&gt;Node7</title>
<path fill="none" stroke="midnightblue" d="M709.966,-211C722.292,-211 734.532,-211 745.77,-211"/>
<polygon fill="midnightblue" stroke="midnightblue" points="709.612,-207.5 699.612,-211 709.612,-214.5 709.612,-207.5"/>
</g>
<!-- Node8 -->
<g id="node8" class="node"><title>Node8</title>
<g id="a_node8"><a xlink:href="class_hydrax_1_1_noise_1_1_f_f_t.html#a64245b9e56eeb8627ac3f5260dc203dd" target="_top" xlink:title="Hydrax::Noise::FFT\l::loadCfg">
<polygon fill="white" stroke="black" points="896,-196 896,-226 1000,-226 1000,-196 896,-196"/>
<text text-anchor="start" x="904" y="-214" font-family="Helvetica,sans-Serif" font-size="10.00">Hydrax::Noise::FFT</text>
<text text-anchor="middle" x="948" y="-203" font-family="Helvetica,sans-Serif" font-size="10.00">::loadCfg</text>
</a>
</g>
</g>
<!-- Node7&#45;&gt;Node8 -->
<g id="edge7" class="edge"><title>Node7&#45;&gt;Node8</title>
<path fill="none" stroke="midnightblue" d="M860.507,-211C872.23,-211 884.382,-211 895.743,-211"/>
<polygon fill="midnightblue" stroke="midnightblue" points="860.348,-207.5 850.348,-211 860.348,-214.5 860.348,-207.5"/>
</g>
<!-- Node11 -->
<g id="node11" class="node"><title>Node11</title>
<g id="a_node11"><a xlink:href="class_hydrax_1_1_cfg_file_manager.html#ae2a1a0accf942e528f6ba8a041a674e6" target="_top" xlink:title="Hydrax::CfgFileManager\l::_loadRttSettings">
<polygon fill="white" stroke="black" points="553.5,-98 553.5,-128 676.5,-128 676.5,-98 553.5,-98"/>
<text text-anchor="start" x="561.5" y="-116" font-family="Helvetica,sans-Serif" font-size="10.00">Hydrax::CfgFileManager</text>
<text text-anchor="middle" x="615" y="-105" font-family="Helvetica,sans-Serif" font-size="10.00">::_loadRttSettings</text>
</a>
</g>
</g>
<!-- Node10&#45;&gt;Node11 -->
<g id="edge10" class="edge"><title>Node10&#45;&gt;Node11</title>
<path fill="none" stroke="midnightblue" d="M474.604,-113C499.617,-113 528.431,-113 553.347,-113"/>
<polygon fill="midnightblue" stroke="midnightblue" points="474.502,-109.5 464.501,-113 474.501,-116.5 474.502,-109.5"/>
</g>
<!-- Node12 -->
<g id="node12" class="node"><title>Node12</title>
<g id="a_node12"><a xlink:href="class_hydrax_1_1_cfg_file_manager.html#a7d283a6b6b61ad70292c7cb24cd3543c" target="_top" xlink:title="Hydrax::CfgFileManager\l::load">
<polygon fill="white" stroke="black" points="736.5,-98 736.5,-128 859.5,-128 859.5,-98 736.5,-98"/>
<text text-anchor="start" x="744.5" y="-116" font-family="Helvetica,sans-Serif" font-size="10.00">Hydrax::CfgFileManager</text>
<text text-anchor="middle" x="798" y="-105" font-family="Helvetica,sans-Serif" font-size="10.00">::load</text>
</a>
</g>
</g>
<!-- Node11&#45;&gt;Node12 -->
<g id="edge11" class="edge"><title>Node11&#45;&gt;Node12</title>
<path fill="none" stroke="midnightblue" d="M686.591,-113C702.985,-113 720.297,-113 736.227,-113"/>
<polygon fill="midnightblue" stroke="midnightblue" points="686.522,-109.5 676.522,-113 686.522,-116.5 686.522,-109.5"/>
</g>
</g>
</svg>
        <g id="navigator" transform="translate(0 0)" fill="#404254">
                <rect fill="#f2f5e9" fill-opacity="0.5" stroke="#606060" stroke-width=".5" x="0" y="0" width="60" height="60"/>
                <use id="zoomplus" xlink:href="#zoomPlus" x="17" y="9" onmousedown="handleZoom(evt,'in')"/>
                <use id="zoomminus" xlink:href="#zoomMin" x="42" y="9" onmousedown="handleZoom(evt,'out')"/>
                <use id="reset" xlink:href="#resetDef" x="30" y="36" onmousedown="handleReset()"/>
                <g id="arrowUp" xlink:href="#dirArrow" transform="translate(30 24)" onmousedown="handlePan(0,-1)">
                  <use xlink:href="#rim" fill="#404040">
                        <set attributeName="fill" to="#808080" begin="arrowUp.mouseover" end="arrowUp.mouseout"/>
                  </use>
                  <path fill="none" stroke="white" stroke-width="1.5" d="M0,-3.0v7 M-2.5,-0.5L0,-3.0L2.5,-0.5"/>
                </g>
                <g id="arrowRight" xlink:href="#dirArrow" transform="rotate(90) translate(36 -43)" onmousedown="handlePan(1,0)">
                  <use xlink:href="#rim" fill="#404040">
                        <set attributeName="fill" to="#808080" begin="arrowRight.mouseover" end="arrowRight.mouseout"/>
                  </use>
                  <path fill="none" stroke="white" stroke-width="1.5" d="M0,-3.0v7 M-2.5,-0.5L0,-3.0L2.5,-0.5"/>
                </g>
                <g id="arrowDown" xlink:href="#dirArrow" transform="rotate(180) translate(-30 -48)" onmousedown="handlePan(0,1)">
                  <use xlink:href="#rim" fill="#404040">
                        <set attributeName="fill" to="#808080" begin="arrowDown.mouseover" end="arrowDown.mouseout"/>
                  </use>
                  <path fill="none" stroke="white" stroke-width="1.5" d="M0,-3.0v7 M-2.5,-0.5L0,-3.0L2.5,-0.5"/>
                </g>
                <g id="arrowLeft" xlink:href="#dirArrow" transform="rotate(270) translate(-36 17)" onmousedown="handlePan(-1,0)">
                  <use xlink:href="#rim" fill="#404040">
                        <set attributeName="fill" to="#808080" begin="arrowLeft.mouseover" end="arrowLeft.mouseout"/>
                  </use>
                  <path fill="none" stroke="white" stroke-width="1.5" d="M0,-3.0v7 M-2.5,-0.5L0,-3.0L2.5,-0.5"/>
                </g>
        </g>
        <svg viewBox="0 0 15 15" width="100%" height="30px" preserveAspectRatio="xMaxYMin meet">
         <g id="arrow_out" transform="scale(0.3 0.3)">
          <a xlink:href="class_hydrax_1_1_mesh_a691d01cdbb82e5d3cd92397fd17d97f6_icgraph_org.svg" target="_base">
           <rect id="button" ry="5" rx="5" y="6" x="6" height="38" width="38"
                fill="#f2f5e9" fill-opacity="0.5" stroke="#606060" stroke-width="1.0"/>
           <path id="arrow"
             d="M 11.500037,31.436501 C 11.940474,20.09759 22.043105,11.32322 32.158766,21.979434 L 37.068811,17.246167 C 37.068811,17.246167 37.088388,32 37.088388,32 L 22.160133,31.978069 C 22.160133,31.978069 26.997745,27.140456 26.997745,27.140456 C 18.528582,18.264221 13.291696,25.230495 11.500037,31.436501 z"
             style="fill:#404040;"/>
          </a>
         </g>
        </svg>
</svg>
