<?xml version="1.0" encoding="UTF-8" standalone="no"?>
<!DOCTYPE svg PUBLIC "-//W3C//DTD SVG 1.1//EN"
 "http://www.w3.org/Graphics/SVG/1.1/DTD/svg11.dtd">
<!-- Generated by graphviz version 2.36.0 (20140111.2315)
 -->
<!-- Title: RigDef::Parser::VerifyModuleIsRoot Pages: 1 -->
<svg width="1240pt" height="66pt"
 viewBox="0.00 0.00 1240.00 66.00" xmlns="http://www.w3.org/2000/svg" xmlns:xlink="http://www.w3.org/1999/xlink">
<g id="graph0" class="graph" transform="scale(1 1) rotate(0) translate(4 62)">
<title>RigDef::Parser::VerifyModuleIsRoot</title>
<polygon fill="white" stroke="none" points="-4,4 -4,-62 1236,-62 1236,4 -4,4"/>
<!-- Node1 -->
<g id="node1" class="node"><title>Node1</title>
<polygon fill="#bfbfbf" stroke="black" points="0.5,-14 0.5,-44 145.5,-44 145.5,-14 0.5,-14"/>
<text text-anchor="start" x="8.5" y="-32" font-family="Helvetica,sans-Serif" font-size="10.00">RigDef::Parser::VerifyModule</text>
<text text-anchor="middle" x="73" y="-21" font-family="Helvetica,sans-Serif" font-size="10.00">IsRoot</text>
</g>
<!-- Node2 -->
<g id="node2" class="node"><title>Node2</title>
<g id="a_node2"><a xlink:href="class_rig_def_1_1_parser.html#ab7b0d942d64f73b73ef53903a085519d" target="_top" xlink:title="Directives that should only appear in root module. ">
<polygon fill="white" stroke="black" points="182,-14 182,-44 334,-44 334,-14 182,-14"/>
<text text-anchor="start" x="190" y="-32" font-family="Helvetica,sans-Serif" font-size="10.00">RigDef::Parser::ProcessGlobal</text>
<text text-anchor="middle" x="258" y="-21" font-family="Helvetica,sans-Serif" font-size="10.00">Directive</text>
</a>
</g>
</g>
<!-- Node1&#45;&gt;Node2 -->
<g id="edge1" class="edge"><title>Node1&#45;&gt;Node2</title>
<path fill="none" stroke="midnightblue" d="M155.698,-29C164.415,-29 173.253,-29 181.889,-29"/>
<polygon fill="midnightblue" stroke="midnightblue" points="155.539,-25.5001 145.539,-29 155.539,-32.5001 155.539,-25.5001"/>
</g>
<!-- Node3 -->
<g id="node3" class="node"><title>Node3</title>
<g id="a_node3"><a xlink:href="class_rig_def_1_1_parser.html#a99a49d75798b1fa5dfbd00873455fbeb" target="_top" xlink:title="RigDef::Parser::ProcessCurrentLine">
<polygon fill="white" stroke="black" points="370,-19.5 370,-38.5 544,-38.5 544,-19.5 370,-19.5"/>
<text text-anchor="middle" x="457" y="-26.5" font-family="Helvetica,sans-Serif" font-size="10.00">RigDef::Parser::ProcessCurrentLine</text>
</a>
</g>
</g>
<!-- Node2&#45;&gt;Node3 -->
<g id="edge2" class="edge"><title>Node2&#45;&gt;Node3</title>
<path fill="none" stroke="midnightblue" d="M344.044,-29C352.634,-29 361.364,-29 369.965,-29"/>
<polygon fill="midnightblue" stroke="midnightblue" points="344.039,-25.5001 334.039,-29 344.039,-32.5001 344.039,-25.5001"/>
</g>
<!-- Node4 -->
<g id="node4" class="node"><title>Node4</title>
<g id="a_node4"><a xlink:href="class_rig_def_1_1_parser.html#ad1920ba0a8dc23ac5043b2c270ef5f47" target="_top" xlink:title="RigDef::Parser::ProcessRawLine">
<polygon fill="white" stroke="black" points="580,-19.5 580,-38.5 742,-38.5 742,-19.5 580,-19.5"/>
<text text-anchor="middle" x="661" y="-26.5" font-family="Helvetica,sans-Serif" font-size="10.00">RigDef::Parser::ProcessRawLine</text>
</a>
</g>
</g>
<!-- Node3&#45;&gt;Node4 -->
<g id="edge3" class="edge"><title>Node3&#45;&gt;Node4</title>
<path fill="none" stroke="midnightblue" d="M554.255,-29C562.806,-29 571.403,-29 579.799,-29"/>
<polygon fill="midnightblue" stroke="midnightblue" points="554.252,-25.5001 544.252,-29 554.252,-32.5001 554.252,-25.5001"/>
</g>
<!-- Node5 -->
<g id="node5" class="node"><title>Node5</title>
<g id="a_node5"><a xlink:href="class_rig_def_1_1_parser.html#ab08d0ba4ffb90b72cb351014bb7861bd" target="_top" xlink:title="RigDef::Parser::ProcessOgre\lStream">
<polygon fill="white" stroke="black" points="778.5,-14 778.5,-44 923.5,-44 923.5,-14 778.5,-14"/>
<text text-anchor="start" x="786.5" y="-32" font-family="Helvetica,sans-Serif" font-size="10.00">RigDef::Parser::ProcessOgre</text>
<text text-anchor="middle" x="851" y="-21" font-family="Helvetica,sans-Serif" font-size="10.00">Stream</text>
</a>
</g>
</g>
<!-- Node4&#45;&gt;Node5 -->
<g id="edge4" class="edge"><title>Node4&#45;&gt;Node5</title>
<path fill="none" stroke="midnightblue" d="M752.261,-29C761.034,-29 769.85,-29 778.403,-29"/>
<polygon fill="midnightblue" stroke="midnightblue" points="752.002,-25.5001 742.002,-29 752.001,-32.5001 752.002,-25.5001"/>
</g>
<!-- Node6 -->
<g id="node6" class="node"><title>Node6</title>
<g id="a_node6"><a xlink:href="class_beam.html#ab0cbc6c4e3822fc5786af2c8036f7efb" target="_top" xlink:title="Beam::LoadTruck">
<polygon fill="white" stroke="black" points="994,-38.5 994,-57.5 1088,-57.5 1088,-38.5 994,-38.5"/>
<text text-anchor="middle" x="1041" y="-45.5" font-family="Helvetica,sans-Serif" font-size="10.00">Beam::LoadTruck</text>
</a>
</g>
</g>
<!-- Node5&#45;&gt;Node6 -->
<g id="edge5" class="edge"><title>Node5&#45;&gt;Node6</title>
<path fill="none" stroke="midnightblue" d="M933.649,-37.2517C954.264,-39.3352 975.686,-41.5002 993.855,-43.3364"/>
<polygon fill="midnightblue" stroke="midnightblue" points="933.912,-33.7606 923.611,-36.2373 933.208,-40.7252 933.912,-33.7606"/>
</g>
<!-- Node8 -->
<g id="node8" class="node"><title>Node8</title>
<g id="a_node8"><a xlink:href="class_cache_system.html#ad640fd28c3075eb6310d8d8f3475cefb" target="_top" xlink:title="CacheSystem::fillTruckDetailInfo">
<polygon fill="white" stroke="black" points="960.5,-0.5 960.5,-19.5 1121.5,-19.5 1121.5,-0.5 960.5,-0.5"/>
<text text-anchor="middle" x="1041" y="-7.5" font-family="Helvetica,sans-Serif" font-size="10.00">CacheSystem::fillTruckDetailInfo</text>
</a>
</g>
</g>
<!-- Node5&#45;&gt;Node8 -->
<g id="edge7" class="edge"><title>Node5&#45;&gt;Node8</title>
<path fill="none" stroke="midnightblue" d="M933.584,-20.7548C942.49,-19.8547 951.547,-18.9394 960.429,-18.0418"/>
<polygon fill="midnightblue" stroke="midnightblue" points="933.208,-17.2748 923.611,-21.7627 933.912,-24.2394 933.208,-17.2748"/>
</g>
<!-- Node7 -->
<g id="node7" class="node"><title>Node7</title>
<g id="a_node7"><a xlink:href="class_beam.html#a0d55b25fa0d1623305f3ac51694cbd42" target="_top" xlink:title="Beam::Beam">
<polygon fill="white" stroke="black" points="1158,-38.5 1158,-57.5 1232,-57.5 1232,-38.5 1158,-38.5"/>
<text text-anchor="middle" x="1195" y="-45.5" font-family="Helvetica,sans-Serif" font-size="10.00">Beam::Beam</text>
</a>
</g>
</g>
<!-- Node6&#45;&gt;Node7 -->
<g id="edge6" class="edge"><title>Node6&#45;&gt;Node7</title>
<path fill="none" stroke="midnightblue" d="M1098.22,-48C1118.13,-48 1139.98,-48 1157.79,-48"/>
<polygon fill="midnightblue" stroke="midnightblue" points="1098.02,-44.5001 1088.02,-48 1098.02,-51.5001 1098.02,-44.5001"/>
</g>
</g>
</svg>
