<?xml version="1.0" encoding="UTF-8" standalone="no"?>
<!DOCTYPE svg PUBLIC "-//W3C//DTD SVG 1.1//EN"
 "http://www.w3.org/Graphics/SVG/1.1/DTD/svg11.dtd">
<!-- Generated by graphviz version 2.36.0 (20140111.2315)
 -->
<!-- Title: RoR::GUIManager::FrictionSettingsUpdateCollisions Pages: 1 -->
<svg width="334pt" height="126pt"
 viewBox="0.00 0.00 334.00 126.00" xmlns="http://www.w3.org/2000/svg" xmlns:xlink="http://www.w3.org/1999/xlink">
<g id="graph0" class="graph" transform="scale(1 1) rotate(0) translate(4 122)">
<title>RoR::GUIManager::FrictionSettingsUpdateCollisions</title>
<polygon fill="white" stroke="none" points="-4,4 -4,-122 330,-122 330,4 -4,4"/>
<!-- Node1 -->
<g id="node1" class="node"><title>Node1</title>
<polygon fill="#bfbfbf" stroke="black" points="0.5,-49 0.5,-79 137.5,-79 137.5,-49 0.5,-49"/>
<text text-anchor="start" x="8.5" y="-67" font-family="Helvetica,sans-Serif" font-size="10.00">RoR::GUIManager::Friction</text>
<text text-anchor="middle" x="69" y="-56" font-family="Helvetica,sans-Serif" font-size="10.00">SettingsUpdateCollisions</text>
</g>
<!-- Node2 -->
<g id="node2" class="node"><title>Node2</title>
<g id="a_node2"><a xlink:href="namespace_ro_r_1_1_app.html#a68d6403d2b36006a6fa2d28f5ba8f12f" target="_top" xlink:title="RoR::App::GetGuiManager">
<polygon fill="white" stroke="black" points="183,-98.5 183,-117.5 317,-117.5 317,-98.5 183,-98.5"/>
<text text-anchor="middle" x="250" y="-105.5" font-family="Helvetica,sans-Serif" font-size="10.00">RoR::App::GetGuiManager</text>
</a>
</g>
</g>
<!-- Node1&#45;&gt;Node2 -->
<g id="edge1" class="edge"><title>Node1&#45;&gt;Node2</title>
<path fill="none" stroke="midnightblue" d="M131.101,-79.0192C153.746,-84.5856 179.097,-90.8171 200.472,-96.0713"/>
<polygon fill="midnightblue" stroke="midnightblue" points="199.755,-99.4993 210.302,-98.4876 201.426,-92.7016 199.755,-99.4993"/>
</g>
<!-- Node3 -->
<g id="node3" class="node"><title>Node3</title>
<g id="a_node3"><a xlink:href="class_ro_r_1_1_g_u_i_manager.html#a77612f0d37f4c7687a400e17daefe89e" target="_top" xlink:title="RoR::GUIManager::GetFriction\lSettings">
<polygon fill="white" stroke="black" points="174,-49 174,-79 326,-79 326,-49 174,-49"/>
<text text-anchor="start" x="182" y="-67" font-family="Helvetica,sans-Serif" font-size="10.00">RoR::GUIManager::GetFriction</text>
<text text-anchor="middle" x="250" y="-56" font-family="Helvetica,sans-Serif" font-size="10.00">Settings</text>
</a>
</g>
</g>
<!-- Node1&#45;&gt;Node3 -->
<g id="edge2" class="edge"><title>Node1&#45;&gt;Node3</title>
<path fill="none" stroke="midnightblue" d="M137.672,-64C146.14,-64 154.886,-64 163.58,-64"/>
<polygon fill="midnightblue" stroke="midnightblue" points="163.742,-67.5001 173.742,-64 163.742,-60.5001 163.742,-67.5001"/>
</g>
<!-- Node4 -->
<g id="node4" class="node"><title>Node4</title>
<g id="a_node4"><a xlink:href="class_ro_r_1_1_g_u_i_1_1_friction_settings.html#a1fece1fbdff4db9fda4c531c895dbbcf" target="_top" xlink:title="RoR::GUI::FrictionSettings\l::setCollisions">
<polygon fill="white" stroke="black" points="182.5,-0 182.5,-30 317.5,-30 317.5,-0 182.5,-0"/>
<text text-anchor="start" x="190.5" y="-18" font-family="Helvetica,sans-Serif" font-size="10.00">RoR::GUI::FrictionSettings</text>
<text text-anchor="middle" x="250" y="-7" font-family="Helvetica,sans-Serif" font-size="10.00">::setCollisions</text>
</a>
</g>
</g>
<!-- Node1&#45;&gt;Node4 -->
<g id="edge3" class="edge"><title>Node1&#45;&gt;Node4</title>
<path fill="none" stroke="midnightblue" d="M125.166,-48.8986C143.884,-43.7747 164.963,-38.0044 184.353,-32.6968"/>
<polygon fill="midnightblue" stroke="midnightblue" points="185.295,-36.0677 194.016,-30.0516 183.446,-29.3161 185.295,-36.0677"/>
</g>
</g>
</svg>
