<?xml version="1.0" encoding="UTF-8" standalone="no"?>
<!DOCTYPE svg PUBLIC "-//W3C//DTD SVG 1.1//EN"
 "http://www.w3.org/Graphics/SVG/1.1/DTD/svg11.dtd">
<!-- Generated by graphviz version 2.36.0 (20140111.2315)
 -->
<!-- Title: GameScript::moveObjectVisuals Pages: 1 -->
<svg width="336pt" height="87pt"
 viewBox="0.00 0.00 336.00 87.00" xmlns="http://www.w3.org/2000/svg" xmlns:xlink="http://www.w3.org/1999/xlink">
<g id="graph0" class="graph" transform="scale(1 1) rotate(0) translate(4 83)">
<title>GameScript::moveObjectVisuals</title>
<polygon fill="white" stroke="none" points="-4,4 -4,-83 332,-83 332,4 -4,4"/>
<!-- Node1 -->
<g id="node1" class="node"><title>Node1</title>
<polygon fill="#bfbfbf" stroke="black" points="0.5,-29.5 0.5,-48.5 159.5,-48.5 159.5,-29.5 0.5,-29.5"/>
<text text-anchor="middle" x="80" y="-36.5" font-family="Helvetica,sans-Serif" font-size="10.00">GameScript::moveObjectVisuals</text>
</g>
<!-- Node2 -->
<g id="node2" class="node"><title>Node2</title>
<g id="a_node2"><a xlink:href="class_terrain_manager.html#a55891b7908baf6be96220a227596028c" target="_top" xlink:title="TerrainManager::getObject\lManager">
<polygon fill="white" stroke="black" points="196,-49 196,-79 328,-79 328,-49 196,-49"/>
<text text-anchor="start" x="204" y="-67" font-family="Helvetica,sans-Serif" font-size="10.00">TerrainManager::getObject</text>
<text text-anchor="middle" x="262" y="-56" font-family="Helvetica,sans-Serif" font-size="10.00">Manager</text>
</a>
</g>
</g>
<!-- Node1&#45;&gt;Node2 -->
<g id="edge1" class="edge"><title>Node1&#45;&gt;Node2</title>
<path fill="none" stroke="midnightblue" d="M149.564,-48.5227C161.439,-50.1721 173.844,-51.895 185.883,-53.567"/>
<polygon fill="midnightblue" stroke="midnightblue" points="185.503,-57.0478 195.89,-54.9569 186.466,-50.1144 185.503,-57.0478"/>
</g>
<!-- Node3 -->
<g id="node3" class="node"><title>Node3</title>
<g id="a_node3"><a xlink:href="class_terrain_object_manager.html#acbae9e5334183b04cd2df3f02bb4b331" target="_top" xlink:title="TerrainObjectManager\l::moveObjectVisuals">
<polygon fill="white" stroke="black" points="205.5,-0 205.5,-30 318.5,-30 318.5,-0 205.5,-0"/>
<text text-anchor="start" x="213.5" y="-18" font-family="Helvetica,sans-Serif" font-size="10.00">TerrainObjectManager</text>
<text text-anchor="middle" x="262" y="-7" font-family="Helvetica,sans-Serif" font-size="10.00">::moveObjectVisuals</text>
</a>
</g>
</g>
<!-- Node1&#45;&gt;Node3 -->
<g id="edge2" class="edge"><title>Node1&#45;&gt;Node3</title>
<path fill="none" stroke="midnightblue" d="M152.399,-29.4801C166.537,-27.595 181.316,-25.6246 195.255,-23.766"/>
<polygon fill="midnightblue" stroke="midnightblue" points="195.786,-27.2262 205.236,-22.4352 194.861,-20.2876 195.786,-27.2262"/>
</g>
</g>
</svg>
