<?xml version="1.0" encoding="UTF-8" standalone="no"?>
<!DOCTYPE svg PUBLIC "-//W3C//DTD SVG 1.1//EN"
 "http://www.w3.org/Graphics/SVG/1.1/DTD/svg11.dtd">
<!-- Generated by graphviz version 2.36.0 (20140111.2315)
 -->
<!-- Title: RoR::GUIManager::CenterSpawnerReportWindow Pages: 1 -->
<!--zoomable 136 -->
<svg id="main" version="1.1" xmlns="http://www.w3.org/2000/svg" xmlns:xlink="http://www.w3.org/1999/xlink" xml:space="preserve" onload="init(evt)">
<style type="text/css"><![CDATA[
.edge:hover path { stroke: red; }
.edge:hover polygon { stroke: red; fill: red; }
]]></style>
<script type="text/javascript"><![CDATA[
var edges = document.getElementsByTagName('g');
if (edges && edges.length) {
  for (var i=0;i<edges.length;i++) {
    if (edges[i].id.substr(0,4)=='edge') {
      edges[i].setAttribute('class','edge');
    }
  }
}
]]></script>
        <defs>
                <circle id="rim" cx="0" cy="0" r="7"/>
                <circle id="rim2" cx="0" cy="0" r="3.5"/>
                <g id="zoomPlus">
                        <use xlink:href="#rim" fill="#404040">
                                <set attributeName="fill" to="#808080" begin="zoomplus.mouseover" end="zoomplus.mouseout"/>
                        </use>
                        <path d="M-4,0h8M0,-4v8" fill="none" stroke="white" stroke-width="1.5" pointer-events="none"/>
                </g>
                <g id="zoomMin">
                        <use xlink:href="#rim" fill="#404040">
                                <set attributeName="fill" to="#808080" begin="zoomminus.mouseover" end="zoomminus.mouseout"/>
                        </use>
                        <path d="M-4,0h8" fill="none" stroke="white" stroke-width="1.5" pointer-events="none"/>
                </g>
                <g id="dirArrow">
                        <path fill="none" stroke="white" stroke-width="1.5" d="M0,-3.0v7 M-2.5,-0.5L0,-3.0L2.5,-0.5"/>
                </g>
               <g id="resetDef">
                       <use xlink:href="#rim2" fill="#404040">
                               <set attributeName="fill" to="#808080" begin="reset.mouseover" end="reset.mouseout"/>
                       </use>
               </g>
        </defs>

<script type="text/javascript">
var viewWidth = 624;
var viewHeight = 136;
var sectionId = 'dynsection-8';
</script>
<script xlink:href="svgpan.js"/>
<svg id="graph" class="graph">
<g id="viewport">
<title>RoR::GUIManager::CenterSpawnerReportWindow</title>
<polygon fill="white" stroke="none" points="-4,4 -4,-132 620,-132 620,4 -4,4"/>
<!-- Node1 -->
<g id="node1" class="node"><title>Node1</title>
<polygon fill="#bfbfbf" stroke="black" points="0,-49 0,-79 172,-79 172,-49 0,-49"/>
<text text-anchor="start" x="8" y="-67" font-family="Helvetica,sans-Serif" font-size="10.00">RoR::GUIManager::CenterSpawner</text>
<text text-anchor="middle" x="86" y="-56" font-family="Helvetica,sans-Serif" font-size="10.00">ReportWindow</text>
</g>
<!-- Node2 -->
<g id="node2" class="node"><title>Node2</title>
<g id="a_node2"><a xlink:href="class_ro_r_1_1_gui_panel_base.html#affcdec6ec2970670cb411cd793d3393b" target="_top" xlink:title="RoR::GuiPanelBase::\lCenterToScreen">
<polygon fill="white" stroke="black" points="208.5,-49 208.5,-79 319.5,-79 319.5,-49 208.5,-49"/>
<text text-anchor="start" x="216.5" y="-67" font-family="Helvetica,sans-Serif" font-size="10.00">RoR::GuiPanelBase::</text>
<text text-anchor="middle" x="264" y="-56" font-family="Helvetica,sans-Serif" font-size="10.00">CenterToScreen</text>
</a>
</g>
</g>
<!-- Node1&#45;&gt;Node2 -->
<g id="edge1" class="edge"><title>Node1&#45;&gt;Node2</title>
<path fill="none" stroke="midnightblue" d="M172.164,-64C180.898,-64 189.668,-64 198.131,-64"/>
<polygon fill="midnightblue" stroke="midnightblue" points="198.279,-67.5001 208.279,-64 198.279,-60.5001 198.279,-67.5001"/>
</g>
<!-- Node3 -->
<g id="node3" class="node"><title>Node3</title>
<g id="a_node3"><a xlink:href="class_ro_r_1_1_gui_panel_base.html#a7e4cd733a76df97224472bdb5fb09842" target="_top" xlink:title="RoR::GuiPanelBase::\lSetPosition">
<polygon fill="white" stroke="black" points="356.5,-98 356.5,-128 467.5,-128 467.5,-98 356.5,-98"/>
<text text-anchor="start" x="364.5" y="-116" font-family="Helvetica,sans-Serif" font-size="10.00">RoR::GuiPanelBase::</text>
<text text-anchor="middle" x="412" y="-105" font-family="Helvetica,sans-Serif" font-size="10.00">SetPosition</text>
</a>
</g>
</g>
<!-- Node2&#45;&gt;Node3 -->
<g id="edge2" class="edge"><title>Node2&#45;&gt;Node3</title>
<path fill="none" stroke="midnightblue" d="M309.996,-79.1014C324.636,-84.0147 341.046,-89.5224 356.314,-94.6466"/>
<polygon fill="midnightblue" stroke="midnightblue" points="355.558,-98.0847 366.152,-97.9484 357.786,-91.4485 355.558,-98.0847"/>
</g>
<!-- Node4 -->
<g id="node4" class="node"><title>Node4</title>
<g id="a_node4"><a xlink:href="class_ro_r_1_1_gui_panel_base.html#a9d1fac699ff4d79c1007af21c24443e9" target="_top" xlink:title="RoR::GuiPanelBase::\lGetWidthPixels">
<polygon fill="white" stroke="black" points="356.5,-49 356.5,-79 467.5,-79 467.5,-49 356.5,-49"/>
<text text-anchor="start" x="364.5" y="-67" font-family="Helvetica,sans-Serif" font-size="10.00">RoR::GuiPanelBase::</text>
<text text-anchor="middle" x="412" y="-56" font-family="Helvetica,sans-Serif" font-size="10.00">GetWidthPixels</text>
</a>
</g>
</g>
<!-- Node2&#45;&gt;Node4 -->
<g id="edge3" class="edge"><title>Node2&#45;&gt;Node4</title>
<path fill="none" stroke="midnightblue" d="M319.78,-64C328.388,-64 337.356,-64 346.164,-64"/>
<polygon fill="midnightblue" stroke="midnightblue" points="346.398,-67.5001 356.398,-64 346.398,-60.5001 346.398,-67.5001"/>
</g>
<!-- Node6 -->
<g id="node6" class="node"><title>Node6</title>
<g id="a_node6"><a xlink:href="class_ro_r_1_1_gui_panel_base.html#a0610633a6bb4693e333a260935e9ae3c" target="_top" xlink:title="RoR::GuiPanelBase::\lGetHeightPixels">
<polygon fill="white" stroke="black" points="356.5,-0 356.5,-30 467.5,-30 467.5,-0 356.5,-0"/>
<text text-anchor="start" x="364.5" y="-18" font-family="Helvetica,sans-Serif" font-size="10.00">RoR::GuiPanelBase::</text>
<text text-anchor="middle" x="412" y="-7" font-family="Helvetica,sans-Serif" font-size="10.00">GetHeightPixels</text>
</a>
</g>
</g>
<!-- Node2&#45;&gt;Node6 -->
<g id="edge5" class="edge"><title>Node2&#45;&gt;Node6</title>
<path fill="none" stroke="midnightblue" d="M309.996,-48.8986C324.636,-43.9853 341.046,-38.4776 356.314,-33.3534"/>
<polygon fill="midnightblue" stroke="midnightblue" points="357.786,-36.5515 366.152,-30.0516 355.558,-29.9153 357.786,-36.5515"/>
</g>
<!-- Node5 -->
<g id="node5" class="node"><title>Node5</title>
<g id="a_node5"><a xlink:href="class_ro_r_1_1_gui_panel_base.html#a5e33ecbbdbbc4ea1e9369560a753f938" target="_top" xlink:title="RoR::GuiPanelBase::\lGetSizePixels">
<polygon fill="white" stroke="black" points="504.5,-24 504.5,-54 615.5,-54 615.5,-24 504.5,-24"/>
<text text-anchor="start" x="512.5" y="-42" font-family="Helvetica,sans-Serif" font-size="10.00">RoR::GuiPanelBase::</text>
<text text-anchor="middle" x="560" y="-31" font-family="Helvetica,sans-Serif" font-size="10.00">GetSizePixels</text>
</a>
</g>
</g>
<!-- Node4&#45;&gt;Node5 -->
<g id="edge4" class="edge"><title>Node4&#45;&gt;Node5</title>
<path fill="none" stroke="midnightblue" d="M467.78,-54.6198C476.481,-53.1299 485.551,-51.5769 494.451,-50.0529"/>
<polygon fill="midnightblue" stroke="midnightblue" points="495.132,-53.4873 504.398,-48.3496 493.951,-46.5877 495.132,-53.4873"/>
</g>
<!-- Node6&#45;&gt;Node5 -->
<g id="edge6" class="edge"><title>Node6&#45;&gt;Node5</title>
<path fill="none" stroke="midnightblue" d="M467.78,-24.005C476.481,-25.4353 485.551,-26.9262 494.451,-28.3892"/>
<polygon fill="midnightblue" stroke="midnightblue" points="493.963,-31.8559 504.398,-30.0244 495.098,-24.9486 493.963,-31.8559"/>
</g>
</g>
</svg>
        <g id="navigator" transform="translate(0 0)" fill="#404254">
                <rect fill="#f2f5e9" fill-opacity="0.5" stroke="#606060" stroke-width=".5" x="0" y="0" width="60" height="60"/>
                <use id="zoomplus" xlink:href="#zoomPlus" x="17" y="9" onmousedown="handleZoom(evt,'in')"/>
                <use id="zoomminus" xlink:href="#zoomMin" x="42" y="9" onmousedown="handleZoom(evt,'out')"/>
                <use id="reset" xlink:href="#resetDef" x="30" y="36" onmousedown="handleReset()"/>
                <g id="arrowUp" xlink:href="#dirArrow" transform="translate(30 24)" onmousedown="handlePan(0,-1)">
                  <use xlink:href="#rim" fill="#404040">
                        <set attributeName="fill" to="#808080" begin="arrowUp.mouseover" end="arrowUp.mouseout"/>
                  </use>
                  <path fill="none" stroke="white" stroke-width="1.5" d="M0,-3.0v7 M-2.5,-0.5L0,-3.0L2.5,-0.5"/>
                </g>
                <g id="arrowRight" xlink:href="#dirArrow" transform="rotate(90) translate(36 -43)" onmousedown="handlePan(1,0)">
                  <use xlink:href="#rim" fill="#404040">
                        <set attributeName="fill" to="#808080" begin="arrowRight.mouseover" end="arrowRight.mouseout"/>
                  </use>
                  <path fill="none" stroke="white" stroke-width="1.5" d="M0,-3.0v7 M-2.5,-0.5L0,-3.0L2.5,-0.5"/>
                </g>
                <g id="arrowDown" xlink:href="#dirArrow" transform="rotate(180) translate(-30 -48)" onmousedown="handlePan(0,1)">
                  <use xlink:href="#rim" fill="#404040">
                        <set attributeName="fill" to="#808080" begin="arrowDown.mouseover" end="arrowDown.mouseout"/>
                  </use>
                  <path fill="none" stroke="white" stroke-width="1.5" d="M0,-3.0v7 M-2.5,-0.5L0,-3.0L2.5,-0.5"/>
                </g>
                <g id="arrowLeft" xlink:href="#dirArrow" transform="rotate(270) translate(-36 17)" onmousedown="handlePan(-1,0)">
                  <use xlink:href="#rim" fill="#404040">
                        <set attributeName="fill" to="#808080" begin="arrowLeft.mouseover" end="arrowLeft.mouseout"/>
                  </use>
                  <path fill="none" stroke="white" stroke-width="1.5" d="M0,-3.0v7 M-2.5,-0.5L0,-3.0L2.5,-0.5"/>
                </g>
        </g>
        <svg viewBox="0 0 15 15" width="100%" height="30px" preserveAspectRatio="xMaxYMin meet">
         <g id="arrow_out" transform="scale(0.3 0.3)">
          <a xlink:href="class_ro_r_1_1_g_u_i_manager_ad70083b5033911b227af7ab847288f77_cgraph_org.svg" target="_base">
           <rect id="button" ry="5" rx="5" y="6" x="6" height="38" width="38"
                fill="#f2f5e9" fill-opacity="0.5" stroke="#606060" stroke-width="1.0"/>
           <path id="arrow"
             d="M 11.500037,31.436501 C 11.940474,20.09759 22.043105,11.32322 32.158766,21.979434 L 37.068811,17.246167 C 37.068811,17.246167 37.088388,32 37.088388,32 L 22.160133,31.978069 C 22.160133,31.978069 26.997745,27.140456 26.997745,27.140456 C 18.528582,18.264221 13.291696,25.230495 11.500037,31.436501 z"
             style="fill:#404040;"/>
          </a>
         </g>
        </svg>
</svg>
