<?xml version="1.0" encoding="UTF-8" standalone="no"?>
<!DOCTYPE svg PUBLIC "-//W3C//DTD SVG 1.1//EN"
 "http://www.w3.org/Graphics/SVG/1.1/DTD/svg11.dtd">
<!-- Generated by graphviz version 2.36.0 (20140111.2315)
 -->
<!-- Title: ImprovedConfigFile::load Pages: 1 -->
<svg width="782pt" height="66pt"
 viewBox="0.00 0.00 782.00 66.00" xmlns="http://www.w3.org/2000/svg" xmlns:xlink="http://www.w3.org/1999/xlink">
<g id="graph0" class="graph" transform="scale(1 1) rotate(0) translate(4 62)">
<title>ImprovedConfigFile::load</title>
<polygon fill="white" stroke="none" points="-4,4 -4,-62 778,-62 778,4 -4,4"/>
<!-- Node1 -->
<g id="node1" class="node"><title>Node1</title>
<polygon fill="#bfbfbf" stroke="black" points="0.5,-14 0.5,-44 101.5,-44 101.5,-14 0.5,-14"/>
<text text-anchor="start" x="8.5" y="-32" font-family="Helvetica,sans-Serif" font-size="10.00">ImprovedConfigFile</text>
<text text-anchor="middle" x="51" y="-21" font-family="Helvetica,sans-Serif" font-size="10.00">::load</text>
</g>
<!-- Node2 -->
<g id="node2" class="node"><title>Node2</title>
<g id="a_node2"><a xlink:href="class_cache_system.html#a51fe1554d751cdaeab716e7a4255bd8a" target="_top" xlink:title="Checks if update is needed. ">
<polygon fill="white" stroke="black" points="138.5,-38.5 138.5,-57.5 281.5,-57.5 281.5,-38.5 138.5,-38.5"/>
<text text-anchor="middle" x="210" y="-45.5" font-family="Helvetica,sans-Serif" font-size="10.00">CacheSystem::IsCacheValid</text>
</a>
</g>
</g>
<!-- Node1&#45;&gt;Node2 -->
<g id="edge1" class="edge"><title>Node1&#45;&gt;Node2</title>
<path fill="none" stroke="midnightblue" d="M111.736,-36.2292C120.459,-37.2848 129.509,-38.3801 138.422,-39.4588"/>
<polygon fill="midnightblue" stroke="midnightblue" points="112.024,-32.7386 101.676,-35.0117 111.183,-39.6879 112.024,-32.7386"/>
</g>
<!-- Node7 -->
<g id="node7" class="node"><title>Node7</title>
<g id="a_node7"><a xlink:href="class_local_storage.html#ad35d3da4e6ee6b215878cc6f5fa70669" target="_top" xlink:title="LocalStorage::loadDict">
<polygon fill="white" stroke="black" points="152,-0.5 152,-19.5 268,-19.5 268,-0.5 152,-0.5"/>
<text text-anchor="middle" x="210" y="-7.5" font-family="Helvetica,sans-Serif" font-size="10.00">LocalStorage::loadDict</text>
</a>
</g>
</g>
<!-- Node1&#45;&gt;Node7 -->
<g id="edge7" class="edge"><title>Node1&#45;&gt;Node7</title>
<path fill="none" stroke="midnightblue" d="M111.623,-21.7845C124.859,-20.1826 138.857,-18.4886 151.986,-16.8997"/>
<polygon fill="midnightblue" stroke="midnightblue" points="111.183,-18.3121 101.676,-22.9883 112.024,-25.2614 111.183,-18.3121"/>
</g>
<!-- Node3 -->
<g id="node3" class="node"><title>Node3</title>
<g id="a_node3"><a xlink:href="class_cache_system.html#ae010322c2422bf8f8dbfce904257da31" target="_top" xlink:title="CacheSystem::Startup">
<polygon fill="white" stroke="black" points="329,-38.5 329,-57.5 445,-57.5 445,-38.5 329,-38.5"/>
<text text-anchor="middle" x="387" y="-45.5" font-family="Helvetica,sans-Serif" font-size="10.00">CacheSystem::Startup</text>
</a>
</g>
</g>
<!-- Node2&#45;&gt;Node3 -->
<g id="edge2" class="edge"><title>Node2&#45;&gt;Node3</title>
<path fill="none" stroke="midnightblue" d="M292.032,-48C304.436,-48 317.015,-48 328.764,-48"/>
<polygon fill="midnightblue" stroke="midnightblue" points="291.675,-44.5001 281.675,-48 291.675,-51.5001 291.675,-44.5001"/>
</g>
<!-- Node4 -->
<g id="node4" class="node"><title>Node4</title>
<g id="a_node4"><a xlink:href="main_8cpp.html#a0ddf1224851353fc92bfbff6f499fa97" target="_top" xlink:title="main">
<polygon fill="white" stroke="black" points="644,-38.5 644,-57.5 682,-57.5 682,-38.5 644,-38.5"/>
<text text-anchor="middle" x="663" y="-45.5" font-family="Helvetica,sans-Serif" font-size="10.00">main</text>
</a>
</g>
</g>
<!-- Node3&#45;&gt;Node4 -->
<g id="edge3" class="edge"><title>Node3&#45;&gt;Node4</title>
<path fill="none" stroke="midnightblue" d="M455.624,-49.5791C499.142,-50.3569 556.912,-50.9458 608,-50 619.819,-49.7812 633.085,-49.2933 643.51,-48.8542"/>
<polygon fill="midnightblue" stroke="midnightblue" points="455.507,-46.0764 445.443,-49.3891 455.376,-53.0752 455.507,-46.0764"/>
</g>
<!-- Node6 -->
<g id="node6" class="node"><title>Node6</title>
<g id="a_node6"><a xlink:href="class_ro_r_1_1_content_manager.html#a861b35694f428e463a800052ac0e9f90" target="_top" xlink:title="RoR::ContentManager\l::RegenCache">
<polygon fill="white" stroke="black" points="492.5,-11 492.5,-41 607.5,-41 607.5,-11 492.5,-11"/>
<text text-anchor="start" x="500.5" y="-29" font-family="Helvetica,sans-Serif" font-size="10.00">RoR::ContentManager</text>
<text text-anchor="middle" x="550" y="-18" font-family="Helvetica,sans-Serif" font-size="10.00">::RegenCache</text>
</a>
</g>
</g>
<!-- Node3&#45;&gt;Node6 -->
<g id="edge5" class="edge"><title>Node3&#45;&gt;Node6</title>
<path fill="none" stroke="midnightblue" d="M455.39,-38.7915C467.649,-37.1163 480.325,-35.3842 492.239,-33.7561"/>
<polygon fill="midnightblue" stroke="midnightblue" points="454.65,-35.3599 445.216,-40.1817 455.598,-42.2955 454.65,-35.3599"/>
</g>
<!-- Node5 -->
<g id="node5" class="node"><title>Node5</title>
<g id="a_node5"><a xlink:href="main_8cpp.html#a2922bc5d5c2d77a3020cfbf9df12aab0" target="_top" xlink:title="WinMain">
<polygon fill="white" stroke="black" points="718.5,-38.5 718.5,-57.5 773.5,-57.5 773.5,-38.5 718.5,-38.5"/>
<text text-anchor="middle" x="746" y="-45.5" font-family="Helvetica,sans-Serif" font-size="10.00">WinMain</text>
</a>
</g>
</g>
<!-- Node4&#45;&gt;Node5 -->
<g id="edge4" class="edge"><title>Node4&#45;&gt;Node5</title>
<path fill="none" stroke="midnightblue" d="M692.512,-48C700.929,-48 710.105,-48 718.397,-48"/>
<polygon fill="midnightblue" stroke="midnightblue" points="692.38,-44.5001 682.38,-48 692.38,-51.5001 692.38,-44.5001"/>
</g>
<!-- Node6&#45;&gt;Node4 -->
<g id="edge6" class="edge"><title>Node6&#45;&gt;Node4</title>
<path fill="none" stroke="midnightblue" d="M617.799,-39.2394C627.28,-41.1186 636.302,-42.9068 643.694,-44.3718"/>
<polygon fill="midnightblue" stroke="midnightblue" points="618.29,-35.7688 607.801,-37.2578 616.929,-42.6353 618.29,-35.7688"/>
</g>
<!-- Node8 -->
<g id="node8" class="node"><title>Node8</title>
<g id="a_node8"><a xlink:href="class_local_storage.html#a5605f8d9ff2c066699febb21fd919a3d" target="_top" xlink:title="LocalStorage::LocalStorage">
<polygon fill="white" stroke="black" points="318.5,-0.5 318.5,-19.5 455.5,-19.5 455.5,-0.5 318.5,-0.5"/>
<text text-anchor="middle" x="387" y="-7.5" font-family="Helvetica,sans-Serif" font-size="10.00">LocalStorage::LocalStorage</text>
</a>
</g>
</g>
<!-- Node7&#45;&gt;Node8 -->
<g id="edge8" class="edge"><title>Node7&#45;&gt;Node8</title>
<path fill="none" stroke="midnightblue" d="M278.574,-10C291.579,-10 305.204,-10 318.215,-10"/>
<polygon fill="midnightblue" stroke="midnightblue" points="278.302,-6.5001 268.302,-10 278.302,-13.5001 278.302,-6.5001"/>
</g>
</g>
</svg>
