<?xml version="1.0" encoding="UTF-8" standalone="no"?>
<!DOCTYPE svg PUBLIC "-//W3C//DTD SVG 1.1//EN"
 "http://www.w3.org/Graphics/SVG/1.1/DTD/svg11.dtd">
<!-- Generated by graphviz version 2.36.0 (20140111.2315)
 -->
<!-- Title: Hydrax::Module::ProjectedGrid::setOptions Pages: 1 -->
<svg width="312pt" height="87pt"
 viewBox="0.00 0.00 312.00 87.00" xmlns="http://www.w3.org/2000/svg" xmlns:xlink="http://www.w3.org/1999/xlink">
<g id="graph0" class="graph" transform="scale(1 1) rotate(0) translate(4 83)">
<title>Hydrax::Module::ProjectedGrid::setOptions</title>
<polygon fill="white" stroke="none" points="-4,4 -4,-83 308,-83 308,4 -4,4"/>
<!-- Node1 -->
<g id="node1" class="node"><title>Node1</title>
<polygon fill="#bfbfbf" stroke="black" points="0.5,-24 0.5,-54 133.5,-54 133.5,-24 0.5,-24"/>
<text text-anchor="start" x="8.5" y="-42" font-family="Helvetica,sans-Serif" font-size="10.00">Hydrax::Module::Projected</text>
<text text-anchor="middle" x="67" y="-31" font-family="Helvetica,sans-Serif" font-size="10.00">Grid::setOptions</text>
</g>
<!-- Node2 -->
<g id="node2" class="node"><title>Node2</title>
<g id="a_node2"><a xlink:href="class_hydrax_1_1_module_1_1_projected_grid.html#aa9308990b99866cbd09edd3600972443" target="_top" xlink:title="Hydrax::Module::Projected\lGrid::ProjectedGrid">
<polygon fill="white" stroke="black" points="170.5,-49 170.5,-79 303.5,-79 303.5,-49 170.5,-49"/>
<text text-anchor="start" x="178.5" y="-67" font-family="Helvetica,sans-Serif" font-size="10.00">Hydrax::Module::Projected</text>
<text text-anchor="middle" x="237" y="-56" font-family="Helvetica,sans-Serif" font-size="10.00">Grid::ProjectedGrid</text>
</a>
</g>
</g>
<!-- Node1&#45;&gt;Node2 -->
<g id="edge1" class="edge"><title>Node1&#45;&gt;Node2</title>
<path fill="none" stroke="midnightblue" d="M143.813,-50.2817C152.643,-51.5957 161.595,-52.9279 170.274,-54.2194"/>
<polygon fill="midnightblue" stroke="midnightblue" points="144.322,-46.819 133.916,-48.8089 143.292,-53.7428 144.322,-46.819"/>
</g>
<!-- Node3 -->
<g id="node3" class="node"><title>Node3</title>
<g id="a_node3"><a xlink:href="class_hydrax_1_1_module_1_1_projected_grid.html#af951c58cc93cf75d57e69aa14a668d3e" target="_top" xlink:title="Hydrax::Module::Projected\lGrid::loadCfg">
<polygon fill="white" stroke="black" points="170.5,-0 170.5,-30 303.5,-30 303.5,-0 170.5,-0"/>
<text text-anchor="start" x="178.5" y="-18" font-family="Helvetica,sans-Serif" font-size="10.00">Hydrax::Module::Projected</text>
<text text-anchor="middle" x="237" y="-7" font-family="Helvetica,sans-Serif" font-size="10.00">Grid::loadCfg</text>
</a>
</g>
</g>
<!-- Node1&#45;&gt;Node3 -->
<g id="edge2" class="edge"><title>Node1&#45;&gt;Node3</title>
<path fill="none" stroke="midnightblue" d="M144.098,-28.1289C152.836,-26.8806 161.689,-25.6159 170.274,-24.3894"/>
<polygon fill="midnightblue" stroke="midnightblue" points="143.32,-24.7043 133.916,-29.5834 144.31,-31.634 143.32,-24.7043"/>
</g>
</g>
</svg>
