<?xml version="1.0" encoding="UTF-8" standalone="no"?>
<!DOCTYPE svg PUBLIC "-//W3C//DTD SVG 1.1//EN"
 "http://www.w3.org/Graphics/SVG/1.1/DTD/svg11.dtd">
<!-- Generated by graphviz version 2.36.0 (20140111.2315)
 -->
<!-- Title: Hydrax::Noise::Real::loadCfg Pages: 1 -->
<svg width="572pt" height="283pt"
 viewBox="0.00 0.00 572.00 283.00" xmlns="http://www.w3.org/2000/svg" xmlns:xlink="http://www.w3.org/1999/xlink">
<g id="graph0" class="graph" transform="scale(1 1) rotate(0) translate(4 279)">
<title>Hydrax::Noise::Real::loadCfg</title>
<polygon fill="white" stroke="none" points="-4,4 -4,-279 568,-279 568,4 -4,4"/>
<!-- Node1 -->
<g id="node1" class="node"><title>Node1</title>
<polygon fill="#bfbfbf" stroke="black" points="0,-98 0,-128 106,-128 106,-98 0,-98"/>
<text text-anchor="start" x="8" y="-116" font-family="Helvetica,sans-Serif" font-size="10.00">Hydrax::Noise::Real</text>
<text text-anchor="middle" x="53" y="-105" font-family="Helvetica,sans-Serif" font-size="10.00">::loadCfg</text>
</g>
<!-- Node2 -->
<g id="node2" class="node"><title>Node2</title>
<g id="a_node2"><a xlink:href="class_hydrax_1_1_noise_1_1_noise.html#a5ef6e71282a9dfcefc09e3ba84a7578f" target="_top" xlink:title="Hydrax::Noise::Noise\l::loadCfg">
<polygon fill="white" stroke="black" points="148.5,-196 148.5,-226 259.5,-226 259.5,-196 148.5,-196"/>
<text text-anchor="start" x="156.5" y="-214" font-family="Helvetica,sans-Serif" font-size="10.00">Hydrax::Noise::Noise</text>
<text text-anchor="middle" x="204" y="-203" font-family="Helvetica,sans-Serif" font-size="10.00">::loadCfg</text>
</a>
</g>
</g>
<!-- Node1&#45;&gt;Node2 -->
<g id="edge1" class="edge"><title>Node1&#45;&gt;Node2</title>
<path fill="none" stroke="midnightblue" d="M69.1132,-128.015C85.8245,-143.996 114.09,-169.242 142,-186 145.327,-187.998 148.843,-189.905 152.439,-191.71"/>
<polygon fill="midnightblue" stroke="midnightblue" points="150.945,-194.875 161.482,-195.982 153.935,-188.546 150.945,-194.875"/>
</g>
<!-- Node3 -->
<g id="node3" class="node"><title>Node3</title>
<g id="a_node3"><a xlink:href="class_hydrax_1_1_noise_1_1_perlin.html#af32b1054557536eb5073e9ad1251a4cf" target="_top" xlink:title="Hydrax::Noise::Perlin\l::setOptions">
<polygon fill="white" stroke="black" points="149,-147 149,-177 259,-177 259,-147 149,-147"/>
<text text-anchor="start" x="157" y="-165" font-family="Helvetica,sans-Serif" font-size="10.00">Hydrax::Noise::Perlin</text>
<text text-anchor="middle" x="204" y="-154" font-family="Helvetica,sans-Serif" font-size="10.00">::setOptions</text>
</a>
</g>
</g>
<!-- Node1&#45;&gt;Node3 -->
<g id="edge2" class="edge"><title>Node1&#45;&gt;Node3</title>
<path fill="none" stroke="midnightblue" d="M99.9207,-128.101C115.003,-133.062 131.928,-138.627 147.636,-143.793"/>
<polygon fill="midnightblue" stroke="midnightblue" points="146.638,-147.149 157.231,-146.948 148.825,-140.5 146.638,-147.149"/>
</g>
<!-- Node8 -->
<g id="node8" class="node"><title>Node8</title>
<g id="a_node8"><a xlink:href="class_hydrax_1_1_cfg_file_manager.html#af55d91d6fe191edaf32752db39bde7ee" target="_top" xlink:title="Hydrax::CfgFileManager\l::_getIntValue">
<polygon fill="white" stroke="black" points="142.5,-98 142.5,-128 265.5,-128 265.5,-98 142.5,-98"/>
<text text-anchor="start" x="150.5" y="-116" font-family="Helvetica,sans-Serif" font-size="10.00">Hydrax::CfgFileManager</text>
<text text-anchor="middle" x="204" y="-105" font-family="Helvetica,sans-Serif" font-size="10.00">::_getIntValue</text>
</a>
</g>
</g>
<!-- Node1&#45;&gt;Node8 -->
<g id="edge7" class="edge"><title>Node1&#45;&gt;Node8</title>
<path fill="none" stroke="midnightblue" d="M106.113,-113C114.557,-113 123.425,-113 132.223,-113"/>
<polygon fill="midnightblue" stroke="midnightblue" points="132.49,-116.5 142.49,-113 132.49,-109.5 132.49,-116.5"/>
</g>
<!-- Node11 -->
<g id="node11" class="node"><title>Node11</title>
<g id="a_node11"><a xlink:href="class_hydrax_1_1_cfg_file_manager.html#a6d5259e0ccd2bd730310c7229c16eecb" target="_top" xlink:title="Hydrax::CfgFileManager\l::_getFloatValue">
<polygon fill="white" stroke="black" points="142.5,-49 142.5,-79 265.5,-79 265.5,-49 142.5,-49"/>
<text text-anchor="start" x="150.5" y="-67" font-family="Helvetica,sans-Serif" font-size="10.00">Hydrax::CfgFileManager</text>
<text text-anchor="middle" x="204" y="-56" font-family="Helvetica,sans-Serif" font-size="10.00">::_getFloatValue</text>
</a>
</g>
</g>
<!-- Node1&#45;&gt;Node11 -->
<g id="edge10" class="edge"><title>Node1&#45;&gt;Node11</title>
<path fill="none" stroke="midnightblue" d="M99.9207,-97.8986C115.003,-92.9385 131.928,-87.3726 147.636,-82.2071"/>
<polygon fill="midnightblue" stroke="midnightblue" points="148.825,-85.5005 157.231,-79.0516 146.638,-78.8508 148.825,-85.5005"/>
</g>
<!-- Node12 -->
<g id="node12" class="node"><title>Node12</title>
<g id="a_node12"><a xlink:href="class_hydrax_1_1_cfg_file_manager.html#a573e9bca71aa4fffbf84c5409c84f9ae" target="_top" xlink:title="Hydrax::CfgFileManager\l::_getVector3Value">
<polygon fill="white" stroke="black" points="142.5,-0 142.5,-30 265.5,-30 265.5,-0 142.5,-0"/>
<text text-anchor="start" x="150.5" y="-18" font-family="Helvetica,sans-Serif" font-size="10.00">Hydrax::CfgFileManager</text>
<text text-anchor="middle" x="204" y="-7" font-family="Helvetica,sans-Serif" font-size="10.00">::_getVector3Value</text>
</a>
</g>
</g>
<!-- Node1&#45;&gt;Node12 -->
<g id="edge11" class="edge"><title>Node1&#45;&gt;Node12</title>
<path fill="none" stroke="midnightblue" d="M68.7253,-97.9833C85.3232,-81.72 113.7,-55.8495 142,-39 144.652,-37.4208 147.428,-35.9068 150.27,-34.4619"/>
<polygon fill="midnightblue" stroke="midnightblue" points="151.967,-37.5308 159.507,-30.0873 148.971,-31.2045 151.967,-37.5308"/>
</g>
<!-- Node4 -->
<g id="node4" class="node"><title>Node4</title>
<g id="a_node4"><a xlink:href="class_hydrax_1_1_noise_1_1_noise.html#a94f5963b8f6fed2fb22149ff22e1166f" target="_top" xlink:title="Hydrax::Noise::Noise\l::isCreated">
<polygon fill="white" stroke="black" points="341.5,-245 341.5,-275 452.5,-275 452.5,-245 341.5,-245"/>
<text text-anchor="start" x="349.5" y="-263" font-family="Helvetica,sans-Serif" font-size="10.00">Hydrax::Noise::Noise</text>
<text text-anchor="middle" x="397" y="-252" font-family="Helvetica,sans-Serif" font-size="10.00">::isCreated</text>
</a>
</g>
</g>
<!-- Node3&#45;&gt;Node4 -->
<g id="edge3" class="edge"><title>Node3&#45;&gt;Node4</title>
<path fill="none" stroke="midnightblue" d="M249.87,-177.071C255.569,-179.922 261.11,-183.22 266,-187 287.097,-203.31 279.895,-220.084 302,-235 310.804,-240.941 320.957,-245.472 331.263,-248.927"/>
<polygon fill="midnightblue" stroke="midnightblue" points="330.568,-252.374 341.153,-251.921 332.596,-245.674 330.568,-252.374"/>
</g>
<!-- Node5 -->
<g id="node5" class="node"><title>Node5</title>
<g id="a_node5"><a xlink:href="class_hydrax_1_1_noise_1_1_noise.html#a20e13eb2f5cc93d384bb846b05d7aaeb" target="_top" xlink:title="Hydrax::Noise::Noise\l::isGPUNormalMapSupported">
<polygon fill="white" stroke="black" points="324,-196 324,-226 470,-226 470,-196 324,-196"/>
<text text-anchor="start" x="332" y="-214" font-family="Helvetica,sans-Serif" font-size="10.00">Hydrax::Noise::Noise</text>
<text text-anchor="middle" x="397" y="-203" font-family="Helvetica,sans-Serif" font-size="10.00">::isGPUNormalMapSupported</text>
</a>
</g>
</g>
<!-- Node3&#45;&gt;Node5 -->
<g id="edge4" class="edge"><title>Node3&#45;&gt;Node5</title>
<path fill="none" stroke="midnightblue" d="M259.222,-175.91C280.454,-181.357 305.057,-187.669 327.493,-193.425"/>
<polygon fill="midnightblue" stroke="midnightblue" points="326.738,-196.844 337.294,-195.939 328.477,-190.064 326.738,-196.844"/>
</g>
<!-- Node6 -->
<g id="node6" class="node"><title>Node6</title>
<g id="a_node6"><a xlink:href="class_hydrax_1_1_noise_1_1_noise.html#ae2260556005e5a5eaebae94d936b60c0" target="_top" xlink:title="Hydrax::Noise::Noise\l::areGPUNormalMapResourcesCreated">
<polygon fill="white" stroke="black" points="302,-147 302,-177 492,-177 492,-147 302,-147"/>
<text text-anchor="start" x="310" y="-165" font-family="Helvetica,sans-Serif" font-size="10.00">Hydrax::Noise::Noise</text>
<text text-anchor="middle" x="397" y="-154" font-family="Helvetica,sans-Serif" font-size="10.00">::areGPUNormalMapResourcesCreated</text>
</a>
</g>
</g>
<!-- Node3&#45;&gt;Node6 -->
<g id="edge5" class="edge"><title>Node3&#45;&gt;Node6</title>
<path fill="none" stroke="midnightblue" d="M259.222,-162C269.439,-162 280.437,-162 291.598,-162"/>
<polygon fill="midnightblue" stroke="midnightblue" points="291.877,-165.5 301.877,-162 291.877,-158.5 291.877,-165.5"/>
</g>
<!-- Node7 -->
<g id="node7" class="node"><title>Node7</title>
<g id="a_node7"><a xlink:href="class_hydrax_1_1_g_p_u_normal_map_manager.html#a03dbe50e39daea6c40ac192c0afa1936" target="_top" xlink:title="Hydrax::GPUNormalMapManager\l::getNormalMapMaterial">
<polygon fill="white" stroke="black" points="315,-98 315,-128 479,-128 479,-98 315,-98"/>
<text text-anchor="start" x="323" y="-116" font-family="Helvetica,sans-Serif" font-size="10.00">Hydrax::GPUNormalMapManager</text>
<text text-anchor="middle" x="397" y="-105" font-family="Helvetica,sans-Serif" font-size="10.00">::getNormalMapMaterial</text>
</a>
</g>
</g>
<!-- Node3&#45;&gt;Node7 -->
<g id="edge6" class="edge"><title>Node3&#45;&gt;Node7</title>
<path fill="none" stroke="midnightblue" d="M259.222,-148.09C280.454,-142.643 305.057,-136.331 327.493,-130.575"/>
<polygon fill="midnightblue" stroke="midnightblue" points="328.477,-133.936 337.294,-128.061 326.738,-127.156 328.477,-133.936"/>
</g>
<!-- Node9 -->
<g id="node9" class="node"><title>Node9</title>
<g id="a_node9"><a xlink:href="scriptstdstring_8cpp.html#ab33d705eee9afd65e8991f82d9c71fe3" target="_top" xlink:title="parseInt">
<polygon fill="white" stroke="black" points="371,-59.5 371,-78.5 423,-78.5 423,-59.5 371,-59.5"/>
<text text-anchor="middle" x="397" y="-66.5" font-family="Helvetica,sans-Serif" font-size="10.00">parseInt</text>
</a>
</g>
</g>
<!-- Node8&#45;&gt;Node9 -->
<g id="edge8" class="edge"><title>Node8&#45;&gt;Node9</title>
<path fill="none" stroke="midnightblue" d="M261.298,-97.9538C274.611,-94.5449 288.78,-91.0375 302,-88 321.397,-83.5433 343.175,-79.1059 360.881,-75.6415"/>
<polygon fill="midnightblue" stroke="midnightblue" points="361.636,-79.0605 370.787,-73.7214 360.304,-72.1884 361.636,-79.0605"/>
</g>
<!-- Node10 -->
<g id="node10" class="node"><title>Node10</title>
<g id="a_node10"><a xlink:href="_approx_math_8h.html#ad685178dbcfdd207c7306561512e1582" target="_top" xlink:title="sign">
<polygon fill="white" stroke="black" points="528.5,-59.5 528.5,-78.5 563.5,-78.5 563.5,-59.5 528.5,-59.5"/>
<text text-anchor="middle" x="546" y="-66.5" font-family="Helvetica,sans-Serif" font-size="10.00">sign</text>
</a>
</g>
</g>
<!-- Node9&#45;&gt;Node10 -->
<g id="edge9" class="edge"><title>Node9&#45;&gt;Node10</title>
<path fill="none" stroke="midnightblue" d="M423.27,-69C449.677,-69 490.953,-69 517.991,-69"/>
<polygon fill="midnightblue" stroke="midnightblue" points="518.279,-72.5001 528.279,-69 518.279,-65.5001 518.279,-72.5001"/>
</g>
</g>
</svg>
