<?xml version="1.0" encoding="UTF-8" standalone="no"?>
<!DOCTYPE svg PUBLIC "-//W3C//DTD SVG 1.1//EN"
 "http://www.w3.org/Graphics/SVG/1.1/DTD/svg11.dtd">
<!-- Generated by graphviz version 2.36.0 (20140111.2315)
 -->
<!-- Title: IWater::setHeight Pages: 1 -->
<svg width="1056pt" height="115pt"
 viewBox="0.00 0.00 1056.00 115.00" xmlns="http://www.w3.org/2000/svg" xmlns:xlink="http://www.w3.org/1999/xlink">
<g id="graph0" class="graph" transform="scale(1 1) rotate(0) translate(4 111)">
<title>IWater::setHeight</title>
<polygon fill="white" stroke="none" points="-4,4 -4,-111 1052,-111 1052,4 -4,4"/>
<!-- Node1 -->
<g id="node1" class="node"><title>Node1</title>
<polygon fill="#bfbfbf" stroke="black" points="0,-38.5 0,-57.5 94,-57.5 94,-38.5 0,-38.5"/>
<text text-anchor="middle" x="47" y="-45.5" font-family="Helvetica,sans-Serif" font-size="10.00">IWater::setHeight</text>
</g>
<!-- Node2 -->
<g id="node2" class="node"><title>Node2</title>
<g id="a_node2"><a xlink:href="class_ro_r_1_1_console.html#a39381023fb19b10edfad9592ce2e1554" target="_top" xlink:title="RoR::Console::eventCommand\lAccept">
<polygon fill="white" stroke="black" points="130,-77 130,-107 284,-107 284,-77 130,-77"/>
<text text-anchor="start" x="138" y="-95" font-family="Helvetica,sans-Serif" font-size="10.00">RoR::Console::eventCommand</text>
<text text-anchor="middle" x="207" y="-84" font-family="Helvetica,sans-Serif" font-size="10.00">Accept</text>
</a>
</g>
</g>
<!-- Node1&#45;&gt;Node2 -->
<g id="edge1" class="edge"><title>Node1&#45;&gt;Node2</title>
<path fill="none" stroke="midnightblue" d="M91.9534,-60.2402C110.53,-65.4134 132.349,-71.4897 151.902,-76.9346"/>
<polygon fill="midnightblue" stroke="midnightblue" points="92.8561,-56.8584 82.2836,-57.5473 90.9781,-63.6018 92.8561,-56.8584"/>
</g>
<!-- Node4 -->
<g id="node4" class="node"><title>Node4</title>
<g id="a_node4"><a xlink:href="class_game_script.html#a7ae240958e42c6a02c3eab5cf1c0002f" target="_top" xlink:title="GameScript::setWaterHeight">
<polygon fill="white" stroke="black" points="135.5,-38.5 135.5,-57.5 278.5,-57.5 278.5,-38.5 135.5,-38.5"/>
<text text-anchor="middle" x="207" y="-45.5" font-family="Helvetica,sans-Serif" font-size="10.00">GameScript::setWaterHeight</text>
</a>
</g>
</g>
<!-- Node1&#45;&gt;Node4 -->
<g id="edge3" class="edge"><title>Node1&#45;&gt;Node4</title>
<path fill="none" stroke="midnightblue" d="M104.383,-48C114.442,-48 125.035,-48 135.432,-48"/>
<polygon fill="midnightblue" stroke="midnightblue" points="104.125,-44.5001 94.1249,-48 104.125,-51.5001 104.125,-44.5001"/>
</g>
<!-- Node5 -->
<g id="node5" class="node"><title>Node5</title>
<g id="a_node5"><a xlink:href="class_terrain_manager.html#aa7c9434ece63d1313c840b632a3b0430" target="_top" xlink:title="TerrainManager::initWater">
<polygon fill="white" stroke="black" points="142.5,-0.5 142.5,-19.5 271.5,-19.5 271.5,-0.5 142.5,-0.5"/>
<text text-anchor="middle" x="207" y="-7.5" font-family="Helvetica,sans-Serif" font-size="10.00">TerrainManager::initWater</text>
</a>
</g>
</g>
<!-- Node1&#45;&gt;Node5 -->
<g id="edge4" class="edge"><title>Node1&#45;&gt;Node5</title>
<path fill="none" stroke="midnightblue" d="M97.7616,-36.032C119.903,-30.7069 145.612,-24.5238 166.417,-19.5201"/>
<polygon fill="midnightblue" stroke="midnightblue" points="96.7744,-32.6696 87.8701,-38.411 98.4113,-39.4755 96.7744,-32.6696"/>
</g>
<!-- Node3 -->
<g id="node3" class="node"><title>Node3</title>
<g id="a_node3"><a xlink:href="class_ro_r_1_1_console.html#aba16cfd9f0894eb1312b1bc1155b6646" target="_top" xlink:title="RoR::Console::Console">
<polygon fill="white" stroke="black" points="328.5,-82.5 328.5,-101.5 449.5,-101.5 449.5,-82.5 328.5,-82.5"/>
<text text-anchor="middle" x="389" y="-89.5" font-family="Helvetica,sans-Serif" font-size="10.00">RoR::Console::Console</text>
</a>
</g>
</g>
<!-- Node2&#45;&gt;Node3 -->
<g id="edge2" class="edge"><title>Node2&#45;&gt;Node3</title>
<path fill="none" stroke="midnightblue" d="M294.178,-92C305.721,-92 317.348,-92 328.298,-92"/>
<polygon fill="midnightblue" stroke="midnightblue" points="294.075,-88.5001 284.075,-92 294.075,-95.5001 294.075,-88.5001"/>
</g>
<!-- Node6 -->
<g id="node6" class="node"><title>Node6</title>
<g id="a_node6"><a xlink:href="class_terrain_manager.html#a9a04c837bf2ea6528c465b27ca62f730" target="_top" xlink:title="TerrainManager::loadTerrain">
<polygon fill="white" stroke="black" points="320,-0.5 320,-19.5 458,-19.5 458,-0.5 320,-0.5"/>
<text text-anchor="middle" x="389" y="-7.5" font-family="Helvetica,sans-Serif" font-size="10.00">TerrainManager::loadTerrain</text>
</a>
</g>
</g>
<!-- Node5&#45;&gt;Node6 -->
<g id="edge5" class="edge"><title>Node5&#45;&gt;Node6</title>
<path fill="none" stroke="midnightblue" d="M282.079,-10C294.561,-10 307.466,-10 319.79,-10"/>
<polygon fill="midnightblue" stroke="midnightblue" points="281.715,-6.5001 271.715,-10 281.715,-13.5001 281.715,-6.5001"/>
</g>
<!-- Node7 -->
<g id="node7" class="node"><title>Node7</title>
<g id="a_node7"><a xlink:href="class_ro_r_frame_listener.html#a9757c059e840019a3e2659d5ef63ea02" target="_top" xlink:title="Reads GVar &#39;sim_terrain_pending&#39;. ">
<polygon fill="white" stroke="black" points="494,-0.5 494,-19.5 650,-19.5 650,-0.5 494,-0.5"/>
<text text-anchor="middle" x="572" y="-7.5" font-family="Helvetica,sans-Serif" font-size="10.00">RoRFrameListener::LoadTerrain</text>
</a>
</g>
</g>
<!-- Node6&#45;&gt;Node7 -->
<g id="edge6" class="edge"><title>Node6&#45;&gt;Node7</title>
<path fill="none" stroke="midnightblue" d="M468.362,-10C476.792,-10 485.366,-10 493.782,-10"/>
<polygon fill="midnightblue" stroke="midnightblue" points="468.17,-6.5001 458.17,-10 468.17,-13.5001 468.17,-6.5001"/>
</g>
<!-- Node8 -->
<g id="node8" class="node"><title>Node8</title>
<g id="a_node8"><a xlink:href="class_ro_r_frame_listener.html#aca3931d7a75f2ad4b9d36c4fcd03a3c9" target="_top" xlink:title="RoRFrameListener::SetupGameplayLoop">
<polygon fill="white" stroke="black" points="686,-0.5 686,-19.5 882,-19.5 882,-0.5 686,-0.5"/>
<text text-anchor="middle" x="784" y="-7.5" font-family="Helvetica,sans-Serif" font-size="10.00">RoRFrameListener::SetupGameplayLoop</text>
</a>
</g>
</g>
<!-- Node7&#45;&gt;Node8 -->
<g id="edge7" class="edge"><title>Node7&#45;&gt;Node8</title>
<path fill="none" stroke="midnightblue" d="M660.265,-10C668.755,-10 677.404,-10 685.982,-10"/>
<polygon fill="midnightblue" stroke="midnightblue" points="660.004,-6.5001 650.004,-10 660.004,-13.5001 660.004,-6.5001"/>
</g>
<!-- Node9 -->
<g id="node9" class="node"><title>Node9</title>
<g id="a_node9"><a xlink:href="main_8cpp.html#a0ddf1224851353fc92bfbff6f499fa97" target="_top" xlink:title="main">
<polygon fill="white" stroke="black" points="918,-0.5 918,-19.5 956,-19.5 956,-0.5 918,-0.5"/>
<text text-anchor="middle" x="937" y="-7.5" font-family="Helvetica,sans-Serif" font-size="10.00">main</text>
</a>
</g>
</g>
<!-- Node8&#45;&gt;Node9 -->
<g id="edge8" class="edge"><title>Node8&#45;&gt;Node9</title>
<path fill="none" stroke="midnightblue" d="M892.519,-10C902.031,-10 910.712,-10 917.772,-10"/>
<polygon fill="midnightblue" stroke="midnightblue" points="892.338,-6.5001 882.338,-10 892.338,-13.5001 892.338,-6.5001"/>
</g>
<!-- Node10 -->
<g id="node10" class="node"><title>Node10</title>
<g id="a_node10"><a xlink:href="main_8cpp.html#a2922bc5d5c2d77a3020cfbf9df12aab0" target="_top" xlink:title="WinMain">
<polygon fill="white" stroke="black" points="992.5,-0.5 992.5,-19.5 1047.5,-19.5 1047.5,-0.5 992.5,-0.5"/>
<text text-anchor="middle" x="1020" y="-7.5" font-family="Helvetica,sans-Serif" font-size="10.00">WinMain</text>
</a>
</g>
</g>
<!-- Node9&#45;&gt;Node10 -->
<g id="edge9" class="edge"><title>Node9&#45;&gt;Node10</title>
<path fill="none" stroke="midnightblue" d="M966.512,-10C974.929,-10 984.105,-10 992.397,-10"/>
<polygon fill="midnightblue" stroke="midnightblue" points="966.38,-6.5001 956.38,-10 966.38,-13.5001 966.38,-6.5001"/>
</g>
</g>
</svg>
