<?xml version="1.0" encoding="UTF-8" standalone="no"?>
<!DOCTYPE svg PUBLIC "-//W3C//DTD SVG 1.1//EN"
 "http://www.w3.org/Graphics/SVG/1.1/DTD/svg11.dtd">
<!-- Generated by graphviz version 2.36.0 (20140111.2315)
 -->
<!-- Title: RoR::GUI::TopMenubar::ReflectMultiplayerState Pages: 1 -->
<svg width="316pt" height="77pt"
 viewBox="0.00 0.00 316.00 77.00" xmlns="http://www.w3.org/2000/svg" xmlns:xlink="http://www.w3.org/1999/xlink">
<g id="graph0" class="graph" transform="scale(1 1) rotate(0) translate(4 73)">
<title>RoR::GUI::TopMenubar::ReflectMultiplayerState</title>
<polygon fill="white" stroke="none" points="-4,4 -4,-73 312,-73 312,4 -4,4"/>
<!-- Node1 -->
<g id="node1" class="node"><title>Node1</title>
<polygon fill="#bfbfbf" stroke="black" points="0.5,-22 0.5,-52 125.5,-52 125.5,-22 0.5,-22"/>
<text text-anchor="start" x="8.5" y="-40" font-family="Helvetica,sans-Serif" font-size="10.00">RoR::GUI::TopMenubar</text>
<text text-anchor="middle" x="63" y="-29" font-family="Helvetica,sans-Serif" font-size="10.00">::ReflectMultiplayerState</text>
</g>
<!-- Node2 -->
<g id="node2" class="node"><title>Node2</title>
<g id="a_node2"><a xlink:href="namespace_ro_r_1_1_app.html#a61093e1171e9aa1d2824499b9a6b8e18" target="_top" xlink:title="RoR::App::GetActiveMpState">
<polygon fill="white" stroke="black" points="162,-49.5 162,-68.5 308,-68.5 308,-49.5 162,-49.5"/>
<text text-anchor="middle" x="235" y="-56.5" font-family="Helvetica,sans-Serif" font-size="10.00">RoR::App::GetActiveMpState</text>
</a>
</g>
</g>
<!-- Node1&#45;&gt;Node2 -->
<g id="edge1" class="edge"><title>Node1&#45;&gt;Node2</title>
<path fill="none" stroke="midnightblue" d="M125.855,-45.0047C134.248,-46.0909 142.967,-47.2192 151.649,-48.3427"/>
<polygon fill="midnightblue" stroke="midnightblue" points="151.435,-51.8442 161.802,-49.6567 152.334,-44.9021 151.435,-51.8442"/>
</g>
<!-- Node3 -->
<g id="node3" class="node"><title>Node3</title>
<g id="a_node3"><a xlink:href="class_ro_r_1_1_g_u_i_1_1_top_menubar.html#a4ee33e00f5d7deedd9fb0716e797a6b9" target="_top" xlink:title="RoR::GUI::TopMenubar\l::triggerUpdateVehicleList">
<polygon fill="white" stroke="black" points="170.5,-0 170.5,-30 299.5,-30 299.5,-0 170.5,-0"/>
<text text-anchor="start" x="178.5" y="-18" font-family="Helvetica,sans-Serif" font-size="10.00">RoR::GUI::TopMenubar</text>
<text text-anchor="middle" x="235" y="-7" font-family="Helvetica,sans-Serif" font-size="10.00">::triggerUpdateVehicleList</text>
</a>
</g>
</g>
<!-- Node1&#45;&gt;Node3 -->
<g id="edge2" class="edge"><title>Node1&#45;&gt;Node3</title>
<path fill="none" stroke="midnightblue" d="M125.855,-28.9953C137.089,-27.5414 148.907,-26.012 160.439,-24.5196"/>
<polygon fill="midnightblue" stroke="midnightblue" points="161.01,-27.975 170.478,-23.2205 160.112,-21.0329 161.01,-27.975"/>
</g>
</g>
</svg>
