<?xml version="1.0" encoding="UTF-8" standalone="no"?>
<!DOCTYPE svg PUBLIC "-//W3C//DTD SVG 1.1//EN"
 "http://www.w3.org/Graphics/SVG/1.1/DTD/svg11.dtd">
<!-- Generated by graphviz version 2.36.0 (20140111.2315)
 -->
<!-- Title: RoR::GUIManager::GetTeleport Pages: 1 -->
<svg width="760pt" height="113pt"
 viewBox="0.00 0.00 760.00 113.00" xmlns="http://www.w3.org/2000/svg" xmlns:xlink="http://www.w3.org/1999/xlink">
<g id="graph0" class="graph" transform="scale(1 1) rotate(0) translate(4 109)">
<title>RoR::GUIManager::GetTeleport</title>
<polygon fill="white" stroke="none" points="-4,4 -4,-109 756,-109 756,4 -4,4"/>
<!-- Node1 -->
<g id="node1" class="node"><title>Node1</title>
<polygon fill="#bfbfbf" stroke="black" points="0.5,-41.5 0.5,-60.5 155.5,-60.5 155.5,-41.5 0.5,-41.5"/>
<text text-anchor="middle" x="78" y="-48.5" font-family="Helvetica,sans-Serif" font-size="10.00">RoR::GUIManager::GetTeleport</text>
</g>
<!-- Node2 -->
<g id="node2" class="node"><title>Node2</title>
<g id="a_node2"><a xlink:href="class_ro_r_frame_listener.html#acd8647e188fb8e838689492965b86faf" target="_top" xlink:title="RoRFrameListener::frameStarted">
<polygon fill="white" stroke="black" points="192.5,-85.5 192.5,-104.5 353.5,-104.5 353.5,-85.5 192.5,-85.5"/>
<text text-anchor="middle" x="273" y="-92.5" font-family="Helvetica,sans-Serif" font-size="10.00">RoRFrameListener::frameStarted</text>
</a>
</g>
</g>
<!-- Node1&#45;&gt;Node2 -->
<g id="edge1" class="edge"><title>Node1&#45;&gt;Node2</title>
<path fill="none" stroke="midnightblue" d="M130.689,-62.7841C161.845,-69.8869 201.011,-78.816 230.204,-85.4713"/>
<polygon fill="midnightblue" stroke="midnightblue" points="131.406,-59.3577 120.878,-60.5473 129.85,-66.1826 131.406,-59.3577"/>
</g>
<!-- Node3 -->
<g id="node3" class="node"><title>Node3</title>
<g id="a_node3"><a xlink:href="class_ro_r_frame_listener.html#a1610b21686ae680582623cde69b85f2b" target="_top" xlink:title="RoRFrameListener::Cleanup\lAfterSimulation">
<polygon fill="white" stroke="black" points="202.5,-36 202.5,-66 343.5,-66 343.5,-36 202.5,-36"/>
<text text-anchor="start" x="210.5" y="-54" font-family="Helvetica,sans-Serif" font-size="10.00">RoRFrameListener::Cleanup</text>
<text text-anchor="middle" x="273" y="-43" font-family="Helvetica,sans-Serif" font-size="10.00">AfterSimulation</text>
</a>
</g>
</g>
<!-- Node1&#45;&gt;Node3 -->
<g id="edge2" class="edge"><title>Node1&#45;&gt;Node3</title>
<path fill="none" stroke="midnightblue" d="M165.794,-51C178.061,-51 190.541,-51 202.428,-51"/>
<polygon fill="midnightblue" stroke="midnightblue" points="165.556,-47.5001 155.556,-51 165.556,-54.5001 165.556,-47.5001"/>
</g>
<!-- Node7 -->
<g id="node7" class="node"><title>Node7</title>
<g id="a_node7"><a xlink:href="class_ro_r_frame_listener.html#aca3931d7a75f2ad4b9d36c4fcd03a3c9" target="_top" xlink:title="RoRFrameListener::SetupGameplayLoop">
<polygon fill="white" stroke="black" points="390,-0.5 390,-19.5 586,-19.5 586,-0.5 390,-0.5"/>
<text text-anchor="middle" x="488" y="-7.5" font-family="Helvetica,sans-Serif" font-size="10.00">RoRFrameListener::SetupGameplayLoop</text>
</a>
</g>
</g>
<!-- Node1&#45;&gt;Node7 -->
<g id="edge6" class="edge"><title>Node1&#45;&gt;Node7</title>
<path fill="none" stroke="midnightblue" d="M124.839,-39.0723C145.259,-34.2227 169.691,-29.0519 192,-26 257.681,-17.0147 332.237,-13.0239 389.964,-11.2748"/>
<polygon fill="midnightblue" stroke="midnightblue" points="123.755,-35.7335 114.861,-41.4911 125.405,-42.5364 123.755,-35.7335"/>
</g>
<!-- Node4 -->
<g id="node4" class="node"><title>Node4</title>
<g id="a_node4"><a xlink:href="class_ro_r_frame_listener.html#a9e239911ad148aa76c58202920090f76" target="_top" xlink:title="RoRFrameListener::EnterGameplayLoop">
<polygon fill="white" stroke="black" points="391,-39.5 391,-58.5 585,-58.5 585,-39.5 391,-39.5"/>
<text text-anchor="middle" x="488" y="-46.5" font-family="Helvetica,sans-Serif" font-size="10.00">RoRFrameListener::EnterGameplayLoop</text>
</a>
</g>
</g>
<!-- Node3&#45;&gt;Node4 -->
<g id="edge3" class="edge"><title>Node3&#45;&gt;Node4</title>
<path fill="none" stroke="midnightblue" d="M353.762,-50.2511C365.844,-50.1376 378.417,-50.0196 390.802,-49.9033"/>
<polygon fill="midnightblue" stroke="midnightblue" points="353.711,-46.7513 343.744,-50.3451 353.777,-53.751 353.711,-46.7513"/>
</g>
<!-- Node5 -->
<g id="node5" class="node"><title>Node5</title>
<g id="a_node5"><a xlink:href="main_8cpp.html#a0ddf1224851353fc92bfbff6f499fa97" target="_top" xlink:title="main">
<polygon fill="white" stroke="black" points="622,-19.5 622,-38.5 660,-38.5 660,-19.5 622,-19.5"/>
<text text-anchor="middle" x="641" y="-26.5" font-family="Helvetica,sans-Serif" font-size="10.00">main</text>
</a>
</g>
</g>
<!-- Node4&#45;&gt;Node5 -->
<g id="edge4" class="edge"><title>Node4&#45;&gt;Node5</title>
<path fill="none" stroke="midnightblue" d="M571.044,-38.1333C590.274,-35.5862 608.934,-33.1147 621.983,-31.3864"/>
<polygon fill="midnightblue" stroke="midnightblue" points="570.416,-34.6858 560.962,-39.4686 571.335,-41.6252 570.416,-34.6858"/>
</g>
<!-- Node6 -->
<g id="node6" class="node"><title>Node6</title>
<g id="a_node6"><a xlink:href="main_8cpp.html#a2922bc5d5c2d77a3020cfbf9df12aab0" target="_top" xlink:title="WinMain">
<polygon fill="white" stroke="black" points="696.5,-19.5 696.5,-38.5 751.5,-38.5 751.5,-19.5 696.5,-19.5"/>
<text text-anchor="middle" x="724" y="-26.5" font-family="Helvetica,sans-Serif" font-size="10.00">WinMain</text>
</a>
</g>
</g>
<!-- Node5&#45;&gt;Node6 -->
<g id="edge5" class="edge"><title>Node5&#45;&gt;Node6</title>
<path fill="none" stroke="midnightblue" d="M670.512,-29C678.929,-29 688.105,-29 696.397,-29"/>
<polygon fill="midnightblue" stroke="midnightblue" points="670.38,-25.5001 660.38,-29 670.38,-32.5001 670.38,-25.5001"/>
</g>
<!-- Node7&#45;&gt;Node5 -->
<g id="edge7" class="edge"><title>Node7&#45;&gt;Node5</title>
<path fill="none" stroke="midnightblue" d="M574.897,-20.8082C592.715,-23.0502 609.745,-25.1931 621.916,-26.7245"/>
<polygon fill="midnightblue" stroke="midnightblue" points="575.301,-17.3316 564.942,-19.5557 574.427,-24.2768 575.301,-17.3316"/>
</g>
</g>
</svg>
