<?xml version="1.0" encoding="UTF-8" standalone="no"?>
<!DOCTYPE svg PUBLIC "-//W3C//DTD SVG 1.1//EN"
 "http://www.w3.org/Graphics/SVG/1.1/DTD/svg11.dtd">
<!-- Generated by graphviz version 2.36.0 (20140111.2315)
 -->
<!-- Title: CameraBehaviorVehicleCineCam::activate Pages: 1 -->
<!--zoomable 291 -->
<svg id="main" version="1.1" xmlns="http://www.w3.org/2000/svg" xmlns:xlink="http://www.w3.org/1999/xlink" xml:space="preserve" onload="init(evt)">
<style type="text/css"><![CDATA[
.edge:hover path { stroke: red; }
.edge:hover polygon { stroke: red; fill: red; }
]]></style>
<script type="text/javascript"><![CDATA[
var edges = document.getElementsByTagName('g');
if (edges && edges.length) {
  for (var i=0;i<edges.length;i++) {
    if (edges[i].id.substr(0,4)=='edge') {
      edges[i].setAttribute('class','edge');
    }
  }
}
]]></script>
        <defs>
                <circle id="rim" cx="0" cy="0" r="7"/>
                <circle id="rim2" cx="0" cy="0" r="3.5"/>
                <g id="zoomPlus">
                        <use xlink:href="#rim" fill="#404040">
                                <set attributeName="fill" to="#808080" begin="zoomplus.mouseover" end="zoomplus.mouseout"/>
                        </use>
                        <path d="M-4,0h8M0,-4v8" fill="none" stroke="white" stroke-width="1.5" pointer-events="none"/>
                </g>
                <g id="zoomMin">
                        <use xlink:href="#rim" fill="#404040">
                                <set attributeName="fill" to="#808080" begin="zoomminus.mouseover" end="zoomminus.mouseout"/>
                        </use>
                        <path d="M-4,0h8" fill="none" stroke="white" stroke-width="1.5" pointer-events="none"/>
                </g>
                <g id="dirArrow">
                        <path fill="none" stroke="white" stroke-width="1.5" d="M0,-3.0v7 M-2.5,-0.5L0,-3.0L2.5,-0.5"/>
                </g>
               <g id="resetDef">
                       <use xlink:href="#rim2" fill="#404040">
                               <set attributeName="fill" to="#808080" begin="reset.mouseover" end="reset.mouseout"/>
                       </use>
               </g>
        </defs>

<script type="text/javascript">
var viewWidth = 718;
var viewHeight = 291;
var sectionId = 'dynsection-2';
</script>
<script xlink:href="svgpan.js"/>
<svg id="graph" class="graph">
<g id="viewport">
<title>CameraBehaviorVehicleCineCam::activate</title>
<polygon fill="white" stroke="none" points="-4,4 -4,-287 714,-287 714,4 -4,4"/>
<!-- Node1 -->
<g id="node1" class="node"><title>Node1</title>
<polygon fill="#bfbfbf" stroke="black" points="0,-121 0,-151 142,-151 142,-121 0,-121"/>
<text text-anchor="start" x="8" y="-139" font-family="Helvetica,sans-Serif" font-size="10.00">CameraBehaviorVehicleCine</text>
<text text-anchor="middle" x="71" y="-128" font-family="Helvetica,sans-Serif" font-size="10.00">Cam::activate</text>
</g>
<!-- Node2 -->
<g id="node2" class="node"><title>Node2</title>
<g id="a_node2"><a xlink:href="class_camera_manager.html#acc8ca4bea6750e8ce6ce1f3710a0ce78" target="_top" xlink:title="CameraManager::switchToNext\lBehavior">
<polygon fill="white" stroke="black" points="182.5,-253 182.5,-283 337.5,-283 337.5,-253 182.5,-253"/>
<text text-anchor="start" x="190.5" y="-271" font-family="Helvetica,sans-Serif" font-size="10.00">CameraManager::switchToNext</text>
<text text-anchor="middle" x="260" y="-260" font-family="Helvetica,sans-Serif" font-size="10.00">Behavior</text>
</a>
</g>
</g>
<!-- Node1&#45;&gt;Node2 -->
<g id="edge1" class="edge"><title>Node1&#45;&gt;Node2</title>
<path fill="none" stroke="midnightblue" d="M84.1845,-151.171C102.476,-173.064 139.062,-213.564 178,-238 184.52,-242.091 191.681,-245.748 198.965,-248.98"/>
<polygon fill="midnightblue" stroke="midnightblue" points="197.641,-252.22 208.218,-252.848 200.341,-245.762 197.641,-252.22"/>
</g>
<!-- Node4 -->
<g id="node4" class="node"><title>Node4</title>
<g id="a_node4"><a xlink:href="class_beam.html#a39d38800d5ab3b85b305d94b2c8ea502" target="_top" xlink:title="Beam::GetCameraContext">
<polygon fill="white" stroke="black" points="576.5,-234.5 576.5,-253.5 709.5,-253.5 709.5,-234.5 576.5,-234.5"/>
<text text-anchor="middle" x="643" y="-241.5" font-family="Helvetica,sans-Serif" font-size="10.00">Beam::GetCameraContext</text>
</a>
</g>
</g>
<!-- Node1&#45;&gt;Node4 -->
<g id="edge4" class="edge"><title>Node1&#45;&gt;Node4</title>
<path fill="none" stroke="midnightblue" d="M89.7142,-151.26C109.687,-167.484 143.85,-192.372 178,-204 247.769,-227.756 453.483,-237.963 566.135,-241.87"/>
<polygon fill="midnightblue" stroke="midnightblue" points="566.294,-245.378 576.406,-242.218 566.53,-238.382 566.294,-245.378"/>
</g>
<!-- Node5 -->
<g id="node5" class="node"><title>Node5</title>
<g id="a_node5"><a xlink:href="class_camera_behavior_vehicle_cine_cam.html#a5c9031c9c97c476353f3798484f37fe7" target="_top" xlink:title="CameraBehaviorVehicleCine\lCam::reset">
<polygon fill="white" stroke="black" points="189,-165 189,-195 331,-195 331,-165 189,-165"/>
<text text-anchor="start" x="197" y="-183" font-family="Helvetica,sans-Serif" font-size="10.00">CameraBehaviorVehicleCine</text>
<text text-anchor="middle" x="260" y="-172" font-family="Helvetica,sans-Serif" font-size="10.00">Cam::reset</text>
</a>
</g>
</g>
<!-- Node1&#45;&gt;Node5 -->
<g id="edge5" class="edge"><title>Node1&#45;&gt;Node5</title>
<path fill="none" stroke="midnightblue" d="M135.832,-151.019C151.691,-154.751 168.821,-158.781 185.118,-162.616"/>
<polygon fill="midnightblue" stroke="midnightblue" points="184.603,-166.09 195.139,-164.974 186.206,-159.276 184.603,-166.09"/>
</g>
<!-- Node7 -->
<g id="node7" class="node"><title>Node7</title>
<g id="a_node7"><a xlink:href="class_beam.html#a3304824c3e7285047f007c956318de09" target="_top" xlink:title="Beam::prepareInside">
<polygon fill="white" stroke="black" points="206.5,-126.5 206.5,-145.5 313.5,-145.5 313.5,-126.5 206.5,-126.5"/>
<text text-anchor="middle" x="260" y="-133.5" font-family="Helvetica,sans-Serif" font-size="10.00">Beam::prepareInside</text>
</a>
</g>
</g>
<!-- Node1&#45;&gt;Node7 -->
<g id="edge7" class="edge"><title>Node1&#45;&gt;Node7</title>
<path fill="none" stroke="midnightblue" d="M142.164,-136C159.924,-136 178.884,-136 196.251,-136"/>
<polygon fill="midnightblue" stroke="midnightblue" points="196.271,-139.5 206.271,-136 196.271,-132.5 196.271,-139.5"/>
</g>
<!-- Node8 -->
<g id="node8" class="node"><title>Node8</title>
<g id="a_node8"><a xlink:href="namespace_ro_r_1_1_app.html#a21686de9300823b37db5f3f8fe992fb1" target="_top" xlink:title="RoR::App::GetOverlayWrapper">
<polygon fill="white" stroke="black" points="184,-88.5 184,-107.5 336,-107.5 336,-88.5 184,-88.5"/>
<text text-anchor="middle" x="260" y="-95.5" font-family="Helvetica,sans-Serif" font-size="10.00">RoR::App::GetOverlayWrapper</text>
</a>
</g>
</g>
<!-- Node1&#45;&gt;Node8 -->
<g id="edge8" class="edge"><title>Node1&#45;&gt;Node8</title>
<path fill="none" stroke="midnightblue" d="M142.164,-121.742C161.93,-117.725 183.182,-113.407 202.071,-109.569"/>
<polygon fill="midnightblue" stroke="midnightblue" points="202.901,-112.971 212.003,-107.55 201.507,-106.112 202.901,-112.971"/>
</g>
<!-- Node9 -->
<g id="node9" class="node"><title>Node9</title>
<g id="a_node9"><a xlink:href="class_overlay_wrapper.html#a086d876abbbac640d88b09b2bbfe7d0f" target="_top" xlink:title="OverlayWrapper::showDashboard\lOverlays">
<polygon fill="white" stroke="black" points="178,-39 178,-69 342,-69 342,-39 178,-39"/>
<text text-anchor="start" x="186" y="-57" font-family="Helvetica,sans-Serif" font-size="10.00">OverlayWrapper::showDashboard</text>
<text text-anchor="middle" x="260" y="-46" font-family="Helvetica,sans-Serif" font-size="10.00">Overlays</text>
</a>
</g>
</g>
<!-- Node1&#45;&gt;Node9 -->
<g id="edge9" class="edge"><title>Node1&#45;&gt;Node9</title>
<path fill="none" stroke="midnightblue" d="M96.5998,-120.999C117.665,-108.59 149.088,-91.1004 178,-79 183.479,-76.7068 189.244,-74.5153 195.068,-72.4505"/>
<polygon fill="midnightblue" stroke="midnightblue" points="196.553,-75.6421 204.886,-69.0994 194.291,-69.0174 196.553,-75.6421"/>
</g>
<!-- Node13 -->
<g id="node13" class="node"><title>Node13</title>
<g id="a_node13"><a xlink:href="class_beam.html#a23fbbd95dce6d7440124a59ff905e4d5" target="_top" xlink:title="Beam::changedCamera">
<polygon fill="white" stroke="black" points="200.5,-0.5 200.5,-19.5 319.5,-19.5 319.5,-0.5 200.5,-0.5"/>
<text text-anchor="middle" x="260" y="-7.5" font-family="Helvetica,sans-Serif" font-size="10.00">Beam::changedCamera</text>
</a>
</g>
</g>
<!-- Node1&#45;&gt;Node13 -->
<g id="edge13" class="edge"><title>Node1&#45;&gt;Node13</title>
<path fill="none" stroke="midnightblue" d="M82.4747,-120.946C99.6238,-97.4941 136.015,-52.4982 178,-29 182.008,-26.7569 186.27,-24.7779 190.66,-23.032"/>
<polygon fill="midnightblue" stroke="midnightblue" points="192.174,-26.2091 200.431,-19.5702 189.836,-19.611 192.174,-26.2091"/>
</g>
<!-- Node3 -->
<g id="node3" class="node"><title>Node3</title>
<g id="a_node3"><a xlink:href="class_camera_manager.html#a6f50a61b22fd1193ec25c5c2dc8f3ae3" target="_top" xlink:title="CameraManager::switchBehavior">
<polygon fill="white" stroke="black" points="378.5,-255.5 378.5,-274.5 539.5,-274.5 539.5,-255.5 378.5,-255.5"/>
<text text-anchor="middle" x="459" y="-262.5" font-family="Helvetica,sans-Serif" font-size="10.00">CameraManager::switchBehavior</text>
</a>
</g>
</g>
<!-- Node2&#45;&gt;Node3 -->
<g id="edge2" class="edge"><title>Node2&#45;&gt;Node3</title>
<path fill="none" stroke="midnightblue" d="M337.729,-266.832C347.696,-266.68 357.975,-266.523 368.131,-266.369"/>
<polygon fill="midnightblue" stroke="midnightblue" points="368.284,-269.867 378.23,-266.215 368.178,-262.868 368.284,-269.867"/>
</g>
<!-- Node3&#45;&gt;Node4 -->
<g id="edge3" class="edge"><title>Node3&#45;&gt;Node4</title>
<path fill="none" stroke="midnightblue" d="M539.563,-255.82C548.363,-254.804 557.308,-253.772 566.062,-252.762"/>
<polygon fill="midnightblue" stroke="midnightblue" points="566.697,-256.212 576.23,-251.589 565.894,-249.258 566.697,-256.212"/>
</g>
<!-- Node6 -->
<g id="node6" class="node"><title>Node6</title>
<g id="a_node6"><a xlink:href="class_camera_behavior_orbit.html#ac2c38d7776bb50ffb4a0d267c11acb2c" target="_top" xlink:title="CameraBehaviorOrbit\l::reset">
<polygon fill="white" stroke="black" points="404,-165 404,-195 514,-195 514,-165 404,-165"/>
<text text-anchor="start" x="412" y="-183" font-family="Helvetica,sans-Serif" font-size="10.00">CameraBehaviorOrbit</text>
<text text-anchor="middle" x="459" y="-172" font-family="Helvetica,sans-Serif" font-size="10.00">::reset</text>
</a>
</g>
</g>
<!-- Node5&#45;&gt;Node6 -->
<g id="edge6" class="edge"><title>Node5&#45;&gt;Node6</title>
<path fill="none" stroke="midnightblue" d="M331.01,-180C351.352,-180 373.468,-180 393.457,-180"/>
<polygon fill="midnightblue" stroke="midnightblue" points="393.696,-183.5 403.696,-180 393.696,-176.5 393.696,-183.5"/>
</g>
<!-- Node10 -->
<g id="node10" class="node"><title>Node10</title>
<g id="a_node10"><a xlink:href="class_dash_board_manager.html#aab1c20ed732f3e11ea290a2f90be99e0" target="_top" xlink:title="DashBoardManager::wasLoaded">
<polygon fill="white" stroke="black" points="380,-63.5 380,-82.5 538,-82.5 538,-63.5 380,-63.5"/>
<text text-anchor="middle" x="459" y="-70.5" font-family="Helvetica,sans-Serif" font-size="10.00">DashBoardManager::wasLoaded</text>
</a>
</g>
</g>
<!-- Node9&#45;&gt;Node10 -->
<g id="edge10" class="edge"><title>Node9&#45;&gt;Node10</title>
<path fill="none" stroke="midnightblue" d="M342.265,-61.8377C351.275,-62.7067 360.483,-63.5948 369.576,-64.4718"/>
<polygon fill="midnightblue" stroke="midnightblue" points="369.486,-67.9793 379.776,-65.4555 370.158,-61.0116 369.486,-67.9793"/>
</g>
<!-- Node11 -->
<g id="node11" class="node"><title>Node11</title>
<g id="a_node11"><a xlink:href="class_dash_board_manager.html#a21ffd946b6843df16ca7b3ef704b596a" target="_top" xlink:title="DashBoardManager::setVisible">
<polygon fill="white" stroke="black" points="383,-25.5 383,-44.5 535,-44.5 535,-25.5 383,-25.5"/>
<text text-anchor="middle" x="459" y="-32.5" font-family="Helvetica,sans-Serif" font-size="10.00">DashBoardManager::setVisible</text>
</a>
</g>
</g>
<!-- Node9&#45;&gt;Node11 -->
<g id="edge11" class="edge"><title>Node9&#45;&gt;Node11</title>
<path fill="none" stroke="midnightblue" d="M342.265,-46.1623C352.36,-45.1886 362.705,-44.1909 372.857,-43.2118"/>
<polygon fill="midnightblue" stroke="midnightblue" points="373.31,-46.6844 382.928,-42.2405 372.638,-39.7167 373.31,-46.6844"/>
</g>
<!-- Node12 -->
<g id="node12" class="node"><title>Node12</title>
<g id="a_node12"><a xlink:href="class_dash_board.html#a650c134fdce0c84a77d84d2c23bdccbe" target="_top" xlink:title="DashBoard::setVisible">
<polygon fill="white" stroke="black" points="586,-25.5 586,-44.5 700,-44.5 700,-25.5 586,-25.5"/>
<text text-anchor="middle" x="643" y="-32.5" font-family="Helvetica,sans-Serif" font-size="10.00">DashBoard::setVisible</text>
</a>
</g>
</g>
<!-- Node11&#45;&gt;Node12 -->
<g id="edge12" class="edge"><title>Node11&#45;&gt;Node12</title>
<path fill="none" stroke="midnightblue" d="M535.077,-35C548.444,-35 562.283,-35 575.394,-35"/>
<polygon fill="midnightblue" stroke="midnightblue" points="575.728,-38.5001 585.728,-35 575.728,-31.5001 575.728,-38.5001"/>
</g>
</g>
</svg>
        <g id="navigator" transform="translate(0 0)" fill="#404254">
                <rect fill="#f2f5e9" fill-opacity="0.5" stroke="#606060" stroke-width=".5" x="0" y="0" width="60" height="60"/>
                <use id="zoomplus" xlink:href="#zoomPlus" x="17" y="9" onmousedown="handleZoom(evt,'in')"/>
                <use id="zoomminus" xlink:href="#zoomMin" x="42" y="9" onmousedown="handleZoom(evt,'out')"/>
                <use id="reset" xlink:href="#resetDef" x="30" y="36" onmousedown="handleReset()"/>
                <g id="arrowUp" xlink:href="#dirArrow" transform="translate(30 24)" onmousedown="handlePan(0,-1)">
                  <use xlink:href="#rim" fill="#404040">
                        <set attributeName="fill" to="#808080" begin="arrowUp.mouseover" end="arrowUp.mouseout"/>
                  </use>
                  <path fill="none" stroke="white" stroke-width="1.5" d="M0,-3.0v7 M-2.5,-0.5L0,-3.0L2.5,-0.5"/>
                </g>
                <g id="arrowRight" xlink:href="#dirArrow" transform="rotate(90) translate(36 -43)" onmousedown="handlePan(1,0)">
                  <use xlink:href="#rim" fill="#404040">
                        <set attributeName="fill" to="#808080" begin="arrowRight.mouseover" end="arrowRight.mouseout"/>
                  </use>
                  <path fill="none" stroke="white" stroke-width="1.5" d="M0,-3.0v7 M-2.5,-0.5L0,-3.0L2.5,-0.5"/>
                </g>
                <g id="arrowDown" xlink:href="#dirArrow" transform="rotate(180) translate(-30 -48)" onmousedown="handlePan(0,1)">
                  <use xlink:href="#rim" fill="#404040">
                        <set attributeName="fill" to="#808080" begin="arrowDown.mouseover" end="arrowDown.mouseout"/>
                  </use>
                  <path fill="none" stroke="white" stroke-width="1.5" d="M0,-3.0v7 M-2.5,-0.5L0,-3.0L2.5,-0.5"/>
                </g>
                <g id="arrowLeft" xlink:href="#dirArrow" transform="rotate(270) translate(-36 17)" onmousedown="handlePan(-1,0)">
                  <use xlink:href="#rim" fill="#404040">
                        <set attributeName="fill" to="#808080" begin="arrowLeft.mouseover" end="arrowLeft.mouseout"/>
                  </use>
                  <path fill="none" stroke="white" stroke-width="1.5" d="M0,-3.0v7 M-2.5,-0.5L0,-3.0L2.5,-0.5"/>
                </g>
        </g>
        <svg viewBox="0 0 15 15" width="100%" height="30px" preserveAspectRatio="xMaxYMin meet">
         <g id="arrow_out" transform="scale(0.3 0.3)">
          <a xlink:href="class_camera_behavior_vehicle_cine_cam_a21a3912237dcbc89df32a1e393204cc0_cgraph_org.svg" target="_base">
           <rect id="button" ry="5" rx="5" y="6" x="6" height="38" width="38"
                fill="#f2f5e9" fill-opacity="0.5" stroke="#606060" stroke-width="1.0"/>
           <path id="arrow"
             d="M 11.500037,31.436501 C 11.940474,20.09759 22.043105,11.32322 32.158766,21.979434 L 37.068811,17.246167 C 37.068811,17.246167 37.088388,32 37.088388,32 L 22.160133,31.978069 C 22.160133,31.978069 26.997745,27.140456 26.997745,27.140456 C 18.528582,18.264221 13.291696,25.230495 11.500037,31.436501 z"
             style="fill:#404040;"/>
          </a>
         </g>
        </svg>
</svg>
