<?xml version="1.0" encoding="UTF-8" standalone="no"?>
<!DOCTYPE svg PUBLIC "-//W3C//DTD SVG 1.1//EN"
 "http://www.w3.org/Graphics/SVG/1.1/DTD/svg11.dtd">
<!-- Generated by graphviz version 2.36.0 (20140111.2315)
 -->
<!-- Title: RigDef::Parser::ParseExtCamera Pages: 1 -->
<svg width="706pt" height="120pt"
 viewBox="0.00 0.00 706.00 120.00" xmlns="http://www.w3.org/2000/svg" xmlns:xlink="http://www.w3.org/1999/xlink">
<g id="graph0" class="graph" transform="scale(1 1) rotate(0) translate(4 116)">
<title>RigDef::Parser::ParseExtCamera</title>
<polygon fill="white" stroke="none" points="-4,4 -4,-116 702,-116 702,4 -4,4"/>
<!-- Node1 -->
<g id="node1" class="node"><title>Node1</title>
<polygon fill="#bfbfbf" stroke="black" points="0,-38 0,-68 128,-68 128,-38 0,-38"/>
<text text-anchor="start" x="8" y="-56" font-family="Helvetica,sans-Serif" font-size="10.00">RigDef::Parser::ParseExt</text>
<text text-anchor="middle" x="64" y="-45" font-family="Helvetica,sans-Serif" font-size="10.00">Camera</text>
</g>
<!-- Node2 -->
<g id="node2" class="node"><title>Node2</title>
<g id="a_node2"><a xlink:href="class_rig_def_1_1_parser.html#a8397c243299359e21a84243c01ca43bf" target="_top" xlink:title="RigDef::Parser::CheckNum\lArguments">
<polygon fill="white" stroke="black" points="174.5,-82 174.5,-112 311.5,-112 311.5,-82 174.5,-82"/>
<text text-anchor="start" x="182.5" y="-100" font-family="Helvetica,sans-Serif" font-size="10.00">RigDef::Parser::CheckNum</text>
<text text-anchor="middle" x="243" y="-89" font-family="Helvetica,sans-Serif" font-size="10.00">Arguments</text>
</a>
</g>
</g>
<!-- Node1&#45;&gt;Node2 -->
<g id="edge1" class="edge"><title>Node1&#45;&gt;Node2</title>
<path fill="none" stroke="midnightblue" d="M125.418,-68.0192C140.288,-71.7156 156.337,-75.7053 171.632,-79.5074"/>
<polygon fill="midnightblue" stroke="midnightblue" points="171.005,-82.9579 181.554,-81.9738 172.693,-76.1646 171.005,-82.9579"/>
</g>
<!-- Node4 -->
<g id="node4" class="node"><title>Node4</title>
<g id="a_node4"><a xlink:href="class_rig_def_1_1_parser.html#a629f3ff2e6181f7953ec28168b0aac00" target="_top" xlink:title="RigDef::Parser::GetArgStr">
<polygon fill="white" stroke="black" points="371.5,-43.5 371.5,-62.5 502.5,-62.5 502.5,-43.5 371.5,-43.5"/>
<text text-anchor="middle" x="437" y="-50.5" font-family="Helvetica,sans-Serif" font-size="10.00">RigDef::Parser::GetArgStr</text>
</a>
</g>
</g>
<!-- Node1&#45;&gt;Node4 -->
<g id="edge3" class="edge"><title>Node1&#45;&gt;Node4</title>
<path fill="none" stroke="midnightblue" d="M128.356,-53C192.825,-53 292.726,-53 361.081,-53"/>
<polygon fill="midnightblue" stroke="midnightblue" points="361.349,-56.5001 371.349,-53 361.349,-49.5001 361.349,-56.5001"/>
</g>
<!-- Node5 -->
<g id="node5" class="node"><title>Node5</title>
<g id="a_node5"><a xlink:href="class_rig_def_1_1_parser.html#a57b7efa0a566ae343d6148a05d420eae" target="_top" xlink:title="RigDef::Parser::GetArgNodeRef">
<polygon fill="white" stroke="black" points="164,-5.5 164,-24.5 322,-24.5 322,-5.5 164,-5.5"/>
<text text-anchor="middle" x="243" y="-12.5" font-family="Helvetica,sans-Serif" font-size="10.00">RigDef::Parser::GetArgNodeRef</text>
</a>
</g>
</g>
<!-- Node1&#45;&gt;Node5 -->
<g id="edge4" class="edge"><title>Node1&#45;&gt;Node5</title>
<path fill="none" stroke="midnightblue" d="M128.401,-39.3885C147.825,-35.2185 169.006,-30.671 187.761,-26.6446"/>
<polygon fill="midnightblue" stroke="midnightblue" points="188.57,-30.0506 197.613,-24.5294 187.101,-23.2065 188.57,-30.0506"/>
</g>
<!-- Node3 -->
<g id="node3" class="node"><title>Node3</title>
<g id="a_node3"><a xlink:href="class_rig_def_1_1_parser.html#a7da949423835fe3241f2ac4c5ac8ebb1" target="_top" xlink:title="Adds a message to parser report. ">
<polygon fill="white" stroke="black" points="552.5,-66.5 552.5,-85.5 697.5,-85.5 697.5,-66.5 552.5,-66.5"/>
<text text-anchor="middle" x="625" y="-73.5" font-family="Helvetica,sans-Serif" font-size="10.00">RigDef::Parser::AddMessage</text>
</a>
</g>
</g>
<!-- Node2&#45;&gt;Node3 -->
<g id="edge2" class="edge"><title>Node2&#45;&gt;Node3</title>
<path fill="none" stroke="midnightblue" d="M311.936,-93.2456C376.407,-89.6828 473.393,-84.323 542.106,-80.5257"/>
<polygon fill="midnightblue" stroke="midnightblue" points="542.665,-84.0002 552.457,-79.9537 542.279,-77.0109 542.665,-84.0002"/>
</g>
<!-- Node5&#45;&gt;Node4 -->
<g id="edge8" class="edge"><title>Node5&#45;&gt;Node4</title>
<path fill="none" stroke="midnightblue" d="M292.45,-24.589C318.471,-29.739 350.728,-36.1232 378.069,-41.5344"/>
<polygon fill="midnightblue" stroke="midnightblue" points="377.409,-44.9718 387.899,-43.4799 378.769,-38.105 377.409,-44.9718"/>
</g>
<!-- Node6 -->
<g id="node6" class="node"><title>Node6</title>
<g id="a_node6"><a xlink:href="class_rig_def_1_1_parser.html#a38e4135df406da0cc2f0fc4afb34ddb3" target="_top" xlink:title="RigDef::Parser::_ParseNodeRef">
<polygon fill="white" stroke="black" points="358,-5.5 358,-24.5 516,-24.5 516,-5.5 358,-5.5"/>
<text text-anchor="middle" x="437" y="-12.5" font-family="Helvetica,sans-Serif" font-size="10.00">RigDef::Parser::_ParseNodeRef</text>
</a>
</g>
</g>
<!-- Node5&#45;&gt;Node6 -->
<g id="edge5" class="edge"><title>Node5&#45;&gt;Node6</title>
<path fill="none" stroke="midnightblue" d="M322.094,-15C330.601,-15 339.302,-15 347.918,-15"/>
<polygon fill="midnightblue" stroke="midnightblue" points="347.975,-18.5001 357.975,-15 347.975,-11.5001 347.975,-18.5001"/>
</g>
<!-- Node6&#45;&gt;Node3 -->
<g id="edge7" class="edge"><title>Node6&#45;&gt;Node3</title>
<path fill="none" stroke="midnightblue" d="M481.601,-24.5453C492.887,-27.3089 504.965,-30.5271 516,-34 542.293,-42.2752 571.379,-53.7236 592.736,-62.5779"/>
<polygon fill="midnightblue" stroke="midnightblue" points="591.391,-65.8092 601.967,-66.4429 594.094,-59.3523 591.391,-65.8092"/>
</g>
<!-- Node7 -->
<g id="node7" class="node"><title>Node7</title>
<g id="a_node7"><a xlink:href="class_rig_def_1_1_sequential_importer.html#a04d293d8b1f94b9a722e83715911e547" target="_top" xlink:title="RigDef::SequentialImporter\l::IsEnabled">
<polygon fill="white" stroke="black" points="557.5,-0 557.5,-30 692.5,-30 692.5,-0 557.5,-0"/>
<text text-anchor="start" x="565.5" y="-18" font-family="Helvetica,sans-Serif" font-size="10.00">RigDef::SequentialImporter</text>
<text text-anchor="middle" x="625" y="-7" font-family="Helvetica,sans-Serif" font-size="10.00">::IsEnabled</text>
</a>
</g>
</g>
<!-- Node6&#45;&gt;Node7 -->
<g id="edge6" class="edge"><title>Node6&#45;&gt;Node7</title>
<path fill="none" stroke="midnightblue" d="M516.072,-15C526.362,-15 536.902,-15 547.17,-15"/>
<polygon fill="midnightblue" stroke="midnightblue" points="547.329,-18.5001 557.329,-15 547.329,-11.5001 547.329,-18.5001"/>
</g>
</g>
</svg>
