<?xml version="1.0" encoding="UTF-8" standalone="no"?>
<!DOCTYPE svg PUBLIC "-//W3C//DTD SVG 1.1//EN"
 "http://www.w3.org/Graphics/SVG/1.1/DTD/svg11.dtd">
<!-- Generated by graphviz version 2.36.0 (20140111.2315)
 -->
<!-- Title: Hydrax::Mesh::_createGeometry Pages: 1 -->
<svg width="668pt" height="283pt"
 viewBox="0.00 0.00 668.00 283.00" xmlns="http://www.w3.org/2000/svg" xmlns:xlink="http://www.w3.org/1999/xlink">
<g id="graph0" class="graph" transform="scale(1 1) rotate(0) translate(4 279)">
<title>Hydrax::Mesh::_createGeometry</title>
<polygon fill="white" stroke="none" points="-4,4 -4,-279 664,-279 664,4 -4,4"/>
<!-- Node1 -->
<g id="node1" class="node"><title>Node1</title>
<polygon fill="#bfbfbf" stroke="black" points="0.5,-127.5 0.5,-146.5 159.5,-146.5 159.5,-127.5 0.5,-127.5"/>
<text text-anchor="middle" x="80" y="-134.5" font-family="Helvetica,sans-Serif" font-size="10.00">Hydrax::Mesh::_createGeometry</text>
</g>
<!-- Node2 -->
<g id="node2" class="node"><title>Node2</title>
<g id="a_node2"><a xlink:href="class_hydrax_1_1_mesh.html#a202f11f0f3c109cb93c516fe83f1dc0d" target="_top" xlink:title="Hydrax::Mesh::create">
<polygon fill="white" stroke="black" points="196.5,-127.5 196.5,-146.5 307.5,-146.5 307.5,-127.5 196.5,-127.5"/>
<text text-anchor="middle" x="252" y="-134.5" font-family="Helvetica,sans-Serif" font-size="10.00">Hydrax::Mesh::create</text>
</a>
</g>
</g>
<!-- Node1&#45;&gt;Node2 -->
<g id="edge1" class="edge"><title>Node1&#45;&gt;Node2</title>
<path fill="none" stroke="midnightblue" d="M169.684,-137C178.676,-137 187.612,-137 196.09,-137"/>
<polygon fill="midnightblue" stroke="midnightblue" points="169.531,-133.5 159.531,-137 169.531,-140.5 169.531,-133.5"/>
</g>
<!-- Node3 -->
<g id="node3" class="node"><title>Node3</title>
<g id="a_node3"><a xlink:href="class_hydrax_1_1_module_1_1_projected_grid.html#a04d04b9cfc173538038a5f51094c1ffa" target="_top" xlink:title="Hydrax::Module::Projected\lGrid::setOptions">
<polygon fill="white" stroke="black" points="347.5,-196 347.5,-226 480.5,-226 480.5,-196 347.5,-196"/>
<text text-anchor="start" x="355.5" y="-214" font-family="Helvetica,sans-Serif" font-size="10.00">Hydrax::Module::Projected</text>
<text text-anchor="middle" x="414" y="-203" font-family="Helvetica,sans-Serif" font-size="10.00">Grid::setOptions</text>
</a>
</g>
</g>
<!-- Node2&#45;&gt;Node3 -->
<g id="edge2" class="edge"><title>Node2&#45;&gt;Node3</title>
<path fill="none" stroke="midnightblue" d="M282.783,-150.775C310.486,-163.587 351.676,-182.638 380.284,-195.869"/>
<polygon fill="midnightblue" stroke="midnightblue" points="284.135,-147.544 273.59,-146.523 281.197,-153.897 284.135,-147.544"/>
</g>
<!-- Node6 -->
<g id="node6" class="node"><title>Node6</title>
<g id="a_node6"><a xlink:href="class_hydrax_1_1_module_1_1_radial_grid.html#acfc2ae157df9b6159302a90561ffc038" target="_top" xlink:title="Hydrax::Module::RadialGrid\l::setOptions">
<polygon fill="white" stroke="black" points="345.5,-122 345.5,-152 482.5,-152 482.5,-122 345.5,-122"/>
<text text-anchor="start" x="353.5" y="-140" font-family="Helvetica,sans-Serif" font-size="10.00">Hydrax::Module::RadialGrid</text>
<text text-anchor="middle" x="414" y="-129" font-family="Helvetica,sans-Serif" font-size="10.00">::setOptions</text>
</a>
</g>
</g>
<!-- Node2&#45;&gt;Node6 -->
<g id="edge5" class="edge"><title>Node2&#45;&gt;Node6</title>
<path fill="none" stroke="midnightblue" d="M317.735,-137C326.824,-137 336.186,-137 345.329,-137"/>
<polygon fill="midnightblue" stroke="midnightblue" points="317.615,-133.5 307.615,-137 317.615,-140.5 317.615,-133.5"/>
</g>
<!-- Node9 -->
<g id="node9" class="node"><title>Node9</title>
<g id="a_node9"><a xlink:href="class_hydrax_1_1_module_1_1_simple_grid.html#a6b83cb95b2803b068a53bf76afaa9ac4" target="_top" xlink:title="Hydrax::Module::SimpleGrid\l::setOptions">
<polygon fill="white" stroke="black" points="344,-49 344,-79 484,-79 484,-49 344,-49"/>
<text text-anchor="start" x="352" y="-67" font-family="Helvetica,sans-Serif" font-size="10.00">Hydrax::Module::SimpleGrid</text>
<text text-anchor="middle" x="414" y="-56" font-family="Helvetica,sans-Serif" font-size="10.00">::setOptions</text>
</a>
</g>
</g>
<!-- Node2&#45;&gt;Node9 -->
<g id="edge8" class="edge"><title>Node2&#45;&gt;Node9</title>
<path fill="none" stroke="midnightblue" d="M283.072,-123.279C310.625,-110.709 351.341,-92.1318 379.83,-79.134"/>
<polygon fill="midnightblue" stroke="midnightblue" points="281.562,-120.121 273.917,-127.457 284.468,-126.49 281.562,-120.121"/>
</g>
<!-- Node4 -->
<g id="node4" class="node"><title>Node4</title>
<g id="a_node4"><a xlink:href="class_hydrax_1_1_module_1_1_projected_grid.html#aa9308990b99866cbd09edd3600972443" target="_top" xlink:title="Hydrax::Module::Projected\lGrid::ProjectedGrid">
<polygon fill="white" stroke="black" points="523.5,-245 523.5,-275 656.5,-275 656.5,-245 523.5,-245"/>
<text text-anchor="start" x="531.5" y="-263" font-family="Helvetica,sans-Serif" font-size="10.00">Hydrax::Module::Projected</text>
<text text-anchor="middle" x="590" y="-252" font-family="Helvetica,sans-Serif" font-size="10.00">Grid::ProjectedGrid</text>
</a>
</g>
</g>
<!-- Node3&#45;&gt;Node4 -->
<g id="edge3" class="edge"><title>Node3&#45;&gt;Node4</title>
<path fill="none" stroke="midnightblue" d="M478.284,-228.821C497.07,-234.112 517.455,-239.852 535.552,-244.948"/>
<polygon fill="midnightblue" stroke="midnightblue" points="479.2,-225.443 468.626,-226.101 477.302,-232.181 479.2,-225.443"/>
</g>
<!-- Node5 -->
<g id="node5" class="node"><title>Node5</title>
<g id="a_node5"><a xlink:href="class_hydrax_1_1_module_1_1_projected_grid.html#af951c58cc93cf75d57e69aa14a668d3e" target="_top" xlink:title="Hydrax::Module::Projected\lGrid::loadCfg">
<polygon fill="white" stroke="black" points="523.5,-196 523.5,-226 656.5,-226 656.5,-196 523.5,-196"/>
<text text-anchor="start" x="531.5" y="-214" font-family="Helvetica,sans-Serif" font-size="10.00">Hydrax::Module::Projected</text>
<text text-anchor="middle" x="590" y="-203" font-family="Helvetica,sans-Serif" font-size="10.00">Grid::loadCfg</text>
</a>
</g>
</g>
<!-- Node3&#45;&gt;Node5 -->
<g id="edge4" class="edge"><title>Node3&#45;&gt;Node5</title>
<path fill="none" stroke="midnightblue" d="M491.035,-211C501.825,-211 512.844,-211 523.414,-211"/>
<polygon fill="midnightblue" stroke="midnightblue" points="490.782,-207.5 480.782,-211 490.782,-214.5 490.782,-207.5"/>
</g>
<!-- Node7 -->
<g id="node7" class="node"><title>Node7</title>
<g id="a_node7"><a xlink:href="class_hydrax_1_1_module_1_1_radial_grid.html#abc52ff8727a537d5303fabc1179fa45f" target="_top" xlink:title="Hydrax::Module::RadialGrid\l::RadialGrid">
<polygon fill="white" stroke="black" points="521.5,-147 521.5,-177 658.5,-177 658.5,-147 521.5,-147"/>
<text text-anchor="start" x="529.5" y="-165" font-family="Helvetica,sans-Serif" font-size="10.00">Hydrax::Module::RadialGrid</text>
<text text-anchor="middle" x="590" y="-154" font-family="Helvetica,sans-Serif" font-size="10.00">::RadialGrid</text>
</a>
</g>
</g>
<!-- Node6&#45;&gt;Node7 -->
<g id="edge6" class="edge"><title>Node6&#45;&gt;Node7</title>
<path fill="none" stroke="midnightblue" d="M492.682,-148.161C502.264,-149.538 511.999,-150.937 521.414,-152.289"/>
<polygon fill="midnightblue" stroke="midnightblue" points="493.167,-144.695 482.771,-146.737 492.172,-151.624 493.167,-144.695"/>
</g>
<!-- Node8 -->
<g id="node8" class="node"><title>Node8</title>
<g id="a_node8"><a xlink:href="class_hydrax_1_1_module_1_1_radial_grid.html#a31b3bab8e74f2f1e316a1800470ac685" target="_top" xlink:title="Hydrax::Module::RadialGrid\l::loadCfg">
<polygon fill="white" stroke="black" points="521.5,-98 521.5,-128 658.5,-128 658.5,-98 521.5,-98"/>
<text text-anchor="start" x="529.5" y="-116" font-family="Helvetica,sans-Serif" font-size="10.00">Hydrax::Module::RadialGrid</text>
<text text-anchor="middle" x="590" y="-105" font-family="Helvetica,sans-Serif" font-size="10.00">::loadCfg</text>
</a>
</g>
</g>
<!-- Node6&#45;&gt;Node8 -->
<g id="edge7" class="edge"><title>Node6&#45;&gt;Node8</title>
<path fill="none" stroke="midnightblue" d="M492.682,-126.285C502.264,-124.964 511.999,-123.621 521.414,-122.322"/>
<polygon fill="midnightblue" stroke="midnightblue" points="492.199,-122.819 482.771,-127.652 493.156,-129.753 492.199,-122.819"/>
</g>
<!-- Node10 -->
<g id="node10" class="node"><title>Node10</title>
<g id="a_node10"><a xlink:href="class_hydrax_1_1_module_1_1_simple_grid.html#aae091cd103798dcc8f8b92af7dbfccef" target="_top" xlink:title="Hydrax::Module::SimpleGrid\l::SimpleGrid">
<polygon fill="white" stroke="black" points="520,-49 520,-79 660,-79 660,-49 520,-49"/>
<text text-anchor="start" x="528" y="-67" font-family="Helvetica,sans-Serif" font-size="10.00">Hydrax::Module::SimpleGrid</text>
<text text-anchor="middle" x="590" y="-56" font-family="Helvetica,sans-Serif" font-size="10.00">::SimpleGrid</text>
</a>
</g>
</g>
<!-- Node9&#45;&gt;Node10 -->
<g id="edge9" class="edge"><title>Node9&#45;&gt;Node10</title>
<path fill="none" stroke="midnightblue" d="M494.035,-64C502.625,-64 511.319,-64 519.779,-64"/>
<polygon fill="midnightblue" stroke="midnightblue" points="494.019,-60.5001 484.019,-64 494.019,-67.5001 494.019,-60.5001"/>
</g>
<!-- Node11 -->
<g id="node11" class="node"><title>Node11</title>
<g id="a_node11"><a xlink:href="class_hydrax_1_1_module_1_1_simple_grid.html#a3741ec1a3df1863e730711fd9d3b14e1" target="_top" xlink:title="Hydrax::Module::SimpleGrid\l::loadCfg">
<polygon fill="white" stroke="black" points="520,-0 520,-30 660,-30 660,-0 520,-0"/>
<text text-anchor="start" x="528" y="-18" font-family="Helvetica,sans-Serif" font-size="10.00">Hydrax::Module::SimpleGrid</text>
<text text-anchor="middle" x="590" y="-7" font-family="Helvetica,sans-Serif" font-size="10.00">::loadCfg</text>
</a>
</g>
</g>
<!-- Node9&#45;&gt;Node11 -->
<g id="edge10" class="edge"><title>Node9&#45;&gt;Node11</title>
<path fill="none" stroke="midnightblue" d="M478.284,-46.1788C497.07,-40.8882 517.455,-35.1478 535.552,-30.0516"/>
<polygon fill="midnightblue" stroke="midnightblue" points="477.302,-42.8189 468.626,-48.8986 479.2,-49.5568 477.302,-42.8189"/>
</g>
</g>
</svg>
