<?xml version="1.0" encoding="UTF-8" standalone="no"?>
<!DOCTYPE svg PUBLIC "-//W3C//DTD SVG 1.1//EN"
 "http://www.w3.org/Graphics/SVG/1.1/DTD/svg11.dtd">
<!-- Generated by graphviz version 2.36.0 (20140111.2315)
 -->
<!-- Title: OverlayWrapper::UpdateAerialHUD Pages: 1 -->
<svg width="336pt" height="218pt"
 viewBox="0.00 0.00 336.00 218.00" xmlns="http://www.w3.org/2000/svg" xmlns:xlink="http://www.w3.org/1999/xlink">
<g id="graph0" class="graph" transform="scale(1 1) rotate(0) translate(4 214)">
<title>OverlayWrapper::UpdateAerialHUD</title>
<polygon fill="white" stroke="none" points="-4,4 -4,-214 332,-214 332,4 -4,4"/>
<!-- Node1 -->
<g id="node1" class="node"><title>Node1</title>
<polygon fill="#bfbfbf" stroke="black" points="0,-95.5 0,-114.5 172,-114.5 172,-95.5 0,-95.5"/>
<text text-anchor="middle" x="86" y="-102.5" font-family="Helvetica,sans-Serif" font-size="10.00">OverlayWrapper::UpdateAerialHUD</text>
</g>
<!-- Node2 -->
<g id="node2" class="node"><title>Node2</title>
<g id="a_node2"><a xlink:href="class_aero_engine.html#a3455377c40761670b0b8d1b2b60098b5" target="_top" xlink:title="AeroEngine::getThrottle">
<polygon fill="white" stroke="black" points="208.5,-190.5 208.5,-209.5 327.5,-209.5 327.5,-190.5 208.5,-190.5"/>
<text text-anchor="middle" x="268" y="-197.5" font-family="Helvetica,sans-Serif" font-size="10.00">AeroEngine::getThrottle</text>
</a>
</g>
</g>
<!-- Node1&#45;&gt;Node2 -->
<g id="edge1" class="edge"><title>Node1&#45;&gt;Node2</title>
<path fill="none" stroke="midnightblue" d="M99.8127,-114.567C121.254,-130.219 166.179,-161.506 208,-181 212.695,-183.189 217.711,-185.226 222.761,-187.092"/>
<polygon fill="midnightblue" stroke="midnightblue" points="221.844,-190.478 232.438,-190.462 224.146,-183.868 221.844,-190.478"/>
</g>
<!-- Node3 -->
<g id="node3" class="node"><title>Node3</title>
<g id="a_node3"><a xlink:href="class_aero_engine.html#a92371208b22f9c2f28c6850a92bbec3d" target="_top" xlink:title="AeroEngine::isFailed">
<polygon fill="white" stroke="black" points="214.5,-152.5 214.5,-171.5 321.5,-171.5 321.5,-152.5 214.5,-152.5"/>
<text text-anchor="middle" x="268" y="-159.5" font-family="Helvetica,sans-Serif" font-size="10.00">AeroEngine::isFailed</text>
</a>
</g>
</g>
<!-- Node1&#45;&gt;Node3 -->
<g id="edge2" class="edge"><title>Node1&#45;&gt;Node3</title>
<path fill="none" stroke="midnightblue" d="M117.128,-114.541C147.24,-124.076 193.717,-138.794 226.926,-149.31"/>
<polygon fill="midnightblue" stroke="midnightblue" points="226.184,-152.746 236.774,-152.428 228.297,-146.073 226.184,-152.746"/>
</g>
<!-- Node4 -->
<g id="node4" class="node"><title>Node4</title>
<g id="a_node4"><a xlink:href="class_beam.html#a9bfc6d1ccf609d069ab142ec9b146719" target="_top" xlink:title="Beam::getDirection">
<polygon fill="white" stroke="black" points="217.5,-114.5 217.5,-133.5 318.5,-133.5 318.5,-114.5 217.5,-114.5"/>
<text text-anchor="middle" x="268" y="-121.5" font-family="Helvetica,sans-Serif" font-size="10.00">Beam::getDirection</text>
</a>
</g>
</g>
<!-- Node1&#45;&gt;Node4 -->
<g id="edge3" class="edge"><title>Node1&#45;&gt;Node4</title>
<path fill="none" stroke="midnightblue" d="M172.256,-113.999C184.083,-115.248 196.02,-116.508 207.246,-117.693"/>
<polygon fill="midnightblue" stroke="midnightblue" points="207.02,-121.188 217.332,-118.757 207.755,-114.227 207.02,-121.188"/>
</g>
<!-- Node5 -->
<g id="node5" class="node"><title>Node5</title>
<g id="a_node5"><a xlink:href="class_aero_engine.html#a427f0ecccc7b71c9188f0443448981c8" target="_top" xlink:title="AeroEngine::getRPMpc">
<polygon fill="white" stroke="black" points="208.5,-76.5 208.5,-95.5 327.5,-95.5 327.5,-76.5 208.5,-76.5"/>
<text text-anchor="middle" x="268" y="-83.5" font-family="Helvetica,sans-Serif" font-size="10.00">AeroEngine::getRPMpc</text>
</a>
</g>
</g>
<!-- Node1&#45;&gt;Node5 -->
<g id="edge4" class="edge"><title>Node1&#45;&gt;Node5</title>
<path fill="none" stroke="midnightblue" d="M172.256,-96.0008C181.073,-95.0701 189.951,-94.133 198.55,-93.2253"/>
<polygon fill="midnightblue" stroke="midnightblue" points="198.919,-96.7059 208.496,-92.1754 198.184,-89.7446 198.919,-96.7059"/>
</g>
<!-- Node6 -->
<g id="node6" class="node"><title>Node6</title>
<g id="a_node6"><a xlink:href="class_aero_engine.html#a6d67284b994e8fa6b6d2896feee03951" target="_top" xlink:title="AeroEngine::getType">
<polygon fill="white" stroke="black" points="214,-38.5 214,-57.5 322,-57.5 322,-38.5 214,-38.5"/>
<text text-anchor="middle" x="268" y="-45.5" font-family="Helvetica,sans-Serif" font-size="10.00">AeroEngine::getType</text>
</a>
</g>
</g>
<!-- Node1&#45;&gt;Node6 -->
<g id="edge5" class="edge"><title>Node1&#45;&gt;Node6</title>
<path fill="none" stroke="midnightblue" d="M117.128,-95.4595C147.24,-85.924 193.717,-71.2064 226.926,-60.6901"/>
<polygon fill="midnightblue" stroke="midnightblue" points="228.297,-63.9273 236.774,-57.5716 226.184,-57.2539 228.297,-63.9273"/>
</g>
<!-- Node7 -->
<g id="node7" class="node"><title>Node7</title>
<g id="a_node7"><a xlink:href="class_aero_engine.html#acee24708de2de2dd8491e6d404fa637b" target="_top" xlink:title="AeroEngine::getIgnition">
<polygon fill="white" stroke="black" points="209,-0.5 209,-19.5 327,-19.5 327,-0.5 209,-0.5"/>
<text text-anchor="middle" x="268" y="-7.5" font-family="Helvetica,sans-Serif" font-size="10.00">AeroEngine::getIgnition</text>
</a>
</g>
</g>
<!-- Node1&#45;&gt;Node7 -->
<g id="edge6" class="edge"><title>Node1&#45;&gt;Node7</title>
<path fill="none" stroke="midnightblue" d="M99.8127,-95.433C121.254,-79.7806 166.179,-48.4939 208,-29 212.695,-26.8113 217.711,-24.7739 222.761,-22.9083"/>
<polygon fill="midnightblue" stroke="midnightblue" points="224.146,-26.1322 232.438,-19.5377 221.844,-19.5217 224.146,-26.1322"/>
</g>
</g>
</svg>
