<?xml version="1.0" encoding="UTF-8" standalone="no"?>
<!DOCTYPE svg PUBLIC "-//W3C//DTD SVG 1.1//EN"
 "http://www.w3.org/Graphics/SVG/1.1/DTD/svg11.dtd">
<!-- Generated by graphviz version 2.36.0 (20140111.2315)
 -->
<!-- Title: RigDef::Parser::ParseSoundsources2 Pages: 1 -->
<svg width="1088pt" height="66pt"
 viewBox="0.00 0.00 1088.00 66.00" xmlns="http://www.w3.org/2000/svg" xmlns:xlink="http://www.w3.org/1999/xlink">
<g id="graph0" class="graph" transform="scale(1 1) rotate(0) translate(4 62)">
<title>RigDef::Parser::ParseSoundsources2</title>
<polygon fill="white" stroke="none" points="-4,4 -4,-62 1084,-62 1084,4 -4,4"/>
<!-- Node1 -->
<g id="node1" class="node"><title>Node1</title>
<polygon fill="#bfbfbf" stroke="black" points="0.5,-19.5 0.5,-38.5 181.5,-38.5 181.5,-19.5 0.5,-19.5"/>
<text text-anchor="middle" x="91" y="-26.5" font-family="Helvetica,sans-Serif" font-size="10.00">RigDef::Parser::ParseSoundsources2</text>
</g>
<!-- Node2 -->
<g id="node2" class="node"><title>Node2</title>
<g id="a_node2"><a xlink:href="class_rig_def_1_1_parser.html#a99a49d75798b1fa5dfbd00873455fbeb" target="_top" xlink:title="RigDef::Parser::ProcessCurrentLine">
<polygon fill="white" stroke="black" points="218,-19.5 218,-38.5 392,-38.5 392,-19.5 218,-19.5"/>
<text text-anchor="middle" x="305" y="-26.5" font-family="Helvetica,sans-Serif" font-size="10.00">RigDef::Parser::ProcessCurrentLine</text>
</a>
</g>
</g>
<!-- Node1&#45;&gt;Node2 -->
<g id="edge1" class="edge"><title>Node1&#45;&gt;Node2</title>
<path fill="none" stroke="midnightblue" d="M191.761,-29C200.45,-29 209.196,-29 217.763,-29"/>
<polygon fill="midnightblue" stroke="midnightblue" points="191.6,-25.5001 181.6,-29 191.6,-32.5001 191.6,-25.5001"/>
</g>
<!-- Node3 -->
<g id="node3" class="node"><title>Node3</title>
<g id="a_node3"><a xlink:href="class_rig_def_1_1_parser.html#ad1920ba0a8dc23ac5043b2c270ef5f47" target="_top" xlink:title="RigDef::Parser::ProcessRawLine">
<polygon fill="white" stroke="black" points="428,-19.5 428,-38.5 590,-38.5 590,-19.5 428,-19.5"/>
<text text-anchor="middle" x="509" y="-26.5" font-family="Helvetica,sans-Serif" font-size="10.00">RigDef::Parser::ProcessRawLine</text>
</a>
</g>
</g>
<!-- Node2&#45;&gt;Node3 -->
<g id="edge2" class="edge"><title>Node2&#45;&gt;Node3</title>
<path fill="none" stroke="midnightblue" d="M402.255,-29C410.806,-29 419.403,-29 427.799,-29"/>
<polygon fill="midnightblue" stroke="midnightblue" points="402.252,-25.5001 392.252,-29 402.252,-32.5001 402.252,-25.5001"/>
</g>
<!-- Node4 -->
<g id="node4" class="node"><title>Node4</title>
<g id="a_node4"><a xlink:href="class_rig_def_1_1_parser.html#ab08d0ba4ffb90b72cb351014bb7861bd" target="_top" xlink:title="RigDef::Parser::ProcessOgre\lStream">
<polygon fill="white" stroke="black" points="626.5,-14 626.5,-44 771.5,-44 771.5,-14 626.5,-14"/>
<text text-anchor="start" x="634.5" y="-32" font-family="Helvetica,sans-Serif" font-size="10.00">RigDef::Parser::ProcessOgre</text>
<text text-anchor="middle" x="699" y="-21" font-family="Helvetica,sans-Serif" font-size="10.00">Stream</text>
</a>
</g>
</g>
<!-- Node3&#45;&gt;Node4 -->
<g id="edge3" class="edge"><title>Node3&#45;&gt;Node4</title>
<path fill="none" stroke="midnightblue" d="M600.261,-29C609.034,-29 617.85,-29 626.403,-29"/>
<polygon fill="midnightblue" stroke="midnightblue" points="600.002,-25.5001 590.002,-29 600.001,-32.5001 600.002,-25.5001"/>
</g>
<!-- Node5 -->
<g id="node5" class="node"><title>Node5</title>
<g id="a_node5"><a xlink:href="class_beam.html#ab0cbc6c4e3822fc5786af2c8036f7efb" target="_top" xlink:title="Beam::LoadTruck">
<polygon fill="white" stroke="black" points="842,-38.5 842,-57.5 936,-57.5 936,-38.5 842,-38.5"/>
<text text-anchor="middle" x="889" y="-45.5" font-family="Helvetica,sans-Serif" font-size="10.00">Beam::LoadTruck</text>
</a>
</g>
</g>
<!-- Node4&#45;&gt;Node5 -->
<g id="edge4" class="edge"><title>Node4&#45;&gt;Node5</title>
<path fill="none" stroke="midnightblue" d="M781.649,-37.2517C802.264,-39.3352 823.686,-41.5002 841.855,-43.3364"/>
<polygon fill="midnightblue" stroke="midnightblue" points="781.912,-33.7606 771.611,-36.2373 781.208,-40.7252 781.912,-33.7606"/>
</g>
<!-- Node7 -->
<g id="node7" class="node"><title>Node7</title>
<g id="a_node7"><a xlink:href="class_cache_system.html#ad640fd28c3075eb6310d8d8f3475cefb" target="_top" xlink:title="CacheSystem::fillTruckDetailInfo">
<polygon fill="white" stroke="black" points="808.5,-0.5 808.5,-19.5 969.5,-19.5 969.5,-0.5 808.5,-0.5"/>
<text text-anchor="middle" x="889" y="-7.5" font-family="Helvetica,sans-Serif" font-size="10.00">CacheSystem::fillTruckDetailInfo</text>
</a>
</g>
</g>
<!-- Node4&#45;&gt;Node7 -->
<g id="edge6" class="edge"><title>Node4&#45;&gt;Node7</title>
<path fill="none" stroke="midnightblue" d="M781.584,-20.7548C790.49,-19.8547 799.547,-18.9394 808.429,-18.0418"/>
<polygon fill="midnightblue" stroke="midnightblue" points="781.208,-17.2748 771.611,-21.7627 781.912,-24.2394 781.208,-17.2748"/>
</g>
<!-- Node6 -->
<g id="node6" class="node"><title>Node6</title>
<g id="a_node6"><a xlink:href="class_beam.html#a0d55b25fa0d1623305f3ac51694cbd42" target="_top" xlink:title="Beam::Beam">
<polygon fill="white" stroke="black" points="1006,-38.5 1006,-57.5 1080,-57.5 1080,-38.5 1006,-38.5"/>
<text text-anchor="middle" x="1043" y="-45.5" font-family="Helvetica,sans-Serif" font-size="10.00">Beam::Beam</text>
</a>
</g>
</g>
<!-- Node5&#45;&gt;Node6 -->
<g id="edge5" class="edge"><title>Node5&#45;&gt;Node6</title>
<path fill="none" stroke="midnightblue" d="M946.22,-48C966.129,-48 987.985,-48 1005.79,-48"/>
<polygon fill="midnightblue" stroke="midnightblue" points="946.018,-44.5001 936.018,-48 946.017,-51.5001 946.018,-44.5001"/>
</g>
</g>
</svg>
