<?xml version="1.0" encoding="UTF-8" standalone="no"?>
<!DOCTYPE svg PUBLIC "-//W3C//DTD SVG 1.1//EN"
 "http://www.w3.org/Graphics/SVG/1.1/DTD/svg11.dtd">
<!-- Generated by graphviz version 2.36.0 (20140111.2315)
 -->
<!-- Title: Ogre::ShaderParticleRenderer::CmdVertexFormatTotalTTL::doSet Pages: 1 -->
<svg width="366pt" height="38pt"
 viewBox="0.00 0.00 366.00 38.00" xmlns="http://www.w3.org/2000/svg" xmlns:xlink="http://www.w3.org/1999/xlink">
<g id="graph0" class="graph" transform="scale(1 1) rotate(0) translate(4 34)">
<title>Ogre::ShaderParticleRenderer::CmdVertexFormatTotalTTL::doSet</title>
<polygon fill="white" stroke="none" points="-4,4 -4,-34 362,-34 362,4 -4,4"/>
<!-- Node1 -->
<g id="node1" class="node"><title>Node1</title>
<polygon fill="#bfbfbf" stroke="black" points="0.5,-0 0.5,-30 173.5,-30 173.5,-0 0.5,-0"/>
<text text-anchor="start" x="8.5" y="-18" font-family="Helvetica,sans-Serif" font-size="10.00">Ogre::ShaderParticleRenderer</text>
<text text-anchor="middle" x="87" y="-7" font-family="Helvetica,sans-Serif" font-size="10.00">::CmdVertexFormatTotalTTL::doSet</text>
</g>
<!-- Node2 -->
<g id="node2" class="node"><title>Node2</title>
<g id="a_node2"><a xlink:href="class_ogre_1_1_shader_particle_renderer.html#a216f994edd0f0259867052f31be5e115" target="_top" xlink:title="Ogre::ShaderParticleRenderer\l::setVertexFormatTotalTTL">
<polygon fill="white" stroke="black" points="210.5,-0 210.5,-30 357.5,-30 357.5,-0 210.5,-0"/>
<text text-anchor="start" x="218.5" y="-18" font-family="Helvetica,sans-Serif" font-size="10.00">Ogre::ShaderParticleRenderer</text>
<text text-anchor="middle" x="284" y="-7" font-family="Helvetica,sans-Serif" font-size="10.00">::setVertexFormatTotalTTL</text>
</a>
</g>
</g>
<!-- Node1&#45;&gt;Node2 -->
<g id="edge1" class="edge"><title>Node1&#45;&gt;Node2</title>
<path fill="none" stroke="midnightblue" d="M173.53,-15C182.356,-15 191.315,-15 200.112,-15"/>
<polygon fill="midnightblue" stroke="midnightblue" points="200.346,-18.5001 210.346,-15 200.346,-11.5001 200.346,-18.5001"/>
</g>
</g>
</svg>
