<?xml version="1.0" encoding="UTF-8" standalone="no"?>
<!DOCTYPE svg PUBLIC "-//W3C//DTD SVG 1.1//EN"
 "http://www.w3.org/Graphics/SVG/1.1/DTD/svg11.dtd">
<!-- Generated by graphviz version 2.36.0 (20140111.2315)
 -->
<!-- Title: CScriptDictValue::FreeValue Pages: 1 -->
<svg width="816pt" height="87pt"
 viewBox="0.00 0.00 816.00 87.00" xmlns="http://www.w3.org/2000/svg" xmlns:xlink="http://www.w3.org/1999/xlink">
<g id="graph0" class="graph" transform="scale(1 1) rotate(0) translate(4 83)">
<title>CScriptDictValue::FreeValue</title>
<polygon fill="white" stroke="none" points="-4,4 -4,-83 812,-83 812,4 -4,4"/>
<!-- Node1 -->
<g id="node1" class="node"><title>Node1</title>
<polygon fill="#bfbfbf" stroke="black" points="0.5,-29.5 0.5,-48.5 143.5,-48.5 143.5,-29.5 0.5,-29.5"/>
<text text-anchor="middle" x="72" y="-36.5" font-family="Helvetica,sans-Serif" font-size="10.00">CScriptDictValue::FreeValue</text>
</g>
<!-- Node2 -->
<g id="node2" class="node"><title>Node2</title>
<g id="a_node2"><a xlink:href="scriptdictionary_8cpp.html#a45ef46c66b7517fdba2c61f683c51326" target="_top" xlink:title="CScriptDictValue_Destruct">
<polygon fill="white" stroke="black" points="180.5,-29.5 180.5,-48.5 315.5,-48.5 315.5,-29.5 180.5,-29.5"/>
<text text-anchor="middle" x="248" y="-36.5" font-family="Helvetica,sans-Serif" font-size="10.00">CScriptDictValue_Destruct</text>
</a>
</g>
</g>
<!-- Node1&#45;&gt;Node2 -->
<g id="edge1" class="edge"><title>Node1&#45;&gt;Node2</title>
<path fill="none" stroke="midnightblue" d="M153.57,-39C162.522,-39 171.566,-39 180.318,-39"/>
<polygon fill="midnightblue" stroke="midnightblue" points="153.522,-35.5001 143.522,-39 153.522,-42.5001 153.522,-35.5001"/>
</g>
<!-- Node3 -->
<g id="node3" class="node"><title>Node3</title>
<g id="a_node3"><a xlink:href="scriptdictionary_8cpp.html#a1d0570dd2d386ba327d909420632a512" target="_top" xlink:title="CScriptDictValue_Destruct\l_Generic">
<polygon fill="white" stroke="black" points="352.5,-47 352.5,-77 487.5,-77 487.5,-47 352.5,-47"/>
<text text-anchor="start" x="360.5" y="-65" font-family="Helvetica,sans-Serif" font-size="10.00">CScriptDictValue_Destruct</text>
<text text-anchor="middle" x="420" y="-54" font-family="Helvetica,sans-Serif" font-size="10.00">_Generic</text>
</a>
</g>
</g>
<!-- Node2&#45;&gt;Node3 -->
<g id="edge2" class="edge"><title>Node2&#45;&gt;Node3</title>
<path fill="none" stroke="midnightblue" d="M325.715,-49.3791C334.651,-50.5881 343.71,-51.8137 352.492,-53.0018"/>
<polygon fill="midnightblue" stroke="midnightblue" points="326.08,-45.8966 315.701,-48.0242 325.141,-52.8334 326.08,-45.8966"/>
</g>
<!-- Node6 -->
<g id="node6" class="node"><title>Node6</title>
<g id="a_node6"><a xlink:href="scriptdictionary_8h.html#a7c41a379d66a350e692e11acfea995cb" target="_top" xlink:title="RegisterScriptDictionary\l_Native">
<polygon fill="white" stroke="black" points="524.5,-0 524.5,-30 647.5,-30 647.5,-0 524.5,-0"/>
<text text-anchor="start" x="532.5" y="-18" font-family="Helvetica,sans-Serif" font-size="10.00">RegisterScriptDictionary</text>
<text text-anchor="middle" x="586" y="-7" font-family="Helvetica,sans-Serif" font-size="10.00">_Native</text>
</a>
</g>
</g>
<!-- Node2&#45;&gt;Node6 -->
<g id="edge5" class="edge"><title>Node2&#45;&gt;Node6</title>
<path fill="none" stroke="midnightblue" d="M325.997,-33.5002C386.185,-29.2011 468.692,-23.3077 524.272,-19.3377"/>
<polygon fill="midnightblue" stroke="midnightblue" points="325.51,-30.026 315.785,-34.2297 326.008,-37.0082 325.51,-30.026"/>
</g>
<!-- Node4 -->
<g id="node4" class="node"><title>Node4</title>
<g id="a_node4"><a xlink:href="scriptdictionary_8h.html#af8fc6fbf1a623e6c2ff14605df4e0570" target="_top" xlink:title="RegisterScriptDictionary\l_Generic">
<polygon fill="white" stroke="black" points="524.5,-49 524.5,-79 647.5,-79 647.5,-49 524.5,-49"/>
<text text-anchor="start" x="532.5" y="-67" font-family="Helvetica,sans-Serif" font-size="10.00">RegisterScriptDictionary</text>
<text text-anchor="middle" x="586" y="-56" font-family="Helvetica,sans-Serif" font-size="10.00">_Generic</text>
</a>
</g>
</g>
<!-- Node3&#45;&gt;Node4 -->
<g id="edge3" class="edge"><title>Node3&#45;&gt;Node4</title>
<path fill="none" stroke="midnightblue" d="M497.753,-62.936C506.703,-63.0452 515.738,-63.1553 524.428,-63.2613"/>
<polygon fill="midnightblue" stroke="midnightblue" points="497.747,-59.4358 487.705,-62.8135 497.662,-66.4353 497.747,-59.4358"/>
</g>
<!-- Node5 -->
<g id="node5" class="node"><title>Node5</title>
<g id="a_node5"><a xlink:href="scriptdictionary_8h.html#abf884a3f2b4b07a009c5fc055b48f901" target="_top" xlink:title="RegisterScriptDictionary">
<polygon fill="white" stroke="black" points="684.5,-29.5 684.5,-48.5 807.5,-48.5 807.5,-29.5 684.5,-29.5"/>
<text text-anchor="middle" x="746" y="-36.5" font-family="Helvetica,sans-Serif" font-size="10.00">RegisterScriptDictionary</text>
</a>
</g>
</g>
<!-- Node4&#45;&gt;Node5 -->
<g id="edge4" class="edge"><title>Node4&#45;&gt;Node5</title>
<path fill="none" stroke="midnightblue" d="M657.742,-52.8066C666.772,-51.3779 675.946,-49.9262 684.788,-48.5272"/>
<polygon fill="midnightblue" stroke="midnightblue" points="656.965,-49.3859 647.635,-54.4058 658.059,-56.2999 656.965,-49.3859"/>
</g>
<!-- Node6&#45;&gt;Node5 -->
<g id="edge6" class="edge"><title>Node6&#45;&gt;Node5</title>
<path fill="none" stroke="midnightblue" d="M657.597,-25.7235C666.495,-27.0753 675.538,-28.4488 684.266,-29.7746"/>
<polygon fill="midnightblue" stroke="midnightblue" points="658.047,-22.2519 647.635,-24.2104 656.996,-29.1725 658.047,-22.2519"/>
</g>
</g>
</svg>
