<?xml version="1.0" encoding="UTF-8" standalone="no"?>
<!DOCTYPE svg PUBLIC "-//W3C//DTD SVG 1.1//EN"
 "http://www.w3.org/Graphics/SVG/1.1/DTD/svg11.dtd">
<!-- Generated by graphviz version 2.36.0 (20140111.2315)
 -->
<!-- Title: CameraBehaviorVehicleSpline::activate Pages: 1 -->
<!--zoomable 203 -->
<svg id="main" version="1.1" xmlns="http://www.w3.org/2000/svg" xmlns:xlink="http://www.w3.org/1999/xlink" xml:space="preserve" onload="init(evt)">
<style type="text/css"><![CDATA[
.edge:hover path { stroke: red; }
.edge:hover polygon { stroke: red; fill: red; }
]]></style>
<script type="text/javascript"><![CDATA[
var edges = document.getElementsByTagName('g');
if (edges && edges.length) {
  for (var i=0;i<edges.length;i++) {
    if (edges[i].id.substr(0,4)=='edge') {
      edges[i].setAttribute('class','edge');
    }
  }
}
]]></script>
        <defs>
                <circle id="rim" cx="0" cy="0" r="7"/>
                <circle id="rim2" cx="0" cy="0" r="3.5"/>
                <g id="zoomPlus">
                        <use xlink:href="#rim" fill="#404040">
                                <set attributeName="fill" to="#808080" begin="zoomplus.mouseover" end="zoomplus.mouseout"/>
                        </use>
                        <path d="M-4,0h8M0,-4v8" fill="none" stroke="white" stroke-width="1.5" pointer-events="none"/>
                </g>
                <g id="zoomMin">
                        <use xlink:href="#rim" fill="#404040">
                                <set attributeName="fill" to="#808080" begin="zoomminus.mouseover" end="zoomminus.mouseout"/>
                        </use>
                        <path d="M-4,0h8" fill="none" stroke="white" stroke-width="1.5" pointer-events="none"/>
                </g>
                <g id="dirArrow">
                        <path fill="none" stroke="white" stroke-width="1.5" d="M0,-3.0v7 M-2.5,-0.5L0,-3.0L2.5,-0.5"/>
                </g>
               <g id="resetDef">
                       <use xlink:href="#rim2" fill="#404040">
                               <set attributeName="fill" to="#808080" begin="reset.mouseover" end="reset.mouseout"/>
                       </use>
               </g>
        </defs>

<script type="text/javascript">
var viewWidth = 718;
var viewHeight = 203;
var sectionId = 'dynsection-2';
</script>
<script xlink:href="svgpan.js"/>
<svg id="graph" class="graph">
<g id="viewport">
<title>CameraBehaviorVehicleSpline::activate</title>
<polygon fill="white" stroke="none" points="-4,4 -4,-199 714,-199 714,4 -4,4"/>
<!-- Node1 -->
<g id="node1" class="node"><title>Node1</title>
<polygon fill="#bfbfbf" stroke="black" points="0.5,-99 0.5,-129 149.5,-129 149.5,-99 0.5,-99"/>
<text text-anchor="start" x="8.5" y="-117" font-family="Helvetica,sans-Serif" font-size="10.00">CameraBehaviorVehicleSpline</text>
<text text-anchor="middle" x="75" y="-106" font-family="Helvetica,sans-Serif" font-size="10.00">::activate</text>
</g>
<!-- Node2 -->
<g id="node2" class="node"><title>Node2</title>
<g id="a_node2"><a xlink:href="class_camera_manager.html#acc8ca4bea6750e8ce6ce1f3710a0ce78" target="_top" xlink:title="CameraManager::switchToNext\lBehavior">
<polygon fill="white" stroke="black" points="186.5,-165 186.5,-195 341.5,-195 341.5,-165 186.5,-165"/>
<text text-anchor="start" x="194.5" y="-183" font-family="Helvetica,sans-Serif" font-size="10.00">CameraManager::switchToNext</text>
<text text-anchor="middle" x="264" y="-172" font-family="Helvetica,sans-Serif" font-size="10.00">Behavior</text>
</a>
</g>
</g>
<!-- Node1&#45;&gt;Node2 -->
<g id="edge1" class="edge"><title>Node1&#45;&gt;Node2</title>
<path fill="none" stroke="midnightblue" d="M118.902,-129.142C146.221,-138.784 181.788,-151.337 210.751,-161.559"/>
<polygon fill="midnightblue" stroke="midnightblue" points="209.703,-164.901 220.298,-164.929 212.033,-158.3 209.703,-164.901"/>
</g>
<!-- Node4 -->
<g id="node4" class="node"><title>Node4</title>
<g id="a_node4"><a xlink:href="class_beam.html#a39d38800d5ab3b85b305d94b2c8ea502" target="_top" xlink:title="Beam::GetCameraContext">
<polygon fill="white" stroke="black" points="576.5,-146.5 576.5,-165.5 709.5,-165.5 709.5,-146.5 576.5,-146.5"/>
<text text-anchor="middle" x="643" y="-153.5" font-family="Helvetica,sans-Serif" font-size="10.00">Beam::GetCameraContext</text>
</a>
</g>
</g>
<!-- Node1&#45;&gt;Node4 -->
<g id="edge9" class="edge"><title>Node1&#45;&gt;Node4</title>
<path fill="none" stroke="midnightblue" d="M149.704,-119.469C257.449,-127.464 456.959,-142.269 565.994,-150.36"/>
<polygon fill="midnightblue" stroke="midnightblue" points="566.026,-153.872 576.257,-151.122 566.544,-146.891 566.026,-153.872"/>
</g>
<!-- Node5 -->
<g id="node5" class="node"><title>Node5</title>
<g id="a_node5"><a xlink:href="class_camera_behavior_vehicle_spline.html#a40f9e100be8f69c825f7ade503ba21ed" target="_top" xlink:title="CameraBehaviorVehicleSpline\l::reset">
<polygon fill="white" stroke="black" points="189.5,-77 189.5,-107 338.5,-107 338.5,-77 189.5,-77"/>
<text text-anchor="start" x="197.5" y="-95" font-family="Helvetica,sans-Serif" font-size="10.00">CameraBehaviorVehicleSpline</text>
<text text-anchor="middle" x="264" y="-84" font-family="Helvetica,sans-Serif" font-size="10.00">::reset</text>
</a>
</g>
</g>
<!-- Node1&#45;&gt;Node5 -->
<g id="edge4" class="edge"><title>Node1&#45;&gt;Node5</title>
<path fill="none" stroke="midnightblue" d="M149.639,-105.337C159.349,-104.194 169.358,-103.017 179.221,-101.856"/>
<polygon fill="midnightblue" stroke="midnightblue" points="179.906,-105.3 189.428,-100.656 179.088,-98.348 179.906,-105.3"/>
</g>
<!-- Node8 -->
<g id="node8" class="node"><title>Node8</title>
<g id="a_node8"><a xlink:href="class_camera_behavior_vehicle_spline.html#a4c1bbdd426bd74cd545ec8314ed66c71" target="_top" xlink:title="CameraBehaviorVehicleSpline\l::createSpline">
<polygon fill="white" stroke="black" points="189.5,-12 189.5,-42 338.5,-42 338.5,-12 189.5,-12"/>
<text text-anchor="start" x="197.5" y="-30" font-family="Helvetica,sans-Serif" font-size="10.00">CameraBehaviorVehicleSpline</text>
<text text-anchor="middle" x="264" y="-19" font-family="Helvetica,sans-Serif" font-size="10.00">::createSpline</text>
</a>
</g>
</g>
<!-- Node1&#45;&gt;Node8 -->
<g id="edge7" class="edge"><title>Node1&#45;&gt;Node8</title>
<path fill="none" stroke="midnightblue" d="M108.573,-98.8458C139.85,-84.2943 187.239,-62.2472 221.268,-46.4154"/>
<polygon fill="midnightblue" stroke="midnightblue" points="222.897,-49.518 230.487,-42.1263 219.944,-43.1712 222.897,-49.518"/>
</g>
<!-- Node3 -->
<g id="node3" class="node"><title>Node3</title>
<g id="a_node3"><a xlink:href="class_camera_manager.html#a6f50a61b22fd1193ec25c5c2dc8f3ae3" target="_top" xlink:title="CameraManager::switchBehavior">
<polygon fill="white" stroke="black" points="378.5,-167.5 378.5,-186.5 539.5,-186.5 539.5,-167.5 378.5,-167.5"/>
<text text-anchor="middle" x="459" y="-174.5" font-family="Helvetica,sans-Serif" font-size="10.00">CameraManager::switchBehavior</text>
</a>
</g>
</g>
<!-- Node2&#45;&gt;Node3 -->
<g id="edge2" class="edge"><title>Node2&#45;&gt;Node3</title>
<path fill="none" stroke="midnightblue" d="M341.556,-178.81C350.349,-178.673 359.374,-178.533 368.32,-178.394"/>
<polygon fill="midnightblue" stroke="midnightblue" points="368.426,-181.893 378.371,-178.238 368.317,-174.894 368.426,-181.893"/>
</g>
<!-- Node3&#45;&gt;Node4 -->
<g id="edge3" class="edge"><title>Node3&#45;&gt;Node4</title>
<path fill="none" stroke="midnightblue" d="M539.563,-167.82C548.363,-166.804 557.308,-165.772 566.062,-164.762"/>
<polygon fill="midnightblue" stroke="midnightblue" points="566.697,-168.212 576.23,-163.589 565.894,-161.258 566.697,-168.212"/>
</g>
<!-- Node6 -->
<g id="node6" class="node"><title>Node6</title>
<g id="a_node6"><a xlink:href="class_camera_behavior_orbit.html#ac2c38d7776bb50ffb4a0d267c11acb2c" target="_top" xlink:title="CameraBehaviorOrbit\l::reset">
<polygon fill="white" stroke="black" points="404,-77 404,-107 514,-107 514,-77 404,-77"/>
<text text-anchor="start" x="412" y="-95" font-family="Helvetica,sans-Serif" font-size="10.00">CameraBehaviorOrbit</text>
<text text-anchor="middle" x="459" y="-84" font-family="Helvetica,sans-Serif" font-size="10.00">::reset</text>
</a>
</g>
</g>
<!-- Node5&#45;&gt;Node6 -->
<g id="edge5" class="edge"><title>Node5&#45;&gt;Node6</title>
<path fill="none" stroke="midnightblue" d="M338.516,-92C356.682,-92 376.002,-92 393.692,-92"/>
<polygon fill="midnightblue" stroke="midnightblue" points="393.898,-95.5001 403.898,-92 393.898,-88.5001 393.898,-95.5001"/>
</g>
<!-- Node7 -->
<g id="node7" class="node"><title>Node7</title>
<g id="a_node7"><a xlink:href="class_beam.html#a304819ff3ad7dafc09f7f64e0c908d2e" target="_top" xlink:title="Beam::getMinimalCameraRadius">
<polygon fill="white" stroke="black" points="378.5,-38.5 378.5,-57.5 539.5,-57.5 539.5,-38.5 378.5,-38.5"/>
<text text-anchor="middle" x="459" y="-45.5" font-family="Helvetica,sans-Serif" font-size="10.00">Beam::getMinimalCameraRadius</text>
</a>
</g>
</g>
<!-- Node5&#45;&gt;Node7 -->
<g id="edge6" class="edge"><title>Node5&#45;&gt;Node7</title>
<path fill="none" stroke="midnightblue" d="M330.88,-76.9808C355.517,-71.364 383.125,-65.07 406.301,-59.7863"/>
<polygon fill="midnightblue" stroke="midnightblue" points="407.303,-63.1477 416.275,-57.5124 405.747,-56.3228 407.303,-63.1477"/>
</g>
<!-- Node9 -->
<g id="node9" class="node"><title>Node9</title>
<g id="a_node9"><a xlink:href="class_beam.html#a93991998d4398e5502eeb4f314e0bc50" target="_top" xlink:title="Beam::getAllLinkedBeams">
<polygon fill="white" stroke="black" points="393,-0.5 393,-19.5 525,-19.5 525,-0.5 393,-0.5"/>
<text text-anchor="middle" x="459" y="-7.5" font-family="Helvetica,sans-Serif" font-size="10.00">Beam::getAllLinkedBeams</text>
</a>
</g>
</g>
<!-- Node8&#45;&gt;Node9 -->
<g id="edge8" class="edge"><title>Node8&#45;&gt;Node9</title>
<path fill="none" stroke="midnightblue" d="M338.516,-20.5245C353.057,-19.2437 368.337,-17.8978 382.928,-16.6125"/>
<polygon fill="midnightblue" stroke="midnightblue" points="383.249,-20.098 392.903,-15.7339 382.634,-13.125 383.249,-20.098"/>
</g>
</g>
</svg>
        <g id="navigator" transform="translate(0 0)" fill="#404254">
                <rect fill="#f2f5e9" fill-opacity="0.5" stroke="#606060" stroke-width=".5" x="0" y="0" width="60" height="60"/>
                <use id="zoomplus" xlink:href="#zoomPlus" x="17" y="9" onmousedown="handleZoom(evt,'in')"/>
                <use id="zoomminus" xlink:href="#zoomMin" x="42" y="9" onmousedown="handleZoom(evt,'out')"/>
                <use id="reset" xlink:href="#resetDef" x="30" y="36" onmousedown="handleReset()"/>
                <g id="arrowUp" xlink:href="#dirArrow" transform="translate(30 24)" onmousedown="handlePan(0,-1)">
                  <use xlink:href="#rim" fill="#404040">
                        <set attributeName="fill" to="#808080" begin="arrowUp.mouseover" end="arrowUp.mouseout"/>
                  </use>
                  <path fill="none" stroke="white" stroke-width="1.5" d="M0,-3.0v7 M-2.5,-0.5L0,-3.0L2.5,-0.5"/>
                </g>
                <g id="arrowRight" xlink:href="#dirArrow" transform="rotate(90) translate(36 -43)" onmousedown="handlePan(1,0)">
                  <use xlink:href="#rim" fill="#404040">
                        <set attributeName="fill" to="#808080" begin="arrowRight.mouseover" end="arrowRight.mouseout"/>
                  </use>
                  <path fill="none" stroke="white" stroke-width="1.5" d="M0,-3.0v7 M-2.5,-0.5L0,-3.0L2.5,-0.5"/>
                </g>
                <g id="arrowDown" xlink:href="#dirArrow" transform="rotate(180) translate(-30 -48)" onmousedown="handlePan(0,1)">
                  <use xlink:href="#rim" fill="#404040">
                        <set attributeName="fill" to="#808080" begin="arrowDown.mouseover" end="arrowDown.mouseout"/>
                  </use>
                  <path fill="none" stroke="white" stroke-width="1.5" d="M0,-3.0v7 M-2.5,-0.5L0,-3.0L2.5,-0.5"/>
                </g>
                <g id="arrowLeft" xlink:href="#dirArrow" transform="rotate(270) translate(-36 17)" onmousedown="handlePan(-1,0)">
                  <use xlink:href="#rim" fill="#404040">
                        <set attributeName="fill" to="#808080" begin="arrowLeft.mouseover" end="arrowLeft.mouseout"/>
                  </use>
                  <path fill="none" stroke="white" stroke-width="1.5" d="M0,-3.0v7 M-2.5,-0.5L0,-3.0L2.5,-0.5"/>
                </g>
        </g>
        <svg viewBox="0 0 15 15" width="100%" height="30px" preserveAspectRatio="xMaxYMin meet">
         <g id="arrow_out" transform="scale(0.3 0.3)">
          <a xlink:href="class_camera_behavior_vehicle_spline_acde6a5bb0ea7e85846a15ee908e28425_cgraph_org.svg" target="_base">
           <rect id="button" ry="5" rx="5" y="6" x="6" height="38" width="38"
                fill="#f2f5e9" fill-opacity="0.5" stroke="#606060" stroke-width="1.0"/>
           <path id="arrow"
             d="M 11.500037,31.436501 C 11.940474,20.09759 22.043105,11.32322 32.158766,21.979434 L 37.068811,17.246167 C 37.068811,17.246167 37.088388,32 37.088388,32 L 22.160133,31.978069 C 22.160133,31.978069 26.997745,27.140456 26.997745,27.140456 C 18.528582,18.264221 13.291696,25.230495 11.500037,31.436501 z"
             style="fill:#404040;"/>
          </a>
         </g>
        </svg>
</svg>
