<?xml version="1.0" encoding="UTF-8" standalone="no"?>
<!DOCTYPE svg PUBLIC "-//W3C//DTD SVG 1.1//EN"
 "http://www.w3.org/Graphics/SVG/1.1/DTD/svg11.dtd">
<!-- Generated by graphviz version 2.36.0 (20140111.2315)
 -->
<!-- Title: Road::Road Pages: 1 -->
<svg width="228pt" height="66pt"
 viewBox="0.00 0.00 228.00 66.00" xmlns="http://www.w3.org/2000/svg" xmlns:xlink="http://www.w3.org/1999/xlink">
<g id="graph0" class="graph" transform="scale(1 1) rotate(0) translate(4 62)">
<title>Road::Road</title>
<polygon fill="white" stroke="none" points="-4,4 -4,-62 224,-62 224,4 -4,4"/>
<!-- Node1 -->
<g id="node1" class="node"><title>Node1</title>
<polygon fill="#bfbfbf" stroke="black" points="0.5,-19.5 0.5,-38.5 69.5,-38.5 69.5,-19.5 0.5,-19.5"/>
<text text-anchor="middle" x="35" y="-26.5" font-family="Helvetica,sans-Serif" font-size="10.00">Road::Road</text>
</g>
<!-- Node2 -->
<g id="node2" class="node"><title>Node2</title>
<g id="a_node2"><a xlink:href="class_road.html#a1ad3f6c5422bec362981244fda1c3650" target="_top" xlink:title="Road::addRoadType">
<polygon fill="white" stroke="black" points="109.5,-38.5 109.5,-57.5 216.5,-57.5 216.5,-38.5 109.5,-38.5"/>
<text text-anchor="middle" x="163" y="-45.5" font-family="Helvetica,sans-Serif" font-size="10.00">Road::addRoadType</text>
</a>
</g>
</g>
<!-- Node1&#45;&gt;Node2 -->
<g id="edge1" class="edge"><title>Node1&#45;&gt;Node2</title>
<path fill="none" stroke="midnightblue" d="M69.7657,-34.0917C78.8412,-35.4602 88.9568,-36.9855 99.0699,-38.5105"/>
<polygon fill="midnightblue" stroke="midnightblue" points="98.7336,-41.9993 109.144,-40.0296 99.7774,-35.0776 98.7336,-41.9993"/>
</g>
<!-- Node3 -->
<g id="node3" class="node"><title>Node3</title>
<g id="a_node3"><a xlink:href="class_road.html#ac8b6386bba3e5a55279073a9488734c4" target="_top" xlink:title="Road::preparePending">
<polygon fill="white" stroke="black" points="106.5,-0.5 106.5,-19.5 219.5,-19.5 219.5,-0.5 106.5,-0.5"/>
<text text-anchor="middle" x="163" y="-7.5" font-family="Helvetica,sans-Serif" font-size="10.00">Road::preparePending</text>
</a>
</g>
</g>
<!-- Node1&#45;&gt;Node3 -->
<g id="edge2" class="edge"><title>Node1&#45;&gt;Node3</title>
<path fill="none" stroke="midnightblue" d="M69.7657,-23.9083C78.0098,-22.6652 87.112,-21.2926 96.2911,-19.9085"/>
<polygon fill="midnightblue" stroke="midnightblue" points="96.8782,-23.3596 106.245,-18.4076 95.8344,-16.4379 96.8782,-23.3596"/>
</g>
</g>
</svg>
