<?xml version="1.0" encoding="UTF-8" standalone="no"?>
<!DOCTYPE svg PUBLIC "-//W3C//DTD SVG 1.1//EN"
 "http://www.w3.org/Graphics/SVG/1.1/DTD/svg11.dtd">
<!-- Generated by graphviz version 2.36.0 (20140111.2315)
 -->
<!-- Title: Hydrax::Module::ProjectedGrid::_calculeNormals Pages: 1 -->
<svg width="482pt" height="60pt"
 viewBox="0.00 0.00 482.00 60.00" xmlns="http://www.w3.org/2000/svg" xmlns:xlink="http://www.w3.org/1999/xlink">
<g id="graph0" class="graph" transform="scale(1 1) rotate(0) translate(4 56)">
<title>Hydrax::Module::ProjectedGrid::_calculeNormals</title>
<polygon fill="white" stroke="none" points="-4,4 -4,-56 478,-56 478,4 -4,4"/>
<!-- Node1 -->
<g id="node1" class="node"><title>Node1</title>
<polygon fill="#bfbfbf" stroke="black" points="0.5,-22 0.5,-52 133.5,-52 133.5,-22 0.5,-22"/>
<text text-anchor="start" x="8.5" y="-40" font-family="Helvetica,sans-Serif" font-size="10.00">Hydrax::Module::Projected</text>
<text text-anchor="middle" x="67" y="-29" font-family="Helvetica,sans-Serif" font-size="10.00">Grid::_calculeNormals</text>
</g>
<!-- Node2 -->
<g id="node2" class="node"><title>Node2</title>
<g id="a_node2"><a xlink:href="class_hydrax_1_1_module_1_1_projected_grid.html#a8d7a8efcd6b7fd0e4313c9114bd2c061" target="_top" xlink:title="Hydrax::Module::Projected\lGrid::update">
<polygon fill="white" stroke="black" points="340.5,-22 340.5,-52 473.5,-52 473.5,-22 340.5,-22"/>
<text text-anchor="start" x="348.5" y="-40" font-family="Helvetica,sans-Serif" font-size="10.00">Hydrax::Module::Projected</text>
<text text-anchor="middle" x="407" y="-29" font-family="Helvetica,sans-Serif" font-size="10.00">Grid::update</text>
</a>
</g>
</g>
<!-- Node1&#45;&gt;Node2 -->
<g id="edge1" class="edge"><title>Node1&#45;&gt;Node2</title>
<path fill="none" stroke="midnightblue" d="M143.576,-38.6475C152.482,-38.7926 161.443,-38.9161 170,-39 229.553,-39.5838 244.447,-39.5838 304,-39 315.778,-38.8845 328.319,-38.6941 340.433,-38.4755"/>
<polygon fill="midnightblue" stroke="midnightblue" points="143.625,-35.148 133.567,-38.4755 143.505,-42.1469 143.625,-35.148"/>
</g>
<!-- Node3 -->
<g id="node3" class="node"><title>Node3</title>
<g id="a_node3"><a xlink:href="class_hydrax_1_1_module_1_1_projected_grid.html#af39d939aed099aa3b91010a4ed824dbf" target="_top" xlink:title="Hydrax::Module::Projected\lGrid::_renderGeometry">
<polygon fill="white" stroke="black" points="170.5,-0 170.5,-30 303.5,-30 303.5,-0 170.5,-0"/>
<text text-anchor="start" x="178.5" y="-18" font-family="Helvetica,sans-Serif" font-size="10.00">Hydrax::Module::Projected</text>
<text text-anchor="middle" x="237" y="-7" font-family="Helvetica,sans-Serif" font-size="10.00">Grid::_renderGeometry</text>
</a>
</g>
</g>
<!-- Node1&#45;&gt;Node3 -->
<g id="edge2" class="edge"><title>Node1&#45;&gt;Node3</title>
<path fill="none" stroke="midnightblue" d="M144.098,-27.0348C152.836,-25.8906 161.689,-24.7312 170.274,-23.6069"/>
<polygon fill="midnightblue" stroke="midnightblue" points="143.377,-23.5993 133.916,-28.3682 144.286,-30.54 143.377,-23.5993"/>
</g>
<!-- Node3&#45;&gt;Node2 -->
<g id="edge3" class="edge"><title>Node3&#45;&gt;Node2</title>
<path fill="none" stroke="midnightblue" d="M314.098,-24.9652C322.836,-26.1094 331.689,-27.2688 340.274,-28.3931"/>
<polygon fill="midnightblue" stroke="midnightblue" points="314.286,-21.46 303.916,-23.6318 313.377,-28.4007 314.286,-21.46"/>
</g>
</g>
</svg>
