<?xml version="1.0" encoding="UTF-8" standalone="no"?>
<!DOCTYPE svg PUBLIC "-//W3C//DTD SVG 1.1//EN"
 "http://www.w3.org/Graphics/SVG/1.1/DTD/svg11.dtd">
<!-- Generated by graphviz version 2.36.0 (20140111.2315)
 -->
<!-- Title: RoR::FlexBodyFileIO::ReadFlexbodyPositionsBuffer Pages: 1 -->
<svg width="488pt" height="38pt"
 viewBox="0.00 0.00 488.00 38.00" xmlns="http://www.w3.org/2000/svg" xmlns:xlink="http://www.w3.org/1999/xlink">
<g id="graph0" class="graph" transform="scale(1 1) rotate(0) translate(4 34)">
<title>RoR::FlexBodyFileIO::ReadFlexbodyPositionsBuffer</title>
<polygon fill="white" stroke="none" points="-4,4 -4,-34 484,-34 484,4 -4,4"/>
<!-- Node1 -->
<g id="node1" class="node"><title>Node1</title>
<polygon fill="#bfbfbf" stroke="black" points="0,-0 0,-30 152,-30 152,-0 0,-0"/>
<text text-anchor="start" x="8" y="-18" font-family="Helvetica,sans-Serif" font-size="10.00">RoR::FlexBodyFileIO</text>
<text text-anchor="middle" x="76" y="-7" font-family="Helvetica,sans-Serif" font-size="10.00">::ReadFlexbodyPositionsBuffer</text>
</g>
<!-- Node2 -->
<g id="node2" class="node"><title>Node2</title>
<g id="a_node2"><a xlink:href="class_ro_r_1_1_flex_body_file_i_o.html#a15b2a2c4b29760c79423048ddad75d15" target="_top" xlink:title="RoR::FlexBodyFileIO\l::LoadFile">
<polygon fill="white" stroke="black" points="188,-0 188,-30 298,-30 298,-0 188,-0"/>
<text text-anchor="start" x="196" y="-18" font-family="Helvetica,sans-Serif" font-size="10.00">RoR::FlexBodyFileIO</text>
<text text-anchor="middle" x="243" y="-7" font-family="Helvetica,sans-Serif" font-size="10.00">::LoadFile</text>
</a>
</g>
</g>
<!-- Node1&#45;&gt;Node2 -->
<g id="edge1" class="edge"><title>Node1&#45;&gt;Node2</title>
<path fill="none" stroke="midnightblue" d="M162.323,-15C170.901,-15 179.437,-15 187.562,-15"/>
<polygon fill="midnightblue" stroke="midnightblue" points="162.257,-11.5001 152.257,-15 162.257,-18.5001 162.257,-11.5001"/>
</g>
<!-- Node3 -->
<g id="node3" class="node"><title>Node3</title>
<g id="a_node3"><a xlink:href="class_ro_r_1_1_flex_factory.html#aa9505e5057402e1df1b3b960e7ad6e7c" target="_top" xlink:title="RoR::FlexFactory::CheckAnd\lLoadFlexbodyCache">
<polygon fill="white" stroke="black" points="334,-0 334,-30 480,-30 480,-0 334,-0"/>
<text text-anchor="start" x="342" y="-18" font-family="Helvetica,sans-Serif" font-size="10.00">RoR::FlexFactory::CheckAnd</text>
<text text-anchor="middle" x="407" y="-7" font-family="Helvetica,sans-Serif" font-size="10.00">LoadFlexbodyCache</text>
</a>
</g>
</g>
<!-- Node2&#45;&gt;Node3 -->
<g id="edge2" class="edge"><title>Node2&#45;&gt;Node3</title>
<path fill="none" stroke="midnightblue" d="M308.451,-15C316.817,-15 325.429,-15 333.909,-15"/>
<polygon fill="midnightblue" stroke="midnightblue" points="308.394,-11.5001 298.394,-15 308.394,-18.5001 308.394,-11.5001"/>
</g>
</g>
</svg>
