<?xml version="1.0" encoding="UTF-8" standalone="no"?>
<!DOCTYPE svg PUBLIC "-//W3C//DTD SVG 1.1//EN"
 "http://www.w3.org/Graphics/SVG/1.1/DTD/svg11.dtd">
<!-- Generated by graphviz version 2.36.0 (20140111.2315)
 -->
<!-- Title: CameraBehaviorVehicle::reset Pages: 1 -->
<svg width="328pt" height="77pt"
 viewBox="0.00 0.00 328.00 77.00" xmlns="http://www.w3.org/2000/svg" xmlns:xlink="http://www.w3.org/1999/xlink">
<g id="graph0" class="graph" transform="scale(1 1) rotate(0) translate(4 73)">
<title>CameraBehaviorVehicle::reset</title>
<polygon fill="white" stroke="none" points="-4,4 -4,-73 324,-73 324,4 -4,4"/>
<!-- Node1 -->
<g id="node1" class="node"><title>Node1</title>
<polygon fill="#bfbfbf" stroke="black" points="0,-17 0,-47 122,-47 122,-17 0,-17"/>
<text text-anchor="start" x="8" y="-35" font-family="Helvetica,sans-Serif" font-size="10.00">CameraBehaviorVehicle</text>
<text text-anchor="middle" x="61" y="-24" font-family="Helvetica,sans-Serif" font-size="10.00">::reset</text>
</g>
<!-- Node2 -->
<g id="node2" class="node"><title>Node2</title>
<g id="a_node2"><a xlink:href="class_camera_behavior_orbit.html#ac2c38d7776bb50ffb4a0d267c11acb2c" target="_top" xlink:title="CameraBehaviorOrbit\l::reset">
<polygon fill="white" stroke="black" points="184,-39 184,-69 294,-69 294,-39 184,-39"/>
<text text-anchor="start" x="192" y="-57" font-family="Helvetica,sans-Serif" font-size="10.00">CameraBehaviorOrbit</text>
<text text-anchor="middle" x="239" y="-46" font-family="Helvetica,sans-Serif" font-size="10.00">::reset</text>
</a>
</g>
</g>
<!-- Node1&#45;&gt;Node2 -->
<g id="edge1" class="edge"><title>Node1&#45;&gt;Node2</title>
<path fill="none" stroke="midnightblue" d="M122.077,-39.5096C138.653,-41.5816 156.703,-43.8379 173.517,-45.9396"/>
<polygon fill="midnightblue" stroke="midnightblue" points="173.445,-49.4578 183.802,-47.2253 174.314,-42.5119 173.445,-49.4578"/>
</g>
<!-- Node3 -->
<g id="node3" class="node"><title>Node3</title>
<g id="a_node3"><a xlink:href="class_beam.html#a304819ff3ad7dafc09f7f64e0c908d2e" target="_top" xlink:title="Beam::getMinimalCameraRadius">
<polygon fill="white" stroke="black" points="158.5,-0.5 158.5,-19.5 319.5,-19.5 319.5,-0.5 158.5,-0.5"/>
<text text-anchor="middle" x="239" y="-7.5" font-family="Helvetica,sans-Serif" font-size="10.00">Beam::getMinimalCameraRadius</text>
</a>
</g>
</g>
<!-- Node1&#45;&gt;Node3 -->
<g id="edge2" class="edge"><title>Node1&#45;&gt;Node3</title>
<path fill="none" stroke="midnightblue" d="M122.077,-24.4904C131.637,-23.2954 141.687,-22.0391 151.708,-20.7865"/>
<polygon fill="midnightblue" stroke="midnightblue" points="152.211,-24.251 161.7,-19.5376 151.343,-17.305 152.211,-24.251"/>
</g>
</g>
</svg>
