<?xml version="1.0" encoding="UTF-8" standalone="no"?>
<!DOCTYPE svg PUBLIC "-//W3C//DTD SVG 1.1//EN"
 "http://www.w3.org/Graphics/SVG/1.1/DTD/svg11.dtd">
<!-- Generated by graphviz version 2.36.0 (20140111.2315)
 -->
<!-- Title: RoR::GUI::SimUtils::SetTruckInfoBoxVisible Pages: 1 -->
<svg width="862pt" height="38pt"
 viewBox="0.00 0.00 862.00 38.00" xmlns="http://www.w3.org/2000/svg" xmlns:xlink="http://www.w3.org/1999/xlink">
<g id="graph0" class="graph" transform="scale(1 1) rotate(0) translate(4 34)">
<title>RoR::GUI::SimUtils::SetTruckInfoBoxVisible</title>
<polygon fill="white" stroke="none" points="-4,4 -4,-34 858,-34 858,4 -4,4"/>
<!-- Node1 -->
<g id="node1" class="node"><title>Node1</title>
<polygon fill="#bfbfbf" stroke="black" points="0.5,-0 0.5,-30 125.5,-30 125.5,-0 0.5,-0"/>
<text text-anchor="start" x="8.5" y="-18" font-family="Helvetica,sans-Serif" font-size="10.00">RoR::GUI::SimUtils</text>
<text text-anchor="middle" x="63" y="-7" font-family="Helvetica,sans-Serif" font-size="10.00">::SetTruckInfoBoxVisible</text>
</g>
<!-- Node2 -->
<g id="node2" class="node"><title>Node2</title>
<g id="a_node2"><a xlink:href="class_ro_r_1_1_g_u_i_manager.html#ae6376fb591e87d8aedff5fc5e5655191" target="_top" xlink:title="RoR::GUIManager::hideGUI">
<polygon fill="white" stroke="black" points="162,-5.5 162,-24.5 302,-24.5 302,-5.5 162,-5.5"/>
<text text-anchor="middle" x="232" y="-12.5" font-family="Helvetica,sans-Serif" font-size="10.00">RoR::GUIManager::hideGUI</text>
</a>
</g>
</g>
<!-- Node1&#45;&gt;Node2 -->
<g id="edge1" class="edge"><title>Node1&#45;&gt;Node2</title>
<path fill="none" stroke="midnightblue" d="M135.792,-15C144.466,-15 153.313,-15 161.947,-15"/>
<polygon fill="midnightblue" stroke="midnightblue" points="135.71,-11.5001 125.71,-15 135.71,-18.5001 135.71,-11.5001"/>
</g>
<!-- Node3 -->
<g id="node3" class="node"><title>Node3</title>
<g id="a_node3"><a xlink:href="class_ro_r_frame_listener.html#a519eb1268f9cc62d177d723bdb8190e1" target="_top" xlink:title="RoRFrameListener::HideGUI">
<polygon fill="white" stroke="black" points="338.5,-5.5 338.5,-24.5 481.5,-24.5 481.5,-5.5 338.5,-5.5"/>
<text text-anchor="middle" x="410" y="-12.5" font-family="Helvetica,sans-Serif" font-size="10.00">RoRFrameListener::HideGUI</text>
</a>
</g>
</g>
<!-- Node2&#45;&gt;Node3 -->
<g id="edge2" class="edge"><title>Node2&#45;&gt;Node3</title>
<path fill="none" stroke="midnightblue" d="M312.226,-15C320.953,-15 329.796,-15 338.408,-15"/>
<polygon fill="midnightblue" stroke="midnightblue" points="312.055,-11.5001 302.055,-15 312.055,-18.5001 312.055,-11.5001"/>
</g>
<!-- Node4 -->
<g id="node4" class="node"><title>Node4</title>
<g id="a_node4"><a xlink:href="class_ro_r_frame_listener.html#afec2a0f00ed552c21d22aae76329bf38" target="_top" xlink:title="RoRFrameListener::Update\lInputEvents">
<polygon fill="white" stroke="black" points="518.5,-0 518.5,-30 655.5,-30 655.5,-0 518.5,-0"/>
<text text-anchor="start" x="526.5" y="-18" font-family="Helvetica,sans-Serif" font-size="10.00">RoRFrameListener::Update</text>
<text text-anchor="middle" x="587" y="-7" font-family="Helvetica,sans-Serif" font-size="10.00">InputEvents</text>
</a>
</g>
</g>
<!-- Node3&#45;&gt;Node4 -->
<g id="edge3" class="edge"><title>Node3&#45;&gt;Node4</title>
<path fill="none" stroke="midnightblue" d="M491.716,-15C500.663,-15 509.705,-15 518.466,-15"/>
<polygon fill="midnightblue" stroke="midnightblue" points="491.675,-11.5001 481.675,-15 491.675,-18.5001 491.675,-11.5001"/>
</g>
<!-- Node5 -->
<g id="node5" class="node"><title>Node5</title>
<g id="a_node5"><a xlink:href="class_ro_r_frame_listener.html#acd8647e188fb8e838689492965b86faf" target="_top" xlink:title="RoRFrameListener::frameStarted">
<polygon fill="white" stroke="black" points="692.5,-5.5 692.5,-24.5 853.5,-24.5 853.5,-5.5 692.5,-5.5"/>
<text text-anchor="middle" x="773" y="-12.5" font-family="Helvetica,sans-Serif" font-size="10.00">RoRFrameListener::frameStarted</text>
</a>
</g>
</g>
<!-- Node4&#45;&gt;Node5 -->
<g id="edge4" class="edge"><title>Node4&#45;&gt;Node5</title>
<path fill="none" stroke="midnightblue" d="M665.879,-15C674.608,-15 683.511,-15 692.263,-15"/>
<polygon fill="midnightblue" stroke="midnightblue" points="665.731,-11.5001 655.731,-15 665.731,-18.5001 665.731,-11.5001"/>
</g>
</g>
</svg>
