<?xml version="1.0" encoding="UTF-8" standalone="no"?>
<!DOCTYPE svg PUBLIC "-//W3C//DTD SVG 1.1//EN"
 "http://www.w3.org/Graphics/SVG/1.1/DTD/svg11.dtd">
<!-- Generated by graphviz version 2.36.0 (20140111.2315)
 -->
<!-- Title: RigDef::Serializer::ProcessNode Pages: 1 -->
<svg width="272pt" height="77pt"
 viewBox="0.00 0.00 272.00 77.00" xmlns="http://www.w3.org/2000/svg" xmlns:xlink="http://www.w3.org/1999/xlink">
<g id="graph0" class="graph" transform="scale(1 1) rotate(0) translate(4 73)">
<title>RigDef::Serializer::ProcessNode</title>
<polygon fill="white" stroke="none" points="-4,4 -4,-73 268,-73 268,4 -4,4"/>
<!-- Node1 -->
<g id="node1" class="node"><title>Node1</title>
<polygon fill="#bfbfbf" stroke="black" points="0,-22 0,-52 94,-52 94,-22 0,-22"/>
<text text-anchor="start" x="8" y="-40" font-family="Helvetica,sans-Serif" font-size="10.00">RigDef::Serializer</text>
<text text-anchor="middle" x="47" y="-29" font-family="Helvetica,sans-Serif" font-size="10.00">::ProcessNode</text>
</g>
<!-- Node2 -->
<g id="node2" class="node"><title>Node2</title>
<g id="a_node2"><a xlink:href="class_rig_def_1_1_node_1_1_id.html#a2e84af09c5b954252ed2af4a4bcfdeeb" target="_top" xlink:title="RigDef::Node::Id::ToString">
<polygon fill="white" stroke="black" points="130,-49.5 130,-68.5 264,-68.5 264,-49.5 130,-49.5"/>
<text text-anchor="middle" x="197" y="-56.5" font-family="Helvetica,sans-Serif" font-size="10.00">RigDef::Node::Id::ToString</text>
</a>
</g>
</g>
<!-- Node1&#45;&gt;Node2 -->
<g id="edge1" class="edge"><title>Node1&#45;&gt;Node2</title>
<path fill="none" stroke="midnightblue" d="M94.0168,-43.8403C102.96,-45.1697 112.542,-46.5941 122.122,-48.0181"/>
<polygon fill="midnightblue" stroke="midnightblue" points="121.671,-51.4895 132.077,-49.4979 122.7,-44.5655 121.671,-51.4895"/>
</g>
<!-- Node3 -->
<g id="node3" class="node"><title>Node3</title>
<g id="a_node3"><a xlink:href="class_rig_def_1_1_serializer.html#aa11d814db6fa5b7c1d3549641a432f06" target="_top" xlink:title="RigDef::Serializer\l::ProcessNodeOptions">
<polygon fill="white" stroke="black" points="139,-0 139,-30 255,-30 255,-0 139,-0"/>
<text text-anchor="start" x="147" y="-18" font-family="Helvetica,sans-Serif" font-size="10.00">RigDef::Serializer</text>
<text text-anchor="middle" x="197" y="-7" font-family="Helvetica,sans-Serif" font-size="10.00">::ProcessNodeOptions</text>
</a>
</g>
</g>
<!-- Node1&#45;&gt;Node3 -->
<g id="edge2" class="edge"><title>Node1&#45;&gt;Node3</title>
<path fill="none" stroke="midnightblue" d="M94.0168,-30.1597C104.977,-28.5304 116.898,-26.7584 128.597,-25.0194"/>
<polygon fill="midnightblue" stroke="midnightblue" points="129.414,-28.4364 138.791,-23.5041 128.385,-21.5125 129.414,-28.4364"/>
</g>
</g>
</svg>
