<?xml version="1.0" encoding="UTF-8" standalone="no"?>
<!DOCTYPE svg PUBLIC "-//W3C//DTD SVG 1.1//EN"
 "http://www.w3.org/Graphics/SVG/1.1/DTD/svg11.dtd">
<!-- Generated by graphviz version 2.36.0 (20140111.2315)
 -->
<!-- Title: RoR::BeamFactory::removeTruck Pages: 1 -->
<svg width="472pt" height="38pt"
 viewBox="0.00 0.00 472.00 38.00" xmlns="http://www.w3.org/2000/svg" xmlns:xlink="http://www.w3.org/1999/xlink">
<g id="graph0" class="graph" transform="scale(1 1) rotate(0) translate(4 34)">
<title>RoR::BeamFactory::removeTruck</title>
<polygon fill="white" stroke="none" points="-4,4 -4,-34 468,-34 468,4 -4,4"/>
<!-- Node1 -->
<g id="node1" class="node"><title>Node1</title>
<polygon fill="#bfbfbf" stroke="black" points="0,-0 0,-30 140,-30 140,-0 0,-0"/>
<text text-anchor="start" x="8" y="-18" font-family="Helvetica,sans-Serif" font-size="10.00">RoR::BeamFactory::remove</text>
<text text-anchor="middle" x="70" y="-7" font-family="Helvetica,sans-Serif" font-size="10.00">Truck</text>
</g>
<!-- Node2 -->
<g id="node2" class="node"><title>Node2</title>
<g id="a_node2"><a xlink:href="class_ro_r_1_1_beam_factory.html#aaff4dc9bb034a75b63059308fb7f8075" target="_top" xlink:title="RoR::BeamFactory::FindTruck\lInsideBox">
<polygon fill="white" stroke="black" points="176.5,-0 176.5,-30 327.5,-30 327.5,-0 176.5,-0"/>
<text text-anchor="start" x="184.5" y="-18" font-family="Helvetica,sans-Serif" font-size="10.00">RoR::BeamFactory::FindTruck</text>
<text text-anchor="middle" x="252" y="-7" font-family="Helvetica,sans-Serif" font-size="10.00">InsideBox</text>
</a>
</g>
</g>
<!-- Node1&#45;&gt;Node2 -->
<g id="edge1" class="edge"><title>Node1&#45;&gt;Node2</title>
<path fill="none" stroke="midnightblue" d="M140.078,-15C148.629,-15 157.447,-15 166.199,-15"/>
<polygon fill="midnightblue" stroke="midnightblue" points="166.423,-18.5001 176.423,-15 166.423,-11.5001 166.423,-18.5001"/>
</g>
<!-- Node3 -->
<g id="node3" class="node"><title>Node3</title>
<g id="a_node3"><a xlink:href="class_collisions.html#af4afe6b0f900dcf87cb6bd70e98be890" target="_top" xlink:title="Collisions::isInside">
<polygon fill="white" stroke="black" points="364.5,-5.5 364.5,-24.5 463.5,-24.5 463.5,-5.5 364.5,-5.5"/>
<text text-anchor="middle" x="414" y="-12.5" font-family="Helvetica,sans-Serif" font-size="10.00">Collisions::isInside</text>
</a>
</g>
</g>
<!-- Node2&#45;&gt;Node3 -->
<g id="edge2" class="edge"><title>Node2&#45;&gt;Node3</title>
<path fill="none" stroke="midnightblue" d="M327.847,-15C336.636,-15 345.508,-15 354.037,-15"/>
<polygon fill="midnightblue" stroke="midnightblue" points="354.241,-18.5001 364.241,-15 354.241,-11.5001 354.241,-18.5001"/>
</g>
</g>
</svg>
