<?xml version="1.0" encoding="UTF-8" standalone="no"?>
<!DOCTYPE svg PUBLIC "-//W3C//DTD SVG 1.1//EN"
 "http://www.w3.org/Graphics/SVG/1.1/DTD/svg11.dtd">
<!-- Generated by graphviz version 2.36.0 (20140111.2315)
 -->
<!-- Title: TorqueCurve::getEngineTorque Pages: 1 -->
<svg width="1274pt" height="96pt"
 viewBox="0.00 0.00 1274.00 96.00" xmlns="http://www.w3.org/2000/svg" xmlns:xlink="http://www.w3.org/1999/xlink">
<g id="graph0" class="graph" transform="scale(1 1) rotate(0) translate(4 92)">
<title>TorqueCurve::getEngineTorque</title>
<polygon fill="white" stroke="none" points="-4,4 -4,-92 1270,-92 1270,4 -4,4"/>
<!-- Node1 -->
<g id="node1" class="node"><title>Node1</title>
<polygon fill="#bfbfbf" stroke="black" points="0,-68.5 0,-87.5 152,-87.5 152,-68.5 0,-68.5"/>
<text text-anchor="middle" x="76" y="-75.5" font-family="Helvetica,sans-Serif" font-size="10.00">TorqueCurve::getEngineTorque</text>
</g>
<!-- Node2 -->
<g id="node2" class="node"><title>Node2</title>
<g id="a_node2"><a xlink:href="class_beam_engine.html#a8dd9a69eaf18df6ed1cc51491719e2d2" target="_top" xlink:title="BeamEngine::getEnginePower">
<polygon fill="white" stroke="black" points="188.5,-68.5 188.5,-87.5 337.5,-87.5 337.5,-68.5 188.5,-68.5"/>
<text text-anchor="middle" x="263" y="-75.5" font-family="Helvetica,sans-Serif" font-size="10.00">BeamEngine::getEnginePower</text>
</a>
</g>
</g>
<!-- Node1&#45;&gt;Node2 -->
<g id="edge1" class="edge"><title>Node1&#45;&gt;Node2</title>
<path fill="none" stroke="midnightblue" d="M162.366,-78C171.035,-78 179.788,-78 188.318,-78"/>
<polygon fill="midnightblue" stroke="midnightblue" points="162.247,-74.5001 152.247,-78 162.247,-81.5001 162.247,-74.5001"/>
</g>
<!-- Node3 -->
<g id="node3" class="node"><title>Node3</title>
<g id="a_node3"><a xlink:href="class_beam_engine.html#af63778678531a54f46691842a1015e72" target="_top" xlink:title="BeamEngine::update">
<polygon fill="white" stroke="black" points="769.5,-68.5 769.5,-87.5 876.5,-87.5 876.5,-68.5 769.5,-68.5"/>
<text text-anchor="middle" x="823" y="-75.5" font-family="Helvetica,sans-Serif" font-size="10.00">BeamEngine::update</text>
</a>
</g>
</g>
<!-- Node2&#45;&gt;Node3 -->
<g id="edge2" class="edge"><title>Node2&#45;&gt;Node3</title>
<path fill="none" stroke="midnightblue" d="M347.823,-78C464.39,-78 672.043,-78 769.173,-78"/>
<polygon fill="midnightblue" stroke="midnightblue" points="347.523,-74.5001 337.523,-78 347.523,-81.5001 347.523,-74.5001"/>
</g>
<!-- Node6 -->
<g id="node6" class="node"><title>Node6</title>
<g id="a_node6"><a xlink:href="class_beam_engine.html#ab44a19bd64049dcd338fcf6994e27f1d" target="_top" xlink:title="BeamEngine::getAccToHoldRPM">
<polygon fill="white" stroke="black" points="374.5,-49.5 374.5,-68.5 537.5,-68.5 537.5,-49.5 374.5,-49.5"/>
<text text-anchor="middle" x="456" y="-56.5" font-family="Helvetica,sans-Serif" font-size="10.00">BeamEngine::getAccToHoldRPM</text>
</a>
</g>
</g>
<!-- Node2&#45;&gt;Node6 -->
<g id="edge5" class="edge"><title>Node2&#45;&gt;Node6</title>
<path fill="none" stroke="midnightblue" d="M347.58,-69.6857C356.512,-68.7972 365.586,-67.8946 374.482,-67.0097"/>
<polygon fill="midnightblue" stroke="midnightblue" points="347.177,-66.2085 337.572,-70.6813 347.87,-73.1741 347.177,-66.2085"/>
</g>
<!-- Node4 -->
<g id="node4" class="node"><title>Node4</title>
<g id="a_node4"><a xlink:href="class_ro_r_1_1_beam_factory.html#a87e6c050f0af4ef2e39976749ac9762c" target="_top" xlink:title="RoR::BeamFactory::update">
<polygon fill="white" stroke="black" points="930.5,-68.5 930.5,-87.5 1067.5,-87.5 1067.5,-68.5 930.5,-68.5"/>
<text text-anchor="middle" x="999" y="-75.5" font-family="Helvetica,sans-Serif" font-size="10.00">RoR::BeamFactory::update</text>
</a>
</g>
</g>
<!-- Node3&#45;&gt;Node4 -->
<g id="edge3" class="edge"><title>Node3&#45;&gt;Node4</title>
<path fill="none" stroke="midnightblue" d="M886.794,-78C900.946,-78 916.026,-78 930.366,-78"/>
<polygon fill="midnightblue" stroke="midnightblue" points="886.678,-74.5001 876.678,-78 886.678,-81.5001 886.678,-74.5001"/>
</g>
<!-- Node5 -->
<g id="node5" class="node"><title>Node5</title>
<g id="a_node5"><a xlink:href="class_ro_r_frame_listener.html#acd8647e188fb8e838689492965b86faf" target="_top" xlink:title="RoRFrameListener::frameStarted">
<polygon fill="white" stroke="black" points="1104.5,-68.5 1104.5,-87.5 1265.5,-87.5 1265.5,-68.5 1104.5,-68.5"/>
<text text-anchor="middle" x="1185" y="-75.5" font-family="Helvetica,sans-Serif" font-size="10.00">RoRFrameListener::frameStarted</text>
</a>
</g>
</g>
<!-- Node4&#45;&gt;Node5 -->
<g id="edge4" class="edge"><title>Node4&#45;&gt;Node5</title>
<path fill="none" stroke="midnightblue" d="M1077.88,-78C1086.61,-78 1095.51,-78 1104.26,-78"/>
<polygon fill="midnightblue" stroke="midnightblue" points="1077.73,-74.5001 1067.73,-78 1077.73,-81.5001 1077.73,-74.5001"/>
</g>
<!-- Node7 -->
<g id="node7" class="node"><title>Node7</title>
<g id="a_node7"><a xlink:href="class_beam_engine.html#abdc4379a7db428debfe14d05972d808e" target="_top" xlink:title="BeamEngine::getIdleMixture">
<polygon fill="white" stroke="black" points="575,-49.5 575,-68.5 715,-68.5 715,-49.5 575,-49.5"/>
<text text-anchor="middle" x="645" y="-56.5" font-family="Helvetica,sans-Serif" font-size="10.00">BeamEngine::getIdleMixture</text>
</a>
</g>
</g>
<!-- Node6&#45;&gt;Node7 -->
<g id="edge6" class="edge"><title>Node6&#45;&gt;Node7</title>
<path fill="none" stroke="midnightblue" d="M547.848,-59C556.899,-59 565.982,-59 574.76,-59"/>
<polygon fill="midnightblue" stroke="midnightblue" points="547.662,-55.5001 537.662,-59 547.662,-62.5001 547.662,-55.5001"/>
</g>
<!-- Node8 -->
<g id="node8" class="node"><title>Node8</title>
<g id="a_node8"><a xlink:href="struct_ro_r_1_1_land_vehicle_simulation.html#a20e0e3bfb3deaa213ffb06d283ae81c8" target="_top" xlink:title="RoR::LandVehicleSimulation\l::UpdateCruiseControl">
<polygon fill="white" stroke="black" points="574,-0 574,-30 716,-30 716,-0 574,-0"/>
<text text-anchor="start" x="582" y="-18" font-family="Helvetica,sans-Serif" font-size="10.00">RoR::LandVehicleSimulation</text>
<text text-anchor="middle" x="645" y="-7" font-family="Helvetica,sans-Serif" font-size="10.00">::UpdateCruiseControl</text>
</a>
</g>
</g>
<!-- Node6&#45;&gt;Node8 -->
<g id="edge8" class="edge"><title>Node6&#45;&gt;Node8</title>
<path fill="none" stroke="midnightblue" d="M507.507,-47.116C529.816,-41.8669 556.298,-35.6358 579.972,-30.0654"/>
<polygon fill="midnightblue" stroke="midnightblue" points="506.509,-43.7552 497.576,-49.4527 508.112,-50.5691 506.509,-43.7552"/>
</g>
<!-- Node7&#45;&gt;Node3 -->
<g id="edge7" class="edge"><title>Node7&#45;&gt;Node3</title>
<path fill="none" stroke="midnightblue" d="M725.336,-67.5647C740.295,-69.1796 755.592,-70.8309 769.474,-72.3295"/>
<polygon fill="midnightblue" stroke="midnightblue" points="725.373,-64.0484 715.055,-66.4548 724.621,-71.0079 725.373,-64.0484"/>
</g>
<!-- Node9 -->
<g id="node9" class="node"><title>Node9</title>
<g id="a_node9"><a xlink:href="struct_ro_r_1_1_land_vehicle_simulation.html#a830e19b0460db3df601abe83096f78d7" target="_top" xlink:title="RoR::LandVehicleSimulation\l::UpdateVehicle">
<polygon fill="white" stroke="black" points="752,-0 752,-30 894,-30 894,-0 752,-0"/>
<text text-anchor="start" x="760" y="-18" font-family="Helvetica,sans-Serif" font-size="10.00">RoR::LandVehicleSimulation</text>
<text text-anchor="middle" x="823" y="-7" font-family="Helvetica,sans-Serif" font-size="10.00">::UpdateVehicle</text>
</a>
</g>
</g>
<!-- Node8&#45;&gt;Node9 -->
<g id="edge9" class="edge"><title>Node8&#45;&gt;Node9</title>
<path fill="none" stroke="midnightblue" d="M726.101,-15C734.706,-15 743.412,-15 751.888,-15"/>
<polygon fill="midnightblue" stroke="midnightblue" points="726.066,-11.5001 716.066,-15 726.066,-18.5001 726.066,-11.5001"/>
</g>
</g>
</svg>
