<?xml version="1.0" encoding="UTF-8" standalone="no"?>
<!DOCTYPE svg PUBLIC "-//W3C//DTD SVG 1.1//EN"
 "http://www.w3.org/Graphics/SVG/1.1/DTD/svg11.dtd">
<!-- Generated by graphviz version 2.36.0 (20140111.2315)
 -->
<!-- Title: DustPool::update Pages: 1 -->
<svg width="266pt" height="66pt"
 viewBox="0.00 0.00 266.00 66.00" xmlns="http://www.w3.org/2000/svg" xmlns:xlink="http://www.w3.org/1999/xlink">
<g id="graph0" class="graph" transform="scale(1 1) rotate(0) translate(4 62)">
<title>DustPool::update</title>
<polygon fill="white" stroke="none" points="-4,4 -4,-62 262,-62 262,4 -4,4"/>
<!-- Node1 -->
<g id="node1" class="node"><title>Node1</title>
<polygon fill="#bfbfbf" stroke="black" points="0,-19.5 0,-38.5 92,-38.5 92,-19.5 0,-19.5"/>
<text text-anchor="middle" x="46" y="-26.5" font-family="Helvetica,sans-Serif" font-size="10.00">DustPool::update</text>
</g>
<!-- Node2 -->
<g id="node2" class="node"><title>Node2</title>
<g id="a_node2"><a xlink:href="class_terrain_manager.html#a1d0227a71a4e114099797646ff6756b7" target="_top" xlink:title="TerrainManager::getWater">
<polygon fill="white" stroke="black" points="128,-38.5 128,-57.5 258,-57.5 258,-38.5 128,-38.5"/>
<text text-anchor="middle" x="193" y="-45.5" font-family="Helvetica,sans-Serif" font-size="10.00">TerrainManager::getWater</text>
</a>
</g>
</g>
<!-- Node1&#45;&gt;Node2 -->
<g id="edge1" class="edge"><title>Node1&#45;&gt;Node2</title>
<path fill="none" stroke="midnightblue" d="M92.0841,-34.9076C100.299,-35.984 109.064,-37.1326 117.862,-38.2854"/>
<polygon fill="midnightblue" stroke="midnightblue" points="117.411,-41.7561 127.781,-39.5851 118.32,-34.8154 117.411,-41.7561"/>
</g>
<!-- Node3 -->
<g id="node3" class="node"><title>Node3</title>
<g id="a_node3"><a xlink:href="class_i_water.html#ad2499255884025d55a940eb24ecd8e4d" target="_top" xlink:title="IWater::getHeight">
<polygon fill="white" stroke="black" points="146,-0.5 146,-19.5 240,-19.5 240,-0.5 146,-0.5"/>
<text text-anchor="middle" x="193" y="-7.5" font-family="Helvetica,sans-Serif" font-size="10.00">IWater::getHeight</text>
</a>
</g>
</g>
<!-- Node1&#45;&gt;Node3 -->
<g id="edge2" class="edge"><title>Node1&#45;&gt;Node3</title>
<path fill="none" stroke="midnightblue" d="M92.0841,-23.0924C105.865,-21.2867 121.196,-19.2778 135.628,-17.3866"/>
<polygon fill="midnightblue" stroke="midnightblue" points="136.483,-20.8046 145.944,-16.035 135.574,-13.864 136.483,-20.8046"/>
</g>
</g>
</svg>
