<?xml version="1.0" encoding="UTF-8" standalone="no"?>
<!DOCTYPE svg PUBLIC "-//W3C//DTD SVG 1.1//EN"
 "http://www.w3.org/Graphics/SVG/1.1/DTD/svg11.dtd">
<!-- Generated by graphviz version 2.36.0 (20140111.2315)
 -->
<!-- Title: GameScript::spawnObject Pages: 1 -->
<svg width="1162pt" height="774pt"
 viewBox="0.00 0.00 1162.00 774.20" xmlns="http://www.w3.org/2000/svg" xmlns:xlink="http://www.w3.org/1999/xlink">
<g id="graph0" class="graph" transform="scale(1 1) rotate(0) translate(4 770.201)">
<title>GameScript::spawnObject</title>
<polygon fill="white" stroke="none" points="-4,4 -4,-770.201 1158,-770.201 1158,4 -4,4"/>
<!-- Node1 -->
<g id="node1" class="node"><title>Node1</title>
<polygon fill="#bfbfbf" stroke="black" points="0.5,-294.5 0.5,-313.5 131.5,-313.5 131.5,-294.5 0.5,-294.5"/>
<text text-anchor="middle" x="66" y="-301.5" font-family="Helvetica,sans-Serif" font-size="10.00">GameScript::spawnObject</text>
</g>
<!-- Node2 -->
<g id="node2" class="node"><title>Node2</title>
<g id="a_node2"><a xlink:href="class_terrain_manager.html#a55891b7908baf6be96220a227596028c" target="_top" xlink:title="TerrainManager::getObject\lManager">
<polygon fill="white" stroke="black" points="168,-333 168,-363 300,-363 300,-333 168,-333"/>
<text text-anchor="start" x="176" y="-351" font-family="Helvetica,sans-Serif" font-size="10.00">TerrainManager::getObject</text>
<text text-anchor="middle" x="234" y="-340" font-family="Helvetica,sans-Serif" font-size="10.00">Manager</text>
</a>
</g>
</g>
<!-- Node1&#45;&gt;Node2 -->
<g id="edge1" class="edge"><title>Node1&#45;&gt;Node2</title>
<path fill="none" stroke="midnightblue" d="M103.02,-313.547C121.542,-318.457 144.72,-324.6 166.353,-330.335"/>
<polygon fill="midnightblue" stroke="midnightblue" points="165.6,-333.756 176.162,-332.935 167.393,-326.989 165.6,-333.756"/>
</g>
<!-- Node3 -->
<g id="node3" class="node"><title>Node3</title>
<g id="a_node3"><a xlink:href="class_game_script.html#a193b4c2a01585f6efe39e321122d933c" target="_top" xlink:title="GameScript::logFormat">
<polygon fill="white" stroke="black" points="175,-294.5 175,-313.5 293,-313.5 293,-294.5 175,-294.5"/>
<text text-anchor="middle" x="234" y="-301.5" font-family="Helvetica,sans-Serif" font-size="10.00">GameScript::logFormat</text>
</a>
</g>
</g>
<!-- Node1&#45;&gt;Node3 -->
<g id="edge2" class="edge"><title>Node1&#45;&gt;Node3</title>
<path fill="none" stroke="midnightblue" d="M131.655,-304C142.417,-304 153.613,-304 164.467,-304"/>
<polygon fill="midnightblue" stroke="midnightblue" points="164.745,-307.5 174.744,-304 164.744,-300.5 164.745,-307.5"/>
</g>
<!-- Node4 -->
<g id="node4" class="node"><title>Node4</title>
<g id="a_node4"><a xlink:href="class_terrain_object_manager.html#a62a108ad201e16585ab3115befedae60" target="_top" xlink:title="TerrainObjectManager\l::loadObject">
<polygon fill="white" stroke="black" points="177.5,-245 177.5,-275 290.5,-275 290.5,-245 177.5,-245"/>
<text text-anchor="start" x="185.5" y="-263" font-family="Helvetica,sans-Serif" font-size="10.00">TerrainObjectManager</text>
<text text-anchor="middle" x="234" y="-252" font-family="Helvetica,sans-Serif" font-size="10.00">::loadObject</text>
</a>
</g>
</g>
<!-- Node1&#45;&gt;Node4 -->
<g id="edge3" class="edge"><title>Node1&#45;&gt;Node4</title>
<path fill="none" stroke="midnightblue" d="M103.02,-294.453C121.873,-289.455 145.549,-283.18 167.511,-277.359"/>
<polygon fill="midnightblue" stroke="midnightblue" points="168.688,-280.667 177.458,-274.722 166.895,-273.901 168.688,-280.667"/>
</g>
<!-- Node5 -->
<g id="node5" class="node"><title>Node5</title>
<g id="a_node5"><a xlink:href="namespace_ro_r_1_1_app.html#ab3a56a250de7f20045e9aaa8f090e70f" target="_top" xlink:title="RoR::App::GetCacheSystem">
<polygon fill="white" stroke="black" points="345,-496.5 345,-515.5 489,-515.5 489,-496.5 345,-496.5"/>
<text text-anchor="middle" x="417" y="-503.5" font-family="Helvetica,sans-Serif" font-size="10.00">RoR::App::GetCacheSystem</text>
</a>
</g>
</g>
<!-- Node4&#45;&gt;Node5 -->
<g id="edge4" class="edge"><title>Node4&#45;&gt;Node5</title>
<path fill="none" stroke="midnightblue" d="M288.852,-275.195C293.03,-277.939 296.843,-281.178 300,-285 357.799,-354.97 274.037,-419.69 336,-486 337.628,-487.742 339.383,-489.343 341.241,-490.812"/>
<polygon fill="midnightblue" stroke="midnightblue" points="339.678,-493.969 349.979,-496.45 343.474,-488.087 339.678,-493.969"/>
</g>
<!-- Node6 -->
<g id="node6" class="node"><title>Node6</title>
<g id="a_node6"><a xlink:href="namespace_ro_r_1_1_utils.html#ac62ee4a4a513a67cba1bdc7d9eb9c7a4" target="_top" xlink:title="RoR::Utils::SanitizeUtf8\lString">
<polygon fill="white" stroke="black" points="355.5,-447 355.5,-477 478.5,-477 478.5,-447 355.5,-447"/>
<text text-anchor="start" x="363.5" y="-465" font-family="Helvetica,sans-Serif" font-size="10.00">RoR::Utils::SanitizeUtf8</text>
<text text-anchor="middle" x="417" y="-454" font-family="Helvetica,sans-Serif" font-size="10.00">String</text>
</a>
</g>
</g>
<!-- Node4&#45;&gt;Node6 -->
<g id="edge5" class="edge"><title>Node4&#45;&gt;Node6</title>
<path fill="none" stroke="midnightblue" d="M288.321,-275.185C292.665,-277.934 296.659,-281.176 300,-285 345.678,-337.281 288.666,-386.214 336,-437 339.097,-440.323 342.629,-443.208 346.443,-445.711"/>
<polygon fill="midnightblue" stroke="midnightblue" points="344.749,-448.773 355.184,-450.605 348.168,-442.666 344.749,-448.773"/>
</g>
<!-- Node20 -->
<g id="node20" class="node"><title>Node20</title>
<g id="a_node20"><a xlink:href="class_mesh_object.html#ab5d7575b61e5751d3e6dd6bb476c3d89" target="_top" xlink:title="MeshObject::getEntity">
<polygon fill="white" stroke="black" points="360,-408.5 360,-427.5 474,-427.5 474,-408.5 360,-408.5"/>
<text text-anchor="middle" x="417" y="-415.5" font-family="Helvetica,sans-Serif" font-size="10.00">MeshObject::getEntity</text>
</a>
</g>
</g>
<!-- Node4&#45;&gt;Node20 -->
<g id="edge25" class="edge"><title>Node4&#45;&gt;Node20</title>
<path fill="none" stroke="midnightblue" d="M287.349,-275.115C292.001,-277.883 296.33,-281.149 300,-285 335.196,-321.934 299.431,-358.425 336,-394 340.261,-398.146 345.21,-401.579 350.516,-404.422"/>
<polygon fill="midnightblue" stroke="midnightblue" points="349.179,-407.659 359.725,-408.67 352.111,-401.303 349.179,-407.659"/>
</g>
<!-- Node21 -->
<g id="node21" class="node"><title>Node21</title>
<g id="a_node21"><a xlink:href="class_collisions.html#a7840c7d5b2b56b4cc8f41778c0edb7a7" target="_top" xlink:title="Collisions::getGroundModel\lByString">
<polygon fill="white" stroke="black" points="541.5,-524 541.5,-554 678.5,-554 678.5,-524 541.5,-524"/>
<text text-anchor="start" x="549.5" y="-542" font-family="Helvetica,sans-Serif" font-size="10.00">Collisions::getGroundModel</text>
<text text-anchor="middle" x="610" y="-531" font-family="Helvetica,sans-Serif" font-size="10.00">ByString</text>
</a>
</g>
</g>
<!-- Node4&#45;&gt;Node21 -->
<g id="edge26" class="edge"><title>Node4&#45;&gt;Node21</title>
<path fill="none" stroke="midnightblue" d="M285.901,-275.055C291.006,-277.848 295.834,-281.136 300,-285 327.403,-310.416 306.924,-337.516 336,-361 393.532,-407.468 443.088,-349.463 498,-399 534.319,-431.763 501.445,-466.495 534,-503 539.666,-509.353 546.698,-514.689 554.167,-519.139"/>
<polygon fill="midnightblue" stroke="midnightblue" points="552.62,-522.282 563.08,-523.965 555.953,-516.126 552.62,-522.282"/>
</g>
<!-- Node22 -->
<g id="node22" class="node"><title>Node22</title>
<g id="a_node22"><a xlink:href="class_collisions.html#a3f2acd0249632458dd92a551210f83a1" target="_top" xlink:title="Collisions::loadGroundModels\lConfigFile">
<polygon fill="white" stroke="black" points="344,-245 344,-275 490,-275 490,-245 344,-245"/>
<text text-anchor="start" x="352" y="-263" font-family="Helvetica,sans-Serif" font-size="10.00">Collisions::loadGroundModels</text>
<text text-anchor="middle" x="417" y="-252" font-family="Helvetica,sans-Serif" font-size="10.00">ConfigFile</text>
</a>
</g>
</g>
<!-- Node4&#45;&gt;Node22 -->
<g id="edge27" class="edge"><title>Node4&#45;&gt;Node22</title>
<path fill="none" stroke="midnightblue" d="M290.783,-260C304.24,-260 318.904,-260 333.303,-260"/>
<polygon fill="midnightblue" stroke="midnightblue" points="333.719,-263.5 343.719,-260 333.719,-256.5 333.719,-263.5"/>
</g>
<!-- Node29 -->
<g id="node29" class="node"><title>Node29</title>
<g id="a_node29"><a xlink:href="class_collisions.html#a50cf1fc86be3b7e69b687256f6d5d1f3" target="_top" xlink:title="Collisions::addCollisionBox">
<polygon fill="white" stroke="black" points="349,-332.5 349,-351.5 485,-351.5 485,-332.5 349,-332.5"/>
<text text-anchor="middle" x="417" y="-339.5" font-family="Helvetica,sans-Serif" font-size="10.00">Collisions::addCollisionBox</text>
</a>
</g>
</g>
<!-- Node4&#45;&gt;Node29 -->
<g id="edge34" class="edge"><title>Node4&#45;&gt;Node29</title>
<path fill="none" stroke="midnightblue" d="M281.727,-275.039C288.098,-277.92 294.373,-281.234 300,-285 319.334,-297.939 315.843,-311.384 336,-323 339.861,-325.225 343.97,-327.19 348.21,-328.925"/>
<polygon fill="midnightblue" stroke="midnightblue" points="347.058,-332.231 357.652,-332.369 349.457,-325.655 347.058,-332.231"/>
</g>
<!-- Node38 -->
<g id="node38" class="node"><title>Node38</title>
<g id="a_node38"><a xlink:href="class_collisions.html#a285399f2b679c1d0b649b71aa805d5f3" target="_top" xlink:title="Collisions::addCollisionMesh">
<polygon fill="white" stroke="black" points="345.5,-294.5 345.5,-313.5 488.5,-313.5 488.5,-294.5 345.5,-294.5"/>
<text text-anchor="middle" x="417" y="-301.5" font-family="Helvetica,sans-Serif" font-size="10.00">Collisions::addCollisionMesh</text>
</a>
</g>
</g>
<!-- Node4&#45;&gt;Node38 -->
<g id="edge43" class="edge"><title>Node4&#45;&gt;Node38</title>
<path fill="none" stroke="midnightblue" d="M290.783,-273.56C315.141,-279.482 343.453,-286.364 366.989,-292.086"/>
<polygon fill="midnightblue" stroke="midnightblue" points="366.213,-295.499 376.757,-294.46 367.867,-288.697 366.213,-295.499"/>
</g>
<!-- Node41 -->
<g id="node41" class="node"><title>Node41</title>
<g id="a_node41"><a xlink:href="_write_text_to_texture_8cpp.html#a0f8e8600c38836cb142eb06efd10a397" target="_top" xlink:title="WriteToTexture">
<polygon fill="white" stroke="black" points="375,-206.5 375,-225.5 459,-225.5 459,-206.5 375,-206.5"/>
<text text-anchor="middle" x="417" y="-213.5" font-family="Helvetica,sans-Serif" font-size="10.00">WriteToTexture</text>
</a>
</g>
</g>
<!-- Node4&#45;&gt;Node41 -->
<g id="edge54" class="edge"><title>Node4&#45;&gt;Node41</title>
<path fill="none" stroke="midnightblue" d="M290.543,-246.151C305.31,-242.497 321.254,-238.576 336,-235 345.473,-232.703 355.584,-230.279 365.318,-227.96"/>
<polygon fill="midnightblue" stroke="midnightblue" points="366.365,-231.309 375.284,-225.591 364.746,-224.499 366.365,-231.309"/>
</g>
<!-- Node42 -->
<g id="node42" class="node"><title>Node42</title>
<g id="a_node42"><a xlink:href="class_survey_map_manager.html#a7af7a8d747001ee3749c4c0b97a32375" target="_top" xlink:title="SurveyMapManager::create\lMapEntity">
<polygon fill="white" stroke="black" points="348.5,-157 348.5,-187 485.5,-187 485.5,-157 348.5,-157"/>
<text text-anchor="start" x="356.5" y="-175" font-family="Helvetica,sans-Serif" font-size="10.00">SurveyMapManager::create</text>
<text text-anchor="middle" x="417" y="-164" font-family="Helvetica,sans-Serif" font-size="10.00">MapEntity</text>
</a>
</g>
</g>
<!-- Node4&#45;&gt;Node42 -->
<g id="edge55" class="edge"><title>Node4&#45;&gt;Node42</title>
<path fill="none" stroke="midnightblue" d="M255.781,-244.827C275.604,-230.901 306.699,-210.448 336,-197 340.959,-194.724 346.182,-192.578 351.485,-190.573"/>
<polygon fill="midnightblue" stroke="midnightblue" points="352.855,-193.8 361.077,-187.119 350.483,-187.214 352.855,-193.8"/>
</g>
<!-- Node43 -->
<g id="node43" class="node"><title>Node43</title>
<g id="a_node43"><a xlink:href="class_survey_map_entity.html#ad3cc1cb8f1e71f876290abb0eb004c05" target="_top" xlink:title="SurveyMapEntity::setVisibility">
<polygon fill="white" stroke="black" points="343,-118.5 343,-137.5 491,-137.5 491,-118.5 343,-118.5"/>
<text text-anchor="middle" x="417" y="-125.5" font-family="Helvetica,sans-Serif" font-size="10.00">SurveyMapEntity::setVisibility</text>
</a>
</g>
</g>
<!-- Node4&#45;&gt;Node43 -->
<g id="edge56" class="edge"><title>Node4&#45;&gt;Node43</title>
<path fill="none" stroke="midnightblue" d="M244.094,-244.893C259.69,-220.35 293.955,-172.049 336,-147 339.656,-144.822 343.546,-142.893 347.565,-141.186"/>
<polygon fill="midnightblue" stroke="midnightblue" points="349,-144.385 357.128,-137.589 346.536,-137.833 349,-144.385"/>
</g>
<!-- Node44 -->
<g id="node44" class="node"><title>Node44</title>
<g id="a_node44"><a xlink:href="class_survey_map_entity.html#a781ecb998f41521324088cd3ce66d9ce" target="_top" xlink:title="SurveyMapEntity::setPosition">
<polygon fill="white" stroke="black" points="344,-80.5 344,-99.5 490,-99.5 490,-80.5 344,-80.5"/>
<text text-anchor="middle" x="417" y="-87.5" font-family="Helvetica,sans-Serif" font-size="10.00">SurveyMapEntity::setPosition</text>
</a>
</g>
</g>
<!-- Node4&#45;&gt;Node44 -->
<g id="edge57" class="edge"><title>Node4&#45;&gt;Node44</title>
<path fill="none" stroke="midnightblue" d="M240.678,-244.817C252.999,-214.047 285.234,-144.272 336,-109 338.902,-106.984 341.99,-105.18 345.202,-103.567"/>
<polygon fill="midnightblue" stroke="midnightblue" points="346.758,-106.706 354.527,-99.5035 343.962,-100.289 346.758,-106.706"/>
</g>
<!-- Node45 -->
<g id="node45" class="node"><title>Node45</title>
<g id="a_node45"><a xlink:href="class_survey_map_entity.html#a23640d7a462102b43b62b44204a99a2d" target="_top" xlink:title="SurveyMapEntity::setRotation">
<polygon fill="white" stroke="black" points="343,-42.5 343,-61.5 491,-61.5 491,-42.5 343,-42.5"/>
<text text-anchor="middle" x="417" y="-49.5" font-family="Helvetica,sans-Serif" font-size="10.00">SurveyMapEntity::setRotation</text>
</a>
</g>
</g>
<!-- Node4&#45;&gt;Node45 -->
<g id="edge58" class="edge"><title>Node4&#45;&gt;Node45</title>
<path fill="none" stroke="midnightblue" d="M238.503,-244.98C247.722,-208.932 276.18,-117.102 336,-71 338.332,-69.2027 340.808,-67.5718 343.388,-66.0919"/>
<polygon fill="midnightblue" stroke="midnightblue" points="345.073,-69.164 352.513,-61.6208 341.993,-62.8781 345.073,-69.164"/>
</g>
<!-- Node46 -->
<g id="node46" class="node"><title>Node46</title>
<g id="a_node46"><a xlink:href="class_survey_map_entity.html#a5515fd4276cea4c35f2a1e33c2f7c2a8" target="_top" xlink:title="SurveyMapEntity::setDescription">
<polygon fill="white" stroke="black" points="336.5,-4.5 336.5,-23.5 497.5,-23.5 497.5,-4.5 336.5,-4.5"/>
<text text-anchor="middle" x="417" y="-11.5" font-family="Helvetica,sans-Serif" font-size="10.00">SurveyMapEntity::setDescription</text>
</a>
</g>
</g>
<!-- Node4&#45;&gt;Node46 -->
<g id="edge59" class="edge"><title>Node4&#45;&gt;Node46</title>
<path fill="none" stroke="midnightblue" d="M237.085,-244.799C243.546,-203.793 267.123,-90.157 336,-33 338.019,-31.3249 340.16,-29.7924 342.395,-28.3907"/>
<polygon fill="midnightblue" stroke="midnightblue" points="344.227,-31.3808 351.426,-23.6071 340.951,-25.195 344.227,-31.3808"/>
</g>
<!-- Node7 -->
<g id="node7" class="node"><title>Node7</title>
<g id="a_node7"><a xlink:href="namespaceutf8.html#a07dcd36a2185e5c9f0b19dd88859cd6c" target="_top" xlink:title="utf8::replace_invalid">
<polygon fill="white" stroke="black" points="558,-573.5 558,-592.5 662,-592.5 662,-573.5 558,-573.5"/>
<text text-anchor="middle" x="610" y="-580.5" font-family="Helvetica,sans-Serif" font-size="10.00">utf8::replace_invalid</text>
</a>
</g>
</g>
<!-- Node6&#45;&gt;Node7 -->
<g id="edge6" class="edge"><title>Node6&#45;&gt;Node7</title>
<path fill="none" stroke="midnightblue" d="M478.56,-474.867C485.598,-478.056 492.29,-482.035 498,-487 526.206,-511.523 505.282,-539.079 534,-563 538.271,-566.558 543.113,-569.488 548.231,-571.901"/>
<polygon fill="midnightblue" stroke="midnightblue" points="547.095,-575.217 557.678,-575.709 549.712,-568.724 547.095,-575.217"/>
</g>
<!-- Node8 -->
<g id="node8" class="node"><title>Node8</title>
<g id="a_node8"><a xlink:href="namespaceutf8_1_1internal.html#abe95547575fcc81911e381df03f8ebfe" target="_top" xlink:title="utf8::internal::validate_next">
<polygon fill="white" stroke="black" points="722,-573.5 722,-592.5 856,-592.5 856,-573.5 722,-573.5"/>
<text text-anchor="middle" x="789" y="-580.5" font-family="Helvetica,sans-Serif" font-size="10.00">utf8::internal::validate_next</text>
</a>
</g>
</g>
<!-- Node7&#45;&gt;Node8 -->
<g id="edge7" class="edge"><title>Node7&#45;&gt;Node8</title>
<path fill="none" stroke="midnightblue" d="M662.196,-583C677.584,-583 694.814,-583 711.468,-583"/>
<polygon fill="midnightblue" stroke="midnightblue" points="711.742,-586.5 721.742,-583 711.742,-579.5 711.742,-586.5"/>
</g>
<!-- Node18 -->
<g id="node18" class="node"><title>Node18</title>
<g id="a_node18"><a xlink:href="namespaceutf8.html#a3827e78596fc38cfdebd721e9c45c901" target="_top" xlink:title="The library API &#45; functions intended to be called by the users. ">
<polygon fill="white" stroke="black" points="753.5,-480.5 753.5,-499.5 824.5,-499.5 824.5,-480.5 753.5,-480.5"/>
<text text-anchor="middle" x="789" y="-487.5" font-family="Helvetica,sans-Serif" font-size="10.00">utf8::append</text>
</a>
</g>
</g>
<!-- Node7&#45;&gt;Node18 -->
<g id="edge21" class="edge"><title>Node7&#45;&gt;Node18</title>
<path fill="none" stroke="midnightblue" d="M657.148,-573.5C666.91,-570.722 676.981,-567.256 686,-563 717.909,-547.943 750.285,-522.704 769.755,-506.203"/>
<polygon fill="midnightblue" stroke="midnightblue" points="772.224,-508.695 777.508,-499.512 767.651,-503.396 772.224,-508.695"/>
</g>
<!-- Node19 -->
<g id="node19" class="node"><title>Node19</title>
<g id="a_node19"><a xlink:href="namespaceutf8_1_1internal.html#ab4820484159ba613b4901476ceb24516" target="_top" xlink:title="utf8::internal::is\l_trail">
<polygon fill="white" stroke="black" points="747,-685 747,-715 831,-715 831,-685 747,-685"/>
<text text-anchor="start" x="755" y="-703" font-family="Helvetica,sans-Serif" font-size="10.00">utf8::internal::is</text>
<text text-anchor="middle" x="789" y="-692" font-family="Helvetica,sans-Serif" font-size="10.00">_trail</text>
</a>
</g>
</g>
<!-- Node7&#45;&gt;Node19 -->
<g id="edge23" class="edge"><title>Node7&#45;&gt;Node19</title>
<path fill="none" stroke="midnightblue" d="M625.485,-592.575C653.919,-611.37 717.63,-653.484 756.296,-679.043"/>
<polygon fill="midnightblue" stroke="midnightblue" points="754.809,-682.256 765.081,-684.85 758.669,-676.416 754.809,-682.256"/>
</g>
<!-- Node9 -->
<g id="node9" class="node"><title>Node9</title>
<g id="a_node9"><a xlink:href="namespaceutf8_1_1internal.html#aadbe437cba7bfcc4df2638f633e9787c" target="_top" xlink:title="utf8::internal::sequence\l_length">
<polygon fill="white" stroke="black" points="892.5,-568 892.5,-598 1011.5,-598 1011.5,-568 892.5,-568"/>
<text text-anchor="start" x="900.5" y="-586" font-family="Helvetica,sans-Serif" font-size="10.00">utf8::internal::sequence</text>
<text text-anchor="middle" x="952" y="-575" font-family="Helvetica,sans-Serif" font-size="10.00">_length</text>
</a>
</g>
</g>
<!-- Node8&#45;&gt;Node9 -->
<g id="edge8" class="edge"><title>Node8&#45;&gt;Node9</title>
<path fill="none" stroke="midnightblue" d="M856.414,-583C865.006,-583 873.819,-583 882.444,-583"/>
<polygon fill="midnightblue" stroke="midnightblue" points="882.459,-586.5 892.459,-583 882.459,-579.5 882.459,-586.5"/>
</g>
<!-- Node11 -->
<g id="node11" class="node"><title>Node11</title>
<g id="a_node11"><a xlink:href="namespaceutf8_1_1internal.html#a6e5df73716136aec55e8fcf3309038b6" target="_top" xlink:title="get_sequence_x functions decode utf&#45;8 sequences of the length x ">
<polygon fill="white" stroke="black" points="907,-519 907,-549 997,-549 997,-519 907,-519"/>
<text text-anchor="start" x="915" y="-537" font-family="Helvetica,sans-Serif" font-size="10.00">utf8::internal::get</text>
<text text-anchor="middle" x="952" y="-526" font-family="Helvetica,sans-Serif" font-size="10.00">_sequence_1</text>
</a>
</g>
</g>
<!-- Node8&#45;&gt;Node11 -->
<g id="edge10" class="edge"><title>Node8&#45;&gt;Node11</title>
<path fill="none" stroke="midnightblue" d="M821.425,-573.436C842.914,-566.896 871.949,-558.059 897.087,-550.408"/>
<polygon fill="midnightblue" stroke="midnightblue" points="898.317,-553.693 906.865,-547.432 896.279,-546.996 898.317,-553.693"/>
</g>
<!-- Node12 -->
<g id="node12" class="node"><title>Node12</title>
<g id="a_node12"><a xlink:href="namespaceutf8_1_1internal.html#a9d641b9546be985f9f0fd4955ac42a24" target="_top" xlink:title="utf8::internal::get\l_sequence_2">
<polygon fill="white" stroke="black" points="907,-470 907,-500 997,-500 997,-470 907,-470"/>
<text text-anchor="start" x="915" y="-488" font-family="Helvetica,sans-Serif" font-size="10.00">utf8::internal::get</text>
<text text-anchor="middle" x="952" y="-477" font-family="Helvetica,sans-Serif" font-size="10.00">_sequence_2</text>
</a>
</g>
</g>
<!-- Node8&#45;&gt;Node12 -->
<g id="edge12" class="edge"><title>Node8&#45;&gt;Node12</title>
<path fill="none" stroke="midnightblue" d="M801.672,-573.332C820.054,-558.418 857.24,-529.488 892,-510 895.449,-508.066 899.078,-506.187 902.771,-504.385"/>
<polygon fill="midnightblue" stroke="midnightblue" points="904.427,-507.475 912.012,-500.078 901.47,-501.13 904.427,-507.475"/>
</g>
<!-- Node13 -->
<g id="node13" class="node"><title>Node13</title>
<g id="a_node13"><a xlink:href="namespaceutf8_1_1internal.html#ac1809a1fb3fa6983d64a0d3a39646008" target="_top" xlink:title="utf8::internal::get\l_sequence_3">
<polygon fill="white" stroke="black" points="907,-715 907,-745 997,-745 997,-715 907,-715"/>
<text text-anchor="start" x="915" y="-733" font-family="Helvetica,sans-Serif" font-size="10.00">utf8::internal::get</text>
<text text-anchor="middle" x="952" y="-722" font-family="Helvetica,sans-Serif" font-size="10.00">_sequence_3</text>
</a>
</g>
</g>
<!-- Node8&#45;&gt;Node13 -->
<g id="edge14" class="edge"><title>Node8&#45;&gt;Node13</title>
<path fill="none" stroke="midnightblue" d="M795.719,-592.564C809.588,-615.035 847.189,-671.802 892,-705 894.346,-706.738 896.832,-708.383 899.404,-709.935"/>
<polygon fill="midnightblue" stroke="midnightblue" points="897.947,-713.128 908.4,-714.856 901.306,-706.987 897.947,-713.128"/>
</g>
<!-- Node14 -->
<g id="node14" class="node"><title>Node14</title>
<g id="a_node14"><a xlink:href="namespaceutf8_1_1internal.html#ad1958e7c6746ba6b1fbb0d81b88b346c" target="_top" xlink:title="utf8::internal::get\l_sequence_4">
<polygon fill="white" stroke="black" points="907,-666 907,-696 997,-696 997,-666 907,-666"/>
<text text-anchor="start" x="915" y="-684" font-family="Helvetica,sans-Serif" font-size="10.00">utf8::internal::get</text>
<text text-anchor="middle" x="952" y="-673" font-family="Helvetica,sans-Serif" font-size="10.00">_sequence_4</text>
</a>
</g>
</g>
<!-- Node8&#45;&gt;Node14 -->
<g id="edge16" class="edge"><title>Node8&#45;&gt;Node14</title>
<path fill="none" stroke="midnightblue" d="M801.672,-592.668C820.054,-607.582 857.24,-636.512 892,-656 895.449,-657.934 899.078,-659.813 902.771,-661.615"/>
<polygon fill="midnightblue" stroke="midnightblue" points="901.47,-664.87 912.012,-665.922 904.427,-658.525 901.47,-664.87"/>
</g>
<!-- Node15 -->
<g id="node15" class="node"><title>Node15</title>
<g id="a_node15"><a xlink:href="namespaceutf8_1_1internal.html#a97b553137aaeda6e8ca6f8d46f78fd79" target="_top" xlink:title="utf8::internal::is\l_code_point_valid">
<polygon fill="white" stroke="black" points="904.5,-421 904.5,-451 999.5,-451 999.5,-421 904.5,-421"/>
<text text-anchor="start" x="912.5" y="-439" font-family="Helvetica,sans-Serif" font-size="10.00">utf8::internal::is</text>
<text text-anchor="middle" x="952" y="-428" font-family="Helvetica,sans-Serif" font-size="10.00">_code_point_valid</text>
</a>
</g>
</g>
<!-- Node8&#45;&gt;Node15 -->
<g id="edge18" class="edge"><title>Node8&#45;&gt;Node15</title>
<path fill="none" stroke="midnightblue" d="M799.242,-573.181C812.265,-559.226 836.592,-532.712 856,-509 872.89,-488.364 871,-477.435 892,-461 894.259,-459.232 896.661,-457.567 899.154,-456.002"/>
<polygon fill="midnightblue" stroke="midnightblue" points="900.922,-459.023 907.911,-451.06 897.482,-452.927 900.922,-459.023"/>
</g>
<!-- Node17 -->
<g id="node17" class="node"><title>Node17</title>
<g id="a_node17"><a xlink:href="namespaceutf8_1_1internal.html#a3160f6f24dff465f64f83cb0e66995c6" target="_top" xlink:title="utf8::internal::is\l_overlong_sequence">
<polygon fill="white" stroke="black" points="899,-617 899,-647 1005,-647 1005,-617 899,-617"/>
<text text-anchor="start" x="907" y="-635" font-family="Helvetica,sans-Serif" font-size="10.00">utf8::internal::is</text>
<text text-anchor="middle" x="952" y="-624" font-family="Helvetica,sans-Serif" font-size="10.00">_overlong_sequence</text>
</a>
</g>
</g>
<!-- Node8&#45;&gt;Node17 -->
<g id="edge20" class="edge"><title>Node8&#45;&gt;Node17</title>
<path fill="none" stroke="midnightblue" d="M821.425,-592.564C841.452,-598.659 868.032,-606.749 891.904,-614.014"/>
<polygon fill="midnightblue" stroke="midnightblue" points="891.007,-617.4 901.593,-616.963 893.045,-610.703 891.007,-617.4"/>
</g>
<!-- Node10 -->
<g id="node10" class="node"><title>Node10</title>
<g id="a_node10"><a xlink:href="namespaceutf8_1_1internal.html#adf6e0469e279b9562aa461b4c3c1e7e4" target="_top" xlink:title="utf8::internal::mask8">
<polygon fill="white" stroke="black" points="1048,-622.5 1048,-641.5 1154,-641.5 1154,-622.5 1048,-622.5"/>
<text text-anchor="middle" x="1101" y="-629.5" font-family="Helvetica,sans-Serif" font-size="10.00">utf8::internal::mask8</text>
</a>
</g>
</g>
<!-- Node9&#45;&gt;Node10 -->
<g id="edge9" class="edge"><title>Node9&#45;&gt;Node10</title>
<path fill="none" stroke="midnightblue" d="M998.304,-598.101C1018.56,-604.854 1042.19,-612.73 1061.57,-619.189"/>
<polygon fill="midnightblue" stroke="midnightblue" points="1060.68,-622.583 1071.27,-622.425 1062.89,-615.942 1060.68,-622.583"/>
</g>
<!-- Node11&#45;&gt;Node10 -->
<g id="edge11" class="edge"><title>Node11&#45;&gt;Node10</title>
<path fill="none" stroke="midnightblue" d="M993.143,-549.134C999.609,-552.1 1006.11,-555.415 1012,-559 1038.81,-575.316 1066.08,-599.327 1083,-615.303"/>
<polygon fill="midnightblue" stroke="midnightblue" points="1080.8,-618.035 1090.44,-622.43 1085.64,-612.983 1080.8,-618.035"/>
</g>
<!-- Node12&#45;&gt;Node10 -->
<g id="edge13" class="edge"><title>Node12&#45;&gt;Node10</title>
<path fill="none" stroke="midnightblue" d="M996.46,-500.135C1001.96,-502.976 1007.3,-506.254 1012,-510 1048.57,-539.171 1077.04,-587.246 1090.85,-613.491"/>
<polygon fill="midnightblue" stroke="midnightblue" points="1087.74,-615.09 1095.41,-622.396 1093.97,-611.9 1087.74,-615.09"/>
</g>
<!-- Node13&#45;&gt;Node10 -->
<g id="edge15" class="edge"><title>Node13&#45;&gt;Node10</title>
<path fill="none" stroke="midnightblue" d="M993.143,-714.866C999.609,-711.9 1006.11,-708.585 1012,-705 1038.81,-688.684 1066.08,-664.673 1083,-648.697"/>
<polygon fill="midnightblue" stroke="midnightblue" points="1085.64,-651.017 1090.44,-641.57 1080.8,-645.965 1085.64,-651.017"/>
</g>
<!-- Node14&#45;&gt;Node10 -->
<g id="edge17" class="edge"><title>Node14&#45;&gt;Node10</title>
<path fill="none" stroke="midnightblue" d="M997.105,-666.298C1017.65,-659.45 1041.87,-651.378 1061.64,-644.786"/>
<polygon fill="midnightblue" stroke="midnightblue" points="1062.87,-648.067 1071.25,-641.584 1060.65,-641.426 1062.87,-648.067"/>
</g>
<!-- Node16 -->
<g id="node16" class="node"><title>Node16</title>
<g id="a_node16"><a xlink:href="namespaceutf8_1_1internal.html#a31a185a6bc8b9bf454191a8a95a93595" target="_top" xlink:title="utf8::internal::is\l_surrogate">
<polygon fill="white" stroke="black" points="1059,-421 1059,-451 1143,-451 1143,-421 1059,-421"/>
<text text-anchor="start" x="1067" y="-439" font-family="Helvetica,sans-Serif" font-size="10.00">utf8::internal::is</text>
<text text-anchor="middle" x="1101" y="-428" font-family="Helvetica,sans-Serif" font-size="10.00">_surrogate</text>
</a>
</g>
</g>
<!-- Node15&#45;&gt;Node16 -->
<g id="edge19" class="edge"><title>Node15&#45;&gt;Node16</title>
<path fill="none" stroke="midnightblue" d="M999.512,-436C1015.11,-436 1032.58,-436 1048.53,-436"/>
<polygon fill="midnightblue" stroke="midnightblue" points="1048.76,-439.5 1058.76,-436 1048.76,-432.5 1048.76,-439.5"/>
</g>
<!-- Node18&#45;&gt;Node15 -->
<g id="edge22" class="edge"><title>Node18&#45;&gt;Node15</title>
<path fill="none" stroke="midnightblue" d="M818.413,-480.47C839.946,-473.248 870.192,-463.103 896.359,-454.327"/>
<polygon fill="midnightblue" stroke="midnightblue" points="897.794,-457.537 906.162,-451.039 895.568,-450.901 897.794,-457.537"/>
</g>
<!-- Node19&#45;&gt;Node10 -->
<g id="edge24" class="edge"><title>Node19&#45;&gt;Node10</title>
<path fill="none" stroke="midnightblue" d="M812.299,-715.146C853.7,-741.219 944.379,-788.601 1012,-754 1054.26,-732.375 1080.87,-679.949 1092.75,-651.366"/>
<polygon fill="midnightblue" stroke="midnightblue" points="1096.16,-652.279 1096.59,-641.693 1089.65,-649.7 1096.16,-652.279"/>
</g>
<!-- Node23 -->
<g id="node23" class="node"><title>Node23</title>
<g id="a_node23"><a xlink:href="struct_error_utils.html#aec73b03c7829838888bbecf9acda1b98" target="_top" xlink:title="ErrorUtils::ShowError">
<polygon fill="white" stroke="black" points="555,-0.5 555,-19.5 665,-19.5 665,-0.5 555,-0.5"/>
<text text-anchor="middle" x="610" y="-7.5" font-family="Helvetica,sans-Serif" font-size="10.00">ErrorUtils::ShowError</text>
</a>
</g>
</g>
<!-- Node22&#45;&gt;Node23 -->
<g id="edge28" class="edge"><title>Node22&#45;&gt;Node23</title>
<path fill="none" stroke="midnightblue" d="M486.411,-244.831C490.703,-242.075 494.64,-238.827 498,-235 559.317,-165.153 470.793,-97.1417 534,-29 537.363,-25.3748 541.309,-22.3992 545.602,-19.9616"/>
<polygon fill="midnightblue" stroke="midnightblue" points="547.229,-23.0648 554.824,-15.6774 544.28,-16.7165 547.229,-23.0648"/>
</g>
<!-- Node25 -->
<g id="node25" class="node"><title>Node25</title>
<g id="a_node25"><a xlink:href="class_collisions.html#aaa893c509f9b9b77459d50e3bef2c6ff" target="_top" xlink:title="Collisions::parseGroundConfig">
<polygon fill="white" stroke="black" points="535.5,-76.5 535.5,-95.5 684.5,-95.5 684.5,-76.5 535.5,-76.5"/>
<text text-anchor="middle" x="610" y="-83.5" font-family="Helvetica,sans-Serif" font-size="10.00">Collisions::parseGroundConfig</text>
</a>
</g>
</g>
<!-- Node22&#45;&gt;Node25 -->
<g id="edge30" class="edge"><title>Node22&#45;&gt;Node25</title>
<path fill="none" stroke="midnightblue" d="M485.249,-244.91C489.923,-242.142 494.256,-238.869 498,-235 539.693,-191.919 491.143,-146.923 534,-105 535.476,-103.556 537.046,-102.217 538.692,-100.975"/>
<polygon fill="midnightblue" stroke="midnightblue" points="540.816,-103.777 547.485,-95.5452 537.138,-97.8212 540.816,-103.777"/>
</g>
<!-- Node28 -->
<g id="node28" class="node"><title>Node28</title>
<g id="a_node28"><a xlink:href="namespace_profiler.html#af79bb59414ef3ba134213bb6f2f2d292" target="_top" xlink:title="Profiler::exit">
<polygon fill="white" stroke="black" points="575.5,-38.5 575.5,-57.5 644.5,-57.5 644.5,-38.5 575.5,-38.5"/>
<text text-anchor="middle" x="610" y="-45.5" font-family="Helvetica,sans-Serif" font-size="10.00">Profiler::exit</text>
</a>
</g>
</g>
<!-- Node22&#45;&gt;Node28 -->
<g id="edge33" class="edge"><title>Node22&#45;&gt;Node28</title>
<path fill="none" stroke="midnightblue" d="M485.877,-244.919C490.35,-242.146 494.47,-238.87 498,-235 549.462,-178.584 481.013,-121.986 534,-67 542.218,-58.4719 553.672,-53.5644 565.158,-50.7952"/>
<polygon fill="midnightblue" stroke="midnightblue" points="566.017,-54.1943 575.18,-48.8748 564.7,-47.3194 566.017,-54.1943"/>
</g>
<!-- Node24 -->
<g id="node24" class="node"><title>Node24</title>
<g id="a_node24"><a xlink:href="struct_error_utils.html#a3250a36825c8b55b26d1565addb7e922" target="_top" xlink:title="ErrorUtils::ShowMsgBox">
<polygon fill="white" stroke="black" points="726.5,-0.5 726.5,-19.5 851.5,-19.5 851.5,-0.5 726.5,-0.5"/>
<text text-anchor="middle" x="789" y="-7.5" font-family="Helvetica,sans-Serif" font-size="10.00">ErrorUtils::ShowMsgBox</text>
</a>
</g>
</g>
<!-- Node23&#45;&gt;Node24 -->
<g id="edge29" class="edge"><title>Node23&#45;&gt;Node24</title>
<path fill="none" stroke="midnightblue" d="M665.068,-10C681.064,-10 698.838,-10 715.787,-10"/>
<polygon fill="midnightblue" stroke="midnightblue" points="716.211,-13.5001 726.21,-10 716.21,-6.5001 716.211,-13.5001"/>
</g>
<!-- Node26 -->
<g id="node26" class="node"><title>Node26</title>
<g id="a_node26"><a xlink:href="scriptstdstring_8cpp.html#ab33d705eee9afd65e8991f82d9c71fe3" target="_top" xlink:title="parseInt">
<polygon fill="white" stroke="black" points="763,-76.5 763,-95.5 815,-95.5 815,-76.5 763,-76.5"/>
<text text-anchor="middle" x="789" y="-83.5" font-family="Helvetica,sans-Serif" font-size="10.00">parseInt</text>
</a>
</g>
</g>
<!-- Node25&#45;&gt;Node26 -->
<g id="edge31" class="edge"><title>Node25&#45;&gt;Node26</title>
<path fill="none" stroke="midnightblue" d="M684.526,-86C708.088,-86 733.107,-86 752.641,-86"/>
<polygon fill="midnightblue" stroke="midnightblue" points="752.885,-89.5001 762.885,-86 752.885,-82.5001 752.885,-89.5001"/>
</g>
<!-- Node27 -->
<g id="node27" class="node"><title>Node27</title>
<g id="a_node27"><a xlink:href="_approx_math_8h.html#ad685178dbcfdd207c7306561512e1582" target="_top" xlink:title="sign">
<polygon fill="white" stroke="black" points="934.5,-76.5 934.5,-95.5 969.5,-95.5 969.5,-76.5 934.5,-76.5"/>
<text text-anchor="middle" x="952" y="-83.5" font-family="Helvetica,sans-Serif" font-size="10.00">sign</text>
</a>
</g>
</g>
<!-- Node26&#45;&gt;Node27 -->
<g id="edge32" class="edge"><title>Node26&#45;&gt;Node27</title>
<path fill="none" stroke="midnightblue" d="M815.156,-86C844.773,-86 893.76,-86 924.109,-86"/>
<polygon fill="midnightblue" stroke="midnightblue" points="924.377,-89.5001 934.377,-86 924.377,-82.5001 924.377,-89.5001"/>
</g>
<!-- Node30 -->
<g id="node30" class="node"><title>Node30</title>
<g id="a_node30"><a xlink:href="class_ogre_1_1_movable_text.html#aed27a49ecadb3905afb7b5de4409d799" target="_top" xlink:title="Ogre::MovableText::\lsetFontName">
<polygon fill="white" stroke="black" points="557,-338 557,-368 663,-368 663,-338 557,-338"/>
<text text-anchor="start" x="565" y="-356" font-family="Helvetica,sans-Serif" font-size="10.00">Ogre::MovableText::</text>
<text text-anchor="middle" x="610" y="-345" font-family="Helvetica,sans-Serif" font-size="10.00">setFontName</text>
</a>
</g>
</g>
<!-- Node29&#45;&gt;Node30 -->
<g id="edge35" class="edge"><title>Node29&#45;&gt;Node30</title>
<path fill="none" stroke="midnightblue" d="M485.071,-345.863C505.117,-347.017 527.002,-348.278 546.726,-349.414"/>
<polygon fill="midnightblue" stroke="midnightblue" points="546.638,-352.914 556.823,-349.995 547.041,-345.926 546.638,-352.914"/>
</g>
<!-- Node31 -->
<g id="node31" class="node"><title>Node31</title>
<g id="a_node31"><a xlink:href="class_ogre_1_1_movable_text.html#a8fc0b2d13ba89695e53152ad1c435306" target="_top" xlink:title="Ogre::MovableText::\lsetTextAlignment">
<polygon fill="white" stroke="black" points="557,-289 557,-319 663,-319 663,-289 557,-289"/>
<text text-anchor="start" x="565" y="-307" font-family="Helvetica,sans-Serif" font-size="10.00">Ogre::MovableText::</text>
<text text-anchor="middle" x="610" y="-296" font-family="Helvetica,sans-Serif" font-size="10.00">setTextAlignment</text>
</a>
</g>
</g>
<!-- Node29&#45;&gt;Node31 -->
<g id="edge36" class="edge"><title>Node29&#45;&gt;Node31</title>
<path fill="none" stroke="midnightblue" d="M466.197,-332.411C490.696,-327.537 520.75,-321.558 546.957,-316.344"/>
<polygon fill="midnightblue" stroke="midnightblue" points="547.668,-319.771 556.793,-314.387 546.302,-312.905 547.668,-319.771"/>
</g>
<!-- Node32 -->
<g id="node32" class="node"><title>Node32</title>
<g id="a_node32"><a xlink:href="class_ogre_1_1_movable_text.html#a0e4f2340efd854e591e07fb4bebcbeaa" target="_top" xlink:title="Ogre::MovableText::\lsetAdditionalHeight">
<polygon fill="white" stroke="black" points="557,-240 557,-270 663,-270 663,-240 557,-240"/>
<text text-anchor="start" x="565" y="-258" font-family="Helvetica,sans-Serif" font-size="10.00">Ogre::MovableText::</text>
<text text-anchor="middle" x="610" y="-247" font-family="Helvetica,sans-Serif" font-size="10.00">setAdditionalHeight</text>
</a>
</g>
</g>
<!-- Node29&#45;&gt;Node32 -->
<g id="edge37" class="edge"><title>Node29&#45;&gt;Node32</title>
<path fill="none" stroke="midnightblue" d="M477.409,-332.467C484.635,-330.003 491.685,-326.902 498,-323 519.203,-309.898 513.397,-294.027 534,-280 538.217,-277.129 542.791,-274.564 547.529,-272.278"/>
<polygon fill="midnightblue" stroke="midnightblue" points="549.039,-275.437 556.792,-268.216 546.228,-269.027 549.039,-275.437"/>
</g>
<!-- Node33 -->
<g id="node33" class="node"><title>Node33</title>
<g id="a_node33"><a xlink:href="class_ogre_1_1_movable_text.html#a88bb2321dd352795dfeff306928e48bc" target="_top" xlink:title="Ogre::MovableText::\lshowOnTop">
<polygon fill="white" stroke="black" points="557,-191 557,-221 663,-221 663,-191 557,-191"/>
<text text-anchor="start" x="565" y="-209" font-family="Helvetica,sans-Serif" font-size="10.00">Ogre::MovableText::</text>
<text text-anchor="middle" x="610" y="-198" font-family="Helvetica,sans-Serif" font-size="10.00">showOnTop</text>
</a>
</g>
</g>
<!-- Node29&#45;&gt;Node33 -->
<g id="edge38" class="edge"><title>Node29&#45;&gt;Node33</title>
<path fill="none" stroke="midnightblue" d="M483.169,-332.447C488.54,-329.95 493.589,-326.847 498,-323 531.4,-293.864 501.739,-260.392 534,-230 538.043,-226.192 542.691,-222.988 547.651,-220.292"/>
<polygon fill="midnightblue" stroke="midnightblue" points="549.29,-223.389 556.852,-215.968 546.312,-217.054 549.29,-223.389"/>
</g>
<!-- Node34 -->
<g id="node34" class="node"><title>Node34</title>
<g id="a_node34"><a xlink:href="class_ogre_1_1_movable_text.html#a0562e7c4341e263ae6e9d55f91643ade" target="_top" xlink:title="Ogre::MovableText::\lsetCharacterHeight">
<polygon fill="white" stroke="black" points="557,-436 557,-466 663,-466 663,-436 557,-436"/>
<text text-anchor="start" x="565" y="-454" font-family="Helvetica,sans-Serif" font-size="10.00">Ogre::MovableText::</text>
<text text-anchor="middle" x="610" y="-443" font-family="Helvetica,sans-Serif" font-size="10.00">setCharacterHeight</text>
</a>
</g>
</g>
<!-- Node29&#45;&gt;Node34 -->
<g id="edge39" class="edge"><title>Node29&#45;&gt;Node34</title>
<path fill="none" stroke="midnightblue" d="M470.219,-351.585C480.1,-355.02 489.873,-359.68 498,-366 522.55,-385.089 509.742,-406.541 534,-426 538.11,-429.297 542.674,-432.167 547.464,-434.665"/>
<polygon fill="midnightblue" stroke="midnightblue" points="546.346,-438.004 556.892,-439.023 549.283,-431.65 546.346,-438.004"/>
</g>
<!-- Node35 -->
<g id="node35" class="node"><title>Node35</title>
<g id="a_node35"><a xlink:href="class_ogre_1_1_movable_text.html#a7ed5e440d32fee6180e6eaa7094b3f5c" target="_top" xlink:title="Ogre::MovableText::\lsetColor">
<polygon fill="white" stroke="black" points="557,-387 557,-417 663,-417 663,-387 557,-387"/>
<text text-anchor="start" x="565" y="-405" font-family="Helvetica,sans-Serif" font-size="10.00">Ogre::MovableText::</text>
<text text-anchor="middle" x="610" y="-394" font-family="Helvetica,sans-Serif" font-size="10.00">setColor</text>
</a>
</g>
</g>
<!-- Node29&#45;&gt;Node35 -->
<g id="edge40" class="edge"><title>Node29&#45;&gt;Node35</title>
<path fill="none" stroke="midnightblue" d="M450.358,-351.53C464.939,-355.87 482.359,-361.118 498,-366 516.194,-371.679 536.006,-378.045 553.79,-383.828"/>
<polygon fill="midnightblue" stroke="midnightblue" points="552.846,-387.201 563.438,-386.972 555.015,-380.545 552.846,-387.201"/>
</g>
<!-- Node36 -->
<g id="node36" class="node"><title>Node36</title>
<g id="a_node36"><a xlink:href="class_collisions.html#ab8dc3b86fee4e2aa47927bfeabe2ddfe" target="_top" xlink:title="Collisions::hash_add">
<polygon fill="white" stroke="black" points="735.5,-267.5 735.5,-286.5 842.5,-286.5 842.5,-267.5 735.5,-267.5"/>
<text text-anchor="middle" x="789" y="-274.5" font-family="Helvetica,sans-Serif" font-size="10.00">Collisions::hash_add</text>
</a>
</g>
</g>
<!-- Node29&#45;&gt;Node36 -->
<g id="edge41" class="edge"><title>Node29&#45;&gt;Node36</title>
<path fill="none" stroke="midnightblue" d="M475.094,-351.658C483.541,-355.091 491.556,-359.731 498,-366 534.569,-401.575 492.653,-445.112 534,-475 588.749,-514.576 628.321,-510.169 686,-475 751.323,-435.17 776.602,-338.632 784.714,-296.836"/>
<polygon fill="midnightblue" stroke="midnightblue" points="788.193,-297.27 786.531,-286.807 781.305,-296.023 788.193,-297.27"/>
</g>
<!-- Node37 -->
<g id="node37" class="node"><title>Node37</title>
<g id="a_node37"><a xlink:href="class_collisions.html#a7e21c069d16d661d211d0cb896577edf" target="_top" xlink:title="Collisions::hashfunc">
<polygon fill="white" stroke="black" points="899.5,-267.5 899.5,-286.5 1004.5,-286.5 1004.5,-267.5 899.5,-267.5"/>
<text text-anchor="middle" x="952" y="-274.5" font-family="Helvetica,sans-Serif" font-size="10.00">Collisions::hashfunc</text>
</a>
</g>
</g>
<!-- Node36&#45;&gt;Node37 -->
<g id="edge42" class="edge"><title>Node36&#45;&gt;Node37</title>
<path fill="none" stroke="midnightblue" d="M842.717,-277C857.471,-277 873.643,-277 888.887,-277"/>
<polygon fill="midnightblue" stroke="midnightblue" points="889.263,-280.5 899.263,-277 889.263,-273.5 889.263,-280.5"/>
</g>
<!-- Node38&#45;&gt;Node21 -->
<g id="edge44" class="edge"><title>Node38&#45;&gt;Node21</title>
<path fill="none" stroke="midnightblue" d="M484.893,-313.521C489.707,-316.047 494.165,-319.163 498,-323 547.075,-372.106 497.804,-415.758 534,-475 544.37,-491.972 560.777,-506.722 575.605,-517.771"/>
<polygon fill="midnightblue" stroke="midnightblue" points="573.924,-520.872 584.096,-523.837 577.994,-515.176 573.924,-520.872"/>
</g>
<!-- Node38&#45;&gt;Node30 -->
<g id="edge48" class="edge"><title>Node38&#45;&gt;Node30</title>
<path fill="none" stroke="midnightblue" d="M459.169,-313.521C471.661,-316.479 485.409,-319.804 498,-323 513.943,-327.047 531.122,-331.596 547.091,-335.906"/>
<polygon fill="midnightblue" stroke="midnightblue" points="546.288,-339.314 556.855,-338.552 548.118,-332.558 546.288,-339.314"/>
</g>
<!-- Node38&#45;&gt;Node31 -->
<g id="edge49" class="edge"><title>Node38&#45;&gt;Node31</title>
<path fill="none" stroke="midnightblue" d="M488.579,-304C507.677,-304 528.205,-304 546.806,-304"/>
<polygon fill="midnightblue" stroke="midnightblue" points="546.92,-307.5 556.92,-304 546.92,-300.5 546.92,-307.5"/>
</g>
<!-- Node38&#45;&gt;Node32 -->
<g id="edge50" class="edge"><title>Node38&#45;&gt;Node32</title>
<path fill="none" stroke="midnightblue" d="M456.677,-294.418C469.802,-291.144 484.546,-287.439 498,-284 513.901,-279.935 531.065,-275.483 547.032,-271.313"/>
<polygon fill="midnightblue" stroke="midnightblue" points="548.008,-274.676 556.797,-268.76 546.237,-267.904 548.008,-274.676"/>
</g>
<!-- Node38&#45;&gt;Node33 -->
<g id="edge51" class="edge"><title>Node38&#45;&gt;Node33</title>
<path fill="none" stroke="midnightblue" d="M477.433,-294.462C484.735,-291.789 491.798,-288.371 498,-284 521.578,-267.384 510.972,-247.37 534,-230 538.124,-226.89 542.664,-224.174 547.407,-221.806"/>
<polygon fill="midnightblue" stroke="midnightblue" points="549.008,-224.924 556.725,-217.665 546.165,-218.528 549.008,-224.924"/>
</g>
<!-- Node38&#45;&gt;Node34 -->
<g id="edge52" class="edge"><title>Node38&#45;&gt;Node34</title>
<path fill="none" stroke="midnightblue" d="M483.695,-313.586C488.891,-316.083 493.76,-319.176 498,-323 534.011,-355.478 499.462,-391.959 534,-426 537.971,-429.914 542.571,-433.215 547.499,-436"/>
<polygon fill="midnightblue" stroke="midnightblue" points="546.139,-439.231 556.661,-440.475 549.211,-432.941 546.139,-439.231"/>
</g>
<!-- Node38&#45;&gt;Node35 -->
<g id="edge53" class="edge"><title>Node38&#45;&gt;Node35</title>
<path fill="none" stroke="midnightblue" d="M479.889,-313.651C486.312,-316.102 492.493,-319.168 498,-323 521.675,-339.476 511.077,-359.492 534,-377 538.121,-380.148 542.659,-382.911 547.402,-385.334"/>
<polygon fill="midnightblue" stroke="midnightblue" points="546.167,-388.618 556.717,-389.588 549.075,-382.25 546.167,-388.618"/>
</g>
<!-- Node39 -->
<g id="node39" class="node"><title>Node39</title>
<g id="a_node39"><a xlink:href="class_collisions.html#a2ef942fa770bd57c5638465d58bed210" target="_top" xlink:title="Collisions::getMeshInformation">
<polygon fill="white" stroke="black" points="534,-114.5 534,-133.5 686,-133.5 686,-114.5 534,-114.5"/>
<text text-anchor="middle" x="610" y="-121.5" font-family="Helvetica,sans-Serif" font-size="10.00">Collisions::getMeshInformation</text>
</a>
</g>
</g>
<!-- Node38&#45;&gt;Node39 -->
<g id="edge45" class="edge"><title>Node38&#45;&gt;Node39</title>
<path fill="none" stroke="midnightblue" d="M483.311,-294.329C488.721,-291.629 493.738,-288.241 498,-284 543.848,-238.381 488.224,-188.691 534,-143 535.426,-141.577 536.942,-140.255 538.534,-139.028"/>
<polygon fill="midnightblue" stroke="midnightblue" points="540.461,-141.95 547.043,-133.647 536.72,-136.033 540.461,-141.95"/>
</g>
<!-- Node40 -->
<g id="node40" class="node"><title>Node40</title>
<g id="a_node40"><a xlink:href="class_collisions.html#a44e7f403a680e597a54209b2873b6e28" target="_top" xlink:title="Collisions::addCollisionTri">
<polygon fill="white" stroke="black" points="545,-152.5 545,-171.5 675,-171.5 675,-152.5 545,-152.5"/>
<text text-anchor="middle" x="610" y="-159.5" font-family="Helvetica,sans-Serif" font-size="10.00">Collisions::addCollisionTri</text>
</a>
</g>
</g>
<!-- Node38&#45;&gt;Node40 -->
<g id="edge46" class="edge"><title>Node38&#45;&gt;Node40</title>
<path fill="none" stroke="midnightblue" d="M481.755,-294.488C487.684,-291.777 493.242,-288.343 498,-284 533.818,-251.31 498.233,-213.746 534,-181 535.69,-179.452 537.489,-178.027 539.373,-176.713"/>
<polygon fill="midnightblue" stroke="midnightblue" points="541.219,-179.689 548.117,-171.647 537.71,-173.632 541.219,-179.689"/>
</g>
<!-- Node40&#45;&gt;Node36 -->
<g id="edge47" class="edge"><title>Node40&#45;&gt;Node36</title>
<path fill="none" stroke="midnightblue" d="M663.145,-171.543C671.06,-174.022 678.934,-177.125 686,-181 722.731,-201.143 756.215,-237.647 774.19,-259.372"/>
<polygon fill="midnightblue" stroke="midnightblue" points="771.695,-261.853 780.704,-267.428 777.138,-257.452 771.695,-261.853"/>
</g>
</g>
</svg>
