<?xml version="1.0" encoding="UTF-8" standalone="no"?>
<!DOCTYPE svg PUBLIC "-//W3C//DTD SVG 1.1//EN"
 "http://www.w3.org/Graphics/SVG/1.1/DTD/svg11.dtd">
<!-- Generated by graphviz version 2.36.0 (20140111.2315)
 -->
<!-- Title: RigDef::Parser::ParseTurbojets Pages: 1 -->
<svg width="732pt" height="193pt"
 viewBox="0.00 0.00 732.00 193.00" xmlns="http://www.w3.org/2000/svg" xmlns:xlink="http://www.w3.org/1999/xlink">
<g id="graph0" class="graph" transform="scale(1 1) rotate(0) translate(4 189)">
<title>RigDef::Parser::ParseTurbojets</title>
<polygon fill="white" stroke="none" points="-4,4 -4,-189 728,-189 728,4 -4,4"/>
<!-- Node1 -->
<g id="node1" class="node"><title>Node1</title>
<polygon fill="#bfbfbf" stroke="black" points="0,-61.5 0,-80.5 154,-80.5 154,-61.5 0,-61.5"/>
<text text-anchor="middle" x="77" y="-68.5" font-family="Helvetica,sans-Serif" font-size="10.00">RigDef::Parser::ParseTurbojets</text>
</g>
<!-- Node2 -->
<g id="node2" class="node"><title>Node2</title>
<g id="a_node2"><a xlink:href="class_rig_def_1_1_parser.html#a8397c243299359e21a84243c01ca43bf" target="_top" xlink:title="RigDef::Parser::CheckNum\lArguments">
<polygon fill="white" stroke="black" points="394.5,-35 394.5,-65 531.5,-65 531.5,-35 394.5,-35"/>
<text text-anchor="start" x="402.5" y="-53" font-family="Helvetica,sans-Serif" font-size="10.00">RigDef::Parser::CheckNum</text>
<text text-anchor="middle" x="463" y="-42" font-family="Helvetica,sans-Serif" font-size="10.00">Arguments</text>
</a>
</g>
</g>
<!-- Node1&#45;&gt;Node2 -->
<g id="edge1" class="edge"><title>Node1&#45;&gt;Node2</title>
<path fill="none" stroke="midnightblue" d="M154.325,-66.826C221.003,-63.1795 317.354,-57.9103 384.405,-54.2435"/>
<polygon fill="midnightblue" stroke="midnightblue" points="384.698,-57.7328 394.492,-53.6918 384.316,-50.7432 384.698,-57.7328"/>
</g>
<!-- Node4 -->
<g id="node4" class="node"><title>Node4</title>
<g id="a_node4"><a xlink:href="class_rig_def_1_1_parser.html#a57b7efa0a566ae343d6148a05d420eae" target="_top" xlink:title="RigDef::Parser::GetArgNodeRef">
<polygon fill="white" stroke="black" points="190,-122.5 190,-141.5 348,-141.5 348,-122.5 190,-122.5"/>
<text text-anchor="middle" x="269" y="-129.5" font-family="Helvetica,sans-Serif" font-size="10.00">RigDef::Parser::GetArgNodeRef</text>
</a>
</g>
</g>
<!-- Node1&#45;&gt;Node4 -->
<g id="edge3" class="edge"><title>Node1&#45;&gt;Node4</title>
<path fill="none" stroke="midnightblue" d="M104.102,-80.5889C126.707,-88.7728 160.345,-100.664 190,-110 200.583,-113.332 212.048,-116.699 222.847,-119.763"/>
<polygon fill="midnightblue" stroke="midnightblue" points="221.958,-123.148 232.532,-122.482 223.85,-116.409 221.958,-123.148"/>
</g>
<!-- Node8 -->
<g id="node8" class="node"><title>Node8</title>
<g id="a_node8"><a xlink:href="class_rig_def_1_1_parser.html#a635bdc3c7493275fc05f91d51c11945b" target="_top" xlink:title="RigDef::Parser::GetArgInt">
<polygon fill="white" stroke="black" points="204,-81.5 204,-100.5 334,-100.5 334,-81.5 204,-81.5"/>
<text text-anchor="middle" x="269" y="-88.5" font-family="Helvetica,sans-Serif" font-size="10.00">RigDef::Parser::GetArgInt</text>
</a>
</g>
</g>
<!-- Node1&#45;&gt;Node8 -->
<g id="edge8" class="edge"><title>Node1&#45;&gt;Node8</title>
<path fill="none" stroke="midnightblue" d="M154.185,-79.0195C167.138,-80.383 180.577,-81.7976 193.486,-83.1564"/>
<polygon fill="midnightblue" stroke="midnightblue" points="193.394,-86.666 203.706,-84.2322 194.127,-79.7045 193.394,-86.666"/>
</g>
<!-- Node10 -->
<g id="node10" class="node"><title>Node10</title>
<g id="a_node10"><a xlink:href="class_rig_def_1_1_parser.html#ae77a4970494c116e98a92be7a0160a16" target="_top" xlink:title="RigDef::Parser::GetArgFloat">
<polygon fill="white" stroke="black" points="199,-0.5 199,-19.5 339,-19.5 339,-0.5 199,-0.5"/>
<text text-anchor="middle" x="269" y="-7.5" font-family="Helvetica,sans-Serif" font-size="10.00">RigDef::Parser::GetArgFloat</text>
</a>
</g>
</g>
<!-- Node1&#45;&gt;Node10 -->
<g id="edge11" class="edge"><title>Node1&#45;&gt;Node10</title>
<path fill="none" stroke="midnightblue" d="M107.688,-61.4688C140.219,-51.0244 192.555,-34.2217 228.526,-22.6731"/>
<polygon fill="midnightblue" stroke="midnightblue" points="229.757,-25.9542 238.208,-19.5648 227.617,-19.2892 229.757,-25.9542"/>
</g>
<!-- Node3 -->
<g id="node3" class="node"><title>Node3</title>
<g id="a_node3"><a xlink:href="class_rig_def_1_1_parser.html#a7da949423835fe3241f2ac4c5ac8ebb1" target="_top" xlink:title="Adds a message to parser report. ">
<polygon fill="white" stroke="black" points="578.5,-62.5 578.5,-81.5 723.5,-81.5 723.5,-62.5 578.5,-62.5"/>
<text text-anchor="middle" x="651" y="-69.5" font-family="Helvetica,sans-Serif" font-size="10.00">RigDef::Parser::AddMessage</text>
</a>
</g>
</g>
<!-- Node2&#45;&gt;Node3 -->
<g id="edge2" class="edge"><title>Node2&#45;&gt;Node3</title>
<path fill="none" stroke="midnightblue" d="M531.676,-58.0047C543.524,-59.4061 555.966,-60.8776 568.148,-62.3186"/>
<polygon fill="midnightblue" stroke="midnightblue" points="567.96,-65.8206 578.302,-63.5195 568.782,-58.8691 567.96,-65.8206"/>
</g>
<!-- Node5 -->
<g id="node5" class="node"><title>Node5</title>
<g id="a_node5"><a xlink:href="class_rig_def_1_1_parser.html#a38e4135df406da0cc2f0fc4afb34ddb3" target="_top" xlink:title="RigDef::Parser::_ParseNodeRef">
<polygon fill="white" stroke="black" points="384,-160.5 384,-179.5 542,-179.5 542,-160.5 384,-160.5"/>
<text text-anchor="middle" x="463" y="-167.5" font-family="Helvetica,sans-Serif" font-size="10.00">RigDef::Parser::_ParseNodeRef</text>
</a>
</g>
</g>
<!-- Node4&#45;&gt;Node5 -->
<g id="edge4" class="edge"><title>Node4&#45;&gt;Node5</title>
<path fill="none" stroke="midnightblue" d="M318.45,-141.589C344.471,-146.739 376.728,-153.123 404.069,-158.534"/>
<polygon fill="midnightblue" stroke="midnightblue" points="403.409,-161.972 413.899,-160.48 404.769,-155.105 403.409,-161.972"/>
</g>
<!-- Node7 -->
<g id="node7" class="node"><title>Node7</title>
<g id="a_node7"><a xlink:href="class_rig_def_1_1_parser.html#a629f3ff2e6181f7953ec28168b0aac00" target="_top" xlink:title="RigDef::Parser::GetArgStr">
<polygon fill="white" stroke="black" points="397.5,-122.5 397.5,-141.5 528.5,-141.5 528.5,-122.5 397.5,-122.5"/>
<text text-anchor="middle" x="463" y="-129.5" font-family="Helvetica,sans-Serif" font-size="10.00">RigDef::Parser::GetArgStr</text>
</a>
</g>
</g>
<!-- Node4&#45;&gt;Node7 -->
<g id="edge7" class="edge"><title>Node4&#45;&gt;Node7</title>
<path fill="none" stroke="midnightblue" d="M348.094,-132C361.037,-132 374.431,-132 387.288,-132"/>
<polygon fill="midnightblue" stroke="midnightblue" points="387.466,-135.5 397.466,-132 387.466,-128.5 387.466,-135.5"/>
</g>
<!-- Node5&#45;&gt;Node3 -->
<g id="edge6" class="edge"><title>Node5&#45;&gt;Node3</title>
<path fill="none" stroke="midnightblue" d="M515.749,-160.431C524.713,-157.925 533.785,-154.82 542,-151 576.992,-134.73 612.045,-106.312 632.348,-88.3614"/>
<polygon fill="midnightblue" stroke="midnightblue" points="634.771,-90.8895 639.86,-81.5972 630.087,-85.6873 634.771,-90.8895"/>
</g>
<!-- Node6 -->
<g id="node6" class="node"><title>Node6</title>
<g id="a_node6"><a xlink:href="class_rig_def_1_1_sequential_importer.html#a04d293d8b1f94b9a722e83715911e547" target="_top" xlink:title="RigDef::SequentialImporter\l::IsEnabled">
<polygon fill="white" stroke="black" points="583.5,-155 583.5,-185 718.5,-185 718.5,-155 583.5,-155"/>
<text text-anchor="start" x="591.5" y="-173" font-family="Helvetica,sans-Serif" font-size="10.00">RigDef::SequentialImporter</text>
<text text-anchor="middle" x="651" y="-162" font-family="Helvetica,sans-Serif" font-size="10.00">::IsEnabled</text>
</a>
</g>
</g>
<!-- Node5&#45;&gt;Node6 -->
<g id="edge5" class="edge"><title>Node5&#45;&gt;Node6</title>
<path fill="none" stroke="midnightblue" d="M542.072,-170C552.362,-170 562.902,-170 573.17,-170"/>
<polygon fill="midnightblue" stroke="midnightblue" points="573.329,-173.5 583.329,-170 573.329,-166.5 573.329,-173.5"/>
</g>
<!-- Node9 -->
<g id="node9" class="node"><title>Node9</title>
<g id="a_node9"><a xlink:href="class_rig_def_1_1_parser.html#a81784a06397ed377c39759981d6c700b" target="_top" xlink:title="RigDef::Parser::GetArgLong">
<polygon fill="white" stroke="black" points="393,-84.5 393,-103.5 533,-103.5 533,-84.5 393,-84.5"/>
<text text-anchor="middle" x="463" y="-91.5" font-family="Helvetica,sans-Serif" font-size="10.00">RigDef::Parser::GetArgLong</text>
</a>
</g>
</g>
<!-- Node8&#45;&gt;Node9 -->
<g id="edge9" class="edge"><title>Node8&#45;&gt;Node9</title>
<path fill="none" stroke="midnightblue" d="M334.2,-92.0031C349.671,-92.2449 366.384,-92.506 382.462,-92.7572"/>
<polygon fill="midnightblue" stroke="midnightblue" points="382.863,-96.2638 392.916,-92.9206 382.972,-89.2647 382.863,-96.2638"/>
</g>
<!-- Node9&#45;&gt;Node3 -->
<g id="edge10" class="edge"><title>Node9&#45;&gt;Node3</title>
<path fill="none" stroke="midnightblue" d="M533.26,-85.808C544.603,-84.4663 556.452,-83.0648 568.067,-81.691"/>
<polygon fill="midnightblue" stroke="midnightblue" points="568.676,-85.1435 578.196,-80.493 567.854,-78.1919 568.676,-85.1435"/>
</g>
<!-- Node10&#45;&gt;Node3 -->
<g id="edge12" class="edge"><title>Node10&#45;&gt;Node3</title>
<path fill="none" stroke="midnightblue" d="M339.15,-7.12004C394.708,-6.39715 474.353,-8.96249 542,-25 571.333,-31.9541 602.697,-46.4852 624.026,-57.5604"/>
<polygon fill="midnightblue" stroke="midnightblue" points="622.603,-60.7675 633.076,-62.3663 625.886,-54.585 622.603,-60.7675"/>
</g>
</g>
</svg>
