<?xml version="1.0" encoding="UTF-8" standalone="no"?>
<!DOCTYPE svg PUBLIC "-//W3C//DTD SVG 1.1//EN"
 "http://www.w3.org/Graphics/SVG/1.1/DTD/svg11.dtd">
<!-- Generated by graphviz version 2.36.0 (20140111.2315)
 -->
<!-- Title: RoRFrameListener::FinalizeTruckSpawning Pages: 1 -->
<svg width="1078pt" height="930pt"
 viewBox="0.00 0.00 1078.00 930.00" xmlns="http://www.w3.org/2000/svg" xmlns:xlink="http://www.w3.org/1999/xlink">
<g id="graph0" class="graph" transform="scale(1 1) rotate(0) translate(4 926)">
<title>RoRFrameListener::FinalizeTruckSpawning</title>
<polygon fill="white" stroke="none" points="-4,4 -4,-926 1074,-926 1074,4 -4,4"/>
<!-- Node1 -->
<g id="node1" class="node"><title>Node1</title>
<polygon fill="#bfbfbf" stroke="black" points="0.5,-279 0.5,-309 139.5,-309 139.5,-279 0.5,-279"/>
<text text-anchor="start" x="8.5" y="-297" font-family="Helvetica,sans-Serif" font-size="10.00">RoRFrameListener::Finalize</text>
<text text-anchor="middle" x="70" y="-286" font-family="Helvetica,sans-Serif" font-size="10.00">TruckSpawning</text>
</g>
<!-- Node2 -->
<g id="node2" class="node"><title>Node2</title>
<g id="a_node2"><a xlink:href="class_beam.html#a0996cdfbaacc54fa03f00a07e4166346" target="_top" xlink:title="Beam::getRotationCenter">
<polygon fill="white" stroke="black" points="191,-814.5 191,-833.5 319,-833.5 319,-814.5 191,-814.5"/>
<text text-anchor="middle" x="255" y="-821.5" font-family="Helvetica,sans-Serif" font-size="10.00">Beam::getRotationCenter</text>
</a>
</g>
</g>
<!-- Node1&#45;&gt;Node2 -->
<g id="edge1" class="edge"><title>Node1&#45;&gt;Node2</title>
<path fill="none" stroke="midnightblue" d="M71.9725,-309.084C77.2146,-385.692 104.564,-730.925 176,-805 177.862,-806.931 179.886,-808.68 182.035,-810.261"/>
<polygon fill="midnightblue" stroke="midnightblue" points="180.504,-813.424 190.879,-815.573 184.108,-807.424 180.504,-813.424"/>
</g>
<!-- Node3 -->
<g id="node3" class="node"><title>Node3</title>
<g id="a_node3"><a xlink:href="class_beam.html#a45e5bfb79be383f661885fadbeddf105" target="_top" xlink:title="Beam::resetPosition">
<polygon fill="white" stroke="black" points="202.5,-776.5 202.5,-795.5 307.5,-795.5 307.5,-776.5 202.5,-776.5"/>
<text text-anchor="middle" x="255" y="-783.5" font-family="Helvetica,sans-Serif" font-size="10.00">Beam::resetPosition</text>
</a>
</g>
</g>
<!-- Node1&#45;&gt;Node3 -->
<g id="edge2" class="edge"><title>Node1&#45;&gt;Node3</title>
<path fill="none" stroke="midnightblue" d="M76.6775,-309.264C103.413,-381.142 216.71,-685.744 246.694,-766.359"/>
<polygon fill="midnightblue" stroke="midnightblue" points="243.588,-768.047 250.355,-776.2 250.149,-765.607 243.588,-768.047"/>
</g>
<!-- Node19 -->
<g id="node19" class="node"><title>Node19</title>
<g id="a_node19"><a xlink:href="class_beam.html#a5c084695a06ee65598bdb046e3c9cabb" target="_top" xlink:title="Beam::resolveCollisions">
<polygon fill="white" stroke="black" points="194,-353.5 194,-372.5 316,-372.5 316,-353.5 194,-353.5"/>
<text text-anchor="middle" x="255" y="-360.5" font-family="Helvetica,sans-Serif" font-size="10.00">Beam::resolveCollisions</text>
</a>
</g>
</g>
<!-- Node1&#45;&gt;Node19 -->
<g id="edge18" class="edge"><title>Node1&#45;&gt;Node19</title>
<path fill="none" stroke="midnightblue" d="M99.8066,-309.217C120.568,-319.742 149.485,-333.507 176,-343 183.946,-345.845 192.483,-348.461 200.889,-350.797"/>
<polygon fill="midnightblue" stroke="midnightblue" points="200.09,-354.206 210.655,-353.407 201.898,-347.443 200.09,-354.206"/>
</g>
<!-- Node20 -->
<g id="node20" class="node"><title>Node20</title>
<g id="a_node20"><a xlink:href="class_survey_map_manager.html#a8d4bc71b43014156c7f1d620988ceb8f" target="_top" xlink:title="SurveyMapManager::create\lNamedMapEntity">
<polygon fill="white" stroke="black" points="186.5,-304 186.5,-334 323.5,-334 323.5,-304 186.5,-304"/>
<text text-anchor="start" x="194.5" y="-322" font-family="Helvetica,sans-Serif" font-size="10.00">SurveyMapManager::create</text>
<text text-anchor="middle" x="255" y="-311" font-family="Helvetica,sans-Serif" font-size="10.00">NamedMapEntity</text>
</a>
</g>
</g>
<!-- Node1&#45;&gt;Node20 -->
<g id="edge19" class="edge"><title>Node1&#45;&gt;Node20</title>
<path fill="none" stroke="midnightblue" d="M139.663,-303.38C151.627,-305.015 164.148,-306.725 176.334,-308.39"/>
<polygon fill="midnightblue" stroke="midnightblue" points="176.09,-311.889 186.472,-309.775 177.038,-304.953 176.09,-311.889"/>
</g>
<!-- Node22 -->
<g id="node22" class="node"><title>Node22</title>
<g id="a_node22"><a xlink:href="class_survey_map_manager.html#a8be6c4d34c32d4f65f55f60da29ed1a6" target="_top" xlink:title="SurveyMapManager::getType\lByDriveable">
<polygon fill="white" stroke="black" points="182.5,-255 182.5,-285 327.5,-285 327.5,-255 182.5,-255"/>
<text text-anchor="start" x="190.5" y="-273" font-family="Helvetica,sans-Serif" font-size="10.00">SurveyMapManager::getType</text>
<text text-anchor="middle" x="255" y="-262" font-family="Helvetica,sans-Serif" font-size="10.00">ByDriveable</text>
</a>
</g>
</g>
<!-- Node1&#45;&gt;Node22 -->
<g id="edge21" class="edge"><title>Node1&#45;&gt;Node22</title>
<path fill="none" stroke="midnightblue" d="M139.663,-284.995C150.301,-283.6 161.379,-282.147 172.27,-280.719"/>
<polygon fill="midnightblue" stroke="midnightblue" points="172.742,-284.187 182.202,-279.416 171.832,-277.246 172.742,-284.187"/>
</g>
<!-- Node23 -->
<g id="node23" class="node"><title>Node23</title>
<g id="a_node23"><a xlink:href="class_beam_engine.html#ae9e67ae5371b9cb2e1fc12167d3b8979" target="_top" xlink:title="BeamEngine::start">
<polygon fill="white" stroke="black" points="206,-216.5 206,-235.5 304,-235.5 304,-216.5 206,-216.5"/>
<text text-anchor="middle" x="255" y="-223.5" font-family="Helvetica,sans-Serif" font-size="10.00">BeamEngine::start</text>
</a>
</g>
</g>
<!-- Node1&#45;&gt;Node23 -->
<g id="edge22" class="edge"><title>Node1&#45;&gt;Node23</title>
<path fill="none" stroke="midnightblue" d="M99.3283,-278.91C120.104,-268.31 149.239,-254.4 176,-245 183.132,-242.495 190.743,-240.199 198.309,-238.135"/>
<polygon fill="midnightblue" stroke="midnightblue" points="199.395,-241.469 208.187,-235.558 197.628,-234.696 199.395,-241.469"/>
</g>
<!-- Node25 -->
<g id="node25" class="node"><title>Node25</title>
<g id="a_node25"><a xlink:href="class_ro_r_1_1_beam_factory.html#ac70a8aa131a6709ebf05dc3c0f6dab10" target="_top" xlink:title="RoR::BeamFactory::setCurrent\lTruck">
<polygon fill="white" stroke="black" points="178.5,-392 178.5,-422 331.5,-422 331.5,-392 178.5,-392"/>
<text text-anchor="start" x="186.5" y="-410" font-family="Helvetica,sans-Serif" font-size="10.00">RoR::BeamFactory::setCurrent</text>
<text text-anchor="middle" x="255" y="-399" font-family="Helvetica,sans-Serif" font-size="10.00">Truck</text>
</a>
</g>
</g>
<!-- Node1&#45;&gt;Node25 -->
<g id="edge24" class="edge"><title>Node1&#45;&gt;Node25</title>
<path fill="none" stroke="midnightblue" d="M85.2622,-309.152C104.275,-328.546 139.758,-362.019 176,-382 179.96,-384.183 184.139,-386.209 188.422,-388.085"/>
<polygon fill="midnightblue" stroke="midnightblue" points="187.339,-391.422 197.921,-391.95 189.978,-384.939 187.339,-391.422"/>
</g>
<!-- Node45 -->
<g id="node45" class="node"><title>Node45</title>
<g id="a_node45"><a xlink:href="class_beam.html#af699a6dc8e304af65ef4b2e6d616ed8a" target="_top" xlink:title="Beam::updateFlexbodiesPrepare">
<polygon fill="white" stroke="black" points="176,-178.5 176,-197.5 334,-197.5 334,-178.5 176,-178.5"/>
<text text-anchor="middle" x="255" y="-185.5" font-family="Helvetica,sans-Serif" font-size="10.00">Beam::updateFlexbodiesPrepare</text>
</a>
</g>
</g>
<!-- Node1&#45;&gt;Node45 -->
<g id="edge46" class="edge"><title>Node1&#45;&gt;Node45</title>
<path fill="none" stroke="midnightblue" d="M84.7644,-278.967C103.506,-259.421 138.978,-225.593 176,-207 180.826,-204.576 185.979,-202.451 191.248,-200.589"/>
<polygon fill="midnightblue" stroke="midnightblue" points="192.364,-203.907 200.813,-197.515 190.222,-197.242 192.364,-203.907"/>
</g>
<!-- Node47 -->
<g id="node47" class="node"><title>Node47</title>
<g id="a_node47"><a xlink:href="class_beam.html#a4def418615e75c12a8a95be608bff3d3" target="_top" xlink:title="Beam::updateFlexbodiesFinal">
<polygon fill="white" stroke="black" points="182,-140.5 182,-159.5 328,-159.5 328,-140.5 182,-140.5"/>
<text text-anchor="middle" x="255" y="-147.5" font-family="Helvetica,sans-Serif" font-size="10.00">Beam::updateFlexbodiesFinal</text>
</a>
</g>
</g>
<!-- Node1&#45;&gt;Node47 -->
<g id="edge48" class="edge"><title>Node1&#45;&gt;Node47</title>
<path fill="none" stroke="midnightblue" d="M79.4599,-278.601C94.9469,-251.92 130.49,-197.251 176,-169 179.432,-166.869 183.087,-164.978 186.87,-163.298"/>
<polygon fill="midnightblue" stroke="midnightblue" points="188.442,-166.442 196.485,-159.545 185.896,-159.921 188.442,-166.442"/>
</g>
<!-- Node48 -->
<g id="node48" class="node"><title>Node48</title>
<g id="a_node48"><a xlink:href="class_beam.html#a006ef9ec922c3ba72b4e53288779a548" target="_top" xlink:title="Beam::updateVisual">
<polygon fill="white" stroke="black" points="203,-77.5 203,-96.5 307,-96.5 307,-77.5 203,-77.5"/>
<text text-anchor="middle" x="255" y="-84.5" font-family="Helvetica,sans-Serif" font-size="10.00">Beam::updateVisual</text>
</a>
</g>
</g>
<!-- Node1&#45;&gt;Node48 -->
<g id="edge49" class="edge"><title>Node1&#45;&gt;Node48</title>
<path fill="none" stroke="midnightblue" d="M77.6895,-278.795C91.9505,-247.765 127.999,-176.265 176,-131 189.083,-118.662 206.267,-108.491 221.175,-101.048"/>
<polygon fill="midnightblue" stroke="midnightblue" points="223.063,-104.025 230.577,-96.5548 220.045,-97.7087 223.063,-104.025"/>
</g>
<!-- Node4 -->
<g id="node4" class="node"><title>Node4</title>
<g id="a_node4"><a xlink:href="class_terrain_manager.html#a1d0227a71a4e114099797646ff6756b7" target="_top" xlink:title="TerrainManager::getWater">
<polygon fill="white" stroke="black" points="377,-902.5 377,-921.5 507,-921.5 507,-902.5 377,-902.5"/>
<text text-anchor="middle" x="442" y="-909.5" font-family="Helvetica,sans-Serif" font-size="10.00">TerrainManager::getWater</text>
</a>
</g>
</g>
<!-- Node3&#45;&gt;Node4 -->
<g id="edge3" class="edge"><title>Node3&#45;&gt;Node4</title>
<path fill="none" stroke="midnightblue" d="M307.579,-791.312C317.16,-794.208 326.5,-798.544 334,-805 366.027,-832.567 338.286,-865.073 370,-893 371.927,-894.697 373.99,-896.245 376.156,-897.656"/>
<polygon fill="midnightblue" stroke="midnightblue" points="374.491,-900.735 384.946,-902.451 377.843,-894.59 374.491,-900.735"/>
</g>
<!-- Node5 -->
<g id="node5" class="node"><title>Node5</title>
<g id="a_node5"><a xlink:href="class_i_water.html#ad2499255884025d55a940eb24ecd8e4d" target="_top" xlink:title="IWater::getHeight">
<polygon fill="white" stroke="black" points="395,-864.5 395,-883.5 489,-883.5 489,-864.5 395,-864.5"/>
<text text-anchor="middle" x="442" y="-871.5" font-family="Helvetica,sans-Serif" font-size="10.00">IWater::getHeight</text>
</a>
</g>
</g>
<!-- Node3&#45;&gt;Node5 -->
<g id="edge4" class="edge"><title>Node3&#45;&gt;Node5</title>
<path fill="none" stroke="midnightblue" d="M307.655,-793.184C316.915,-795.937 326.114,-799.742 334,-805 356.484,-819.991 347.786,-838.611 370,-854 374.605,-857.191 379.71,-859.875 385.01,-862.132"/>
<polygon fill="midnightblue" stroke="midnightblue" points="384.1,-865.529 394.692,-865.753 386.551,-858.972 384.1,-865.529"/>
</g>
<!-- Node6 -->
<g id="node6" class="node"><title>Node6</title>
<g id="a_node6"><a xlink:href="class_terrain_manager.html#ae63cfc0dda4ab62dc7f6d72eb7845628" target="_top" xlink:title="TerrainManager::getHeight\lFinder">
<polygon fill="white" stroke="black" points="376,-815 376,-845 508,-845 508,-815 376,-815"/>
<text text-anchor="start" x="384" y="-833" font-family="Helvetica,sans-Serif" font-size="10.00">TerrainManager::getHeight</text>
<text text-anchor="middle" x="442" y="-822" font-family="Helvetica,sans-Serif" font-size="10.00">Finder</text>
</a>
</g>
</g>
<!-- Node3&#45;&gt;Node6 -->
<g id="edge5" class="edge"><title>Node3&#45;&gt;Node6</title>
<path fill="none" stroke="midnightblue" d="M296.142,-795.547C317.064,-800.523 343.314,-806.767 367.702,-812.567"/>
<polygon fill="midnightblue" stroke="midnightblue" points="367.118,-816.026 377.657,-814.935 368.738,-809.216 367.118,-816.026"/>
</g>
<!-- Node7 -->
<g id="node7" class="node"><title>Node7</title>
<g id="a_node7"><a xlink:href="class_i_height_finder.html#a5757ec3d639bcffc834540067ec8db2e" target="_top" xlink:title="IHeightFinder::getHeightAt">
<polygon fill="white" stroke="black" points="375.5,-776.5 375.5,-795.5 508.5,-795.5 508.5,-776.5 375.5,-776.5"/>
<text text-anchor="middle" x="442" y="-783.5" font-family="Helvetica,sans-Serif" font-size="10.00">IHeightFinder::getHeightAt</text>
</a>
</g>
</g>
<!-- Node3&#45;&gt;Node7 -->
<g id="edge6" class="edge"><title>Node3&#45;&gt;Node7</title>
<path fill="none" stroke="midnightblue" d="M307.533,-786C325.377,-786 345.771,-786 365.156,-786"/>
<polygon fill="midnightblue" stroke="midnightblue" points="365.182,-789.5 375.182,-786 365.182,-782.5 365.182,-789.5"/>
</g>
<!-- Node8 -->
<g id="node8" class="node"><title>Node8</title>
<g id="a_node8"><a xlink:href="class_collisions.html#a265e80a2a5e77dd57ce94ae62c2a11ab" target="_top" xlink:title="Collisions::collisionCorrect">
<polygon fill="white" stroke="black" points="375.5,-738.5 375.5,-757.5 508.5,-757.5 508.5,-738.5 375.5,-738.5"/>
<text text-anchor="middle" x="442" y="-745.5" font-family="Helvetica,sans-Serif" font-size="10.00">Collisions::collisionCorrect</text>
</a>
</g>
</g>
<!-- Node3&#45;&gt;Node8 -->
<g id="edge7" class="edge"><title>Node3&#45;&gt;Node8</title>
<path fill="none" stroke="midnightblue" d="M302.683,-776.411C327.646,-771.284 358.564,-764.933 384.834,-759.537"/>
<polygon fill="midnightblue" stroke="midnightblue" points="385.561,-762.961 394.652,-757.52 384.153,-756.104 385.561,-762.961"/>
</g>
<!-- Node9 -->
<g id="node9" class="node"><title>Node9</title>
<g id="a_node9"><a xlink:href="class_terrain_manager.html#a41fdd66a57990a5fb33d253213fd04e3" target="_top" xlink:title="TerrainManager::getMaxTerrainSize">
<polygon fill="white" stroke="black" points="550,-883.5 550,-902.5 722,-902.5 722,-883.5 550,-883.5"/>
<text text-anchor="middle" x="636" y="-890.5" font-family="Helvetica,sans-Serif" font-size="10.00">TerrainManager::getMaxTerrainSize</text>
</a>
</g>
</g>
<!-- Node8&#45;&gt;Node9 -->
<g id="edge8" class="edge"><title>Node8&#45;&gt;Node9</title>
<path fill="none" stroke="midnightblue" d="M499.973,-757.64C505.096,-760.104 509.89,-763.175 514,-767 549.805,-800.324 514.058,-837.824 550,-871 553.213,-873.966 556.774,-876.544 560.563,-878.782"/>
<polygon fill="midnightblue" stroke="midnightblue" points="559.26,-882.045 569.766,-883.415 562.408,-875.792 559.26,-882.045"/>
</g>
<!-- Node11 -->
<g id="node11" class="node"><title>Node11</title>
<g id="a_node11"><a xlink:href="class_collisions.html#a4d438eb211fe0953343dc39f478e14e0" target="_top" xlink:title="Collisions::hash_find">
<polygon fill="white" stroke="black" points="582.5,-842.5 582.5,-861.5 689.5,-861.5 689.5,-842.5 582.5,-842.5"/>
<text text-anchor="middle" x="636" y="-849.5" font-family="Helvetica,sans-Serif" font-size="10.00">Collisions::hash_find</text>
</a>
</g>
</g>
<!-- Node8&#45;&gt;Node11 -->
<g id="edge10" class="edge"><title>Node8&#45;&gt;Node11</title>
<path fill="none" stroke="midnightblue" d="M497.553,-757.596C503.451,-760.053 509.085,-763.135 514,-767 540.263,-787.656 523.313,-812.894 550,-833 556.611,-837.981 564.282,-841.701 572.256,-844.47"/>
<polygon fill="midnightblue" stroke="midnightblue" points="571.5,-847.897 582.083,-847.399 573.499,-841.189 571.5,-847.897"/>
</g>
<!-- Node13 -->
<g id="node13" class="node"><title>Node13</title>
<g id="a_node13"><a xlink:href="class_collisions.html#a169c711864e32721fb5daab7d7d01df4" target="_top" xlink:title="Collisions::permitEvent">
<polygon fill="white" stroke="black" points="577,-804.5 577,-823.5 695,-823.5 695,-804.5 577,-804.5"/>
<text text-anchor="middle" x="636" y="-811.5" font-family="Helvetica,sans-Serif" font-size="10.00">Collisions::permitEvent</text>
</a>
</g>
</g>
<!-- Node8&#45;&gt;Node13 -->
<g id="edge12" class="edge"><title>Node8&#45;&gt;Node13</title>
<path fill="none" stroke="midnightblue" d="M489.007,-757.553C497.529,-760.088 506.196,-763.206 514,-767 531.987,-775.744 531.882,-785.53 550,-794 556.182,-796.89 562.818,-799.382 569.558,-801.527"/>
<polygon fill="midnightblue" stroke="midnightblue" points="568.884,-804.976 579.465,-804.426 570.851,-798.258 568.884,-804.976"/>
</g>
<!-- Node16 -->
<g id="node16" class="node"><title>Node16</title>
<g id="a_node16"><a xlink:href="class_collisions.html#afab554d00436aa9157c93a4eaecf8d74" target="_top" xlink:title="Collisions::envokeScript\lCallback">
<polygon fill="white" stroke="black" points="575,-755 575,-785 697,-785 697,-755 575,-755"/>
<text text-anchor="start" x="583" y="-773" font-family="Helvetica,sans-Serif" font-size="10.00">Collisions::envokeScript</text>
<text text-anchor="middle" x="636" y="-762" font-family="Helvetica,sans-Serif" font-size="10.00">Callback</text>
</a>
</g>
</g>
<!-- Node8&#45;&gt;Node16 -->
<g id="edge15" class="edge"><title>Node8&#45;&gt;Node16</title>
<path fill="none" stroke="midnightblue" d="M508.539,-755.51C526.687,-757.589 546.456,-759.854 564.856,-761.963"/>
<polygon fill="midnightblue" stroke="midnightblue" points="564.585,-765.454 574.919,-763.116 565.382,-758.5 564.585,-765.454"/>
</g>
<!-- Node17 -->
<g id="node17" class="node"><title>Node17</title>
<g id="a_node17"><a xlink:href="class_collisions.html#accb10540c3aa849f57b7fd3b9da2e1c6" target="_top" xlink:title="Collisions::calcCollidedSide">
<polygon fill="white" stroke="black" points="567,-716.5 567,-735.5 705,-735.5 705,-716.5 567,-716.5"/>
<text text-anchor="middle" x="636" y="-723.5" font-family="Helvetica,sans-Serif" font-size="10.00">Collisions::calcCollidedSide</text>
</a>
</g>
</g>
<!-- Node8&#45;&gt;Node17 -->
<g id="edge16" class="edge"><title>Node8&#45;&gt;Node17</title>
<path fill="none" stroke="midnightblue" d="M508.539,-740.49C523.955,-738.724 540.541,-736.823 556.464,-734.999"/>
<polygon fill="midnightblue" stroke="midnightblue" points="557.276,-738.429 566.813,-733.813 556.479,-731.474 557.276,-738.429"/>
</g>
<!-- Node18 -->
<g id="node18" class="node"><title>Node18</title>
<g id="a_node18"><a xlink:href="class_collisions.html#ad12c4976773ee3a8034b02fe1cd0212d" target="_top" xlink:title="Collisions::clearEventCache">
<polygon fill="white" stroke="black" points="566,-678.5 566,-697.5 706,-697.5 706,-678.5 566,-678.5"/>
<text text-anchor="middle" x="636" y="-685.5" font-family="Helvetica,sans-Serif" font-size="10.00">Collisions::clearEventCache</text>
</a>
</g>
</g>
<!-- Node8&#45;&gt;Node18 -->
<g id="edge17" class="edge"><title>Node8&#45;&gt;Node18</title>
<path fill="none" stroke="midnightblue" d="M465.214,-738.394C486.628,-729.396 520.098,-716.018 550,-707 558.52,-704.43 567.615,-702.038 576.57,-699.877"/>
<polygon fill="midnightblue" stroke="midnightblue" points="577.641,-703.222 586.583,-697.539 576.049,-696.405 577.641,-703.222"/>
</g>
<!-- Node10 -->
<g id="node10" class="node"><title>Node10</title>
<g id="a_node10"><a xlink:href="class_terrain_geometry_manager.html#afead68b5ff7a0b77395065ab8ea855e3" target="_top" xlink:title="TerrainGeometryManager\l::getMaxTerrainSize">
<polygon fill="white" stroke="black" points="775.5,-881 775.5,-911 902.5,-911 902.5,-881 775.5,-881"/>
<text text-anchor="start" x="783.5" y="-899" font-family="Helvetica,sans-Serif" font-size="10.00">TerrainGeometryManager</text>
<text text-anchor="middle" x="839" y="-888" font-family="Helvetica,sans-Serif" font-size="10.00">::getMaxTerrainSize</text>
</a>
</g>
</g>
<!-- Node9&#45;&gt;Node10 -->
<g id="edge9" class="edge"><title>Node9&#45;&gt;Node10</title>
<path fill="none" stroke="midnightblue" d="M722.242,-894.272C736.621,-894.487 751.426,-894.708 765.443,-894.917"/>
<polygon fill="midnightblue" stroke="midnightblue" points="765.442,-898.417 775.493,-895.067 765.547,-891.418 765.442,-898.417"/>
</g>
<!-- Node12 -->
<g id="node12" class="node"><title>Node12</title>
<g id="a_node12"><a xlink:href="class_collisions.html#a7e21c069d16d661d211d0cb896577edf" target="_top" xlink:title="Collisions::hashfunc">
<polygon fill="white" stroke="black" points="786.5,-842.5 786.5,-861.5 891.5,-861.5 891.5,-842.5 786.5,-842.5"/>
<text text-anchor="middle" x="839" y="-849.5" font-family="Helvetica,sans-Serif" font-size="10.00">Collisions::hashfunc</text>
</a>
</g>
</g>
<!-- Node11&#45;&gt;Node12 -->
<g id="edge11" class="edge"><title>Node11&#45;&gt;Node12</title>
<path fill="none" stroke="midnightblue" d="M689.548,-852C716.172,-852 748.66,-852 776.449,-852"/>
<polygon fill="midnightblue" stroke="midnightblue" points="776.454,-855.5 786.454,-852 776.454,-848.5 776.454,-855.5"/>
</g>
<!-- Node14 -->
<g id="node14" class="node"><title>Node14</title>
<g id="a_node14"><a xlink:href="class_ro_r_frame_listener.html#a0398db79a92d8178b77e3733abc9a238" target="_top" xlink:title="RoRFrameListener::GetBeam\lFactory">
<polygon fill="white" stroke="black" points="766,-793 766,-823 912,-823 912,-793 766,-793"/>
<text text-anchor="start" x="774" y="-811" font-family="Helvetica,sans-Serif" font-size="10.00">RoRFrameListener::GetBeam</text>
<text text-anchor="middle" x="839" y="-800" font-family="Helvetica,sans-Serif" font-size="10.00">Factory</text>
</a>
</g>
</g>
<!-- Node13&#45;&gt;Node14 -->
<g id="edge13" class="edge"><title>Node13&#45;&gt;Node14</title>
<path fill="none" stroke="midnightblue" d="M695.138,-812.265C713.983,-811.702 735.261,-811.067 755.527,-810.462"/>
<polygon fill="midnightblue" stroke="midnightblue" points="755.805,-813.955 765.696,-810.158 755.596,-806.958 755.805,-813.955"/>
</g>
<!-- Node15 -->
<g id="node15" class="node"><title>Node15</title>
<g id="a_node15"><a xlink:href="class_ro_r_1_1_beam_factory.html#aeb17b3a10c961e56770f7dc87a16625c" target="_top" xlink:title="RoR::BeamFactory::getCurrent\lTruck">
<polygon fill="white" stroke="red" points="762.5,-689 762.5,-719 915.5,-719 915.5,-689 762.5,-689"/>
<text text-anchor="start" x="770.5" y="-707" font-family="Helvetica,sans-Serif" font-size="10.00">RoR::BeamFactory::getCurrent</text>
<text text-anchor="middle" x="839" y="-696" font-family="Helvetica,sans-Serif" font-size="10.00">Truck</text>
</a>
</g>
</g>
<!-- Node13&#45;&gt;Node15 -->
<g id="edge14" class="edge"><title>Node13&#45;&gt;Node15</title>
<path fill="none" stroke="midnightblue" d="M693.043,-804.427C702.948,-801.729 712.971,-798.311 722,-794 758.056,-776.784 793.448,-746.908 815.471,-726.331"/>
<polygon fill="midnightblue" stroke="midnightblue" points="818.122,-728.639 822.956,-719.211 813.298,-723.567 818.122,-728.639"/>
</g>
<!-- Node21 -->
<g id="node21" class="node"><title>Node21</title>
<g id="a_node21"><a xlink:href="class_survey_map_manager.html#a7af7a8d747001ee3749c4c0b97a32375" target="_top" xlink:title="SurveyMapManager::create\lMapEntity">
<polygon fill="white" stroke="black" points="373.5,-279 373.5,-309 510.5,-309 510.5,-279 373.5,-279"/>
<text text-anchor="start" x="381.5" y="-297" font-family="Helvetica,sans-Serif" font-size="10.00">SurveyMapManager::create</text>
<text text-anchor="middle" x="442" y="-286" font-family="Helvetica,sans-Serif" font-size="10.00">MapEntity</text>
</a>
</g>
</g>
<!-- Node20&#45;&gt;Node21 -->
<g id="edge20" class="edge"><title>Node20&#45;&gt;Node21</title>
<path fill="none" stroke="midnightblue" d="M323.575,-309.868C336.488,-308.123 350.102,-306.284 363.303,-304.5"/>
<polygon fill="midnightblue" stroke="midnightblue" points="363.858,-307.957 373.299,-303.149 362.92,-301.02 363.858,-307.957"/>
</g>
<!-- Node24 -->
<g id="node24" class="node"><title>Node24</title>
<g id="a_node24"><a xlink:href="class_beam_engine.html#aa607acaf680170927f6aa5aee55e6aa0" target="_top" xlink:title="BeamEngine::offstart">
<polygon fill="white" stroke="black" points="387.5,-216.5 387.5,-235.5 496.5,-235.5 496.5,-216.5 387.5,-216.5"/>
<text text-anchor="middle" x="442" y="-223.5" font-family="Helvetica,sans-Serif" font-size="10.00">BeamEngine::offstart</text>
</a>
</g>
</g>
<!-- Node23&#45;&gt;Node24 -->
<g id="edge23" class="edge"><title>Node23&#45;&gt;Node24</title>
<path fill="none" stroke="midnightblue" d="M304.124,-226C326.419,-226 353.222,-226 377.177,-226"/>
<polygon fill="midnightblue" stroke="midnightblue" points="377.248,-229.5 387.248,-226 377.248,-222.5 377.248,-229.5"/>
</g>
<!-- Node26 -->
<g id="node26" class="node"><title>Node26</title>
<g id="a_node26"><a xlink:href="class_ro_r_frame_listener.html#ad309b37d305d55def42d92f17abed557" target="_top" xlink:title="RoRFrameListener::Changed\lCurrentVehicle">
<polygon fill="white" stroke="black" points="370,-328 370,-358 514,-358 514,-328 370,-328"/>
<text text-anchor="start" x="378" y="-346" font-family="Helvetica,sans-Serif" font-size="10.00">RoRFrameListener::Changed</text>
<text text-anchor="middle" x="442" y="-335" font-family="Helvetica,sans-Serif" font-size="10.00">CurrentVehicle</text>
</a>
</g>
</g>
<!-- Node25&#45;&gt;Node26 -->
<g id="edge25" class="edge"><title>Node25&#45;&gt;Node26</title>
<path fill="none" stroke="midnightblue" d="M303.948,-391.96C313.906,-388.745 324.313,-385.316 334,-382 352.782,-375.57 373.291,-368.184 391.283,-361.582"/>
<polygon fill="midnightblue" stroke="midnightblue" points="392.818,-364.746 400.992,-358.006 390.399,-358.178 392.818,-364.746"/>
</g>
<!-- Node43 -->
<g id="node43" class="node"><title>Node43</title>
<g id="a_node43"><a xlink:href="class_ro_r_1_1_beam_factory.html#a1a0708c3248c3759a0352257a4af458b" target="_top" xlink:title="RoR::BeamFactory::Update\lSleepingState">
<polygon fill="white" stroke="black" points="372.5,-591 372.5,-621 511.5,-621 511.5,-591 372.5,-591"/>
<text text-anchor="start" x="380.5" y="-609" font-family="Helvetica,sans-Serif" font-size="10.00">RoR::BeamFactory::Update</text>
<text text-anchor="middle" x="442" y="-598" font-family="Helvetica,sans-Serif" font-size="10.00">SleepingState</text>
</a>
</g>
</g>
<!-- Node25&#45;&gt;Node43 -->
<g id="edge43" class="edge"><title>Node25&#45;&gt;Node43</title>
<path fill="none" stroke="midnightblue" d="M270.209,-422.285C302.573,-457.097 381.901,-542.429 419.96,-583.368"/>
<polygon fill="midnightblue" stroke="midnightblue" points="417.623,-585.995 426.995,-590.936 422.75,-581.228 417.623,-585.995"/>
</g>
<!-- Node27 -->
<g id="node27" class="node"><title>Node27</title>
<g id="a_node27"><a xlink:href="class_dash_board_manager.html#a714e4e5bbf29e1854c06af1993fecebc" target="_top" xlink:title="DashBoardManager::setVisible3d">
<polygon fill="white" stroke="black" points="758,-552.5 758,-571.5 920,-571.5 920,-552.5 758,-552.5"/>
<text text-anchor="middle" x="839" y="-559.5" font-family="Helvetica,sans-Serif" font-size="10.00">DashBoardManager::setVisible3d</text>
</a>
</g>
</g>
<!-- Node26&#45;&gt;Node27 -->
<g id="edge26" class="edge"><title>Node26&#45;&gt;Node27</title>
<path fill="none" stroke="midnightblue" d="M445.943,-358.071C454.334,-396.515 482.283,-498.27 550,-542 619.897,-587.137 720.249,-582.144 782.166,-573.056"/>
<polygon fill="midnightblue" stroke="midnightblue" points="782.793,-576.501 792.138,-571.508 781.719,-569.584 782.793,-576.501"/>
</g>
<!-- Node29 -->
<g id="node29" class="node"><title>Node29</title>
<g id="a_node29"><a xlink:href="namespace_ro_r_1_1_app.html#a21686de9300823b37db5f3f8fe992fb1" target="_top" xlink:title="RoR::App::GetOverlayWrapper">
<polygon fill="white" stroke="black" points="560,-464.5 560,-483.5 712,-483.5 712,-464.5 560,-464.5"/>
<text text-anchor="middle" x="636" y="-471.5" font-family="Helvetica,sans-Serif" font-size="10.00">RoR::App::GetOverlayWrapper</text>
</a>
</g>
</g>
<!-- Node26&#45;&gt;Node29 -->
<g id="edge28" class="edge"><title>Node26&#45;&gt;Node29</title>
<path fill="none" stroke="midnightblue" d="M452.856,-358.026C469.697,-382.425 506.446,-430.405 550,-455 553.958,-457.235 558.159,-459.208 562.491,-460.948"/>
<polygon fill="midnightblue" stroke="midnightblue" points="561.545,-464.327 572.14,-464.399 563.903,-457.736 561.545,-464.327"/>
</g>
<!-- Node30 -->
<g id="node30" class="node"><title>Node30</title>
<g id="a_node30"><a xlink:href="class_overlay_wrapper.html#a086d876abbbac640d88b09b2bbfe7d0f" target="_top" xlink:title="OverlayWrapper::showDashboard\lOverlays">
<polygon fill="white" stroke="black" points="554,-503 554,-533 718,-533 718,-503 554,-503"/>
<text text-anchor="start" x="562" y="-521" font-family="Helvetica,sans-Serif" font-size="10.00">OverlayWrapper::showDashboard</text>
<text text-anchor="middle" x="636" y="-510" font-family="Helvetica,sans-Serif" font-size="10.00">Overlays</text>
</a>
</g>
</g>
<!-- Node26&#45;&gt;Node30 -->
<g id="edge29" class="edge"><title>Node26&#45;&gt;Node30</title>
<path fill="none" stroke="midnightblue" d="M449.675,-358.33C463.699,-388.729 499.182,-456.827 550,-493 552.694,-494.918 555.536,-496.69 558.48,-498.327"/>
<polygon fill="midnightblue" stroke="midnightblue" points="557.067,-501.533 567.58,-502.845 560.18,-495.263 557.067,-501.533"/>
</g>
<!-- Node33 -->
<g id="node33" class="node"><title>Node33</title>
<g id="a_node33"><a xlink:href="class_beam.html#ab4dfeb77091b6ce9a344b1e1d4e964e3" target="_top" xlink:title="Beam::GetGfxActor">
<polygon fill="white" stroke="black" points="584.5,-426.5 584.5,-445.5 687.5,-445.5 687.5,-426.5 584.5,-426.5"/>
<text text-anchor="middle" x="636" y="-433.5" font-family="Helvetica,sans-Serif" font-size="10.00">Beam::GetGfxActor</text>
</a>
</g>
</g>
<!-- Node26&#45;&gt;Node33 -->
<g id="edge33" class="edge"><title>Node26&#45;&gt;Node33</title>
<path fill="none" stroke="midnightblue" d="M460.709,-358.144C480.989,-374.725 515.837,-400.952 550,-416 557.678,-419.382 566.009,-422.236 574.352,-424.633"/>
<polygon fill="midnightblue" stroke="midnightblue" points="573.548,-428.041 584.112,-427.241 575.355,-421.279 573.548,-428.041"/>
</g>
<!-- Node34 -->
<g id="node34" class="node"><title>Node34</title>
<g id="a_node34"><a xlink:href="class_ro_r_1_1_gfx_actor.html#a68717bfda17ddc3d4cff8e663c9cf06f" target="_top" xlink:title="RoR::GfxActor::GetVideoCam\lState">
<polygon fill="white" stroke="black" points="561.5,-377 561.5,-407 710.5,-407 710.5,-377 561.5,-377"/>
<text text-anchor="start" x="569.5" y="-395" font-family="Helvetica,sans-Serif" font-size="10.00">RoR::GfxActor::GetVideoCam</text>
<text text-anchor="middle" x="636" y="-384" font-family="Helvetica,sans-Serif" font-size="10.00">State</text>
</a>
</g>
</g>
<!-- Node26&#45;&gt;Node34 -->
<g id="edge34" class="edge"><title>Node26&#45;&gt;Node34</title>
<path fill="none" stroke="midnightblue" d="M501.911,-358.035C522.276,-363.232 545.272,-369.101 566.349,-374.48"/>
<polygon fill="midnightblue" stroke="midnightblue" points="565.645,-377.912 576.2,-376.994 567.376,-371.13 565.645,-377.912"/>
</g>
<!-- Node35 -->
<g id="node35" class="node"><title>Node35</title>
<g id="a_node35"><a xlink:href="class_ro_r_1_1_gfx_actor.html#a380125c9102242d296dc6f12b7468412" target="_top" xlink:title="RoR::GfxActor::SetVideoCam\lState">
<polygon fill="white" stroke="black" points="561.5,-328 561.5,-358 710.5,-358 710.5,-328 561.5,-328"/>
<text text-anchor="start" x="569.5" y="-346" font-family="Helvetica,sans-Serif" font-size="10.00">RoR::GfxActor::SetVideoCam</text>
<text text-anchor="middle" x="636" y="-335" font-family="Helvetica,sans-Serif" font-size="10.00">State</text>
</a>
</g>
</g>
<!-- Node26&#45;&gt;Node35 -->
<g id="edge35" class="edge"><title>Node26&#45;&gt;Node35</title>
<path fill="none" stroke="midnightblue" d="M514.221,-343C526.227,-343 538.788,-343 551.081,-343"/>
<polygon fill="midnightblue" stroke="midnightblue" points="551.326,-346.5 561.325,-343 551.325,-339.5 551.326,-346.5"/>
</g>
<!-- Node36 -->
<g id="node36" class="node"><title>Node36</title>
<g id="a_node36"><a xlink:href="class_beam.html#a3304824c3e7285047f007c956318de09" target="_top" xlink:title="Beam::prepareInside">
<polygon fill="white" stroke="black" points="582.5,-289.5 582.5,-308.5 689.5,-308.5 689.5,-289.5 582.5,-289.5"/>
<text text-anchor="middle" x="636" y="-296.5" font-family="Helvetica,sans-Serif" font-size="10.00">Beam::prepareInside</text>
</a>
</g>
</g>
<!-- Node26&#45;&gt;Node36 -->
<g id="edge36" class="edge"><title>Node26&#45;&gt;Node36</title>
<path fill="none" stroke="midnightblue" d="M506.912,-327.961C521.093,-324.654 536.052,-321.188 550,-318 560.277,-315.651 571.261,-313.172 581.804,-310.808"/>
<polygon fill="midnightblue" stroke="midnightblue" points="582.746,-314.184 591.74,-308.585 581.217,-307.353 582.746,-314.184"/>
</g>
<!-- Node37 -->
<g id="node37" class="node"><title>Node37</title>
<g id="a_node37"><a xlink:href="class_beam.html#a7d009b83ca5b166efe7c356abfcc3490" target="_top" xlink:title="Beam::getRotation">
<polygon fill="white" stroke="black" points="587,-251.5 587,-270.5 685,-270.5 685,-251.5 587,-251.5"/>
<text text-anchor="middle" x="636" y="-258.5" font-family="Helvetica,sans-Serif" font-size="10.00">Beam::getRotation</text>
</a>
</g>
</g>
<!-- Node26&#45;&gt;Node37 -->
<g id="edge37" class="edge"><title>Node26&#45;&gt;Node37</title>
<path fill="none" stroke="midnightblue" d="M495.17,-327.882C501.742,-325.05 508.189,-321.77 514,-318 533.517,-305.338 529.766,-291.482 550,-280 558.296,-275.292 567.666,-271.75 577.075,-269.086"/>
<polygon fill="midnightblue" stroke="midnightblue" points="578.015,-272.459 586.852,-266.616 576.3,-265.672 578.015,-272.459"/>
</g>
<!-- Node38 -->
<g id="node38" class="node"><title>Node38</title>
<g id="a_node38"><a xlink:href="class_character.html#aa761e344c2aa6df9205bfa6bf1d3ea13" target="_top" xlink:title="Character::setBeamCoupling">
<polygon fill="white" stroke="red" points="564.5,-213.5 564.5,-232.5 707.5,-232.5 707.5,-213.5 564.5,-213.5"/>
<text text-anchor="middle" x="636" y="-220.5" font-family="Helvetica,sans-Serif" font-size="10.00">Character::setBeamCoupling</text>
</a>
</g>
</g>
<!-- Node26&#45;&gt;Node38 -->
<g id="edge38" class="edge"><title>Node26&#45;&gt;Node38</title>
<path fill="none" stroke="midnightblue" d="M499.641,-327.881C504.828,-325.114 509.729,-321.849 514,-318 541.764,-292.978 520.801,-265.332 550,-242 552.195,-240.246 554.518,-238.647 556.941,-237.189"/>
<polygon fill="midnightblue" stroke="midnightblue" points="558.785,-240.177 566.091,-232.505 555.595,-233.947 558.785,-240.177"/>
</g>
<!-- Node39 -->
<g id="node39" class="node"><title>Node39</title>
<g id="a_node39"><a xlink:href="class_character.html#a305f94b58e7e8b61cc6829e4aba7a060" target="_top" xlink:title="Character::setRotation">
<polygon fill="white" stroke="black" points="578,-175.5 578,-194.5 694,-194.5 694,-175.5 578,-175.5"/>
<text text-anchor="middle" x="636" y="-182.5" font-family="Helvetica,sans-Serif" font-size="10.00">Character::setRotation</text>
</a>
</g>
</g>
<!-- Node26&#45;&gt;Node39 -->
<g id="edge39" class="edge"><title>Node26&#45;&gt;Node39</title>
<path fill="none" stroke="midnightblue" d="M501.235,-327.865C505.92,-325.108 510.274,-321.85 514,-318 550.952,-279.821 510.85,-239.922 550,-204 555.362,-199.08 561.712,-195.339 568.489,-192.506"/>
<polygon fill="midnightblue" stroke="midnightblue" points="569.669,-195.801 577.942,-189.182 567.347,-189.198 569.669,-195.801"/>
</g>
<!-- Node40 -->
<g id="node40" class="node"><title>Node40</title>
<g id="a_node40"><a xlink:href="class_character.html#a1884d7f3e305d9b23164fdbf208f1cc6" target="_top" xlink:title="Character::setPosition">
<polygon fill="white" stroke="red" points="579,-137.5 579,-156.5 693,-156.5 693,-137.5 579,-137.5"/>
<text text-anchor="middle" x="636" y="-144.5" font-family="Helvetica,sans-Serif" font-size="10.00">Character::setPosition</text>
</a>
</g>
</g>
<!-- Node26&#45;&gt;Node40 -->
<g id="edge40" class="edge"><title>Node26&#45;&gt;Node40</title>
<path fill="none" stroke="midnightblue" d="M501.877,-327.942C506.368,-325.169 510.505,-321.887 514,-318 560.421,-266.378 500.6,-214.779 550,-166 555.4,-160.668 561.95,-156.696 568.99,-153.756"/>
<polygon fill="midnightblue" stroke="midnightblue" points="570.525,-156.929 578.834,-150.356 568.24,-150.313 570.525,-156.929"/>
</g>
<!-- Node41 -->
<g id="node41" class="node"><title>Node41</title>
<g id="a_node41"><a xlink:href="class_ro_r_1_1_force_feedback.html#a5ad15f0bae3f998c07de438637445f28" target="_top" xlink:title="RoR::ForceFeedback\l::SetEnabled">
<polygon fill="white" stroke="red" points="581,-88 581,-118 691,-118 691,-88 581,-88"/>
<text text-anchor="start" x="589" y="-106" font-family="Helvetica,sans-Serif" font-size="10.00">RoR::ForceFeedback</text>
<text text-anchor="middle" x="636" y="-95" font-family="Helvetica,sans-Serif" font-size="10.00">::SetEnabled</text>
</a>
</g>
</g>
<!-- Node26&#45;&gt;Node41 -->
<g id="edge41" class="edge"><title>Node26&#45;&gt;Node41</title>
<path fill="none" stroke="midnightblue" d="M502.4,-327.897C506.722,-325.134 510.679,-321.866 514,-318 570.007,-252.807 492.301,-191.7 550,-128 555.927,-121.456 563.47,-116.59 571.605,-112.978"/>
<polygon fill="midnightblue" stroke="midnightblue" points="572.884,-116.236 580.987,-109.411 570.396,-109.693 572.884,-116.236"/>
</g>
<!-- Node42 -->
<g id="node42" class="node"><title>Node42</title>
<g id="a_node42"><a xlink:href="class_camera_manager.html#a737fe1d8d82faf6d9a3981eb713ec82c" target="_top" xlink:title="CameraManager::NotifyVehicle\lChanged">
<polygon fill="white" stroke="red" points="559.5,-39 559.5,-69 712.5,-69 712.5,-39 559.5,-39"/>
<text text-anchor="start" x="567.5" y="-57" font-family="Helvetica,sans-Serif" font-size="10.00">CameraManager::NotifyVehicle</text>
<text text-anchor="middle" x="636" y="-46" font-family="Helvetica,sans-Serif" font-size="10.00">Changed</text>
</a>
</g>
</g>
<!-- Node26&#45;&gt;Node42 -->
<g id="edge42" class="edge"><title>Node26&#45;&gt;Node42</title>
<path fill="none" stroke="midnightblue" d="M502.89,-327.817C507.048,-325.071 510.837,-321.828 514,-318 582.704,-234.852 478.697,-158.93 550,-78 550.76,-77.1371 551.549,-76.3042 552.364,-75.5002"/>
<polygon fill="midnightblue" stroke="midnightblue" points="554.786,-78.0417 560.339,-69.0184 550.371,-72.6096 554.786,-78.0417"/>
</g>
<!-- Node28 -->
<g id="node28" class="node"><title>Node28</title>
<g id="a_node28"><a xlink:href="class_dash_board.html#a650c134fdce0c84a77d84d2c23bdccbe" target="_top" xlink:title="DashBoard::setVisible">
<polygon fill="white" stroke="black" points="956,-533.5 956,-552.5 1070,-552.5 1070,-533.5 956,-533.5"/>
<text text-anchor="middle" x="1013" y="-540.5" font-family="Helvetica,sans-Serif" font-size="10.00">DashBoard::setVisible</text>
</a>
</g>
</g>
<!-- Node27&#45;&gt;Node28 -->
<g id="edge27" class="edge"><title>Node27&#45;&gt;Node28</title>
<path fill="none" stroke="midnightblue" d="M920.209,-553.14C928.801,-552.191 937.471,-551.233 945.873,-550.305"/>
<polygon fill="midnightblue" stroke="midnightblue" points="946.411,-553.767 955.966,-549.19 945.642,-546.809 946.411,-553.767"/>
</g>
<!-- Node31 -->
<g id="node31" class="node"><title>Node31</title>
<g id="a_node31"><a xlink:href="class_dash_board_manager.html#aab1c20ed732f3e11ea290a2f90be99e0" target="_top" xlink:title="DashBoardManager::wasLoaded">
<polygon fill="white" stroke="black" points="760,-476.5 760,-495.5 918,-495.5 918,-476.5 760,-476.5"/>
<text text-anchor="middle" x="839" y="-483.5" font-family="Helvetica,sans-Serif" font-size="10.00">DashBoardManager::wasLoaded</text>
</a>
</g>
</g>
<!-- Node30&#45;&gt;Node31 -->
<g id="edge30" class="edge"><title>Node30&#45;&gt;Node31</title>
<path fill="none" stroke="midnightblue" d="M718.175,-505.077C734.777,-502.434 752.11,-499.674 768.269,-497.101"/>
<polygon fill="midnightblue" stroke="midnightblue" points="768.836,-500.555 778.161,-495.527 767.735,-493.642 768.836,-500.555"/>
</g>
<!-- Node32 -->
<g id="node32" class="node"><title>Node32</title>
<g id="a_node32"><a xlink:href="class_dash_board_manager.html#a21ffd946b6843df16ca7b3ef704b596a" target="_top" xlink:title="DashBoardManager::setVisible">
<polygon fill="white" stroke="black" points="763,-514.5 763,-533.5 915,-533.5 915,-514.5 763,-514.5"/>
<text text-anchor="middle" x="839" y="-521.5" font-family="Helvetica,sans-Serif" font-size="10.00">DashBoardManager::setVisible</text>
</a>
</g>
</g>
<!-- Node30&#45;&gt;Node32 -->
<g id="edge31" class="edge"><title>Node30&#45;&gt;Node32</title>
<path fill="none" stroke="midnightblue" d="M718.175,-520.423C729.437,-520.759 741.034,-521.106 752.374,-521.444"/>
<polygon fill="midnightblue" stroke="midnightblue" points="752.598,-524.952 762.698,-521.752 752.807,-517.955 752.598,-524.952"/>
</g>
<!-- Node32&#45;&gt;Node28 -->
<g id="edge32" class="edge"><title>Node32&#45;&gt;Node28</title>
<path fill="none" stroke="midnightblue" d="M915.191,-532.306C925.322,-533.425 935.656,-534.567 945.619,-535.667"/>
<polygon fill="midnightblue" stroke="midnightblue" points="945.519,-539.177 955.843,-536.797 946.288,-532.22 945.519,-539.177"/>
</g>
<!-- Node43&#45;&gt;Node15 -->
<g id="edge44" class="edge"><title>Node43&#45;&gt;Node15</title>
<path fill="none" stroke="midnightblue" d="M509.979,-621.063C590.856,-639.26 716.8,-667.63 722,-669 741.401,-674.11 762.447,-680.271 781.219,-685.99"/>
<polygon fill="midnightblue" stroke="midnightblue" points="780.221,-689.345 790.807,-688.932 782.274,-682.653 780.221,-689.345"/>
</g>
<!-- Node44 -->
<g id="node44" class="node"><title>Node44</title>
<g id="a_node44"><a xlink:href="class_ro_r_1_1_beam_factory.html#a79720bddfd56a8689f7e60f93e1678cd" target="_top" xlink:title="RoR::BeamFactory::Recursive\lActivation">
<polygon fill="white" stroke="red" points="560,-591 560,-621 712,-621 712,-591 560,-591"/>
<text text-anchor="start" x="568" y="-609" font-family="Helvetica,sans-Serif" font-size="10.00">RoR::BeamFactory::Recursive</text>
<text text-anchor="middle" x="636" y="-598" font-family="Helvetica,sans-Serif" font-size="10.00">Activation</text>
</a>
</g>
</g>
<!-- Node43&#45;&gt;Node44 -->
<g id="edge45" class="edge"><title>Node43&#45;&gt;Node44</title>
<path fill="none" stroke="midnightblue" d="M511.503,-606C523.825,-606 536.807,-606 549.538,-606"/>
<polygon fill="midnightblue" stroke="midnightblue" points="549.678,-609.5 559.678,-606 549.678,-602.5 549.678,-609.5"/>
</g>
<!-- Node46 -->
<g id="node46" class="node"><title>Node46</title>
<g id="a_node46"><a xlink:href="class_thread_pool.html#ae2b5f048a1a2b457566477b8afae2243" target="_top" xlink:title="Submit new asynchronous task to thread pool and return Task handle to allow for synchronization. ">
<polygon fill="white" stroke="black" points="386,-178.5 386,-197.5 498,-197.5 498,-178.5 386,-178.5"/>
<text text-anchor="middle" x="442" y="-185.5" font-family="Helvetica,sans-Serif" font-size="10.00">ThreadPool::RunTask</text>
</a>
</g>
</g>
<!-- Node45&#45;&gt;Node46 -->
<g id="edge47" class="edge"><title>Node45&#45;&gt;Node46</title>
<path fill="none" stroke="midnightblue" d="M334.189,-188C348.019,-188 362.287,-188 375.716,-188"/>
<polygon fill="midnightblue" stroke="midnightblue" points="375.799,-191.5 385.799,-188 375.799,-184.5 375.799,-191.5"/>
</g>
<!-- Node49 -->
<g id="node49" class="node"><title>Node49</title>
<g id="a_node49"><a xlink:href="_approx_math_8h.html#a88cab057c9c3a7a5cbaa1aebb06bf864" target="_top" xlink:title="fast_normalise">
<polygon fill="white" stroke="black" points="402,-26.5 402,-45.5 482,-45.5 482,-26.5 402,-26.5"/>
<text text-anchor="middle" x="442" y="-33.5" font-family="Helvetica,sans-Serif" font-size="10.00">fast_normalise</text>
</a>
</g>
</g>
<!-- Node48&#45;&gt;Node49 -->
<g id="edge50" class="edge"><title>Node48&#45;&gt;Node49</title>
<path fill="none" stroke="midnightblue" d="M290.797,-77.4073C320.771,-69.1441 364.205,-57.1705 396.665,-48.2222"/>
<polygon fill="midnightblue" stroke="midnightblue" points="397.649,-51.5815 406.359,-45.5497 395.788,-44.8333 397.649,-51.5815"/>
</g>
<!-- Node50 -->
<g id="node50" class="node"><title>Node50</title>
<g id="a_node50"><a xlink:href="_approx_math_8h.html#a08e9e14c091640464aae072f3823b855" target="_top" xlink:title="fast_invSqrt">
<polygon fill="white" stroke="black" points="601.5,-0.5 601.5,-19.5 670.5,-19.5 670.5,-0.5 601.5,-0.5"/>
<text text-anchor="middle" x="636" y="-7.5" font-family="Helvetica,sans-Serif" font-size="10.00">fast_invSqrt</text>
</a>
</g>
</g>
<!-- Node49&#45;&gt;Node50 -->
<g id="edge51" class="edge"><title>Node49&#45;&gt;Node50</title>
<path fill="none" stroke="midnightblue" d="M482.317,-30.6758C513.897,-26.3993 558.227,-20.3963 590.99,-15.9597"/>
<polygon fill="midnightblue" stroke="midnightblue" points="591.75,-19.3889 601.189,-14.5785 590.81,-12.4522 591.75,-19.3889"/>
</g>
</g>
</svg>
