<?xml version="1.0" encoding="UTF-8" standalone="no"?>
<!DOCTYPE svg PUBLIC "-//W3C//DTD SVG 1.1//EN"
 "http://www.w3.org/Graphics/SVG/1.1/DTD/svg11.dtd">
<!-- Generated by graphviz version 2.36.0 (20140111.2315)
 -->
<!-- Title: RoR::FlexBodyFileIO::WriteFlexbodyLocatorList Pages: 1 -->
<svg width="494pt" height="38pt"
 viewBox="0.00 0.00 494.00 38.00" xmlns="http://www.w3.org/2000/svg" xmlns:xlink="http://www.w3.org/1999/xlink">
<g id="graph0" class="graph" transform="scale(1 1) rotate(0) translate(4 34)">
<title>RoR::FlexBodyFileIO::WriteFlexbodyLocatorList</title>
<polygon fill="white" stroke="none" points="-4,4 -4,-34 490,-34 490,4 -4,4"/>
<!-- Node1 -->
<g id="node1" class="node"><title>Node1</title>
<polygon fill="#bfbfbf" stroke="black" points="0,-0 0,-30 134,-30 134,-0 0,-0"/>
<text text-anchor="start" x="8" y="-18" font-family="Helvetica,sans-Serif" font-size="10.00">RoR::FlexBodyFileIO</text>
<text text-anchor="middle" x="67" y="-7" font-family="Helvetica,sans-Serif" font-size="10.00">::WriteFlexbodyLocatorList</text>
</g>
<!-- Node2 -->
<g id="node2" class="node"><title>Node2</title>
<g id="a_node2"><a xlink:href="class_ro_r_1_1_flex_body_file_i_o.html#a740a4ce57abf708b823cb5f3f196cc9a" target="_top" xlink:title="RoR::FlexBodyFileIO\l::SaveFile">
<polygon fill="white" stroke="black" points="170,-0 170,-30 280,-30 280,-0 170,-0"/>
<text text-anchor="start" x="178" y="-18" font-family="Helvetica,sans-Serif" font-size="10.00">RoR::FlexBodyFileIO</text>
<text text-anchor="middle" x="225" y="-7" font-family="Helvetica,sans-Serif" font-size="10.00">::SaveFile</text>
</a>
</g>
</g>
<!-- Node1&#45;&gt;Node2 -->
<g id="edge1" class="edge"><title>Node1&#45;&gt;Node2</title>
<path fill="none" stroke="midnightblue" d="M144.171,-15C152.732,-15 161.324,-15 169.531,-15"/>
<polygon fill="midnightblue" stroke="midnightblue" points="144.158,-11.5001 134.158,-15 144.158,-18.5001 144.158,-11.5001"/>
</g>
<!-- Node3 -->
<g id="node3" class="node"><title>Node3</title>
<g id="a_node3"><a xlink:href="class_ro_r_1_1_flex_factory.html#a41be7fb73ef6ebf7535855007976b807" target="_top" xlink:title="RoR::FlexFactory::SaveFlexbodies\lToCache">
<polygon fill="white" stroke="black" points="316,-0 316,-30 486,-30 486,-0 316,-0"/>
<text text-anchor="start" x="324" y="-18" font-family="Helvetica,sans-Serif" font-size="10.00">RoR::FlexFactory::SaveFlexbodies</text>
<text text-anchor="middle" x="401" y="-7" font-family="Helvetica,sans-Serif" font-size="10.00">ToCache</text>
</a>
</g>
</g>
<!-- Node2&#45;&gt;Node3 -->
<g id="edge2" class="edge"><title>Node2&#45;&gt;Node3</title>
<path fill="none" stroke="midnightblue" d="M290.161,-15C298.551,-15 307.246,-15 315.903,-15"/>
<polygon fill="midnightblue" stroke="midnightblue" points="290.101,-11.5001 280.101,-15 290.101,-18.5001 290.101,-11.5001"/>
</g>
</g>
</svg>
