<?xml version="1.0" encoding="UTF-8" standalone="no"?>
<!DOCTYPE svg PUBLIC "-//W3C//DTD SVG 1.1//EN"
 "http://www.w3.org/Graphics/SVG/1.1/DTD/svg11.dtd">
<!-- Generated by graphviz version 2.36.0 (20140111.2315)
 -->
<!-- Title: RigDef::SequentialImporter::ResolveNodeByIndex Pages: 1 -->
<svg width="316pt" height="87pt"
 viewBox="0.00 0.00 316.00 87.00" xmlns="http://www.w3.org/2000/svg" xmlns:xlink="http://www.w3.org/1999/xlink">
<g id="graph0" class="graph" transform="scale(1 1) rotate(0) translate(4 83)">
<title>RigDef::SequentialImporter::ResolveNodeByIndex</title>
<polygon fill="white" stroke="none" points="-4,4 -4,-83 312,-83 312,4 -4,4"/>
<!-- Node1 -->
<g id="node1" class="node"><title>Node1</title>
<polygon fill="#bfbfbf" stroke="black" points="0.5,-24 0.5,-54 135.5,-54 135.5,-24 0.5,-24"/>
<text text-anchor="start" x="8.5" y="-42" font-family="Helvetica,sans-Serif" font-size="10.00">RigDef::SequentialImporter</text>
<text text-anchor="middle" x="68" y="-31" font-family="Helvetica,sans-Serif" font-size="10.00">::ResolveNodeByIndex</text>
</g>
<!-- Node2 -->
<g id="node2" class="node"><title>Node2</title>
<g id="a_node2"><a xlink:href="class_rig_def_1_1_sequential_importer.html#a6029705326e0cfa1d42e06ff8a3937de" target="_top" xlink:title="RigDef::SequentialImporter\l::ResolveFlexbodyForset">
<polygon fill="white" stroke="black" points="172.5,-49 172.5,-79 307.5,-79 307.5,-49 172.5,-49"/>
<text text-anchor="start" x="180.5" y="-67" font-family="Helvetica,sans-Serif" font-size="10.00">RigDef::SequentialImporter</text>
<text text-anchor="middle" x="240" y="-56" font-family="Helvetica,sans-Serif" font-size="10.00">::ResolveFlexbodyForset</text>
</a>
</g>
</g>
<!-- Node1&#45;&gt;Node2 -->
<g id="edge1" class="edge"><title>Node1&#45;&gt;Node2</title>
<path fill="none" stroke="midnightblue" d="M145.715,-50.2817C154.651,-51.5957 163.71,-52.9279 172.492,-54.2194"/>
<polygon fill="midnightblue" stroke="midnightblue" points="146.103,-46.8012 135.701,-48.8089 145.085,-53.7267 146.103,-46.8012"/>
</g>
<!-- Node3 -->
<g id="node3" class="node"><title>Node3</title>
<g id="a_node3"><a xlink:href="class_rig_def_1_1_sequential_importer.html#a3b5fe4ea5c9ab72bab2c88845cbe144a" target="_top" xlink:title="RigDef::SequentialImporter\l::ResolveNodeRanges">
<polygon fill="white" stroke="black" points="172.5,-0 172.5,-30 307.5,-30 307.5,-0 172.5,-0"/>
<text text-anchor="start" x="180.5" y="-18" font-family="Helvetica,sans-Serif" font-size="10.00">RigDef::SequentialImporter</text>
<text text-anchor="middle" x="240" y="-7" font-family="Helvetica,sans-Serif" font-size="10.00">::ResolveNodeRanges</text>
</a>
</g>
</g>
<!-- Node1&#45;&gt;Node3 -->
<g id="edge2" class="edge"><title>Node1&#45;&gt;Node3</title>
<path fill="none" stroke="midnightblue" d="M145.715,-28.1696C154.651,-26.9081 163.71,-25.6292 172.492,-24.3894"/>
<polygon fill="midnightblue" stroke="midnightblue" points="145.113,-24.7198 135.701,-29.5834 146.092,-31.6511 145.113,-24.7198"/>
</g>
</g>
</svg>
