<?xml version="1.0" encoding="UTF-8" standalone="no"?>
<!DOCTYPE svg PUBLIC "-//W3C//DTD SVG 1.1//EN"
 "http://www.w3.org/Graphics/SVG/1.1/DTD/svg11.dtd">
<!-- Generated by graphviz version 2.36.0 (20140111.2315)
 -->
<!-- Title: RoR::BeamFactory::CreateLocalRigInstance Pages: 1 -->
<!--zoomable 175 -->
<svg id="main" version="1.1" xmlns="http://www.w3.org/2000/svg" xmlns:xlink="http://www.w3.org/1999/xlink" xml:space="preserve" onload="init(evt)">
<style type="text/css"><![CDATA[
.edge:hover path { stroke: red; }
.edge:hover polygon { stroke: red; fill: red; }
]]></style>
<script type="text/javascript"><![CDATA[
var edges = document.getElementsByTagName('g');
if (edges && edges.length) {
  for (var i=0;i<edges.length;i++) {
    if (edges[i].id.substr(0,4)=='edge') {
      edges[i].setAttribute('class','edge');
    }
  }
}
]]></script>
        <defs>
                <circle id="rim" cx="0" cy="0" r="7"/>
                <circle id="rim2" cx="0" cy="0" r="3.5"/>
                <g id="zoomPlus">
                        <use xlink:href="#rim" fill="#404040">
                                <set attributeName="fill" to="#808080" begin="zoomplus.mouseover" end="zoomplus.mouseout"/>
                        </use>
                        <path d="M-4,0h8M0,-4v8" fill="none" stroke="white" stroke-width="1.5" pointer-events="none"/>
                </g>
                <g id="zoomMin">
                        <use xlink:href="#rim" fill="#404040">
                                <set attributeName="fill" to="#808080" begin="zoomminus.mouseover" end="zoomminus.mouseout"/>
                        </use>
                        <path d="M-4,0h8" fill="none" stroke="white" stroke-width="1.5" pointer-events="none"/>
                </g>
                <g id="dirArrow">
                        <path fill="none" stroke="white" stroke-width="1.5" d="M0,-3.0v7 M-2.5,-0.5L0,-3.0L2.5,-0.5"/>
                </g>
               <g id="resetDef">
                       <use xlink:href="#rim2" fill="#404040">
                               <set attributeName="fill" to="#808080" begin="reset.mouseover" end="reset.mouseout"/>
                       </use>
               </g>
        </defs>

<script type="text/javascript">
var viewWidth = 904;
var viewHeight = 175;
var sectionId = 'dynsection-9';
</script>
<script xlink:href="svgpan.js"/>
<svg id="graph" class="graph">
<g id="viewport">
<title>RoR::BeamFactory::CreateLocalRigInstance</title>
<polygon fill="white" stroke="none" points="-4,4 -4,-171 900,-171 900,4 -4,4"/>
<!-- Node1 -->
<g id="node1" class="node"><title>Node1</title>
<polygon fill="#bfbfbf" stroke="black" points="0.5,-66 0.5,-96 137.5,-96 137.5,-66 0.5,-66"/>
<text text-anchor="start" x="8.5" y="-84" font-family="Helvetica,sans-Serif" font-size="10.00">RoR::BeamFactory::Create</text>
<text text-anchor="middle" x="69" y="-73" font-family="Helvetica,sans-Serif" font-size="10.00">LocalRigInstance</text>
</g>
<!-- Node2 -->
<g id="node2" class="node"><title>Node2</title>
<g id="a_node2"><a xlink:href="class_ro_r_frame_listener.html#afec2a0f00ed552c21d22aae76329bf38" target="_top" xlink:title="RoRFrameListener::Update\lInputEvents">
<polygon fill="white" stroke="black" points="353.5,-137 353.5,-167 490.5,-167 490.5,-137 353.5,-137"/>
<text text-anchor="start" x="361.5" y="-155" font-family="Helvetica,sans-Serif" font-size="10.00">RoRFrameListener::Update</text>
<text text-anchor="middle" x="422" y="-144" font-family="Helvetica,sans-Serif" font-size="10.00">InputEvents</text>
</a>
</g>
</g>
<!-- Node1&#45;&gt;Node2 -->
<g id="edge1" class="edge"><title>Node1&#45;&gt;Node2</title>
<path fill="none" stroke="midnightblue" d="M106.912,-100.747C126.339,-110.249 150.873,-120.881 174,-127 233.376,-142.71 303.182,-148.676 353.41,-150.879"/>
<polygon fill="midnightblue" stroke="midnightblue" points="108.323,-97.5392 97.8134,-96.1976 105.192,-103.8 108.323,-97.5392"/>
</g>
<!-- Node4 -->
<g id="node4" class="node"><title>Node4</title>
<g id="a_node4"><a xlink:href="class_ro_r_frame_listener.html#a74e44d8907e7f6ffddedd260f307a764" target="_top" xlink:title="RoRFrameListener::Reload\lCurrentTruck">
<polygon fill="white" stroke="black" points="174,-88 174,-118 310,-118 310,-88 174,-88"/>
<text text-anchor="start" x="182" y="-106" font-family="Helvetica,sans-Serif" font-size="10.00">RoRFrameListener::Reload</text>
<text text-anchor="middle" x="242" y="-95" font-family="Helvetica,sans-Serif" font-size="10.00">CurrentTruck</text>
</a>
</g>
</g>
<!-- Node1&#45;&gt;Node4 -->
<g id="edge3" class="edge"><title>Node1&#45;&gt;Node4</title>
<path fill="none" stroke="midnightblue" d="M147.76,-91.0042C156.49,-92.1273 165.328,-93.2644 173.907,-94.3682"/>
<polygon fill="midnightblue" stroke="midnightblue" points="147.949,-87.4997 137.584,-89.695 147.055,-94.4425 147.949,-87.4997"/>
</g>
<!-- Node7 -->
<g id="node7" class="node"><title>Node7</title>
<g id="a_node7"><a xlink:href="class_ro_r_frame_listener.html#aca3931d7a75f2ad4b9d36c4fcd03a3c9" target="_top" xlink:title="RoRFrameListener::SetupGameplayLoop">
<polygon fill="white" stroke="black" points="534,-27.5 534,-46.5 730,-46.5 730,-27.5 534,-27.5"/>
<text text-anchor="middle" x="632" y="-34.5" font-family="Helvetica,sans-Serif" font-size="10.00">RoRFrameListener::SetupGameplayLoop</text>
</a>
</g>
</g>
<!-- Node1&#45;&gt;Node7 -->
<g id="edge7" class="edge"><title>Node1&#45;&gt;Node7</title>
<path fill="none" stroke="midnightblue" d="M147.787,-74.899C248.619,-66.9907 424.462,-53.1991 533.929,-44.6134"/>
<polygon fill="midnightblue" stroke="midnightblue" points="147.365,-71.4213 137.67,-75.6926 147.913,-78.3999 147.365,-71.4213"/>
</g>
<!-- Node10 -->
<g id="node10" class="node"><title>Node10</title>
<g id="a_node10"><a xlink:href="class_terrain_object_manager.html#a202d577cb222f42c46e5b6600c9626a4" target="_top" xlink:title="TerrainObjectManager\l::loadPreloadedTrucks">
<polygon fill="white" stroke="black" points="185,-0 185,-30 299,-30 299,-0 185,-0"/>
<text text-anchor="start" x="193" y="-18" font-family="Helvetica,sans-Serif" font-size="10.00">TerrainObjectManager</text>
<text text-anchor="middle" x="242" y="-7" font-family="Helvetica,sans-Serif" font-size="10.00">::loadPreloadedTrucks</text>
</a>
</g>
</g>
<!-- Node1&#45;&gt;Node10 -->
<g id="edge10" class="edge"><title>Node1&#45;&gt;Node10</title>
<path fill="none" stroke="midnightblue" d="M118.666,-62.2168C145.051,-52.0329 177.223,-39.6156 201.952,-30.0713"/>
<polygon fill="midnightblue" stroke="midnightblue" points="117.3,-58.9922 109.231,-65.8583 119.82,-65.5227 117.3,-58.9922"/>
</g>
<!-- Node3 -->
<g id="node3" class="node"><title>Node3</title>
<g id="a_node3"><a xlink:href="class_ro_r_frame_listener.html#acd8647e188fb8e838689492965b86faf" target="_top" xlink:title="RoRFrameListener::frameStarted">
<polygon fill="white" stroke="black" points="551.5,-142.5 551.5,-161.5 712.5,-161.5 712.5,-142.5 551.5,-142.5"/>
<text text-anchor="middle" x="632" y="-149.5" font-family="Helvetica,sans-Serif" font-size="10.00">RoRFrameListener::frameStarted</text>
</a>
</g>
</g>
<!-- Node2&#45;&gt;Node3 -->
<g id="edge2" class="edge"><title>Node2&#45;&gt;Node3</title>
<path fill="none" stroke="midnightblue" d="M500.719,-152C517.305,-152 534.845,-152 551.497,-152"/>
<polygon fill="midnightblue" stroke="midnightblue" points="500.532,-148.5 490.532,-152 500.532,-155.5 500.532,-148.5"/>
</g>
<!-- Node4&#45;&gt;Node2 -->
<g id="edge4" class="edge"><title>Node4&#45;&gt;Node2</title>
<path fill="none" stroke="midnightblue" d="M307.738,-120.821C326.957,-126.112 347.81,-131.852 366.323,-136.948"/>
<polygon fill="midnightblue" stroke="midnightblue" points="308.429,-117.381 297.858,-118.101 306.571,-124.13 308.429,-117.381"/>
</g>
<!-- Node5 -->
<g id="node5" class="node"><title>Node5</title>
<g id="a_node5"><a xlink:href="class_ro_r_1_1_g_u_i_1_1_top_menubar.html#ad1c44bd3c1247dcd8b876ff7728fac32" target="_top" xlink:title="RoR::GUI::TopMenubar\l::onMenuBtn">
<polygon fill="white" stroke="black" points="361.5,-88 361.5,-118 482.5,-118 482.5,-88 361.5,-88"/>
<text text-anchor="start" x="369.5" y="-106" font-family="Helvetica,sans-Serif" font-size="10.00">RoR::GUI::TopMenubar</text>
<text text-anchor="middle" x="422" y="-95" font-family="Helvetica,sans-Serif" font-size="10.00">::onMenuBtn</text>
</a>
</g>
</g>
<!-- Node4&#45;&gt;Node5 -->
<g id="edge5" class="edge"><title>Node4&#45;&gt;Node5</title>
<path fill="none" stroke="midnightblue" d="M320.426,-103C334.132,-103 348.209,-103 361.33,-103"/>
<polygon fill="midnightblue" stroke="midnightblue" points="320.041,-99.5001 310.041,-103 320.04,-106.5 320.041,-99.5001"/>
</g>
<!-- Node6 -->
<g id="node6" class="node"><title>Node6</title>
<g id="a_node6"><a xlink:href="class_ro_r_1_1_g_u_i_1_1_top_menubar.html#aba4f8b1030da3a9d3b4394562d60a05a" target="_top" xlink:title="RoR::GUI::TopMenubar\l::TopMenubar">
<polygon fill="white" stroke="black" points="571.5,-88 571.5,-118 692.5,-118 692.5,-88 571.5,-88"/>
<text text-anchor="start" x="579.5" y="-106" font-family="Helvetica,sans-Serif" font-size="10.00">RoR::GUI::TopMenubar</text>
<text text-anchor="middle" x="632" y="-95" font-family="Helvetica,sans-Serif" font-size="10.00">::TopMenubar</text>
</a>
</g>
</g>
<!-- Node5&#45;&gt;Node6 -->
<g id="edge6" class="edge"><title>Node5&#45;&gt;Node6</title>
<path fill="none" stroke="midnightblue" d="M492.934,-103C518.39,-103 546.908,-103 571.387,-103"/>
<polygon fill="midnightblue" stroke="midnightblue" points="492.604,-99.5001 482.604,-103 492.604,-106.5 492.604,-99.5001"/>
</g>
<!-- Node8 -->
<g id="node8" class="node"><title>Node8</title>
<g id="a_node8"><a xlink:href="main_8cpp.html#a0ddf1224851353fc92bfbff6f499fa97" target="_top" xlink:title="main">
<polygon fill="white" stroke="black" points="766,-27.5 766,-46.5 804,-46.5 804,-27.5 766,-27.5"/>
<text text-anchor="middle" x="785" y="-34.5" font-family="Helvetica,sans-Serif" font-size="10.00">main</text>
</a>
</g>
</g>
<!-- Node7&#45;&gt;Node8 -->
<g id="edge8" class="edge"><title>Node7&#45;&gt;Node8</title>
<path fill="none" stroke="midnightblue" d="M740.519,-37C750.031,-37 758.712,-37 765.772,-37"/>
<polygon fill="midnightblue" stroke="midnightblue" points="740.338,-33.5001 730.338,-37 740.338,-40.5001 740.338,-33.5001"/>
</g>
<!-- Node9 -->
<g id="node9" class="node"><title>Node9</title>
<g id="a_node9"><a xlink:href="main_8cpp.html#a2922bc5d5c2d77a3020cfbf9df12aab0" target="_top" xlink:title="WinMain">
<polygon fill="white" stroke="black" points="840.5,-27.5 840.5,-46.5 895.5,-46.5 895.5,-27.5 840.5,-27.5"/>
<text text-anchor="middle" x="868" y="-34.5" font-family="Helvetica,sans-Serif" font-size="10.00">WinMain</text>
</a>
</g>
</g>
<!-- Node8&#45;&gt;Node9 -->
<g id="edge9" class="edge"><title>Node8&#45;&gt;Node9</title>
<path fill="none" stroke="midnightblue" d="M814.512,-37C822.929,-37 832.105,-37 840.397,-37"/>
<polygon fill="midnightblue" stroke="midnightblue" points="814.38,-33.5001 804.38,-37 814.38,-40.5001 814.38,-33.5001"/>
</g>
<!-- Node11 -->
<g id="node11" class="node"><title>Node11</title>
<g id="a_node11"><a xlink:href="class_terrain_manager.html#ac666fc0221c16001186b83cd6df66691" target="_top" xlink:title="TerrainManager::loadPreloaded\lTrucks">
<polygon fill="white" stroke="black" points="346,-0 346,-30 498,-30 498,-0 346,-0"/>
<text text-anchor="start" x="354" y="-18" font-family="Helvetica,sans-Serif" font-size="10.00">TerrainManager::loadPreloaded</text>
<text text-anchor="middle" x="422" y="-7" font-family="Helvetica,sans-Serif" font-size="10.00">Trucks</text>
</a>
</g>
</g>
<!-- Node10&#45;&gt;Node11 -->
<g id="edge11" class="edge"><title>Node10&#45;&gt;Node11</title>
<path fill="none" stroke="midnightblue" d="M309.55,-15C321.383,-15 333.782,-15 345.834,-15"/>
<polygon fill="midnightblue" stroke="midnightblue" points="309.32,-11.5001 299.32,-15 309.32,-18.5001 309.32,-11.5001"/>
</g>
<!-- Node11&#45;&gt;Node7 -->
<g id="edge12" class="edge"><title>Node11&#45;&gt;Node7</title>
<path fill="none" stroke="midnightblue" d="M508.355,-24.028C519.165,-25.1713 530.252,-26.344 541.129,-27.4944"/>
<polygon fill="midnightblue" stroke="midnightblue" points="508.405,-20.5138 498.093,-22.9425 507.669,-27.475 508.405,-20.5138"/>
</g>
</g>
</svg>
        <g id="navigator" transform="translate(0 0)" fill="#404254">
                <rect fill="#f2f5e9" fill-opacity="0.5" stroke="#606060" stroke-width=".5" x="0" y="0" width="60" height="60"/>
                <use id="zoomplus" xlink:href="#zoomPlus" x="17" y="9" onmousedown="handleZoom(evt,'in')"/>
                <use id="zoomminus" xlink:href="#zoomMin" x="42" y="9" onmousedown="handleZoom(evt,'out')"/>
                <use id="reset" xlink:href="#resetDef" x="30" y="36" onmousedown="handleReset()"/>
                <g id="arrowUp" xlink:href="#dirArrow" transform="translate(30 24)" onmousedown="handlePan(0,-1)">
                  <use xlink:href="#rim" fill="#404040">
                        <set attributeName="fill" to="#808080" begin="arrowUp.mouseover" end="arrowUp.mouseout"/>
                  </use>
                  <path fill="none" stroke="white" stroke-width="1.5" d="M0,-3.0v7 M-2.5,-0.5L0,-3.0L2.5,-0.5"/>
                </g>
                <g id="arrowRight" xlink:href="#dirArrow" transform="rotate(90) translate(36 -43)" onmousedown="handlePan(1,0)">
                  <use xlink:href="#rim" fill="#404040">
                        <set attributeName="fill" to="#808080" begin="arrowRight.mouseover" end="arrowRight.mouseout"/>
                  </use>
                  <path fill="none" stroke="white" stroke-width="1.5" d="M0,-3.0v7 M-2.5,-0.5L0,-3.0L2.5,-0.5"/>
                </g>
                <g id="arrowDown" xlink:href="#dirArrow" transform="rotate(180) translate(-30 -48)" onmousedown="handlePan(0,1)">
                  <use xlink:href="#rim" fill="#404040">
                        <set attributeName="fill" to="#808080" begin="arrowDown.mouseover" end="arrowDown.mouseout"/>
                  </use>
                  <path fill="none" stroke="white" stroke-width="1.5" d="M0,-3.0v7 M-2.5,-0.5L0,-3.0L2.5,-0.5"/>
                </g>
                <g id="arrowLeft" xlink:href="#dirArrow" transform="rotate(270) translate(-36 17)" onmousedown="handlePan(-1,0)">
                  <use xlink:href="#rim" fill="#404040">
                        <set attributeName="fill" to="#808080" begin="arrowLeft.mouseover" end="arrowLeft.mouseout"/>
                  </use>
                  <path fill="none" stroke="white" stroke-width="1.5" d="M0,-3.0v7 M-2.5,-0.5L0,-3.0L2.5,-0.5"/>
                </g>
        </g>
        <svg viewBox="0 0 15 15" width="100%" height="30px" preserveAspectRatio="xMaxYMin meet">
         <g id="arrow_out" transform="scale(0.3 0.3)">
          <a xlink:href="class_ro_r_1_1_beam_factory_aa770c50decf07b87d7ac747b64b8e3e5_icgraph_org.svg" target="_base">
           <rect id="button" ry="5" rx="5" y="6" x="6" height="38" width="38"
                fill="#f2f5e9" fill-opacity="0.5" stroke="#606060" stroke-width="1.0"/>
           <path id="arrow"
             d="M 11.500037,31.436501 C 11.940474,20.09759 22.043105,11.32322 32.158766,21.979434 L 37.068811,17.246167 C 37.068811,17.246167 37.088388,32 37.088388,32 L 22.160133,31.978069 C 22.160133,31.978069 26.997745,27.140456 26.997745,27.140456 C 18.528582,18.264221 13.291696,25.230495 11.500037,31.436501 z"
             style="fill:#404040;"/>
          </a>
         </g>
        </svg>
</svg>
