<?xml version="1.0" encoding="UTF-8" standalone="no"?>
<!DOCTYPE svg PUBLIC "-//W3C//DTD SVG 1.1//EN"
 "http://www.w3.org/Graphics/SVG/1.1/DTD/svg11.dtd">
<!-- Generated by graphviz version 2.36.0 (20140111.2315)
 -->
<!-- Title: CScriptDictionary::Create Pages: 1 -->
<svg width="600pt" height="87pt"
 viewBox="0.00 0.00 600.00 87.00" xmlns="http://www.w3.org/2000/svg" xmlns:xlink="http://www.w3.org/1999/xlink">
<g id="graph0" class="graph" transform="scale(1 1) rotate(0) translate(4 83)">
<title>CScriptDictionary::Create</title>
<polygon fill="white" stroke="none" points="-4,4 -4,-83 596,-83 596,4 -4,4"/>
<!-- Node1 -->
<g id="node1" class="node"><title>Node1</title>
<polygon fill="#bfbfbf" stroke="black" points="0,-24 0,-54 100,-54 100,-24 0,-24"/>
<text text-anchor="start" x="8" y="-42" font-family="Helvetica,sans-Serif" font-size="10.00">CScriptDictionary::</text>
<text text-anchor="middle" x="50" y="-31" font-family="Helvetica,sans-Serif" font-size="10.00">Create</text>
</g>
<!-- Node2 -->
<g id="node2" class="node"><title>Node2</title>
<g id="a_node2"><a xlink:href="scriptdictionary_8cpp.html#a1c9811cdaf34449862b9ef270ca343e6" target="_top" xlink:title="ScriptDictionaryFactory\l_Generic">
<polygon fill="white" stroke="black" points="144.5,-49 144.5,-79 263.5,-79 263.5,-49 144.5,-49"/>
<text text-anchor="start" x="152.5" y="-67" font-family="Helvetica,sans-Serif" font-size="10.00">ScriptDictionaryFactory</text>
<text text-anchor="middle" x="204" y="-56" font-family="Helvetica,sans-Serif" font-size="10.00">_Generic</text>
</a>
</g>
</g>
<!-- Node1&#45;&gt;Node2 -->
<g id="edge1" class="edge"><title>Node1&#45;&gt;Node2</title>
<path fill="none" stroke="midnightblue" d="M110.424,-48.7736C121.578,-50.6082 133.233,-52.5252 144.364,-54.3559"/>
<polygon fill="midnightblue" stroke="midnightblue" points="110.786,-45.2862 100.35,-47.1168 109.649,-52.1934 110.786,-45.2862"/>
</g>
<!-- Node6 -->
<g id="node6" class="node"><title>Node6</title>
<g id="a_node6"><a xlink:href="scriptdictionary_8cpp.html#a2fee48e56c541a4c9daaaa9df568fee1" target="_top" xlink:title="ScriptDictionaryListFactory\l_Generic">
<polygon fill="white" stroke="black" points="136.5,-0 136.5,-30 271.5,-30 271.5,-0 136.5,-0"/>
<text text-anchor="start" x="144.5" y="-18" font-family="Helvetica,sans-Serif" font-size="10.00">ScriptDictionaryListFactory</text>
<text text-anchor="middle" x="204" y="-7" font-family="Helvetica,sans-Serif" font-size="10.00">_Generic</text>
</a>
</g>
</g>
<!-- Node1&#45;&gt;Node6 -->
<g id="edge6" class="edge"><title>Node1&#45;&gt;Node6</title>
<path fill="none" stroke="midnightblue" d="M110.272,-29.6413C118.865,-28.2844 127.759,-26.8801 136.483,-25.5026"/>
<polygon fill="midnightblue" stroke="midnightblue" points="109.682,-26.191 100.35,-31.2079 110.774,-33.1053 109.682,-26.191"/>
</g>
<!-- Node3 -->
<g id="node3" class="node"><title>Node3</title>
<g id="a_node3"><a xlink:href="scriptdictionary_8h.html#a7c41a379d66a350e692e11acfea995cb" target="_top" xlink:title="RegisterScriptDictionary\l_Native">
<polygon fill="white" stroke="black" points="308.5,-49 308.5,-79 431.5,-79 431.5,-49 308.5,-49"/>
<text text-anchor="start" x="316.5" y="-67" font-family="Helvetica,sans-Serif" font-size="10.00">RegisterScriptDictionary</text>
<text text-anchor="middle" x="370" y="-56" font-family="Helvetica,sans-Serif" font-size="10.00">_Native</text>
</a>
</g>
</g>
<!-- Node2&#45;&gt;Node3 -->
<g id="edge2" class="edge"><title>Node2&#45;&gt;Node3</title>
<path fill="none" stroke="midnightblue" d="M273.754,-64C285.277,-64 297.158,-64 308.455,-64"/>
<polygon fill="midnightblue" stroke="midnightblue" points="273.745,-60.5001 263.745,-64 273.745,-67.5001 273.745,-60.5001"/>
</g>
<!-- Node5 -->
<g id="node5" class="node"><title>Node5</title>
<g id="a_node5"><a xlink:href="scriptdictionary_8h.html#af8fc6fbf1a623e6c2ff14605df4e0570" target="_top" xlink:title="RegisterScriptDictionary\l_Generic">
<polygon fill="white" stroke="black" points="308.5,-0 308.5,-30 431.5,-30 431.5,-0 308.5,-0"/>
<text text-anchor="start" x="316.5" y="-18" font-family="Helvetica,sans-Serif" font-size="10.00">RegisterScriptDictionary</text>
<text text-anchor="middle" x="370" y="-7" font-family="Helvetica,sans-Serif" font-size="10.00">_Generic</text>
</a>
</g>
</g>
<!-- Node2&#45;&gt;Node5 -->
<g id="edge4" class="edge"><title>Node2&#45;&gt;Node5</title>
<path fill="none" stroke="midnightblue" d="M265.134,-46.033C282.706,-40.783 301.723,-35.1011 318.623,-30.0516"/>
<polygon fill="midnightblue" stroke="midnightblue" points="264.123,-42.6822 255.544,-48.8986 266.127,-49.3892 264.123,-42.6822"/>
</g>
<!-- Node4 -->
<g id="node4" class="node"><title>Node4</title>
<g id="a_node4"><a xlink:href="scriptdictionary_8h.html#abf884a3f2b4b07a009c5fc055b48f901" target="_top" xlink:title="RegisterScriptDictionary">
<polygon fill="white" stroke="black" points="468.5,-29.5 468.5,-48.5 591.5,-48.5 591.5,-29.5 468.5,-29.5"/>
<text text-anchor="middle" x="530" y="-36.5" font-family="Helvetica,sans-Serif" font-size="10.00">RegisterScriptDictionary</text>
</a>
</g>
</g>
<!-- Node3&#45;&gt;Node4 -->
<g id="edge3" class="edge"><title>Node3&#45;&gt;Node4</title>
<path fill="none" stroke="midnightblue" d="M441.742,-52.8066C450.772,-51.3779 459.946,-49.9262 468.788,-48.5272"/>
<polygon fill="midnightblue" stroke="midnightblue" points="440.965,-49.3859 431.635,-54.4058 442.059,-56.2999 440.965,-49.3859"/>
</g>
<!-- Node5&#45;&gt;Node4 -->
<g id="edge5" class="edge"><title>Node5&#45;&gt;Node4</title>
<path fill="none" stroke="midnightblue" d="M441.597,-25.7235C450.495,-27.0753 459.538,-28.4488 468.266,-29.7746"/>
<polygon fill="midnightblue" stroke="midnightblue" points="442.047,-22.2519 431.635,-24.2104 440.996,-29.1725 442.047,-22.2519"/>
</g>
<!-- Node6&#45;&gt;Node3 -->
<g id="edge7" class="edge"><title>Node6&#45;&gt;Node3</title>
<path fill="none" stroke="midnightblue" d="M265.134,-32.967C282.706,-38.217 301.723,-43.8989 318.623,-48.9484"/>
<polygon fill="midnightblue" stroke="midnightblue" points="266.127,-29.6108 255.544,-30.1014 264.123,-36.3178 266.127,-29.6108"/>
</g>
<!-- Node6&#45;&gt;Node5 -->
<g id="edge8" class="edge"><title>Node6&#45;&gt;Node5</title>
<path fill="none" stroke="midnightblue" d="M281.753,-15C290.703,-15 299.738,-15 308.428,-15"/>
<polygon fill="midnightblue" stroke="midnightblue" points="281.705,-11.5001 271.705,-15 281.705,-18.5001 281.705,-11.5001"/>
</g>
</g>
</svg>
