<?xml version="1.0" encoding="UTF-8" standalone="no"?>
<!DOCTYPE svg PUBLIC "-//W3C//DTD SVG 1.1//EN"
 "http://www.w3.org/Graphics/SVG/1.1/DTD/svg11.dtd">
<!-- Generated by graphviz version 2.36.0 (20140111.2315)
 -->
<!-- Title: InputEngine::windowResized Pages: 1 -->
<svg width="444pt" height="115pt"
 viewBox="0.00 0.00 444.00 115.00" xmlns="http://www.w3.org/2000/svg" xmlns:xlink="http://www.w3.org/1999/xlink">
<g id="graph0" class="graph" transform="scale(1 1) rotate(0) translate(4 111)">
<title>InputEngine::windowResized</title>
<polygon fill="white" stroke="none" points="-4,4 -4,-111 440,-111 440,4 -4,4"/>
<!-- Node1 -->
<g id="node1" class="node"><title>Node1</title>
<polygon fill="#bfbfbf" stroke="black" points="0.5,-38.5 0.5,-57.5 143.5,-57.5 143.5,-38.5 0.5,-38.5"/>
<text text-anchor="middle" x="72" y="-45.5" font-family="Helvetica,sans-Serif" font-size="10.00">InputEngine::windowResized</text>
</g>
<!-- Node2 -->
<g id="node2" class="node"><title>Node2</title>
<g id="a_node2"><a xlink:href="class_ro_r_frame_listener.html#a967b4a6d8650f6655e436dfeee0172b2" target="_top" xlink:title="RoRFrameListener::window\lResized">
<polygon fill="white" stroke="black" points="193,-77 193,-107 331,-107 331,-77 193,-77"/>
<text text-anchor="start" x="201" y="-95" font-family="Helvetica,sans-Serif" font-size="10.00">RoRFrameListener::window</text>
<text text-anchor="middle" x="262" y="-84" font-family="Helvetica,sans-Serif" font-size="10.00">Resized</text>
</a>
</g>
</g>
<!-- Node1&#45;&gt;Node2 -->
<g id="edge1" class="edge"><title>Node1&#45;&gt;Node2</title>
<path fill="none" stroke="midnightblue" d="M123.777,-59.884C146.205,-65.1331 172.829,-71.3642 196.63,-76.9346"/>
<polygon fill="midnightblue" stroke="midnightblue" points="124.328,-56.4184 113.793,-57.5473 122.732,-63.2342 124.328,-56.4184"/>
</g>
<!-- Node3 -->
<g id="node3" class="node"><title>Node3</title>
<g id="a_node3"><a xlink:href="main_8cpp.html#a0ddf1224851353fc92bfbff6f499fa97" target="_top" xlink:title="main">
<polygon fill="white" stroke="black" points="243,-38.5 243,-57.5 281,-57.5 281,-38.5 243,-38.5"/>
<text text-anchor="middle" x="262" y="-45.5" font-family="Helvetica,sans-Serif" font-size="10.00">main</text>
</a>
</g>
</g>
<!-- Node1&#45;&gt;Node3 -->
<g id="edge2" class="edge"><title>Node1&#45;&gt;Node3</title>
<path fill="none" stroke="midnightblue" d="M153.729,-48C186.856,-48 222.226,-48 242.936,-48"/>
<polygon fill="midnightblue" stroke="midnightblue" points="153.539,-44.5001 143.539,-48 153.539,-51.5001 153.539,-44.5001"/>
</g>
<!-- Node5 -->
<g id="node5" class="node"><title>Node5</title>
<g id="a_node5"><a xlink:href="class_ro_r_1_1_main_menu.html#a572fbb1febee0c5849cc2b16f650967d" target="_top" xlink:title="RoR::MainMenu::windowResized">
<polygon fill="white" stroke="black" points="180.5,-0.5 180.5,-19.5 343.5,-19.5 343.5,-0.5 180.5,-0.5"/>
<text text-anchor="middle" x="262" y="-7.5" font-family="Helvetica,sans-Serif" font-size="10.00">RoR::MainMenu::windowResized</text>
</a>
</g>
</g>
<!-- Node1&#45;&gt;Node5 -->
<g id="edge4" class="edge"><title>Node1&#45;&gt;Node5</title>
<path fill="none" stroke="midnightblue" d="M130.437,-36.3905C157.174,-30.986 188.588,-24.6365 213.901,-19.5201"/>
<polygon fill="midnightblue" stroke="midnightblue" points="129.549,-32.9991 120.44,-38.411 130.936,-39.8603 129.549,-32.9991"/>
</g>
<!-- Node4 -->
<g id="node4" class="node"><title>Node4</title>
<g id="a_node4"><a xlink:href="main_8cpp.html#a2922bc5d5c2d77a3020cfbf9df12aab0" target="_top" xlink:title="WinMain">
<polygon fill="white" stroke="black" points="380.5,-38.5 380.5,-57.5 435.5,-57.5 435.5,-38.5 380.5,-38.5"/>
<text text-anchor="middle" x="408" y="-45.5" font-family="Helvetica,sans-Serif" font-size="10.00">WinMain</text>
</a>
</g>
</g>
<!-- Node3&#45;&gt;Node4 -->
<g id="edge3" class="edge"><title>Node3&#45;&gt;Node4</title>
<path fill="none" stroke="midnightblue" d="M291.506,-48C317.338,-48 355.116,-48 380.353,-48"/>
<polygon fill="midnightblue" stroke="midnightblue" points="291.238,-44.5001 281.238,-48 291.238,-51.5001 291.238,-44.5001"/>
</g>
</g>
</svg>
