<?xml version="1.0" encoding="UTF-8" standalone="no"?>
<!DOCTYPE svg PUBLIC "-//W3C//DTD SVG 1.1//EN"
 "http://www.w3.org/Graphics/SVG/1.1/DTD/svg11.dtd">
<!-- Generated by graphviz version 2.36.0 (20140111.2315)
 -->
<!-- Title: Hydrax::RttManager::remove Pages: 1 -->
<!--zoomable 433 -->
<svg id="main" version="1.1" xmlns="http://www.w3.org/2000/svg" xmlns:xlink="http://www.w3.org/1999/xlink" xml:space="preserve" onload="init(evt)">
<style type="text/css"><![CDATA[
.edge:hover path { stroke: red; }
.edge:hover polygon { stroke: red; fill: red; }
]]></style>
<script type="text/javascript"><![CDATA[
var edges = document.getElementsByTagName('g');
if (edges && edges.length) {
  for (var i=0;i<edges.length;i++) {
    if (edges[i].id.substr(0,4)=='edge') {
      edges[i].setAttribute('class','edge');
    }
  }
}
]]></script>
        <defs>
                <circle id="rim" cx="0" cy="0" r="7"/>
                <circle id="rim2" cx="0" cy="0" r="3.5"/>
                <g id="zoomPlus">
                        <use xlink:href="#rim" fill="#404040">
                                <set attributeName="fill" to="#808080" begin="zoomplus.mouseover" end="zoomplus.mouseout"/>
                        </use>
                        <path d="M-4,0h8M0,-4v8" fill="none" stroke="white" stroke-width="1.5" pointer-events="none"/>
                </g>
                <g id="zoomMin">
                        <use xlink:href="#rim" fill="#404040">
                                <set attributeName="fill" to="#808080" begin="zoomminus.mouseover" end="zoomminus.mouseout"/>
                        </use>
                        <path d="M-4,0h8" fill="none" stroke="white" stroke-width="1.5" pointer-events="none"/>
                </g>
                <g id="dirArrow">
                        <path fill="none" stroke="white" stroke-width="1.5" d="M0,-3.0v7 M-2.5,-0.5L0,-3.0L2.5,-0.5"/>
                </g>
               <g id="resetDef">
                       <use xlink:href="#rim2" fill="#404040">
                               <set attributeName="fill" to="#808080" begin="reset.mouseover" end="reset.mouseout"/>
                       </use>
               </g>
        </defs>

<script type="text/javascript">
var viewWidth = 1252;
var viewHeight = 433;
var sectionId = 'dynsection-10';
</script>
<script xlink:href="svgpan.js"/>
<svg id="graph" class="graph">
<g id="viewport">
<title>Hydrax::RttManager::remove</title>
<polygon fill="white" stroke="none" points="-4,4 -4,-429 1248,-429 1248,4 -4,4"/>
<!-- Node1 -->
<g id="node1" class="node"><title>Node1</title>
<polygon fill="#bfbfbf" stroke="black" points="0.5,-109 0.5,-139 105.5,-139 105.5,-109 0.5,-109"/>
<text text-anchor="start" x="8.5" y="-127" font-family="Helvetica,sans-Serif" font-size="10.00">Hydrax::RttManager</text>
<text text-anchor="middle" x="53" y="-116" font-family="Helvetica,sans-Serif" font-size="10.00">::remove</text>
</g>
<!-- Node2 -->
<g id="node2" class="node"><title>Node2</title>
<g id="a_node2"><a xlink:href="class_hydrax_1_1_g_p_u_normal_map_manager.html#a3a9a24e5832aaa24f78025d1ba04f8a3" target="_top" xlink:title="Hydrax::GPUNormalMapManager\l::remove">
<polygon fill="white" stroke="black" points="142,-134 142,-164 306,-164 306,-134 142,-134"/>
<text text-anchor="start" x="150" y="-152" font-family="Helvetica,sans-Serif" font-size="10.00">Hydrax::GPUNormalMapManager</text>
<text text-anchor="middle" x="224" y="-141" font-family="Helvetica,sans-Serif" font-size="10.00">::remove</text>
</a>
</g>
</g>
<!-- Node1&#45;&gt;Node2 -->
<g id="edge1" class="edge"><title>Node1&#45;&gt;Node2</title>
<path fill="none" stroke="midnightblue" d="M115.771,-133.138C124.244,-134.391 133.047,-135.693 141.803,-136.989"/>
<polygon fill="midnightblue" stroke="midnightblue" points="116.028,-129.638 105.624,-131.637 115.004,-136.562 116.028,-129.638"/>
</g>
<!-- Node22 -->
<g id="node22" class="node"><title>Node22</title>
<g id="a_node22"><a xlink:href="class_hydrax_1_1_g_p_u_normal_map_manager.html#ac58c786ad6359d8f70b5ecd0bc30464b" target="_top" xlink:title="Hydrax::GPUNormalMapManager\l::setActive">
<polygon fill="white" stroke="black" points="142,-85 142,-115 306,-115 306,-85 142,-85"/>
<text text-anchor="start" x="150" y="-103" font-family="Helvetica,sans-Serif" font-size="10.00">Hydrax::GPUNormalMapManager</text>
<text text-anchor="middle" x="224" y="-92" font-family="Helvetica,sans-Serif" font-size="10.00">::setActive</text>
</a>
</g>
</g>
<!-- Node1&#45;&gt;Node22 -->
<g id="edge24" class="edge"><title>Node1&#45;&gt;Node22</title>
<path fill="none" stroke="midnightblue" d="M115.771,-115.228C124.244,-114.024 133.047,-112.774 141.803,-111.531"/>
<polygon fill="midnightblue" stroke="midnightblue" points="115.032,-111.797 105.624,-116.669 116.017,-118.728 115.032,-111.797"/>
</g>
<!-- Node3 -->
<g id="node3" class="node"><title>Node3</title>
<g id="a_node3"><a xlink:href="class_hydrax_1_1_noise_1_1_noise.html#a59f0e03e88a5de69065838adc35ff2d8" target="_top" xlink:title="Hydrax::Noise::Noise\l::createGPUNormalMapResources">
<polygon fill="white" stroke="black" points="552.5,-175 552.5,-205 721.5,-205 721.5,-175 552.5,-175"/>
<text text-anchor="start" x="560.5" y="-193" font-family="Helvetica,sans-Serif" font-size="10.00">Hydrax::Noise::Noise</text>
<text text-anchor="middle" x="637" y="-182" font-family="Helvetica,sans-Serif" font-size="10.00">::createGPUNormalMapResources</text>
</a>
</g>
</g>
<!-- Node2&#45;&gt;Node3 -->
<g id="edge2" class="edge"><title>Node2&#45;&gt;Node3</title>
<path fill="none" stroke="midnightblue" d="M316.405,-158.118C386.9,-165.151 483.621,-174.799 552.147,-181.635"/>
<polygon fill="midnightblue" stroke="midnightblue" points="316.498,-154.61 306.2,-157.1 315.804,-161.576 316.498,-154.61"/>
</g>
<!-- Node18 -->
<g id="node18" class="node"><title>Node18</title>
<g id="a_node18"><a xlink:href="class_hydrax_1_1_noise_1_1_noise.html#a9d3ca345d3f5b629e43ab276236d93b7" target="_top" xlink:title="Hydrax::Noise::Noise\l::removeGPUNormalMapResources">
<polygon fill="white" stroke="black" points="342,-102 342,-132 516,-132 516,-102 342,-102"/>
<text text-anchor="start" x="350" y="-120" font-family="Helvetica,sans-Serif" font-size="10.00">Hydrax::Noise::Noise</text>
<text text-anchor="middle" x="429" y="-109" font-family="Helvetica,sans-Serif" font-size="10.00">::removeGPUNormalMapResources</text>
</a>
</g>
</g>
<!-- Node2&#45;&gt;Node18 -->
<g id="edge17" class="edge"><title>Node2&#45;&gt;Node18</title>
<path fill="none" stroke="midnightblue" d="M316.058,-134.646C324.587,-133.302 333.216,-131.941 341.699,-130.604"/>
<polygon fill="midnightblue" stroke="midnightblue" points="315.439,-131.2 306.106,-136.215 316.529,-138.115 315.439,-131.2"/>
</g>
<!-- Node4 -->
<g id="node4" class="node"><title>Node4</title>
<g id="a_node4"><a xlink:href="class_hydrax_1_1_noise_1_1_f_f_t.html#aa8e2b9d2b8307c07be2d2cd9cf115560" target="_top" xlink:title="Hydrax::Noise::FFT\l::createGPUNormalMapResources">
<polygon fill="white" stroke="black" points="758.5,-224 758.5,-254 927.5,-254 927.5,-224 758.5,-224"/>
<text text-anchor="start" x="766.5" y="-242" font-family="Helvetica,sans-Serif" font-size="10.00">Hydrax::Noise::FFT</text>
<text text-anchor="middle" x="843" y="-231" font-family="Helvetica,sans-Serif" font-size="10.00">::createGPUNormalMapResources</text>
</a>
</g>
</g>
<!-- Node3&#45;&gt;Node4 -->
<g id="edge3" class="edge"><title>Node3&#45;&gt;Node4</title>
<path fill="none" stroke="midnightblue" d="M710.457,-207.404C733.024,-212.824 757.702,-218.752 779.525,-223.994"/>
<polygon fill="midnightblue" stroke="midnightblue" points="711.134,-203.967 700.593,-205.035 709.499,-210.773 711.134,-203.967"/>
</g>
<!-- Node7 -->
<g id="node7" class="node"><title>Node7</title>
<g id="a_node7"><a xlink:href="class_hydrax_1_1_module_1_1_module.html#af591ded25b7cbba848ec2853402fa91e" target="_top" xlink:title="Hydrax::Module::Module\l::setNoise">
<polygon fill="white" stroke="black" points="781.5,-77 781.5,-107 904.5,-107 904.5,-77 781.5,-77"/>
<text text-anchor="start" x="789.5" y="-95" font-family="Helvetica,sans-Serif" font-size="10.00">Hydrax::Module::Module</text>
<text text-anchor="middle" x="843" y="-84" font-family="Helvetica,sans-Serif" font-size="10.00">::setNoise</text>
</a>
</g>
</g>
<!-- Node3&#45;&gt;Node7 -->
<g id="edge6" class="edge"><title>Node3&#45;&gt;Node7</title>
<path fill="none" stroke="midnightblue" d="M702.712,-170.929C709.487,-167.765 716.06,-164.138 722,-160 742.452,-145.754 737.172,-130.691 758,-117 765.12,-112.32 773.145,-108.491 781.337,-105.364"/>
<polygon fill="midnightblue" stroke="midnightblue" points="701.177,-167.78 693.388,-174.963 703.956,-174.205 701.177,-167.78"/>
</g>
<!-- Node8 -->
<g id="node8" class="node"><title>Node8</title>
<g id="a_node8"><a xlink:href="class_hydrax_1_1_noise_1_1_perlin.html#adb347b98692bd7ce6ad7ce76c605d15a" target="_top" xlink:title="Hydrax::Noise::Perlin\l::createGPUNormalMapResources">
<polygon fill="white" stroke="black" points="758.5,-175 758.5,-205 927.5,-205 927.5,-175 758.5,-175"/>
<text text-anchor="start" x="766.5" y="-193" font-family="Helvetica,sans-Serif" font-size="10.00">Hydrax::Noise::Perlin</text>
<text text-anchor="middle" x="843" y="-182" font-family="Helvetica,sans-Serif" font-size="10.00">::createGPUNormalMapResources</text>
</a>
</g>
</g>
<!-- Node3&#45;&gt;Node8 -->
<g id="edge7" class="edge"><title>Node3&#45;&gt;Node8</title>
<path fill="none" stroke="midnightblue" d="M731.845,-190C740.649,-190 749.534,-190 758.237,-190"/>
<polygon fill="midnightblue" stroke="midnightblue" points="731.563,-186.5 721.563,-190 731.563,-193.5 731.563,-186.5"/>
</g>
<!-- Node9 -->
<g id="node9" class="node"><title>Node9</title>
<g id="a_node9"><a xlink:href="class_hydrax_1_1_module_1_1_projected_grid.html#a04d04b9cfc173538038a5f51094c1ffa" target="_top" xlink:title="Hydrax::Module::Projected\lGrid::setOptions">
<polygon fill="white" stroke="black" points="776.5,-126 776.5,-156 909.5,-156 909.5,-126 776.5,-126"/>
<text text-anchor="start" x="784.5" y="-144" font-family="Helvetica,sans-Serif" font-size="10.00">Hydrax::Module::Projected</text>
<text text-anchor="middle" x="843" y="-133" font-family="Helvetica,sans-Serif" font-size="10.00">Grid::setOptions</text>
</a>
</g>
</g>
<!-- Node3&#45;&gt;Node9 -->
<g id="edge8" class="edge"><title>Node3&#45;&gt;Node9</title>
<path fill="none" stroke="midnightblue" d="M710.457,-172.596C733.024,-167.176 757.702,-161.248 779.525,-156.006"/>
<polygon fill="midnightblue" stroke="midnightblue" points="709.499,-169.227 700.593,-174.965 711.134,-176.033 709.499,-169.227"/>
</g>
<!-- Node12 -->
<g id="node12" class="node"><title>Node12</title>
<g id="a_node12"><a xlink:href="class_hydrax_1_1_module_1_1_radial_grid.html#acfc2ae157df9b6159302a90561ffc038" target="_top" xlink:title="Hydrax::Module::RadialGrid\l::setOptions">
<polygon fill="white" stroke="black" points="774.5,-346 774.5,-376 911.5,-376 911.5,-346 774.5,-346"/>
<text text-anchor="start" x="782.5" y="-364" font-family="Helvetica,sans-Serif" font-size="10.00">Hydrax::Module::RadialGrid</text>
<text text-anchor="middle" x="843" y="-353" font-family="Helvetica,sans-Serif" font-size="10.00">::setOptions</text>
</a>
</g>
</g>
<!-- Node3&#45;&gt;Node12 -->
<g id="edge11" class="edge"><title>Node3&#45;&gt;Node12</title>
<path fill="none" stroke="midnightblue" d="M657.251,-212.972C679.73,-238.942 718.847,-281.559 758,-312 774.661,-324.954 795.078,-336.94 811.612,-345.815"/>
<polygon fill="midnightblue" stroke="midnightblue" points="659.723,-210.478 650.558,-205.162 654.408,-215.033 659.723,-210.478"/>
</g>
<!-- Node15 -->
<g id="node15" class="node"><title>Node15</title>
<g id="a_node15"><a xlink:href="class_hydrax_1_1_module_1_1_simple_grid.html#a6b83cb95b2803b068a53bf76afaa9ac4" target="_top" xlink:title="Hydrax::Module::SimpleGrid\l::setOptions">
<polygon fill="white" stroke="black" points="773,-273 773,-303 913,-303 913,-273 773,-273"/>
<text text-anchor="start" x="781" y="-291" font-family="Helvetica,sans-Serif" font-size="10.00">Hydrax::Module::SimpleGrid</text>
<text text-anchor="middle" x="843" y="-280" font-family="Helvetica,sans-Serif" font-size="10.00">::setOptions</text>
</a>
</g>
</g>
<!-- Node3&#45;&gt;Node15 -->
<g id="edge14" class="edge"><title>Node3&#45;&gt;Node15</title>
<path fill="none" stroke="midnightblue" d="M667.685,-211.039C691.279,-227.011 725.59,-248.608 758,-263 766.344,-266.705 775.391,-270.047 784.353,-272.992"/>
<polygon fill="midnightblue" stroke="midnightblue" points="669.421,-207.985 659.193,-205.219 665.464,-213.759 669.421,-207.985"/>
</g>
<!-- Node5 -->
<g id="node5" class="node"><title>Node5</title>
<g id="a_node5"><a xlink:href="class_hydrax_1_1_noise_1_1_f_f_t.html#a1d7ec06eb11cda608cc8f73256c35be5" target="_top" xlink:title="Hydrax::Noise::FFT\l::setOptions">
<polygon fill="white" stroke="black" points="982,-199 982,-229 1086,-229 1086,-199 982,-199"/>
<text text-anchor="start" x="990" y="-217" font-family="Helvetica,sans-Serif" font-size="10.00">Hydrax::Noise::FFT</text>
<text text-anchor="middle" x="1034" y="-206" font-family="Helvetica,sans-Serif" font-size="10.00">::setOptions</text>
</a>
</g>
</g>
<!-- Node4&#45;&gt;Node5 -->
<g id="edge4" class="edge"><title>Node4&#45;&gt;Node5</title>
<path fill="none" stroke="midnightblue" d="M937.714,-226.604C952.948,-224.589 968.21,-222.57 981.915,-220.757"/>
<polygon fill="midnightblue" stroke="midnightblue" points="937.178,-223.144 927.724,-227.925 938.096,-230.084 937.178,-223.144"/>
</g>
<!-- Node6 -->
<g id="node6" class="node"><title>Node6</title>
<g id="a_node6"><a xlink:href="class_hydrax_1_1_noise_1_1_f_f_t.html#a64245b9e56eeb8627ac3f5260dc203dd" target="_top" xlink:title="Hydrax::Noise::FFT\l::loadCfg">
<polygon fill="white" stroke="black" points="1140,-199 1140,-229 1244,-229 1244,-199 1140,-199"/>
<text text-anchor="start" x="1148" y="-217" font-family="Helvetica,sans-Serif" font-size="10.00">Hydrax::Noise::FFT</text>
<text text-anchor="middle" x="1192" y="-206" font-family="Helvetica,sans-Serif" font-size="10.00">::loadCfg</text>
</a>
</g>
</g>
<!-- Node5&#45;&gt;Node6 -->
<g id="edge5" class="edge"><title>Node5&#45;&gt;Node6</title>
<path fill="none" stroke="midnightblue" d="M1096.38,-214C1110.76,-214 1125.93,-214 1139.81,-214"/>
<polygon fill="midnightblue" stroke="midnightblue" points="1096.08,-210.5 1086.08,-214 1096.08,-217.5 1096.08,-210.5"/>
</g>
<!-- Node10 -->
<g id="node10" class="node"><title>Node10</title>
<g id="a_node10"><a xlink:href="class_hydrax_1_1_module_1_1_projected_grid.html#aa9308990b99866cbd09edd3600972443" target="_top" xlink:title="Hydrax::Module::Projected\lGrid::ProjectedGrid">
<polygon fill="white" stroke="black" points="967.5,-89 967.5,-119 1100.5,-119 1100.5,-89 967.5,-89"/>
<text text-anchor="start" x="975.5" y="-107" font-family="Helvetica,sans-Serif" font-size="10.00">Hydrax::Module::Projected</text>
<text text-anchor="middle" x="1034" y="-96" font-family="Helvetica,sans-Serif" font-size="10.00">Grid::ProjectedGrid</text>
</a>
</g>
</g>
<!-- Node9&#45;&gt;Node10 -->
<g id="edge9" class="edge"><title>Node9&#45;&gt;Node10</title>
<path fill="none" stroke="midnightblue" d="M919.772,-126.166C935.481,-123.091 951.908,-119.875 967.223,-116.877"/>
<polygon fill="midnightblue" stroke="midnightblue" points="918.714,-122.807 909.573,-128.163 920.059,-129.677 918.714,-122.807"/>
</g>
<!-- Node11 -->
<g id="node11" class="node"><title>Node11</title>
<g id="a_node11"><a xlink:href="class_hydrax_1_1_module_1_1_projected_grid.html#af951c58cc93cf75d57e69aa14a668d3e" target="_top" xlink:title="Hydrax::Module::Projected\lGrid::loadCfg">
<polygon fill="white" stroke="black" points="967.5,-138 967.5,-168 1100.5,-168 1100.5,-138 967.5,-138"/>
<text text-anchor="start" x="975.5" y="-156" font-family="Helvetica,sans-Serif" font-size="10.00">Hydrax::Module::Projected</text>
<text text-anchor="middle" x="1034" y="-145" font-family="Helvetica,sans-Serif" font-size="10.00">Grid::loadCfg</text>
</a>
</g>
</g>
<!-- Node9&#45;&gt;Node11 -->
<g id="edge10" class="edge"><title>Node9&#45;&gt;Node11</title>
<path fill="none" stroke="midnightblue" d="M919.772,-145.811C935.481,-146.808 951.908,-147.851 967.223,-148.824"/>
<polygon fill="midnightblue" stroke="midnightblue" points="919.774,-142.304 909.573,-145.163 919.331,-149.29 919.774,-142.304"/>
</g>
<!-- Node13 -->
<g id="node13" class="node"><title>Node13</title>
<g id="a_node13"><a xlink:href="class_hydrax_1_1_module_1_1_radial_grid.html#abc52ff8727a537d5303fabc1179fa45f" target="_top" xlink:title="Hydrax::Module::RadialGrid\l::RadialGrid">
<polygon fill="white" stroke="black" points="965.5,-346 965.5,-376 1102.5,-376 1102.5,-346 965.5,-346"/>
<text text-anchor="start" x="973.5" y="-364" font-family="Helvetica,sans-Serif" font-size="10.00">Hydrax::Module::RadialGrid</text>
<text text-anchor="middle" x="1034" y="-353" font-family="Helvetica,sans-Serif" font-size="10.00">::RadialGrid</text>
</a>
</g>
</g>
<!-- Node12&#45;&gt;Node13 -->
<g id="edge12" class="edge"><title>Node12&#45;&gt;Node13</title>
<path fill="none" stroke="midnightblue" d="M922.073,-361C936.473,-361 951.399,-361 965.456,-361"/>
<polygon fill="midnightblue" stroke="midnightblue" points="921.7,-357.5 911.7,-361 921.699,-364.5 921.7,-357.5"/>
</g>
<!-- Node14 -->
<g id="node14" class="node"><title>Node14</title>
<g id="a_node14"><a xlink:href="class_hydrax_1_1_module_1_1_radial_grid.html#a31b3bab8e74f2f1e316a1800470ac685" target="_top" xlink:title="Hydrax::Module::RadialGrid\l::loadCfg">
<polygon fill="white" stroke="black" points="965.5,-395 965.5,-425 1102.5,-425 1102.5,-395 965.5,-395"/>
<text text-anchor="start" x="973.5" y="-413" font-family="Helvetica,sans-Serif" font-size="10.00">Hydrax::Module::RadialGrid</text>
<text text-anchor="middle" x="1034" y="-402" font-family="Helvetica,sans-Serif" font-size="10.00">::loadCfg</text>
</a>
</g>
</g>
<!-- Node12&#45;&gt;Node14 -->
<g id="edge13" class="edge"><title>Node12&#45;&gt;Node14</title>
<path fill="none" stroke="midnightblue" d="M911.692,-378.55C932.447,-383.931 955.082,-389.799 975.119,-394.994"/>
<polygon fill="midnightblue" stroke="midnightblue" points="912.549,-375.156 901.991,-376.035 910.792,-381.932 912.549,-375.156"/>
</g>
<!-- Node16 -->
<g id="node16" class="node"><title>Node16</title>
<g id="a_node16"><a xlink:href="class_hydrax_1_1_module_1_1_simple_grid.html#aae091cd103798dcc8f8b92af7dbfccef" target="_top" xlink:title="Hydrax::Module::SimpleGrid\l::SimpleGrid">
<polygon fill="white" stroke="black" points="964,-248 964,-278 1104,-278 1104,-248 964,-248"/>
<text text-anchor="start" x="972" y="-266" font-family="Helvetica,sans-Serif" font-size="10.00">Hydrax::Module::SimpleGrid</text>
<text text-anchor="middle" x="1034" y="-255" font-family="Helvetica,sans-Serif" font-size="10.00">::SimpleGrid</text>
</a>
</g>
</g>
<!-- Node15&#45;&gt;Node16 -->
<g id="edge15" class="edge"><title>Node15&#45;&gt;Node16</title>
<path fill="none" stroke="midnightblue" d="M923.245,-277.518C936.729,-275.734 950.638,-273.894 963.835,-272.149"/>
<polygon fill="midnightblue" stroke="midnightblue" points="922.49,-274.087 913.036,-278.868 923.408,-281.027 922.49,-274.087"/>
</g>
<!-- Node17 -->
<g id="node17" class="node"><title>Node17</title>
<g id="a_node17"><a xlink:href="class_hydrax_1_1_module_1_1_simple_grid.html#a3741ec1a3df1863e730711fd9d3b14e1" target="_top" xlink:title="Hydrax::Module::SimpleGrid\l::loadCfg">
<polygon fill="white" stroke="black" points="964,-297 964,-327 1104,-327 1104,-297 964,-297"/>
<text text-anchor="start" x="972" y="-315" font-family="Helvetica,sans-Serif" font-size="10.00">Hydrax::Module::SimpleGrid</text>
<text text-anchor="middle" x="1034" y="-304" font-family="Helvetica,sans-Serif" font-size="10.00">::loadCfg</text>
</a>
</g>
</g>
<!-- Node15&#45;&gt;Node17 -->
<g id="edge16" class="edge"><title>Node15&#45;&gt;Node17</title>
<path fill="none" stroke="midnightblue" d="M923.245,-298.063C936.729,-299.775 950.638,-301.541 963.835,-303.217"/>
<polygon fill="midnightblue" stroke="midnightblue" points="923.397,-294.554 913.036,-296.766 922.515,-301.498 923.397,-294.554"/>
</g>
<!-- Node18&#45;&gt;Node3 -->
<g id="edge20" class="edge"><title>Node18&#45;&gt;Node3</title>
<path fill="none" stroke="midnightblue" d="M482.546,-135.621C516.903,-147.796 561.207,-163.496 593.371,-174.894"/>
<polygon fill="midnightblue" stroke="midnightblue" points="483.278,-132.167 472.683,-132.126 480.94,-138.765 483.278,-132.167"/>
</g>
<!-- Node18&#45;&gt;Node7 -->
<g id="edge19" class="edge"><title>Node18&#45;&gt;Node7</title>
<path fill="none" stroke="midnightblue" d="M526.354,-125.371C583.442,-128.659 657.082,-129.992 722,-122 745.871,-119.061 771.824,-112.952 793.468,-107.008"/>
<polygon fill="midnightblue" stroke="midnightblue" points="526.45,-121.87 516.256,-124.759 526.026,-128.857 526.45,-121.87"/>
</g>
<!-- Node19 -->
<g id="node19" class="node"><title>Node19</title>
<g id="a_node19"><a xlink:href="class_hydrax_1_1_noise_1_1_f_f_t.html#a9567d90d8fae8dbd74d05d1e3b8281e4" target="_top" xlink:title="Hydrax::Noise::FFT\l::remove">
<polygon fill="white" stroke="black" points="585,-49 585,-79 689,-79 689,-49 585,-49"/>
<text text-anchor="start" x="593" y="-67" font-family="Helvetica,sans-Serif" font-size="10.00">Hydrax::Noise::FFT</text>
<text text-anchor="middle" x="637" y="-56" font-family="Helvetica,sans-Serif" font-size="10.00">::remove</text>
</a>
</g>
</g>
<!-- Node18&#45;&gt;Node19 -->
<g id="edge18" class="edge"><title>Node18&#45;&gt;Node19</title>
<path fill="none" stroke="midnightblue" d="M498.274,-99.4343C526.473,-92.1793 558.604,-83.9124 584.735,-77.1895"/>
<polygon fill="midnightblue" stroke="midnightblue" points="497.293,-96.0727 488.48,-101.954 499.037,-102.852 497.293,-96.0727"/>
</g>
<!-- Node20 -->
<g id="node20" class="node"><title>Node20</title>
<g id="a_node20"><a xlink:href="class_hydrax_1_1_noise_1_1_perlin.html#a666010a5142bbb2b03c97aa5aa7bdef1" target="_top" xlink:title="Hydrax::Noise::Perlin\l::remove">
<polygon fill="white" stroke="black" points="582,-0 582,-30 692,-30 692,-0 582,-0"/>
<text text-anchor="start" x="590" y="-18" font-family="Helvetica,sans-Serif" font-size="10.00">Hydrax::Noise::Perlin</text>
<text text-anchor="middle" x="637" y="-7" font-family="Helvetica,sans-Serif" font-size="10.00">::remove</text>
</a>
</g>
</g>
<!-- Node18&#45;&gt;Node20 -->
<g id="edge21" class="edge"><title>Node18&#45;&gt;Node20</title>
<path fill="none" stroke="midnightblue" d="M457.926,-95.7976C481.826,-78.494 517.709,-54.4605 552,-39 561.402,-34.7609 571.736,-31.0805 581.843,-27.9611"/>
<polygon fill="midnightblue" stroke="midnightblue" points="455.682,-93.1033 449.688,-101.84 459.822,-98.7478 455.682,-93.1033"/>
</g>
<!-- Node21 -->
<g id="node21" class="node"><title>Node21</title>
<g id="a_node21"><a xlink:href="class_hydrax_1_1_noise_1_1_real.html#a2d87dc48e9afca9c4f220ae2ef57aed0" target="_top" xlink:title="Hydrax::Noise::Real\l::remove">
<polygon fill="white" stroke="black" points="790,-14 790,-44 896,-44 896,-14 790,-14"/>
<text text-anchor="start" x="798" y="-32" font-family="Helvetica,sans-Serif" font-size="10.00">Hydrax::Noise::Real</text>
<text text-anchor="middle" x="843" y="-21" font-family="Helvetica,sans-Serif" font-size="10.00">::remove</text>
</a>
</g>
</g>
<!-- Node18&#45;&gt;Node21 -->
<g id="edge23" class="edge"><title>Node18&#45;&gt;Node21</title>
<path fill="none" stroke="midnightblue" d="M526.549,-117.693C584.477,-115.605 658.913,-108.455 722,-88 739.62,-82.287 741.54,-75.4953 758,-67 773.646,-58.925 791.355,-50.7735 806.466,-44.1021"/>
<polygon fill="midnightblue" stroke="midnightblue" points="526.185,-114.203 516.3,-118.016 526.405,-121.199 526.185,-114.203"/>
</g>
<!-- Node20&#45;&gt;Node21 -->
<g id="edge22" class="edge"><title>Node20&#45;&gt;Node21</title>
<path fill="none" stroke="midnightblue" d="M702.289,-19.412C730.456,-21.345 763.089,-23.5846 789.73,-25.4128"/>
<polygon fill="midnightblue" stroke="midnightblue" points="702.349,-15.908 692.133,-18.715 701.87,-22.8915 702.349,-15.908"/>
</g>
</g>
</svg>
        <g id="navigator" transform="translate(0 0)" fill="#404254">
                <rect fill="#f2f5e9" fill-opacity="0.5" stroke="#606060" stroke-width=".5" x="0" y="0" width="60" height="60"/>
                <use id="zoomplus" xlink:href="#zoomPlus" x="17" y="9" onmousedown="handleZoom(evt,'in')"/>
                <use id="zoomminus" xlink:href="#zoomMin" x="42" y="9" onmousedown="handleZoom(evt,'out')"/>
                <use id="reset" xlink:href="#resetDef" x="30" y="36" onmousedown="handleReset()"/>
                <g id="arrowUp" xlink:href="#dirArrow" transform="translate(30 24)" onmousedown="handlePan(0,-1)">
                  <use xlink:href="#rim" fill="#404040">
                        <set attributeName="fill" to="#808080" begin="arrowUp.mouseover" end="arrowUp.mouseout"/>
                  </use>
                  <path fill="none" stroke="white" stroke-width="1.5" d="M0,-3.0v7 M-2.5,-0.5L0,-3.0L2.5,-0.5"/>
                </g>
                <g id="arrowRight" xlink:href="#dirArrow" transform="rotate(90) translate(36 -43)" onmousedown="handlePan(1,0)">
                  <use xlink:href="#rim" fill="#404040">
                        <set attributeName="fill" to="#808080" begin="arrowRight.mouseover" end="arrowRight.mouseout"/>
                  </use>
                  <path fill="none" stroke="white" stroke-width="1.5" d="M0,-3.0v7 M-2.5,-0.5L0,-3.0L2.5,-0.5"/>
                </g>
                <g id="arrowDown" xlink:href="#dirArrow" transform="rotate(180) translate(-30 -48)" onmousedown="handlePan(0,1)">
                  <use xlink:href="#rim" fill="#404040">
                        <set attributeName="fill" to="#808080" begin="arrowDown.mouseover" end="arrowDown.mouseout"/>
                  </use>
                  <path fill="none" stroke="white" stroke-width="1.5" d="M0,-3.0v7 M-2.5,-0.5L0,-3.0L2.5,-0.5"/>
                </g>
                <g id="arrowLeft" xlink:href="#dirArrow" transform="rotate(270) translate(-36 17)" onmousedown="handlePan(-1,0)">
                  <use xlink:href="#rim" fill="#404040">
                        <set attributeName="fill" to="#808080" begin="arrowLeft.mouseover" end="arrowLeft.mouseout"/>
                  </use>
                  <path fill="none" stroke="white" stroke-width="1.5" d="M0,-3.0v7 M-2.5,-0.5L0,-3.0L2.5,-0.5"/>
                </g>
        </g>
        <svg viewBox="0 0 15 15" width="100%" height="30px" preserveAspectRatio="xMaxYMin meet">
         <g id="arrow_out" transform="scale(0.3 0.3)">
          <a xlink:href="class_hydrax_1_1_rtt_manager_a360139ed63706da8ca9ec04716d65574_icgraph_org.svg" target="_base">
           <rect id="button" ry="5" rx="5" y="6" x="6" height="38" width="38"
                fill="#f2f5e9" fill-opacity="0.5" stroke="#606060" stroke-width="1.0"/>
           <path id="arrow"
             d="M 11.500037,31.436501 C 11.940474,20.09759 22.043105,11.32322 32.158766,21.979434 L 37.068811,17.246167 C 37.068811,17.246167 37.088388,32 37.088388,32 L 22.160133,31.978069 C 22.160133,31.978069 26.997745,27.140456 26.997745,27.140456 C 18.528582,18.264221 13.291696,25.230495 11.500037,31.436501 z"
             style="fill:#404040;"/>
          </a>
         </g>
        </svg>
</svg>
