<?xml version="1.0" encoding="UTF-8" standalone="no"?>
<!DOCTYPE svg PUBLIC "-//W3C//DTD SVG 1.1//EN"
 "http://www.w3.org/Graphics/SVG/1.1/DTD/svg11.dtd">
<!-- Generated by graphviz version 2.36.0 (20140111.2315)
 -->
<!-- Title: RigDef::Parser::ParseDirectivePropCameraMode Pages: 1 -->
<svg width="532pt" height="142pt"
 viewBox="0.00 0.00 532.00 142.17" xmlns="http://www.w3.org/2000/svg" xmlns:xlink="http://www.w3.org/1999/xlink">
<g id="graph0" class="graph" transform="scale(1 1) rotate(0) translate(4 138.172)">
<title>RigDef::Parser::ParseDirectivePropCameraMode</title>
<polygon fill="white" stroke="none" points="-4,4 -4,-138.172 528,-138.172 528,4 -4,4"/>
<!-- Node1 -->
<g id="node1" class="node"><title>Node1</title>
<polygon fill="#bfbfbf" stroke="black" points="0,-63 0,-93 152,-93 152,-63 0,-63"/>
<text text-anchor="start" x="8" y="-81" font-family="Helvetica,sans-Serif" font-size="10.00">RigDef::Parser::ParseDirective</text>
<text text-anchor="middle" x="76" y="-70" font-family="Helvetica,sans-Serif" font-size="10.00">PropCameraMode</text>
</g>
<!-- Node2 -->
<g id="node2" class="node"><title>Node2</title>
<g id="a_node2"><a xlink:href="class_rig_def_1_1_parser.html#a7da949423835fe3241f2ac4c5ac8ebb1" target="_top" xlink:title="Adds a message to parser report. ">
<polygon fill="white" stroke="black" points="378.5,-93.5 378.5,-112.5 523.5,-112.5 523.5,-93.5 378.5,-93.5"/>
<text text-anchor="middle" x="451" y="-100.5" font-family="Helvetica,sans-Serif" font-size="10.00">RigDef::Parser::AddMessage</text>
</a>
</g>
</g>
<!-- Node1&#45;&gt;Node2 -->
<g id="edge1" class="edge"><title>Node1&#45;&gt;Node2</title>
<path fill="none" stroke="midnightblue" d="M102.869,-93.1302C124.725,-104.986 157.289,-120.523 188,-127 263.42,-142.906 353.253,-127.414 405.726,-115.006"/>
<polygon fill="midnightblue" stroke="midnightblue" points="406.819,-118.342 415.707,-112.576 405.163,-111.541 406.819,-118.342"/>
</g>
<!-- Node3 -->
<g id="node3" class="node"><title>Node3</title>
<g id="a_node3"><a xlink:href="class_rig_def_1_1_parser.html#a8397c243299359e21a84243c01ca43bf" target="_top" xlink:title="RigDef::Parser::CheckNum\lArguments">
<polygon fill="white" stroke="black" points="196.5,-88 196.5,-118 333.5,-118 333.5,-88 196.5,-88"/>
<text text-anchor="start" x="204.5" y="-106" font-family="Helvetica,sans-Serif" font-size="10.00">RigDef::Parser::CheckNum</text>
<text text-anchor="middle" x="265" y="-95" font-family="Helvetica,sans-Serif" font-size="10.00">Arguments</text>
</a>
</g>
</g>
<!-- Node1&#45;&gt;Node3 -->
<g id="edge2" class="edge"><title>Node1&#45;&gt;Node3</title>
<path fill="none" stroke="midnightblue" d="M152.252,-88.0604C163.441,-89.5563 174.993,-91.1006 186.232,-92.6033"/>
<polygon fill="midnightblue" stroke="midnightblue" points="186.072,-96.1128 196.447,-93.9689 186.999,-89.1746 186.072,-96.1128"/>
</g>
<!-- Node4 -->
<g id="node4" class="node"><title>Node4</title>
<g id="a_node4"><a xlink:href="class_rig_def_1_1_parser.html#afde15d2836dababf775619489e53d91c" target="_top" xlink:title="RigDef::Parser::_ParseCamera\lSettings">
<polygon fill="white" stroke="black" points="188.5,-39 188.5,-69 341.5,-69 341.5,-39 188.5,-39"/>
<text text-anchor="start" x="196.5" y="-57" font-family="Helvetica,sans-Serif" font-size="10.00">RigDef::Parser::_ParseCamera</text>
<text text-anchor="middle" x="265" y="-46" font-family="Helvetica,sans-Serif" font-size="10.00">Settings</text>
</a>
</g>
</g>
<!-- Node1&#45;&gt;Node4 -->
<g id="edge4" class="edge"><title>Node1&#45;&gt;Node4</title>
<path fill="none" stroke="midnightblue" d="M152.252,-68.342C160.786,-67.2467 169.532,-66.1242 178.189,-65.0132"/>
<polygon fill="midnightblue" stroke="midnightblue" points="178.82,-68.461 188.293,-63.7164 177.929,-61.5179 178.82,-68.461"/>
</g>
<!-- Node5 -->
<g id="node5" class="node"><title>Node5</title>
<g id="a_node5"><a xlink:href="class_rig_def_1_1_parser.html#a629f3ff2e6181f7953ec28168b0aac00" target="_top" xlink:title="RigDef::Parser::GetArgStr">
<polygon fill="white" stroke="black" points="199.5,-0.5 199.5,-19.5 330.5,-19.5 330.5,-0.5 199.5,-0.5"/>
<text text-anchor="middle" x="265" y="-7.5" font-family="Helvetica,sans-Serif" font-size="10.00">RigDef::Parser::GetArgStr</text>
</a>
</g>
</g>
<!-- Node1&#45;&gt;Node5 -->
<g id="edge6" class="edge"><title>Node1&#45;&gt;Node5</title>
<path fill="none" stroke="midnightblue" d="M108.555,-62.8389C130.5,-52.6726 160.615,-39.4637 188,-30 196.064,-27.2133 204.722,-24.5947 213.205,-22.2284"/>
<polygon fill="midnightblue" stroke="midnightblue" points="214.294,-25.5595 223.034,-19.5714 212.468,-18.802 214.294,-25.5595"/>
</g>
<!-- Node3&#45;&gt;Node2 -->
<g id="edge3" class="edge"><title>Node3&#45;&gt;Node2</title>
<path fill="none" stroke="midnightblue" d="M333.731,-103C344.985,-103 356.761,-103 368.317,-103"/>
<polygon fill="midnightblue" stroke="midnightblue" points="368.397,-106.5 378.397,-103 368.397,-99.5001 368.397,-106.5"/>
</g>
<!-- Node4&#45;&gt;Node2 -->
<g id="edge5" class="edge"><title>Node4&#45;&gt;Node2</title>
<path fill="none" stroke="midnightblue" d="M322.457,-69.0346C348.732,-76.032 379.579,-84.2466 404.355,-90.8444"/>
<polygon fill="midnightblue" stroke="midnightblue" points="403.658,-94.2807 414.222,-93.472 405.459,-87.5165 403.658,-94.2807"/>
</g>
</g>
</svg>
