<?xml version="1.0" encoding="UTF-8" standalone="no"?>
<!DOCTYPE svg PUBLIC "-//W3C//DTD SVG 1.1//EN"
 "http://www.w3.org/Graphics/SVG/1.1/DTD/svg11.dtd">
<!-- Generated by graphviz version 2.36.0 (20140111.2315)
 -->
<!-- Title: Hydrax::MaterialManager::~MaterialManager Pages: 1 -->
<svg width="800pt" height="38pt"
 viewBox="0.00 0.00 800.00 38.00" xmlns="http://www.w3.org/2000/svg" xmlns:xlink="http://www.w3.org/1999/xlink">
<g id="graph0" class="graph" transform="scale(1 1) rotate(0) translate(4 34)">
<title>Hydrax::MaterialManager::~MaterialManager</title>
<polygon fill="white" stroke="none" points="-4,4 -4,-34 796,-34 796,4 -4,4"/>
<!-- Node1 -->
<g id="node1" class="node"><title>Node1</title>
<polygon fill="#bfbfbf" stroke="black" points="0,-0 0,-30 126,-30 126,-0 0,-0"/>
<text text-anchor="start" x="8" y="-18" font-family="Helvetica,sans-Serif" font-size="10.00">Hydrax::MaterialManager</text>
<text text-anchor="middle" x="63" y="-7" font-family="Helvetica,sans-Serif" font-size="10.00">::~MaterialManager</text>
</g>
<!-- Node2 -->
<g id="node2" class="node"><title>Node2</title>
<g id="a_node2"><a xlink:href="class_hydrax_1_1_material_manager.html#a93baa6272c91d1be5ec9bef054a9bb0d" target="_top" xlink:title="Hydrax::MaterialManager\l::removeMaterials">
<polygon fill="white" stroke="black" points="162,-0 162,-30 288,-30 288,-0 162,-0"/>
<text text-anchor="start" x="170" y="-18" font-family="Helvetica,sans-Serif" font-size="10.00">Hydrax::MaterialManager</text>
<text text-anchor="middle" x="225" y="-7" font-family="Helvetica,sans-Serif" font-size="10.00">::removeMaterials</text>
</a>
</g>
</g>
<!-- Node1&#45;&gt;Node2 -->
<g id="edge1" class="edge"><title>Node1&#45;&gt;Node2</title>
<path fill="none" stroke="midnightblue" d="M126.318,-15C134.615,-15 143.179,-15 151.628,-15"/>
<polygon fill="midnightblue" stroke="midnightblue" points="151.852,-18.5001 161.852,-15 151.852,-11.5001 151.852,-18.5001"/>
</g>
<!-- Node3 -->
<g id="node3" class="node"><title>Node3</title>
<g id="a_node3"><a xlink:href="class_hydrax_1_1_material_manager.html#a160d27bd9ff0fac665ce5ce7c4e013e9" target="_top" xlink:title="Hydrax::MaterialManager\l::removeCompositor">
<polygon fill="white" stroke="black" points="324,-0 324,-30 450,-30 450,-0 324,-0"/>
<text text-anchor="start" x="332" y="-18" font-family="Helvetica,sans-Serif" font-size="10.00">Hydrax::MaterialManager</text>
<text text-anchor="middle" x="387" y="-7" font-family="Helvetica,sans-Serif" font-size="10.00">::removeCompositor</text>
</a>
</g>
</g>
<!-- Node2&#45;&gt;Node3 -->
<g id="edge2" class="edge"><title>Node2&#45;&gt;Node3</title>
<path fill="none" stroke="midnightblue" d="M288.318,-15C296.615,-15 305.179,-15 313.628,-15"/>
<polygon fill="midnightblue" stroke="midnightblue" points="313.852,-18.5001 323.852,-15 313.852,-11.5001 313.852,-18.5001"/>
</g>
<!-- Node4 -->
<g id="node4" class="node"><title>Node4</title>
<g id="a_node4"><a xlink:href="class_hydrax_1_1_material_manager.html#a61bccef34841ce9c0ce6c53ff27f136b" target="_top" xlink:title="Hydrax::MaterialManager\l::setCompositorEnable">
<polygon fill="white" stroke="black" points="486,-0 486,-30 612,-30 612,-0 486,-0"/>
<text text-anchor="start" x="494" y="-18" font-family="Helvetica,sans-Serif" font-size="10.00">Hydrax::MaterialManager</text>
<text text-anchor="middle" x="549" y="-7" font-family="Helvetica,sans-Serif" font-size="10.00">::setCompositorEnable</text>
</a>
</g>
</g>
<!-- Node3&#45;&gt;Node4 -->
<g id="edge3" class="edge"><title>Node3&#45;&gt;Node4</title>
<path fill="none" stroke="midnightblue" d="M450.318,-15C458.615,-15 467.179,-15 475.628,-15"/>
<polygon fill="midnightblue" stroke="midnightblue" points="475.852,-18.5001 485.852,-15 475.852,-11.5001 475.852,-18.5001"/>
</g>
<!-- Node5 -->
<g id="node5" class="node"><title>Node5</title>
<g id="a_node5"><a xlink:href="class_hydrax_1_1_hydrax.html#a969555d8f856a43c4ca6c92bb0958bf1" target="_top" xlink:title="Hydrax::Hydrax::getViewport">
<polygon fill="white" stroke="black" points="648.5,-5.5 648.5,-24.5 791.5,-24.5 791.5,-5.5 648.5,-5.5"/>
<text text-anchor="middle" x="720" y="-12.5" font-family="Helvetica,sans-Serif" font-size="10.00">Hydrax::Hydrax::getViewport</text>
</a>
</g>
</g>
<!-- Node4&#45;&gt;Node5 -->
<g id="edge4" class="edge"><title>Node4&#45;&gt;Node5</title>
<path fill="none" stroke="midnightblue" d="M612.449,-15C620.829,-15 629.521,-15 638.161,-15"/>
<polygon fill="midnightblue" stroke="midnightblue" points="638.258,-18.5001 648.258,-15 638.258,-11.5001 638.258,-18.5001"/>
</g>
</g>
</svg>
