<?xml version="1.0" encoding="UTF-8" standalone="no"?>
<!DOCTYPE svg PUBLIC "-//W3C//DTD SVG 1.1//EN"
 "http://www.w3.org/Graphics/SVG/1.1/DTD/svg11.dtd">
<!-- Generated by graphviz version 2.36.0 (20140111.2315)
 -->
<!-- Title: CacheSystem::checkForNewFiles Pages: 1 -->
<svg width="1166pt" height="60pt"
 viewBox="0.00 0.00 1166.00 60.00" xmlns="http://www.w3.org/2000/svg" xmlns:xlink="http://www.w3.org/1999/xlink">
<g id="graph0" class="graph" transform="scale(1 1) rotate(0) translate(4 56)">
<title>CacheSystem::checkForNewFiles</title>
<polygon fill="white" stroke="none" points="-4,4 -4,-56 1162,-56 1162,4 -4,4"/>
<!-- Node1 -->
<g id="node1" class="node"><title>Node1</title>
<polygon fill="#bfbfbf" stroke="black" points="0,-22 0,-52 146,-52 146,-22 0,-22"/>
<text text-anchor="start" x="8" y="-40" font-family="Helvetica,sans-Serif" font-size="10.00">CacheSystem::checkForNew</text>
<text text-anchor="middle" x="73" y="-29" font-family="Helvetica,sans-Serif" font-size="10.00">Files</text>
</g>
<!-- Node2 -->
<g id="node2" class="node"><title>Node2</title>
<g id="a_node2"><a xlink:href="class_cache_system.html#ad98137fe76d0e353a8f6efcd91e6430f" target="_top" xlink:title="CacheSystem::checkForNew\lKnownFiles">
<polygon fill="white" stroke="black" points="182,-22 182,-52 328,-52 328,-22 182,-22"/>
<text text-anchor="start" x="190" y="-40" font-family="Helvetica,sans-Serif" font-size="10.00">CacheSystem::checkForNew</text>
<text text-anchor="middle" x="255" y="-29" font-family="Helvetica,sans-Serif" font-size="10.00">KnownFiles</text>
</a>
</g>
</g>
<!-- Node1&#45;&gt;Node2 -->
<g id="edge1" class="edge"><title>Node1&#45;&gt;Node2</title>
<path fill="none" stroke="midnightblue" d="M156.439,-37C164.906,-37 173.464,-37 181.808,-37"/>
<polygon fill="midnightblue" stroke="midnightblue" points="156.176,-33.5001 146.176,-37 156.176,-40.5001 156.176,-33.5001"/>
</g>
<!-- Node3 -->
<g id="node3" class="node"><title>Node3</title>
<g id="a_node3"><a xlink:href="class_cache_system.html#a4439130b97404a54bca3ca9768586c48" target="_top" xlink:title="CacheSystem::incremental\lCacheUpdate">
<polygon fill="white" stroke="black" points="364.5,-22 364.5,-52 499.5,-52 499.5,-22 364.5,-22"/>
<text text-anchor="start" x="372.5" y="-40" font-family="Helvetica,sans-Serif" font-size="10.00">CacheSystem::incremental</text>
<text text-anchor="middle" x="432" y="-29" font-family="Helvetica,sans-Serif" font-size="10.00">CacheUpdate</text>
</a>
</g>
</g>
<!-- Node2&#45;&gt;Node3 -->
<g id="edge2" class="edge"><title>Node2&#45;&gt;Node3</title>
<path fill="none" stroke="midnightblue" d="M338.351,-37C347.052,-37 355.82,-37 364.312,-37"/>
<polygon fill="midnightblue" stroke="midnightblue" points="338.19,-33.5001 328.19,-37 338.19,-40.5001 338.19,-33.5001"/>
</g>
<!-- Node4 -->
<g id="node4" class="node"><title>Node4</title>
<g id="a_node4"><a xlink:href="class_cache_system.html#a37e784da57c57f56a428f61a53b4d618" target="_top" xlink:title="CacheSystem::generateCache">
<polygon fill="white" stroke="black" points="536.5,-27.5 536.5,-46.5 687.5,-46.5 687.5,-27.5 536.5,-27.5"/>
<text text-anchor="middle" x="612" y="-34.5" font-family="Helvetica,sans-Serif" font-size="10.00">CacheSystem::generateCache</text>
</a>
</g>
</g>
<!-- Node3&#45;&gt;Node4 -->
<g id="edge3" class="edge"><title>Node3&#45;&gt;Node4</title>
<path fill="none" stroke="midnightblue" d="M509.816,-37C518.658,-37 527.663,-37 536.474,-37"/>
<polygon fill="midnightblue" stroke="midnightblue" points="509.534,-33.5001 499.534,-37 509.534,-40.5001 509.534,-33.5001"/>
</g>
<!-- Node5 -->
<g id="node5" class="node"><title>Node5</title>
<g id="a_node5"><a xlink:href="class_cache_system.html#ae010322c2422bf8f8dbfce904257da31" target="_top" xlink:title="CacheSystem::Startup">
<polygon fill="white" stroke="black" points="724,-27.5 724,-46.5 840,-46.5 840,-27.5 724,-27.5"/>
<text text-anchor="middle" x="782" y="-34.5" font-family="Helvetica,sans-Serif" font-size="10.00">CacheSystem::Startup</text>
</a>
</g>
</g>
<!-- Node4&#45;&gt;Node5 -->
<g id="edge4" class="edge"><title>Node4&#45;&gt;Node5</title>
<path fill="none" stroke="midnightblue" d="M697.696,-37C706.595,-37 715.484,-37 723.963,-37"/>
<polygon fill="midnightblue" stroke="midnightblue" points="697.666,-33.5001 687.666,-37 697.666,-40.5001 697.666,-33.5001"/>
</g>
<!-- Node6 -->
<g id="node6" class="node"><title>Node6</title>
<g id="a_node6"><a xlink:href="main_8cpp.html#a0ddf1224851353fc92bfbff6f499fa97" target="_top" xlink:title="main">
<polygon fill="white" stroke="black" points="1028,-27.5 1028,-46.5 1066,-46.5 1066,-27.5 1028,-27.5"/>
<text text-anchor="middle" x="1047" y="-34.5" font-family="Helvetica,sans-Serif" font-size="10.00">main</text>
</a>
</g>
</g>
<!-- Node5&#45;&gt;Node6 -->
<g id="edge5" class="edge"><title>Node5&#45;&gt;Node6</title>
<path fill="none" stroke="midnightblue" d="M850.355,-38.6036C891.313,-39.3401 944.674,-39.8761 992,-39 1003.82,-38.7812 1017.08,-38.2933 1027.51,-37.8542"/>
<polygon fill="midnightblue" stroke="midnightblue" points="850.284,-35.1017 840.22,-38.4127 850.152,-42.1005 850.284,-35.1017"/>
</g>
<!-- Node8 -->
<g id="node8" class="node"><title>Node8</title>
<g id="a_node8"><a xlink:href="class_ro_r_1_1_content_manager.html#a861b35694f428e463a800052ac0e9f90" target="_top" xlink:title="RoR::ContentManager\l::RegenCache">
<polygon fill="white" stroke="black" points="876.5,-0 876.5,-30 991.5,-30 991.5,-0 876.5,-0"/>
<text text-anchor="start" x="884.5" y="-18" font-family="Helvetica,sans-Serif" font-size="10.00">RoR::ContentManager</text>
<text text-anchor="middle" x="934" y="-7" font-family="Helvetica,sans-Serif" font-size="10.00">::RegenCache</text>
</a>
</g>
</g>
<!-- Node5&#45;&gt;Node8 -->
<g id="edge7" class="edge"><title>Node5&#45;&gt;Node8</title>
<path fill="none" stroke="midnightblue" d="M850.176,-27.1475C858.806,-25.8817 867.576,-24.5955 876.022,-23.3567"/>
<polygon fill="midnightblue" stroke="midnightblue" points="849.523,-23.7058 840.136,-28.62 850.539,-30.6317 849.523,-23.7058"/>
</g>
<!-- Node7 -->
<g id="node7" class="node"><title>Node7</title>
<g id="a_node7"><a xlink:href="main_8cpp.html#a2922bc5d5c2d77a3020cfbf9df12aab0" target="_top" xlink:title="WinMain">
<polygon fill="white" stroke="black" points="1102.5,-27.5 1102.5,-46.5 1157.5,-46.5 1157.5,-27.5 1102.5,-27.5"/>
<text text-anchor="middle" x="1130" y="-34.5" font-family="Helvetica,sans-Serif" font-size="10.00">WinMain</text>
</a>
</g>
</g>
<!-- Node6&#45;&gt;Node7 -->
<g id="edge6" class="edge"><title>Node6&#45;&gt;Node7</title>
<path fill="none" stroke="midnightblue" d="M1076.51,-37C1084.93,-37 1094.11,-37 1102.4,-37"/>
<polygon fill="midnightblue" stroke="midnightblue" points="1076.38,-33.5001 1066.38,-37 1076.38,-40.5001 1076.38,-33.5001"/>
</g>
<!-- Node8&#45;&gt;Node6 -->
<g id="edge8" class="edge"><title>Node8&#45;&gt;Node6</title>
<path fill="none" stroke="midnightblue" d="M1001.8,-28.2394C1011.28,-30.1186 1020.3,-31.9068 1027.69,-33.3718"/>
<polygon fill="midnightblue" stroke="midnightblue" points="1002.29,-24.7688 991.801,-26.2578 1000.93,-31.6353 1002.29,-24.7688"/>
</g>
</g>
</svg>
