<?xml version="1.0" encoding="UTF-8" standalone="no"?>
<!DOCTYPE svg PUBLIC "-//W3C//DTD SVG 1.1//EN"
 "http://www.w3.org/Graphics/SVG/1.1/DTD/svg11.dtd">
<!-- Generated by graphviz version 2.36.0 (20140111.2315)
 -->
<!-- Title: Ogre::TerrainPSSMMaterialGenerator::SM2Profile::ShaderHelper::defaultVpParams Pages: 1 -->
<svg width="376pt" height="109pt"
 viewBox="0.00 0.00 376.00 109.00" xmlns="http://www.w3.org/2000/svg" xmlns:xlink="http://www.w3.org/1999/xlink">
<g id="graph0" class="graph" transform="scale(1 1) rotate(0) translate(4 105)">
<title>Ogre::TerrainPSSMMaterialGenerator::SM2Profile::ShaderHelper::defaultVpParams</title>
<polygon fill="white" stroke="none" points="-4,4 -4,-105 372,-105 372,4 -4,4"/>
<!-- Node1 -->
<g id="node1" class="node"><title>Node1</title>
<polygon fill="#bfbfbf" stroke="black" points="0.5,-29.5 0.5,-70.5 157.5,-70.5 157.5,-29.5 0.5,-29.5"/>
<text text-anchor="start" x="8.5" y="-58.5" font-family="Helvetica,sans-Serif" font-size="10.00">Ogre::TerrainPSSMMaterial</text>
<text text-anchor="start" x="8.5" y="-47.5" font-family="Helvetica,sans-Serif" font-size="10.00">Generator::SM2Profile::</text>
<text text-anchor="middle" x="79" y="-36.5" font-family="Helvetica,sans-Serif" font-size="10.00">ShaderHelper::defaultVpParams</text>
</g>
<!-- Node2 -->
<g id="node2" class="node"><title>Node2</title>
<g id="a_node2"><a xlink:href="class_ogre_1_1_terrain_p_s_s_m_material_generator_1_1_s_m2_profile.html#a25745a6fc559c46e191937eb9247dbc9" target="_top" xlink:title="Ogre::TerrainPSSMMaterial\lGenerator::SM2Profile::\lisShadowingEnabled">
<polygon fill="white" stroke="black" points="212.5,-59.5 212.5,-100.5 349.5,-100.5 349.5,-59.5 212.5,-59.5"/>
<text text-anchor="start" x="220.5" y="-88.5" font-family="Helvetica,sans-Serif" font-size="10.00">Ogre::TerrainPSSMMaterial</text>
<text text-anchor="start" x="220.5" y="-77.5" font-family="Helvetica,sans-Serif" font-size="10.00">Generator::SM2Profile::</text>
<text text-anchor="middle" x="281" y="-66.5" font-family="Helvetica,sans-Serif" font-size="10.00">isShadowingEnabled</text>
</a>
</g>
</g>
<!-- Node1&#45;&gt;Node2 -->
<g id="edge1" class="edge"><title>Node1&#45;&gt;Node2</title>
<path fill="none" stroke="midnightblue" d="M157.611,-61.6417C172.243,-63.8364 187.548,-66.1322 202.185,-68.3278"/>
<polygon fill="midnightblue" stroke="midnightblue" points="201.787,-71.8071 212.195,-69.8293 202.825,-64.8845 201.787,-71.8071"/>
</g>
<!-- Node3 -->
<g id="node3" class="node"><title>Node3</title>
<g id="a_node3"><a xlink:href="class_ogre_1_1_terrain_p_s_s_m_material_generator_1_1_s_m2_profile.html#a7b5bdaf8f4589a465b2d2d8a9df9634d" target="_top" xlink:title="Ogre::TerrainPSSMMaterial\lGenerator::SM2Profile::\lgetReceiveDynamicShadowsPSSM">
<polygon fill="white" stroke="black" points="194,0.5 194,-40.5 368,-40.5 368,0.5 194,0.5"/>
<text text-anchor="start" x="202" y="-28.5" font-family="Helvetica,sans-Serif" font-size="10.00">Ogre::TerrainPSSMMaterial</text>
<text text-anchor="start" x="202" y="-17.5" font-family="Helvetica,sans-Serif" font-size="10.00">Generator::SM2Profile::</text>
<text text-anchor="middle" x="281" y="-6.5" font-family="Helvetica,sans-Serif" font-size="10.00">getReceiveDynamicShadowsPSSM</text>
</a>
</g>
</g>
<!-- Node1&#45;&gt;Node3 -->
<g id="edge2" class="edge"><title>Node1&#45;&gt;Node3</title>
<path fill="none" stroke="midnightblue" d="M157.611,-38.3583C166.227,-37.0659 175.077,-35.7384 183.887,-34.417"/>
<polygon fill="midnightblue" stroke="midnightblue" points="184.431,-37.8746 193.801,-32.9298 183.393,-30.952 184.431,-37.8746"/>
</g>
</g>
</svg>
