<?xml version="1.0" encoding="UTF-8" standalone="no"?>
<!DOCTYPE svg PUBLIC "-//W3C//DTD SVG 1.1//EN"
 "http://www.w3.org/Graphics/SVG/1.1/DTD/svg11.dtd">
<!-- Generated by graphviz version 2.36.0 (20140111.2315)
 -->
<!-- Title: Water::update Pages: 1 -->
<!--zoomable 182 -->
<svg id="main" version="1.1" xmlns="http://www.w3.org/2000/svg" xmlns:xlink="http://www.w3.org/1999/xlink" xml:space="preserve" onload="init(evt)">
<style type="text/css"><![CDATA[
.edge:hover path { stroke: red; }
.edge:hover polygon { stroke: red; fill: red; }
]]></style>
<script type="text/javascript"><![CDATA[
var edges = document.getElementsByTagName('g');
if (edges && edges.length) {
  for (var i=0;i<edges.length;i++) {
    if (edges[i].id.substr(0,4)=='edge') {
      edges[i].setAttribute('class','edge');
    }
  }
}
]]></script>
        <defs>
                <circle id="rim" cx="0" cy="0" r="7"/>
                <circle id="rim2" cx="0" cy="0" r="3.5"/>
                <g id="zoomPlus">
                        <use xlink:href="#rim" fill="#404040">
                                <set attributeName="fill" to="#808080" begin="zoomplus.mouseover" end="zoomplus.mouseout"/>
                        </use>
                        <path d="M-4,0h8M0,-4v8" fill="none" stroke="white" stroke-width="1.5" pointer-events="none"/>
                </g>
                <g id="zoomMin">
                        <use xlink:href="#rim" fill="#404040">
                                <set attributeName="fill" to="#808080" begin="zoomminus.mouseover" end="zoomminus.mouseout"/>
                        </use>
                        <path d="M-4,0h8" fill="none" stroke="white" stroke-width="1.5" pointer-events="none"/>
                </g>
                <g id="dirArrow">
                        <path fill="none" stroke="white" stroke-width="1.5" d="M0,-3.0v7 M-2.5,-0.5L0,-3.0L2.5,-0.5"/>
                </g>
               <g id="resetDef">
                       <use xlink:href="#rim2" fill="#404040">
                               <set attributeName="fill" to="#808080" begin="reset.mouseover" end="reset.mouseout"/>
                       </use>
               </g>
        </defs>

<script type="text/javascript">
var viewWidth = 610;
var viewHeight = 182;
var sectionId = 'dynsection-16';
</script>
<script xlink:href="svgpan.js"/>
<svg id="graph" class="graph">
<g id="viewport">
<title>Water::update</title>
<polygon fill="white" stroke="none" points="-4,4 -4,-178.048 606,-178.048 606,4 -4,4"/>
<!-- Node1 -->
<g id="node1" class="node"><title>Node1</title>
<polygon fill="#bfbfbf" stroke="black" points="0,-76.5 0,-95.5 78,-95.5 78,-76.5 0,-76.5"/>
<text text-anchor="middle" x="39" y="-83.5" font-family="Helvetica,sans-Serif" font-size="10.00">Water::update</text>
</g>
<!-- Node2 -->
<g id="node2" class="node"><title>Node2</title>
<g id="a_node2"><a xlink:href="namespace_ro_r_1_1_app.html#a347d49b8105a10d1f95dfa8dcc543fc0" target="_top" xlink:title="RoR::App::GetGfxWaterUse\lWaves">
<polygon fill="white" stroke="black" points="458,-139 458,-169 600,-169 600,-139 458,-139"/>
<text text-anchor="start" x="466" y="-157" font-family="Helvetica,sans-Serif" font-size="10.00">RoR::App::GetGfxWaterUse</text>
<text text-anchor="middle" x="529" y="-146" font-family="Helvetica,sans-Serif" font-size="10.00">Waves</text>
</a>
</g>
</g>
<!-- Node1&#45;&gt;Node2 -->
<g id="edge1" class="edge"><title>Node1&#45;&gt;Node2</title>
<path fill="none" stroke="midnightblue" d="M48.4211,-95.5038C61.0846,-109.016 86.4953,-133.225 114,-143 224.512,-182.273 362.277,-175.964 447.696,-166.216"/>
<polygon fill="midnightblue" stroke="midnightblue" points="448.329,-169.666 457.848,-165.013 447.505,-162.714 448.329,-169.666"/>
</g>
<!-- Node3 -->
<g id="node3" class="node"><title>Node3</title>
<g id="a_node3"><a xlink:href="namespace_ro_r_1_1_app.html#a61093e1171e9aa1d2824499b9a6b8e18" target="_top" xlink:title="RoR::App::GetActiveMpState">
<polygon fill="white" stroke="black" points="456,-46.5 456,-65.5 602,-65.5 602,-46.5 456,-46.5"/>
<text text-anchor="middle" x="529" y="-53.5" font-family="Helvetica,sans-Serif" font-size="10.00">RoR::App::GetActiveMpState</text>
</a>
</g>
</g>
<!-- Node1&#45;&gt;Node3 -->
<g id="edge2" class="edge"><title>Node1&#45;&gt;Node3</title>
<path fill="none" stroke="midnightblue" d="M70.6537,-76.4811C83.8556,-72.8129 99.5503,-69.0207 114,-67 228.155,-51.0358 361.69,-50.7522 445.565,-52.7705"/>
<polygon fill="midnightblue" stroke="midnightblue" points="445.71,-56.2753 455.796,-53.0341 445.89,-49.2776 445.71,-56.2753"/>
</g>
<!-- Node4 -->
<g id="node4" class="node"><title>Node4</title>
<g id="a_node4"><a xlink:href="class_water.html#a633f92602bfc1703ef295e9b74da8720" target="_top" xlink:title="Water::showWave">
<polygon fill="white" stroke="black" points="139,-76.5 139,-95.5 237,-95.5 237,-76.5 139,-76.5"/>
<text text-anchor="middle" x="188" y="-83.5" font-family="Helvetica,sans-Serif" font-size="10.00">Water::showWave</text>
</a>
</g>
</g>
<!-- Node1&#45;&gt;Node4 -->
<g id="edge3" class="edge"><title>Node1&#45;&gt;Node4</title>
<path fill="none" stroke="midnightblue" d="M78.2388,-86C93.5964,-86 111.646,-86 128.579,-86"/>
<polygon fill="midnightblue" stroke="midnightblue" points="128.945,-89.5001 138.945,-86 128.945,-82.5001 128.945,-89.5001"/>
</g>
<!-- Node7 -->
<g id="node7" class="node"><title>Node7</title>
<g id="a_node7"><a xlink:href="class_water.html#ae34d81740dfa630804c1285fdd6bc25b" target="_top" xlink:title="Water::isCameraUnderWater">
<polygon fill="white" stroke="black" points="116.5,-114.5 116.5,-133.5 259.5,-133.5 259.5,-114.5 116.5,-114.5"/>
<text text-anchor="middle" x="188" y="-121.5" font-family="Helvetica,sans-Serif" font-size="10.00">Water::isCameraUnderWater</text>
</a>
</g>
</g>
<!-- Node1&#45;&gt;Node7 -->
<g id="edge8" class="edge"><title>Node1&#45;&gt;Node7</title>
<path fill="none" stroke="midnightblue" d="M77.0943,-95.589C96.3178,-100.558 119.986,-106.677 140.429,-111.961"/>
<polygon fill="midnightblue" stroke="midnightblue" points="139.615,-115.366 150.172,-114.48 141.367,-108.588 139.615,-115.366"/>
</g>
<!-- Node8 -->
<g id="node8" class="node"><title>Node8</title>
<g id="a_node8"><a xlink:href="namespace_ro_r_1_1_app.html#a02caa3283775ee9aae51910208d3e7cc" target="_top" xlink:title="RoR::App::GetGfxWaterMode">
<polygon fill="white" stroke="black" points="114,-0.5 114,-19.5 262,-19.5 262,-0.5 114,-0.5"/>
<text text-anchor="middle" x="188" y="-7.5" font-family="Helvetica,sans-Serif" font-size="10.00">RoR::App::GetGfxWaterMode</text>
</a>
</g>
</g>
<!-- Node1&#45;&gt;Node8 -->
<g id="edge10" class="edge"><title>Node1&#45;&gt;Node8</title>
<path fill="none" stroke="midnightblue" d="M51.3652,-76.3909C65.3379,-64.9746 90.1419,-45.972 114,-34 122.584,-29.6924 132.114,-25.9095 141.378,-22.6969"/>
<polygon fill="midnightblue" stroke="midnightblue" points="142.487,-26.0167 150.885,-19.5574 140.292,-19.3697 142.487,-26.0167"/>
</g>
<!-- Node5 -->
<g id="node5" class="node"><title>Node5</title>
<g id="a_node5"><a xlink:href="class_water.html#ae0ff5f204633423eb3d8f825940b0c94" target="_top" xlink:title="Water::getHeightWaves">
<polygon fill="white" stroke="black" points="298,-92.5 298,-111.5 420,-111.5 420,-92.5 298,-92.5"/>
<text text-anchor="middle" x="359" y="-99.5" font-family="Helvetica,sans-Serif" font-size="10.00">Water::getHeightWaves</text>
</a>
</g>
</g>
<!-- Node4&#45;&gt;Node5 -->
<g id="edge4" class="edge"><title>Node4&#45;&gt;Node5</title>
<path fill="none" stroke="midnightblue" d="M237.429,-90.585C253.018,-92.0609 270.624,-93.7277 287.468,-95.3224"/>
<polygon fill="midnightblue" stroke="midnightblue" points="287.547,-98.8454 297.832,-96.3036 288.207,-91.8766 287.547,-98.8454"/>
</g>
<!-- Node5&#45;&gt;Node2 -->
<g id="edge5" class="edge"><title>Node5&#45;&gt;Node2</title>
<path fill="none" stroke="midnightblue" d="M390.814,-111.538C412.833,-118.353 443.136,-127.733 469.662,-135.943"/>
<polygon fill="midnightblue" stroke="midnightblue" points="468.654,-139.295 479.242,-138.908 470.724,-132.608 468.654,-139.295"/>
</g>
<!-- Node5&#45;&gt;Node3 -->
<g id="edge6" class="edge"><title>Node5&#45;&gt;Node3</title>
<path fill="none" stroke="midnightblue" d="M394.81,-92.4688C420.489,-85.4375 455.638,-75.8133 483.38,-68.2173"/>
<polygon fill="midnightblue" stroke="midnightblue" points="484.514,-71.5357 493.235,-65.519 482.666,-64.7842 484.514,-71.5357"/>
</g>
<!-- Node6 -->
<g id="node6" class="node"><title>Node6</title>
<g id="a_node6"><a xlink:href="class_water.html#a0e898659c77fb2358402d0cd669301c0" target="_top" xlink:title="Water::getWaveHeight">
<polygon fill="white" stroke="black" points="471,-92.5 471,-111.5 587,-111.5 587,-92.5 471,-92.5"/>
<text text-anchor="middle" x="529" y="-99.5" font-family="Helvetica,sans-Serif" font-size="10.00">Water::getWaveHeight</text>
</a>
</g>
</g>
<!-- Node5&#45;&gt;Node6 -->
<g id="edge7" class="edge"><title>Node5&#45;&gt;Node6</title>
<path fill="none" stroke="midnightblue" d="M420.177,-102C433.307,-102 447.283,-102 460.671,-102"/>
<polygon fill="midnightblue" stroke="midnightblue" points="460.77,-105.5 470.77,-102 460.77,-98.5001 460.77,-105.5"/>
</g>
<!-- Node7&#45;&gt;Node5 -->
<g id="edge9" class="edge"><title>Node7&#45;&gt;Node5</title>
<path fill="none" stroke="midnightblue" d="M259.692,-114.797C268.991,-113.587 278.52,-112.346 287.811,-111.137"/>
<polygon fill="midnightblue" stroke="midnightblue" points="288.313,-114.601 297.777,-109.84 287.409,-107.66 288.313,-114.601"/>
</g>
</g>
</svg>
        <g id="navigator" transform="translate(0 0)" fill="#404254">
                <rect fill="#f2f5e9" fill-opacity="0.5" stroke="#606060" stroke-width=".5" x="0" y="0" width="60" height="60"/>
                <use id="zoomplus" xlink:href="#zoomPlus" x="17" y="9" onmousedown="handleZoom(evt,'in')"/>
                <use id="zoomminus" xlink:href="#zoomMin" x="42" y="9" onmousedown="handleZoom(evt,'out')"/>
                <use id="reset" xlink:href="#resetDef" x="30" y="36" onmousedown="handleReset()"/>
                <g id="arrowUp" xlink:href="#dirArrow" transform="translate(30 24)" onmousedown="handlePan(0,-1)">
                  <use xlink:href="#rim" fill="#404040">
                        <set attributeName="fill" to="#808080" begin="arrowUp.mouseover" end="arrowUp.mouseout"/>
                  </use>
                  <path fill="none" stroke="white" stroke-width="1.5" d="M0,-3.0v7 M-2.5,-0.5L0,-3.0L2.5,-0.5"/>
                </g>
                <g id="arrowRight" xlink:href="#dirArrow" transform="rotate(90) translate(36 -43)" onmousedown="handlePan(1,0)">
                  <use xlink:href="#rim" fill="#404040">
                        <set attributeName="fill" to="#808080" begin="arrowRight.mouseover" end="arrowRight.mouseout"/>
                  </use>
                  <path fill="none" stroke="white" stroke-width="1.5" d="M0,-3.0v7 M-2.5,-0.5L0,-3.0L2.5,-0.5"/>
                </g>
                <g id="arrowDown" xlink:href="#dirArrow" transform="rotate(180) translate(-30 -48)" onmousedown="handlePan(0,1)">
                  <use xlink:href="#rim" fill="#404040">
                        <set attributeName="fill" to="#808080" begin="arrowDown.mouseover" end="arrowDown.mouseout"/>
                  </use>
                  <path fill="none" stroke="white" stroke-width="1.5" d="M0,-3.0v7 M-2.5,-0.5L0,-3.0L2.5,-0.5"/>
                </g>
                <g id="arrowLeft" xlink:href="#dirArrow" transform="rotate(270) translate(-36 17)" onmousedown="handlePan(-1,0)">
                  <use xlink:href="#rim" fill="#404040">
                        <set attributeName="fill" to="#808080" begin="arrowLeft.mouseover" end="arrowLeft.mouseout"/>
                  </use>
                  <path fill="none" stroke="white" stroke-width="1.5" d="M0,-3.0v7 M-2.5,-0.5L0,-3.0L2.5,-0.5"/>
                </g>
        </g>
        <svg viewBox="0 0 15 15" width="100%" height="30px" preserveAspectRatio="xMaxYMin meet">
         <g id="arrow_out" transform="scale(0.3 0.3)">
          <a xlink:href="class_water_a18fce2c0b2c45ee4ea8e413fcb4bdafa_cgraph_org.svg" target="_base">
           <rect id="button" ry="5" rx="5" y="6" x="6" height="38" width="38"
                fill="#f2f5e9" fill-opacity="0.5" stroke="#606060" stroke-width="1.0"/>
           <path id="arrow"
             d="M 11.500037,31.436501 C 11.940474,20.09759 22.043105,11.32322 32.158766,21.979434 L 37.068811,17.246167 C 37.068811,17.246167 37.088388,32 37.088388,32 L 22.160133,31.978069 C 22.160133,31.978069 26.997745,27.140456 26.997745,27.140456 C 18.528582,18.264221 13.291696,25.230495 11.500037,31.436501 z"
             style="fill:#404040;"/>
          </a>
         </g>
        </svg>
</svg>
