<?xml version="1.0" encoding="UTF-8" standalone="no"?>
<!DOCTYPE svg PUBLIC "-//W3C//DTD SVG 1.1//EN"
 "http://www.w3.org/Graphics/SVG/1.1/DTD/svg11.dtd">
<!-- Generated by graphviz version 2.36.0 (20140111.2315)
 -->
<!-- Title: RigDef::Parser::ParseDirectiveSetNodeDefaults Pages: 1 -->
<svg width="530pt" height="213pt"
 viewBox="0.00 0.00 530.00 213.00" xmlns="http://www.w3.org/2000/svg" xmlns:xlink="http://www.w3.org/1999/xlink">
<g id="graph0" class="graph" transform="scale(1 1) rotate(0) translate(4 209)">
<title>RigDef::Parser::ParseDirectiveSetNodeDefaults</title>
<polygon fill="white" stroke="none" points="-4,4 -4,-209 526,-209 526,4 -4,4"/>
<!-- Node1 -->
<g id="node1" class="node"><title>Node1</title>
<polygon fill="#bfbfbf" stroke="black" points="0,-93 0,-123 152,-123 152,-93 0,-93"/>
<text text-anchor="start" x="8" y="-111" font-family="Helvetica,sans-Serif" font-size="10.00">RigDef::Parser::ParseDirective</text>
<text text-anchor="middle" x="76" y="-100" font-family="Helvetica,sans-Serif" font-size="10.00">SetNodeDefaults</text>
</g>
<!-- Node2 -->
<g id="node2" class="node"><title>Node2</title>
<g id="a_node2"><a xlink:href="class_rig_def_1_1_parser.html#a8397c243299359e21a84243c01ca43bf" target="_top" xlink:title="RigDef::Parser::CheckNum\lArguments">
<polygon fill="white" stroke="black" points="195.5,-175 195.5,-205 332.5,-205 332.5,-175 195.5,-175"/>
<text text-anchor="start" x="203.5" y="-193" font-family="Helvetica,sans-Serif" font-size="10.00">RigDef::Parser::CheckNum</text>
<text text-anchor="middle" x="264" y="-182" font-family="Helvetica,sans-Serif" font-size="10.00">Arguments</text>
</a>
</g>
</g>
<!-- Node1&#45;&gt;Node2 -->
<g id="edge1" class="edge"><title>Node1&#45;&gt;Node2</title>
<path fill="none" stroke="midnightblue" d="M103.818,-123.239C125.964,-135.462 158.445,-152.572 188,-165 193.349,-167.25 198.978,-169.438 204.647,-171.524"/>
<polygon fill="midnightblue" stroke="midnightblue" points="203.589,-174.863 214.184,-174.931 205.944,-168.271 203.589,-174.863"/>
</g>
<!-- Node4 -->
<g id="node4" class="node"><title>Node4</title>
<g id="a_node4"><a xlink:href="class_rig_def_1_1_parser.html#ae77a4970494c116e98a92be7a0160a16" target="_top" xlink:title="RigDef::Parser::GetArgFloat">
<polygon fill="white" stroke="black" points="194,-136.5 194,-155.5 334,-155.5 334,-136.5 194,-136.5"/>
<text text-anchor="middle" x="264" y="-143.5" font-family="Helvetica,sans-Serif" font-size="10.00">RigDef::Parser::GetArgFloat</text>
</a>
</g>
</g>
<!-- Node1&#45;&gt;Node4 -->
<g id="edge3" class="edge"><title>Node1&#45;&gt;Node4</title>
<path fill="none" stroke="midnightblue" d="M150.512,-123.019C169.102,-126.816 188.779,-130.837 206.389,-134.434"/>
<polygon fill="midnightblue" stroke="midnightblue" points="205.997,-137.927 216.495,-136.499 207.398,-131.068 205.997,-137.927"/>
</g>
<!-- Node5 -->
<g id="node5" class="node"><title>Node5</title>
<g id="a_node5"><a xlink:href="class_rig_def_1_1_parser.html#a629f3ff2e6181f7953ec28168b0aac00" target="_top" xlink:title="RigDef::Parser::GetArgStr">
<polygon fill="white" stroke="black" points="198.5,-98.5 198.5,-117.5 329.5,-117.5 329.5,-98.5 198.5,-98.5"/>
<text text-anchor="middle" x="264" y="-105.5" font-family="Helvetica,sans-Serif" font-size="10.00">RigDef::Parser::GetArgStr</text>
</a>
</g>
</g>
<!-- Node1&#45;&gt;Node5 -->
<g id="edge5" class="edge"><title>Node1&#45;&gt;Node5</title>
<path fill="none" stroke="midnightblue" d="M152.117,-108C163.97,-108 176.226,-108 188.075,-108"/>
<polygon fill="midnightblue" stroke="midnightblue" points="188.362,-111.5 198.362,-108 188.362,-104.5 188.362,-111.5"/>
</g>
<!-- Node6 -->
<g id="node6" class="node"><title>Node6</title>
<g id="a_node6"><a xlink:href="class_rig_def_1_1_parser.html#aa0448d0c351e3163aa33245881947a40" target="_top" xlink:title="RigDef::Parser::_ParseNode\lOptions">
<polygon fill="white" stroke="black" points="193,-49 193,-79 335,-79 335,-49 193,-49"/>
<text text-anchor="start" x="201" y="-67" font-family="Helvetica,sans-Serif" font-size="10.00">RigDef::Parser::_ParseNode</text>
<text text-anchor="middle" x="264" y="-56" font-family="Helvetica,sans-Serif" font-size="10.00">Options</text>
</a>
</g>
</g>
<!-- Node1&#45;&gt;Node6 -->
<g id="edge6" class="edge"><title>Node1&#45;&gt;Node6</title>
<path fill="none" stroke="midnightblue" d="M140.49,-92.9808C156.265,-89.2492 173.303,-85.2186 189.513,-81.384"/>
<polygon fill="midnightblue" stroke="midnightblue" points="190.554,-84.7343 199.48,-79.0262 188.943,-77.9223 190.554,-84.7343"/>
</g>
<!-- Node7 -->
<g id="node7" class="node"><title>Node7</title>
<g id="a_node7"><a xlink:href="class_rig_def_1_1_parser.html#abb8cfb41d0897fad9fc9039db596d473" target="_top" xlink:title="RigDef::Parser::LogParsed\lDirectiveSetNodeDefaultsData">
<polygon fill="white" stroke="black" points="188,-0 188,-30 340,-30 340,-0 188,-0"/>
<text text-anchor="start" x="196" y="-18" font-family="Helvetica,sans-Serif" font-size="10.00">RigDef::Parser::LogParsed</text>
<text text-anchor="middle" x="264" y="-7" font-family="Helvetica,sans-Serif" font-size="10.00">DirectiveSetNodeDefaultsData</text>
</a>
</g>
</g>
<!-- Node1&#45;&gt;Node7 -->
<g id="edge8" class="edge"><title>Node1&#45;&gt;Node7</title>
<path fill="none" stroke="midnightblue" d="M98.2916,-92.9225C120.055,-78.008 155.219,-55.2607 188,-40 192.701,-37.8115 197.648,-35.7244 202.666,-33.7565"/>
<polygon fill="midnightblue" stroke="midnightblue" points="204.222,-36.9111 212.358,-30.1237 201.765,-30.3565 204.222,-36.9111"/>
</g>
<!-- Node3 -->
<g id="node3" class="node"><title>Node3</title>
<g id="a_node3"><a xlink:href="class_rig_def_1_1_parser.html#a7da949423835fe3241f2ac4c5ac8ebb1" target="_top" xlink:title="Adds a message to parser report. ">
<polygon fill="white" stroke="black" points="376.5,-95.5 376.5,-114.5 521.5,-114.5 521.5,-95.5 376.5,-95.5"/>
<text text-anchor="middle" x="449" y="-102.5" font-family="Helvetica,sans-Serif" font-size="10.00">RigDef::Parser::AddMessage</text>
</a>
</g>
</g>
<!-- Node2&#45;&gt;Node3 -->
<g id="edge2" class="edge"><title>Node2&#45;&gt;Node3</title>
<path fill="none" stroke="midnightblue" d="M314.713,-174.875C323.252,-171.868 331.959,-168.537 340,-165 369.93,-151.834 402.51,-133.073 423.972,-120.048"/>
<polygon fill="midnightblue" stroke="midnightblue" points="426.03,-122.892 432.725,-114.68 422.37,-116.925 426.03,-122.892"/>
</g>
<!-- Node4&#45;&gt;Node3 -->
<g id="edge4" class="edge"><title>Node4&#45;&gt;Node3</title>
<path fill="none" stroke="midnightblue" d="M307.444,-136.491C333.68,-130.613 367.557,-123.023 395.478,-116.767"/>
<polygon fill="midnightblue" stroke="midnightblue" points="396.477,-120.13 405.47,-114.529 394.946,-113.3 396.477,-120.13"/>
</g>
<!-- Node6&#45;&gt;Node3 -->
<g id="edge7" class="edge"><title>Node6&#45;&gt;Node3</title>
<path fill="none" stroke="midnightblue" d="M332.103,-79.0341C352.951,-83.7049 375.622,-88.7842 395.339,-93.2015"/>
<polygon fill="midnightblue" stroke="midnightblue" points="394.831,-96.6745 405.354,-95.4455 396.362,-89.8439 394.831,-96.6745"/>
</g>
<!-- Node7&#45;&gt;Node3 -->
<g id="edge9" class="edge"><title>Node7&#45;&gt;Node3</title>
<path fill="none" stroke="midnightblue" d="M315.218,-30.0331C323.617,-33.0299 332.147,-36.3815 340,-40 371.13,-54.3435 404.595,-75.4666 425.885,-89.7045"/>
<polygon fill="midnightblue" stroke="midnightblue" points="423.978,-92.64 434.222,-95.3451 427.901,-86.8423 423.978,-92.64"/>
</g>
</g>
</svg>
