<?xml version="1.0" encoding="UTF-8" standalone="no"?>
<!DOCTYPE svg PUBLIC "-//W3C//DTD SVG 1.1//EN"
 "http://www.w3.org/Graphics/SVG/1.1/DTD/svg11.dtd">
<!-- Generated by graphviz version 2.36.0 (20140111.2315)
 -->
<!-- Title: wraps::BaseLayout::initialise Pages: 1 -->
<!--zoomable 832 -->
<svg id="main" version="1.1" xmlns="http://www.w3.org/2000/svg" xmlns:xlink="http://www.w3.org/1999/xlink" xml:space="preserve" onload="init(evt)">
<style type="text/css"><![CDATA[
.edge:hover path { stroke: red; }
.edge:hover polygon { stroke: red; fill: red; }
]]></style>
<script type="text/javascript"><![CDATA[
var edges = document.getElementsByTagName('g');
if (edges && edges.length) {
  for (var i=0;i<edges.length;i++) {
    if (edges[i].id.substr(0,4)=='edge') {
      edges[i].setAttribute('class','edge');
    }
  }
}
]]></script>
        <defs>
                <circle id="rim" cx="0" cy="0" r="7"/>
                <circle id="rim2" cx="0" cy="0" r="3.5"/>
                <g id="zoomPlus">
                        <use xlink:href="#rim" fill="#404040">
                                <set attributeName="fill" to="#808080" begin="zoomplus.mouseover" end="zoomplus.mouseout"/>
                        </use>
                        <path d="M-4,0h8M0,-4v8" fill="none" stroke="white" stroke-width="1.5" pointer-events="none"/>
                </g>
                <g id="zoomMin">
                        <use xlink:href="#rim" fill="#404040">
                                <set attributeName="fill" to="#808080" begin="zoomminus.mouseover" end="zoomminus.mouseout"/>
                        </use>
                        <path d="M-4,0h8" fill="none" stroke="white" stroke-width="1.5" pointer-events="none"/>
                </g>
                <g id="dirArrow">
                        <path fill="none" stroke="white" stroke-width="1.5" d="M0,-3.0v7 M-2.5,-0.5L0,-3.0L2.5,-0.5"/>
                </g>
               <g id="resetDef">
                       <use xlink:href="#rim2" fill="#404040">
                               <set attributeName="fill" to="#808080" begin="reset.mouseover" end="reset.mouseout"/>
                       </use>
               </g>
        </defs>

<script type="text/javascript">
var viewWidth = 470;
var viewHeight = 832;
var sectionId = 'dynsection-5';
</script>
<script xlink:href="svgpan.js"/>
<svg id="graph" class="graph">
<g id="viewport">
<title>wraps::BaseLayout::initialise</title>
<polygon fill="white" stroke="none" points="-4,4 -4,-828 466,-828 466,4 -4,4"/>
<!-- Node1 -->
<g id="node1" class="node"><title>Node1</title>
<polygon fill="#bfbfbf" stroke="black" points="0.5,-426 0.5,-456 107.5,-456 107.5,-426 0.5,-426"/>
<text text-anchor="start" x="8.5" y="-444" font-family="Helvetica,sans-Serif" font-size="10.00">wraps::BaseLayout::</text>
<text text-anchor="middle" x="54" y="-433" font-family="Helvetica,sans-Serif" font-size="10.00">initialise</text>
</g>
<!-- Node2 -->
<g id="node2" class="node"><title>Node2</title>
<g id="a_node2"><a xlink:href="classwraps_1_1_base_layout.html#aa99dae460490c921ab343e3ba4898895" target="_top" xlink:title="wraps::BaseLayout::\lBaseLayout">
<polygon fill="white" stroke="black" points="144.5,-451 144.5,-481 251.5,-481 251.5,-451 144.5,-451"/>
<text text-anchor="start" x="152.5" y="-469" font-family="Helvetica,sans-Serif" font-size="10.00">wraps::BaseLayout::</text>
<text text-anchor="middle" x="198" y="-458" font-family="Helvetica,sans-Serif" font-size="10.00">BaseLayout</text>
</a>
</g>
</g>
<!-- Node1&#45;&gt;Node2 -->
<g id="edge1" class="edge"><title>Node1&#45;&gt;Node2</title>
<path fill="none" stroke="midnightblue" d="M117.994,-452.091C126.704,-453.624 135.578,-455.186 144.08,-456.683"/>
<polygon fill="midnightblue" stroke="midnightblue" points="118.331,-448.596 107.876,-450.309 117.117,-455.49 118.331,-448.596"/>
</g>
<!-- Node3 -->
<g id="node3" class="node"><title>Node3</title>
<g id="a_node3"><a xlink:href="classwraps_1_1_base_layout.html#aa6f806c099807cf01b238dff74538f7b" target="_top" xlink:title="wraps::BaseLayout::\linitialiseByAttributes">
<polygon fill="white" stroke="black" points="144.5,-402 144.5,-432 251.5,-432 251.5,-402 144.5,-402"/>
<text text-anchor="start" x="152.5" y="-420" font-family="Helvetica,sans-Serif" font-size="10.00">wraps::BaseLayout::</text>
<text text-anchor="middle" x="198" y="-409" font-family="Helvetica,sans-Serif" font-size="10.00">initialiseByAttributes</text>
</a>
</g>
</g>
<!-- Node1&#45;&gt;Node3 -->
<g id="edge2" class="edge"><title>Node1&#45;&gt;Node3</title>
<path fill="none" stroke="midnightblue" d="M117.994,-430.353C126.704,-428.881 135.578,-427.381 144.08,-425.944"/>
<polygon fill="midnightblue" stroke="midnightblue" points="117.152,-426.946 107.876,-432.063 118.319,-433.848 117.152,-426.946"/>
</g>
<!-- Node4 -->
<g id="node4" class="node"><title>Node4</title>
<g id="a_node4"><a xlink:href="class_ro_r_1_1_g_u_i_1_1_debug_options_layout.html#a1a1ad6dd54af7eeaaee8187da42532b1" target="_top" xlink:title="RoR::GUI::DebugOptionsLayout\l::DebugOptionsLayout">
<polygon fill="white" stroke="black" points="296,-794 296,-824 454,-824 454,-794 296,-794"/>
<text text-anchor="start" x="304" y="-812" font-family="Helvetica,sans-Serif" font-size="10.00">RoR::GUI::DebugOptionsLayout</text>
<text text-anchor="middle" x="375" y="-801" font-family="Helvetica,sans-Serif" font-size="10.00">::DebugOptionsLayout</text>
</a>
</g>
</g>
<!-- Node3&#45;&gt;Node4 -->
<g id="edge3" class="edge"><title>Node3&#45;&gt;Node4</title>
<path fill="none" stroke="midnightblue" d="M249.547,-438.913C250.418,-439.898 251.238,-440.927 252,-442 340.489,-566.618 189.961,-666.747 288,-784 291.192,-787.817 294.929,-791.071 299.026,-793.842"/>
<polygon fill="midnightblue" stroke="midnightblue" points="251.796,-436.229 242.011,-432.166 247.127,-441.444 251.796,-436.229"/>
</g>
<!-- Node5 -->
<g id="node5" class="node"><title>Node5</title>
<g id="a_node5"><a xlink:href="class_ro_r_1_1_g_u_i_1_1_game_about_layout.html#a36e21a95b99f558600cb9e4fe7b1539b" target="_top" xlink:title="RoR::GUI::GameAboutLayout\l::GameAboutLayout">
<polygon fill="white" stroke="black" points="301,-745 301,-775 449,-775 449,-745 301,-745"/>
<text text-anchor="start" x="309" y="-763" font-family="Helvetica,sans-Serif" font-size="10.00">RoR::GUI::GameAboutLayout</text>
<text text-anchor="middle" x="375" y="-752" font-family="Helvetica,sans-Serif" font-size="10.00">::GameAboutLayout</text>
</a>
</g>
</g>
<!-- Node3&#45;&gt;Node5 -->
<g id="edge4" class="edge"><title>Node3&#45;&gt;Node5</title>
<path fill="none" stroke="midnightblue" d="M249.522,-438.931C250.4,-439.911 251.229,-440.933 252,-442 328.888,-548.311 202.97,-635.082 288,-735 291.628,-739.263 295.936,-742.821 300.661,-745.789"/>
<polygon fill="midnightblue" stroke="midnightblue" points="251.749,-436.228 241.945,-432.213 247.106,-441.466 251.749,-436.228"/>
</g>
<!-- Node6 -->
<g id="node6" class="node"><title>Node6</title>
<g id="a_node6"><a xlink:href="class_ro_r_1_1_g_u_i_1_1_game_chat_box_layout.html#a81f2ed163ed219bc38a70b20491722fc" target="_top" xlink:title="RoR::GUI::GameChatBoxLayout\l::GameChatBoxLayout">
<polygon fill="white" stroke="black" points="294.5,-696 294.5,-726 455.5,-726 455.5,-696 294.5,-696"/>
<text text-anchor="start" x="302.5" y="-714" font-family="Helvetica,sans-Serif" font-size="10.00">RoR::GUI::GameChatBoxLayout</text>
<text text-anchor="middle" x="375" y="-703" font-family="Helvetica,sans-Serif" font-size="10.00">::GameChatBoxLayout</text>
</a>
</g>
</g>
<!-- Node3&#45;&gt;Node6 -->
<g id="edge5" class="edge"><title>Node3&#45;&gt;Node6</title>
<path fill="none" stroke="midnightblue" d="M249.429,-438.893C250.339,-439.885 251.199,-440.92 252,-442 317.311,-530.038 215.951,-603.385 288,-686 291.372,-689.867 295.305,-693.153 299.596,-695.942"/>
<polygon fill="midnightblue" stroke="midnightblue" points="251.448,-436.011 241.6,-432.103 246.861,-441.299 251.448,-436.011"/>
</g>
<!-- Node7 -->
<g id="node7" class="node"><title>Node7</title>
<g id="a_node7"><a xlink:href="class_ro_r_1_1_g_u_i_1_1_game_console_layout.html#a10309dc3e63f9c27fd46fe939d385ba0" target="_top" xlink:title="RoR::GUI::GameConsoleLayout\l::GameConsoleLayout">
<polygon fill="white" stroke="black" points="296,-647 296,-677 454,-677 454,-647 296,-647"/>
<text text-anchor="start" x="304" y="-665" font-family="Helvetica,sans-Serif" font-size="10.00">RoR::GUI::GameConsoleLayout</text>
<text text-anchor="middle" x="375" y="-654" font-family="Helvetica,sans-Serif" font-size="10.00">::GameConsoleLayout</text>
</a>
</g>
</g>
<!-- Node3&#45;&gt;Node7 -->
<g id="edge6" class="edge"><title>Node3&#45;&gt;Node7</title>
<path fill="none" stroke="midnightblue" d="M249,-438.538C250.065,-439.638 251.069,-440.791 252,-442 305.777,-511.822 228.885,-571.635 288,-637 291.442,-640.806 295.425,-644.045 299.753,-646.802"/>
<polygon fill="midnightblue" stroke="midnightblue" points="251.126,-435.754 241.208,-432.031 246.64,-441.127 251.126,-435.754"/>
</g>
<!-- Node8 -->
<g id="node8" class="node"><title>Node8</title>
<g id="a_node8"><a xlink:href="class_ro_r_1_1_g_u_i_1_1_game_main_menu_layout.html#a3de0b8e25ebb02ab85a1d58fce1a3c03" target="_top" xlink:title="RoR::GUI::GameMainMenuLayout\l::GameMainMenuLayout">
<polygon fill="white" stroke="black" points="291.5,-598 291.5,-628 458.5,-628 458.5,-598 291.5,-598"/>
<text text-anchor="start" x="299.5" y="-616" font-family="Helvetica,sans-Serif" font-size="10.00">RoR::GUI::GameMainMenuLayout</text>
<text text-anchor="middle" x="375" y="-605" font-family="Helvetica,sans-Serif" font-size="10.00">::GameMainMenuLayout</text>
</a>
</g>
</g>
<!-- Node3&#45;&gt;Node8 -->
<g id="edge7" class="edge"><title>Node3&#45;&gt;Node8</title>
<path fill="none" stroke="midnightblue" d="M248.837,-438.545C249.955,-439.644 251.013,-440.794 252,-442 294.33,-493.718 241.725,-539.78 288,-588 291.66,-591.814 295.866,-595.056 300.406,-597.811"/>
<polygon fill="midnightblue" stroke="midnightblue" points="250.715,-435.565 240.725,-432.036 246.334,-441.024 250.715,-435.565"/>
</g>
<!-- Node9 -->
<g id="node9" class="node"><title>Node9</title>
<g id="a_node9"><a xlink:href="class_ro_r_1_1_g_u_i_1_1_game_pause_menu_layout.html#aa8a86f0bbe7120c724ff08a1114b64fd" target="_top" xlink:title="RoR::GUI::GamePauseMenuLayout\l::GamePauseMenuLayout">
<polygon fill="white" stroke="black" points="288,-549 288,-579 462,-579 462,-549 288,-549"/>
<text text-anchor="start" x="296" y="-567" font-family="Helvetica,sans-Serif" font-size="10.00">RoR::GUI::GamePauseMenuLayout</text>
<text text-anchor="middle" x="375" y="-556" font-family="Helvetica,sans-Serif" font-size="10.00">::GamePauseMenuLayout</text>
</a>
</g>
</g>
<!-- Node3&#45;&gt;Node9 -->
<g id="edge8" class="edge"><title>Node3&#45;&gt;Node9</title>
<path fill="none" stroke="midnightblue" d="M248.148,-438.244C249.504,-439.435 250.794,-440.686 252,-442 283.099,-475.874 254.327,-507.684 288,-539 292.099,-542.812 296.746,-546.046 301.705,-548.79"/>
<polygon fill="midnightblue" stroke="midnightblue" points="249.902,-435.188 239.777,-432.066 245.745,-440.82 249.902,-435.188"/>
</g>
<!-- Node10 -->
<g id="node10" class="node"><title>Node10</title>
<g id="a_node10"><a xlink:href="class_ro_r_1_1_g_u_i_1_1_game_settings_layout.html#a24618c05e36beb6da47c5a2adbc92b06" target="_top" xlink:title="RoR::GUI::GameSettingsLayout\l::GameSettingsLayout">
<polygon fill="white" stroke="black" points="296,-500 296,-530 454,-530 454,-500 296,-500"/>
<text text-anchor="start" x="304" y="-518" font-family="Helvetica,sans-Serif" font-size="10.00">RoR::GUI::GameSettingsLayout</text>
<text text-anchor="middle" x="375" y="-507" font-family="Helvetica,sans-Serif" font-size="10.00">::GameSettingsLayout</text>
</a>
</g>
</g>
<!-- Node3&#45;&gt;Node10 -->
<g id="edge9" class="edge"><title>Node3&#45;&gt;Node10</title>
<path fill="none" stroke="midnightblue" d="M245.67,-437.34C247.874,-438.815 249.999,-440.369 252,-442 272.668,-458.851 266.068,-474.831 288,-490 293.627,-493.892 299.86,-497.184 306.324,-499.968"/>
<polygon fill="midnightblue" stroke="midnightblue" points="247.237,-434.198 236.864,-432.04 243.627,-440.196 247.237,-434.198"/>
</g>
<!-- Node11 -->
<g id="node11" class="node"><title>Node11</title>
<g id="a_node11"><a xlink:href="class_ro_r_1_1_g_u_i_1_1_loading_window.html#a46482d9458812d8abcdc883c8eedcdda" target="_top" xlink:title="RoR::GUI::LoadingWindow\l::LoadingWindow">
<polygon fill="white" stroke="black" points="307,-451 307,-481 443,-481 443,-451 307,-451"/>
<text text-anchor="start" x="315" y="-469" font-family="Helvetica,sans-Serif" font-size="10.00">RoR::GUI::LoadingWindow</text>
<text text-anchor="middle" x="375" y="-458" font-family="Helvetica,sans-Serif" font-size="10.00">::LoadingWindow</text>
</a>
</g>
</g>
<!-- Node3&#45;&gt;Node11 -->
<g id="edge10" class="edge"><title>Node3&#45;&gt;Node11</title>
<path fill="none" stroke="midnightblue" d="M261.396,-434.471C280.66,-439.865 301.698,-445.755 320.32,-450.97"/>
<polygon fill="midnightblue" stroke="midnightblue" points="262.079,-431.028 251.506,-431.702 260.192,-437.768 262.079,-431.028"/>
</g>
<!-- Node12 -->
<g id="node12" class="node"><title>Node12</title>
<g id="a_node12"><a xlink:href="class_ro_r_1_1_g_u_i_1_1_main_selector_layout.html#a9f9d5ddb03582b032db18dfcbf9b9a01" target="_top" xlink:title="RoR::GUI::MainSelectorLayout\l::MainSelectorLayout">
<polygon fill="white" stroke="black" points="298.5,-402 298.5,-432 451.5,-432 451.5,-402 298.5,-402"/>
<text text-anchor="start" x="306.5" y="-420" font-family="Helvetica,sans-Serif" font-size="10.00">RoR::GUI::MainSelectorLayout</text>
<text text-anchor="middle" x="375" y="-409" font-family="Helvetica,sans-Serif" font-size="10.00">::MainSelectorLayout</text>
</a>
</g>
</g>
<!-- Node3&#45;&gt;Node12 -->
<g id="edge11" class="edge"><title>Node3&#45;&gt;Node12</title>
<path fill="none" stroke="midnightblue" d="M261.715,-417C273.554,-417 286.052,-417 298.24,-417"/>
<polygon fill="midnightblue" stroke="midnightblue" points="261.506,-413.5 251.506,-417 261.506,-420.5 261.506,-413.5"/>
</g>
<!-- Node13 -->
<g id="node13" class="node"><title>Node13</title>
<g id="a_node13"><a xlink:href="class_ro_r_1_1_g_u_i_1_1_message_box_layout.html#a61a47d5efab2e34bd90c9ab6ebb87da6" target="_top" xlink:title="RoR::GUI::MessageBoxLayout\l::MessageBoxLayout">
<polygon fill="white" stroke="black" points="298.5,-353 298.5,-383 451.5,-383 451.5,-353 298.5,-353"/>
<text text-anchor="start" x="306.5" y="-371" font-family="Helvetica,sans-Serif" font-size="10.00">RoR::GUI::MessageBoxLayout</text>
<text text-anchor="middle" x="375" y="-360" font-family="Helvetica,sans-Serif" font-size="10.00">::MessageBoxLayout</text>
</a>
</g>
</g>
<!-- Node3&#45;&gt;Node13 -->
<g id="edge12" class="edge"><title>Node3&#45;&gt;Node13</title>
<path fill="none" stroke="midnightblue" d="M261.396,-399.529C280.66,-394.135 301.698,-388.245 320.32,-383.03"/>
<polygon fill="midnightblue" stroke="midnightblue" points="260.192,-396.232 251.506,-402.298 262.079,-402.972 260.192,-396.232"/>
</g>
<!-- Node14 -->
<g id="node14" class="node"><title>Node14</title>
<g id="a_node14"><a xlink:href="class_ro_r_1_1_g_u_i_1_1_multiplayer_selector_layout.html#aec0c9c664628549aa22026e5e1b2bb4b" target="_top" xlink:title="RoR::GUI::MultiplayerSelector\lLayout::MultiplayerSelectorLayout">
<polygon fill="white" stroke="black" points="293,-304 293,-334 457,-334 457,-304 293,-304"/>
<text text-anchor="start" x="301" y="-322" font-family="Helvetica,sans-Serif" font-size="10.00">RoR::GUI::MultiplayerSelector</text>
<text text-anchor="middle" x="375" y="-311" font-family="Helvetica,sans-Serif" font-size="10.00">Layout::MultiplayerSelectorLayout</text>
</a>
</g>
</g>
<!-- Node3&#45;&gt;Node14 -->
<g id="edge13" class="edge"><title>Node3&#45;&gt;Node14</title>
<path fill="none" stroke="midnightblue" d="M220.905,-394.702C237.88,-378.564 262.702,-357.329 288,-344 295.153,-340.231 302.949,-336.962 310.83,-334.145"/>
<polygon fill="midnightblue" stroke="midnightblue" points="218.421,-392.235 213.684,-401.712 223.297,-397.258 218.421,-392.235"/>
</g>
<!-- Node15 -->
<g id="node15" class="node"><title>Node15</title>
<g id="a_node15"><a xlink:href="class_ro_r_1_1_g_u_i_1_1_rig_spawner_report_window_layout.html#ac50c03ff065001480c477be9619e9401" target="_top" xlink:title="RoR::GUI::RigSpawnerReport\lWindowLayout::RigSpawnerReport\lWindowLayout">
<polygon fill="white" stroke="black" points="290,-244.5 290,-285.5 460,-285.5 460,-244.5 290,-244.5"/>
<text text-anchor="start" x="298" y="-273.5" font-family="Helvetica,sans-Serif" font-size="10.00">RoR::GUI::RigSpawnerReport</text>
<text text-anchor="start" x="298" y="-262.5" font-family="Helvetica,sans-Serif" font-size="10.00">WindowLayout::RigSpawnerReport</text>
<text text-anchor="middle" x="375" y="-251.5" font-family="Helvetica,sans-Serif" font-size="10.00">WindowLayout</text>
</a>
</g>
</g>
<!-- Node3&#45;&gt;Node15 -->
<g id="edge14" class="edge"><title>Node3&#45;&gt;Node15</title>
<path fill="none" stroke="midnightblue" d="M210.733,-393.047C225.292,-365.669 252.585,-321.263 288,-295 292.7,-291.515 297.837,-288.411 303.188,-285.65"/>
<polygon fill="midnightblue" stroke="midnightblue" points="207.607,-391.473 206.122,-401.964 213.825,-394.689 207.607,-391.473"/>
</g>
<!-- Node16 -->
<g id="node16" class="node"><title>Node16</title>
<g id="a_node16"><a xlink:href="class_ro_r_1_1_g_u_i_1_1_sim_utils_layout.html#ae1122724b7c4e2af9e1adfeb0bcc0fb1" target="_top" xlink:title="RoR::GUI::SimUtilsLayout\l::SimUtilsLayout">
<polygon fill="white" stroke="black" points="308,-196 308,-226 442,-226 442,-196 308,-196"/>
<text text-anchor="start" x="316" y="-214" font-family="Helvetica,sans-Serif" font-size="10.00">RoR::GUI::SimUtilsLayout</text>
<text text-anchor="middle" x="375" y="-203" font-family="Helvetica,sans-Serif" font-size="10.00">::SimUtilsLayout</text>
</a>
</g>
</g>
<!-- Node3&#45;&gt;Node16 -->
<g id="edge15" class="edge"><title>Node3&#45;&gt;Node16</title>
<path fill="none" stroke="midnightblue" d="M204.264,-392.102C213.889,-352.784 238.098,-276.528 288,-235 293.838,-230.141 300.592,-226.263 307.698,-223.169"/>
<polygon fill="midnightblue" stroke="midnightblue" points="200.835,-391.397 201.977,-401.93 207.653,-392.984 200.835,-391.397"/>
</g>
<!-- Node17 -->
<g id="node17" class="node"><title>Node17</title>
<g id="a_node17"><a xlink:href="class_ro_r_1_1_g_u_i_1_1_teleport_window_layout.html#a241fbce07a4d5f8bd2708b52d9dbbcad" target="_top" xlink:title="RoR::GUI::TeleportWindow\lLayout::TeleportWindowLayout">
<polygon fill="white" stroke="black" points="299,-147 299,-177 451,-177 451,-147 299,-147"/>
<text text-anchor="start" x="307" y="-165" font-family="Helvetica,sans-Serif" font-size="10.00">RoR::GUI::TeleportWindow</text>
<text text-anchor="middle" x="375" y="-154" font-family="Helvetica,sans-Serif" font-size="10.00">Layout::TeleportWindowLayout</text>
</a>
</g>
</g>
<!-- Node3&#45;&gt;Node17 -->
<g id="edge16" class="edge"><title>Node3&#45;&gt;Node17</title>
<path fill="none" stroke="midnightblue" d="M201.499,-391.853C207.543,-344.693 227.258,-242.713 288,-187 292.24,-183.111 297.05,-179.824 302.178,-177.047"/>
<polygon fill="midnightblue" stroke="midnightblue" points="198.018,-391.487 200.323,-401.828 204.97,-392.307 198.018,-391.487"/>
</g>
<!-- Node18 -->
<g id="node18" class="node"><title>Node18</title>
<g id="a_node18"><a xlink:href="class_ro_r_1_1_g_u_i_1_1_vehicle_description_layout.html#a2c8869906689b16b409e526063f5dcbb" target="_top" xlink:title="RoR::GUI::VehicleDescription\lLayout::VehicleDescriptionLayout">
<polygon fill="white" stroke="black" points="293.5,-98 293.5,-128 456.5,-128 456.5,-98 293.5,-98"/>
<text text-anchor="start" x="301.5" y="-116" font-family="Helvetica,sans-Serif" font-size="10.00">RoR::GUI::VehicleDescription</text>
<text text-anchor="middle" x="375" y="-105" font-family="Helvetica,sans-Serif" font-size="10.00">Layout::VehicleDescriptionLayout</text>
</a>
</g>
</g>
<!-- Node3&#45;&gt;Node18 -->
<g id="edge17" class="edge"><title>Node3&#45;&gt;Node18</title>
<path fill="none" stroke="midnightblue" d="M199.52,-391.622C202.043,-337.17 215.779,-208.375 288,-138 292.009,-134.094 296.591,-130.791 301.506,-128.001"/>
<polygon fill="midnightblue" stroke="midnightblue" points="196.016,-391.651 199.142,-401.774 203.011,-391.911 196.016,-391.651"/>
</g>
<!-- Node19 -->
<g id="node19" class="node"><title>Node19</title>
<g id="a_node19"><a xlink:href="class_survey_map_entity.html#a8b649c8dd5a60c6ee04cffa7673f7170" target="_top" xlink:title="SurveyMapEntity::SurveyMap\lEntity">
<polygon fill="white" stroke="black" points="301.5,-49 301.5,-79 448.5,-79 448.5,-49 301.5,-49"/>
<text text-anchor="start" x="309.5" y="-67" font-family="Helvetica,sans-Serif" font-size="10.00">SurveyMapEntity::SurveyMap</text>
<text text-anchor="middle" x="375" y="-56" font-family="Helvetica,sans-Serif" font-size="10.00">Entity</text>
</a>
</g>
</g>
<!-- Node3&#45;&gt;Node19 -->
<g id="edge18" class="edge"><title>Node3&#45;&gt;Node19</title>
<path fill="none" stroke="midnightblue" d="M198.071,-391.518C197.292,-330.433 204.12,-174.398 288,-89 291.922,-85.0066 296.442,-81.642 301.314,-78.8083"/>
<polygon fill="midnightblue" stroke="midnightblue" points="194.577,-391.857 198.288,-401.781 201.575,-391.709 194.577,-391.857"/>
</g>
<!-- Node20 -->
<g id="node20" class="node"><title>Node20</title>
<g id="a_node20"><a xlink:href="class_survey_map_manager.html#a68d4e0db3e913d1176cdfcd5a02d0b8b" target="_top" xlink:title="SurveyMapManager::Survey\lMapManager">
<polygon fill="white" stroke="black" points="305,-0 305,-30 445,-30 445,-0 305,-0"/>
<text text-anchor="start" x="313" y="-18" font-family="Helvetica,sans-Serif" font-size="10.00">SurveyMapManager::Survey</text>
<text text-anchor="middle" x="375" y="-7" font-family="Helvetica,sans-Serif" font-size="10.00">MapManager</text>
</a>
</g>
</g>
<!-- Node3&#45;&gt;Node20 -->
<g id="edge19" class="edge"><title>Node3&#45;&gt;Node20</title>
<path fill="none" stroke="midnightblue" d="M201.681,-391.56C210.196,-315.447 238.991,-91.578 288,-40 292.82,-34.9277 298.602,-30.8662 304.86,-27.6168"/>
<polygon fill="midnightblue" stroke="midnightblue" points="198.182,-391.358 200.572,-401.68 205.14,-392.121 198.182,-391.358"/>
</g>
</g>
</svg>
        <g id="navigator" transform="translate(0 0)" fill="#404254">
                <rect fill="#f2f5e9" fill-opacity="0.5" stroke="#606060" stroke-width=".5" x="0" y="0" width="60" height="60"/>
                <use id="zoomplus" xlink:href="#zoomPlus" x="17" y="9" onmousedown="handleZoom(evt,'in')"/>
                <use id="zoomminus" xlink:href="#zoomMin" x="42" y="9" onmousedown="handleZoom(evt,'out')"/>
                <use id="reset" xlink:href="#resetDef" x="30" y="36" onmousedown="handleReset()"/>
                <g id="arrowUp" xlink:href="#dirArrow" transform="translate(30 24)" onmousedown="handlePan(0,-1)">
                  <use xlink:href="#rim" fill="#404040">
                        <set attributeName="fill" to="#808080" begin="arrowUp.mouseover" end="arrowUp.mouseout"/>
                  </use>
                  <path fill="none" stroke="white" stroke-width="1.5" d="M0,-3.0v7 M-2.5,-0.5L0,-3.0L2.5,-0.5"/>
                </g>
                <g id="arrowRight" xlink:href="#dirArrow" transform="rotate(90) translate(36 -43)" onmousedown="handlePan(1,0)">
                  <use xlink:href="#rim" fill="#404040">
                        <set attributeName="fill" to="#808080" begin="arrowRight.mouseover" end="arrowRight.mouseout"/>
                  </use>
                  <path fill="none" stroke="white" stroke-width="1.5" d="M0,-3.0v7 M-2.5,-0.5L0,-3.0L2.5,-0.5"/>
                </g>
                <g id="arrowDown" xlink:href="#dirArrow" transform="rotate(180) translate(-30 -48)" onmousedown="handlePan(0,1)">
                  <use xlink:href="#rim" fill="#404040">
                        <set attributeName="fill" to="#808080" begin="arrowDown.mouseover" end="arrowDown.mouseout"/>
                  </use>
                  <path fill="none" stroke="white" stroke-width="1.5" d="M0,-3.0v7 M-2.5,-0.5L0,-3.0L2.5,-0.5"/>
                </g>
                <g id="arrowLeft" xlink:href="#dirArrow" transform="rotate(270) translate(-36 17)" onmousedown="handlePan(-1,0)">
                  <use xlink:href="#rim" fill="#404040">
                        <set attributeName="fill" to="#808080" begin="arrowLeft.mouseover" end="arrowLeft.mouseout"/>
                  </use>
                  <path fill="none" stroke="white" stroke-width="1.5" d="M0,-3.0v7 M-2.5,-0.5L0,-3.0L2.5,-0.5"/>
                </g>
        </g>
        <svg viewBox="0 0 15 15" width="100%" height="30px" preserveAspectRatio="xMaxYMin meet">
         <g id="arrow_out" transform="scale(0.3 0.3)">
          <a xlink:href="classwraps_1_1_base_layout_a259ffe59370c08268229022e9ff0e1b0_icgraph_org.svg" target="_base">
           <rect id="button" ry="5" rx="5" y="6" x="6" height="38" width="38"
                fill="#f2f5e9" fill-opacity="0.5" stroke="#606060" stroke-width="1.0"/>
           <path id="arrow"
             d="M 11.500037,31.436501 C 11.940474,20.09759 22.043105,11.32322 32.158766,21.979434 L 37.068811,17.246167 C 37.068811,17.246167 37.088388,32 37.088388,32 L 22.160133,31.978069 C 22.160133,31.978069 26.997745,27.140456 26.997745,27.140456 C 18.528582,18.264221 13.291696,25.230495 11.500037,31.436501 z"
             style="fill:#404040;"/>
          </a>
         </g>
        </svg>
</svg>
