<?xml version="1.0" encoding="UTF-8" standalone="no"?>
<!DOCTYPE svg PUBLIC "-//W3C//DTD SVG 1.1//EN"
 "http://www.w3.org/Graphics/SVG/1.1/DTD/svg11.dtd">
<!-- Generated by graphviz version 2.36.0 (20140111.2315)
 -->
<!-- Title: Landusemap::loadConfig Pages: 1 -->
<svg width="762pt" height="169pt"
 viewBox="0.00 0.00 762.00 169.00" xmlns="http://www.w3.org/2000/svg" xmlns:xlink="http://www.w3.org/1999/xlink">
<g id="graph0" class="graph" transform="scale(1 1) rotate(0) translate(4 165)">
<title>Landusemap::loadConfig</title>
<polygon fill="white" stroke="none" points="-4,4 -4,-165 758,-165 758,4 -4,4"/>
<!-- Node1 -->
<g id="node1" class="node"><title>Node1</title>
<polygon fill="#bfbfbf" stroke="black" points="0.5,-76.5 0.5,-95.5 125.5,-95.5 125.5,-76.5 0.5,-76.5"/>
<text text-anchor="middle" x="63" y="-83.5" font-family="Helvetica,sans-Serif" font-size="10.00">Landusemap::loadConfig</text>
</g>
<!-- Node2 -->
<g id="node2" class="node"><title>Node2</title>
<g id="a_node2"><a xlink:href="class_terrain_manager.html#a41fdd66a57990a5fb33d253213fd04e3" target="_top" xlink:title="TerrainManager::getMaxTerrainSize">
<polygon fill="white" stroke="black" points="162,-136.5 162,-155.5 334,-155.5 334,-136.5 162,-136.5"/>
<text text-anchor="middle" x="248" y="-143.5" font-family="Helvetica,sans-Serif" font-size="10.00">TerrainManager::getMaxTerrainSize</text>
</a>
</g>
</g>
<!-- Node1&#45;&gt;Node2 -->
<g id="edge1" class="edge"><title>Node1&#45;&gt;Node2</title>
<path fill="none" stroke="midnightblue" d="M88.3857,-95.5511C108.104,-103.13 136.655,-113.78 162,-122 174.545,-126.069 188.255,-130.112 200.931,-133.689"/>
<polygon fill="midnightblue" stroke="midnightblue" points="200.261,-137.135 210.833,-136.448 202.14,-130.392 200.261,-137.135"/>
</g>
<!-- Node4 -->
<g id="node4" class="node"><title>Node4</title>
<g id="a_node4"><a xlink:href="struct_error_utils.html#aec73b03c7829838888bbecf9acda1b98" target="_top" xlink:title="ErrorUtils::ShowError">
<polygon fill="white" stroke="black" points="390,-92.5 390,-111.5 500,-111.5 500,-92.5 390,-92.5"/>
<text text-anchor="middle" x="445" y="-99.5" font-family="Helvetica,sans-Serif" font-size="10.00">ErrorUtils::ShowError</text>
</a>
</g>
</g>
<!-- Node1&#45;&gt;Node4 -->
<g id="edge3" class="edge"><title>Node1&#45;&gt;Node4</title>
<path fill="none" stroke="midnightblue" d="M125.899,-88.6063C195.756,-91.5476 308.857,-96.3098 379.69,-99.2922"/>
<polygon fill="midnightblue" stroke="midnightblue" points="379.686,-102.795 389.824,-99.7189 379.98,-95.8012 379.686,-102.795"/>
</g>
<!-- Node6 -->
<g id="node6" class="node"><title>Node6</title>
<g id="a_node6"><a xlink:href="class_collisions.html#a3f2acd0249632458dd92a551210f83a1" target="_top" xlink:title="Collisions::loadGroundModels\lConfigFile">
<polygon fill="white" stroke="black" points="175,-49 175,-79 321,-79 321,-49 175,-49"/>
<text text-anchor="start" x="183" y="-67" font-family="Helvetica,sans-Serif" font-size="10.00">Collisions::loadGroundModels</text>
<text text-anchor="middle" x="248" y="-56" font-family="Helvetica,sans-Serif" font-size="10.00">ConfigFile</text>
</a>
</g>
</g>
<!-- Node1&#45;&gt;Node6 -->
<g id="edge5" class="edge"><title>Node1&#45;&gt;Node6</title>
<path fill="none" stroke="midnightblue" d="M125.7,-78.5825C138.269,-77.0715 151.679,-75.4593 164.83,-73.8784"/>
<polygon fill="midnightblue" stroke="midnightblue" points="165.307,-77.3464 174.817,-72.6777 164.471,-70.3964 165.307,-77.3464"/>
</g>
<!-- Node11 -->
<g id="node11" class="node"><title>Node11</title>
<g id="a_node11"><a xlink:href="class_collisions.html#a7840c7d5b2b56b4cc8f41778c0edb7a7" target="_top" xlink:title="Collisions::getGroundModel\lByString">
<polygon fill="white" stroke="black" points="179.5,-0 179.5,-30 316.5,-30 316.5,-0 179.5,-0"/>
<text text-anchor="start" x="187.5" y="-18" font-family="Helvetica,sans-Serif" font-size="10.00">Collisions::getGroundModel</text>
<text text-anchor="middle" x="248" y="-7" font-family="Helvetica,sans-Serif" font-size="10.00">ByString</text>
</a>
</g>
</g>
<!-- Node1&#45;&gt;Node11 -->
<g id="edge11" class="edge"><title>Node1&#45;&gt;Node11</title>
<path fill="none" stroke="midnightblue" d="M82.062,-76.4992C101.457,-66.5412 133.355,-50.8626 162,-40 168.281,-37.6181 174.893,-35.3214 181.54,-33.15"/>
<polygon fill="midnightblue" stroke="midnightblue" points="182.796,-36.4236 191.269,-30.0631 180.678,-29.7514 182.796,-36.4236"/>
</g>
<!-- Node3 -->
<g id="node3" class="node"><title>Node3</title>
<g id="a_node3"><a xlink:href="class_terrain_geometry_manager.html#afead68b5ff7a0b77395065ab8ea855e3" target="_top" xlink:title="TerrainGeometryManager\l::getMaxTerrainSize">
<polygon fill="white" stroke="black" points="381.5,-131 381.5,-161 508.5,-161 508.5,-131 381.5,-131"/>
<text text-anchor="start" x="389.5" y="-149" font-family="Helvetica,sans-Serif" font-size="10.00">TerrainGeometryManager</text>
<text text-anchor="middle" x="445" y="-138" font-family="Helvetica,sans-Serif" font-size="10.00">::getMaxTerrainSize</text>
</a>
</g>
</g>
<!-- Node2&#45;&gt;Node3 -->
<g id="edge2" class="edge"><title>Node2&#45;&gt;Node3</title>
<path fill="none" stroke="midnightblue" d="M334.246,-146C346.453,-146 358.92,-146 370.866,-146"/>
<polygon fill="midnightblue" stroke="midnightblue" points="371.21,-149.5 381.21,-146 371.21,-142.5 371.21,-149.5"/>
</g>
<!-- Node5 -->
<g id="node5" class="node"><title>Node5</title>
<g id="a_node5"><a xlink:href="struct_error_utils.html#a3250a36825c8b55b26d1565addb7e922" target="_top" xlink:title="ErrorUtils::ShowMsgBox">
<polygon fill="white" stroke="black" points="556.5,-92.5 556.5,-111.5 681.5,-111.5 681.5,-92.5 556.5,-92.5"/>
<text text-anchor="middle" x="619" y="-99.5" font-family="Helvetica,sans-Serif" font-size="10.00">ErrorUtils::ShowMsgBox</text>
</a>
</g>
</g>
<!-- Node4&#45;&gt;Node5 -->
<g id="edge4" class="edge"><title>Node4&#45;&gt;Node5</title>
<path fill="none" stroke="midnightblue" d="M500.422,-102C515.035,-102 531.06,-102 546.45,-102"/>
<polygon fill="midnightblue" stroke="midnightblue" points="546.451,-105.5 556.451,-102 546.451,-98.5001 546.451,-105.5"/>
</g>
<!-- Node6&#45;&gt;Node4 -->
<g id="edge6" class="edge"><title>Node6&#45;&gt;Node4</title>
<path fill="none" stroke="midnightblue" d="M321.057,-78.0418C342.125,-82.1475 364.898,-86.5852 385.051,-90.5125"/>
<polygon fill="midnightblue" stroke="midnightblue" points="384.536,-93.9778 395.02,-92.4553 385.875,-87.1071 384.536,-93.9778"/>
</g>
<!-- Node7 -->
<g id="node7" class="node"><title>Node7</title>
<g id="a_node7"><a xlink:href="class_collisions.html#aaa893c509f9b9b77459d50e3bef2c6ff" target="_top" xlink:title="Collisions::parseGroundConfig">
<polygon fill="white" stroke="black" points="370.5,-54.5 370.5,-73.5 519.5,-73.5 519.5,-54.5 370.5,-54.5"/>
<text text-anchor="middle" x="445" y="-61.5" font-family="Helvetica,sans-Serif" font-size="10.00">Collisions::parseGroundConfig</text>
</a>
</g>
</g>
<!-- Node6&#45;&gt;Node7 -->
<g id="edge7" class="edge"><title>Node6&#45;&gt;Node7</title>
<path fill="none" stroke="midnightblue" d="M321.057,-64C333.727,-64 347.013,-64 359.975,-64"/>
<polygon fill="midnightblue" stroke="midnightblue" points="360.283,-67.5001 370.283,-64 360.283,-60.5001 360.283,-67.5001"/>
</g>
<!-- Node10 -->
<g id="node10" class="node"><title>Node10</title>
<g id="a_node10"><a xlink:href="namespace_profiler.html#af79bb59414ef3ba134213bb6f2f2d292" target="_top" xlink:title="Profiler::exit">
<polygon fill="white" stroke="black" points="410.5,-16.5 410.5,-35.5 479.5,-35.5 479.5,-16.5 410.5,-16.5"/>
<text text-anchor="middle" x="445" y="-23.5" font-family="Helvetica,sans-Serif" font-size="10.00">Profiler::exit</text>
</a>
</g>
</g>
<!-- Node6&#45;&gt;Node10 -->
<g id="edge10" class="edge"><title>Node6&#45;&gt;Node10</title>
<path fill="none" stroke="midnightblue" d="M321.057,-49.9582C347.708,-44.7646 377.086,-39.0397 400.439,-34.4887"/>
<polygon fill="midnightblue" stroke="midnightblue" points="401.237,-37.8992 410.383,-32.551 399.898,-31.0285 401.237,-37.8992"/>
</g>
<!-- Node8 -->
<g id="node8" class="node"><title>Node8</title>
<g id="a_node8"><a xlink:href="scriptstdstring_8cpp.html#ab33d705eee9afd65e8991f82d9c71fe3" target="_top" xlink:title="parseInt">
<polygon fill="white" stroke="black" points="593,-54.5 593,-73.5 645,-73.5 645,-54.5 593,-54.5"/>
<text text-anchor="middle" x="619" y="-61.5" font-family="Helvetica,sans-Serif" font-size="10.00">parseInt</text>
</a>
</g>
</g>
<!-- Node7&#45;&gt;Node8 -->
<g id="edge8" class="edge"><title>Node7&#45;&gt;Node8</title>
<path fill="none" stroke="midnightblue" d="M519.942,-64C541.71,-64 564.53,-64 582.672,-64"/>
<polygon fill="midnightblue" stroke="midnightblue" points="582.771,-67.5001 592.771,-64 582.771,-60.5001 582.771,-67.5001"/>
</g>
<!-- Node9 -->
<g id="node9" class="node"><title>Node9</title>
<g id="a_node9"><a xlink:href="_approx_math_8h.html#ad685178dbcfdd207c7306561512e1582" target="_top" xlink:title="sign">
<polygon fill="white" stroke="black" points="718.5,-54.5 718.5,-73.5 753.5,-73.5 753.5,-54.5 718.5,-54.5"/>
<text text-anchor="middle" x="736" y="-61.5" font-family="Helvetica,sans-Serif" font-size="10.00">sign</text>
</a>
</g>
</g>
<!-- Node8&#45;&gt;Node9 -->
<g id="edge9" class="edge"><title>Node8&#45;&gt;Node9</title>
<path fill="none" stroke="midnightblue" d="M645.237,-64C663.895,-64 689.253,-64 708.258,-64"/>
<polygon fill="midnightblue" stroke="midnightblue" points="708.347,-67.5001 718.347,-64 708.347,-60.5001 708.347,-67.5001"/>
</g>
</g>
</svg>
