<?xml version="1.0" encoding="UTF-8" standalone="no"?>
<!DOCTYPE svg PUBLIC "-//W3C//DTD SVG 1.1//EN"
 "http://www.w3.org/Graphics/SVG/1.1/DTD/svg11.dtd">
<!-- Generated by graphviz version 2.36.0 (20140111.2315)
 -->
<!-- Title: Beam::resetPosition Pages: 1 -->
<!--zoomable 296 -->
<svg id="main" version="1.1" xmlns="http://www.w3.org/2000/svg" xmlns:xlink="http://www.w3.org/1999/xlink" xml:space="preserve" onload="init(evt)">
<style type="text/css"><![CDATA[
.edge:hover path { stroke: red; }
.edge:hover polygon { stroke: red; fill: red; }
]]></style>
<script type="text/javascript"><![CDATA[
var edges = document.getElementsByTagName('g');
if (edges && edges.length) {
  for (var i=0;i<edges.length;i++) {
    if (edges[i].id.substr(0,4)=='edge') {
      edges[i].setAttribute('class','edge');
    }
  }
}
]]></script>
        <defs>
                <circle id="rim" cx="0" cy="0" r="7"/>
                <circle id="rim2" cx="0" cy="0" r="3.5"/>
                <g id="zoomPlus">
                        <use xlink:href="#rim" fill="#404040">
                                <set attributeName="fill" to="#808080" begin="zoomplus.mouseover" end="zoomplus.mouseout"/>
                        </use>
                        <path d="M-4,0h8M0,-4v8" fill="none" stroke="white" stroke-width="1.5" pointer-events="none"/>
                </g>
                <g id="zoomMin">
                        <use xlink:href="#rim" fill="#404040">
                                <set attributeName="fill" to="#808080" begin="zoomminus.mouseover" end="zoomminus.mouseout"/>
                        </use>
                        <path d="M-4,0h8" fill="none" stroke="white" stroke-width="1.5" pointer-events="none"/>
                </g>
                <g id="dirArrow">
                        <path fill="none" stroke="white" stroke-width="1.5" d="M0,-3.0v7 M-2.5,-0.5L0,-3.0L2.5,-0.5"/>
                </g>
               <g id="resetDef">
                       <use xlink:href="#rim2" fill="#404040">
                               <set attributeName="fill" to="#808080" begin="reset.mouseover" end="reset.mouseout"/>
                       </use>
               </g>
        </defs>

<script type="text/javascript">
var viewWidth = 864;
var viewHeight = 296;
var sectionId = 'dynsection-74';
</script>
<script xlink:href="svgpan.js"/>
<svg id="graph" class="graph">
<g id="viewport">
<title>Beam::resetPosition</title>
<polygon fill="white" stroke="none" points="-4,4 -4,-292 860,-292 860,4 -4,4"/>
<!-- Node1 -->
<g id="node1" class="node"><title>Node1</title>
<polygon fill="#bfbfbf" stroke="black" points="0.5,-186.5 0.5,-205.5 105.5,-205.5 105.5,-186.5 0.5,-186.5"/>
<text text-anchor="middle" x="53" y="-193.5" font-family="Helvetica,sans-Serif" font-size="10.00">Beam::resetPosition</text>
</g>
<!-- Node2 -->
<g id="node2" class="node"><title>Node2</title>
<g id="a_node2"><a xlink:href="class_terrain_manager.html#a1d0227a71a4e114099797646ff6756b7" target="_top" xlink:title="TerrainManager::getWater">
<polygon fill="white" stroke="black" points="144,-268.5 144,-287.5 274,-287.5 274,-268.5 144,-268.5"/>
<text text-anchor="middle" x="209" y="-275.5" font-family="Helvetica,sans-Serif" font-size="10.00">TerrainManager::getWater</text>
</a>
</g>
</g>
<!-- Node1&#45;&gt;Node2 -->
<g id="edge1" class="edge"><title>Node1&#45;&gt;Node2</title>
<path fill="none" stroke="midnightblue" d="M64.8784,-205.693C80.7652,-219.384 111.727,-244.346 142,-259 146.709,-261.279 151.742,-263.335 156.851,-265.178"/>
<polygon fill="midnightblue" stroke="midnightblue" points="156.108,-268.62 166.701,-268.46 158.321,-261.979 156.108,-268.62"/>
</g>
<!-- Node3 -->
<g id="node3" class="node"><title>Node3</title>
<g id="a_node3"><a xlink:href="class_i_water.html#ad2499255884025d55a940eb24ecd8e4d" target="_top" xlink:title="IWater::getHeight">
<polygon fill="white" stroke="black" points="162,-230.5 162,-249.5 256,-249.5 256,-230.5 162,-230.5"/>
<text text-anchor="middle" x="209" y="-237.5" font-family="Helvetica,sans-Serif" font-size="10.00">IWater::getHeight</text>
</a>
</g>
</g>
<!-- Node1&#45;&gt;Node3 -->
<g id="edge2" class="edge"><title>Node1&#45;&gt;Node3</title>
<path fill="none" stroke="midnightblue" d="M87.4157,-205.547C110.119,-212.034 140.359,-220.674 164.876,-227.679"/>
<polygon fill="midnightblue" stroke="midnightblue" points="164.073,-231.089 174.65,-230.471 165.996,-224.359 164.073,-231.089"/>
</g>
<!-- Node4 -->
<g id="node4" class="node"><title>Node4</title>
<g id="a_node4"><a xlink:href="class_terrain_manager.html#ae63cfc0dda4ab62dc7f6d72eb7845628" target="_top" xlink:title="TerrainManager::getHeight\lFinder">
<polygon fill="white" stroke="black" points="143,-181 143,-211 275,-211 275,-181 143,-181"/>
<text text-anchor="start" x="151" y="-199" font-family="Helvetica,sans-Serif" font-size="10.00">TerrainManager::getHeight</text>
<text text-anchor="middle" x="209" y="-188" font-family="Helvetica,sans-Serif" font-size="10.00">Finder</text>
</a>
</g>
</g>
<!-- Node1&#45;&gt;Node4 -->
<g id="edge3" class="edge"><title>Node1&#45;&gt;Node4</title>
<path fill="none" stroke="midnightblue" d="M105.708,-196C114.342,-196 123.454,-196 132.537,-196"/>
<polygon fill="midnightblue" stroke="midnightblue" points="132.753,-199.5 142.753,-196 132.753,-192.5 132.753,-199.5"/>
</g>
<!-- Node5 -->
<g id="node5" class="node"><title>Node5</title>
<g id="a_node5"><a xlink:href="class_i_height_finder.html#a5757ec3d639bcffc834540067ec8db2e" target="_top" xlink:title="IHeightFinder::getHeightAt">
<polygon fill="white" stroke="black" points="142.5,-142.5 142.5,-161.5 275.5,-161.5 275.5,-142.5 142.5,-142.5"/>
<text text-anchor="middle" x="209" y="-149.5" font-family="Helvetica,sans-Serif" font-size="10.00">IHeightFinder::getHeightAt</text>
</a>
</g>
</g>
<!-- Node1&#45;&gt;Node5 -->
<g id="edge4" class="edge"><title>Node1&#45;&gt;Node5</title>
<path fill="none" stroke="midnightblue" d="M87.4157,-186.453C110.119,-179.966 140.359,-171.326 164.876,-164.321"/>
<polygon fill="midnightblue" stroke="midnightblue" points="165.996,-167.641 174.65,-161.529 164.073,-160.911 165.996,-167.641"/>
</g>
<!-- Node6 -->
<g id="node6" class="node"><title>Node6</title>
<g id="a_node6"><a xlink:href="class_collisions.html#a265e80a2a5e77dd57ce94ae62c2a11ab" target="_top" xlink:title="Collisions::collisionCorrect">
<polygon fill="white" stroke="black" points="142.5,-104.5 142.5,-123.5 275.5,-123.5 275.5,-104.5 142.5,-104.5"/>
<text text-anchor="middle" x="209" y="-111.5" font-family="Helvetica,sans-Serif" font-size="10.00">Collisions::collisionCorrect</text>
</a>
</g>
</g>
<!-- Node1&#45;&gt;Node6 -->
<g id="edge5" class="edge"><title>Node1&#45;&gt;Node6</title>
<path fill="none" stroke="midnightblue" d="M64.8784,-186.307C80.7652,-172.616 111.727,-147.654 142,-133 146.709,-130.721 151.742,-128.665 156.851,-126.822"/>
<polygon fill="midnightblue" stroke="midnightblue" points="158.321,-130.021 166.701,-123.54 156.108,-123.38 158.321,-130.021"/>
</g>
<!-- Node7 -->
<g id="node7" class="node"><title>Node7</title>
<g id="a_node7"><a xlink:href="class_terrain_manager.html#a41fdd66a57990a5fb33d253213fd04e3" target="_top" xlink:title="TerrainManager::getMaxTerrainSize">
<polygon fill="white" stroke="black" points="312,-208.5 312,-227.5 484,-227.5 484,-208.5 312,-208.5"/>
<text text-anchor="middle" x="398" y="-215.5" font-family="Helvetica,sans-Serif" font-size="10.00">TerrainManager::getMaxTerrainSize</text>
</a>
</g>
</g>
<!-- Node6&#45;&gt;Node7 -->
<g id="edge6" class="edge"><title>Node6&#45;&gt;Node7</title>
<path fill="none" stroke="midnightblue" d="M259.311,-123.529C265.29,-125.994 271.031,-129.096 276,-133 301.358,-152.924 286.375,-176.42 312,-196 316.207,-199.215 320.837,-201.962 325.698,-204.309"/>
<polygon fill="midnightblue" stroke="midnightblue" points="324.706,-207.69 335.281,-208.349 327.426,-201.239 324.706,-207.69"/>
</g>
<!-- Node9 -->
<g id="node9" class="node"><title>Node9</title>
<g id="a_node9"><a xlink:href="class_collisions.html#a4d438eb211fe0953343dc39f478e14e0" target="_top" xlink:title="Collisions::hash_find">
<polygon fill="white" stroke="black" points="344.5,-167.5 344.5,-186.5 451.5,-186.5 451.5,-167.5 344.5,-167.5"/>
<text text-anchor="middle" x="398" y="-174.5" font-family="Helvetica,sans-Serif" font-size="10.00">Collisions::hash_find</text>
</a>
</g>
</g>
<!-- Node6&#45;&gt;Node9 -->
<g id="edge8" class="edge"><title>Node6&#45;&gt;Node9</title>
<path fill="none" stroke="midnightblue" d="M249.701,-123.559C258.518,-126.194 267.705,-129.351 276,-133 293.164,-140.55 294.736,-147.682 312,-155 320.854,-158.753 330.506,-161.992 340.025,-164.743"/>
<polygon fill="midnightblue" stroke="midnightblue" points="339.288,-168.17 349.858,-167.434 341.136,-161.418 339.288,-168.17"/>
</g>
<!-- Node11 -->
<g id="node11" class="node"><title>Node11</title>
<g id="a_node11"><a xlink:href="class_collisions.html#a169c711864e32721fb5daab7d7d01df4" target="_top" xlink:title="Collisions::permitEvent">
<polygon fill="white" stroke="black" points="339,-126.5 339,-145.5 457,-145.5 457,-126.5 339,-126.5"/>
<text text-anchor="middle" x="398" y="-133.5" font-family="Helvetica,sans-Serif" font-size="10.00">Collisions::permitEvent</text>
</a>
</g>
</g>
<!-- Node6&#45;&gt;Node11 -->
<g id="edge10" class="edge"><title>Node6&#45;&gt;Node11</title>
<path fill="none" stroke="midnightblue" d="M275.666,-121.725C292.909,-123.754 311.541,-125.946 328.908,-127.989"/>
<polygon fill="midnightblue" stroke="midnightblue" points="328.626,-131.48 338.967,-129.173 329.444,-124.528 328.626,-131.48"/>
</g>
<!-- Node15 -->
<g id="node15" class="node"><title>Node15</title>
<g id="a_node15"><a xlink:href="class_collisions.html#afab554d00436aa9157c93a4eaecf8d74" target="_top" xlink:title="Collisions::envokeScript\lCallback">
<polygon fill="white" stroke="black" points="337,-77 337,-107 459,-107 459,-77 337,-77"/>
<text text-anchor="start" x="345" y="-95" font-family="Helvetica,sans-Serif" font-size="10.00">Collisions::envokeScript</text>
<text text-anchor="middle" x="398" y="-84" font-family="Helvetica,sans-Serif" font-size="10.00">Callback</text>
</a>
</g>
</g>
<!-- Node6&#45;&gt;Node15 -->
<g id="edge14" class="edge"><title>Node6&#45;&gt;Node15</title>
<path fill="none" stroke="midnightblue" d="M275.666,-106.275C292.138,-104.337 309.877,-102.25 326.57,-100.286"/>
<polygon fill="midnightblue" stroke="midnightblue" points="327.286,-103.726 336.808,-99.0814 326.468,-96.7739 327.286,-103.726"/>
</g>
<!-- Node16 -->
<g id="node16" class="node"><title>Node16</title>
<g id="a_node16"><a xlink:href="class_collisions.html#accb10540c3aa849f57b7fd3b9da2e1c6" target="_top" xlink:title="Collisions::calcCollidedSide">
<polygon fill="white" stroke="black" points="329,-38.5 329,-57.5 467,-57.5 467,-38.5 329,-38.5"/>
<text text-anchor="middle" x="398" y="-45.5" font-family="Helvetica,sans-Serif" font-size="10.00">Collisions::calcCollidedSide</text>
</a>
</g>
</g>
<!-- Node6&#45;&gt;Node16 -->
<g id="edge15" class="edge"><title>Node6&#45;&gt;Node16</title>
<path fill="none" stroke="midnightblue" d="M228.364,-104.417C248.457,-94.2416 281.834,-78.2445 312,-68 320.75,-65.0286 330.152,-62.3384 339.399,-59.9638"/>
<polygon fill="midnightblue" stroke="midnightblue" points="340.464,-63.3061 349.335,-57.5128 338.787,-56.5099 340.464,-63.3061"/>
</g>
<!-- Node17 -->
<g id="node17" class="node"><title>Node17</title>
<g id="a_node17"><a xlink:href="class_collisions.html#ad12c4976773ee3a8034b02fe1cd0212d" target="_top" xlink:title="Collisions::clearEventCache">
<polygon fill="white" stroke="black" points="328,-0.5 328,-19.5 468,-19.5 468,-0.5 328,-0.5"/>
<text text-anchor="middle" x="398" y="-7.5" font-family="Helvetica,sans-Serif" font-size="10.00">Collisions::clearEventCache</text>
</a>
</g>
</g>
<!-- Node6&#45;&gt;Node17 -->
<g id="edge16" class="edge"><title>Node6&#45;&gt;Node17</title>
<path fill="none" stroke="midnightblue" d="M218.492,-104.383C234.77,-86.5836 272.29,-48.5422 312,-29 316.918,-26.5797 322.148,-24.4638 327.502,-22.6148"/>
<polygon fill="midnightblue" stroke="midnightblue" points="328.737,-25.8956 337.234,-19.5664 326.645,-19.2156 328.737,-25.8956"/>
</g>
<!-- Node8 -->
<g id="node8" class="node"><title>Node8</title>
<g id="a_node8"><a xlink:href="class_terrain_geometry_manager.html#afead68b5ff7a0b77395065ab8ea855e3" target="_top" xlink:title="TerrainGeometryManager\l::getMaxTerrainSize">
<polygon fill="white" stroke="black" points="533.5,-207 533.5,-237 660.5,-237 660.5,-207 533.5,-207"/>
<text text-anchor="start" x="541.5" y="-225" font-family="Helvetica,sans-Serif" font-size="10.00">TerrainGeometryManager</text>
<text text-anchor="middle" x="597" y="-214" font-family="Helvetica,sans-Serif" font-size="10.00">::getMaxTerrainSize</text>
</a>
</g>
</g>
<!-- Node7&#45;&gt;Node8 -->
<g id="edge7" class="edge"><title>Node7&#45;&gt;Node8</title>
<path fill="none" stroke="midnightblue" d="M484.261,-219.731C497.308,-219.996 510.67,-220.267 523.409,-220.526"/>
<polygon fill="midnightblue" stroke="midnightblue" points="523.405,-224.027 533.475,-220.73 523.548,-217.028 523.405,-224.027"/>
</g>
<!-- Node10 -->
<g id="node10" class="node"><title>Node10</title>
<g id="a_node10"><a xlink:href="class_collisions.html#a7e21c069d16d661d211d0cb896577edf" target="_top" xlink:title="Collisions::hashfunc">
<polygon fill="white" stroke="black" points="544.5,-168.5 544.5,-187.5 649.5,-187.5 649.5,-168.5 544.5,-168.5"/>
<text text-anchor="middle" x="597" y="-175.5" font-family="Helvetica,sans-Serif" font-size="10.00">Collisions::hashfunc</text>
</a>
</g>
</g>
<!-- Node9&#45;&gt;Node10 -->
<g id="edge9" class="edge"><title>Node9&#45;&gt;Node10</title>
<path fill="none" stroke="midnightblue" d="M451.534,-177.267C476.891,-177.395 507.487,-177.551 533.982,-177.685"/>
<polygon fill="midnightblue" stroke="midnightblue" points="534.277,-181.187 544.295,-177.738 534.313,-174.187 534.277,-181.187"/>
</g>
<!-- Node12 -->
<g id="node12" class="node"><title>Node12</title>
<g id="a_node12"><a xlink:href="class_ro_r_frame_listener.html#a0398db79a92d8178b77e3733abc9a238" target="_top" xlink:title="RoRFrameListener::GetBeam\lFactory">
<polygon fill="white" stroke="black" points="524,-119 524,-149 670,-149 670,-119 524,-119"/>
<text text-anchor="start" x="532" y="-137" font-family="Helvetica,sans-Serif" font-size="10.00">RoRFrameListener::GetBeam</text>
<text text-anchor="middle" x="597" y="-126" font-family="Helvetica,sans-Serif" font-size="10.00">Factory</text>
</a>
</g>
</g>
<!-- Node11&#45;&gt;Node12 -->
<g id="edge11" class="edge"><title>Node11&#45;&gt;Node12</title>
<path fill="none" stroke="midnightblue" d="M457.041,-135.411C474.743,-135.231 494.555,-135.03 513.549,-134.837"/>
<polygon fill="midnightblue" stroke="midnightblue" points="513.729,-138.336 523.693,-134.734 513.658,-131.336 513.729,-138.336"/>
</g>
<!-- Node13 -->
<g id="node13" class="node"><title>Node13</title>
<g id="a_node13"><a xlink:href="class_ro_r_1_1_beam_factory.html#aeb17b3a10c961e56770f7dc87a16625c" target="_top" xlink:title="RoR::BeamFactory::getCurrent\lTruck">
<polygon fill="white" stroke="black" points="520.5,-70 520.5,-100 673.5,-100 673.5,-70 520.5,-70"/>
<text text-anchor="start" x="528.5" y="-88" font-family="Helvetica,sans-Serif" font-size="10.00">RoR::BeamFactory::getCurrent</text>
<text text-anchor="middle" x="597" y="-77" font-family="Helvetica,sans-Serif" font-size="10.00">Truck</text>
</a>
</g>
</g>
<!-- Node11&#45;&gt;Node13 -->
<g id="edge12" class="edge"><title>Node11&#45;&gt;Node13</title>
<path fill="none" stroke="midnightblue" d="M441.016,-126.456C454.745,-123.246 470.048,-119.571 484,-116 500.105,-111.878 517.446,-107.198 533.559,-102.746"/>
<polygon fill="midnightblue" stroke="midnightblue" points="534.711,-106.059 543.41,-100.011 532.838,-99.3138 534.711,-106.059"/>
</g>
<!-- Node14 -->
<g id="node14" class="node"><title>Node14</title>
<g id="a_node14"><a xlink:href="class_ro_r_1_1_beam_factory.html#aadb09a68dc35fad593189242429df218" target="_top" xlink:title="RoR::BeamFactory::getTruck">
<polygon fill="white" stroke="black" points="710,-75.5 710,-94.5 856,-94.5 856,-75.5 710,-75.5"/>
<text text-anchor="middle" x="783" y="-82.5" font-family="Helvetica,sans-Serif" font-size="10.00">RoR::BeamFactory::getTruck</text>
</a>
</g>
</g>
<!-- Node13&#45;&gt;Node14 -->
<g id="edge13" class="edge"><title>Node13&#45;&gt;Node14</title>
<path fill="none" stroke="midnightblue" d="M673.636,-85C682.257,-85 691.075,-85 699.776,-85"/>
<polygon fill="midnightblue" stroke="midnightblue" points="699.916,-88.5001 709.916,-85 699.916,-81.5001 699.916,-88.5001"/>
</g>
</g>
</svg>
        <g id="navigator" transform="translate(0 0)" fill="#404254">
                <rect fill="#f2f5e9" fill-opacity="0.5" stroke="#606060" stroke-width=".5" x="0" y="0" width="60" height="60"/>
                <use id="zoomplus" xlink:href="#zoomPlus" x="17" y="9" onmousedown="handleZoom(evt,'in')"/>
                <use id="zoomminus" xlink:href="#zoomMin" x="42" y="9" onmousedown="handleZoom(evt,'out')"/>
                <use id="reset" xlink:href="#resetDef" x="30" y="36" onmousedown="handleReset()"/>
                <g id="arrowUp" xlink:href="#dirArrow" transform="translate(30 24)" onmousedown="handlePan(0,-1)">
                  <use xlink:href="#rim" fill="#404040">
                        <set attributeName="fill" to="#808080" begin="arrowUp.mouseover" end="arrowUp.mouseout"/>
                  </use>
                  <path fill="none" stroke="white" stroke-width="1.5" d="M0,-3.0v7 M-2.5,-0.5L0,-3.0L2.5,-0.5"/>
                </g>
                <g id="arrowRight" xlink:href="#dirArrow" transform="rotate(90) translate(36 -43)" onmousedown="handlePan(1,0)">
                  <use xlink:href="#rim" fill="#404040">
                        <set attributeName="fill" to="#808080" begin="arrowRight.mouseover" end="arrowRight.mouseout"/>
                  </use>
                  <path fill="none" stroke="white" stroke-width="1.5" d="M0,-3.0v7 M-2.5,-0.5L0,-3.0L2.5,-0.5"/>
                </g>
                <g id="arrowDown" xlink:href="#dirArrow" transform="rotate(180) translate(-30 -48)" onmousedown="handlePan(0,1)">
                  <use xlink:href="#rim" fill="#404040">
                        <set attributeName="fill" to="#808080" begin="arrowDown.mouseover" end="arrowDown.mouseout"/>
                  </use>
                  <path fill="none" stroke="white" stroke-width="1.5" d="M0,-3.0v7 M-2.5,-0.5L0,-3.0L2.5,-0.5"/>
                </g>
                <g id="arrowLeft" xlink:href="#dirArrow" transform="rotate(270) translate(-36 17)" onmousedown="handlePan(-1,0)">
                  <use xlink:href="#rim" fill="#404040">
                        <set attributeName="fill" to="#808080" begin="arrowLeft.mouseover" end="arrowLeft.mouseout"/>
                  </use>
                  <path fill="none" stroke="white" stroke-width="1.5" d="M0,-3.0v7 M-2.5,-0.5L0,-3.0L2.5,-0.5"/>
                </g>
        </g>
        <svg viewBox="0 0 15 15" width="100%" height="30px" preserveAspectRatio="xMaxYMin meet">
         <g id="arrow_out" transform="scale(0.3 0.3)">
          <a xlink:href="class_beam_a45e5bfb79be383f661885fadbeddf105_cgraph_org.svg" target="_base">
           <rect id="button" ry="5" rx="5" y="6" x="6" height="38" width="38"
                fill="#f2f5e9" fill-opacity="0.5" stroke="#606060" stroke-width="1.0"/>
           <path id="arrow"
             d="M 11.500037,31.436501 C 11.940474,20.09759 22.043105,11.32322 32.158766,21.979434 L 37.068811,17.246167 C 37.068811,17.246167 37.088388,32 37.088388,32 L 22.160133,31.978069 C 22.160133,31.978069 26.997745,27.140456 26.997745,27.140456 C 18.528582,18.264221 13.291696,25.230495 11.500037,31.436501 z"
             style="fill:#404040;"/>
          </a>
         </g>
        </svg>
</svg>
