<?xml version="1.0" encoding="UTF-8" standalone="no"?>
<!DOCTYPE svg PUBLIC "-//W3C//DTD SVG 1.1//EN"
 "http://www.w3.org/Graphics/SVG/1.1/DTD/svg11.dtd">
<!-- Generated by graphviz version 2.36.0 (20140111.2315)
 -->
<!-- Title: Beam::resetPosition Pages: 1 -->
<svg width="676pt" height="175pt"
 viewBox="0.00 0.00 676.00 175.00" xmlns="http://www.w3.org/2000/svg" xmlns:xlink="http://www.w3.org/1999/xlink">
<g id="graph0" class="graph" transform="scale(1 1) rotate(0) translate(4 171)">
<title>Beam::resetPosition</title>
<polygon fill="white" stroke="none" points="-4,4 -4,-171 672,-171 672,4 -4,4"/>
<!-- Node1 -->
<g id="node1" class="node"><title>Node1</title>
<polygon fill="#bfbfbf" stroke="black" points="0.5,-71.5 0.5,-90.5 105.5,-90.5 105.5,-71.5 0.5,-71.5"/>
<text text-anchor="middle" x="53" y="-78.5" font-family="Helvetica,sans-Serif" font-size="10.00">Beam::resetPosition</text>
</g>
<!-- Node2 -->
<g id="node2" class="node"><title>Node2</title>
<g id="a_node2"><a xlink:href="class_ro_r_frame_listener.html#abc123f9d1e56e13a72e5f80fdaa5a17e" target="_top" xlink:title="RoRFrameListener::Finalize\lTruckSpawning">
<polygon fill="white" stroke="black" points="149.5,-137 149.5,-167 288.5,-167 288.5,-137 149.5,-137"/>
<text text-anchor="start" x="157.5" y="-155" font-family="Helvetica,sans-Serif" font-size="10.00">RoRFrameListener::Finalize</text>
<text text-anchor="middle" x="219" y="-144" font-family="Helvetica,sans-Serif" font-size="10.00">TruckSpawning</text>
</a>
</g>
</g>
<!-- Node1&#45;&gt;Node2 -->
<g id="edge1" class="edge"><title>Node1&#45;&gt;Node2</title>
<path fill="none" stroke="midnightblue" d="M79.3826,-95.6862C96.6794,-105.338 120.294,-117.83 142,-127 150.317,-130.514 159.31,-133.855 168.099,-136.884"/>
<polygon fill="midnightblue" stroke="midnightblue" points="80.9039,-92.5258 70.4755,-90.6554 77.4614,-98.6208 80.9039,-92.5258"/>
</g>
<!-- Node5 -->
<g id="node5" class="node"><title>Node5</title>
<g id="a_node5"><a xlink:href="class_ro_r_1_1_console.html#a39381023fb19b10edfad9592ce2e1554" target="_top" xlink:title="RoR::Console::eventCommand\lAccept">
<polygon fill="white" stroke="black" points="142,-88 142,-118 296,-118 296,-88 142,-88"/>
<text text-anchor="start" x="150" y="-106" font-family="Helvetica,sans-Serif" font-size="10.00">RoR::Console::eventCommand</text>
<text text-anchor="middle" x="219" y="-95" font-family="Helvetica,sans-Serif" font-size="10.00">Accept</text>
</a>
</g>
</g>
<!-- Node1&#45;&gt;Node5 -->
<g id="edge4" class="edge"><title>Node1&#45;&gt;Node5</title>
<path fill="none" stroke="midnightblue" d="M116.021,-89.3198C124.469,-90.4532 133.219,-91.627 141.881,-92.7889"/>
<polygon fill="midnightblue" stroke="midnightblue" points="116.267,-85.8216 105.891,-87.9609 115.336,-92.7595 116.267,-85.8216"/>
</g>
<!-- Node7 -->
<g id="node7" class="node"><title>Node7</title>
<g id="a_node7"><a xlink:href="class_beam.html#ab0cbc6c4e3822fc5786af2c8036f7efb" target="_top" xlink:title="Beam::LoadTruck">
<polygon fill="white" stroke="black" points="172,-49.5 172,-68.5 266,-68.5 266,-49.5 172,-49.5"/>
<text text-anchor="middle" x="219" y="-56.5" font-family="Helvetica,sans-Serif" font-size="10.00">Beam::LoadTruck</text>
</a>
</g>
</g>
<!-- Node1&#45;&gt;Node7 -->
<g id="edge6" class="edge"><title>Node1&#45;&gt;Node7</title>
<path fill="none" stroke="midnightblue" d="M116.034,-72.6783C134.61,-70.1865 154.64,-67.4995 171.99,-65.1721"/>
<polygon fill="midnightblue" stroke="midnightblue" points="115.336,-69.2405 105.891,-74.0391 116.267,-76.1784 115.336,-69.2405"/>
</g>
<!-- Node9 -->
<g id="node9" class="node"><title>Node9</title>
<g id="a_node9"><a xlink:href="class_ro_r_1_1_beam_factory.html#a508cb7a834236ed7786f780bbe6f84f6" target="_top" xlink:title="RoR::BeamFactory::repair\lTruck">
<polygon fill="white" stroke="black" points="153.5,-0 153.5,-30 284.5,-30 284.5,-0 153.5,-0"/>
<text text-anchor="start" x="161.5" y="-18" font-family="Helvetica,sans-Serif" font-size="10.00">RoR::BeamFactory::repair</text>
<text text-anchor="middle" x="219" y="-7" font-family="Helvetica,sans-Serif" font-size="10.00">Truck</text>
</a>
</g>
</g>
<!-- Node1&#45;&gt;Node9 -->
<g id="edge8" class="edge"><title>Node1&#45;&gt;Node9</title>
<path fill="none" stroke="midnightblue" d="M82.3325,-66.7583C99.4003,-58.4419 121.694,-48.0375 142,-40 150.782,-36.5238 160.261,-33.1304 169.447,-30.0211"/>
<polygon fill="midnightblue" stroke="midnightblue" points="80.3684,-63.824 72.9416,-71.38 83.4594,-70.1046 80.3684,-63.824"/>
</g>
<!-- Node3 -->
<g id="node3" class="node"><title>Node3</title>
<g id="a_node3"><a xlink:href="class_ro_r_frame_listener.html#afec2a0f00ed552c21d22aae76329bf38" target="_top" xlink:title="RoRFrameListener::Update\lInputEvents">
<polygon fill="white" stroke="black" points="332.5,-137 332.5,-167 469.5,-167 469.5,-137 332.5,-137"/>
<text text-anchor="start" x="340.5" y="-155" font-family="Helvetica,sans-Serif" font-size="10.00">RoRFrameListener::Update</text>
<text text-anchor="middle" x="401" y="-144" font-family="Helvetica,sans-Serif" font-size="10.00">InputEvents</text>
</a>
</g>
</g>
<!-- Node2&#45;&gt;Node3 -->
<g id="edge2" class="edge"><title>Node2&#45;&gt;Node3</title>
<path fill="none" stroke="midnightblue" d="M298.729,-152C309.893,-152 321.291,-152 332.222,-152"/>
<polygon fill="midnightblue" stroke="midnightblue" points="298.564,-148.5 288.564,-152 298.564,-155.5 298.564,-148.5"/>
</g>
<!-- Node4 -->
<g id="node4" class="node"><title>Node4</title>
<g id="a_node4"><a xlink:href="class_ro_r_frame_listener.html#acd8647e188fb8e838689492965b86faf" target="_top" xlink:title="RoRFrameListener::frameStarted">
<polygon fill="white" stroke="black" points="506.5,-142.5 506.5,-161.5 667.5,-161.5 667.5,-142.5 506.5,-142.5"/>
<text text-anchor="middle" x="587" y="-149.5" font-family="Helvetica,sans-Serif" font-size="10.00">RoRFrameListener::frameStarted</text>
</a>
</g>
</g>
<!-- Node3&#45;&gt;Node4 -->
<g id="edge3" class="edge"><title>Node3&#45;&gt;Node4</title>
<path fill="none" stroke="midnightblue" d="M479.879,-152C488.608,-152 497.511,-152 506.263,-152"/>
<polygon fill="midnightblue" stroke="midnightblue" points="479.731,-148.5 469.731,-152 479.731,-155.5 479.731,-148.5"/>
</g>
<!-- Node6 -->
<g id="node6" class="node"><title>Node6</title>
<g id="a_node6"><a xlink:href="class_ro_r_1_1_console.html#aba16cfd9f0894eb1312b1bc1155b6646" target="_top" xlink:title="RoR::Console::Console">
<polygon fill="white" stroke="black" points="340.5,-93.5 340.5,-112.5 461.5,-112.5 461.5,-93.5 340.5,-93.5"/>
<text text-anchor="middle" x="401" y="-100.5" font-family="Helvetica,sans-Serif" font-size="10.00">RoR::Console::Console</text>
</a>
</g>
</g>
<!-- Node5&#45;&gt;Node6 -->
<g id="edge5" class="edge"><title>Node5&#45;&gt;Node6</title>
<path fill="none" stroke="midnightblue" d="M306.178,-103C317.721,-103 329.348,-103 340.298,-103"/>
<polygon fill="midnightblue" stroke="midnightblue" points="306.075,-99.5001 296.075,-103 306.075,-106.5 306.075,-99.5001"/>
</g>
<!-- Node8 -->
<g id="node8" class="node"><title>Node8</title>
<g id="a_node8"><a xlink:href="class_beam.html#a0d55b25fa0d1623305f3ac51694cbd42" target="_top" xlink:title="Beam::Beam">
<polygon fill="white" stroke="black" points="364,-49.5 364,-68.5 438,-68.5 438,-49.5 364,-49.5"/>
<text text-anchor="middle" x="401" y="-56.5" font-family="Helvetica,sans-Serif" font-size="10.00">Beam::Beam</text>
</a>
</g>
</g>
<!-- Node7&#45;&gt;Node8 -->
<g id="edge7" class="edge"><title>Node7&#45;&gt;Node8</title>
<path fill="none" stroke="midnightblue" d="M276.588,-59C305.073,-59 338.762,-59 363.738,-59"/>
<polygon fill="midnightblue" stroke="midnightblue" points="276.355,-55.5001 266.354,-59 276.354,-62.5001 276.355,-55.5001"/>
</g>
</g>
</svg>
