<?xml version="1.0" encoding="UTF-8" standalone="no"?>
<!DOCTYPE svg PUBLIC "-//W3C//DTD SVG 1.1//EN"
 "http://www.w3.org/Graphics/SVG/1.1/DTD/svg11.dtd">
<!-- Generated by graphviz version 2.36.0 (20140111.2315)
 -->
<!-- Title: RoRFrameListener::ChangedCurrentVehicle Pages: 1 -->
<!--zoomable 645 -->
<svg id="main" version="1.1" xmlns="http://www.w3.org/2000/svg" xmlns:xlink="http://www.w3.org/1999/xlink" xml:space="preserve" onload="init(evt)">
<style type="text/css"><![CDATA[
.edge:hover path { stroke: red; }
.edge:hover polygon { stroke: red; fill: red; }
]]></style>
<script type="text/javascript"><![CDATA[
var edges = document.getElementsByTagName('g');
if (edges && edges.length) {
  for (var i=0;i<edges.length;i++) {
    if (edges[i].id.substr(0,4)=='edge') {
      edges[i].setAttribute('class','edge');
    }
  }
}
]]></script>
        <defs>
                <circle id="rim" cx="0" cy="0" r="7"/>
                <circle id="rim2" cx="0" cy="0" r="3.5"/>
                <g id="zoomPlus">
                        <use xlink:href="#rim" fill="#404040">
                                <set attributeName="fill" to="#808080" begin="zoomplus.mouseover" end="zoomplus.mouseout"/>
                        </use>
                        <path d="M-4,0h8M0,-4v8" fill="none" stroke="white" stroke-width="1.5" pointer-events="none"/>
                </g>
                <g id="zoomMin">
                        <use xlink:href="#rim" fill="#404040">
                                <set attributeName="fill" to="#808080" begin="zoomminus.mouseover" end="zoomminus.mouseout"/>
                        </use>
                        <path d="M-4,0h8" fill="none" stroke="white" stroke-width="1.5" pointer-events="none"/>
                </g>
                <g id="dirArrow">
                        <path fill="none" stroke="white" stroke-width="1.5" d="M0,-3.0v7 M-2.5,-0.5L0,-3.0L2.5,-0.5"/>
                </g>
               <g id="resetDef">
                       <use xlink:href="#rim2" fill="#404040">
                               <set attributeName="fill" to="#808080" begin="reset.mouseover" end="reset.mouseout"/>
                       </use>
               </g>
        </defs>

<script type="text/javascript">
var viewWidth = 746;
var viewHeight = 645;
var sectionId = 'dynsection-2';
</script>
<script xlink:href="svgpan.js"/>
<svg id="graph" class="graph">
<g id="viewport">
<title>RoRFrameListener::ChangedCurrentVehicle</title>
<polygon fill="white" stroke="none" points="-4,4 -4,-640.6 742,-640.6 742,4 -4,4"/>
<!-- Node1 -->
<g id="node1" class="node"><title>Node1</title>
<polygon fill="#bfbfbf" stroke="black" points="0,-340 0,-370 144,-370 144,-340 0,-340"/>
<text text-anchor="start" x="8" y="-358" font-family="Helvetica,sans-Serif" font-size="10.00">RoRFrameListener::Changed</text>
<text text-anchor="middle" x="72" y="-347" font-family="Helvetica,sans-Serif" font-size="10.00">CurrentVehicle</text>
</g>
<!-- Node2 -->
<g id="node2" class="node"><title>Node2</title>
<g id="a_node2"><a xlink:href="class_dash_board_manager.html#a714e4e5bbf29e1854c06af1993fecebc" target="_top" xlink:title="DashBoardManager::setVisible3d">
<polygon fill="white" stroke="black" points="386,-605.5 386,-624.5 548,-624.5 548,-605.5 386,-605.5"/>
<text text-anchor="middle" x="467" y="-612.5" font-family="Helvetica,sans-Serif" font-size="10.00">DashBoardManager::setVisible3d</text>
</a>
</g>
</g>
<!-- Node1&#45;&gt;Node2 -->
<g id="edge1" class="edge"><title>Node1&#45;&gt;Node2</title>
<path fill="none" stroke="midnightblue" d="M74.3582,-370.123C79.2211,-414.293 100.01,-543.485 180,-599 250.483,-647.917 355.854,-638.17 417.082,-626.611"/>
<polygon fill="midnightblue" stroke="midnightblue" points="418.12,-629.973 427.249,-624.597 416.76,-623.107 418.12,-629.973"/>
</g>
<!-- Node4 -->
<g id="node4" class="node"><title>Node4</title>
<g id="a_node4"><a xlink:href="namespace_ro_r_1_1_app.html#a21686de9300823b37db5f3f8fe992fb1" target="_top" xlink:title="RoR::App::GetOverlayWrapper">
<polygon fill="white" stroke="black" points="186,-570.5 186,-589.5 338,-589.5 338,-570.5 186,-570.5"/>
<text text-anchor="middle" x="262" y="-577.5" font-family="Helvetica,sans-Serif" font-size="10.00">RoR::App::GetOverlayWrapper</text>
</a>
</g>
</g>
<!-- Node1&#45;&gt;Node4 -->
<g id="edge3" class="edge"><title>Node1&#45;&gt;Node4</title>
<path fill="none" stroke="midnightblue" d="M76.3423,-370.113C85.6003,-408.286 115.282,-509.157 180,-560 182.819,-562.215 185.85,-564.188 189.026,-565.946"/>
<polygon fill="midnightblue" stroke="midnightblue" points="187.768,-569.224 198.303,-570.352 190.772,-562.9 187.768,-569.224"/>
</g>
<!-- Node5 -->
<g id="node5" class="node"><title>Node5</title>
<g id="a_node5"><a xlink:href="class_overlay_wrapper.html#a086d876abbbac640d88b09b2bbfe7d0f" target="_top" xlink:title="OverlayWrapper::showDashboard\lOverlays">
<polygon fill="white" stroke="black" points="180,-521 180,-551 344,-551 344,-521 180,-521"/>
<text text-anchor="start" x="188" y="-539" font-family="Helvetica,sans-Serif" font-size="10.00">OverlayWrapper::showDashboard</text>
<text text-anchor="middle" x="262" y="-528" font-family="Helvetica,sans-Serif" font-size="10.00">Overlays</text>
</a>
</g>
</g>
<!-- Node1&#45;&gt;Node5 -->
<g id="edge4" class="edge"><title>Node1&#45;&gt;Node5</title>
<path fill="none" stroke="midnightblue" d="M79.3345,-370.403C92.9775,-401.67 128.158,-472.844 180,-511 182.526,-512.859 185.193,-514.582 187.96,-516.179"/>
<polygon fill="midnightblue" stroke="midnightblue" points="186.59,-519.41 197.086,-520.859 189.785,-513.181 186.59,-519.41"/>
</g>
<!-- Node8 -->
<g id="node8" class="node"><title>Node8</title>
<g id="a_node8"><a xlink:href="class_beam.html#ab4dfeb77091b6ce9a344b1e1d4e964e3" target="_top" xlink:title="Beam::GetGfxActor">
<polygon fill="white" stroke="black" points="210.5,-482.5 210.5,-501.5 313.5,-501.5 313.5,-482.5 210.5,-482.5"/>
<text text-anchor="middle" x="262" y="-489.5" font-family="Helvetica,sans-Serif" font-size="10.00">Beam::GetGfxActor</text>
</a>
</g>
</g>
<!-- Node1&#45;&gt;Node8 -->
<g id="edge8" class="edge"><title>Node1&#45;&gt;Node8</title>
<path fill="none" stroke="midnightblue" d="M82.4847,-370.188C99.0509,-395.399 135.746,-445.711 180,-472 186.336,-475.764 193.352,-478.821 200.528,-481.305"/>
<polygon fill="midnightblue" stroke="midnightblue" points="199.777,-484.736 210.365,-484.348 201.846,-478.049 199.777,-484.736"/>
</g>
<!-- Node9 -->
<g id="node9" class="node"><title>Node9</title>
<g id="a_node9"><a xlink:href="class_ro_r_1_1_gfx_actor.html#a68717bfda17ddc3d4cff8e663c9cf06f" target="_top" xlink:title="RoR::GfxActor::GetVideoCam\lState">
<polygon fill="white" stroke="black" points="187.5,-433 187.5,-463 336.5,-463 336.5,-433 187.5,-433"/>
<text text-anchor="start" x="195.5" y="-451" font-family="Helvetica,sans-Serif" font-size="10.00">RoR::GfxActor::GetVideoCam</text>
<text text-anchor="middle" x="262" y="-440" font-family="Helvetica,sans-Serif" font-size="10.00">State</text>
</a>
</g>
</g>
<!-- Node1&#45;&gt;Node9 -->
<g id="edge9" class="edge"><title>Node1&#45;&gt;Node9</title>
<path fill="none" stroke="midnightblue" d="M92.9785,-370.003C113.803,-385.075 147.83,-408.139 180,-423 185.01,-425.314 190.291,-427.487 195.655,-429.51"/>
<polygon fill="midnightblue" stroke="midnightblue" points="194.765,-432.909 205.36,-432.988 197.127,-426.32 194.765,-432.909"/>
</g>
<!-- Node10 -->
<g id="node10" class="node"><title>Node10</title>
<g id="a_node10"><a xlink:href="class_ro_r_1_1_gfx_actor.html#a380125c9102242d296dc6f12b7468412" target="_top" xlink:title="RoR::GfxActor::SetVideoCam\lState">
<polygon fill="white" stroke="black" points="187.5,-384 187.5,-414 336.5,-414 336.5,-384 187.5,-384"/>
<text text-anchor="start" x="195.5" y="-402" font-family="Helvetica,sans-Serif" font-size="10.00">RoR::GfxActor::SetVideoCam</text>
<text text-anchor="middle" x="262" y="-391" font-family="Helvetica,sans-Serif" font-size="10.00">State</text>
</a>
</g>
</g>
<!-- Node1&#45;&gt;Node10 -->
<g id="edge10" class="edge"><title>Node1&#45;&gt;Node10</title>
<path fill="none" stroke="midnightblue" d="M137.173,-370.019C153.117,-373.751 170.338,-377.781 186.723,-381.616"/>
<polygon fill="midnightblue" stroke="midnightblue" points="186.263,-385.103 196.797,-383.974 187.858,-378.287 186.263,-385.103"/>
</g>
<!-- Node11 -->
<g id="node11" class="node"><title>Node11</title>
<g id="a_node11"><a xlink:href="class_beam.html#a3304824c3e7285047f007c956318de09" target="_top" xlink:title="Beam::prepareInside">
<polygon fill="white" stroke="black" points="208.5,-345.5 208.5,-364.5 315.5,-364.5 315.5,-345.5 208.5,-345.5"/>
<text text-anchor="middle" x="262" y="-352.5" font-family="Helvetica,sans-Serif" font-size="10.00">Beam::prepareInside</text>
</a>
</g>
</g>
<!-- Node1&#45;&gt;Node11 -->
<g id="edge11" class="edge"><title>Node1&#45;&gt;Node11</title>
<path fill="none" stroke="midnightblue" d="M144.075,-355C161.894,-355 180.883,-355 198.263,-355"/>
<polygon fill="midnightblue" stroke="midnightblue" points="198.29,-358.5 208.29,-355 198.29,-351.5 198.29,-358.5"/>
</g>
<!-- Node12 -->
<g id="node12" class="node"><title>Node12</title>
<g id="a_node12"><a xlink:href="class_beam.html#a7d009b83ca5b166efe7c356abfcc3490" target="_top" xlink:title="Beam::getRotation">
<polygon fill="white" stroke="black" points="213,-307.5 213,-326.5 311,-326.5 311,-307.5 213,-307.5"/>
<text text-anchor="middle" x="262" y="-314.5" font-family="Helvetica,sans-Serif" font-size="10.00">Beam::getRotation</text>
</a>
</g>
</g>
<!-- Node1&#45;&gt;Node12 -->
<g id="edge12" class="edge"><title>Node1&#45;&gt;Node12</title>
<path fill="none" stroke="midnightblue" d="M144.075,-340.634C163.818,-336.643 184.999,-332.362 203.835,-328.555"/>
<polygon fill="midnightblue" stroke="midnightblue" points="204.633,-331.964 213.742,-326.552 203.246,-325.103 204.633,-331.964"/>
</g>
<!-- Node13 -->
<g id="node13" class="node"><title>Node13</title>
<g id="a_node13"><a xlink:href="class_character.html#aa761e344c2aa6df9205bfa6bf1d3ea13" target="_top" xlink:title="Character::setBeamCoupling">
<polygon fill="white" stroke="black" points="190.5,-269.5 190.5,-288.5 333.5,-288.5 333.5,-269.5 190.5,-269.5"/>
<text text-anchor="middle" x="262" y="-276.5" font-family="Helvetica,sans-Serif" font-size="10.00">Character::setBeamCoupling</text>
</a>
</g>
</g>
<!-- Node1&#45;&gt;Node13 -->
<g id="edge13" class="edge"><title>Node1&#45;&gt;Node13</title>
<path fill="none" stroke="midnightblue" d="M97.2232,-339.748C118.372,-327.014 150.254,-309.194 180,-298 186.785,-295.447 194.022,-293.164 201.274,-291.145"/>
<polygon fill="midnightblue" stroke="midnightblue" points="202.35,-294.481 211.132,-288.553 200.57,-287.711 202.35,-294.481"/>
</g>
<!-- Node20 -->
<g id="node20" class="node"><title>Node20</title>
<g id="a_node20"><a xlink:href="class_character.html#a305f94b58e7e8b61cc6829e4aba7a060" target="_top" xlink:title="Character::setRotation">
<polygon fill="white" stroke="black" points="204,-231.5 204,-250.5 320,-250.5 320,-231.5 204,-231.5"/>
<text text-anchor="middle" x="262" y="-238.5" font-family="Helvetica,sans-Serif" font-size="10.00">Character::setRotation</text>
</a>
</g>
</g>
<!-- Node1&#45;&gt;Node20 -->
<g id="edge20" class="edge"><title>Node1&#45;&gt;Node20</title>
<path fill="none" stroke="midnightblue" d="M85.5028,-339.94C103.939,-318.756 140.522,-280.464 180,-260 184.532,-257.651 189.357,-255.588 194.307,-253.777"/>
<polygon fill="midnightblue" stroke="midnightblue" points="195.539,-257.056 203.937,-250.597 193.344,-250.409 195.539,-257.056"/>
</g>
<!-- Node21 -->
<g id="node21" class="node"><title>Node21</title>
<g id="a_node21"><a xlink:href="class_character.html#a1884d7f3e305d9b23164fdbf208f1cc6" target="_top" xlink:title="Character::setPosition">
<polygon fill="white" stroke="black" points="205,-193.5 205,-212.5 319,-212.5 319,-193.5 205,-193.5"/>
<text text-anchor="middle" x="262" y="-200.5" font-family="Helvetica,sans-Serif" font-size="10.00">Character::setPosition</text>
</a>
</g>
</g>
<!-- Node1&#45;&gt;Node21 -->
<g id="edge21" class="edge"><title>Node1&#45;&gt;Node21</title>
<path fill="none" stroke="midnightblue" d="M80.6902,-339.903C95.7364,-311.969 131.848,-252.314 180,-222 184.66,-219.066 189.729,-216.585 194.981,-214.486"/>
<polygon fill="midnightblue" stroke="midnightblue" points="196.313,-217.728 204.584,-211.107 193.99,-211.125 196.313,-217.728"/>
</g>
<!-- Node23 -->
<g id="node23" class="node"><title>Node23</title>
<g id="a_node23"><a xlink:href="class_ro_r_1_1_force_feedback.html#a5ad15f0bae3f998c07de438637445f28" target="_top" xlink:title="RoR::ForceFeedback\l::SetEnabled">
<polygon fill="white" stroke="black" points="207,-128 207,-158 317,-158 317,-128 207,-128"/>
<text text-anchor="start" x="215" y="-146" font-family="Helvetica,sans-Serif" font-size="10.00">RoR::ForceFeedback</text>
<text text-anchor="middle" x="262" y="-135" font-family="Helvetica,sans-Serif" font-size="10.00">::SetEnabled</text>
</a>
</g>
</g>
<!-- Node1&#45;&gt;Node23 -->
<g id="edge24" class="edge"><title>Node1&#45;&gt;Node23</title>
<path fill="none" stroke="midnightblue" d="M79.104,-339.846C92.792,-307.482 128.8,-230.762 180,-184 189.183,-175.613 200.401,-168.501 211.526,-162.675"/>
<polygon fill="midnightblue" stroke="midnightblue" points="213.393,-165.656 220.803,-158.084 210.288,-159.382 213.393,-165.656"/>
</g>
<!-- Node25 -->
<g id="node25" class="node"><title>Node25</title>
<g id="a_node25"><a xlink:href="class_camera_manager.html#a737fe1d8d82faf6d9a3981eb713ec82c" target="_top" xlink:title="CameraManager::NotifyVehicle\lChanged">
<polygon fill="white" stroke="black" points="185.5,-61 185.5,-91 338.5,-91 338.5,-61 185.5,-61"/>
<text text-anchor="start" x="193.5" y="-79" font-family="Helvetica,sans-Serif" font-size="10.00">CameraManager::NotifyVehicle</text>
<text text-anchor="middle" x="262" y="-68" font-family="Helvetica,sans-Serif" font-size="10.00">Changed</text>
</a>
</g>
</g>
<!-- Node1&#45;&gt;Node25 -->
<g id="edge26" class="edge"><title>Node1&#45;&gt;Node25</title>
<path fill="none" stroke="midnightblue" d="M76.1966,-339.733C85.4406,-298.929 115.738,-185.848 180,-118 188.425,-109.105 199.153,-101.751 210.023,-95.8188"/>
<polygon fill="midnightblue" stroke="midnightblue" points="211.823,-98.8299 219.14,-91.1676 208.642,-92.5944 211.823,-98.8299"/>
</g>
<!-- Node3 -->
<g id="node3" class="node"><title>Node3</title>
<g id="a_node3"><a xlink:href="class_dash_board.html#a650c134fdce0c84a77d84d2c23bdccbe" target="_top" xlink:title="DashBoard::setVisible">
<polygon fill="white" stroke="black" points="607,-565.5 607,-584.5 721,-584.5 721,-565.5 607,-565.5"/>
<text text-anchor="middle" x="664" y="-572.5" font-family="Helvetica,sans-Serif" font-size="10.00">DashBoard::setVisible</text>
</a>
</g>
</g>
<!-- Node2&#45;&gt;Node3 -->
<g id="edge2" class="edge"><title>Node2&#45;&gt;Node3</title>
<path fill="none" stroke="midnightblue" d="M514.707,-605.419C542.324,-599.754 577.483,-592.542 606.635,-586.562"/>
<polygon fill="midnightblue" stroke="midnightblue" points="607.581,-589.941 616.674,-584.503 606.174,-583.084 607.581,-589.941"/>
</g>
<!-- Node6 -->
<g id="node6" class="node"><title>Node6</title>
<g id="a_node6"><a xlink:href="class_dash_board_manager.html#aab1c20ed732f3e11ea290a2f90be99e0" target="_top" xlink:title="DashBoardManager::wasLoaded">
<polygon fill="white" stroke="black" points="388,-564.5 388,-583.5 546,-583.5 546,-564.5 388,-564.5"/>
<text text-anchor="middle" x="467" y="-571.5" font-family="Helvetica,sans-Serif" font-size="10.00">DashBoardManager::wasLoaded</text>
</a>
</g>
</g>
<!-- Node5&#45;&gt;Node6 -->
<g id="edge5" class="edge"><title>Node5&#45;&gt;Node6</title>
<path fill="none" stroke="midnightblue" d="M343.231,-551.019C363.899,-554.887 385.799,-558.987 405.291,-562.636"/>
<polygon fill="midnightblue" stroke="midnightblue" points="404.772,-566.099 415.245,-564.499 406.06,-559.219 404.772,-566.099"/>
</g>
<!-- Node7 -->
<g id="node7" class="node"><title>Node7</title>
<g id="a_node7"><a xlink:href="class_dash_board_manager.html#a21ffd946b6843df16ca7b3ef704b596a" target="_top" xlink:title="DashBoardManager::setVisible">
<polygon fill="white" stroke="black" points="391,-526.5 391,-545.5 543,-545.5 543,-526.5 391,-526.5"/>
<text text-anchor="middle" x="467" y="-533.5" font-family="Helvetica,sans-Serif" font-size="10.00">DashBoardManager::setVisible</text>
</a>
</g>
</g>
<!-- Node5&#45;&gt;Node7 -->
<g id="edge6" class="edge"><title>Node5&#45;&gt;Node7</title>
<path fill="none" stroke="midnightblue" d="M344.106,-536C356.185,-536 368.666,-536 380.826,-536"/>
<polygon fill="midnightblue" stroke="midnightblue" points="380.949,-539.5 390.949,-536 380.949,-532.5 380.949,-539.5"/>
</g>
<!-- Node7&#45;&gt;Node3 -->
<g id="edge7" class="edge"><title>Node7&#45;&gt;Node3</title>
<path fill="none" stroke="midnightblue" d="M515.702,-545.54C542.834,-550.967 576.998,-557.8 605.592,-563.518"/>
<polygon fill="midnightblue" stroke="midnightblue" points="604.96,-566.961 615.453,-565.491 606.333,-560.097 604.96,-566.961"/>
</g>
<!-- Node14 -->
<g id="node14" class="node"><title>Node14</title>
<g id="a_node14"><a xlink:href="class_character.html#ad78f70dcdb7ed4ccd8e97824f62847e1" target="_top" xlink:title="Character::setPhysicsEnabled">
<polygon fill="white" stroke="black" points="392.5,-353.5 392.5,-372.5 541.5,-372.5 541.5,-353.5 392.5,-353.5"/>
<text text-anchor="middle" x="467" y="-360.5" font-family="Helvetica,sans-Serif" font-size="10.00">Character::setPhysicsEnabled</text>
</a>
</g>
</g>
<!-- Node13&#45;&gt;Node14 -->
<g id="edge14" class="edge"><title>Node13&#45;&gt;Node14</title>
<path fill="none" stroke="midnightblue" d="M324.115,-288.555C331.116,-291.017 337.914,-294.111 344,-298 365.877,-311.978 358.033,-330.164 380,-344 383.325,-346.095 386.85,-347.96 390.5,-349.621"/>
<polygon fill="midnightblue" stroke="midnightblue" points="389.207,-352.874 399.791,-353.345 391.811,-346.376 389.207,-352.874"/>
</g>
<!-- Node15 -->
<g id="node15" class="node"><title>Node15</title>
<g id="a_node15"><a xlink:href="namespace_ro_r_1_1_app.html#a61093e1171e9aa1d2824499b9a6b8e18" target="_top" xlink:title="RoR::App::GetActiveMpState">
<polygon fill="white" stroke="black" points="394,-315.5 394,-334.5 540,-334.5 540,-315.5 394,-315.5"/>
<text text-anchor="middle" x="467" y="-322.5" font-family="Helvetica,sans-Serif" font-size="10.00">RoR::App::GetActiveMpState</text>
</a>
</g>
</g>
<!-- Node13&#45;&gt;Node15 -->
<g id="edge15" class="edge"><title>Node13&#45;&gt;Node15</title>
<path fill="none" stroke="midnightblue" d="M303.859,-288.528C326.319,-293.74 354.684,-300.282 380,-306 390.399,-308.348 401.512,-310.827 412.179,-313.19"/>
<polygon fill="midnightblue" stroke="midnightblue" points="411.712,-316.672 422.232,-315.413 413.223,-309.837 411.712,-316.672"/>
</g>
<!-- Node16 -->
<g id="node16" class="node"><title>Node16</title>
<g id="a_node16"><a xlink:href="class_beam.html#adfe810237f6498de41657429ad35ee38" target="_top" xlink:title="Beam::hasDriverSeat">
<polygon fill="white" stroke="black" points="412,-277.5 412,-296.5 522,-296.5 522,-277.5 412,-277.5"/>
<text text-anchor="middle" x="467" y="-284.5" font-family="Helvetica,sans-Serif" font-size="10.00">Beam::hasDriverSeat</text>
</a>
</g>
</g>
<!-- Node13&#45;&gt;Node16 -->
<g id="edge16" class="edge"><title>Node13&#45;&gt;Node16</title>
<path fill="none" stroke="midnightblue" d="M333.715,-281.787C355.842,-282.659 380.124,-283.616 401.778,-284.469"/>
<polygon fill="midnightblue" stroke="midnightblue" points="401.72,-287.969 411.85,-284.866 401.995,-280.975 401.72,-287.969"/>
</g>
<!-- Node17 -->
<g id="node17" class="node"><title>Node17</title>
<g id="a_node17"><a xlink:href="class_character.html#a9431f9de49989e5bbf7e02810aca1f14" target="_top" xlink:title="Character::setVisible">
<polygon fill="white" stroke="black" points="413,-239.5 413,-258.5 521,-258.5 521,-239.5 413,-239.5"/>
<text text-anchor="middle" x="467" y="-246.5" font-family="Helvetica,sans-Serif" font-size="10.00">Character::setVisible</text>
</a>
</g>
</g>
<!-- Node13&#45;&gt;Node17 -->
<g id="edge17" class="edge"><title>Node13&#45;&gt;Node17</title>
<path fill="none" stroke="midnightblue" d="M327.509,-269.467C351.585,-265.909 378.877,-261.875 402.831,-258.335"/>
<polygon fill="midnightblue" stroke="midnightblue" points="403.492,-261.776 412.873,-256.851 402.469,-254.851 403.492,-261.776"/>
</g>
<!-- Node18 -->
<g id="node18" class="node"><title>Node18</title>
<g id="a_node18"><a xlink:href="class_survey_map_manager.html#a17809f36c8b9291270ced418f222faab" target="_top" xlink:title="SurveyMapManager::getMap\lEntityByName">
<polygon fill="white" stroke="black" points="593,-196 593,-226 735,-226 735,-196 593,-196"/>
<text text-anchor="start" x="601" y="-214" font-family="Helvetica,sans-Serif" font-size="10.00">SurveyMapManager::getMap</text>
<text text-anchor="middle" x="664" y="-203" font-family="Helvetica,sans-Serif" font-size="10.00">EntityByName</text>
</a>
</g>
</g>
<!-- Node17&#45;&gt;Node18 -->
<g id="edge18" class="edge"><title>Node17&#45;&gt;Node18</title>
<path fill="none" stroke="midnightblue" d="M516.955,-239.46C536.905,-235.572 560.495,-230.975 582.832,-226.623"/>
<polygon fill="midnightblue" stroke="midnightblue" points="583.504,-230.058 592.65,-224.709 582.165,-223.187 583.504,-230.058"/>
</g>
<!-- Node19 -->
<g id="node19" class="node"><title>Node19</title>
<g id="a_node19"><a xlink:href="class_survey_map_entity.html#ad3cc1cb8f1e71f876290abb0eb004c05" target="_top" xlink:title="SurveyMapEntity::setVisibility">
<polygon fill="white" stroke="black" points="590,-245.5 590,-264.5 738,-264.5 738,-245.5 590,-245.5"/>
<text text-anchor="middle" x="664" y="-252.5" font-family="Helvetica,sans-Serif" font-size="10.00">SurveyMapEntity::setVisibility</text>
</a>
</g>
</g>
<!-- Node17&#45;&gt;Node19 -->
<g id="edge19" class="edge"><title>Node17&#45;&gt;Node19</title>
<path fill="none" stroke="midnightblue" d="M521.027,-250.632C539.165,-251.19 559.917,-251.828 579.85,-252.442"/>
<polygon fill="midnightblue" stroke="midnightblue" points="579.764,-255.94 589.867,-252.75 579.979,-248.944 579.764,-255.94"/>
</g>
<!-- Node21&#45;&gt;Node18 -->
<g id="edge22" class="edge"><title>Node21&#45;&gt;Node18</title>
<path fill="none" stroke="midnightblue" d="M319.039,-204.121C387.665,-205.493 504.394,-207.828 582.586,-209.392"/>
<polygon fill="midnightblue" stroke="midnightblue" points="582.809,-212.897 592.877,-209.598 582.949,-205.898 582.809,-212.897"/>
</g>
<!-- Node22 -->
<g id="node22" class="node"><title>Node22</title>
<g id="a_node22"><a xlink:href="class_survey_map_entity.html#a781ecb998f41521324088cd3ce66d9ce" target="_top" xlink:title="SurveyMapEntity::setPosition">
<polygon fill="white" stroke="black" points="394,-163.5 394,-182.5 540,-182.5 540,-163.5 394,-163.5"/>
<text text-anchor="middle" x="467" y="-170.5" font-family="Helvetica,sans-Serif" font-size="10.00">SurveyMapEntity::setPosition</text>
</a>
</g>
</g>
<!-- Node21&#45;&gt;Node22 -->
<g id="edge23" class="edge"><title>Node21&#45;&gt;Node22</title>
<path fill="none" stroke="midnightblue" d="M319.008,-194.723C341.394,-191.415 367.502,-187.556 391.452,-184.017"/>
<polygon fill="midnightblue" stroke="midnightblue" points="392.186,-187.447 401.567,-182.522 391.163,-180.522 392.186,-187.447"/>
</g>
<!-- Node24 -->
<g id="node24" class="node"><title>Node24</title>
<g id="a_node24"><a xlink:href="namespace_ro_r_1_1_app.html#a51a0672fc999e4d6da7bc06226c9dd1f" target="_top" xlink:title="RoR::App::GetIoFFbackMasterGain">
<polygon fill="white" stroke="black" points="380.5,-125.5 380.5,-144.5 553.5,-144.5 553.5,-125.5 380.5,-125.5"/>
<text text-anchor="middle" x="467" y="-132.5" font-family="Helvetica,sans-Serif" font-size="10.00">RoR::App::GetIoFFbackMasterGain</text>
</a>
</g>
</g>
<!-- Node23&#45;&gt;Node24 -->
<g id="edge25" class="edge"><title>Node23&#45;&gt;Node24</title>
<path fill="none" stroke="midnightblue" d="M317.134,-140.867C333.485,-140.222 351.951,-139.495 370.172,-138.776"/>
<polygon fill="midnightblue" stroke="midnightblue" points="370.401,-142.27 380.255,-138.379 370.125,-135.276 370.401,-142.27"/>
</g>
<!-- Node26 -->
<g id="node26" class="node"><title>Node26</title>
<g id="a_node26"><a xlink:href="class_camera_manager.html#a6f50a61b22fd1193ec25c5c2dc8f3ae3" target="_top" xlink:title="CameraManager::switchBehavior">
<polygon fill="white" stroke="black" points="386.5,-87.5 386.5,-106.5 547.5,-106.5 547.5,-87.5 386.5,-87.5"/>
<text text-anchor="middle" x="467" y="-94.5" font-family="Helvetica,sans-Serif" font-size="10.00">CameraManager::switchBehavior</text>
</a>
</g>
</g>
<!-- Node25&#45;&gt;Node26 -->
<g id="edge27" class="edge"><title>Node25&#45;&gt;Node26</title>
<path fill="none" stroke="midnightblue" d="M338.59,-83.8196C350.865,-85.0894 363.681,-86.4153 376.254,-87.7159"/>
<polygon fill="midnightblue" stroke="midnightblue" points="375.963,-91.2044 386.27,-88.752 376.683,-84.2415 375.963,-91.2044"/>
</g>
<!-- Node27 -->
<g id="node27" class="node"><title>Node27</title>
<g id="a_node27"><a xlink:href="class_beam.html#a39d38800d5ab3b85b305d94b2c8ea502" target="_top" xlink:title="Beam::GetCameraContext">
<polygon fill="white" stroke="black" points="597.5,-68.5 597.5,-87.5 730.5,-87.5 730.5,-68.5 597.5,-68.5"/>
<text text-anchor="middle" x="664" y="-75.5" font-family="Helvetica,sans-Serif" font-size="10.00">Beam::GetCameraContext</text>
</a>
</g>
</g>
<!-- Node25&#45;&gt;Node27 -->
<g id="edge29" class="edge"><title>Node25&#45;&gt;Node27</title>
<path fill="none" stroke="midnightblue" d="M338.707,-76.3785C409.838,-76.7342 515.721,-77.2636 586.96,-77.6198"/>
<polygon fill="midnightblue" stroke="midnightblue" points="587.194,-81.1209 597.211,-77.6711 587.229,-74.121 587.194,-81.1209"/>
</g>
<!-- Node28 -->
<g id="node28" class="node"><title>Node28</title>
<g id="a_node28"><a xlink:href="class_camera_manager.html#a522774afcf439b4e08bc364259d97062" target="_top" xlink:title="CameraManager::SwitchBehavior\lOnVehicleChange">
<polygon fill="white" stroke="black" points="385.5,-0 385.5,-30 548.5,-30 548.5,-0 385.5,-0"/>
<text text-anchor="start" x="393.5" y="-18" font-family="Helvetica,sans-Serif" font-size="10.00">CameraManager::SwitchBehavior</text>
<text text-anchor="middle" x="467" y="-7" font-family="Helvetica,sans-Serif" font-size="10.00">OnVehicleChange</text>
</a>
</g>
</g>
<!-- Node25&#45;&gt;Node28 -->
<g id="edge30" class="edge"><title>Node25&#45;&gt;Node28</title>
<path fill="none" stroke="midnightblue" d="M312.919,-60.9996C341.08,-52.5374 376.456,-41.9072 406.105,-32.998"/>
<polygon fill="midnightblue" stroke="midnightblue" points="407.352,-36.278 415.921,-30.0482 405.337,-29.5742 407.352,-36.278"/>
</g>
<!-- Node26&#45;&gt;Node27 -->
<g id="edge28" class="edge"><title>Node26&#45;&gt;Node27</title>
<path fill="none" stroke="midnightblue" d="M547.595,-89.2446C560.642,-87.9734 574.131,-86.6591 587.085,-85.3969"/>
<polygon fill="midnightblue" stroke="midnightblue" points="587.727,-88.851 597.34,-84.3976 587.048,-81.884 587.727,-88.851"/>
</g>
</g>
</svg>
        <g id="navigator" transform="translate(0 0)" fill="#404254">
                <rect fill="#f2f5e9" fill-opacity="0.5" stroke="#606060" stroke-width=".5" x="0" y="0" width="60" height="60"/>
                <use id="zoomplus" xlink:href="#zoomPlus" x="17" y="9" onmousedown="handleZoom(evt,'in')"/>
                <use id="zoomminus" xlink:href="#zoomMin" x="42" y="9" onmousedown="handleZoom(evt,'out')"/>
                <use id="reset" xlink:href="#resetDef" x="30" y="36" onmousedown="handleReset()"/>
                <g id="arrowUp" xlink:href="#dirArrow" transform="translate(30 24)" onmousedown="handlePan(0,-1)">
                  <use xlink:href="#rim" fill="#404040">
                        <set attributeName="fill" to="#808080" begin="arrowUp.mouseover" end="arrowUp.mouseout"/>
                  </use>
                  <path fill="none" stroke="white" stroke-width="1.5" d="M0,-3.0v7 M-2.5,-0.5L0,-3.0L2.5,-0.5"/>
                </g>
                <g id="arrowRight" xlink:href="#dirArrow" transform="rotate(90) translate(36 -43)" onmousedown="handlePan(1,0)">
                  <use xlink:href="#rim" fill="#404040">
                        <set attributeName="fill" to="#808080" begin="arrowRight.mouseover" end="arrowRight.mouseout"/>
                  </use>
                  <path fill="none" stroke="white" stroke-width="1.5" d="M0,-3.0v7 M-2.5,-0.5L0,-3.0L2.5,-0.5"/>
                </g>
                <g id="arrowDown" xlink:href="#dirArrow" transform="rotate(180) translate(-30 -48)" onmousedown="handlePan(0,1)">
                  <use xlink:href="#rim" fill="#404040">
                        <set attributeName="fill" to="#808080" begin="arrowDown.mouseover" end="arrowDown.mouseout"/>
                  </use>
                  <path fill="none" stroke="white" stroke-width="1.5" d="M0,-3.0v7 M-2.5,-0.5L0,-3.0L2.5,-0.5"/>
                </g>
                <g id="arrowLeft" xlink:href="#dirArrow" transform="rotate(270) translate(-36 17)" onmousedown="handlePan(-1,0)">
                  <use xlink:href="#rim" fill="#404040">
                        <set attributeName="fill" to="#808080" begin="arrowLeft.mouseover" end="arrowLeft.mouseout"/>
                  </use>
                  <path fill="none" stroke="white" stroke-width="1.5" d="M0,-3.0v7 M-2.5,-0.5L0,-3.0L2.5,-0.5"/>
                </g>
        </g>
        <svg viewBox="0 0 15 15" width="100%" height="30px" preserveAspectRatio="xMaxYMin meet">
         <g id="arrow_out" transform="scale(0.3 0.3)">
          <a xlink:href="class_ro_r_frame_listener_ad309b37d305d55def42d92f17abed557_cgraph_org.svg" target="_base">
           <rect id="button" ry="5" rx="5" y="6" x="6" height="38" width="38"
                fill="#f2f5e9" fill-opacity="0.5" stroke="#606060" stroke-width="1.0"/>
           <path id="arrow"
             d="M 11.500037,31.436501 C 11.940474,20.09759 22.043105,11.32322 32.158766,21.979434 L 37.068811,17.246167 C 37.068811,17.246167 37.088388,32 37.088388,32 L 22.160133,31.978069 C 22.160133,31.978069 26.997745,27.140456 26.997745,27.140456 C 18.528582,18.264221 13.291696,25.230495 11.500037,31.436501 z"
             style="fill:#404040;"/>
          </a>
         </g>
        </svg>
</svg>
