<?xml version="1.0" encoding="UTF-8" standalone="no"?>
<!DOCTYPE svg PUBLIC "-//W3C//DTD SVG 1.1//EN"
 "http://www.w3.org/Graphics/SVG/1.1/DTD/svg11.dtd">
<!-- Generated by graphviz version 2.36.0 (20140111.2315)
 -->
<!-- Title: AeroEngine::setThrottle Pages: 1 -->
<svg width="722pt" height="115pt"
 viewBox="0.00 0.00 722.00 115.00" xmlns="http://www.w3.org/2000/svg" xmlns:xlink="http://www.w3.org/1999/xlink">
<g id="graph0" class="graph" transform="scale(1 1) rotate(0) translate(4 111)">
<title>AeroEngine::setThrottle</title>
<polygon fill="white" stroke="none" points="-4,4 -4,-111 718,-111 718,4 -4,4"/>
<!-- Node1 -->
<g id="node1" class="node"><title>Node1</title>
<polygon fill="#bfbfbf" stroke="black" points="0.5,-60.5 0.5,-79.5 119.5,-79.5 119.5,-60.5 0.5,-60.5"/>
<text text-anchor="middle" x="60" y="-67.5" font-family="Helvetica,sans-Serif" font-size="10.00">AeroEngine::setThrottle</text>
</g>
<!-- Node2 -->
<g id="node2" class="node"><title>Node2</title>
<g id="a_node2"><a xlink:href="struct_ro_r_1_1_aircraft_simulation.html#a3db164bd65ba10630912b8a76537f69f" target="_top" xlink:title="RoR::AircraftSimulation\l::UpdateVehicle">
<polygon fill="white" stroke="black" points="172,-77 172,-107 292,-107 292,-77 172,-77"/>
<text text-anchor="start" x="180" y="-95" font-family="Helvetica,sans-Serif" font-size="10.00">RoR::AircraftSimulation</text>
<text text-anchor="middle" x="232" y="-84" font-family="Helvetica,sans-Serif" font-size="10.00">::UpdateVehicle</text>
</a>
</g>
</g>
<!-- Node1&#45;&gt;Node2 -->
<g id="edge1" class="edge"><title>Node1&#45;&gt;Node2</title>
<path fill="none" stroke="midnightblue" d="M129.564,-78.873C143.56,-80.6843 158.175,-82.5756 171.811,-84.3402"/>
<polygon fill="midnightblue" stroke="midnightblue" points="129.871,-75.3836 119.504,-77.5712 128.972,-82.3257 129.871,-75.3836"/>
</g>
<!-- Node3 -->
<g id="node3" class="node"><title>Node3</title>
<g id="a_node3"><a xlink:href="class_overlay_wrapper.html#a7059a60d3d3e067be79c66247298b56b" target="_top" xlink:title="OverlayWrapper::mouseMoved">
<polygon fill="white" stroke="black" points="156,-38.5 156,-57.5 308,-57.5 308,-38.5 156,-38.5"/>
<text text-anchor="middle" x="232" y="-45.5" font-family="Helvetica,sans-Serif" font-size="10.00">OverlayWrapper::mouseMoved</text>
</a>
</g>
</g>
<!-- Node1&#45;&gt;Node3 -->
<g id="edge2" class="edge"><title>Node1&#45;&gt;Node3</title>
<path fill="none" stroke="midnightblue" d="M129.668,-61.1135C138.789,-59.9331 148.171,-58.719 157.372,-57.5283"/>
<polygon fill="midnightblue" stroke="midnightblue" points="128.972,-57.6743 119.504,-62.4288 129.871,-64.6164 128.972,-57.6743"/>
</g>
<!-- Node4 -->
<g id="node4" class="node"><title>Node4</title>
<g id="a_node4"><a xlink:href="class_g_u_i_input_manager.html#a2f52a8c0b01fca8c55a954bdb7d2ab79" target="_top" xlink:title="GUIInputManager::mouseMoved">
<polygon fill="white" stroke="black" points="347,-76.5 347,-95.5 505,-95.5 505,-76.5 347,-76.5"/>
<text text-anchor="middle" x="426" y="-83.5" font-family="Helvetica,sans-Serif" font-size="10.00">GUIInputManager::mouseMoved</text>
</a>
</g>
</g>
<!-- Node3&#45;&gt;Node4 -->
<g id="edge3" class="edge"><title>Node3&#45;&gt;Node4</title>
<path fill="none" stroke="midnightblue" d="M291.298,-59.5381C318.683,-64.958 350.933,-71.341 376.899,-76.4799"/>
<polygon fill="midnightblue" stroke="midnightblue" points="291.939,-56.0972 281.45,-57.589 290.58,-62.964 291.939,-56.0972"/>
</g>
<!-- Node5 -->
<g id="node5" class="node"><title>Node5</title>
<g id="a_node5"><a xlink:href="class_overlay_wrapper.html#aa0172aafc9f55e431f19a57a0f39da7b" target="_top" xlink:title="OverlayWrapper::mousePressed">
<polygon fill="white" stroke="black" points="347,-38.5 347,-57.5 505,-57.5 505,-38.5 347,-38.5"/>
<text text-anchor="middle" x="426" y="-45.5" font-family="Helvetica,sans-Serif" font-size="10.00">OverlayWrapper::mousePressed</text>
</a>
</g>
</g>
<!-- Node3&#45;&gt;Node5 -->
<g id="edge4" class="edge"><title>Node3&#45;&gt;Node5</title>
<path fill="none" stroke="midnightblue" d="M318.29,-48C327.788,-48 337.427,-48 346.83,-48"/>
<polygon fill="midnightblue" stroke="midnightblue" points="318.057,-44.5001 308.057,-48 318.057,-51.5001 318.057,-44.5001"/>
</g>
<!-- Node7 -->
<g id="node7" class="node"><title>Node7</title>
<g id="a_node7"><a xlink:href="class_overlay_wrapper.html#a813c49ce923d19067d0a656c0d79c610" target="_top" xlink:title="OverlayWrapper::mouseReleased">
<polygon fill="white" stroke="black" points="344,-0.5 344,-19.5 508,-19.5 508,-0.5 344,-0.5"/>
<text text-anchor="middle" x="426" y="-7.5" font-family="Helvetica,sans-Serif" font-size="10.00">OverlayWrapper::mouseReleased</text>
</a>
</g>
</g>
<!-- Node3&#45;&gt;Node7 -->
<g id="edge6" class="edge"><title>Node3&#45;&gt;Node7</title>
<path fill="none" stroke="midnightblue" d="M291.298,-36.4619C318.683,-31.042 350.933,-24.659 376.899,-19.5201"/>
<polygon fill="midnightblue" stroke="midnightblue" points="290.58,-33.036 281.45,-38.411 291.939,-39.9028 290.58,-33.036"/>
</g>
<!-- Node6 -->
<g id="node6" class="node"><title>Node6</title>
<g id="a_node6"><a xlink:href="class_g_u_i_input_manager.html#a2e10c3db1bd7068fc87476ce1cceb7c6" target="_top" xlink:title="GUIInputManager::mousePressed">
<polygon fill="white" stroke="black" points="546.5,-38.5 546.5,-57.5 711.5,-57.5 711.5,-38.5 546.5,-38.5"/>
<text text-anchor="middle" x="629" y="-45.5" font-family="Helvetica,sans-Serif" font-size="10.00">GUIInputManager::mousePressed</text>
</a>
</g>
</g>
<!-- Node5&#45;&gt;Node6 -->
<g id="edge5" class="edge"><title>Node5&#45;&gt;Node6</title>
<path fill="none" stroke="midnightblue" d="M515.462,-48C525.709,-48 536.126,-48 546.277,-48"/>
<polygon fill="midnightblue" stroke="midnightblue" points="515.287,-44.5001 505.287,-48 515.287,-51.5001 515.287,-44.5001"/>
</g>
<!-- Node8 -->
<g id="node8" class="node"><title>Node8</title>
<g id="a_node8"><a xlink:href="class_g_u_i_input_manager.html#a5f096906671c8b2fc404353cb0cc3cf4" target="_top" xlink:title="GUIInputManager::mouseReleased">
<polygon fill="white" stroke="black" points="544,-0.5 544,-19.5 714,-19.5 714,-0.5 544,-0.5"/>
<text text-anchor="middle" x="629" y="-7.5" font-family="Helvetica,sans-Serif" font-size="10.00">GUIInputManager::mouseReleased</text>
</a>
</g>
</g>
<!-- Node7&#45;&gt;Node8 -->
<g id="edge7" class="edge"><title>Node7&#45;&gt;Node8</title>
<path fill="none" stroke="midnightblue" d="M518.176,-10C526.743,-10 535.402,-10 543.9,-10"/>
<polygon fill="midnightblue" stroke="midnightblue" points="518.175,-6.5001 508.175,-10 518.175,-13.5001 518.175,-6.5001"/>
</g>
</g>
</svg>
