<?xml version="1.0" encoding="UTF-8" standalone="no"?>
<!DOCTYPE svg PUBLIC "-//W3C//DTD SVG 1.1//EN"
 "http://www.w3.org/Graphics/SVG/1.1/DTD/svg11.dtd">
<!-- Generated by graphviz version 2.36.0 (20140111.2315)
 -->
<!-- Title: CameraBehaviorOrbit::reset Pages: 1 -->
<svg width="490pt" height="430pt"
 viewBox="0.00 0.00 490.00 430.00" xmlns="http://www.w3.org/2000/svg" xmlns:xlink="http://www.w3.org/1999/xlink">
<g id="graph0" class="graph" transform="scale(1 1) rotate(0) translate(4 426)">
<title>CameraBehaviorOrbit::reset</title>
<polygon fill="white" stroke="none" points="-4,4 -4,-426 486,-426 486,4 -4,4"/>
<!-- Node1 -->
<g id="node1" class="node"><title>Node1</title>
<polygon fill="#bfbfbf" stroke="black" points="0,-98 0,-128 110,-128 110,-98 0,-98"/>
<text text-anchor="start" x="8" y="-116" font-family="Helvetica,sans-Serif" font-size="10.00">CameraBehaviorOrbit</text>
<text text-anchor="middle" x="55" y="-105" font-family="Helvetica,sans-Serif" font-size="10.00">::reset</text>
</g>
<!-- Node2 -->
<g id="node2" class="node"><title>Node2</title>
<g id="a_node2"><a xlink:href="class_camera_behavior_character.html#a28853736d8673066e6b30b03bd6a0973" target="_top" xlink:title="CameraBehaviorCharacter\l::reset">
<polygon fill="white" stroke="black" points="155,-343 155,-373 287,-373 287,-343 155,-343"/>
<text text-anchor="start" x="163" y="-361" font-family="Helvetica,sans-Serif" font-size="10.00">CameraBehaviorCharacter</text>
<text text-anchor="middle" x="221" y="-350" font-family="Helvetica,sans-Serif" font-size="10.00">::reset</text>
</a>
</g>
</g>
<!-- Node1&#45;&gt;Node2 -->
<g id="edge1" class="edge"><title>Node1&#45;&gt;Node2</title>
<path fill="none" stroke="midnightblue" d="M71.9966,-136.897C105.542,-187.01 182.415,-301.851 209.954,-342.993"/>
<polygon fill="midnightblue" stroke="midnightblue" points="74.7301,-134.689 66.2589,-128.326 68.9131,-138.583 74.7301,-134.689"/>
</g>
<!-- Node5 -->
<g id="node5" class="node"><title>Node5</title>
<g id="a_node5"><a xlink:href="class_camera_behavior_orbit.html#ac2fbf5b905645faf54092ef1c081ef55" target="_top" xlink:title="CameraBehaviorOrbit\l::update">
<polygon fill="white" stroke="black" points="166,-196 166,-226 276,-226 276,-196 166,-196"/>
<text text-anchor="start" x="174" y="-214" font-family="Helvetica,sans-Serif" font-size="10.00">CameraBehaviorOrbit</text>
<text text-anchor="middle" x="221" y="-203" font-family="Helvetica,sans-Serif" font-size="10.00">::update</text>
</a>
</g>
</g>
<!-- Node1&#45;&gt;Node5 -->
<g id="edge4" class="edge"><title>Node1&#45;&gt;Node5</title>
<path fill="none" stroke="midnightblue" d="M90.0496,-133.347C121.221,-151.974 166.644,-179.117 194.706,-195.885"/>
<polygon fill="midnightblue" stroke="midnightblue" points="91.6451,-130.223 81.2656,-128.098 88.0544,-136.232 91.6451,-130.223"/>
</g>
<!-- Node10 -->
<g id="node10" class="node"><title>Node10</title>
<g id="a_node10"><a xlink:href="class_camera_behavior_vehicle.html#ae7d045ecadf875c717d7318980228b57" target="_top" xlink:title="CameraBehaviorVehicle\l::reset">
<polygon fill="white" stroke="black" points="160,-98 160,-128 282,-128 282,-98 160,-98"/>
<text text-anchor="start" x="168" y="-116" font-family="Helvetica,sans-Serif" font-size="10.00">CameraBehaviorVehicle</text>
<text text-anchor="middle" x="221" y="-105" font-family="Helvetica,sans-Serif" font-size="10.00">::reset</text>
</a>
</g>
</g>
<!-- Node1&#45;&gt;Node10 -->
<g id="edge9" class="edge"><title>Node1&#45;&gt;Node10</title>
<path fill="none" stroke="midnightblue" d="M120.437,-113C133.457,-113 147.097,-113 159.959,-113"/>
<polygon fill="midnightblue" stroke="midnightblue" points="120.154,-109.5 110.154,-113 120.154,-116.5 120.154,-109.5"/>
</g>
<!-- Node12 -->
<g id="node12" class="node"><title>Node12</title>
<g id="a_node12"><a xlink:href="class_camera_behavior_vehicle_cine_cam.html#a5c9031c9c97c476353f3798484f37fe7" target="_top" xlink:title="CameraBehaviorVehicleCine\lCam::reset">
<polygon fill="white" stroke="black" points="150,-49 150,-79 292,-79 292,-49 150,-49"/>
<text text-anchor="start" x="158" y="-67" font-family="Helvetica,sans-Serif" font-size="10.00">CameraBehaviorVehicleCine</text>
<text text-anchor="middle" x="221" y="-56" font-family="Helvetica,sans-Serif" font-size="10.00">Cam::reset</text>
</a>
</g>
</g>
<!-- Node1&#45;&gt;Node12 -->
<g id="edge11" class="edge"><title>Node1&#45;&gt;Node12</title>
<path fill="none" stroke="midnightblue" d="M116.134,-95.033C133.706,-89.783 152.723,-84.1011 169.623,-79.0516"/>
<polygon fill="midnightblue" stroke="midnightblue" points="115.123,-91.6822 106.544,-97.8986 117.127,-98.3892 115.123,-91.6822"/>
</g>
<!-- Node14 -->
<g id="node14" class="node"><title>Node14</title>
<g id="a_node14"><a xlink:href="class_camera_behavior_vehicle_spline.html#a40f9e100be8f69c825f7ade503ba21ed" target="_top" xlink:title="CameraBehaviorVehicleSpline\l::reset">
<polygon fill="white" stroke="black" points="146.5,-0 146.5,-30 295.5,-30 295.5,-0 146.5,-0"/>
<text text-anchor="start" x="154.5" y="-18" font-family="Helvetica,sans-Serif" font-size="10.00">CameraBehaviorVehicleSpline</text>
<text text-anchor="middle" x="221" y="-7" font-family="Helvetica,sans-Serif" font-size="10.00">::reset</text>
</a>
</g>
</g>
<!-- Node1&#45;&gt;Node14 -->
<g id="edge13" class="edge"><title>Node1&#45;&gt;Node14</title>
<path fill="none" stroke="midnightblue" d="M78.3666,-91.0313C95.6428,-75.061 120.787,-53.8931 146,-40 152.77,-36.2696 160.193,-32.961 167.644,-30.0713"/>
<polygon fill="midnightblue" stroke="midnightblue" points="75.8912,-88.5547 71.0105,-97.9585 80.6902,-93.6508 75.8912,-88.5547"/>
</g>
<!-- Node3 -->
<g id="node3" class="node"><title>Node3</title>
<g id="a_node3"><a xlink:href="class_camera_behavior_character.html#ae8e0c6babfe03eeab9960c9d5b9e359d" target="_top" xlink:title="CameraBehaviorCharacter\l::activate">
<polygon fill="white" stroke="black" points="341,-392 341,-422 473,-422 473,-392 341,-392"/>
<text text-anchor="start" x="349" y="-410" font-family="Helvetica,sans-Serif" font-size="10.00">CameraBehaviorCharacter</text>
<text text-anchor="middle" x="407" y="-399" font-family="Helvetica,sans-Serif" font-size="10.00">::activate</text>
</a>
</g>
</g>
<!-- Node2&#45;&gt;Node3 -->
<g id="edge2" class="edge"><title>Node2&#45;&gt;Node3</title>
<path fill="none" stroke="midnightblue" d="M288.176,-375.623C308.306,-380.984 330.232,-386.823 349.65,-391.994"/>
<polygon fill="midnightblue" stroke="midnightblue" points="289.02,-372.226 278.457,-373.035 287.219,-378.99 289.02,-372.226"/>
</g>
<!-- Node4 -->
<g id="node4" class="node"><title>Node4</title>
<g id="a_node4"><a xlink:href="class_camera_behavior_character.html#a00a59908666721c7fb5dba07a9a1b9d0" target="_top" xlink:title="CameraBehaviorCharacter\l::switchBehavior">
<polygon fill="white" stroke="black" points="341,-343 341,-373 473,-373 473,-343 341,-343"/>
<text text-anchor="start" x="349" y="-361" font-family="Helvetica,sans-Serif" font-size="10.00">CameraBehaviorCharacter</text>
<text text-anchor="middle" x="407" y="-350" font-family="Helvetica,sans-Serif" font-size="10.00">::switchBehavior</text>
</a>
</g>
</g>
<!-- Node2&#45;&gt;Node4 -->
<g id="edge3" class="edge"><title>Node2&#45;&gt;Node4</title>
<path fill="none" stroke="midnightblue" d="M297.509,-358C311.926,-358 326.902,-358 340.957,-358"/>
<polygon fill="midnightblue" stroke="midnightblue" points="297.13,-354.5 287.13,-358 297.13,-361.5 297.13,-354.5"/>
</g>
<!-- Node6 -->
<g id="node6" class="node"><title>Node6</title>
<g id="a_node6"><a xlink:href="class_camera_behavior_character.html#a325a21bfc3a39744a03f9b5c7d4df7ca" target="_top" xlink:title="CameraBehaviorCharacter\l::update">
<polygon fill="white" stroke="black" points="341,-294 341,-324 473,-324 473,-294 341,-294"/>
<text text-anchor="start" x="349" y="-312" font-family="Helvetica,sans-Serif" font-size="10.00">CameraBehaviorCharacter</text>
<text text-anchor="middle" x="407" y="-301" font-family="Helvetica,sans-Serif" font-size="10.00">::update</text>
</a>
</g>
</g>
<!-- Node5&#45;&gt;Node6 -->
<g id="edge5" class="edge"><title>Node5&#45;&gt;Node6</title>
<path fill="none" stroke="midnightblue" d="M249.375,-232.091C270.928,-247.958 302.205,-269.392 332,-284 339.427,-287.642 347.517,-290.967 355.531,-293.921"/>
<polygon fill="midnightblue" stroke="midnightblue" points="251.441,-229.267 241.332,-226.096 247.258,-234.879 251.441,-229.267"/>
</g>
<!-- Node7 -->
<g id="node7" class="node"><title>Node7</title>
<g id="a_node7"><a xlink:href="class_camera_behavior_vehicle.html#ae4defc34198f6a82cfb86ede290d055f" target="_top" xlink:title="CameraBehaviorVehicle\l::update">
<polygon fill="white" stroke="black" points="346,-245 346,-275 468,-275 468,-245 346,-245"/>
<text text-anchor="start" x="354" y="-263" font-family="Helvetica,sans-Serif" font-size="10.00">CameraBehaviorVehicle</text>
<text text-anchor="middle" x="407" y="-252" font-family="Helvetica,sans-Serif" font-size="10.00">::update</text>
</a>
</g>
</g>
<!-- Node5&#45;&gt;Node7 -->
<g id="edge6" class="edge"><title>Node5&#45;&gt;Node7</title>
<path fill="none" stroke="midnightblue" d="M285.886,-228.013C306.625,-233.536 329.471,-239.62 349.622,-244.986"/>
<polygon fill="midnightblue" stroke="midnightblue" points="286.775,-224.628 276.211,-225.437 284.973,-231.392 286.775,-224.628"/>
</g>
<!-- Node8 -->
<g id="node8" class="node"><title>Node8</title>
<g id="a_node8"><a xlink:href="class_camera_behavior_vehicle_cine_cam.html#a55ece9b32ddd311803bf2f7793d29260" target="_top" xlink:title="CameraBehaviorVehicleCine\lCam::update">
<polygon fill="white" stroke="black" points="336,-196 336,-226 478,-226 478,-196 336,-196"/>
<text text-anchor="start" x="344" y="-214" font-family="Helvetica,sans-Serif" font-size="10.00">CameraBehaviorVehicleCine</text>
<text text-anchor="middle" x="407" y="-203" font-family="Helvetica,sans-Serif" font-size="10.00">Cam::update</text>
</a>
</g>
</g>
<!-- Node5&#45;&gt;Node8 -->
<g id="edge7" class="edge"><title>Node5&#45;&gt;Node8</title>
<path fill="none" stroke="midnightblue" d="M286.489,-211C302.429,-211 319.583,-211 335.781,-211"/>
<polygon fill="midnightblue" stroke="midnightblue" points="286.211,-207.5 276.211,-211 286.211,-214.5 286.211,-207.5"/>
</g>
<!-- Node9 -->
<g id="node9" class="node"><title>Node9</title>
<g id="a_node9"><a xlink:href="class_camera_behavior_vehicle_spline.html#ae30aef518419478d4c3ad73879eae6cd" target="_top" xlink:title="CameraBehaviorVehicleSpline\l::update">
<polygon fill="white" stroke="black" points="332.5,-147 332.5,-177 481.5,-177 481.5,-147 332.5,-147"/>
<text text-anchor="start" x="340.5" y="-165" font-family="Helvetica,sans-Serif" font-size="10.00">CameraBehaviorVehicleSpline</text>
<text text-anchor="middle" x="407" y="-154" font-family="Helvetica,sans-Serif" font-size="10.00">::update</text>
</a>
</g>
</g>
<!-- Node5&#45;&gt;Node9 -->
<g id="edge8" class="edge"><title>Node5&#45;&gt;Node9</title>
<path fill="none" stroke="midnightblue" d="M285.886,-193.987C306.625,-188.464 329.471,-182.38 349.622,-177.014"/>
<polygon fill="midnightblue" stroke="midnightblue" points="284.973,-190.608 276.211,-196.563 286.775,-197.372 284.973,-190.608"/>
</g>
<!-- Node11 -->
<g id="node11" class="node"><title>Node11</title>
<g id="a_node11"><a xlink:href="class_camera_behavior_vehicle.html#afa9373e339c7daaa524512dd45944503" target="_top" xlink:title="CameraBehaviorVehicle\l::activate">
<polygon fill="white" stroke="black" points="346,-98 346,-128 468,-128 468,-98 346,-98"/>
<text text-anchor="start" x="354" y="-116" font-family="Helvetica,sans-Serif" font-size="10.00">CameraBehaviorVehicle</text>
<text text-anchor="middle" x="407" y="-105" font-family="Helvetica,sans-Serif" font-size="10.00">::activate</text>
</a>
</g>
</g>
<!-- Node10&#45;&gt;Node11 -->
<g id="edge10" class="edge"><title>Node10&#45;&gt;Node11</title>
<path fill="none" stroke="midnightblue" d="M292.479,-113C310.11,-113 328.858,-113 345.931,-113"/>
<polygon fill="midnightblue" stroke="midnightblue" points="292.249,-109.5 282.248,-113 292.248,-116.5 292.249,-109.5"/>
</g>
<!-- Node13 -->
<g id="node13" class="node"><title>Node13</title>
<g id="a_node13"><a xlink:href="class_camera_behavior_vehicle_cine_cam.html#a21a3912237dcbc89df32a1e393204cc0" target="_top" xlink:title="CameraBehaviorVehicleCine\lCam::activate">
<polygon fill="white" stroke="black" points="336,-49 336,-79 478,-79 478,-49 336,-49"/>
<text text-anchor="start" x="344" y="-67" font-family="Helvetica,sans-Serif" font-size="10.00">CameraBehaviorVehicleCine</text>
<text text-anchor="middle" x="407" y="-56" font-family="Helvetica,sans-Serif" font-size="10.00">Cam::activate</text>
</a>
</g>
</g>
<!-- Node12&#45;&gt;Node13 -->
<g id="edge12" class="edge"><title>Node12&#45;&gt;Node13</title>
<path fill="none" stroke="midnightblue" d="M302.261,-64C313.431,-64 324.836,-64 335.803,-64"/>
<polygon fill="midnightblue" stroke="midnightblue" points="302.087,-60.5001 292.087,-64 302.087,-67.5001 302.087,-60.5001"/>
</g>
<!-- Node15 -->
<g id="node15" class="node"><title>Node15</title>
<g id="a_node15"><a xlink:href="class_camera_behavior_vehicle_spline.html#acde6a5bb0ea7e85846a15ee908e28425" target="_top" xlink:title="CameraBehaviorVehicleSpline\l::activate">
<polygon fill="white" stroke="black" points="332.5,-0 332.5,-30 481.5,-30 481.5,-0 332.5,-0"/>
<text text-anchor="start" x="340.5" y="-18" font-family="Helvetica,sans-Serif" font-size="10.00">CameraBehaviorVehicleSpline</text>
<text text-anchor="middle" x="407" y="-7" font-family="Helvetica,sans-Serif" font-size="10.00">::activate</text>
</a>
</g>
</g>
<!-- Node14&#45;&gt;Node15 -->
<g id="edge14" class="edge"><title>Node14&#45;&gt;Node15</title>
<path fill="none" stroke="midnightblue" d="M305.533,-15C314.462,-15 323.498,-15 332.302,-15"/>
<polygon fill="midnightblue" stroke="midnightblue" points="305.515,-11.5001 295.515,-15 305.515,-18.5001 305.515,-11.5001"/>
</g>
</g>
</svg>
