<?xml version="1.0" encoding="UTF-8" standalone="no"?>
<!DOCTYPE svg PUBLIC "-//W3C//DTD SVG 1.1//EN"
 "http://www.w3.org/Graphics/SVG/1.1/DTD/svg11.dtd">
<!-- Generated by graphviz version 2.36.0 (20140111.2315)
 -->
<!-- Title: Hydrax::Module::SimpleGrid::create Pages: 1 -->
<svg width="500pt" height="87pt"
 viewBox="0.00 0.00 500.00 87.00" xmlns="http://www.w3.org/2000/svg" xmlns:xlink="http://www.w3.org/1999/xlink">
<g id="graph0" class="graph" transform="scale(1 1) rotate(0) translate(4 83)">
<title>Hydrax::Module::SimpleGrid::create</title>
<polygon fill="white" stroke="none" points="-4,4 -4,-83 496,-83 496,4 -4,4"/>
<!-- Node1 -->
<g id="node1" class="node"><title>Node1</title>
<polygon fill="#bfbfbf" stroke="black" points="0,-24 0,-54 140,-54 140,-24 0,-24"/>
<text text-anchor="start" x="8" y="-42" font-family="Helvetica,sans-Serif" font-size="10.00">Hydrax::Module::SimpleGrid</text>
<text text-anchor="middle" x="70" y="-31" font-family="Helvetica,sans-Serif" font-size="10.00">::create</text>
</g>
<!-- Node2 -->
<g id="node2" class="node"><title>Node2</title>
<g id="a_node2"><a xlink:href="class_hydrax_1_1_module_1_1_simple_grid.html#a6b83cb95b2803b068a53bf76afaa9ac4" target="_top" xlink:title="Hydrax::Module::SimpleGrid\l::setOptions">
<polygon fill="white" stroke="black" points="176,-24 176,-54 316,-54 316,-24 176,-24"/>
<text text-anchor="start" x="184" y="-42" font-family="Helvetica,sans-Serif" font-size="10.00">Hydrax::Module::SimpleGrid</text>
<text text-anchor="middle" x="246" y="-31" font-family="Helvetica,sans-Serif" font-size="10.00">::setOptions</text>
</a>
</g>
</g>
<!-- Node1&#45;&gt;Node2 -->
<g id="edge1" class="edge"><title>Node1&#45;&gt;Node2</title>
<path fill="none" stroke="midnightblue" d="M150.035,-39C158.625,-39 167.319,-39 175.779,-39"/>
<polygon fill="midnightblue" stroke="midnightblue" points="150.019,-35.5001 140.019,-39 150.019,-42.5001 150.019,-35.5001"/>
</g>
<!-- Node3 -->
<g id="node3" class="node"><title>Node3</title>
<g id="a_node3"><a xlink:href="class_hydrax_1_1_module_1_1_simple_grid.html#aae091cd103798dcc8f8b92af7dbfccef" target="_top" xlink:title="Hydrax::Module::SimpleGrid\l::SimpleGrid">
<polygon fill="white" stroke="black" points="352,-49 352,-79 492,-79 492,-49 352,-49"/>
<text text-anchor="start" x="360" y="-67" font-family="Helvetica,sans-Serif" font-size="10.00">Hydrax::Module::SimpleGrid</text>
<text text-anchor="middle" x="422" y="-56" font-family="Helvetica,sans-Serif" font-size="10.00">::SimpleGrid</text>
</a>
</g>
</g>
<!-- Node2&#45;&gt;Node3 -->
<g id="edge2" class="edge"><title>Node2&#45;&gt;Node3</title>
<path fill="none" stroke="midnightblue" d="M326.035,-50.3556C334.625,-51.5898 343.319,-52.839 351.779,-54.0545"/>
<polygon fill="midnightblue" stroke="midnightblue" points="326.415,-46.8744 316.019,-48.9166 325.42,-53.8033 326.415,-46.8744"/>
</g>
<!-- Node4 -->
<g id="node4" class="node"><title>Node4</title>
<g id="a_node4"><a xlink:href="class_hydrax_1_1_module_1_1_simple_grid.html#a3741ec1a3df1863e730711fd9d3b14e1" target="_top" xlink:title="Hydrax::Module::SimpleGrid\l::loadCfg">
<polygon fill="white" stroke="black" points="352,-0 352,-30 492,-30 492,-0 352,-0"/>
<text text-anchor="start" x="360" y="-18" font-family="Helvetica,sans-Serif" font-size="10.00">Hydrax::Module::SimpleGrid</text>
<text text-anchor="middle" x="422" y="-7" font-family="Helvetica,sans-Serif" font-size="10.00">::loadCfg</text>
</a>
</g>
</g>
<!-- Node2&#45;&gt;Node4 -->
<g id="edge3" class="edge"><title>Node2&#45;&gt;Node4</title>
<path fill="none" stroke="midnightblue" d="M326.035,-28.0986C334.625,-26.9138 343.319,-25.7146 351.779,-24.5477"/>
<polygon fill="midnightblue" stroke="midnightblue" points="325.447,-24.6465 316.019,-29.4801 326.404,-31.5808 325.447,-24.6465"/>
</g>
</g>
</svg>
