<?xml version="1.0" encoding="UTF-8" standalone="no"?>
<!DOCTYPE svg PUBLIC "-//W3C//DTD SVG 1.1//EN"
 "http://www.w3.org/Graphics/SVG/1.1/DTD/svg11.dtd">
<!-- Generated by graphviz version 2.36.0 (20140111.2315)
 -->
<!-- Title: Hydrax::Noise::Real::getValue Pages: 1 -->
<svg width="560pt" height="38pt"
 viewBox="0.00 0.00 560.00 38.00" xmlns="http://www.w3.org/2000/svg" xmlns:xlink="http://www.w3.org/1999/xlink">
<g id="graph0" class="graph" transform="scale(1 1) rotate(0) translate(4 34)">
<title>Hydrax::Noise::Real::getValue</title>
<polygon fill="white" stroke="none" points="-4,4 -4,-34 556,-34 556,4 -4,4"/>
<!-- Node1 -->
<g id="node1" class="node"><title>Node1</title>
<polygon fill="#bfbfbf" stroke="black" points="0,-0 0,-30 106,-30 106,-0 0,-0"/>
<text text-anchor="start" x="8" y="-18" font-family="Helvetica,sans-Serif" font-size="10.00">Hydrax::Noise::Real</text>
<text text-anchor="middle" x="53" y="-7" font-family="Helvetica,sans-Serif" font-size="10.00">::getValue</text>
</g>
<!-- Node2 -->
<g id="node2" class="node"><title>Node2</title>
<g id="a_node2"><a xlink:href="class_hydrax_1_1_noise_1_1_perlin.html#a64bbe19643e0a87c08c62d0e73d7aac6" target="_top" xlink:title="Hydrax::Noise::Perlin\l::getValue">
<polygon fill="white" stroke="black" points="142,-0 142,-30 252,-30 252,-0 142,-0"/>
<text text-anchor="start" x="150" y="-18" font-family="Helvetica,sans-Serif" font-size="10.00">Hydrax::Noise::Perlin</text>
<text text-anchor="middle" x="197" y="-7" font-family="Helvetica,sans-Serif" font-size="10.00">::getValue</text>
</a>
</g>
</g>
<!-- Node1&#45;&gt;Node2 -->
<g id="edge1" class="edge"><title>Node1&#45;&gt;Node2</title>
<path fill="none" stroke="midnightblue" d="M106.069,-15C114.285,-15 122.866,-15 131.326,-15"/>
<polygon fill="midnightblue" stroke="midnightblue" points="131.553,-18.5001 141.553,-15 131.553,-11.5001 131.553,-18.5001"/>
</g>
<!-- Node3 -->
<g id="node3" class="node"><title>Node3</title>
<g id="a_node3"><a xlink:href="class_hydrax_1_1_noise_1_1_perlin.html#a65e29d30bc42e215b8bf7d86ecd98f0d" target="_top" xlink:title="Hydrax::Noise::Perlin\l::_getHeigthDual">
<polygon fill="white" stroke="black" points="288,-0 288,-30 398,-30 398,-0 288,-0"/>
<text text-anchor="start" x="296" y="-18" font-family="Helvetica,sans-Serif" font-size="10.00">Hydrax::Noise::Perlin</text>
<text text-anchor="middle" x="343" y="-7" font-family="Helvetica,sans-Serif" font-size="10.00">::_getHeigthDual</text>
</a>
</g>
</g>
<!-- Node2&#45;&gt;Node3 -->
<g id="edge2" class="edge"><title>Node2&#45;&gt;Node3</title>
<path fill="none" stroke="midnightblue" d="M252.03,-15C260.314,-15 268.936,-15 277.42,-15"/>
<polygon fill="midnightblue" stroke="midnightblue" points="277.667,-18.5001 287.667,-15 277.667,-11.5001 277.667,-18.5001"/>
</g>
<!-- Node4 -->
<g id="node4" class="node"><title>Node4</title>
<g id="a_node4"><a xlink:href="class_hydrax_1_1_noise_1_1_perlin.html#a9fc3b4c42fc8bcc104f3e480ee0bf967" target="_top" xlink:title="Hydrax::Noise::Perlin\l::_readTexelLinearDual">
<polygon fill="white" stroke="black" points="434.5,-0 434.5,-30 551.5,-30 551.5,-0 434.5,-0"/>
<text text-anchor="start" x="442.5" y="-18" font-family="Helvetica,sans-Serif" font-size="10.00">Hydrax::Noise::Perlin</text>
<text text-anchor="middle" x="493" y="-7" font-family="Helvetica,sans-Serif" font-size="10.00">::_readTexelLinearDual</text>
</a>
</g>
</g>
<!-- Node3&#45;&gt;Node4 -->
<g id="edge3" class="edge"><title>Node3&#45;&gt;Node4</title>
<path fill="none" stroke="midnightblue" d="M398.269,-15C406.689,-15 415.477,-15 424.151,-15"/>
<polygon fill="midnightblue" stroke="midnightblue" points="424.253,-18.5001 434.253,-15 424.253,-11.5001 424.253,-18.5001"/>
</g>
</g>
</svg>
