<?xml version="1.0" encoding="UTF-8" standalone="no"?>
<!DOCTYPE svg PUBLIC "-//W3C//DTD SVG 1.1//EN"
 "http://www.w3.org/Graphics/SVG/1.1/DTD/svg11.dtd">
<!-- Generated by graphviz version 2.36.0 (20140111.2315)
 -->
<!-- Title: MyDialog::OnButReloadControllerInfo Pages: 1 -->
<svg width="522pt" height="28pt"
 viewBox="0.00 0.00 522.00 28.00" xmlns="http://www.w3.org/2000/svg" xmlns:xlink="http://www.w3.org/1999/xlink">
<g id="graph0" class="graph" transform="scale(1 1) rotate(0) translate(4 24)">
<title>MyDialog::OnButReloadControllerInfo</title>
<polygon fill="white" stroke="none" points="-4,4 -4,-24 518,-24 518,4 -4,4"/>
<!-- Node1 -->
<g id="node1" class="node"><title>Node1</title>
<polygon fill="#bfbfbf" stroke="black" points="0.5,-0.5 0.5,-19.5 181.5,-19.5 181.5,-0.5 0.5,-0.5"/>
<text text-anchor="middle" x="91" y="-7.5" font-family="Helvetica,sans-Serif" font-size="10.00">MyDialog::OnButReloadControllerInfo</text>
</g>
<!-- Node2 -->
<g id="node2" class="node"><title>Node2</title>
<g id="a_node2"><a xlink:href="_ro_r_config_8h.html#af10e53a29eea05114ec05f3e2be158fd" target="_top" xlink:title="LoadInputDevicesInfo">
<polygon fill="white" stroke="black" points="218,-0.5 218,-19.5 330,-19.5 330,-0.5 218,-0.5"/>
<text text-anchor="middle" x="274" y="-7.5" font-family="Helvetica,sans-Serif" font-size="10.00">LoadInputDevicesInfo</text>
</a>
</g>
</g>
<!-- Node1&#45;&gt;Node2 -->
<g id="edge1" class="edge"><title>Node1&#45;&gt;Node2</title>
<path fill="none" stroke="midnightblue" d="M181.705,-10C190.426,-10 199.157,-10 207.574,-10"/>
<polygon fill="midnightblue" stroke="midnightblue" points="207.663,-13.5001 217.663,-10 207.663,-6.5001 207.663,-13.5001"/>
</g>
<!-- Node3 -->
<g id="node3" class="node"><title>Node3</title>
<g id="a_node3"><a xlink:href="_system_tools_8cpp.html#a939c12f3bab71f16d654f0aaab45aaf6" target="_top" xlink:title="ComposeVendorMapFilename">
<polygon fill="white" stroke="black" points="366,-0.5 366,-19.5 514,-19.5 514,-0.5 366,-0.5"/>
<text text-anchor="middle" x="440" y="-7.5" font-family="Helvetica,sans-Serif" font-size="10.00">ComposeVendorMapFilename</text>
</a>
</g>
</g>
<!-- Node2&#45;&gt;Node3 -->
<g id="edge2" class="edge"><title>Node2&#45;&gt;Node3</title>
<path fill="none" stroke="midnightblue" d="M330.066,-10C338.292,-10 346.926,-10 355.58,-10"/>
<polygon fill="midnightblue" stroke="midnightblue" points="355.727,-13.5001 365.727,-10 355.727,-6.5001 355.727,-13.5001"/>
</g>
</g>
</svg>
