<?xml version="1.0" encoding="UTF-8" standalone="no"?>
<!DOCTYPE svg PUBLIC "-//W3C//DTD SVG 1.1//EN"
 "http://www.w3.org/Graphics/SVG/1.1/DTD/svg11.dtd">
<!-- Generated by graphviz version 2.36.0 (20140111.2315)
 -->
<!-- Title: Hydrax::Hydrax::getFoamMaxDistance Pages: 1 -->
<svg width="1038pt" height="283pt"
 viewBox="0.00 0.00 1038.00 283.00" xmlns="http://www.w3.org/2000/svg" xmlns:xlink="http://www.w3.org/1999/xlink">
<g id="graph0" class="graph" transform="scale(1 1) rotate(0) translate(4 279)">
<title>Hydrax::Hydrax::getFoamMaxDistance</title>
<polygon fill="white" stroke="none" points="-4,4 -4,-279 1034,-279 1034,4 -4,4"/>
<!-- Node1 -->
<g id="node1" class="node"><title>Node1</title>
<polygon fill="#bfbfbf" stroke="black" points="0.5,-196 0.5,-226 149.5,-226 149.5,-196 0.5,-196"/>
<text text-anchor="start" x="8.5" y="-214" font-family="Helvetica,sans-Serif" font-size="10.00">Hydrax::Hydrax::getFoamMax</text>
<text text-anchor="middle" x="75" y="-203" font-family="Helvetica,sans-Serif" font-size="10.00">Distance</text>
</g>
<!-- Node2 -->
<g id="node2" class="node"><title>Node2</title>
<g id="a_node2"><a xlink:href="class_hydrax_1_1_cfg_file_manager.html#a4397ab1deeabca41d9743e52b295e51d" target="_top" xlink:title="Hydrax::CfgFileManager\l::_getComponentsCfgString">
<polygon fill="white" stroke="black" points="186,-245 186,-275 324,-275 324,-245 186,-245"/>
<text text-anchor="start" x="194" y="-263" font-family="Helvetica,sans-Serif" font-size="10.00">Hydrax::CfgFileManager</text>
<text text-anchor="middle" x="255" y="-252" font-family="Helvetica,sans-Serif" font-size="10.00">::_getComponentsCfgString</text>
</a>
</g>
</g>
<!-- Node1&#45;&gt;Node2 -->
<g id="edge1" class="edge"><title>Node1&#45;&gt;Node2</title>
<path fill="none" stroke="midnightblue" d="M140.738,-228.821C159.957,-234.112 180.81,-239.852 199.323,-244.948"/>
<polygon fill="midnightblue" stroke="midnightblue" points="141.429,-225.381 130.858,-226.101 139.571,-232.13 141.429,-225.381"/>
</g>
<!-- Node4 -->
<g id="node4" class="node"><title>Node4</title>
<g id="a_node4"><a xlink:href="class_hydrax_1_1_material_manager.html#a20f50f4b2b7d133fcc5be5e31d136856" target="_top" xlink:title="Hydrax::MaterialManager\l::_createWaterMaterial">
<polygon fill="white" stroke="black" points="192,-196 192,-226 318,-226 318,-196 192,-196"/>
<text text-anchor="start" x="200" y="-214" font-family="Helvetica,sans-Serif" font-size="10.00">Hydrax::MaterialManager</text>
<text text-anchor="middle" x="255" y="-203" font-family="Helvetica,sans-Serif" font-size="10.00">::_createWaterMaterial</text>
</a>
</g>
</g>
<!-- Node1&#45;&gt;Node4 -->
<g id="edge3" class="edge"><title>Node1&#45;&gt;Node4</title>
<path fill="none" stroke="midnightblue" d="M159.971,-211C170.754,-211 181.635,-211 191.979,-211"/>
<polygon fill="midnightblue" stroke="midnightblue" points="159.684,-207.5 149.684,-211 159.684,-214.5 159.684,-207.5"/>
</g>
<!-- Node6 -->
<g id="node6" class="node"><title>Node6</title>
<g id="a_node6"><a xlink:href="class_hydrax_1_1_material_manager.html#a2961836553f7a30a8baffb9e82f7216e" target="_top" xlink:title="Hydrax::MaterialManager\l::reload">
<polygon fill="white" stroke="black" points="192,-98 192,-128 318,-128 318,-98 192,-98"/>
<text text-anchor="start" x="200" y="-116" font-family="Helvetica,sans-Serif" font-size="10.00">Hydrax::MaterialManager</text>
<text text-anchor="middle" x="255" y="-105" font-family="Helvetica,sans-Serif" font-size="10.00">::reload</text>
</a>
</g>
</g>
<!-- Node1&#45;&gt;Node6 -->
<g id="edge5" class="edge"><title>Node1&#45;&gt;Node6</title>
<path fill="none" stroke="midnightblue" d="M112.522,-190.893C146.365,-172.26 195.959,-144.955 226.546,-128.115"/>
<polygon fill="midnightblue" stroke="midnightblue" points="110.494,-188.013 103.422,-195.902 113.871,-194.145 110.494,-188.013"/>
</g>
<!-- Node3 -->
<g id="node3" class="node"><title>Node3</title>
<g id="a_node3"><a xlink:href="class_hydrax_1_1_cfg_file_manager.html#a5bdea43e50f5a1662e2dc80e68e0d8a6" target="_top" xlink:title="Hydrax::CfgFileManager\l::save">
<polygon fill="white" stroke="black" points="380.5,-245 380.5,-275 503.5,-275 503.5,-245 380.5,-245"/>
<text text-anchor="start" x="388.5" y="-263" font-family="Helvetica,sans-Serif" font-size="10.00">Hydrax::CfgFileManager</text>
<text text-anchor="middle" x="442" y="-252" font-family="Helvetica,sans-Serif" font-size="10.00">::save</text>
</a>
</g>
</g>
<!-- Node2&#45;&gt;Node3 -->
<g id="edge2" class="edge"><title>Node2&#45;&gt;Node3</title>
<path fill="none" stroke="midnightblue" d="M334.157,-260C349.61,-260 365.611,-260 380.377,-260"/>
<polygon fill="midnightblue" stroke="midnightblue" points="334.099,-256.5 324.099,-260 334.099,-263.5 334.099,-256.5"/>
</g>
<!-- Node5 -->
<g id="node5" class="node"><title>Node5</title>
<g id="a_node5"><a xlink:href="class_hydrax_1_1_material_manager.html#a6aa7b0a92b824348577d506f7bcf581b" target="_top" xlink:title="Hydrax::MaterialManager\l::createMaterials">
<polygon fill="white" stroke="black" points="379,-196 379,-226 505,-226 505,-196 379,-196"/>
<text text-anchor="start" x="387" y="-214" font-family="Helvetica,sans-Serif" font-size="10.00">Hydrax::MaterialManager</text>
<text text-anchor="middle" x="442" y="-203" font-family="Helvetica,sans-Serif" font-size="10.00">::createMaterials</text>
</a>
</g>
</g>
<!-- Node4&#45;&gt;Node5 -->
<g id="edge4" class="edge"><title>Node4&#45;&gt;Node5</title>
<path fill="none" stroke="midnightblue" d="M328.344,-211C344.991,-211 362.555,-211 378.732,-211"/>
<polygon fill="midnightblue" stroke="midnightblue" points="328.117,-207.5 318.117,-211 328.117,-214.5 328.117,-207.5"/>
</g>
<!-- Node7 -->
<g id="node7" class="node"><title>Node7</title>
<g id="a_node7"><a xlink:href="class_hydrax_1_1_g_p_u_normal_map_manager.html#a7398a504e11ea902839868d69bcf956b" target="_top" xlink:title="Hydrax::GPUNormalMapManager\l::create">
<polygon fill="white" stroke="black" points="360,-147 360,-177 524,-177 524,-147 360,-147"/>
<text text-anchor="start" x="368" y="-165" font-family="Helvetica,sans-Serif" font-size="10.00">Hydrax::GPUNormalMapManager</text>
<text text-anchor="middle" x="442" y="-154" font-family="Helvetica,sans-Serif" font-size="10.00">::create</text>
</a>
</g>
</g>
<!-- Node6&#45;&gt;Node7 -->
<g id="edge6" class="edge"><title>Node6&#45;&gt;Node7</title>
<path fill="none" stroke="midnightblue" d="M322.535,-130.623C342.775,-135.984 364.82,-141.823 384.344,-146.994"/>
<polygon fill="midnightblue" stroke="midnightblue" points="323.326,-127.212 312.763,-128.035 321.534,-133.978 323.326,-127.212"/>
</g>
<!-- Node12 -->
<g id="node12" class="node"><title>Node12</title>
<g id="a_node12"><a xlink:href="class_hydrax_1_1_rtt_manager.html#abf7d8e05771b9f904efa09fe94ab0907" target="_top" xlink:title="Hydrax::RttManager\l::setTextureSize">
<polygon fill="white" stroke="black" points="389.5,-98 389.5,-128 494.5,-128 494.5,-98 389.5,-98"/>
<text text-anchor="start" x="397.5" y="-116" font-family="Helvetica,sans-Serif" font-size="10.00">Hydrax::RttManager</text>
<text text-anchor="middle" x="442" y="-105" font-family="Helvetica,sans-Serif" font-size="10.00">::setTextureSize</text>
</a>
</g>
</g>
<!-- Node6&#45;&gt;Node12 -->
<g id="edge11" class="edge"><title>Node6&#45;&gt;Node12</title>
<path fill="none" stroke="midnightblue" d="M328.288,-113C348.627,-113 370.336,-113 389.217,-113"/>
<polygon fill="midnightblue" stroke="midnightblue" points="328.117,-109.5 318.117,-113 328.117,-116.5 328.117,-109.5"/>
</g>
<!-- Node15 -->
<g id="node15" class="node"><title>Node15</title>
<g id="a_node15"><a xlink:href="class_hydrax_1_1_rtt_manager.html#ad54dd87efa7baa4a5037faa2e5241738" target="_top" xlink:title="Hydrax::RttManager\l::setTexturesSize">
<polygon fill="white" stroke="black" points="389.5,-49 389.5,-79 494.5,-79 494.5,-49 389.5,-49"/>
<text text-anchor="start" x="397.5" y="-67" font-family="Helvetica,sans-Serif" font-size="10.00">Hydrax::RttManager</text>
<text text-anchor="middle" x="442" y="-56" font-family="Helvetica,sans-Serif" font-size="10.00">::setTexturesSize</text>
</a>
</g>
</g>
<!-- Node6&#45;&gt;Node15 -->
<g id="edge14" class="edge"><title>Node6&#45;&gt;Node15</title>
<path fill="none" stroke="midnightblue" d="M322.685,-95.3375C344.645,-89.5209 368.716,-83.1454 389.38,-77.6724"/>
<polygon fill="midnightblue" stroke="midnightblue" points="321.534,-92.0216 312.763,-97.9654 323.326,-98.7883 321.534,-92.0216"/>
</g>
<!-- Node16 -->
<g id="node16" class="node"><title>Node16</title>
<g id="a_node16"><a xlink:href="class_hydrax_1_1_texture_manager.html#a30bfb59332540e897c43193474b4aa19" target="_top" xlink:title="Hydrax::TextureManager\l::create">
<polygon fill="white" stroke="black" points="379.5,-0 379.5,-30 504.5,-30 504.5,-0 379.5,-0"/>
<text text-anchor="start" x="387.5" y="-18" font-family="Helvetica,sans-Serif" font-size="10.00">Hydrax::TextureManager</text>
<text text-anchor="middle" x="442" y="-7" font-family="Helvetica,sans-Serif" font-size="10.00">::create</text>
</a>
</g>
</g>
<!-- Node6&#45;&gt;Node16 -->
<g id="edge15" class="edge"><title>Node6&#45;&gt;Node16</title>
<path fill="none" stroke="midnightblue" d="M281.035,-91.5661C301.218,-75.2129 330.934,-53.157 360,-39 366.857,-35.6604 374.27,-32.6873 381.731,-30.0695"/>
<polygon fill="midnightblue" stroke="midnightblue" points="278.758,-88.9072 273.262,-97.965 283.207,-94.3115 278.758,-88.9072"/>
</g>
<!-- Node8 -->
<g id="node8" class="node"><title>Node8</title>
<g id="a_node8"><a xlink:href="class_hydrax_1_1_noise_1_1_f_f_t.html#aa8e2b9d2b8307c07be2d2cd9cf115560" target="_top" xlink:title="Hydrax::Noise::FFT\l::createGPUNormalMapResources">
<polygon fill="white" stroke="black" points="560.5,-196 560.5,-226 729.5,-226 729.5,-196 560.5,-196"/>
<text text-anchor="start" x="568.5" y="-214" font-family="Helvetica,sans-Serif" font-size="10.00">Hydrax::Noise::FFT</text>
<text text-anchor="middle" x="645" y="-203" font-family="Helvetica,sans-Serif" font-size="10.00">::createGPUNormalMapResources</text>
</a>
</g>
</g>
<!-- Node7&#45;&gt;Node8 -->
<g id="edge7" class="edge"><title>Node7&#45;&gt;Node8</title>
<path fill="none" stroke="midnightblue" d="M514.391,-179.404C536.626,-184.824 560.942,-190.752 582.444,-195.994"/>
<polygon fill="midnightblue" stroke="midnightblue" points="515.217,-176.003 504.673,-177.035 513.559,-182.804 515.217,-176.003"/>
</g>
<!-- Node11 -->
<g id="node11" class="node"><title>Node11</title>
<g id="a_node11"><a xlink:href="class_hydrax_1_1_noise_1_1_perlin.html#adb347b98692bd7ce6ad7ce76c605d15a" target="_top" xlink:title="Hydrax::Noise::Perlin\l::createGPUNormalMapResources">
<polygon fill="white" stroke="black" points="560.5,-147 560.5,-177 729.5,-177 729.5,-147 560.5,-147"/>
<text text-anchor="start" x="568.5" y="-165" font-family="Helvetica,sans-Serif" font-size="10.00">Hydrax::Noise::Perlin</text>
<text text-anchor="middle" x="645" y="-154" font-family="Helvetica,sans-Serif" font-size="10.00">::createGPUNormalMapResources</text>
</a>
</g>
</g>
<!-- Node7&#45;&gt;Node11 -->
<g id="edge10" class="edge"><title>Node7&#45;&gt;Node11</title>
<path fill="none" stroke="midnightblue" d="M534.269,-162C542.916,-162 551.656,-162 560.228,-162"/>
<polygon fill="midnightblue" stroke="midnightblue" points="534.175,-158.5 524.175,-162 534.175,-165.5 534.175,-158.5"/>
</g>
<!-- Node9 -->
<g id="node9" class="node"><title>Node9</title>
<g id="a_node9"><a xlink:href="class_hydrax_1_1_noise_1_1_f_f_t.html#a1d7ec06eb11cda608cc8f73256c35be5" target="_top" xlink:title="Hydrax::Noise::FFT\l::setOptions">
<polygon fill="white" stroke="black" points="776,-196 776,-226 880,-226 880,-196 776,-196"/>
<text text-anchor="start" x="784" y="-214" font-family="Helvetica,sans-Serif" font-size="10.00">Hydrax::Noise::FFT</text>
<text text-anchor="middle" x="828" y="-203" font-family="Helvetica,sans-Serif" font-size="10.00">::setOptions</text>
</a>
</g>
</g>
<!-- Node8&#45;&gt;Node9 -->
<g id="edge8" class="edge"><title>Node8&#45;&gt;Node9</title>
<path fill="none" stroke="midnightblue" d="M739.966,-211C752.292,-211 764.532,-211 775.77,-211"/>
<polygon fill="midnightblue" stroke="midnightblue" points="739.612,-207.5 729.612,-211 739.612,-214.5 739.612,-207.5"/>
</g>
<!-- Node10 -->
<g id="node10" class="node"><title>Node10</title>
<g id="a_node10"><a xlink:href="class_hydrax_1_1_noise_1_1_f_f_t.html#a64245b9e56eeb8627ac3f5260dc203dd" target="_top" xlink:title="Hydrax::Noise::FFT\l::loadCfg">
<polygon fill="white" stroke="black" points="926,-196 926,-226 1030,-226 1030,-196 926,-196"/>
<text text-anchor="start" x="934" y="-214" font-family="Helvetica,sans-Serif" font-size="10.00">Hydrax::Noise::FFT</text>
<text text-anchor="middle" x="978" y="-203" font-family="Helvetica,sans-Serif" font-size="10.00">::loadCfg</text>
</a>
</g>
</g>
<!-- Node9&#45;&gt;Node10 -->
<g id="edge9" class="edge"><title>Node9&#45;&gt;Node10</title>
<path fill="none" stroke="midnightblue" d="M890.507,-211C902.23,-211 914.382,-211 925.743,-211"/>
<polygon fill="midnightblue" stroke="midnightblue" points="890.348,-207.5 880.348,-211 890.348,-214.5 890.348,-207.5"/>
</g>
<!-- Node13 -->
<g id="node13" class="node"><title>Node13</title>
<g id="a_node13"><a xlink:href="class_hydrax_1_1_cfg_file_manager.html#ae2a1a0accf942e528f6ba8a041a674e6" target="_top" xlink:title="Hydrax::CfgFileManager\l::_loadRttSettings">
<polygon fill="white" stroke="black" points="583.5,-98 583.5,-128 706.5,-128 706.5,-98 583.5,-98"/>
<text text-anchor="start" x="591.5" y="-116" font-family="Helvetica,sans-Serif" font-size="10.00">Hydrax::CfgFileManager</text>
<text text-anchor="middle" x="645" y="-105" font-family="Helvetica,sans-Serif" font-size="10.00">::_loadRttSettings</text>
</a>
</g>
</g>
<!-- Node12&#45;&gt;Node13 -->
<g id="edge12" class="edge"><title>Node12&#45;&gt;Node13</title>
<path fill="none" stroke="midnightblue" d="M504.604,-113C529.617,-113 558.431,-113 583.347,-113"/>
<polygon fill="midnightblue" stroke="midnightblue" points="504.502,-109.5 494.501,-113 504.501,-116.5 504.502,-109.5"/>
</g>
<!-- Node14 -->
<g id="node14" class="node"><title>Node14</title>
<g id="a_node14"><a xlink:href="class_hydrax_1_1_cfg_file_manager.html#a7d283a6b6b61ad70292c7cb24cd3543c" target="_top" xlink:title="Hydrax::CfgFileManager\l::load">
<polygon fill="white" stroke="black" points="766.5,-98 766.5,-128 889.5,-128 889.5,-98 766.5,-98"/>
<text text-anchor="start" x="774.5" y="-116" font-family="Helvetica,sans-Serif" font-size="10.00">Hydrax::CfgFileManager</text>
<text text-anchor="middle" x="828" y="-105" font-family="Helvetica,sans-Serif" font-size="10.00">::load</text>
</a>
</g>
</g>
<!-- Node13&#45;&gt;Node14 -->
<g id="edge13" class="edge"><title>Node13&#45;&gt;Node14</title>
<path fill="none" stroke="midnightblue" d="M716.591,-113C732.985,-113 750.297,-113 766.227,-113"/>
<polygon fill="midnightblue" stroke="midnightblue" points="716.522,-109.5 706.522,-113 716.522,-116.5 716.522,-109.5"/>
</g>
</g>
</svg>
