<?xml version="1.0" encoding="UTF-8" standalone="no"?>
<!DOCTYPE svg PUBLIC "-//W3C//DTD SVG 1.1//EN"
 "http://www.w3.org/Graphics/SVG/1.1/DTD/svg11.dtd">
<!-- Generated by graphviz version 2.36.0 (20140111.2315)
 -->
<!-- Title: DepthOfFieldEffect::DepthOfFieldEffect Pages: 1 -->
<svg width="480pt" height="156pt"
 viewBox="0.00 0.00 480.00 155.93" xmlns="http://www.w3.org/2000/svg" xmlns:xlink="http://www.w3.org/1999/xlink">
<g id="graph0" class="graph" transform="scale(1 1) rotate(0) translate(4 151.933)">
<title>DepthOfFieldEffect::DepthOfFieldEffect</title>
<polygon fill="white" stroke="none" points="-4,4 -4,-151.933 476,-151.933 476,4 -4,4"/>
<!-- Node1 -->
<g id="node1" class="node"><title>Node1</title>
<polygon fill="#bfbfbf" stroke="black" points="0.5,-73 0.5,-103 107.5,-103 107.5,-73 0.5,-73"/>
<text text-anchor="start" x="8.5" y="-91" font-family="Helvetica,sans-Serif" font-size="10.00">DepthOfFieldEffect</text>
<text text-anchor="middle" x="54" y="-80" font-family="Helvetica,sans-Serif" font-size="10.00">::DepthOfFieldEffect</text>
</g>
<!-- Node2 -->
<g id="node2" class="node"><title>Node2</title>
<g id="a_node2"><a xlink:href="namespace_ro_r_1_1_app.html#ab0161218de3dc36879f3e69b84238eba" target="_top" xlink:title="RoR::App::GetOgreSubsystem">
<polygon fill="white" stroke="black" points="320,-76.5 320,-95.5 472,-95.5 472,-76.5 320,-76.5"/>
<text text-anchor="middle" x="396" y="-83.5" font-family="Helvetica,sans-Serif" font-size="10.00">RoR::App::GetOgreSubsystem</text>
</a>
</g>
</g>
<!-- Node1&#45;&gt;Node2 -->
<g id="edge1" class="edge"><title>Node1&#45;&gt;Node2</title>
<path fill="none" stroke="midnightblue" d="M75.307,-103.095C92.5728,-114.931 118.546,-130.456 144,-137 204.263,-152.493 223.215,-150.296 284,-137 315.582,-130.092 348.911,-113.327 370.708,-100.894"/>
<polygon fill="midnightblue" stroke="midnightblue" points="372.717,-103.773 379.584,-95.7044 369.184,-97.7301 372.717,-103.773"/>
</g>
<!-- Node3 -->
<g id="node3" class="node"><title>Node3</title>
<g id="a_node3"><a xlink:href="class_ro_r_1_1_ogre_subsystem.html#a6620196f431b09d0096516d214563fc7" target="_top" xlink:title="RoR::OgreSubsystem\l::GetViewport">
<polygon fill="white" stroke="black" points="157.5,-98 157.5,-128 270.5,-128 270.5,-98 157.5,-98"/>
<text text-anchor="start" x="165.5" y="-116" font-family="Helvetica,sans-Serif" font-size="10.00">RoR::OgreSubsystem</text>
<text text-anchor="middle" x="214" y="-105" font-family="Helvetica,sans-Serif" font-size="10.00">::GetViewport</text>
</a>
</g>
</g>
<!-- Node1&#45;&gt;Node3 -->
<g id="edge2" class="edge"><title>Node1&#45;&gt;Node3</title>
<path fill="none" stroke="midnightblue" d="M107.612,-96.3246C120.345,-98.3394 134.112,-100.518 147.362,-102.614"/>
<polygon fill="midnightblue" stroke="midnightblue" points="146.944,-106.092 157.368,-104.197 148.038,-99.1776 146.944,-106.092"/>
</g>
<!-- Node4 -->
<g id="node4" class="node"><title>Node4</title>
<g id="a_node4"><a xlink:href="class_depth_of_field_effect.html#a7106ef6ccb7e75f65d16912a1a9fd648" target="_top" xlink:title="DepthOfFieldEffect\l::createDepthRenderTexture">
<polygon fill="white" stroke="black" points="144,-49 144,-79 284,-79 284,-49 144,-49"/>
<text text-anchor="start" x="152" y="-67" font-family="Helvetica,sans-Serif" font-size="10.00">DepthOfFieldEffect</text>
<text text-anchor="middle" x="214" y="-56" font-family="Helvetica,sans-Serif" font-size="10.00">::createDepthRenderTexture</text>
</a>
</g>
</g>
<!-- Node1&#45;&gt;Node4 -->
<g id="edge3" class="edge"><title>Node1&#45;&gt;Node4</title>
<path fill="none" stroke="midnightblue" d="M107.612,-80.0083C116.026,-78.7303 124.891,-77.3837 133.76,-76.0365"/>
<polygon fill="midnightblue" stroke="midnightblue" points="134.39,-79.481 143.751,-74.5188 133.339,-72.5604 134.39,-79.481"/>
</g>
<!-- Node5 -->
<g id="node5" class="node"><title>Node5</title>
<g id="a_node5"><a xlink:href="class_depth_of_field_effect.html#adad1694b29083a180b258589557dc6fd" target="_top" xlink:title="DepthOfFieldEffect\l::addCompositor">
<polygon fill="white" stroke="black" points="163.5,-0 163.5,-30 264.5,-30 264.5,-0 163.5,-0"/>
<text text-anchor="start" x="171.5" y="-18" font-family="Helvetica,sans-Serif" font-size="10.00">DepthOfFieldEffect</text>
<text text-anchor="middle" x="214" y="-7" font-family="Helvetica,sans-Serif" font-size="10.00">::addCompositor</text>
</a>
</g>
</g>
<!-- Node1&#45;&gt;Node5 -->
<g id="edge4" class="edge"><title>Node1&#45;&gt;Node5</title>
<path fill="none" stroke="midnightblue" d="M80.5858,-72.9001C98.1048,-62.8869 122.05,-49.8313 144,-40 148.748,-37.8736 153.736,-35.7895 158.767,-33.7884"/>
<polygon fill="midnightblue" stroke="midnightblue" points="160.376,-36.9194 168.444,-30.0531 157.855,-30.389 160.376,-36.9194"/>
</g>
<!-- Node5&#45;&gt;Node2 -->
<g id="edge5" class="edge"><title>Node5&#45;&gt;Node2</title>
<path fill="none" stroke="midnightblue" d="M257.442,-30.0354C266.248,-33.2508 275.448,-36.6806 284,-40 310.934,-50.4542 341.215,-63.0612 363.338,-72.4314"/>
<polygon fill="midnightblue" stroke="midnightblue" points="362.013,-75.6714 372.586,-76.3612 364.751,-69.229 362.013,-75.6714"/>
</g>
</g>
</svg>
