<?xml version="1.0" encoding="UTF-8" standalone="no"?>
<!DOCTYPE svg PUBLIC "-//W3C//DTD SVG 1.1//EN"
 "http://www.w3.org/Graphics/SVG/1.1/DTD/svg11.dtd">
<!-- Generated by graphviz version 2.36.0 (20140111.2315)
 -->
<!-- Title: Screwprop::getRudder Pages: 1 -->
<svg width="532pt" height="77pt"
 viewBox="0.00 0.00 532.00 77.00" xmlns="http://www.w3.org/2000/svg" xmlns:xlink="http://www.w3.org/1999/xlink">
<g id="graph0" class="graph" transform="scale(1 1) rotate(0) translate(4 73)">
<title>Screwprop::getRudder</title>
<polygon fill="white" stroke="none" points="-4,4 -4,-73 528,-73 528,4 -4,4"/>
<!-- Node1 -->
<g id="node1" class="node"><title>Node1</title>
<polygon fill="#bfbfbf" stroke="black" points="0,-22.5 0,-41.5 114,-41.5 114,-22.5 0,-22.5"/>
<text text-anchor="middle" x="57" y="-29.5" font-family="Helvetica,sans-Serif" font-size="10.00">Screwprop::getRudder</text>
</g>
<!-- Node2 -->
<g id="node2" class="node"><title>Node2</title>
<g id="a_node2"><a xlink:href="class_ro_r_frame_listener.html#afec2a0f00ed552c21d22aae76329bf38" target="_top" xlink:title="RoRFrameListener::Update\lInputEvents">
<polygon fill="white" stroke="black" points="169.5,-39 169.5,-69 306.5,-69 306.5,-39 169.5,-39"/>
<text text-anchor="start" x="177.5" y="-57" font-family="Helvetica,sans-Serif" font-size="10.00">RoRFrameListener::Update</text>
<text text-anchor="middle" x="238" y="-46" font-family="Helvetica,sans-Serif" font-size="10.00">InputEvents</text>
</a>
</g>
</g>
<!-- Node1&#45;&gt;Node2 -->
<g id="edge1" class="edge"><title>Node1&#45;&gt;Node2</title>
<path fill="none" stroke="midnightblue" d="M124.196,-40.1358C138.955,-41.9497 154.622,-43.8753 169.434,-45.6958"/>
<polygon fill="midnightblue" stroke="midnightblue" points="124.498,-36.6467 114.146,-38.9006 123.644,-43.5944 124.498,-36.6467"/>
</g>
<!-- Node4 -->
<g id="node4" class="node"><title>Node4</title>
<g id="a_node4"><a xlink:href="class_overlay_wrapper.html#aac0eb0b030325b987c5085b0f12723ff" target="_top" xlink:title="OverlayWrapper::UpdateMarineHUD">
<polygon fill="white" stroke="black" points="150,-0.5 150,-19.5 326,-19.5 326,-0.5 150,-0.5"/>
<text text-anchor="middle" x="238" y="-7.5" font-family="Helvetica,sans-Serif" font-size="10.00">OverlayWrapper::UpdateMarineHUD</text>
</a>
</g>
</g>
<!-- Node1&#45;&gt;Node4 -->
<g id="edge3" class="edge"><title>Node1&#45;&gt;Node4</title>
<path fill="none" stroke="midnightblue" d="M124.087,-23.8776C135.585,-22.4644 147.638,-20.983 159.411,-19.5361"/>
<polygon fill="midnightblue" stroke="midnightblue" points="123.644,-20.4056 114.146,-25.0994 124.498,-27.3533 123.644,-20.4056"/>
</g>
<!-- Node3 -->
<g id="node3" class="node"><title>Node3</title>
<g id="a_node3"><a xlink:href="class_ro_r_frame_listener.html#acd8647e188fb8e838689492965b86faf" target="_top" xlink:title="RoRFrameListener::frameStarted">
<polygon fill="white" stroke="black" points="362.5,-44.5 362.5,-63.5 523.5,-63.5 523.5,-44.5 362.5,-44.5"/>
<text text-anchor="middle" x="443" y="-51.5" font-family="Helvetica,sans-Serif" font-size="10.00">RoRFrameListener::frameStarted</text>
</a>
</g>
</g>
<!-- Node2&#45;&gt;Node3 -->
<g id="edge2" class="edge"><title>Node2&#45;&gt;Node3</title>
<path fill="none" stroke="midnightblue" d="M316.802,-54C331.736,-54 347.395,-54 362.386,-54"/>
<polygon fill="midnightblue" stroke="midnightblue" points="316.596,-50.5001 306.596,-54 316.596,-57.5001 316.596,-50.5001"/>
</g>
</g>
</svg>
