<?xml version="1.0" encoding="UTF-8" standalone="no"?>
<!DOCTYPE svg PUBLIC "-//W3C//DTD SVG 1.1//EN"
 "http://www.w3.org/Graphics/SVG/1.1/DTD/svg11.dtd">
<!-- Generated by graphviz version 2.36.0 (20140111.2315)
 -->
<!-- Title: RoR::GUIManager::AdjustPauseMenuPosition Pages: 1 -->
<svg width="356pt" height="175pt"
 viewBox="0.00 0.00 356.00 175.00" xmlns="http://www.w3.org/2000/svg" xmlns:xlink="http://www.w3.org/1999/xlink">
<g id="graph0" class="graph" transform="scale(1 1) rotate(0) translate(4 171)">
<title>RoR::GUIManager::AdjustPauseMenuPosition</title>
<polygon fill="white" stroke="none" points="-4,4 -4,-171 352,-171 352,4 -4,4"/>
<!-- Node1 -->
<g id="node1" class="node"><title>Node1</title>
<polygon fill="#bfbfbf" stroke="black" points="0,-73 0,-103 160,-103 160,-73 0,-73"/>
<text text-anchor="start" x="8" y="-91" font-family="Helvetica,sans-Serif" font-size="10.00">RoR::GUIManager::AdjustPause</text>
<text text-anchor="middle" x="80" y="-80" font-family="Helvetica,sans-Serif" font-size="10.00">MenuPosition</text>
</g>
<!-- Node2 -->
<g id="node2" class="node"><title>Node2</title>
<g id="a_node2"><a xlink:href="namespace_ro_r_1_1_app.html#ab0161218de3dc36879f3e69b84238eba" target="_top" xlink:title="RoR::App::GetOgreSubsystem">
<polygon fill="white" stroke="black" points="196,-147.5 196,-166.5 348,-166.5 348,-147.5 196,-147.5"/>
<text text-anchor="middle" x="272" y="-154.5" font-family="Helvetica,sans-Serif" font-size="10.00">RoR::App::GetOgreSubsystem</text>
</a>
</g>
</g>
<!-- Node1&#45;&gt;Node2 -->
<g id="edge1" class="edge"><title>Node1&#45;&gt;Node2</title>
<path fill="none" stroke="midnightblue" d="M113.234,-103.194C136.026,-113.575 167.478,-127.177 196,-137 204.059,-139.776 212.714,-142.401 221.178,-144.78"/>
<polygon fill="midnightblue" stroke="midnightblue" points="220.412,-148.199 230.98,-147.454 222.254,-141.445 220.412,-148.199"/>
</g>
<!-- Node3 -->
<g id="node3" class="node"><title>Node3</title>
<g id="a_node3"><a xlink:href="class_ro_r_1_1_ogre_subsystem.html#aec5be99797f9add72578fb1fbfec582f" target="_top" xlink:title="RoR::OgreSubsystem\l::GetRenderWindow">
<polygon fill="white" stroke="black" points="215.5,-98 215.5,-128 328.5,-128 328.5,-98 215.5,-98"/>
<text text-anchor="start" x="223.5" y="-116" font-family="Helvetica,sans-Serif" font-size="10.00">RoR::OgreSubsystem</text>
<text text-anchor="middle" x="272" y="-105" font-family="Helvetica,sans-Serif" font-size="10.00">::GetRenderWindow</text>
</a>
</g>
</g>
<!-- Node1&#45;&gt;Node3 -->
<g id="edge2" class="edge"><title>Node1&#45;&gt;Node3</title>
<path fill="none" stroke="midnightblue" d="M160.201,-98.4212C175.114,-100.383 190.561,-102.416 205.016,-104.318"/>
<polygon fill="midnightblue" stroke="midnightblue" points="204.973,-107.842 215.345,-105.677 205.887,-100.902 204.973,-107.842"/>
</g>
<!-- Node4 -->
<g id="node4" class="node"><title>Node4</title>
<g id="a_node4"><a xlink:href="class_ro_r_1_1_g_u_i_1_1_game_pause_menu.html#a935bd69cc5add1fcfe1c105e5b5b9d07" target="_top" xlink:title="RoR::GUI::GamePauseMenu\l::SetPosition">
<polygon fill="white" stroke="black" points="199.5,-49 199.5,-79 344.5,-79 344.5,-49 199.5,-49"/>
<text text-anchor="start" x="207.5" y="-67" font-family="Helvetica,sans-Serif" font-size="10.00">RoR::GUI::GamePauseMenu</text>
<text text-anchor="middle" x="272" y="-56" font-family="Helvetica,sans-Serif" font-size="10.00">::SetPosition</text>
</a>
</g>
</g>
<!-- Node1&#45;&gt;Node4 -->
<g id="edge3" class="edge"><title>Node1&#45;&gt;Node4</title>
<path fill="none" stroke="midnightblue" d="M160.201,-77.9956C169.799,-76.7833 179.618,-75.543 189.252,-74.3261"/>
<polygon fill="midnightblue" stroke="midnightblue" points="189.724,-77.7943 199.207,-73.0686 188.847,-70.8495 189.724,-77.7943"/>
</g>
<!-- Node5 -->
<g id="node5" class="node"><title>Node5</title>
<g id="a_node5"><a xlink:href="class_ro_r_1_1_g_u_i_1_1_game_pause_menu.html#a4f9c57f4b339d8970055ee3bddb05019" target="_top" xlink:title="RoR::GUI::GamePauseMenu\l::GetHeight">
<polygon fill="white" stroke="black" points="199.5,-0 199.5,-30 344.5,-30 344.5,-0 199.5,-0"/>
<text text-anchor="start" x="207.5" y="-18" font-family="Helvetica,sans-Serif" font-size="10.00">RoR::GUI::GamePauseMenu</text>
<text text-anchor="middle" x="272" y="-7" font-family="Helvetica,sans-Serif" font-size="10.00">::GetHeight</text>
</a>
</g>
</g>
<!-- Node1&#45;&gt;Node5 -->
<g id="edge4" class="edge"><title>Node1&#45;&gt;Node5</title>
<path fill="none" stroke="midnightblue" d="M115.206,-72.9452C137.94,-63.1325 168.55,-50.2879 196,-40 201.904,-37.7873 208.104,-35.5637 214.304,-33.4044"/>
<polygon fill="midnightblue" stroke="midnightblue" points="215.682,-36.6319 224.004,-30.0749 213.409,-30.0111 215.682,-36.6319"/>
</g>
</g>
</svg>
