<?xml version="1.0" encoding="UTF-8" standalone="no"?>
<!DOCTYPE svg PUBLIC "-//W3C//DTD SVG 1.1//EN"
 "http://www.w3.org/Graphics/SVG/1.1/DTD/svg11.dtd">
<!-- Generated by graphviz version 2.36.0 (20140111.2315)
 -->
<!-- Title: Water::framestep Pages: 1 -->
<!--zoomable 182 -->
<svg id="main" version="1.1" xmlns="http://www.w3.org/2000/svg" xmlns:xlink="http://www.w3.org/1999/xlink" xml:space="preserve" onload="init(evt)">
<style type="text/css"><![CDATA[
.edge:hover path { stroke: red; }
.edge:hover polygon { stroke: red; fill: red; }
]]></style>
<script type="text/javascript"><![CDATA[
var edges = document.getElementsByTagName('g');
if (edges && edges.length) {
  for (var i=0;i<edges.length;i++) {
    if (edges[i].id.substr(0,4)=='edge') {
      edges[i].setAttribute('class','edge');
    }
  }
}
]]></script>
        <defs>
                <circle id="rim" cx="0" cy="0" r="7"/>
                <circle id="rim2" cx="0" cy="0" r="3.5"/>
                <g id="zoomPlus">
                        <use xlink:href="#rim" fill="#404040">
                                <set attributeName="fill" to="#808080" begin="zoomplus.mouseover" end="zoomplus.mouseout"/>
                        </use>
                        <path d="M-4,0h8M0,-4v8" fill="none" stroke="white" stroke-width="1.5" pointer-events="none"/>
                </g>
                <g id="zoomMin">
                        <use xlink:href="#rim" fill="#404040">
                                <set attributeName="fill" to="#808080" begin="zoomminus.mouseover" end="zoomminus.mouseout"/>
                        </use>
                        <path d="M-4,0h8" fill="none" stroke="white" stroke-width="1.5" pointer-events="none"/>
                </g>
                <g id="dirArrow">
                        <path fill="none" stroke="white" stroke-width="1.5" d="M0,-3.0v7 M-2.5,-0.5L0,-3.0L2.5,-0.5"/>
                </g>
               <g id="resetDef">
                       <use xlink:href="#rim2" fill="#404040">
                               <set attributeName="fill" to="#808080" begin="reset.mouseover" end="reset.mouseout"/>
                       </use>
               </g>
        </defs>

<script type="text/javascript">
var viewWidth = 738;
var viewHeight = 182;
var sectionId = 'dynsection-3';
</script>
<script xlink:href="svgpan.js"/>
<svg id="graph" class="graph">
<g id="viewport">
<title>Water::framestep</title>
<polygon fill="white" stroke="none" points="-4,4 -4,-178.048 734,-178.048 734,4 -4,4"/>
<!-- Node1 -->
<g id="node1" class="node"><title>Node1</title>
<polygon fill="#bfbfbf" stroke="black" points="0,-76.5 0,-95.5 92,-95.5 92,-76.5 0,-76.5"/>
<text text-anchor="middle" x="46" y="-83.5" font-family="Helvetica,sans-Serif" font-size="10.00">Water::framestep</text>
</g>
<!-- Node2 -->
<g id="node2" class="node"><title>Node2</title>
<g id="a_node2"><a xlink:href="class_water.html#a18fce2c0b2c45ee4ea8e413fcb4bdafa" target="_top" xlink:title="Water::update">
<polygon fill="white" stroke="black" points="128,-76.5 128,-95.5 206,-95.5 206,-76.5 128,-76.5"/>
<text text-anchor="middle" x="167" y="-83.5" font-family="Helvetica,sans-Serif" font-size="10.00">Water::update</text>
</a>
</g>
</g>
<!-- Node1&#45;&gt;Node2 -->
<g id="edge1" class="edge"><title>Node1&#45;&gt;Node2</title>
<path fill="none" stroke="midnightblue" d="M92.3283,-86C100.64,-86 109.344,-86 117.738,-86"/>
<polygon fill="midnightblue" stroke="midnightblue" points="117.776,-89.5001 127.776,-86 117.776,-82.5001 117.776,-89.5001"/>
</g>
<!-- Node3 -->
<g id="node3" class="node"><title>Node3</title>
<g id="a_node3"><a xlink:href="namespace_ro_r_1_1_app.html#a347d49b8105a10d1f95dfa8dcc543fc0" target="_top" xlink:title="RoR::App::GetGfxWaterUse\lWaves">
<polygon fill="white" stroke="black" points="586,-139 586,-169 728,-169 728,-139 586,-139"/>
<text text-anchor="start" x="594" y="-157" font-family="Helvetica,sans-Serif" font-size="10.00">RoR::App::GetGfxWaterUse</text>
<text text-anchor="middle" x="657" y="-146" font-family="Helvetica,sans-Serif" font-size="10.00">Waves</text>
</a>
</g>
</g>
<!-- Node2&#45;&gt;Node3 -->
<g id="edge2" class="edge"><title>Node2&#45;&gt;Node3</title>
<path fill="none" stroke="midnightblue" d="M176.421,-95.5038C189.085,-109.016 214.495,-133.225 242,-143 352.512,-182.273 490.277,-175.964 575.696,-166.216"/>
<polygon fill="midnightblue" stroke="midnightblue" points="576.329,-169.666 585.848,-165.013 575.505,-162.714 576.329,-169.666"/>
</g>
<!-- Node4 -->
<g id="node4" class="node"><title>Node4</title>
<g id="a_node4"><a xlink:href="namespace_ro_r_1_1_app.html#a61093e1171e9aa1d2824499b9a6b8e18" target="_top" xlink:title="RoR::App::GetActiveMpState">
<polygon fill="white" stroke="black" points="584,-46.5 584,-65.5 730,-65.5 730,-46.5 584,-46.5"/>
<text text-anchor="middle" x="657" y="-53.5" font-family="Helvetica,sans-Serif" font-size="10.00">RoR::App::GetActiveMpState</text>
</a>
</g>
</g>
<!-- Node2&#45;&gt;Node4 -->
<g id="edge3" class="edge"><title>Node2&#45;&gt;Node4</title>
<path fill="none" stroke="midnightblue" d="M198.654,-76.4811C211.856,-72.8129 227.55,-69.0207 242,-67 356.155,-51.0358 489.69,-50.7522 573.565,-52.7705"/>
<polygon fill="midnightblue" stroke="midnightblue" points="573.71,-56.2753 583.796,-53.0341 573.89,-49.2776 573.71,-56.2753"/>
</g>
<!-- Node5 -->
<g id="node5" class="node"><title>Node5</title>
<g id="a_node5"><a xlink:href="class_water.html#a633f92602bfc1703ef295e9b74da8720" target="_top" xlink:title="Water::showWave">
<polygon fill="white" stroke="black" points="267,-76.5 267,-95.5 365,-95.5 365,-76.5 267,-76.5"/>
<text text-anchor="middle" x="316" y="-83.5" font-family="Helvetica,sans-Serif" font-size="10.00">Water::showWave</text>
</a>
</g>
</g>
<!-- Node2&#45;&gt;Node5 -->
<g id="edge4" class="edge"><title>Node2&#45;&gt;Node5</title>
<path fill="none" stroke="midnightblue" d="M206.239,-86C221.596,-86 239.646,-86 256.579,-86"/>
<polygon fill="midnightblue" stroke="midnightblue" points="256.945,-89.5001 266.945,-86 256.945,-82.5001 256.945,-89.5001"/>
</g>
<!-- Node8 -->
<g id="node8" class="node"><title>Node8</title>
<g id="a_node8"><a xlink:href="class_water.html#ae34d81740dfa630804c1285fdd6bc25b" target="_top" xlink:title="Water::isCameraUnderWater">
<polygon fill="white" stroke="black" points="244.5,-114.5 244.5,-133.5 387.5,-133.5 387.5,-114.5 244.5,-114.5"/>
<text text-anchor="middle" x="316" y="-121.5" font-family="Helvetica,sans-Serif" font-size="10.00">Water::isCameraUnderWater</text>
</a>
</g>
</g>
<!-- Node2&#45;&gt;Node8 -->
<g id="edge9" class="edge"><title>Node2&#45;&gt;Node8</title>
<path fill="none" stroke="midnightblue" d="M205.094,-95.589C224.318,-100.558 247.986,-106.677 268.429,-111.961"/>
<polygon fill="midnightblue" stroke="midnightblue" points="267.615,-115.366 278.172,-114.48 269.367,-108.588 267.615,-115.366"/>
</g>
<!-- Node9 -->
<g id="node9" class="node"><title>Node9</title>
<g id="a_node9"><a xlink:href="namespace_ro_r_1_1_app.html#a02caa3283775ee9aae51910208d3e7cc" target="_top" xlink:title="RoR::App::GetGfxWaterMode">
<polygon fill="white" stroke="black" points="242,-0.5 242,-19.5 390,-19.5 390,-0.5 242,-0.5"/>
<text text-anchor="middle" x="316" y="-7.5" font-family="Helvetica,sans-Serif" font-size="10.00">RoR::App::GetGfxWaterMode</text>
</a>
</g>
</g>
<!-- Node2&#45;&gt;Node9 -->
<g id="edge11" class="edge"><title>Node2&#45;&gt;Node9</title>
<path fill="none" stroke="midnightblue" d="M179.365,-76.3909C193.338,-64.9746 218.142,-45.972 242,-34 250.584,-29.6924 260.114,-25.9095 269.378,-22.6969"/>
<polygon fill="midnightblue" stroke="midnightblue" points="270.487,-26.0167 278.885,-19.5574 268.292,-19.3697 270.487,-26.0167"/>
</g>
<!-- Node6 -->
<g id="node6" class="node"><title>Node6</title>
<g id="a_node6"><a xlink:href="class_water.html#ae0ff5f204633423eb3d8f825940b0c94" target="_top" xlink:title="Water::getHeightWaves">
<polygon fill="white" stroke="black" points="426,-92.5 426,-111.5 548,-111.5 548,-92.5 426,-92.5"/>
<text text-anchor="middle" x="487" y="-99.5" font-family="Helvetica,sans-Serif" font-size="10.00">Water::getHeightWaves</text>
</a>
</g>
</g>
<!-- Node5&#45;&gt;Node6 -->
<g id="edge5" class="edge"><title>Node5&#45;&gt;Node6</title>
<path fill="none" stroke="midnightblue" d="M365.429,-90.585C381.018,-92.0609 398.624,-93.7277 415.468,-95.3224"/>
<polygon fill="midnightblue" stroke="midnightblue" points="415.547,-98.8454 425.832,-96.3036 416.207,-91.8766 415.547,-98.8454"/>
</g>
<!-- Node6&#45;&gt;Node3 -->
<g id="edge6" class="edge"><title>Node6&#45;&gt;Node3</title>
<path fill="none" stroke="midnightblue" d="M518.814,-111.538C540.833,-118.353 571.136,-127.733 597.662,-135.943"/>
<polygon fill="midnightblue" stroke="midnightblue" points="596.654,-139.295 607.242,-138.908 598.724,-132.608 596.654,-139.295"/>
</g>
<!-- Node6&#45;&gt;Node4 -->
<g id="edge7" class="edge"><title>Node6&#45;&gt;Node4</title>
<path fill="none" stroke="midnightblue" d="M522.81,-92.4688C548.489,-85.4375 583.638,-75.8133 611.38,-68.2173"/>
<polygon fill="midnightblue" stroke="midnightblue" points="612.514,-71.5357 621.235,-65.519 610.666,-64.7842 612.514,-71.5357"/>
</g>
<!-- Node7 -->
<g id="node7" class="node"><title>Node7</title>
<g id="a_node7"><a xlink:href="class_water.html#a0e898659c77fb2358402d0cd669301c0" target="_top" xlink:title="Water::getWaveHeight">
<polygon fill="white" stroke="black" points="599,-92.5 599,-111.5 715,-111.5 715,-92.5 599,-92.5"/>
<text text-anchor="middle" x="657" y="-99.5" font-family="Helvetica,sans-Serif" font-size="10.00">Water::getWaveHeight</text>
</a>
</g>
</g>
<!-- Node6&#45;&gt;Node7 -->
<g id="edge8" class="edge"><title>Node6&#45;&gt;Node7</title>
<path fill="none" stroke="midnightblue" d="M548.177,-102C561.307,-102 575.283,-102 588.671,-102"/>
<polygon fill="midnightblue" stroke="midnightblue" points="588.77,-105.5 598.77,-102 588.77,-98.5001 588.77,-105.5"/>
</g>
<!-- Node8&#45;&gt;Node6 -->
<g id="edge10" class="edge"><title>Node8&#45;&gt;Node6</title>
<path fill="none" stroke="midnightblue" d="M387.692,-114.797C396.991,-113.587 406.52,-112.346 415.811,-111.137"/>
<polygon fill="midnightblue" stroke="midnightblue" points="416.313,-114.601 425.777,-109.84 415.409,-107.66 416.313,-114.601"/>
</g>
</g>
</svg>
        <g id="navigator" transform="translate(0 0)" fill="#404254">
                <rect fill="#f2f5e9" fill-opacity="0.5" stroke="#606060" stroke-width=".5" x="0" y="0" width="60" height="60"/>
                <use id="zoomplus" xlink:href="#zoomPlus" x="17" y="9" onmousedown="handleZoom(evt,'in')"/>
                <use id="zoomminus" xlink:href="#zoomMin" x="42" y="9" onmousedown="handleZoom(evt,'out')"/>
                <use id="reset" xlink:href="#resetDef" x="30" y="36" onmousedown="handleReset()"/>
                <g id="arrowUp" xlink:href="#dirArrow" transform="translate(30 24)" onmousedown="handlePan(0,-1)">
                  <use xlink:href="#rim" fill="#404040">
                        <set attributeName="fill" to="#808080" begin="arrowUp.mouseover" end="arrowUp.mouseout"/>
                  </use>
                  <path fill="none" stroke="white" stroke-width="1.5" d="M0,-3.0v7 M-2.5,-0.5L0,-3.0L2.5,-0.5"/>
                </g>
                <g id="arrowRight" xlink:href="#dirArrow" transform="rotate(90) translate(36 -43)" onmousedown="handlePan(1,0)">
                  <use xlink:href="#rim" fill="#404040">
                        <set attributeName="fill" to="#808080" begin="arrowRight.mouseover" end="arrowRight.mouseout"/>
                  </use>
                  <path fill="none" stroke="white" stroke-width="1.5" d="M0,-3.0v7 M-2.5,-0.5L0,-3.0L2.5,-0.5"/>
                </g>
                <g id="arrowDown" xlink:href="#dirArrow" transform="rotate(180) translate(-30 -48)" onmousedown="handlePan(0,1)">
                  <use xlink:href="#rim" fill="#404040">
                        <set attributeName="fill" to="#808080" begin="arrowDown.mouseover" end="arrowDown.mouseout"/>
                  </use>
                  <path fill="none" stroke="white" stroke-width="1.5" d="M0,-3.0v7 M-2.5,-0.5L0,-3.0L2.5,-0.5"/>
                </g>
                <g id="arrowLeft" xlink:href="#dirArrow" transform="rotate(270) translate(-36 17)" onmousedown="handlePan(-1,0)">
                  <use xlink:href="#rim" fill="#404040">
                        <set attributeName="fill" to="#808080" begin="arrowLeft.mouseover" end="arrowLeft.mouseout"/>
                  </use>
                  <path fill="none" stroke="white" stroke-width="1.5" d="M0,-3.0v7 M-2.5,-0.5L0,-3.0L2.5,-0.5"/>
                </g>
        </g>
        <svg viewBox="0 0 15 15" width="100%" height="30px" preserveAspectRatio="xMaxYMin meet">
         <g id="arrow_out" transform="scale(0.3 0.3)">
          <a xlink:href="class_water_ab3c688bc459bf677f8a235cd42c9daae_cgraph_org.svg" target="_base">
           <rect id="button" ry="5" rx="5" y="6" x="6" height="38" width="38"
                fill="#f2f5e9" fill-opacity="0.5" stroke="#606060" stroke-width="1.0"/>
           <path id="arrow"
             d="M 11.500037,31.436501 C 11.940474,20.09759 22.043105,11.32322 32.158766,21.979434 L 37.068811,17.246167 C 37.068811,17.246167 37.088388,32 37.088388,32 L 22.160133,31.978069 C 22.160133,31.978069 26.997745,27.140456 26.997745,27.140456 C 18.528582,18.264221 13.291696,25.230495 11.500037,31.436501 z"
             style="fill:#404040;"/>
          </a>
         </g>
        </svg>
</svg>
