<?xml version="1.0" encoding="UTF-8" standalone="no"?>
<!DOCTYPE svg PUBLIC "-//W3C//DTD SVG 1.1//EN"
 "http://www.w3.org/Graphics/SVG/1.1/DTD/svg11.dtd">
<!-- Generated by graphviz version 2.36.0 (20140111.2315)
 -->
<!-- Title: RoR::MainMenu::EnterMainMenuLoop Pages: 1 -->
<!--zoomable 689 -->
<svg id="main" version="1.1" xmlns="http://www.w3.org/2000/svg" xmlns:xlink="http://www.w3.org/1999/xlink" xml:space="preserve" onload="init(evt)">
<style type="text/css"><![CDATA[
.edge:hover path { stroke: red; }
.edge:hover polygon { stroke: red; fill: red; }
]]></style>
<script type="text/javascript"><![CDATA[
var edges = document.getElementsByTagName('g');
if (edges && edges.length) {
  for (var i=0;i<edges.length;i++) {
    if (edges[i].id.substr(0,4)=='edge') {
      edges[i].setAttribute('class','edge');
    }
  }
}
]]></script>
        <defs>
                <circle id="rim" cx="0" cy="0" r="7"/>
                <circle id="rim2" cx="0" cy="0" r="3.5"/>
                <g id="zoomPlus">
                        <use xlink:href="#rim" fill="#404040">
                                <set attributeName="fill" to="#808080" begin="zoomplus.mouseover" end="zoomplus.mouseout"/>
                        </use>
                        <path d="M-4,0h8M0,-4v8" fill="none" stroke="white" stroke-width="1.5" pointer-events="none"/>
                </g>
                <g id="zoomMin">
                        <use xlink:href="#rim" fill="#404040">
                                <set attributeName="fill" to="#808080" begin="zoomminus.mouseover" end="zoomminus.mouseout"/>
                        </use>
                        <path d="M-4,0h8" fill="none" stroke="white" stroke-width="1.5" pointer-events="none"/>
                </g>
                <g id="dirArrow">
                        <path fill="none" stroke="white" stroke-width="1.5" d="M0,-3.0v7 M-2.5,-0.5L0,-3.0L2.5,-0.5"/>
                </g>
               <g id="resetDef">
                       <use xlink:href="#rim2" fill="#404040">
                               <set attributeName="fill" to="#808080" begin="reset.mouseover" end="reset.mouseout"/>
                       </use>
               </g>
        </defs>

<script type="text/javascript">
var viewWidth = 700;
var viewHeight = 689;
var sectionId = 'dynsection-3';
</script>
<script xlink:href="svgpan.js"/>
<svg id="graph" class="graph">
<g id="viewport">
<title>RoR::MainMenu::EnterMainMenuLoop</title>
<polygon fill="white" stroke="none" points="-4,4 -4,-685 696,-685 696,4 -4,4"/>
<!-- Node1 -->
<g id="node1" class="node"><title>Node1</title>
<polygon fill="#bfbfbf" stroke="black" points="0,-328 0,-358 138,-358 138,-328 0,-328"/>
<text text-anchor="start" x="8" y="-346" font-family="Helvetica,sans-Serif" font-size="10.00">RoR::MainMenu::EnterMain</text>
<text text-anchor="middle" x="69" y="-335" font-family="Helvetica,sans-Serif" font-size="10.00">MenuLoop</text>
</g>
<!-- Node2 -->
<g id="node2" class="node"><title>Node2</title>
<g id="a_node2"><a xlink:href="namespace_ro_r_1_1_app.html#ab0161218de3dc36879f3e69b84238eba" target="_top" xlink:title="RoR::App::GetOgreSubsystem">
<polygon fill="white" stroke="black" points="191,-661.5 191,-680.5 343,-680.5 343,-661.5 191,-661.5"/>
<text text-anchor="middle" x="267" y="-668.5" font-family="Helvetica,sans-Serif" font-size="10.00">RoR::App::GetOgreSubsystem</text>
</a>
</g>
</g>
<!-- Node1&#45;&gt;Node2 -->
<g id="edge1" class="edge"><title>Node1&#45;&gt;Node2</title>
<path fill="none" stroke="midnightblue" d="M70.1384,-358.03C71.4652,-408.204 82.9023,-571.308 174,-652 176.503,-654.217 179.195,-656.201 182.029,-657.974"/>
<polygon fill="midnightblue" stroke="midnightblue" points="180.441,-661.094 190.915,-662.688 183.721,-654.91 180.441,-661.094"/>
</g>
<!-- Node3 -->
<g id="node3" class="node"><title>Node3</title>
<g id="a_node3"><a xlink:href="namespace_ro_r_1_1_app.html#a2b6ae747a2f9922010dfaa6f97ff6c52" target="_top" xlink:title="RoR::App::GetGfxFpsLimit">
<polygon fill="white" stroke="black" points="199.5,-623.5 199.5,-642.5 334.5,-642.5 334.5,-623.5 199.5,-623.5"/>
<text text-anchor="middle" x="267" y="-630.5" font-family="Helvetica,sans-Serif" font-size="10.00">RoR::App::GetGfxFpsLimit</text>
</a>
</g>
</g>
<!-- Node1&#45;&gt;Node3 -->
<g id="edge2" class="edge"><title>Node1&#45;&gt;Node3</title>
<path fill="none" stroke="midnightblue" d="M70.9436,-358.136C74.6842,-404.379 92.5643,-544.847 174,-614 178.813,-618.087 184.275,-621.373 190.079,-624.006"/>
<polygon fill="midnightblue" stroke="midnightblue" points="188.849,-627.283 199.438,-627.627 191.375,-620.754 188.849,-627.283"/>
</g>
<!-- Node4 -->
<g id="node4" class="node"><title>Node4</title>
<g id="a_node4"><a xlink:href="namespace_ro_r_1_1_app.html#a3a48fe28fc3ddcd372456e4b30721d9a" target="_top" xlink:title="RoR::App::GetPendingAppState">
<polygon fill="white" stroke="black" points="188,-585.5 188,-604.5 346,-604.5 346,-585.5 188,-585.5"/>
<text text-anchor="middle" x="267" y="-592.5" font-family="Helvetica,sans-Serif" font-size="10.00">RoR::App::GetPendingAppState</text>
</a>
</g>
</g>
<!-- Node1&#45;&gt;Node4 -->
<g id="edge3" class="edge"><title>Node1&#45;&gt;Node4</title>
<path fill="none" stroke="midnightblue" d="M72.032,-358.008C78.4945,-399.586 102.539,-517.009 174,-575 176.602,-577.111 179.377,-579.013 182.281,-580.725"/>
<polygon fill="midnightblue" stroke="midnightblue" points="180.832,-583.914 191.335,-585.31 183.995,-577.669 180.832,-583.914"/>
</g>
<!-- Node5 -->
<g id="node5" class="node"><title>Node5</title>
<g id="a_node5"><a xlink:href="class_ro_r_1_1_ogre_subsystem.html#a41157fb92ca44184f55fd5fefc6a7e02" target="_top" xlink:title="RoR::OgreSubsystem\l::GetTimer">
<polygon fill="white" stroke="black" points="210.5,-536 210.5,-566 323.5,-566 323.5,-536 210.5,-536"/>
<text text-anchor="start" x="218.5" y="-554" font-family="Helvetica,sans-Serif" font-size="10.00">RoR::OgreSubsystem</text>
<text text-anchor="middle" x="267" y="-543" font-family="Helvetica,sans-Serif" font-size="10.00">::GetTimer</text>
</a>
</g>
</g>
<!-- Node1&#45;&gt;Node5 -->
<g id="edge4" class="edge"><title>Node1&#45;&gt;Node5</title>
<path fill="none" stroke="midnightblue" d="M74.2224,-358.215C84.7935,-393.41 115.815,-480.873 174,-526 181.847,-532.086 191.07,-536.693 200.592,-540.179"/>
<polygon fill="midnightblue" stroke="midnightblue" points="199.582,-543.531 210.174,-543.305 201.753,-536.876 199.582,-543.531"/>
</g>
<!-- Node6 -->
<g id="node6" class="node"><title>Node6</title>
<g id="a_node6"><a xlink:href="namespace_ro_r_1_1_app.html#a68d6403d2b36006a6fa2d28f5ba8f12f" target="_top" xlink:title="RoR::App::GetGuiManager">
<polygon fill="white" stroke="black" points="200,-497.5 200,-516.5 334,-516.5 334,-497.5 200,-497.5"/>
<text text-anchor="middle" x="267" y="-504.5" font-family="Helvetica,sans-Serif" font-size="10.00">RoR::App::GetGuiManager</text>
</a>
</g>
</g>
<!-- Node1&#45;&gt;Node6 -->
<g id="edge5" class="edge"><title>Node1&#45;&gt;Node6</title>
<path fill="none" stroke="midnightblue" d="M76.331,-358.021C89.6813,-387.751 123.689,-454.061 174,-487 178.994,-490.269 184.434,-493.013 190.093,-495.314"/>
<polygon fill="midnightblue" stroke="midnightblue" points="189.188,-498.708 199.782,-498.784 191.548,-492.117 189.188,-498.708"/>
</g>
<!-- Node7 -->
<g id="node7" class="node"><title>Node7</title>
<g id="a_node7"><a xlink:href="class_ro_r_1_1_g_u_i_manager.html#ac4f70c8a1b401b07e1632ad3e6eb5fe3" target="_top" xlink:title="RoR::GUIManager::GetMain\lSelector">
<polygon fill="white" stroke="black" points="196.5,-448 196.5,-478 337.5,-478 337.5,-448 196.5,-448"/>
<text text-anchor="start" x="204.5" y="-466" font-family="Helvetica,sans-Serif" font-size="10.00">RoR::GUIManager::GetMain</text>
<text text-anchor="middle" x="267" y="-455" font-family="Helvetica,sans-Serif" font-size="10.00">Selector</text>
</a>
</g>
</g>
<!-- Node1&#45;&gt;Node7 -->
<g id="edge6" class="edge"><title>Node1&#45;&gt;Node7</title>
<path fill="none" stroke="midnightblue" d="M82.4582,-358.242C100.477,-379.29 135.858,-417.025 174,-438 178.133,-440.273 182.487,-442.35 186.96,-444.246"/>
<polygon fill="midnightblue" stroke="midnightblue" points="185.689,-447.507 196.277,-447.889 188.238,-440.988 185.689,-447.507"/>
</g>
<!-- Node8 -->
<g id="node8" class="node"><title>Node8</title>
<g id="a_node8"><a xlink:href="class_ro_r_1_1_g_u_i_1_1_main_selector.html#a0f24fd9c3091f6629824706e2f5f7888" target="_top" xlink:title="RoR::GUI::MainSelector\l::GetSelectedEntry">
<polygon fill="white" stroke="black" points="205,-399 205,-429 329,-429 329,-399 205,-399"/>
<text text-anchor="start" x="213" y="-417" font-family="Helvetica,sans-Serif" font-size="10.00">RoR::GUI::MainSelector</text>
<text text-anchor="middle" x="267" y="-406" font-family="Helvetica,sans-Serif" font-size="10.00">::GetSelectedEntry</text>
</a>
</g>
</g>
<!-- Node1&#45;&gt;Node8 -->
<g id="edge7" class="edge"><title>Node1&#45;&gt;Node8</title>
<path fill="none" stroke="midnightblue" d="M100.903,-358.143C121.333,-367.784 148.881,-380.089 174,-389 180.864,-391.435 188.086,-393.771 195.34,-395.971"/>
<polygon fill="midnightblue" stroke="midnightblue" points="194.64,-399.413 205.222,-398.882 196.619,-392.699 194.64,-399.413"/>
</g>
<!-- Node9 -->
<g id="node9" class="node"><title>Node9</title>
<g id="a_node9"><a xlink:href="class_ro_r_1_1_g_u_i_1_1_main_selector.html#ab03068556a82d9752273554752508d5a" target="_top" xlink:title="RoR::GUI::MainSelector\l::Reset">
<polygon fill="white" stroke="black" points="205,-350 205,-380 329,-380 329,-350 205,-350"/>
<text text-anchor="start" x="213" y="-368" font-family="Helvetica,sans-Serif" font-size="10.00">RoR::GUI::MainSelector</text>
<text text-anchor="middle" x="267" y="-357" font-family="Helvetica,sans-Serif" font-size="10.00">::Reset</text>
</a>
</g>
</g>
<!-- Node1&#45;&gt;Node9 -->
<g id="edge8" class="edge"><title>Node1&#45;&gt;Node9</title>
<path fill="none" stroke="midnightblue" d="M138.001,-350.633C156.286,-352.685 176.113,-354.911 194.578,-356.983"/>
<polygon fill="midnightblue" stroke="midnightblue" points="194.349,-360.479 204.677,-358.117 195.13,-353.523 194.349,-360.479"/>
</g>
<!-- Node10 -->
<g id="node10" class="node"><title>Node10</title>
<g id="a_node10"><a xlink:href="namespace_ro_r_1_1_app.html#a9c821dcc2190b100f4003e72e0b924b1" target="_top" xlink:title="RoR::App::SetPendingAppState">
<polygon fill="white" stroke="black" points="188.5,-311.5 188.5,-330.5 345.5,-330.5 345.5,-311.5 188.5,-311.5"/>
<text text-anchor="middle" x="267" y="-318.5" font-family="Helvetica,sans-Serif" font-size="10.00">RoR::App::SetPendingAppState</text>
</a>
</g>
</g>
<!-- Node1&#45;&gt;Node10 -->
<g id="edge9" class="edge"><title>Node1&#45;&gt;Node10</title>
<path fill="none" stroke="midnightblue" d="M138.001,-335.367C150.953,-333.913 164.678,-332.373 178.145,-330.861"/>
<polygon fill="midnightblue" stroke="midnightblue" points="178.829,-334.307 188.376,-329.713 178.048,-327.35 178.829,-334.307"/>
</g>
<!-- Node14 -->
<g id="node14" class="node"><title>Node14</title>
<g id="a_node14"><a xlink:href="namespace_ro_r_1_1_app.html#af4b16dd2fadb7771dae5f0d97f93eed8" target="_top" xlink:title="RoR::App::SetSimNextTerrain">
<polygon fill="white" stroke="black" points="192.5,-273.5 192.5,-292.5 341.5,-292.5 341.5,-273.5 192.5,-273.5"/>
<text text-anchor="middle" x="267" y="-280.5" font-family="Helvetica,sans-Serif" font-size="10.00">RoR::App::SetSimNextTerrain</text>
</a>
</g>
</g>
<!-- Node1&#45;&gt;Node14 -->
<g id="edge13" class="edge"><title>Node1&#45;&gt;Node14</title>
<path fill="none" stroke="midnightblue" d="M104.144,-327.82C124.192,-319.344 150.192,-309.094 174,-302 183.048,-299.304 192.709,-296.856 202.242,-294.681"/>
<polygon fill="midnightblue" stroke="midnightblue" points="203.084,-298.079 212.1,-292.515 201.582,-291.242 203.084,-298.079"/>
</g>
<!-- Node16 -->
<g id="node16" class="node"><title>Node16</title>
<g id="a_node16"><a xlink:href="class_ro_r_1_1_ogre_subsystem.html#aec5be99797f9add72578fb1fbfec582f" target="_top" xlink:title="RoR::OgreSubsystem\l::GetRenderWindow">
<polygon fill="white" stroke="black" points="210.5,-224 210.5,-254 323.5,-254 323.5,-224 210.5,-224"/>
<text text-anchor="start" x="218.5" y="-242" font-family="Helvetica,sans-Serif" font-size="10.00">RoR::OgreSubsystem</text>
<text text-anchor="middle" x="267" y="-231" font-family="Helvetica,sans-Serif" font-size="10.00">::GetRenderWindow</text>
</a>
</g>
</g>
<!-- Node1&#45;&gt;Node16 -->
<g id="edge15" class="edge"><title>Node1&#45;&gt;Node16</title>
<path fill="none" stroke="midnightblue" d="M85.9585,-327.694C105.309,-309.932 139.621,-280.925 174,-264 182.288,-259.92 191.335,-256.43 200.416,-253.468"/>
<polygon fill="midnightblue" stroke="midnightblue" points="201.712,-256.732 210.249,-250.458 199.663,-250.039 201.712,-256.732"/>
</g>
<!-- Node17 -->
<g id="node17" class="node"><title>Node17</title>
<g id="a_node17"><a xlink:href="class_ro_r_1_1_ogre_subsystem.html#a2f68e736be01d118cae03e831b38a9df" target="_top" xlink:title="RoR::OgreSubsystem\l::GetOgreRoot">
<polygon fill="white" stroke="black" points="210.5,-175 210.5,-205 323.5,-205 323.5,-175 210.5,-175"/>
<text text-anchor="start" x="218.5" y="-193" font-family="Helvetica,sans-Serif" font-size="10.00">RoR::OgreSubsystem</text>
<text text-anchor="middle" x="267" y="-182" font-family="Helvetica,sans-Serif" font-size="10.00">::GetOgreRoot</text>
</a>
</g>
</g>
<!-- Node1&#45;&gt;Node17 -->
<g id="edge16" class="edge"><title>Node1&#45;&gt;Node17</title>
<path fill="none" stroke="midnightblue" d="M78.0813,-327.78C93.2013,-300.808 128.403,-244.673 174,-215 182.031,-209.774 191.134,-205.633 200.415,-202.354"/>
<polygon fill="midnightblue" stroke="midnightblue" points="201.661,-205.629 210.112,-199.239 199.521,-198.965 201.661,-205.629"/>
</g>
<!-- Node18 -->
<g id="node18" class="node"><title>Node18</title>
<g id="a_node18"><a xlink:href="namespace_ro_r_1_1_app.html#a61093e1171e9aa1d2824499b9a6b8e18" target="_top" xlink:title="RoR::App::GetActiveMpState">
<polygon fill="white" stroke="black" points="194,-136.5 194,-155.5 340,-155.5 340,-136.5 194,-136.5"/>
<text text-anchor="middle" x="267" y="-143.5" font-family="Helvetica,sans-Serif" font-size="10.00">RoR::App::GetActiveMpState</text>
</a>
</g>
</g>
<!-- Node1&#45;&gt;Node18 -->
<g id="edge17" class="edge"><title>Node1&#45;&gt;Node18</title>
<path fill="none" stroke="midnightblue" d="M74.3043,-327.819C84.9566,-293.171 115.98,-208.021 174,-166 177.258,-163.641 180.739,-161.55 184.372,-159.698"/>
<polygon fill="midnightblue" stroke="midnightblue" points="185.95,-162.827 193.669,-155.57 183.109,-156.429 185.95,-162.827"/>
</g>
<!-- Node19 -->
<g id="node19" class="node"><title>Node19</title>
<g id="a_node19"><a xlink:href="class_ro_r_1_1_g_u_i_manager.html#ab0713eba09affac3da66c81fc8e9741f" target="_top" xlink:title="RoR::GUIManager::ShowMessageBox">
<polygon fill="white" stroke="black" points="174,-98.5 174,-117.5 360,-117.5 360,-98.5 174,-98.5"/>
<text text-anchor="middle" x="267" y="-105.5" font-family="Helvetica,sans-Serif" font-size="10.00">RoR::GUIManager::ShowMessageBox</text>
</a>
</g>
</g>
<!-- Node1&#45;&gt;Node19 -->
<g id="edge18" class="edge"><title>Node1&#45;&gt;Node19</title>
<path fill="none" stroke="midnightblue" d="M72.5628,-327.828C80.132,-287.998 106.255,-179.889 174,-127 176.214,-125.272 178.546,-123.69 180.97,-122.243"/>
<polygon fill="midnightblue" stroke="midnightblue" points="182.797,-125.24 190.107,-117.571 179.61,-119.008 182.797,-125.24"/>
</g>
<!-- Node21 -->
<g id="node21" class="node"><title>Node21</title>
<g id="a_node21"><a xlink:href="class_ro_r_1_1_g_u_i_1_1_main_selector.html#a21ed739157a49cfed76b88dd8613dce4" target="_top" xlink:title="RoR::GUI::MainSelector\l::Hide">
<polygon fill="white" stroke="black" points="205,-49 205,-79 329,-79 329,-49 205,-49"/>
<text text-anchor="start" x="213" y="-67" font-family="Helvetica,sans-Serif" font-size="10.00">RoR::GUI::MainSelector</text>
<text text-anchor="middle" x="267" y="-56" font-family="Helvetica,sans-Serif" font-size="10.00">::Hide</text>
</a>
</g>
</g>
<!-- Node1&#45;&gt;Node21 -->
<g id="edge20" class="edge"><title>Node1&#45;&gt;Node21</title>
<path fill="none" stroke="midnightblue" d="M71.604,-327.763C77.0704,-283.733 99.0179,-155.264 174,-89 180.172,-83.5455 187.421,-79.2669 195.095,-75.9132"/>
<polygon fill="midnightblue" stroke="midnightblue" points="196.536,-79.1093 204.623,-72.2642 194.033,-72.5723 196.536,-79.1093"/>
</g>
<!-- Node22 -->
<g id="node22" class="node"><title>Node22</title>
<g id="a_node22"><a xlink:href="class_ro_r_1_1_g_u_i_1_1_main_selector.html#a3e7b2a4e2bc63b0c7ccf28178d6c68da" target="_top" xlink:title="RoR::GUI::MainSelector\l::Show">
<polygon fill="white" stroke="black" points="205,-0 205,-30 329,-30 329,-0 205,-0"/>
<text text-anchor="start" x="213" y="-18" font-family="Helvetica,sans-Serif" font-size="10.00">RoR::GUI::MainSelector</text>
<text text-anchor="middle" x="267" y="-7" font-family="Helvetica,sans-Serif" font-size="10.00">::Show</text>
</a>
</g>
</g>
<!-- Node1&#45;&gt;Node22 -->
<g id="edge21" class="edge"><title>Node1&#45;&gt;Node22</title>
<path fill="none" stroke="midnightblue" d="M70.4654,-327.779C72.8241,-278.432 87.138,-121.367 174,-40 180.164,-34.2257 187.527,-29.76 195.365,-26.3108"/>
<polygon fill="midnightblue" stroke="midnightblue" points="196.66,-29.5627 204.741,-22.711 194.151,-23.0277 196.66,-29.5627"/>
</g>
<!-- Node11 -->
<g id="node11" class="node"><title>Node11</title>
<g id="a_node11"><a xlink:href="namespace_ro_r_1_1_app.html#ae7ca05a9e2c04da99c1305919b3002b3" target="_top" xlink:title="RoR::App::SetVarEnum">
<polygon fill="white" stroke="black" points="401,-349.5 401,-368.5 523,-368.5 523,-349.5 401,-349.5"/>
<text text-anchor="middle" x="462" y="-356.5" font-family="Helvetica,sans-Serif" font-size="10.00">RoR::App::SetVarEnum</text>
</a>
</g>
</g>
<!-- Node10&#45;&gt;Node11 -->
<g id="edge10" class="edge"><title>Node10&#45;&gt;Node11</title>
<path fill="none" stroke="midnightblue" d="M316.702,-330.589C342.859,-335.739 375.284,-342.123 402.767,-347.534"/>
<polygon fill="midnightblue" stroke="midnightblue" points="402.16,-350.982 412.648,-349.48 403.513,-344.114 402.16,-350.982"/>
</g>
<!-- Node13 -->
<g id="node13" class="node"><title>Node13</title>
<g id="a_node13"><a xlink:href="namespace_ro_r_1_1_app.html#a18ba521dde82ec933a84f3dd87d372e9" target="_top" xlink:title="RoR::App::AppStateToStr">
<polygon fill="white" stroke="black" points="396.5,-311.5 396.5,-330.5 527.5,-330.5 527.5,-311.5 396.5,-311.5"/>
<text text-anchor="middle" x="462" y="-318.5" font-family="Helvetica,sans-Serif" font-size="10.00">RoR::App::AppStateToStr</text>
</a>
</g>
</g>
<!-- Node10&#45;&gt;Node13 -->
<g id="edge12" class="edge"><title>Node10&#45;&gt;Node13</title>
<path fill="none" stroke="midnightblue" d="M345.666,-321C359.105,-321 373.05,-321 386.405,-321"/>
<polygon fill="midnightblue" stroke="midnightblue" points="386.484,-324.5 396.484,-321 386.484,-317.5 386.484,-324.5"/>
</g>
<!-- Node12 -->
<g id="node12" class="node"><title>Node12</title>
<g id="a_node12"><a xlink:href="namespace_ro_r_1_1_app.html#a3492dc6307a9d930ac73578e0d1f005e" target="_top" xlink:title="RoR::App::LogVarUpdate">
<polygon fill="white" stroke="black" points="564,-349.5 564,-368.5 692,-368.5 692,-349.5 564,-349.5"/>
<text text-anchor="middle" x="628" y="-356.5" font-family="Helvetica,sans-Serif" font-size="10.00">RoR::App::LogVarUpdate</text>
</a>
</g>
</g>
<!-- Node11&#45;&gt;Node12 -->
<g id="edge11" class="edge"><title>Node11&#45;&gt;Node12</title>
<path fill="none" stroke="midnightblue" d="M523.136,-359C533.078,-359 543.482,-359 553.704,-359"/>
<polygon fill="midnightblue" stroke="midnightblue" points="553.841,-362.5 563.841,-359 553.841,-355.5 553.841,-362.5"/>
</g>
<!-- Node15 -->
<g id="node15" class="node"><title>Node15</title>
<g id="a_node15"><a xlink:href="namespace_ro_r_1_1_app.html#a14508a8885a04713a5a39d5628be83c9" target="_top" xlink:title="RoR::App::SetVarStr">
<polygon fill="white" stroke="black" points="407.5,-273.5 407.5,-292.5 516.5,-292.5 516.5,-273.5 407.5,-273.5"/>
<text text-anchor="middle" x="462" y="-280.5" font-family="Helvetica,sans-Serif" font-size="10.00">RoR::App::SetVarStr</text>
</a>
</g>
</g>
<!-- Node14&#45;&gt;Node15 -->
<g id="edge14" class="edge"><title>Node14&#45;&gt;Node15</title>
<path fill="none" stroke="midnightblue" d="M341.516,-283C359.946,-283 379.563,-283 397.461,-283"/>
<polygon fill="midnightblue" stroke="midnightblue" points="397.493,-286.5 407.493,-283 397.493,-279.5 397.493,-286.5"/>
</g>
<!-- Node20 -->
<g id="node20" class="node"><title>Node20</title>
<g id="a_node20"><a xlink:href="class_ro_r_1_1_g_u_i_1_1g_message_box.html#a1a946ca3996e0c951b95fb59c781b92f" target="_top" xlink:title="RoR::GUI::gMessageBox\l::ShowMessageBox">
<polygon fill="white" stroke="black" points="397.5,-93 397.5,-123 526.5,-123 526.5,-93 397.5,-93"/>
<text text-anchor="start" x="405.5" y="-111" font-family="Helvetica,sans-Serif" font-size="10.00">RoR::GUI::gMessageBox</text>
<text text-anchor="middle" x="462" y="-100" font-family="Helvetica,sans-Serif" font-size="10.00">::ShowMessageBox</text>
</a>
</g>
</g>
<!-- Node19&#45;&gt;Node20 -->
<g id="edge19" class="edge"><title>Node19&#45;&gt;Node20</title>
<path fill="none" stroke="midnightblue" d="M360.26,-108C369.316,-108 378.422,-108 387.257,-108"/>
<polygon fill="midnightblue" stroke="midnightblue" points="387.486,-111.5 397.486,-108 387.486,-104.5 387.486,-111.5"/>
</g>
</g>
</svg>
        <g id="navigator" transform="translate(0 0)" fill="#404254">
                <rect fill="#f2f5e9" fill-opacity="0.5" stroke="#606060" stroke-width=".5" x="0" y="0" width="60" height="60"/>
                <use id="zoomplus" xlink:href="#zoomPlus" x="17" y="9" onmousedown="handleZoom(evt,'in')"/>
                <use id="zoomminus" xlink:href="#zoomMin" x="42" y="9" onmousedown="handleZoom(evt,'out')"/>
                <use id="reset" xlink:href="#resetDef" x="30" y="36" onmousedown="handleReset()"/>
                <g id="arrowUp" xlink:href="#dirArrow" transform="translate(30 24)" onmousedown="handlePan(0,-1)">
                  <use xlink:href="#rim" fill="#404040">
                        <set attributeName="fill" to="#808080" begin="arrowUp.mouseover" end="arrowUp.mouseout"/>
                  </use>
                  <path fill="none" stroke="white" stroke-width="1.5" d="M0,-3.0v7 M-2.5,-0.5L0,-3.0L2.5,-0.5"/>
                </g>
                <g id="arrowRight" xlink:href="#dirArrow" transform="rotate(90) translate(36 -43)" onmousedown="handlePan(1,0)">
                  <use xlink:href="#rim" fill="#404040">
                        <set attributeName="fill" to="#808080" begin="arrowRight.mouseover" end="arrowRight.mouseout"/>
                  </use>
                  <path fill="none" stroke="white" stroke-width="1.5" d="M0,-3.0v7 M-2.5,-0.5L0,-3.0L2.5,-0.5"/>
                </g>
                <g id="arrowDown" xlink:href="#dirArrow" transform="rotate(180) translate(-30 -48)" onmousedown="handlePan(0,1)">
                  <use xlink:href="#rim" fill="#404040">
                        <set attributeName="fill" to="#808080" begin="arrowDown.mouseover" end="arrowDown.mouseout"/>
                  </use>
                  <path fill="none" stroke="white" stroke-width="1.5" d="M0,-3.0v7 M-2.5,-0.5L0,-3.0L2.5,-0.5"/>
                </g>
                <g id="arrowLeft" xlink:href="#dirArrow" transform="rotate(270) translate(-36 17)" onmousedown="handlePan(-1,0)">
                  <use xlink:href="#rim" fill="#404040">
                        <set attributeName="fill" to="#808080" begin="arrowLeft.mouseover" end="arrowLeft.mouseout"/>
                  </use>
                  <path fill="none" stroke="white" stroke-width="1.5" d="M0,-3.0v7 M-2.5,-0.5L0,-3.0L2.5,-0.5"/>
                </g>
        </g>
        <svg viewBox="0 0 15 15" width="100%" height="30px" preserveAspectRatio="xMaxYMin meet">
         <g id="arrow_out" transform="scale(0.3 0.3)">
          <a xlink:href="class_ro_r_1_1_main_menu_a582e508f1bb1578d1124260de49e438b_cgraph_org.svg" target="_base">
           <rect id="button" ry="5" rx="5" y="6" x="6" height="38" width="38"
                fill="#f2f5e9" fill-opacity="0.5" stroke="#606060" stroke-width="1.0"/>
           <path id="arrow"
             d="M 11.500037,31.436501 C 11.940474,20.09759 22.043105,11.32322 32.158766,21.979434 L 37.068811,17.246167 C 37.068811,17.246167 37.088388,32 37.088388,32 L 22.160133,31.978069 C 22.160133,31.978069 26.997745,27.140456 26.997745,27.140456 C 18.528582,18.264221 13.291696,25.230495 11.500037,31.436501 z"
             style="fill:#404040;"/>
          </a>
         </g>
        </svg>
</svg>
