<?xml version="1.0" encoding="UTF-8" standalone="no"?>
<!DOCTYPE svg PUBLIC "-//W3C//DTD SVG 1.1//EN"
 "http://www.w3.org/Graphics/SVG/1.1/DTD/svg11.dtd">
<!-- Generated by graphviz version 2.36.0 (20140111.2315)
 -->
<!-- Title: AeroEngine::getRPMpc Pages: 1 -->
<svg width="534pt" height="28pt"
 viewBox="0.00 0.00 534.00 28.00" xmlns="http://www.w3.org/2000/svg" xmlns:xlink="http://www.w3.org/1999/xlink">
<g id="graph0" class="graph" transform="scale(1 1) rotate(0) translate(4 24)">
<title>AeroEngine::getRPMpc</title>
<polygon fill="white" stroke="none" points="-4,4 -4,-24 530,-24 530,4 -4,4"/>
<!-- Node1 -->
<g id="node1" class="node"><title>Node1</title>
<polygon fill="#bfbfbf" stroke="black" points="0.5,-0.5 0.5,-19.5 119.5,-19.5 119.5,-0.5 0.5,-0.5"/>
<text text-anchor="middle" x="60" y="-7.5" font-family="Helvetica,sans-Serif" font-size="10.00">AeroEngine::getRPMpc</text>
</g>
<!-- Node2 -->
<g id="node2" class="node"><title>Node2</title>
<g id="a_node2"><a xlink:href="class_overlay_wrapper.html#a0932f42417c63edc77c8ed486efa66c1" target="_top" xlink:title="OverlayWrapper::UpdateAerialHUD">
<polygon fill="white" stroke="black" points="156,-0.5 156,-19.5 328,-19.5 328,-0.5 156,-0.5"/>
<text text-anchor="middle" x="242" y="-7.5" font-family="Helvetica,sans-Serif" font-size="10.00">OverlayWrapper::UpdateAerialHUD</text>
</a>
</g>
</g>
<!-- Node1&#45;&gt;Node2 -->
<g id="edge1" class="edge"><title>Node1&#45;&gt;Node2</title>
<path fill="none" stroke="midnightblue" d="M130.068,-10C138.496,-10 147.182,-10 155.81,-10"/>
<polygon fill="midnightblue" stroke="midnightblue" points="129.939,-6.5001 119.939,-10 129.939,-13.5001 129.939,-6.5001"/>
</g>
<!-- Node3 -->
<g id="node3" class="node"><title>Node3</title>
<g id="a_node3"><a xlink:href="class_ro_r_frame_listener.html#acd8647e188fb8e838689492965b86faf" target="_top" xlink:title="RoRFrameListener::frameStarted">
<polygon fill="white" stroke="black" points="364.5,-0.5 364.5,-19.5 525.5,-19.5 525.5,-0.5 364.5,-0.5"/>
<text text-anchor="middle" x="445" y="-7.5" font-family="Helvetica,sans-Serif" font-size="10.00">RoRFrameListener::frameStarted</text>
</a>
</g>
</g>
<!-- Node2&#45;&gt;Node3 -->
<g id="edge2" class="edge"><title>Node2&#45;&gt;Node3</title>
<path fill="none" stroke="midnightblue" d="M338.408,-10C347.101,-10 355.845,-10 364.379,-10"/>
<polygon fill="midnightblue" stroke="midnightblue" points="338.242,-6.5001 328.242,-10 338.242,-13.5001 338.242,-6.5001"/>
</g>
</g>
</svg>
