<?xml version="1.0" encoding="UTF-8" standalone="no"?>
<!DOCTYPE svg PUBLIC "-//W3C//DTD SVG 1.1//EN"
 "http://www.w3.org/Graphics/SVG/1.1/DTD/svg11.dtd">
<!-- Generated by graphviz version 2.36.0 (20140111.2315)
 -->
<!-- Title: source/main/physics/air Pages: 1 -->
<svg width="155pt" height="151pt"
 viewBox="0.00 0.00 155.00 151.00" xmlns="http://www.w3.org/2000/svg" xmlns:xlink="http://www.w3.org/1999/xlink">
<g id="graph0" class="graph" transform="scale(1 1) rotate(0) translate(4 147)">
<title>source/main/physics/air</title>
<polygon fill="white" stroke="none" points="-4,4 -4,-147 151,-147 151,4 -4,4"/>
<g id="clust1" class="cluster"><title>clusterdir_41ae6bb3298f320b4e7a83272dab63be</title>
<g id="a_clust1"><a xlink:href="dir_41ae6bb3298f320b4e7a83272dab63be.html" target="_top" xlink:title="physics">
<polygon fill="#ddddee" stroke="black" points="8,-64 8,-135 78,-135 78,-64 8,-64"/>
<text text-anchor="middle" x="43" y="-123" font-family="Helvetica,sans-Serif" font-size="10.00">physics</text>
</a>
</g>
</g>
<!-- dir_88ff1f755f4b0953e820c0ad2dba9d7b -->
<g id="node1" class="node"><title>dir_88ff1f755f4b0953e820c0ad2dba9d7b</title>
<g id="a_node1"><a xlink:href="dir_88ff1f755f4b0953e820c0ad2dba9d7b.html" target="_top" xlink:title="air">
<polygon fill="#eeeeff" stroke="black" points="70,-108 16,-108 16,-72 70,-72 70,-108"/>
<text text-anchor="middle" x="43" y="-87.5" font-family="Helvetica,sans-Serif" font-size="10.00">air</text>
</a>
</g>
</g>
<!-- dir_31f0790b39fd844a07ea2eaa9d380605 -->
<g id="node2" class="node"><title>dir_31f0790b39fd844a07ea2eaa9d380605</title>
<g id="a_node2"><a xlink:href="dir_31f0790b39fd844a07ea2eaa9d380605.html" target="_top" xlink:title="audio">
<polygon fill="none" stroke="black" points="107,-36 53,-36 53,-0 107,-0 107,-36"/>
<text text-anchor="middle" x="80" y="-15.5" font-family="Helvetica,sans-Serif" font-size="10.00">audio</text>
</a>
</g>
</g>
<!-- dir_88ff1f755f4b0953e820c0ad2dba9d7b&#45;&gt;dir_31f0790b39fd844a07ea2eaa9d380605 -->
<g id="edge3" class="edge"><title>dir_88ff1f755f4b0953e820c0ad2dba9d7b&#45;&gt;dir_31f0790b39fd844a07ea2eaa9d380605</title>
<path fill="none" stroke="black" d="M52.1461,-71.6966C56.4026,-63.6436 61.5558,-53.8945 66.2664,-44.9824"/>
<polygon fill="black" stroke="black" points="69.3803,-46.5809 70.9591,-36.1043 63.1917,-43.3097 69.3803,-46.5809"/>
<g id="a_edge3&#45;headlabel"><a xlink:href="dir_000026_000013.html" target="_top" xlink:title="2">
<text text-anchor="middle" x="70.2108" y="-48.5857" font-family="Helvetica,sans-Serif" font-size="10.00">2</text>
</a>
</g>
</g>
<!-- dir_fdae21c80ce5e4fc971543ac5388b95f -->
<g id="node3" class="node"><title>dir_fdae21c80ce5e4fc971543ac5388b95f</title>
<g id="a_node3"><a xlink:href="dir_fdae21c80ce5e4fc971543ac5388b95f.html" target="_top" xlink:title="gameplay">
<polygon fill="none" stroke="black" points="147.25,-108 88.75,-108 88.75,-72 147.25,-72 147.25,-108"/>
<text text-anchor="middle" x="118" y="-87.5" font-family="Helvetica,sans-Serif" font-size="10.00">gameplay</text>
</a>
</g>
</g>
<!-- dir_88ff1f755f4b0953e820c0ad2dba9d7b&#45;&gt;dir_fdae21c80ce5e4fc971543ac5388b95f -->
<g id="edge4" class="edge"><title>dir_88ff1f755f4b0953e820c0ad2dba9d7b&#45;&gt;dir_fdae21c80ce5e4fc971543ac5388b95f</title>
<path fill="none" stroke="black" d="M70.2461,-90C72.912,-90 75.578,-90 78.2439,-90"/>
<polygon fill="black" stroke="black" points="78.5269,-93.5001 88.5269,-90 78.5269,-86.5001 78.5269,-93.5001"/>
<g id="a_edge4&#45;headlabel"><a xlink:href="dir_000026_000015.html" target="_top" xlink:title="1">
<text text-anchor="middle" x="74.9323" y="-93.8393" font-family="Helvetica,sans-Serif" font-size="10.00">1</text>
</a>
</g>
</g>
<!-- dir_fdae21c80ce5e4fc971543ac5388b95f&#45;&gt;dir_88ff1f755f4b0953e820c0ad2dba9d7b -->
<g id="edge2" class="edge"><title>dir_fdae21c80ce5e4fc971543ac5388b95f&#45;&gt;dir_88ff1f755f4b0953e820c0ad2dba9d7b</title>
<path fill="none" stroke="black" d="M88.5269,-90C85.8609,-90 83.195,-90 80.529,-90"/>
<polygon fill="black" stroke="black" points="80.2461,-86.5001 70.2461,-90 80.2461,-93.5001 80.2461,-86.5001"/>
<g id="a_edge2&#45;headlabel"><a xlink:href="dir_000015_000026.html" target="_top" xlink:title="1">
<text text-anchor="middle" x="83.8407" y="-81.1607" font-family="Helvetica,sans-Serif" font-size="10.00">1</text>
</a>
</g>
</g>
<!-- dir_fdae21c80ce5e4fc971543ac5388b95f&#45;&gt;dir_31f0790b39fd844a07ea2eaa9d380605 -->
<g id="edge1" class="edge"><title>dir_fdae21c80ce5e4fc971543ac5388b95f&#45;&gt;dir_31f0790b39fd844a07ea2eaa9d380605</title>
<path fill="none" stroke="black" d="M108.607,-71.6966C104.235,-63.6436 98.9427,-53.8945 94.1047,-44.9824"/>
<polygon fill="black" stroke="black" points="97.1322,-43.223 89.2852,-36.1043 90.9802,-46.5627 97.1322,-43.223"/>
<g id="a_edge1&#45;headlabel"><a xlink:href="dir_000015_000013.html" target="_top" xlink:title="5">
<text text-anchor="middle" x="101.342" y="-42.5276" font-family="Helvetica,sans-Serif" font-size="10.00">5</text>
</a>
</g>
</g>
</g>
</svg>
