<?xml version="1.0" encoding="UTF-8" standalone="no"?>
<!DOCTYPE svg PUBLIC "-//W3C//DTD SVG 1.1//EN"
 "http://www.w3.org/Graphics/SVG/1.1/DTD/svg11.dtd">
<!-- Generated by graphviz version 2.36.0 (20140111.2315)
 -->
<!-- Title: Graphical Class Hierarchy Pages: 1 -->
<svg width="294pt" height="48pt"
 viewBox="0.00 0.00 294.00 48.00" xmlns="http://www.w3.org/2000/svg" xmlns:xlink="http://www.w3.org/1999/xlink">
<g id="graph0" class="graph" transform="scale(1 1) rotate(0) translate(4 44)">
<title>Graphical Class Hierarchy</title>
<polygon fill="white" stroke="none" points="-4,4 -4,-44 290,-44 290,4 -4,4"/>
<!-- Node1 -->
<g id="node1" class="node"><title>Node1</title>
<polygon fill="white" stroke="#bfbfbf" points="0.5,-10.5 0.5,-29.5 111.5,-29.5 111.5,-10.5 0.5,-10.5"/>
<text text-anchor="middle" x="56" y="-17.5" font-family="Helvetica,sans-Serif" font-size="10.00">RenderQueueListener</text>
</g>
<!-- Node2 -->
<g id="node2" class="node"><title>Node2</title>
<g id="a_node2"><a xlink:href="class_hydrax_1_1_rtt_manager_1_1_c_reflection_listener_1_1_c_reflection_queue_listener.html" target="_top" xlink:title="Hydrax::RttManager\l::CReflectionListener\l::CReflectionQueueListener">
<polygon fill="white" stroke="black" points="148.5,0.5 148.5,-40.5 285.5,-40.5 285.5,0.5 148.5,0.5"/>
<text text-anchor="start" x="156.5" y="-28.5" font-family="Helvetica,sans-Serif" font-size="10.00">Hydrax::RttManager</text>
<text text-anchor="start" x="156.5" y="-17.5" font-family="Helvetica,sans-Serif" font-size="10.00">::CReflectionListener</text>
<text text-anchor="middle" x="217" y="-6.5" font-family="Helvetica,sans-Serif" font-size="10.00">::CReflectionQueueListener</text>
</a>
</g>
</g>
<!-- Node1&#45;&gt;Node2 -->
<g id="edge1" class="edge"><title>Node1&#45;&gt;Node2</title>
<path fill="none" stroke="midnightblue" d="M121.813,-20C130.529,-20 139.489,-20 148.254,-20"/>
<polygon fill="midnightblue" stroke="midnightblue" points="121.719,-16.5001 111.719,-20 121.719,-23.5001 121.719,-16.5001"/>
</g>
</g>
</svg>
