<?xml version="1.0" encoding="UTF-8" standalone="no"?>
<!DOCTYPE svg PUBLIC "-//W3C//DTD SVG 1.1//EN"
 "http://www.w3.org/Graphics/SVG/1.1/DTD/svg11.dtd">
<!-- Generated by graphviz version 2.36.0 (20140111.2315)
 -->
<!-- Title: Graphical Class Hierarchy Pages: 1 -->
<svg width="598pt" height="169pt"
 viewBox="0.00 0.00 598.00 169.00" xmlns="http://www.w3.org/2000/svg" xmlns:xlink="http://www.w3.org/1999/xlink">
<g id="graph0" class="graph" transform="scale(1 1) rotate(0) translate(4 165)">
<title>Graphical Class Hierarchy</title>
<polygon fill="white" stroke="none" points="-4,4 -4,-165 594,-165 594,4 -4,4"/>
<!-- Node1 -->
<g id="node1" class="node"><title>Node1</title>
<polygon fill="white" stroke="#bfbfbf" points="0,-70.5 0,-89.5 68,-89.5 68,-70.5 0,-70.5"/>
<text text-anchor="middle" x="34" y="-77.5" font-family="Helvetica,sans-Serif" font-size="10.00">TerrainAlloc</text>
</g>
<!-- Node2 -->
<g id="node2" class="node"><title>Node2</title>
<g id="a_node2"><a xlink:href="class_ogre_1_1_terrain_p_s_s_m_material_generator_1_1_s_m2_profile_1_1_shader_helper.html" target="_top" xlink:title="Interface definition for helper class to generate shaders. ">
<polygon fill="white" stroke="black" points="104.5,-59.5 104.5,-100.5 241.5,-100.5 241.5,-59.5 104.5,-59.5"/>
<text text-anchor="start" x="112.5" y="-88.5" font-family="Helvetica,sans-Serif" font-size="10.00">Ogre::TerrainPSSMMaterial</text>
<text text-anchor="start" x="112.5" y="-77.5" font-family="Helvetica,sans-Serif" font-size="10.00">Generator::SM2Profile::</text>
<text text-anchor="middle" x="173" y="-66.5" font-family="Helvetica,sans-Serif" font-size="10.00">ShaderHelper</text>
</a>
</g>
</g>
<!-- Node1&#45;&gt;Node2 -->
<g id="edge1" class="edge"><title>Node1&#45;&gt;Node2</title>
<path fill="none" stroke="midnightblue" d="M78.3656,-80C86.6984,-80 95.6074,-80 104.494,-80"/>
<polygon fill="midnightblue" stroke="midnightblue" points="78.1639,-76.5001 68.1639,-80 78.1638,-83.5001 78.1639,-76.5001"/>
</g>
<!-- Node3 -->
<g id="node3" class="node"><title>Node3</title>
<g id="a_node3"><a xlink:href="class_ogre_1_1_terrain_p_s_s_m_material_generator_1_1_s_m2_profile_1_1_shader_helper_cg.html" target="_top" xlink:title="Utility class to help with generating shaders for Cg / HLSL. ">
<polygon fill="white" stroke="black" points="278.5,-119.5 278.5,-160.5 415.5,-160.5 415.5,-119.5 278.5,-119.5"/>
<text text-anchor="start" x="286.5" y="-148.5" font-family="Helvetica,sans-Serif" font-size="10.00">Ogre::TerrainPSSMMaterial</text>
<text text-anchor="start" x="286.5" y="-137.5" font-family="Helvetica,sans-Serif" font-size="10.00">Generator::SM2Profile::</text>
<text text-anchor="middle" x="347" y="-126.5" font-family="Helvetica,sans-Serif" font-size="10.00">ShaderHelperCg</text>
</a>
</g>
</g>
<!-- Node2&#45;&gt;Node3 -->
<g id="edge2" class="edge"><title>Node2&#45;&gt;Node3</title>
<path fill="none" stroke="midnightblue" d="M242.708,-103.968C257.369,-109.082 272.73,-114.441 286.99,-119.415"/>
<polygon fill="midnightblue" stroke="midnightblue" points="243.787,-100.638 233.193,-100.649 241.482,-107.247 243.787,-100.638"/>
</g>
<!-- Node5 -->
<g id="node5" class="node"><title>Node5</title>
<g id="a_node5"><a xlink:href="class_ogre_1_1_terrain_p_s_s_m_material_generator_1_1_s_m2_profile_1_1_shader_helper_g_l_s_l.html" target="_top" xlink:title="Utility class to help with generating shaders for GLSL. ">
<polygon fill="white" stroke="black" points="278.5,-59.5 278.5,-100.5 415.5,-100.5 415.5,-59.5 278.5,-59.5"/>
<text text-anchor="start" x="286.5" y="-88.5" font-family="Helvetica,sans-Serif" font-size="10.00">Ogre::TerrainPSSMMaterial</text>
<text text-anchor="start" x="286.5" y="-77.5" font-family="Helvetica,sans-Serif" font-size="10.00">Generator::SM2Profile::</text>
<text text-anchor="middle" x="347" y="-66.5" font-family="Helvetica,sans-Serif" font-size="10.00">ShaderHelperGLSL</text>
</a>
</g>
</g>
<!-- Node2&#45;&gt;Node5 -->
<g id="edge4" class="edge"><title>Node2&#45;&gt;Node5</title>
<path fill="none" stroke="midnightblue" d="M252.134,-80C260.846,-80 269.666,-80 278.233,-80"/>
<polygon fill="midnightblue" stroke="midnightblue" points="251.979,-76.5001 241.979,-80 251.979,-83.5001 251.979,-76.5001"/>
</g>
<!-- Node6 -->
<g id="node6" class="node"><title>Node6</title>
<g id="a_node6"><a xlink:href="class_ogre_1_1_terrain_p_s_s_m_material_generator_1_1_s_m2_profile_1_1_shader_helper_g_l_s_l_e_s.html" target="_top" xlink:title="Utility class to help with generating shaders for GLSL ES. ">
<polygon fill="white" stroke="black" points="278.5,0.5 278.5,-40.5 415.5,-40.5 415.5,0.5 278.5,0.5"/>
<text text-anchor="start" x="286.5" y="-28.5" font-family="Helvetica,sans-Serif" font-size="10.00">Ogre::TerrainPSSMMaterial</text>
<text text-anchor="start" x="286.5" y="-17.5" font-family="Helvetica,sans-Serif" font-size="10.00">Generator::SM2Profile::</text>
<text text-anchor="middle" x="347" y="-6.5" font-family="Helvetica,sans-Serif" font-size="10.00">ShaderHelperGLSLES</text>
</a>
</g>
</g>
<!-- Node2&#45;&gt;Node6 -->
<g id="edge5" class="edge"><title>Node2&#45;&gt;Node6</title>
<path fill="none" stroke="midnightblue" d="M242.708,-56.0322C257.369,-50.9177 272.73,-45.5592 286.99,-40.585"/>
<polygon fill="midnightblue" stroke="midnightblue" points="241.482,-52.7529 233.193,-59.3514 243.787,-59.3623 241.482,-52.7529"/>
</g>
<!-- Node4 -->
<g id="node4" class="node"><title>Node4</title>
<g id="a_node4"><a xlink:href="class_ogre_1_1_terrain_p_s_s_m_material_generator_1_1_s_m2_profile_1_1_shader_helper_h_l_s_l.html" target="_top" xlink:title="Ogre::TerrainPSSMMaterial\lGenerator::SM2Profile::\lShaderHelperHLSL">
<polygon fill="white" stroke="black" points="452.5,-119.5 452.5,-160.5 589.5,-160.5 589.5,-119.5 452.5,-119.5"/>
<text text-anchor="start" x="460.5" y="-148.5" font-family="Helvetica,sans-Serif" font-size="10.00">Ogre::TerrainPSSMMaterial</text>
<text text-anchor="start" x="460.5" y="-137.5" font-family="Helvetica,sans-Serif" font-size="10.00">Generator::SM2Profile::</text>
<text text-anchor="middle" x="521" y="-126.5" font-family="Helvetica,sans-Serif" font-size="10.00">ShaderHelperHLSL</text>
</a>
</g>
</g>
<!-- Node3&#45;&gt;Node4 -->
<g id="edge3" class="edge"><title>Node3&#45;&gt;Node4</title>
<path fill="none" stroke="midnightblue" d="M426.134,-140C434.846,-140 443.666,-140 452.233,-140"/>
<polygon fill="midnightblue" stroke="midnightblue" points="425.979,-136.5 415.979,-140 425.979,-143.5 425.979,-136.5"/>
</g>
</g>
</svg>
