<?xml version="1.0" encoding="UTF-8" standalone="no"?>
<!DOCTYPE svg PUBLIC "-//W3C//DTD SVG 1.1//EN"
 "http://www.w3.org/Graphics/SVG/1.1/DTD/svg11.dtd">
<!-- Generated by graphviz version 2.36.0 (20140111.2315)
 -->
<!-- Title: utf8::previous Pages: 1 -->
<!--zoomable 354 -->
<svg id="main" version="1.1" xmlns="http://www.w3.org/2000/svg" xmlns:xlink="http://www.w3.org/1999/xlink" xml:space="preserve" onload="init(evt)">
<style type="text/css"><![CDATA[
.edge:hover path { stroke: red; }
.edge:hover polygon { stroke: red; fill: red; }
]]></style>
<script type="text/javascript"><![CDATA[
var edges = document.getElementsByTagName('g');
if (edges && edges.length) {
  for (var i=0;i<edges.length;i++) {
    if (edges[i].id.substr(0,4)=='edge') {
      edges[i].setAttribute('class','edge');
    }
  }
}
]]></script>
        <defs>
                <circle id="rim" cx="0" cy="0" r="7"/>
                <circle id="rim2" cx="0" cy="0" r="3.5"/>
                <g id="zoomPlus">
                        <use xlink:href="#rim" fill="#404040">
                                <set attributeName="fill" to="#808080" begin="zoomplus.mouseover" end="zoomplus.mouseout"/>
                        </use>
                        <path d="M-4,0h8M0,-4v8" fill="none" stroke="white" stroke-width="1.5" pointer-events="none"/>
                </g>
                <g id="zoomMin">
                        <use xlink:href="#rim" fill="#404040">
                                <set attributeName="fill" to="#808080" begin="zoomminus.mouseover" end="zoomminus.mouseout"/>
                        </use>
                        <path d="M-4,0h8" fill="none" stroke="white" stroke-width="1.5" pointer-events="none"/>
                </g>
                <g id="dirArrow">
                        <path fill="none" stroke="white" stroke-width="1.5" d="M0,-3.0v7 M-2.5,-0.5L0,-3.0L2.5,-0.5"/>
                </g>
               <g id="resetDef">
                       <use xlink:href="#rim2" fill="#404040">
                               <set attributeName="fill" to="#808080" begin="reset.mouseover" end="reset.mouseout"/>
                       </use>
               </g>
        </defs>

<script type="text/javascript">
var viewWidth = 646;
var viewHeight = 354;
var sectionId = 'dynsection-13';
</script>
<script xlink:href="svgpan.js"/>
<svg id="graph" class="graph">
<g id="viewport">
<title>utf8::previous</title>
<polygon fill="white" stroke="none" points="-4,4 -4,-349.726 642,-349.726 642,4 -4,4"/>
<!-- Node1 -->
<g id="node1" class="node"><title>Node1</title>
<polygon fill="#bfbfbf" stroke="black" points="0,-198.5 0,-217.5 76,-217.5 76,-198.5 0,-198.5"/>
<text text-anchor="middle" x="38" y="-205.5" font-family="Helvetica,sans-Serif" font-size="10.00">utf8::previous</text>
</g>
<!-- Node2 -->
<g id="node2" class="node"><title>Node2</title>
<g id="a_node2"><a xlink:href="namespaceutf8_1_1internal.html#ab4820484159ba613b4901476ceb24516" target="_top" xlink:title="utf8::internal::is\l_trail">
<polygon fill="white" stroke="black" points="231,-288 231,-318 315,-318 315,-288 231,-288"/>
<text text-anchor="start" x="239" y="-306" font-family="Helvetica,sans-Serif" font-size="10.00">utf8::internal::is</text>
<text text-anchor="middle" x="273" y="-295" font-family="Helvetica,sans-Serif" font-size="10.00">_trail</text>
</a>
</g>
</g>
<!-- Node1&#45;&gt;Node2 -->
<g id="edge1" class="edge"><title>Node1&#45;&gt;Node2</title>
<path fill="none" stroke="midnightblue" d="M62.6235,-217.632C100.694,-233.154 176.315,-263.987 225.493,-284.038"/>
<polygon fill="midnightblue" stroke="midnightblue" points="224.375,-287.362 234.957,-287.897 227.018,-280.88 224.375,-287.362"/>
</g>
<!-- Node4 -->
<g id="node4" class="node"><title>Node4</title>
<g id="a_node4"><a xlink:href="namespaceutf8.html#afc093dfde66a6f52cb4a5caefe0e580d" target="_top" xlink:title="utf8::next">
<polygon fill="white" stroke="black" points="112,-179.5 112,-198.5 170,-198.5 170,-179.5 112,-179.5"/>
<text text-anchor="middle" x="141" y="-186.5" font-family="Helvetica,sans-Serif" font-size="10.00">utf8::next</text>
</a>
</g>
</g>
<!-- Node1&#45;&gt;Node4 -->
<g id="edge3" class="edge"><title>Node1&#45;&gt;Node4</title>
<path fill="none" stroke="midnightblue" d="M76.0352,-201.033C84.4405,-199.452 93.3827,-197.77 101.834,-196.18"/>
<polygon fill="midnightblue" stroke="midnightblue" points="102.65,-199.588 111.83,-194.299 101.355,-192.708 102.65,-199.588"/>
</g>
<!-- Node3 -->
<g id="node3" class="node"><title>Node3</title>
<g id="a_node3"><a xlink:href="namespaceutf8_1_1internal.html#adf6e0469e279b9562aa461b4c3c1e7e4" target="_top" xlink:title="utf8::internal::mask8">
<polygon fill="white" stroke="black" points="532,-225.5 532,-244.5 638,-244.5 638,-225.5 532,-225.5"/>
<text text-anchor="middle" x="585" y="-232.5" font-family="Helvetica,sans-Serif" font-size="10.00">utf8::internal::mask8</text>
</a>
</g>
</g>
<!-- Node2&#45;&gt;Node3 -->
<g id="edge2" class="edge"><title>Node2&#45;&gt;Node3</title>
<path fill="none" stroke="midnightblue" d="M307.175,-318.127C352,-336.247 433.487,-360.883 496,-333 532.526,-316.708 560.218,-276.934 574.098,-253.368"/>
<polygon fill="midnightblue" stroke="midnightblue" points="577.151,-255.081 579.036,-244.655 571.06,-251.63 577.151,-255.081"/>
</g>
<!-- Node5 -->
<g id="node5" class="node"><title>Node5</title>
<g id="a_node5"><a xlink:href="namespaceutf8_1_1internal.html#abe95547575fcc81911e381df03f8ebfe" target="_top" xlink:title="utf8::internal::validate_next">
<polygon fill="white" stroke="black" points="206,-176.5 206,-195.5 340,-195.5 340,-176.5 206,-176.5"/>
<text text-anchor="middle" x="273" y="-183.5" font-family="Helvetica,sans-Serif" font-size="10.00">utf8::internal::validate_next</text>
</a>
</g>
</g>
<!-- Node4&#45;&gt;Node5 -->
<g id="edge4" class="edge"><title>Node4&#45;&gt;Node5</title>
<path fill="none" stroke="midnightblue" d="M170.208,-188.349C177.913,-188.171 186.645,-187.97 195.679,-187.761"/>
<polygon fill="midnightblue" stroke="midnightblue" points="196.051,-191.254 205.968,-187.524 195.889,-184.256 196.051,-191.254"/>
</g>
<!-- Node6 -->
<g id="node6" class="node"><title>Node6</title>
<g id="a_node6"><a xlink:href="namespaceutf8_1_1internal.html#aadbe437cba7bfcc4df2638f633e9787c" target="_top" xlink:title="utf8::internal::sequence\l_length">
<polygon fill="white" stroke="black" points="376.5,-294 376.5,-324 495.5,-324 495.5,-294 376.5,-294"/>
<text text-anchor="start" x="384.5" y="-312" font-family="Helvetica,sans-Serif" font-size="10.00">utf8::internal::sequence</text>
<text text-anchor="middle" x="436" y="-301" font-family="Helvetica,sans-Serif" font-size="10.00">_length</text>
</a>
</g>
</g>
<!-- Node5&#45;&gt;Node6 -->
<g id="edge5" class="edge"><title>Node5&#45;&gt;Node6</title>
<path fill="none" stroke="midnightblue" d="M281.805,-195.55C297.768,-214.573 336.026,-257.633 376,-284 378.873,-285.895 381.913,-287.697 385.038,-289.401"/>
<polygon fill="midnightblue" stroke="midnightblue" points="383.499,-292.545 394.002,-293.939 386.661,-286.3 383.499,-292.545"/>
</g>
<!-- Node7 -->
<g id="node7" class="node"><title>Node7</title>
<g id="a_node7"><a xlink:href="namespaceutf8_1_1internal.html#a6e5df73716136aec55e8fcf3309038b6" target="_top" xlink:title="get_sequence_x functions decode utf&#45;8 sequences of the length x ">
<polygon fill="white" stroke="black" points="391,-245 391,-275 481,-275 481,-245 391,-245"/>
<text text-anchor="start" x="399" y="-263" font-family="Helvetica,sans-Serif" font-size="10.00">utf8::internal::get</text>
<text text-anchor="middle" x="436" y="-252" font-family="Helvetica,sans-Serif" font-size="10.00">_sequence_1</text>
</a>
</g>
</g>
<!-- Node5&#45;&gt;Node7 -->
<g id="edge7" class="edge"><title>Node5&#45;&gt;Node7</title>
<path fill="none" stroke="midnightblue" d="M293.426,-195.668C313.854,-205.756 346.996,-221.897 376,-235 380.334,-236.958 384.866,-238.959 389.409,-240.935"/>
<polygon fill="midnightblue" stroke="midnightblue" points="388.12,-244.19 398.689,-244.931 390.888,-237.761 388.12,-244.19"/>
</g>
<!-- Node8 -->
<g id="node8" class="node"><title>Node8</title>
<g id="a_node8"><a xlink:href="namespaceutf8_1_1internal.html#a9d641b9546be985f9f0fd4955ac42a24" target="_top" xlink:title="utf8::internal::get\l_sequence_2">
<polygon fill="white" stroke="black" points="391,-196 391,-226 481,-226 481,-196 391,-196"/>
<text text-anchor="start" x="399" y="-214" font-family="Helvetica,sans-Serif" font-size="10.00">utf8::internal::get</text>
<text text-anchor="middle" x="436" y="-203" font-family="Helvetica,sans-Serif" font-size="10.00">_sequence_2</text>
</a>
</g>
</g>
<!-- Node5&#45;&gt;Node8 -->
<g id="edge9" class="edge"><title>Node5&#45;&gt;Node8</title>
<path fill="none" stroke="midnightblue" d="M335.326,-195.523C350.345,-197.855 366.308,-200.334 380.956,-202.608"/>
<polygon fill="midnightblue" stroke="midnightblue" points="380.441,-206.07 390.86,-204.146 381.515,-199.153 380.441,-206.07"/>
</g>
<!-- Node9 -->
<g id="node9" class="node"><title>Node9</title>
<g id="a_node9"><a xlink:href="namespaceutf8_1_1internal.html#ac1809a1fb3fa6983d64a0d3a39646008" target="_top" xlink:title="utf8::internal::get\l_sequence_3">
<polygon fill="white" stroke="black" points="391,-147 391,-177 481,-177 481,-147 391,-147"/>
<text text-anchor="start" x="399" y="-165" font-family="Helvetica,sans-Serif" font-size="10.00">utf8::internal::get</text>
<text text-anchor="middle" x="436" y="-154" font-family="Helvetica,sans-Serif" font-size="10.00">_sequence_3</text>
</a>
</g>
</g>
<!-- Node5&#45;&gt;Node9 -->
<g id="edge11" class="edge"><title>Node5&#45;&gt;Node9</title>
<path fill="none" stroke="midnightblue" d="M338.094,-176.446C352.21,-174.341 367.028,-172.132 380.712,-170.093"/>
<polygon fill="midnightblue" stroke="midnightblue" points="381.55,-173.506 390.925,-168.57 380.518,-166.583 381.55,-173.506"/>
</g>
<!-- Node10 -->
<g id="node10" class="node"><title>Node10</title>
<g id="a_node10"><a xlink:href="namespaceutf8_1_1internal.html#ad1958e7c6746ba6b1fbb0d81b88b346c" target="_top" xlink:title="utf8::internal::get\l_sequence_4">
<polygon fill="white" stroke="black" points="391,-98 391,-128 481,-128 481,-98 391,-98"/>
<text text-anchor="start" x="399" y="-116" font-family="Helvetica,sans-Serif" font-size="10.00">utf8::internal::get</text>
<text text-anchor="middle" x="436" y="-105" font-family="Helvetica,sans-Serif" font-size="10.00">_sequence_4</text>
</a>
</g>
</g>
<!-- Node5&#45;&gt;Node10 -->
<g id="edge13" class="edge"><title>Node5&#45;&gt;Node10</title>
<path fill="none" stroke="midnightblue" d="M293.012,-176.434C313.376,-166.29 346.723,-149.972 376,-137 379.81,-135.312 383.777,-133.6 387.772,-131.909"/>
<polygon fill="midnightblue" stroke="midnightblue" points="389.206,-135.104 397.085,-128.021 386.508,-128.644 389.206,-135.104"/>
</g>
<!-- Node11 -->
<g id="node11" class="node"><title>Node11</title>
<g id="a_node11"><a xlink:href="namespaceutf8_1_1internal.html#a97b553137aaeda6e8ca6f8d46f78fd79" target="_top" xlink:title="utf8::internal::is\l_code_point_valid">
<polygon fill="white" stroke="black" points="388.5,-49 388.5,-79 483.5,-79 483.5,-49 388.5,-49"/>
<text text-anchor="start" x="396.5" y="-67" font-family="Helvetica,sans-Serif" font-size="10.00">utf8::internal::is</text>
<text text-anchor="middle" x="436" y="-56" font-family="Helvetica,sans-Serif" font-size="10.00">_code_point_valid</text>
</a>
</g>
</g>
<!-- Node5&#45;&gt;Node11 -->
<g id="edge15" class="edge"><title>Node5&#45;&gt;Node11</title>
<path fill="none" stroke="midnightblue" d="M281.773,-176.401C297.678,-157.289 335.837,-114.077 376,-88 378.391,-86.4475 380.899,-84.9643 383.476,-83.5521"/>
<polygon fill="midnightblue" stroke="midnightblue" points="385.086,-86.6602 392.434,-79.0274 381.93,-80.412 385.086,-86.6602"/>
</g>
<!-- Node13 -->
<g id="node13" class="node"><title>Node13</title>
<g id="a_node13"><a xlink:href="namespaceutf8_1_1internal.html#a3160f6f24dff465f64f83cb0e66995c6" target="_top" xlink:title="utf8::internal::is\l_overlong_sequence">
<polygon fill="white" stroke="black" points="383,-0 383,-30 489,-30 489,-0 383,-0"/>
<text text-anchor="start" x="391" y="-18" font-family="Helvetica,sans-Serif" font-size="10.00">utf8::internal::is</text>
<text text-anchor="middle" x="436" y="-7" font-family="Helvetica,sans-Serif" font-size="10.00">_overlong_sequence</text>
</a>
</g>
</g>
<!-- Node5&#45;&gt;Node13 -->
<g id="edge17" class="edge"><title>Node5&#45;&gt;Node13</title>
<path fill="none" stroke="midnightblue" d="M278.264,-176.323C290.097,-150.499 325.811,-79.1942 376,-39 377.586,-37.7298 379.248,-36.5184 380.968,-35.3637"/>
<polygon fill="midnightblue" stroke="midnightblue" points="383.124,-38.1552 389.953,-30.0551 379.563,-32.1285 383.124,-38.1552"/>
</g>
<!-- Node6&#45;&gt;Node3 -->
<g id="edge6" class="edge"><title>Node6&#45;&gt;Node3</title>
<path fill="none" stroke="midnightblue" d="M474.098,-293.999C481.421,-290.836 489.003,-287.418 496,-284 517.741,-273.379 541.69,-259.923 559.108,-249.801"/>
<polygon fill="midnightblue" stroke="midnightblue" points="561.197,-252.633 568.057,-244.559 557.659,-246.593 561.197,-252.633"/>
</g>
<!-- Node7&#45;&gt;Node3 -->
<g id="edge8" class="edge"><title>Node7&#45;&gt;Node3</title>
<path fill="none" stroke="midnightblue" d="M481.105,-252.499C493.967,-250.312 508.266,-247.88 522.015,-245.542"/>
<polygon fill="midnightblue" stroke="midnightblue" points="522.629,-248.988 531.9,-243.861 521.455,-242.087 522.629,-248.988"/>
</g>
<!-- Node8&#45;&gt;Node3 -->
<g id="edge10" class="edge"><title>Node8&#45;&gt;Node3</title>
<path fill="none" stroke="midnightblue" d="M481.105,-218.201C493.967,-220.301 508.266,-222.635 522.015,-224.88"/>
<polygon fill="midnightblue" stroke="midnightblue" points="521.467,-228.337 531.9,-226.494 522.595,-221.428 521.467,-228.337"/>
</g>
<!-- Node9&#45;&gt;Node3 -->
<g id="edge12" class="edge"><title>Node9&#45;&gt;Node3</title>
<path fill="none" stroke="midnightblue" d="M476.013,-177.085C482.741,-179.909 489.619,-182.94 496,-186 517.817,-196.464 541.76,-209.932 559.156,-220.099"/>
<polygon fill="midnightblue" stroke="midnightblue" points="557.7,-223.304 568.092,-225.368 561.255,-217.274 557.7,-223.304"/>
</g>
<!-- Node10&#45;&gt;Node3 -->
<g id="edge14" class="edge"><title>Node10&#45;&gt;Node3</title>
<path fill="none" stroke="midnightblue" d="M480.724,-128.132C486.068,-130.739 491.296,-133.693 496,-137 527.919,-159.438 556.381,-195.5 571.816,-217.058"/>
<polygon fill="midnightblue" stroke="midnightblue" points="569.003,-219.142 577.605,-225.327 574.737,-215.128 569.003,-219.142"/>
</g>
<!-- Node12 -->
<g id="node12" class="node"><title>Node12</title>
<g id="a_node12"><a xlink:href="namespaceutf8_1_1internal.html#a31a185a6bc8b9bf454191a8a95a93595" target="_top" xlink:title="utf8::internal::is\l_surrogate">
<polygon fill="white" stroke="black" points="543,-49 543,-79 627,-79 627,-49 543,-49"/>
<text text-anchor="start" x="551" y="-67" font-family="Helvetica,sans-Serif" font-size="10.00">utf8::internal::is</text>
<text text-anchor="middle" x="585" y="-56" font-family="Helvetica,sans-Serif" font-size="10.00">_surrogate</text>
</a>
</g>
</g>
<!-- Node11&#45;&gt;Node12 -->
<g id="edge16" class="edge"><title>Node11&#45;&gt;Node12</title>
<path fill="none" stroke="midnightblue" d="M483.512,-64C499.106,-64 516.582,-64 532.532,-64"/>
<polygon fill="midnightblue" stroke="midnightblue" points="532.759,-67.5001 542.759,-64 532.759,-60.5001 532.759,-67.5001"/>
</g>
</g>
</svg>
        <g id="navigator" transform="translate(0 0)" fill="#404254">
                <rect fill="#f2f5e9" fill-opacity="0.5" stroke="#606060" stroke-width=".5" x="0" y="0" width="60" height="60"/>
                <use id="zoomplus" xlink:href="#zoomPlus" x="17" y="9" onmousedown="handleZoom(evt,'in')"/>
                <use id="zoomminus" xlink:href="#zoomMin" x="42" y="9" onmousedown="handleZoom(evt,'out')"/>
                <use id="reset" xlink:href="#resetDef" x="30" y="36" onmousedown="handleReset()"/>
                <g id="arrowUp" xlink:href="#dirArrow" transform="translate(30 24)" onmousedown="handlePan(0,-1)">
                  <use xlink:href="#rim" fill="#404040">
                        <set attributeName="fill" to="#808080" begin="arrowUp.mouseover" end="arrowUp.mouseout"/>
                  </use>
                  <path fill="none" stroke="white" stroke-width="1.5" d="M0,-3.0v7 M-2.5,-0.5L0,-3.0L2.5,-0.5"/>
                </g>
                <g id="arrowRight" xlink:href="#dirArrow" transform="rotate(90) translate(36 -43)" onmousedown="handlePan(1,0)">
                  <use xlink:href="#rim" fill="#404040">
                        <set attributeName="fill" to="#808080" begin="arrowRight.mouseover" end="arrowRight.mouseout"/>
                  </use>
                  <path fill="none" stroke="white" stroke-width="1.5" d="M0,-3.0v7 M-2.5,-0.5L0,-3.0L2.5,-0.5"/>
                </g>
                <g id="arrowDown" xlink:href="#dirArrow" transform="rotate(180) translate(-30 -48)" onmousedown="handlePan(0,1)">
                  <use xlink:href="#rim" fill="#404040">
                        <set attributeName="fill" to="#808080" begin="arrowDown.mouseover" end="arrowDown.mouseout"/>
                  </use>
                  <path fill="none" stroke="white" stroke-width="1.5" d="M0,-3.0v7 M-2.5,-0.5L0,-3.0L2.5,-0.5"/>
                </g>
                <g id="arrowLeft" xlink:href="#dirArrow" transform="rotate(270) translate(-36 17)" onmousedown="handlePan(-1,0)">
                  <use xlink:href="#rim" fill="#404040">
                        <set attributeName="fill" to="#808080" begin="arrowLeft.mouseover" end="arrowLeft.mouseout"/>
                  </use>
                  <path fill="none" stroke="white" stroke-width="1.5" d="M0,-3.0v7 M-2.5,-0.5L0,-3.0L2.5,-0.5"/>
                </g>
        </g>
        <svg viewBox="0 0 15 15" width="100%" height="30px" preserveAspectRatio="xMaxYMin meet">
         <g id="arrow_out" transform="scale(0.3 0.3)">
          <a xlink:href="namespaceutf8_aedaf9315740d4f25b43c188b02b5bcd0_cgraph_org.svg" target="_base">
           <rect id="button" ry="5" rx="5" y="6" x="6" height="38" width="38"
                fill="#f2f5e9" fill-opacity="0.5" stroke="#606060" stroke-width="1.0"/>
           <path id="arrow"
             d="M 11.500037,31.436501 C 11.940474,20.09759 22.043105,11.32322 32.158766,21.979434 L 37.068811,17.246167 C 37.068811,17.246167 37.088388,32 37.088388,32 L 22.160133,31.978069 C 22.160133,31.978069 26.997745,27.140456 26.997745,27.140456 C 18.528582,18.264221 13.291696,25.230495 11.500037,31.436501 z"
             style="fill:#404040;"/>
          </a>
         </g>
        </svg>
</svg>
