<?xml version="1.0" encoding="UTF-8" standalone="no"?>
<!DOCTYPE svg PUBLIC "-//W3C//DTD SVG 1.1//EN"
 "http://www.w3.org/Graphics/SVG/1.1/DTD/svg11.dtd">
<!-- Generated by graphviz version 2.36.0 (20140111.2315)
 -->
<!-- Title: utf8::peek_next Pages: 1 -->
<svg width="654pt" height="332pt"
 viewBox="0.00 0.00 654.00 332.00" xmlns="http://www.w3.org/2000/svg" xmlns:xlink="http://www.w3.org/1999/xlink">
<g id="graph0" class="graph" transform="scale(1 1) rotate(0) translate(4 328)">
<title>utf8::peek_next</title>
<polygon fill="white" stroke="none" points="-4,4 -4,-328 650,-328 650,4 -4,4"/>
<!-- Node1 -->
<g id="node1" class="node"><title>Node1</title>
<polygon fill="#bfbfbf" stroke="black" points="0,-152.5 0,-171.5 84,-171.5 84,-152.5 0,-152.5"/>
<text text-anchor="middle" x="42" y="-159.5" font-family="Helvetica,sans-Serif" font-size="10.00">utf8::peek_next</text>
</g>
<!-- Node2 -->
<g id="node2" class="node"><title>Node2</title>
<g id="a_node2"><a xlink:href="namespaceutf8.html#afc093dfde66a6f52cb4a5caefe0e580d" target="_top" xlink:title="utf8::next">
<polygon fill="white" stroke="black" points="120,-152.5 120,-171.5 178,-171.5 178,-152.5 120,-152.5"/>
<text text-anchor="middle" x="149" y="-159.5" font-family="Helvetica,sans-Serif" font-size="10.00">utf8::next</text>
</a>
</g>
</g>
<!-- Node1&#45;&gt;Node2 -->
<g id="edge1" class="edge"><title>Node1&#45;&gt;Node2</title>
<path fill="none" stroke="midnightblue" d="M84.1974,-162C92.6,-162 101.408,-162 109.705,-162"/>
<polygon fill="midnightblue" stroke="midnightblue" points="109.871,-165.5 119.871,-162 109.871,-158.5 109.871,-165.5"/>
</g>
<!-- Node3 -->
<g id="node3" class="node"><title>Node3</title>
<g id="a_node3"><a xlink:href="namespaceutf8_1_1internal.html#abe95547575fcc81911e381df03f8ebfe" target="_top" xlink:title="utf8::internal::validate_next">
<polygon fill="white" stroke="black" points="214,-152.5 214,-171.5 348,-171.5 348,-152.5 214,-152.5"/>
<text text-anchor="middle" x="281" y="-159.5" font-family="Helvetica,sans-Serif" font-size="10.00">utf8::internal::validate_next</text>
</a>
</g>
</g>
<!-- Node2&#45;&gt;Node3 -->
<g id="edge2" class="edge"><title>Node2&#45;&gt;Node3</title>
<path fill="none" stroke="midnightblue" d="M178.208,-162C185.913,-162 194.645,-162 203.679,-162"/>
<polygon fill="midnightblue" stroke="midnightblue" points="203.968,-165.5 213.968,-162 203.968,-158.5 203.968,-165.5"/>
</g>
<!-- Node4 -->
<g id="node4" class="node"><title>Node4</title>
<g id="a_node4"><a xlink:href="namespaceutf8_1_1internal.html#aadbe437cba7bfcc4df2638f633e9787c" target="_top" xlink:title="utf8::internal::sequence\l_length">
<polygon fill="white" stroke="black" points="384.5,-294 384.5,-324 503.5,-324 503.5,-294 384.5,-294"/>
<text text-anchor="start" x="392.5" y="-312" font-family="Helvetica,sans-Serif" font-size="10.00">utf8::internal::sequence</text>
<text text-anchor="middle" x="444" y="-301" font-family="Helvetica,sans-Serif" font-size="10.00">_length</text>
</a>
</g>
</g>
<!-- Node3&#45;&gt;Node4 -->
<g id="edge3" class="edge"><title>Node3&#45;&gt;Node4</title>
<path fill="none" stroke="midnightblue" d="M287.719,-171.564C301.588,-194.035 339.189,-250.802 384,-284 386.346,-285.738 388.832,-287.383 391.404,-288.935"/>
<polygon fill="midnightblue" stroke="midnightblue" points="389.947,-292.128 400.4,-293.856 393.306,-285.987 389.947,-292.128"/>
</g>
<!-- Node6 -->
<g id="node6" class="node"><title>Node6</title>
<g id="a_node6"><a xlink:href="namespaceutf8_1_1internal.html#a6e5df73716136aec55e8fcf3309038b6" target="_top" xlink:title="get_sequence_x functions decode utf&#45;8 sequences of the length x ">
<polygon fill="white" stroke="black" points="399,-245 399,-275 489,-275 489,-245 399,-245"/>
<text text-anchor="start" x="407" y="-263" font-family="Helvetica,sans-Serif" font-size="10.00">utf8::internal::get</text>
<text text-anchor="middle" x="444" y="-252" font-family="Helvetica,sans-Serif" font-size="10.00">_sequence_1</text>
</a>
</g>
</g>
<!-- Node3&#45;&gt;Node6 -->
<g id="edge5" class="edge"><title>Node3&#45;&gt;Node6</title>
<path fill="none" stroke="midnightblue" d="M293.672,-171.668C312.054,-186.582 349.24,-215.512 384,-235 387.449,-236.934 391.078,-238.813 394.771,-240.615"/>
<polygon fill="midnightblue" stroke="midnightblue" points="393.47,-243.87 404.012,-244.922 396.427,-237.525 393.47,-243.87"/>
</g>
<!-- Node7 -->
<g id="node7" class="node"><title>Node7</title>
<g id="a_node7"><a xlink:href="namespaceutf8_1_1internal.html#a9d641b9546be985f9f0fd4955ac42a24" target="_top" xlink:title="utf8::internal::get\l_sequence_2">
<polygon fill="white" stroke="black" points="399,-196 399,-226 489,-226 489,-196 399,-196"/>
<text text-anchor="start" x="407" y="-214" font-family="Helvetica,sans-Serif" font-size="10.00">utf8::internal::get</text>
<text text-anchor="middle" x="444" y="-203" font-family="Helvetica,sans-Serif" font-size="10.00">_sequence_2</text>
</a>
</g>
</g>
<!-- Node3&#45;&gt;Node7 -->
<g id="edge7" class="edge"><title>Node3&#45;&gt;Node7</title>
<path fill="none" stroke="midnightblue" d="M313.425,-171.564C334.914,-178.104 363.949,-186.941 389.087,-194.592"/>
<polygon fill="midnightblue" stroke="midnightblue" points="388.279,-198.004 398.865,-197.568 390.317,-191.307 388.279,-198.004"/>
</g>
<!-- Node8 -->
<g id="node8" class="node"><title>Node8</title>
<g id="a_node8"><a xlink:href="namespaceutf8_1_1internal.html#ac1809a1fb3fa6983d64a0d3a39646008" target="_top" xlink:title="utf8::internal::get\l_sequence_3">
<polygon fill="white" stroke="black" points="399,-147 399,-177 489,-177 489,-147 399,-147"/>
<text text-anchor="start" x="407" y="-165" font-family="Helvetica,sans-Serif" font-size="10.00">utf8::internal::get</text>
<text text-anchor="middle" x="444" y="-154" font-family="Helvetica,sans-Serif" font-size="10.00">_sequence_3</text>
</a>
</g>
</g>
<!-- Node3&#45;&gt;Node8 -->
<g id="edge9" class="edge"><title>Node3&#45;&gt;Node8</title>
<path fill="none" stroke="midnightblue" d="M348.414,-162C361.811,-162 375.744,-162 388.668,-162"/>
<polygon fill="midnightblue" stroke="midnightblue" points="388.786,-165.5 398.786,-162 388.786,-158.5 388.786,-165.5"/>
</g>
<!-- Node9 -->
<g id="node9" class="node"><title>Node9</title>
<g id="a_node9"><a xlink:href="namespaceutf8_1_1internal.html#ad1958e7c6746ba6b1fbb0d81b88b346c" target="_top" xlink:title="utf8::internal::get\l_sequence_4">
<polygon fill="white" stroke="black" points="399,-98 399,-128 489,-128 489,-98 399,-98"/>
<text text-anchor="start" x="407" y="-116" font-family="Helvetica,sans-Serif" font-size="10.00">utf8::internal::get</text>
<text text-anchor="middle" x="444" y="-105" font-family="Helvetica,sans-Serif" font-size="10.00">_sequence_4</text>
</a>
</g>
</g>
<!-- Node3&#45;&gt;Node9 -->
<g id="edge11" class="edge"><title>Node3&#45;&gt;Node9</title>
<path fill="none" stroke="midnightblue" d="M313.425,-152.436C334.914,-145.896 363.949,-137.059 389.087,-129.408"/>
<polygon fill="midnightblue" stroke="midnightblue" points="390.317,-132.693 398.865,-126.432 388.279,-125.996 390.317,-132.693"/>
</g>
<!-- Node10 -->
<g id="node10" class="node"><title>Node10</title>
<g id="a_node10"><a xlink:href="namespaceutf8_1_1internal.html#a97b553137aaeda6e8ca6f8d46f78fd79" target="_top" xlink:title="utf8::internal::is\l_code_point_valid">
<polygon fill="white" stroke="black" points="396.5,-49 396.5,-79 491.5,-79 491.5,-49 396.5,-49"/>
<text text-anchor="start" x="404.5" y="-67" font-family="Helvetica,sans-Serif" font-size="10.00">utf8::internal::is</text>
<text text-anchor="middle" x="444" y="-56" font-family="Helvetica,sans-Serif" font-size="10.00">_code_point_valid</text>
</a>
</g>
</g>
<!-- Node3&#45;&gt;Node10 -->
<g id="edge13" class="edge"><title>Node3&#45;&gt;Node10</title>
<path fill="none" stroke="midnightblue" d="M293.672,-152.332C312.054,-137.418 349.24,-108.488 384,-89 387.449,-87.0661 391.078,-85.1873 394.771,-83.3855"/>
<polygon fill="midnightblue" stroke="midnightblue" points="396.427,-86.4749 404.012,-79.0779 393.47,-80.1302 396.427,-86.4749"/>
</g>
<!-- Node12 -->
<g id="node12" class="node"><title>Node12</title>
<g id="a_node12"><a xlink:href="namespaceutf8_1_1internal.html#a3160f6f24dff465f64f83cb0e66995c6" target="_top" xlink:title="utf8::internal::is\l_overlong_sequence">
<polygon fill="white" stroke="black" points="391,-0 391,-30 497,-30 497,-0 391,-0"/>
<text text-anchor="start" x="399" y="-18" font-family="Helvetica,sans-Serif" font-size="10.00">utf8::internal::is</text>
<text text-anchor="middle" x="444" y="-7" font-family="Helvetica,sans-Serif" font-size="10.00">_overlong_sequence</text>
</a>
</g>
</g>
<!-- Node3&#45;&gt;Node12 -->
<g id="edge15" class="edge"><title>Node3&#45;&gt;Node12</title>
<path fill="none" stroke="midnightblue" d="M287.719,-152.436C301.588,-129.965 339.189,-73.1979 384,-40 386.346,-38.2616 388.832,-36.6169 391.404,-35.0649"/>
<polygon fill="midnightblue" stroke="midnightblue" points="393.306,-38.0135 400.4,-30.144 389.947,-31.8721 393.306,-38.0135"/>
</g>
<!-- Node5 -->
<g id="node5" class="node"><title>Node5</title>
<g id="a_node5"><a xlink:href="namespaceutf8_1_1internal.html#adf6e0469e279b9562aa461b4c3c1e7e4" target="_top" xlink:title="utf8::internal::mask8">
<polygon fill="white" stroke="black" points="540,-201.5 540,-220.5 646,-220.5 646,-201.5 540,-201.5"/>
<text text-anchor="middle" x="593" y="-208.5" font-family="Helvetica,sans-Serif" font-size="10.00">utf8::internal::mask8</text>
</a>
</g>
</g>
<!-- Node4&#45;&gt;Node5 -->
<g id="edge4" class="edge"><title>Node4&#45;&gt;Node5</title>
<path fill="none" stroke="midnightblue" d="M485.143,-293.866C491.609,-290.9 498.108,-287.585 504,-284 530.814,-267.684 558.077,-243.673 575.005,-227.697"/>
<polygon fill="midnightblue" stroke="midnightblue" points="577.642,-230.017 582.437,-220.57 572.797,-224.965 577.642,-230.017"/>
</g>
<!-- Node6&#45;&gt;Node5 -->
<g id="edge6" class="edge"><title>Node6&#45;&gt;Node5</title>
<path fill="none" stroke="midnightblue" d="M489.105,-245.298C509.651,-238.45 533.867,-230.378 553.643,-223.786"/>
<polygon fill="midnightblue" stroke="midnightblue" points="554.868,-227.067 563.248,-220.584 552.654,-220.426 554.868,-227.067"/>
</g>
<!-- Node7&#45;&gt;Node5 -->
<g id="edge8" class="edge"><title>Node7&#45;&gt;Node5</title>
<path fill="none" stroke="midnightblue" d="M489.105,-211C501.842,-211 515.989,-211 529.614,-211"/>
<polygon fill="midnightblue" stroke="midnightblue" points="529.9,-214.5 539.9,-211 529.9,-207.5 529.9,-214.5"/>
</g>
<!-- Node8&#45;&gt;Node5 -->
<g id="edge10" class="edge"><title>Node8&#45;&gt;Node5</title>
<path fill="none" stroke="midnightblue" d="M489.105,-176.702C509.651,-183.55 533.867,-191.622 553.643,-198.214"/>
<polygon fill="midnightblue" stroke="midnightblue" points="552.654,-201.574 563.248,-201.416 554.868,-194.933 552.654,-201.574"/>
</g>
<!-- Node9&#45;&gt;Node5 -->
<g id="edge12" class="edge"><title>Node9&#45;&gt;Node5</title>
<path fill="none" stroke="midnightblue" d="M485.143,-128.134C491.609,-131.1 498.108,-134.415 504,-138 530.814,-154.316 558.077,-178.327 575.005,-194.303"/>
<polygon fill="midnightblue" stroke="midnightblue" points="572.797,-197.035 582.437,-201.43 577.642,-191.983 572.797,-197.035"/>
</g>
<!-- Node11 -->
<g id="node11" class="node"><title>Node11</title>
<g id="a_node11"><a xlink:href="namespaceutf8_1_1internal.html#a31a185a6bc8b9bf454191a8a95a93595" target="_top" xlink:title="utf8::internal::is\l_surrogate">
<polygon fill="white" stroke="black" points="551,-49 551,-79 635,-79 635,-49 551,-49"/>
<text text-anchor="start" x="559" y="-67" font-family="Helvetica,sans-Serif" font-size="10.00">utf8::internal::is</text>
<text text-anchor="middle" x="593" y="-56" font-family="Helvetica,sans-Serif" font-size="10.00">_surrogate</text>
</a>
</g>
</g>
<!-- Node10&#45;&gt;Node11 -->
<g id="edge14" class="edge"><title>Node10&#45;&gt;Node11</title>
<path fill="none" stroke="midnightblue" d="M491.512,-64C507.106,-64 524.582,-64 540.532,-64"/>
<polygon fill="midnightblue" stroke="midnightblue" points="540.759,-67.5001 550.759,-64 540.759,-60.5001 540.759,-67.5001"/>
</g>
</g>
</svg>
