<?xml version="1.0" encoding="UTF-8" standalone="no"?>
<!DOCTYPE svg PUBLIC "-//W3C//DTD SVG 1.1//EN"
 "http://www.w3.org/Graphics/SVG/1.1/DTD/svg11.dtd">
<!-- Generated by graphviz version 2.36.0 (20140111.2315)
 -->
<!-- Title: RoR::App::SetIoFFbackEnabled Pages: 1 -->
<svg width="538pt" height="126pt"
 viewBox="0.00 0.00 538.00 126.00" xmlns="http://www.w3.org/2000/svg" xmlns:xlink="http://www.w3.org/1999/xlink">
<g id="graph0" class="graph" transform="scale(1 1) rotate(0) translate(4 122)">
<title>RoR::App::SetIoFFbackEnabled</title>
<polygon fill="white" stroke="none" points="-4,4 -4,-122 534,-122 534,4 -4,4"/>
<!-- Node1 -->
<g id="node1" class="node"><title>Node1</title>
<polygon fill="#bfbfbf" stroke="black" points="0,-49.5 0,-68.5 158,-68.5 158,-49.5 0,-49.5"/>
<text text-anchor="middle" x="79" y="-56.5" font-family="Helvetica,sans-Serif" font-size="10.00">RoR::App::SetIoFFbackEnabled</text>
</g>
<!-- Node2 -->
<g id="node2" class="node"><title>Node2</title>
<g id="a_node2"><a xlink:href="class_ro_r_frame_listener.html#a46c793a3229156a678a3829a6fe59be6" target="_top" xlink:title="RoRFrameListener::Update\lForceFeedback">
<polygon fill="white" stroke="black" points="194.5,-88 194.5,-118 331.5,-118 331.5,-88 194.5,-88"/>
<text text-anchor="start" x="202.5" y="-106" font-family="Helvetica,sans-Serif" font-size="10.00">RoRFrameListener::Update</text>
<text text-anchor="middle" x="263" y="-95" font-family="Helvetica,sans-Serif" font-size="10.00">ForceFeedback</text>
</a>
</g>
</g>
<!-- Node1&#45;&gt;Node2 -->
<g id="edge1" class="edge"><title>Node1&#45;&gt;Node2</title>
<path fill="none" stroke="midnightblue" d="M129.45,-70.955C151.101,-76.1892 176.747,-82.3893 199.684,-87.9346"/>
<polygon fill="midnightblue" stroke="midnightblue" points="130.034,-67.4953 119.491,-68.5473 128.389,-74.2993 130.034,-67.4953"/>
</g>
<!-- Node4 -->
<g id="node4" class="node"><title>Node4</title>
<g id="a_node4"><a xlink:href="main_8cpp.html#a0ddf1224851353fc92bfbff6f499fa97" target="_top" xlink:title="main">
<polygon fill="white" stroke="black" points="244,-49.5 244,-68.5 282,-68.5 282,-49.5 244,-49.5"/>
<text text-anchor="middle" x="263" y="-56.5" font-family="Helvetica,sans-Serif" font-size="10.00">main</text>
</a>
</g>
</g>
<!-- Node1&#45;&gt;Node4 -->
<g id="edge3" class="edge"><title>Node1&#45;&gt;Node4</title>
<path fill="none" stroke="midnightblue" d="M168.291,-59C196.798,-59 225.66,-59 243.674,-59"/>
<polygon fill="midnightblue" stroke="midnightblue" points="168.241,-55.5001 158.241,-59 168.241,-62.5001 168.241,-55.5001"/>
</g>
<!-- Node6 -->
<g id="node6" class="node"><title>Node6</title>
<g id="a_node6"><a xlink:href="class_settings.html#aa27b8db941ea9fa77ffff67c80b1d5be" target="_top" xlink:title="Settings::ParseGlobalVar\lSetting">
<polygon fill="white" stroke="black" points="199.5,-0 199.5,-30 326.5,-30 326.5,-0 199.5,-0"/>
<text text-anchor="start" x="207.5" y="-18" font-family="Helvetica,sans-Serif" font-size="10.00">Settings::ParseGlobalVar</text>
<text text-anchor="middle" x="263" y="-7" font-family="Helvetica,sans-Serif" font-size="10.00">Setting</text>
</a>
</g>
</g>
<!-- Node1&#45;&gt;Node6 -->
<g id="edge5" class="edge"><title>Node1&#45;&gt;Node6</title>
<path fill="none" stroke="midnightblue" d="M129.45,-47.045C151.101,-41.8108 176.747,-35.6107 199.684,-30.0654"/>
<polygon fill="midnightblue" stroke="midnightblue" points="128.389,-43.7007 119.491,-49.4527 130.034,-50.5047 128.389,-43.7007"/>
</g>
<!-- Node3 -->
<g id="node3" class="node"><title>Node3</title>
<g id="a_node3"><a xlink:href="class_ro_r_frame_listener.html#acd8647e188fb8e838689492965b86faf" target="_top" xlink:title="RoRFrameListener::frameStarted">
<polygon fill="white" stroke="black" points="368.5,-93.5 368.5,-112.5 529.5,-112.5 529.5,-93.5 368.5,-93.5"/>
<text text-anchor="middle" x="449" y="-100.5" font-family="Helvetica,sans-Serif" font-size="10.00">RoRFrameListener::frameStarted</text>
</a>
</g>
</g>
<!-- Node2&#45;&gt;Node3 -->
<g id="edge2" class="edge"><title>Node2&#45;&gt;Node3</title>
<path fill="none" stroke="midnightblue" d="M341.879,-103C350.608,-103 359.511,-103 368.263,-103"/>
<polygon fill="midnightblue" stroke="midnightblue" points="341.731,-99.5001 331.731,-103 341.731,-106.5 341.731,-99.5001"/>
</g>
<!-- Node5 -->
<g id="node5" class="node"><title>Node5</title>
<g id="a_node5"><a xlink:href="main_8cpp.html#a2922bc5d5c2d77a3020cfbf9df12aab0" target="_top" xlink:title="WinMain">
<polygon fill="white" stroke="black" points="421.5,-49.5 421.5,-68.5 476.5,-68.5 476.5,-49.5 421.5,-49.5"/>
<text text-anchor="middle" x="449" y="-56.5" font-family="Helvetica,sans-Serif" font-size="10.00">WinMain</text>
</a>
</g>
</g>
<!-- Node4&#45;&gt;Node5 -->
<g id="edge4" class="edge"><title>Node4&#45;&gt;Node5</title>
<path fill="none" stroke="midnightblue" d="M292.38,-59C327.493,-59 386.831,-59 421.199,-59"/>
<polygon fill="midnightblue" stroke="midnightblue" points="292.315,-55.5001 282.315,-59 292.315,-62.5001 292.315,-55.5001"/>
</g>
</g>
</svg>
