<?xml version="1.0" encoding="UTF-8" standalone="no"?>
<!DOCTYPE svg PUBLIC "-//W3C//DTD SVG 1.1//EN"
 "http://www.w3.org/Graphics/SVG/1.1/DTD/svg11.dtd">
<!-- Generated by graphviz version 2.36.0 (20140111.2315)
 -->
<!-- Title: RoR::App::GetGfxWaterUseWaves Pages: 1 -->
<svg width="832pt" height="256pt"
 viewBox="0.00 0.00 832.00 256.00" xmlns="http://www.w3.org/2000/svg" xmlns:xlink="http://www.w3.org/1999/xlink">
<g id="graph0" class="graph" transform="scale(1 1) rotate(0) translate(4 252)">
<title>RoR::App::GetGfxWaterUseWaves</title>
<polygon fill="white" stroke="none" points="-4,4 -4,-252 828,-252 828,4 -4,4"/>
<!-- Node1 -->
<g id="node1" class="node"><title>Node1</title>
<polygon fill="#bfbfbf" stroke="black" points="0,-109 0,-139 142,-139 142,-109 0,-109"/>
<text text-anchor="start" x="8" y="-127" font-family="Helvetica,sans-Serif" font-size="10.00">RoR::App::GetGfxWaterUse</text>
<text text-anchor="middle" x="71" y="-116" font-family="Helvetica,sans-Serif" font-size="10.00">Waves</text>
</g>
<!-- Node2 -->
<g id="node2" class="node"><title>Node2</title>
<g id="a_node2"><a xlink:href="class_hydrax_water.html#a36642d573b3e8e5e335f55b7a6008369" target="_top" xlink:title="HydraxWater::getHeightWaves">
<polygon fill="white" stroke="black" points="178.5,-228.5 178.5,-247.5 331.5,-247.5 331.5,-228.5 178.5,-228.5"/>
<text text-anchor="middle" x="255" y="-235.5" font-family="Helvetica,sans-Serif" font-size="10.00">HydraxWater::getHeightWaves</text>
</a>
</g>
</g>
<!-- Node1&#45;&gt;Node2 -->
<g id="edge1" class="edge"><title>Node1&#45;&gt;Node2</title>
<path fill="none" stroke="midnightblue" d="M91.3473,-146.842C110.999,-168.586 143.394,-200.637 178,-219 185.328,-222.889 193.48,-226.003 201.645,-228.491"/>
<polygon fill="midnightblue" stroke="midnightblue" points="93.9541,-144.506 84.7033,-139.341 88.7143,-149.148 93.9541,-144.506"/>
</g>
<!-- Node4 -->
<g id="node4" class="node"><title>Node4</title>
<g id="a_node4"><a xlink:href="class_hydrax_water.html#a8b322b9590a56e3c1b3e54eae6041a31" target="_top" xlink:title="HydraxWater::getVelocity">
<polygon fill="white" stroke="black" points="190.5,-190.5 190.5,-209.5 319.5,-209.5 319.5,-190.5 190.5,-190.5"/>
<text text-anchor="middle" x="255" y="-197.5" font-family="Helvetica,sans-Serif" font-size="10.00">HydraxWater::getVelocity</text>
</a>
</g>
</g>
<!-- Node1&#45;&gt;Node4 -->
<g id="edge3" class="edge"><title>Node1&#45;&gt;Node4</title>
<path fill="none" stroke="midnightblue" d="M108.933,-143.819C129.025,-154.165 154.51,-166.591 178,-176 191.487,-181.402 206.696,-186.41 219.945,-190.439"/>
<polygon fill="midnightblue" stroke="midnightblue" points="110.308,-140.589 99.8213,-139.08 107.078,-146.799 110.308,-140.589"/>
</g>
<!-- Node5 -->
<g id="node5" class="node"><title>Node5</title>
<g id="a_node5"><a xlink:href="class_water.html#a18fce2c0b2c45ee4ea8e413fcb4bdafa" target="_top" xlink:title="Water::update">
<polygon fill="white" stroke="black" points="583,-114.5 583,-133.5 661,-133.5 661,-114.5 583,-114.5"/>
<text text-anchor="middle" x="622" y="-121.5" font-family="Helvetica,sans-Serif" font-size="10.00">Water::update</text>
</a>
</g>
</g>
<!-- Node1&#45;&gt;Node5 -->
<g id="edge4" class="edge"><title>Node1&#45;&gt;Node5</title>
<path fill="none" stroke="midnightblue" d="M152.292,-139.933C160.941,-141.188 169.634,-142.256 178,-143 325.861,-156.147 364.108,-155.793 512,-143 535.73,-140.947 562.046,-136.425 582.874,-132.308"/>
<polygon fill="midnightblue" stroke="midnightblue" points="152.597,-136.439 142.182,-138.382 151.535,-143.358 152.597,-136.439"/>
</g>
<!-- Node7 -->
<g id="node7" class="node"><title>Node7</title>
<g id="a_node7"><a xlink:href="class_water.html#ae0ff5f204633423eb3d8f825940b0c94" target="_top" xlink:title="Water::getHeightWaves">
<polygon fill="white" stroke="black" points="194,-114.5 194,-133.5 316,-133.5 316,-114.5 194,-114.5"/>
<text text-anchor="middle" x="255" y="-121.5" font-family="Helvetica,sans-Serif" font-size="10.00">Water::getHeightWaves</text>
</a>
</g>
</g>
<!-- Node1&#45;&gt;Node7 -->
<g id="edge6" class="edge"><title>Node1&#45;&gt;Node7</title>
<path fill="none" stroke="midnightblue" d="M152.239,-124C166.266,-124 180.639,-124 193.999,-124"/>
<polygon fill="midnightblue" stroke="midnightblue" points="152.106,-120.5 142.106,-124 152.106,-127.5 152.106,-120.5"/>
</g>
<!-- Node12 -->
<g id="node12" class="node"><title>Node12</title>
<g id="a_node12"><a xlink:href="class_water.html#a0db95eef32723c8f87d52ff9b3064b7a" target="_top" xlink:title="Water::isUnderWater">
<polygon fill="white" stroke="black" points="385.5,-38.5 385.5,-57.5 494.5,-57.5 494.5,-38.5 385.5,-38.5"/>
<text text-anchor="middle" x="440" y="-45.5" font-family="Helvetica,sans-Serif" font-size="10.00">Water::isUnderWater</text>
</a>
</g>
</g>
<!-- Node1&#45;&gt;Node12 -->
<g id="edge14" class="edge"><title>Node1&#45;&gt;Node12</title>
<path fill="none" stroke="midnightblue" d="M152.505,-107.329C226.235,-92.0603 332.777,-69.9972 392.997,-57.5265"/>
<polygon fill="midnightblue" stroke="midnightblue" points="151.41,-103.981 142.327,-109.436 152.829,-110.836 151.41,-103.981"/>
</g>
<!-- Node13 -->
<g id="node13" class="node"><title>Node13</title>
<g id="a_node13"><a xlink:href="class_water.html#a924fc07bcc72dbbdb9206597deacbec3" target="_top" xlink:title="Water::getVelocity">
<polygon fill="white" stroke="black" points="206,-38.5 206,-57.5 304,-57.5 304,-38.5 206,-38.5"/>
<text text-anchor="middle" x="255" y="-45.5" font-family="Helvetica,sans-Serif" font-size="10.00">Water::getVelocity</text>
</a>
</g>
</g>
<!-- Node1&#45;&gt;Node13 -->
<g id="edge15" class="edge"><title>Node1&#45;&gt;Node13</title>
<path fill="none" stroke="midnightblue" d="M108.933,-104.181C129.025,-93.8354 154.51,-81.4089 178,-72 191.487,-66.5979 206.696,-61.5897 219.945,-57.5611"/>
<polygon fill="midnightblue" stroke="midnightblue" points="107.078,-101.201 99.8213,-108.92 110.308,-107.411 107.078,-101.201"/>
</g>
<!-- Node14 -->
<g id="node14" class="node"><title>Node14</title>
<g id="a_node14"><a xlink:href="class_settings.html#a19d1e2e2df8600f7e2cd1c64363fe60f" target="_top" xlink:title="Settings::SaveSettings">
<polygon fill="white" stroke="black" points="196.5,-0.5 196.5,-19.5 313.5,-19.5 313.5,-0.5 196.5,-0.5"/>
<text text-anchor="middle" x="255" y="-7.5" font-family="Helvetica,sans-Serif" font-size="10.00">Settings::SaveSettings</text>
</a>
</g>
</g>
<!-- Node1&#45;&gt;Node14 -->
<g id="edge16" class="edge"><title>Node1&#45;&gt;Node14</title>
<path fill="none" stroke="midnightblue" d="M91.3473,-101.158C110.999,-79.4142 143.394,-47.3631 178,-29 185.328,-25.1113 193.48,-21.997 201.645,-19.5089"/>
<polygon fill="midnightblue" stroke="midnightblue" points="88.7143,-98.8524 84.7033,-108.659 93.9541,-103.494 88.7143,-98.8524"/>
</g>
<!-- Node3 -->
<g id="node3" class="node"><title>Node3</title>
<g id="a_node3"><a xlink:href="class_hydrax_water.html#afcb960bc4cdb254b1841780c887b5733" target="_top" xlink:title="HydraxWater::isUnderWater">
<polygon fill="white" stroke="black" points="370,-228.5 370,-247.5 510,-247.5 510,-228.5 370,-228.5"/>
<text text-anchor="middle" x="440" y="-235.5" font-family="Helvetica,sans-Serif" font-size="10.00">HydraxWater::isUnderWater</text>
</a>
</g>
</g>
<!-- Node2&#45;&gt;Node3 -->
<g id="edge2" class="edge"><title>Node2&#45;&gt;Node3</title>
<path fill="none" stroke="midnightblue" d="M341.852,-238C351.203,-238 360.634,-238 369.75,-238"/>
<polygon fill="midnightblue" stroke="midnightblue" points="341.754,-234.5 331.754,-238 341.754,-241.5 341.754,-234.5"/>
</g>
<!-- Node6 -->
<g id="node6" class="node"><title>Node6</title>
<g id="a_node6"><a xlink:href="class_water.html#ab3c688bc459bf677f8a235cd42c9daae" target="_top" xlink:title="Water::framestep">
<polygon fill="white" stroke="black" points="732,-114.5 732,-133.5 824,-133.5 824,-114.5 732,-114.5"/>
<text text-anchor="middle" x="778" y="-121.5" font-family="Helvetica,sans-Serif" font-size="10.00">Water::framestep</text>
</a>
</g>
</g>
<!-- Node5&#45;&gt;Node6 -->
<g id="edge5" class="edge"><title>Node5&#45;&gt;Node6</title>
<path fill="none" stroke="midnightblue" d="M671.224,-124C690.64,-124 712.906,-124 731.986,-124"/>
<polygon fill="midnightblue" stroke="midnightblue" points="671.067,-120.5 661.067,-124 671.067,-127.5 671.067,-120.5"/>
</g>
<!-- Node8 -->
<g id="node8" class="node"><title>Node8</title>
<g id="a_node8"><a xlink:href="class_water.html#a633f92602bfc1703ef295e9b74da8720" target="_top" xlink:title="Water::showWave">
<polygon fill="white" stroke="black" points="391,-114.5 391,-133.5 489,-133.5 489,-114.5 391,-114.5"/>
<text text-anchor="middle" x="440" y="-121.5" font-family="Helvetica,sans-Serif" font-size="10.00">Water::showWave</text>
</a>
</g>
</g>
<!-- Node7&#45;&gt;Node8 -->
<g id="edge7" class="edge"><title>Node7&#45;&gt;Node8</title>
<path fill="none" stroke="midnightblue" d="M326.297,-124C347.911,-124 371.194,-124 390.956,-124"/>
<polygon fill="midnightblue" stroke="midnightblue" points="326.175,-120.5 316.175,-124 326.174,-127.5 326.175,-120.5"/>
</g>
<!-- Node9 -->
<g id="node9" class="node"><title>Node9</title>
<g id="a_node9"><a xlink:href="class_water.html#ae34d81740dfa630804c1285fdd6bc25b" target="_top" xlink:title="Water::isCameraUnderWater">
<polygon fill="white" stroke="black" points="368.5,-76.5 368.5,-95.5 511.5,-95.5 511.5,-76.5 368.5,-76.5"/>
<text text-anchor="middle" x="440" y="-83.5" font-family="Helvetica,sans-Serif" font-size="10.00">Water::isCameraUnderWater</text>
</a>
</g>
</g>
<!-- Node7&#45;&gt;Node9 -->
<g id="edge9" class="edge"><title>Node7&#45;&gt;Node9</title>
<path fill="none" stroke="midnightblue" d="M312.253,-112.319C338.205,-106.93 368.622,-100.614 393.153,-95.5201"/>
<polygon fill="midnightblue" stroke="midnightblue" points="311.258,-108.951 302.179,-114.411 312.681,-115.805 311.258,-108.951"/>
</g>
<!-- Node7&#45;&gt;Node12 -->
<g id="edge13" class="edge"><title>Node7&#45;&gt;Node12</title>
<path fill="none" stroke="midnightblue" d="M307.211,-111.217C315.765,-108.138 324.34,-104.426 332,-100 350.794,-89.1415 348.97,-77.4386 368,-67 375.048,-63.1339 382.927,-60.0199 390.801,-57.5221"/>
<polygon fill="midnightblue" stroke="midnightblue" points="305.984,-107.937 297.611,-114.428 308.205,-114.575 305.984,-107.937"/>
</g>
<!-- Node8&#45;&gt;Node5 -->
<g id="edge8" class="edge"><title>Node8&#45;&gt;Node5</title>
<path fill="none" stroke="midnightblue" d="M499.485,-124C526.859,-124 558.686,-124 582.899,-124"/>
<polygon fill="midnightblue" stroke="midnightblue" points="499.237,-120.5 489.237,-124 499.237,-127.5 499.237,-120.5"/>
</g>
<!-- Node9&#45;&gt;Node5 -->
<g id="edge10" class="edge"><title>Node9&#45;&gt;Node5</title>
<path fill="none" stroke="midnightblue" d="M496.483,-97.7131C524.507,-103.629 557.792,-110.656 582.895,-115.956"/>
<polygon fill="midnightblue" stroke="midnightblue" points="496.929,-94.2301 486.422,-95.589 495.483,-101.079 496.929,-94.2301"/>
</g>
<!-- Node10 -->
<g id="node10" class="node"><title>Node10</title>
<g id="a_node10"><a xlink:href="class_water.html#a9a733ea131931c7625bbbcfb6c10d939" target="_top" xlink:title="Water::updateReflectionPlane">
<polygon fill="white" stroke="black" points="548.5,-76.5 548.5,-95.5 695.5,-95.5 695.5,-76.5 548.5,-76.5"/>
<text text-anchor="middle" x="622" y="-83.5" font-family="Helvetica,sans-Serif" font-size="10.00">Water::updateReflectionPlane</text>
</a>
</g>
</g>
<!-- Node9&#45;&gt;Node10 -->
<g id="edge11" class="edge"><title>Node9&#45;&gt;Node10</title>
<path fill="none" stroke="midnightblue" d="M521.857,-86C530.637,-86 539.535,-86 548.211,-86"/>
<polygon fill="midnightblue" stroke="midnightblue" points="521.624,-82.5001 511.624,-86 521.624,-89.5001 521.624,-82.5001"/>
</g>
<!-- Node11 -->
<g id="node11" class="node"><title>Node11</title>
<g id="a_node11"><a xlink:href="class_water.html#a13622d0f0f5a4c2c0504d4df580f1aa8" target="_top" xlink:title="Water::moveTo">
<polygon fill="white" stroke="black" points="736,-76.5 736,-95.5 820,-95.5 820,-76.5 736,-76.5"/>
<text text-anchor="middle" x="778" y="-83.5" font-family="Helvetica,sans-Serif" font-size="10.00">Water::moveTo</text>
</a>
</g>
</g>
<!-- Node10&#45;&gt;Node11 -->
<g id="edge12" class="edge"><title>Node10&#45;&gt;Node11</title>
<path fill="none" stroke="midnightblue" d="M706.208,-86C716.453,-86 726.551,-86 735.769,-86"/>
<polygon fill="midnightblue" stroke="midnightblue" points="705.941,-82.5001 695.941,-86 705.941,-89.5001 705.941,-82.5001"/>
</g>
<!-- Node15 -->
<g id="node15" class="node"><title>Node15</title>
<g id="a_node15"><a xlink:href="main_8cpp.html#a0ddf1224851353fc92bfbff6f499fa97" target="_top" xlink:title="main">
<polygon fill="white" stroke="black" points="421,-0.5 421,-19.5 459,-19.5 459,-0.5 421,-0.5"/>
<text text-anchor="middle" x="440" y="-7.5" font-family="Helvetica,sans-Serif" font-size="10.00">main</text>
</a>
</g>
</g>
<!-- Node14&#45;&gt;Node15 -->
<g id="edge17" class="edge"><title>Node14&#45;&gt;Node15</title>
<path fill="none" stroke="midnightblue" d="M323.777,-10C358.524,-10 398.174,-10 420.732,-10"/>
<polygon fill="midnightblue" stroke="midnightblue" points="323.651,-6.5001 313.651,-10 323.651,-13.5001 323.651,-6.5001"/>
</g>
<!-- Node16 -->
<g id="node16" class="node"><title>Node16</title>
<g id="a_node16"><a xlink:href="main_8cpp.html#a2922bc5d5c2d77a3020cfbf9df12aab0" target="_top" xlink:title="WinMain">
<polygon fill="white" stroke="black" points="594.5,-0.5 594.5,-19.5 649.5,-19.5 649.5,-0.5 594.5,-0.5"/>
<text text-anchor="middle" x="622" y="-7.5" font-family="Helvetica,sans-Serif" font-size="10.00">WinMain</text>
</a>
</g>
</g>
<!-- Node15&#45;&gt;Node16 -->
<g id="edge18" class="edge"><title>Node15&#45;&gt;Node16</title>
<path fill="none" stroke="midnightblue" d="M469.516,-10C503.782,-10 560.828,-10 594.276,-10"/>
<polygon fill="midnightblue" stroke="midnightblue" points="469.25,-6.5001 459.25,-10 469.25,-13.5001 469.25,-6.5001"/>
</g>
</g>
</svg>
