<?xml version="1.0" encoding="UTF-8" standalone="no"?>
<!DOCTYPE svg PUBLIC "-//W3C//DTD SVG 1.1//EN"
 "http://www.w3.org/Graphics/SVG/1.1/DTD/svg11.dtd">
<!-- Generated by graphviz version 2.36.0 (20140111.2315)
 -->
<!-- Title: RoR::App::GetGfxWaterMode Pages: 1 -->
<!--zoomable 253 -->
<svg id="main" version="1.1" xmlns="http://www.w3.org/2000/svg" xmlns:xlink="http://www.w3.org/1999/xlink" xml:space="preserve" onload="init(evt)">
<style type="text/css"><![CDATA[
.edge:hover path { stroke: red; }
.edge:hover polygon { stroke: red; fill: red; }
]]></style>
<script type="text/javascript"><![CDATA[
var edges = document.getElementsByTagName('g');
if (edges && edges.length) {
  for (var i=0;i<edges.length;i++) {
    if (edges[i].id.substr(0,4)=='edge') {
      edges[i].setAttribute('class','edge');
    }
  }
}
]]></script>
        <defs>
                <circle id="rim" cx="0" cy="0" r="7"/>
                <circle id="rim2" cx="0" cy="0" r="3.5"/>
                <g id="zoomPlus">
                        <use xlink:href="#rim" fill="#404040">
                                <set attributeName="fill" to="#808080" begin="zoomplus.mouseover" end="zoomplus.mouseout"/>
                        </use>
                        <path d="M-4,0h8M0,-4v8" fill="none" stroke="white" stroke-width="1.5" pointer-events="none"/>
                </g>
                <g id="zoomMin">
                        <use xlink:href="#rim" fill="#404040">
                                <set attributeName="fill" to="#808080" begin="zoomminus.mouseover" end="zoomminus.mouseout"/>
                        </use>
                        <path d="M-4,0h8" fill="none" stroke="white" stroke-width="1.5" pointer-events="none"/>
                </g>
                <g id="dirArrow">
                        <path fill="none" stroke="white" stroke-width="1.5" d="M0,-3.0v7 M-2.5,-0.5L0,-3.0L2.5,-0.5"/>
                </g>
               <g id="resetDef">
                       <use xlink:href="#rim2" fill="#404040">
                               <set attributeName="fill" to="#808080" begin="reset.mouseover" end="reset.mouseout"/>
                       </use>
               </g>
        </defs>

<script type="text/javascript">
var viewWidth = 1290;
var viewHeight = 253;
var sectionId = 'dynsection-55';
</script>
<script xlink:href="svgpan.js"/>
<svg id="graph" class="graph">
<g id="viewport">
<title>RoR::App::GetGfxWaterMode</title>
<polygon fill="white" stroke="none" points="-4,4 -4,-248.979 1286,-248.979 1286,4 -4,4"/>
<!-- Node1 -->
<g id="node1" class="node"><title>Node1</title>
<polygon fill="#bfbfbf" stroke="black" points="0,-114.5 0,-133.5 148,-133.5 148,-114.5 0,-114.5"/>
<text text-anchor="middle" x="74" y="-121.5" font-family="Helvetica,sans-Serif" font-size="10.00">RoR::App::GetGfxWaterMode</text>
</g>
<!-- Node2 -->
<g id="node2" class="node"><title>Node2</title>
<g id="a_node2"><a xlink:href="class_ro_r_frame_listener.html#aca3931d7a75f2ad4b9d36c4fcd03a3c9" target="_top" xlink:title="RoRFrameListener::SetupGameplayLoop">
<polygon fill="white" stroke="black" points="920,-57.5 920,-76.5 1116,-76.5 1116,-57.5 920,-57.5"/>
<text text-anchor="middle" x="1018" y="-64.5" font-family="Helvetica,sans-Serif" font-size="10.00">RoRFrameListener::SetupGameplayLoop</text>
</a>
</g>
</g>
<!-- Node1&#45;&gt;Node2 -->
<g id="edge1" class="edge"><title>Node1&#45;&gt;Node2</title>
<path fill="none" stroke="midnightblue" d="M88.7604,-141.547C107.546,-164.024 143.543,-202.089 184,-219 288.038,-262.487 324.239,-238 437,-238 437,-238 437,-238 624,-238 786.954,-238 958.712,-112.858 1004.96,-76.6837"/>
<polygon fill="midnightblue" stroke="midnightblue" points="91.4582,-139.317 82.4298,-133.773 86.0302,-143.738 91.4582,-139.317"/>
</g>
<!-- Node5 -->
<g id="node5" class="node"><title>Node5</title>
<g id="a_node5"><a xlink:href="class_water.html#a98d7cc8713ec87e65c7fa85775d13fc2" target="_top" xlink:title="Water::processWater">
<polygon fill="white" stroke="black" points="198,-190.5 198,-209.5 308,-209.5 308,-190.5 198,-190.5"/>
<text text-anchor="middle" x="253" y="-197.5" font-family="Helvetica,sans-Serif" font-size="10.00">Water::processWater</text>
</a>
</g>
</g>
<!-- Node1&#45;&gt;Node5 -->
<g id="edge4" class="edge"><title>Node1&#45;&gt;Node5</title>
<path fill="none" stroke="midnightblue" d="M99.5936,-138.766C121.239,-151.294 153.907,-169.08 184,-181 193.003,-184.566 202.925,-187.741 212.342,-190.426"/>
<polygon fill="midnightblue" stroke="midnightblue" points="101.15,-135.622 90.7526,-133.586 97.6113,-141.661 101.15,-135.622"/>
</g>
<!-- Node7 -->
<g id="node7" class="node"><title>Node7</title>
<g id="a_node7"><a xlink:href="class_water.html#a13622d0f0f5a4c2c0504d4df580f1aa8" target="_top" xlink:title="Water::moveTo">
<polygon fill="white" stroke="black" points="211,-152.5 211,-171.5 295,-171.5 295,-152.5 211,-152.5"/>
<text text-anchor="middle" x="253" y="-159.5" font-family="Helvetica,sans-Serif" font-size="10.00">Water::moveTo</text>
</a>
</g>
</g>
<!-- Node1&#45;&gt;Node7 -->
<g id="edge6" class="edge"><title>Node1&#45;&gt;Node7</title>
<path fill="none" stroke="midnightblue" d="M129.48,-135.696C155.755,-141.337 186.749,-147.991 210.99,-153.195"/>
<polygon fill="midnightblue" stroke="midnightblue" points="130.176,-132.266 119.665,-133.589 128.707,-139.11 130.176,-132.266"/>
</g>
<!-- Node8 -->
<g id="node8" class="node"><title>Node8</title>
<g id="a_node8"><a xlink:href="class_water.html#a18fce2c0b2c45ee4ea8e413fcb4bdafa" target="_top" xlink:title="Water::update">
<polygon fill="white" stroke="black" points="214,-114.5 214,-133.5 292,-133.5 292,-114.5 214,-114.5"/>
<text text-anchor="middle" x="253" y="-121.5" font-family="Helvetica,sans-Serif" font-size="10.00">Water::update</text>
</a>
</g>
</g>
<!-- Node1&#45;&gt;Node8 -->
<g id="edge7" class="edge"><title>Node1&#45;&gt;Node8</title>
<path fill="none" stroke="midnightblue" d="M158.094,-124C177.466,-124 197.184,-124 213.519,-124"/>
<polygon fill="midnightblue" stroke="midnightblue" points="158.015,-120.5 148.015,-124 158.015,-127.5 158.015,-120.5"/>
</g>
<!-- Node10 -->
<g id="node10" class="node"><title>Node10</title>
<g id="a_node10"><a xlink:href="class_terrain_manager.html#a2cdad8445ca98a9275d600d2fd2309ec" target="_top" xlink:title="TerrainManager::initCamera">
<polygon fill="white" stroke="black" points="184.5,-76.5 184.5,-95.5 321.5,-95.5 321.5,-76.5 184.5,-76.5"/>
<text text-anchor="middle" x="253" y="-83.5" font-family="Helvetica,sans-Serif" font-size="10.00">TerrainManager::initCamera</text>
</a>
</g>
</g>
<!-- Node1&#45;&gt;Node10 -->
<g id="edge9" class="edge"><title>Node1&#45;&gt;Node10</title>
<path fill="none" stroke="midnightblue" d="M129.742,-112.247C154.77,-106.874 184.035,-100.591 207.657,-95.5201"/>
<polygon fill="midnightblue" stroke="midnightblue" points="128.707,-108.89 119.665,-114.411 130.176,-115.734 128.707,-108.89"/>
</g>
<!-- Node14 -->
<g id="node14" class="node"><title>Node14</title>
<g id="a_node14"><a xlink:href="class_terrain_manager.html#aa7c9434ece63d1313c840b632a3b0430" target="_top" xlink:title="TerrainManager::initWater">
<polygon fill="white" stroke="black" points="373.5,-38.5 373.5,-57.5 502.5,-57.5 502.5,-38.5 373.5,-38.5"/>
<text text-anchor="middle" x="438" y="-45.5" font-family="Helvetica,sans-Serif" font-size="10.00">TerrainManager::initWater</text>
</a>
</g>
</g>
<!-- Node1&#45;&gt;Node14 -->
<g id="edge14" class="edge"><title>Node1&#45;&gt;Node14</title>
<path fill="none" stroke="midnightblue" d="M97.2702,-108.874C118.532,-95.3003 151.984,-76.1506 184,-67 246.68,-49.0851 321.446,-45.534 373.374,-45.7262"/>
<polygon fill="midnightblue" stroke="midnightblue" points="95.1374,-106.086 88.6762,-114.483 98.9634,-111.948 95.1374,-106.086"/>
</g>
<!-- Node15 -->
<g id="node15" class="node"><title>Node15</title>
<g id="a_node15"><a xlink:href="_settings_8cpp.html#a7f092b2ad8ee2eec2ce446459660d377" target="_top" xlink:title="App__GfxWaterToStr">
<polygon fill="white" stroke="black" points="383,-0.5 383,-19.5 493,-19.5 493,-0.5 383,-0.5"/>
<text text-anchor="middle" x="438" y="-7.5" font-family="Helvetica,sans-Serif" font-size="10.00">App__GfxWaterToStr</text>
</a>
</g>
</g>
<!-- Node1&#45;&gt;Node15 -->
<g id="edge16" class="edge"><title>Node1&#45;&gt;Node15</title>
<path fill="none" stroke="midnightblue" d="M91.4494,-107.152C111.396,-87.8702 146.97,-57.0222 184,-42 248.821,-15.7035 330.002,-9.67727 382.656,-8.91709"/>
<polygon fill="midnightblue" stroke="midnightblue" points="88.7789,-104.871 84.1315,-114.392 93.702,-109.847 88.7789,-104.871"/>
</g>
<!-- Node3 -->
<g id="node3" class="node"><title>Node3</title>
<g id="a_node3"><a xlink:href="main_8cpp.html#a0ddf1224851353fc92bfbff6f499fa97" target="_top" xlink:title="main">
<polygon fill="white" stroke="black" points="1152,-33.5 1152,-52.5 1190,-52.5 1190,-33.5 1152,-33.5"/>
<text text-anchor="middle" x="1171" y="-40.5" font-family="Helvetica,sans-Serif" font-size="10.00">main</text>
</a>
</g>
</g>
<!-- Node2&#45;&gt;Node3 -->
<g id="edge2" class="edge"><title>Node2&#45;&gt;Node3</title>
<path fill="none" stroke="midnightblue" d="M1089.26,-55.8325C1112.28,-52.1735 1135.96,-48.4109 1151.67,-45.914"/>
<polygon fill="midnightblue" stroke="midnightblue" points="1088.44,-52.4192 1079.11,-57.4456 1089.54,-59.3324 1088.44,-52.4192"/>
</g>
<!-- Node4 -->
<g id="node4" class="node"><title>Node4</title>
<g id="a_node4"><a xlink:href="main_8cpp.html#a2922bc5d5c2d77a3020cfbf9df12aab0" target="_top" xlink:title="WinMain">
<polygon fill="white" stroke="black" points="1226.5,-33.5 1226.5,-52.5 1281.5,-52.5 1281.5,-33.5 1226.5,-33.5"/>
<text text-anchor="middle" x="1254" y="-40.5" font-family="Helvetica,sans-Serif" font-size="10.00">WinMain</text>
</a>
</g>
</g>
<!-- Node3&#45;&gt;Node4 -->
<g id="edge3" class="edge"><title>Node3&#45;&gt;Node4</title>
<path fill="none" stroke="midnightblue" d="M1200.51,-43C1208.93,-43 1218.11,-43 1226.4,-43"/>
<polygon fill="midnightblue" stroke="midnightblue" points="1200.38,-39.5001 1190.38,-43 1200.38,-46.5001 1200.38,-39.5001"/>
</g>
<!-- Node6 -->
<g id="node6" class="node"><title>Node6</title>
<g id="a_node6"><a xlink:href="class_water.html#a32d8f391b149a405008a606ceafa35ee" target="_top" xlink:title="Water::Water">
<polygon fill="white" stroke="black" points="400.5,-190.5 400.5,-209.5 475.5,-209.5 475.5,-190.5 400.5,-190.5"/>
<text text-anchor="middle" x="438" y="-197.5" font-family="Helvetica,sans-Serif" font-size="10.00">Water::Water</text>
</a>
</g>
</g>
<!-- Node5&#45;&gt;Node6 -->
<g id="edge5" class="edge"><title>Node5&#45;&gt;Node6</title>
<path fill="none" stroke="midnightblue" d="M318.726,-200C346.152,-200 377.097,-200 400.453,-200"/>
<polygon fill="midnightblue" stroke="midnightblue" points="318.411,-196.5 308.411,-200 318.411,-203.5 318.411,-196.5"/>
</g>
<!-- Node9 -->
<g id="node9" class="node"><title>Node9</title>
<g id="a_node9"><a xlink:href="class_water.html#ab3c688bc459bf677f8a235cd42c9daae" target="_top" xlink:title="Water::framestep">
<polygon fill="white" stroke="black" points="392,-114.5 392,-133.5 484,-133.5 484,-114.5 392,-114.5"/>
<text text-anchor="middle" x="438" y="-121.5" font-family="Helvetica,sans-Serif" font-size="10.00">Water::framestep</text>
</a>
</g>
</g>
<!-- Node8&#45;&gt;Node9 -->
<g id="edge8" class="edge"><title>Node8&#45;&gt;Node9</title>
<path fill="none" stroke="midnightblue" d="M302.62,-124C330.326,-124 364.81,-124 391.908,-124"/>
<polygon fill="midnightblue" stroke="midnightblue" points="302.363,-120.5 292.363,-124 302.363,-127.5 302.363,-120.5"/>
</g>
<!-- Node11 -->
<g id="node11" class="node"><title>Node11</title>
<g id="a_node11"><a xlink:href="class_terrain_manager.html#a13e84f666b59e55f3c67ee345bda5873" target="_top" xlink:title="TerrainManager::initSubSystems">
<polygon fill="white" stroke="black" points="358.5,-76.5 358.5,-95.5 517.5,-95.5 517.5,-76.5 358.5,-76.5"/>
<text text-anchor="middle" x="438" y="-83.5" font-family="Helvetica,sans-Serif" font-size="10.00">TerrainManager::initSubSystems</text>
</a>
</g>
</g>
<!-- Node10&#45;&gt;Node11 -->
<g id="edge10" class="edge"><title>Node10&#45;&gt;Node11</title>
<path fill="none" stroke="midnightblue" d="M331.792,-86C340.538,-86 349.455,-86 358.214,-86"/>
<polygon fill="midnightblue" stroke="midnightblue" points="331.623,-82.5001 321.623,-86 331.622,-89.5001 331.623,-82.5001"/>
</g>
<!-- Node12 -->
<g id="node12" class="node"><title>Node12</title>
<g id="a_node12"><a xlink:href="class_terrain_manager.html#a9a04c837bf2ea6528c465b27ca62f730" target="_top" xlink:title="TerrainManager::loadTerrain">
<polygon fill="white" stroke="black" points="554,-57.5 554,-76.5 692,-76.5 692,-57.5 554,-57.5"/>
<text text-anchor="middle" x="623" y="-64.5" font-family="Helvetica,sans-Serif" font-size="10.00">TerrainManager::loadTerrain</text>
</a>
</g>
</g>
<!-- Node11&#45;&gt;Node12 -->
<g id="edge11" class="edge"><title>Node11&#45;&gt;Node12</title>
<path fill="none" stroke="midnightblue" d="M527.858,-76.7743C536.566,-75.8702 545.305,-74.9629 553.76,-74.085"/>
<polygon fill="midnightblue" stroke="midnightblue" points="527.256,-73.3179 517.671,-77.832 527.979,-80.2805 527.256,-73.3179"/>
</g>
<!-- Node13 -->
<g id="node13" class="node"><title>Node13</title>
<g id="a_node13"><a xlink:href="class_ro_r_frame_listener.html#a9757c059e840019a3e2659d5ef63ea02" target="_top" xlink:title="Reads GVar &#39;sim_terrain_pending&#39;. ">
<polygon fill="white" stroke="black" points="728,-57.5 728,-76.5 884,-76.5 884,-57.5 728,-57.5"/>
<text text-anchor="middle" x="806" y="-64.5" font-family="Helvetica,sans-Serif" font-size="10.00">RoRFrameListener::LoadTerrain</text>
</a>
</g>
</g>
<!-- Node12&#45;&gt;Node13 -->
<g id="edge12" class="edge"><title>Node12&#45;&gt;Node13</title>
<path fill="none" stroke="midnightblue" d="M702.362,-67C710.792,-67 719.366,-67 727.782,-67"/>
<polygon fill="midnightblue" stroke="midnightblue" points="702.17,-63.5001 692.17,-67 702.17,-70.5001 702.17,-63.5001"/>
</g>
<!-- Node13&#45;&gt;Node2 -->
<g id="edge13" class="edge"><title>Node13&#45;&gt;Node2</title>
<path fill="none" stroke="midnightblue" d="M894.265,-67C902.755,-67 911.404,-67 919.982,-67"/>
<polygon fill="midnightblue" stroke="midnightblue" points="894.004,-63.5001 884.004,-67 894.004,-70.5001 894.004,-63.5001"/>
</g>
<!-- Node14&#45;&gt;Node12 -->
<g id="edge15" class="edge"><title>Node14&#45;&gt;Node12</title>
<path fill="none" stroke="midnightblue" d="M512.949,-55.6778C526.451,-57.0797 540.483,-58.5365 553.809,-59.92"/>
<polygon fill="midnightblue" stroke="midnightblue" points="513.056,-52.1701 502.748,-54.6186 512.333,-59.1327 513.056,-52.1701"/>
</g>
<!-- Node16 -->
<g id="node16" class="node"><title>Node16</title>
<g id="a_node16"><a xlink:href="class_settings.html#a19d1e2e2df8600f7e2cd1c64363fe60f" target="_top" xlink:title="Settings::SaveSettings">
<polygon fill="white" stroke="black" points="564.5,-5.5 564.5,-24.5 681.5,-24.5 681.5,-5.5 564.5,-5.5"/>
<text text-anchor="middle" x="623" y="-12.5" font-family="Helvetica,sans-Serif" font-size="10.00">Settings::SaveSettings</text>
</a>
</g>
</g>
<!-- Node15&#45;&gt;Node16 -->
<g id="edge17" class="edge"><title>Node15&#45;&gt;Node16</title>
<path fill="none" stroke="midnightblue" d="M503.57,-11.7642C523.36,-12.3049 544.996,-12.8961 564.298,-13.4234"/>
<polygon fill="midnightblue" stroke="midnightblue" points="503.502,-8.26115 493.411,-11.4866 503.311,-15.2585 503.502,-8.26115"/>
</g>
<!-- Node16&#45;&gt;Node3 -->
<g id="edge18" class="edge"><title>Node16&#45;&gt;Node3</title>
<path fill="none" stroke="midnightblue" d="M691.936,-18.4839C817.757,-24.9363 1080.73,-38.422 1151.91,-42.0721"/>
<polygon fill="midnightblue" stroke="midnightblue" points="691.823,-14.9736 681.657,-17.9568 691.464,-21.9644 691.823,-14.9736"/>
</g>
</g>
</svg>
        <g id="navigator" transform="translate(0 0)" fill="#404254">
                <rect fill="#f2f5e9" fill-opacity="0.5" stroke="#606060" stroke-width=".5" x="0" y="0" width="60" height="60"/>
                <use id="zoomplus" xlink:href="#zoomPlus" x="17" y="9" onmousedown="handleZoom(evt,'in')"/>
                <use id="zoomminus" xlink:href="#zoomMin" x="42" y="9" onmousedown="handleZoom(evt,'out')"/>
                <use id="reset" xlink:href="#resetDef" x="30" y="36" onmousedown="handleReset()"/>
                <g id="arrowUp" xlink:href="#dirArrow" transform="translate(30 24)" onmousedown="handlePan(0,-1)">
                  <use xlink:href="#rim" fill="#404040">
                        <set attributeName="fill" to="#808080" begin="arrowUp.mouseover" end="arrowUp.mouseout"/>
                  </use>
                  <path fill="none" stroke="white" stroke-width="1.5" d="M0,-3.0v7 M-2.5,-0.5L0,-3.0L2.5,-0.5"/>
                </g>
                <g id="arrowRight" xlink:href="#dirArrow" transform="rotate(90) translate(36 -43)" onmousedown="handlePan(1,0)">
                  <use xlink:href="#rim" fill="#404040">
                        <set attributeName="fill" to="#808080" begin="arrowRight.mouseover" end="arrowRight.mouseout"/>
                  </use>
                  <path fill="none" stroke="white" stroke-width="1.5" d="M0,-3.0v7 M-2.5,-0.5L0,-3.0L2.5,-0.5"/>
                </g>
                <g id="arrowDown" xlink:href="#dirArrow" transform="rotate(180) translate(-30 -48)" onmousedown="handlePan(0,1)">
                  <use xlink:href="#rim" fill="#404040">
                        <set attributeName="fill" to="#808080" begin="arrowDown.mouseover" end="arrowDown.mouseout"/>
                  </use>
                  <path fill="none" stroke="white" stroke-width="1.5" d="M0,-3.0v7 M-2.5,-0.5L0,-3.0L2.5,-0.5"/>
                </g>
                <g id="arrowLeft" xlink:href="#dirArrow" transform="rotate(270) translate(-36 17)" onmousedown="handlePan(-1,0)">
                  <use xlink:href="#rim" fill="#404040">
                        <set attributeName="fill" to="#808080" begin="arrowLeft.mouseover" end="arrowLeft.mouseout"/>
                  </use>
                  <path fill="none" stroke="white" stroke-width="1.5" d="M0,-3.0v7 M-2.5,-0.5L0,-3.0L2.5,-0.5"/>
                </g>
        </g>
        <svg viewBox="0 0 15 15" width="100%" height="30px" preserveAspectRatio="xMaxYMin meet">
         <g id="arrow_out" transform="scale(0.3 0.3)">
          <a xlink:href="namespace_ro_r_1_1_app_a02caa3283775ee9aae51910208d3e7cc_icgraph_org.svg" target="_base">
           <rect id="button" ry="5" rx="5" y="6" x="6" height="38" width="38"
                fill="#f2f5e9" fill-opacity="0.5" stroke="#606060" stroke-width="1.0"/>
           <path id="arrow"
             d="M 11.500037,31.436501 C 11.940474,20.09759 22.043105,11.32322 32.158766,21.979434 L 37.068811,17.246167 C 37.068811,17.246167 37.088388,32 37.088388,32 L 22.160133,31.978069 C 22.160133,31.978069 26.997745,27.140456 26.997745,27.140456 C 18.528582,18.264221 13.291696,25.230495 11.500037,31.436501 z"
             style="fill:#404040;"/>
          </a>
         </g>
        </svg>
</svg>
