<?xml version="1.0" encoding="UTF-8" standalone="no"?>
<!DOCTYPE svg PUBLIC "-//W3C//DTD SVG 1.1//EN"
 "http://www.w3.org/Graphics/SVG/1.1/DTD/svg11.dtd">
<!-- Generated by graphviz version 2.36.0 (20140111.2315)
 -->
<!-- Title: RoR::App::MpStateToStr Pages: 1 -->
<svg width="686pt" height="85pt"
 viewBox="0.00 0.00 686.00 85.00" xmlns="http://www.w3.org/2000/svg" xmlns:xlink="http://www.w3.org/1999/xlink">
<g id="graph0" class="graph" transform="scale(1 1) rotate(0) translate(4 81)">
<title>RoR::App::MpStateToStr</title>
<polygon fill="white" stroke="none" points="-4,4 -4,-81 682,-81 682,4 -4,4"/>
<!-- Node1 -->
<g id="node1" class="node"><title>Node1</title>
<polygon fill="#bfbfbf" stroke="black" points="0.5,-38.5 0.5,-57.5 127.5,-57.5 127.5,-38.5 0.5,-38.5"/>
<text text-anchor="middle" x="64" y="-45.5" font-family="Helvetica,sans-Serif" font-size="10.00">RoR::App::MpStateToStr</text>
</g>
<!-- Node2 -->
<g id="node2" class="node"><title>Node2</title>
<g id="a_node2"><a xlink:href="namespace_ro_r_1_1_app.html#a1da5e857897c5687065ec81c6b3f290d" target="_top" xlink:title="RoR::App::SetActiveMpState">
<polygon fill="white" stroke="black" points="168,-57.5 168,-76.5 314,-76.5 314,-57.5 168,-57.5"/>
<text text-anchor="middle" x="241" y="-64.5" font-family="Helvetica,sans-Serif" font-size="10.00">RoR::App::SetActiveMpState</text>
</a>
</g>
</g>
<!-- Node1&#45;&gt;Node2 -->
<g id="edge1" class="edge"><title>Node1&#45;&gt;Node2</title>
<path fill="none" stroke="midnightblue" d="M137.911,-55.9161C147.835,-56.9935 158.017,-58.099 167.926,-59.1748"/>
<polygon fill="midnightblue" stroke="midnightblue" points="138.004,-52.4057 127.685,-54.8058 137.248,-59.3648 138.004,-52.4057"/>
</g>
<!-- Node3 -->
<g id="node3" class="node"><title>Node3</title>
<g id="a_node3"><a xlink:href="namespace_ro_r_1_1_app.html#ab8afb2167b40c6aea9e5be37ff985ac3" target="_top" xlink:title="RoR::App::SetPendingMpState">
<polygon fill="white" stroke="black" points="164.5,-19.5 164.5,-38.5 317.5,-38.5 317.5,-19.5 164.5,-19.5"/>
<text text-anchor="middle" x="241" y="-26.5" font-family="Helvetica,sans-Serif" font-size="10.00">RoR::App::SetPendingMpState</text>
</a>
</g>
</g>
<!-- Node1&#45;&gt;Node3 -->
<g id="edge2" class="edge"><title>Node1&#45;&gt;Node3</title>
<path fill="none" stroke="midnightblue" d="M137.833,-40.0924C146.576,-39.1432 155.519,-38.1722 164.301,-37.2187"/>
<polygon fill="midnightblue" stroke="midnightblue" points="137.248,-36.6352 127.685,-41.1942 138.004,-43.5943 137.248,-36.6352"/>
</g>
<!-- Node4 -->
<g id="node4" class="node"><title>Node4</title>
<g id="a_node4"><a xlink:href="class_settings.html#aedfe597cc18de9ea1a028b55091c337d" target="_top" xlink:title="Process command line arguments into settings. ">
<polygon fill="white" stroke="black" points="354,-38.5 354,-57.5 512,-57.5 512,-38.5 354,-38.5"/>
<text text-anchor="middle" x="433" y="-45.5" font-family="Helvetica,sans-Serif" font-size="10.00">Settings::ProcessCommandLine</text>
</a>
</g>
</g>
<!-- Node3&#45;&gt;Node4 -->
<g id="edge3" class="edge"><title>Node3&#45;&gt;Node4</title>
<path fill="none" stroke="midnightblue" d="M327.763,-37.5763C336.443,-38.4443 345.227,-39.3227 353.821,-40.1821"/>
<polygon fill="midnightblue" stroke="midnightblue" points="327.938,-34.0764 317.639,-36.5639 327.241,-41.0417 327.938,-34.0764"/>
</g>
<!-- Node7 -->
<g id="node7" class="node"><title>Node7</title>
<g id="a_node7"><a xlink:href="class_settings.html#aa53fb5b8f92e3639251b96554d2073a7" target="_top" xlink:title="Settings::SetMpNetworkEnable">
<polygon fill="white" stroke="black" points="356,-0.5 356,-19.5 510,-19.5 510,-0.5 356,-0.5"/>
<text text-anchor="middle" x="433" y="-7.5" font-family="Helvetica,sans-Serif" font-size="10.00">Settings::SetMpNetworkEnable</text>
</a>
</g>
</g>
<!-- Node3&#45;&gt;Node7 -->
<g id="edge6" class="edge"><title>Node3&#45;&gt;Node7</title>
<path fill="none" stroke="midnightblue" d="M327.699,-20.4301C337.03,-19.497 346.482,-18.5518 355.69,-17.631"/>
<polygon fill="midnightblue" stroke="midnightblue" points="327.241,-16.9583 317.639,-21.4361 327.938,-23.9236 327.241,-16.9583"/>
</g>
<!-- Node5 -->
<g id="node5" class="node"><title>Node5</title>
<g id="a_node5"><a xlink:href="main_8cpp.html#a0ddf1224851353fc92bfbff6f499fa97" target="_top" xlink:title="main">
<polygon fill="white" stroke="black" points="548,-38.5 548,-57.5 586,-57.5 586,-38.5 548,-38.5"/>
<text text-anchor="middle" x="567" y="-45.5" font-family="Helvetica,sans-Serif" font-size="10.00">main</text>
</a>
</g>
</g>
<!-- Node4&#45;&gt;Node5 -->
<g id="edge4" class="edge"><title>Node4&#45;&gt;Node5</title>
<path fill="none" stroke="midnightblue" d="M522.438,-48C531.949,-48 540.754,-48 547.923,-48"/>
<polygon fill="midnightblue" stroke="midnightblue" points="522.311,-44.5001 512.311,-48 522.311,-51.5001 522.311,-44.5001"/>
</g>
<!-- Node6 -->
<g id="node6" class="node"><title>Node6</title>
<g id="a_node6"><a xlink:href="main_8cpp.html#a2922bc5d5c2d77a3020cfbf9df12aab0" target="_top" xlink:title="WinMain">
<polygon fill="white" stroke="black" points="622.5,-38.5 622.5,-57.5 677.5,-57.5 677.5,-38.5 622.5,-38.5"/>
<text text-anchor="middle" x="650" y="-45.5" font-family="Helvetica,sans-Serif" font-size="10.00">WinMain</text>
</a>
</g>
</g>
<!-- Node5&#45;&gt;Node6 -->
<g id="edge5" class="edge"><title>Node5&#45;&gt;Node6</title>
<path fill="none" stroke="midnightblue" d="M596.512,-48C604.929,-48 614.105,-48 622.397,-48"/>
<polygon fill="midnightblue" stroke="midnightblue" points="596.38,-44.5001 586.38,-48 596.38,-51.5001 596.38,-44.5001"/>
</g>
</g>
</svg>
