<?xml version="1.0" encoding="UTF-8" standalone="no"?>
<!DOCTYPE svg PUBLIC "-//W3C//DTD SVG 1.1//EN"
 "http://www.w3.org/Graphics/SVG/1.1/DTD/svg11.dtd">
<!-- Generated by graphviz version 2.36.0 (20140111.2315)
 -->
<!-- Title: utf8::internal::sequence_length Pages: 1 -->
<svg width="1010pt" height="1303pt"
 viewBox="0.00 0.00 1010.00 1303.00" xmlns="http://www.w3.org/2000/svg" xmlns:xlink="http://www.w3.org/1999/xlink">
<g id="graph0" class="graph" transform="scale(1 1) rotate(0) translate(4 1299)">
<title>utf8::internal::sequence_length</title>
<polygon fill="white" stroke="none" points="-4,4 -4,-1299 1006,-1299 1006,4 -4,4"/>
<!-- Node1 -->
<g id="node1" class="node"><title>Node1</title>
<polygon fill="#bfbfbf" stroke="black" points="0.5,-273 0.5,-303 119.5,-303 119.5,-273 0.5,-273"/>
<text text-anchor="start" x="8.5" y="-291" font-family="Helvetica,sans-Serif" font-size="10.00">utf8::internal::sequence</text>
<text text-anchor="middle" x="60" y="-280" font-family="Helvetica,sans-Serif" font-size="10.00">_length</text>
</g>
<!-- Node2 -->
<g id="node2" class="node"><title>Node2</title>
<g id="a_node2"><a xlink:href="namespaceutf8_1_1internal.html#abe95547575fcc81911e381df03f8ebfe" target="_top" xlink:title="utf8::internal::validate_next">
<polygon fill="white" stroke="black" points="156,-382.5 156,-401.5 290,-401.5 290,-382.5 156,-382.5"/>
<text text-anchor="middle" x="223" y="-389.5" font-family="Helvetica,sans-Serif" font-size="10.00">utf8::internal::validate_next</text>
</a>
</g>
</g>
<!-- Node1&#45;&gt;Node2 -->
<g id="edge1" class="edge"><title>Node1&#45;&gt;Node2</title>
<path fill="none" stroke="midnightblue" d="M93.2159,-308.81C127.878,-331.201 181.482,-365.827 207.219,-382.452"/>
<polygon fill="midnightblue" stroke="midnightblue" points="94.7098,-305.609 84.4108,-303.122 90.9116,-311.489 94.7098,-305.609"/>
</g>
<!-- Node40 -->
<g id="node40" class="node"><title>Node40</title>
<g id="a_node40"><a xlink:href="namespaceutf8_1_1unchecked.html#ac5932c0cbb2498a111d53d26fd82f260" target="_top" xlink:title="utf8::unchecked::next">
<polygon fill="white" stroke="black" points="167.5,-136.5 167.5,-155.5 278.5,-155.5 278.5,-136.5 167.5,-136.5"/>
<text text-anchor="middle" x="223" y="-143.5" font-family="Helvetica,sans-Serif" font-size="10.00">utf8::unchecked::next</text>
</a>
</g>
</g>
<!-- Node1&#45;&gt;Node40 -->
<g id="edge52" class="edge"><title>Node1&#45;&gt;Node40</title>
<path fill="none" stroke="midnightblue" d="M85.7937,-266.132C121.419,-234.711 185.604,-178.101 211.116,-155.6"/>
<polygon fill="midnightblue" stroke="midnightblue" points="83.4144,-263.564 78.2298,-272.804 88.0447,-268.814 83.4144,-263.564"/>
</g>
<!-- Node46 -->
<g id="node46" class="node"><title>Node46</title>
<g id="a_node46"><a xlink:href="classutf8_1_1unchecked_1_1iterator.html#a0450ee39cf7eeed074d229fb9b6b22bc" target="_top" xlink:title="utf8::unchecked::iterator\l::operator++">
<polygon fill="white" stroke="black" points="520,-197 520,-227 642,-227 642,-197 520,-197"/>
<text text-anchor="start" x="528" y="-215" font-family="Helvetica,sans-Serif" font-size="10.00">utf8::unchecked::iterator</text>
<text text-anchor="middle" x="581" y="-204" font-family="Helvetica,sans-Serif" font-size="10.00">::operator++</text>
</a>
</g>
</g>
<!-- Node1&#45;&gt;Node46 -->
<g id="edge63" class="edge"><title>Node1&#45;&gt;Node46</title>
<path fill="none" stroke="midnightblue" d="M129.676,-298.233C212.341,-307.57 353.784,-313.903 464,-269 483.825,-260.923 481.367,-247.539 500,-237 506.713,-233.203 514.075,-229.907 521.53,-227.067"/>
<polygon fill="midnightblue" stroke="midnightblue" points="129.986,-294.745 119.646,-297.052 129.168,-301.697 129.986,-294.745"/>
</g>
<!-- Node3 -->
<g id="node3" class="node"><title>Node3</title>
<g id="a_node3"><a xlink:href="namespaceutf8.html#a07dcd36a2185e5c9f0b19dd88859cd6c" target="_top" xlink:title="utf8::replace_invalid">
<polygon fill="white" stroke="black" points="343,-910.5 343,-929.5 447,-929.5 447,-910.5 343,-910.5"/>
<text text-anchor="middle" x="395" y="-917.5" font-family="Helvetica,sans-Serif" font-size="10.00">utf8::replace_invalid</text>
</a>
</g>
</g>
<!-- Node2&#45;&gt;Node3 -->
<g id="edge2" class="edge"><title>Node2&#45;&gt;Node3</title>
<path fill="none" stroke="midnightblue" d="M230.175,-411.179C257.912,-497.327 370.514,-847.056 390.846,-910.203"/>
<polygon fill="midnightblue" stroke="midnightblue" points="233.492,-410.061 227.096,-401.615 226.829,-412.207 233.492,-410.061"/>
</g>
<!-- Node24 -->
<g id="node24" class="node"><title>Node24</title>
<g id="a_node24"><a xlink:href="namespaceutf8.html#afc093dfde66a6f52cb4a5caefe0e580d" target="_top" xlink:title="utf8::next">
<polygon fill="white" stroke="black" points="366,-431.5 366,-450.5 424,-450.5 424,-431.5 366,-431.5"/>
<text text-anchor="middle" x="395" y="-438.5" font-family="Helvetica,sans-Serif" font-size="10.00">utf8::next</text>
</a>
</g>
</g>
<!-- Node2&#45;&gt;Node24 -->
<g id="edge36" class="edge"><title>Node2&#45;&gt;Node24</title>
<path fill="none" stroke="midnightblue" d="M266.881,-404.36C297.935,-413.311 339.027,-425.155 365.97,-432.921"/>
<polygon fill="midnightblue" stroke="midnightblue" points="267.759,-400.971 257.181,-401.564 265.821,-407.697 267.759,-400.971"/>
</g>
<!-- Node37 -->
<g id="node37" class="node"><title>Node37</title>
<g id="a_node37"><a xlink:href="namespaceutf8_1_1internal.html#afd41668f94ce9f60f8e314d05804cecc" target="_top" xlink:title="utf8::internal::validate_next">
<polygon fill="white" stroke="black" points="328,-382.5 328,-401.5 462,-401.5 462,-382.5 328,-382.5"/>
<text text-anchor="middle" x="395" y="-389.5" font-family="Helvetica,sans-Serif" font-size="10.00">utf8::internal::validate_next</text>
</a>
</g>
</g>
<!-- Node2&#45;&gt;Node37 -->
<g id="edge49" class="edge"><title>Node2&#45;&gt;Node37</title>
<path fill="none" stroke="midnightblue" d="M300.487,-392C309.658,-392 318.963,-392 327.967,-392"/>
<polygon fill="midnightblue" stroke="midnightblue" points="300.213,-388.5 290.213,-392 300.213,-395.5 300.213,-388.5"/>
</g>
<!-- Node38 -->
<g id="node38" class="node"><title>Node38</title>
<g id="a_node38"><a xlink:href="namespaceutf8.html#ae29721faca762865e83ffea06605acc5" target="_top" xlink:title="utf8::find_invalid">
<polygon fill="white" stroke="black" points="351,-322.5 351,-341.5 439,-341.5 439,-322.5 351,-322.5"/>
<text text-anchor="middle" x="395" y="-329.5" font-family="Helvetica,sans-Serif" font-size="10.00">utf8::find_invalid</text>
</a>
</g>
</g>
<!-- Node2&#45;&gt;Node38 -->
<g id="edge50" class="edge"><title>Node2&#45;&gt;Node38</title>
<path fill="none" stroke="midnightblue" d="M260.375,-379.162C292.324,-367.886 338.084,-351.735 366.908,-341.562"/>
<polygon fill="midnightblue" stroke="midnightblue" points="259.202,-375.864 250.937,-382.493 261.532,-382.465 259.202,-375.864"/>
</g>
<!-- Node4 -->
<g id="node4" class="node"><title>Node4</title>
<g id="a_node4"><a xlink:href="conf__file_8h.html#a153caa3fe3ddc7deff2c5e14d1dd4f71" target="_top" xlink:title="SanitizeUtf8String">
<polygon fill="white" stroke="black" points="533,-864.5 533,-883.5 629,-883.5 629,-864.5 533,-864.5"/>
<text text-anchor="middle" x="581" y="-871.5" font-family="Helvetica,sans-Serif" font-size="10.00">SanitizeUtf8String</text>
</a>
</g>
</g>
<!-- Node3&#45;&gt;Node4 -->
<g id="edge3" class="edge"><title>Node3&#45;&gt;Node4</title>
<path fill="none" stroke="midnightblue" d="M444.124,-907.969C474.639,-900.34 513.564,-890.609 541.924,-883.519"/>
<polygon fill="midnightblue" stroke="midnightblue" points="442.977,-904.648 434.125,-910.469 444.675,-911.439 442.977,-904.648"/>
</g>
<!-- Node20 -->
<g id="node20" class="node"><title>Node20</title>
<g id="a_node20"><a xlink:href="class_rig_def_1_1_parser.html#ad1920ba0a8dc23ac5043b2c270ef5f47" target="_top" xlink:title="RigDef::Parser::ProcessRawLine">
<polygon fill="white" stroke="black" points="500,-1136.5 500,-1155.5 662,-1155.5 662,-1136.5 500,-1136.5"/>
<text text-anchor="middle" x="581" y="-1143.5" font-family="Helvetica,sans-Serif" font-size="10.00">RigDef::Parser::ProcessRawLine</text>
</a>
</g>
</g>
<!-- Node3&#45;&gt;Node20 -->
<g id="edge20" class="edge"><title>Node3&#45;&gt;Node20</title>
<path fill="none" stroke="midnightblue" d="M410.441,-937.737C447.284,-982.99 543.861,-1101.61 572.123,-1136.33"/>
<polygon fill="midnightblue" stroke="midnightblue" points="412.934,-935.256 403.906,-929.711 407.506,-939.676 412.934,-935.256"/>
</g>
<!-- Node22 -->
<g id="node22" class="node"><title>Node22</title>
<g id="a_node22"><a xlink:href="namespaceutf8.html#a13db09b6629724205302c623b76db028" target="_top" xlink:title="utf8::replace_invalid">
<polygon fill="white" stroke="black" points="529,-910.5 529,-929.5 633,-929.5 633,-910.5 529,-910.5"/>
<text text-anchor="middle" x="581" y="-917.5" font-family="Helvetica,sans-Serif" font-size="10.00">utf8::replace_invalid</text>
</a>
</g>
</g>
<!-- Node3&#45;&gt;Node22 -->
<g id="edge22" class="edge"><title>Node3&#45;&gt;Node22</title>
<path fill="none" stroke="midnightblue" d="M457.319,-920C480.475,-920 506.558,-920 528.702,-920"/>
<polygon fill="midnightblue" stroke="midnightblue" points="457.254,-916.5 447.254,-920 457.254,-923.5 457.254,-916.5"/>
</g>
<!-- Node23 -->
<g id="node23" class="node"><title>Node23</title>
<g id="a_node23"><a xlink:href="namespace_ro_r_1_1_utils.html#ac62ee4a4a513a67cba1bdc7d9eb9c7a4" target="_top" xlink:title="RoR::Utils::SanitizeUtf8\lString">
<polygon fill="white" stroke="black" points="519.5,-953 519.5,-983 642.5,-983 642.5,-953 519.5,-953"/>
<text text-anchor="start" x="527.5" y="-971" font-family="Helvetica,sans-Serif" font-size="10.00">RoR::Utils::SanitizeUtf8</text>
<text text-anchor="middle" x="581" y="-960" font-family="Helvetica,sans-Serif" font-size="10.00">String</text>
</a>
</g>
</g>
<!-- Node3&#45;&gt;Node23 -->
<g id="edge23" class="edge"><title>Node3&#45;&gt;Node23</title>
<path fill="none" stroke="midnightblue" d="M442.785,-932.205C466.956,-938.51 496.67,-946.262 522.259,-952.937"/>
<polygon fill="midnightblue" stroke="midnightblue" points="443.353,-928.736 432.793,-929.598 441.586,-935.509 443.353,-928.736"/>
</g>
<!-- Node5 -->
<g id="node5" class="node"><title>Node5</title>
<g id="a_node5"><a xlink:href="class_settings.html#a3610937cea22837c48e59a1c9493f295" target="_top" xlink:title="Settings::loadSettings">
<polygon fill="white" stroke="black" points="722.5,-588.5 722.5,-607.5 835.5,-607.5 835.5,-588.5 722.5,-588.5"/>
<text text-anchor="middle" x="779" y="-595.5" font-family="Helvetica,sans-Serif" font-size="10.00">Settings::loadSettings</text>
</a>
</g>
</g>
<!-- Node4&#45;&gt;Node5 -->
<g id="edge4" class="edge"><title>Node4&#45;&gt;Node5</title>
<path fill="none" stroke="midnightblue" d="M584.92,-854.131C593.14,-805.618 621.105,-680.464 698,-617 705.046,-611.185 713.569,-607.089 722.391,-604.218"/>
<polygon fill="midnightblue" stroke="midnightblue" points="581.425,-853.823 583.309,-864.249 588.338,-854.924 581.425,-853.823"/>
</g>
<!-- Node6 -->
<g id="node6" class="node"><title>Node6</title>
<g id="a_node6"><a xlink:href="class_my_dialog.html#a3a49421662fe7600e722c3ca32b48a4d" target="_top" xlink:title="MyDialog::LoadConfig">
<polygon fill="white" stroke="red" points="722.5,-664.5 722.5,-683.5 835.5,-683.5 835.5,-664.5 722.5,-664.5"/>
<text text-anchor="middle" x="779" y="-671.5" font-family="Helvetica,sans-Serif" font-size="10.00">MyDialog::LoadConfig</text>
</a>
</g>
</g>
<!-- Node4&#45;&gt;Node6 -->
<g id="edge5" class="edge"><title>Node4&#45;&gt;Node6</title>
<path fill="none" stroke="midnightblue" d="M589.334,-854.904C604.199,-818.749 641.352,-740.155 698,-698 706.492,-691.681 716.646,-687.014 726.824,-683.571"/>
<polygon fill="midnightblue" stroke="midnightblue" points="586.043,-853.709 585.586,-864.294 592.544,-856.304 586.043,-853.709"/>
</g>
<!-- Node7 -->
<g id="node7" class="node"><title>Node7</title>
<g id="a_node7"><a xlink:href="class_character.html#a56efcb1702c8ea823659e5106cc03333" target="_top" xlink:title="Character::receiveStreamData">
<polygon fill="white" stroke="black" points="704.5,-626.5 704.5,-645.5 853.5,-645.5 853.5,-626.5 704.5,-626.5"/>
<text text-anchor="middle" x="779" y="-633.5" font-family="Helvetica,sans-Serif" font-size="10.00">Character::receiveStreamData</text>
</a>
</g>
</g>
<!-- Node4&#45;&gt;Node7 -->
<g id="edge6" class="edge"><title>Node4&#45;&gt;Node7</title>
<path fill="none" stroke="midnightblue" d="M586.516,-854.461C597.545,-811.31 630.067,-707.553 698,-655 702.968,-651.157 708.592,-648.073 714.499,-645.602"/>
<polygon fill="midnightblue" stroke="midnightblue" points="583.091,-853.733 584.115,-864.278 589.89,-855.396 583.091,-853.733"/>
</g>
<!-- Node8 -->
<g id="node8" class="node"><title>Node8</title>
<g id="a_node8"><a xlink:href="class_ro_r_1_1_skin_manager.html#adeace12c6ab5f60f8c3ee860204d352c" target="_top" xlink:title="RoR::SkinManager::parseScript">
<polygon fill="white" stroke="black" points="701.5,-1188.5 701.5,-1207.5 856.5,-1207.5 856.5,-1188.5 701.5,-1188.5"/>
<text text-anchor="middle" x="779" y="-1195.5" font-family="Helvetica,sans-Serif" font-size="10.00">RoR::SkinManager::parseScript</text>
</a>
</g>
</g>
<!-- Node4&#45;&gt;Node8 -->
<g id="edge7" class="edge"><title>Node4&#45;&gt;Node8</title>
<path fill="none" stroke="midnightblue" d="M638.624,-884.174C647.558,-888.096 655.857,-893.515 662,-901 740.762,-996.963 615.439,-1085.28 698,-1178 701.808,-1182.28 706.38,-1185.71 711.383,-1188.45"/>
<polygon fill="midnightblue" stroke="midnightblue" points="639.741,-880.854 629.149,-880.605 637.273,-887.405 639.741,-880.854"/>
</g>
<!-- Node9 -->
<g id="node9" class="node"><title>Node9</title>
<g id="a_node9"><a xlink:href="class_torque_curve.html#a68e95142e6044ef86a4b0509fcecc1d3" target="_top" xlink:title="TorqueCurve::loadDefault\lTorqueModels">
<polygon fill="white" stroke="red" points="715,-1139 715,-1169 843,-1169 843,-1139 715,-1139"/>
<text text-anchor="start" x="723" y="-1157" font-family="Helvetica,sans-Serif" font-size="10.00">TorqueCurve::loadDefault</text>
<text text-anchor="middle" x="779" y="-1146" font-family="Helvetica,sans-Serif" font-size="10.00">TorqueModels</text>
</a>
</g>
</g>
<!-- Node4&#45;&gt;Node9 -->
<g id="edge8" class="edge"><title>Node4&#45;&gt;Node9</title>
<path fill="none" stroke="midnightblue" d="M638.758,-884.446C647.594,-888.343 655.825,-893.683 662,-901 728.164,-979.401 630.954,-1051.35 698,-1129 702.66,-1134.4 708.467,-1138.64 714.811,-1141.98"/>
<polygon fill="midnightblue" stroke="midnightblue" points="639.982,-881.167 629.391,-880.885 637.495,-887.71 639.982,-881.167"/>
</g>
<!-- Node10 -->
<g id="node10" class="node"><title>Node10</title>
<g id="a_node10"><a xlink:href="class_ro_r_1_1_skidmark_config.html#a2939c7181345ac52adaa2bc3c2fab3c3" target="_top" xlink:title="RoR::SkidmarkConfig\l::loadDefaultModels">
<polygon fill="white" stroke="black" points="722.5,-1051 722.5,-1081 835.5,-1081 835.5,-1051 722.5,-1051"/>
<text text-anchor="start" x="730.5" y="-1069" font-family="Helvetica,sans-Serif" font-size="10.00">RoR::SkidmarkConfig</text>
<text text-anchor="middle" x="779" y="-1058" font-family="Helvetica,sans-Serif" font-size="10.00">::loadDefaultModels</text>
</a>
</g>
</g>
<!-- Node4&#45;&gt;Node10 -->
<g id="edge9" class="edge"><title>Node4&#45;&gt;Node10</title>
<path fill="none" stroke="midnightblue" d="M638.771,-885.201C647.451,-889.019 655.626,-894.138 662,-901 705.722,-948.074 653.749,-994.423 698,-1041 704.615,-1047.96 713.136,-1053 722.142,-1056.63"/>
<polygon fill="midnightblue" stroke="midnightblue" points="639.805,-881.849 629.215,-881.548 637.305,-888.388 639.805,-881.849"/>
</g>
<!-- Node11 -->
<g id="node11" class="node"><title>Node11</title>
<g id="a_node11"><a xlink:href="class_cmd_key_inertia.html#a5fc5946c4e0023b8ce1fa7fd58fa9b23" target="_top" xlink:title="CmdKeyInertia::loadDefault\lInertiaModels">
<polygon fill="white" stroke="black" points="710.5,-1002 710.5,-1032 847.5,-1032 847.5,-1002 710.5,-1002"/>
<text text-anchor="start" x="718.5" y="-1020" font-family="Helvetica,sans-Serif" font-size="10.00">CmdKeyInertia::loadDefault</text>
<text text-anchor="middle" x="779" y="-1009" font-family="Helvetica,sans-Serif" font-size="10.00">InertiaModels</text>
</a>
</g>
</g>
<!-- Node4&#45;&gt;Node11 -->
<g id="edge10" class="edge"><title>Node4&#45;&gt;Node11</title>
<path fill="none" stroke="midnightblue" d="M638.671,-886.156C647.211,-889.863 655.366,-894.698 662,-901 693.533,-930.958 666.131,-962.401 698,-992 702.158,-995.862 706.906,-999.128 711.968,-1001.89"/>
<polygon fill="midnightblue" stroke="midnightblue" points="639.897,-882.878 629.307,-882.56 637.387,-889.412 639.897,-882.878"/>
</g>
<!-- Node12 -->
<g id="node12" class="node"><title>Node12</title>
<g id="a_node12"><a xlink:href="class_ro_r_1_1_terrn2_parser.html#aaf74ce663f16609faf6f139d4bf256e4" target="_top" xlink:title="RoR::Terrn2Parser::\lLoadTerrn2">
<polygon fill="white" stroke="red" points="896.5,-1095 896.5,-1125 1001.5,-1125 1001.5,-1095 896.5,-1095"/>
<text text-anchor="start" x="904.5" y="-1113" font-family="Helvetica,sans-Serif" font-size="10.00">RoR::Terrn2Parser::</text>
<text text-anchor="middle" x="949" y="-1102" font-family="Helvetica,sans-Serif" font-size="10.00">LoadTerrn2</text>
</a>
</g>
</g>
<!-- Node4&#45;&gt;Node12 -->
<g id="edge11" class="edge"><title>Node4&#45;&gt;Node12</title>
<path fill="none" stroke="midnightblue" d="M590.572,-854.87C606.384,-822.262 643.574,-756.931 698,-731 762.999,-700.031 803.624,-686.214 860,-731 918.841,-777.744 941.875,-1029.53 946.896,-1094.63"/>
<polygon fill="midnightblue" stroke="midnightblue" points="587.267,-853.675 586.195,-864.216 593.606,-856.644 587.267,-853.675"/>
</g>
<!-- Node13 -->
<g id="node13" class="node"><title>Node13</title>
<g id="a_node13"><a xlink:href="class_terrain_geometry_manager.html#a5d955662dda8b746d97fe586997f2471" target="_top" xlink:title="TerrainGeometryManager\l::getPageHeightmap">
<polygon fill="white" stroke="red" points="715.5,-953 715.5,-983 842.5,-983 842.5,-953 715.5,-953"/>
<text text-anchor="start" x="723.5" y="-971" font-family="Helvetica,sans-Serif" font-size="10.00">TerrainGeometryManager</text>
<text text-anchor="middle" x="779" y="-960" font-family="Helvetica,sans-Serif" font-size="10.00">::getPageHeightmap</text>
</a>
</g>
</g>
<!-- Node4&#45;&gt;Node13 -->
<g id="edge12" class="edge"><title>Node4&#45;&gt;Node13</title>
<path fill="none" stroke="midnightblue" d="M633.964,-886.995C643.731,-890.671 653.526,-895.279 662,-901 682.376,-914.757 677.469,-929.475 698,-943 703.833,-946.842 710.291,-950.123 716.934,-952.917"/>
<polygon fill="midnightblue" stroke="midnightblue" points="634.85,-883.598 624.256,-883.622 632.553,-890.21 634.85,-883.598"/>
</g>
<!-- Node14 -->
<g id="node14" class="node"><title>Node14</title>
<g id="a_node14"><a xlink:href="class_terrain_geometry_manager.html#ad130c4517d56ebd061d7c2d17d4308bb" target="_top" xlink:title="TerrainGeometryManager\l::loadLayers">
<polygon fill="white" stroke="red" points="715.5,-904 715.5,-934 842.5,-934 842.5,-904 715.5,-904"/>
<text text-anchor="start" x="723.5" y="-922" font-family="Helvetica,sans-Serif" font-size="10.00">TerrainGeometryManager</text>
<text text-anchor="middle" x="779" y="-911" font-family="Helvetica,sans-Serif" font-size="10.00">::loadLayers</text>
</a>
</g>
</g>
<!-- Node4&#45;&gt;Node14 -->
<g id="edge13" class="edge"><title>Node4&#45;&gt;Node14</title>
<path fill="none" stroke="midnightblue" d="M633.589,-885.844C658.617,-891.591 688.896,-898.543 715.252,-904.593"/>
<polygon fill="midnightblue" stroke="midnightblue" points="634.096,-882.37 623.567,-883.543 632.53,-889.192 634.096,-882.37"/>
</g>
<!-- Node15 -->
<g id="node15" class="node"><title>Node15</title>
<g id="a_node15"><a xlink:href="class_terrain_object_manager.html#a62a108ad201e16585ab3115befedae60" target="_top" xlink:title="TerrainObjectManager\l::loadObject">
<polygon fill="white" stroke="red" points="722.5,-855 722.5,-885 835.5,-885 835.5,-855 722.5,-855"/>
<text text-anchor="start" x="730.5" y="-873" font-family="Helvetica,sans-Serif" font-size="10.00">TerrainObjectManager</text>
<text text-anchor="middle" x="779" y="-862" font-family="Helvetica,sans-Serif" font-size="10.00">::loadObject</text>
</a>
</g>
</g>
<!-- Node4&#45;&gt;Node15 -->
<g id="edge14" class="edge"><title>Node4&#45;&gt;Node15</title>
<path fill="none" stroke="midnightblue" d="M639.574,-872.825C665.678,-872.292 696.422,-871.665 722.297,-871.137"/>
<polygon fill="midnightblue" stroke="midnightblue" points="639.373,-869.328 629.446,-873.032 639.515,-876.327 639.373,-869.328"/>
</g>
<!-- Node16 -->
<g id="node16" class="node"><title>Node16</title>
<g id="a_node16"><a xlink:href="class_ro_r_1_1_config_file.html#abfd892376697c81b3636c52a19fd89a4" target="_top" xlink:title="RoR::ConfigFile::GetStringEx">
<polygon fill="white" stroke="red" points="706,-1100.5 706,-1119.5 852,-1119.5 852,-1100.5 706,-1100.5"/>
<text text-anchor="middle" x="779" y="-1107.5" font-family="Helvetica,sans-Serif" font-size="10.00">RoR::ConfigFile::GetStringEx</text>
</a>
</g>
</g>
<!-- Node4&#45;&gt;Node16 -->
<g id="edge15" class="edge"><title>Node4&#45;&gt;Node16</title>
<path fill="none" stroke="midnightblue" d="M638.566,-884.61C647.423,-888.489 655.71,-893.782 662,-901 718.176,-965.469 639.275,-1027.84 698,-1090 702.031,-1094.27 706.823,-1097.68 712.029,-1100.4"/>
<polygon fill="midnightblue" stroke="midnightblue" points="639.782,-881.328 629.191,-881.057 637.302,-887.874 639.782,-881.328"/>
</g>
<!-- Node17 -->
<g id="node17" class="node"><title>Node17</title>
<g id="a_node17"><a xlink:href="class_settings.html#aa8257000628d4086aa8e792b26b35445" target="_top" xlink:title="Settings::LoadSettings">
<polygon fill="white" stroke="red" points="721,-816.5 721,-835.5 837,-835.5 837,-816.5 721,-816.5"/>
<text text-anchor="middle" x="779" y="-823.5" font-family="Helvetica,sans-Serif" font-size="10.00">Settings::LoadSettings</text>
</a>
</g>
</g>
<!-- Node4&#45;&gt;Node17 -->
<g id="edge17" class="edge"><title>Node4&#45;&gt;Node17</title>
<path fill="none" stroke="midnightblue" d="M631.181,-861.956C664.494,-853.797 707.914,-843.164 738.875,-835.582"/>
<polygon fill="midnightblue" stroke="midnightblue" points="630.073,-858.624 621.192,-864.402 631.738,-865.423 630.073,-858.624"/>
</g>
<!-- Node18 -->
<g id="node18" class="node"><title>Node18</title>
<g id="a_node18"><a xlink:href="_utils_8h.html#aef4983bfed18d57951ada0cdaf1c4690" target="_top" xlink:title="tryConvertUTF">
<polygon fill="white" stroke="red" points="738,-778.5 738,-797.5 820,-797.5 820,-778.5 738,-778.5"/>
<text text-anchor="middle" x="779" y="-785.5" font-family="Helvetica,sans-Serif" font-size="10.00">tryConvertUTF</text>
</a>
</g>
</g>
<!-- Node4&#45;&gt;Node18 -->
<g id="edge18" class="edge"><title>Node4&#45;&gt;Node18</title>
<path fill="none" stroke="midnightblue" d="M604.132,-858.59C626.772,-843.473 663.431,-820.746 698,-807 710.602,-801.989 724.867,-798.081 737.827,-795.146"/>
<polygon fill="midnightblue" stroke="midnightblue" points="601.93,-855.855 595.615,-864.362 605.857,-861.65 601.93,-855.855"/>
</g>
<!-- Node19 -->
<g id="node19" class="node"><title>Node19</title>
<g id="a_node19"><a xlink:href="_utils_8cpp.html#aebe76599ecdd7fc4db8b64cba0beb94e" target="_top" xlink:title="ANSI_TO_UTF">
<polygon fill="white" stroke="red" points="737,-740.5 737,-759.5 821,-759.5 821,-740.5 737,-740.5"/>
<text text-anchor="middle" x="779" y="-747.5" font-family="Helvetica,sans-Serif" font-size="10.00">ANSI_TO_UTF</text>
</a>
</g>
</g>
<!-- Node4&#45;&gt;Node19 -->
<g id="edge19" class="edge"><title>Node4&#45;&gt;Node19</title>
<path fill="none" stroke="midnightblue" d="M596.087,-856.664C616.183,-833.124 655.395,-791.42 698,-769 709.875,-762.751 723.815,-758.529 736.703,-755.689"/>
<polygon fill="midnightblue" stroke="midnightblue" points="593.309,-854.53 589.577,-864.446 598.678,-859.022 593.309,-854.53"/>
</g>
<!-- Node16&#45;&gt;Node12 -->
<g id="edge16" class="edge"><title>Node16&#45;&gt;Node12</title>
<path fill="none" stroke="midnightblue" d="M862.372,-1110C873.959,-1110 885.587,-1110 896.374,-1110"/>
<polygon fill="midnightblue" stroke="midnightblue" points="862.222,-1106.5 852.222,-1110 862.222,-1113.5 862.222,-1106.5"/>
</g>
<!-- Node21 -->
<g id="node21" class="node"><title>Node21</title>
<g id="a_node21"><a xlink:href="class_rig_def_1_1_parser.html#ab08d0ba4ffb90b72cb351014bb7861bd" target="_top" xlink:title="RigDef::Parser::ProcessOgre\lStream">
<polygon fill="white" stroke="red" points="706.5,-1265 706.5,-1295 851.5,-1295 851.5,-1265 706.5,-1265"/>
<text text-anchor="start" x="714.5" y="-1283" font-family="Helvetica,sans-Serif" font-size="10.00">RigDef::Parser::ProcessOgre</text>
<text text-anchor="middle" x="779" y="-1272" font-family="Helvetica,sans-Serif" font-size="10.00">Stream</text>
</a>
</g>
</g>
<!-- Node20&#45;&gt;Node21 -->
<g id="edge21" class="edge"><title>Node20&#45;&gt;Node21</title>
<path fill="none" stroke="midnightblue" d="M597.171,-1163.1C617.973,-1185.67 657.415,-1225.4 698,-1250 707.514,-1255.77 718.32,-1260.73 728.844,-1264.86"/>
<polygon fill="midnightblue" stroke="midnightblue" points="599.696,-1160.68 590.383,-1155.63 594.513,-1165.38 599.696,-1160.68"/>
</g>
<!-- Node23&#45;&gt;Node8 -->
<g id="edge24" class="edge"><title>Node23&#45;&gt;Node8</title>
<path fill="none" stroke="midnightblue" d="M594.02,-992.26C620.236,-1044.78 681.526,-1165.33 698,-1178 703.674,-1182.36 710.184,-1185.79 716.986,-1188.47"/>
<polygon fill="midnightblue" stroke="midnightblue" points="597.142,-990.677 589.552,-983.286 590.876,-993.798 597.142,-990.677"/>
</g>
<!-- Node23&#45;&gt;Node9 -->
<g id="edge25" class="edge"><title>Node23&#45;&gt;Node9</title>
<path fill="none" stroke="midnightblue" d="M593.28,-992.514C610.756,-1027.82 647.679,-1092.72 698,-1129 703.312,-1132.83 709.228,-1136.09 715.372,-1138.85"/>
<polygon fill="midnightblue" stroke="midnightblue" points="596.373,-990.87 588.872,-983.389 590.07,-993.915 596.373,-990.87"/>
</g>
<!-- Node23&#45;&gt;Node10 -->
<g id="edge26" class="edge"><title>Node23&#45;&gt;Node10</title>
<path fill="none" stroke="midnightblue" d="M610.645,-988.98C633.425,-1004.92 666.58,-1026.5 698,-1041 705.928,-1044.66 714.534,-1047.97 723.065,-1050.91"/>
<polygon fill="midnightblue" stroke="midnightblue" points="612.631,-986.097 602.448,-983.173 608.585,-991.809 612.631,-986.097"/>
</g>
<!-- Node23&#45;&gt;Node11 -->
<g id="edge27" class="edge"><title>Node23&#45;&gt;Node11</title>
<path fill="none" stroke="midnightblue" d="M651.907,-985.477C673.51,-990.877 697.102,-996.776 717.975,-1001.99"/>
<polygon fill="midnightblue" stroke="midnightblue" points="652.689,-982.065 642.138,-983.035 650.991,-988.856 652.689,-982.065"/>
</g>
<!-- Node23&#45;&gt;Node12 -->
<g id="edge28" class="edge"><title>Node23&#45;&gt;Node12</title>
<path fill="none" stroke="midnightblue" d="M595.036,-992.283C611.442,-1023.2 640.122,-1078.44 662,-1127 679.698,-1166.28 662.326,-1192.85 698,-1217 757.621,-1257.37 794.897,-1247.75 860,-1217 900.451,-1197.89 928.576,-1150.07 940.933,-1125.34"/>
<polygon fill="midnightblue" stroke="midnightblue" points="597.955,-990.319 590.164,-983.139 591.777,-993.61 597.955,-990.319"/>
</g>
<!-- Node23&#45;&gt;Node13 -->
<g id="edge29" class="edge"><title>Node23&#45;&gt;Node13</title>
<path fill="none" stroke="midnightblue" d="M652.851,-968C673.256,-968 695.366,-968 715.244,-968"/>
<polygon fill="midnightblue" stroke="midnightblue" points="652.673,-964.5 642.673,-968 652.673,-971.5 652.673,-964.5"/>
</g>
<!-- Node23&#45;&gt;Node14 -->
<g id="edge30" class="edge"><title>Node23&#45;&gt;Node14</title>
<path fill="none" stroke="midnightblue" d="M651.907,-950.523C673.51,-945.123 697.102,-939.224 717.975,-934.006"/>
<polygon fill="midnightblue" stroke="midnightblue" points="650.991,-947.144 642.138,-952.965 652.689,-953.935 650.991,-947.144"/>
</g>
<!-- Node23&#45;&gt;Node15 -->
<g id="edge31" class="edge"><title>Node23&#45;&gt;Node15</title>
<path fill="none" stroke="midnightblue" d="M645.363,-948.738C651.209,-945.877 656.858,-942.643 662,-939 682.617,-924.393 677.061,-909.141 698,-895 705.356,-890.032 713.749,-886.013 722.266,-882.771"/>
<polygon fill="midnightblue" stroke="midnightblue" points="643.74,-945.63 636.062,-952.93 646.617,-952.012 643.74,-945.63"/>
</g>
<!-- Node23&#45;&gt;Node16 -->
<g id="edge32" class="edge"><title>Node23&#45;&gt;Node16</title>
<path fill="none" stroke="midnightblue" d="M598.073,-991.759C618.164,-1019.58 655.167,-1065.03 698,-1090 705.421,-1094.33 713.758,-1097.72 722.174,-1100.39"/>
<polygon fill="midnightblue" stroke="midnightblue" points="600.789,-989.538 592.158,-983.393 595.073,-993.579 600.789,-989.538"/>
</g>
<!-- Node23&#45;&gt;Node17 -->
<g id="edge33" class="edge"><title>Node23&#45;&gt;Node17</title>
<path fill="none" stroke="midnightblue" d="M650.554,-948C654.682,-945.36 658.552,-942.374 662,-939 693.677,-907.999 664.773,-875.332 698,-846 704.547,-840.221 712.516,-836.06 720.858,-833.074"/>
<polygon fill="midnightblue" stroke="midnightblue" points="648.763,-944.992 641.769,-952.951 652.199,-951.091 648.763,-944.992"/>
</g>
<!-- Node23&#45;&gt;Node18 -->
<g id="edge34" class="edge"><title>Node23&#45;&gt;Node18</title>
<path fill="none" stroke="midnightblue" d="M651.492,-948.033C655.321,-945.387 658.874,-942.391 662,-939 703.211,-894.285 654.296,-849.282 698,-807 708.567,-796.776 723.582,-791.704 737.754,-789.292"/>
<polygon fill="midnightblue" stroke="midnightblue" points="649.505,-945.143 642.724,-953.284 653.102,-951.148 649.505,-945.143"/>
</g>
<!-- Node23&#45;&gt;Node19 -->
<g id="edge35" class="edge"><title>Node23&#45;&gt;Node19</title>
<path fill="none" stroke="midnightblue" d="M651.51,-948.387C655.366,-945.656 658.917,-942.544 662,-939 712.684,-880.727 644.062,-824.275 698,-769 708.069,-758.681 722.646,-753.547 736.606,-751.112"/>
<polygon fill="midnightblue" stroke="midnightblue" points="649.371,-945.591 642.647,-953.779 653.009,-951.572 649.371,-945.591"/>
</g>
<!-- Node25 -->
<g id="node25" class="node"><title>Node25</title>
<g id="a_node25"><a xlink:href="class_rail_builder.html#a7a2bce672a41701e6908a9cea2139df6" target="_top" xlink:title="RailBuilder::pushBack">
<polygon fill="white" stroke="black" points="524.5,-360.5 524.5,-379.5 637.5,-379.5 637.5,-360.5 524.5,-360.5"/>
<text text-anchor="middle" x="581" y="-367.5" font-family="Helvetica,sans-Serif" font-size="10.00">RailBuilder::pushBack</text>
</a>
</g>
</g>
<!-- Node24&#45;&gt;Node25 -->
<g id="edge37" class="edge"><title>Node24&#45;&gt;Node25</title>
<path fill="none" stroke="midnightblue" d="M429.119,-427.44C440.345,-422.568 452.858,-416.829 464,-411 480.615,-402.308 482.663,-396.144 500,-389 509.107,-385.247 519.117,-382.137 528.881,-379.596"/>
<polygon fill="midnightblue" stroke="midnightblue" points="427.476,-424.336 419.652,-431.479 430.224,-430.774 427.476,-424.336"/>
</g>
<!-- Node26 -->
<g id="node26" class="node"><title>Node26</title>
<g id="a_node26"><a xlink:href="namespaceutf8.html#a42451db4241d57afe46e61f6a966ee8d" target="_top" xlink:title="utf8::peek_next">
<polygon fill="white" stroke="black" points="539,-322.5 539,-341.5 623,-341.5 623,-322.5 539,-322.5"/>
<text text-anchor="middle" x="581" y="-329.5" font-family="Helvetica,sans-Serif" font-size="10.00">utf8::peek_next</text>
</a>
</g>
</g>
<!-- Node24&#45;&gt;Node26 -->
<g id="edge38" class="edge"><title>Node24&#45;&gt;Node26</title>
<path fill="none" stroke="midnightblue" d="M433.59,-429.26C444.218,-424.718 455.258,-418.712 464,-411 487.32,-390.426 474.904,-369.366 500,-351 511.174,-342.822 525.366,-338.114 538.684,-335.42"/>
<polygon fill="midnightblue" stroke="midnightblue" points="432.045,-426.107 424.023,-433.027 434.61,-432.62 432.045,-426.107"/>
</g>
<!-- Node28 -->
<g id="node28" class="node"><title>Node28</title>
<g id="a_node28"><a xlink:href="namespaceutf8.html#aedaf9315740d4f25b43c188b02b5bcd0" target="_top" xlink:title="Deprecated in versions that include &quot;prior&quot;. ">
<polygon fill="white" stroke="black" points="543,-284.5 543,-303.5 619,-303.5 619,-284.5 543,-284.5"/>
<text text-anchor="middle" x="581" y="-291.5" font-family="Helvetica,sans-Serif" font-size="10.00">utf8::previous</text>
</a>
</g>
</g>
<!-- Node24&#45;&gt;Node28 -->
<g id="edge40" class="edge"><title>Node24&#45;&gt;Node28</title>
<path fill="none" stroke="midnightblue" d="M433.676,-430.616C444.614,-426.077 455.805,-419.733 464,-411 495.753,-377.165 465.298,-343.804 500,-313 511.637,-302.67 527.867,-297.693 542.67,-295.382"/>
<polygon fill="midnightblue" stroke="midnightblue" points="432.352,-427.374 424.212,-434.155 434.804,-433.931 432.352,-427.374"/>
</g>
<!-- Node29 -->
<g id="node29" class="node"><title>Node29</title>
<g id="a_node29"><a xlink:href="namespaceutf8.html#a411eec0d2919810bb26966be242c1e9e" target="_top" xlink:title="utf8::advance">
<polygon fill="white" stroke="black" points="543,-588.5 543,-607.5 619,-607.5 619,-588.5 543,-588.5"/>
<text text-anchor="middle" x="581" y="-595.5" font-family="Helvetica,sans-Serif" font-size="10.00">utf8::advance</text>
</a>
</g>
</g>
<!-- Node24&#45;&gt;Node29 -->
<g id="edge41" class="edge"><title>Node24&#45;&gt;Node29</title>
<path fill="none" stroke="midnightblue" d="M404.823,-459.91C419.893,-490.035 453.529,-548.614 500,-579 512.665,-587.281 528.557,-591.962 542.833,-594.604"/>
<polygon fill="midnightblue" stroke="midnightblue" points="407.949,-458.333 400.433,-450.866 401.652,-461.391 407.949,-458.333"/>
</g>
<!-- Node30 -->
<g id="node30" class="node"><title>Node30</title>
<g id="a_node30"><a xlink:href="namespaceutf8.html#a75394fbfe91b1122e2602a6d73c5f612" target="_top" xlink:title="utf8::distance">
<polygon fill="white" stroke="red" points="543,-550.5 543,-569.5 619,-569.5 619,-550.5 543,-550.5"/>
<text text-anchor="middle" x="581" y="-557.5" font-family="Helvetica,sans-Serif" font-size="10.00">utf8::distance</text>
</a>
</g>
</g>
<!-- Node24&#45;&gt;Node30 -->
<g id="edge42" class="edge"><title>Node24&#45;&gt;Node30</title>
<path fill="none" stroke="midnightblue" d="M409.426,-458.815C427.479,-481.467 461.76,-520.135 500,-541 513.032,-548.111 528.679,-552.58 542.665,-555.38"/>
<polygon fill="midnightblue" stroke="midnightblue" points="412.029,-456.461 403.124,-450.72 406.505,-460.761 412.029,-456.461"/>
</g>
<!-- Node33 -->
<g id="node33" class="node"><title>Node33</title>
<g id="a_node33"><a xlink:href="namespaceutf8.html#a6404050074139c367a42f0a911779903" target="_top" xlink:title="utf8::utf8to16">
<polygon fill="white" stroke="black" points="544,-512.5 544,-531.5 618,-531.5 618,-512.5 544,-512.5"/>
<text text-anchor="middle" x="581" y="-519.5" font-family="Helvetica,sans-Serif" font-size="10.00">utf8::utf8to16</text>
</a>
</g>
</g>
<!-- Node24&#45;&gt;Node33 -->
<g id="edge45" class="edge"><title>Node24&#45;&gt;Node33</title>
<path fill="none" stroke="midnightblue" d="M417.329,-456.367C437.671,-470.366 469.628,-490.679 500,-503 513.89,-508.635 529.844,-512.843 543.832,-515.848"/>
<polygon fill="midnightblue" stroke="midnightblue" points="419.304,-453.478 409.103,-450.614 415.292,-459.214 419.304,-453.478"/>
</g>
<!-- Node34 -->
<g id="node34" class="node"><title>Node34</title>
<g id="a_node34"><a xlink:href="namespaceutf8.html#a8020ed399788dca779663adf061ed718" target="_top" xlink:title="utf8::utf8to32">
<polygon fill="white" stroke="black" points="544,-474.5 544,-493.5 618,-493.5 618,-474.5 544,-474.5"/>
<text text-anchor="middle" x="581" y="-481.5" font-family="Helvetica,sans-Serif" font-size="10.00">utf8::utf8to32</text>
</a>
</g>
</g>
<!-- Node24&#45;&gt;Node34 -->
<g id="edge46" class="edge"><title>Node24&#45;&gt;Node34</title>
<path fill="none" stroke="midnightblue" d="M434.282,-449.946C466.45,-457.464 512.104,-468.133 543.701,-475.517"/>
<polygon fill="midnightblue" stroke="midnightblue" points="434.881,-446.492 424.347,-447.625 433.288,-453.308 434.881,-446.492"/>
</g>
<!-- Node35 -->
<g id="node35" class="node"><title>Node35</title>
<g id="a_node35"><a xlink:href="classutf8_1_1iterator.html#abbe7cf79cc5b78a375d80b0dba39fa0c" target="_top" xlink:title="utf8::iterator::operator*">
<polygon fill="white" stroke="black" points="524,-436.5 524,-455.5 638,-455.5 638,-436.5 524,-436.5"/>
<text text-anchor="middle" x="581" y="-443.5" font-family="Helvetica,sans-Serif" font-size="10.00">utf8::iterator::operator*</text>
</a>
</g>
</g>
<!-- Node24&#45;&gt;Node35 -->
<g id="edge47" class="edge"><title>Node24&#45;&gt;Node35</title>
<path fill="none" stroke="midnightblue" d="M434.508,-442.046C460.374,-442.749 494.882,-443.687 523.8,-444.473"/>
<polygon fill="midnightblue" stroke="midnightblue" points="434.438,-438.543 424.347,-441.77 434.248,-445.541 434.438,-438.543"/>
</g>
<!-- Node36 -->
<g id="node36" class="node"><title>Node36</title>
<g id="a_node36"><a xlink:href="classutf8_1_1iterator.html#a93e9ac16a560fab545a05efb6b0a3add" target="_top" xlink:title="utf8::iterator::operator++">
<polygon fill="white" stroke="black" points="520,-398.5 520,-417.5 642,-417.5 642,-398.5 520,-398.5"/>
<text text-anchor="middle" x="581" y="-405.5" font-family="Helvetica,sans-Serif" font-size="10.00">utf8::iterator::operator++</text>
</a>
</g>
</g>
<!-- Node24&#45;&gt;Node36 -->
<g id="edge48" class="edge"><title>Node24&#45;&gt;Node36</title>
<path fill="none" stroke="midnightblue" d="M434.479,-434.099C461.246,-429.298 497.28,-422.836 526.793,-417.543"/>
<polygon fill="midnightblue" stroke="midnightblue" points="433.572,-430.706 424.347,-435.916 434.808,-437.596 433.572,-430.706"/>
</g>
<!-- Node27 -->
<g id="node27" class="node"><title>Node27</title>
<g id="a_node27"><a xlink:href="namespaceutf8.html#a9a599fdd8a16ce65e3e72192db9d499b" target="_top" xlink:title="utf8::prior">
<polygon fill="white" stroke="red" points="750,-322.5 750,-341.5 808,-341.5 808,-322.5 750,-322.5"/>
<text text-anchor="middle" x="779" y="-329.5" font-family="Helvetica,sans-Serif" font-size="10.00">utf8::prior</text>
</a>
</g>
</g>
<!-- Node26&#45;&gt;Node27 -->
<g id="edge39" class="edge"><title>Node26&#45;&gt;Node27</title>
<path fill="none" stroke="midnightblue" d="M633.262,-332C670.528,-332 719.57,-332 749.927,-332"/>
<polygon fill="midnightblue" stroke="midnightblue" points="633.088,-328.5 623.088,-332 633.088,-335.5 633.088,-328.5"/>
</g>
<!-- Node31 -->
<g id="node31" class="node"><title>Node31</title>
<g id="a_node31"><a xlink:href="class_character.html#a6db76b3ec402b6246cdb55fdeccce543" target="_top" xlink:title="Character::unwindMovement">
<polygon fill="white" stroke="red" points="708,-550.5 708,-569.5 850,-569.5 850,-550.5 708,-550.5"/>
<text text-anchor="middle" x="779" y="-557.5" font-family="Helvetica,sans-Serif" font-size="10.00">Character::unwindMovement</text>
</a>
</g>
</g>
<!-- Node30&#45;&gt;Node31 -->
<g id="edge43" class="edge"><title>Node30&#45;&gt;Node31</title>
<path fill="none" stroke="midnightblue" d="M629.398,-560C652.936,-560 681.84,-560 707.881,-560"/>
<polygon fill="midnightblue" stroke="midnightblue" points="629.327,-556.5 619.327,-560 629.327,-563.5 629.327,-556.5"/>
</g>
<!-- Node32 -->
<g id="node32" class="node"><title>Node32</title>
<g id="a_node32"><a xlink:href="class_torque_curve.html#a7bb43cf140f4cda849cc59d499749bce" target="_top" xlink:title="TorqueCurve::spaceCurveEvenly">
<polygon fill="white" stroke="black" points="698.5,-512.5 698.5,-531.5 859.5,-531.5 859.5,-512.5 698.5,-512.5"/>
<text text-anchor="middle" x="779" y="-519.5" font-family="Helvetica,sans-Serif" font-size="10.00">TorqueCurve::spaceCurveEvenly</text>
</a>
</g>
</g>
<!-- Node30&#45;&gt;Node32 -->
<g id="edge44" class="edge"><title>Node30&#45;&gt;Node32</title>
<path fill="none" stroke="midnightblue" d="M629.194,-550.85C659.365,-545.001 698.417,-537.429 728.944,-531.511"/>
<polygon fill="midnightblue" stroke="midnightblue" points="628.478,-547.424 619.327,-552.763 629.811,-554.296 628.478,-547.424"/>
</g>
<!-- Node39 -->
<g id="node39" class="node"><title>Node39</title>
<g id="a_node39"><a xlink:href="namespaceutf8.html#add2dbec3d058aa66500ec4f97cc8174b" target="_top" xlink:title="utf8::is_valid">
<polygon fill="white" stroke="black" points="545,-246.5 545,-265.5 617,-265.5 617,-246.5 545,-246.5"/>
<text text-anchor="middle" x="581" y="-253.5" font-family="Helvetica,sans-Serif" font-size="10.00">utf8::is_valid</text>
</a>
</g>
</g>
<!-- Node38&#45;&gt;Node39 -->
<g id="edge51" class="edge"><title>Node38&#45;&gt;Node39</title>
<path fill="none" stroke="midnightblue" d="M430.527,-318.578C441.492,-313.842 453.492,-308.15 464,-302 481.261,-291.898 481.891,-283.489 500,-275 513.96,-268.456 530.379,-264.052 544.698,-261.147"/>
<polygon fill="midnightblue" stroke="midnightblue" points="429.089,-315.386 421.221,-322.482 431.797,-321.841 429.089,-315.386"/>
</g>
<!-- Node41 -->
<g id="node41" class="node"><title>Node41</title>
<g id="a_node41"><a xlink:href="namespaceutf8_1_1unchecked.html#aaf5ddbe24f8dbb83390e2d33d75b9ea1" target="_top" xlink:title="utf8::unchecked::peek_next">
<polygon fill="white" stroke="black" points="326.5,-240.5 326.5,-259.5 463.5,-259.5 463.5,-240.5 326.5,-240.5"/>
<text text-anchor="middle" x="395" y="-247.5" font-family="Helvetica,sans-Serif" font-size="10.00">utf8::unchecked::peek_next</text>
</a>
</g>
</g>
<!-- Node40&#45;&gt;Node41 -->
<g id="edge53" class="edge"><title>Node40&#45;&gt;Node41</title>
<path fill="none" stroke="midnightblue" d="M240.013,-163.144C258.847,-182.337 291.894,-213.087 326,-231 333.271,-234.819 341.394,-237.94 349.424,-240.467"/>
<polygon fill="midnightblue" stroke="midnightblue" points="242.305,-160.478 232.849,-155.697 237.26,-165.331 242.305,-160.478"/>
</g>
<!-- Node42 -->
<g id="node42" class="node"><title>Node42</title>
<g id="a_node42"><a xlink:href="namespaceutf8_1_1unchecked.html#ad2c0e4b9693713ac18ee543e214b3ef9" target="_top" xlink:title="utf8::unchecked::prior">
<polygon fill="white" stroke="black" points="339.5,-114.5 339.5,-133.5 450.5,-133.5 450.5,-114.5 339.5,-114.5"/>
<text text-anchor="middle" x="395" y="-121.5" font-family="Helvetica,sans-Serif" font-size="10.00">utf8::unchecked::prior</text>
</a>
</g>
</g>
<!-- Node40&#45;&gt;Node42 -->
<g id="edge54" class="edge"><title>Node40&#45;&gt;Node42</title>
<path fill="none" stroke="midnightblue" d="M288.925,-137.598C305.572,-135.444 323.309,-133.148 339.378,-131.069"/>
<polygon fill="midnightblue" stroke="midnightblue" points="288.193,-134.163 278.725,-138.918 289.091,-141.106 288.193,-134.163"/>
</g>
<!-- Node45 -->
<g id="node45" class="node"><title>Node45</title>
<g id="a_node45"><a xlink:href="namespaceutf8_1_1unchecked.html#a66ea3b93a81a8f961e7a1700d13efc57" target="_top" xlink:title="utf8::unchecked::advance">
<polygon fill="white" stroke="black" points="330.5,-202.5 330.5,-221.5 459.5,-221.5 459.5,-202.5 330.5,-202.5"/>
<text text-anchor="middle" x="395" y="-209.5" font-family="Helvetica,sans-Serif" font-size="10.00">utf8::unchecked::advance</text>
</a>
</g>
</g>
<!-- Node40&#45;&gt;Node45 -->
<g id="edge57" class="edge"><title>Node40&#45;&gt;Node45</title>
<path fill="none" stroke="midnightblue" d="M252.481,-160.118C272.697,-169.823 300.641,-182.603 326,-192 336.27,-195.805 347.617,-199.382 358.053,-202.429"/>
<polygon fill="midnightblue" stroke="midnightblue" points="253.747,-156.842 243.222,-155.629 250.693,-163.141 253.747,-156.842"/>
</g>
<!-- Node47 -->
<g id="node47" class="node"><title>Node47</title>
<g id="a_node47"><a xlink:href="namespaceutf8_1_1unchecked.html#a3796d7a15edc244a872a9ca559ea2693" target="_top" xlink:title="utf8::unchecked::distance">
<polygon fill="white" stroke="black" points="330.5,-76.5 330.5,-95.5 459.5,-95.5 459.5,-76.5 330.5,-76.5"/>
<text text-anchor="middle" x="395" y="-83.5" font-family="Helvetica,sans-Serif" font-size="10.00">utf8::unchecked::distance</text>
</a>
</g>
</g>
<!-- Node40&#45;&gt;Node47 -->
<g id="edge59" class="edge"><title>Node40&#45;&gt;Node47</title>
<path fill="none" stroke="midnightblue" d="M255.276,-132.391C275.291,-123.942 301.927,-113.174 326,-105 335.982,-101.611 346.931,-98.3544 357.072,-95.5241"/>
<polygon fill="midnightblue" stroke="midnightblue" points="253.852,-129.193 246.022,-136.332 256.594,-135.634 253.852,-129.193"/>
</g>
<!-- Node48 -->
<g id="node48" class="node"><title>Node48</title>
<g id="a_node48"><a xlink:href="namespaceutf8_1_1unchecked.html#ae323b9faa6a47cb8d0aeaea44c1787eb" target="_top" xlink:title="utf8::unchecked::utf8to16">
<polygon fill="white" stroke="black" points="331,-38.5 331,-57.5 459,-57.5 459,-38.5 331,-38.5"/>
<text text-anchor="middle" x="395" y="-45.5" font-family="Helvetica,sans-Serif" font-size="10.00">utf8::unchecked::utf8to16</text>
</a>
</g>
</g>
<!-- Node40&#45;&gt;Node48 -->
<g id="edge60" class="edge"><title>Node40&#45;&gt;Node48</title>
<path fill="none" stroke="midnightblue" d="M241.16,-129.279C260.35,-111.448 293.079,-83.5465 326,-67 333.557,-63.2018 341.98,-60.0707 350.254,-57.5232"/>
<polygon fill="midnightblue" stroke="midnightblue" points="238.66,-126.826 233.803,-136.242 243.472,-131.91 238.66,-126.826"/>
</g>
<!-- Node49 -->
<g id="node49" class="node"><title>Node49</title>
<g id="a_node49"><a xlink:href="namespaceutf8_1_1unchecked.html#aa4b554922a06a7487118982ff41da590" target="_top" xlink:title="utf8::unchecked::utf8to32">
<polygon fill="white" stroke="black" points="331,-0.5 331,-19.5 459,-19.5 459,-0.5 331,-0.5"/>
<text text-anchor="middle" x="395" y="-7.5" font-family="Helvetica,sans-Serif" font-size="10.00">utf8::unchecked::utf8to32</text>
</a>
</g>
</g>
<!-- Node40&#45;&gt;Node49 -->
<g id="edge61" class="edge"><title>Node40&#45;&gt;Node49</title>
<path fill="none" stroke="midnightblue" d="M235.03,-127.652C251.551,-101.754 285.185,-54.767 326,-29 332.115,-25.1393 339.024,-22.049 346.035,-19.5789"/>
<polygon fill="midnightblue" stroke="midnightblue" points="231.863,-126.117 229.557,-136.457 237.808,-129.812 231.863,-126.117"/>
</g>
<!-- Node50 -->
<g id="node50" class="node"><title>Node50</title>
<g id="a_node50"><a xlink:href="classutf8_1_1unchecked_1_1iterator.html#a06b0df26a8570080c756f8d9a4cfdf76" target="_top" xlink:title="utf8::unchecked::iterator\l::operator*">
<polygon fill="white" stroke="black" points="334,-153 334,-183 456,-183 456,-153 334,-153"/>
<text text-anchor="start" x="342" y="-171" font-family="Helvetica,sans-Serif" font-size="10.00">utf8::unchecked::iterator</text>
<text text-anchor="middle" x="395" y="-160" font-family="Helvetica,sans-Serif" font-size="10.00">::operator*</text>
</a>
</g>
</g>
<!-- Node40&#45;&gt;Node50 -->
<g id="edge62" class="edge"><title>Node40&#45;&gt;Node50</title>
<path fill="none" stroke="midnightblue" d="M288.793,-154.385C303.569,-156.297 319.21,-158.321 333.786,-160.208"/>
<polygon fill="midnightblue" stroke="midnightblue" points="289.091,-150.894 278.725,-153.082 288.193,-157.837 289.091,-150.894"/>
</g>
<!-- Node43 -->
<g id="node43" class="node"><title>Node43</title>
<g id="a_node43"><a xlink:href="namespaceutf8_1_1unchecked.html#a454cdd8f6b6771bd0425be1ccd94f788" target="_top" xlink:title="utf8::unchecked::previous">
<polygon fill="white" stroke="black" points="516.5,-136.5 516.5,-155.5 645.5,-155.5 645.5,-136.5 516.5,-136.5"/>
<text text-anchor="middle" x="581" y="-143.5" font-family="Helvetica,sans-Serif" font-size="10.00">utf8::unchecked::previous</text>
</a>
</g>
</g>
<!-- Node42&#45;&gt;Node43 -->
<g id="edge55" class="edge"><title>Node42&#45;&gt;Node43</title>
<path fill="none" stroke="midnightblue" d="M460.844,-131.753C478.89,-133.911 498.469,-136.252 516.441,-138.401"/>
<polygon fill="midnightblue" stroke="midnightblue" points="461.053,-128.253 450.708,-130.541 460.222,-135.204 461.053,-128.253"/>
</g>
<!-- Node44 -->
<g id="node44" class="node"><title>Node44</title>
<g id="a_node44"><a xlink:href="classutf8_1_1unchecked_1_1iterator.html#a8b50b3a0d7b2c2506e135db73a636c7b" target="_top" xlink:title="utf8::unchecked::iterator\l::operator&#45;&#45;">
<polygon fill="white" stroke="black" points="520,-87 520,-117 642,-117 642,-87 520,-87"/>
<text text-anchor="start" x="528" y="-105" font-family="Helvetica,sans-Serif" font-size="10.00">utf8::unchecked::iterator</text>
<text text-anchor="middle" x="581" y="-94" font-family="Helvetica,sans-Serif" font-size="10.00">::operator&#45;&#45;</text>
</a>
</g>
</g>
<!-- Node42&#45;&gt;Node44 -->
<g id="edge56" class="edge"><title>Node42&#45;&gt;Node44</title>
<path fill="none" stroke="midnightblue" d="M460.844,-116.247C479.992,-113.957 500.865,-111.462 519.715,-109.208"/>
<polygon fill="midnightblue" stroke="midnightblue" points="460.222,-112.796 450.708,-117.459 461.053,-119.747 460.222,-112.796"/>
</g>
<!-- Node45&#45;&gt;Node46 -->
<g id="edge58" class="edge"><title>Node45&#45;&gt;Node46</title>
<path fill="none" stroke="midnightblue" d="M469.797,-212C486.41,-212 503.848,-212 519.825,-212"/>
<polygon fill="midnightblue" stroke="midnightblue" points="469.58,-208.5 459.58,-212 469.58,-215.5 469.58,-208.5"/>
</g>
</g>
</svg>
