<?xml version="1.0" encoding="UTF-8" standalone="no"?>
<!DOCTYPE svg PUBLIC "-//W3C//DTD SVG 1.1//EN"
 "http://www.w3.org/Graphics/SVG/1.1/DTD/svg11.dtd">
<!-- Generated by graphviz version 2.36.0 (20140111.2315)
 -->
<!-- Title: RoR::App::GetSimGearboxMode Pages: 1 -->
<svg width="646pt" height="28pt"
 viewBox="0.00 0.00 646.00 28.00" xmlns="http://www.w3.org/2000/svg" xmlns:xlink="http://www.w3.org/1999/xlink">
<g id="graph0" class="graph" transform="scale(1 1) rotate(0) translate(4 24)">
<title>RoR::App::GetSimGearboxMode</title>
<polygon fill="white" stroke="none" points="-4,4 -4,-24 642,-24 642,4 -4,4"/>
<!-- Node1 -->
<g id="node1" class="node"><title>Node1</title>
<polygon fill="#bfbfbf" stroke="black" points="0,-0.5 0,-19.5 160,-19.5 160,-0.5 0,-0.5"/>
<text text-anchor="middle" x="80" y="-7.5" font-family="Helvetica,sans-Serif" font-size="10.00">RoR::App::GetSimGearboxMode</text>
</g>
<!-- Node2 -->
<g id="node2" class="node"><title>Node2</title>
<g id="a_node2"><a xlink:href="_settings_8cpp.html#a0e46d49646cc6b1119f8fdde05f4e804" target="_top" xlink:title="App__SimGearboxToStr">
<polygon fill="white" stroke="black" points="196,-0.5 196,-19.5 318,-19.5 318,-0.5 196,-0.5"/>
<text text-anchor="middle" x="257" y="-7.5" font-family="Helvetica,sans-Serif" font-size="10.00">App__SimGearboxToStr</text>
</a>
</g>
</g>
<!-- Node1&#45;&gt;Node2 -->
<g id="edge1" class="edge"><title>Node1&#45;&gt;Node2</title>
<path fill="none" stroke="midnightblue" d="M170.247,-10C178.941,-10 187.611,-10 195.915,-10"/>
<polygon fill="midnightblue" stroke="midnightblue" points="170.052,-6.5001 160.052,-10 170.052,-13.5001 170.052,-6.5001"/>
</g>
<!-- Node3 -->
<g id="node3" class="node"><title>Node3</title>
<g id="a_node3"><a xlink:href="class_settings.html#a19d1e2e2df8600f7e2cd1c64363fe60f" target="_top" xlink:title="Settings::SaveSettings">
<polygon fill="white" stroke="black" points="354.5,-0.5 354.5,-19.5 471.5,-19.5 471.5,-0.5 354.5,-0.5"/>
<text text-anchor="middle" x="413" y="-7.5" font-family="Helvetica,sans-Serif" font-size="10.00">Settings::SaveSettings</text>
</a>
</g>
</g>
<!-- Node2&#45;&gt;Node3 -->
<g id="edge2" class="edge"><title>Node2&#45;&gt;Node3</title>
<path fill="none" stroke="midnightblue" d="M328.48,-10C337.112,-10 345.855,-10 354.269,-10"/>
<polygon fill="midnightblue" stroke="midnightblue" points="328.423,-6.5001 318.423,-10 328.423,-13.5001 328.423,-6.5001"/>
</g>
<!-- Node4 -->
<g id="node4" class="node"><title>Node4</title>
<g id="a_node4"><a xlink:href="main_8cpp.html#a0ddf1224851353fc92bfbff6f499fa97" target="_top" xlink:title="main">
<polygon fill="white" stroke="black" points="508,-0.5 508,-19.5 546,-19.5 546,-0.5 508,-0.5"/>
<text text-anchor="middle" x="527" y="-7.5" font-family="Helvetica,sans-Serif" font-size="10.00">main</text>
</a>
</g>
</g>
<!-- Node3&#45;&gt;Node4 -->
<g id="edge3" class="edge"><title>Node3&#45;&gt;Node4</title>
<path fill="none" stroke="midnightblue" d="M481.683,-10C491.203,-10 500.251,-10 507.66,-10"/>
<polygon fill="midnightblue" stroke="midnightblue" points="481.64,-6.5001 471.64,-10 481.64,-13.5001 481.64,-6.5001"/>
</g>
<!-- Node5 -->
<g id="node5" class="node"><title>Node5</title>
<g id="a_node5"><a xlink:href="main_8cpp.html#a2922bc5d5c2d77a3020cfbf9df12aab0" target="_top" xlink:title="WinMain">
<polygon fill="white" stroke="black" points="582.5,-0.5 582.5,-19.5 637.5,-19.5 637.5,-0.5 582.5,-0.5"/>
<text text-anchor="middle" x="610" y="-7.5" font-family="Helvetica,sans-Serif" font-size="10.00">WinMain</text>
</a>
</g>
</g>
<!-- Node4&#45;&gt;Node5 -->
<g id="edge4" class="edge"><title>Node4&#45;&gt;Node5</title>
<path fill="none" stroke="midnightblue" d="M556.512,-10C564.929,-10 574.105,-10 582.397,-10"/>
<polygon fill="midnightblue" stroke="midnightblue" points="556.38,-6.5001 546.38,-10 556.38,-13.5001 556.38,-6.5001"/>
</g>
</g>
</svg>
