<?xml version="1.0" encoding="UTF-8" standalone="no"?>
<!DOCTYPE svg PUBLIC "-//W3C//DTD SVG 1.1//EN"
 "http://www.w3.org/Graphics/SVG/1.1/DTD/svg11.dtd">
<!-- Generated by graphviz version 2.36.0 (20140111.2315)
 -->
<!-- Title: RoR::App::GetAudioMasterVolume Pages: 1 -->
<svg width="466pt" height="38pt"
 viewBox="0.00 0.00 466.00 38.00" xmlns="http://www.w3.org/2000/svg" xmlns:xlink="http://www.w3.org/1999/xlink">
<g id="graph0" class="graph" transform="scale(1 1) rotate(0) translate(4 34)">
<title>RoR::App::GetAudioMasterVolume</title>
<polygon fill="white" stroke="none" points="-4,4 -4,-34 462,-34 462,4 -4,4"/>
<!-- Node1 -->
<g id="node1" class="node"><title>Node1</title>
<polygon fill="#bfbfbf" stroke="black" points="0.5,-0 0.5,-30 137.5,-30 137.5,-0 0.5,-0"/>
<text text-anchor="start" x="8.5" y="-18" font-family="Helvetica,sans-Serif" font-size="10.00">RoR::App::GetAudioMaster</text>
<text text-anchor="middle" x="69" y="-7" font-family="Helvetica,sans-Serif" font-size="10.00">Volume</text>
</g>
<!-- Node2 -->
<g id="node2" class="node"><title>Node2</title>
<g id="a_node2"><a xlink:href="class_settings.html#a19d1e2e2df8600f7e2cd1c64363fe60f" target="_top" xlink:title="Settings::SaveSettings">
<polygon fill="white" stroke="black" points="174.5,-5.5 174.5,-24.5 291.5,-24.5 291.5,-5.5 174.5,-5.5"/>
<text text-anchor="middle" x="233" y="-12.5" font-family="Helvetica,sans-Serif" font-size="10.00">Settings::SaveSettings</text>
</a>
</g>
</g>
<!-- Node1&#45;&gt;Node2 -->
<g id="edge1" class="edge"><title>Node1&#45;&gt;Node2</title>
<path fill="none" stroke="midnightblue" d="M147.79,-15C156.71,-15 165.681,-15 174.272,-15"/>
<polygon fill="midnightblue" stroke="midnightblue" points="147.764,-11.5001 137.764,-15 147.764,-18.5001 147.764,-11.5001"/>
</g>
<!-- Node3 -->
<g id="node3" class="node"><title>Node3</title>
<g id="a_node3"><a xlink:href="main_8cpp.html#a0ddf1224851353fc92bfbff6f499fa97" target="_top" xlink:title="main">
<polygon fill="white" stroke="black" points="328,-5.5 328,-24.5 366,-24.5 366,-5.5 328,-5.5"/>
<text text-anchor="middle" x="347" y="-12.5" font-family="Helvetica,sans-Serif" font-size="10.00">main</text>
</a>
</g>
</g>
<!-- Node2&#45;&gt;Node3 -->
<g id="edge2" class="edge"><title>Node2&#45;&gt;Node3</title>
<path fill="none" stroke="midnightblue" d="M301.683,-15C311.203,-15 320.251,-15 327.66,-15"/>
<polygon fill="midnightblue" stroke="midnightblue" points="301.64,-11.5001 291.64,-15 301.64,-18.5001 301.64,-11.5001"/>
</g>
<!-- Node4 -->
<g id="node4" class="node"><title>Node4</title>
<g id="a_node4"><a xlink:href="main_8cpp.html#a2922bc5d5c2d77a3020cfbf9df12aab0" target="_top" xlink:title="WinMain">
<polygon fill="white" stroke="black" points="402.5,-5.5 402.5,-24.5 457.5,-24.5 457.5,-5.5 402.5,-5.5"/>
<text text-anchor="middle" x="430" y="-12.5" font-family="Helvetica,sans-Serif" font-size="10.00">WinMain</text>
</a>
</g>
</g>
<!-- Node3&#45;&gt;Node4 -->
<g id="edge3" class="edge"><title>Node3&#45;&gt;Node4</title>
<path fill="none" stroke="midnightblue" d="M376.512,-15C384.929,-15 394.105,-15 402.397,-15"/>
<polygon fill="midnightblue" stroke="midnightblue" points="376.38,-11.5001 366.38,-15 376.38,-18.5001 376.38,-11.5001"/>
</g>
</g>
</svg>
