<?xml version="1.0" encoding="UTF-8" standalone="no"?>
<!DOCTYPE svg PUBLIC "-//W3C//DTD SVG 1.1//EN"
 "http://www.w3.org/Graphics/SVG/1.1/DTD/svg11.dtd">
<!-- Generated by graphviz version 2.36.0 (20140111.2315)
 -->
<!-- Title: utf8::unchecked::next Pages: 1 -->
<svg width="418pt" height="55pt"
 viewBox="0.00 0.00 418.00 55.00" xmlns="http://www.w3.org/2000/svg" xmlns:xlink="http://www.w3.org/1999/xlink">
<g id="graph0" class="graph" transform="scale(1 1) rotate(0) translate(4 51)">
<title>utf8::unchecked::next</title>
<polygon fill="white" stroke="none" points="-4,4 -4,-51 414,-51 414,4 -4,4"/>
<!-- Node1 -->
<g id="node1" class="node"><title>Node1</title>
<polygon fill="#bfbfbf" stroke="black" points="0.5,-27.5 0.5,-46.5 111.5,-46.5 111.5,-27.5 0.5,-27.5"/>
<text text-anchor="middle" x="56" y="-34.5" font-family="Helvetica,sans-Serif" font-size="10.00">utf8::unchecked::next</text>
</g>
<!-- Node2 -->
<g id="node2" class="node"><title>Node2</title>
<g id="a_node2"><a xlink:href="namespaceutf8_1_1internal.html#adf6e0469e279b9562aa461b4c3c1e7e4" target="_top" xlink:title="utf8::internal::mask8">
<polygon fill="white" stroke="black" points="304,-27.5 304,-46.5 410,-46.5 410,-27.5 304,-27.5"/>
<text text-anchor="middle" x="357" y="-34.5" font-family="Helvetica,sans-Serif" font-size="10.00">utf8::internal::mask8</text>
</a>
</g>
</g>
<!-- Node1&#45;&gt;Node2 -->
<g id="edge1" class="edge"><title>Node1&#45;&gt;Node2</title>
<path fill="none" stroke="midnightblue" d="M111.855,-38.4005C123.77,-38.6502 136.307,-38.8715 148,-39 201.33,-39.586 214.67,-39.6059 268,-39 276.347,-38.9052 285.139,-38.7597 293.805,-38.5896"/>
<polygon fill="midnightblue" stroke="midnightblue" points="293.962,-42.0872 303.887,-38.3801 293.816,-35.0887 293.962,-42.0872"/>
</g>
<!-- Node3 -->
<g id="node3" class="node"><title>Node3</title>
<g id="a_node3"><a xlink:href="namespaceutf8_1_1internal.html#aadbe437cba7bfcc4df2638f633e9787c" target="_top" xlink:title="utf8::internal::sequence\l_length">
<polygon fill="white" stroke="black" points="148.5,-0 148.5,-30 267.5,-30 267.5,-0 148.5,-0"/>
<text text-anchor="start" x="156.5" y="-18" font-family="Helvetica,sans-Serif" font-size="10.00">utf8::internal::sequence</text>
<text text-anchor="middle" x="208" y="-7" font-family="Helvetica,sans-Serif" font-size="10.00">_length</text>
</a>
</g>
</g>
<!-- Node1&#45;&gt;Node3 -->
<g id="edge2" class="edge"><title>Node1&#45;&gt;Node3</title>
<path fill="none" stroke="midnightblue" d="M111.578,-28.9953C120.281,-27.7188 129.381,-26.3841 138.359,-25.0673"/>
<polygon fill="midnightblue" stroke="midnightblue" points="139.03,-28.5065 148.416,-23.5923 138.014,-21.5806 139.03,-28.5065"/>
</g>
<!-- Node3&#45;&gt;Node2 -->
<g id="edge3" class="edge"><title>Node3&#45;&gt;Node2</title>
<path fill="none" stroke="midnightblue" d="M267.521,-23.7582C276.153,-25.0501 285.073,-26.385 293.776,-27.6876"/>
<polygon fill="midnightblue" stroke="midnightblue" points="293.457,-31.1787 303.865,-29.1974 294.493,-24.2558 293.457,-31.1787"/>
</g>
</g>
</svg>
