<?xml version="1.0" encoding="UTF-8" standalone="no"?>
<!DOCTYPE svg PUBLIC "-//W3C//DTD SVG 1.1//EN"
 "http://www.w3.org/Graphics/SVG/1.1/DTD/svg11.dtd">
<!-- Generated by graphviz version 2.36.0 (20140111.2315)
 -->
<!-- Title: RoR::App::SetVarFloat Pages: 1 -->
<!--zoomable 369 -->
<svg id="main" version="1.1" xmlns="http://www.w3.org/2000/svg" xmlns:xlink="http://www.w3.org/1999/xlink" xml:space="preserve" onload="init(evt)">
<style type="text/css"><![CDATA[
.edge:hover path { stroke: red; }
.edge:hover polygon { stroke: red; fill: red; }
]]></style>
<script type="text/javascript"><![CDATA[
var edges = document.getElementsByTagName('g');
if (edges && edges.length) {
  for (var i=0;i<edges.length;i++) {
    if (edges[i].id.substr(0,4)=='edge') {
      edges[i].setAttribute('class','edge');
    }
  }
}
]]></script>
        <defs>
                <circle id="rim" cx="0" cy="0" r="7"/>
                <circle id="rim2" cx="0" cy="0" r="3.5"/>
                <g id="zoomPlus">
                        <use xlink:href="#rim" fill="#404040">
                                <set attributeName="fill" to="#808080" begin="zoomplus.mouseover" end="zoomplus.mouseout"/>
                        </use>
                        <path d="M-4,0h8M0,-4v8" fill="none" stroke="white" stroke-width="1.5" pointer-events="none"/>
                </g>
                <g id="zoomMin">
                        <use xlink:href="#rim" fill="#404040">
                                <set attributeName="fill" to="#808080" begin="zoomminus.mouseover" end="zoomminus.mouseout"/>
                        </use>
                        <path d="M-4,0h8" fill="none" stroke="white" stroke-width="1.5" pointer-events="none"/>
                </g>
                <g id="dirArrow">
                        <path fill="none" stroke="white" stroke-width="1.5" d="M0,-3.0v7 M-2.5,-0.5L0,-3.0L2.5,-0.5"/>
                </g>
               <g id="resetDef">
                       <use xlink:href="#rim2" fill="#404040">
                               <set attributeName="fill" to="#808080" begin="reset.mouseover" end="reset.mouseout"/>
                       </use>
               </g>
        </defs>

<script type="text/javascript">
var viewWidth = 716;
var viewHeight = 369;
var sectionId = 'dynsection-268';
</script>
<script xlink:href="svgpan.js"/>
<svg id="graph" class="graph">
<g id="viewport">
<title>RoR::App::SetVarFloat</title>
<polygon fill="white" stroke="none" points="-4,4 -4,-365 712,-365 712,4 -4,4"/>
<!-- Node1 -->
<g id="node1" class="node"><title>Node1</title>
<polygon fill="#bfbfbf" stroke="black" points="0,-177.5 0,-196.5 118,-196.5 118,-177.5 0,-177.5"/>
<text text-anchor="middle" x="59" y="-184.5" font-family="Helvetica,sans-Serif" font-size="10.00">RoR::App::SetVarFloat</text>
</g>
<!-- Node2 -->
<g id="node2" class="node"><title>Node2</title>
<g id="a_node2"><a xlink:href="namespace_ro_r_1_1_app.html#ae96b10fd9ba321925d7b2bb5a27ce75b" target="_top" xlink:title="RoR::App::SetIoFFbackCameraGain">
<polygon fill="white" stroke="black" points="154.5,-101.5 154.5,-120.5 331.5,-120.5 331.5,-101.5 154.5,-101.5"/>
<text text-anchor="middle" x="243" y="-108.5" font-family="Helvetica,sans-Serif" font-size="10.00">RoR::App::SetIoFFbackCameraGain</text>
</a>
</g>
</g>
<!-- Node1&#45;&gt;Node2 -->
<g id="edge1" class="edge"><title>Node1&#45;&gt;Node2</title>
<path fill="none" stroke="midnightblue" d="M80.8642,-171.543C99.2396,-158.635 127.181,-140.677 154,-130 163.584,-126.185 174.076,-123.074 184.369,-120.557"/>
<polygon fill="midnightblue" stroke="midnightblue" points="78.7506,-168.751 72.6588,-177.42 82.8266,-174.442 78.7506,-168.751"/>
</g>
<!-- Node4 -->
<g id="node4" class="node"><title>Node4</title>
<g id="a_node4"><a xlink:href="namespace_ro_r_1_1_app.html#a27b79bcac571d9d5e1a61f8a64f7b0df" target="_top" xlink:title="RoR::App::SetIoFFbackCenterGain">
<polygon fill="white" stroke="black" points="157,-341.5 157,-360.5 329,-360.5 329,-341.5 157,-341.5"/>
<text text-anchor="middle" x="243" y="-348.5" font-family="Helvetica,sans-Serif" font-size="10.00">RoR::App::SetIoFFbackCenterGain</text>
</a>
</g>
</g>
<!-- Node1&#45;&gt;Node4 -->
<g id="edge3" class="edge"><title>Node1&#45;&gt;Node4</title>
<path fill="none" stroke="midnightblue" d="M66.7673,-206.041C78.9928,-237.535 107.86,-300.153 154,-332 159.531,-335.818 165.687,-338.889 172.102,-341.357"/>
<polygon fill="midnightblue" stroke="midnightblue" points="70.0352,-204.787 63.2584,-196.643 63.4774,-207.235 70.0352,-204.787"/>
</g>
<!-- Node5 -->
<g id="node5" class="node"><title>Node5</title>
<g id="a_node5"><a xlink:href="namespace_ro_r_1_1_app.html#a36dff9d06a4992a97cd9b8ae0700114c" target="_top" xlink:title="RoR::App::SetIoFFbackMasterGain">
<polygon fill="white" stroke="black" points="156.5,-303.5 156.5,-322.5 329.5,-322.5 329.5,-303.5 156.5,-303.5"/>
<text text-anchor="middle" x="243" y="-310.5" font-family="Helvetica,sans-Serif" font-size="10.00">RoR::App::SetIoFFbackMasterGain</text>
</a>
</g>
</g>
<!-- Node1&#45;&gt;Node5 -->
<g id="edge5" class="edge"><title>Node1&#45;&gt;Node5</title>
<path fill="none" stroke="midnightblue" d="M70.6634,-205.125C85.9267,-229.374 116.361,-271.88 154,-294 160.603,-297.88 167.902,-300.971 175.389,-303.433"/>
<polygon fill="midnightblue" stroke="midnightblue" points="73.6075,-203.23 65.4057,-196.523 67.6349,-206.881 73.6075,-203.23"/>
</g>
<!-- Node6 -->
<g id="node6" class="node"><title>Node6</title>
<g id="a_node6"><a xlink:href="namespace_ro_r_1_1_app.html#a5055638ae899990814826a4d77d0115d" target="_top" xlink:title="RoR::App::SetIoFFbackStressGain">
<polygon fill="white" stroke="black" points="157.5,-265.5 157.5,-284.5 328.5,-284.5 328.5,-265.5 157.5,-265.5"/>
<text text-anchor="middle" x="243" y="-272.5" font-family="Helvetica,sans-Serif" font-size="10.00">RoR::App::SetIoFFbackStressGain</text>
</a>
</g>
</g>
<!-- Node1&#45;&gt;Node6 -->
<g id="edge7" class="edge"><title>Node1&#45;&gt;Node6</title>
<path fill="none" stroke="midnightblue" d="M78.2831,-203.716C96.264,-219.266 125.14,-241.943 154,-255 163.564,-259.327 174.149,-262.759 184.567,-265.468"/>
<polygon fill="midnightblue" stroke="midnightblue" points="80.1894,-200.73 70.3792,-196.728 75.5529,-205.974 80.1894,-200.73"/>
</g>
<!-- Node7 -->
<g id="node7" class="node"><title>Node7</title>
<g id="a_node7"><a xlink:href="namespace_ro_r_1_1_app.html#af5a01058e57977ba0ebfc5e1be104b40" target="_top" xlink:title="RoR::App::SetAudioMaster\lVolume">
<polygon fill="white" stroke="black" points="175,-216 175,-246 311,-246 311,-216 175,-216"/>
<text text-anchor="start" x="183" y="-234" font-family="Helvetica,sans-Serif" font-size="10.00">RoR::App::SetAudioMaster</text>
<text text-anchor="middle" x="243" y="-223" font-family="Helvetica,sans-Serif" font-size="10.00">Volume</text>
</a>
</g>
</g>
<!-- Node1&#45;&gt;Node7 -->
<g id="edge9" class="edge"><title>Node1&#45;&gt;Node7</title>
<path fill="none" stroke="midnightblue" d="M109.45,-198.955C131.101,-204.189 156.747,-210.389 179.684,-215.935"/>
<polygon fill="midnightblue" stroke="midnightblue" points="110.034,-195.495 99.4913,-196.547 108.389,-202.299 110.034,-195.495"/>
</g>
<!-- Node8 -->
<g id="node8" class="node"><title>Node8</title>
<g id="a_node8"><a xlink:href="namespace_ro_r_1_1_app.html#a229ebaef4c949f8964c53f22dd7b095b" target="_top" xlink:title="RoR::App::SetIoOutGaugeDelay">
<polygon fill="white" stroke="black" points="163.5,-177.5 163.5,-196.5 322.5,-196.5 322.5,-177.5 163.5,-177.5"/>
<text text-anchor="middle" x="243" y="-184.5" font-family="Helvetica,sans-Serif" font-size="10.00">RoR::App::SetIoOutGaugeDelay</text>
</a>
</g>
</g>
<!-- Node1&#45;&gt;Node8 -->
<g id="edge11" class="edge"><title>Node1&#45;&gt;Node8</title>
<path fill="none" stroke="midnightblue" d="M128.366,-187C139.739,-187 151.615,-187 163.22,-187"/>
<polygon fill="midnightblue" stroke="midnightblue" points="128.086,-183.5 118.086,-187 128.086,-190.5 128.086,-183.5"/>
</g>
<!-- Node9 -->
<g id="node9" class="node"><title>Node9</title>
<g id="a_node9"><a xlink:href="namespace_ro_r_1_1_app.html#a9a6bd96a68f4334bfcac32d781b051a6" target="_top" xlink:title="RoR::App::SetGfxSightRange">
<polygon fill="white" stroke="black" points="169,-139.5 169,-158.5 317,-158.5 317,-139.5 169,-139.5"/>
<text text-anchor="middle" x="243" y="-146.5" font-family="Helvetica,sans-Serif" font-size="10.00">RoR::App::SetGfxSightRange</text>
</a>
</g>
</g>
<!-- Node1&#45;&gt;Node9 -->
<g id="edge13" class="edge"><title>Node1&#45;&gt;Node9</title>
<path fill="none" stroke="midnightblue" d="M115.946,-175.319C141.756,-169.93 172.007,-163.614 196.404,-158.52"/>
<polygon fill="midnightblue" stroke="midnightblue" points="115,-171.941 105.926,-177.411 116.431,-178.793 115,-171.941"/>
</g>
<!-- Node10 -->
<g id="node10" class="node"><title>Node10</title>
<g id="a_node10"><a xlink:href="namespace_ro_r_1_1_app.html#a72931ba89f662b881397d31da7000560" target="_top" xlink:title="RoR::App::SetGfxFovExternal">
<polygon fill="white" stroke="black" points="168.5,-25.5 168.5,-44.5 317.5,-44.5 317.5,-25.5 168.5,-25.5"/>
<text text-anchor="middle" x="243" y="-32.5" font-family="Helvetica,sans-Serif" font-size="10.00">RoR::App::SetGfxFovExternal</text>
</a>
</g>
</g>
<!-- Node1&#45;&gt;Node10 -->
<g id="edge15" class="edge"><title>Node1&#45;&gt;Node10</title>
<path fill="none" stroke="midnightblue" d="M67.9396,-167.91C81.1973,-138.522 110.724,-82.6068 154,-54 159.867,-50.1215 166.391,-47.0194 173.159,-44.5407"/>
<polygon fill="midnightblue" stroke="midnightblue" points="64.5749,-166.871 63.796,-177.437 70.994,-169.663 64.5749,-166.871"/>
</g>
<!-- Node14 -->
<g id="node14" class="node"><title>Node14</title>
<g id="a_node14"><a xlink:href="namespace_ro_r_1_1_app.html#a50c2959dfade0689fec6803ace3b5a89" target="_top" xlink:title="RoR::App::SetGfxFovInternal">
<polygon fill="white" stroke="black" points="170,-63.5 170,-82.5 316,-82.5 316,-63.5 170,-63.5"/>
<text text-anchor="middle" x="243" y="-70.5" font-family="Helvetica,sans-Serif" font-size="10.00">RoR::App::SetGfxFovInternal</text>
</a>
</g>
</g>
<!-- Node1&#45;&gt;Node14 -->
<g id="edge20" class="edge"><title>Node1&#45;&gt;Node14</title>
<path fill="none" stroke="midnightblue" d="M72.5598,-169.036C88.7812,-147.268 119.111,-111.135 154,-92 161.126,-88.0916 168.988,-84.987 176.993,-82.521"/>
<polygon fill="midnightblue" stroke="midnightblue" points="69.536,-167.244 66.4994,-177.395 75.2031,-171.353 69.536,-167.244"/>
</g>
<!-- Node3 -->
<g id="node3" class="node"><title>Node3</title>
<g id="a_node3"><a xlink:href="class_settings.html#aa27b8db941ea9fa77ffff67c80b1d5be" target="_top" xlink:title="Settings::ParseGlobalVar\lSetting">
<polygon fill="white" stroke="black" points="375.5,-172 375.5,-202 502.5,-202 502.5,-172 375.5,-172"/>
<text text-anchor="start" x="383.5" y="-190" font-family="Helvetica,sans-Serif" font-size="10.00">Settings::ParseGlobalVar</text>
<text text-anchor="middle" x="439" y="-179" font-family="Helvetica,sans-Serif" font-size="10.00">Setting</text>
</a>
</g>
</g>
<!-- Node2&#45;&gt;Node3 -->
<g id="edge2" class="edge"><title>Node2&#45;&gt;Node3</title>
<path fill="none" stroke="midnightblue" d="M309.363,-122.957C317.086,-125.001 324.782,-127.34 332,-130 361.802,-140.98 393.583,-159.016 414.487,-171.858"/>
<polygon fill="midnightblue" stroke="midnightblue" points="310.151,-119.547 299.601,-120.525 308.458,-126.339 310.151,-119.547"/>
</g>
<!-- Node4&#45;&gt;Node3 -->
<g id="edge4" class="edge"><title>Node4&#45;&gt;Node3</title>
<path fill="none" stroke="midnightblue" d="M322.115,-337.485C325.551,-335.856 328.867,-334.035 332,-332 382.992,-298.875 417.804,-232.083 431.498,-202.133"/>
<polygon fill="midnightblue" stroke="midnightblue" points="320.67,-334.295 312.778,-341.363 323.356,-340.76 320.67,-334.295"/>
</g>
<!-- Node5&#45;&gt;Node3 -->
<g id="edge6" class="edge"><title>Node5&#45;&gt;Node3</title>
<path fill="none" stroke="midnightblue" d="M318.651,-300.143C323.277,-298.356 327.768,-296.319 332,-294 374.192,-270.875 410.493,-225.716 427.574,-202.143"/>
<polygon fill="midnightblue" stroke="midnightblue" points="317.314,-296.902 309.005,-303.475 319.6,-303.519 317.314,-296.902"/>
</g>
<!-- Node6&#45;&gt;Node3 -->
<g id="edge8" class="edge"><title>Node6&#45;&gt;Node3</title>
<path fill="none" stroke="midnightblue" d="M309.243,-262.863C317.04,-260.629 324.787,-258.024 332,-255 364.666,-241.307 398.437,-217.714 418.833,-202.233"/>
<polygon fill="midnightblue" stroke="midnightblue" points="308.133,-259.537 299.375,-265.499 309.94,-266.3 308.133,-259.537"/>
</g>
<!-- Node7&#45;&gt;Node3 -->
<g id="edge10" class="edge"><title>Node7&#45;&gt;Node3</title>
<path fill="none" stroke="midnightblue" d="M319.988,-213.766C338.32,-209.608 357.705,-205.211 375.349,-201.21"/>
<polygon fill="midnightblue" stroke="midnightblue" points="319.199,-210.356 310.221,-215.981 320.748,-217.182 319.199,-210.356"/>
</g>
<!-- Node8&#45;&gt;Node3 -->
<g id="edge12" class="edge"><title>Node8&#45;&gt;Node3</title>
<path fill="none" stroke="midnightblue" d="M332.982,-187C347.284,-187 361.82,-187 375.336,-187"/>
<polygon fill="midnightblue" stroke="midnightblue" points="332.628,-183.5 322.628,-187 332.628,-190.5 332.628,-183.5"/>
</g>
<!-- Node9&#45;&gt;Node3 -->
<g id="edge14" class="edge"><title>Node9&#45;&gt;Node3</title>
<path fill="none" stroke="midnightblue" d="M302.898,-160.537C325.845,-165.031 352.173,-170.189 375.457,-174.749"/>
<polygon fill="midnightblue" stroke="midnightblue" points="303.441,-157.077 292.954,-158.589 302.095,-163.946 303.441,-157.077"/>
</g>
<!-- Node10&#45;&gt;Node3 -->
<g id="edge19" class="edge"><title>Node10&#45;&gt;Node3</title>
<path fill="none" stroke="midnightblue" d="M323.9,-48.8829C326.721,-50.421 329.435,-52.1212 332,-54 358.017,-73.0553 348.425,-91.3715 368,-117 383.753,-137.624 405.276,-158.272 420.282,-171.741"/>
<polygon fill="midnightblue" stroke="midnightblue" points="325.108,-45.5837 314.569,-44.5021 322.133,-51.9202 325.108,-45.5837"/>
</g>
<!-- Node11 -->
<g id="node11" class="node"><title>Node11</title>
<g id="a_node11"><a xlink:href="class_ro_r_frame_listener.html#afec2a0f00ed552c21d22aae76329bf38" target="_top" xlink:title="RoRFrameListener::Update\lInputEvents">
<polygon fill="white" stroke="black" points="370.5,-39 370.5,-69 507.5,-69 507.5,-39 370.5,-39"/>
<text text-anchor="start" x="378.5" y="-57" font-family="Helvetica,sans-Serif" font-size="10.00">RoRFrameListener::Update</text>
<text text-anchor="middle" x="439" y="-46" font-family="Helvetica,sans-Serif" font-size="10.00">InputEvents</text>
</a>
</g>
</g>
<!-- Node10&#45;&gt;Node11 -->
<g id="edge16" class="edge"><title>Node10&#45;&gt;Node11</title>
<path fill="none" stroke="midnightblue" d="M327.898,-43.2168C342.131,-44.6108 356.748,-46.0423 370.492,-47.3884"/>
<polygon fill="midnightblue" stroke="midnightblue" points="327.913,-39.7016 317.62,-42.2102 327.231,-46.6683 327.913,-39.7016"/>
</g>
<!-- Node13 -->
<g id="node13" class="node"><title>Node13</title>
<g id="a_node13"><a xlink:href="class_settings.html#a017766bde6b39c2e123bbeb50f3237d2" target="_top" xlink:title="Settings::SetGfxFovExternal">
<polygon fill="white" stroke="black" points="368,-0.5 368,-19.5 510,-19.5 510,-0.5 368,-0.5"/>
<text text-anchor="middle" x="439" y="-7.5" font-family="Helvetica,sans-Serif" font-size="10.00">Settings::SetGfxFovExternal</text>
</a>
</g>
</g>
<!-- Node10&#45;&gt;Node13 -->
<g id="edge18" class="edge"><title>Node10&#45;&gt;Node13</title>
<path fill="none" stroke="midnightblue" d="M327.78,-24.2036C341.177,-22.4771 354.917,-20.7065 367.952,-19.0268"/>
<polygon fill="midnightblue" stroke="midnightblue" points="327.09,-20.7635 317.62,-25.5129 327.985,-27.706 327.09,-20.7635"/>
</g>
<!-- Node12 -->
<g id="node12" class="node"><title>Node12</title>
<g id="a_node12"><a xlink:href="class_ro_r_frame_listener.html#acd8647e188fb8e838689492965b86faf" target="_top" xlink:title="RoRFrameListener::frameStarted">
<polygon fill="white" stroke="black" points="546.5,-44.5 546.5,-63.5 707.5,-63.5 707.5,-44.5 546.5,-44.5"/>
<text text-anchor="middle" x="627" y="-51.5" font-family="Helvetica,sans-Serif" font-size="10.00">RoRFrameListener::frameStarted</text>
</a>
</g>
</g>
<!-- Node11&#45;&gt;Node12 -->
<g id="edge17" class="edge"><title>Node11&#45;&gt;Node12</title>
<path fill="none" stroke="midnightblue" d="M517.814,-54C527.252,-54 536.904,-54 546.368,-54"/>
<polygon fill="midnightblue" stroke="midnightblue" points="517.676,-50.5001 507.676,-54 517.676,-57.5001 517.676,-50.5001"/>
</g>
<!-- Node14&#45;&gt;Node3 -->
<g id="edge23" class="edge"><title>Node14&#45;&gt;Node3</title>
<path fill="none" stroke="midnightblue" d="M317.296,-85.7148C322.381,-87.537 327.334,-89.6197 332,-92 352.473,-102.443 399.153,-147.861 423.15,-171.918"/>
<polygon fill="midnightblue" stroke="midnightblue" points="317.989,-82.2607 307.397,-82.5218 315.84,-88.9227 317.989,-82.2607"/>
</g>
<!-- Node14&#45;&gt;Node11 -->
<g id="edge21" class="edge"><title>Node14&#45;&gt;Node11</title>
<path fill="none" stroke="midnightblue" d="M326.283,-64.9413C340.923,-63.5076 356.02,-62.029 370.199,-60.6403"/>
<polygon fill="midnightblue" stroke="midnightblue" points="325.85,-61.467 316.238,-65.9251 326.532,-68.4336 325.85,-61.467"/>
</g>
<!-- Node15 -->
<g id="node15" class="node"><title>Node15</title>
<g id="a_node15"><a xlink:href="class_settings.html#a99c5eec8b9e74d09a7ac2f7aa97ecd19" target="_top" xlink:title="Settings::SetGfxFovInternal">
<polygon fill="white" stroke="black" points="370,-88.5 370,-107.5 508,-107.5 508,-88.5 370,-88.5"/>
<text text-anchor="middle" x="439" y="-95.5" font-family="Helvetica,sans-Serif" font-size="10.00">Settings::SetGfxFovInternal</text>
</a>
</g>
</g>
<!-- Node14&#45;&gt;Node15 -->
<g id="edge22" class="edge"><title>Node14&#45;&gt;Node15</title>
<path fill="none" stroke="midnightblue" d="M326.222,-83.5956C340.77,-85.4704 355.773,-87.4038 369.88,-89.2216"/>
<polygon fill="midnightblue" stroke="midnightblue" points="326.604,-80.116 316.238,-82.3091 325.709,-87.0586 326.604,-80.116"/>
</g>
</g>
</svg>
        <g id="navigator" transform="translate(0 0)" fill="#404254">
                <rect fill="#f2f5e9" fill-opacity="0.5" stroke="#606060" stroke-width=".5" x="0" y="0" width="60" height="60"/>
                <use id="zoomplus" xlink:href="#zoomPlus" x="17" y="9" onmousedown="handleZoom(evt,'in')"/>
                <use id="zoomminus" xlink:href="#zoomMin" x="42" y="9" onmousedown="handleZoom(evt,'out')"/>
                <use id="reset" xlink:href="#resetDef" x="30" y="36" onmousedown="handleReset()"/>
                <g id="arrowUp" xlink:href="#dirArrow" transform="translate(30 24)" onmousedown="handlePan(0,-1)">
                  <use xlink:href="#rim" fill="#404040">
                        <set attributeName="fill" to="#808080" begin="arrowUp.mouseover" end="arrowUp.mouseout"/>
                  </use>
                  <path fill="none" stroke="white" stroke-width="1.5" d="M0,-3.0v7 M-2.5,-0.5L0,-3.0L2.5,-0.5"/>
                </g>
                <g id="arrowRight" xlink:href="#dirArrow" transform="rotate(90) translate(36 -43)" onmousedown="handlePan(1,0)">
                  <use xlink:href="#rim" fill="#404040">
                        <set attributeName="fill" to="#808080" begin="arrowRight.mouseover" end="arrowRight.mouseout"/>
                  </use>
                  <path fill="none" stroke="white" stroke-width="1.5" d="M0,-3.0v7 M-2.5,-0.5L0,-3.0L2.5,-0.5"/>
                </g>
                <g id="arrowDown" xlink:href="#dirArrow" transform="rotate(180) translate(-30 -48)" onmousedown="handlePan(0,1)">
                  <use xlink:href="#rim" fill="#404040">
                        <set attributeName="fill" to="#808080" begin="arrowDown.mouseover" end="arrowDown.mouseout"/>
                  </use>
                  <path fill="none" stroke="white" stroke-width="1.5" d="M0,-3.0v7 M-2.5,-0.5L0,-3.0L2.5,-0.5"/>
                </g>
                <g id="arrowLeft" xlink:href="#dirArrow" transform="rotate(270) translate(-36 17)" onmousedown="handlePan(-1,0)">
                  <use xlink:href="#rim" fill="#404040">
                        <set attributeName="fill" to="#808080" begin="arrowLeft.mouseover" end="arrowLeft.mouseout"/>
                  </use>
                  <path fill="none" stroke="white" stroke-width="1.5" d="M0,-3.0v7 M-2.5,-0.5L0,-3.0L2.5,-0.5"/>
                </g>
        </g>
        <svg viewBox="0 0 15 15" width="100%" height="30px" preserveAspectRatio="xMaxYMin meet">
         <g id="arrow_out" transform="scale(0.3 0.3)">
          <a xlink:href="namespace_ro_r_1_1_app_aab938ac914aeea7dd5afa6fe4eee1254_icgraph_org.svg" target="_base">
           <rect id="button" ry="5" rx="5" y="6" x="6" height="38" width="38"
                fill="#f2f5e9" fill-opacity="0.5" stroke="#606060" stroke-width="1.0"/>
           <path id="arrow"
             d="M 11.500037,31.436501 C 11.940474,20.09759 22.043105,11.32322 32.158766,21.979434 L 37.068811,17.246167 C 37.068811,17.246167 37.088388,32 37.088388,32 L 22.160133,31.978069 C 22.160133,31.978069 26.997745,27.140456 26.997745,27.140456 C 18.528582,18.264221 13.291696,25.230495 11.500037,31.436501 z"
             style="fill:#404040;"/>
          </a>
         </g>
        </svg>
</svg>
