<?xml version="1.0" encoding="UTF-8" standalone="no"?>
<!DOCTYPE svg PUBLIC "-//W3C//DTD SVG 1.1//EN"
 "http://www.w3.org/Graphics/SVG/1.1/DTD/svg11.dtd">
<!-- Generated by graphviz version 2.36.0 (20140111.2315)
 -->
<!-- Title: RoR::App::SetGfxShadowType Pages: 1 -->
<svg width="478pt" height="38pt"
 viewBox="0.00 0.00 478.00 38.00" xmlns="http://www.w3.org/2000/svg" xmlns:xlink="http://www.w3.org/1999/xlink">
<g id="graph0" class="graph" transform="scale(1 1) rotate(0) translate(4 34)">
<title>RoR::App::SetGfxShadowType</title>
<polygon fill="white" stroke="none" points="-4,4 -4,-34 474,-34 474,4 -4,4"/>
<!-- Node1 -->
<g id="node1" class="node"><title>Node1</title>
<polygon fill="#bfbfbf" stroke="black" points="0,-5.5 0,-24.5 154,-24.5 154,-5.5 0,-5.5"/>
<text text-anchor="middle" x="77" y="-12.5" font-family="Helvetica,sans-Serif" font-size="10.00">RoR::App::SetGfxShadowType</text>
</g>
<!-- Node2 -->
<g id="node2" class="node"><title>Node2</title>
<g id="a_node2"><a xlink:href="_settings_8h.html#aa78b1aa8827cc60cd0121ff34045804e" target="_top" xlink:title="App__SetShadowTech">
<polygon fill="white" stroke="black" points="190,-5.5 190,-24.5 306,-24.5 306,-5.5 190,-5.5"/>
<text text-anchor="middle" x="248" y="-12.5" font-family="Helvetica,sans-Serif" font-size="10.00">App__SetShadowTech</text>
</a>
</g>
</g>
<!-- Node1&#45;&gt;Node2 -->
<g id="edge1" class="edge"><title>Node1&#45;&gt;Node2</title>
<path fill="none" stroke="midnightblue" d="M164.255,-15C172.919,-15 181.558,-15 189.807,-15"/>
<polygon fill="midnightblue" stroke="midnightblue" points="164.095,-11.5001 154.095,-15 164.095,-18.5001 164.095,-11.5001"/>
</g>
<!-- Node3 -->
<g id="node3" class="node"><title>Node3</title>
<g id="a_node3"><a xlink:href="class_settings.html#aa27b8db941ea9fa77ffff67c80b1d5be" target="_top" xlink:title="Settings::ParseGlobalVar\lSetting">
<polygon fill="white" stroke="black" points="342.5,-0 342.5,-30 469.5,-30 469.5,-0 342.5,-0"/>
<text text-anchor="start" x="350.5" y="-18" font-family="Helvetica,sans-Serif" font-size="10.00">Settings::ParseGlobalVar</text>
<text text-anchor="middle" x="406" y="-7" font-family="Helvetica,sans-Serif" font-size="10.00">Setting</text>
</a>
</g>
</g>
<!-- Node2&#45;&gt;Node3 -->
<g id="edge2" class="edge"><title>Node2&#45;&gt;Node3</title>
<path fill="none" stroke="midnightblue" d="M316.243,-15C324.888,-15 333.712,-15 342.281,-15"/>
<polygon fill="midnightblue" stroke="midnightblue" points="316.203,-11.5001 306.203,-15 316.203,-18.5001 316.203,-11.5001"/>
</g>
</g>
</svg>
