<?xml version="1.0" encoding="UTF-8" standalone="no"?>
<!DOCTYPE svg PUBLIC "-//W3C//DTD SVG 1.1//EN"
 "http://www.w3.org/Graphics/SVG/1.1/DTD/svg11.dtd">
<!-- Generated by graphviz version 2.36.0 (20140111.2315)
 -->
<!-- Title: utf8::internal::validate_next Pages: 1 -->
<svg width="610pt" height="332pt"
 viewBox="0.00 0.00 610.00 332.00" xmlns="http://www.w3.org/2000/svg" xmlns:xlink="http://www.w3.org/1999/xlink">
<g id="graph0" class="graph" transform="scale(1 1) rotate(0) translate(4 328)">
<title>utf8::internal::validate_next</title>
<polygon fill="white" stroke="none" points="-4,4 -4,-328 606,-328 606,4 -4,4"/>
<!-- Node1 -->
<g id="node1" class="node"><title>Node1</title>
<polygon fill="#bfbfbf" stroke="black" points="0,-152.5 0,-171.5 134,-171.5 134,-152.5 0,-152.5"/>
<text text-anchor="middle" x="67" y="-159.5" font-family="Helvetica,sans-Serif" font-size="10.00">utf8::internal::validate_next</text>
</g>
<!-- Node2 -->
<g id="node2" class="node"><title>Node2</title>
<g id="a_node2"><a xlink:href="namespaceutf8_1_1internal.html#abe95547575fcc81911e381df03f8ebfe" target="_top" xlink:title="utf8::internal::validate_next">
<polygon fill="white" stroke="black" points="170,-152.5 170,-171.5 304,-171.5 304,-152.5 170,-152.5"/>
<text text-anchor="middle" x="237" y="-159.5" font-family="Helvetica,sans-Serif" font-size="10.00">utf8::internal::validate_next</text>
</a>
</g>
</g>
<!-- Node1&#45;&gt;Node2 -->
<g id="edge1" class="edge"><title>Node1&#45;&gt;Node2</title>
<path fill="none" stroke="midnightblue" d="M134.398,-162C142.679,-162 151.199,-162 159.616,-162"/>
<polygon fill="midnightblue" stroke="midnightblue" points="159.809,-165.5 169.809,-162 159.809,-158.5 159.809,-165.5"/>
</g>
<!-- Node3 -->
<g id="node3" class="node"><title>Node3</title>
<g id="a_node3"><a xlink:href="namespaceutf8_1_1internal.html#aadbe437cba7bfcc4df2638f633e9787c" target="_top" xlink:title="utf8::internal::sequence\l_length">
<polygon fill="white" stroke="black" points="340.5,-294 340.5,-324 459.5,-324 459.5,-294 340.5,-294"/>
<text text-anchor="start" x="348.5" y="-312" font-family="Helvetica,sans-Serif" font-size="10.00">utf8::internal::sequence</text>
<text text-anchor="middle" x="400" y="-301" font-family="Helvetica,sans-Serif" font-size="10.00">_length</text>
</a>
</g>
</g>
<!-- Node2&#45;&gt;Node3 -->
<g id="edge2" class="edge"><title>Node2&#45;&gt;Node3</title>
<path fill="none" stroke="midnightblue" d="M243.719,-171.564C257.588,-194.035 295.189,-250.802 340,-284 342.346,-285.738 344.832,-287.383 347.404,-288.935"/>
<polygon fill="midnightblue" stroke="midnightblue" points="345.947,-292.128 356.4,-293.856 349.306,-285.987 345.947,-292.128"/>
</g>
<!-- Node5 -->
<g id="node5" class="node"><title>Node5</title>
<g id="a_node5"><a xlink:href="namespaceutf8_1_1internal.html#a6e5df73716136aec55e8fcf3309038b6" target="_top" xlink:title="get_sequence_x functions decode utf&#45;8 sequences of the length x ">
<polygon fill="white" stroke="black" points="355,-245 355,-275 445,-275 445,-245 355,-245"/>
<text text-anchor="start" x="363" y="-263" font-family="Helvetica,sans-Serif" font-size="10.00">utf8::internal::get</text>
<text text-anchor="middle" x="400" y="-252" font-family="Helvetica,sans-Serif" font-size="10.00">_sequence_1</text>
</a>
</g>
</g>
<!-- Node2&#45;&gt;Node5 -->
<g id="edge4" class="edge"><title>Node2&#45;&gt;Node5</title>
<path fill="none" stroke="midnightblue" d="M249.672,-171.668C268.054,-186.582 305.24,-215.512 340,-235 343.449,-236.934 347.078,-238.813 350.771,-240.615"/>
<polygon fill="midnightblue" stroke="midnightblue" points="349.47,-243.87 360.012,-244.922 352.427,-237.525 349.47,-243.87"/>
</g>
<!-- Node6 -->
<g id="node6" class="node"><title>Node6</title>
<g id="a_node6"><a xlink:href="namespaceutf8_1_1internal.html#a9d641b9546be985f9f0fd4955ac42a24" target="_top" xlink:title="utf8::internal::get\l_sequence_2">
<polygon fill="white" stroke="black" points="355,-196 355,-226 445,-226 445,-196 355,-196"/>
<text text-anchor="start" x="363" y="-214" font-family="Helvetica,sans-Serif" font-size="10.00">utf8::internal::get</text>
<text text-anchor="middle" x="400" y="-203" font-family="Helvetica,sans-Serif" font-size="10.00">_sequence_2</text>
</a>
</g>
</g>
<!-- Node2&#45;&gt;Node6 -->
<g id="edge6" class="edge"><title>Node2&#45;&gt;Node6</title>
<path fill="none" stroke="midnightblue" d="M269.425,-171.564C290.914,-178.104 319.949,-186.941 345.087,-194.592"/>
<polygon fill="midnightblue" stroke="midnightblue" points="344.279,-198.004 354.865,-197.568 346.317,-191.307 344.279,-198.004"/>
</g>
<!-- Node7 -->
<g id="node7" class="node"><title>Node7</title>
<g id="a_node7"><a xlink:href="namespaceutf8_1_1internal.html#ac1809a1fb3fa6983d64a0d3a39646008" target="_top" xlink:title="utf8::internal::get\l_sequence_3">
<polygon fill="white" stroke="black" points="355,-147 355,-177 445,-177 445,-147 355,-147"/>
<text text-anchor="start" x="363" y="-165" font-family="Helvetica,sans-Serif" font-size="10.00">utf8::internal::get</text>
<text text-anchor="middle" x="400" y="-154" font-family="Helvetica,sans-Serif" font-size="10.00">_sequence_3</text>
</a>
</g>
</g>
<!-- Node2&#45;&gt;Node7 -->
<g id="edge8" class="edge"><title>Node2&#45;&gt;Node7</title>
<path fill="none" stroke="midnightblue" d="M304.414,-162C317.811,-162 331.744,-162 344.668,-162"/>
<polygon fill="midnightblue" stroke="midnightblue" points="344.786,-165.5 354.786,-162 344.786,-158.5 344.786,-165.5"/>
</g>
<!-- Node8 -->
<g id="node8" class="node"><title>Node8</title>
<g id="a_node8"><a xlink:href="namespaceutf8_1_1internal.html#ad1958e7c6746ba6b1fbb0d81b88b346c" target="_top" xlink:title="utf8::internal::get\l_sequence_4">
<polygon fill="white" stroke="black" points="355,-98 355,-128 445,-128 445,-98 355,-98"/>
<text text-anchor="start" x="363" y="-116" font-family="Helvetica,sans-Serif" font-size="10.00">utf8::internal::get</text>
<text text-anchor="middle" x="400" y="-105" font-family="Helvetica,sans-Serif" font-size="10.00">_sequence_4</text>
</a>
</g>
</g>
<!-- Node2&#45;&gt;Node8 -->
<g id="edge10" class="edge"><title>Node2&#45;&gt;Node8</title>
<path fill="none" stroke="midnightblue" d="M269.425,-152.436C290.914,-145.896 319.949,-137.059 345.087,-129.408"/>
<polygon fill="midnightblue" stroke="midnightblue" points="346.317,-132.693 354.865,-126.432 344.279,-125.996 346.317,-132.693"/>
</g>
<!-- Node9 -->
<g id="node9" class="node"><title>Node9</title>
<g id="a_node9"><a xlink:href="namespaceutf8_1_1internal.html#a97b553137aaeda6e8ca6f8d46f78fd79" target="_top" xlink:title="utf8::internal::is\l_code_point_valid">
<polygon fill="white" stroke="black" points="352.5,-49 352.5,-79 447.5,-79 447.5,-49 352.5,-49"/>
<text text-anchor="start" x="360.5" y="-67" font-family="Helvetica,sans-Serif" font-size="10.00">utf8::internal::is</text>
<text text-anchor="middle" x="400" y="-56" font-family="Helvetica,sans-Serif" font-size="10.00">_code_point_valid</text>
</a>
</g>
</g>
<!-- Node2&#45;&gt;Node9 -->
<g id="edge12" class="edge"><title>Node2&#45;&gt;Node9</title>
<path fill="none" stroke="midnightblue" d="M249.672,-152.332C268.054,-137.418 305.24,-108.488 340,-89 343.449,-87.0661 347.078,-85.1873 350.771,-83.3855"/>
<polygon fill="midnightblue" stroke="midnightblue" points="352.427,-86.4749 360.012,-79.0779 349.47,-80.1302 352.427,-86.4749"/>
</g>
<!-- Node11 -->
<g id="node11" class="node"><title>Node11</title>
<g id="a_node11"><a xlink:href="namespaceutf8_1_1internal.html#a3160f6f24dff465f64f83cb0e66995c6" target="_top" xlink:title="utf8::internal::is\l_overlong_sequence">
<polygon fill="white" stroke="black" points="347,-0 347,-30 453,-30 453,-0 347,-0"/>
<text text-anchor="start" x="355" y="-18" font-family="Helvetica,sans-Serif" font-size="10.00">utf8::internal::is</text>
<text text-anchor="middle" x="400" y="-7" font-family="Helvetica,sans-Serif" font-size="10.00">_overlong_sequence</text>
</a>
</g>
</g>
<!-- Node2&#45;&gt;Node11 -->
<g id="edge14" class="edge"><title>Node2&#45;&gt;Node11</title>
<path fill="none" stroke="midnightblue" d="M243.719,-152.436C257.588,-129.965 295.189,-73.1979 340,-40 342.346,-38.2616 344.832,-36.6169 347.404,-35.0649"/>
<polygon fill="midnightblue" stroke="midnightblue" points="349.306,-38.0135 356.4,-30.144 345.947,-31.8721 349.306,-38.0135"/>
</g>
<!-- Node4 -->
<g id="node4" class="node"><title>Node4</title>
<g id="a_node4"><a xlink:href="namespaceutf8_1_1internal.html#adf6e0469e279b9562aa461b4c3c1e7e4" target="_top" xlink:title="utf8::internal::mask8">
<polygon fill="white" stroke="black" points="496,-201.5 496,-220.5 602,-220.5 602,-201.5 496,-201.5"/>
<text text-anchor="middle" x="549" y="-208.5" font-family="Helvetica,sans-Serif" font-size="10.00">utf8::internal::mask8</text>
</a>
</g>
</g>
<!-- Node3&#45;&gt;Node4 -->
<g id="edge3" class="edge"><title>Node3&#45;&gt;Node4</title>
<path fill="none" stroke="midnightblue" d="M441.143,-293.866C447.609,-290.9 454.108,-287.585 460,-284 486.814,-267.684 514.077,-243.673 531.005,-227.697"/>
<polygon fill="midnightblue" stroke="midnightblue" points="533.642,-230.017 538.437,-220.57 528.797,-224.965 533.642,-230.017"/>
</g>
<!-- Node5&#45;&gt;Node4 -->
<g id="edge5" class="edge"><title>Node5&#45;&gt;Node4</title>
<path fill="none" stroke="midnightblue" d="M445.105,-245.298C465.651,-238.45 489.867,-230.378 509.643,-223.786"/>
<polygon fill="midnightblue" stroke="midnightblue" points="510.868,-227.067 519.248,-220.584 508.654,-220.426 510.868,-227.067"/>
</g>
<!-- Node6&#45;&gt;Node4 -->
<g id="edge7" class="edge"><title>Node6&#45;&gt;Node4</title>
<path fill="none" stroke="midnightblue" d="M445.105,-211C457.842,-211 471.989,-211 485.614,-211"/>
<polygon fill="midnightblue" stroke="midnightblue" points="485.9,-214.5 495.9,-211 485.9,-207.5 485.9,-214.5"/>
</g>
<!-- Node7&#45;&gt;Node4 -->
<g id="edge9" class="edge"><title>Node7&#45;&gt;Node4</title>
<path fill="none" stroke="midnightblue" d="M445.105,-176.702C465.651,-183.55 489.867,-191.622 509.643,-198.214"/>
<polygon fill="midnightblue" stroke="midnightblue" points="508.654,-201.574 519.248,-201.416 510.868,-194.933 508.654,-201.574"/>
</g>
<!-- Node8&#45;&gt;Node4 -->
<g id="edge11" class="edge"><title>Node8&#45;&gt;Node4</title>
<path fill="none" stroke="midnightblue" d="M441.143,-128.134C447.609,-131.1 454.108,-134.415 460,-138 486.814,-154.316 514.077,-178.327 531.005,-194.303"/>
<polygon fill="midnightblue" stroke="midnightblue" points="528.797,-197.035 538.437,-201.43 533.642,-191.983 528.797,-197.035"/>
</g>
<!-- Node10 -->
<g id="node10" class="node"><title>Node10</title>
<g id="a_node10"><a xlink:href="namespaceutf8_1_1internal.html#a31a185a6bc8b9bf454191a8a95a93595" target="_top" xlink:title="utf8::internal::is\l_surrogate">
<polygon fill="white" stroke="black" points="507,-49 507,-79 591,-79 591,-49 507,-49"/>
<text text-anchor="start" x="515" y="-67" font-family="Helvetica,sans-Serif" font-size="10.00">utf8::internal::is</text>
<text text-anchor="middle" x="549" y="-56" font-family="Helvetica,sans-Serif" font-size="10.00">_surrogate</text>
</a>
</g>
</g>
<!-- Node9&#45;&gt;Node10 -->
<g id="edge13" class="edge"><title>Node9&#45;&gt;Node10</title>
<path fill="none" stroke="midnightblue" d="M447.512,-64C463.106,-64 480.582,-64 496.532,-64"/>
<polygon fill="midnightblue" stroke="midnightblue" points="496.759,-67.5001 506.759,-64 496.759,-60.5001 496.759,-67.5001"/>
</g>
</g>
</svg>
