<?xml version="1.0" encoding="UTF-8" standalone="no"?>
<!DOCTYPE svg PUBLIC "-//W3C//DTD SVG 1.1//EN"
 "http://www.w3.org/Graphics/SVG/1.1/DTD/svg11.dtd">
<!-- Generated by graphviz version 2.36.0 (20140111.2315)
 -->
<!-- Title: RoR::App::GetGfxVegetationMode Pages: 1 -->
<svg width="1322pt" height="94pt"
 viewBox="0.00 0.00 1322.00 94.00" xmlns="http://www.w3.org/2000/svg" xmlns:xlink="http://www.w3.org/1999/xlink">
<g id="graph0" class="graph" transform="scale(1 1) rotate(0) translate(4 90)">
<title>RoR::App::GetGfxVegetationMode</title>
<polygon fill="white" stroke="none" points="-4,4 -4,-90 1318,-90 1318,4 -4,4"/>
<!-- Node1 -->
<g id="node1" class="node"><title>Node1</title>
<polygon fill="#bfbfbf" stroke="black" points="0,-38.5 0,-57.5 168,-57.5 168,-38.5 0,-38.5"/>
<text text-anchor="middle" x="84" y="-45.5" font-family="Helvetica,sans-Serif" font-size="10.00">RoR::App::GetGfxVegetationMode</text>
</g>
<!-- Node2 -->
<g id="node2" class="node"><title>Node2</title>
<g id="a_node2"><a xlink:href="class_ro_r_frame_listener.html#aca3931d7a75f2ad4b9d36c4fcd03a3c9" target="_top" xlink:title="RoRFrameListener::SetupGameplayLoop">
<polygon fill="white" stroke="black" points="952,-38.5 952,-57.5 1148,-57.5 1148,-38.5 952,-38.5"/>
<text text-anchor="middle" x="1050" y="-45.5" font-family="Helvetica,sans-Serif" font-size="10.00">RoRFrameListener::SetupGameplayLoop</text>
</a>
</g>
</g>
<!-- Node1&#45;&gt;Node2 -->
<g id="edge1" class="edge"><title>Node1&#45;&gt;Node2</title>
<path fill="none" stroke="midnightblue" d="M148.258,-59.1448C166.229,-62.0266 185.847,-64.9041 204,-67 321.301,-80.5436 350.92,-86 469,-86 469,-86 469,-86 656,-86 774.073,-86 911.177,-68.7963 988.247,-57.54"/>
<polygon fill="midnightblue" stroke="midnightblue" points="148.611,-55.6563 138.178,-57.5011 147.485,-62.565 148.611,-55.6563"/>
</g>
<!-- Node5 -->
<g id="node5" class="node"><title>Node5</title>
<g id="a_node5"><a xlink:href="class_terrain_manager.html#a3a1a36c2b35682bc35f74e36415084ee" target="_top" xlink:title="TerrainManager::initVegetation">
<polygon fill="white" stroke="black" points="204.5,-38.5 204.5,-57.5 353.5,-57.5 353.5,-38.5 204.5,-38.5"/>
<text text-anchor="middle" x="279" y="-45.5" font-family="Helvetica,sans-Serif" font-size="10.00">TerrainManager::initVegetation</text>
</a>
</g>
</g>
<!-- Node1&#45;&gt;Node5 -->
<g id="edge4" class="edge"><title>Node1&#45;&gt;Node5</title>
<path fill="none" stroke="midnightblue" d="M178.457,-48C187.179,-48 195.935,-48 204.438,-48"/>
<polygon fill="midnightblue" stroke="midnightblue" points="178.25,-44.5001 168.25,-48 178.25,-51.5001 178.25,-44.5001"/>
</g>
<!-- Node9 -->
<g id="node9" class="node"><title>Node9</title>
<g id="a_node9"><a xlink:href="_settings_8cpp.html#a843caf2075f243cbcbd38722a9978822" target="_top" xlink:title="App__GfxVegetationToStr">
<polygon fill="white" stroke="black" points="404.5,-0.5 404.5,-19.5 535.5,-19.5 535.5,-0.5 404.5,-0.5"/>
<text text-anchor="middle" x="470" y="-7.5" font-family="Helvetica,sans-Serif" font-size="10.00">App__GfxVegetationToStr</text>
</a>
</g>
</g>
<!-- Node1&#45;&gt;Node9 -->
<g id="edge9" class="edge"><title>Node1&#45;&gt;Node9</title>
<path fill="none" stroke="midnightblue" d="M148.258,-36.8552C166.229,-33.9734 185.847,-31.0959 204,-29 272.158,-21.1304 350.58,-15.9913 404.325,-13.0665"/>
<polygon fill="midnightblue" stroke="midnightblue" points="147.485,-33.435 138.178,-38.4989 148.611,-40.3437 147.485,-33.435"/>
</g>
<!-- Node3 -->
<g id="node3" class="node"><title>Node3</title>
<g id="a_node3"><a xlink:href="main_8cpp.html#a0ddf1224851353fc92bfbff6f499fa97" target="_top" xlink:title="main">
<polygon fill="white" stroke="black" points="1184,-19.5 1184,-38.5 1222,-38.5 1222,-19.5 1184,-19.5"/>
<text text-anchor="middle" x="1203" y="-26.5" font-family="Helvetica,sans-Serif" font-size="10.00">main</text>
</a>
</g>
</g>
<!-- Node2&#45;&gt;Node3 -->
<g id="edge2" class="edge"><title>Node2&#45;&gt;Node3</title>
<path fill="none" stroke="midnightblue" d="M1136.9,-37.1918C1154.71,-34.9498 1171.75,-32.8069 1183.92,-31.2755"/>
<polygon fill="midnightblue" stroke="midnightblue" points="1136.43,-33.7232 1126.94,-38.4443 1137.3,-40.6684 1136.43,-33.7232"/>
</g>
<!-- Node4 -->
<g id="node4" class="node"><title>Node4</title>
<g id="a_node4"><a xlink:href="main_8cpp.html#a2922bc5d5c2d77a3020cfbf9df12aab0" target="_top" xlink:title="WinMain">
<polygon fill="white" stroke="black" points="1258.5,-19.5 1258.5,-38.5 1313.5,-38.5 1313.5,-19.5 1258.5,-19.5"/>
<text text-anchor="middle" x="1286" y="-26.5" font-family="Helvetica,sans-Serif" font-size="10.00">WinMain</text>
</a>
</g>
</g>
<!-- Node3&#45;&gt;Node4 -->
<g id="edge3" class="edge"><title>Node3&#45;&gt;Node4</title>
<path fill="none" stroke="midnightblue" d="M1232.51,-29C1240.93,-29 1250.11,-29 1258.4,-29"/>
<polygon fill="midnightblue" stroke="midnightblue" points="1232.38,-25.5001 1222.38,-29 1232.38,-32.5001 1232.38,-25.5001"/>
</g>
<!-- Node6 -->
<g id="node6" class="node"><title>Node6</title>
<g id="a_node6"><a xlink:href="class_terrain_manager.html#a13e84f666b59e55f3c67ee345bda5873" target="_top" xlink:title="TerrainManager::initSubSystems">
<polygon fill="white" stroke="black" points="390.5,-38.5 390.5,-57.5 549.5,-57.5 549.5,-38.5 390.5,-38.5"/>
<text text-anchor="middle" x="470" y="-45.5" font-family="Helvetica,sans-Serif" font-size="10.00">TerrainManager::initSubSystems</text>
</a>
</g>
</g>
<!-- Node5&#45;&gt;Node6 -->
<g id="edge5" class="edge"><title>Node5&#45;&gt;Node6</title>
<path fill="none" stroke="midnightblue" d="M363.852,-48C372.639,-48 381.549,-48 390.275,-48"/>
<polygon fill="midnightblue" stroke="midnightblue" points="363.614,-44.5001 353.614,-48 363.613,-51.5001 363.614,-44.5001"/>
</g>
<!-- Node7 -->
<g id="node7" class="node"><title>Node7</title>
<g id="a_node7"><a xlink:href="class_terrain_manager.html#a9a04c837bf2ea6528c465b27ca62f730" target="_top" xlink:title="TerrainManager::loadTerrain">
<polygon fill="white" stroke="black" points="586,-38.5 586,-57.5 724,-57.5 724,-38.5 586,-38.5"/>
<text text-anchor="middle" x="655" y="-45.5" font-family="Helvetica,sans-Serif" font-size="10.00">TerrainManager::loadTerrain</text>
</a>
</g>
</g>
<!-- Node6&#45;&gt;Node7 -->
<g id="edge6" class="edge"><title>Node6&#45;&gt;Node7</title>
<path fill="none" stroke="midnightblue" d="M559.858,-48C568.566,-48 577.305,-48 585.76,-48"/>
<polygon fill="midnightblue" stroke="midnightblue" points="559.671,-44.5001 549.671,-48 559.67,-51.5001 559.671,-44.5001"/>
</g>
<!-- Node8 -->
<g id="node8" class="node"><title>Node8</title>
<g id="a_node8"><a xlink:href="class_ro_r_frame_listener.html#a9757c059e840019a3e2659d5ef63ea02" target="_top" xlink:title="Reads GVar &#39;sim_terrain_pending&#39;. ">
<polygon fill="white" stroke="black" points="760,-38.5 760,-57.5 916,-57.5 916,-38.5 760,-38.5"/>
<text text-anchor="middle" x="838" y="-45.5" font-family="Helvetica,sans-Serif" font-size="10.00">RoRFrameListener::LoadTerrain</text>
</a>
</g>
</g>
<!-- Node7&#45;&gt;Node8 -->
<g id="edge7" class="edge"><title>Node7&#45;&gt;Node8</title>
<path fill="none" stroke="midnightblue" d="M734.362,-48C742.792,-48 751.366,-48 759.782,-48"/>
<polygon fill="midnightblue" stroke="midnightblue" points="734.17,-44.5001 724.17,-48 734.17,-51.5001 734.17,-44.5001"/>
</g>
<!-- Node8&#45;&gt;Node2 -->
<g id="edge8" class="edge"><title>Node8&#45;&gt;Node2</title>
<path fill="none" stroke="midnightblue" d="M926.265,-48C934.755,-48 943.404,-48 951.982,-48"/>
<polygon fill="midnightblue" stroke="midnightblue" points="926.004,-44.5001 916.004,-48 926.004,-51.5001 926.004,-44.5001"/>
</g>
<!-- Node10 -->
<g id="node10" class="node"><title>Node10</title>
<g id="a_node10"><a xlink:href="class_settings.html#a19d1e2e2df8600f7e2cd1c64363fe60f" target="_top" xlink:title="Settings::SaveSettings">
<polygon fill="white" stroke="black" points="596.5,-0.5 596.5,-19.5 713.5,-19.5 713.5,-0.5 596.5,-0.5"/>
<text text-anchor="middle" x="655" y="-7.5" font-family="Helvetica,sans-Serif" font-size="10.00">Settings::SaveSettings</text>
</a>
</g>
</g>
<!-- Node9&#45;&gt;Node10 -->
<g id="edge10" class="edge"><title>Node9&#45;&gt;Node10</title>
<path fill="none" stroke="midnightblue" d="M545.903,-10C562.777,-10 580.43,-10 596.462,-10"/>
<polygon fill="midnightblue" stroke="midnightblue" points="545.519,-6.5001 535.519,-10 545.519,-13.5001 545.519,-6.5001"/>
</g>
<!-- Node10&#45;&gt;Node3 -->
<g id="edge11" class="edge"><title>Node10&#45;&gt;Node3</title>
<path fill="none" stroke="midnightblue" d="M723.936,-12.3641C849.757,-16.7425 1112.73,-25.8935 1183.91,-28.3704"/>
<polygon fill="midnightblue" stroke="midnightblue" points="723.773,-8.85636 713.657,-12.0064 723.529,-15.8521 723.773,-8.85636"/>
</g>
</g>
</svg>
