<?xml version="1.0" encoding="UTF-8" standalone="no"?>
<!DOCTYPE svg PUBLIC "-//W3C//DTD SVG 1.1//EN"
 "http://www.w3.org/Graphics/SVG/1.1/DTD/svg11.dtd">
<!-- Generated by graphviz version 2.36.0 (20140111.2315)
 -->
<!-- Title: RoR::App::GetAppMultithread Pages: 1 -->
<svg width="524pt" height="66pt"
 viewBox="0.00 0.00 524.00 66.00" xmlns="http://www.w3.org/2000/svg" xmlns:xlink="http://www.w3.org/1999/xlink">
<g id="graph0" class="graph" transform="scale(1 1) rotate(0) translate(4 62)">
<title>RoR::App::GetAppMultithread</title>
<polygon fill="white" stroke="none" points="-4,4 -4,-62 520,-62 520,4 -4,4"/>
<!-- Node1 -->
<g id="node1" class="node"><title>Node1</title>
<polygon fill="#bfbfbf" stroke="black" points="0.5,-19.5 0.5,-38.5 147.5,-38.5 147.5,-19.5 0.5,-19.5"/>
<text text-anchor="middle" x="74" y="-26.5" font-family="Helvetica,sans-Serif" font-size="10.00">RoR::App::GetAppMultithread</text>
</g>
<!-- Node2 -->
<g id="node2" class="node"><title>Node2</title>
<g id="a_node2"><a xlink:href="class_ro_r_1_1_beam_factory.html#a196bf09947d50732843ab9973f745de4" target="_top" xlink:title="RoR::BeamFactory::BeamFactory">
<polygon fill="white" stroke="black" points="184,-38.5 184,-57.5 350,-57.5 350,-38.5 184,-38.5"/>
<text text-anchor="middle" x="267" y="-45.5" font-family="Helvetica,sans-Serif" font-size="10.00">RoR::BeamFactory::BeamFactory</text>
</a>
</g>
</g>
<!-- Node1&#45;&gt;Node2 -->
<g id="edge1" class="edge"><title>Node1&#45;&gt;Node2</title>
<path fill="none" stroke="midnightblue" d="M157.816,-37.2382C166.457,-38.0978 175.239,-38.9715 183.873,-39.8303"/>
<polygon fill="midnightblue" stroke="midnightblue" points="158.051,-33.7444 147.754,-36.2373 157.358,-40.7101 158.051,-33.7444"/>
</g>
<!-- Node3 -->
<g id="node3" class="node"><title>Node3</title>
<g id="a_node3"><a xlink:href="class_settings.html#a19d1e2e2df8600f7e2cd1c64363fe60f" target="_top" xlink:title="Settings::SaveSettings">
<polygon fill="white" stroke="black" points="208.5,-0.5 208.5,-19.5 325.5,-19.5 325.5,-0.5 208.5,-0.5"/>
<text text-anchor="middle" x="267" y="-7.5" font-family="Helvetica,sans-Serif" font-size="10.00">Settings::SaveSettings</text>
</a>
</g>
</g>
<!-- Node1&#45;&gt;Node3 -->
<g id="edge2" class="edge"><title>Node1&#45;&gt;Node3</title>
<path fill="none" stroke="midnightblue" d="M157.71,-20.7723C174.757,-19.0765 192.358,-17.3256 208.287,-15.7411"/>
<polygon fill="midnightblue" stroke="midnightblue" points="157.358,-17.2899 147.754,-21.7627 158.051,-24.2556 157.358,-17.2899"/>
</g>
<!-- Node4 -->
<g id="node4" class="node"><title>Node4</title>
<g id="a_node4"><a xlink:href="main_8cpp.html#a0ddf1224851353fc92bfbff6f499fa97" target="_top" xlink:title="main">
<polygon fill="white" stroke="black" points="386,-0.5 386,-19.5 424,-19.5 424,-0.5 386,-0.5"/>
<text text-anchor="middle" x="405" y="-7.5" font-family="Helvetica,sans-Serif" font-size="10.00">main</text>
</a>
</g>
</g>
<!-- Node3&#45;&gt;Node4 -->
<g id="edge3" class="edge"><title>Node3&#45;&gt;Node4</title>
<path fill="none" stroke="midnightblue" d="M335.859,-10C354.252,-10 372.658,-10 385.696,-10"/>
<polygon fill="midnightblue" stroke="midnightblue" points="335.676,-6.5001 325.676,-10 335.676,-13.5001 335.676,-6.5001"/>
</g>
<!-- Node5 -->
<g id="node5" class="node"><title>Node5</title>
<g id="a_node5"><a xlink:href="main_8cpp.html#a2922bc5d5c2d77a3020cfbf9df12aab0" target="_top" xlink:title="WinMain">
<polygon fill="white" stroke="black" points="460.5,-0.5 460.5,-19.5 515.5,-19.5 515.5,-0.5 460.5,-0.5"/>
<text text-anchor="middle" x="488" y="-7.5" font-family="Helvetica,sans-Serif" font-size="10.00">WinMain</text>
</a>
</g>
</g>
<!-- Node4&#45;&gt;Node5 -->
<g id="edge4" class="edge"><title>Node4&#45;&gt;Node5</title>
<path fill="none" stroke="midnightblue" d="M434.512,-10C442.929,-10 452.105,-10 460.397,-10"/>
<polygon fill="midnightblue" stroke="midnightblue" points="434.38,-6.5001 424.38,-10 434.38,-13.5001 434.38,-6.5001"/>
</g>
</g>
</svg>
