<?xml version="1.0" encoding="UTF-8" standalone="no"?>
<!DOCTYPE svg PUBLIC "-//W3C//DTD SVG 1.1//EN"
 "http://www.w3.org/Graphics/SVG/1.1/DTD/svg11.dtd">
<!-- Generated by graphviz version 2.36.0 (20140111.2315)
 -->
<!-- Title: RoR::App::SetActiveMpState Pages: 1 -->
<svg width="482pt" height="66pt"
 viewBox="0.00 0.00 482.00 66.00" xmlns="http://www.w3.org/2000/svg" xmlns:xlink="http://www.w3.org/1999/xlink">
<g id="graph0" class="graph" transform="scale(1 1) rotate(0) translate(4 62)">
<title>RoR::App::SetActiveMpState</title>
<polygon fill="white" stroke="none" points="-4,4 -4,-62 478,-62 478,4 -4,4"/>
<!-- Node1 -->
<g id="node1" class="node"><title>Node1</title>
<polygon fill="#bfbfbf" stroke="black" points="0,-19.5 0,-38.5 146,-38.5 146,-19.5 0,-19.5"/>
<text text-anchor="middle" x="73" y="-26.5" font-family="Helvetica,sans-Serif" font-size="10.00">RoR::App::SetActiveMpState</text>
</g>
<!-- Node2 -->
<g id="node2" class="node"><title>Node2</title>
<g id="a_node2"><a xlink:href="namespace_ro_r_1_1_app.html#ae7ca05a9e2c04da99c1305919b3002b3" target="_top" xlink:title="RoR::App::SetVarEnum">
<polygon fill="white" stroke="black" points="185,-38.5 185,-57.5 307,-57.5 307,-38.5 185,-38.5"/>
<text text-anchor="middle" x="246" y="-45.5" font-family="Helvetica,sans-Serif" font-size="10.00">RoR::App::SetVarEnum</text>
</a>
</g>
</g>
<!-- Node1&#45;&gt;Node2 -->
<g id="edge1" class="edge"><title>Node1&#45;&gt;Node2</title>
<path fill="none" stroke="midnightblue" d="M146.024,-37.0026C155.542,-38.0602 165.289,-39.1432 174.777,-40.1974"/>
<polygon fill="midnightblue" stroke="midnightblue" points="174.621,-43.7016 184.947,-41.3274 175.394,-36.7444 174.621,-43.7016"/>
</g>
<!-- Node4 -->
<g id="node4" class="node"><title>Node4</title>
<g id="a_node4"><a xlink:href="namespace_ro_r_1_1_app.html#ae36f5caf06980bf0608f5e88f3f019f8" target="_top" xlink:title="RoR::App::MpStateToStr">
<polygon fill="white" stroke="black" points="182.5,-0.5 182.5,-19.5 309.5,-19.5 309.5,-0.5 182.5,-0.5"/>
<text text-anchor="middle" x="246" y="-7.5" font-family="Helvetica,sans-Serif" font-size="10.00">RoR::App::MpStateToStr</text>
</a>
</g>
</g>
<!-- Node1&#45;&gt;Node4 -->
<g id="edge3" class="edge"><title>Node1&#45;&gt;Node4</title>
<path fill="none" stroke="midnightblue" d="M146.024,-20.9974C154.684,-20.0352 163.533,-19.0519 172.203,-18.0885"/>
<polygon fill="midnightblue" stroke="midnightblue" points="172.726,-21.5521 182.278,-16.9691 171.953,-14.5949 172.726,-21.5521"/>
</g>
<!-- Node3 -->
<g id="node3" class="node"><title>Node3</title>
<g id="a_node3"><a xlink:href="namespace_ro_r_1_1_app.html#a3492dc6307a9d930ac73578e0d1f005e" target="_top" xlink:title="RoR::App::LogVarUpdate">
<polygon fill="white" stroke="black" points="346,-38.5 346,-57.5 474,-57.5 474,-38.5 346,-38.5"/>
<text text-anchor="middle" x="410" y="-45.5" font-family="Helvetica,sans-Serif" font-size="10.00">RoR::App::LogVarUpdate</text>
</a>
</g>
</g>
<!-- Node2&#45;&gt;Node3 -->
<g id="edge2" class="edge"><title>Node2&#45;&gt;Node3</title>
<path fill="none" stroke="midnightblue" d="M307.323,-48C316.572,-48 326.206,-48 335.698,-48"/>
<polygon fill="midnightblue" stroke="midnightblue" points="335.917,-51.5001 345.917,-48 335.917,-44.5001 335.917,-51.5001"/>
</g>
</g>
</svg>
