<?xml version="1.0" encoding="UTF-8" standalone="no"?>
<!DOCTYPE svg PUBLIC "-//W3C//DTD SVG 1.1//EN"
 "http://www.w3.org/Graphics/SVG/1.1/DTD/svg11.dtd">
<!-- Generated by graphviz version 2.36.0 (20140111.2315)
 -->
<!-- Title: RoR::App::SetGfxSkyMode Pages: 1 -->
<svg width="462pt" height="38pt"
 viewBox="0.00 0.00 462.00 38.00" xmlns="http://www.w3.org/2000/svg" xmlns:xlink="http://www.w3.org/1999/xlink">
<g id="graph0" class="graph" transform="scale(1 1) rotate(0) translate(4 34)">
<title>RoR::App::SetGfxSkyMode</title>
<polygon fill="white" stroke="none" points="-4,4 -4,-34 458,-34 458,4 -4,4"/>
<!-- Node1 -->
<g id="node1" class="node"><title>Node1</title>
<polygon fill="#bfbfbf" stroke="black" points="0,-5.5 0,-24.5 138,-24.5 138,-5.5 0,-5.5"/>
<text text-anchor="middle" x="69" y="-12.5" font-family="Helvetica,sans-Serif" font-size="10.00">RoR::App::SetGfxSkyMode</text>
</g>
<!-- Node2 -->
<g id="node2" class="node"><title>Node2</title>
<g id="a_node2"><a xlink:href="_settings_8h.html#a009c5cb2673f01815a772f6189400c39" target="_top" xlink:title="App__SetGfxSkyMode">
<polygon fill="white" stroke="black" points="174,-5.5 174,-24.5 290,-24.5 290,-5.5 174,-5.5"/>
<text text-anchor="middle" x="232" y="-12.5" font-family="Helvetica,sans-Serif" font-size="10.00">App__SetGfxSkyMode</text>
</a>
</g>
</g>
<!-- Node1&#45;&gt;Node2 -->
<g id="edge1" class="edge"><title>Node1&#45;&gt;Node2</title>
<path fill="none" stroke="midnightblue" d="M148.32,-15C156.906,-15 165.526,-15 173.788,-15"/>
<polygon fill="midnightblue" stroke="midnightblue" points="148.279,-11.5001 138.278,-15 148.278,-18.5001 148.279,-11.5001"/>
</g>
<!-- Node3 -->
<g id="node3" class="node"><title>Node3</title>
<g id="a_node3"><a xlink:href="class_settings.html#aa27b8db941ea9fa77ffff67c80b1d5be" target="_top" xlink:title="Settings::ParseGlobalVar\lSetting">
<polygon fill="white" stroke="black" points="326.5,-0 326.5,-30 453.5,-30 453.5,-0 326.5,-0"/>
<text text-anchor="start" x="334.5" y="-18" font-family="Helvetica,sans-Serif" font-size="10.00">Settings::ParseGlobalVar</text>
<text text-anchor="middle" x="390" y="-7" font-family="Helvetica,sans-Serif" font-size="10.00">Setting</text>
</a>
</g>
</g>
<!-- Node2&#45;&gt;Node3 -->
<g id="edge2" class="edge"><title>Node2&#45;&gt;Node3</title>
<path fill="none" stroke="midnightblue" d="M300.243,-15C308.888,-15 317.712,-15 326.281,-15"/>
<polygon fill="midnightblue" stroke="midnightblue" points="300.203,-11.5001 290.203,-15 300.203,-18.5001 300.203,-11.5001"/>
</g>
</g>
</svg>
