<?xml version="1.0" encoding="UTF-8" standalone="no"?>
<!DOCTYPE svg PUBLIC "-//W3C//DTD SVG 1.1//EN"
 "http://www.w3.org/Graphics/SVG/1.1/DTD/svg11.dtd">
<!-- Generated by graphviz version 2.36.0 (20140111.2315)
 -->
<!-- Title: RoR::App::GetDiagPreselectedTerrain Pages: 1 -->
<svg width="560pt" height="154pt"
 viewBox="0.00 0.00 560.00 154.00" xmlns="http://www.w3.org/2000/svg" xmlns:xlink="http://www.w3.org/1999/xlink">
<g id="graph0" class="graph" transform="scale(1 1) rotate(0) translate(4 150)">
<title>RoR::App::GetDiagPreselectedTerrain</title>
<polygon fill="white" stroke="none" points="-4,4 -4,-150 556,-150 556,4 -4,4"/>
<!-- Node1 -->
<g id="node1" class="node"><title>Node1</title>
<polygon fill="#bfbfbf" stroke="black" points="0,-61 0,-91 154,-91 154,-61 0,-61"/>
<text text-anchor="start" x="8" y="-79" font-family="Helvetica,sans-Serif" font-size="10.00">RoR::App::GetDiagPreselected</text>
<text text-anchor="middle" x="77" y="-68" font-family="Helvetica,sans-Serif" font-size="10.00">Terrain</text>
</g>
<!-- Node2 -->
<g id="node2" class="node"><title>Node2</title>
<g id="a_node2"><a xlink:href="class_ro_r_frame_listener.html#aca3931d7a75f2ad4b9d36c4fcd03a3c9" target="_top" xlink:title="RoRFrameListener::SetupGameplayLoop">
<polygon fill="white" stroke="black" points="190,-126.5 190,-145.5 386,-145.5 386,-126.5 190,-126.5"/>
<text text-anchor="middle" x="288" y="-133.5" font-family="Helvetica,sans-Serif" font-size="10.00">RoRFrameListener::SetupGameplayLoop</text>
</a>
</g>
</g>
<!-- Node1&#45;&gt;Node2 -->
<g id="edge1" class="edge"><title>Node1&#45;&gt;Node2</title>
<path fill="none" stroke="midnightblue" d="M132.1,-94.2139C150.404,-100.156 171.015,-106.607 190,-112 208.19,-117.167 228.475,-122.285 245.773,-126.459"/>
<polygon fill="midnightblue" stroke="midnightblue" points="133.07,-90.8488 122.477,-91.0687 130.895,-97.5024 133.07,-90.8488"/>
</g>
<!-- Node3 -->
<g id="node3" class="node"><title>Node3</title>
<g id="a_node3"><a xlink:href="main_8cpp.html#a0ddf1224851353fc92bfbff6f499fa97" target="_top" xlink:title="main">
<polygon fill="white" stroke="black" points="422,-66.5 422,-85.5 460,-85.5 460,-66.5 422,-66.5"/>
<text text-anchor="middle" x="441" y="-73.5" font-family="Helvetica,sans-Serif" font-size="10.00">main</text>
</a>
</g>
</g>
<!-- Node1&#45;&gt;Node3 -->
<g id="edge4" class="edge"><title>Node1&#45;&gt;Node3</title>
<path fill="none" stroke="midnightblue" d="M164.357,-77.7141C226.104,-78.658 311.172,-79.3852 386,-78 397.819,-77.7812 411.085,-77.2933 421.51,-76.8542"/>
<polygon fill="midnightblue" stroke="midnightblue" points="164.321,-74.2132 154.267,-77.5548 164.211,-81.2124 164.321,-74.2132"/>
</g>
<!-- Node5 -->
<g id="node5" class="node"><title>Node5</title>
<g id="a_node5"><a xlink:href="class_ro_r_1_1_main_menu.html#a3ede6d5d9f3f60f90aeec1f92a2ab7b2" target="_top" xlink:title="RoR::MainMenu::JoinMultiplayer\lServer">
<polygon fill="white" stroke="black" points="208.5,-39 208.5,-69 367.5,-69 367.5,-39 208.5,-39"/>
<text text-anchor="start" x="216.5" y="-57" font-family="Helvetica,sans-Serif" font-size="10.00">RoR::MainMenu::JoinMultiplayer</text>
<text text-anchor="middle" x="288" y="-46" font-family="Helvetica,sans-Serif" font-size="10.00">Server</text>
</a>
</g>
</g>
<!-- Node1&#45;&gt;Node5 -->
<g id="edge5" class="edge"><title>Node1&#45;&gt;Node5</title>
<path fill="none" stroke="midnightblue" d="M164.067,-66.9403C178.679,-65.4022 193.788,-63.8118 208.201,-62.2946"/>
<polygon fill="midnightblue" stroke="midnightblue" points="163.624,-63.4676 154.045,-67.9953 164.357,-70.4291 163.624,-63.4676"/>
</g>
<!-- Node6 -->
<g id="node6" class="node"><title>Node6</title>
<g id="a_node6"><a xlink:href="class_settings.html#a19d1e2e2df8600f7e2cd1c64363fe60f" target="_top" xlink:title="Settings::SaveSettings">
<polygon fill="white" stroke="black" points="229.5,-0.5 229.5,-19.5 346.5,-19.5 346.5,-0.5 229.5,-0.5"/>
<text text-anchor="middle" x="288" y="-7.5" font-family="Helvetica,sans-Serif" font-size="10.00">Settings::SaveSettings</text>
</a>
</g>
</g>
<!-- Node1&#45;&gt;Node6 -->
<g id="edge7" class="edge"><title>Node1&#45;&gt;Node6</title>
<path fill="none" stroke="midnightblue" d="M119.445,-56.8133C140.279,-47.7284 166.116,-37.2971 190,-30 203.402,-25.9053 218.102,-22.3907 231.915,-19.5019"/>
<polygon fill="midnightblue" stroke="midnightblue" points="117.982,-53.6332 110.25,-60.8765 120.812,-60.036 117.982,-53.6332"/>
</g>
<!-- Node2&#45;&gt;Node3 -->
<g id="edge2" class="edge"><title>Node2&#45;&gt;Node3</title>
<path fill="none" stroke="midnightblue" d="M351.455,-123.931C363.176,-120.725 375.149,-116.784 386,-112 401.671,-105.09 417.77,-93.6946 428.264,-85.5758"/>
<polygon fill="midnightblue" stroke="midnightblue" points="350.504,-120.562 341.698,-126.454 352.256,-127.339 350.504,-120.562"/>
</g>
<!-- Node4 -->
<g id="node4" class="node"><title>Node4</title>
<g id="a_node4"><a xlink:href="main_8cpp.html#a2922bc5d5c2d77a3020cfbf9df12aab0" target="_top" xlink:title="WinMain">
<polygon fill="white" stroke="black" points="496.5,-66.5 496.5,-85.5 551.5,-85.5 551.5,-66.5 496.5,-66.5"/>
<text text-anchor="middle" x="524" y="-73.5" font-family="Helvetica,sans-Serif" font-size="10.00">WinMain</text>
</a>
</g>
</g>
<!-- Node3&#45;&gt;Node4 -->
<g id="edge3" class="edge"><title>Node3&#45;&gt;Node4</title>
<path fill="none" stroke="midnightblue" d="M470.512,-76C478.929,-76 488.105,-76 496.397,-76"/>
<polygon fill="midnightblue" stroke="midnightblue" points="470.38,-72.5001 460.38,-76 470.38,-79.5001 470.38,-72.5001"/>
</g>
<!-- Node5&#45;&gt;Node3 -->
<g id="edge6" class="edge"><title>Node5&#45;&gt;Node3</title>
<path fill="none" stroke="midnightblue" d="M377.562,-66.9031C394.359,-69.3503 410.266,-71.668 421.821,-73.3514"/>
<polygon fill="midnightblue" stroke="midnightblue" points="377.996,-63.4294 367.596,-65.4511 376.987,-70.3563 377.996,-63.4294"/>
</g>
<!-- Node6&#45;&gt;Node3 -->
<g id="edge8" class="edge"><title>Node6&#45;&gt;Node3</title>
<path fill="none" stroke="midnightblue" d="M356.474,-19.3247C366.652,-22.0266 376.809,-25.5099 386,-30 404.369,-38.9741 421.621,-55.6516 431.481,-66.2688"/>
<polygon fill="midnightblue" stroke="midnightblue" points="357.283,-15.9195 346.74,-16.9662 355.635,-22.7226 357.283,-15.9195"/>
</g>
</g>
</svg>
