<?xml version="1.0" encoding="UTF-8" standalone="no"?>
<!DOCTYPE svg PUBLIC "-//W3C//DTD SVG 1.1//EN"
 "http://www.w3.org/Graphics/SVG/1.1/DTD/svg11.dtd">
<!-- Generated by graphviz version 2.36.0 (20140111.2315)
 -->
<!-- Title: RoR::App::GetIoOutGaugeIp Pages: 1 -->
<svg width="560pt" height="66pt"
 viewBox="0.00 0.00 560.00 66.00" xmlns="http://www.w3.org/2000/svg" xmlns:xlink="http://www.w3.org/1999/xlink">
<g id="graph0" class="graph" transform="scale(1 1) rotate(0) translate(4 62)">
<title>RoR::App::GetIoOutGaugeIp</title>
<polygon fill="white" stroke="none" points="-4,4 -4,-62 556,-62 556,4 -4,4"/>
<!-- Node1 -->
<g id="node1" class="node"><title>Node1</title>
<polygon fill="#bfbfbf" stroke="black" points="0.5,-19.5 0.5,-38.5 143.5,-38.5 143.5,-19.5 0.5,-19.5"/>
<text text-anchor="middle" x="72" y="-26.5" font-family="Helvetica,sans-Serif" font-size="10.00">RoR::App::GetIoOutGaugeIp</text>
</g>
<!-- Node2 -->
<g id="node2" class="node"><title>Node2</title>
<g id="a_node2"><a xlink:href="class_out_protocol.html#a96a73792edfd03f3ed9226a7cd2f9ebd" target="_top" xlink:title="OutProtocol::startup">
<polygon fill="white" stroke="black" points="187,-38.5 187,-57.5 291,-57.5 291,-38.5 187,-38.5"/>
<text text-anchor="middle" x="239" y="-45.5" font-family="Helvetica,sans-Serif" font-size="10.00">OutProtocol::startup</text>
</a>
</g>
</g>
<!-- Node1&#45;&gt;Node2 -->
<g id="edge1" class="edge"><title>Node1&#45;&gt;Node2</title>
<path fill="none" stroke="midnightblue" d="M154.06,-38.3342C165.123,-39.6081 176.22,-40.886 186.556,-42.0762"/>
<polygon fill="midnightblue" stroke="midnightblue" points="154.267,-34.835 143.932,-37.168 153.466,-41.789 154.267,-34.835"/>
</g>
<!-- Node4 -->
<g id="node4" class="node"><title>Node4</title>
<g id="a_node4"><a xlink:href="class_settings.html#a19d1e2e2df8600f7e2cd1c64363fe60f" target="_top" xlink:title="Settings::SaveSettings">
<polygon fill="white" stroke="black" points="180.5,-0.5 180.5,-19.5 297.5,-19.5 297.5,-0.5 180.5,-0.5"/>
<text text-anchor="middle" x="239" y="-7.5" font-family="Helvetica,sans-Serif" font-size="10.00">Settings::SaveSettings</text>
</a>
</g>
</g>
<!-- Node1&#45;&gt;Node4 -->
<g id="edge3" class="edge"><title>Node1&#45;&gt;Node4</title>
<path fill="none" stroke="midnightblue" d="M153.946,-19.6789C162.844,-18.6543 171.766,-17.6269 180.298,-16.6444"/>
<polygon fill="midnightblue" stroke="midnightblue" points="153.466,-16.211 143.932,-20.832 154.267,-23.165 153.466,-16.211"/>
</g>
<!-- Node3 -->
<g id="node3" class="node"><title>Node3</title>
<g id="a_node3"><a xlink:href="class_out_protocol.html#a7acd43d01db908b771cd5f67fe3e0c76" target="_top" xlink:title="OutProtocol::OutProtocol">
<polygon fill="white" stroke="black" points="334,-38.5 334,-57.5 460,-57.5 460,-38.5 334,-38.5"/>
<text text-anchor="middle" x="397" y="-45.5" font-family="Helvetica,sans-Serif" font-size="10.00">OutProtocol::OutProtocol</text>
</a>
</g>
</g>
<!-- Node2&#45;&gt;Node3 -->
<g id="edge2" class="edge"><title>Node2&#45;&gt;Node3</title>
<path fill="none" stroke="midnightblue" d="M301.216,-48C311.96,-48 323.15,-48 333.917,-48"/>
<polygon fill="midnightblue" stroke="midnightblue" points="301.08,-44.5001 291.08,-48 301.08,-51.5001 301.08,-44.5001"/>
</g>
<!-- Node5 -->
<g id="node5" class="node"><title>Node5</title>
<g id="a_node5"><a xlink:href="main_8cpp.html#a0ddf1224851353fc92bfbff6f499fa97" target="_top" xlink:title="main">
<polygon fill="white" stroke="black" points="378,-0.5 378,-19.5 416,-19.5 416,-0.5 378,-0.5"/>
<text text-anchor="middle" x="397" y="-7.5" font-family="Helvetica,sans-Serif" font-size="10.00">main</text>
</a>
</g>
</g>
<!-- Node4&#45;&gt;Node5 -->
<g id="edge4" class="edge"><title>Node4&#45;&gt;Node5</title>
<path fill="none" stroke="midnightblue" d="M307.725,-10C333.3,-10 360.376,-10 377.693,-10"/>
<polygon fill="midnightblue" stroke="midnightblue" points="307.645,-6.5001 297.645,-10 307.645,-13.5001 307.645,-6.5001"/>
</g>
<!-- Node6 -->
<g id="node6" class="node"><title>Node6</title>
<g id="a_node6"><a xlink:href="main_8cpp.html#a2922bc5d5c2d77a3020cfbf9df12aab0" target="_top" xlink:title="WinMain">
<polygon fill="white" stroke="black" points="496.5,-0.5 496.5,-19.5 551.5,-19.5 551.5,-0.5 496.5,-0.5"/>
<text text-anchor="middle" x="524" y="-7.5" font-family="Helvetica,sans-Serif" font-size="10.00">WinMain</text>
</a>
</g>
</g>
<!-- Node5&#45;&gt;Node6 -->
<g id="edge5" class="edge"><title>Node5&#45;&gt;Node6</title>
<path fill="none" stroke="midnightblue" d="M426.352,-10C447.245,-10 475.483,-10 496.039,-10"/>
<polygon fill="midnightblue" stroke="midnightblue" points="426.176,-6.5001 416.176,-10 426.176,-13.5001 426.176,-6.5001"/>
</g>
</g>
</svg>
