<?xml version="1.0" encoding="UTF-8" standalone="no"?>
<!DOCTYPE svg PUBLIC "-//W3C//DTD SVG 1.1//EN"
 "http://www.w3.org/Graphics/SVG/1.1/DTD/svg11.dtd">
<!-- Generated by graphviz version 2.36.0 (20140111.2315)
 -->
<!-- Title: utf8::unchecked::next Pages: 1 -->
<svg width="460pt" height="273pt"
 viewBox="0.00 0.00 460.00 273.00" xmlns="http://www.w3.org/2000/svg" xmlns:xlink="http://www.w3.org/1999/xlink">
<g id="graph0" class="graph" transform="scale(1 1) rotate(0) translate(4 269)">
<title>utf8::unchecked::next</title>
<polygon fill="white" stroke="none" points="-4,4 -4,-269 456,-269 456,4 -4,4"/>
<!-- Node1 -->
<g id="node1" class="node"><title>Node1</title>
<polygon fill="#bfbfbf" stroke="black" points="0.5,-125.5 0.5,-144.5 111.5,-144.5 111.5,-125.5 0.5,-125.5"/>
<text text-anchor="middle" x="56" y="-132.5" font-family="Helvetica,sans-Serif" font-size="10.00">utf8::unchecked::next</text>
</g>
<!-- Node2 -->
<g id="node2" class="node"><title>Node2</title>
<g id="a_node2"><a xlink:href="namespaceutf8_1_1unchecked.html#aaf5ddbe24f8dbb83390e2d33d75b9ea1" target="_top" xlink:title="utf8::unchecked::peek_next">
<polygon fill="white" stroke="black" points="148.5,-239.5 148.5,-258.5 285.5,-258.5 285.5,-239.5 148.5,-239.5"/>
<text text-anchor="middle" x="217" y="-246.5" font-family="Helvetica,sans-Serif" font-size="10.00">utf8::unchecked::peek_next</text>
</a>
</g>
</g>
<!-- Node1&#45;&gt;Node2 -->
<g id="edge1" class="edge"><title>Node1&#45;&gt;Node2</title>
<path fill="none" stroke="midnightblue" d="M69.458,-152.969C85.2775,-174.442 114.57,-209.975 148,-230 154.414,-233.842 161.633,-236.932 168.908,-239.41"/>
<polygon fill="midnightblue" stroke="midnightblue" points="72.2058,-150.795 63.5303,-144.713 66.5196,-154.877 72.2058,-150.795"/>
</g>
<!-- Node3 -->
<g id="node3" class="node"><title>Node3</title>
<g id="a_node3"><a xlink:href="namespaceutf8_1_1unchecked.html#ad2c0e4b9693713ac18ee543e214b3ef9" target="_top" xlink:title="utf8::unchecked::prior">
<polygon fill="white" stroke="black" points="161.5,-201.5 161.5,-220.5 272.5,-220.5 272.5,-201.5 161.5,-201.5"/>
<text text-anchor="middle" x="217" y="-208.5" font-family="Helvetica,sans-Serif" font-size="10.00">utf8::unchecked::prior</text>
</a>
</g>
</g>
<!-- Node1&#45;&gt;Node3 -->
<g id="edge2" class="edge"><title>Node1&#45;&gt;Node3</title>
<path fill="none" stroke="midnightblue" d="M78.079,-150.66C95.9255,-163.302 122.589,-180.773 148,-192 156.297,-195.666 165.479,-198.8 174.342,-201.403"/>
<polygon fill="midnightblue" stroke="midnightblue" points="79.7617,-147.559 69.6034,-144.549 75.6674,-153.236 79.7617,-147.559"/>
</g>
<!-- Node6 -->
<g id="node6" class="node"><title>Node6</title>
<g id="a_node6"><a xlink:href="namespaceutf8_1_1unchecked.html#a66ea3b93a81a8f961e7a1700d13efc57" target="_top" xlink:title="utf8::unchecked::advance">
<polygon fill="white" stroke="black" points="152.5,-163.5 152.5,-182.5 281.5,-182.5 281.5,-163.5 152.5,-163.5"/>
<text text-anchor="middle" x="217" y="-170.5" font-family="Helvetica,sans-Serif" font-size="10.00">utf8::unchecked::advance</text>
</a>
</g>
</g>
<!-- Node1&#45;&gt;Node6 -->
<g id="edge5" class="edge"><title>Node1&#45;&gt;Node6</title>
<path fill="none" stroke="midnightblue" d="M107.077,-146.968C129.358,-152.293 155.229,-158.476 176.166,-163.48"/>
<polygon fill="midnightblue" stroke="midnightblue" points="107.662,-143.509 97.1224,-144.589 106.035,-150.318 107.662,-143.509"/>
</g>
<!-- Node8 -->
<g id="node8" class="node"><title>Node8</title>
<g id="a_node8"><a xlink:href="namespaceutf8_1_1unchecked.html#a3796d7a15edc244a872a9ca559ea2693" target="_top" xlink:title="utf8::unchecked::distance">
<polygon fill="white" stroke="black" points="152.5,-125.5 152.5,-144.5 281.5,-144.5 281.5,-125.5 152.5,-125.5"/>
<text text-anchor="middle" x="217" y="-132.5" font-family="Helvetica,sans-Serif" font-size="10.00">utf8::unchecked::distance</text>
</a>
</g>
</g>
<!-- Node1&#45;&gt;Node8 -->
<g id="edge7" class="edge"><title>Node1&#45;&gt;Node8</title>
<path fill="none" stroke="midnightblue" d="M122.034,-135C132.07,-135 142.424,-135 152.427,-135"/>
<polygon fill="midnightblue" stroke="midnightblue" points="121.719,-131.5 111.719,-135 121.719,-138.5 121.719,-131.5"/>
</g>
<!-- Node9 -->
<g id="node9" class="node"><title>Node9</title>
<g id="a_node9"><a xlink:href="namespaceutf8_1_1unchecked.html#ae323b9faa6a47cb8d0aeaea44c1787eb" target="_top" xlink:title="utf8::unchecked::utf8to16">
<polygon fill="white" stroke="black" points="153,-87.5 153,-106.5 281,-106.5 281,-87.5 153,-87.5"/>
<text text-anchor="middle" x="217" y="-94.5" font-family="Helvetica,sans-Serif" font-size="10.00">utf8::unchecked::utf8to16</text>
</a>
</g>
</g>
<!-- Node1&#45;&gt;Node9 -->
<g id="edge8" class="edge"><title>Node1&#45;&gt;Node9</title>
<path fill="none" stroke="midnightblue" d="M107.077,-123.032C129.358,-117.707 155.229,-111.524 176.166,-106.52"/>
<polygon fill="midnightblue" stroke="midnightblue" points="106.035,-119.682 97.1224,-125.411 107.662,-126.491 106.035,-119.682"/>
</g>
<!-- Node10 -->
<g id="node10" class="node"><title>Node10</title>
<g id="a_node10"><a xlink:href="namespaceutf8_1_1unchecked.html#aa4b554922a06a7487118982ff41da590" target="_top" xlink:title="utf8::unchecked::utf8to32">
<polygon fill="white" stroke="black" points="153,-49.5 153,-68.5 281,-68.5 281,-49.5 153,-49.5"/>
<text text-anchor="middle" x="217" y="-56.5" font-family="Helvetica,sans-Serif" font-size="10.00">utf8::unchecked::utf8to32</text>
</a>
</g>
</g>
<!-- Node1&#45;&gt;Node10 -->
<g id="edge9" class="edge"><title>Node1&#45;&gt;Node10</title>
<path fill="none" stroke="midnightblue" d="M78.079,-119.34C95.9255,-106.698 122.589,-89.227 148,-78 156.297,-74.3343 165.479,-71.2002 174.342,-68.5967"/>
<polygon fill="midnightblue" stroke="midnightblue" points="75.6674,-116.764 69.6034,-125.451 79.7617,-122.441 75.6674,-116.764"/>
</g>
<!-- Node11 -->
<g id="node11" class="node"><title>Node11</title>
<g id="a_node11"><a xlink:href="classutf8_1_1unchecked_1_1iterator.html#a06b0df26a8570080c756f8d9a4cfdf76" target="_top" xlink:title="utf8::unchecked::iterator\l::operator*">
<polygon fill="white" stroke="black" points="156,-0 156,-30 278,-30 278,-0 156,-0"/>
<text text-anchor="start" x="164" y="-18" font-family="Helvetica,sans-Serif" font-size="10.00">utf8::unchecked::iterator</text>
<text text-anchor="middle" x="217" y="-7" font-family="Helvetica,sans-Serif" font-size="10.00">::operator*</text>
</a>
</g>
</g>
<!-- Node1&#45;&gt;Node11 -->
<g id="edge10" class="edge"><title>Node1&#45;&gt;Node11</title>
<path fill="none" stroke="midnightblue" d="M69.9822,-117.146C86.1317,-96.0777 115.563,-61.2336 148,-40 153.788,-36.2111 160.228,-32.8963 166.772,-30.0267"/>
<polygon fill="midnightblue" stroke="midnightblue" points="67.1029,-115.152 63.9042,-125.253 72.7035,-119.351 67.1029,-115.152"/>
</g>
<!-- Node4 -->
<g id="node4" class="node"><title>Node4</title>
<g id="a_node4"><a xlink:href="namespaceutf8_1_1unchecked.html#a454cdd8f6b6771bd0425be1ccd94f788" target="_top" xlink:title="utf8::unchecked::previous">
<polygon fill="white" stroke="black" points="322.5,-245.5 322.5,-264.5 451.5,-264.5 451.5,-245.5 322.5,-245.5"/>
<text text-anchor="middle" x="387" y="-252.5" font-family="Helvetica,sans-Serif" font-size="10.00">utf8::unchecked::previous</text>
</a>
</g>
</g>
<!-- Node3&#45;&gt;Node4 -->
<g id="edge3" class="edge"><title>Node3&#45;&gt;Node4</title>
<path fill="none" stroke="midnightblue" d="M264.409,-223.155C291.292,-230.195 324.647,-238.931 349.618,-245.471"/>
<polygon fill="midnightblue" stroke="midnightblue" points="265.014,-219.695 254.453,-220.547 263.24,-226.467 265.014,-219.695"/>
</g>
<!-- Node5 -->
<g id="node5" class="node"><title>Node5</title>
<g id="a_node5"><a xlink:href="classutf8_1_1unchecked_1_1iterator.html#a8b50b3a0d7b2c2506e135db73a636c7b" target="_top" xlink:title="utf8::unchecked::iterator\l::operator&#45;&#45;">
<polygon fill="white" stroke="black" points="326,-196 326,-226 448,-226 448,-196 326,-196"/>
<text text-anchor="start" x="334" y="-214" font-family="Helvetica,sans-Serif" font-size="10.00">utf8::unchecked::iterator</text>
<text text-anchor="middle" x="387" y="-203" font-family="Helvetica,sans-Serif" font-size="10.00">::operator&#45;&#45;</text>
</a>
</g>
</g>
<!-- Node3&#45;&gt;Node5 -->
<g id="edge4" class="edge"><title>Node3&#45;&gt;Node5</title>
<path fill="none" stroke="midnightblue" d="M282.725,-211C296.928,-211 311.909,-211 325.921,-211"/>
<polygon fill="midnightblue" stroke="midnightblue" points="282.545,-207.5 272.545,-211 282.545,-214.5 282.545,-207.5"/>
</g>
<!-- Node7 -->
<g id="node7" class="node"><title>Node7</title>
<g id="a_node7"><a xlink:href="classutf8_1_1unchecked_1_1iterator.html#a0450ee39cf7eeed074d229fb9b6b22bc" target="_top" xlink:title="utf8::unchecked::iterator\l::operator++">
<polygon fill="white" stroke="black" points="326,-147 326,-177 448,-177 448,-147 326,-147"/>
<text text-anchor="start" x="334" y="-165" font-family="Helvetica,sans-Serif" font-size="10.00">utf8::unchecked::iterator</text>
<text text-anchor="middle" x="387" y="-154" font-family="Helvetica,sans-Serif" font-size="10.00">::operator++</text>
</a>
</g>
</g>
<!-- Node6&#45;&gt;Node7 -->
<g id="edge6" class="edge"><title>Node6&#45;&gt;Node7</title>
<path fill="none" stroke="midnightblue" d="M291.824,-168.166C303.155,-167.424 314.736,-166.666 325.726,-165.946"/>
<polygon fill="midnightblue" stroke="midnightblue" points="291.264,-164.695 281.514,-168.841 291.721,-171.68 291.264,-164.695"/>
</g>
</g>
</svg>
