<?xml version="1.0" encoding="UTF-8" standalone="no"?>
<!DOCTYPE svg PUBLIC "-//W3C//DTD SVG 1.1//EN"
 "http://www.w3.org/Graphics/SVG/1.1/DTD/svg11.dtd">
<!-- Generated by graphviz version 2.36.0 (20140111.2315)
 -->
<!-- Title: RoR::App::GetGfxShadowType Pages: 1 -->
<!--zoomable 169 -->
<svg id="main" version="1.1" xmlns="http://www.w3.org/2000/svg" xmlns:xlink="http://www.w3.org/1999/xlink" xml:space="preserve" onload="init(evt)">
<style type="text/css"><![CDATA[
.edge:hover path { stroke: red; }
.edge:hover polygon { stroke: red; fill: red; }
]]></style>
<script type="text/javascript"><![CDATA[
var edges = document.getElementsByTagName('g');
if (edges && edges.length) {
  for (var i=0;i<edges.length;i++) {
    if (edges[i].id.substr(0,4)=='edge') {
      edges[i].setAttribute('class','edge');
    }
  }
}
]]></script>
        <defs>
                <circle id="rim" cx="0" cy="0" r="7"/>
                <circle id="rim2" cx="0" cy="0" r="3.5"/>
                <g id="zoomPlus">
                        <use xlink:href="#rim" fill="#404040">
                                <set attributeName="fill" to="#808080" begin="zoomplus.mouseover" end="zoomplus.mouseout"/>
                        </use>
                        <path d="M-4,0h8M0,-4v8" fill="none" stroke="white" stroke-width="1.5" pointer-events="none"/>
                </g>
                <g id="zoomMin">
                        <use xlink:href="#rim" fill="#404040">
                                <set attributeName="fill" to="#808080" begin="zoomminus.mouseover" end="zoomminus.mouseout"/>
                        </use>
                        <path d="M-4,0h8" fill="none" stroke="white" stroke-width="1.5" pointer-events="none"/>
                </g>
                <g id="dirArrow">
                        <path fill="none" stroke="white" stroke-width="1.5" d="M0,-3.0v7 M-2.5,-0.5L0,-3.0L2.5,-0.5"/>
                </g>
               <g id="resetDef">
                       <use xlink:href="#rim2" fill="#404040">
                               <set attributeName="fill" to="#808080" begin="reset.mouseover" end="reset.mouseout"/>
                       </use>
               </g>
        </defs>

<script type="text/javascript">
var viewWidth = 1630;
var viewHeight = 169;
var sectionId = 'dynsection-48';
</script>
<script xlink:href="svgpan.js"/>
<svg id="graph" class="graph">
<g id="viewport">
<title>RoR::App::GetGfxShadowType</title>
<polygon fill="white" stroke="none" points="-4,4 -4,-165 1626,-165 1626,4 -4,4"/>
<!-- Node1 -->
<g id="node1" class="node"><title>Node1</title>
<polygon fill="#bfbfbf" stroke="black" points="0.5,-65.5 0.5,-84.5 155.5,-84.5 155.5,-65.5 0.5,-65.5"/>
<text text-anchor="middle" x="78" y="-72.5" font-family="Helvetica,sans-Serif" font-size="10.00">RoR::App::GetGfxShadowType</text>
</g>
<!-- Node2 -->
<g id="node2" class="node"><title>Node2</title>
<g id="a_node2"><a xlink:href="class_shadow_manager.html#a0ea428eee16e79f27557ba76a633234a" target="_top" xlink:title="ShadowManager::updateShadow\lTechnique">
<polygon fill="white" stroke="black" points="192,-131 192,-161 352,-161 352,-131 192,-131"/>
<text text-anchor="start" x="200" y="-149" font-family="Helvetica,sans-Serif" font-size="10.00">ShadowManager::updateShadow</text>
<text text-anchor="middle" x="272" y="-138" font-family="Helvetica,sans-Serif" font-size="10.00">Technique</text>
</a>
</g>
</g>
<!-- Node1&#45;&gt;Node2 -->
<g id="edge1" class="edge"><title>Node1&#45;&gt;Node2</title>
<path fill="none" stroke="midnightblue" d="M110.279,-88.5209C132.819,-98.0701 164.06,-110.911 192,-121 201.336,-124.371 211.378,-127.742 221.068,-130.866"/>
<polygon fill="midnightblue" stroke="midnightblue" points="111.455,-85.2175 100.883,-84.5174 108.711,-91.6573 111.455,-85.2175"/>
</g>
<!-- Node3 -->
<g id="node3" class="node"><title>Node3</title>
<g id="a_node3"><a xlink:href="class_shadow_manager.html#aaebfcba335db80b37e75fdac3518e5eb" target="_top" xlink:title="ShadowManager::updateTerrain\lMaterial">
<polygon fill="white" stroke="black" points="194.5,-82 194.5,-112 349.5,-112 349.5,-82 194.5,-82"/>
<text text-anchor="start" x="202.5" y="-100" font-family="Helvetica,sans-Serif" font-size="10.00">ShadowManager::updateTerrain</text>
<text text-anchor="middle" x="272" y="-89" font-family="Helvetica,sans-Serif" font-size="10.00">Material</text>
</a>
</g>
</g>
<!-- Node1&#45;&gt;Node3 -->
<g id="edge2" class="edge"><title>Node1&#45;&gt;Node3</title>
<path fill="none" stroke="midnightblue" d="M165.948,-84.9628C175.442,-86.0506 185.055,-87.1521 194.411,-88.2241"/>
<polygon fill="midnightblue" stroke="midnightblue" points="166.045,-81.4511 155.711,-83.7898 165.248,-88.4055 166.045,-81.4511"/>
</g>
<!-- Node12 -->
<g id="node12" class="node"><title>Node12</title>
<g id="a_node12"><a xlink:href="class_ro_r_1_1_content_manager.html#ab1406d98df5c86cfe58921f55b478c38" target="_top" xlink:title="RoR::ContentManager\l::InitManagedMaterials">
<polygon fill="white" stroke="black" points="572,-38 572,-68 688,-68 688,-38 572,-38"/>
<text text-anchor="start" x="580" y="-56" font-family="Helvetica,sans-Serif" font-size="10.00">RoR::ContentManager</text>
<text text-anchor="middle" x="630" y="-45" font-family="Helvetica,sans-Serif" font-size="10.00">::InitManagedMaterials</text>
</a>
</g>
</g>
<!-- Node1&#45;&gt;Node12 -->
<g id="edge11" class="edge"><title>Node1&#45;&gt;Node12</title>
<path fill="none" stroke="midnightblue" d="M165.813,-71.5275C279.333,-66.9867 475.07,-59.1572 571.668,-55.2933"/>
<polygon fill="midnightblue" stroke="midnightblue" points="165.617,-68.0324 155.764,-71.9294 165.896,-75.0268 165.617,-68.0324"/>
</g>
<!-- Node13 -->
<g id="node13" class="node"><title>Node13</title>
<g id="a_node13"><a xlink:href="_settings_8cpp.html#ade87b159b71b7a24989cc384639f3413" target="_top" xlink:title="App__GfxShadowTechToStr">
<polygon fill="white" stroke="black" points="388.5,-0.5 388.5,-19.5 529.5,-19.5 529.5,-0.5 388.5,-0.5"/>
<text text-anchor="middle" x="459" y="-7.5" font-family="Helvetica,sans-Serif" font-size="10.00">App__GfxShadowTechToStr</text>
</a>
</g>
</g>
<!-- Node1&#45;&gt;Node13 -->
<g id="edge13" class="edge"><title>Node1&#45;&gt;Node13</title>
<path fill="none" stroke="midnightblue" d="M113.797,-61.9234C135.897,-54.1182 165.273,-44.6548 192,-39 257.786,-25.0809 334.22,-17.6308 388.229,-13.7841"/>
<polygon fill="midnightblue" stroke="midnightblue" points="112.419,-58.6993 104.19,-65.3732 114.785,-65.2874 112.419,-58.6993"/>
</g>
<!-- Node4 -->
<g id="node4" class="node"><title>Node4</title>
<g id="a_node4"><a xlink:href="class_terrain_geometry_manager.html#a10e78d511f72ed2ba109ff691cdc0ffb" target="_top" xlink:title="TerrainGeometryManager\l::configureTerrainDefaults">
<polygon fill="white" stroke="black" points="394.5,-84 394.5,-114 523.5,-114 523.5,-84 394.5,-84"/>
<text text-anchor="start" x="402.5" y="-102" font-family="Helvetica,sans-Serif" font-size="10.00">TerrainGeometryManager</text>
<text text-anchor="middle" x="459" y="-91" font-family="Helvetica,sans-Serif" font-size="10.00">::configureTerrainDefaults</text>
</a>
</g>
</g>
<!-- Node3&#45;&gt;Node4 -->
<g id="edge3" class="edge"><title>Node3&#45;&gt;Node4</title>
<path fill="none" stroke="midnightblue" d="M359.785,-97.9382C371.453,-98.0644 383.243,-98.1918 394.407,-98.3125"/>
<polygon fill="midnightblue" stroke="midnightblue" points="359.619,-94.4363 349.582,-97.8279 359.544,-101.436 359.619,-94.4363"/>
</g>
<!-- Node5 -->
<g id="node5" class="node"><title>Node5</title>
<g id="a_node5"><a xlink:href="class_terrain_geometry_manager.html#a3433648af8303236ea2d3435ab2b279b" target="_top" xlink:title="TerrainGeometryManager\l::initTerrain">
<polygon fill="white" stroke="black" points="566.5,-87 566.5,-117 693.5,-117 693.5,-87 566.5,-87"/>
<text text-anchor="start" x="574.5" y="-105" font-family="Helvetica,sans-Serif" font-size="10.00">TerrainGeometryManager</text>
<text text-anchor="middle" x="630" y="-94" font-family="Helvetica,sans-Serif" font-size="10.00">::initTerrain</text>
</a>
</g>
</g>
<!-- Node4&#45;&gt;Node5 -->
<g id="edge4" class="edge"><title>Node4&#45;&gt;Node5</title>
<path fill="none" stroke="midnightblue" d="M534.127,-100.316C544.901,-100.507 555.902,-100.702 566.418,-100.889"/>
<polygon fill="midnightblue" stroke="midnightblue" points="533.952,-96.8123 523.892,-100.134 533.828,-103.811 533.952,-96.8123"/>
</g>
<!-- Node6 -->
<g id="node6" class="node"><title>Node6</title>
<g id="a_node6"><a xlink:href="class_terrain_geometry_manager.html#ac4467adecede14a9bf83a4bf871201d8" target="_top" xlink:title="TerrainGeometryManager\l::loadOgreTerrainConfig">
<polygon fill="white" stroke="black" points="730.5,-84 730.5,-114 857.5,-114 857.5,-84 730.5,-84"/>
<text text-anchor="start" x="738.5" y="-102" font-family="Helvetica,sans-Serif" font-size="10.00">TerrainGeometryManager</text>
<text text-anchor="middle" x="794" y="-91" font-family="Helvetica,sans-Serif" font-size="10.00">::loadOgreTerrainConfig</text>
</a>
</g>
</g>
<!-- Node5&#45;&gt;Node6 -->
<g id="edge5" class="edge"><title>Node5&#45;&gt;Node6</title>
<path fill="none" stroke="midnightblue" d="M703.885,-100.65C712.69,-100.487 721.624,-100.322 730.266,-100.162"/>
<polygon fill="midnightblue" stroke="midnightblue" points="703.567,-97.1555 693.633,-100.84 703.697,-104.154 703.567,-97.1555"/>
</g>
<!-- Node7 -->
<g id="node7" class="node"><title>Node7</title>
<g id="a_node7"><a xlink:href="class_terrain_manager.html#a9a04c837bf2ea6528c465b27ca62f730" target="_top" xlink:title="TerrainManager::loadTerrain">
<polygon fill="white" stroke="black" points="894,-88.5 894,-107.5 1032,-107.5 1032,-88.5 894,-88.5"/>
<text text-anchor="middle" x="963" y="-95.5" font-family="Helvetica,sans-Serif" font-size="10.00">TerrainManager::loadTerrain</text>
</a>
</g>
</g>
<!-- Node6&#45;&gt;Node7 -->
<g id="edge6" class="edge"><title>Node6&#45;&gt;Node7</title>
<path fill="none" stroke="midnightblue" d="M867.774,-98.5642C876.472,-98.5121 885.327,-98.4591 893.954,-98.4075"/>
<polygon fill="midnightblue" stroke="midnightblue" points="867.639,-95.0649 857.66,-98.6248 867.681,-102.065 867.639,-95.0649"/>
</g>
<!-- Node8 -->
<g id="node8" class="node"><title>Node8</title>
<g id="a_node8"><a xlink:href="class_ro_r_frame_listener.html#a9757c059e840019a3e2659d5ef63ea02" target="_top" xlink:title="Reads GVar &#39;sim_terrain_pending&#39;. ">
<polygon fill="white" stroke="black" points="1068,-84.5 1068,-103.5 1224,-103.5 1224,-84.5 1068,-84.5"/>
<text text-anchor="middle" x="1146" y="-91.5" font-family="Helvetica,sans-Serif" font-size="10.00">RoRFrameListener::LoadTerrain</text>
</a>
</g>
</g>
<!-- Node7&#45;&gt;Node8 -->
<g id="edge7" class="edge"><title>Node7&#45;&gt;Node8</title>
<path fill="none" stroke="midnightblue" d="M1042.36,-96.2682C1050.79,-96.0819 1059.37,-95.8925 1067.78,-95.7065"/>
<polygon fill="midnightblue" stroke="midnightblue" points="1042.09,-92.7733 1032.17,-96.4935 1042.25,-99.7716 1042.09,-92.7733"/>
</g>
<!-- Node9 -->
<g id="node9" class="node"><title>Node9</title>
<g id="a_node9"><a xlink:href="class_ro_r_frame_listener.html#aca3931d7a75f2ad4b9d36c4fcd03a3c9" target="_top" xlink:title="RoRFrameListener::SetupGameplayLoop">
<polygon fill="white" stroke="black" points="1260,-82.5 1260,-101.5 1456,-101.5 1456,-82.5 1260,-82.5"/>
<text text-anchor="middle" x="1358" y="-89.5" font-family="Helvetica,sans-Serif" font-size="10.00">RoRFrameListener::SetupGameplayLoop</text>
</a>
</g>
</g>
<!-- Node8&#45;&gt;Node9 -->
<g id="edge8" class="edge"><title>Node8&#45;&gt;Node9</title>
<path fill="none" stroke="midnightblue" d="M1234.26,-93.1689C1242.75,-93.088 1251.4,-93.0057 1259.98,-92.924"/>
<polygon fill="midnightblue" stroke="midnightblue" points="1233.97,-89.6715 1224,-93.2666 1234.04,-96.6711 1233.97,-89.6715"/>
</g>
<!-- Node10 -->
<g id="node10" class="node"><title>Node10</title>
<g id="a_node10"><a xlink:href="main_8cpp.html#a0ddf1224851353fc92bfbff6f499fa97" target="_top" xlink:title="main">
<polygon fill="white" stroke="black" points="1492,-43.5 1492,-62.5 1530,-62.5 1530,-43.5 1492,-43.5"/>
<text text-anchor="middle" x="1511" y="-50.5" font-family="Helvetica,sans-Serif" font-size="10.00">main</text>
</a>
</g>
</g>
<!-- Node9&#45;&gt;Node10 -->
<g id="edge9" class="edge"><title>Node9&#45;&gt;Node10</title>
<path fill="none" stroke="midnightblue" d="M1406.38,-79.8035C1422.16,-75.7362 1439.84,-71.1772 1456,-67 1467.81,-63.946 1481.08,-60.5068 1491.51,-57.8014"/>
<polygon fill="midnightblue" stroke="midnightblue" points="1405.12,-76.5123 1396.31,-82.3964 1406.87,-83.291 1405.12,-76.5123"/>
</g>
<!-- Node11 -->
<g id="node11" class="node"><title>Node11</title>
<g id="a_node11"><a xlink:href="main_8cpp.html#a2922bc5d5c2d77a3020cfbf9df12aab0" target="_top" xlink:title="WinMain">
<polygon fill="white" stroke="black" points="1566.5,-43.5 1566.5,-62.5 1621.5,-62.5 1621.5,-43.5 1566.5,-43.5"/>
<text text-anchor="middle" x="1594" y="-50.5" font-family="Helvetica,sans-Serif" font-size="10.00">WinMain</text>
</a>
</g>
</g>
<!-- Node10&#45;&gt;Node11 -->
<g id="edge10" class="edge"><title>Node10&#45;&gt;Node11</title>
<path fill="none" stroke="midnightblue" d="M1540.51,-53C1548.93,-53 1558.11,-53 1566.4,-53"/>
<polygon fill="midnightblue" stroke="midnightblue" points="1540.38,-49.5001 1530.38,-53 1540.38,-56.5001 1540.38,-49.5001"/>
</g>
<!-- Node12&#45;&gt;Node10 -->
<g id="edge12" class="edge"><title>Node12&#45;&gt;Node10</title>
<path fill="none" stroke="midnightblue" d="M698.506,-53C765.396,-53 870.77,-53 962,-53 962,-53 962,-53 1147,-53 1279.34,-53 1438.83,-53 1491.87,-53"/>
<polygon fill="midnightblue" stroke="midnightblue" points="698.109,-49.5001 688.109,-53 698.109,-56.5001 698.109,-49.5001"/>
</g>
<!-- Node14 -->
<g id="node14" class="node"><title>Node14</title>
<g id="a_node14"><a xlink:href="class_settings.html#a19d1e2e2df8600f7e2cd1c64363fe60f" target="_top" xlink:title="Settings::SaveSettings">
<polygon fill="white" stroke="black" points="735.5,-1.5 735.5,-20.5 852.5,-20.5 852.5,-1.5 735.5,-1.5"/>
<text text-anchor="middle" x="794" y="-8.5" font-family="Helvetica,sans-Serif" font-size="10.00">Settings::SaveSettings</text>
</a>
</g>
</g>
<!-- Node13&#45;&gt;Node14 -->
<g id="edge14" class="edge"><title>Node13&#45;&gt;Node14</title>
<path fill="none" stroke="midnightblue" d="M540.049,-10.2404C600.322,-10.4214 681.511,-10.6652 735.471,-10.8272"/>
<polygon fill="midnightblue" stroke="midnightblue" points="539.818,-6.73978 529.808,-10.2096 539.797,-13.7397 539.818,-6.73978"/>
</g>
<!-- Node14&#45;&gt;Node10 -->
<g id="edge15" class="edge"><title>Node14&#45;&gt;Node10</title>
<path fill="none" stroke="midnightblue" d="M863.024,-9.1713C983.35,-6.98186 1241.3,-6.98902 1456,-39 1468.07,-40.7995 1481.34,-44.2191 1491.7,-47.2281"/>
<polygon fill="midnightblue" stroke="midnightblue" points="862.789,-5.67509 852.859,-9.3676 862.924,-12.6738 862.789,-5.67509"/>
</g>
</g>
</svg>
        <g id="navigator" transform="translate(0 0)" fill="#404254">
                <rect fill="#f2f5e9" fill-opacity="0.5" stroke="#606060" stroke-width=".5" x="0" y="0" width="60" height="60"/>
                <use id="zoomplus" xlink:href="#zoomPlus" x="17" y="9" onmousedown="handleZoom(evt,'in')"/>
                <use id="zoomminus" xlink:href="#zoomMin" x="42" y="9" onmousedown="handleZoom(evt,'out')"/>
                <use id="reset" xlink:href="#resetDef" x="30" y="36" onmousedown="handleReset()"/>
                <g id="arrowUp" xlink:href="#dirArrow" transform="translate(30 24)" onmousedown="handlePan(0,-1)">
                  <use xlink:href="#rim" fill="#404040">
                        <set attributeName="fill" to="#808080" begin="arrowUp.mouseover" end="arrowUp.mouseout"/>
                  </use>
                  <path fill="none" stroke="white" stroke-width="1.5" d="M0,-3.0v7 M-2.5,-0.5L0,-3.0L2.5,-0.5"/>
                </g>
                <g id="arrowRight" xlink:href="#dirArrow" transform="rotate(90) translate(36 -43)" onmousedown="handlePan(1,0)">
                  <use xlink:href="#rim" fill="#404040">
                        <set attributeName="fill" to="#808080" begin="arrowRight.mouseover" end="arrowRight.mouseout"/>
                  </use>
                  <path fill="none" stroke="white" stroke-width="1.5" d="M0,-3.0v7 M-2.5,-0.5L0,-3.0L2.5,-0.5"/>
                </g>
                <g id="arrowDown" xlink:href="#dirArrow" transform="rotate(180) translate(-30 -48)" onmousedown="handlePan(0,1)">
                  <use xlink:href="#rim" fill="#404040">
                        <set attributeName="fill" to="#808080" begin="arrowDown.mouseover" end="arrowDown.mouseout"/>
                  </use>
                  <path fill="none" stroke="white" stroke-width="1.5" d="M0,-3.0v7 M-2.5,-0.5L0,-3.0L2.5,-0.5"/>
                </g>
                <g id="arrowLeft" xlink:href="#dirArrow" transform="rotate(270) translate(-36 17)" onmousedown="handlePan(-1,0)">
                  <use xlink:href="#rim" fill="#404040">
                        <set attributeName="fill" to="#808080" begin="arrowLeft.mouseover" end="arrowLeft.mouseout"/>
                  </use>
                  <path fill="none" stroke="white" stroke-width="1.5" d="M0,-3.0v7 M-2.5,-0.5L0,-3.0L2.5,-0.5"/>
                </g>
        </g>
        <svg viewBox="0 0 15 15" width="100%" height="30px" preserveAspectRatio="xMaxYMin meet">
         <g id="arrow_out" transform="scale(0.3 0.3)">
          <a xlink:href="namespace_ro_r_1_1_app_afcd8aada760188c69fedc4ee0bb39e70_icgraph_org.svg" target="_base">
           <rect id="button" ry="5" rx="5" y="6" x="6" height="38" width="38"
                fill="#f2f5e9" fill-opacity="0.5" stroke="#606060" stroke-width="1.0"/>
           <path id="arrow"
             d="M 11.500037,31.436501 C 11.940474,20.09759 22.043105,11.32322 32.158766,21.979434 L 37.068811,17.246167 C 37.068811,17.246167 37.088388,32 37.088388,32 L 22.160133,31.978069 C 22.160133,31.978069 26.997745,27.140456 26.997745,27.140456 C 18.528582,18.264221 13.291696,25.230495 11.500037,31.436501 z"
             style="fill:#404040;"/>
          </a>
         </g>
        </svg>
</svg>
