<?xml version="1.0" encoding="UTF-8" standalone="no"?>
<!DOCTYPE svg PUBLIC "-//W3C//DTD SVG 1.1//EN"
 "http://www.w3.org/Graphics/SVG/1.1/DTD/svg11.dtd">
<!-- Generated by graphviz version 2.36.0 (20140111.2315)
 -->
<!-- Title: RoR::App::GetSysUserDir Pages: 1 -->
<svg width="1090pt" height="329pt"
 viewBox="0.00 0.00 1090.00 329.06" xmlns="http://www.w3.org/2000/svg" xmlns:xlink="http://www.w3.org/1999/xlink">
<g id="graph0" class="graph" transform="scale(1 1) rotate(0) translate(4 325.062)">
<title>RoR::App::GetSysUserDir</title>
<polygon fill="white" stroke="none" points="-4,4 -4,-325.062 1086,-325.062 1086,4 -4,4"/>
<!-- Node1 -->
<g id="node1" class="node"><title>Node1</title>
<polygon fill="#bfbfbf" stroke="black" points="0.5,-139.562 0.5,-158.562 133.5,-158.562 133.5,-139.562 0.5,-139.562"/>
<text text-anchor="middle" x="67" y="-146.562" font-family="Helvetica,sans-Serif" font-size="10.00">RoR::App::GetSysUserDir</text>
</g>
<!-- Node2 -->
<g id="node2" class="node"><title>Node2</title>
<g id="a_node2"><a xlink:href="class_ro_r_1_1_g_u_i_1_1_texture_tool_window.html#a342b5b13b3f8e1a78766224962f68785" target="_top" xlink:title="RoR::GUI::TextureToolWindow\l::saveTexture">
<polygon fill="white" stroke="black" points="170,-291.062 170,-321.062 324,-321.062 324,-291.062 170,-291.062"/>
<text text-anchor="start" x="178" y="-309.062" font-family="Helvetica,sans-Serif" font-size="10.00">RoR::GUI::TextureToolWindow</text>
<text text-anchor="middle" x="247" y="-298.062" font-family="Helvetica,sans-Serif" font-size="10.00">::saveTexture</text>
</a>
</g>
</g>
<!-- Node1&#45;&gt;Node2 -->
<g id="edge1" class="edge"><title>Node1&#45;&gt;Node2</title>
<path fill="none" stroke="midnightblue" d="M78.5791,-167.649C94.9425,-194.898 128.84,-245.731 170,-276.062 177.994,-281.952 187.298,-286.864 196.599,-290.893"/>
<polygon fill="midnightblue" stroke="midnightblue" points="81.4423,-165.613 73.3629,-158.759 75.4048,-169.155 81.4423,-165.613"/>
</g>
<!-- Node3 -->
<g id="node3" class="node"><title>Node3</title>
<g id="a_node3"><a xlink:href="main_8cpp.html#a0ddf1224851353fc92bfbff6f499fa97" target="_top" xlink:title="main">
<polygon fill="white" stroke="black" points="952,-48.5617 952,-67.5617 990,-67.5617 990,-48.5617 952,-48.5617"/>
<text text-anchor="middle" x="971" y="-55.5617" font-family="Helvetica,sans-Serif" font-size="10.00">main</text>
</a>
</g>
</g>
<!-- Node1&#45;&gt;Node3 -->
<g id="edge2" class="edge"><title>Node1&#45;&gt;Node3</title>
<path fill="none" stroke="midnightblue" d="M94.1938,-163.407C152.274,-193.831 297.02,-262.062 427,-262.062 427,-262.062 427,-262.062 609,-262.062 745.896,-262.062 809.513,-323.091 916,-237.062 969.781,-193.613 971.45,-98.5482 970.493,-67.8382"/>
<polygon fill="midnightblue" stroke="midnightblue" points="95.7909,-160.293 85.317,-158.696 92.5092,-166.476 95.7909,-160.293"/>
</g>
<!-- Node5 -->
<g id="node5" class="node"><title>Node5</title>
<g id="a_node5"><a xlink:href="class_ro_r_1_1_beam_factory.html#aa770c50decf07b87d7ac747b64b8e3e5" target="_top" xlink:title="RoR::BeamFactory::Create\lLocalRigInstance">
<polygon fill="white" stroke="black" points="178.5,-134.062 178.5,-164.062 315.5,-164.062 315.5,-134.062 178.5,-134.062"/>
<text text-anchor="start" x="186.5" y="-152.062" font-family="Helvetica,sans-Serif" font-size="10.00">RoR::BeamFactory::Create</text>
<text text-anchor="middle" x="247" y="-141.062" font-family="Helvetica,sans-Serif" font-size="10.00">LocalRigInstance</text>
</a>
</g>
</g>
<!-- Node1&#45;&gt;Node5 -->
<g id="edge4" class="edge"><title>Node1&#45;&gt;Node5</title>
<path fill="none" stroke="midnightblue" d="M143.546,-149.062C155.065,-149.062 166.892,-149.062 178.23,-149.062"/>
<polygon fill="midnightblue" stroke="midnightblue" points="143.522,-145.562 133.522,-149.062 143.522,-152.562 143.522,-145.562"/>
</g>
<!-- Node14 -->
<g id="node14" class="node"><title>Node14</title>
<g id="a_node14"><a xlink:href="class_ro_r_1_1_content_manager.html#a3d65ff91e47f235abdea3dcc9db62876" target="_top" xlink:title="RoR::ContentManager\l::init">
<polygon fill="white" stroke="black" points="370.5,-19.0617 370.5,-49.0617 485.5,-49.0617 485.5,-19.0617 370.5,-19.0617"/>
<text text-anchor="start" x="378.5" y="-37.0617" font-family="Helvetica,sans-Serif" font-size="10.00">RoR::ContentManager</text>
<text text-anchor="middle" x="428" y="-26.0617" font-family="Helvetica,sans-Serif" font-size="10.00">::init</text>
</a>
</g>
</g>
<!-- Node1&#45;&gt;Node14 -->
<g id="edge16" class="edge"><title>Node1&#45;&gt;Node14</title>
<path fill="none" stroke="midnightblue" d="M107.387,-136.445C173.994,-115.108 308.588,-71.9931 380.01,-49.1141"/>
<polygon fill="midnightblue" stroke="midnightblue" points="106.139,-133.169 97.6839,-139.553 108.275,-139.835 106.139,-133.169"/>
</g>
<!-- Node15 -->
<g id="node15" class="node"><title>Node15</title>
<g id="a_node15"><a xlink:href="class_settings.html#ad1c21542e41500c873f654325aad486d" target="_top" xlink:title="Settings::SetupAllPaths">
<polygon fill="white" stroke="black" points="186.5,-16.5617 186.5,-35.5617 307.5,-35.5617 307.5,-16.5617 186.5,-16.5617"/>
<text text-anchor="middle" x="247" y="-23.5617" font-family="Helvetica,sans-Serif" font-size="10.00">Settings::SetupAllPaths</text>
</a>
</g>
</g>
<!-- Node1&#45;&gt;Node15 -->
<g id="edge18" class="edge"><title>Node1&#45;&gt;Node15</title>
<path fill="none" stroke="midnightblue" d="M89.8116,-133.441C110.393,-118.755 142.16,-96.2248 170,-77.0617 191.204,-62.4664 216.006,-45.9202 231.361,-35.737"/>
<polygon fill="midnightblue" stroke="midnightblue" points="87.5602,-130.748 81.4583,-139.409 91.6296,-136.444 87.5602,-130.748"/>
</g>
<!-- Node4 -->
<g id="node4" class="node"><title>Node4</title>
<g id="a_node4"><a xlink:href="main_8cpp.html#a2922bc5d5c2d77a3020cfbf9df12aab0" target="_top" xlink:title="WinMain">
<polygon fill="white" stroke="black" points="1026.5,-48.5617 1026.5,-67.5617 1081.5,-67.5617 1081.5,-48.5617 1026.5,-48.5617"/>
<text text-anchor="middle" x="1054" y="-55.5617" font-family="Helvetica,sans-Serif" font-size="10.00">WinMain</text>
</a>
</g>
</g>
<!-- Node3&#45;&gt;Node4 -->
<g id="edge3" class="edge"><title>Node3&#45;&gt;Node4</title>
<path fill="none" stroke="midnightblue" d="M1000.51,-58.0617C1008.93,-58.0617 1018.11,-58.0617 1026.4,-58.0617"/>
<polygon fill="midnightblue" stroke="midnightblue" points="1000.38,-54.5618 990.38,-58.0617 1000.38,-61.5618 1000.38,-54.5618"/>
</g>
<!-- Node6 -->
<g id="node6" class="node"><title>Node6</title>
<g id="a_node6"><a xlink:href="class_ro_r_frame_listener.html#afec2a0f00ed552c21d22aae76329bf38" target="_top" xlink:title="RoRFrameListener::Update\lInputEvents">
<polygon fill="white" stroke="black" points="539.5,-203.062 539.5,-233.062 676.5,-233.062 676.5,-203.062 539.5,-203.062"/>
<text text-anchor="start" x="547.5" y="-221.062" font-family="Helvetica,sans-Serif" font-size="10.00">RoRFrameListener::Update</text>
<text text-anchor="middle" x="608" y="-210.062" font-family="Helvetica,sans-Serif" font-size="10.00">InputEvents</text>
</a>
</g>
</g>
<!-- Node5&#45;&gt;Node6 -->
<g id="edge5" class="edge"><title>Node5&#45;&gt;Node6</title>
<path fill="none" stroke="midnightblue" d="M287.325,-168.577C308.375,-178.151 335.042,-188.92 360,-195.062 419.489,-209.7 489.13,-215.172 539.274,-217.145"/>
<polygon fill="midnightblue" stroke="midnightblue" points="288.619,-165.319 278.075,-164.282 285.671,-171.668 288.619,-165.319"/>
</g>
<!-- Node8 -->
<g id="node8" class="node"><title>Node8</title>
<g id="a_node8"><a xlink:href="class_ro_r_frame_listener.html#a74e44d8907e7f6ffddedd260f307a764" target="_top" xlink:title="RoRFrameListener::Reload\lCurrentTruck">
<polygon fill="white" stroke="black" points="360,-156.062 360,-186.062 496,-186.062 496,-156.062 360,-156.062"/>
<text text-anchor="start" x="368" y="-174.062" font-family="Helvetica,sans-Serif" font-size="10.00">RoRFrameListener::Reload</text>
<text text-anchor="middle" x="428" y="-163.062" font-family="Helvetica,sans-Serif" font-size="10.00">CurrentTruck</text>
</a>
</g>
</g>
<!-- Node5&#45;&gt;Node8 -->
<g id="edge7" class="edge"><title>Node5&#45;&gt;Node8</title>
<path fill="none" stroke="midnightblue" d="M325.602,-158.599C337,-160 348.661,-161.433 359.826,-162.806"/>
<polygon fill="midnightblue" stroke="midnightblue" points="326.025,-155.125 315.672,-157.379 325.171,-162.073 326.025,-155.125"/>
</g>
<!-- Node11 -->
<g id="node11" class="node"><title>Node11</title>
<g id="a_node11"><a xlink:href="class_ro_r_frame_listener.html#aca3931d7a75f2ad4b9d36c4fcd03a3c9" target="_top" xlink:title="RoRFrameListener::SetupGameplayLoop">
<polygon fill="white" stroke="black" points="720,-71.5617 720,-90.5617 916,-90.5617 916,-71.5617 720,-71.5617"/>
<text text-anchor="middle" x="818" y="-78.5617" font-family="Helvetica,sans-Serif" font-size="10.00">RoRFrameListener::SetupGameplayLoop</text>
</a>
</g>
</g>
<!-- Node5&#45;&gt;Node11 -->
<g id="edge11" class="edge"><title>Node5&#45;&gt;Node11</title>
<path fill="none" stroke="midnightblue" d="M325.892,-143.044C413.286,-135.865 559.171,-122.596 684,-105.062 712.463,-101.064 744.14,-95.3963 769.438,-90.5728"/>
<polygon fill="midnightblue" stroke="midnightblue" points="325.474,-139.567 315.791,-143.868 326.043,-146.543 325.474,-139.567"/>
</g>
<!-- Node12 -->
<g id="node12" class="node"><title>Node12</title>
<g id="a_node12"><a xlink:href="class_terrain_object_manager.html#a202d577cb222f42c46e5b6600c9626a4" target="_top" xlink:title="TerrainObjectManager\l::loadPreloadedTrucks">
<polygon fill="white" stroke="black" points="371,-68.0617 371,-98.0617 485,-98.0617 485,-68.0617 371,-68.0617"/>
<text text-anchor="start" x="379" y="-86.0617" font-family="Helvetica,sans-Serif" font-size="10.00">TerrainObjectManager</text>
<text text-anchor="middle" x="428" y="-75.0617" font-family="Helvetica,sans-Serif" font-size="10.00">::loadPreloadedTrucks</text>
</a>
</g>
</g>
<!-- Node5&#45;&gt;Node12 -->
<g id="edge13" class="edge"><title>Node5&#45;&gt;Node12</title>
<path fill="none" stroke="midnightblue" d="M298.579,-130.412C326.267,-120.204 360.126,-107.719 386.125,-98.1329"/>
<polygon fill="midnightblue" stroke="midnightblue" points="297.238,-127.177 289.066,-133.92 299.66,-133.744 297.238,-127.177"/>
</g>
<!-- Node7 -->
<g id="node7" class="node"><title>Node7</title>
<g id="a_node7"><a xlink:href="class_ro_r_frame_listener.html#acd8647e188fb8e838689492965b86faf" target="_top" xlink:title="RoRFrameListener::frameStarted">
<polygon fill="white" stroke="black" points="737.5,-208.562 737.5,-227.562 898.5,-227.562 898.5,-208.562 737.5,-208.562"/>
<text text-anchor="middle" x="818" y="-215.562" font-family="Helvetica,sans-Serif" font-size="10.00">RoRFrameListener::frameStarted</text>
</a>
</g>
</g>
<!-- Node6&#45;&gt;Node7 -->
<g id="edge6" class="edge"><title>Node6&#45;&gt;Node7</title>
<path fill="none" stroke="midnightblue" d="M686.719,-218.062C703.305,-218.062 720.845,-218.062 737.497,-218.062"/>
<polygon fill="midnightblue" stroke="midnightblue" points="686.532,-214.562 676.532,-218.062 686.532,-221.562 686.532,-214.562"/>
</g>
<!-- Node8&#45;&gt;Node6 -->
<g id="edge8" class="edge"><title>Node8&#45;&gt;Node6</title>
<path fill="none" stroke="midnightblue" d="M495.617,-188.652C513.547,-193.386 532.773,-198.462 550.119,-203.043"/>
<polygon fill="midnightblue" stroke="midnightblue" points="496.372,-185.231 485.81,-186.062 494.585,-191.999 496.372,-185.231"/>
</g>
<!-- Node9 -->
<g id="node9" class="node"><title>Node9</title>
<g id="a_node9"><a xlink:href="class_ro_r_1_1_g_u_i_1_1_top_menubar.html#ad1c44bd3c1247dcd8b876ff7728fac32" target="_top" xlink:title="RoR::GUI::TopMenubar\l::onMenuBtn">
<polygon fill="white" stroke="black" points="547.5,-154.062 547.5,-184.062 668.5,-184.062 668.5,-154.062 547.5,-154.062"/>
<text text-anchor="start" x="555.5" y="-172.062" font-family="Helvetica,sans-Serif" font-size="10.00">RoR::GUI::TopMenubar</text>
<text text-anchor="middle" x="608" y="-161.062" font-family="Helvetica,sans-Serif" font-size="10.00">::onMenuBtn</text>
</a>
</g>
</g>
<!-- Node8&#45;&gt;Node9 -->
<g id="edge9" class="edge"><title>Node8&#45;&gt;Node9</title>
<path fill="none" stroke="midnightblue" d="M506.426,-170.192C520.132,-170.038 534.209,-169.88 547.33,-169.732"/>
<polygon fill="midnightblue" stroke="midnightblue" points="506.001,-166.696 496.041,-170.308 506.079,-173.696 506.001,-166.696"/>
</g>
<!-- Node10 -->
<g id="node10" class="node"><title>Node10</title>
<g id="a_node10"><a xlink:href="class_ro_r_1_1_g_u_i_1_1_top_menubar.html#aba4f8b1030da3a9d3b4394562d60a05a" target="_top" xlink:title="RoR::GUI::TopMenubar\l::TopMenubar">
<polygon fill="white" stroke="black" points="757.5,-154.062 757.5,-184.062 878.5,-184.062 878.5,-154.062 757.5,-154.062"/>
<text text-anchor="start" x="765.5" y="-172.062" font-family="Helvetica,sans-Serif" font-size="10.00">RoR::GUI::TopMenubar</text>
<text text-anchor="middle" x="818" y="-161.062" font-family="Helvetica,sans-Serif" font-size="10.00">::TopMenubar</text>
</a>
</g>
</g>
<!-- Node9&#45;&gt;Node10 -->
<g id="edge10" class="edge"><title>Node9&#45;&gt;Node10</title>
<path fill="none" stroke="midnightblue" d="M678.934,-169.062C704.39,-169.062 732.908,-169.062 757.387,-169.062"/>
<polygon fill="midnightblue" stroke="midnightblue" points="678.604,-165.562 668.604,-169.062 678.604,-172.562 678.604,-165.562"/>
</g>
<!-- Node11&#45;&gt;Node3 -->
<g id="edge12" class="edge"><title>Node11&#45;&gt;Node3</title>
<path fill="none" stroke="midnightblue" d="M891.875,-69.9615C914.072,-66.5805 936.571,-63.1535 951.687,-60.851"/>
<polygon fill="midnightblue" stroke="midnightblue" points="891.085,-66.5414 881.726,-71.5074 892.139,-73.4616 891.085,-66.5414"/>
</g>
<!-- Node13 -->
<g id="node13" class="node"><title>Node13</title>
<g id="a_node13"><a xlink:href="class_terrain_manager.html#ac666fc0221c16001186b83cd6df66691" target="_top" xlink:title="TerrainManager::loadPreloaded\lTrucks">
<polygon fill="white" stroke="black" points="532,-66.0617 532,-96.0617 684,-96.0617 684,-66.0617 532,-66.0617"/>
<text text-anchor="start" x="540" y="-84.0617" font-family="Helvetica,sans-Serif" font-size="10.00">TerrainManager::loadPreloaded</text>
<text text-anchor="middle" x="608" y="-73.0617" font-family="Helvetica,sans-Serif" font-size="10.00">Trucks</text>
</a>
</g>
</g>
<!-- Node12&#45;&gt;Node13 -->
<g id="edge14" class="edge"><title>Node12&#45;&gt;Node13</title>
<path fill="none" stroke="midnightblue" d="M495.55,-82.3139C507.383,-82.181 519.782,-82.0416 531.834,-81.9062"/>
<polygon fill="midnightblue" stroke="midnightblue" points="495.28,-78.8166 485.32,-82.4289 495.359,-85.8162 495.28,-78.8166"/>
</g>
<!-- Node13&#45;&gt;Node11 -->
<g id="edge15" class="edge"><title>Node13&#45;&gt;Node11</title>
<path fill="none" stroke="midnightblue" d="M694.3,-81.0617C702.75,-81.0617 711.37,-81.0617 719.927,-81.0617"/>
<polygon fill="midnightblue" stroke="midnightblue" points="694.093,-77.5618 684.093,-81.0617 694.093,-84.5618 694.093,-77.5618"/>
</g>
<!-- Node14&#45;&gt;Node3 -->
<g id="edge17" class="edge"><title>Node14&#45;&gt;Node3</title>
<path fill="none" stroke="midnightblue" d="M495.759,-37.0232C619.894,-42.5302 880.123,-54.0745 951.533,-57.2424"/>
<polygon fill="midnightblue" stroke="midnightblue" points="495.765,-33.5202 485.619,-36.5734 495.455,-40.5133 495.765,-33.5202"/>
</g>
<!-- Node15&#45;&gt;Node3 -->
<g id="edge19" class="edge"><title>Node15&#45;&gt;Node3</title>
<path fill="none" stroke="midnightblue" d="M309.639,-15.0032C325.957,-12.5431 343.597,-10.2995 360,-9.06167 606.898,9.56945 671.903,-2.56071 916,-44.0617 928.03,-46.1071 941.3,-49.5305 951.674,-52.48"/>
<polygon fill="midnightblue" stroke="midnightblue" points="309.014,-11.5582 299.672,-16.5559 310.092,-18.4748 309.014,-11.5582"/>
</g>
</g>
</svg>
