<?xml version="1.0" encoding="UTF-8" standalone="no"?>
<!DOCTYPE svg PUBLIC "-//W3C//DTD SVG 1.1//EN"
 "http://www.w3.org/Graphics/SVG/1.1/DTD/svg11.dtd">
<!-- Generated by graphviz version 2.36.0 (20140111.2315)
 -->
<!-- Title: RegisterStdString_Generic Pages: 1 -->
<svg width="338pt" height="1876pt"
 viewBox="0.00 0.00 338.00 1876.00" xmlns="http://www.w3.org/2000/svg" xmlns:xlink="http://www.w3.org/1999/xlink">
<g id="graph0" class="graph" transform="scale(1 1) rotate(0) translate(4 1872)">
<title>RegisterStdString_Generic</title>
<polygon fill="white" stroke="none" points="-4,4 -4,-1872 334,-1872 334,4 -4,4"/>
<!-- Node1 -->
<g id="node1" class="node"><title>Node1</title>
<polygon fill="#bfbfbf" stroke="black" points="0.5,-936.5 0.5,-955.5 133.5,-955.5 133.5,-936.5 0.5,-936.5"/>
<text text-anchor="middle" x="67" y="-943.5" font-family="Helvetica,sans-Serif" font-size="10.00">RegisterStdString_Generic</text>
</g>
<!-- Node2 -->
<g id="node2" class="node"><title>Node2</title>
<g id="a_node2"><a xlink:href="scriptstdstring_8cpp.html#a4fd86f347b72be48cc255430a28de500" target="_top" xlink:title="StringFactoryGeneric">
<polygon fill="white" stroke="red" points="195.5,-1848.5 195.5,-1867.5 304.5,-1867.5 304.5,-1848.5 195.5,-1848.5"/>
<text text-anchor="middle" x="250" y="-1855.5" font-family="Helvetica,sans-Serif" font-size="10.00">StringFactoryGeneric</text>
</a>
</g>
</g>
<!-- Node1&#45;&gt;Node2 -->
<g id="edge1" class="edge"><title>Node1&#45;&gt;Node2</title>
<path fill="none" stroke="midnightblue" d="M68.4451,-955.779C72.7448,-1048.38 108.095,-1769.02 170,-1839 174.355,-1843.92 179.742,-1847.68 185.64,-1850.54"/>
<polygon fill="midnightblue" stroke="midnightblue" points="184.669,-1853.92 195.256,-1854.33 187.233,-1847.41 184.669,-1853.92"/>
</g>
<!-- Node3 -->
<g id="node3" class="node"><title>Node3</title>
<g id="a_node3"><a xlink:href="scriptstdstring_8cpp.html#a5dffe64efb4c2180f18fb6ef593c6ec0" target="_top" xlink:title="CleanupEngineStringPool">
<polygon fill="white" stroke="black" points="186,-1810.5 186,-1829.5 314,-1829.5 314,-1810.5 186,-1810.5"/>
<text text-anchor="middle" x="250" y="-1817.5" font-family="Helvetica,sans-Serif" font-size="10.00">CleanupEngineStringPool</text>
</a>
</g>
</g>
<!-- Node1&#45;&gt;Node3 -->
<g id="edge2" class="edge"><title>Node1&#45;&gt;Node3</title>
<path fill="none" stroke="midnightblue" d="M68.4898,-955.644C73.1365,-1045.48 110.589,-1734.18 170,-1801 172.065,-1803.32 174.36,-1805.39 176.829,-1807.22"/>
<polygon fill="midnightblue" stroke="midnightblue" points="175.44,-1810.47 185.819,-1812.59 179.033,-1804.46 175.44,-1810.47"/>
</g>
<!-- Node4 -->
<g id="node4" class="node"><title>Node4</title>
<g id="a_node4"><a xlink:href="scriptstdstring_8cpp.html#ad0539c1a26e5df8053adc3b1aedd270d" target="_top" xlink:title="ConstructStringGeneric">
<polygon fill="white" stroke="black" points="190.5,-1772.5 190.5,-1791.5 309.5,-1791.5 309.5,-1772.5 190.5,-1772.5"/>
<text text-anchor="middle" x="250" y="-1779.5" font-family="Helvetica,sans-Serif" font-size="10.00">ConstructStringGeneric</text>
</a>
</g>
</g>
<!-- Node1&#45;&gt;Node4 -->
<g id="edge3" class="edge"><title>Node1&#45;&gt;Node4</title>
<path fill="none" stroke="midnightblue" d="M68.5524,-955.762C73.6197,-1043.82 113.136,-1699.39 170,-1763 173.153,-1766.53 176.835,-1769.45 180.853,-1771.88"/>
<polygon fill="midnightblue" stroke="midnightblue" points="179.595,-1775.16 190.114,-1776.43 182.681,-1768.88 179.595,-1775.16"/>
</g>
<!-- Node5 -->
<g id="node5" class="node"><title>Node5</title>
<g id="a_node5"><a xlink:href="scriptstdstring_8cpp.html#a93459fd808793b721561c4d2012ff423" target="_top" xlink:title="CopyConstructStringGeneric">
<polygon fill="white" stroke="black" points="179,-1734.5 179,-1753.5 321,-1753.5 321,-1734.5 179,-1734.5"/>
<text text-anchor="middle" x="250" y="-1741.5" font-family="Helvetica,sans-Serif" font-size="10.00">CopyConstructStringGeneric</text>
</a>
</g>
</g>
<!-- Node1&#45;&gt;Node5 -->
<g id="edge4" class="edge"><title>Node1&#45;&gt;Node5</title>
<path fill="none" stroke="midnightblue" d="M67.8241,-955.73C66.5548,-1037.12 61.6863,-1604.57 170,-1725 171.061,-1726.18 172.182,-1727.29 173.354,-1728.34"/>
<polygon fill="midnightblue" stroke="midnightblue" points="171.607,-1731.4 181.771,-1734.39 175.69,-1725.71 171.607,-1731.4"/>
</g>
<!-- Node6 -->
<g id="node6" class="node"><title>Node6</title>
<g id="a_node6"><a xlink:href="scriptstdstring_8cpp.html#a08f913f0aa4850dec44b2aad1062d6e9" target="_top" xlink:title="DestructStringGeneric">
<polygon fill="white" stroke="black" points="193.5,-1696.5 193.5,-1715.5 306.5,-1715.5 306.5,-1696.5 193.5,-1696.5"/>
<text text-anchor="middle" x="250" y="-1703.5" font-family="Helvetica,sans-Serif" font-size="10.00">DestructStringGeneric</text>
</a>
</g>
</g>
<!-- Node1&#45;&gt;Node6 -->
<g id="edge5" class="edge"><title>Node1&#45;&gt;Node6</title>
<path fill="none" stroke="midnightblue" d="M67.8954,-955.754C67.248,-1034.98 66.7189,-1572.93 170,-1687 174.003,-1691.42 178.839,-1694.9 184.123,-1697.63"/>
<polygon fill="midnightblue" stroke="midnightblue" points="182.798,-1700.87 193.371,-1701.54 185.527,-1694.42 182.798,-1700.87"/>
</g>
<!-- Node7 -->
<g id="node7" class="node"><title>Node7</title>
<g id="a_node7"><a xlink:href="scriptstdstring_8cpp.html#afdf602187ea32a34b8457062e160c855" target="_top" xlink:title="AssignStringGeneric">
<polygon fill="white" stroke="black" points="197,-1658.5 197,-1677.5 303,-1677.5 303,-1658.5 197,-1658.5"/>
<text text-anchor="middle" x="250" y="-1665.5" font-family="Helvetica,sans-Serif" font-size="10.00">AssignStringGeneric</text>
</a>
</g>
</g>
<!-- Node1&#45;&gt;Node7 -->
<g id="edge6" class="edge"><title>Node1&#45;&gt;Node7</title>
<path fill="none" stroke="midnightblue" d="M67.9747,-955.74C67.976,-1032.6 71.7275,-1541.25 170,-1649 174.726,-1654.18 180.596,-1658.07 186.988,-1660.97"/>
<polygon fill="midnightblue" stroke="midnightblue" points="186.06,-1664.35 196.653,-1664.54 188.488,-1657.79 186.06,-1664.35"/>
</g>
<!-- Node8 -->
<g id="node8" class="node"><title>Node8</title>
<g id="a_node8"><a xlink:href="scriptstdstring_8cpp.html#ad949c7b2e6488b5f5a7bc907c4f596c0" target="_top" xlink:title="AddAssignStringGeneric">
<polygon fill="white" stroke="black" points="188.5,-1620.5 188.5,-1639.5 311.5,-1639.5 311.5,-1620.5 188.5,-1620.5"/>
<text text-anchor="middle" x="250" y="-1627.5" font-family="Helvetica,sans-Serif" font-size="10.00">AddAssignStringGeneric</text>
</a>
</g>
</g>
<!-- Node1&#45;&gt;Node8 -->
<g id="edge7" class="edge"><title>Node1&#45;&gt;Node8</title>
<path fill="none" stroke="midnightblue" d="M68.0622,-955.685C68.7386,-1029.99 76.7116,-1509.54 170,-1611 172.767,-1614.01 175.921,-1616.58 179.337,-1618.78"/>
<polygon fill="midnightblue" stroke="midnightblue" points="177.822,-1621.93 188.302,-1623.49 181.079,-1615.74 177.822,-1621.93"/>
</g>
<!-- Node9 -->
<g id="node9" class="node"><title>Node9</title>
<g id="a_node9"><a xlink:href="scriptstdstring_8cpp.html#a02830ac2d95231bc0b1bd499ca3dfe1a" target="_top" xlink:title="StringEqualsGeneric">
<polygon fill="white" stroke="black" points="197,-1582.5 197,-1601.5 303,-1601.5 303,-1582.5 197,-1582.5"/>
<text text-anchor="middle" x="250" y="-1589.5" font-family="Helvetica,sans-Serif" font-size="10.00">StringEqualsGeneric</text>
</a>
</g>
</g>
<!-- Node1&#45;&gt;Node9 -->
<g id="edge8" class="edge"><title>Node1&#45;&gt;Node9</title>
<path fill="none" stroke="midnightblue" d="M68.1582,-955.587C69.5353,-1027.15 81.6702,-1477.81 170,-1573 174.771,-1578.14 180.668,-1582 187.074,-1584.89"/>
<polygon fill="midnightblue" stroke="midnightblue" points="186.159,-1588.28 196.753,-1588.45 188.577,-1581.71 186.159,-1588.28"/>
</g>
<!-- Node10 -->
<g id="node10" class="node"><title>Node10</title>
<g id="a_node10"><a xlink:href="scriptstdstring_8cpp.html#a955261878efe2e0956aa8d33c2b2dc68" target="_top" xlink:title="StringCmpGeneric">
<polygon fill="white" stroke="black" points="201.5,-1544.5 201.5,-1563.5 298.5,-1563.5 298.5,-1544.5 201.5,-1544.5"/>
<text text-anchor="middle" x="250" y="-1551.5" font-family="Helvetica,sans-Serif" font-size="10.00">StringCmpGeneric</text>
</a>
</g>
</g>
<!-- Node1&#45;&gt;Node10 -->
<g id="edge9" class="edge"><title>Node1&#45;&gt;Node10</title>
<path fill="none" stroke="midnightblue" d="M68.2765,-955.887C70.435,-1025.87 86.78,-1446.23 170,-1535 175.894,-1541.29 183.474,-1545.66 191.6,-1548.66"/>
<polygon fill="midnightblue" stroke="midnightblue" points="190.736,-1552.06 201.321,-1551.6 192.762,-1545.36 190.736,-1552.06"/>
</g>
<!-- Node11 -->
<g id="node11" class="node"><title>Node11</title>
<g id="a_node11"><a xlink:href="scriptstdstring_8cpp.html#abbf1f1f9fc8dd74c7935895be5e573dc" target="_top" xlink:title="StringAddGeneric">
<polygon fill="white" stroke="black" points="203.5,-1506.5 203.5,-1525.5 296.5,-1525.5 296.5,-1506.5 203.5,-1506.5"/>
<text text-anchor="middle" x="250" y="-1513.5" font-family="Helvetica,sans-Serif" font-size="10.00">StringAddGeneric</text>
</a>
</g>
</g>
<!-- Node1&#45;&gt;Node11 -->
<g id="edge10" class="edge"><title>Node1&#45;&gt;Node11</title>
<path fill="none" stroke="midnightblue" d="M68.3951,-955.679C71.3158,-1022.44 91.6746,-1414.41 170,-1497 176.416,-1503.76 184.785,-1508.3 193.67,-1511.31"/>
<polygon fill="midnightblue" stroke="midnightblue" points="192.876,-1514.73 203.447,-1514.01 194.74,-1507.98 192.876,-1514.73"/>
</g>
<!-- Node12 -->
<g id="node12" class="node"><title>Node12</title>
<g id="a_node12"><a xlink:href="scriptstdstring_8cpp.html#aeb2f6503454b474839759574fe0e4292" target="_top" xlink:title="StringLengthGeneric">
<polygon fill="white" stroke="black" points="197.5,-1468.5 197.5,-1487.5 302.5,-1487.5 302.5,-1468.5 197.5,-1468.5"/>
<text text-anchor="middle" x="250" y="-1475.5" font-family="Helvetica,sans-Serif" font-size="10.00">StringLengthGeneric</text>
</a>
</g>
</g>
<!-- Node1&#45;&gt;Node12 -->
<g id="edge11" class="edge"><title>Node1&#45;&gt;Node12</title>
<path fill="none" stroke="midnightblue" d="M68.547,-955.832C72.3332,-1020.33 96.6975,-1382.72 170,-1459 174.925,-1464.13 180.973,-1467.97 187.509,-1470.84"/>
<polygon fill="midnightblue" stroke="midnightblue" points="186.768,-1474.29 197.363,-1474.38 189.135,-1467.7 186.768,-1474.29"/>
</g>
<!-- Node13 -->
<g id="node13" class="node"><title>Node13</title>
<g id="a_node13"><a xlink:href="scriptstdstring_8cpp.html#ac85c24019725b9a1c9f7e6a5366efe4b" target="_top" xlink:title="StringResizeGeneric">
<polygon fill="white" stroke="black" points="196.5,-1430.5 196.5,-1449.5 303.5,-1449.5 303.5,-1430.5 196.5,-1430.5"/>
<text text-anchor="middle" x="250" y="-1437.5" font-family="Helvetica,sans-Serif" font-size="10.00">StringResizeGeneric</text>
</a>
</g>
</g>
<!-- Node1&#45;&gt;Node13 -->
<g id="edge12" class="edge"><title>Node1&#45;&gt;Node13</title>
<path fill="none" stroke="midnightblue" d="M68.7197,-955.895C73.4165,-1017.76 101.669,-1350.97 170,-1421 174.766,-1425.88 180.551,-1429.6 186.801,-1432.42"/>
<polygon fill="midnightblue" stroke="midnightblue" points="185.632,-1435.72 196.225,-1435.93 188.077,-1429.16 185.632,-1435.72"/>
</g>
<!-- Node14 -->
<g id="node14" class="node"><title>Node14</title>
<g id="a_node14"><a xlink:href="scriptstdstring_8cpp.html#a9b14d5a51ebb487d99daf72cd800797a" target="_top" xlink:title="StringIsEmptyGeneric">
<polygon fill="white" stroke="red" points="193.5,-1392.5 193.5,-1411.5 306.5,-1411.5 306.5,-1392.5 193.5,-1392.5"/>
<text text-anchor="middle" x="250" y="-1399.5" font-family="Helvetica,sans-Serif" font-size="10.00">StringIsEmptyGeneric</text>
</a>
</g>
</g>
<!-- Node1&#45;&gt;Node14 -->
<g id="edge13" class="edge"><title>Node1&#45;&gt;Node14</title>
<path fill="none" stroke="midnightblue" d="M68.914,-955.862C74.5637,-1014.72 106.587,-1319.16 170,-1383 174.039,-1387.07 178.785,-1390.32 183.912,-1392.92"/>
<polygon fill="midnightblue" stroke="midnightblue" points="182.907,-1396.29 193.484,-1396.92 185.606,-1389.83 182.907,-1396.29"/>
</g>
<!-- Node15 -->
<g id="node15" class="node"><title>Node15</title>
<g id="a_node15"><a xlink:href="scriptstdstring_8cpp.html#a5bf76b39eb423536984da99dfd68e7b9" target="_top" xlink:title="StringCharAtGeneric">
<polygon fill="white" stroke="black" points="196.5,-1354.5 196.5,-1373.5 303.5,-1373.5 303.5,-1354.5 196.5,-1354.5"/>
<text text-anchor="middle" x="250" y="-1361.5" font-family="Helvetica,sans-Serif" font-size="10.00">StringCharAtGeneric</text>
</a>
</g>
</g>
<!-- Node1&#45;&gt;Node15 -->
<g id="edge14" class="edge"><title>Node1&#45;&gt;Node15</title>
<path fill="none" stroke="midnightblue" d="M69.1307,-955.725C75.7729,-1011.21 111.446,-1287.28 170,-1345 174.86,-1349.79 180.703,-1353.45 186.986,-1356.23"/>
<polygon fill="midnightblue" stroke="midnightblue" points="185.848,-1359.54 196.441,-1359.71 188.267,-1352.97 185.848,-1359.54"/>
</g>
<!-- Node16 -->
<g id="node16" class="node"><title>Node16</title>
<g id="a_node16"><a xlink:href="scriptstdstring_8cpp.html#a1a04d6a2badb94d72b6e6f1506c23d3e" target="_top" xlink:title="AssignDouble2StringGeneric">
<polygon fill="white" stroke="black" points="179,-1316.5 179,-1335.5 321,-1335.5 321,-1316.5 179,-1316.5"/>
<text text-anchor="middle" x="250" y="-1323.5" font-family="Helvetica,sans-Serif" font-size="10.00">AssignDouble2StringGeneric</text>
</a>
</g>
</g>
<!-- Node1&#45;&gt;Node16 -->
<g id="edge15" class="edge"><title>Node1&#45;&gt;Node16</title>
<path fill="none" stroke="midnightblue" d="M67.5026,-955.508C65.6372,-1001.74 63.8953,-1204.99 170,-1307 171.487,-1308.43 173.062,-1309.76 174.71,-1310.99"/>
<polygon fill="midnightblue" stroke="midnightblue" points="173.142,-1314.14 183.491,-1316.41 176.816,-1308.18 173.142,-1314.14"/>
</g>
<!-- Node17 -->
<g id="node17" class="node"><title>Node17</title>
<g id="a_node17"><a xlink:href="scriptstdstring_8cpp.html#a36735b8aca3f5f7dda5beb4cb7918d1f" target="_top" xlink:title="AddAssignDouble2StringGeneric">
<polygon fill="white" stroke="black" points="170.5,-1278.5 170.5,-1297.5 329.5,-1297.5 329.5,-1278.5 170.5,-1278.5"/>
<text text-anchor="middle" x="250" y="-1285.5" font-family="Helvetica,sans-Serif" font-size="10.00">AddAssignDouble2StringGeneric</text>
</a>
</g>
</g>
<!-- Node1&#45;&gt;Node17 -->
<g id="edge16" class="edge"><title>Node1&#45;&gt;Node17</title>
<path fill="none" stroke="midnightblue" d="M67.8669,-955.668C67.8213,-999.244 73.6602,-1179.17 170,-1269 171.677,-1270.56 173.458,-1272 175.326,-1273.33"/>
<polygon fill="midnightblue" stroke="midnightblue" points="173.609,-1276.38 183.997,-1278.47 177.174,-1270.36 173.609,-1276.38"/>
</g>
<!-- Node18 -->
<g id="node18" class="node"><title>Node18</title>
<g id="a_node18"><a xlink:href="scriptstdstring_8cpp.html#a6348211ce5880dfe6b137e2ae151a2f6" target="_top" xlink:title="AddString2DoubleGeneric">
<polygon fill="white" stroke="black" points="185.5,-1240.5 185.5,-1259.5 314.5,-1259.5 314.5,-1240.5 185.5,-1240.5"/>
<text text-anchor="middle" x="250" y="-1247.5" font-family="Helvetica,sans-Serif" font-size="10.00">AddString2DoubleGeneric</text>
</a>
</g>
</g>
<!-- Node1&#45;&gt;Node18 -->
<g id="edge17" class="edge"><title>Node1&#45;&gt;Node18</title>
<path fill="none" stroke="midnightblue" d="M68.3256,-955.622C70.2343,-995.974 83.1848,-1153.06 170,-1231 171.975,-1232.77 174.086,-1234.39 176.303,-1235.86"/>
<polygon fill="midnightblue" stroke="midnightblue" points="174.868,-1239.06 185.312,-1240.84 178.257,-1232.94 174.868,-1239.06"/>
</g>
<!-- Node19 -->
<g id="node19" class="node"><title>Node19</title>
<g id="a_node19"><a xlink:href="scriptstdstring_8cpp.html#ae8f68ad9d85ba0027e28a0c85a727051" target="_top" xlink:title="AddDouble2StringGeneric">
<polygon fill="white" stroke="black" points="185.5,-1202.5 185.5,-1221.5 314.5,-1221.5 314.5,-1202.5 185.5,-1202.5"/>
<text text-anchor="middle" x="250" y="-1209.5" font-family="Helvetica,sans-Serif" font-size="10.00">AddDouble2StringGeneric</text>
</a>
</g>
</g>
<!-- Node1&#45;&gt;Node19 -->
<g id="edge18" class="edge"><title>Node1&#45;&gt;Node19</title>
<path fill="none" stroke="midnightblue" d="M68.9097,-955.595C72.9449,-992.537 92.6123,-1126.81 170,-1193 171.97,-1194.68 174.064,-1196.23 176.254,-1197.63"/>
<polygon fill="midnightblue" stroke="midnightblue" points="174.66,-1200.75 185.12,-1202.44 177.996,-1194.6 174.66,-1200.75"/>
</g>
<!-- Node20 -->
<g id="node20" class="node"><title>Node20</title>
<g id="a_node20"><a xlink:href="scriptstdstring_8cpp.html#a1c1889603ce216d212779050aec69200" target="_top" xlink:title="AssignFloat2StringGeneric">
<polygon fill="white" stroke="black" points="183.5,-1164.5 183.5,-1183.5 316.5,-1183.5 316.5,-1164.5 183.5,-1164.5"/>
<text text-anchor="middle" x="250" y="-1171.5" font-family="Helvetica,sans-Serif" font-size="10.00">AssignFloat2StringGeneric</text>
</a>
</g>
</g>
<!-- Node1&#45;&gt;Node20 -->
<g id="edge19" class="edge"><title>Node1&#45;&gt;Node20</title>
<path fill="none" stroke="midnightblue" d="M69.7113,-955.715C76.1317,-989.15 101.99,-1100.41 170,-1155 172.269,-1156.82 174.685,-1158.47 177.21,-1159.97"/>
<polygon fill="midnightblue" stroke="midnightblue" points="175.653,-1163.1 186.157,-1164.48 178.807,-1156.85 175.653,-1163.1"/>
</g>
<!-- Node21 -->
<g id="node21" class="node"><title>Node21</title>
<g id="a_node21"><a xlink:href="scriptstdstring_8cpp.html#a95557cc75750b4a95952012ae77750bd" target="_top" xlink:title="AddAssignFloat2StringGeneric">
<polygon fill="white" stroke="black" points="175,-1126.5 175,-1145.5 325,-1145.5 325,-1126.5 175,-1126.5"/>
<text text-anchor="middle" x="250" y="-1133.5" font-family="Helvetica,sans-Serif" font-size="10.00">AddAssignFloat2StringGeneric</text>
</a>
</g>
</g>
<!-- Node1&#45;&gt;Node21 -->
<g id="edge20" class="edge"><title>Node1&#45;&gt;Node21</title>
<path fill="none" stroke="midnightblue" d="M70.7732,-955.568C79.7609,-984.797 110.979,-1073.56 170,-1117 172.531,-1118.86 175.221,-1120.55 178.021,-1122.07"/>
<polygon fill="midnightblue" stroke="midnightblue" points="176.743,-1125.33 187.285,-1126.38 179.701,-1118.99 176.743,-1125.33"/>
</g>
<!-- Node22 -->
<g id="node22" class="node"><title>Node22</title>
<g id="a_node22"><a xlink:href="scriptstdstring_8cpp.html#aafefdbf3ff182f1a10036c4b092a4a1e" target="_top" xlink:title="AddString2FloatGeneric">
<polygon fill="white" stroke="black" points="190,-1088.5 190,-1107.5 310,-1107.5 310,-1088.5 190,-1088.5"/>
<text text-anchor="middle" x="250" y="-1095.5" font-family="Helvetica,sans-Serif" font-size="10.00">AddString2FloatGeneric</text>
</a>
</g>
</g>
<!-- Node1&#45;&gt;Node22 -->
<g id="edge21" class="edge"><title>Node1&#45;&gt;Node22</title>
<path fill="none" stroke="midnightblue" d="M72.401,-955.501C84.3191,-980.12 119.738,-1046.34 170,-1079 173.299,-1081.14 176.817,-1083.05 180.467,-1084.73"/>
<polygon fill="midnightblue" stroke="midnightblue" points="179.179,-1087.99 189.761,-1088.5 181.81,-1081.5 179.179,-1087.99"/>
</g>
<!-- Node23 -->
<g id="node23" class="node"><title>Node23</title>
<g id="a_node23"><a xlink:href="scriptstdstring_8cpp.html#a081fdfacc645c095952716970a46fead" target="_top" xlink:title="AddFloat2StringGeneric">
<polygon fill="white" stroke="black" points="190,-1050.5 190,-1069.5 310,-1069.5 310,-1050.5 190,-1050.5"/>
<text text-anchor="middle" x="250" y="-1057.5" font-family="Helvetica,sans-Serif" font-size="10.00">AddFloat2StringGeneric</text>
</a>
</g>
</g>
<!-- Node1&#45;&gt;Node23 -->
<g id="edge22" class="edge"><title>Node1&#45;&gt;Node23</title>
<path fill="none" stroke="midnightblue" d="M75.297,-955.51C90.6234,-974.791 128.216,-1018.55 170,-1041 174.28,-1043.3 178.837,-1045.32 183.521,-1047.1"/>
<polygon fill="midnightblue" stroke="midnightblue" points="182.668,-1050.51 193.263,-1050.43 184.931,-1043.89 182.668,-1050.51"/>
</g>
<!-- Node24 -->
<g id="node24" class="node"><title>Node24</title>
<g id="a_node24"><a xlink:href="scriptstdstring_8cpp.html#a36e304c9dc465f33b8c7851510273ae3" target="_top" xlink:title="AssignInt2StringGeneric">
<polygon fill="white" stroke="black" points="189,-1012.5 189,-1031.5 311,-1031.5 311,-1012.5 189,-1012.5"/>
<text text-anchor="middle" x="250" y="-1019.5" font-family="Helvetica,sans-Serif" font-size="10.00">AssignInt2StringGeneric</text>
</a>
</g>
</g>
<!-- Node1&#45;&gt;Node24 -->
<g id="edge23" class="edge"><title>Node1&#45;&gt;Node24</title>
<path fill="none" stroke="midnightblue" d="M82.2429,-955.625C101.414,-968.181 136.938,-990.07 170,-1003 176.355,-1005.49 183.13,-1007.71 189.938,-1009.68"/>
<polygon fill="midnightblue" stroke="midnightblue" points="189.323,-1013.14 199.891,-1012.4 191.164,-1006.39 189.323,-1013.14"/>
</g>
<!-- Node25 -->
<g id="node25" class="node"><title>Node25</title>
<g id="a_node25"><a xlink:href="scriptstdstring_8cpp.html#a040c97c9829851613fdbc903863c6b8f" target="_top" xlink:title="AddAssignInt2StringGeneric">
<polygon fill="white" stroke="black" points="180,-974.5 180,-993.5 320,-993.5 320,-974.5 180,-974.5"/>
<text text-anchor="middle" x="250" y="-981.5" font-family="Helvetica,sans-Serif" font-size="10.00">AddAssignInt2StringGeneric</text>
</a>
</g>
</g>
<!-- Node1&#45;&gt;Node25 -->
<g id="edge24" class="edge"><title>Node1&#45;&gt;Node25</title>
<path fill="none" stroke="midnightblue" d="M113.674,-955.589C137.989,-960.694 168.08,-967.011 193.708,-972.392"/>
<polygon fill="midnightblue" stroke="midnightblue" points="193.149,-975.851 203.654,-974.48 194.587,-969 193.149,-975.851"/>
</g>
<!-- Node26 -->
<g id="node26" class="node"><title>Node26</title>
<g id="a_node26"><a xlink:href="scriptstdstring_8cpp.html#a3b14da78160714e0b615685b0dec5ea0" target="_top" xlink:title="AddString2IntGeneric">
<polygon fill="white" stroke="black" points="195,-936.5 195,-955.5 305,-955.5 305,-936.5 195,-936.5"/>
<text text-anchor="middle" x="250" y="-943.5" font-family="Helvetica,sans-Serif" font-size="10.00">AddString2IntGeneric</text>
</a>
</g>
</g>
<!-- Node1&#45;&gt;Node26 -->
<g id="edge25" class="edge"><title>Node1&#45;&gt;Node26</title>
<path fill="none" stroke="midnightblue" d="M133.601,-946C150.274,-946 168.169,-946 184.772,-946"/>
<polygon fill="midnightblue" stroke="midnightblue" points="184.921,-949.5 194.921,-946 184.921,-942.5 184.921,-949.5"/>
</g>
<!-- Node27 -->
<g id="node27" class="node"><title>Node27</title>
<g id="a_node27"><a xlink:href="scriptstdstring_8cpp.html#a4878482e3bb6d9a88c5ece6e431ab496" target="_top" xlink:title="AddInt2StringGeneric">
<polygon fill="white" stroke="black" points="195,-898.5 195,-917.5 305,-917.5 305,-898.5 195,-898.5"/>
<text text-anchor="middle" x="250" y="-905.5" font-family="Helvetica,sans-Serif" font-size="10.00">AddInt2StringGeneric</text>
</a>
</g>
</g>
<!-- Node1&#45;&gt;Node27 -->
<g id="edge26" class="edge"><title>Node1&#45;&gt;Node27</title>
<path fill="none" stroke="midnightblue" d="M113.674,-936.411C137.989,-931.306 168.08,-924.989 193.708,-919.608"/>
<polygon fill="midnightblue" stroke="midnightblue" points="194.587,-923 203.654,-917.52 193.149,-916.149 194.587,-923"/>
</g>
<!-- Node28 -->
<g id="node28" class="node"><title>Node28</title>
<g id="a_node28"><a xlink:href="scriptstdstring_8cpp.html#afb06a65eb72f92c0ba011f987a309013" target="_top" xlink:title="AssignUInt2StringGeneric">
<polygon fill="white" stroke="black" points="185,-860.5 185,-879.5 315,-879.5 315,-860.5 185,-860.5"/>
<text text-anchor="middle" x="250" y="-867.5" font-family="Helvetica,sans-Serif" font-size="10.00">AssignUInt2StringGeneric</text>
</a>
</g>
</g>
<!-- Node1&#45;&gt;Node28 -->
<g id="edge27" class="edge"><title>Node1&#45;&gt;Node28</title>
<path fill="none" stroke="midnightblue" d="M82.2429,-936.375C101.414,-923.819 136.938,-901.93 170,-889 176.355,-886.514 183.13,-884.29 189.938,-882.316"/>
<polygon fill="midnightblue" stroke="midnightblue" points="191.164,-885.61 199.891,-879.603 189.323,-878.856 191.164,-885.61"/>
</g>
<!-- Node29 -->
<g id="node29" class="node"><title>Node29</title>
<g id="a_node29"><a xlink:href="scriptstdstring_8cpp.html#a7669660b0eba4ab0e5162a426fedf4b7" target="_top" xlink:title="AddAssignUInt2StringGeneric">
<polygon fill="white" stroke="black" points="176.5,-822.5 176.5,-841.5 323.5,-841.5 323.5,-822.5 176.5,-822.5"/>
<text text-anchor="middle" x="250" y="-829.5" font-family="Helvetica,sans-Serif" font-size="10.00">AddAssignUInt2StringGeneric</text>
</a>
</g>
</g>
<!-- Node1&#45;&gt;Node29 -->
<g id="edge28" class="edge"><title>Node1&#45;&gt;Node29</title>
<path fill="none" stroke="midnightblue" d="M75.297,-936.49C90.6234,-917.209 128.216,-873.446 170,-851 174.28,-848.701 178.837,-846.677 183.521,-844.895"/>
<polygon fill="midnightblue" stroke="midnightblue" points="184.931,-848.112 193.263,-841.568 182.668,-841.488 184.931,-848.112"/>
</g>
<!-- Node30 -->
<g id="node30" class="node"><title>Node30</title>
<g id="a_node30"><a xlink:href="scriptstdstring_8cpp.html#a23c37397371b77136bd33669074d4d58" target="_top" xlink:title="AddString2UIntGeneric">
<polygon fill="white" stroke="black" points="191.5,-784.5 191.5,-803.5 308.5,-803.5 308.5,-784.5 191.5,-784.5"/>
<text text-anchor="middle" x="250" y="-791.5" font-family="Helvetica,sans-Serif" font-size="10.00">AddString2UIntGeneric</text>
</a>
</g>
</g>
<!-- Node1&#45;&gt;Node30 -->
<g id="edge29" class="edge"><title>Node1&#45;&gt;Node30</title>
<path fill="none" stroke="midnightblue" d="M72.401,-936.499C84.3191,-911.88 119.738,-845.664 170,-813 173.761,-810.556 177.806,-808.426 182.008,-806.569"/>
<polygon fill="midnightblue" stroke="midnightblue" points="183.345,-809.805 191.404,-802.927 180.815,-803.278 183.345,-809.805"/>
</g>
<!-- Node31 -->
<g id="node31" class="node"><title>Node31</title>
<g id="a_node31"><a xlink:href="scriptstdstring_8cpp.html#af0325451811608865756126298643b2f" target="_top" xlink:title="AddUInt2StringGeneric">
<polygon fill="white" stroke="black" points="191.5,-746.5 191.5,-765.5 308.5,-765.5 308.5,-746.5 191.5,-746.5"/>
<text text-anchor="middle" x="250" y="-753.5" font-family="Helvetica,sans-Serif" font-size="10.00">AddUInt2StringGeneric</text>
</a>
</g>
</g>
<!-- Node1&#45;&gt;Node31 -->
<g id="edge30" class="edge"><title>Node1&#45;&gt;Node31</title>
<path fill="none" stroke="midnightblue" d="M70.7732,-936.432C79.7609,-907.203 110.979,-818.44 170,-775 173.678,-772.293 177.689,-769.967 181.891,-767.968"/>
<polygon fill="midnightblue" stroke="midnightblue" points="183.411,-771.128 191.336,-764.096 180.756,-764.651 183.411,-771.128"/>
</g>
<!-- Node32 -->
<g id="node32" class="node"><title>Node32</title>
<g id="a_node32"><a xlink:href="scriptstdstring_8cpp.html#a58511ebf6ef303c33d24d1ceedcffb2f" target="_top" xlink:title="AssignBool2StringGeneric">
<polygon fill="white" stroke="black" points="184.5,-708.5 184.5,-727.5 315.5,-727.5 315.5,-708.5 184.5,-708.5"/>
<text text-anchor="middle" x="250" y="-715.5" font-family="Helvetica,sans-Serif" font-size="10.00">AssignBool2StringGeneric</text>
</a>
</g>
</g>
<!-- Node1&#45;&gt;Node32 -->
<g id="edge31" class="edge"><title>Node1&#45;&gt;Node32</title>
<path fill="none" stroke="midnightblue" d="M69.7113,-936.285C76.1317,-902.85 101.99,-791.593 170,-737 172.269,-735.179 174.685,-733.528 177.21,-732.031"/>
<polygon fill="midnightblue" stroke="midnightblue" points="178.807,-735.146 186.157,-727.515 175.653,-728.896 178.807,-735.146"/>
</g>
<!-- Node33 -->
<g id="node33" class="node"><title>Node33</title>
<g id="a_node33"><a xlink:href="scriptstdstring_8cpp.html#a14d59c036d169f48fa9536e4e26b43d3" target="_top" xlink:title="AddAssignBool2StringGeneric">
<polygon fill="white" stroke="black" points="176,-670.5 176,-689.5 324,-689.5 324,-670.5 176,-670.5"/>
<text text-anchor="middle" x="250" y="-677.5" font-family="Helvetica,sans-Serif" font-size="10.00">AddAssignBool2StringGeneric</text>
</a>
</g>
</g>
<!-- Node1&#45;&gt;Node33 -->
<g id="edge32" class="edge"><title>Node1&#45;&gt;Node33</title>
<path fill="none" stroke="midnightblue" d="M68.9097,-936.405C72.9449,-899.463 92.6123,-765.194 170,-699 171.97,-697.315 174.064,-695.774 176.254,-694.365"/>
<polygon fill="midnightblue" stroke="midnightblue" points="177.996,-697.402 185.12,-689.56 174.66,-691.248 177.996,-697.402"/>
</g>
<!-- Node34 -->
<g id="node34" class="node"><title>Node34</title>
<g id="a_node34"><a xlink:href="scriptstdstring_8cpp.html#a6cff416d9fa8cd12949dcd49612643dd" target="_top" xlink:title="AddString2BoolGeneric">
<polygon fill="white" stroke="black" points="191,-632.5 191,-651.5 309,-651.5 309,-632.5 191,-632.5"/>
<text text-anchor="middle" x="250" y="-639.5" font-family="Helvetica,sans-Serif" font-size="10.00">AddString2BoolGeneric</text>
</a>
</g>
</g>
<!-- Node1&#45;&gt;Node34 -->
<g id="edge33" class="edge"><title>Node1&#45;&gt;Node34</title>
<path fill="none" stroke="midnightblue" d="M68.3256,-936.378C70.2343,-896.026 83.1848,-738.937 170,-661 173.459,-657.895 177.337,-655.274 181.468,-653.065"/>
<polygon fill="midnightblue" stroke="midnightblue" points="183.159,-656.142 190.852,-648.856 180.295,-649.755 183.159,-656.142"/>
</g>
<!-- Node35 -->
<g id="node35" class="node"><title>Node35</title>
<g id="a_node35"><a xlink:href="scriptstdstring_8cpp.html#a0c8afed9438745d01fba25a0ed225d98" target="_top" xlink:title="AddBool2StringGeneric">
<polygon fill="white" stroke="black" points="191,-594.5 191,-613.5 309,-613.5 309,-594.5 191,-594.5"/>
<text text-anchor="middle" x="250" y="-601.5" font-family="Helvetica,sans-Serif" font-size="10.00">AddBool2StringGeneric</text>
</a>
</g>
</g>
<!-- Node1&#45;&gt;Node35 -->
<g id="edge34" class="edge"><title>Node1&#45;&gt;Node35</title>
<path fill="none" stroke="midnightblue" d="M67.8669,-936.332C67.8213,-892.756 73.6602,-712.835 170,-623 173.4,-619.83 177.233,-617.161 181.333,-614.917"/>
<polygon fill="midnightblue" stroke="midnightblue" points="183.024,-617.992 190.666,-610.653 180.116,-611.625 183.024,-617.992"/>
</g>
<!-- Node36 -->
<g id="node36" class="node"><title>Node36</title>
<g id="a_node36"><a xlink:href="scriptstdstring_8cpp.html#a7282f94e4fd30d8c7695c14c1dbf3f19" target="_top" xlink:title="StringSubString_Generic">
<polygon fill="white" stroke="red" points="188,-556.5 188,-575.5 312,-575.5 312,-556.5 188,-556.5"/>
<text text-anchor="middle" x="250" y="-563.5" font-family="Helvetica,sans-Serif" font-size="10.00">StringSubString_Generic</text>
</a>
</g>
</g>
<!-- Node1&#45;&gt;Node36 -->
<g id="edge35" class="edge"><title>Node1&#45;&gt;Node36</title>
<path fill="none" stroke="midnightblue" d="M67.5026,-936.492C65.6372,-890.257 63.8953,-687.01 170,-585 172.622,-582.479 175.517,-580.274 178.603,-578.345"/>
<polygon fill="midnightblue" stroke="midnightblue" points="180.471,-581.32 187.741,-573.613 177.251,-575.104 180.471,-581.32"/>
</g>
<!-- Node37 -->
<g id="node37" class="node"><title>Node37</title>
<g id="a_node37"><a xlink:href="scriptstdstring_8cpp.html#a2af7a678e9d964593a217d9c93eeca2e" target="_top" xlink:title="StringFindFirst_Generic">
<polygon fill="white" stroke="red" points="190.5,-518.5 190.5,-537.5 309.5,-537.5 309.5,-518.5 190.5,-518.5"/>
<text text-anchor="middle" x="250" y="-525.5" font-family="Helvetica,sans-Serif" font-size="10.00">StringFindFirst_Generic</text>
</a>
</g>
</g>
<!-- Node1&#45;&gt;Node37 -->
<g id="edge36" class="edge"><title>Node1&#45;&gt;Node37</title>
<path fill="none" stroke="midnightblue" d="M69.1307,-936.275C75.7729,-880.794 111.446,-604.725 170,-547 173.31,-543.737 177.077,-540.998 181.129,-538.704"/>
<polygon fill="midnightblue" stroke="midnightblue" points="182.82,-541.777 190.385,-534.361 179.846,-535.44 182.82,-541.777"/>
</g>
<!-- Node38 -->
<g id="node38" class="node"><title>Node38</title>
<g id="a_node38"><a xlink:href="scriptstdstring_8cpp.html#ae98460027f9fe41c1f4ecbab3cb37911" target="_top" xlink:title="StringFindFirstOf_Generic">
<polygon fill="white" stroke="red" points="185,-480.5 185,-499.5 315,-499.5 315,-480.5 185,-480.5"/>
<text text-anchor="middle" x="250" y="-487.5" font-family="Helvetica,sans-Serif" font-size="10.00">StringFindFirstOf_Generic</text>
</a>
</g>
</g>
<!-- Node1&#45;&gt;Node38 -->
<g id="edge37" class="edge"><title>Node1&#45;&gt;Node38</title>
<path fill="none" stroke="midnightblue" d="M68.914,-936.138C74.5637,-877.285 106.587,-572.841 170,-509 171.87,-507.117 173.892,-505.409 176.033,-503.859"/>
<polygon fill="midnightblue" stroke="midnightblue" points="178.011,-506.755 184.816,-498.634 174.432,-500.739 178.011,-506.755"/>
</g>
<!-- Node39 -->
<g id="node39" class="node"><title>Node39</title>
<g id="a_node39"><a xlink:href="scriptstdstring_8cpp.html#a62ac14cfbcd5c33c84700df1c820a920" target="_top" xlink:title="StringFindFirstNotOf\l_Generic">
<polygon fill="white" stroke="red" points="196.5,-431 196.5,-461 303.5,-461 303.5,-431 196.5,-431"/>
<text text-anchor="start" x="204.5" y="-449" font-family="Helvetica,sans-Serif" font-size="10.00">StringFindFirstNotOf</text>
<text text-anchor="middle" x="250" y="-438" font-family="Helvetica,sans-Serif" font-size="10.00">_Generic</text>
</a>
</g>
</g>
<!-- Node1&#45;&gt;Node39 -->
<g id="edge38" class="edge"><title>Node1&#45;&gt;Node39</title>
<path fill="none" stroke="midnightblue" d="M68.7858,-936.167C73.8869,-874.685 104.178,-543.389 170,-471 174.747,-465.78 180.574,-461.642 186.895,-458.364"/>
<polygon fill="midnightblue" stroke="midnightblue" points="188.704,-461.391 196.438,-454.15 185.877,-454.987 188.704,-461.391"/>
</g>
<!-- Node40 -->
<g id="node40" class="node"><title>Node40</title>
<g id="a_node40"><a xlink:href="scriptstdstring_8cpp.html#a117158f5d692c0e928e46651fe8933f4" target="_top" xlink:title="StringFindLast_Generic">
<polygon fill="white" stroke="red" points="190.5,-392.5 190.5,-411.5 309.5,-411.5 309.5,-392.5 190.5,-392.5"/>
<text text-anchor="middle" x="250" y="-399.5" font-family="Helvetica,sans-Serif" font-size="10.00">StringFindLast_Generic</text>
</a>
</g>
</g>
<!-- Node1&#45;&gt;Node40 -->
<g id="edge39" class="edge"><title>Node1&#45;&gt;Node40</title>
<path fill="none" stroke="midnightblue" d="M68.5022,-936.39C72.0722,-871.757 95.6489,-500.612 170,-422 173.348,-418.46 177.225,-415.511 181.427,-413.057"/>
<polygon fill="midnightblue" stroke="midnightblue" points="182.974,-416.197 190.447,-408.686 179.922,-409.898 182.974,-416.197"/>
</g>
<!-- Node41 -->
<g id="node41" class="node"><title>Node41</title>
<g id="a_node41"><a xlink:href="scriptstdstring_8cpp.html#a44c2ad7e2088339147ac66d0219b6007" target="_top" xlink:title="StringFindLastOf_Generic">
<polygon fill="white" stroke="red" points="185.5,-354.5 185.5,-373.5 314.5,-373.5 314.5,-354.5 185.5,-354.5"/>
<text text-anchor="middle" x="250" y="-361.5" font-family="Helvetica,sans-Serif" font-size="10.00">StringFindLastOf_Generic</text>
</a>
</g>
</g>
<!-- Node1&#45;&gt;Node41 -->
<g id="edge40" class="edge"><title>Node1&#45;&gt;Node41</title>
<path fill="none" stroke="midnightblue" d="M68.3621,-936.113C71.0599,-867.912 90.1859,-467.481 170,-383 172.043,-380.837 174.287,-378.902 176.682,-377.171"/>
<polygon fill="midnightblue" stroke="midnightblue" points="178.526,-380.147 185.349,-372.041 174.961,-374.123 178.526,-380.147"/>
</g>
<!-- Node42 -->
<g id="node42" class="node"><title>Node42</title>
<g id="a_node42"><a xlink:href="scriptstdstring_8cpp.html#a3b343be71ed5a4df38cb00de9d4755f1" target="_top" xlink:title="StringFindLastNotOf\l_Generic">
<polygon fill="white" stroke="red" points="197,-305 197,-335 303,-335 303,-305 197,-305"/>
<text text-anchor="start" x="205" y="-323" font-family="Helvetica,sans-Serif" font-size="10.00">StringFindLastNotOf</text>
<text text-anchor="middle" x="250" y="-312" font-family="Helvetica,sans-Serif" font-size="10.00">_Generic</text>
</a>
</g>
</g>
<!-- Node1&#45;&gt;Node42 -->
<g id="edge41" class="edge"><title>Node1&#45;&gt;Node42</title>
<path fill="none" stroke="midnightblue" d="M68.2984,-936.424C70.6536,-866.832 88.3581,-438.799 170,-345 174.87,-339.405 180.983,-335.05 187.641,-331.661"/>
<polygon fill="midnightblue" stroke="midnightblue" points="189.204,-334.799 196.992,-327.615 186.424,-328.374 189.204,-334.799"/>
</g>
<!-- Node43 -->
<g id="node43" class="node"><title>Node43</title>
<g id="a_node43"><a xlink:href="scriptstdstring_8cpp.html#a9a59c06b1cbdac63992a28addd927637" target="_top" xlink:title="StringInsert_Generic">
<polygon fill="white" stroke="red" points="197,-266.5 197,-285.5 303,-285.5 303,-266.5 197,-266.5"/>
<text text-anchor="middle" x="250" y="-273.5" font-family="Helvetica,sans-Serif" font-size="10.00">StringInsert_Generic</text>
</a>
</g>
</g>
<!-- Node1&#45;&gt;Node43 -->
<g id="edge42" class="edge"><title>Node1&#45;&gt;Node43</title>
<path fill="none" stroke="midnightblue" d="M68.1142,-936.075C69.1686,-861.985 79.3805,-395.395 170,-296 174.739,-290.802 180.617,-286.869 187.013,-283.905"/>
<polygon fill="midnightblue" stroke="midnightblue" points="188.583,-287.052 196.682,-280.222 186.091,-280.511 188.583,-287.052"/>
</g>
<!-- Node44 -->
<g id="node44" class="node"><title>Node44</title>
<g id="a_node44"><a xlink:href="scriptstdstring_8cpp.html#aed3668244a244b37d6c1e85d8ca40690" target="_top" xlink:title="StringErase_Generic">
<polygon fill="white" stroke="red" points="196.5,-228.5 196.5,-247.5 303.5,-247.5 303.5,-228.5 196.5,-228.5"/>
<text text-anchor="middle" x="250" y="-235.5" font-family="Helvetica,sans-Serif" font-size="10.00">StringErase_Generic</text>
</a>
</g>
</g>
<!-- Node1&#45;&gt;Node44 -->
<g id="edge43" class="edge"><title>Node1&#45;&gt;Node44</title>
<path fill="none" stroke="midnightblue" d="M68.0054,-936.453C68.2448,-861.107 73.4915,-362.509 170,-257 174.67,-251.895 180.45,-248.048 186.744,-245.166"/>
<polygon fill="midnightblue" stroke="midnightblue" points="188.127,-248.385 196.263,-241.598 185.67,-241.83 188.127,-248.385"/>
</g>
<!-- Node45 -->
<g id="node45" class="node"><title>Node45</title>
<g id="a_node45"><a xlink:href="scriptstdstring_8cpp.html#a7f33fcd185b0df8164dd88d82f281b3b" target="_top" xlink:title="formatInt_Generic">
<polygon fill="white" stroke="red" points="202.5,-190.5 202.5,-209.5 297.5,-209.5 297.5,-190.5 202.5,-190.5"/>
<text text-anchor="middle" x="250" y="-197.5" font-family="Helvetica,sans-Serif" font-size="10.00">formatInt_Generic</text>
</a>
</g>
</g>
<!-- Node1&#45;&gt;Node45 -->
<g id="edge44" class="edge"><title>Node1&#45;&gt;Node45</title>
<path fill="none" stroke="midnightblue" d="M67.9247,-936.429C67.5106,-858.69 68.4881,-330.828 170,-219 176.062,-212.322 184.024,-207.794 192.559,-204.76"/>
<polygon fill="midnightblue" stroke="midnightblue" points="193.727,-208.065 202.367,-201.933 191.789,-201.339 193.727,-208.065"/>
</g>
<!-- Node46 -->
<g id="node46" class="node"><title>Node46</title>
<g id="a_node46"><a xlink:href="scriptstdstring_8cpp.html#a5f1d8384430aa60257f5a4108fccd009" target="_top" xlink:title="formatUInt_Generic">
<polygon fill="white" stroke="red" points="199,-152.5 199,-171.5 301,-171.5 301,-152.5 199,-152.5"/>
<text text-anchor="middle" x="250" y="-159.5" font-family="Helvetica,sans-Serif" font-size="10.00">formatUInt_Generic</text>
</a>
</g>
</g>
<!-- Node1&#45;&gt;Node46 -->
<g id="edge45" class="edge"><title>Node1&#45;&gt;Node46</title>
<path fill="none" stroke="midnightblue" d="M67.8519,-936.444C66.8112,-856.509 63.4605,-299.176 170,-181 175.13,-175.31 181.639,-171.178 188.712,-168.201"/>
<polygon fill="midnightblue" stroke="midnightblue" points="190.293,-171.36 198.628,-164.818 188.033,-164.735 190.293,-171.36"/>
</g>
<!-- Node47 -->
<g id="node47" class="node"><title>Node47</title>
<g id="a_node47"><a xlink:href="scriptstdstring_8cpp.html#acd600936f614fa10af31c7899fa697ea" target="_top" xlink:title="formatFloat_Generic">
<polygon fill="white" stroke="red" points="197.5,-114.5 197.5,-133.5 302.5,-133.5 302.5,-114.5 197.5,-114.5"/>
<text text-anchor="middle" x="250" y="-121.5" font-family="Helvetica,sans-Serif" font-size="10.00">formatFloat_Generic</text>
</a>
</g>
</g>
<!-- Node1&#45;&gt;Node47 -->
<g id="edge46" class="edge"><title>Node1&#45;&gt;Node47</title>
<path fill="none" stroke="midnightblue" d="M67.7868,-936.496C66.147,-854.563 58.4092,-267.554 170,-143 174.918,-137.51 181.12,-133.47 187.876,-130.516"/>
<polygon fill="midnightblue" stroke="midnightblue" points="189.124,-133.787 197.364,-127.128 186.77,-127.195 189.124,-133.787"/>
</g>
<!-- Node48 -->
<g id="node48" class="node"><title>Node48</title>
<g id="a_node48"><a xlink:href="scriptstdstring_8cpp.html#a1f97f501a63ff5add8dc37bf922e3733" target="_top" xlink:title="parseInt_Generic">
<polygon fill="white" stroke="red" points="204.5,-76.5 204.5,-95.5 295.5,-95.5 295.5,-76.5 204.5,-76.5"/>
<text text-anchor="middle" x="250" y="-83.5" font-family="Helvetica,sans-Serif" font-size="10.00">parseInt_Generic</text>
</a>
</g>
</g>
<!-- Node1&#45;&gt;Node48 -->
<g id="edge47" class="edge"><title>Node1&#45;&gt;Node48</title>
<path fill="none" stroke="midnightblue" d="M68.5163,-936.235C73.3335,-846.728 111.545,-170.617 170,-105 176.477,-97.7298 185.204,-92.9987 194.497,-89.9662"/>
<polygon fill="midnightblue" stroke="midnightblue" points="195.534,-93.3126 204.316,-87.3855 193.755,-86.5425 195.534,-93.3126"/>
</g>
<!-- Node49 -->
<g id="node49" class="node"><title>Node49</title>
<g id="a_node49"><a xlink:href="scriptstdstring_8cpp.html#a4c4754b285dee99423bcaa5a00cf6fe4" target="_top" xlink:title="parseUInt_Generic">
<polygon fill="white" stroke="red" points="201,-38.5 201,-57.5 299,-57.5 299,-38.5 201,-38.5"/>
<text text-anchor="middle" x="250" y="-45.5" font-family="Helvetica,sans-Serif" font-size="10.00">parseUInt_Generic</text>
</a>
</g>
</g>
<!-- Node1&#45;&gt;Node49 -->
<g id="edge48" class="edge"><title>Node1&#45;&gt;Node49</title>
<path fill="none" stroke="midnightblue" d="M68.4562,-936.374C72.8603,-845.217 108.991,-135.842 170,-67 175.716,-60.5502 183.203,-56.0968 191.29,-53.0541"/>
<polygon fill="midnightblue" stroke="midnightblue" points="192.446,-56.3609 200.989,-50.0954 190.403,-49.6655 192.446,-56.3609"/>
</g>
<!-- Node50 -->
<g id="node50" class="node"><title>Node50</title>
<g id="a_node50"><a xlink:href="scriptstdstring_8cpp.html#afdee211aee6006ed3eb8de1ffde28eda" target="_top" xlink:title="parseFloat_Generic">
<polygon fill="white" stroke="red" points="199.5,-0.5 199.5,-19.5 300.5,-19.5 300.5,-0.5 199.5,-0.5"/>
<text text-anchor="middle" x="250" y="-7.5" font-family="Helvetica,sans-Serif" font-size="10.00">parseFloat_Generic</text>
</a>
</g>
</g>
<!-- Node1&#45;&gt;Node50 -->
<g id="edge49" class="edge"><title>Node1&#45;&gt;Node50</title>
<path fill="none" stroke="midnightblue" d="M68.4131,-936.255C72.4758,-842.42 106.493,-101.005 170,-29 175.314,-22.9747 182.174,-18.6899 189.629,-15.6695"/>
<polygon fill="midnightblue" stroke="midnightblue" points="190.911,-18.9322 199.318,-12.4839 188.725,-12.2824 190.911,-18.9322"/>
</g>
</g>
</svg>
