<?xml version="1.0" encoding="UTF-8" standalone="no"?>
<!DOCTYPE svg PUBLIC "-//W3C//DTD SVG 1.1//EN"
 "http://www.w3.org/Graphics/SVG/1.1/DTD/svg11.dtd">
<!-- Generated by graphviz version 2.36.0 (20140111.2315)
 -->
<!-- Title: StringJoin_Generic Pages: 1 -->
<svg width="354pt" height="66pt"
 viewBox="0.00 0.00 354.00 66.00" xmlns="http://www.w3.org/2000/svg" xmlns:xlink="http://www.w3.org/1999/xlink">
<g id="graph0" class="graph" transform="scale(1 1) rotate(0) translate(4 62)">
<title>StringJoin_Generic</title>
<polygon fill="white" stroke="none" points="-4,4 -4,-62 350,-62 350,4 -4,4"/>
<!-- Node1 -->
<g id="node1" class="node"><title>Node1</title>
<polygon fill="#bfbfbf" stroke="black" points="0.5,-19.5 0.5,-38.5 99.5,-38.5 99.5,-19.5 0.5,-19.5"/>
<text text-anchor="middle" x="50" y="-26.5" font-family="Helvetica,sans-Serif" font-size="10.00">StringJoin_Generic</text>
</g>
<!-- Node2 -->
<g id="node2" class="node"><title>Node2</title>
<g id="a_node2"><a xlink:href="scriptstdstring__utils_8cpp.html#ab5bf80df4fd93f578bc183ee69951338" target="_top" xlink:title="StringJoin">
<polygon fill="white" stroke="black" points="136,-19.5 136,-38.5 196,-38.5 196,-19.5 136,-19.5"/>
<text text-anchor="middle" x="166" y="-26.5" font-family="Helvetica,sans-Serif" font-size="10.00">StringJoin</text>
</a>
</g>
</g>
<!-- Node1&#45;&gt;Node2 -->
<g id="edge1" class="edge"><title>Node1&#45;&gt;Node2</title>
<path fill="none" stroke="midnightblue" d="M99.6769,-29C108.357,-29 117.301,-29 125.679,-29"/>
<polygon fill="midnightblue" stroke="midnightblue" points="125.927,-32.5001 135.926,-29 125.926,-25.5001 125.927,-32.5001"/>
</g>
<!-- Node3 -->
<g id="node3" class="node"><title>Node3</title>
<g id="a_node3"><a xlink:href="class_c_script_array.html#aceeebde2ef3248973a87add12d140806" target="_top" xlink:title="CScriptArray::GetSize">
<polygon fill="white" stroke="black" points="232,-38.5 232,-57.5 346,-57.5 346,-38.5 232,-38.5"/>
<text text-anchor="middle" x="289" y="-45.5" font-family="Helvetica,sans-Serif" font-size="10.00">CScriptArray::GetSize</text>
</a>
</g>
</g>
<!-- Node2&#45;&gt;Node3 -->
<g id="edge2" class="edge"><title>Node2&#45;&gt;Node3</title>
<path fill="none" stroke="midnightblue" d="M196.291,-33.5994C204.117,-34.8282 212.902,-36.2077 221.853,-37.6133"/>
<polygon fill="midnightblue" stroke="midnightblue" points="221.566,-41.1111 231.988,-39.2048 222.652,-34.1958 221.566,-41.1111"/>
</g>
<!-- Node4 -->
<g id="node4" class="node"><title>Node4</title>
<g id="a_node4"><a xlink:href="class_c_script_array.html#ac179b031c789763b6d7cecb8c07157f5" target="_top" xlink:title="CScriptArray::At">
<polygon fill="white" stroke="black" points="244.5,-0.5 244.5,-19.5 333.5,-19.5 333.5,-0.5 244.5,-0.5"/>
<text text-anchor="middle" x="289" y="-7.5" font-family="Helvetica,sans-Serif" font-size="10.00">CScriptArray::At</text>
</a>
</g>
</g>
<!-- Node2&#45;&gt;Node4 -->
<g id="edge3" class="edge"><title>Node2&#45;&gt;Node4</title>
<path fill="none" stroke="midnightblue" d="M196.291,-24.4006C207.772,-22.5978 221.319,-20.4706 234.426,-18.4125"/>
<polygon fill="midnightblue" stroke="midnightblue" points="234.986,-21.8676 244.322,-16.8586 233.9,-14.9523 234.986,-21.8676"/>
</g>
</g>
</svg>
