<?xml version="1.0" encoding="UTF-8" standalone="no"?>
<!DOCTYPE svg PUBLIC "-//W3C//DTD SVG 1.1//EN"
 "http://www.w3.org/Graphics/SVG/1.1/DTD/svg11.dtd">
<!-- Generated by graphviz version 2.36.0 (20140111.2315)
 -->
<!-- Title: CScriptDictValue_opConvInt Pages: 1 -->
<svg width="468pt" height="28pt"
 viewBox="0.00 0.00 468.00 28.00" xmlns="http://www.w3.org/2000/svg" xmlns:xlink="http://www.w3.org/1999/xlink">
<g id="graph0" class="graph" transform="scale(1 1) rotate(0) translate(4 24)">
<title>CScriptDictValue_opConvInt</title>
<polygon fill="white" stroke="none" points="-4,4 -4,-24 464,-24 464,4 -4,4"/>
<!-- Node1 -->
<g id="node1" class="node"><title>Node1</title>
<polygon fill="#bfbfbf" stroke="black" points="0.5,-0.5 0.5,-19.5 143.5,-19.5 143.5,-0.5 0.5,-0.5"/>
<text text-anchor="middle" x="72" y="-7.5" font-family="Helvetica,sans-Serif" font-size="10.00">CScriptDictValue_opConvInt</text>
</g>
<!-- Node2 -->
<g id="node2" class="node"><title>Node2</title>
<g id="a_node2"><a xlink:href="scriptdictionary_8cpp.html#a8ee0587817c32daec77c68547a362eed" target="_top" xlink:title="CScriptDictValue_opCast">
<polygon fill="white" stroke="black" points="180.5,-0.5 180.5,-19.5 309.5,-19.5 309.5,-0.5 180.5,-0.5"/>
<text text-anchor="middle" x="245" y="-7.5" font-family="Helvetica,sans-Serif" font-size="10.00">CScriptDictValue_opCast</text>
</a>
</g>
</g>
<!-- Node1&#45;&gt;Node2 -->
<g id="edge1" class="edge"><title>Node1&#45;&gt;Node2</title>
<path fill="none" stroke="midnightblue" d="M143.54,-10C152.334,-10 161.347,-10 170.189,-10"/>
<polygon fill="midnightblue" stroke="midnightblue" points="170.468,-13.5001 180.468,-10 170.468,-6.5001 170.468,-13.5001"/>
</g>
<!-- Node3 -->
<g id="node3" class="node"><title>Node3</title>
<g id="a_node3"><a xlink:href="class_c_script_dict_value.html#a1810a32ba20a4ec4bba4e0d8fb6d5119" target="_top" xlink:title="CScriptDictValue::Get">
<polygon fill="white" stroke="black" points="346,-0.5 346,-19.5 460,-19.5 460,-0.5 346,-0.5"/>
<text text-anchor="middle" x="403" y="-7.5" font-family="Helvetica,sans-Serif" font-size="10.00">CScriptDictValue::Get</text>
</a>
</g>
</g>
<!-- Node2&#45;&gt;Node3 -->
<g id="edge2" class="edge"><title>Node2&#45;&gt;Node3</title>
<path fill="none" stroke="midnightblue" d="M309.901,-10C318.489,-10 327.313,-10 335.937,-10"/>
<polygon fill="midnightblue" stroke="midnightblue" points="335.944,-13.5001 345.944,-10 335.944,-6.5001 335.944,-13.5001"/>
</g>
</g>
</svg>
