<?xml version="1.0" encoding="UTF-8" standalone="no"?>
<!DOCTYPE svg PUBLIC "-//W3C//DTD SVG 1.1//EN"
 "http://www.w3.org/Graphics/SVG/1.1/DTD/svg11.dtd">
<!-- Generated by graphviz version 2.36.0 (20140111.2315)
 -->
<!-- Title: ScriptArrayListFactory_Generic Pages: 1 -->
<svg width="398pt" height="38pt"
 viewBox="0.00 0.00 398.00 38.00" xmlns="http://www.w3.org/2000/svg" xmlns:xlink="http://www.w3.org/1999/xlink">
<g id="graph0" class="graph" transform="scale(1 1) rotate(0) translate(4 34)">
<title>ScriptArrayListFactory_Generic</title>
<polygon fill="white" stroke="none" points="-4,4 -4,-34 394,-34 394,4 -4,4"/>
<!-- Node1 -->
<g id="node1" class="node"><title>Node1</title>
<polygon fill="#bfbfbf" stroke="black" points="0,-0 0,-30 114,-30 114,-0 0,-0"/>
<text text-anchor="start" x="8" y="-18" font-family="Helvetica,sans-Serif" font-size="10.00">ScriptArrayListFactory</text>
<text text-anchor="middle" x="57" y="-7" font-family="Helvetica,sans-Serif" font-size="10.00">_Generic</text>
</g>
<!-- Node2 -->
<g id="node2" class="node"><title>Node2</title>
<g id="a_node2"><a xlink:href="scriptarray_8cpp.html#a3f10cc670a493480c2a665a984710480" target="_top" xlink:title="RegisterScriptArray\l_Generic">
<polygon fill="white" stroke="black" points="150,-0 150,-30 252,-30 252,-0 150,-0"/>
<text text-anchor="start" x="158" y="-18" font-family="Helvetica,sans-Serif" font-size="10.00">RegisterScriptArray</text>
<text text-anchor="middle" x="201" y="-7" font-family="Helvetica,sans-Serif" font-size="10.00">_Generic</text>
</a>
</g>
</g>
<!-- Node1&#45;&gt;Node2 -->
<g id="edge1" class="edge"><title>Node1&#45;&gt;Node2</title>
<path fill="none" stroke="midnightblue" d="M124.17,-15C132.792,-15 141.51,-15 149.811,-15"/>
<polygon fill="midnightblue" stroke="midnightblue" points="124.122,-11.5001 114.122,-15 124.122,-18.5001 124.122,-11.5001"/>
</g>
<!-- Node3 -->
<g id="node3" class="node"><title>Node3</title>
<g id="a_node3"><a xlink:href="scriptarray_8h.html#ac97e4fe44bf13c876d66eadb481369da" target="_top" xlink:title="RegisterScriptArray">
<polygon fill="white" stroke="black" points="288,-5.5 288,-24.5 390,-24.5 390,-5.5 288,-5.5"/>
<text text-anchor="middle" x="339" y="-12.5" font-family="Helvetica,sans-Serif" font-size="10.00">RegisterScriptArray</text>
</a>
</g>
</g>
<!-- Node2&#45;&gt;Node3 -->
<g id="edge2" class="edge"><title>Node2&#45;&gt;Node3</title>
<path fill="none" stroke="midnightblue" d="M262.511,-15C271.013,-15 279.674,-15 287.952,-15"/>
<polygon fill="midnightblue" stroke="midnightblue" points="262.255,-11.5001 252.255,-15 262.255,-18.5001 262.255,-11.5001"/>
</g>
</g>
</svg>
