<?xml version="1.0" encoding="UTF-8" standalone="no"?>
<!DOCTYPE svg PUBLIC "-//W3C//DTD SVG 1.1//EN"
 "http://www.w3.org/Graphics/SVG/1.1/DTD/svg11.dtd">
<!-- Generated by graphviz version 2.36.0 (20140111.2315)
 -->
<!-- Title: CleanupTypeInfoArrayCache Pages: 1 -->
<svg width="428pt" height="87pt"
 viewBox="0.00 0.00 428.00 87.00" xmlns="http://www.w3.org/2000/svg" xmlns:xlink="http://www.w3.org/1999/xlink">
<g id="graph0" class="graph" transform="scale(1 1) rotate(0) translate(4 83)">
<title>CleanupTypeInfoArrayCache</title>
<polygon fill="white" stroke="none" points="-4,4 -4,-83 424,-83 424,4 -4,4"/>
<!-- Node1 -->
<g id="node1" class="node"><title>Node1</title>
<polygon fill="#bfbfbf" stroke="black" points="0.5,-29.5 0.5,-48.5 143.5,-48.5 143.5,-29.5 0.5,-29.5"/>
<text text-anchor="middle" x="72" y="-36.5" font-family="Helvetica,sans-Serif" font-size="10.00">CleanupTypeInfoArrayCache</text>
</g>
<!-- Node2 -->
<g id="node2" class="node"><title>Node2</title>
<g id="a_node2"><a xlink:href="scriptarray_8cpp.html#af6d3517f646ed2ac73e8460382c09726" target="_top" xlink:title="RegisterScriptArray\l_Native">
<polygon fill="white" stroke="black" points="180,-49 180,-79 282,-79 282,-49 180,-49"/>
<text text-anchor="start" x="188" y="-67" font-family="Helvetica,sans-Serif" font-size="10.00">RegisterScriptArray</text>
<text text-anchor="middle" x="231" y="-56" font-family="Helvetica,sans-Serif" font-size="10.00">_Native</text>
</a>
</g>
</g>
<!-- Node1&#45;&gt;Node2 -->
<g id="edge1" class="edge"><title>Node1&#45;&gt;Node2</title>
<path fill="none" stroke="midnightblue" d="M142.732,-50.1039C155.224,-52.093 168.016,-54.1299 179.821,-56.0097"/>
<polygon fill="midnightblue" stroke="midnightblue" points="143.229,-46.6389 132.803,-48.5227 142.128,-53.5518 143.229,-46.6389"/>
</g>
<!-- Node4 -->
<g id="node4" class="node"><title>Node4</title>
<g id="a_node4"><a xlink:href="scriptarray_8cpp.html#a3f10cc670a493480c2a665a984710480" target="_top" xlink:title="RegisterScriptArray\l_Generic">
<polygon fill="white" stroke="black" points="180,-0 180,-30 282,-30 282,-0 180,-0"/>
<text text-anchor="start" x="188" y="-18" font-family="Helvetica,sans-Serif" font-size="10.00">RegisterScriptArray</text>
<text text-anchor="middle" x="231" y="-7" font-family="Helvetica,sans-Serif" font-size="10.00">_Generic</text>
</a>
</g>
</g>
<!-- Node1&#45;&gt;Node4 -->
<g id="edge3" class="edge"><title>Node1&#45;&gt;Node4</title>
<path fill="none" stroke="midnightblue" d="M145.594,-27.9029C157.157,-26.1352 168.892,-24.3413 179.788,-22.6757"/>
<polygon fill="midnightblue" stroke="midnightblue" points="144.858,-24.4746 135.502,-29.4456 145.916,-31.3942 144.858,-24.4746"/>
</g>
<!-- Node3 -->
<g id="node3" class="node"><title>Node3</title>
<g id="a_node3"><a xlink:href="scriptarray_8h.html#ac97e4fe44bf13c876d66eadb481369da" target="_top" xlink:title="RegisterScriptArray">
<polygon fill="white" stroke="black" points="318,-29.5 318,-48.5 420,-48.5 420,-29.5 318,-29.5"/>
<text text-anchor="middle" x="369" y="-36.5" font-family="Helvetica,sans-Serif" font-size="10.00">RegisterScriptArray</text>
</a>
</g>
</g>
<!-- Node2&#45;&gt;Node3 -->
<g id="edge2" class="edge"><title>Node2&#45;&gt;Node3</title>
<path fill="none" stroke="midnightblue" d="M292.231,-52.9282C300.823,-51.3487 309.583,-49.7385 317.952,-48.2001"/>
<polygon fill="midnightblue" stroke="midnightblue" points="291.457,-49.5116 282.255,-54.762 292.723,-56.3963 291.457,-49.5116"/>
</g>
<!-- Node4&#45;&gt;Node3 -->
<g id="edge4" class="edge"><title>Node4&#45;&gt;Node3</title>
<path fill="none" stroke="midnightblue" d="M292.231,-25.629C300.823,-27.1452 309.583,-28.691 317.952,-30.1679"/>
<polygon fill="midnightblue" stroke="midnightblue" points="292.711,-22.1597 282.255,-23.8685 291.495,-29.0532 292.711,-22.1597"/>
</g>
</g>
</svg>
