<?xml version="1.0" encoding="UTF-8" standalone="no"?>
<!DOCTYPE svg PUBLIC "-//W3C//DTD SVG 1.1//EN"
 "http://www.w3.org/Graphics/SVG/1.1/DTD/svg11.dtd">
<!-- Generated by graphviz version 2.36.0 (20140111.2315)
 -->
<!-- Title: RegisterScriptDictionary_Native Pages: 1 -->
<!--zoomable 361 -->
<svg id="main" version="1.1" xmlns="http://www.w3.org/2000/svg" xmlns:xlink="http://www.w3.org/1999/xlink" xml:space="preserve" onload="init(evt)">
<style type="text/css"><![CDATA[
.edge:hover path { stroke: red; }
.edge:hover polygon { stroke: red; fill: red; }
]]></style>
<script type="text/javascript"><![CDATA[
var edges = document.getElementsByTagName('g');
if (edges && edges.length) {
  for (var i=0;i<edges.length;i++) {
    if (edges[i].id.substr(0,4)=='edge') {
      edges[i].setAttribute('class','edge');
    }
  }
}
]]></script>
        <defs>
                <circle id="rim" cx="0" cy="0" r="7"/>
                <circle id="rim2" cx="0" cy="0" r="3.5"/>
                <g id="zoomPlus">
                        <use xlink:href="#rim" fill="#404040">
                                <set attributeName="fill" to="#808080" begin="zoomplus.mouseover" end="zoomplus.mouseout"/>
                        </use>
                        <path d="M-4,0h8M0,-4v8" fill="none" stroke="white" stroke-width="1.5" pointer-events="none"/>
                </g>
                <g id="zoomMin">
                        <use xlink:href="#rim" fill="#404040">
                                <set attributeName="fill" to="#808080" begin="zoomminus.mouseover" end="zoomminus.mouseout"/>
                        </use>
                        <path d="M-4,0h8" fill="none" stroke="white" stroke-width="1.5" pointer-events="none"/>
                </g>
                <g id="dirArrow">
                        <path fill="none" stroke="white" stroke-width="1.5" d="M0,-3.0v7 M-2.5,-0.5L0,-3.0L2.5,-0.5"/>
                </g>
               <g id="resetDef">
                       <use xlink:href="#rim2" fill="#404040">
                               <set attributeName="fill" to="#808080" begin="reset.mouseover" end="reset.mouseout"/>
                       </use>
               </g>
        </defs>

<script type="text/javascript">
var viewWidth = 660;
var viewHeight = 361;
var sectionId = 'dynsection-40';
</script>
<script xlink:href="svgpan.js"/>
<svg id="graph" class="graph">
<g id="viewport">
<title>RegisterScriptDictionary_Native</title>
<polygon fill="white" stroke="none" points="-4,4 -4,-357 656,-357 656,4 -4,4"/>
<!-- Node1 -->
<g id="node1" class="node"><title>Node1</title>
<polygon fill="#bfbfbf" stroke="black" points="0.5,-170 0.5,-200 123.5,-200 123.5,-170 0.5,-170"/>
<text text-anchor="start" x="8.5" y="-188" font-family="Helvetica,sans-Serif" font-size="10.00">RegisterScriptDictionary</text>
<text text-anchor="middle" x="62" y="-177" font-family="Helvetica,sans-Serif" font-size="10.00">_Native</text>
</g>
<!-- Node2 -->
<g id="node2" class="node"><title>Node2</title>
<g id="a_node2"><a xlink:href="scriptdictionary_8cpp.html#a81aae34345ef962efdf2718aa2c40381" target="_top" xlink:title="CScriptDictValue_Construct">
<polygon fill="white" stroke="black" points="171,-327.5 171,-346.5 311,-346.5 311,-327.5 171,-327.5"/>
<text text-anchor="middle" x="241" y="-334.5" font-family="Helvetica,sans-Serif" font-size="10.00">CScriptDictValue_Construct</text>
</a>
</g>
</g>
<!-- Node1&#45;&gt;Node2 -->
<g id="edge1" class="edge"><title>Node1&#45;&gt;Node2</title>
<path fill="none" stroke="midnightblue" d="M69.5896,-200.084C82.5931,-227.994 114.311,-287.612 160,-318 163.094,-320.058 166.386,-321.894 169.804,-323.531"/>
<polygon fill="midnightblue" stroke="midnightblue" points="168.519,-326.788 179.095,-327.42 171.222,-320.331 168.519,-326.788"/>
</g>
<!-- Node3 -->
<g id="node3" class="node"><title>Node3</title>
<g id="a_node3"><a xlink:href="scriptdictionary_8cpp.html#a45ef46c66b7517fdba2c61f683c51326" target="_top" xlink:title="CScriptDictValue_Destruct">
<polygon fill="white" stroke="black" points="173.5,-289.5 173.5,-308.5 308.5,-308.5 308.5,-289.5 173.5,-289.5"/>
<text text-anchor="middle" x="241" y="-296.5" font-family="Helvetica,sans-Serif" font-size="10.00">CScriptDictValue_Destruct</text>
</a>
</g>
</g>
<!-- Node1&#45;&gt;Node3 -->
<g id="edge2" class="edge"><title>Node1&#45;&gt;Node3</title>
<path fill="none" stroke="midnightblue" d="M74.0204,-200.082C90.3513,-221.294 123.055,-259.621 160,-280 164.156,-282.293 168.582,-284.31 173.138,-286.085"/>
<polygon fill="midnightblue" stroke="midnightblue" points="172.032,-289.406 182.627,-289.4 174.34,-282.798 172.032,-289.406"/>
</g>
<!-- Node6 -->
<g id="node6" class="node"><title>Node6</title>
<g id="a_node6"><a xlink:href="scriptdictionary_8cpp.html#a90584122e96a1423e7d61890a18c5c3b" target="_top" xlink:title="CScriptDictValue_opAssign">
<polygon fill="white" stroke="black" points="172,-251.5 172,-270.5 310,-270.5 310,-251.5 172,-251.5"/>
<text text-anchor="middle" x="241" y="-258.5" font-family="Helvetica,sans-Serif" font-size="10.00">CScriptDictValue_opAssign</text>
</a>
</g>
</g>
<!-- Node1&#45;&gt;Node6 -->
<g id="edge5" class="edge"><title>Node1&#45;&gt;Node6</title>
<path fill="none" stroke="midnightblue" d="M87.8512,-200.118C107.057,-211.354 134.57,-226.494 160,-237 170.363,-241.281 181.765,-245.166 192.633,-248.503"/>
<polygon fill="midnightblue" stroke="midnightblue" points="191.835,-251.917 202.418,-251.409 193.828,-245.207 191.835,-251.917"/>
</g>
<!-- Node8 -->
<g id="node8" class="node"><title>Node8</title>
<g id="a_node8"><a xlink:href="scriptdictionary_8cpp.html#a8ee0587817c32daec77c68547a362eed" target="_top" xlink:title="CScriptDictValue_opCast">
<polygon fill="white" stroke="black" points="365.5,-175.5 365.5,-194.5 494.5,-194.5 494.5,-175.5 365.5,-175.5"/>
<text text-anchor="middle" x="430" y="-182.5" font-family="Helvetica,sans-Serif" font-size="10.00">CScriptDictValue_opCast</text>
</a>
</g>
</g>
<!-- Node1&#45;&gt;Node8 -->
<g id="edge7" class="edge"><title>Node1&#45;&gt;Node8</title>
<path fill="none" stroke="midnightblue" d="M123.533,-198.726C135.555,-200.922 148.129,-202.848 160,-204 231.664,-210.953 250.278,-210.318 322,-204 339.432,-202.464 358.277,-199.547 375.225,-196.452"/>
<polygon fill="midnightblue" stroke="midnightblue" points="376.324,-199.806 385.502,-194.512 375.026,-192.927 376.324,-199.806"/>
</g>
<!-- Node10 -->
<g id="node10" class="node"><title>Node10</title>
<g id="a_node10"><a xlink:href="scriptdictionary_8cpp.html#a3910fccc4dc26fca723645de69e3e0f9" target="_top" xlink:title="CScriptDictValue_opConvInt">
<polygon fill="white" stroke="black" points="169.5,-175.5 169.5,-194.5 312.5,-194.5 312.5,-175.5 169.5,-175.5"/>
<text text-anchor="middle" x="241" y="-182.5" font-family="Helvetica,sans-Serif" font-size="10.00">CScriptDictValue_opConvInt</text>
</a>
</g>
</g>
<!-- Node1&#45;&gt;Node10 -->
<g id="edge9" class="edge"><title>Node1&#45;&gt;Node10</title>
<path fill="none" stroke="midnightblue" d="M123.913,-185C135.205,-185 147.163,-185 158.944,-185"/>
<polygon fill="midnightblue" stroke="midnightblue" points="159.23,-188.5 169.23,-185 159.23,-181.5 159.23,-188.5"/>
</g>
<!-- Node11 -->
<g id="node11" class="node"><title>Node11</title>
<g id="a_node11"><a xlink:href="scriptdictionary_8cpp.html#aab890491cac45d4e0a8c82b701f8b36f" target="_top" xlink:title="CScriptDictValue_opConvDouble">
<polygon fill="white" stroke="black" points="160,-137.5 160,-156.5 322,-156.5 322,-137.5 160,-137.5"/>
<text text-anchor="middle" x="241" y="-144.5" font-family="Helvetica,sans-Serif" font-size="10.00">CScriptDictValue_opConvDouble</text>
</a>
</g>
</g>
<!-- Node1&#45;&gt;Node11 -->
<g id="edge11" class="edge"><title>Node1&#45;&gt;Node11</title>
<path fill="none" stroke="midnightblue" d="M123.913,-171.923C144.01,-167.608 166.216,-162.841 185.778,-158.641"/>
<polygon fill="midnightblue" stroke="midnightblue" points="186.7,-162.023 195.742,-156.502 185.23,-155.179 186.7,-162.023"/>
</g>
<!-- Node12 -->
<g id="node12" class="node"><title>Node12</title>
<g id="a_node12"><a xlink:href="scriptdictionary_8cpp.html#a1c9811cdaf34449862b9ef270ca343e6" target="_top" xlink:title="ScriptDictionaryFactory\l_Generic">
<polygon fill="white" stroke="black" points="181.5,-88 181.5,-118 300.5,-118 300.5,-88 181.5,-88"/>
<text text-anchor="start" x="189.5" y="-106" font-family="Helvetica,sans-Serif" font-size="10.00">ScriptDictionaryFactory</text>
<text text-anchor="middle" x="241" y="-95" font-family="Helvetica,sans-Serif" font-size="10.00">_Generic</text>
</a>
</g>
</g>
<!-- Node1&#45;&gt;Node12 -->
<g id="edge13" class="edge"><title>Node1&#45;&gt;Node12</title>
<path fill="none" stroke="midnightblue" d="M85.3414,-169.88C104.514,-157.398 133.213,-139.869 160,-128 165.284,-125.659 170.854,-123.442 176.495,-121.368"/>
<polygon fill="midnightblue" stroke="midnightblue" points="177.746,-124.638 186.015,-118.015 175.42,-118.036 177.746,-124.638"/>
</g>
<!-- Node14 -->
<g id="node14" class="node"><title>Node14</title>
<g id="a_node14"><a xlink:href="scriptdictionary_8cpp.html#a2fee48e56c541a4c9daaaa9df568fee1" target="_top" xlink:title="ScriptDictionaryListFactory\l_Generic">
<polygon fill="white" stroke="black" points="173.5,-39 173.5,-69 308.5,-69 308.5,-39 173.5,-39"/>
<text text-anchor="start" x="181.5" y="-57" font-family="Helvetica,sans-Serif" font-size="10.00">ScriptDictionaryListFactory</text>
<text text-anchor="middle" x="241" y="-46" font-family="Helvetica,sans-Serif" font-size="10.00">_Generic</text>
</a>
</g>
</g>
<!-- Node1&#45;&gt;Node14 -->
<g id="edge15" class="edge"><title>Node1&#45;&gt;Node14</title>
<path fill="none" stroke="midnightblue" d="M72.698,-169.834C88.3022,-146.642 121.195,-102.486 160,-78 162.614,-76.3508 165.346,-74.8098 168.161,-73.3705"/>
<polygon fill="midnightblue" stroke="midnightblue" points="169.769,-76.4832 177.379,-69.1118 166.833,-70.1287 169.769,-76.4832"/>
</g>
<!-- Node15 -->
<g id="node15" class="node"><title>Node15</title>
<g id="a_node15"><a xlink:href="struct_s_dictionary_cache.html#aed0745fb0d5721fbc369398db76cf759" target="_top" xlink:title="SDictionaryCache::Setup">
<polygon fill="white" stroke="black" points="177,-0.5 177,-19.5 305,-19.5 305,-0.5 177,-0.5"/>
<text text-anchor="middle" x="241" y="-7.5" font-family="Helvetica,sans-Serif" font-size="10.00">SDictionaryCache::Setup</text>
</a>
</g>
</g>
<!-- Node1&#45;&gt;Node15 -->
<g id="edge17" class="edge"><title>Node1&#45;&gt;Node15</title>
<path fill="none" stroke="midnightblue" d="M67.9562,-169.809C79.054,-138.297 109.007,-65.7011 160,-29 162.665,-27.082 165.497,-25.3553 168.444,-23.801"/>
<polygon fill="midnightblue" stroke="midnightblue" points="169.933,-26.9689 177.58,-19.6363 167.029,-20.5995 169.933,-26.9689"/>
</g>
<!-- Node4 -->
<g id="node4" class="node"><title>Node4</title>
<g id="a_node4"><a xlink:href="class_c_script_dict_value.html#aa0097577af2cd01456fc183d4d20119e" target="_top" xlink:title="CScriptDictValue::FreeValue">
<polygon fill="white" stroke="black" points="358.5,-333.5 358.5,-352.5 501.5,-352.5 501.5,-333.5 358.5,-333.5"/>
<text text-anchor="middle" x="430" y="-340.5" font-family="Helvetica,sans-Serif" font-size="10.00">CScriptDictValue::FreeValue</text>
</a>
</g>
</g>
<!-- Node3&#45;&gt;Node4 -->
<g id="edge3" class="edge"><title>Node3&#45;&gt;Node4</title>
<path fill="none" stroke="midnightblue" d="M282.576,-308.547C310.757,-315.178 348.501,-324.059 378.61,-331.143"/>
<polygon fill="midnightblue" stroke="midnightblue" points="377.967,-334.588 388.503,-333.471 379.57,-327.774 377.967,-334.588"/>
</g>
<!-- Node5 -->
<g id="node5" class="node"><title>Node5</title>
<g id="a_node5"><a xlink:href="class_c_script_dict_value.html#a60ad93d89e502577a1d941f528ea3d47" target="_top" xlink:title="CScriptDictValue::\l~CScriptDictValue">
<polygon fill="white" stroke="black" points="381,-284 381,-314 479,-314 479,-284 381,-284"/>
<text text-anchor="start" x="389" y="-302" font-family="Helvetica,sans-Serif" font-size="10.00">CScriptDictValue::</text>
<text text-anchor="middle" x="430" y="-291" font-family="Helvetica,sans-Serif" font-size="10.00">~CScriptDictValue</text>
</a>
</g>
</g>
<!-- Node3&#45;&gt;Node5 -->
<g id="edge4" class="edge"><title>Node3&#45;&gt;Node5</title>
<path fill="none" stroke="midnightblue" d="M308.719,-299C328.995,-299 351.106,-299 370.776,-299"/>
<polygon fill="midnightblue" stroke="midnightblue" points="370.817,-302.5 380.817,-299 370.817,-295.5 370.817,-302.5"/>
</g>
<!-- Node7 -->
<g id="node7" class="node"><title>Node7</title>
<g id="a_node7"><a xlink:href="class_c_script_dict_value.html#ae04fbec1567208c893e8dbb8741300fe" target="_top" xlink:title="CScriptDictValue::Set">
<polygon fill="white" stroke="black" points="373.5,-245.5 373.5,-264.5 486.5,-264.5 486.5,-245.5 373.5,-245.5"/>
<text text-anchor="middle" x="430" y="-252.5" font-family="Helvetica,sans-Serif" font-size="10.00">CScriptDictValue::Set</text>
</a>
</g>
</g>
<!-- Node6&#45;&gt;Node7 -->
<g id="edge6" class="edge"><title>Node6&#45;&gt;Node7</title>
<path fill="none" stroke="midnightblue" d="M310.04,-258.817C327.25,-258.265 345.705,-257.673 362.821,-257.123"/>
<polygon fill="midnightblue" stroke="midnightblue" points="363.4,-260.607 373.283,-256.788 363.175,-253.61 363.4,-260.607"/>
</g>
<!-- Node9 -->
<g id="node9" class="node"><title>Node9</title>
<g id="a_node9"><a xlink:href="class_c_script_dict_value.html#a1810a32ba20a4ec4bba4e0d8fb6d5119" target="_top" xlink:title="CScriptDictValue::Get">
<polygon fill="white" stroke="black" points="538,-175.5 538,-194.5 652,-194.5 652,-175.5 538,-175.5"/>
<text text-anchor="middle" x="595" y="-182.5" font-family="Helvetica,sans-Serif" font-size="10.00">CScriptDictValue::Get</text>
</a>
</g>
</g>
<!-- Node8&#45;&gt;Node9 -->
<g id="edge8" class="edge"><title>Node8&#45;&gt;Node9</title>
<path fill="none" stroke="midnightblue" d="M494.954,-185C505.701,-185 516.875,-185 527.68,-185"/>
<polygon fill="midnightblue" stroke="midnightblue" points="527.9,-188.5 537.9,-185 527.9,-181.5 527.9,-188.5"/>
</g>
<!-- Node10&#45;&gt;Node8 -->
<g id="edge10" class="edge"><title>Node10&#45;&gt;Node8</title>
<path fill="none" stroke="midnightblue" d="M312.697,-185C326.596,-185 341.211,-185 355.208,-185"/>
<polygon fill="midnightblue" stroke="midnightblue" points="355.272,-188.5 365.272,-185 355.272,-181.5 355.272,-188.5"/>
</g>
<!-- Node11&#45;&gt;Node8 -->
<g id="edge12" class="edge"><title>Node11&#45;&gt;Node8</title>
<path fill="none" stroke="midnightblue" d="M289.188,-156.589C314.42,-161.716 345.673,-168.067 372.227,-173.463"/>
<polygon fill="midnightblue" stroke="midnightblue" points="371.655,-176.918 382.151,-175.48 373.049,-170.059 371.655,-176.918"/>
</g>
<!-- Node13 -->
<g id="node13" class="node"><title>Node13</title>
<g id="a_node13"><a xlink:href="class_c_script_dictionary.html#a187a2ddc0cfccf43a3cbfaee3063ace5" target="_top" xlink:title="CScriptDictionary::\lCreate">
<polygon fill="white" stroke="black" points="380,-63 380,-93 480,-93 480,-63 380,-63"/>
<text text-anchor="start" x="388" y="-81" font-family="Helvetica,sans-Serif" font-size="10.00">CScriptDictionary::</text>
<text text-anchor="middle" x="430" y="-70" font-family="Helvetica,sans-Serif" font-size="10.00">Create</text>
</a>
</g>
</g>
<!-- Node12&#45;&gt;Node13 -->
<g id="edge14" class="edge"><title>Node12&#45;&gt;Node13</title>
<path fill="none" stroke="midnightblue" d="M300.655,-95.1584C322.762,-92.203 347.901,-88.8421 370.036,-85.8829"/>
<polygon fill="midnightblue" stroke="midnightblue" points="370.525,-89.3487 379.973,-84.5544 369.597,-82.4105 370.525,-89.3487"/>
</g>
<!-- Node14&#45;&gt;Node13 -->
<g id="edge16" class="edge"><title>Node14&#45;&gt;Node13</title>
<path fill="none" stroke="midnightblue" d="M308.719,-62.5629C328.727,-65.1307 350.522,-67.9279 369.995,-70.4271"/>
<polygon fill="midnightblue" stroke="midnightblue" points="369.58,-73.9025 379.944,-71.7041 370.471,-66.9595 369.58,-73.9025"/>
</g>
<!-- Node16 -->
<g id="node16" class="node"><title>Node16</title>
<g id="a_node16"><a xlink:href="struct_s_dictionary_cache.html#aa7d5e6712a4553d5eb45ede6695633e1" target="_top" xlink:title="SDictionaryCache::Cleanup">
<polygon fill="white" stroke="black" points="361,-0.5 361,-19.5 499,-19.5 499,-0.5 361,-0.5"/>
<text text-anchor="middle" x="430" y="-7.5" font-family="Helvetica,sans-Serif" font-size="10.00">SDictionaryCache::Cleanup</text>
</a>
</g>
</g>
<!-- Node15&#45;&gt;Node16 -->
<g id="edge18" class="edge"><title>Node15&#45;&gt;Node16</title>
<path fill="none" stroke="midnightblue" d="M305.049,-10C319.608,-10 335.274,-10 350.404,-10"/>
<polygon fill="midnightblue" stroke="midnightblue" points="350.774,-13.5001 360.774,-10 350.774,-6.5001 350.774,-13.5001"/>
</g>
</g>
</svg>
        <g id="navigator" transform="translate(0 0)" fill="#404254">
                <rect fill="#f2f5e9" fill-opacity="0.5" stroke="#606060" stroke-width=".5" x="0" y="0" width="60" height="60"/>
                <use id="zoomplus" xlink:href="#zoomPlus" x="17" y="9" onmousedown="handleZoom(evt,'in')"/>
                <use id="zoomminus" xlink:href="#zoomMin" x="42" y="9" onmousedown="handleZoom(evt,'out')"/>
                <use id="reset" xlink:href="#resetDef" x="30" y="36" onmousedown="handleReset()"/>
                <g id="arrowUp" xlink:href="#dirArrow" transform="translate(30 24)" onmousedown="handlePan(0,-1)">
                  <use xlink:href="#rim" fill="#404040">
                        <set attributeName="fill" to="#808080" begin="arrowUp.mouseover" end="arrowUp.mouseout"/>
                  </use>
                  <path fill="none" stroke="white" stroke-width="1.5" d="M0,-3.0v7 M-2.5,-0.5L0,-3.0L2.5,-0.5"/>
                </g>
                <g id="arrowRight" xlink:href="#dirArrow" transform="rotate(90) translate(36 -43)" onmousedown="handlePan(1,0)">
                  <use xlink:href="#rim" fill="#404040">
                        <set attributeName="fill" to="#808080" begin="arrowRight.mouseover" end="arrowRight.mouseout"/>
                  </use>
                  <path fill="none" stroke="white" stroke-width="1.5" d="M0,-3.0v7 M-2.5,-0.5L0,-3.0L2.5,-0.5"/>
                </g>
                <g id="arrowDown" xlink:href="#dirArrow" transform="rotate(180) translate(-30 -48)" onmousedown="handlePan(0,1)">
                  <use xlink:href="#rim" fill="#404040">
                        <set attributeName="fill" to="#808080" begin="arrowDown.mouseover" end="arrowDown.mouseout"/>
                  </use>
                  <path fill="none" stroke="white" stroke-width="1.5" d="M0,-3.0v7 M-2.5,-0.5L0,-3.0L2.5,-0.5"/>
                </g>
                <g id="arrowLeft" xlink:href="#dirArrow" transform="rotate(270) translate(-36 17)" onmousedown="handlePan(-1,0)">
                  <use xlink:href="#rim" fill="#404040">
                        <set attributeName="fill" to="#808080" begin="arrowLeft.mouseover" end="arrowLeft.mouseout"/>
                  </use>
                  <path fill="none" stroke="white" stroke-width="1.5" d="M0,-3.0v7 M-2.5,-0.5L0,-3.0L2.5,-0.5"/>
                </g>
        </g>
        <svg viewBox="0 0 15 15" width="100%" height="30px" preserveAspectRatio="xMaxYMin meet">
         <g id="arrow_out" transform="scale(0.3 0.3)">
          <a xlink:href="scriptdictionary_8cpp_a7c41a379d66a350e692e11acfea995cb_cgraph_org.svg" target="_base">
           <rect id="button" ry="5" rx="5" y="6" x="6" height="38" width="38"
                fill="#f2f5e9" fill-opacity="0.5" stroke="#606060" stroke-width="1.0"/>
           <path id="arrow"
             d="M 11.500037,31.436501 C 11.940474,20.09759 22.043105,11.32322 32.158766,21.979434 L 37.068811,17.246167 C 37.068811,17.246167 37.088388,32 37.088388,32 L 22.160133,31.978069 C 22.160133,31.978069 26.997745,27.140456 26.997745,27.140456 C 18.528582,18.264221 13.291696,25.230495 11.500037,31.436501 z"
             style="fill:#404040;"/>
          </a>
         </g>
        </svg>
</svg>
