<?xml version="1.0" encoding="UTF-8" standalone="no"?>
<!DOCTYPE svg PUBLIC "-//W3C//DTD SVG 1.1//EN"
 "http://www.w3.org/Graphics/SVG/1.1/DTD/svg11.dtd">
<!-- Generated by graphviz version 2.36.0 (20140111.2315)
 -->
<!-- Title: StringSplit Pages: 1 -->
<svg width="358pt" height="47pt"
 viewBox="0.00 0.00 358.00 47.00" xmlns="http://www.w3.org/2000/svg" xmlns:xlink="http://www.w3.org/1999/xlink">
<g id="graph0" class="graph" transform="scale(1 1) rotate(0) translate(4 43)">
<title>StringSplit</title>
<polygon fill="white" stroke="none" points="-4,4 -4,-43 354,-43 354,4 -4,4"/>
<!-- Node1 -->
<g id="node1" class="node"><title>Node1</title>
<polygon fill="#bfbfbf" stroke="black" points="0,-0.5 0,-19.5 62,-19.5 62,-0.5 0,-0.5"/>
<text text-anchor="middle" x="31" y="-7.5" font-family="Helvetica,sans-Serif" font-size="10.00">StringSplit</text>
</g>
<!-- Node2 -->
<g id="node2" class="node"><title>Node2</title>
<g id="a_node2"><a xlink:href="scriptstdstring__utils_8cpp.html#ac09145f70a4d9aaa659f5d5792252e80" target="_top" xlink:title="StringSplit_Generic">
<polygon fill="white" stroke="black" points="98.5,-19.5 98.5,-38.5 199.5,-38.5 199.5,-19.5 98.5,-19.5"/>
<text text-anchor="middle" x="149" y="-26.5" font-family="Helvetica,sans-Serif" font-size="10.00">StringSplit_Generic</text>
</a>
</g>
</g>
<!-- Node1&#45;&gt;Node2 -->
<g id="edge1" class="edge"><title>Node1&#45;&gt;Node2</title>
<path fill="none" stroke="midnightblue" d="M72.1069,-16.5692C80.5204,-17.9473 89.4908,-19.4166 98.2087,-20.8445"/>
<polygon fill="midnightblue" stroke="midnightblue" points="72.6091,-13.1049 62.1748,-14.9424 71.4776,-20.0129 72.6091,-13.1049"/>
</g>
<!-- Node3 -->
<g id="node3" class="node"><title>Node3</title>
<g id="a_node3"><a xlink:href="scriptstdstring__utils_8cpp.html#a9eb22950e2421aeb4bc46bc742bcf625" target="_top" xlink:title="RegisterStdStringUtils">
<polygon fill="white" stroke="black" points="236,-0.5 236,-19.5 350,-19.5 350,-0.5 236,-0.5"/>
<text text-anchor="middle" x="293" y="-7.5" font-family="Helvetica,sans-Serif" font-size="10.00">RegisterStdStringUtils</text>
</a>
</g>
</g>
<!-- Node1&#45;&gt;Node3 -->
<g id="edge3" class="edge"><title>Node1&#45;&gt;Node3</title>
<path fill="none" stroke="midnightblue" d="M72.3565,-10C116.199,-10 186.553,-10 235.791,-10"/>
<polygon fill="midnightblue" stroke="midnightblue" points="72.0793,-6.5001 62.0793,-10 72.0793,-13.5001 72.0793,-6.5001"/>
</g>
<!-- Node2&#45;&gt;Node3 -->
<g id="edge2" class="edge"><title>Node2&#45;&gt;Node3</title>
<path fill="none" stroke="midnightblue" d="M209.687,-21.0138C218.341,-19.8558 227.225,-18.667 235.808,-17.5187"/>
<polygon fill="midnightblue" stroke="midnightblue" points="209.112,-17.5593 199.665,-22.3547 210.041,-24.4975 209.112,-17.5593"/>
</g>
</g>
</svg>
