<?xml version="1.0" encoding="UTF-8" standalone="no"?>
<!DOCTYPE svg PUBLIC "-//W3C//DTD SVG 1.1//EN"
 "http://www.w3.org/Graphics/SVG/1.1/DTD/svg11.dtd">
<!-- Generated by graphviz version 2.36.0 (20140111.2315)
 -->
<!-- Title: RegisterScriptAny_Native Pages: 1 -->
<svg width="312pt" height="104pt"
 viewBox="0.00 0.00 312.00 104.00" xmlns="http://www.w3.org/2000/svg" xmlns:xlink="http://www.w3.org/1999/xlink">
<g id="graph0" class="graph" transform="scale(1 1) rotate(0) translate(4 100)">
<title>RegisterScriptAny_Native</title>
<polygon fill="white" stroke="none" points="-4,4 -4,-100 308,-100 308,4 -4,4"/>
<!-- Node1 -->
<g id="node1" class="node"><title>Node1</title>
<polygon fill="#bfbfbf" stroke="black" points="0,-38.5 0,-57.5 130,-57.5 130,-38.5 0,-38.5"/>
<text text-anchor="middle" x="65" y="-45.5" font-family="Helvetica,sans-Serif" font-size="10.00">RegisterScriptAny_Native</text>
</g>
<!-- Node2 -->
<g id="node2" class="node"><title>Node2</title>
<g id="a_node2"><a xlink:href="scriptany_8cpp.html#afec1820a7023e64288194fcb8f7fa807" target="_top" xlink:title="ScriptAnyFactory_Generic">
<polygon fill="white" stroke="black" points="169.5,-76.5 169.5,-95.5 300.5,-95.5 300.5,-76.5 169.5,-76.5"/>
<text text-anchor="middle" x="235" y="-83.5" font-family="Helvetica,sans-Serif" font-size="10.00">ScriptAnyFactory_Generic</text>
</a>
</g>
</g>
<!-- Node1&#45;&gt;Node2 -->
<g id="edge1" class="edge"><title>Node1&#45;&gt;Node2</title>
<path fill="none" stroke="midnightblue" d="M108.393,-57.589C130.763,-62.6487 158.398,-68.8996 182.047,-74.2488"/>
<polygon fill="midnightblue" stroke="midnightblue" points="181.386,-77.6875 191.911,-76.4799 182.93,-70.8599 181.386,-77.6875"/>
</g>
<!-- Node3 -->
<g id="node3" class="node"><title>Node3</title>
<g id="a_node3"><a xlink:href="scriptany_8cpp.html#a1e6176edbf3622cb195186066a68b738" target="_top" xlink:title="ScriptAnyFactory2_Generic">
<polygon fill="white" stroke="black" points="166.5,-38.5 166.5,-57.5 303.5,-57.5 303.5,-38.5 166.5,-38.5"/>
<text text-anchor="middle" x="235" y="-45.5" font-family="Helvetica,sans-Serif" font-size="10.00">ScriptAnyFactory2_Generic</text>
</a>
</g>
</g>
<!-- Node1&#45;&gt;Node3 -->
<g id="edge2" class="edge"><title>Node1&#45;&gt;Node3</title>
<path fill="none" stroke="midnightblue" d="M130.473,-48C138.919,-48 147.645,-48 156.281,-48"/>
<polygon fill="midnightblue" stroke="midnightblue" points="156.356,-51.5001 166.356,-48 156.356,-44.5001 156.356,-51.5001"/>
</g>
<!-- Node4 -->
<g id="node4" class="node"><title>Node4</title>
<g id="a_node4"><a xlink:href="scriptany_8cpp.html#a1d38fb6edfd87b9c037ebd31e51449ce" target="_top" xlink:title="ScriptAnyAssignment">
<polygon fill="white" stroke="black" points="179.5,-0.5 179.5,-19.5 290.5,-19.5 290.5,-0.5 179.5,-0.5"/>
<text text-anchor="middle" x="235" y="-7.5" font-family="Helvetica,sans-Serif" font-size="10.00">ScriptAnyAssignment</text>
</a>
</g>
</g>
<!-- Node1&#45;&gt;Node4 -->
<g id="edge3" class="edge"><title>Node1&#45;&gt;Node4</title>
<path fill="none" stroke="midnightblue" d="M108.393,-38.411C130.763,-33.3513 158.398,-27.1004 182.047,-21.7512"/>
<polygon fill="midnightblue" stroke="midnightblue" points="182.93,-25.1401 191.911,-19.5201 181.386,-18.3125 182.93,-25.1401"/>
</g>
</g>
</svg>
