<?xml version="1.0" encoding="UTF-8" standalone="no"?>
<!DOCTYPE svg PUBLIC "-//W3C//DTD SVG 1.1//EN"
 "http://www.w3.org/Graphics/SVG/1.1/DTD/svg11.dtd">
<!-- Generated by graphviz version 2.36.0 (20140111.2315)
 -->
<!-- Title: ScriptDictionaryListFactory_Generic Pages: 1 -->
<svg width="464pt" height="87pt"
 viewBox="0.00 0.00 464.00 87.00" xmlns="http://www.w3.org/2000/svg" xmlns:xlink="http://www.w3.org/1999/xlink">
<g id="graph0" class="graph" transform="scale(1 1) rotate(0) translate(4 83)">
<title>ScriptDictionaryListFactory_Generic</title>
<polygon fill="white" stroke="none" points="-4,4 -4,-83 460,-83 460,4 -4,4"/>
<!-- Node1 -->
<g id="node1" class="node"><title>Node1</title>
<polygon fill="#bfbfbf" stroke="black" points="0.5,-24 0.5,-54 135.5,-54 135.5,-24 0.5,-24"/>
<text text-anchor="start" x="8.5" y="-42" font-family="Helvetica,sans-Serif" font-size="10.00">ScriptDictionaryListFactory</text>
<text text-anchor="middle" x="68" y="-31" font-family="Helvetica,sans-Serif" font-size="10.00">_Generic</text>
</g>
<!-- Node2 -->
<g id="node2" class="node"><title>Node2</title>
<g id="a_node2"><a xlink:href="scriptdictionary_8h.html#a7c41a379d66a350e692e11acfea995cb" target="_top" xlink:title="RegisterScriptDictionary\l_Native">
<polygon fill="white" stroke="black" points="172.5,-49 172.5,-79 295.5,-79 295.5,-49 172.5,-49"/>
<text text-anchor="start" x="180.5" y="-67" font-family="Helvetica,sans-Serif" font-size="10.00">RegisterScriptDictionary</text>
<text text-anchor="middle" x="234" y="-56" font-family="Helvetica,sans-Serif" font-size="10.00">_Native</text>
</a>
</g>
</g>
<!-- Node1&#45;&gt;Node2 -->
<g id="edge1" class="edge"><title>Node1&#45;&gt;Node2</title>
<path fill="none" stroke="midnightblue" d="M145.753,-50.7001C154.703,-52.0645 163.738,-53.4418 172.428,-54.7664"/>
<polygon fill="midnightblue" stroke="midnightblue" points="146.118,-47.2155 135.705,-49.1685 145.063,-54.1356 146.118,-47.2155"/>
</g>
<!-- Node4 -->
<g id="node4" class="node"><title>Node4</title>
<g id="a_node4"><a xlink:href="scriptdictionary_8h.html#af8fc6fbf1a623e6c2ff14605df4e0570" target="_top" xlink:title="RegisterScriptDictionary\l_Generic">
<polygon fill="white" stroke="black" points="172.5,-0 172.5,-30 295.5,-30 295.5,-0 172.5,-0"/>
<text text-anchor="start" x="180.5" y="-18" font-family="Helvetica,sans-Serif" font-size="10.00">RegisterScriptDictionary</text>
<text text-anchor="middle" x="234" y="-7" font-family="Helvetica,sans-Serif" font-size="10.00">_Generic</text>
</a>
</g>
</g>
<!-- Node1&#45;&gt;Node4 -->
<g id="edge3" class="edge"><title>Node1&#45;&gt;Node4</title>
<path fill="none" stroke="midnightblue" d="M145.753,-27.7679C154.703,-26.458 163.738,-25.1359 172.428,-23.8643"/>
<polygon fill="midnightblue" stroke="midnightblue" points="145.093,-24.3271 135.705,-29.2383 146.107,-31.2533 145.093,-24.3271"/>
</g>
<!-- Node3 -->
<g id="node3" class="node"><title>Node3</title>
<g id="a_node3"><a xlink:href="scriptdictionary_8h.html#abf884a3f2b4b07a009c5fc055b48f901" target="_top" xlink:title="RegisterScriptDictionary">
<polygon fill="white" stroke="black" points="332.5,-29.5 332.5,-48.5 455.5,-48.5 455.5,-29.5 332.5,-29.5"/>
<text text-anchor="middle" x="394" y="-36.5" font-family="Helvetica,sans-Serif" font-size="10.00">RegisterScriptDictionary</text>
</a>
</g>
</g>
<!-- Node2&#45;&gt;Node3 -->
<g id="edge2" class="edge"><title>Node2&#45;&gt;Node3</title>
<path fill="none" stroke="midnightblue" d="M305.742,-52.8066C314.772,-51.3779 323.946,-49.9262 332.788,-48.5272"/>
<polygon fill="midnightblue" stroke="midnightblue" points="304.965,-49.3859 295.635,-54.4058 306.059,-56.2999 304.965,-49.3859"/>
</g>
<!-- Node4&#45;&gt;Node3 -->
<g id="edge4" class="edge"><title>Node4&#45;&gt;Node3</title>
<path fill="none" stroke="midnightblue" d="M305.597,-25.7235C314.495,-27.0753 323.538,-28.4488 332.266,-29.7746"/>
<polygon fill="midnightblue" stroke="midnightblue" points="306.047,-22.2519 295.635,-24.2104 304.996,-29.1725 306.047,-22.2519"/>
</g>
</g>
</svg>
