<?xml version="1.0" encoding="UTF-8" standalone="no"?>
<!DOCTYPE svg PUBLIC "-//W3C//DTD SVG 1.1//EN"
 "http://www.w3.org/Graphics/SVG/1.1/DTD/svg11.dtd">
<!-- Generated by graphviz version 2.36.0 (20140111.2315)
 -->
<!-- Title: source/angelscript_addons/scriptstdstring/scriptstdstring.h Pages: 1 -->
<svg width="524pt" height="128pt"
 viewBox="0.00 0.00 524.00 128.00" xmlns="http://www.w3.org/2000/svg" xmlns:xlink="http://www.w3.org/1999/xlink">
<g id="graph0" class="graph" transform="scale(1 1) rotate(0) translate(4 124)">
<title>source/angelscript_addons/scriptstdstring/scriptstdstring.h</title>
<polygon fill="white" stroke="none" points="-4,4 -4,-124 520,-124 520,4 -4,4"/>
<!-- Node1 -->
<g id="node1" class="node"><title>Node1</title>
<polygon fill="#bfbfbf" stroke="black" points="206,-78.5 206,-119.5 324,-119.5 324,-78.5 206,-78.5"/>
<text text-anchor="start" x="214" y="-107.5" font-family="Helvetica,sans-Serif" font-size="10.00">source/angelscript</text>
<text text-anchor="start" x="214" y="-96.5" font-family="Helvetica,sans-Serif" font-size="10.00">_addons/scriptstdstring</text>
<text text-anchor="middle" x="265" y="-85.5" font-family="Helvetica,sans-Serif" font-size="10.00">/scriptstdstring.h</text>
</g>
<!-- Node2 -->
<g id="node2" class="node"><title>Node2</title>
<g id="a_node2"><a xlink:href="scriptstdstring_8cpp.html" target="_top" xlink:title="source/angelscript\l_addons/scriptstdstring\l/scriptstdstring.cpp">
<polygon fill="white" stroke="black" points="0,-0.5 0,-41.5 118,-41.5 118,-0.5 0,-0.5"/>
<text text-anchor="start" x="8" y="-29.5" font-family="Helvetica,sans-Serif" font-size="10.00">source/angelscript</text>
<text text-anchor="start" x="8" y="-18.5" font-family="Helvetica,sans-Serif" font-size="10.00">_addons/scriptstdstring</text>
<text text-anchor="middle" x="59" y="-7.5" font-family="Helvetica,sans-Serif" font-size="10.00">/scriptstdstring.cpp</text>
</a>
</g>
</g>
<!-- Node1&#45;&gt;Node2 -->
<g id="edge1" class="edge"><title>Node1&#45;&gt;Node2</title>
<path fill="none" stroke="midnightblue" d="M202.353,-74.8874C173.434,-64.2185 139.476,-51.6901 111.87,-41.5056"/>
<polygon fill="midnightblue" stroke="midnightblue" points="201.357,-78.2504 211.95,-78.4281 203.779,-71.6831 201.357,-78.2504"/>
</g>
<!-- Node3 -->
<g id="node3" class="node"><title>Node3</title>
<g id="a_node3"><a xlink:href="scriptstdstring__utils_8cpp.html" target="_top" xlink:title="source/angelscript\l_addons/scriptstdstring\l/scriptstdstring_utils.cpp">
<polygon fill="white" stroke="black" points="136.5,-0.5 136.5,-41.5 259.5,-41.5 259.5,-0.5 136.5,-0.5"/>
<text text-anchor="start" x="144.5" y="-29.5" font-family="Helvetica,sans-Serif" font-size="10.00">source/angelscript</text>
<text text-anchor="start" x="144.5" y="-18.5" font-family="Helvetica,sans-Serif" font-size="10.00">_addons/scriptstdstring</text>
<text text-anchor="middle" x="198" y="-7.5" font-family="Helvetica,sans-Serif" font-size="10.00">/scriptstdstring_utils.cpp</text>
</a>
</g>
</g>
<!-- Node1&#45;&gt;Node3 -->
<g id="edge2" class="edge"><title>Node1&#45;&gt;Node3</title>
<path fill="none" stroke="midnightblue" d="M241.123,-70.9158C232.56,-61.2029 223.081,-50.4502 215.196,-41.5056"/>
<polygon fill="midnightblue" stroke="midnightblue" points="238.507,-73.2414 247.746,-78.4281 243.758,-68.6123 238.507,-73.2414"/>
</g>
<!-- Node4 -->
<g id="node4" class="node"><title>Node4</title>
<g id="a_node4"><a xlink:href="_game_script_8cpp.html" target="_top" xlink:title="source/main/scripting\l/GameScript.cpp">
<polygon fill="white" stroke="black" points="278,-6 278,-36 388,-36 388,-6 278,-6"/>
<text text-anchor="start" x="286" y="-24" font-family="Helvetica,sans-Serif" font-size="10.00">source/main/scripting</text>
<text text-anchor="middle" x="333" y="-13" font-family="Helvetica,sans-Serif" font-size="10.00">/GameScript.cpp</text>
</a>
</g>
</g>
<!-- Node1&#45;&gt;Node4 -->
<g id="edge3" class="edge"><title>Node1&#45;&gt;Node4</title>
<path fill="none" stroke="midnightblue" d="M289.468,-70.6539C299.893,-59.0022 311.619,-45.8967 320.272,-36.2254"/>
<polygon fill="midnightblue" stroke="midnightblue" points="286.571,-68.6419 282.512,-78.4281 291.788,-73.3095 286.571,-68.6419"/>
</g>
<!-- Node5 -->
<g id="node5" class="node"><title>Node5</title>
<g id="a_node5"><a xlink:href="_script_engine_8cpp.html" target="_top" xlink:title="source/main/scripting\l/ScriptEngine.cpp">
<polygon fill="white" stroke="black" points="406,-6 406,-36 516,-36 516,-6 406,-6"/>
<text text-anchor="start" x="414" y="-24" font-family="Helvetica,sans-Serif" font-size="10.00">source/main/scripting</text>
<text text-anchor="middle" x="461" y="-13" font-family="Helvetica,sans-Serif" font-size="10.00">/ScriptEngine.cpp</text>
</a>
</g>
</g>
<!-- Node1&#45;&gt;Node5 -->
<g id="edge4" class="edge"><title>Node1&#45;&gt;Node5</title>
<path fill="none" stroke="midnightblue" d="M324.906,-74.7713C357.465,-62.1462 396.669,-46.9446 424.62,-36.1065"/>
<polygon fill="midnightblue" stroke="midnightblue" points="323.533,-71.5495 315.475,-78.4281 326.064,-78.076 323.533,-71.5495"/>
</g>
</g>
</svg>
