<?xml version="1.0" encoding="UTF-8" standalone="no"?>
<!DOCTYPE svg PUBLIC "-//W3C//DTD SVG 1.1//EN"
 "http://www.w3.org/Graphics/SVG/1.1/DTD/svg11.dtd">
<!-- Generated by graphviz version 2.36.0 (20140111.2315)
 -->
<!-- Title: AddAssignDouble2StringGeneric Pages: 1 -->
<svg width="468pt" height="28pt"
 viewBox="0.00 0.00 468.00 28.00" xmlns="http://www.w3.org/2000/svg" xmlns:xlink="http://www.w3.org/1999/xlink">
<g id="graph0" class="graph" transform="scale(1 1) rotate(0) translate(4 24)">
<title>AddAssignDouble2StringGeneric</title>
<polygon fill="white" stroke="none" points="-4,4 -4,-24 464,-24 464,4 -4,4"/>
<!-- Node1 -->
<g id="node1" class="node"><title>Node1</title>
<polygon fill="#bfbfbf" stroke="black" points="0.5,-0.5 0.5,-19.5 159.5,-19.5 159.5,-0.5 0.5,-0.5"/>
<text text-anchor="middle" x="80" y="-7.5" font-family="Helvetica,sans-Serif" font-size="10.00">AddAssignDouble2StringGeneric</text>
</g>
<!-- Node2 -->
<g id="node2" class="node"><title>Node2</title>
<g id="a_node2"><a xlink:href="scriptstdstring_8cpp.html#a62c6497c981bdc5911e1167e4252cfdb" target="_top" xlink:title="RegisterStdString_Generic">
<polygon fill="white" stroke="black" points="196.5,-0.5 196.5,-19.5 329.5,-19.5 329.5,-0.5 196.5,-0.5"/>
<text text-anchor="middle" x="263" y="-7.5" font-family="Helvetica,sans-Serif" font-size="10.00">RegisterStdString_Generic</text>
</a>
</g>
</g>
<!-- Node1&#45;&gt;Node2 -->
<g id="edge1" class="edge"><title>Node1&#45;&gt;Node2</title>
<path fill="none" stroke="midnightblue" d="M169.743,-10C178.753,-10 187.786,-10 196.485,-10"/>
<polygon fill="midnightblue" stroke="midnightblue" points="169.6,-6.5001 159.6,-10 169.6,-13.5001 169.6,-6.5001"/>
</g>
<!-- Node3 -->
<g id="node3" class="node"><title>Node3</title>
<g id="a_node3"><a xlink:href="scriptstdstring_8h.html#a287e4fc1f4c8621cfd2f1793f9e70f39" target="_top" xlink:title="RegisterStdString">
<polygon fill="white" stroke="black" points="366,-0.5 366,-19.5 460,-19.5 460,-0.5 366,-0.5"/>
<text text-anchor="middle" x="413" y="-7.5" font-family="Helvetica,sans-Serif" font-size="10.00">RegisterStdString</text>
</a>
</g>
</g>
<!-- Node2&#45;&gt;Node3 -->
<g id="edge2" class="edge"><title>Node2&#45;&gt;Node3</title>
<path fill="none" stroke="midnightblue" d="M339.823,-10C348.732,-10 357.606,-10 365.928,-10"/>
<polygon fill="midnightblue" stroke="midnightblue" points="339.777,-6.5001 329.777,-10 339.777,-13.5001 339.777,-6.5001"/>
</g>
</g>
</svg>
