<?xml version="1.0" encoding="UTF-8" standalone="no"?>
<!DOCTYPE svg PUBLIC "-//W3C//DTD SVG 1.1//EN"
 "http://www.w3.org/Graphics/SVG/1.1/DTD/svg11.dtd">
<!-- Generated by graphviz version 2.36.0 (20140111.2315)
 -->
<!-- Title: RoR::PlatformUtils::FolderExists Pages: 1 -->
<!--zoomable 160 -->
<svg id="main" version="1.1" xmlns="http://www.w3.org/2000/svg" xmlns:xlink="http://www.w3.org/1999/xlink" xml:space="preserve" onload="init(evt)">
<style type="text/css"><![CDATA[
.edge:hover path { stroke: red; }
.edge:hover polygon { stroke: red; fill: red; }
]]></style>
<script type="text/javascript"><![CDATA[
var edges = document.getElementsByTagName('g');
if (edges && edges.length) {
  for (var i=0;i<edges.length;i++) {
    if (edges[i].id.substr(0,4)=='edge') {
      edges[i].setAttribute('class','edge');
    }
  }
}
]]></script>
        <defs>
                <circle id="rim" cx="0" cy="0" r="7"/>
                <circle id="rim2" cx="0" cy="0" r="3.5"/>
                <g id="zoomPlus">
                        <use xlink:href="#rim" fill="#404040">
                                <set attributeName="fill" to="#808080" begin="zoomplus.mouseover" end="zoomplus.mouseout"/>
                        </use>
                        <path d="M-4,0h8M0,-4v8" fill="none" stroke="white" stroke-width="1.5" pointer-events="none"/>
                </g>
                <g id="zoomMin">
                        <use xlink:href="#rim" fill="#404040">
                                <set attributeName="fill" to="#808080" begin="zoomminus.mouseover" end="zoomminus.mouseout"/>
                        </use>
                        <path d="M-4,0h8" fill="none" stroke="white" stroke-width="1.5" pointer-events="none"/>
                </g>
                <g id="dirArrow">
                        <path fill="none" stroke="white" stroke-width="1.5" d="M0,-3.0v7 M-2.5,-0.5L0,-3.0L2.5,-0.5"/>
                </g>
               <g id="resetDef">
                       <use xlink:href="#rim2" fill="#404040">
                               <set attributeName="fill" to="#808080" begin="reset.mouseover" end="reset.mouseout"/>
                       </use>
               </g>
        </defs>

<script type="text/javascript">
var viewWidth = 854;
var viewHeight = 160;
var sectionId = 'dynsection-4';
</script>
<script xlink:href="svgpan.js"/>
<svg id="graph" class="graph">
<g id="viewport">
<title>RoR::PlatformUtils::FolderExists</title>
<polygon fill="white" stroke="none" points="-4,4 -4,-156.348 850,-156.348 850,4 -4,4"/>
<!-- Node1 -->
<g id="node1" class="node"><title>Node1</title>
<polygon fill="#bfbfbf" stroke="black" points="0,-78.0407 0,-108.041 100,-108.041 100,-78.0407 0,-78.0407"/>
<text text-anchor="start" x="8" y="-96.0407" font-family="Helvetica,sans-Serif" font-size="10.00">RoR::PlatformUtils</text>
<text text-anchor="middle" x="50" y="-85.0407" font-family="Helvetica,sans-Serif" font-size="10.00">::FolderExists</text>
</g>
<!-- Node2 -->
<g id="node2" class="node"><title>Node2</title>
<g id="a_node2"><a xlink:href="main_8cpp.html#a0ddf1224851353fc92bfbff6f499fa97" target="_top" xlink:title="main">
<polygon fill="white" stroke="black" points="716,-102.541 716,-121.541 754,-121.541 754,-102.541 716,-102.541"/>
<text text-anchor="middle" x="735" y="-109.541" font-family="Helvetica,sans-Serif" font-size="10.00">main</text>
</a>
</g>
</g>
<!-- Node1&#45;&gt;Node2 -->
<g id="edge1" class="edge"><title>Node1&#45;&gt;Node2</title>
<path fill="none" stroke="midnightblue" d="M107.14,-110.786C116.689,-113.258 126.568,-115.481 136,-117.041 374.596,-156.497 440.97,-165.777 680,-129.041 692.24,-127.159 705.513,-123.012 715.837,-119.285"/>
<polygon fill="midnightblue" stroke="midnightblue" points="107.908,-107.368 97.3413,-108.139 106.082,-114.126 107.908,-107.368"/>
</g>
<!-- Node4 -->
<g id="node4" class="node"><title>Node4</title>
<g id="a_node4"><a xlink:href="class_ro_r_1_1_content_manager.html#a7cbddcf40c0f515169de4d4e6bb8fd11" target="_top" xlink:title="RoR::ContentManager\l::AddResourcePack">
<polygon fill="white" stroke="black" points="136.5,-78.0407 136.5,-108.041 251.5,-108.041 251.5,-78.0407 136.5,-78.0407"/>
<text text-anchor="start" x="144.5" y="-96.0407" font-family="Helvetica,sans-Serif" font-size="10.00">RoR::ContentManager</text>
<text text-anchor="middle" x="194" y="-85.0407" font-family="Helvetica,sans-Serif" font-size="10.00">::AddResourcePack</text>
</a>
</g>
</g>
<!-- Node1&#45;&gt;Node4 -->
<g id="edge3" class="edge"><title>Node1&#45;&gt;Node4</title>
<path fill="none" stroke="midnightblue" d="M110.448,-93.0407C118.914,-93.0407 127.606,-93.0407 136.023,-93.0407"/>
<polygon fill="midnightblue" stroke="midnightblue" points="110.266,-89.5408 100.266,-93.0407 110.266,-96.5408 110.266,-89.5408"/>
</g>
<!-- Node8 -->
<g id="node8" class="node"><title>Node8</title>
<g id="a_node8"><a xlink:href="struct_ro_r_1_1_platform_utils.html#af210b5b3364e3eb438f468372e6f5b00" target="_top" xlink:title="RoR::PlatformUtils\l::FolderExists">
<polygon fill="white" stroke="black" points="144,-29.0407 144,-59.0407 244,-59.0407 244,-29.0407 144,-29.0407"/>
<text text-anchor="start" x="152" y="-47.0407" font-family="Helvetica,sans-Serif" font-size="10.00">RoR::PlatformUtils</text>
<text text-anchor="middle" x="194" y="-36.0407" font-family="Helvetica,sans-Serif" font-size="10.00">::FolderExists</text>
</a>
</g>
</g>
<!-- Node1&#45;&gt;Node8 -->
<g id="edge11" class="edge"><title>Node1&#45;&gt;Node8</title>
<path fill="none" stroke="midnightblue" d="M104.292,-74.6511C119.078,-69.5491 134.957,-64.0696 149.137,-59.1766"/>
<polygon fill="midnightblue" stroke="midnightblue" points="103.075,-71.3687 94.7634,-77.9393 105.358,-77.9858 103.075,-71.3687"/>
</g>
<!-- Node3 -->
<g id="node3" class="node"><title>Node3</title>
<g id="a_node3"><a xlink:href="main_8cpp.html#a2922bc5d5c2d77a3020cfbf9df12aab0" target="_top" xlink:title="WinMain">
<polygon fill="white" stroke="black" points="790.5,-102.541 790.5,-121.541 845.5,-121.541 845.5,-102.541 790.5,-102.541"/>
<text text-anchor="middle" x="818" y="-109.541" font-family="Helvetica,sans-Serif" font-size="10.00">WinMain</text>
</a>
</g>
</g>
<!-- Node2&#45;&gt;Node3 -->
<g id="edge2" class="edge"><title>Node2&#45;&gt;Node3</title>
<path fill="none" stroke="midnightblue" d="M764.512,-112.041C772.929,-112.041 782.105,-112.041 790.397,-112.041"/>
<polygon fill="midnightblue" stroke="midnightblue" points="764.38,-108.541 754.38,-112.041 764.38,-115.541 764.38,-108.541"/>
</g>
<!-- Node4&#45;&gt;Node2 -->
<g id="edge6" class="edge"><title>Node4&#45;&gt;Node2</title>
<path fill="none" stroke="midnightblue" d="M262.061,-104.146C270.768,-105.291 279.583,-106.303 288,-107.041 453.464,-121.549 654.766,-115.255 715.683,-112.833"/>
<polygon fill="midnightblue" stroke="midnightblue" points="262.303,-100.647 251.919,-102.75 261.348,-107.581 262.303,-100.647"/>
</g>
<!-- Node5 -->
<g id="node5" class="node"><title>Node5</title>
<g id="a_node5"><a xlink:href="class_ro_r_frame_listener.html#aca3931d7a75f2ad4b9d36c4fcd03a3c9" target="_top" xlink:title="RoRFrameListener::SetupGameplayLoop">
<polygon fill="white" stroke="black" points="484,-83.5407 484,-102.541 680,-102.541 680,-83.5407 484,-83.5407"/>
<text text-anchor="middle" x="582" y="-90.5407" font-family="Helvetica,sans-Serif" font-size="10.00">RoRFrameListener::SetupGameplayLoop</text>
</a>
</g>
</g>
<!-- Node4&#45;&gt;Node5 -->
<g id="edge4" class="edge"><title>Node4&#45;&gt;Node5</title>
<path fill="none" stroke="midnightblue" d="M261.862,-93.0407C323.133,-93.0407 414.583,-93.0407 483.903,-93.0407"/>
<polygon fill="midnightblue" stroke="midnightblue" points="261.541,-89.5408 251.541,-93.0407 261.541,-96.5408 261.541,-89.5408"/>
</g>
<!-- Node6 -->
<g id="node6" class="node"><title>Node6</title>
<g id="a_node6"><a xlink:href="class_ro_r_1_1_content_manager.html#a3d65ff91e47f235abdea3dcc9db62876" target="_top" xlink:title="RoR::ContentManager\l::init">
<polygon fill="white" stroke="black" points="524.5,-12.0407 524.5,-42.0407 639.5,-42.0407 639.5,-12.0407 524.5,-12.0407"/>
<text text-anchor="start" x="532.5" y="-30.0407" font-family="Helvetica,sans-Serif" font-size="10.00">RoR::ContentManager</text>
<text text-anchor="middle" x="582" y="-19.0407" font-family="Helvetica,sans-Serif" font-size="10.00">::init</text>
</a>
</g>
</g>
<!-- Node4&#45;&gt;Node6 -->
<g id="edge7" class="edge"><title>Node4&#45;&gt;Node6</title>
<path fill="none" stroke="midnightblue" d="M244.732,-73.0012C247.259,-71.4396 249.7,-69.7861 252,-68.0407 272.127,-52.7656 265.167,-34.8608 288,-24.0407 363.621,11.7946 463.039,0.337228 524.447,-12.431"/>
<polygon fill="midnightblue" stroke="midnightblue" points="242.9,-70.0158 235.887,-77.9571 246.322,-76.1226 242.9,-70.0158"/>
</g>
<!-- Node7 -->
<g id="node7" class="node"><title>Node7</title>
<g id="a_node7"><a xlink:href="class_ro_r_1_1_content_manager.html#a379ef5af7a59b96f83e1d15b50163026" target="_top" xlink:title="RoR::ContentManager\l::CheckAndLoadBaseResources">
<polygon fill="white" stroke="black" points="288.5,-34.0407 288.5,-64.0407 447.5,-64.0407 447.5,-34.0407 288.5,-34.0407"/>
<text text-anchor="start" x="296.5" y="-52.0407" font-family="Helvetica,sans-Serif" font-size="10.00">RoR::ContentManager</text>
<text text-anchor="middle" x="368" y="-41.0407" font-family="Helvetica,sans-Serif" font-size="10.00">::CheckAndLoadBaseResources</text>
</a>
</g>
</g>
<!-- Node4&#45;&gt;Node7 -->
<g id="edge9" class="edge"><title>Node4&#45;&gt;Node7</title>
<path fill="none" stroke="midnightblue" d="M261.722,-75.9723C277.049,-72.0514 293.238,-67.9102 308.201,-64.0823"/>
<polygon fill="midnightblue" stroke="midnightblue" points="260.617,-72.6423 251.796,-78.5115 262.351,-79.4239 260.617,-72.6423"/>
</g>
<!-- Node5&#45;&gt;Node2 -->
<g id="edge5" class="edge"><title>Node5&#45;&gt;Node2</title>
<path fill="none" stroke="midnightblue" d="M668.897,-103.849C686.715,-106.091 703.745,-108.234 715.916,-109.765"/>
<polygon fill="midnightblue" stroke="midnightblue" points="669.301,-100.372 658.942,-102.596 668.427,-107.317 669.301,-100.372"/>
</g>
<!-- Node6&#45;&gt;Node2 -->
<g id="edge8" class="edge"><title>Node6&#45;&gt;Node2</title>
<path fill="none" stroke="midnightblue" d="M626.533,-46.2933C643.536,-54.2855 662.993,-64.0258 680,-74.0407 694.817,-82.7662 710.81,-94.3128 721.513,-102.379"/>
<polygon fill="midnightblue" stroke="midnightblue" points="627.915,-43.0762 617.371,-42.0424 624.969,-49.4261 627.915,-43.0762"/>
</g>
<!-- Node7&#45;&gt;Node5 -->
<g id="edge10" class="edge"><title>Node7&#45;&gt;Node5</title>
<path fill="none" stroke="midnightblue" d="M451.324,-66.1269C479.804,-72.0378 510.687,-78.4473 535.167,-83.5283"/>
<polygon fill="midnightblue" stroke="midnightblue" points="451.868,-62.6652 441.365,-64.0599 450.445,-69.5191 451.868,-62.6652"/>
</g>
</g>
</svg>
        <g id="navigator" transform="translate(0 0)" fill="#404254">
                <rect fill="#f2f5e9" fill-opacity="0.5" stroke="#606060" stroke-width=".5" x="0" y="0" width="60" height="60"/>
                <use id="zoomplus" xlink:href="#zoomPlus" x="17" y="9" onmousedown="handleZoom(evt,'in')"/>
                <use id="zoomminus" xlink:href="#zoomMin" x="42" y="9" onmousedown="handleZoom(evt,'out')"/>
                <use id="reset" xlink:href="#resetDef" x="30" y="36" onmousedown="handleReset()"/>
                <g id="arrowUp" xlink:href="#dirArrow" transform="translate(30 24)" onmousedown="handlePan(0,-1)">
                  <use xlink:href="#rim" fill="#404040">
                        <set attributeName="fill" to="#808080" begin="arrowUp.mouseover" end="arrowUp.mouseout"/>
                  </use>
                  <path fill="none" stroke="white" stroke-width="1.5" d="M0,-3.0v7 M-2.5,-0.5L0,-3.0L2.5,-0.5"/>
                </g>
                <g id="arrowRight" xlink:href="#dirArrow" transform="rotate(90) translate(36 -43)" onmousedown="handlePan(1,0)">
                  <use xlink:href="#rim" fill="#404040">
                        <set attributeName="fill" to="#808080" begin="arrowRight.mouseover" end="arrowRight.mouseout"/>
                  </use>
                  <path fill="none" stroke="white" stroke-width="1.5" d="M0,-3.0v7 M-2.5,-0.5L0,-3.0L2.5,-0.5"/>
                </g>
                <g id="arrowDown" xlink:href="#dirArrow" transform="rotate(180) translate(-30 -48)" onmousedown="handlePan(0,1)">
                  <use xlink:href="#rim" fill="#404040">
                        <set attributeName="fill" to="#808080" begin="arrowDown.mouseover" end="arrowDown.mouseout"/>
                  </use>
                  <path fill="none" stroke="white" stroke-width="1.5" d="M0,-3.0v7 M-2.5,-0.5L0,-3.0L2.5,-0.5"/>
                </g>
                <g id="arrowLeft" xlink:href="#dirArrow" transform="rotate(270) translate(-36 17)" onmousedown="handlePan(-1,0)">
                  <use xlink:href="#rim" fill="#404040">
                        <set attributeName="fill" to="#808080" begin="arrowLeft.mouseover" end="arrowLeft.mouseout"/>
                  </use>
                  <path fill="none" stroke="white" stroke-width="1.5" d="M0,-3.0v7 M-2.5,-0.5L0,-3.0L2.5,-0.5"/>
                </g>
        </g>
        <svg viewBox="0 0 15 15" width="100%" height="30px" preserveAspectRatio="xMaxYMin meet">
         <g id="arrow_out" transform="scale(0.3 0.3)">
          <a xlink:href="struct_ro_r_1_1_platform_utils_a1bf4d0b15332a9d583e75b25d5b16cab_icgraph_org.svg" target="_base">
           <rect id="button" ry="5" rx="5" y="6" x="6" height="38" width="38"
                fill="#f2f5e9" fill-opacity="0.5" stroke="#606060" stroke-width="1.0"/>
           <path id="arrow"
             d="M 11.500037,31.436501 C 11.940474,20.09759 22.043105,11.32322 32.158766,21.979434 L 37.068811,17.246167 C 37.068811,17.246167 37.088388,32 37.088388,32 L 22.160133,31.978069 C 22.160133,31.978069 26.997745,27.140456 26.997745,27.140456 C 18.528582,18.264221 13.291696,25.230495 11.500037,31.436501 z"
             style="fill:#404040;"/>
          </a>
         </g>
        </svg>
</svg>
