<?xml version="1.0" encoding="UTF-8" standalone="no"?>
<!DOCTYPE svg PUBLIC "-//W3C//DTD SVG 1.1//EN"
 "http://www.w3.org/Graphics/SVG/1.1/DTD/svg11.dtd">
<!-- Generated by graphviz version 2.36.0 (20140111.2315)
 -->
<!-- Title: RigDef::BaseWheel Pages: 1 -->
<svg width="406pt" height="140pt"
 viewBox="0.00 0.00 406.00 140.00" xmlns="http://www.w3.org/2000/svg" xmlns:xlink="http://www.w3.org/1999/xlink">
<g id="graph0" class="graph" transform="scale(1 1) rotate(0) translate(4 136)">
<title>RigDef::BaseWheel</title>
<polygon fill="white" stroke="none" points="-4,4 -4,-136 402,-136 402,4 -4,4"/>
<!-- Node1 -->
<g id="node1" class="node"><title>Node1</title>
<polygon fill="#bfbfbf" stroke="black" points="195,-112.5 195,-131.5 299,-131.5 299,-112.5 195,-112.5"/>
<text text-anchor="middle" x="247" y="-119.5" font-family="Helvetica,sans-Serif" font-size="10.00">RigDef::BaseWheel</text>
</g>
<!-- Node2 -->
<g id="node2" class="node"><title>Node2</title>
<g id="a_node2"><a xlink:href="struct_rig_def_1_1_base_wheel2.html" target="_top" xlink:title="RigDef::BaseWheel2">
<polygon fill="white" stroke="black" points="67.5,-56.5 67.5,-75.5 176.5,-75.5 176.5,-56.5 67.5,-56.5"/>
<text text-anchor="middle" x="122" y="-63.5" font-family="Helvetica,sans-Serif" font-size="10.00">RigDef::BaseWheel2</text>
</a>
</g>
</g>
<!-- Node1&#45;&gt;Node2 -->
<g id="edge1" class="edge"><title>Node1&#45;&gt;Node2</title>
<path fill="none" stroke="midnightblue" d="M217.759,-108.368C194.35,-98.2553 162.159,-84.3486 141.714,-75.5164"/>
<polygon fill="midnightblue" stroke="midnightblue" points="216.625,-111.691 227.193,-112.444 219.401,-105.265 216.625,-111.691"/>
</g>
<!-- Node5 -->
<g id="node5" class="node"><title>Node5</title>
<g id="a_node5"><a xlink:href="struct_rig_def_1_1_mesh_wheel.html" target="_top" xlink:title="RigDef::MeshWheel">
<polygon fill="white" stroke="black" points="194.5,-56.5 194.5,-75.5 299.5,-75.5 299.5,-56.5 194.5,-56.5"/>
<text text-anchor="middle" x="247" y="-63.5" font-family="Helvetica,sans-Serif" font-size="10.00">RigDef::MeshWheel</text>
</a>
</g>
</g>
<!-- Node1&#45;&gt;Node5 -->
<g id="edge4" class="edge"><title>Node1&#45;&gt;Node5</title>
<path fill="none" stroke="midnightblue" d="M247,-101.805C247,-92.9102 247,-82.7798 247,-75.7511"/>
<polygon fill="midnightblue" stroke="midnightblue" points="243.5,-102.083 247,-112.083 250.5,-102.083 243.5,-102.083"/>
</g>
<!-- Node6 -->
<g id="node6" class="node"><title>Node6</title>
<g id="a_node6"><a xlink:href="struct_rig_def_1_1_wheel.html" target="_top" xlink:title="RigDef::Wheel">
<polygon fill="white" stroke="black" points="317.5,-56.5 317.5,-75.5 398.5,-75.5 398.5,-56.5 317.5,-56.5"/>
<text text-anchor="middle" x="358" y="-63.5" font-family="Helvetica,sans-Serif" font-size="10.00">RigDef::Wheel</text>
</a>
</g>
</g>
<!-- Node1&#45;&gt;Node6 -->
<g id="edge5" class="edge"><title>Node1&#45;&gt;Node6</title>
<path fill="none" stroke="midnightblue" d="M274.005,-107.862C294.588,-97.8492 322.345,-84.3458 340.21,-75.6545"/>
<polygon fill="midnightblue" stroke="midnightblue" points="272.295,-104.802 264.834,-112.324 275.358,-111.097 272.295,-104.802"/>
</g>
<!-- Node3 -->
<g id="node3" class="node"><title>Node3</title>
<g id="a_node3"><a xlink:href="struct_rig_def_1_1_flex_body_wheel.html" target="_top" xlink:title="RigDef::FlexBodyWheel">
<polygon fill="white" stroke="black" points="0,-0.5 0,-19.5 122,-19.5 122,-0.5 0,-0.5"/>
<text text-anchor="middle" x="61" y="-7.5" font-family="Helvetica,sans-Serif" font-size="10.00">RigDef::FlexBodyWheel</text>
</a>
</g>
</g>
<!-- Node2&#45;&gt;Node3 -->
<g id="edge2" class="edge"><title>Node2&#45;&gt;Node3</title>
<path fill="none" stroke="midnightblue" d="M104.533,-49.5372C93.6562,-39.9087 80.0561,-27.8694 70.979,-19.8339"/>
<polygon fill="midnightblue" stroke="midnightblue" points="102.392,-52.3162 112.199,-56.324 107.032,-47.0749 102.392,-52.3162"/>
</g>
<!-- Node4 -->
<g id="node4" class="node"><title>Node4</title>
<g id="a_node4"><a xlink:href="struct_rig_def_1_1_wheel2.html" target="_top" xlink:title="RigDef::Wheel2">
<polygon fill="white" stroke="black" points="140,-0.5 140,-19.5 226,-19.5 226,-0.5 140,-0.5"/>
<text text-anchor="middle" x="183" y="-7.5" font-family="Helvetica,sans-Serif" font-size="10.00">RigDef::Wheel2</text>
</a>
</g>
</g>
<!-- Node2&#45;&gt;Node4 -->
<g id="edge3" class="edge"><title>Node2&#45;&gt;Node4</title>
<path fill="none" stroke="midnightblue" d="M139.467,-49.5372C150.344,-39.9087 163.944,-27.8694 173.021,-19.8339"/>
<polygon fill="midnightblue" stroke="midnightblue" points="136.968,-47.0749 131.801,-56.324 141.608,-52.3162 136.968,-47.0749"/>
</g>
</g>
</svg>
