<?xml version="1.0" encoding="UTF-8" standalone="no"?>
<!DOCTYPE svg PUBLIC "-//W3C//DTD SVG 1.1//EN"
 "http://www.w3.org/Graphics/SVG/1.1/DTD/svg11.dtd">
<!-- Generated by graphviz version 2.36.0 (20140111.2315)
 -->
<!-- Title: RoR::GfxActor::VideoCamera Pages: 1 -->
<svg width="172pt" height="140pt"
 viewBox="0.00 0.00 172.00 140.00" xmlns="http://www.w3.org/2000/svg" xmlns:xlink="http://www.w3.org/1999/xlink">
<g id="graph0" class="graph" transform="scale(1 1) rotate(0) translate(4 136)">
<title>RoR::GfxActor::VideoCamera</title>
<polygon fill="white" stroke="none" points="-4,4 -4,-136 168,-136 168,4 -4,4"/>
<!-- Node1 -->
<g id="node1" class="node"><title>Node1</title>
<polygon fill="#bfbfbf" stroke="black" points="-0.5,-0.5 -0.5,-19.5 146.5,-19.5 146.5,-0.5 -0.5,-0.5"/>
<text text-anchor="middle" x="73" y="-7.5" font-family="Helvetica,sans-Serif" font-size="10.00">RoR::GfxActor::VideoCamera</text>
</g>
<!-- Node2 -->
<g id="node2" class="node"><title>Node2</title>
<g id="a_node2"><a xlink:href="structnode__t.html" target="_top" xlink:title="node_t">
<polygon fill="white" stroke="black" points="50,-112.5 50,-131.5 96,-131.5 96,-112.5 50,-112.5"/>
<text text-anchor="middle" x="73" y="-119.5" font-family="Helvetica,sans-Serif" font-size="10.00">node_t</text>
</a>
</g>
</g>
<!-- Node2&#45;&gt;Node1 -->
<g id="edge1" class="edge"><title>Node2&#45;&gt;Node1</title>
<path fill="none" stroke="#9a32cd" stroke-dasharray="5,2" d="M73,-102.348C73,-78.2538 73,-37.3079 73,-19.5914"/>
<polygon fill="#9a32cd" stroke="#9a32cd" points="69.5001,-102.368 73,-112.368 76.5001,-102.369 69.5001,-102.368"/>
<text text-anchor="middle" x="118.5" y="-85.5" font-family="Helvetica,sans-Serif" font-size="10.00"> vcam_node_alt_pos</text>
<text text-anchor="middle" x="118.5" y="-74.5" font-family="Helvetica,sans-Serif" font-size="10.00">vcam_node_lookat</text>
<text text-anchor="middle" x="118.5" y="-63.5" font-family="Helvetica,sans-Serif" font-size="10.00">vcam_node_dir_y</text>
<text text-anchor="middle" x="118.5" y="-52.5" font-family="Helvetica,sans-Serif" font-size="10.00">vcam_node_center</text>
<text text-anchor="middle" x="118.5" y="-41.5" font-family="Helvetica,sans-Serif" font-size="10.00">vcam_node_dir_z</text>
</g>
</g>
</svg>
