<?xml version="1.0" encoding="UTF-8" standalone="no"?>
<!DOCTYPE svg PUBLIC "-//W3C//DTD SVG 1.1//EN"
 "http://www.w3.org/Graphics/SVG/1.1/DTD/svg11.dtd">
<!-- Generated by graphviz version 2.36.0 (20140111.2315)
 -->
<!-- Title: RigDef::Wheel2 Pages: 1 -->
<svg width="116pt" height="140pt"
 viewBox="0.00 0.00 116.00 140.00" xmlns="http://www.w3.org/2000/svg" xmlns:xlink="http://www.w3.org/1999/xlink">
<g id="graph0" class="graph" transform="scale(1 1) rotate(0) translate(4 136)">
<title>RigDef::Wheel2</title>
<polygon fill="white" stroke="none" points="-4,4 -4,-136 112,-136 112,4 -4,4"/>
<!-- Node1 -->
<g id="node1" class="node"><title>Node1</title>
<polygon fill="#bfbfbf" stroke="black" points="11,-0.5 11,-19.5 97,-19.5 97,-0.5 11,-0.5"/>
<text text-anchor="middle" x="54" y="-7.5" font-family="Helvetica,sans-Serif" font-size="10.00">RigDef::Wheel2</text>
</g>
<!-- Node2 -->
<g id="node2" class="node"><title>Node2</title>
<g id="a_node2"><a xlink:href="struct_rig_def_1_1_base_wheel2.html" target="_top" xlink:title="RigDef::BaseWheel2">
<polygon fill="white" stroke="black" points="-0.5,-56.5 -0.5,-75.5 108.5,-75.5 108.5,-56.5 -0.5,-56.5"/>
<text text-anchor="middle" x="54" y="-63.5" font-family="Helvetica,sans-Serif" font-size="10.00">RigDef::BaseWheel2</text>
</a>
</g>
</g>
<!-- Node2&#45;&gt;Node1 -->
<g id="edge1" class="edge"><title>Node2&#45;&gt;Node1</title>
<path fill="none" stroke="midnightblue" d="M54,-45.8045C54,-36.9102 54,-26.7798 54,-19.7511"/>
<polygon fill="midnightblue" stroke="midnightblue" points="50.5001,-46.083 54,-56.083 57.5001,-46.083 50.5001,-46.083"/>
</g>
<!-- Node3 -->
<g id="node3" class="node"><title>Node3</title>
<g id="a_node3"><a xlink:href="struct_rig_def_1_1_base_wheel.html" target="_top" xlink:title="RigDef::BaseWheel">
<polygon fill="white" stroke="black" points="2,-112.5 2,-131.5 106,-131.5 106,-112.5 2,-112.5"/>
<text text-anchor="middle" x="54" y="-119.5" font-family="Helvetica,sans-Serif" font-size="10.00">RigDef::BaseWheel</text>
</a>
</g>
</g>
<!-- Node3&#45;&gt;Node2 -->
<g id="edge2" class="edge"><title>Node3&#45;&gt;Node2</title>
<path fill="none" stroke="midnightblue" d="M54,-101.805C54,-92.9102 54,-82.7798 54,-75.7511"/>
<polygon fill="midnightblue" stroke="midnightblue" points="50.5001,-102.083 54,-112.083 57.5001,-102.083 50.5001,-102.083"/>
</g>
</g>
</svg>
