<?xml version="1.0" encoding="UTF-8" standalone="no"?>
<!DOCTYPE svg PUBLIC "-//W3C//DTD SVG 1.1//EN"
 "http://www.w3.org/Graphics/SVG/1.1/DTD/svg11.dtd">
<!-- Generated by graphviz version 2.36.0 (20140111.2315)
 -->
<!-- Title: RigDef::ManagedMaterial::HasDamagedDiffuseMap Pages: 1 -->
<svg width="1230pt" height="66pt"
 viewBox="0.00 0.00 1230.00 66.00" xmlns="http://www.w3.org/2000/svg" xmlns:xlink="http://www.w3.org/1999/xlink">
<g id="graph0" class="graph" transform="scale(1 1) rotate(0) translate(4 62)">
<title>RigDef::ManagedMaterial::HasDamagedDiffuseMap</title>
<polygon fill="white" stroke="none" points="-4,4 -4,-62 1226,-62 1226,4 -4,4"/>
<!-- Node1 -->
<g id="node1" class="node"><title>Node1</title>
<polygon fill="#bfbfbf" stroke="black" points="0.5,-14 0.5,-44 133.5,-44 133.5,-14 0.5,-14"/>
<text text-anchor="start" x="8.5" y="-32" font-family="Helvetica,sans-Serif" font-size="10.00">RigDef::ManagedMaterial</text>
<text text-anchor="middle" x="67" y="-21" font-family="Helvetica,sans-Serif" font-size="10.00">::HasDamagedDiffuseMap</text>
</g>
<!-- Node2 -->
<g id="node2" class="node"><title>Node2</title>
<g id="a_node2"><a xlink:href="class_rig_def_1_1_parser.html#a0950beb92131d37d8dcb82d4b1812990" target="_top" xlink:title="RigDef::Parser::ParseManaged\lMaterials">
<polygon fill="white" stroke="black" points="170.5,-14 170.5,-44 323.5,-44 323.5,-14 170.5,-14"/>
<text text-anchor="start" x="178.5" y="-32" font-family="Helvetica,sans-Serif" font-size="10.00">RigDef::Parser::ParseManaged</text>
<text text-anchor="middle" x="247" y="-21" font-family="Helvetica,sans-Serif" font-size="10.00">Materials</text>
</a>
</g>
</g>
<!-- Node1&#45;&gt;Node2 -->
<g id="edge1" class="edge"><title>Node1&#45;&gt;Node2</title>
<path fill="none" stroke="midnightblue" d="M143.767,-29C152.581,-29 161.572,-29 170.384,-29"/>
<polygon fill="midnightblue" stroke="midnightblue" points="143.522,-25.5001 133.522,-29 143.522,-32.5001 143.522,-25.5001"/>
</g>
<!-- Node3 -->
<g id="node3" class="node"><title>Node3</title>
<g id="a_node3"><a xlink:href="class_rig_def_1_1_parser.html#a99a49d75798b1fa5dfbd00873455fbeb" target="_top" xlink:title="RigDef::Parser::ProcessCurrentLine">
<polygon fill="white" stroke="black" points="360,-19.5 360,-38.5 534,-38.5 534,-19.5 360,-19.5"/>
<text text-anchor="middle" x="447" y="-26.5" font-family="Helvetica,sans-Serif" font-size="10.00">RigDef::Parser::ProcessCurrentLine</text>
</a>
</g>
</g>
<!-- Node2&#45;&gt;Node3 -->
<g id="edge2" class="edge"><title>Node2&#45;&gt;Node3</title>
<path fill="none" stroke="midnightblue" d="M333.746,-29C342.368,-29 351.127,-29 359.755,-29"/>
<polygon fill="midnightblue" stroke="midnightblue" points="333.703,-25.5001 323.703,-29 333.703,-32.5001 333.703,-25.5001"/>
</g>
<!-- Node4 -->
<g id="node4" class="node"><title>Node4</title>
<g id="a_node4"><a xlink:href="class_rig_def_1_1_parser.html#ad1920ba0a8dc23ac5043b2c270ef5f47" target="_top" xlink:title="RigDef::Parser::ProcessRawLine">
<polygon fill="white" stroke="black" points="570,-19.5 570,-38.5 732,-38.5 732,-19.5 570,-19.5"/>
<text text-anchor="middle" x="651" y="-26.5" font-family="Helvetica,sans-Serif" font-size="10.00">RigDef::Parser::ProcessRawLine</text>
</a>
</g>
</g>
<!-- Node3&#45;&gt;Node4 -->
<g id="edge3" class="edge"><title>Node3&#45;&gt;Node4</title>
<path fill="none" stroke="midnightblue" d="M544.255,-29C552.806,-29 561.403,-29 569.799,-29"/>
<polygon fill="midnightblue" stroke="midnightblue" points="544.252,-25.5001 534.252,-29 544.252,-32.5001 544.252,-25.5001"/>
</g>
<!-- Node5 -->
<g id="node5" class="node"><title>Node5</title>
<g id="a_node5"><a xlink:href="class_rig_def_1_1_parser.html#ab08d0ba4ffb90b72cb351014bb7861bd" target="_top" xlink:title="RigDef::Parser::ProcessOgre\lStream">
<polygon fill="white" stroke="black" points="768.5,-14 768.5,-44 913.5,-44 913.5,-14 768.5,-14"/>
<text text-anchor="start" x="776.5" y="-32" font-family="Helvetica,sans-Serif" font-size="10.00">RigDef::Parser::ProcessOgre</text>
<text text-anchor="middle" x="841" y="-21" font-family="Helvetica,sans-Serif" font-size="10.00">Stream</text>
</a>
</g>
</g>
<!-- Node4&#45;&gt;Node5 -->
<g id="edge4" class="edge"><title>Node4&#45;&gt;Node5</title>
<path fill="none" stroke="midnightblue" d="M742.261,-29C751.034,-29 759.85,-29 768.403,-29"/>
<polygon fill="midnightblue" stroke="midnightblue" points="742.002,-25.5001 732.002,-29 742.001,-32.5001 742.002,-25.5001"/>
</g>
<!-- Node6 -->
<g id="node6" class="node"><title>Node6</title>
<g id="a_node6"><a xlink:href="class_beam.html#ab0cbc6c4e3822fc5786af2c8036f7efb" target="_top" xlink:title="Beam::LoadTruck">
<polygon fill="white" stroke="black" points="984,-38.5 984,-57.5 1078,-57.5 1078,-38.5 984,-38.5"/>
<text text-anchor="middle" x="1031" y="-45.5" font-family="Helvetica,sans-Serif" font-size="10.00">Beam::LoadTruck</text>
</a>
</g>
</g>
<!-- Node5&#45;&gt;Node6 -->
<g id="edge5" class="edge"><title>Node5&#45;&gt;Node6</title>
<path fill="none" stroke="midnightblue" d="M923.649,-37.2517C944.264,-39.3352 965.686,-41.5002 983.855,-43.3364"/>
<polygon fill="midnightblue" stroke="midnightblue" points="923.912,-33.7606 913.611,-36.2373 923.208,-40.7252 923.912,-33.7606"/>
</g>
<!-- Node8 -->
<g id="node8" class="node"><title>Node8</title>
<g id="a_node8"><a xlink:href="class_cache_system.html#ad640fd28c3075eb6310d8d8f3475cefb" target="_top" xlink:title="CacheSystem::fillTruckDetailInfo">
<polygon fill="white" stroke="black" points="950.5,-0.5 950.5,-19.5 1111.5,-19.5 1111.5,-0.5 950.5,-0.5"/>
<text text-anchor="middle" x="1031" y="-7.5" font-family="Helvetica,sans-Serif" font-size="10.00">CacheSystem::fillTruckDetailInfo</text>
</a>
</g>
</g>
<!-- Node5&#45;&gt;Node8 -->
<g id="edge7" class="edge"><title>Node5&#45;&gt;Node8</title>
<path fill="none" stroke="midnightblue" d="M923.584,-20.7548C932.49,-19.8547 941.547,-18.9394 950.429,-18.0418"/>
<polygon fill="midnightblue" stroke="midnightblue" points="923.208,-17.2748 913.611,-21.7627 923.912,-24.2394 923.208,-17.2748"/>
</g>
<!-- Node7 -->
<g id="node7" class="node"><title>Node7</title>
<g id="a_node7"><a xlink:href="class_beam.html#a0d55b25fa0d1623305f3ac51694cbd42" target="_top" xlink:title="Beam::Beam">
<polygon fill="white" stroke="black" points="1148,-38.5 1148,-57.5 1222,-57.5 1222,-38.5 1148,-38.5"/>
<text text-anchor="middle" x="1185" y="-45.5" font-family="Helvetica,sans-Serif" font-size="10.00">Beam::Beam</text>
</a>
</g>
</g>
<!-- Node6&#45;&gt;Node7 -->
<g id="edge6" class="edge"><title>Node6&#45;&gt;Node7</title>
<path fill="none" stroke="midnightblue" d="M1088.22,-48C1108.13,-48 1129.98,-48 1147.79,-48"/>
<polygon fill="midnightblue" stroke="midnightblue" points="1088.02,-44.5001 1078.02,-48 1088.02,-51.5001 1088.02,-44.5001"/>
</g>
</g>
</svg>
