<?xml version="1.0" encoding="UTF-8" standalone="no"?>
<!DOCTYPE svg PUBLIC "-//W3C//DTD SVG 1.1//EN"
 "http://www.w3.org/Graphics/SVG/1.1/DTD/svg11.dtd">
<!-- Generated by graphviz version 2.36.0 (20140111.2315)
 -->
<!-- Title: ErrorUtils::ShowInfo Pages: 1 -->
<svg width="476pt" height="66pt"
 viewBox="0.00 0.00 476.00 66.00" xmlns="http://www.w3.org/2000/svg" xmlns:xlink="http://www.w3.org/1999/xlink">
<g id="graph0" class="graph" transform="scale(1 1) rotate(0) translate(4 62)">
<title>ErrorUtils::ShowInfo</title>
<polygon fill="white" stroke="none" points="-4,4 -4,-62 472,-62 472,4 -4,4"/>
<!-- Node1 -->
<g id="node1" class="node"><title>Node1</title>
<polygon fill="#bfbfbf" stroke="black" points="0.5,-19.5 0.5,-38.5 105.5,-38.5 105.5,-19.5 0.5,-19.5"/>
<text text-anchor="middle" x="53" y="-26.5" font-family="Helvetica,sans-Serif" font-size="10.00">ErrorUtils::ShowInfo</text>
</g>
<!-- Node2 -->
<g id="node2" class="node"><title>Node2</title>
<g id="a_node2"><a xlink:href="namespace_ro_r.html#a9eac2ea904b95ab307ed42c002c2df72" target="_top" xlink:title="RoR::ShowCommandLineUsage">
<polygon fill="white" stroke="black" points="142.5,-38.5 142.5,-57.5 301.5,-57.5 301.5,-38.5 142.5,-38.5"/>
<text text-anchor="middle" x="222" y="-45.5" font-family="Helvetica,sans-Serif" font-size="10.00">RoR::ShowCommandLineUsage</text>
</a>
</g>
</g>
<!-- Node1&#45;&gt;Node2 -->
<g id="edge1" class="edge"><title>Node1&#45;&gt;Node2</title>
<path fill="none" stroke="midnightblue" d="M115.901,-36.0426C124.55,-37.0267 133.532,-38.0485 142.438,-39.0618"/>
<polygon fill="midnightblue" stroke="midnightblue" points="116.256,-32.5605 105.924,-34.9076 115.465,-39.5157 116.256,-32.5605"/>
</g>
<!-- Node5 -->
<g id="node5" class="node"><title>Node5</title>
<g id="a_node5"><a xlink:href="namespace_ro_r.html#a81052941e70e11a3166a3216747cfd0b" target="_top" xlink:title="RoR::ShowVersion">
<polygon fill="white" stroke="black" points="171.5,-0.5 171.5,-19.5 272.5,-19.5 272.5,-0.5 171.5,-0.5"/>
<text text-anchor="middle" x="222" y="-7.5" font-family="Helvetica,sans-Serif" font-size="10.00">RoR::ShowVersion</text>
</a>
</g>
</g>
<!-- Node1&#45;&gt;Node5 -->
<g id="edge4" class="edge"><title>Node1&#45;&gt;Node5</title>
<path fill="none" stroke="midnightblue" d="M115.91,-21.9563C134.204,-19.875 153.982,-17.6248 171.393,-15.644"/>
<polygon fill="midnightblue" stroke="midnightblue" points="115.465,-18.4843 105.924,-23.0924 116.256,-25.4395 115.465,-18.4843"/>
</g>
<!-- Node3 -->
<g id="node3" class="node"><title>Node3</title>
<g id="a_node3"><a xlink:href="main_8cpp.html#a0ddf1224851353fc92bfbff6f499fa97" target="_top" xlink:title="main">
<polygon fill="white" stroke="black" points="338,-19.5 338,-38.5 376,-38.5 376,-19.5 338,-19.5"/>
<text text-anchor="middle" x="357" y="-26.5" font-family="Helvetica,sans-Serif" font-size="10.00">main</text>
</a>
</g>
</g>
<!-- Node2&#45;&gt;Node3 -->
<g id="edge2" class="edge"><title>Node2&#45;&gt;Node3</title>
<path fill="none" stroke="midnightblue" d="M299.822,-37.0254C314.068,-34.9903 327.666,-33.0477 337.915,-31.5836"/>
<polygon fill="midnightblue" stroke="midnightblue" points="299.294,-33.5652 289.89,-38.4443 300.284,-40.4949 299.294,-33.5652"/>
</g>
<!-- Node4 -->
<g id="node4" class="node"><title>Node4</title>
<g id="a_node4"><a xlink:href="main_8cpp.html#a2922bc5d5c2d77a3020cfbf9df12aab0" target="_top" xlink:title="WinMain">
<polygon fill="white" stroke="black" points="412.5,-19.5 412.5,-38.5 467.5,-38.5 467.5,-19.5 412.5,-19.5"/>
<text text-anchor="middle" x="440" y="-26.5" font-family="Helvetica,sans-Serif" font-size="10.00">WinMain</text>
</a>
</g>
</g>
<!-- Node3&#45;&gt;Node4 -->
<g id="edge3" class="edge"><title>Node3&#45;&gt;Node4</title>
<path fill="none" stroke="midnightblue" d="M386.512,-29C394.929,-29 404.105,-29 412.397,-29"/>
<polygon fill="midnightblue" stroke="midnightblue" points="386.38,-25.5001 376.38,-29 386.38,-32.5001 386.38,-25.5001"/>
</g>
<!-- Node5&#45;&gt;Node3 -->
<g id="edge5" class="edge"><title>Node5&#45;&gt;Node3</title>
<path fill="none" stroke="midnightblue" d="M282.596,-18.5137C302.681,-21.383 323.616,-24.3737 337.964,-26.4234"/>
<polygon fill="midnightblue" stroke="midnightblue" points="282.919,-15.0244 272.524,-17.0749 281.929,-21.954 282.919,-15.0244"/>
</g>
</g>
</svg>
