<?xml version="1.0" encoding="UTF-8" standalone="no"?>
<!DOCTYPE svg PUBLIC "-//W3C//DTD SVG 1.1//EN"
 "http://www.w3.org/Graphics/SVG/1.1/DTD/svg11.dtd">
<!-- Generated by graphviz version 2.36.0 (20140111.2315)
 -->
<!-- Title: RigDef::BaseWheel2 Pages: 1 -->
<svg width="234pt" height="140pt"
 viewBox="0.00 0.00 234.00 140.00" xmlns="http://www.w3.org/2000/svg" xmlns:xlink="http://www.w3.org/1999/xlink">
<g id="graph0" class="graph" transform="scale(1 1) rotate(0) translate(4 136)">
<title>RigDef::BaseWheel2</title>
<polygon fill="white" stroke="none" points="-4,4 -4,-136 230,-136 230,4 -4,4"/>
<!-- Node1 -->
<g id="node1" class="node"><title>Node1</title>
<polygon fill="#bfbfbf" stroke="black" points="67.5,-56.5 67.5,-75.5 176.5,-75.5 176.5,-56.5 67.5,-56.5"/>
<text text-anchor="middle" x="122" y="-63.5" font-family="Helvetica,sans-Serif" font-size="10.00">RigDef::BaseWheel2</text>
</g>
<!-- Node3 -->
<g id="node3" class="node"><title>Node3</title>
<g id="a_node3"><a xlink:href="struct_rig_def_1_1_flex_body_wheel.html" target="_top" xlink:title="RigDef::FlexBodyWheel">
<polygon fill="white" stroke="black" points="0,-0.5 0,-19.5 122,-19.5 122,-0.5 0,-0.5"/>
<text text-anchor="middle" x="61" y="-7.5" font-family="Helvetica,sans-Serif" font-size="10.00">RigDef::FlexBodyWheel</text>
</a>
</g>
</g>
<!-- Node1&#45;&gt;Node3 -->
<g id="edge2" class="edge"><title>Node1&#45;&gt;Node3</title>
<path fill="none" stroke="midnightblue" d="M104.533,-49.5372C93.6562,-39.9087 80.0561,-27.8694 70.979,-19.8339"/>
<polygon fill="midnightblue" stroke="midnightblue" points="102.392,-52.3162 112.199,-56.324 107.032,-47.0749 102.392,-52.3162"/>
</g>
<!-- Node4 -->
<g id="node4" class="node"><title>Node4</title>
<g id="a_node4"><a xlink:href="struct_rig_def_1_1_wheel2.html" target="_top" xlink:title="RigDef::Wheel2">
<polygon fill="white" stroke="black" points="140,-0.5 140,-19.5 226,-19.5 226,-0.5 140,-0.5"/>
<text text-anchor="middle" x="183" y="-7.5" font-family="Helvetica,sans-Serif" font-size="10.00">RigDef::Wheel2</text>
</a>
</g>
</g>
<!-- Node1&#45;&gt;Node4 -->
<g id="edge3" class="edge"><title>Node1&#45;&gt;Node4</title>
<path fill="none" stroke="midnightblue" d="M139.467,-49.5372C150.344,-39.9087 163.944,-27.8694 173.021,-19.8339"/>
<polygon fill="midnightblue" stroke="midnightblue" points="136.968,-47.0749 131.801,-56.324 141.608,-52.3162 136.968,-47.0749"/>
</g>
<!-- Node2 -->
<g id="node2" class="node"><title>Node2</title>
<g id="a_node2"><a xlink:href="struct_rig_def_1_1_base_wheel.html" target="_top" xlink:title="RigDef::BaseWheel">
<polygon fill="white" stroke="black" points="70,-112.5 70,-131.5 174,-131.5 174,-112.5 70,-112.5"/>
<text text-anchor="middle" x="122" y="-119.5" font-family="Helvetica,sans-Serif" font-size="10.00">RigDef::BaseWheel</text>
</a>
</g>
</g>
<!-- Node2&#45;&gt;Node1 -->
<g id="edge1" class="edge"><title>Node2&#45;&gt;Node1</title>
<path fill="none" stroke="midnightblue" d="M122,-101.805C122,-92.9102 122,-82.7798 122,-75.7511"/>
<polygon fill="midnightblue" stroke="midnightblue" points="118.5,-102.083 122,-112.083 125.5,-102.083 118.5,-102.083"/>
</g>
</g>
</svg>
