<?xml version="1.0" encoding="UTF-8" standalone="no"?>
<!DOCTYPE svg PUBLIC "-//W3C//DTD SVG 1.1//EN"
 "http://www.w3.org/Graphics/SVG/1.1/DTD/svg11.dtd">
<!-- Generated by graphviz version 2.36.0 (20140111.2315)
 -->
<!-- Title: Profiler::Timer::Unpause Pages: 1 -->
<svg width="288pt" height="46pt"
 viewBox="0.00 0.00 288.00 46.00" xmlns="http://www.w3.org/2000/svg" xmlns:xlink="http://www.w3.org/1999/xlink">
<g id="graph0" class="graph" transform="scale(1 1) rotate(0) translate(4 42)">
<title>Profiler::Timer::Unpause</title>
<polygon fill="white" stroke="none" points="-4,4 -4,-42 284,-42 284,4 -4,4"/>
<!-- Node1 -->
<g id="node1" class="node"><title>Node1</title>
<polygon fill="#bfbfbf" stroke="black" points="0.5,-0.5 0.5,-19.5 123.5,-19.5 123.5,-0.5 0.5,-0.5"/>
<text text-anchor="middle" x="62" y="-7.5" font-family="Helvetica,sans-Serif" font-size="10.00">Profiler::Timer::Unpause</text>
</g>
<!-- Node1&#45;&gt;Node1 -->
<g id="edge1" class="edge"><title>Node1&#45;&gt;Node1</title>
<path fill="none" stroke="midnightblue" d="M37.6476,-19.7571C25.8005,-28.5653 33.918,-38 62,-38 80.4288,-38 90.2596,-33.9368 91.4924,-28.6539"/>
<polygon fill="midnightblue" stroke="midnightblue" points="94.3855,-26.665 86.3524,-19.7571 88.3243,-30.1668 94.3855,-26.665"/>
</g>
<!-- Node2 -->
<g id="node2" class="node"><title>Node2</title>
<g id="a_node2"><a xlink:href="struct_profiler_1_1_timer.html#ae56708deb9e2a771cd6f064ceb293106" target="_top" xlink:title="Profiler::Timer::getticks">
<polygon fill="white" stroke="black" points="160.5,-0.5 160.5,-19.5 279.5,-19.5 279.5,-0.5 160.5,-0.5"/>
<text text-anchor="middle" x="220" y="-7.5" font-family="Helvetica,sans-Serif" font-size="10.00">Profiler::Timer::getticks</text>
</a>
</g>
</g>
<!-- Node1&#45;&gt;Node2 -->
<g id="edge2" class="edge"><title>Node1&#45;&gt;Node2</title>
<path fill="none" stroke="midnightblue" d="M123.76,-10C132.43,-10 141.4,-10 150.21,-10"/>
<polygon fill="midnightblue" stroke="midnightblue" points="150.452,-13.5001 160.452,-10 150.452,-6.5001 150.452,-13.5001"/>
</g>
</g>
</svg>
