<?xml version="1.0" encoding="UTF-8" standalone="no"?>
<!DOCTYPE svg PUBLIC "-//W3C//DTD SVG 1.1//EN"
 "http://www.w3.org/Graphics/SVG/1.1/DTD/svg11.dtd">
<!-- Generated by graphviz version 2.36.0 (20140111.2315)
 -->
<!-- Title: beam_t Pages: 1 -->
<svg width="123pt" height="106pt"
 viewBox="0.00 0.00 123.00 106.00" xmlns="http://www.w3.org/2000/svg" xmlns:xlink="http://www.w3.org/1999/xlink">
<g id="graph0" class="graph" transform="scale(1 1) rotate(0) translate(4 102)">
<title>beam_t</title>
<polygon fill="white" stroke="none" points="-4,4 -4,-102 119,-102 119,4 -4,4"/>
<!-- Node1 -->
<g id="node1" class="node"><title>Node1</title>
<polygon fill="#bfbfbf" stroke="black" points="31.5,-0.5 31.5,-19.5 80.5,-19.5 80.5,-0.5 31.5,-0.5"/>
<text text-anchor="middle" x="56" y="-7.5" font-family="Helvetica,sans-Serif" font-size="10.00">beam_t</text>
</g>
<!-- Node2 -->
<g id="node2" class="node"><title>Node2</title>
<g id="a_node2"><a xlink:href="structnode__t.html" target="_top" xlink:title="node_t">
<polygon fill="white" stroke="black" points="0,-78.5 0,-97.5 46,-97.5 46,-78.5 0,-78.5"/>
<text text-anchor="middle" x="23" y="-85.5" font-family="Helvetica,sans-Serif" font-size="10.00">node_t</text>
</a>
</g>
</g>
<!-- Node2&#45;&gt;Node1 -->
<g id="edge1" class="edge"><title>Node2&#45;&gt;Node1</title>
<path fill="none" stroke="#9a32cd" stroke-dasharray="5,2" d="M30.9572,-68.6744C37.7142,-53.1127 47.1108,-31.4722 52.2586,-19.6165"/>
<polygon fill="#9a32cd" stroke="#9a32cd" points="27.558,-67.7152 26.7855,-78.2818 33.9788,-70.5032 27.558,-67.7152"/>
<text text-anchor="middle" x="51" y="-52" font-family="Helvetica,sans-Serif" font-size="10.00"> p1</text>
<text text-anchor="middle" x="51" y="-41" font-family="Helvetica,sans-Serif" font-size="10.00">p2</text>
</g>
<!-- Node3 -->
<g id="node3" class="node"><title>Node3</title>
<g id="a_node3"><a xlink:href="structshock__t.html" target="_top" xlink:title="shock_t">
<polygon fill="white" stroke="black" points="64.5,-78.5 64.5,-97.5 115.5,-97.5 115.5,-78.5 64.5,-78.5"/>
<text text-anchor="middle" x="90" y="-85.5" font-family="Helvetica,sans-Serif" font-size="10.00">shock_t</text>
</a>
</g>
</g>
<!-- Node3&#45;&gt;Node1 -->
<g id="edge2" class="edge"><title>Node3&#45;&gt;Node1</title>
<path fill="none" stroke="#9a32cd" stroke-dasharray="5,2" d="M82.0018,-69.1216C75.0265,-53.5297 65.2096,-31.5862 59.8547,-19.6165"/>
<polygon fill="#9a32cd" stroke="#9a32cd" points="78.8212,-70.5829 86.0998,-78.2818 85.2109,-67.7243 78.8212,-70.5829"/>
<text text-anchor="middle" x="93" y="-46.5" font-family="Helvetica,sans-Serif" font-size="10.00"> shock</text>
</g>
</g>
</svg>
