<?xml version="1.0" encoding="UTF-8" standalone="no"?>
<!DOCTYPE svg PUBLIC "-//W3C//DTD SVG 1.1//EN"
 "http://www.w3.org/Graphics/SVG/1.1/DTD/svg11.dtd">
<!-- Generated by graphviz version 2.36.0 (20140111.2315)
 -->
<!-- Title: Profiler::Timer::ms Pages: 1 -->
<svg width="302pt" height="104pt"
 viewBox="0.00 0.00 302.00 104.00" xmlns="http://www.w3.org/2000/svg" xmlns:xlink="http://www.w3.org/1999/xlink">
<g id="graph0" class="graph" transform="scale(1 1) rotate(0) translate(4 100)">
<title>Profiler::Timer::ms</title>
<polygon fill="white" stroke="none" points="-4,4 -4,-100 298,-100 298,4 -4,4"/>
<!-- Node1 -->
<g id="node1" class="node"><title>Node1</title>
<polygon fill="#bfbfbf" stroke="black" points="0,-38.5 0,-57.5 98,-57.5 98,-38.5 0,-38.5"/>
<text text-anchor="middle" x="49" y="-45.5" font-family="Helvetica,sans-Serif" font-size="10.00">Profiler::Timer::ms</text>
</g>
<!-- Node2 -->
<g id="node2" class="node"><title>Node2</title>
<g id="a_node2"><a xlink:href="struct_profiler_1_1_timer.html#a5bf411f300dd206210966238e65364f4" target="_top" xlink:title="Profiler::Timer::millicycles">
<polygon fill="white" stroke="black" points="149,-76.5 149,-95.5 279,-95.5 279,-76.5 149,-76.5"/>
<text text-anchor="middle" x="214" y="-83.5" font-family="Helvetica,sans-Serif" font-size="10.00">Profiler::Timer::millicycles</text>
</a>
</g>
</g>
<!-- Node1&#45;&gt;Node2 -->
<g id="edge1" class="edge"><title>Node1&#45;&gt;Node2</title>
<path fill="none" stroke="midnightblue" d="M101.028,-59.8961C123.939,-65.2374 150.604,-71.4537 172.164,-76.4799"/>
<polygon fill="midnightblue" stroke="midnightblue" points="101.665,-56.4509 91.1318,-57.589 100.076,-63.2681 101.665,-56.4509"/>
</g>
<!-- Node3 -->
<g id="node3" class="node"><title>Node3</title>
<g id="a_node3"><a xlink:href="struct_profiler_1_1_timer.html#a39a7ba4e831714879393c79c0a18c993" target="_top" xlink:title="Profiler::Timer::currentmillicycles">
<polygon fill="white" stroke="black" points="134,-38.5 134,-57.5 294,-57.5 294,-38.5 134,-38.5"/>
<text text-anchor="middle" x="214" y="-45.5" font-family="Helvetica,sans-Serif" font-size="10.00">Profiler::Timer::currentmillicycles</text>
</a>
</g>
</g>
<!-- Node1&#45;&gt;Node3 -->
<g id="edge2" class="edge"><title>Node1&#45;&gt;Node3</title>
<path fill="none" stroke="midnightblue" d="M108.028,-48C116.399,-48 125.131,-48 133.828,-48"/>
<polygon fill="midnightblue" stroke="midnightblue" points="108.024,-44.5001 98.0238,-48 108.024,-51.5001 108.024,-44.5001"/>
</g>
<!-- Node4 -->
<g id="node4" class="node"><title>Node4</title>
<g id="a_node4"><a xlink:href="struct_profiler_1_1_timer.html#ada03a3198fa3c26511b2bd97a56231bf" target="_top" xlink:title="Profiler::Timer::avgms">
<polygon fill="white" stroke="black" points="157.5,-0.5 157.5,-19.5 270.5,-19.5 270.5,-0.5 157.5,-0.5"/>
<text text-anchor="middle" x="214" y="-7.5" font-family="Helvetica,sans-Serif" font-size="10.00">Profiler::Timer::avgms</text>
</a>
</g>
</g>
<!-- Node1&#45;&gt;Node4 -->
<g id="edge3" class="edge"><title>Node1&#45;&gt;Node4</title>
<path fill="none" stroke="midnightblue" d="M101.028,-36.1039C123.939,-30.7626 150.604,-24.5463 172.164,-19.5201"/>
<polygon fill="midnightblue" stroke="midnightblue" points="100.076,-32.7319 91.1318,-38.411 101.665,-39.5491 100.076,-32.7319"/>
</g>
</g>
</svg>
