<?xml version="1.0" encoding="UTF-8" standalone="no"?>
<!DOCTYPE svg PUBLIC "-//W3C//DTD SVG 1.1//EN"
 "http://www.w3.org/Graphics/SVG/1.1/DTD/svg11.dtd">
<!-- Generated by graphviz version 2.36.0 (20140111.2315)
 -->
<!-- Title: source/configurator/wxValueChoice.h Pages: 1 -->
<svg width="212pt" height="96pt"
 viewBox="0.00 0.00 212.00 96.00" xmlns="http://www.w3.org/2000/svg" xmlns:xlink="http://www.w3.org/1999/xlink">
<g id="graph0" class="graph" transform="scale(1 1) rotate(0) translate(4 92)">
<title>source/configurator/wxValueChoice.h</title>
<polygon fill="white" stroke="none" points="-4,4 -4,-92 208,-92 208,4 -4,4"/>
<!-- Node1 -->
<g id="node1" class="node"><title>Node1</title>
<polygon fill="#bfbfbf" stroke="black" points="69,-57 69,-87 169,-87 169,-57 69,-57"/>
<text text-anchor="start" x="77" y="-75" font-family="Helvetica,sans-Serif" font-size="10.00">source/configurator</text>
<text text-anchor="middle" x="119" y="-64" font-family="Helvetica,sans-Serif" font-size="10.00">/wxValueChoice.h</text>
</g>
<!-- Node2 -->
<g id="node2" class="node"><title>Node2</title>
<polygon fill="white" stroke="#bfbfbf" points="-0.5,-0.5 -0.5,-19.5 68.5,-19.5 68.5,-0.5 -0.5,-0.5"/>
<text text-anchor="middle" x="34" y="-7.5" font-family="Helvetica,sans-Serif" font-size="10.00">wx/choice.h</text>
</g>
<!-- Node1&#45;&gt;Node2 -->
<g id="edge1" class="edge"><title>Node1&#45;&gt;Node2</title>
<path fill="none" stroke="midnightblue" d="M98.8562,-56.7808C85.4055,-47.2862 67.7782,-34.8434 54.2961,-25.3267"/>
<polygon fill="midnightblue" stroke="midnightblue" points="56.3087,-22.4632 46.1206,-19.5557 52.2719,-28.182 56.3087,-22.4632"/>
</g>
<!-- Node3 -->
<g id="node3" class="node"><title>Node3</title>
<polygon fill="white" stroke="#bfbfbf" points="86.5,-0.5 86.5,-19.5 151.5,-19.5 151.5,-0.5 86.5,-0.5"/>
<text text-anchor="middle" x="119" y="-7.5" font-family="Helvetica,sans-Serif" font-size="10.00">wx/string.h</text>
</g>
<!-- Node1&#45;&gt;Node3 -->
<g id="edge2" class="edge"><title>Node1&#45;&gt;Node3</title>
<path fill="none" stroke="midnightblue" d="M119,-56.7808C119,-48.7812 119,-38.6887 119,-30.0168"/>
<polygon fill="midnightblue" stroke="midnightblue" points="122.5,-29.7305 119,-19.7305 115.5,-29.7306 122.5,-29.7305"/>
</g>
<!-- Node4 -->
<g id="node4" class="node"><title>Node4</title>
<polygon fill="white" stroke="#bfbfbf" points="169.5,-0.5 169.5,-19.5 204.5,-19.5 204.5,-0.5 169.5,-0.5"/>
<text text-anchor="middle" x="187" y="-7.5" font-family="Helvetica,sans-Serif" font-size="10.00">map</text>
</g>
<!-- Node1&#45;&gt;Node4 -->
<g id="edge3" class="edge"><title>Node1&#45;&gt;Node4</title>
<path fill="none" stroke="midnightblue" d="M135.115,-56.7808C145.404,-47.7026 158.747,-35.9291 169.326,-26.5951"/>
<polygon fill="midnightblue" stroke="midnightblue" points="171.923,-28.9712 177.105,-19.7305 167.291,-23.7223 171.923,-28.9712"/>
</g>
</g>
</svg>
